<svg width="120" height="120" viewBox="0 0 120 120" fill="none" xmlns="http://www.w3.org/2000/svg">
<path d="M102.273 49.1643V32.2327C102.273 31.032 101.3 30.0586 100.099 30.0586C98.8986 30.0586 97.9252 31.032 97.9252 32.2327V44.772C97.9252 45.6479 97.2151 46.3579 96.3393 46.3579H91.0309L93.9396 50.9948H100.443C101.454 50.9948 102.273 50.1753 102.273 49.1643Z" fill="#376A77"/>
<path d="M103.922 74.3496V91.2812C103.922 92.4819 102.948 93.4553 101.748 93.4553C100.547 93.4553 99.5736 92.4819 99.5736 91.2812V78.7419C99.5736 77.866 98.8636 77.156 97.9877 77.156H93.1781L95.5881 72.5191H102.091C103.102 72.5191 103.922 73.3387 103.922 74.3496Z" fill="#376A77"/>
<path d="M97.4451 61.2139H110.607C111.81 61.2139 112.785 62.189 112.785 63.3918C112.785 64.5946 111.81 65.5697 110.607 65.5697H97.4451L98.7644 63.2786L97.4451 61.2139Z" fill="#376A77"/>
<path d="M20.3477 49.0654V32.1339C20.3477 30.9331 21.3211 29.9597 22.5218 29.9597C23.7225 29.9597 24.6959 30.9331 24.6959 32.1339V44.6732C24.6959 45.549 25.406 46.259 26.2818 46.259H31.5902L28.6815 50.8959H22.1781C21.1672 50.8959 20.3477 50.0764 20.3477 49.0654Z" fill="#376A77"/>
<path d="M17.9141 74.3496V91.2812C17.9141 92.4819 18.8875 93.4553 20.0882 93.4553C21.2889 93.4553 22.2623 92.4819 22.2623 91.2812V78.7419C22.2623 77.866 22.9724 77.156 23.8482 77.156H27.5929L26.2303 72.5191H19.7446C18.7336 72.5191 17.9141 73.3387 17.9141 74.3496Z" fill="#376A77"/>
<path d="M24.5588 60.8191H11.3967C10.1938 60.8191 9.21875 61.7942 9.21875 62.997C9.21875 64.1999 10.1938 65.1749 11.3967 65.1749H24.5588L23.2395 62.8838L24.5588 60.8191Z" fill="#376A77"/>
<path d="M67.5586 29.2846V13.5716C67.5586 12.4573 68.4619 11.554 69.5763 11.554C70.6906 11.554 71.5939 12.4573 71.5939 13.5716V26.6802V30.9834H69.2573C68.3191 30.9834 67.5586 30.2228 67.5586 29.2846Z" fill="#376A77"/>
<path d="M49.4492 29.2846V13.5716C49.4492 12.4573 50.3526 11.554 51.4669 11.554C52.5812 11.554 53.4845 12.4573 53.4845 13.5716V26.6802V30.9834H51.148C50.2098 30.9834 49.4492 30.2228 49.4492 29.2846Z" fill="#376A77"/>
<path d="M88.8183 75.9906L96.4628 61.2638L91.4604 60.9894L61.892 106.768C61.9691 106.769 88.8183 75.9906 88.8183 75.9906Z" fill="#00DC82"/>
<path d="M88.0763 44.3469L88.0743 44.3469L96.468 61.2888L91.6748 61.2888L82.8917 44.3469L88.0763 44.3469Z" fill="#00DC82"/>
<path d="M30.3041 74.9383L27.9063 66.5064C27.7809 65.9515 26.1123 61.522 26.0219 61.2772L29.1143 62.1313L30.7487 75.3215C30.6902 75.3139 30.3501 75.0625 30.3041 74.9383Z" fill="#00DC82"/>
<path d="M60.9277 107.042C60.9277 107.042 30.9506 75.4457 30.7452 75.3183L28.9664 62.1048L34.7708 63.2375L43.8115 68.266L60.9277 107.042Z" fill="#33E39B"/>
<path d="M34.2594 44.3638L26.0172 61.2831L29.1095 62.1376L42.3038 44.3638L34.2594 44.3638Z" fill="#00DC82"/>
<path d="M64.0067 44.3596L38.6174 44.3596L28.9632 62.1253L31.7641 62.899L43.8087 68.2679L64.0067 44.3596Z" fill="#33E39B"/>
<path opacity="0.75" d="M38.9141 64.8269L34.1915 63.5224L31.5558 58.6682L33.1992 56.4315L37.0696 59.8677L38.9141 64.8269Z" fill="#33E39B"/>
<path d="M61.9691 106.702L74.2908 92.9996C74.2908 92.9996 81.8901 83.5341 82.2139 83.1162L73.0464 82.136L60.9251 107.104C61.0276 107.134 61.8044 106.914 61.9691 106.702Z" fill="#00DC82"/>
<path d="M58.1103 103.567C58.3213 104.024 60.5247 107.201 60.9558 107.105L84.7937 74.316L62.8715 79.9918L44.3037 83.0771L58.1103 103.567Z" fill="#33E39B"/>
<path d="M84.2829 44.3554L84.8506 45.072L93.778 62.2366L80.3908 71.9319L77.0061 69.9857L65.8705 44.3554L84.2829 44.3554Z" fill="#00DC82"/>
<path d="M46.9563 44.3693L83.7155 44.3693L91.4179 60.7759L84.7029 74.4127L65.5852 81.6181L41.7939 83.0821L46.9563 44.3693Z" fill="#33E39B"/>
<path opacity="0.75" d="M52.3514 79.9836L61.1105 81.0023L68.9332 73.3626L67.7986 67.6555L58.9368 71.5296L52.3514 79.9836Z" fill="#33E39B"/>
<path opacity="0.75" d="M47.4564 92.842L65.4525 101.718L68.5568 97.984L55.8917 44.3769L45.7375 53.828L29.8047 68.2706L30.2178 71.4083L30.7473 75.3202L47.4564 92.842Z" fill="#99F1CD"/>
<path opacity="0.75" d="M84.7157 74.4188L91.4184 60.8893L83.9888 44.353L70.0564 44.353L55.8164 44.353L84.7157 74.4188Z" fill="#99F1CD"/>
<path d="M86.7604 42.1871C72.5976 42.1871 35.4727 42.1871 35.4727 42.1871C35.4727 27.9997 46.9538 16.4985 61.1165 16.4985C75.2792 16.4985 86.7604 27.9997 86.7604 42.1871Z" fill="#1C424C"/>
<path d="M59.3798 16.5503L39.4199 42.1557H35.4609C35.6016 40.1828 35.0248 35.6963 39.2786 28.7071C44.505 20.1199 53.198 16.9357 59.3798 16.5503Z" fill="url(#paint0_linear)"/>
<path d="M49.5156 42.1608L59.4009 16.5171L74.7779 30.9375L49.5156 42.1608Z" fill="url(#paint1_linear)"/>
<path d="M86.757 42.1539L59.3633 16.5481C67.7859 16.0192 73.6886 19.1894 78.2819 23.036C83.8273 27.6801 87.1266 36.3325 86.757 42.1539Z" fill="url(#paint2_linear)"/>
<defs>
<linearGradient id="paint0_linear" x1="47.4204" y1="16.5502" x2="47.4204" y2="42.1556" gradientUnits="userSpaceOnUse">
<stop stop-color="#255461"/>
<stop offset="1" stop-color="#255461" stop-opacity="0"/>
</linearGradient>
<linearGradient id="paint1_linear" x1="62.1468" y1="16.5171" x2="62.1468" y2="42.1608" gradientUnits="userSpaceOnUse">
<stop stop-color="#497A87"/>
<stop offset="1" stop-color="#497A87" stop-opacity="0"/>
</linearGradient>
<linearGradient id="paint2_linear" x1="73.0742" y1="16.4902" x2="73.0742" y2="42.1539" gradientUnits="userSpaceOnUse">
<stop stop-color="#71A2B0"/>
<stop offset="1" stop-color="#71A2B0" stop-opacity="0"/>
</linearGradient>
</defs>
</svg>
