<svg id="Layer_1" data-name="Layer 1" xmlns="http://www.w3.org/2000/svg" viewBox="0 0 612 218.69"><defs><style>.cls-1{fill:#000;fill-rule:evenodd;}</style></defs><title>logo-GOTO-neg</title><path class="cls-1" d="M4.07,63.1A66.52,66.52,0,0,1,15.9,41.6a58.13,58.13,0,0,1,19-15A56,56,0,0,1,60.34,21c12.11,0,23,4.42,32.45,13.25v9.41l7.14-.3,0-18.51,40.12,0,.15,126.66c0,11.14-1.72,20.46-5.12,28.05a47.21,47.21,0,0,1-14.34,18.39,59.48,59.48,0,0,1-22,10.19,119.22,119.22,0,0,1-28.07,3.14,124.58,124.58,0,0,1-19.15-1.41,63.67,63.67,0,0,1-17.4-5.06,46.16,46.16,0,0,1-14.27-10,43.15,43.15,0,0,1-9.65-16.52A35.7,35.7,0,0,1,7.74,167l42.74-.06c2.11,5.3,5.17,8.69,9.13,10.42a34.42,34.42,0,0,0,13.84,2.59c9.88,0,16.76-2.57,20.72-7.62s5.91-12.25,5.9-21.65l0-20.54H92.66v15.38a56,56,0,0,1-15.94,8.07A60.46,60.46,0,0,1,58.94,156c-9.88,0-18.46-1.83-25.73-5.58a54.91,54.91,0,0,1-18.36-15A64.86,64.86,0,0,1,3.71,113.81,87.74,87.74,0,0,1,0,88.28,77.63,77.63,0,0,1,4.07,63.1Zm471.69,88.21,0-15.64a29,29,0,0,0,13.48-5.1,30.77,30.77,0,0,0,8.82-10,49.61,49.61,0,0,0,4.85-13,62.34,62.34,0,0,0,1.56-13.83A77.44,77.44,0,0,0,503.14,79a40.76,40.76,0,0,0-4.51-12.54,27.58,27.58,0,0,0-8.7-9.33,35.89,35.89,0,0,0-14.29-5.33l0-15.39-6.55,0V52a30.9,30.9,0,0,0-13.49,4.82,30.51,30.51,0,0,0-8.93,9.55,41.59,41.59,0,0,0-5,12.65A60.06,60.06,0,0,0,440.11,93a89,89,0,0,0,1.19,15.23,37,37,0,0,0,4.38,12.4,29.3,29.3,0,0,0,8.83,9.37,42.2,42.2,0,0,0,14.68,6v15.41Zm-6.56,1.55,0,15.38c-2.49-.18-5-.28-7.54-.35s-5.06-.32-7.51-.64a62.39,62.39,0,0,1-23.76-9.13,64.75,64.75,0,0,1-17.31-16.65,75.35,75.35,0,0,1-10.59-22,89.51,89.51,0,0,1-3.61-25.14,80.86,80.86,0,0,1,5-28.69A71.56,71.56,0,0,1,418,42.3a65,65,0,0,1,22.16-15.91A75.5,75.5,0,0,1,469,19.92l0,14.88,6.55,0V19.91a83.13,83.13,0,0,1,28.92,6.4A66.68,66.68,0,0,1,526.7,41.22a65.92,65.92,0,0,1,14.14,22.43,80.26,80.26,0,0,1,5,28.91,83.68,83.68,0,0,1-3.78,25.31A73.27,73.27,0,0,1,530.91,140a69,69,0,0,1-18,16.81,67.94,67.94,0,0,1-24.12,9.57c-2.1.33-4.24.58-6.34.8s-4.31.41-6.62.74l0-15.1ZM325.77,24.53l0-24.48,39.85,0,0,24.5,27.19-.05,0,30.5-26.93,0L366,117.5c0,5,.92,9,2.79,11.93s5.57,4.41,11.21,4.4a58.3,58.3,0,0,0,6.33-.29c2.13-.15,4.14-.41,6.08-.73l0,30.86c-4.59.69-9.23,1.12-14,1.43s-9.5.4-14.2.4c-13.74,0-23.54-3.05-29.42-9.32s-8.9-16.05-8.92-29.55L325.81,55l-19.52,0,0-30.49ZM235.43,151.59l0-15.63a28.93,28.93,0,0,0,13.44-5.1,30.81,30.81,0,0,0,8.83-10.05,50.57,50.57,0,0,0,4.86-13A64.3,64.3,0,0,0,264.15,94a76.4,76.4,0,0,0-1.38-14.71,41.34,41.34,0,0,0-4.51-12.56,27.26,27.26,0,0,0-8.7-9.32A36.19,36.19,0,0,0,235.3,52l0-15.38H228.7V52.29a31,31,0,0,0-13.45,4.83,30.55,30.55,0,0,0-9,9.56,43.36,43.36,0,0,0-5,12.64,62.23,62.23,0,0,0-1.56,13.93,91,91,0,0,0,1.21,15.23,37.7,37.7,0,0,0,4.36,12.39,29.72,29.72,0,0,0,8.85,9.38,42.47,42.47,0,0,0,14.67,5.94l0,15.42Zm-6.58,1.57v15.37c-2.46-.17-5-.27-7.55-.34s-5.05-.33-7.53-.65a62.19,62.19,0,0,1-23.73-9.14,64,64,0,0,1-17.29-16.64,73.59,73.59,0,0,1-10.6-22,89.19,89.19,0,0,1-3.6-25.14,81.14,81.14,0,0,1,5-28.7,71.28,71.28,0,0,1,14.08-23.31,65.06,65.06,0,0,1,22.17-15.91,75.36,75.36,0,0,1,28.86-6.47l0,14.86h6.58V20.21a82.82,82.82,0,0,1,28.91,6.4,67.58,67.58,0,0,1,22.17,14.9,65.79,65.79,0,0,1,14.13,22.43,80.1,80.1,0,0,1,5,28.92,83.55,83.55,0,0,1-3.76,25.3,73.36,73.36,0,0,1-11.17,22.16,69.83,69.83,0,0,1-18.06,16.8,68.49,68.49,0,0,1-24.13,9.58c-2.09.34-4.22.57-6.35.8s-4.3.4-6.58.74l0-15.09ZM100,128.29l-.11-83.4-7.14.27,0,19.77A28.42,28.42,0,0,0,69.61,53.75a26.65,26.65,0,0,0-12.79,3,30.22,30.22,0,0,0-9.64,7.9,35.41,35.41,0,0,0-5.92,11,41.75,41.75,0,0,0,0,25.22,33,33,0,0,0,5.82,10.73,29.24,29.24,0,0,0,9.39,7.56,27.61,27.61,0,0,0,12.63,2.8,24,24,0,0,0,13.09-3.38,62.49,62.49,0,0,0,10.65-8.6l-.22,18.21ZM612,31.5l0,41.56-43.24,0-.06-41.55ZM567.2,203.93a39.4,39.4,0,0,0,17-12.6q6.2-8.22,6.2-19.9l-21.47,0-.06-41.61,42.65-.05-.24,35.45a59.52,59.52,0,0,1-3,20.15,44.46,44.46,0,0,1-8.7,14.74,51.45,51.45,0,0,1-13.91,10.73,113.31,113.31,0,0,1-18.73,7.83V203.93Z"/></svg>
