<svg xmlns="http://www.w3.org/2000/svg" viewBox="0 0 530.94 259.07">
  <path
    d="M464.2 241a4.18 4.18 0 0 1 .35-1.73 4.44 4.44 0 0 1 .95-1.41 4.07 4.07 0 0 1 1.38-.92 4.3 4.3 0 0 1 4.65.92 4.38 4.38 0 0 1-3 7.57 4.29 4.29 0 0 1-3-1.19 4.15 4.15 0 0 1-1.33-3.24Zm30-34.78h7.19v38.62h-5.13l-.76-2.82h-.27a8.4 8.4 0 0 1-2.79 2.38 9.48 9.48 0 0 1-4.73 1 11.27 11.27 0 0 1-4.54-.92 10.56 10.56 0 0 1-3.68-2.65 12.27 12.27 0 0 1-2.46-4.22 16.6 16.6 0 0 1-.89-5.68 18 18 0 0 1 .81-5.57 12.22 12.22 0 0 1 2.32-4.24 10.08 10.08 0 0 1 3.74-2.7 12.65 12.65 0 0 1 5.08-1 11.18 11.18 0 0 1 3.49.54 7.29 7.29 0 0 1 2.62 1.41Zm0 19.58a5.78 5.78 0 0 0-1.84-1.46 5.26 5.26 0 0 0-2.49-.6 7 7 0 0 0-2.46.44 5.39 5.39 0 0 0-2.05 1.38 6.84 6.84 0 0 0-1.43 2.48 11.22 11.22 0 0 0-.55 3.76 12.85 12.85 0 0 0 .49 3.74 8.06 8.06 0 0 0 1.3 2.59 5 5 0 0 0 1.92 1.52 5.85 5.85 0 0 0 2.35.48 5.05 5.05 0 0 0 3-.84 5.45 5.45 0 0 0 1.81-2Zm36.78 8h-17.19v.2a5.22 5.22 0 0 0 2.17 4.6 9.49 9.49 0 0 0 5.57 1.51 15 15 0 0 0 3.81-.43 19.85 19.85 0 0 0 3-1l1.3 5a17.57 17.57 0 0 1-3.68 1.22 23.66 23.66 0 0 1-5.24.51 18.78 18.78 0 0 1-5.49-.78 12.47 12.47 0 0 1-4.49-2.41 11.6 11.6 0 0 1-3.06-4.11 14.2 14.2 0 0 1-1.13-5.95 16.33 16.33 0 0 1 .91-5.6 12.33 12.33 0 0 1 2.63-4.3 11.92 11.92 0 0 1 4.08-2.78 13.49 13.49 0 0 1 5.3-1 11.14 11.14 0 0 1 8.36 3.19q3.1 3.2 3.11 8.92Zm-7.36-4.92a8.36 8.36 0 0 0-.24-2 4.67 4.67 0 0 0-.79-1.7 4 4 0 0 0-1.39-1.18 4.32 4.32 0 0 0-2-.43 4.76 4.76 0 0 0-3.57 1.46A6.58 6.58 0 0 0 514 229ZM117.41 99.9h27.29l-13.61 23.59Zm-17.14 72.3 13.52-23.5H86.68Zm14.88-23.44c-4.65 8.1-9 15.61-13.55 23.55h27.15Zm-14.28 24.57 13.52 23.37c4.69-8.16 9-15.57 13.45-23.37Zm-.2-49-13.49 23.4h27.05c-4.56-7.88-8.88-15.34-13.56-23.4ZM58.26 98.78h26.95L71.77 75.44c-4.68 8.08-9.09 15.69-13.51 23.34Zm72.93-23.34-13.48 23.34h27Zm-58.1 47.88h27L86.58 99.9Zm27-48h-27c4.6 7.93 8.91 15.41 13.54 23.46Zm2.73.07 13.49 23.35 13.46-23.35ZM88 98.78h26.88l-13.43-23.3Zm-16.31 24.49L85.13 99.9H58.21Zm27.5 1.33H72.37c4.53 7.84 8.8 15.25 13.41 23.22Zm198.81-.76c-14.73 0-26.66 11.26-26.66 25.16s11.93 25.15 26.66 25.15 26.65-11.26 26.65-25.15-11.89-25.16-26.65-25.16Z"
    fill="#42B883" />
  <path
    d="M357 219.05h7.63l-9.14 25.8h-8.33l-8.87-25.8h7.68l3.79 12.87 1.56 7.79h.22l1.57-7.79Zm28 0h7.19v25.8h-5.35l-.76-2.92h-.22a14.51 14.51 0 0 1-1.38 1.21 9.31 9.31 0 0 1-1.84 1.14 12.18 12.18 0 0 1-2.37.84 12.82 12.82 0 0 1-2.95.32 9 9 0 0 1-6.57-2.32q-2.42-2.33-2.41-6.87v-17.2h7.19v16.6a4.41 4.41 0 0 0 1.11 3.36 4 4 0 0 0 2.84 1 6.47 6.47 0 0 0 3.33-.81 7.31 7.31 0 0 0 2.19-1.89Zm36.67 14.76h-17.18v.19a5.24 5.24 0 0 0 2.16 4.6 9.53 9.53 0 0 0 5.58 1.51 15 15 0 0 0 3.81-.43 19.85 19.85 0 0 0 3-1l1.3 5a17.77 17.77 0 0 1-3.68 1.22 23.69 23.69 0 0 1-5.25.51 18.87 18.87 0 0 1-5.49-.78 12.55 12.55 0 0 1-4.49-2.41 11.58 11.58 0 0 1-3.05-4.11 14.19 14.19 0 0 1-1.14-5.95 16.32 16.32 0 0 1 .92-5.6 12.33 12.33 0 0 1 2.63-4.3 11.92 11.92 0 0 1 4.08-2.78 13.49 13.49 0 0 1 5.3-1 11.14 11.14 0 0 1 8.36 3.19q3.11 3.2 3.11 8.92Zm-7.36-4.92a8.36 8.36 0 0 0-.24-2 4.84 4.84 0 0 0-.79-1.7 4 4 0 0 0-1.38-1.19 4.32 4.32 0 0 0-2-.43 4.76 4.76 0 0 0-3.57 1.46 6.52 6.52 0 0 0-1.68 3.95Zm12.69-9.84h7.2v22.17a33.94 33.94 0 0 1-.46 5.68 16.07 16.07 0 0 1-1.63 4.84 13.84 13.84 0 0 1-3.11 3.92 17.17 17.17 0 0 1-4.92 3l-3.08-4.94a17.5 17.5 0 0 0 2.7-1.68 7 7 0 0 0 1.87-2.19 10.48 10.48 0 0 0 1.08-3.3 28.41 28.41 0 0 0 .35-5Zm3.68-5.52a3.79 3.79 0 0 1-2.89-1.05 3.67 3.67 0 0 1-1-2.63 3.62 3.62 0 0 1 1-2.62 3.85 3.85 0 0 1 2.87-1 3.74 3.74 0 0 1 2.81 1 3.86 3.86 0 0 1 0 5.25 3.74 3.74 0 0 1-2.75 1.05ZM457 225.22a14.35 14.35 0 0 0-6.16-1.52 5 5 0 0 0-2.68.6 1.82 1.82 0 0 0-.95 1.62 2 2 0 0 0 .84 1.67 11.29 11.29 0 0 0 3.38 1.41l1.62.49a11.06 11.06 0 0 1 5.09 2.81 6.68 6.68 0 0 1 1.73 4.76 7.3 7.3 0 0 1-2.95 6.11 12.76 12.76 0 0 1-8 2.27 19.45 19.45 0 0 1-8.81-1.84l1.62-5.3a19 19 0 0 0 3.3 1.33 12.39 12.39 0 0 0 3.52.51 5.78 5.78 0 0 0 3.16-.67 2 2 0 0 0 1-1.76 2 2 0 0 0-1-1.76 15.92 15.92 0 0 0-3.68-1.38l-1.68-.49a10.42 10.42 0 0 1-4.76-2.86 7.82 7.82 0 0 1 1.14-10.49q2.64-2.22 7.41-2.22a19.79 19.79 0 0 1 8.33 1.67ZM115.77 196.7h30.7c18.37-31.89 36.73-63.79 55.32-96.06H171Zm142.64-20.94a38.17 38.17 0 0 1-5.48.37 30.81 30.81 0 0 1-9.17-1.43 21.53 21.53 0 0 1-8.21-4.78 25.19 25.19 0 0 1-5.92-8.59 32.19 32.19 0 0 1-2.29-12.9q0-13.55 6.87-20.34t18-6.78a29 29 0 0 1 6.41.71 48.15 48.15 0 0 1 17.24-13.92l.22-.73a51.92 51.92 0 0 0-14.23-5.16 69.67 69.67 0 0 0-12.89-1.33 56.6 56.6 0 0 0-20.44 3.53 47.36 47.36 0 0 0-15.85 9.93 43.82 43.82 0 0 0-10.31 15.28 51.29 51.29 0 0 0-3.63 19.58 51.5 51.5 0 0 0 3.82 20.53 42.66 42.66 0 0 0 10.41 14.9 43.5 43.5 0 0 0 15.66 9.07 61.8 61.8 0 0 0 19.77 3.06 63.23 63.23 0 0 0 16.8-2.11c5.1-1.4 8.72-2.73 10.89-4l-.2-.73a48.19 48.19 0 0 1-17.47-14.16Zm150-66.48q-8.2-8.4-23.68-8.4a38.16 38.16 0 0 0-16.61 3.63 47.42 47.42 0 0 0-13.76 9.93L351.1 103h-22v10.63a44.28 44.28 0 0 1 0 70.77v10.27h28.3V132a30.88 30.88 0 0 1 8.88-7.07 20.7 20.7 0 0 1 9.65-2.67q6.1 0 9.26 3.91t3.15 10.6v57.87h28.27v-60.72q0-16.23-8.22-24.64Zm66.37-26.36q3-3.44 9.08-3.43a22 22 0 0 1 7 1.05 46.69 46.69 0 0 1 6.2 2.58L502.55 65a49.32 49.32 0 0 0-12.12-5A54.1 54.1 0 0 0 476 58.1q-14.33 0-23.31 7.92t-9 23.4V103H429.6v20.24h14.13v71.43h28.07v-71.45h21.59V103H471.8v-8.23c0-5.61.99-9.55 2.96-11.85ZM234.09 206a129.5 129.5 0 1 1 18.7-116.23A115 115 0 1 0 234.09 206Z"
    fill="#35495e" />
</svg>