<svg xmlns="http://www.w3.org/2000/svg" width="171" height="36" viewBox="0 0 171 36"><defs><linearGradient id="a" x1="49.955%" x2="49.955%" y1="99.326%" y2=".029%"><stop offset="0%" stop-color="#9ACA3C"/><stop offset="11.95%" stop-color="#B7CA3F"/><stop offset="26.87%" stop-color="#D1CA46"/><stop offset="42.57%" stop-color="#E5CA4D"/><stop offset="59.19%" stop-color="#F2C952"/><stop offset="77.37%" stop-color="#FBC955"/><stop offset="100%" stop-color="#FFC956"/></linearGradient><linearGradient id="b" x1="49.994%" x2="49.994%" y1="95.823%" y2="8.903%"><stop offset="0%" stop-color="#1F6AB4"/><stop offset="8.372%" stop-color="#2B79B2"/><stop offset="21.22%" stop-color="#398DB1"/><stop offset="34.67%" stop-color="#459FAF"/><stop offset="48.71%" stop-color="#4EADAC"/><stop offset="63.56%" stop-color="#55B7A8"/><stop offset="79.79%" stop-color="#59BEA6"/><stop offset="100%" stop-color="#5AC1A6"/></linearGradient></defs><g fill="none" fill-rule="evenodd"><path fill="#121314" d="M89.472 28h2.904V17.824h3.312v-2.4h-3.36v-.696c0-1.32.576-1.92 1.68-1.92.624 0 1.128.12 1.704.312v-2.448a7.77 7.77 0 0 0-2.352-.336c-1.248 0-2.184.336-2.856 1.008-.672.672-1.032 1.728-1.032 3.144v.912h-1.608v2.424h1.608V28zm11.424.096h2.592l2.856-8.664 2.832 8.664h2.592l4.152-12.768h-2.904l-2.592 8.688-2.832-8.736h-2.472l-2.808 8.736-2.544-8.688h-2.976l4.104 12.768zm22.368.168c-2.976 0-5.88-2.376-5.88-6.624 0-4.2 2.856-6.576 5.88-6.576 2.088 0 3.408 1.056 4.32 2.232V10.48h2.904V28h-2.904v-2.112c-.936 1.32-2.256 2.376-4.32 2.376zm.696-2.52c1.944 0 3.672-1.632 3.672-4.104 0-2.448-1.728-4.056-3.672-4.056-1.992 0-3.648 1.536-3.648 4.104 0 2.448 1.68 4.056 3.648 4.056zM144.744 28h-2.88v-1.56c-.864 1.032-2.184 1.824-4.104 1.824-2.4 0-4.512-1.368-4.512-3.96 0-2.808 2.184-4.152 5.136-4.152 1.536 0 2.52.216 3.504.528v-.24c0-1.752-1.104-2.712-3.12-2.712-1.416 0-2.472.312-3.624.792l-.792-2.328c1.392-.624 2.76-1.056 4.824-1.056 3.744 0 5.568 1.968 5.568 5.352V28zm-2.808-4.584v-.72c-.744-.288-1.776-.504-2.904-.504-1.824 0-2.904.744-2.904 2.016 0 1.2 1.08 1.872 2.448 1.872 1.92 0 3.36-1.08 3.36-2.664zm8.376 8.496c2.04 0 3.168-.96 4.176-3.552l5.04-13.032h-3.024l-3.288 9.408-3.6-9.408h-3.096L151.8 28c-.48 1.104-.984 1.464-1.8 1.464-.6 0-1.176-.192-1.704-.48l-.984 2.16c.888.48 1.776.768 3 .768zm15.576-3.672c2.64 0 4.704-1.32 4.704-3.984 0-2.328-2.088-3.168-3.936-3.744-.072-.024-.168-.048-.24-.072-1.392-.456-2.616-.84-2.616-1.704 0-.792.648-1.32 1.776-1.32 1.056 0 2.352.456 3.576 1.2l1.152-2.064c-1.344-.888-3.072-1.44-4.656-1.44-2.52 0-4.512 1.464-4.512 3.864 0 2.472 2.088 3.24 3.96 3.792l.216.072c1.392.408 2.616.744 2.616 1.68 0 .888-.72 1.416-1.968 1.416-1.296 0-2.784-.528-4.152-1.56l-1.296 1.968c1.584 1.248 3.576 1.896 5.376 1.896z"/><path fill="url(#a)" d="M16.867 34.224L0 17.51 16.867.796 18.4 2.284 3.035 17.51 18.4 32.705z"/><path fill="url(#b)" d="M55.747 35.816L44.916 25.11 34.084 35.816 17.821 19.742 2.347 35.067.8 33.538l17.021-16.824 16.263 16.075 10.832-10.706 10.831 10.706 15.506-15.294 1.547 1.498z"/><path fill="#F4772E" d="M19.2 1.592c0 .881-.714 1.592-1.6 1.592A1.593 1.593 0 0 1 17.6 0c.886 0 1.6.71 1.6 1.592z"/><ellipse cx="1.6" cy="17.51" fill="#C1B32D" rx="1.6" ry="1.592"/><ellipse cx="1.6" cy="34.242" fill="#1363A5" rx="1.6" ry="1.592"/><ellipse cx="18" cy="18.306" fill="#32BCA9" rx="2.4" ry="2.388"/><ellipse cx="34.1" cy="34.392" fill="#1363A5" rx="1.6" ry="1.592"/><ellipse cx="44.9" cy="23.292" fill="#32BCA9" rx="1.6" ry="1.592"/><ellipse cx="55.75" cy="34.392" fill="#1363A5" rx="1.6" ry="1.592"/><ellipse cx="71.2" cy="19.102" fill="#32BCA9" rx="2.4" ry="2.388"/><path fill="#4CB748" d="M20 34.242c0 .881-.714 1.592-1.6 1.592-.886 0-1.6-.711-1.6-1.592 0-.881.714-1.592 1.6-1.592.886 0 1.6.71 1.6 1.592z"/></g></svg>
