<svg width="100" height="100" viewBox="0 0 100 100" fill="none" xmlns="http://www.w3.org/2000/svg">
<g clip-path="url(#clip0)">
<path d="M6.42907 50.0718V26.2062C6.40567 25.7861 6.50752 25.3685 6.72171 25.0063C6.93589 24.6441 7.25278 24.3537 7.6322 24.1718L48.7978 0.396802C49.5384 -0.0656979 50.3697 -0.15945 51.1103 0.30305L92.4603 24.1687C92.8147 24.3726 93.1059 24.6705 93.3017 25.0295C93.4975 25.3885 93.5902 25.7946 93.5697 26.203V73.8437C93.5902 74.2521 93.4975 74.6582 93.3017 75.0172C93.1059 75.3762 92.8147 75.6741 92.4603 75.878L56.9385 96.4093C55.0773 97.5232 53.1958 98.6025 51.2947 99.6468C50.4635 100.109 49.6291 100.109 48.7947 99.6468L7.53844 75.8718C6.79782 75.4093 6.42907 74.853 6.42907 73.928V50.0624V50.0718Z" fill="#009438"/>
<path d="M35.5687 41.1875V69C35.5687 72.1438 33.0687 74.9188 29.7406 74.8281C27.7094 74.7344 26.1344 73.9031 25.0531 72.1469C24.4969 71.3156 24.3125 70.3906 24.3125 69.3719V30.7375C24.3125 28.1438 25.8844 26.3 27.9187 25.4656C29.9531 24.6313 31.9875 24.8188 34.025 25.4656C35.9687 26.0219 37.4469 27.2219 38.7125 28.7031L63.3187 58.2125C63.4125 58.3063 63.5062 58.4938 63.6875 58.675V30.55C63.6875 27.5906 65.7187 25.2781 68.5937 25C72.2 24.5375 74.6062 27.125 74.975 29.8125V69.1875C74.975 71.375 73.9562 72.9813 72.1062 74C70.7187 74.7406 69.2375 74.925 67.6687 74.8313C65.3996 74.6803 63.248 73.7674 61.5625 72.2406C60.6375 71.4094 59.9906 70.3906 59.1562 69.4656L35.75 41.4344C35.75 41.3406 35.6562 41.2469 35.5625 41.1531L35.5687 41.1875Z" fill="#FEFEFE"/>
</g>
<defs>
<clipPath id="clip0">
<rect width="100" height="100" fill="white"/>
</clipPath>
</defs>
</svg>
