<svg width="1440" height="317" viewBox="0 0 1440 317" fill="none" xmlns="http://www.w3.org/2000/svg">
<path d="M1216.84 43.3831L1265.06 111.338C1269.36 119.686 1313.91 183.381 1316.35 186.91H1265.06L1211.88 39.7073C1213.86 40.3012 1215.61 41.5934 1216.84 43.3831Z" fill="#00DC82"/>
<path d="M1201.88 43.3817C1204.21 40.0305 1208.17 38.573 1211.88 39.7059L1267.44 186.629H1220.99H1102.56L1201.88 43.3817Z" fill="#33E39B"/>
<path opacity="0.75" d="M1102.56 186.627H1180.88L1242.14 120.403L1226.34 77.2192L1152.08 115.211L1102.56 186.627Z" fill="#99F1CD"/>
<path d="M1369.21 4.05645L1416.41 72.643C1416.41 72.643 1428.03 92.7406 1439.76 109.803C1439.76 116.524 1439.76 128.1 1439.76 134.251C1439.77 143.995 1439.76 146.325 1439.76 147.583H1417.43L1364.25 0.380615C1366.23 0.974515 1367.97 2.26679 1369.21 4.05645Z" fill="#00DC82"/>
<path d="M1354.25 4.05502C1356.58 0.703885 1360.54 -0.753644 1364.25 0.37919L1419.8 147.302H1373.35H1254.93L1354.25 4.05502Z" fill="#33E39B"/>
<path opacity="0.75" d="M1254.93 147.301H1333.25L1394.51 81.0769L1378.71 37.8928L1304.45 75.8845L1254.93 147.301Z" fill="#99F1CD"/>
<path d="M0.315212 260.007C7.9534 254.043 23.8359 242.416 30.3831 241.598C33.4469 241.215 38.919 241.118 44.8676 241.014C54.8093 240.839 66.0816 240.64 69.6658 239.041C74.2487 236.997 84.1239 235.123 88.4886 234.442C95.5813 231.035 111.076 224.119 116.314 223.71C118.625 223.529 121.447 221.947 124.924 219.997C131.292 216.425 139.857 211.622 151.504 211.952C162.573 212.267 173.951 216.638 182.596 219.96C188.013 222.041 192.357 223.71 194.879 223.71C198.056 223.71 207.208 220.941 216.629 218.091C226.621 215.067 236.917 211.952 240.708 211.952C244.229 211.952 250.366 208.916 256.887 205.69C264.01 202.167 271.59 198.417 276.717 198.15C280.599 197.948 283.457 194.872 286.758 191.32C291.81 185.883 297.897 179.332 310.271 180.26C321.152 181.075 329.486 182.759 335.644 184.002C341.065 185.097 344.799 185.851 347.098 185.373C348.643 185.051 350.591 184.426 352.792 183.721C357.59 182.182 363.585 180.26 369.195 180.26C372.887 180.26 380.577 176.827 388.808 173.152C398.821 168.682 409.634 163.854 415.024 164.415C419.87 164.92 426.508 161.194 433.464 157.288C440.608 153.278 448.088 149.08 454.307 149.08C456.935 149.08 460.163 149.314 463.854 149.582C477.407 150.565 497.208 152.001 516.504 143.967C527.294 139.474 543.301 129.55 558.758 119.967C578.471 107.746 597.29 96.0793 603.253 96.9388C611.764 98.1655 646.398 117.064 662.651 126.36C666.882 125.858 677.065 125.888 683.947 130.022C687.713 132.283 694.97 137.837 702.219 143.385C711.531 150.511 720.83 157.628 722.701 157.745L722.848 157.754C726.26 157.966 734.187 158.458 745.993 164.603C751.851 167.652 756.981 171.451 761.1 174.502C765.405 177.691 768.605 180.062 770.379 179.903C771.599 179.795 774.717 178.423 778.658 176.691C785.93 173.493 796.003 169.064 802.112 169.064C811.533 169.064 822.442 167.825 833.35 161.012C834.846 160.078 836.36 159.109 837.873 158.14C847.391 152.046 856.838 145.998 861.117 149.08C866.075 152.651 875 157.745 878.471 157.745C878.689 157.745 878.963 157.743 879.284 157.742C884.068 157.72 899.452 157.647 901.775 161.012C902.972 162.746 906.598 164.25 910.865 165.725C922.434 166.559 934.239 168.113 946.358 169.739C947.144 169.695 947.887 169.639 948.583 169.573L954.245 163.334C954.484 163.072 954.88 162.892 955.316 162.846C955.751 162.8 956.176 162.894 956.464 163.1L961.192 166.5L969.286 157.581C969.522 157.316 969.918 157.134 970.356 157.087C970.793 157.041 971.219 157.138 971.505 157.347L980.795 164.014C999.989 159.426 1017.82 153.047 1034.98 146.906L1034.99 146.904C1058.29 138.569 1080.36 130.674 1102.93 128.294C1124.16 126.072 1154.15 131.891 1185.32 137.94C1219.08 144.492 1253.75 154.515 1280.66 151.679C1302.13 149.394 1330.34 147.54 1351.99 137.683C1378.62 133.929 1409.9 117.245 1428.11 115.325C1430.28 115.097 1426.16 115.671 1428.11 115.325C1432.06 114.625 1421.94 115.126 1428.11 115.325L1439.71 255.617V316.993H1399.44C1372.3 316.993 1342.27 316.993 1313.6 316.993H1114.61C1088.67 316.993 1072.8 316.993 1066.14 316.993H954.529C934.562 316.993 911.352 316.993 886.265 316.993H718.337C692.055 316.993 677.89 316.993 662.872 316.993C651.438 316.993 615.088 316.993 599.046 316.993H537.95H465.757C453.176 316.993 442.722 316.993 433.464 316.993C415.929 316.993 378.331 316.993 352.792 316.993H180.455C154.727 316.993 145.791 316.993 132.312 316.993C123.242 316.993 105.422 316.993 91.8589 316.993H44.8676C44.1713 316.993 23.241 316.993 20.4733 316.993H5.78062C5.316 316.993 2.1063 316.993 0.315122 316.993C0.315122 313.518 0.315122 311.255 0.315122 311.255C0.195005 310.115 0.525148 308.976 0.315122 306.984C0.0739587 304.697 0.315122 302.858 0.315212 301.242C0.315122 299.094 0.315122 296.706 0.315228 294.534C0.315122 290.843 0.315122 289.685 0.315122 288.382L0.315212 284.98C0.315212 284.98 0.574124 280.27 0.315212 277.813V270.937C0.315212 270.937 -0.394015 260.561 0.315212 260.007Z" fill="#B7E1ED"/>
<path d="M0.443359 278.546H41.9243L61.4153 288.434H85.4043L108.893 278.546L131.883 272.687L175.363 266.094L213.345 272.687L269.32 269.391L320.796 266.094H350.782L385.766 257.671L421.25 252.91L446.238 240.459L475.225 235.698L497.215 225.077H517.206L543.194 215.189L556.542 209.901C559.94 208.556 563.562 207.864 567.216 207.864H579.915C583.068 207.864 586.202 208.362 589.2 209.338L602.789 213.764C605.688 214.708 608.717 215.189 611.765 215.189H619.635C621.961 215.189 624.265 214.738 626.419 213.861L636.799 209.635C639.672 208.466 642.743 207.864 645.844 207.864H653.89C657.365 207.864 660.816 208.449 664.098 209.594L676.498 213.921C678.86 214.746 681.422 214.81 683.823 214.107L701.402 208.954C703.867 208.231 706.423 207.864 708.993 207.864H733.682C734.612 207.864 735.524 208.124 736.315 208.615L740.236 211.045C741.089 211.575 742.151 211.641 743.064 211.223L763.411 201.905C764.848 201.247 766.409 200.906 767.989 200.906H794.078L841.556 203.836L868.044 195.779L905.505 182.053C913.101 179.27 921.189 178.08 929.266 178.556L991.487 182.228L996.84 182.042C1002.52 178.824 1009.47 174.725 1016.2 170.756C1027.99 163.803 1039.09 157.254 1041.46 156.566C1041.88 156.443 1042.41 156.281 1043.03 156.087C1049.93 153.94 1068.99 148.004 1096.24 151.591C1101.59 152.296 1106.47 152.931 1110.91 153.49L1123.93 146.338H1158.41L1174.64 150.388C1177.19 150.09 1179.85 148.356 1181.16 148.053C1181.48 147.979 1182.02 147.843 1182.75 147.661C1188.6 146.2 1206.25 141.788 1214.64 142.84C1220.69 143.599 1227.04 142.949 1231.59 142.484C1234.14 142.223 1236.12 142.02 1237.17 142.155C1237.73 142.227 1238.94 142.41 1240.55 142.655C1247.34 143.687 1261.25 145.801 1263.39 145.137C1264.16 144.896 1265.61 144.093 1267.57 143.01C1272.29 140.399 1279.95 136.162 1288.15 134.268C1291.77 134.55 1299.73 134.933 1302.53 134.203C1302.93 134.098 1303.39 133.972 1303.89 133.833C1307.81 132.755 1314.58 130.891 1319.51 132.171C1325.08 133.617 1335.76 135.459 1339.93 134.602C1343.09 133.951 1351.59 134.342 1356.06 134.658L1356.98 134.638C1358.27 134.242 1360.04 133.77 1362.06 133.333L1439.78 109.79V317H0.443359V278.546Z" fill="#E5F9FF"/>
<path d="M1428.8 154.099C1425.59 154.206 1380.52 142.286 1356.81 134.656C1358.3 134.239 1359.8 133.595 1361.79 133.299C1363.63 133.024 1388.7 124.248 1394.08 123.643C1396.63 123.357 1436.13 109.497 1439.87 109.916C1441.83 110.135 1420.86 127.999 1421.33 129.092C1424.15 135.685 1430.1 154.056 1428.8 154.099Z" fill="#CCE6EE"/>
<path d="M1324.2 154.764C1321 154.871 1307.13 143.258 1283.42 135.627C1285.05 134.702 1286.8 134.333 1289.05 134.334C1291.75 134.478 1296.37 134.94 1301.74 134.335C1304.29 134.048 1309.07 131.526 1312.81 131.945C1314.76 132.164 1317.3 136.376 1317.76 137.469C1320.58 144.062 1325.5 154.721 1324.2 154.764Z" fill="#CCE6EE"/>
<path d="M1239.85 154.875C1239.36 151.368 1237.84 146.988 1236.9 142.177C1238.36 142.246 1256.92 145.17 1263.14 145.17C1263.14 145.17 1264.34 145.246 1259.17 158.703C1254.01 172.16 1247.07 172.051 1244.08 172.051C1241.74 167.151 1239.85 162.6 1239.85 154.875Z" fill="#CCE6EE"/>
<path d="M996.3 202.1C993.096 202.206 939.719 186.909 916.014 179.279C920.878 176.523 968.917 180.528 992.229 182.222L996.803 182.021C999.623 188.615 997.601 202.056 996.3 202.1Z" fill="#CCE6EE"/>
<path d="M766.204 201.032C765.081 200.983 749.977 207.975 742.566 211.477C753.543 217.603 754.984 223.004 761.065 233.059C767.945 219.223 767.609 201.093 766.204 201.032Z" fill="#CCE6EE"/>
<path d="M559.534 208.872C558.41 208.824 524.604 221.723 517.193 225.225C530.851 232.371 533.516 237.218 538.696 248.383C559.534 221.096 560.939 208.933 559.534 208.872Z" fill="#CCE6EE"/>
<path d="M421.453 252.732C420.33 252.684 360.026 260.382 350.814 266.231C364.472 273.376 367.137 278.223 372.317 289.389C393.155 262.101 422.858 252.793 421.453 252.732Z" fill="#CCE6EE"/>
</svg>
