<svg width="75" height="75" viewBox="0 0 75 75" fill="none" xmlns="http://www.w3.org/2000/svg">
<mask id="mask0" mask-type="alpha" maskUnits="userSpaceOnUse" x="0" y="4" width="75" height="69">
<path d="M1.91487 45.6651L13.497 65.8046V65.7799C14.7591 67.9606 16.5696 69.7713 18.7478 71.0315C20.926 72.2916 23.3957 72.9572 25.9105 72.9617H49.0895C51.6044 72.9577 54.0743 72.2923 56.2526 71.0321C58.4309 69.7719 60.2413 67.9609 61.5031 65.7799L73.0851 45.6651C74.3397 43.4796 75 41.0023 75 38.4808C75 35.9593 74.3397 33.482 73.0851 31.2966L61.5031 11.1818C60.24 8.99859 58.4273 7.18619 56.2462 5.92585C54.0651 4.6655 51.5922 4.00141 49.0747 4H25.9105C23.3957 4.0045 20.926 4.67002 18.7478 5.93019C16.5696 7.19035 14.7591 9.0011 13.497 11.1818L1.91487 31.2966C0.660299 33.482 0 35.9593 0 38.4808C0 41.0023 0.660299 43.4796 1.91487 45.6651Z" fill="#00DC82"/>
</mask>
<g mask="url(#mask0)">
<path d="M1.91487 45.6651L13.497 65.8046V65.7799C14.7591 67.9606 16.5696 69.7713 18.7478 71.0315C20.926 72.2916 23.3957 72.9572 25.9105 72.9617H49.0895C51.6044 72.9577 54.0743 72.2923 56.2526 71.0321C58.4309 69.7719 60.2413 67.9609 61.5031 65.7799L73.0851 45.6651C74.3397 43.4796 75 41.0023 75 38.4808C75 35.9593 74.3397 33.482 73.0851 31.2966L61.5031 11.1818C60.24 8.99859 58.4273 7.18619 56.2462 5.92585C54.0651 4.6655 51.5922 4.00141 49.0747 4H25.9105C23.3957 4.0045 20.926 4.67002 18.7478 5.93019C16.5696 7.19035 14.7591 9.0011 13.497 11.1818L1.91487 31.2966C0.660299 33.482 0 35.9593 0 38.4808C0 41.0023 0.660299 43.4796 1.91487 45.6651Z" fill="#00DC82"/>
<path opacity="0.3" d="M-8.08513 45.6668L3.49695 65.8063V65.7816C4.75911 67.9623 6.5696 69.773 8.74778 71.0332C10.926 72.2933 13.3957 72.9589 15.9105 72.9634H39.0895C41.6044 72.9594 44.0743 72.294 46.2526 71.0338C48.4309 69.7736 50.2413 67.9626 51.5031 65.7816L63.0851 45.6668C64.3397 43.4813 65 41.004 65 38.4825C65 35.961 64.3397 33.4837 63.0851 31.2983L51.5031 11.1835C50.24 9.0003 48.4273 7.1879 46.2462 5.92756C44.0651 4.66721 41.5922 4.00312 39.0747 4.00171H15.9105C13.3957 4.0062 10.926 4.67173 8.74778 5.9319C6.5696 7.19206 4.75911 9.00281 3.49695 11.1835L-8.08513 31.2983C-9.3397 33.4837 -10 35.961 -10 38.4825C-10 41.004 -9.3397 43.4813 -8.08513 45.6668Z" fill="white"/>
<path d="M22.6283 42.5625H24.3211C25.4606 47.9802 31.458 51 37 51C42.551 51 48.5407 47.9741 49.6789 42.5625H51.3717C51.9303 42.5625 52.2101 41.8808 51.8151 41.4822L48.3125 37.9475C48.0676 37.7004 47.6706 37.7004 47.4256 37.9475L43.923 41.4822C43.528 41.8809 43.8078 42.5625 44.3664 42.5625H46.203C45.1427 45.4269 41.7632 47.1287 38.6721 47.5203V37.5H41.3894C41.7357 37.5 42.0164 37.2166 42.0164 36.8672V34.7578C42.0164 34.4083 41.7357 34.125 41.3894 34.125H38.6721V33.8365C40.6202 33.1416 42.0162 31.267 42.0164 29.0631C42.0168 26.3083 39.8011 24.0389 37.0716 24.0005C34.2683 23.961 31.9835 26.2425 31.9835 29.0625C31.9835 31.2667 33.3796 33.1415 35.3278 33.8365V34.125H32.6106C32.2643 34.125 31.9835 34.4083 31.9835 34.7578V36.8672C31.9835 37.2166 32.2643 37.5 32.6106 37.5H35.3278V47.5203C32.2481 47.1301 28.8576 45.4279 27.797 42.5625H29.6336C30.1922 42.5625 30.472 41.8808 30.0769 41.4822L26.5743 37.9475C26.3295 37.7004 25.9324 37.7004 25.6875 37.9475L22.1849 41.4822C21.7899 41.8808 22.0697 42.5625 22.6283 42.5625ZM37 27.375C37.922 27.375 38.6722 28.132 38.6722 29.0625C38.6722 29.993 37.922 30.75 37 30.75C36.078 30.75 35.3278 29.993 35.3278 29.0625C35.3278 28.132 36.078 27.375 37 27.375Z" fill="#098466"/>
</g>
</svg>
