<svg width="103" height="103" viewBox="0 0 103 103" xmlns="http://www.w3.org/2000/svg"><g fill="#09B3AF" fill-rule="nonzero"><path d="M59.8 49H39v10h20.3c1.2 0 2.3-.5 3.2-1.3.8-.8 1.3-2 1.3-3.5a6 6 0 00-1.1-3.6c-.8-1-1.7-1.6-2.9-1.6zm.7-12.1c.9-.6 1.3-1.9 1.3-3.6 0-1.5-.4-2.6-1.1-3.3-.7-.6-1.6-1-2.6-1H39v9h18.7c1 0 2-.5 2.8-1.1z"/><path d="M91 0H12.5C10 0 8 2 8 4.4V83c0 2.4 2 3.9 4.4 3.9H24v15.7L38.4 87H91c2.4 0 3.9-1.5 3.9-4V4.5c0-2.4-1.5-4.4-4-4.4L91 0zM77.8 63.7c-1 1.8-2.5 3.3-4.3 4.4-1.9 1.2-4 2.3-6.4 2.8-2.4.6-5 1.1-7.7 1.1H24V16h40.2c2 0 3.7.4 5.3 1.3 1.5.8 2.9 1.9 4 3.2a15 15 0 013.4 9.7c0 2.6-.7 5.1-2 7.5a12.5 12.5 0 01-6 5.4c3.2.9 5.7 2.5 7.6 4.8 1.8 2.4 2.7 5.5 2.7 9.4 0 2.5-.5 4.6-1.5 6.4h.1z"/></g></svg>
