<svg class="h-10 mt-2px" viewBox="0 0 28 32" fill="none" xmlns="http://www.w3.org/2000/svg"><path d="M17.078 1.61c5.335 0 8.635 2.42 8.635 4.663a.854.854 0 01-.325.674l-3.482 3.431-1.738 1.709 2.278.903a5.264 5.264 0 012.935 1.975 5.1 5.1 0 01.983 3.358 4.327 4.327 0 01-.371 1.742 4.395 4.395 0 01-1.044 1.454l-6.378 6.264a10.978 10.978 0 01-7.853 2.595c-5.93 0-9.088-2.592-9.088-4.462a.965.965 0 01.26-.76l.033-.028.032-.024 3.69-3.623.064-.053.101-.123 1.302-1.558-1.839-.887a5.058 5.058 0 01-2.415-2.015 4.92 4.92 0 01-.73-3.029 4.751 4.751 0 01.412-1.909 4.826 4.826 0 011.148-1.592l6.37-6.257a9.756 9.756 0 013.261-1.91 9.881 9.881 0 013.758-.537zm0-1.597a11.443 11.443 0 00-4.399.658 11.293 11.293 0 00-3.795 2.28L2.538 9.186a6.382 6.382 0 00-1.505 2.11A6.284 6.284 0 00.5 13.82a6.46 6.46 0 00.97 3.871 6.639 6.639 0 003.077 2.602L.805 23.968c-.269.249-.48.552-.618.888a2.483 2.483 0 00-.184 1.06c0 2.98 4.008 6.06 10.715 6.06 1.64.101 3.283-.12 4.834-.65 1.552-.531 2.98-1.36 4.2-2.439l6.347-6.233a5.992 5.992 0 001.398-1.975 5.898 5.898 0 00.495-2.356 6.67 6.67 0 00-1.265-4.248 6.876 6.876 0 00-3.67-2.568l3.49-3.43a2.41 2.41 0 00.594-.819c.138-.31.207-.646.203-.985-.003-3.077-3.84-6.26-10.267-6.26z" fill="#508"/><path d="M17.078 1.61c5.335 0 8.635 2.42 8.635 4.663a.854.854 0 01-.325.674l-3.482 3.431-1.738 1.709 2.278.903a5.264 5.264 0 012.935 1.975 5.1 5.1 0 01.983 3.358 4.327 4.327 0 01-.371 1.742 4.395 4.395 0 01-1.044 1.454l-6.378 6.264a10.978 10.978 0 01-7.853 2.595c-5.93 0-9.088-2.592-9.088-4.462a.965.965 0 01.26-.76l.033-.028.032-.024 3.69-3.623.064-.053.101-.123 1.302-1.558-1.839-.887a5.058 5.058 0 01-2.415-2.015 4.92 4.92 0 01-.73-3.029 4.751 4.751 0 01.412-1.909 4.826 4.826 0 011.148-1.592l6.37-6.257a9.756 9.756 0 013.261-1.91 9.881 9.881 0 013.758-.537zm0-1.597a11.443 11.443 0 00-4.399.658 11.293 11.293 0 00-3.795 2.28L2.538 9.186a6.382 6.382 0 00-1.505 2.11A6.284 6.284 0 00.5 13.82a6.46 6.46 0 00.97 3.871 6.639 6.639 0 003.077 2.602L.805 23.968c-.269.249-.48.552-.618.888a2.483 2.483 0 00-.184 1.06c0 2.98 4.008 6.06 10.715 6.06 1.64.101 3.283-.12 4.834-.65 1.552-.531 2.98-1.36 4.2-2.439l6.347-6.233a5.992 5.992 0 001.398-1.975 5.898 5.898 0 00.495-2.356 6.67 6.67 0 00-1.265-4.248 6.876 6.876 0 00-3.67-2.568l3.49-3.43a2.41 2.41 0 00.594-.819c.138-.31.207-.646.203-.985-.003-3.077-3.84-6.26-10.267-6.26z" fill="url(#linear-sunset)"/><defs><linearGradient gradientUnits="userSpaceOnUse" id="linear-sunset" x1="14" x2="14" y1="0" y2="32"><stop stop-color="#5B0488"/><stop stop-color="#F87282" offset="1"/></linearGradient></defs></svg>
