<svg width="1229" height="250" viewBox="0 0 1229 250" fill="none" xmlns="http://www.w3.org/2000/svg">
<g clip-path="url(#clip0)">
<rect width="1229" height="250" rx="8" fill="#003543"/>
<path d="M-22.8994 -57.0002L-22.9001 239.722L-22.8993 239.723L797.259 239.723C702.252 86.039 381.765 11.5881 -22.8994 -57.0002Z" fill="url(#paint0_radial)"/>
<path d="M174.987 66.0998L114.227 151.72C108.818 162.239 52.6734 242.492 49.6074 246.938H114.227L181.241 61.4684C178.747 62.2167 176.548 63.8449 174.987 66.0998Z" fill="#00DC82"/>
<path d="M193.838 66.1091C190.908 61.8868 185.913 60.0504 181.243 61.4777L111.241 246.594H169.77H318.992L193.838 66.1091Z" fill="#33E39B"/>
<path opacity="0.75" d="M318.994 246.595H220.307L143.111 163.156L163.028 108.746L256.596 156.614L318.994 246.595Z" fill="#99F1CD"/>
<path d="M272.328 145.752L245.424 184.842C245.424 184.842 238.803 196.297 232.114 206.021C232.114 209.852 232.114 216.449 232.114 219.956C232.114 225.509 232.114 226.837 232.114 227.554H244.843L275.157 143.657C274.029 143.996 273.034 144.732 272.328 145.752Z" fill="#00DC82"/>
<path d="M280.856 145.752C279.53 143.843 277.271 143.012 275.158 143.657L243.493 227.395H269.968H337.468L280.856 145.752Z" fill="#33E39B"/>
<path opacity="0.75" d="M337.469 227.393H292.828L257.908 189.65L266.918 165.037L309.243 186.69L337.469 227.393Z" fill="#99F1CD"/>
<path d="M1100.17 275.561V286.318H638.751L638.751 275.132C638.751 275.132 638.837 271.126 638.75 270.001V264.16L638.75 257.214V251.451C642.061 251.371 642.719 251.338 643.912 250.605C645.439 249.669 648.727 248.81 650.181 248.498C652.543 246.937 657.703 243.769 659.448 243.581C660.217 243.499 661.157 242.774 662.315 241.88C664.436 240.244 667.288 238.043 671.167 238.195C674.853 238.339 678.642 240.342 681.521 241.863C683.325 242.817 684.772 243.581 685.612 243.581C686.67 243.581 689.717 242.313 692.855 241.007C696.183 239.622 699.612 238.195 700.874 238.195C702.047 238.195 704.091 236.804 706.262 235.326C708.634 233.712 711.159 231.994 712.866 231.872C714.159 231.779 715.111 230.37 716.21 228.742C717.892 226.252 719.92 223.251 724.04 223.675C727.664 224.049 730.44 224.82 732.49 225.39C734.296 225.892 735.539 226.237 736.305 226.018C736.819 225.871 737.468 225.584 738.201 225.261C739.799 224.556 741.795 223.675 743.664 223.675C744.893 223.675 747.454 222.103 750.196 220.419C753.53 218.371 757.131 216.16 758.926 216.417C760.54 216.648 762.75 214.941 765.067 213.151C767.446 211.314 769.937 209.391 772.008 209.391C772.883 209.391 773.958 209.498 775.188 209.621C779.701 210.071 786.295 210.729 792.721 207.048C796.315 204.99 801.645 200.444 806.793 196.054C813.358 190.455 819.625 185.109 821.611 185.503C824.446 186.065 835.98 194.723 841.392 198.982C842.801 198.752 846.192 198.766 848.485 200.66C849.739 201.696 852.155 204.24 854.57 206.782C857.671 210.047 860.768 213.307 861.391 213.361L861.439 213.365C862.576 213.462 865.216 213.687 869.148 216.503C871.098 217.899 872.806 219.64 874.178 221.038C875.612 222.498 876.678 223.585 877.269 223.512C877.675 223.462 878.713 222.834 880.026 222.04C882.448 220.575 885.802 218.546 887.837 218.546C890.974 218.546 894.607 217.979 898.24 214.857C898.738 214.429 899.242 213.985 899.746 213.542C902.916 210.75 906.062 207.979 907.487 209.391C909.138 211.027 912.11 213.361 913.266 213.361C913.339 213.361 913.43 213.36 913.537 213.359C915.13 213.349 920.253 213.316 921.027 214.857C921.426 215.652 922.633 216.341 924.054 217.017C927.907 217.399 931.838 218.111 935.874 218.856C936.136 218.835 936.384 218.81 936.615 218.779L938.501 215.921C938.581 215.801 938.712 215.719 938.857 215.698C939.002 215.677 939.144 215.72 939.24 215.814L940.815 217.372L943.51 213.285C943.588 213.164 943.721 213.081 943.866 213.059C944.012 213.038 944.154 213.082 944.249 213.178L947.343 216.233C953.734 214.131 959.672 211.209 965.388 208.396L965.389 208.395L965.392 208.394C973.15 204.576 990.574 204.066 998.092 202.976C1002.21 202.383 997.234 199.931 1002.83 201.128C1003.61 200.599 1004.44 200.006 1005.3 199.401C1008.63 197.034 1012.23 194.478 1014.03 194.776C1015.64 195.043 1017.85 193.07 1020.17 191.002C1022.55 188.879 1025.04 186.656 1027.11 186.656C1027.98 186.656 1029.06 186.78 1030.29 186.921C1034.8 187.442 1041.4 188.203 1047.82 183.949C1051.42 181.57 1056.75 176.315 1061.89 171.242C1068.46 164.771 1074.73 158.593 1076.71 159.049C1079.55 159.698 1091.08 169.704 1096.49 174.626C1097.9 174.36 1101.29 174.376 1103.59 176.565C1104.84 177.762 1107.26 180.703 1109.67 183.64C1112.77 187.414 1115.87 191.182 1116.49 191.244L1116.54 191.248C1117.68 191.361 1120.32 191.621 1124.25 194.875C1126.2 196.489 1127.91 198.501 1129.28 200.116C1130.71 201.804 1131.78 203.06 1132.37 202.976C1132.78 202.918 1133.81 202.192 1135.13 201.275C1137.55 199.582 1140.9 197.237 1142.94 197.237C1146.08 197.237 1149.71 196.581 1153.34 192.974C1153.84 192.479 1154.34 191.966 1154.85 191.453C1158.02 188.226 1161.16 185.024 1162.59 186.656C1164.24 188.546 1167.21 191.244 1168.37 191.244C1168.44 191.244 1168.53 191.243 1168.64 191.242C1170.23 191.23 1175.35 191.192 1176.13 192.974C1176.53 193.892 1177.73 194.688 1179.16 195.469C1183.01 195.91 1186.94 196.733 1190.98 197.594C1191.24 197.571 1191.49 197.541 1191.72 197.506L1193.6 194.203C1193.68 194.064 1193.81 193.969 1193.96 193.945C1194.1 193.92 1194.25 193.97 1194.34 194.079L1195.92 195.879L1198.61 191.157C1198.69 191.017 1198.82 190.92 1198.97 190.896C1199.11 190.871 1199.26 190.922 1199.35 191.033L1202.44 194.563C1208.84 192.134 1214.77 188.757 1220.49 185.506L1220.49 185.505L1220.49 185.504C1228.25 181.091 1235.6 176.911 1243.12 175.65C1250.19 174.474 1260.18 177.555 1270.56 180.758C1273.1 181.544 1275.67 182.424 1278.21 183.298C1286.9 186.282 1290.07 189.328 1297 188.166V275.561H1100.17Z" fill="#255461"/>
<path d="M609.795 296.477L608.95 280.82L412.167 291.442L264.354 247.396L290.106 217.787L346.447 183.82L405.302 164.241C410.266 165.172 413.183 163.144 417.453 160.174C419.222 158.944 421.224 157.552 423.7 156.142C426.176 154.733 428.669 153.313 431.155 152.031C441.282 146.81 451.025 141.786 458.185 143.117C465.801 144.546 473.477 150.233 481.58 156.237L481.581 156.237L481.583 156.239L481.585 156.24C487.555 160.663 493.757 165.258 500.338 168.449L503.154 163.144C503.24 162.978 503.378 162.896 503.526 162.923C503.673 162.951 503.813 163.085 503.902 163.284L506.968 170.012L508.401 167.307C508.488 167.143 508.626 167.063 508.773 167.091C508.92 167.118 509.059 167.25 509.15 167.448L511.294 172.154C511.529 172.193 511.779 172.222 512.042 172.242C516.01 170.771 519.876 169.361 523.693 168.511C525.052 167.297 526.197 166.073 526.523 164.716C527.157 162.081 532.282 161.86 533.876 161.791C533.983 161.787 534.074 161.783 534.147 161.779C535.303 161.716 538.062 157.63 539.565 154.789C540.861 152.338 544.258 156.829 547.681 161.354C548.225 162.073 548.769 162.793 549.306 163.486C553.222 168.54 556.905 169.299 560.042 169.13C562.076 169.02 565.614 172.252 568.169 174.586C569.553 175.85 570.648 176.85 571.059 176.912C571.656 177.002 572.623 175.117 573.924 172.583L573.924 172.582C575.169 170.157 576.719 167.137 578.542 164.683C582.217 159.736 584.836 159.214 585.963 158.989L586.012 158.979C586.63 158.856 589.43 153.204 592.234 147.545C594.417 143.139 596.602 138.729 597.762 136.919C599.882 133.609 603.271 133.403 604.701 133.714C609.726 126.258 620.471 111.072 623.254 109.974C625.204 109.204 631.955 117.857 639.027 126.921C644.572 134.028 650.315 141.388 654.094 144.656C660.853 150.501 667.386 149.038 671.858 148.037C673.076 147.764 674.141 147.526 675.016 147.478C677.087 147.367 679.752 150.468 682.297 153.43C684.776 156.314 687.141 159.066 688.733 158.591C690.505 158.061 694.306 161.587 697.826 164.852L697.828 164.854C698.727 165.688 699.608 166.505 700.431 167.233C705.929 165.188 710.978 163.959 715.138 164.599C722.74 165.781 730.372 170.648 738.43 175.787L738.432 175.789L738.433 175.789L738.434 175.79C744.37 179.576 750.535 183.508 757.09 186.222L763.707 187.528L765.158 185.176C765.247 185.033 765.385 184.963 765.532 184.986C765.678 185.009 765.817 185.122 765.906 185.292L768.016 189.35C768.25 189.382 768.499 189.406 768.762 189.421C772.739 188.119 776.614 186.871 780.436 186.107C781.803 185.046 782.956 183.979 783.292 182.801C783.945 180.515 789.07 180.287 790.663 180.216C790.77 180.211 790.861 180.207 790.934 180.203C792.09 180.141 794.878 176.584 796.401 174.113C797.714 171.982 801.077 175.845 804.466 179.737L804.474 179.746C805.01 180.362 805.546 180.978 806.075 181.571C809.952 185.918 813.629 186.548 816.766 186.379C818.8 186.269 822.313 189.041 824.85 191.043C826.224 192.127 827.722 193.036 827.722 193.036C832.512 199.405 845.073 204.649 846.914 202.511C850.624 198.201 864.607 209.921 864.607 209.921L888.304 200.277C889.253 198.636 920.766 204.352 956.474 211.421L1010.21 179.974L1030.23 178.893C1035.32 174.452 1046.04 165.064 1048.22 163.042C1049.51 161.851 1053.94 156.661 1058.52 151.304C1063.66 145.287 1068.99 139.059 1070.23 138.047C1072.12 136.517 1082.56 128.453 1087.54 124.612L1096.94 124.105C1098.9 123.999 1114.59 147.357 1122.18 159.05L1154.6 228.128L1056.88 233.402L1012.53 247.354L907.574 275.923L609.795 296.477Z" fill="#255461"/>
<path d="M-22.9999 351.503L-22.7725 101.184C-10.8447 85.3805 12.122 56.3468 17.9217 54.3973C22.135 52.981 35.4318 72.206 49.3598 92.344C60.2805 108.134 71.5904 124.486 79.214 131.889C92.8475 145.129 106.838 142.762 116.414 141.141C119.022 140.7 121.303 140.314 123.159 140.314C127.554 140.314 132.838 147.233 137.886 153.84C142.801 160.275 147.491 166.415 150.914 165.584C154.723 164.66 162.363 172.614 169.437 179.98L169.442 179.985C171.249 181.866 173.019 183.709 174.678 185.355C186.543 181.629 197.368 179.59 206.096 181.434C222.047 184.827 237.64 196.083 254.101 207.967L254.105 207.97L254.108 207.972L254.111 207.974C266.237 216.728 278.833 225.821 292.393 232.361L306.243 235.906L309.584 231.059C309.787 230.765 310.087 230.631 310.395 230.696C310.703 230.762 310.982 231.019 311.151 231.392L315.152 240.287C315.644 240.382 316.169 240.461 316.724 240.524C325.287 238.206 333.628 235.99 341.802 234.801C344.816 232.698 347.378 230.554 348.224 228.082C349.865 223.285 360.735 223.387 364.115 223.419C364.342 223.421 364.535 223.423 364.69 223.423C367.142 223.423 373.448 216.16 376.951 211.069C379.974 206.676 386.649 215.299 393.374 223.987L393.389 224.006C394.453 225.38 395.518 226.756 396.57 228.082C404.277 237.796 411.984 239.562 418.641 239.562C422.958 239.562 430.074 245.877 435.212 250.436C437.997 252.906 441.062 255.016 441.062 255.016C450.471 269.146 476.449 281.772 480.588 277.425C488.929 268.664 517.177 295.26 517.177 295.26L618.14 351.503H-22.9999Z" fill="#003341"/>
<path d="M1307.43 241.935V33.8895V9.86906C1302.31 0.727365 1290.4 -16.4234 1287.74 -20.1502C1282.88 -26.9614 1275.86 -5.7816 1272.87 -4.95481C1261.39 -20.2724 1236.92 -51.413 1230.91 -53.4344C1226.69 -54.8507 1213.4 -35.6257 1199.47 -15.4877C1188.55 0.301958 1177.24 16.6544 1169.61 24.0576C1155.12 31.4882 1141.63 31.4882 1141.63 31.4882C1137.24 31.4882 1115.99 39.401 1110.94 46.0087C1106.03 52.4435 1101.34 58.5836 1097.91 57.7525C1094.11 56.828 1086.46 64.7825 1079.39 72.1484L1079.39 72.1537C1077.58 74.0348 1075.81 75.8773 1074.15 77.5235C1062.28 73.7968 1051.46 71.7579 1042.73 73.602C1026.78 76.9951 1011.19 88.2514 994.727 100.135L994.722 100.138L994.72 100.14L994.717 100.142C982.59 108.896 969.994 117.989 956.435 124.53L942.585 128.075L933.676 132.455C933.184 132.551 932.659 132.629 932.103 132.693C923.541 130.374 915.2 128.159 907.026 126.97C904.011 124.867 901.45 122.723 900.604 120.25C898.962 115.453 888.093 115.556 884.713 115.588C884.486 115.59 884.292 115.592 884.138 115.592C881.686 115.592 875.38 108.328 871.876 103.237C868.853 98.8439 862.179 107.467 855.453 116.155L855.438 116.175C854.375 117.549 853.31 118.924 852.258 120.25C844.551 129.964 836.843 131.73 830.187 131.73C825.87 131.73 818.753 138.045 813.615 142.604C810.831 145.075 807.766 147.185 807.766 147.185C798.357 161.314 772.378 173.94 768.24 169.593C759.898 160.832 731.651 187.428 731.651 187.428L630.992 241.935H1307.43Z" fill="#255461"/>
<path d="M1305.57 356.803H697.163L647.511 289.053C651.944 288.371 652.822 288.214 654.298 287.023C656.186 285.5 660.455 283.777 662.353 283.106C665.256 280.6 671.638 275.45 673.949 274.896C674.969 274.652 676.105 273.515 677.506 272.115C680.071 269.549 683.521 266.099 688.757 265.63C693.734 265.185 699.171 267.219 703.301 268.764C705.89 269.732 707.966 270.508 709.094 270.363C710.515 270.179 714.389 267.948 718.377 265.65C722.607 263.213 726.966 260.702 728.662 260.483C730.237 260.28 732.741 258.057 735.402 255.696C738.309 253.117 741.402 250.372 743.674 249.912C745.395 249.563 746.429 247.505 747.624 245.129C749.452 241.492 751.655 237.109 757.264 236.966C754.411 236.556 762.196 236.84 757.264 236.966L794.87 194.726C801.011 194.549 814.31 198.98 822.304 192.922C826.774 189.535 832.796 189.479 845.034 185.032C860.852 179.284 874.404 180.272 877.14 180.457C881.045 180.721 902.61 178.681 910.618 183.464C912.471 182.911 928.226 192.922 928.226 192.922C924.543 189.926 930.091 194.097 928.226 192.922C932.958 196.77 939.126 199.348 939.973 199.312C939.973 199.312 967.075 210.771 989.729 194.939C990.324 194.277 990.925 193.593 991.525 192.91C995.299 188.611 999.045 184.344 1001.2 185.993C1003.7 187.905 1008.1 190.525 1009.65 190.324C1009.75 190.312 1009.87 190.295 1010.02 190.276C1012.16 189.986 1019.03 189.054 1020.34 190.99C1021.01 191.988 1022.75 192.704 1024.78 193.366C1030.02 193.212 1035.42 193.487 1040.97 193.788C1041.32 193.715 1041.65 193.639 1041.96 193.557C1041.96 193.557 1046.64 193.191 1049.26 191.914C1053.13 190.026 1055.92 188.278 1055.92 188.278C1064.15 184.347 1071.62 179.393 1078.81 174.624L1078.81 174.623L1078.81 174.621C1088.57 168.148 1097.81 162.016 1107.72 159.249C1113.15 157.74 1120.12 157.736 1127.83 158.376C1128.79 157.529 1129.81 156.588 1130.85 155.628C1134.92 151.871 1139.32 147.814 1141.78 147.902C1143.99 147.981 1146.62 144.948 1149.37 141.769C1152.2 138.505 1155.16 135.087 1157.94 134.728C1159.12 134.576 1160.59 134.557 1162.26 134.534C1168.41 134.451 1177.4 134.33 1185.3 127.503C1189.71 123.685 1195.96 115.703 1202 107.996C1209.7 98.1669 1217.04 88.7832 1219.79 89.0504C1234.6 89.0504 1263.95 96.0165 1272.08 101.69C1273.97 103.081 1310.53 116.641 1310.53 116.641L1305.57 356.803Z" fill="#012A35"/>
<path d="M697.163 356.803L794.87 194.726C794.87 194.726 768.992 181.008 766.709 180.457C764.565 179.939 768.814 180.961 766.709 180.457C764.487 179.924 754.947 179.003 753.185 178.595C741.311 178.595 732.701 182.147 732.701 182.147C729.954 184.282 720.477 189.791 717.599 192.297C715.531 194.098 699.168 202.518 697.163 204.312C697.163 204.312 690.84 206.744 688.757 208.379C686.456 210.185 678.782 213.351 676.098 215.056C674.658 215.97 667.609 219.495 661.373 221.664C655.137 223.833 649.482 225.518 649.482 225.518C642.221 227.798 627.005 232.999 619.89 235.15C619.89 235.15 583.527 243.404 579.308 243.948C572.98 245.785 539.914 248.495 534.154 249.13C534.154 249.13 508.288 248.485 503.463 243.948C503.463 243.948 471.787 239.513 456.088 245.796C456.088 245.796 431.225 256.226 428.394 259.494C424.171 261.724 395.736 273.72 389.384 276.765L328.831 299.852C328.831 299.852 289.702 319.318 263.243 328.165C227.571 340.093 167 356.803 167 356.803H697.163Z" fill="#012A35"/>
<path d="M1091.79 144.351C1090.08 143.349 1081.84 144.852 1077.55 145.249C1076.02 146.293 1070.79 146.029 1066.36 145.096C1061.63 150.181 1061.23 165.104 1059.51 167.211C1058.16 168.857 1055.79 178.876 1054.56 183.592C1054.52 183.774 1054.63 183.957 1054.82 183.995L1058.29 184.726C1058.39 184.746 1058.49 184.724 1058.56 184.653C1060.21 183.038 1063.65 175.086 1064.43 171.664C1067.28 169.224 1071.11 160.153 1072.67 155.922C1072.67 155.922 1078.2 159.704 1087.77 152.774C1086.67 154.519 1093.8 164.607 1093.79 165.238C1096.01 166.27 1097.09 164.163 1097.46 164.006C1097.83 163.849 1096.05 157.387 1096 156.861C1095.95 156.34 1093.16 145.153 1091.79 144.351Z" fill="#012A35"/>
<path d="M1059.99 166.196L1062.38 168.575L1059.02 168.066C1059.16 167.702 1059.48 167.236 1059.63 167.029C1059.88 166.55 1059.99 166.196 1059.99 166.196Z" fill="#012A35"/>
<path d="M1067.16 153.435C1067.44 153.494 1070.95 155.118 1072.67 155.923C1072.61 156.097 1072.03 157.625 1071.71 158.413L1067.42 154.818L1068.33 154.821C1068.08 154.616 1067.44 153.811 1067.16 153.435Z" fill="#012A35"/>
<path d="M1088.03 154.809L1090.94 150.038L1087.76 152.777C1087.48 153.222 1087.76 154.187 1088.03 154.809Z" fill="#012A35"/>
<path d="M1074.8 115.428C1074.52 115.459 1075.31 118 1075.02 118.63L1074.33 122.287L1078.15 124.023L1079.63 123.14L1078.81 120.038C1079.18 120.117 1080.02 119.808 1080.56 119.462C1081.24 119.03 1080.84 117.436 1080.36 115.352C1079.88 113.225 1079.18 113.521 1078.46 113.598C1077.89 113.661 1078.04 114.122 1078.18 114.345C1077.89 114.377 1077.57 114.775 1077.64 115.366C1076.84 114.735 1076.82 115.209 1076.46 115.248L1074.8 115.428Z" fill="#012A35"/>
<path d="M1080.64 119.395C1079.54 120.19 1078.8 120.044 1078.8 120.044C1078.27 119.652 1077.67 119.165 1077.52 118.377C1078.29 118.952 1079.86 119.112 1080.64 119.395Z" fill="#012A35"/>
<path d="M1074.1 111.032C1073.52 109.619 1072.35 107.86 1071.04 109.113C1069.78 110.306 1069.82 113.877 1069.85 116.435C1069.86 117.704 1069.87 118.723 1069.72 119.08C1069.36 119.941 1068.84 120.479 1068.63 120.64C1069.16 120.88 1070.43 120.314 1071.26 116.134C1071.99 112.438 1072.47 112.49 1072.68 113.125C1072 114.77 1071.17 118.947 1074.58 120.483C1075.39 120.848 1076.41 121.151 1076.89 117.046C1076.85 116.373 1076.89 115.563 1077.99 116.068C1079.05 115.607 1081.09 113.93 1080.24 112.544C1079.16 110.811 1076.34 109.733 1075.15 110.27C1074.89 110.388 1074.5 110.644 1074.1 111.032Z" fill="#012A35"/>
<ellipse rx="0.771473" ry="2.04609" transform="matrix(-0.784581 -0.620026 -0.57983 0.814737 1073.37 112.097)" fill="#012A35"/>
<path d="M1101.68 170.048V170.048C1101.66 170.172 1101.63 170.299 1101.55 170.388C1101.41 170.53 1101.21 170.593 1100.98 170.545L1093 168.835C1092.69 168.767 1092.68 168.455 1092.7 168.268L1092.72 168.081L1101.68 170.048Z" fill="#012A35"/>
<path d="M1097.75 162.27C1097.92 163.519 1097.49 166.102 1098.95 166.765C1101.17 167.775 1101.98 168.892 1101.68 170.063L1092.79 168.25C1092.34 167.507 1092.4 165.112 1092.51 164.288C1092.63 163.464 1092.66 163.276 1092.66 163.276L1097.75 162.27Z" fill="#012A35"/>
<path d="M1059.96 190.29C1062.01 189.919 1062.23 189.162 1062.26 188.725L1053.16 188.671L1053.1 189.002C1053.05 189.221 1053.13 189.539 1053.32 189.655C1053.81 189.947 1058.37 190.576 1059.96 190.29Z" fill="#012A35"/>
<path d="M1054.55 183.175L1059.16 184.141C1059.44 184.202 1059.6 184.518 1059.47 184.783L1058.37 187.042C1063.85 187.84 1062.51 189.348 1061.11 189.515C1060.05 189.981 1055.01 189.757 1053.09 189.036C1052.74 187.9 1053.63 184.918 1053.63 184.918L1054.02 183.499C1054.09 183.268 1054.32 183.126 1054.55 183.175Z" fill="#012A35"/>
<path d="M1058.25 147.714C1057.52 146.36 1058.36 144.029 1058.88 143.256L1058.8 142.548L1060.28 142.746C1060.42 142.969 1060.67 143.635 1060.47 144.516C1060.23 145.618 1061.82 146.878 1061.5 147.271C1061.18 147.664 1060.78 147.349 1060.75 146.995C1059.99 146.719 1060.3 149.552 1059.94 149.591C1059.58 149.629 1059.16 149.407 1058.25 147.714Z" fill="#012A35"/>
<path d="M1086.84 143.289C1087.35 144.489 1087.44 145.015 1087.7 145.376C1087.97 145.738 1089.3 147.205 1089.64 147.483C1089.9 147.689 1090.21 147.933 1090.35 148.046C1090.37 148.062 1090.39 148.069 1090.42 148.066C1090.44 148.063 1090.47 148.049 1090.48 148.029V148.029C1090.65 147.776 1090.6 147.442 1090.37 147.219L1089.92 146.778C1089.92 146.778 1089.46 145.779 1089.48 145.144C1089.51 144.509 1089.75 144.444 1090.05 144.689C1090.22 144.836 1090.56 145.185 1090.8 145.445C1090.88 145.523 1090.98 145.569 1091.09 145.57C1091.2 145.571 1091.3 145.528 1091.37 145.452V145.452C1091.47 145.34 1091.48 145.176 1091.4 145.045L1090.81 144.153C1090.69 143.974 1090.54 143.819 1090.35 143.699L1089.04 142.84L1088.21 141.961L1086.61 142.991L1086.84 143.289Z" fill="#012A35"/>
<path fill-rule="evenodd" clip-rule="evenodd" d="M1058.31 144.416L1060.78 145.224C1062.25 142.079 1065.15 135.739 1064.8 135.204C1064.37 134.535 1067.71 132.192 1068.15 132.862C1068.5 133.397 1066.04 142.445 1065.15 146.483C1067.51 148.138 1075.3 149.697 1080.58 144.825L1081.02 140.784C1081.29 139.311 1082.11 136.151 1082.28 132.406C1082.45 128.661 1084.58 126.784 1082.11 124.184L1081.12 123.555C1080.7 123.282 1080.23 123.075 1079.74 122.942L1077.25 122.26L1073.9 122.13C1072.27 122.154 1069.54 123.037 1066.69 126.212C1063.84 129.387 1061.95 132.697 1061.36 133.955C1060.33 135.619 1058.1 139.852 1058.31 144.416Z" fill="#012A35"/>
<path d="M1086.52 144.215L1088.76 142.443C1088.76 142.443 1085.81 135.954 1084.61 133.569C1083.83 132.035 1081.91 131.527 1080.68 132.626C1079.55 133.637 1079.84 135.566 1080.69 136.982C1081.87 138.937 1086.52 144.215 1086.52 144.215Z" fill="#012A35"/>
<path d="M1080.01 123.944C1078.97 124.118 1077.41 124.769 1077.16 126.709C1076.89 128.778 1080.26 136.423 1081.03 137.573C1081.8 138.722 1083 138.167 1084.14 137.499C1085.28 136.832 1083.85 128.484 1082.88 125.535C1082.33 123.859 1081.4 123.711 1080.01 123.944Z" fill="#012A35"/>
<path d="M1071.93 122.544C1071.94 122.59 1071.21 123.6 1070.84 124.099L1071.8 124.286C1072.2 123.312 1072.86 122.482 1073.14 122.189C1072.61 122.261 1071.91 122.486 1071.93 122.544Z" fill="#012A35"/>
<path d="M1074.58 124.747C1075.42 123.592 1078.34 122.404 1079.81 122.892C1080.39 123.037 1081.21 123.583 1081.21 123.583C1081.21 123.583 1078.58 123.66 1076.02 124.881C1074.92 124.294 1075.47 124.145 1074.58 124.747Z" fill="#012A35"/>
<path d="M1065.14 134.413L1063.63 134.975C1063.52 135.017 1063.43 135.109 1063.39 135.234C1062.18 138.663 1062.19 141.035 1062.58 142.359C1062.97 143.706 1064.2 144.842 1065.29 144.646C1066.02 144.512 1066.69 139.682 1065.14 134.413Z" fill="#012A35"/>
<path d="M1076.75 124.843C1075.35 123.851 1074.5 123.613 1073.71 123.756C1070.72 124.293 1069.4 124.126 1068.22 123.934C1066.24 123.612 1065.17 124.181 1065.26 125.551C1065.44 128.125 1065.13 132.941 1064.78 134.634C1063.29 137.082 1062.84 139.781 1063.22 141.459C1063.59 143.136 1064.68 144.678 1065.4 144.982C1066.55 145.468 1073.4 146.609 1075.46 146.093C1077.52 145.577 1078.84 143.886 1079.01 140.888C1079.17 137.891 1078.47 129.526 1078.17 127.368C1078.01 126.14 1077.62 125.468 1076.75 124.843Z" fill="#012A35"/>
<path d="M1079.97 135.678C1078.79 134.919 1076.23 134.428 1075.24 134.526C1075.12 134.537 1075.02 134.632 1075 134.773C1074.66 137.033 1073.18 138.67 1073.38 141.519C1073.6 144.451 1075.46 146.184 1077.12 145.886C1078.78 145.588 1080.18 144.545 1080.44 142.201C1080.68 139.936 1080.57 138.06 1080.19 136.015C1080.16 135.877 1080.08 135.75 1079.97 135.678V135.678Z" fill="#012A35"/>
<path d="M1065.1 132.085L1065.01 133.037C1066.56 133.324 1072.3 134.122 1073.29 134.306C1074.28 134.49 1074.94 133.975 1074.87 132.514C1074.81 131.054 1065.1 132.085 1065.1 132.085Z" fill="#012A35"/>
<ellipse rx="1.67444" ry="1.64641" transform="matrix(1.02204 -0.171188 0.210973 0.934303 1073.72 123.152)" fill="#012A35"/>
<path d="M1076.94 124.982C1076.36 124.121 1075.78 123.569 1074.82 123.326C1073.01 122.867 1068.31 123.083 1067.21 123.145C1066.1 123.206 1064.73 123.778 1064.78 125.028C1064.85 126.851 1064.82 129.968 1064.54 131.344C1064.38 132.187 1064.73 132.624 1065.46 132.746C1066.2 132.868 1072.66 133.593 1073.59 133.691C1074.52 133.79 1075.25 133.241 1075.33 132.58C1075.43 131.662 1074.69 126.783 1074.45 125.766C1074.27 125.053 1074.75 124.475 1075.47 124.465C1075.96 124.442 1076.48 124.624 1076.94 124.982Z" fill="#012A35"/>
<path d="M1070.1 131.752C1070.09 131.688 1070.07 131.623 1070.03 131.572C1069.98 131.521 1069.93 131.489 1069.88 131.484L1068.52 131.367C1068.41 131.358 1068.34 131.447 1068.35 131.568C1068.38 132.011 1068.44 133.03 1068.34 133.62C1068.33 133.723 1068.3 133.836 1068.27 133.955C1068.07 133.915 1067.87 133.885 1067.68 133.871C1067.61 133.864 1067.54 133.913 1067.52 133.995L1067.41 134.463C1067.39 134.532 1067.4 134.614 1067.45 134.682C1067.49 134.75 1067.56 134.795 1067.62 134.801C1067.72 134.809 1067.84 134.824 1067.99 134.843C1067.91 135.054 1067.83 135.244 1067.78 135.39C1067.75 135.453 1067.76 135.534 1067.79 135.606C1067.83 135.679 1067.89 135.732 1067.95 135.749L1069.28 136.1C1069.36 136.121 1069.43 136.084 1069.46 136.008C1069.52 135.852 1069.63 135.564 1069.74 135.233C1069.89 135.278 1070.05 135.327 1070.2 135.382C1070.29 135.412 1070.37 135.374 1070.4 135.287L1070.55 134.857C1070.58 134.795 1070.57 134.718 1070.54 134.649C1070.5 134.58 1070.45 134.528 1070.38 134.509C1070.28 134.473 1070.14 134.432 1069.98 134.385C1070.02 134.249 1070.04 134.109 1070.06 133.966C1070.14 133.291 1070.12 132.231 1070.1 131.752Z" fill="#012A35"/>
<ellipse rx="1.34182" ry="1.76976" transform="matrix(0.844634 0.536262 -0.537742 0.842525 1070.64 130.955)" fill="#012A35"/>
<ellipse rx="1.34182" ry="1.76975" transform="matrix(0.844633 0.536263 -0.537741 0.842526 1070.61 130.669)" fill="#012A35"/>
<path fill-rule="evenodd" clip-rule="evenodd" d="M1071.4 131.318L1070.62 131.334L1070.8 131.078L1071.31 131.068L1071.06 130.322L1070.89 130.576L1070.56 131.051C1070.44 131.234 1070.26 131.348 1070.08 131.345L1069.59 131.355C1069.54 131.359 1069.49 131.33 1069.48 131.28C1069.46 131.23 1069.47 131.167 1069.51 131.117L1070.4 129.822C1070.43 129.77 1070.48 129.736 1070.53 129.735C1070.58 129.734 1070.63 129.765 1070.64 129.816L1070.81 130.326L1070.99 130.06C1071.02 130.011 1071.07 129.979 1071.12 129.978C1071.17 129.977 1071.22 130.007 1071.23 130.056L1071.56 131.075C1071.58 131.124 1071.57 131.185 1071.53 131.235C1071.5 131.286 1071.45 131.317 1071.4 131.318ZM1069.77 131.102L1070.11 131.096L1070.11 131.096C1070.22 131.101 1070.33 131.033 1070.4 130.923L1070.63 130.58L1070.47 130.08L1069.77 131.102Z" fill="#012A35"/>
<path d="M1014.27 123.613L1015.28 118.925C1015.69 117.03 1017.7 115.879 1019.79 116.373C1021.87 116.867 1023.22 118.793 1022.82 120.688L1022.55 121.91L1023.52 123.776C1023.56 123.852 1023.56 123.941 1023.52 124.015C1023.48 124.089 1023.41 124.138 1023.32 124.147C1022.9 124.191 1022.48 124.195 1022.06 124.158L1021.44 127.047C1021.34 127.518 1020.91 127.837 1020.41 127.793C1020.09 127.767 1019.7 127.727 1019.27 127.662L1017.76 131.451L1012.16 128.051L1014.27 123.613Z" fill="#012A35"/>
<path d="M1020.33 149.157C1023.54 153.587 1028.09 162.365 1028.88 164.565C1029.68 166.766 1030.25 167.305 1030.17 169.506C1030.03 173.541 1029.4 188.325 1029.4 188.325C1027.47 190.175 1025.27 189.349 1022.92 188.325L1022.92 172.777C1022.92 171.716 1022.52 170.696 1021.84 169.893C1019.8 167.487 1015.43 161.955 1013.76 156.898C1012.35 152.63 1009.73 146.187 1020.33 149.157Z" fill="#012A35"/>
<path d="M1016.52 152.404C1017.82 157.083 1018.07 164.094 1021.23 169.148C1019.14 167.217 1016.62 162.17 1013.52 158.812C1012.96 156.338 1013.55 155.089 1016.52 152.404Z" fill="#012A35"/>
<path d="M1009.14 146.065C1006.2 149.686 1003.77 164.775 1004.6 167.088C1000.85 170.619 997.3 184.629 997.3 184.629C998.637 186.557 1001.59 185.677 1002.26 186.19L1010.02 172.828C1010.02 172.828 1017.57 162.576 1020.24 154.297C1020.93 152.158 1021.18 149.928 1020.04 147.711C1018.9 145.495 1009.14 146.065 1009.14 146.065Z" fill="#012A35"/>
<path d="M1035.61 195.846L1035.55 196.236C1035.51 196.601 1035.21 196.861 1034.85 196.847L1024.19 196.303C1023.81 196.287 1023.44 195.97 1023.43 195.569L1023.42 195.11L1035.61 195.846Z" fill="#012A35"/>
<path d="M1029.5 187.353C1029.97 189.082 1027.5 191.749 1032.95 192.293C1034.74 192.872 1035.82 194.416 1035.62 196.116L1024.06 195.472C1023.08 195.266 1023.44 195.163 1023.17 192.615C1022.78 188.881 1022.82 187.469 1022.82 187.469L1029.5 187.353Z" fill="#012A35"/>
<path d="M1007.9 191.887L1003.3 194.647L994.917 189.844C994.86 190.055 994.681 190.485 994.73 190.699C994.78 190.912 994.864 190.937 995.048 191.048L1002.18 195.233C1003.07 195.769 1003.5 195.578 1004.36 194.985L1008.05 192.89C1008.24 192.764 1008.3 192.676 1008.11 192.304L1007.9 191.887Z" fill="#012A35"/>
<path d="M996.648 185.489C995.41 187.694 995.138 188.866 994.89 189.941L1003.13 194.834L1008.01 192.125C1007.03 190.005 1004.49 189.668 1003.36 189.855C1001.71 188.283 1002.53 186.224 1003.66 183.406C1002.07 182.784 999.602 180.901 998.066 181.473L996.648 185.489Z" fill="#012A35"/>
<path d="M1034.19 141.82C1035.99 142.377 1036.76 142.438 1037.31 142.762C1037.87 143.086 1040.18 144.724 1040.63 145.16C1040.97 145.489 1041.36 145.874 1041.55 146.051C1041.57 146.076 1041.59 146.111 1041.59 146.145C1041.59 146.18 1041.57 146.211 1041.54 146.23C1041.21 146.483 1040.72 146.459 1040.37 146.171L1039.67 145.6C1039.67 145.6 1038.17 145.087 1037.26 145.191C1036.36 145.295 1036.3 145.626 1036.7 146C1036.94 146.219 1037.49 146.637 1037.9 146.939C1038.02 147.03 1038.1 147.167 1038.12 147.313C1038.14 147.46 1038.1 147.603 1038 147.703C1037.85 147.854 1037.62 147.887 1037.42 147.783L1036.05 147.083C1035.78 146.943 1035.53 146.749 1035.33 146.513L1033.9 144.837L1032.51 143.803L1033.73 141.542L1034.19 141.82Z" fill="#012A35"/>
<path d="M1039.75 146.857L1039.7 144.639C1039.69 144.279 1039.48 143.938 1039.15 143.758L1037.33 142.743C1037.17 143.187 1037.11 143.666 1037.15 144.149C1037.23 144.916 1037.53 145.842 1038.07 146.355C1038.45 146.712 1039.13 146.942 1039.5 147.046C1039.56 147.063 1039.62 147.052 1039.67 147.015C1039.72 146.978 1039.75 146.921 1039.75 146.857V146.857Z" fill="#012A35"/>
<path d="M1008.54 127.737C1009.4 126.763 1011.23 125.762 1012.54 125.189C1012.61 124.446 1012.83 124.127 1013.45 124.209C1014.07 124.29 1019.55 132.195 1019.55 132.195C1014.88 132.393 1008.54 127.737 1008.54 127.737Z" fill="#012A35"/>
<path d="M1011.14 125.975C1007.58 126.529 1006.01 130.258 1006.86 135.053C1005.03 151.468 1008.25 151.828 1008.25 151.828C1014.71 153.275 1017.85 152.901 1017.85 152.901C1017.85 152.901 1020.74 151.426 1021.79 148.415C1022.46 135.401 1018.76 131.165 1016.2 128.511C1013.99 126.212 1012.53 125.76 1011.14 125.975Z" fill="#012A35"/>
<path d="M1023.36 137.425C1021.03 137.156 1013.33 135.329 1011.88 134.515C1010.68 133.84 1009.89 131.672 1010.94 129.769C1011.93 129.734 1012.9 129.701 1013.92 129.695C1017.5 132.056 1023.36 137.425 1023.36 137.425Z" fill="#012A35"/>
<path d="M1033.73 145.121L1034.24 141.384C1034.24 141.384 1026.59 137.909 1023.69 136.718C1021.83 135.952 1019.87 136.963 1019.78 138.857C1019.7 140.601 1021.49 142.08 1023.33 142.682C1025.86 143.515 1033.73 145.121 1033.73 145.121Z" fill="#012A35"/>
<path d="M1010.18 128.374C1009.25 129.371 1008.19 131.288 1009.55 133.587C1011.01 136.036 1020.39 141.051 1022.14 141.701C1023.89 142.352 1025.14 141.488 1025.76 139.881C1026.37 138.274 1020.3 132.267 1016.84 129.817C1014.87 128.427 1011.41 127.048 1010.18 128.374Z" fill="#012A35"/>
<path d="M1008.2 129.622C1009.59 128.594 1011.72 127.731 1016.18 127.443L1018.22 128.306C1018.22 128.306 1011.16 129.108 1008.84 130.624C1008.84 130.624 1008.29 130.324 1008.2 129.622Z" fill="#012A35"/>
<path d="M1008.67 126.985C1007.8 125.916 1006.37 125.155 1005.54 125.762C1003.02 127.597 1000.06 132.814 999.894 133.605C999.727 134.396 1000.12 134.99 1001.14 134.444C1002.16 133.898 1008.67 126.985 1008.67 126.985Z" fill="#012A35"/>
<path d="M1009.04 124.015C1008.55 123.957 1008.05 124.028 1007.6 124.22C1007.39 124.308 1007.26 124.521 1007.28 124.748C1007.38 125.554 1007.36 126.367 1007.24 127.164L1008.13 127.64C1008.13 127.64 1009.48 126.117 1009.48 124.517C1009.48 124.268 1009.29 124.053 1009.04 124.015Z" fill="#012A35"/>
<path d="M1008.78 127.34C1008.33 126.931 1007.82 126.579 1007.28 126.294C1006.6 125.989 1006.3 126.216 1005.41 126.898C1004.51 127.579 999.55 135.791 999.098 136.468C998.645 137.144 998.54 138.004 998.633 139.149C998.725 140.295 998.773 145.838 998.832 146.757C998.89 147.675 999.086 147.915 999.529 148.468C999.972 149.021 1005.45 152.091 1008.69 148.486C1010.46 146.517 1011.52 136.521 1008.78 127.34Z" fill="#012A35"/>
<path d="M1005.2 137.449L1000.15 137.379C999.941 137.375 999.767 137.536 999.76 137.744C999.724 138.908 999.623 142.479 999.687 143.691C999.753 145.144 1000.63 147.167 1002.84 147.221C1005.04 147.274 1006.87 146.131 1006.71 143.156C1006.59 141.387 1006.3 139.63 1005.83 137.911C1005.75 137.637 1005.49 137.447 1005.2 137.449V137.449Z" fill="#012A35"/>
<path d="M1018.96 122.971C1018.88 123.493 1018.43 124.95 1018.08 125.264C1017.46 125.687 1016.71 125.58 1016.06 125.489C1016.06 125.489 1013.5 125.106 1013.34 124.591C1013.34 124.591 1013.23 124.532 1013.16 124.024C1012.46 121.177 1013.87 119.105 1013.87 119.105C1014.07 118.667 1014.9 117.151 1014.9 117.151C1015.17 116.626 1015.89 115.946 1016.27 115.567C1016.71 115.123 1017.47 115.259 1018.27 115.031C1022.65 113.779 1024.29 115.464 1024.57 116.463C1024.76 116.178 1024.48 115.244 1024.32 114.813C1026.33 116.189 1024.85 119.909 1023.46 119.201C1022.08 118.493 1021.46 119.239 1021.2 119.391C1020.86 119.591 1020.62 120.178 1020.38 120.492C1020.26 120.654 1020.13 120.865 1019.99 121.117C1020.1 120.589 1019.74 119.969 1019.37 120.115C1018.5 120.457 1019.05 122.318 1018.96 122.971Z" fill="#012A35"/>
</g>
<defs>
<radialGradient id="paint0_radial" cx="0" cy="0" r="1" gradientUnits="userSpaceOnUse" gradientTransform="translate(-187.037 283.314) rotate(99.255) scale(362.605 1022.64)">
<stop stop-color="#00DC82"/>
<stop offset="1" stop-color="#C4C4C4" stop-opacity="0"/>
</radialGradient>
<clipPath id="clip0">
<rect width="1229" height="250" rx="8" fill="white"/>
</clipPath>
</defs>
</svg>
