<svg xmlns="http://www.w3.org/2000/svg" width="2153" height="453"><path fill="#5E6BB8" fill-rule="evenodd" d="M354.17 293.15c0 102-75 159.6-177 159.6s-177-57.6-177-159.6 75-159.6 177-159.6 177 57.6 177 159.6zm-135-1.8c0-31.8-15-52.8-42-52.8s-42 21-42 52.8c0 31.2 15 52.2 42 52.2s42-21 42-52.2zm384-151.8v99h-63v84c0 18 9 21 24 21s30-4.2 30-4.2l6 103.2c-12 3-45 10.2-84 10.2s-66-10.2-84-26.4c-18-16.8-27-43.8-27-88.8v-99h-42v-99h42v-75h135v75h63zm342 147c0 18-1.8 37.8-1.8 37.8h-201c4.8 28.2 34.8 34.2 58.8 34.2s57-6 84-24l51 66c-15 12-57 52.2-154.8 52.2-97.2 0-172.2-54.6-172.2-159.6s78-159.6 174-159.6 162 60 162 153zm-202.8-33h78c-1.2-21-16.2-36-39-36-22.2 0-37.2 15-39 36zm474 69l24 102s-36 28.2-111 28.2c-90 0-168-57.6-168-159.6s78-159.6 168-159.6c69 0 108 24 108 24l-21 102c-12-9-36-21-66-21s-55.8 18-55.8 52.8c0 34.2 22.8 52.2 58.8 52.2 35.99 0 62.98-20.99 63-21zm0 0zm388.2-57v180h-135v-150c0-30-3-52.8-31.2-52.8-28.8 0-31.8 22.8-31.8 52.8v150h-135v-414h135v90c0 18-1.2 57-1.2 57 15-24 40.2-45 85.2-45 90 0 114 57 114 132zm183-201c0 39-28.2 64.2-72 64.2-43.2 0-72-25.2-72-64.2s28.8-64.2 72-64.2c43.8 0 72 25.2 72 64.2zm-4.2 75v306h-135v-306h135zm369 147c0 18-1.8 37.8-1.8 37.8h-201c4.8 28.2 34.8 34.2 58.8 34.2s57-6 84-24l51 66c-15 12-57 52.2-154.8 52.2-97.2 0-172.2-54.6-172.2-159.6s78-159.6 174-159.6 162 60 162 153zm-202.8-33h78c-1.2-21-16.2-36-39-36-22.2 0-37.2 15-39 36zm382.2 133.8c0 42-30 64.8-73.2 64.8-43.8 0-73.8-22.8-73.8-64.8s30-65.4 73.8-65.4c43.2 0 73.2 23.4 73.2 65.4zm283.8-64.8l24 102s-36 28.2-111 28.2c-90 0-168-57.6-168-159.6s78-159.6 168-159.6c69 0 108 24 108 24l-21 102c-12-9-36-21-66-21s-55.8 18-55.8 52.8c0 34.2 22.8 52.2 58.8 52.2s63-21 63-21zm393-29.4c0 102-75 159.6-177 159.6s-177-57.6-177-159.6 75-159.6 177-159.6 177 57.6 177 159.6zm-135-1.8c0-31.8-15-52.8-42-52.8s-42 21-42 52.8c0 31.2 15 52.2 42 52.2s42-21 42-52.2zm681-28.8v183h-135v-156c0-30-6-46.8-27-46.8s-27 16.8-27 46.8v156h-135v-156c0-30-6-46.8-27-46.8s-27 16.8-27 46.8v156h-135v-306h135l-1.8 39c16.8-24 43.8-45 82.8-45s75 9 91.2 51c22.8-36 49.8-51 97.8-51 75 0 108 48 108 129z"/></svg>