<?xml version="1.0" encoding="UTF-8"?>
<svg width="1002px" height="351px" viewBox="0 0 1002 351" version="1.1" xmlns="http://www.w3.org/2000/svg" xmlns:xlink="http://www.w3.org/1999/xlink">
    <title>Storyblok</title>
    <defs></defs>
    <g id="logo" stroke="none" stroke-width="1" fill="none" fill-rule="evenodd">
        <g transform="translate(1.000000, 74.000000)" fill-rule="nonzero">
            <g id="text" transform="translate(255.000000, 28.000000)" fill="#000000">
                <path d="M39.8447222,120.790436 C32.5433333,120.790436 25.4505556,119.750873 18.3577778,117.463834 C11.7017814,115.31429 5.58455724,111.769672 0.417222222,107.068203 L9.80472222,91.2668444 C15.02,94.8013589 20.0266667,97.5042229 25.0333333,99.5833491 C29.8313889,101.662475 34.6294444,102.494126 39.2188889,102.494126 C42.5566667,102.494126 45.2686111,101.870388 47.1461111,100.622912 C49.0236111,99.5833491 49.8580556,97.7121355 49.8580556,95.4250968 C49.8580556,93.3459706 48.815,91.2668444 46.3116667,90.0193687 C42.3910267,88.1466545 38.2586858,86.7505513 34.0036111,85.8611164 L19.4008333,81.0791262 C15.4372222,79.4158252 12.3080556,77.7525243 9.80472222,75.8813107 C7.30138889,74.2180098 5.42388889,71.930971 4.38083333,69.6439322 C3.24539596,67.0191195 2.67678338,64.185576 2.71194444,61.3274275 C2.58982691,53.1434599 6.19523228,45.345162 12.5166667,40.1203406 C15.4372222,37.6253892 19.1922222,35.7541756 23.3644444,34.2987873 C27.5366667,32.843399 32.1261111,32.2196611 36.9241667,32.2196611 C43.3911111,32.2196611 49.4408333,33.0513116 55.0733333,34.7146125 C60.7058333,36.5858261 66.1297222,39.7045154 71.345,44.2785929 L61.1230556,59.8720392 C57.0850736,56.992698 52.7490006,54.5531107 48.1891667,52.5950976 C44.2255556,50.9317967 40.6791667,50.3080588 36.9241667,50.3080588 C34.2122222,50.3080588 31.7088889,50.7238841 29.8313889,51.9713598 C27.7452778,53.0109229 26.9108333,54.8821364 26.9108333,57.3770878 C26.9108333,59.8720392 27.9538889,61.5353402 30.04,62.7828159 C32.1261111,64.0302916 36.2983333,65.2777673 41.9308333,66.7331556 C47.1600818,68.0458831 52.3134962,69.6422569 57.3680556,71.5151458 C61.5402778,73.1784467 64.8780556,75.0496603 67.59,76.9208738 C72.7185981,80.6849364 75.5533516,86.8063372 75.1,93.138058 C75.1,101.662475 71.9708333,108.315679 65.5038889,113.305582 C59.2455556,118.295485 50.9011111,120.790436 39.8447222,120.790436 Z M143.107222,114.76097 C139.560833,116.216358 135.388611,117.671747 130.799167,118.919222 C126.209722,120.166698 121.620278,120.998349 116.822222,120.998349 C113.484444,120.998349 110.563889,120.582523 107.643333,119.750873 C104.80378,118.925816 102.172723,117.508385 99.9247222,115.592621 C97.8386111,113.92932 96.1697222,111.434368 94.9180556,108.731504 C93.6663889,105.820728 92.8319444,102.286213 92.8319444,98.1279608 L92.8319444,53.4267481 L81.9841667,53.4267481 L81.9841667,33.8829621 L93.0405556,33.8829621 L93.0405556,6.64640922 L118.908333,6.64640922 L118.908333,33.6750495 L136.431667,33.6750495 L136.431667,53.4267481 L118.908333,53.4267481 L118.908333,89.1877182 C118.908333,91.8905823 119.534167,93.9697084 120.994444,95.4250968 C122.454722,96.4646598 124.332222,97.0883977 126.418333,97.0883977 C128.504444,97.0883977 130.590556,96.8804851 132.468056,96.0488346 C134.554167,95.4250968 136.431667,94.8013589 137.891944,93.9697084 L142.898611,114.76097 L143.107222,114.76097 Z M191.922222,120.790436 C185.284108,120.905942 178.689232,119.704463 172.521389,117.255922 C161.665475,112.975818 153.163037,104.274867 149.156944,93.3459706 C145.058418,82.490231 145.058418,70.5198662 149.156944,59.6641266 C153.163037,48.7352298 161.665475,40.0342789 172.521389,35.7541756 C178.153889,33.4671368 184.620833,32.2196611 191.922222,32.2196611 C204.621079,31.6239099 216.953316,36.5554617 225.717222,45.7339813 C229.680833,49.684321 232.601389,54.4663112 234.6875,59.6641266 C238.957789,70.5598508 238.957789,82.658159 234.6875,93.5538832 C230.655936,104.347978 222.250685,112.951493 211.531667,117.255922 C205.298851,119.731759 198.630302,120.933735 191.922222,120.790436 Z M173.147222,76.7129612 C173.147222,83.366165 174.816111,88.771893 178.3625,92.7222327 C182.1175,96.8804851 186.706944,98.9596112 192.130833,98.9596112 C197.370796,99.0605109 202.36801,96.7618268 205.690556,92.7222327 C207.359444,90.6431066 208.611111,88.5639804 209.654167,85.6532037 C210.697222,82.9503397 211.114444,79.8316505 211.114444,76.7129612 C211.114444,69.8518448 209.236944,64.4461168 205.690556,60.4957771 C202.144167,56.3375247 197.554722,54.2583986 192.130833,54.2583986 C186.910005,54.2466201 181.949289,56.5285153 178.571111,60.4957771 C176.902222,62.5749032 175.441944,64.6540294 174.398889,67.5648061 C173.458312,70.5200745 173.034913,73.6145981 173.147222,76.7129612 Z M305.198056,56.1296121 C298.939722,56.1296121 293.098611,57.1691752 287.883333,59.2483014 C283.292234,60.7911203 279.383123,63.8785344 276.826944,67.9806313 L276.826944,119.335048 L250.750556,119.335048 L250.750556,33.8829621 L274.740833,33.8829621 L274.740833,50.9317967 C277.661389,45.1102434 281.416389,40.5361658 286.214444,37.4174766 C290.803889,34.0908747 295.601944,32.4275738 300.817222,32.2196611 L303.529167,32.2196611 L305.198056,32.4275738 L305.198056,55.9216995 L305.198056,56.1296121 Z M316.671667,132.017717 C320.299534,133.274655 324.097765,133.975676 327.936667,134.096844 C331.065833,134.096844 333.569167,133.05728 335.446667,130.978154 C337.115556,128.899028 338.575833,124.740776 340.036111,119.335048 L307.492778,33.8829621 L334.403611,33.8829621 L354.221667,96.8804851 L371.536389,33.8829621 L395.943889,33.8829621 L363.191944,133.05728 C358.054516,149.902022 340.831098,160.020779 323.555833,156.343494 C321.469722,155.927668 318.966389,155.303931 316.671667,154.264367 L316.671667,132.017717 Z M457.692778,120.790436 C451.225833,120.790436 445.384722,119.54296 440.586667,116.632184 C435.711805,113.96337 431.669618,110.006657 428.904444,105.19699 L428.904444,119.335048 L406.165833,119.335048 L406.165833,0.409030704 L432.450833,0.409030704 L432.450833,47.8131074 C438.156891,37.8615185 448.90986,31.8632171 460.404722,32.2196611 C465.828611,32.2196611 470.835278,33.2592242 475.424722,35.7541756 C480.014167,37.8333018 483.769167,41.1599037 487.315556,45.1102434 C497.584407,59.3131271 500.378604,77.5693085 494.825556,94.1776211 C492.739444,99.5833491 489.818889,104.365339 486.2725,108.315679 C478.947764,116.319256 468.561828,120.852611 457.692778,120.790436 Z M450.391389,98.9596112 C458.859385,98.9773923 466.403161,93.6308919 469.166389,85.6532037 C472.225264,77.2776224 470.726404,67.9214566 465.202778,60.9116023 C461.941477,56.6312764 456.826172,54.1594327 451.434444,54.2583986 C447.470833,54.2583986 443.715833,55.7137869 440.169444,58.4166509 C436.831667,61.3274275 434.119722,64.861942 432.242222,69.228107 L432.242222,87.1085921 C435.608795,94.1824983 442.744502,98.7081986 450.6,98.7516986 L450.391389,98.9596112 Z M510.471389,0.409030704 L536.547778,0.409030704 L536.547778,88.771893 C536.547778,95.4250968 539.259722,98.543786 544.892222,98.543786 C547.870244,98.5524267 550.805669,97.8388669 553.445278,96.4646598 L556.991667,115.800533 C549.685329,118.98979 541.811517,120.686536 533.835833,120.790436 C526.325833,120.790436 520.484722,118.71131 516.521111,114.968883 C512.348889,110.81063 510.262778,105.404902 510.262778,97.9200482 L510.262778,0.409030704 L510.471389,0.409030704 Z M606.223889,120.790436 C599.585774,120.905942 592.990899,119.704463 586.823056,117.255922 C575.902993,113.002178 567.325812,104.302416 563.25,93.3459706 C557.217527,77.0049582 560.57369,58.6875069 572.011667,45.5260686 C576.183889,41.3678163 580.773333,38.249127 586.614444,35.7541756 C592.246944,33.4671368 598.713889,32.2196611 606.015278,32.2196611 C618.714135,31.6239099 631.046371,36.5554617 639.810278,45.7339813 C643.9825,49.684321 646.694444,54.4663112 648.780556,59.6641266 C655.05118,75.9838959 651.672113,94.4263506 640.018889,107.484029 C636.055278,111.642281 631.257222,114.968883 625.416111,117.255922 C619.248268,119.704463 612.653392,120.905942 606.015278,120.790436 L606.223889,120.790436 Z M587.240278,76.7129612 C587.240278,83.366165 588.909167,88.771893 592.455556,92.7222327 C596.210556,96.8804851 600.8,98.9596112 606.223889,98.9596112 C611.457375,99.0299304 616.441918,96.7370752 619.783611,92.7222327 C621.4525,90.6431066 622.704167,88.5639804 623.747222,85.6532037 C624.790278,82.9503397 625.2075,79.8316505 625.2075,76.7129612 C625.2075,69.8518448 623.33,64.4461168 619.783611,60.4957771 C616.237222,56.3375247 611.647778,54.2583986 606.223889,54.2583986 C601.003061,54.2466201 596.042345,56.5285153 592.664167,60.4957771 C590.995278,62.5749032 589.535,64.6540294 588.491944,67.5648061 C587.448889,70.4755827 587.240278,73.3863593 587.240278,76.7129612 Z M722.628889,119.335048 L700.3075,84.8215533 L691.128611,94.3855337 L691.128611,119.335048 L665.052222,119.335048 L665.052222,0.409030704 L691.128611,0.409030704 L691.128611,69.228107 L720.125556,33.8829621 L747.870833,33.8829621 L716.996389,70.6834953 L750.374167,119.335048 L722.628889,119.335048 Z" id="Shape"></path>
            </g>
            <g id="icon" fill="#09B3AF">
                <path d="M107.767816,102.281553 L64.4942529,102.281553 L64.4942529,123.15534 L106.727586,123.15534 C109.224138,123.15534 111.512644,122.11165 113.385057,120.441748 C115.049425,118.771845 116.089655,116.26699 116.089655,113.135922 C116.149996,110.449614 115.347659,107.815053 113.801149,105.621359 C112.136782,103.533981 110.264368,102.281553 107.767816,102.281553 Z M109.224138,77.0242718 C111.096552,75.7718447 111.928736,73.0582524 111.928736,69.5097087 C111.928736,66.3786408 111.096552,64.0825243 109.64023,62.6213592 C108.183908,61.368932 106.311494,60.5339806 104.231034,60.5339806 L64.4942529,60.5339806 L64.4942529,79.3203883 L103.398851,79.3203883 C105.47931,79.3203883 107.55977,78.276699 109.224138,77.0242718 Z" id="Shape"></path>
                <path d="M172.678161,0 L9.36206897,0 C4.16091954,0 0,4.17475728 0,9.18446602 L0,173.252427 C0,178.262136 4.16091954,181.393204 9.15402299,181.393204 L33.2873563,181.393204 L33.2873563,214.165049 L63.245977,181.601942 L172.678161,181.601942 C177.671264,181.601942 180.791954,178.470874 180.791954,173.252427 L180.791954,9.39320388 C180.791954,4.38349515 177.671264,0.208737864 172.470115,0.208737864 L172.678161,0 Z M145.216092,132.966019 C143.135632,136.723301 140.014943,139.854369 136.270115,142.150485 C132.317241,144.65534 127.948276,146.951456 122.955172,147.995146 C117.962069,149.247573 112.552874,150.291262 106.935632,150.291262 L33.2873563,150.291262 L33.2873563,33.3980583 L116.921839,33.3980583 C121.082759,33.3980583 124.61954,34.2330097 127.948276,36.1116505 C131.068966,37.7815534 133.981609,40.0776699 136.270115,42.7912621 C140.931059,48.4939966 143.436079,55.6644385 143.343678,63.038835 C143.343678,68.4660194 141.887356,73.684466 139.182759,78.6941748 C136.37877,83.7331313 131.988848,87.6972001 126.7,89.9660194 C133.357471,91.8446602 138.558621,95.184466 142.511494,99.9854369 C146.256322,104.995146 148.128736,111.466019 148.128736,119.606796 C148.128736,124.825243 147.088506,129.208738 145.008046,132.966019 L145.216092,132.966019 Z" id="Shape"></path>
            </g>
        </g>
    </g>
</svg>
