<svg xmlns="http://www.w3.org/2000/svg" id="Artwork" viewBox="0 0 190.1 33"><style>.st0{fill:#4b5168}.st1{fill:#f6914d}</style><path d="M33.4 27.7V5.3c0-2.3 0-2.3 2.4-2.3s2.4 0 2.4 2.3v22.4c0 2.3 0 2.3-2.4 2.3-2.4-.1-2.4-.1-2.4-2.3zM45 26.4V6.6C45 3 45 3 48.6 3h5.8c7.8 0 12.5 3.9 13 10.2.2 2.2.2 3.4 0 5.5-.5 6.3-5.3 11.2-13 11.2h-5.8c-3.6 0-3.6 0-3.6-3.5zm9.3-1c5.3 0 8-3 8.3-7.1.1-1.8.1-2.8 0-4.6-.3-4.2-3-6.1-8.3-6.1h-4.5v17.8h4.5zM73.8 26.4V6.6c0-3.6 0-3.6 3.6-3.6h13.5c2.3 0 2.3 0 2.3 2.2s0 2.2-2.3 2.2H78.6v6.9h11c2.2 0 2.2 0 2.2 2.1s0 2.1-2.2 2.1h-11v6.9h12.3c2.3 0 2.3 0 2.3 2.2 0 2.3 0 2.3-2.3 2.3H77.4c-3.6 0-3.6 0-3.6-3.5zM100 26.4v-21c0-2.3 0-2.3 2.4-2.3s2.4 0 2.4 2.3v20.2h11.9c2.4 0 2.4 0 2.4 2.2s0 2.2-2.4 2.2h-13.1c-3.6-.1-3.6-.1-3.6-3.6zM125.8 27.7V5.3c0-2.3 0-2.3 2.4-2.3s2.4 0 2.4 2.3v22.4c0 2.3 0 2.3-2.4 2.3-2.4-.1-2.4-.1-2.4-2.3zM137.4 27.7V6.6c0-3.6 0-3.6 3.6-3.6h13.5c2.3 0 2.3 0 2.3 2.2s0 2.2-2.3 2.2h-12.2v7.2h11.3c2.3 0 2.3 0 2.3 2.2s0 2.2-2.3 2.2h-11.3v8.6c0 2.3 0 2.3-2.4 2.3s-2.5 0-2.5-2.2zM24.2 3.1H5.5c-2.4 0-2.4 0-2.4 2.2s0 2.2 2.4 2.2h7v7.9l4.8-3.7V7.5h7c2.4 0 2.4 0 2.4-2.2-.1-2.2-.1-2.2-2.5-2.2z" class="st0"/><path d="M12.5 20v7.6c0 2.3 0 2.3 2.4 2.3s2.4 0 2.4-2.3V16.3L12.5 20z" class="st1"/><path d="M165.9 3.1h18.7c2.4 0 2.4 0 2.4 2.2s0 2.2-2.4 2.2h-7v7.9l-4.8-3.7V7.5h-7c-2.4 0-2.4 0-2.4-2.2.1-2.2.1-2.2 2.5-2.2z" class="st0"/><path d="M177.6 20v7.6c0 2.3 0 2.3-2.4 2.3s-2.4 0-2.4-2.3V16.3l4.8 3.7z" class="st1"/></svg>