<svg xmlns="http://www.w3.org/2000/svg" viewBox="0 0 109.45 139.38" width="65" height="65" data-v-372f015c=""><g data-name="Layer 2"><g data-name="Layer 1"><path d="M48.36 86.9A13.53 13.53 0 0144 82.77a19.47 19.47 0 01-2.63-6 28.17 28.17 0 01-.89-7.09 30.29 30.29 0 01.81-7 20.13 20.13 0 012.49-6.12 14.12 14.12 0 014.3-4.37 11.18 11.18 0 016.19-1.68 10.91 10.91 0 016.09 1.68 14.69 14.69 0 014.34 4.4 21.05 21.05 0 012.6 6.07 26.92 26.92 0 01.86 6.65 28 28 0 01-.86 6.82 21.13 21.13 0 01-2.58 6.12 14.69 14.69 0 01-4.27 4.43 10.56 10.56 0 01-6 1.71 11.69 11.69 0 01-6.07-1.55m7.46 27.18H40.7l15.12-18.53zM40.7 29.94l15.12-18.6v18.6zm21.74 58.28a20.38 20.38 0 0011.41-10.74 19.77 19.77 0 001.7-8.16 20.84 20.84 0 00-1.42-7.6 19.4 19.4 0 00-4.08-6.43 19.81 19.81 0 00-6.48-4.44c-.46-.19-.92-.36-1.4-.52V35.41h9.14v-5.47H62V3.7h-2.24L34.31 35.41h21.51v13.81h-.88a25.17 25.17 0 00-8.39 1.4 21.06 21.06 0 00-7 4A19.06 19.06 0 0034.86 61a21.19 21.19 0 00-.09 16.7 19.62 19.62 0 004.56 6.4 20.78 20.78 0 006.74 4.13 22.81 22.81 0 008.14 1.46 23.59 23.59 0 004.39-.41l-24.29 30.27h21.51v15.12h6.35v-15.12h9.14v-5.47H62V88.35l.4-.13" fill="#000" class="cls-1"></path><path d="M65.15 0L65.15 1.59 81.86 1.59 100.84 27.4 100.84 112.6 81.75 137.65 65.15 137.65 65.15 139.38 90.39 139.38 109.45 114.7 109.45 25.36 90.56 0 65.15 0z" fill="#000" class="cls-1"></path><path d="M18.89 0L0 25.36 0 114.7 19.06 139.38 44.3 139.38 44.3 137.65 27.7 137.65 8.61 112.6 8.61 27.4 27.59 1.59 44.3 1.59 44.3 0 18.89 0z" fill="#000" class="cls-1"></path></g></g></svg>
