<svg width="32" height="32" viewBox="0 0 32 32" fill="none" xmlns="http://www.w3.org/2000/svg">
<rect width="32" height="32" rx="4" fill="#0055AA"/>
<path fill-rule="evenodd" clip-rule="evenodd" d="M24.1615 11.0146H24.1793L24.2499 11.05C24.3038 11.0771 24.3546 11.11 24.4012 11.1482L24.4065 11.1525L24.4383 11.1808C24.4882 11.227 24.5322 11.2792 24.5692 11.3363L24.6229 11.4191V11.4538C24.6329 11.4771 24.6419 11.5009 24.6498 11.525L24.6503 11.5266L24.6621 11.5618L24.6645 11.5709C24.683 11.6389 24.6926 11.709 24.6932 11.7795L24.6932 11.782L24.6932 20.5058C24.6969 20.655 24.6597 20.8025 24.5856 20.9321C24.5105 21.0636 24.4004 21.1716 24.2675 21.2442L24.2576 21.2496L16.37 24.8912C16.2628 24.9404 16.1457 24.9662 16.0278 24.9662C15.9099 24.9662 15.7933 24.9407 15.6862 24.8915L7.80818 21.2543C7.66615 21.1886 7.54567 21.0834 7.46155 20.9514C7.37751 20.8196 7.33302 20.6664 7.33331 20.5101L7.33332 11.7795C7.33372 11.7258 7.33941 11.6722 7.35029 11.6197V11.5766L7.36648 11.5266C7.37448 11.5019 7.38364 11.4776 7.39393 11.4538V11.4191L7.4476 11.3363C7.48461 11.2792 7.52859 11.227 7.57852 11.1808L7.58339 11.1764L7.61029 11.1525L7.61554 11.1482C7.66223 11.11 7.713 11.0771 7.76692 11.05L7.83746 11.0146H7.85527L15.6668 7.40822C15.7739 7.35899 15.8905 7.3335 16.0084 7.3335C16.1263 7.3335 16.2434 7.35924 16.3506 7.40848L24.1615 11.0146ZM15.9975 9.05282L21.9196 11.782L15.9975 14.5111L10.0754 11.782L15.9975 9.05282ZM8.93829 19.9867V13.0591L15.1792 15.9353V22.8629L8.93829 19.9867ZM16.8157 22.8629L23.0567 19.9867V13.0591L16.8157 15.9353V22.8629Z" fill="white"/>
</svg>
