<svg width="32" height="32" viewBox="0 0 32 32" fill="none" xmlns="http://www.w3.org/2000/svg">
<rect width="32" height="32" rx="4" fill="#0064C8"/>
<path d="M14.9583 24.3333H10.0975C9.13875 24.3324 8.36175 23.5554 8.36084 22.5966V14.5133C7.68018 14.0303 7.46826 13.1146 7.8675 12.3816C8.6175 11.0416 9.3825 9.7208 10.135 8.45497C10.4368 7.9608 10.976 7.66147 11.555 7.66657C11.9079 7.67015 12.2512 7.78216 12.5383 7.98747L12.5583 7.99997C12.9017 8.19997 16.2183 10.1741 18.8842 11.76L21.25 13.1666L21.3583 13.2308C23.2067 14.3233 23.6225 14.5716 23.6458 14.5875C24.3263 15.0692 24.5355 15.9856 24.1317 16.715C23.3958 18.0291 22.6317 19.35 21.8642 20.6416C21.5663 21.1305 21.0366 21.4303 20.4642 21.4341C20.352 21.4342 20.2402 21.4216 20.1308 21.3966C20.0342 21.4541 19.5008 21.7966 18.825 22.23C17.6225 23.0008 15.9792 24.055 15.7892 24.1525C15.5328 24.2844 15.2463 24.3468 14.9583 24.3333ZM9.75 16.8583V22.5966C9.75 22.7886 9.90558 22.9441 10.0975 22.9441H13.2833C12.0725 20.9 10.8842 18.8516 9.75 16.8583ZM10.8817 16.025C11.215 16.5975 14.8117 22.8016 14.8417 22.8433C14.889 22.9048 14.9623 22.9409 15.04 22.9408C15.081 22.9408 15.1213 22.9308 15.1575 22.9116C15.27 22.8483 18.6525 20.675 18.6858 20.6533C18.4242 20.4991 16.5308 19.3708 14.5258 18.1766L10.865 16L10.8708 16.0091L10.8792 16.0233V16.0283L10.8817 16.025ZM11.2767 9.24997C10.6033 10.3333 9.09667 13.0233 9.07667 13.0725C9.02726 13.1905 9.07109 13.3269 9.18 13.3941C9.29084 13.46 20.3083 20.0241 20.4133 20.0408C20.4267 20.0418 20.44 20.0418 20.4533 20.0408C20.5439 20.0411 20.628 19.994 20.675 19.9166C21.3533 18.7775 22.9158 16.0358 22.92 16.0275C22.9683 15.9089 22.9243 15.7729 22.8158 15.705C22.71 15.6416 11.7133 9.10663 11.6425 9.0758C11.6103 9.06224 11.5758 9.05516 11.5408 9.05497C11.4531 9.05544 11.3714 9.09988 11.3233 9.1733L11.3175 9.1833L11.3108 9.1933L11.3008 9.20997V9.21413L11.2883 9.23413L11.2758 9.24997H11.2767ZM12.4042 13.825C11.638 13.8245 11.017 13.2034 11.0167 12.4372C11.0164 11.671 11.6369 11.0494 12.4031 11.0483C13.1693 11.0472 13.7915 11.6671 13.7933 12.4333C13.7924 13.2001 13.171 13.8215 12.4042 13.8225V13.825Z" fill="white"/>
</svg>
