<svg width="32" height="32" viewBox="0 0 32 32" fill="none" xmlns="http://www.w3.org/2000/svg">
<rect width="32" height="32" rx="4" fill="#408BD6"/>
<path d="M16 24.3332C11.3976 24.3332 7.66669 20.6022 7.66669 15.9998C7.66669 11.3975 11.3976 7.6665 16 7.6665C20.6024 7.6665 24.3334 11.3975 24.3334 15.9998C24.3283 20.6001 20.6003 24.3281 16 24.3332ZM9.33335 16.1432C9.37278 19.8109 12.3676 22.7578 16.0355 22.7382C19.7033 22.7184 22.6663 19.7394 22.6663 16.0715C22.6663 12.4036 19.7033 9.42465 16.0355 9.40484C12.3676 9.38522 9.37278 12.3321 9.33335 15.9998V16.1432ZM14.3334 19.7498V12.2498L19.3334 15.9998L14.3334 19.7498Z" fill="white"/>
</svg>
