<svg xmlns="http://www.w3.org/2000/svg" width="275" height="276" fill="none" viewBox="0 0 275 276"><path fill="#00DC82" d="M19.084 172.198l44.741 64.921-.007-.083a48.858 48.858 0 0019.209 16.31 48.673 48.673 0 0024.752 4.546l78.368-6.422a48.658 48.658 0 0023.684-8.511 48.855 48.855 0 0016.296-19.223l33.583-71.254a49.002 49.002 0 004.483-24.834 49.006 49.006 0 00-8.465-23.773l-44.735-64.838a48.844 48.844 0 00-19.23-16.323 48.657 48.657 0 00-24.781-4.528l-78.318 6.417a48.673 48.673 0 00-23.682 8.514 48.862 48.862 0 00-16.298 19.22L15.101 123.59a49.003 49.003 0 00-4.483 24.834 49 49 0 008.466 23.773z"/></svg>