<svg xmlns="http://www.w3.org/2000/svg" width="80" height="54" fill="none" viewBox="0 0 80 54"><path fill="#00DC82" d="M44.88 54h29.74a5.37 5.37 0 002.69-.723 5.388 5.388 0 001.97-1.977 5.413 5.413 0 00-.002-5.4L59.305 11.186a5.388 5.388 0 00-1.968-1.976 5.365 5.365 0 00-7.35 1.976l-5.106 8.882L34.896 2.7a5.392 5.392 0 00-1.97-1.976 5.368 5.368 0 00-7.35 1.976L.721 45.9a5.413 5.413 0 001.967 7.377A5.365 5.365 0 005.38 54h18.669c7.396 0 12.85-3.26 16.604-9.62l9.112-15.837 4.881-8.475 14.648 25.457h-19.53L44.881 54zm-21.137-8.484l-13.027-.003 19.528-33.94 9.744 16.97-6.524 11.343c-2.492 4.127-5.324 5.63-9.72 5.63z"/></svg>