<svg xmlns="http://www.w3.org/2000/svg" width="86" height="296" fill="none" viewBox="0 0 86 296"><path fill="#E5F9FF" d="M0 8.312a8 8 0 018-8h77.906v295.3H8a8 8 0 01-8-8V8.312z"/><rect width="38.93" height="4.03" x="10.74" y="37.22" fill="#95CDDE" rx="2.01"/><rect width="44.97" height="4.03" x="10.74" y="48.63" fill="#95CDDE" rx="2.01"/><rect width="38.93" height="4.03" x="10.74" y="60.04" fill="#95CDDE" rx="2.01"/><rect width="44.97" height="4.03" x="10.74" y="71.45" fill="#95CDDE" rx="2.01"/><rect width="38.93" height="4.03" x="10.74" y="82.86" fill="#95CDDE" rx="2.01"/><path fill="#00DC82" d="M20.151 22.46h6.237a1.12 1.12 0 00.978-.571 1.15 1.15 0 000-1.141l-4.19-7.335a1.135 1.135 0 00-.977-.57 1.12 1.12 0 00-.977.57l-1.07 1.877-2.095-3.67a1.135 1.135 0 00-.977-.57 1.12 1.12 0 00-.978.57l-5.212 9.128a1.15 1.15 0 00.412 1.559c.172.1.367.152.565.152h3.915c1.551 0 2.695-.689 3.482-2.032l1.911-3.346 1.024-1.79 3.072 5.378h-4.096l-1.024 1.79zm-4.433-1.793h-2.732l4.095-7.172 2.044 3.586-1.368 2.396c-.523.872-1.117 1.19-2.039 1.19z"/></svg>