<svg width="32" height="32" viewBox="0 0 32 32" fill="none" xmlns="http://www.w3.org/2000/svg">
<rect width="32" height="32" rx="4" fill="#003C3C"/>
<path d="M16 21.8334C12.7784 21.8334 10.1667 19.2217 10.1667 16.0001C10.1667 12.7784 12.7784 10.1667 16 10.1667C19.2217 10.1667 21.8334 12.7784 21.8334 16.0001C21.8297 19.2202 19.2202 21.8297 16 21.8334ZM16 11.8334C13.6988 11.8334 11.8334 13.6989 11.8334 16.0001C11.8334 18.3013 13.6988 20.1667 16 20.1667C18.3012 20.1667 20.1667 18.3013 20.1667 16.0001C20.1667 13.6989 18.3012 11.8334 16 11.8334ZM16 18.5001C14.6193 18.5001 13.5 17.3808 13.5 16.0001C13.5 14.6194 14.6193 13.5001 16 13.5001C17.3807 13.5001 18.5 14.6194 18.5 16.0001C18.5 16.6631 18.2366 17.299 17.7678 17.7678C17.2989 18.2367 16.6631 18.5001 16 18.5001Z" fill="white"/>
</svg>
