<svg width="32" height="32" viewBox="0 0 32 32" fill="none" xmlns="http://www.w3.org/2000/svg">
<rect width="32" height="32" rx="4" fill="#2E6160"/>
<path d="M21.8333 24.3334H10.1667C9.24619 24.3334 8.5 23.5872 8.5 22.6667V11.0001C8.5 10.0796 9.24619 9.33341 10.1667 9.33341H11.8333V7.66675H13.5V9.33341H18.5V7.66675H20.1667V9.33341H21.8333C22.7538 9.33341 23.5 10.0796 23.5 11.0001V22.6667C23.5 23.5872 22.7538 24.3334 21.8333 24.3334ZM10.1667 14.3334V22.6667H21.8333V14.3334H10.1667ZM10.1667 11.0001V12.6667H21.8333V11.0001H10.1667ZM16.8333 21.0001H11.8333V16.0001H16.8333V21.0001Z" fill="white"/>
</svg>
