<svg width="32" height="32" viewBox="0 0 32 32" fill="none" xmlns="http://www.w3.org/2000/svg">
<rect width="32" height="32" rx="4" fill="#558887"/>
<path d="M13.5 8.5C11.1988 8.5 9.33332 10.3655 9.33332 12.6667C9.33332 14.9679 11.1988 16.8333 13.5 16.8333C15.8012 16.8333 17.6667 14.9679 17.6667 12.6667C17.6667 10.3655 15.8012 8.5 13.5 8.5ZM11 12.6667C11 11.286 12.1193 10.1667 13.5 10.1667C14.8807 10.1667 16 11.286 16 12.6667C16 14.0474 14.8807 15.1667 13.5 15.1667C12.1193 15.1667 11 14.0474 11 12.6667Z" fill="white"/>
<path d="M20.0903 12.8486C19.8559 12.729 19.5965 12.6667 19.3333 12.6667V11.0001C19.8597 11.0001 20.3785 11.1246 20.8474 11.3637C20.899 11.39 20.9499 11.4177 21 11.4466C21.4045 11.6801 21.756 11.9964 22.0311 12.3755C22.3402 12.8014 22.5441 13.2946 22.626 13.8145C22.708 14.3344 22.6656 14.8663 22.5024 15.3667C22.3393 15.8671 22.0599 16.3218 21.6873 16.6934C21.3146 17.0651 20.8592 17.3433 20.3584 17.5051C19.9127 17.6492 19.4424 17.6975 18.9779 17.6477C18.9205 17.6415 18.8631 17.6338 18.8058 17.6247C18.2865 17.5414 17.7942 17.3365 17.3693 17.0266L17.3684 17.0259L18.3509 15.6796C18.5634 15.8348 18.8097 15.9373 19.0696 15.979C19.3294 16.0206 19.5954 16.0001 19.8458 15.9192C20.0962 15.8383 20.3239 15.6992 20.5103 15.5134C20.6966 15.3275 20.8362 15.1002 20.9178 14.85C20.9994 14.5998 21.0206 14.3339 20.9796 14.0739C20.9387 13.814 20.8367 13.5674 20.6822 13.3544C20.5276 13.1414 20.3248 12.9681 20.0903 12.8486Z" fill="white"/>
<path d="M22.6651 23.5C22.6651 23.0625 22.5789 22.6292 22.4115 22.225C22.244 21.8208 21.9986 21.4535 21.6892 21.1441C21.3798 20.8347 21.0126 20.5893 20.6083 20.4219C20.2041 20.2544 19.7709 20.1682 19.3333 20.1682V18.5C19.9017 18.5 20.4653 18.5969 21 18.786C21.083 18.8153 21.1652 18.8468 21.2467 18.8806C21.8534 19.1319 22.4046 19.5002 22.8689 19.9645C23.3332 20.4288 23.7014 20.98 23.9527 21.5866C23.9865 21.6681 24.018 21.7504 24.0474 21.8333C24.2364 22.368 24.3333 22.9316 24.3333 23.5H22.6651Z" fill="white"/>
<path d="M19.3333 23.5H17.6667C17.6667 21.1988 15.8012 19.3333 13.5 19.3333C11.1988 19.3333 9.33332 21.1988 9.33332 23.5H7.66666C7.66666 20.2783 10.2783 17.6667 13.5 17.6667C16.7217 17.6667 19.3333 20.2783 19.3333 23.5Z" fill="white"/>
</svg>
