<svg width="32" height="32" viewBox="0 0 32 32" fill="none" xmlns="http://www.w3.org/2000/svg">
<rect width="32" height="32" rx="4" fill="#A8DDDB"/>
<path d="M22.6625 11.5732C23.4095 11.1267 23.9685 10.4234 24.235 9.59491C23.5331 10.0114 22.765 10.3048 21.9642 10.4624C20.8538 9.28785 19.0946 9.00201 17.6695 9.76462C16.2444 10.5272 15.5063 12.1495 15.8675 13.7249C12.9922 13.5806 10.3133 12.2223 8.49751 9.98824C7.54988 11.6228 8.03414 13.7122 9.60418 14.7632C9.03644 14.745 8.48129 14.5913 7.98501 14.3149C7.98501 14.3299 7.98501 14.3449 7.98501 14.3599C7.98534 16.0625 9.18532 17.5291 10.8542 17.8666C10.3276 18.0098 9.77518 18.0309 9.23918 17.9282C9.70851 19.3843 11.0505 20.3818 12.58 20.4116C11.3132 21.4059 9.74874 21.945 8.13835 21.9424C7.85291 21.9428 7.56769 21.9264 7.28418 21.8932C8.9195 22.9441 10.8228 23.5019 12.7667 23.4999C15.4711 23.5185 18.07 22.4523 19.9823 20.5399C21.8945 18.6275 22.9605 16.0284 22.9417 13.3241C22.9417 13.1691 22.9381 13.0149 22.9308 12.8616C23.6312 12.3554 24.2357 11.7284 24.7158 11.0099C24.0634 11.2991 23.3712 11.489 22.6625 11.5732Z" fill="#497A87"/>
</svg>
