<svg width="132" height="32" viewBox="0 0 132 32" fill="none" xmlns="http://www.w3.org/2000/svg">
<path d="M72.1237 0.0138531C76.4728 0.00846578 80.8138 0.00346327 85.1633 0C85.1652 1.97214 85.1668 3.95121 85.1687 5.92297C87.7273 5.92143 90.2705 5.91796 92.8314 5.91604C92.8341 8.62971 92.8367 11.3449 92.8387 14.0624C90.2793 14.0644 87.735 14.0678 85.1775 14.0694C85.1837 19.97 85.1895 25.8341 85.1948 31.7347C81.9771 32.0172 78.0378 32.255 75.5177 31.4469C74.1774 31.0171 73.043 29.7768 72.5574 28.4885C72.131 27.3695 72.1156 17.5492 72.1118 14.0832C70.3624 14.0832 68.5777 14.0851 66.8299 14.0886C66.8264 11.3711 66.8245 8.65626 66.8214 5.94221C68.5688 5.94067 70.3539 5.93874 72.1033 5.93682C72.101 3.98892 72.0506 1.84554 72.1237 0.0138531Z" fill="#B7B7B7"/>
<path d="M17.3535 5.2523C24.793 4.6978 33.1253 7.01626 34.7007 12.3016C34.7503 12.539 34.9443 13.5822 34.9443 13.5822C34.9443 13.5822 34.9858 28.1091 34.9893 31.8245C30.6668 31.8298 26.3388 31.8325 22.0186 31.8379C22.0159 29.3929 22.0136 26.9428 22.0117 24.4993C18.376 25.5717 10.6125 27.1313 15.5653 31.8452C12.428 31.8483 4.12615 31.876 2.66234 31.8572C0.76485 31.4354 -0.354942 28.833 0.101825 26.3394C0.515494 24.071 1.95275 22.4786 3.65899 21.4893C7.8407 19.06 14.043 19.1951 19.4504 17.904C20.1573 17.7343 20.8688 17.6562 21.3983 17.296C21.7215 17.0759 21.8539 16.7727 21.9355 16.2855C22.296 14.0917 20.0934 13.4418 18.0339 13.4645C17.4178 13.4699 16.5643 13.5669 16.0175 13.7366C15.6361 13.8508 15.1059 14.1002 14.808 14.343C14.1823 14.8456 13.801 15.5613 13.8029 16.6996C9.63776 16.7034 5.46528 16.708 1.30127 16.7119C1.45019 15.599 1.6426 14.6809 1.97084 13.8162C2.56383 12.2531 3.35192 11.021 4.38666 9.90887C7.23155 6.84849 11.8419 5.66135 17.3535 5.2523Z" fill="#B7B7B7"/>
<path d="M60.2338 5.34273C61.6634 5.23691 62.9183 5.6044 63.9307 5.94534C63.9334 8.65939 63.9361 11.3746 63.9388 14.0902C61.6168 14.0937 59.1025 13.9497 57.4871 14.6358C56.5124 15.0464 55.5342 16.005 55.1374 16.9963C54.628 18.2577 54.805 20.3095 54.8065 22.0442C54.81 25.2931 54.8127 28.5532 54.8169 31.806C50.4031 31.8091 45.9863 31.8141 41.576 31.8179C41.5676 23.2001 41.5587 14.5858 41.5499 5.96805C45.5823 5.96266 49.7309 5.95958 53.7668 5.95419C53.7683 6.96816 53.6925 8.25034 53.7848 9.05305C55.0959 6.95392 57.0584 5.57823 60.2338 5.34273Z" fill="#B7B7B7"/>
<path d="M129.739 14.428C128.468 11.5997 126.332 9.21005 123.682 7.7701C120.633 6.11157 116.314 4.99063 111.381 5.35966C102.577 6.01114 96.5486 10.0678 95.0617 18.0983C94.5038 21.1014 94.8659 24.5739 95.7429 26.9843C96.113 28.0049 97.7966 31.4901 98.5712 31.7606C99.6906 31.6998 105.781 31.7529 108.182 31.7517C108.179 29.5941 108.177 27.4438 108.175 25.2881C115.788 25.2812 123.411 25.2743 131.027 25.2654C131.551 21.3442 130.983 17.2041 129.739 14.428ZM107.764 18.4901C107.854 17.3203 107.999 16.4902 108.433 15.7295C109.11 14.5323 110.315 13.7054 111.994 13.5322C116.128 13.1008 117.997 15.038 118.383 18.4793C114.844 18.4812 111.301 18.4866 107.764 18.4901Z" fill="#B7B7B7"/>
</svg>
