<svg width="114" height="32" viewBox="0 0 114 32" fill="none" xmlns="http://www.w3.org/2000/svg">
<path d="M0 20.0421H4.38213V29.2559H5.7414V31.7634H0V29.2559H1.33701V22.574H0V20.0421V20.0421ZM4.38213 15.3535V18.5895H1.33701V15.3535H4.38213ZM13.8313 29.2569H15.004V24.3097C14.9573 23.0681 14.3477 22.3439 13.1284 22.3439C12.2144 22.3439 11.4171 22.8613 10.8307 23.2346V29.2612H12.0023V31.7687H6.44967V29.258H7.78668V22.5761H6.44967V20.0431H10.8339V21.5678H10.8806C11.6312 20.7482 12.5919 20.0675 13.7879 19.9032C14.1371 19.8527 14.4905 19.8371 14.8428 19.8565C16.2742 19.9265 17.2104 20.6295 17.6801 21.7565C18.8761 20.4185 20.2354 19.8099 21.7357 19.8099C24.08 19.8099 25.2537 21.3345 25.2537 23.7488V29.258H26.613V31.7656H21.0295V29.258H22.2001V24.4507C22.2001 23.0925 21.5904 22.3418 20.3255 22.3418C19.4349 22.3418 18.6142 22.8592 18.0279 23.2558C18.0279 23.5855 18.0512 23.9365 18.0512 24.3107V29.258H19.2228V31.7656H13.8303V29.2569H13.8313ZM34.6955 29.2569H35.8671V24.3097C35.8204 23.0681 35.2097 22.3439 33.9914 22.3439C33.0764 22.3439 32.2802 22.8613 31.6949 23.2346V29.2612H32.8654V31.7687H27.3096V29.258H28.6466V22.5761H27.3106V20.0431H31.6949V21.5678H31.7405C32.4912 20.7482 33.4518 20.0675 34.6478 19.9032C34.9966 19.8533 35.3497 19.8364 35.7017 19.8565C37.132 19.9265 38.0703 20.6295 38.539 21.7565C39.735 20.4185 41.0942 19.8099 42.5945 19.8099C44.9388 19.8099 46.1125 21.3345 46.1125 23.7488V29.258H47.4718V31.7656H41.8937V29.258H43.0653V24.4507C43.0653 23.0925 42.4556 22.3418 41.1897 22.3418C40.299 22.3418 39.4784 22.8592 38.8931 23.2558C38.8931 23.5855 38.9164 23.9365 38.9164 24.3107V29.258H40.087V31.7656H34.6944V29.2569H34.6955ZM48.1069 25.9033C48.1069 22.2231 49.6772 19.8088 53.8038 19.8088C57.9304 19.8088 59.4784 22.2231 59.4784 25.9033C59.4784 29.6089 57.9262 31.9999 53.8038 31.9999C49.6814 31.9999 48.1069 29.6089 48.1069 25.9033ZM51.3418 25.9033C51.3418 28.0853 51.8805 29.4913 53.8027 29.4913C55.725 29.4913 56.2647 28.0853 56.2647 25.9033C56.2647 23.7477 55.7261 22.3407 53.8027 22.3407C51.8794 22.3407 51.3418 23.7509 51.3418 25.9033ZM60.368 15.3535H64.7522V21.2137H64.8042C65.5538 20.3941 66.8431 19.8077 68.1101 19.8077C71.3917 19.8077 72.3756 22.574 72.3756 25.9022C72.3756 29.2559 71.204 31.9988 67.9214 31.9988C66.7498 31.9988 65.4594 31.5058 64.6388 30.6862H64.5921L64.0524 31.7645H60.3669V29.2569H61.7039V17.8865H60.3669V15.3535H60.368ZM66.8622 22.3397C66.0997 22.3504 65.3605 22.6041 64.7522 23.0639V28.7385C65.3511 29.2188 66.0945 29.4833 66.8622 29.4891C68.6668 29.4891 69.1598 27.8945 69.1598 25.9012C69.1598 23.9089 68.6668 22.3397 66.8622 22.3397V22.3397ZM73.262 20.0421H77.6463V29.2559H79.0055V31.7634H73.262V29.2559H74.598V22.574H73.262V20.0421ZM77.6463 15.3535V18.5895H74.598V15.3535H77.6463ZM79.7085 15.3535H84.0927V29.2559H85.452V31.7634H79.7085V29.2559H81.0466V17.8865H79.7085V15.3535ZM86.155 20.0421H90.5392V29.2559H91.8996V31.7634H86.155V29.2559H87.4931V22.574H86.155V20.0421ZM90.5392 15.3535V18.5895H87.4931V15.3535H90.5392ZM95.7685 26.5607C95.8618 28.3197 96.9179 29.4913 99.0787 29.4913C100.314 29.5135 101.546 29.3556 102.736 29.0226L103.088 31.4369C101.535 31.8822 100.157 31.9999 98.6387 31.9999C94.1368 31.9999 92.5432 29.6089 92.5432 25.9033C92.5432 22.2231 94.1368 19.8088 98.5931 19.8088C103.632 19.8088 103.914 23.2791 103.421 26.5607H95.7685V26.5607ZM95.7685 24.6373H100.41C100.617 23.3491 100.316 22.1541 98.3948 22.1541C96.7058 22.1531 95.9085 23.136 95.7685 24.6373ZM104.56 20.0421H108.944V21.9188H108.991C109.741 20.8648 111.172 19.8088 113.046 19.8088V22.6928C111.477 22.6928 109.882 23.1137 108.944 23.5845V29.258H110.423V31.7656H104.561V29.258H105.897V22.5761H104.561V20.0421H104.56Z" fill="#B7B7B7"/>
<g opacity="0.8">
<path opacity="0.8" d="M15.0708 1.28591H19.6226V2.82437H19.0617C18.7966 2.82437 18.716 2.92828 18.716 3.18699V6.65621C18.7179 6.70051 18.7285 6.74399 18.7473 6.78417C18.766 6.82435 18.7925 6.86044 18.8252 6.89038C18.8579 6.92032 18.8962 6.94352 18.9378 6.95864C18.9795 6.97377 19.0237 6.98053 19.068 6.97854L19.0818 6.97748H20.3976C20.4959 6.98121 20.5916 6.94578 20.6638 6.87899C20.7359 6.81219 20.7786 6.71948 20.7825 6.62123V5.37116H22.6009V8.51806H15.0697V6.98384H15.5999C15.848 6.98384 15.9794 6.89902 15.9794 6.65091V3.18805C15.9794 2.96645 15.9339 2.82543 15.6338 2.82543H15.0687V1.28591H15.0708ZM23.395 1.28591H30.8859V3.60792H29.0113V3.22304C29.0113 2.98659 28.8926 2.82543 28.5278 2.82543H26.895V4.13063H28.654V5.53232H26.895V6.98066H28.6042C28.7039 6.98828 28.8027 6.95608 28.8788 6.89111C28.9549 6.82614 29.0021 6.73368 29.0103 6.63395L29.0113 6.58412V6.19075H30.8859V8.52018H23.395V6.98384H23.799C24.0153 6.98384 24.1584 6.89478 24.1584 6.67318V3.20395C24.1584 2.97069 24.1224 2.82437 23.8223 2.82437H23.395V1.28591V1.28591ZM34.6138 1.28591H42.2807V3.60792H40.4051V3.21455C40.4051 3.0078 40.2757 2.82437 39.9916 2.82437H38.2898V4.12957H39.8622V5.53126H38.2898V6.57563C38.2898 6.86403 38.4149 6.98278 38.7892 6.98278H39.3851V8.51488H34.6138V6.98278H35.2447C35.2831 6.98522 35.3217 6.98005 35.3581 6.96756C35.3946 6.95506 35.4282 6.9355 35.457 6.90999C35.4859 6.88447 35.5095 6.85351 35.5263 6.81888C35.5432 6.78425 35.5531 6.74662 35.5554 6.70817V3.20289C35.5554 2.98447 35.5193 2.82331 35.2192 2.82331H34.6149L34.6138 1.28591ZM46.6225 3.18699C46.6225 2.91555 46.7052 2.82437 46.9692 2.82437H47.5333V1.28591H43.0049V2.82437H43.5827C43.8849 2.82437 43.9294 2.96327 43.9294 3.18699V6.65728C43.9294 6.92553 43.7651 6.98384 43.5732 6.98384H43.0059V8.51594H47.5344V6.98384H46.9798C46.7604 6.98384 46.6246 6.8969 46.6246 6.64879V3.18699H46.6225ZM54.371 1.28591H55.9752V3.82739H54.3626C54.2048 3.49257 53.9546 3.20986 53.6414 3.0126C53.3282 2.81534 52.9652 2.71177 52.5951 2.7141C51.6175 2.7141 50.8594 3.42025 50.8594 4.72545C50.8594 6.93401 52.0787 7.12168 52.611 7.12168C53.6935 7.12168 53.9437 6.35298 53.9437 6.04231H52.9354V4.71273H56.4078C56.4078 4.71273 56.3972 5.25665 56.3919 5.64471C56.3919 5.83132 56.2096 8.6453 52.3205 8.6453C49.5181 8.6453 48.0454 7.04322 48.0454 4.75832C48.0454 3.24 49.2329 1.1767 52.0808 1.1767C53.6766 1.1767 54.3668 1.82983 54.3668 1.82983L54.371 1.28591V1.28591ZM64.8932 6.98384C64.5826 6.98384 64.4882 6.70711 64.3016 6.25861C63.6585 4.60247 63.0209 2.94419 62.3889 1.28379H59.595C59.595 1.28379 57.7046 6.40599 57.6144 6.62441C57.5116 6.87993 57.3504 6.98172 57.0684 6.98172H56.6665V8.51382H60.0817V7.05594H59.6077C59.4021 7.05594 59.3607 6.89902 59.4264 6.68166C59.5038 6.42825 59.6427 6.03277 59.6427 6.03277H61.7113L61.9319 6.71771C62.0114 6.96475 61.7506 7.05594 61.5958 7.05594H61.1918V8.51382H65.3004V6.98384H64.8932V6.98384ZM59.9799 5.04353L60.6913 2.91662H60.7136L61.3943 5.04353H59.9799ZM74.529 6.98384C74.2491 6.98384 74.2014 6.84918 74.0646 6.66364C73.9257 6.47809 73.0531 5.12835 73.0531 5.12835C73.0531 5.12835 74.3223 4.77422 74.3223 3.42449C74.3223 2.07581 73.192 1.59657 72.7096 1.47252C72.2272 1.34846 71.1902 1.28591 70.9114 1.28591H65.9662V2.82437H66.4593C66.7636 2.82437 66.8049 2.97705 66.8049 3.18699V6.62441C66.8049 6.77603 66.7826 6.98384 66.4423 6.98384H65.9694V8.51594H70.3272V6.98384H69.8808C69.5775 6.98384 69.5404 6.81632 69.5404 6.63501V5.46658H70.5116L72.295 8.51594H75.0263V6.98384H74.529ZM70.5307 4.21652H69.5426V2.72789H70.6198C70.9294 2.72789 71.4913 2.83815 71.4913 3.48704C71.4871 3.97053 71.1234 4.21652 70.5265 4.21652H70.5307V4.21652ZM79.049 1.17564C76.0166 1.17564 74.9171 3.20607 74.9171 4.83572C74.9171 6.99338 76.4354 8.64211 79.0193 8.64211C81.3222 8.64211 83.1364 7.38675 83.1364 4.9269C83.1353 2.58581 81.4081 1.17564 79.049 1.17564V1.17564ZM79.0988 7.12274C78.4309 7.12274 77.73 6.72619 77.73 4.7106C77.73 3.46902 78.205 2.6982 79.0214 2.6982C79.7923 2.6982 80.3542 3.21561 80.3542 4.85162C80.3531 6.62547 79.7689 7.12274 79.0988 7.12274V7.12274ZM95.3688 1.2647C94.7294 1.03462 94.4951 0.945559 94.0625 0.945559C93.3988 0.945559 93.0627 1.30605 92.8824 2.20093L92.7849 2.71834H93.9056L93.737 3.62276H92.6057L91.8582 7.64121C91.7607 8.15333 91.5083 8.72588 91.2316 9.05774C90.8467 9.53063 90.0876 9.84235 89.3051 9.84235C89.0983 9.84235 88.8926 9.82538 88.6901 9.7904C88.3529 9.74026 88.0271 9.63154 87.7274 9.46913L88.2808 8.52442C88.7877 8.74602 89.04 8.816 89.3645 8.816C89.9179 8.816 90.3643 8.33357 90.5095 7.57972L91.2337 3.6217H90.1024L90.2699 2.70562L91.4277 2.71728L91.5953 1.83301C91.8084 0.679429 92.7489 0.000851378 94.0848 0.000851378C94.2459 -0.00253711 94.407 0.00419128 94.5672 0.0209967C94.897 0.0559859 95.2214 0.122784 95.5384 0.220329L95.3688 1.2647V1.2647ZM97.4745 4.11261C97.4124 4.07461 97.3406 4.05546 97.2678 4.05747C97.0833 4.05747 96.8967 4.13912 96.6698 4.34057C96.4024 4.56055 96.1864 4.83629 96.0368 5.1485C95.8841 5.44856 95.8078 5.70302 95.6985 6.28618L95.5575 7.05064H94.2608L95.0634 2.74591L96.1788 2.76075L95.9721 4.02355C96.0487 3.91753 96.1212 3.80859 96.1895 3.69698C96.3612 3.46054 96.5552 3.24212 96.7673 3.04279C96.8637 2.94106 96.9805 2.86081 97.11 2.80728C97.2396 2.75375 97.3789 2.72814 97.519 2.73213C97.6823 2.73425 97.8424 2.78514 97.9771 2.87845L97.4745 4.11261V4.11261Z" fill="#B7B7B7"/>
</g>
</svg>
