<svg width="138" height="24" viewBox="0 0 138 24" fill="none" xmlns="http://www.w3.org/2000/svg">
<path d="M29.7535 13.3543C29.6151 12.9759 26.3157 4.07459 23.8423 1.44895C23.7733 1.373 23.6809 1.32224 23.5798 1.30469C23.4787 1.28714 23.3746 1.3038 23.284 1.35204L21.8027 2.10882C19.7816 1.2413 16.8052 0 16.2838 0C15.9746 0 14.438 0.110748 12.9845 0.263026C9.90197 0.581425 9.75431 0.779848 9.62972 0.992115C9.57434 1.07518 9.47283 1.21822 9.33901 1.4028V1.38435C9.03025 1.72408 8.63454 1.97299 8.19461 2.10421C7.54397 2.22418 6.74566 2.35339 6.30267 2.42261L4.89064 1.96116C4.83136 1.93972 4.76831 1.93065 4.70539 1.93452C4.64247 1.93838 4.58101 1.9551 4.5248 1.98364C4.46859 2.01218 4.41882 2.05193 4.37857 2.10044C4.33831 2.14896 4.30843 2.2052 4.29075 2.26571C3.07489 5.87932 1.65914 9.42256 0.0500379 12.879C-0.00503604 12.9875 -0.0150875 13.1132 0.0220687 13.229C0.0592248 13.3448 0.140585 13.4412 0.248461 13.4974L1.75278 14.3049L2.06657 14.5726C2.12617 14.7602 2.14504 14.9584 2.12194 15.154C1.83123 15.7769 1.44361 16.6214 1.96967 17.4612C2.1043 17.6667 2.28072 17.8416 2.48744 17.9744C2.69416 18.1071 2.92654 18.1949 3.16943 18.2318C3.33668 18.264 3.50672 18.2795 3.67703 18.278C3.89246 18.2781 4.10736 18.2565 4.31844 18.2134V18.2134C4.41269 18.2133 4.50525 18.2385 4.58642 18.2864C4.6676 18.3343 4.73442 18.4031 4.77989 18.4856V18.4856C4.79262 18.5748 4.81268 18.6628 4.83988 18.7487C4.90799 18.998 5.02953 19.2294 5.19607 19.4271C5.36261 19.6247 5.57016 19.7837 5.80431 19.8931C6.26065 20.083 6.74975 20.1817 7.24403 20.1838V20.1838C7.40017 20.2057 7.54123 20.2887 7.63626 20.4145C7.71107 20.7147 7.84948 20.9952 8.04215 21.2373C8.23481 21.4793 8.47722 21.6771 8.75297 21.8173C9.19838 22.0525 9.68966 22.1879 10.1927 22.2141V22.2141C10.3576 22.5454 10.6036 22.8296 10.9079 23.0401C11.2628 23.2849 11.686 23.4109 12.1169 23.4001C12.4502 23.3973 12.7807 23.3396 13.0952 23.2293V23.2293C13.3744 23.1491 13.669 23.138 13.9535 23.197C14.6088 23.5108 15.1117 23.7462 15.1302 23.7554C15.4576 23.9115 15.815 23.9949 16.1777 24C16.4828 24.0022 16.7837 23.9287 17.0534 23.7862C17.3232 23.6437 17.5534 23.4365 17.7235 23.1832L17.7789 23.0909C17.8483 22.9628 17.9531 22.8573 18.0807 22.787C18.2083 22.7166 18.3534 22.6844 18.4988 22.6941V22.6941C18.5848 22.6998 18.6711 22.6998 18.7572 22.6941C19.105 22.6905 19.447 22.6051 19.7557 22.4448C20.0643 22.2844 20.3309 22.0537 20.5338 21.7712C20.681 21.5726 20.7948 21.3512 20.8706 21.1159C20.9616 20.9918 21.0838 20.894 21.2248 20.8324C21.3659 20.7708 21.5207 20.7476 21.6735 20.7652C22.1104 20.9576 22.5807 21.0626 23.0579 21.0744C23.3421 21.0827 23.6245 21.0269 23.8841 20.911C24.1438 20.7952 24.374 20.6223 24.5576 20.4053C24.9086 19.9922 25.113 19.4746 25.139 18.9332C25.1759 18.7948 25.2221 18.6471 25.3882 18.6425C25.5662 18.6877 25.7491 18.711 25.9327 18.7117C26.1862 18.7122 26.4369 18.659 26.6684 18.5556C26.8998 18.4522 27.1067 18.301 27.2755 18.1119C27.6414 17.7674 27.8655 17.2988 27.9039 16.7977C27.9423 16.2967 27.7923 15.7994 27.4832 15.4032C27.497 15.2557 27.5462 15.1137 27.6265 14.9892C27.7068 14.8647 27.8159 14.7613 27.9446 14.6879L29.5182 13.9358C29.6234 13.8863 29.7062 13.799 29.7498 13.6912C29.7934 13.5834 29.7948 13.4631 29.7535 13.3543V13.3543ZM1.83123 13.2667L1.0883 12.8744C2.34805 10.2026 4.19385 5.57892 5.06137 2.98557L5.64741 3.18861C5.66514 3.22169 5.68857 3.25137 5.71663 3.27629C5.29671 5.20053 2.84642 11.3839 1.83123 13.2667ZM4.9414 17.009C4.45529 17.2684 3.90049 17.37 3.35401 17.2997C3.23598 17.2869 3.12183 17.2499 3.01865 17.1912C2.91546 17.1325 2.82543 17.0532 2.75413 16.9582C2.51418 16.5752 2.6803 16.1415 2.96178 15.5324L3.04023 15.3616L4.9737 16.8844C4.96908 16.9259 4.95524 16.9721 4.93678 17.0136L4.9414 17.009ZM8.24999 18.1626L8.19923 18.1903C8.16588 18.2115 8.13493 18.2363 8.10694 18.2641C7.91292 18.4662 7.76632 18.709 7.67779 18.9748C7.64867 19.0545 7.62554 19.1362 7.60857 19.2193C7.12612 19.2706 6.63842 19.2041 6.18731 19.0255C6.07434 18.9717 5.97451 18.8939 5.8948 18.7974C5.81509 18.701 5.75743 18.5883 5.72586 18.4672C5.6559 18.1979 5.6559 17.9151 5.72586 17.6458C5.72586 17.5904 5.7397 17.5366 5.76739 17.4843C5.81027 17.3456 5.86588 17.2112 5.93351 17.0828C6.04864 17.0504 6.1658 17.0258 6.28421 17.009C6.41013 16.9986 6.53668 16.9986 6.6626 17.009C7.0591 17.0134 7.44445 17.1408 7.76546 17.3735C7.9627 17.5489 8.12006 17.7644 8.22691 18.0057V18.0057C8.24066 18.0321 8.24784 18.0614 8.24784 18.0911C8.24784 18.1208 8.24066 18.1501 8.22691 18.1765L8.24999 18.1626ZM10.7833 20.133L10.728 20.1607C10.586 20.2328 10.4615 20.3352 10.3634 20.4606C10.2683 20.5924 10.1922 20.7369 10.1373 20.8898C10.0929 21.0055 10.0634 21.1265 10.0496 21.2497C9.74189 21.2018 9.44412 21.1036 9.16827 20.959C8.9983 20.8645 8.85242 20.7321 8.74197 20.572C8.63152 20.4119 8.55949 20.2286 8.53147 20.0361C8.52925 20.0146 8.52925 19.993 8.53147 19.9715C8.51738 19.8581 8.51738 19.7434 8.53147 19.63C8.53587 19.5648 8.54513 19.5 8.55916 19.4362C8.58886 19.2888 8.64855 19.149 8.73451 19.0255L8.90063 18.9932C8.99907 18.9779 9.10059 18.9655 9.20518 18.9563H9.38976C9.59734 18.9493 9.804 18.9869 9.99584 19.0665C10.1877 19.1461 10.3602 19.2659 10.5019 19.4178C10.6267 19.5609 10.7379 19.7154 10.8341 19.8792V19.9069C10.843 19.9474 10.8422 19.9894 10.8317 20.0294C10.8213 20.0695 10.8016 20.1066 10.7741 20.1376L10.7833 20.133ZM12.4353 22.4403C12.271 22.4806 12.1004 22.4879 11.9332 22.4617C11.7661 22.4356 11.6058 22.3765 11.4617 22.288C11.3352 22.1996 11.2231 22.0922 11.1294 21.9696C11.0424 21.8534 10.9867 21.7167 10.9679 21.5727C10.9667 21.5558 10.9667 21.5389 10.9679 21.522C10.9649 21.3568 11.0151 21.195 11.111 21.0605C11.2063 20.9923 11.3175 20.9494 11.434 20.9359C11.5 20.931 11.5664 20.931 11.6324 20.9359C11.7259 20.936 11.819 20.9484 11.9093 20.9728H11.9554C12.2144 21.0646 12.4342 21.242 12.5784 21.4758C12.7317 21.725 12.8424 21.9979 12.906 22.2834C12.7581 22.3493 12.6033 22.3989 12.4446 22.431L12.4353 22.4403ZM26.5972 17.4889C26.1081 18.0011 25.4666 17.8765 24.2253 17.0275L23.7639 16.7044L23.6808 16.6445L23.0856 16.2107L23.0025 16.1646C21.2998 14.9463 18.7156 13.0682 18.6787 13.0452L18.628 13.0129C18.6049 12.9877 18.5876 12.9577 18.5772 12.9252C18.4511 12.9176 18.3278 12.8842 18.2151 12.8271C18.1024 12.7699 18.0026 12.6902 17.922 12.5929C17.9658 12.8089 17.9555 13.0323 17.8918 13.2433C17.8282 13.4543 17.7133 13.6462 17.5574 13.8019C17.7608 13.7658 17.9699 13.7801 18.1665 13.8435C18.628 14.1665 22.0104 16.6398 23.3763 17.595L23.7454 17.8627C23.8747 17.9564 23.9826 18.0763 24.0621 18.2147C24.1417 18.3531 24.191 18.5068 24.2069 18.6656C24.2307 18.8713 24.2123 19.0797 24.1527 19.2781C24.0932 19.4764 23.9939 19.6606 23.8608 19.8192C23.1732 20.6175 21.6689 19.7823 21.0552 19.3901C20.8337 19.247 20.5199 19.0348 20.16 18.781H20.1323L20.04 18.7071L19.3617 18.2457L19.1863 18.1211C18.1573 17.3505 17.059 16.5337 16.5422 16.1507C16.4592 16.0723 16.1361 15.8415 16.0808 15.597C16.0185 15.763 15.9314 15.9186 15.8224 16.0584C15.7979 16.0768 15.7761 16.0985 15.7578 16.123C15.7387 16.1461 15.7217 16.1708 15.707 16.1969C15.5589 16.3621 15.3739 16.4902 15.1671 16.5706C15.3875 16.5605 15.6049 16.6238 15.7854 16.7506L15.827 16.7875C16.2054 17.0921 17.0452 17.7104 17.9312 18.3657C17.9529 18.3903 17.9777 18.412 18.005 18.4303L18.6049 18.8502L18.6464 18.8779C18.9556 19.0994 19.2555 19.3393 19.5324 19.5101C19.7929 19.7048 19.9654 19.9949 20.0121 20.3168C20.0589 20.6386 19.9759 20.9659 19.7816 21.2266C19.4171 21.7204 18.6603 22.0526 17.7281 21.3697L17.562 21.2497L14.0642 18.6333L14.0181 18.6056C13.8485 18.4685 13.6938 18.3138 13.5566 18.1442C13.4413 18.4118 13.3398 18.7625 13.0583 18.8363C13.1007 18.8858 13.1288 18.9459 13.1394 19.0102C13.15 19.0745 13.1427 19.1405 13.1183 19.2009C13.2563 19.233 13.3845 19.2979 13.492 19.3901V19.3901L13.5936 19.4685L16.9114 21.9511L16.9575 22.0019C17.1144 22.1495 17.059 22.4356 16.9252 22.6341C16.7083 22.9617 16.2192 23.2016 15.504 22.8694C15.2363 22.7494 14.5349 22.408 13.8058 22.0526C13.4644 20.6683 12.703 20.1792 12.1861 20.0176C12.0022 19.9469 11.8421 19.8253 11.7247 19.6669C11.5707 19.3285 11.3635 19.0169 11.111 18.744C10.7267 18.3242 10.2008 18.0613 9.63433 18.0057V18.0057C9.51517 17.9789 9.40302 17.9272 9.30521 17.8541C9.2074 17.7809 9.12614 17.6879 9.06675 17.5812C8.89433 17.2082 8.64233 16.8774 8.32843 16.6122C7.94318 16.3386 7.49963 16.1582 7.03276 16.0854C6.5659 16.0125 6.08849 16.0491 5.63818 16.1922C4.34151 15.1771 3.14636 14.2311 2.60646 13.7881C4.00131 10.9525 5.1963 8.02281 6.18269 5.02056C6.37008 4.46105 6.52416 3.89093 6.64414 3.3132C7.02253 3.25321 7.56704 3.17015 8.02849 3.08248L7.89006 3.2486C7.6959 3.45969 7.48444 3.65417 7.25787 3.83003C6.8108 4.13266 6.45369 4.55034 6.22422 5.03902C6.13167 5.31225 6.14484 5.61024 6.26114 5.87424C6.6303 6.79714 7.91313 7.00018 8.93293 7.00018C9.27903 7.00204 9.62472 6.97581 9.96658 6.92173C10.912 6.75296 11.7706 6.26417 12.3984 5.53739V5.53739H12.4861L14.6734 5.72196L20.3492 9.60275C20.7737 10.0181 25.6005 14.7341 26.2465 15.3847L26.2926 15.4308C27.2986 16.4783 26.9848 17.0736 26.5972 17.4889ZM26.7218 14.2126C26.5313 14.2127 26.3463 14.1494 26.1957 14.0327L21.3921 9.32588C21.4097 9.08569 21.5072 8.85829 21.6689 8.67985C21.2366 8.69569 20.8046 8.63955 20.3907 8.51373L15.1025 4.89597C15.0367 4.85115 14.9604 4.82412 14.881 4.81753L13.8704 4.72985C13.169 4.52681 12.4861 3.58084 12.4861 3.58084L12.1354 4.29609L12.1123 4.333C11.8795 4.76583 11.5519 5.14046 11.154 5.42892C10.756 5.71737 10.2981 5.91219 9.8143 5.99883C8.76219 6.17418 7.33632 5.99883 7.13789 5.53739C7.04099 5.30205 7.24403 5.07594 7.86237 4.57757C8.13507 4.36685 8.38835 4.13211 8.61914 3.87617C8.90063 3.54854 9.23749 3.11478 9.54204 2.7087C9.8466 2.30263 10.1927 1.8458 10.3542 1.60123C11.0925 1.33359 15.6332 0.922898 16.27 0.922898C16.6622 0.969042 19.3847 2.07191 21.8074 3.12401C23.164 4.82214 26.1357 10.8348 27.0633 13.7373C27.1094 14.0557 27.0171 14.1896 26.7218 14.208V14.2126ZM28.0277 13.6358C27.1417 10.7241 24.2253 4.79907 22.6795 2.71793L23.3901 2.358C25.4251 4.80368 28.0738 11.587 28.7245 13.2851L28.0277 13.6358Z" fill="#747474"/>
<path d="M39.9606 16.4829V15.0986H36.3244V6.18801H39.9606V4.80366H35.8353V2.63024H39.9606V0.369141H42.5401V2.63024H46.7393V4.81751H42.5401V6.20185H46.3978V15.0801H42.5678V16.4645H46.8916V18.6979H42.5632V23.1416H39.9606V18.7163H35.6876V16.4829H39.9606ZM38.5348 9.75039H40.1821V8.22761H38.5348V9.75039ZM38.5348 13.0405H40.1821V11.4716H38.5348V13.0405ZM44.0721 9.75039V8.22761H42.3417V9.75039H44.0721ZM44.0721 13.0405V11.4716H42.3417V13.0451L44.0721 13.0405ZM48.0175 19.8423C48.7789 16.8475 49.4665 13.4789 49.8633 10.9502H46.9608V8.44911H58.4555V10.9548H52.6597C52.1429 13.4604 51.4092 16.6306 50.597 19.5516C52.0691 19.3531 53.6195 19.1593 54.9669 18.9609C54.5055 17.7335 53.9333 16.4322 53.2734 15.1032L55.4838 14.3926C56.8715 16.9149 57.9277 19.6059 58.6262 22.3987L56.1436 23.1832C56.0126 22.4692 55.84 21.7636 55.6268 21.0697C52.8581 21.5589 49.1204 22.1772 46.8593 22.4956L46.1302 20.0684C46.6886 20.0176 47.33 19.9438 48.0175 19.8423ZM57.6203 1.472V3.92691H47.5745V1.472H57.6203Z" fill="#B7B7B7"/>
<path d="M63.5685 17.5352V3.34099H62.6133V0.959918H71.2101V2.80571H73.7665V0.346191H76.1245V2.82417H78.6809V4.81302H76.5213L78.3394 5.30677C78.0949 6.14199 77.7765 7.15256 77.4165 8.20467H79.2623C79.1654 5.74976 79.0916 3.12873 79.0639 0.420023H81.3712C81.3481 3.14719 81.3942 5.80052 81.4681 8.20467H85.3996V10.2443H81.5465C81.6203 11.864 81.7403 13.3406 81.8649 14.6649C82.3437 13.3507 82.6975 11.9942 82.9216 10.6134L84.892 11.1256C84.4658 13.6631 83.6007 16.1068 82.3356 18.3473C82.6309 19.7963 83.0001 20.6546 83.4154 20.7053C83.7107 20.7561 83.8353 20.3362 83.9322 18.6426L85.778 19.2333C85.4365 22.5742 84.4767 23.3863 82.9032 23.091C82.0449 22.9203 81.3804 22.0112 80.8636 20.5346C80.1546 21.476 79.3573 22.3475 78.4825 23.1371L76.7382 22.0297C77.1997 21.6374 77.5965 21.2452 77.9934 20.8253H73.6696V21.8589H71.51V11.1995H78.3118V20.4607C79.0175 19.6933 79.6509 18.8622 80.2037 17.9782C79.7496 15.4201 79.4629 12.8351 79.3454 10.2397H70.2733V8.20467H72.4329C72.2978 7.21577 72.0849 6.23908 71.7961 5.28369L73.5634 4.82224C73.9267 5.91596 74.1817 7.04268 74.3248 8.18621H75.4785C75.8152 7.07082 76.094 5.93876 76.3137 4.79456H71.0486V3.34099H70.2133V23.1833H67.9061V19.0856C66.2356 19.5055 64.2145 19.9439 62.8948 20.2393L62.3549 17.7336C62.6825 17.6828 63.1024 17.609 63.5685 17.5352ZM67.8922 6.21121V3.34099H65.8526V6.21582L67.8922 6.21121ZM67.8922 11.3933V8.42616H65.8526V11.3979L67.8922 11.3933ZM67.8922 16.8199V13.6313H65.8526V17.1937C66.5402 17.0737 67.2508 16.9491 67.8922 16.8245V16.8199ZM76.1706 14.9741V13.216H73.7157V14.9603L76.1706 14.9741ZM73.7157 16.963V18.8088H76.1706V16.963H73.7157ZM83.2908 1.64748C84.1394 2.95149 84.8084 4.36393 85.2796 5.84666L83.3416 6.53422C82.9702 5.05621 82.3824 3.64119 81.5973 2.33504L83.2908 1.64748Z" fill="#B7B7B7"/>
<path d="M89.6311 9.80132L88.7959 8.62462C93.0104 6.9829 96.6784 4.18947 99.3815 0.56311H100.807C103.65 4.1582 107.393 6.93776 111.656 8.62001L110.775 9.82439C106.612 8.05852 102.939 5.31163 100.069 1.81825C97.3228 5.32114 93.731 8.06823 89.6311 9.80132V9.80132ZM93.5857 20.4839C94.8407 18.2852 95.964 16.0139 96.9497 13.6821H90.028V12.4039H110.332V13.6821H98.5002C97.4871 15.9746 96.355 18.2126 95.1085 20.387C98.8001 20.1193 103.115 19.7732 106.382 19.501C105.29 18.1977 104.117 16.9647 102.87 15.8094L103.927 15.0988C106.289 17.1933 108.378 19.5779 110.143 22.1958L108.887 22.9665C108.403 22.1489 107.87 21.3615 107.291 20.6084C102.353 21.0976 94.5686 21.7851 90.3417 22.1312L90.0003 20.7054C91.0062 20.6546 92.2337 20.5854 93.5857 20.4839ZM106.728 8.02474V9.27527H93.8072V8.00628L106.728 8.02474Z" fill="#B7B7B7"/>
<path d="M122.671 4.76703V5.92065H115.006V4.76703H122.671ZM117.069 14.7666H121.932V21.7622H117.069V22.9158H115.809V14.7666H117.06H117.069ZM121.683 8.13561V9.24308H115.989V8.13561H121.683ZM121.683 11.4534V12.5517H115.989V11.4719L121.683 11.4534ZM121.513 1.45844V2.56592H116.234V1.47229L121.513 1.45844ZM120.7 20.567V15.9525H117.092V20.567H120.7ZM126.275 17.5953V15.205H122.911V14.1714H126.275V12.1364C125.391 12.338 124.498 12.492 123.598 12.5978L123.178 11.6749C125.35 11.4488 127.486 10.9624 129.542 10.226L130.114 11.075C129.256 11.4024 128.377 11.6737 127.484 11.8872V14.1944H131.388C131.217 12.9439 131.069 11.5919 130.968 10.1891H132.223C132.297 11.6149 132.417 12.9577 132.592 14.1944H137.382V15.2235H132.767C132.937 16.3358 133.184 17.4352 133.506 18.5136C134.239 17.6367 134.859 16.6708 135.351 15.6388L136.357 16.1002C135.746 17.4191 134.925 18.63 133.926 19.6857C134.465 21.01 135.102 21.7991 135.771 21.8452C136.14 21.8683 136.334 21.4253 136.436 19.6118L137.492 19.9302C137.225 22.4359 136.731 23.0727 135.577 22.9758C134.572 22.8789 133.732 22.016 133.049 20.567C132.034 21.4906 130.912 22.2899 129.708 22.9481L128.785 22.2375C130.179 21.5166 131.461 20.5981 132.592 19.5103C132.122 18.1177 131.769 16.6884 131.535 15.2373H127.484V17.4476C128.563 17.2492 129.597 17.0554 130.455 16.8847L130.529 17.8445C129.643 18.0429 128.563 18.2367 127.484 18.4582V21.5545C127.484 22.339 127.239 22.8051 126.501 22.9389C125.611 23.0099 124.717 23.0268 123.824 22.9896L123.654 21.8822C124.392 21.9052 125.449 21.9052 125.739 21.8822C126.132 21.8591 126.256 21.6837 126.256 21.3653V18.6659C125.029 18.8874 123.852 19.1273 122.989 19.2796L122.768 18.1998C123.654 18.0521 124.927 17.8583 126.256 17.6091L126.275 17.5953ZM129.505 8.55553V6.65897H125.01V5.69916H129.505V3.85336H123.654V2.82433H127.018C126.659 2.19821 126.257 1.59836 125.813 1.0293L126.995 0.567848C127.547 1.26947 128.04 2.01661 128.467 2.80126H131.904C132.5 2.09413 133.034 1.33771 133.501 0.540161L134.825 0.90932C134.383 1.58596 133.888 2.22632 133.344 2.82433H136.574V3.85336H130.848V5.69916H135.342V6.65897H130.848V8.57398H137.382V9.57994H122.892V8.57398L129.505 8.55553ZM134.022 10.3506C134.958 10.9824 135.809 11.7331 136.551 12.584C136.09 12.9531 135.914 13.1008 135.739 13.2485C135.043 12.3965 134.232 11.6449 133.33 11.015L134.022 10.3506Z" fill="#B7B7B7"/>
</svg>
