<svg width="88" height="32" viewBox="0 0 88 32" fill="none" xmlns="http://www.w3.org/2000/svg">
<path fill-rule="evenodd" clip-rule="evenodd" d="M58.7596 30.8276H59.0143C59.0211 30.8276 59.0278 30.826 59.0339 30.8229C59.04 30.8199 59.0453 30.8155 59.0494 30.81L60.0857 29.115L60.6566 31.0559C60.6566 31.0691 60.6698 31.0779 60.6829 31.0779H61.772C61.7851 31.0779 61.7939 31.0691 61.7895 31.0559L60.639 27.4288C60.6365 27.4226 60.6323 27.4172 60.6269 27.4133C60.6214 27.4094 60.615 27.4072 60.6083 27.4068H60.1999C60.1927 27.4073 60.1857 27.4096 60.1796 27.4134C60.1735 27.4172 60.1684 27.4225 60.1648 27.4288L58.7596 29.5893L57.3588 27.4288C57.3544 27.4156 57.3368 27.4068 57.3237 27.4068H56.9153C56.9086 27.4072 56.9022 27.4094 56.8967 27.4133C56.8913 27.4172 56.8871 27.4226 56.8846 27.4288L55.7341 31.0559C55.7297 31.0691 55.7341 31.0779 55.7472 31.0779H56.8406C56.8475 31.0782 56.8542 31.0762 56.8598 31.0722C56.8653 31.0682 56.8694 31.0625 56.8714 31.0559L57.4335 29.115L58.4742 30.81C58.4778 30.8163 58.4829 30.8216 58.489 30.8254C58.4951 30.8292 58.5021 30.8315 58.5093 30.832H58.7596V30.8276ZM55.7824 29.0272C55.7824 29.0214 55.78 29.0158 55.7759 29.0117C55.7718 29.0075 55.7662 29.0052 55.7604 29.0052H52.6514C52.5722 29.0052 52.4963 29.0367 52.4403 29.0927C52.3843 29.1487 52.3528 29.2246 52.3528 29.3038C52.3528 29.4663 52.4846 29.598 52.6514 29.598H54.4957C54.2762 30.1777 53.5297 30.6036 52.6514 30.6036C51.5931 30.6036 50.7369 29.9932 50.7369 29.2423C50.7369 28.4958 51.5931 27.8811 52.6514 27.8811C53.1794 27.8677 53.6958 28.0368 54.1137 28.3597H55.3828C55.3886 28.3597 55.3942 28.3574 55.3983 28.3533C55.4024 28.3492 55.4047 28.3436 55.4047 28.3378C55.4059 28.335 55.4065 28.332 55.4065 28.329C55.4065 28.326 55.4059 28.323 55.4047 28.3202H55.4003C54.8602 27.7449 53.8283 27.3585 52.6514 27.3585C50.9081 27.3585 49.4985 28.2016 49.4985 29.2467C49.4985 30.2918 50.9081 31.1262 52.6514 31.1262C54.3903 31.1262 55.8043 30.2831 55.8043 29.2423C55.8043 29.1677 55.7955 29.0974 55.7824 29.0228V29.0272ZM64.8722 30.6036C63.8183 30.6036 62.9576 29.9932 62.9576 29.2423C62.9576 28.4958 63.8183 27.8811 64.8722 27.8811C65.9261 27.8811 66.7867 28.4958 66.7867 29.2423C66.7867 29.9889 65.9304 30.6036 64.8722 30.6036ZM64.8722 27.3585C63.1332 27.3585 61.7193 28.2016 61.7193 29.2467C61.7193 30.2831 63.1332 31.1262 64.8722 31.1262C66.6155 31.1262 68.0251 30.2831 68.0251 29.2423C68.0251 28.2016 66.6155 27.3585 64.8722 27.3585" fill="#747474"/>
<path fill-rule="evenodd" clip-rule="evenodd" d="M81.3172 31.0208C81.3165 31.0285 81.3176 31.0362 81.3202 31.0434C81.3228 31.0506 81.327 31.0572 81.3325 31.0626C81.3379 31.0681 81.3445 31.0723 81.3517 31.0749C81.3589 31.0775 81.3666 31.0786 81.3743 31.0779H82.033C82.0637 31.0779 82.0945 31.0515 82.0945 31.0208L82.2086 29.519C82.2092 29.5117 82.2083 29.5044 82.206 29.4975C82.2036 29.4906 82.1998 29.4842 82.1948 29.4789C82.1899 29.4735 82.1839 29.4692 82.1772 29.4663C82.1705 29.4634 82.1632 29.4619 82.1559 29.4619H81.4973C81.4812 29.4618 81.4657 29.4675 81.4535 29.478C81.4414 29.4885 81.4335 29.5031 81.4314 29.519L81.3172 31.0208V31.0208ZM85.1288 29.4619C85.1215 29.4619 85.1143 29.4634 85.1076 29.4663C85.1009 29.4692 85.0948 29.4735 85.0899 29.4789C85.0849 29.4842 85.0811 29.4906 85.0788 29.4975C85.0764 29.5044 85.0755 29.5117 85.0761 29.519L85.1903 31.0208C85.1903 31.0515 85.221 31.0779 85.2517 31.0779H85.9104C85.9456 31.0779 86.007 31.0515 86.0026 31.0208L85.8533 29.519C85.8512 29.5031 85.8433 29.4885 85.8312 29.478C85.8191 29.4675 85.8035 29.4618 85.7875 29.4619H85.1288" fill="#747474"/>
<path fill-rule="evenodd" clip-rule="evenodd" d="M85.8314 28.7198C85.8621 28.7198 85.8885 28.689 85.8885 28.6583V28.026C85.8885 28.0108 85.8824 27.9963 85.8717 27.9856C85.861 27.9749 85.8465 27.9689 85.8314 27.9689H84.0705C84.0626 27.9695 84.0547 27.9685 84.0473 27.9659C84.0399 27.9633 84.033 27.9592 84.0273 27.9538C84.0215 27.9484 84.0169 27.9419 84.0137 27.9347C84.0106 27.9275 84.009 27.9197 84.009 27.9118V27.4639C84.009 27.4564 84.0075 27.449 84.0047 27.442C84.0018 27.4351 83.9976 27.4288 83.9923 27.4235C83.987 27.4182 83.9807 27.414 83.9738 27.4111C83.9669 27.4083 83.9594 27.4068 83.9519 27.4068H83.3196C83.3114 27.4061 83.3031 27.4073 83.2953 27.4101C83.2875 27.413 83.2805 27.4175 83.2747 27.4233C83.2688 27.4292 83.2643 27.4362 83.2615 27.444C83.2586 27.4517 83.2575 27.46 83.2581 27.4683V27.9074C83.2582 27.923 83.2523 27.938 83.2417 27.9494C83.2311 27.9608 83.2166 27.9678 83.201 27.9689H81.4533C81.4455 27.9683 81.4376 27.9693 81.4301 27.9719C81.4227 27.9745 81.4159 27.9786 81.4101 27.984C81.4043 27.9893 81.3997 27.9958 81.3966 28.0031C81.3934 28.0103 81.3918 28.0181 81.3919 28.026V28.6583C81.3919 28.689 81.4182 28.7154 81.4533 28.7154H83.201C83.2318 28.7154 83.2581 28.7417 83.2581 28.7769V31.0164C83.2581 31.0515 83.2845 31.0779 83.3196 31.0779H83.9519C83.9827 31.0779 84.009 31.0515 84.009 31.0208V28.7769C84.009 28.7417 84.0354 28.7154 84.0705 28.7154H85.827L85.8314 28.7198ZM69.0043 29.9713C69.0004 29.975 68.9973 29.9794 68.9952 29.9843C68.9931 29.9892 68.9921 29.9945 68.9921 29.9998C68.9921 30.0051 68.9931 30.0104 68.9952 30.0153C68.9973 30.0202 69.0004 30.0247 69.0043 30.0284L69.4785 30.5026C69.4861 30.5083 69.4954 30.5114 69.5049 30.5114C69.5144 30.5114 69.5236 30.5083 69.5312 30.5026L71.2569 28.79C71.2606 28.7862 71.2651 28.7831 71.27 28.781C71.2749 28.7789 71.2802 28.7778 71.2855 28.7778C71.2908 28.7778 71.2961 28.7789 71.301 28.781C71.3059 28.7831 71.3103 28.7862 71.314 28.79L73.5623 31.0296C73.5703 31.0364 73.5804 31.0401 73.5909 31.0401C73.6013 31.0401 73.6115 31.0364 73.6194 31.0296L74.0937 30.5553C74.1001 30.5481 74.1037 30.5387 74.1037 30.5289C74.1037 30.5192 74.1001 30.5098 74.0937 30.5026L71.314 27.7274C71.3103 27.7235 71.3059 27.7204 71.301 27.7183C71.2961 27.7163 71.2908 27.7152 71.2855 27.7152C71.2802 27.7152 71.2749 27.7163 71.27 27.7183C71.2651 27.7204 71.2606 27.7235 71.2569 27.7274L68.9999 29.9713H69.0043ZM75.3496 31.0383C75.3496 31.0603 75.3627 31.0779 75.3847 31.0779H76.1136C76.1253 31.0779 76.1364 31.0732 76.1447 31.065C76.1529 31.0568 76.1575 31.0456 76.1575 31.0339L76.5527 27.7713C76.5534 27.7663 76.5529 27.7613 76.5514 27.7565C76.55 27.7517 76.5475 27.7473 76.5441 27.7435C76.5408 27.7398 76.5367 27.7368 76.5322 27.7348C76.5276 27.7327 76.5226 27.7317 76.5176 27.7318H75.7887C75.777 27.7318 75.7659 27.7364 75.7576 27.7446C75.7494 27.7528 75.7448 27.764 75.7448 27.7757L75.3496 31.0383V31.0383ZM78.3048 27.7318C78.2994 27.7316 78.294 27.7327 78.289 27.735C78.284 27.7372 78.2797 27.7407 78.2763 27.7449C78.2729 27.7492 78.2705 27.7542 78.2694 27.7595C78.2682 27.7648 78.2683 27.7704 78.2697 27.7757L78.6693 31.0383C78.6693 31.0603 78.6913 31.0779 78.7132 31.0779H79.4466C79.4685 31.0779 79.4817 31.0603 79.4817 31.0339L79.0821 27.7713C79.081 27.7604 79.0759 27.7503 79.0678 27.743C79.0596 27.7357 79.0491 27.7317 79.0382 27.7318H78.3092" fill="#747474"/>
<path fill-rule="evenodd" clip-rule="evenodd" d="M86.2574 28.2807C86.2574 28.3115 86.2837 28.3378 86.3144 28.3378H86.7624C86.7931 28.3378 86.8194 28.3115 86.8194 28.2807V27.4157C86.8194 27.4005 86.8134 27.386 86.8027 27.3753C86.792 27.3646 86.7775 27.3586 86.7624 27.3586H86.3144C86.2993 27.3586 86.2848 27.3646 86.2741 27.3753C86.2634 27.386 86.2574 27.4005 86.2574 27.4157V28.2807ZM87.1224 28.2807C87.1224 28.3115 87.1488 28.3378 87.1839 28.3378H87.6274C87.6625 28.3378 87.6889 28.3115 87.6889 28.2807V27.4157C87.6889 27.4078 87.6873 27.4 87.6842 27.3927C87.681 27.3855 87.6764 27.379 87.6707 27.3737C87.6649 27.3683 87.6581 27.3642 87.6506 27.3616C87.6432 27.359 87.6353 27.358 87.6274 27.3586H87.1839C87.176 27.358 87.1681 27.359 87.1607 27.3616C87.1533 27.3642 87.1464 27.3683 87.1407 27.3737C87.1349 27.379 87.1303 27.3855 87.1272 27.3927C87.124 27.4 87.1224 27.4078 87.1224 27.4157V28.2807ZM73.6151 28.4652C73.7245 28.4652 73.8315 28.4327 73.9225 28.3719C74.0134 28.3111 74.0844 28.2247 74.1262 28.1236C74.1681 28.0225 74.1791 27.9112 74.1577 27.8039C74.1364 27.6966 74.0837 27.598 74.0063 27.5206C73.9289 27.4432 73.8303 27.3905 73.723 27.3692C73.6157 27.3479 73.5044 27.3588 73.4033 27.4007C73.3022 27.4426 73.2158 27.5135 73.155 27.6045C73.0942 27.6955 73.0618 27.8024 73.0618 27.9119C73.0618 28.2192 73.3077 28.4652 73.6151 28.4652ZM80.1536 27.3586C80.0068 27.3586 79.8661 27.4169 79.7623 27.5206C79.6586 27.6244 79.6003 27.7651 79.6003 27.9119C79.6003 28.0586 79.6586 28.1993 79.7623 28.3031C79.8661 28.4069 80.0068 28.4652 80.1536 28.4652C80.3003 28.4652 80.441 28.4069 80.5448 28.3031C80.6486 28.1993 80.7069 28.0586 80.7069 27.9119C80.7069 27.7651 80.6486 27.6244 80.5448 27.5206C80.441 27.4169 80.3003 27.3586 80.1536 27.3586" fill="#686868"/>
<path fill-rule="evenodd" clip-rule="evenodd" d="M45.5376 30.1118C45.5376 30.0371 45.5245 29.9668 45.5025 29.8922C45.481 29.8221 45.4467 29.7566 45.4015 29.699C45.3569 29.6404 45.2999 29.5925 45.2346 29.5585C45.1596 29.5217 45.0767 29.5036 44.9931 29.5058C44.912 29.5049 44.8319 29.5246 44.7604 29.5629C44.626 29.6335 44.5239 29.7529 44.475 29.8966C44.4247 30.0386 44.4247 30.1936 44.475 30.3357C44.5013 30.406 44.5364 30.4718 44.5847 30.5289C44.633 30.586 44.6945 30.6343 44.7604 30.6694C44.8307 30.7046 44.9053 30.7221 44.9931 30.7221C45.072 30.724 45.1502 30.7071 45.2212 30.6727C45.2922 30.6384 45.3541 30.5876 45.4015 30.5245C45.4454 30.4674 45.4806 30.4016 45.5025 30.3313C45.5245 30.2567 45.5376 30.182 45.5376 30.1118V30.1118ZM44.453 28.0918V29.4223H44.4662C44.5247 29.343 44.5996 29.2771 44.6857 29.2291C44.8124 29.1606 44.9545 29.1258 45.0985 29.1281C45.2228 29.1268 45.346 29.1516 45.4602 29.2007C45.5744 29.2499 45.6771 29.3224 45.7616 29.4136C45.845 29.5014 45.9065 29.6068 45.9504 29.7253C46.0399 29.9767 46.0399 30.2512 45.9504 30.5026C45.893 30.6854 45.7774 30.8444 45.6212 30.9554C45.4651 31.0664 45.2769 31.1233 45.0853 31.1173C44.9536 31.1173 44.8307 31.091 44.7121 31.0295C44.5987 30.9746 44.504 30.8876 44.4398 30.7792H44.4311V31.0646H43.9788V28.1006H44.453V28.0918ZM46.2227 29.1764H46.7496L47.2766 30.5465H47.281L47.7508 29.1764H48.2426L47.3468 31.4599C47.3161 31.5477 47.2766 31.6267 47.237 31.6926C47.1975 31.7585 47.1492 31.8155 47.0965 31.8595C47.0385 31.9076 46.9712 31.9434 46.8989 31.9648C46.8243 31.9868 46.7364 32 46.6354 32L46.5125 31.9956C46.4696 31.9914 46.427 31.9841 46.3851 31.9736L46.4291 31.5652C46.4857 31.5839 46.5451 31.5928 46.6047 31.5916C46.653 31.5916 46.6925 31.5872 46.7277 31.574C46.7608 31.564 46.791 31.5458 46.8155 31.5213C46.8418 31.4939 46.8639 31.4629 46.8814 31.4291L46.9384 31.2974L47.0307 31.0603L46.2227 29.1764" fill="#9D9D9D"/>
<path fill-rule="evenodd" clip-rule="evenodd" d="M37.5017 8.61236L35.6662 5.47264C35.6532 5.45194 35.6339 5.43596 35.6111 5.42706C35.5883 5.41815 35.5633 5.4168 35.5397 5.42319C35.5161 5.42958 35.4952 5.44339 35.48 5.46256C35.4648 5.48174 35.4562 5.50529 35.4554 5.52973V10.0527C35.4543 10.1497 35.4149 10.2424 35.3459 10.3107C35.2768 10.3789 35.1836 10.4172 35.0866 10.4171H33.4706C33.3735 10.416 33.2808 10.3766 33.2126 10.3076C33.1444 10.2385 33.1061 10.1454 33.1061 10.0483V0.976039C33.1061 0.774044 33.2686 0.607178 33.4706 0.607178H35.2491C35.3764 0.607178 35.495 0.673046 35.5608 0.782826L37.9233 4.62953C37.94 4.65774 37.9638 4.68112 37.9923 4.69736C38.0208 4.7136 38.053 4.72214 38.0858 4.72214C38.1186 4.72214 38.1508 4.7136 38.1793 4.69736C38.2078 4.68112 38.2315 4.65774 38.2482 4.62953L40.6107 0.782826C40.6428 0.72984 40.6879 0.685906 40.7417 0.655173C40.7954 0.62444 40.8562 0.607922 40.9181 0.607178H42.6965C42.9029 0.607178 43.0654 0.769653 43.0654 0.976039V10.0483C43.0654 10.0967 43.0559 10.1447 43.0373 10.1894C43.0188 10.2342 42.9916 10.2749 42.9574 10.3091C42.9231 10.3434 42.8825 10.3705 42.8377 10.3891C42.793 10.4076 42.745 10.4171 42.6965 10.4171H41.085C40.9871 10.4171 40.8933 10.3783 40.8241 10.3091C40.755 10.2399 40.7161 10.1461 40.7161 10.0483V5.52533C40.7153 5.50089 40.7067 5.47735 40.6915 5.45817C40.6764 5.43899 40.6554 5.42519 40.6318 5.4188C40.6082 5.41241 40.5832 5.41376 40.5604 5.42266C40.5377 5.43157 40.5183 5.44754 40.5053 5.46825L38.6347 8.61675C38.6022 8.67037 38.5564 8.7147 38.5018 8.74547C38.4472 8.77624 38.3856 8.7924 38.3229 8.7924H37.8135C37.7508 8.7924 37.6892 8.77624 37.6346 8.74547C37.58 8.7147 37.5342 8.67037 37.5017 8.61675V8.61236ZM65.5265 8.61236L63.6909 5.47264C63.6779 5.45194 63.6586 5.43596 63.6358 5.42706C63.613 5.41815 63.588 5.4168 63.5644 5.42319C63.5408 5.42958 63.5199 5.44339 63.5047 5.46256C63.4895 5.48174 63.4809 5.50529 63.4802 5.52973V10.0527C63.479 10.1497 63.4396 10.2424 63.3706 10.3107C63.3015 10.3789 63.2084 10.4172 63.1113 10.4171H61.4953C61.3983 10.416 61.3056 10.3766 61.2373 10.3076C61.1691 10.2385 61.1308 10.1454 61.1309 10.0483V0.976039C61.1309 0.774044 61.2933 0.607178 61.4953 0.607178H63.2738C63.4055 0.607178 63.5197 0.673046 63.5855 0.782826L65.948 4.62953C65.9647 4.65774 65.9885 4.68112 66.017 4.69736C66.0455 4.7136 66.0777 4.72214 66.1105 4.72214C66.1433 4.72214 66.1755 4.7136 66.204 4.69736C66.2325 4.68112 66.2563 4.65774 66.273 4.62953L68.6354 0.782826C68.6675 0.72984 68.7126 0.685906 68.7664 0.655173C68.8201 0.62444 68.8809 0.607922 68.9428 0.607178H70.7213C70.9276 0.607178 71.0901 0.769653 71.0901 0.976039V10.0483C71.0901 10.1461 71.0513 10.2399 70.9821 10.3091C70.9129 10.3783 70.8191 10.4171 70.7213 10.4171H69.1097C69.0119 10.4171 68.918 10.3783 68.8489 10.3091C68.7797 10.2399 68.7408 10.1461 68.7408 10.0483V5.52533C68.74 5.50089 68.7314 5.47735 68.7163 5.45817C68.7011 5.43899 68.6802 5.42519 68.6566 5.4188C68.633 5.41241 68.6079 5.41376 68.5851 5.42266C68.5624 5.43157 68.5431 5.44754 68.53 5.46825L66.6594 8.61675C66.6269 8.67037 66.5812 8.7147 66.5265 8.74547C66.4719 8.77624 66.4103 8.7924 66.3476 8.7924H65.8382C65.7755 8.7924 65.7139 8.77624 65.6593 8.74547C65.6047 8.7147 65.5589 8.67037 65.5265 8.61675V8.61236ZM47.1009 10.4128C46.1349 10.4128 45.4323 10.1054 45.0327 9.55208C44.6142 8.94379 44.4018 8.21734 44.4267 7.47942V3.50977C44.4267 3.30777 44.5936 3.1453 44.7955 3.1453H46.4291C46.6355 3.1453 46.7979 3.30777 46.7979 3.51416V7.42234C46.7979 7.74729 46.877 7.9932 47.0395 8.16884C47.2019 8.34449 47.4347 8.42793 47.7289 8.42793C47.9133 8.42793 48.1241 8.37962 48.3744 8.28302C48.5768 8.2051 48.751 8.06779 48.8741 7.88912C48.9971 7.71045 49.0632 7.49875 49.0638 7.28182V3.51416C49.0638 3.30777 49.2307 3.1453 49.4327 3.1453H51.0662C51.2682 3.1453 51.4351 3.30777 51.4351 3.51416V10.0483C51.4351 10.0967 51.4255 10.1447 51.407 10.1894C51.3884 10.2342 51.3613 10.2749 51.327 10.3091C51.2928 10.3434 51.2521 10.3705 51.2074 10.3891C51.1626 10.4076 51.1146 10.4171 51.0662 10.4171H49.4327C49.3348 10.4171 49.241 10.3783 49.1718 10.3091C49.1027 10.2399 49.0638 10.1461 49.0638 10.0483V9.89898L48.5544 10.0966C48.1329 10.2547 47.6191 10.4171 47.1053 10.4171L47.1009 10.4128ZM75.1256 10.4128C74.1596 10.4128 73.457 10.1054 73.0574 9.55208C72.6389 8.94379 72.4265 8.21734 72.4514 7.47942V3.50977C72.4514 3.30777 72.6183 3.1453 72.8203 3.1453H74.4538C74.6602 3.1453 74.8227 3.30777 74.8227 3.51416V7.42234C74.8227 7.74729 74.9061 7.9932 75.0686 8.16884C75.231 8.34449 75.4594 8.42793 75.758 8.42793C75.9336 8.42793 76.1532 8.37962 76.4035 8.28302C76.6059 8.2051 76.7801 8.06779 76.9031 7.88912C77.0262 7.71045 77.0923 7.49875 77.0929 7.28182V3.51416C77.0929 3.30777 77.2554 3.1453 77.4574 3.1453H79.0953C79.2973 3.1453 79.4598 3.30777 79.4598 3.51416V10.0483C79.4598 10.1454 79.4215 10.2385 79.3533 10.3076C79.2851 10.3766 79.1924 10.416 79.0953 10.4171H77.4574C77.3603 10.416 77.2676 10.3766 77.1994 10.3076C77.1312 10.2385 77.0929 10.1454 77.0929 10.0483V9.89898L76.5835 10.0966C76.1576 10.2547 75.6438 10.4171 75.1256 10.4171V10.4128ZM55.4706 10.4128C54.5045 10.4128 53.8019 10.1054 53.4023 9.55208C52.9838 8.94379 52.7714 8.21734 52.7963 7.47942V3.50977C52.7963 3.30777 52.9632 3.1453 53.1652 3.1453H54.7987C55.0007 3.1453 55.1676 3.30777 55.1676 3.51416V7.42234C55.1676 7.74729 55.2466 7.9932 55.4135 8.16884C55.576 8.34449 55.8043 8.42793 56.1029 8.42793C56.2786 8.42793 56.4981 8.37962 56.7484 8.28302C56.9509 8.2051 57.1251 8.06779 57.2481 7.88912C57.3711 7.71045 57.4373 7.49875 57.4378 7.28182V3.51416C57.4378 3.30777 57.6003 3.1453 57.8023 3.1453H59.4358C59.6378 3.1453 59.8047 3.30777 59.8047 3.51416V10.0483C59.8047 10.1461 59.7658 10.2399 59.6967 10.3091C59.6275 10.3783 59.5337 10.4171 59.4358 10.4171H57.8023C57.7052 10.416 57.6126 10.3766 57.5443 10.3076C57.4761 10.2385 57.4378 10.1454 57.4378 10.0483V9.89898L56.9241 10.0966C56.5025 10.2547 55.9887 10.4171 55.475 10.4171L55.4706 10.4128ZM83.4953 10.4128C82.5292 10.4128 81.8266 10.1054 81.427 9.55208C81.0101 8.94326 80.7993 8.21685 80.8254 7.47942V3.50977C80.8254 3.30777 80.9879 3.1453 81.1899 3.1453H82.8234C83.0298 3.1453 83.1923 3.30777 83.1923 3.51416V7.42234C83.1923 7.74729 83.2757 7.9932 83.4382 8.16884C83.6007 8.34449 83.829 8.42793 84.1276 8.42793C84.3033 8.42793 84.5228 8.37962 84.7731 8.28302C84.9756 8.2051 85.1498 8.06779 85.2728 7.88912C85.3958 7.71045 85.462 7.49875 85.4626 7.28182V3.51416C85.4626 3.30777 85.625 3.1453 85.827 3.1453H87.4649C87.6669 3.1453 87.8294 3.30777 87.8294 3.51416V10.0483C87.8294 10.1454 87.7912 10.2385 87.7229 10.3076C87.6547 10.3766 87.562 10.416 87.4649 10.4171H85.827C85.73 10.416 85.6373 10.3766 85.569 10.3076C85.5008 10.2385 85.4625 10.1454 85.4626 10.0483V9.89898L84.9532 10.0966C84.5272 10.2547 84.0135 10.4171 83.4953 10.4171V10.4128ZM37.7389 23.2263H33.5277C33.4729 23.2269 33.4186 23.2167 33.3677 23.1962C33.3169 23.1758 33.2706 23.1456 33.2314 23.1072C33.1923 23.0689 33.1611 23.0232 33.1396 22.9728C33.1181 22.9225 33.1067 22.8683 33.1061 22.8135V12.6523C33.1061 12.4239 33.295 12.2395 33.5277 12.2395H37.7345C39.4954 12.2395 40.8259 12.7489 41.7217 13.7676C42.6175 14.782 43.0654 16.0818 43.0654 17.667C43.0654 19.3664 42.578 20.7189 41.6031 21.7201C40.6283 22.7213 39.3417 23.2219 37.7389 23.2219V23.2263ZM37.695 14.4439H35.9077C35.8584 14.4439 35.811 14.4632 35.7757 14.4976C35.7405 14.5321 35.7201 14.579 35.7189 14.6283V20.8419C35.7189 20.9429 35.8067 21.0307 35.9077 21.0307H37.5764C38.3932 21.0307 39.065 20.7584 39.5876 20.2139C40.1145 19.6738 40.378 18.8219 40.378 17.667C40.378 16.7054 40.1496 15.9281 39.7017 15.3353C39.2538 14.7381 38.5864 14.4395 37.6993 14.4395L37.695 14.4439ZM48.1197 23.2263C47.0296 23.2263 45.9842 22.7933 45.2134 22.0225C44.4426 21.2517 44.0095 20.2062 44.0095 19.1161C44.0095 18.026 44.4426 16.9806 45.2134 16.2098C45.9842 15.439 47.0296 15.006 48.1197 15.006C48.6654 14.9972 49.2074 15.097 49.7141 15.2996C50.2209 15.5021 50.6824 15.8033 51.0718 16.1858C51.4611 16.5682 51.7706 17.0242 51.9823 17.5272C52.1939 18.0303 52.3034 18.5704 52.3045 19.1161C52.3034 19.6619 52.1939 20.202 51.9823 20.705C51.7706 21.2081 51.4611 21.6641 51.0718 22.0465C50.6824 22.4289 50.2209 22.7302 49.7141 22.9327C49.2074 23.1352 48.6654 23.235 48.1197 23.2263V23.2263ZM48.1416 21.0658C49.1209 21.0658 49.9201 20.2227 49.9201 19.1337C49.9201 18.0447 49.1253 17.2016 48.1416 17.2016C47.158 17.2016 46.3588 18.0403 46.3588 19.1337C46.3588 20.2271 47.158 21.0658 48.1416 21.0658ZM63.2913 15.0191C64.332 15.0191 65.0829 15.3309 65.544 15.9632C66.0273 16.6459 66.274 17.4678 66.2466 18.3038V22.8223C66.2466 23.0507 66.0578 23.2351 65.8294 23.2351H63.9851C63.8757 23.2351 63.7707 23.1916 63.6933 23.1142C63.6159 23.0368 63.5724 22.9318 63.5724 22.8223V18.3565C63.5724 17.9876 63.4845 17.7066 63.3045 17.5133C63.2131 17.4148 63.1014 17.3374 62.977 17.2866C62.8526 17.2358 62.7186 17.2127 62.5843 17.2191C62.356 17.2191 62.1013 17.2806 61.8291 17.3992C61.6008 17.4982 61.4067 17.6621 61.2708 17.8706C61.135 18.079 61.0634 18.3228 61.065 18.5716L61.0913 22.8091C61.0919 22.8637 61.0817 22.9179 61.0612 22.9685C61.0407 23.019 61.0104 23.0651 60.972 23.1039C60.9336 23.1427 60.8879 23.1735 60.8375 23.1945C60.7872 23.2155 60.7331 23.2263 60.6786 23.2263H58.8342C58.7248 23.2263 58.6198 23.1828 58.5424 23.1054C58.465 23.028 58.4215 22.923 58.4215 22.8135V18.3565C58.4215 17.9876 58.3336 17.7066 58.1536 17.5133C57.978 17.3157 57.7321 17.2191 57.4335 17.2191C57.2271 17.2191 56.9987 17.2718 56.7528 17.3772C56.5374 17.4665 56.3532 17.6176 56.2235 17.8114C56.0938 18.0052 56.0243 18.233 56.0239 18.4662V22.8135C56.0239 23.0419 55.8394 23.2263 55.6111 23.2263H53.78C53.6705 23.2263 53.5655 23.1828 53.4881 23.1054C53.4107 23.028 53.3672 22.923 53.3672 22.8135V15.4275C53.3672 15.1992 53.5516 15.0147 53.78 15.0147H55.6111C55.8394 15.0147 56.0239 15.1992 56.0239 15.4275V15.5944C56.037 15.5593 56.2127 15.4714 56.5508 15.3309C57.0613 15.1182 57.6094 15.0106 58.1624 15.0147C58.7025 15.0147 59.1592 15.1026 59.5368 15.2914C59.9145 15.4758 60.2219 15.7173 60.459 16.0203C60.7839 15.7744 61.2011 15.5417 61.7061 15.3309C62.2096 15.1205 62.7501 15.013 63.2957 15.0147L63.2913 15.0191ZM70.7696 15.0191C71.7795 15.0191 72.5963 15.3309 73.1847 15.9193C73.4812 16.195 73.7145 16.5317 73.8683 16.9062C74.0222 17.2807 74.0931 17.6841 74.0761 18.0886V22.8223C74.0761 22.9318 74.0327 23.0368 73.9552 23.1142C73.8778 23.1916 73.7728 23.2351 73.6634 23.2351H71.8191C71.7103 23.2339 71.6065 23.1899 71.53 23.1126C71.4536 23.0354 71.4107 22.931 71.4107 22.8223V22.7784C71.4107 22.7784 70.932 23.2351 70.1504 23.2351C69.1712 23.2351 68.4203 23.0024 67.9416 22.5149C67.6983 22.2593 67.5091 21.9572 67.3854 21.6267C67.2616 21.2962 67.2059 20.9441 67.2215 20.5916C67.2215 19.7485 67.5025 19.1205 68.0646 18.7121C68.7129 18.2804 69.482 18.0665 70.2602 18.1018H71.4107C71.3536 17.8427 71.2175 17.6626 71.0594 17.5089C70.8557 17.3226 70.5889 17.2206 70.3129 17.2235C69.9591 17.2221 69.607 17.2724 69.2678 17.3728C69.0921 17.4167 68.877 17.4826 68.6267 17.5704C68.5236 17.607 68.4102 17.6012 68.3114 17.5543C68.2126 17.5074 68.1365 17.4232 68.0997 17.3201L67.6606 16.1608C67.6247 16.0588 67.6298 15.9469 67.6749 15.8486C67.7199 15.7503 67.8014 15.6733 67.9021 15.6339C68.2684 15.4865 68.6439 15.3633 69.0262 15.265C69.5955 15.1138 70.1807 15.0312 70.7696 15.0191V15.0191ZM70.1328 21.3864C70.3348 21.3864 70.5456 21.3688 70.7608 21.2547C70.8844 21.1844 71.0046 21.1082 71.1209 21.0263C71.2877 20.9121 71.3843 20.7233 71.3843 20.5257V19.9461C71.3843 19.9213 71.3794 19.8967 71.37 19.8738C71.3605 19.8509 71.3466 19.8301 71.329 19.8126C71.3115 19.795 71.2907 19.7811 71.2678 19.7716C71.2449 19.7621 71.2203 19.7573 71.1955 19.7573H70.2602C70.0187 19.7573 69.8211 19.8451 69.6762 20.0207C69.5268 20.1964 69.4566 20.4159 69.4566 20.6618C69.4566 20.8551 69.5181 21.0263 69.6498 21.1712C69.7815 21.3161 69.944 21.3864 70.1328 21.3864V21.3864ZM78.1775 16.0642V22.8135C78.1775 23.0419 77.9887 23.2263 77.7604 23.2263H75.938C75.8285 23.2263 75.7236 23.1828 75.6461 23.1054C75.5687 23.028 75.5252 22.923 75.5252 22.8135V16.0642C75.5252 15.8359 75.7097 15.6515 75.938 15.6515H77.7604C77.9931 15.6515 78.1775 15.8359 78.1775 16.0642V16.0642ZM76.847 14.9094C76.4918 14.9094 76.1511 14.7682 75.9 14.5171C75.6488 14.2659 75.5077 13.9252 75.5077 13.57C75.5077 13.2148 75.6488 12.8742 75.9 12.623C76.1511 12.3718 76.4918 12.2307 76.847 12.2307C77.2022 12.2307 77.5429 12.3718 77.794 12.623C78.0452 12.8742 78.1863 13.2148 78.1863 13.57C78.1863 13.9252 78.0452 14.2659 77.794 14.5171C77.5429 14.7682 77.2022 14.9094 76.847 14.9094ZM84.7819 15.0147C85.8709 15.0147 86.6526 15.3265 87.1224 15.9589C87.6096 16.6398 87.8581 17.4626 87.8294 18.2994V22.8179C87.8294 22.9274 87.7859 23.0324 87.7085 23.1098C87.6311 23.1872 87.5261 23.2307 87.4166 23.2307H85.5811C85.4716 23.2307 85.3666 23.1872 85.2892 23.1098C85.2118 23.0324 85.1683 22.9274 85.1683 22.8179V18.3565C85.1683 17.9876 85.0673 17.7066 84.8697 17.5133C84.7623 17.413 84.6358 17.3352 84.4978 17.2847C84.3598 17.2342 84.213 17.2119 84.0661 17.2191C83.8378 17.2191 83.5743 17.2806 83.2757 17.3992C83.0359 17.4926 82.8297 17.6561 82.684 17.8683C82.5383 18.0806 82.4599 18.3318 82.459 18.5892V22.8135C82.459 22.923 82.4155 23.028 82.3381 23.1054C82.2607 23.1828 82.1557 23.2263 82.0462 23.2263H80.2151C80.1056 23.2263 80.0006 23.1828 79.9232 23.1054C79.8458 23.028 79.8023 22.923 79.8023 22.8135V15.4275C79.8023 15.1992 79.9867 15.0147 80.2151 15.0147H82.0462C82.2745 15.0147 82.459 15.1992 82.459 15.4275V15.6339L83.1001 15.3485C83.6363 15.1378 84.2059 15.0248 84.7819 15.0147V15.0147Z" fill="#B7B7B7"/>
<path d="M19.7041 19.2216C19.7041 21.5665 21.3728 23.2308 23.7177 23.2308C26.0626 23.2308 27.7269 21.5621 27.7269 19.2216V4.0719C27.7269 0.449148 23.9065 -1.13608 21.2718 0.89266L14.4083 6.1709C14.0175 6.45632 13.7145 6.45632 13.3237 6.1709L6.46025 0.89266C6.0425 0.571076 5.56548 0.334945 5.05645 0.197756C4.54742 0.0605659 4.01634 0.0250053 3.49357 0.093105C2.97079 0.161205 2.46655 0.331631 2.00965 0.594648C1.55275 0.857664 1.15215 1.20812 0.830719 1.62599C0.182872 2.4687 -0.103807 3.53418 0.0337083 4.58819C0.171224 5.6422 0.721678 6.59847 1.56405 7.24674L11.4223 14.8304C12.1063 15.4083 12.9728 15.7254 13.8682 15.7254C14.7637 15.7254 15.6302 15.4083 16.3141 14.8304L18.9884 12.7709C19.3177 12.5206 19.7041 12.6918 19.7041 13.1222V19.226V19.2216Z" fill="#939393"/>
<path d="M4.11536 23.2175C6.38535 23.2175 8.22554 21.3774 8.22554 19.1074C8.22554 16.8374 6.38535 14.9972 4.11536 14.9972C1.84538 14.9972 0.00518799 16.8374 0.00518799 19.1074C0.00518799 21.3774 1.84538 23.2175 4.11536 23.2175Z" fill="#747474"/>
</svg>
