<svg width="110" height="32" viewBox="0 0 110 32" fill="none" xmlns="http://www.w3.org/2000/svg">
<path d="M40.1641 13.2542C40.1641 8.3804 40.1641 7.5076 40.1023 6.51122C40.0405 5.51484 39.7934 4.96645 38.7584 4.73473C38.4196 4.67096 38.0758 4.63736 37.7311 4.63432C37.6075 4.63432 37.4839 4.57253 37.4839 4.44895C37.4839 4.32536 37.6384 4.20178 37.986 4.20178H45.2001C47.1697 4.20178 49.2629 4.38715 50.9158 5.57663C51.5721 6.07633 52.1069 6.71805 52.4801 7.45373C52.8533 8.18941 53.0552 8.99999 53.0707 9.82476C53.0707 12.1419 52.1052 14.4591 49.2937 17.0389C51.8503 20.3215 53.9744 23.0944 55.7895 25.0331C56.7547 26.2071 58.1031 27.003 59.5974 27.2807C60.001 27.345 60.4091 27.376 60.8178 27.3734C60.9722 27.3734 61.0958 27.4661 61.0958 27.5588C61.0958 27.6515 60.9104 27.8059 60.3234 27.8059H58.1221C56.3765 27.8059 55.5887 27.6515 54.7777 27.2112C53.4337 26.4929 52.3447 24.9635 50.5605 22.6232C49.2474 20.9085 47.7799 18.8308 47.1542 17.9889C47.1051 17.9283 47.0425 17.88 46.9715 17.8478C46.9004 17.8157 46.8228 17.8005 46.7449 17.8035H42.8829C42.7285 17.8035 42.6667 17.8962 42.6667 18.0507V18.7227C42.6667 21.7195 42.6667 24.1912 42.8211 25.4965C42.9138 26.4002 43.0992 27.0876 44.0415 27.2112C44.5076 27.2767 44.9769 27.3179 45.4473 27.3348C45.6326 27.3348 45.6944 27.4275 45.6944 27.5202C45.6944 27.6128 45.5399 27.7673 45.1924 27.7673H38.4494C38.1019 27.7673 37.9474 27.7055 37.9474 27.5202C37.9474 27.3348 38.0092 27.3348 38.1945 27.3348C38.5094 27.3243 38.8224 27.2829 39.1291 27.2112C39.7548 27.0876 39.9015 26.4002 40.0328 25.4965C40.1873 24.1834 40.1873 21.7195 40.1873 18.7227L40.1641 13.2542ZM42.6589 16.2896C42.6478 16.3678 42.6631 16.4474 42.7022 16.5159C42.7414 16.5845 42.8022 16.638 42.8752 16.6681C43.1301 16.7299 44.7907 16.6681 46.1733 16.7145C46.9793 16.7361 47.7773 16.5499 48.4905 16.1738C49.5795 15.4014 50.3983 13.8566 50.3983 11.4468C50.3983 7.54622 48.336 5.19816 44.9916 5.19816C44.3037 5.19276 43.6173 5.26269 42.9447 5.40671C42.8683 5.4348 42.803 5.48681 42.7584 5.55499C42.7139 5.62317 42.6926 5.7039 42.6976 5.78518L42.6589 16.2896Z" fill="#B7B7B7"/>
<path d="M73.2377 17.7031C73.2004 17.7434 73.1549 17.7753 73.1043 17.7966C73.0537 17.8179 72.9991 17.8281 72.9442 17.8267H61.8605C61.7072 18.6523 61.6245 19.4895 61.6133 20.3292C61.5653 21.131 61.6835 21.934 61.9604 22.6879C62.2373 23.4419 62.6669 24.1305 63.2224 24.7106C63.7778 25.2907 64.4472 25.7499 65.1884 26.0592C65.9296 26.3686 66.7267 26.5215 67.5298 26.5083C70.1173 26.5083 71.2295 26.0835 72.4576 24.9635C72.4576 24.9635 72.6121 24.7705 72.7743 24.9635C72.9365 25.1566 72.5889 25.4115 72.5889 25.4115C71.8302 26.2094 70.9189 26.8467 69.9093 27.2859C68.8996 27.7251 67.8121 27.9571 66.7111 27.9681C62.4707 27.9681 58.7014 25.1335 58.7014 20.3292C58.7014 15.525 62.2776 12.6517 66.7111 12.6517C70.936 12.6517 73.0755 15.0693 73.2995 17.4096C73.3153 17.5117 73.2933 17.616 73.2377 17.7031V17.7031ZM70.0323 16.784C70.0081 15.9214 69.6452 15.1032 69.0221 14.5062C68.3991 13.9092 67.5661 13.5815 66.7033 13.594C64.2008 13.6404 63.1272 14.6599 62.1694 16.7994L70.0323 16.784ZM76.6285 13.2542C76.6285 8.3804 76.6285 7.5076 76.5667 6.51122C76.5049 5.51484 76.2578 4.96645 75.2228 4.73473C74.8688 4.66817 74.5094 4.63456 74.1492 4.63432C74.0256 4.63432 73.902 4.57253 73.902 4.44895C73.902 4.32536 74.0565 4.20178 74.404 4.20178H81.6181C83.5877 4.20178 85.6809 4.38715 87.3338 5.57663C87.9902 6.07633 88.5249 6.71805 88.8981 7.45373C89.2713 8.18941 89.4732 8.99999 89.4888 9.82476C89.4888 12.1419 88.5233 14.4591 85.7118 17.0389C88.2761 20.3215 90.3925 23.0944 92.2076 25.0331C93.1728 26.2071 94.5212 27.003 96.0154 27.2807C96.419 27.345 96.8272 27.376 97.2358 27.3734C97.3903 27.3734 97.5139 27.4661 97.5139 27.5588C97.5139 27.6515 97.3285 27.8059 96.7415 27.8059H94.5247C92.7791 27.8059 91.9913 27.6515 91.1803 27.2112C89.8363 26.4929 88.7473 24.9635 86.9631 22.6232C85.65 20.9085 84.1825 18.8308 83.5568 17.9889C83.5077 17.9283 83.4451 17.88 83.3741 17.8478C83.303 17.8157 83.2254 17.8005 83.1475 17.8035H79.2855C79.1311 17.8035 79.0693 17.8962 79.0693 18.0507V18.7227C79.0693 21.7195 79.0693 24.1912 79.2237 25.4965C79.3164 26.4002 79.5018 27.0876 80.4441 27.2112C80.9102 27.2767 81.3795 27.3179 81.8499 27.3348C82.0352 27.3348 82.097 27.4275 82.097 27.5202C82.097 27.6128 81.9425 27.7673 81.595 27.7673H74.8829C74.5354 27.7673 74.3809 27.7055 74.3809 27.5202C74.3809 27.3348 74.4427 27.3348 74.628 27.3348C74.9429 27.3243 75.2559 27.2829 75.5626 27.2112C76.1883 27.0876 76.335 26.4002 76.4663 25.4965C76.6208 24.1834 76.6208 21.7195 76.6208 18.7227L76.6285 13.2542ZM79.1233 16.2896C79.1122 16.3678 79.1274 16.4474 79.1666 16.5159C79.2058 16.5845 79.2666 16.638 79.3396 16.6681C79.5945 16.7299 81.2551 16.6681 82.6377 16.7145C83.4437 16.7361 84.2417 16.5499 84.9549 16.1738C86.0516 15.4014 86.8627 13.8566 86.8627 11.4468C86.8627 7.54622 84.8004 5.19816 81.4559 5.19816C80.7535 5.18172 80.0514 5.2439 79.3628 5.38353C79.2863 5.41163 79.221 5.46364 79.1765 5.53182C79.132 5.6 79.1106 5.68072 79.1156 5.762L79.1233 16.2896Z" fill="#B7B7B7"/>
<path d="M109.679 17.7031C109.642 17.7434 109.596 17.7753 109.546 17.7966C109.495 17.8179 109.44 17.8282 109.385 17.8267H98.2863C98.133 18.6524 98.0503 19.4896 98.0391 20.3293C97.9911 21.131 98.1093 21.934 98.3862 22.688C98.663 23.4419 99.0927 24.1305 99.6482 24.7106C100.204 25.2908 100.873 25.7499 101.614 26.0593C102.355 26.3686 103.153 26.5215 103.956 26.5084C106.543 26.5084 107.655 26.0835 108.883 24.9636C108.883 24.9636 109.038 24.7705 109.2 24.9636C109.362 25.1567 109.015 25.4116 109.015 25.4116C108.256 26.2098 107.345 26.8474 106.335 27.2865C105.326 27.7257 104.238 27.9575 103.137 27.9682C98.9042 27.9682 95.1272 25.1335 95.1272 20.3293C95.1272 15.525 98.7033 12.6517 103.137 12.6517C107.362 12.6517 109.501 15.0693 109.725 17.4096C109.746 17.5099 109.729 17.6141 109.679 17.7031V17.7031ZM106.474 16.784C106.449 15.9215 106.086 15.1032 105.463 14.5062C104.84 13.9092 104.007 13.5815 103.145 13.594C100.642 13.6404 99.5684 14.6599 98.6107 16.7995L106.474 16.784Z" fill="#B7B7B7"/>
<path d="M27.5202 27.4661C29.866 25.1128 31.4325 22.0957 32.0077 18.8231C31.2514 17.6873 30.2612 16.7262 29.1035 16.0039C30.2612 15.2816 31.2514 14.3204 32.0077 13.1846C31.4338 9.91933 29.873 6.90831 27.5356 4.55708L27.4506 4.47212C25.0953 2.13193 22.0784 0.570953 18.8076 0C17.6747 0.757207 16.7162 1.74728 15.9961 2.90418C15.2761 1.74728 14.3176 0.757207 13.1846 0C9.92666 0.572626 6.92163 2.12769 4.57253 4.45667L4.44895 4.58026C2.12002 6.93452 0.567492 9.94524 0 13.2078C0.756669 14.3344 1.74392 15.2874 2.89645 16.0039C1.74392 16.7203 0.756669 17.6734 0 18.7999C0.568804 22.0698 2.12703 25.0865 4.4644 27.4429L4.55708 27.5356C6.90932 29.8702 9.92024 31.4282 13.1846 32C14.3176 31.2428 15.2761 30.2527 15.9961 29.0958C16.7162 30.2527 17.6747 31.2428 18.8076 32C22.0858 31.4277 25.1086 29.8611 27.4661 27.5124L27.5202 27.4661ZM30.517 22.3992C29.3699 22.0993 28.3236 21.4989 27.4859 20.6598C26.6482 19.8208 26.0494 18.7735 25.7514 17.6259C26.8985 17.9258 27.9448 18.5262 28.7825 19.3653C29.6202 20.2043 30.219 21.2516 30.517 22.3992V22.3992ZM30.517 9.53126C30.219 10.6788 29.6202 11.7262 28.7825 12.5652C27.9448 13.4043 26.8985 14.0047 25.7514 14.3046C26.0554 13.1642 26.6568 12.1249 27.4941 11.293C28.3314 10.4611 29.3746 9.86649 30.517 9.56988V9.53126ZM24.0985 4.82742C24.8767 6.08138 25.9341 7.1387 27.188 7.91697C25.9341 8.69524 24.8767 9.75255 24.0985 11.0065C23.3202 9.75255 22.2629 8.69524 21.0089 7.91697C22.2629 7.1387 23.3202 6.08138 24.0985 4.82742V4.82742ZM22.4378 1.47526C22.1403 2.62851 21.5391 3.68096 20.6969 4.52314C19.8547 5.36532 18.8023 5.96647 17.649 6.26406C17.9466 5.11081 18.5478 4.05836 19.39 3.21618C20.2321 2.374 21.2846 1.77285 22.4378 1.47526V1.47526ZM22.4378 14.351C21.2846 14.0534 20.2321 13.4522 19.39 12.61C18.5478 11.7679 17.9466 10.7154 17.649 9.56215C18.8023 9.85974 19.8547 10.4609 20.6969 11.3031C21.5391 12.1453 22.1403 13.1977 22.4378 14.351V14.351ZM14.3355 6.25634C13.186 5.95699 12.1375 5.35592 11.2982 4.51534C10.459 3.67476 9.85964 2.6252 9.56215 1.47526C10.7116 1.77461 11.7602 2.37567 12.5994 3.21625C13.4386 4.05683 14.038 5.10639 14.3355 6.25634ZM14.3355 9.56988C14.038 10.7198 13.4386 11.7694 12.5994 12.61C11.7602 13.4505 10.7116 14.0516 9.56215 14.351C9.85964 13.201 10.459 12.1514 11.2982 11.3109C12.1375 10.4703 13.186 9.86923 14.3355 9.56988ZM7.90924 4.82742C8.68751 6.08138 9.74483 7.1387 10.9988 7.91697C9.74483 8.69524 8.68751 9.75255 7.90924 11.0065C7.13098 9.75255 6.07366 8.69524 4.8197 7.91697C6.07366 7.1387 7.13098 6.08138 7.90924 4.82742V4.82742ZM1.46754 9.56215C2.62078 9.85974 3.67324 10.4609 4.51542 11.3031C5.3576 12.1453 5.95875 13.1977 6.25634 14.351C5.10309 14.0534 4.05064 13.4522 3.20845 12.61C2.36627 11.7679 1.76512 10.7154 1.46754 9.56215V9.56215ZM1.46754 22.4378C1.76512 21.2846 2.36627 20.2321 3.20845 19.39C4.05064 18.5478 5.10309 17.9466 6.25634 17.649C5.95875 18.8023 5.3576 19.8547 4.51542 20.6969C3.67324 21.5391 2.62078 22.1403 1.46754 22.4378V22.4378ZM7.91697 27.1726C7.1387 25.9186 6.08138 24.8613 4.82742 24.083C6.08138 23.3048 7.1387 22.2474 7.91697 20.9935C8.69524 22.2474 9.75255 23.3048 11.0065 24.083C9.74974 24.8604 8.68971 25.9177 7.90924 27.1726H7.91697ZM9.56988 30.5247C9.86857 29.3762 10.4685 28.3283 11.3076 27.4891C12.1468 26.65 13.1947 26.0501 14.3432 25.7514C14.0445 26.8999 13.4446 27.9479 12.6055 28.787C11.7663 29.6261 10.7184 30.226 9.56988 30.5247V30.5247ZM9.56988 17.6568C10.7132 17.954 11.757 18.5498 12.5944 19.3831C13.4318 20.2165 14.0327 21.2573 14.3355 22.3992C13.1922 22.102 12.1484 21.5062 11.311 20.6729C10.4736 19.8395 9.87272 18.7987 9.56988 17.6568V17.6568ZM15.9961 19.0857C15.2179 17.8317 14.1606 16.7744 12.9066 15.9961C14.1606 15.2179 15.2179 14.1606 15.9961 12.9066C16.7744 14.1606 17.8317 15.2179 19.0857 15.9961C17.8317 16.7744 16.7744 17.8317 15.9961 19.0857V19.0857ZM22.4456 17.6568C22.148 18.81 21.5468 19.8625 20.7047 20.7047C19.8625 21.5468 18.81 22.148 17.6568 22.4456C17.9525 21.2918 18.5519 20.2384 19.3928 19.3949C20.2336 18.5513 21.2851 17.9485 22.4378 17.649L22.4456 17.6568ZM17.6568 25.7514C18.81 26.049 19.8625 26.6501 20.7047 27.4923C21.5468 28.3345 22.148 29.3869 22.4456 30.5402C21.29 30.2432 20.2352 29.6414 19.3915 28.7977C18.5478 27.954 17.9461 26.8993 17.649 25.7437L17.6568 25.7514ZM24.1062 27.188C23.3279 25.9341 22.2706 24.8767 21.0167 24.0985C22.2706 23.3202 23.3279 22.2629 24.1062 21.0089C24.8845 22.2629 25.9418 23.3202 27.1957 24.0985C25.9398 24.8736 24.8799 25.9283 24.0985 27.1803L24.1062 27.188Z" fill="#A3A3A3"/>
</svg>
