<svg width="151" height="28" viewBox="0 0 151 28" fill="none" xmlns="http://www.w3.org/2000/svg">
<g clip-path="url(#clip0)">
<path d="M76.7561 0H69.568L68.209 4.94124L75.7634 3.60996L76.7561 0Z" fill="#747474"/>
<path d="M65.789 7.0633C64.1449 7.03301 60.6658 6.94265 58.1277 10.3121L58.8674 7.1837H51.8705L51.1689 10.4024L47.908 22.2854H55.0582L56.8053 15.8774C57.2709 14.2532 58.5429 11.8159 62.9396 11.8159C63.437 11.8159 63.6282 11.847 64.4303 11.9063L65.789 7.0633ZM67.5851 7.1837L63.4314 22.2851H70.62L74.7735 7.1837H67.5851ZM90.8274 6.85254C86.8509 6.85254 84.8942 8.35639 83.705 9.49981L84.2879 7.18345H77.0995L76.3982 10.4022L73.1375 22.2851H80.2869L82.6555 13.6212C82.8105 13.0795 83.5482 10.4325 86.7595 10.4325C89.7036 10.4325 89.1212 12.5686 88.8111 13.6212L86.4431 22.2851H93.6312L96.154 13.1398C96.6985 11.064 97.8628 6.85254 90.8274 6.85254ZM106.545 16.0877L107.982 10.8535H112.609L113.579 7.24301H109.029L110.027 3.61727L102.769 4.89712L102.108 7.24301H98.7407L97.7709 10.8537H101.023L99.0431 18.1032C98.2283 21.0218 98.9476 22.5254 104.684 22.5254C107.13 22.5254 108.432 22.375 109.425 22.2548L110.396 18.7055C109.516 18.7956 109.172 18.7956 108.599 18.7956C105.846 18.7956 106.079 17.953 106.545 16.0877ZM132.16 15.9406C132.897 13.318 133.056 11.8882 132.565 10.6063C131.848 8.49079 129.866 6.79196 124.513 6.79196C117.44 6.79247 113.373 10.0405 112.014 15.0469C110.618 19.9937 113.512 22.616 120.203 22.616C125.173 22.6155 130.073 21.1555 131.657 17.4012H124.966C124.386 18.8017 122.969 19.576 121.057 19.5765C117.387 19.5765 118.201 16.7454 118.395 15.9408H132.16V15.9406ZM123.659 9.77243C126.795 9.77243 126.403 12.0366 126.246 12.901H119.326C119.597 12.1855 120.524 9.77243 123.659 9.77243ZM142.431 10.3121L143.17 7.1837H136.173L135.471 10.4024L132.21 22.2854H139.36L141.107 15.8774C141.573 14.2532 142.845 11.8159 147.242 11.8159C147.739 11.8159 147.93 11.847 148.732 11.9063L150.091 7.06356C148.448 7.03301 144.968 6.94265 142.431 10.3121ZM42.1687 6.79247C38.1166 6.79247 36.0258 8.56767 35.1351 9.31908L35.6458 7.1837H28.5444C28.3884 7.81497 28.3874 7.99545 27.9944 9.6505L22.9404 28.0007L30.566 26.6557L32.271 20.4801C32.886 21.2326 34.0765 22.5855 37.5111 22.5855C41.9099 22.5855 46.7824 20.2999 48.3883 14.4334C50.1118 8.23625 45.4104 6.79247 42.1687 6.79247ZM41.23 14.3166C40.6135 16.5813 39.2791 19.2163 36.1197 19.2163C32.6775 19.2163 33.362 15.939 33.7089 14.73C33.9395 13.8546 34.9796 10.0412 38.8217 10.0412C42.0099 10.0412 41.6141 12.8667 41.23 14.3166ZM18.5026 9.61461L13.7011 8.35334C12.643 8.06723 11.0961 7.60956 11.6307 6.04207C12.0362 4.76985 13.7648 3.85476 15.9806 3.95123C16.9565 3.99399 17.6148 4.18948 18.0534 4.46439C18.0658 4.47203 18.0788 4.47967 18.0905 4.48781C18.1144 4.50334 18.1363 4.52014 18.159 4.53567C19.2227 5.31661 18.7595 6.65476 18.582 7.18345H26.462C26.5432 6.90116 26.6188 6.60028 26.6748 6.28796C26.9932 4.64079 26.8039 2.50974 23.7058 1.19807C22.2737 0.590211 20.2218 0.160538 17.3147 0.0337741C9.06332 -0.327171 4.66554 2.82665 3.54198 6.28796C2.10023 10.7578 6.71234 11.9796 8.48958 12.448L14.8023 14.1048C16.5408 14.5709 16.8514 15.2747 16.5347 16.2817C15.7288 18.7075 12.2907 18.5571 11.6411 18.5283C7.1079 18.3297 7.79899 15.7942 8.12965 14.8124H0.326812C0.11223 15.4251 -0.082497 16.345 0.0356121 17.321C0.113248 18.0332 0.367794 18.7905 0.951467 19.5012C2.75492 21.801 7.28354 22.4343 10.149 22.561C17.0629 22.8629 23.0119 20.8866 24.5435 16.1216C26.0252 11.5942 21.9431 10.5147 18.5026 9.61461Z" fill="#B7B7B7"/>
</g>
<defs>
<clipPath id="clip0">
<rect width="150.091" height="28" fill="white"/>
</clipPath>
</defs>
</svg>
