<svg width="116" height="115" viewBox="0 0 116 115" fill="none" xmlns="http://www.w3.org/2000/svg">
<g clip-path="url(#clip0)">
<path d="M-14.7205 -40.9194L8.73644 -3.84212V-3.88753C11.2927 0.127115 14.9594 3.46074 19.3708 5.78073C23.7823 8.10072 28.7841 9.32598 33.8774 9.33425H80.8212C85.9146 9.32689 90.9169 8.10202 95.3285 5.78194C99.7401 3.46185 103.407 0.127733 105.962 -3.88753L129.419 -40.9194C131.96 -44.9428 133.297 -49.5036 133.297 -54.1457C133.297 -58.7879 131.96 -63.3487 129.419 -67.3721L105.962 -104.404C103.404 -108.423 99.7328 -111.76 95.3155 -114.08C90.8983 -116.401 85.8898 -117.623 80.7913 -117.626H33.8774C28.7841 -117.617 23.7823 -116.392 19.3708 -114.072C14.9594 -111.752 11.2927 -108.419 8.73644 -104.404L-14.7205 -67.3721C-17.2613 -63.3487 -18.5986 -58.7879 -18.5986 -54.1457C-18.5986 -49.5036 -17.2613 -44.9428 -14.7205 -40.9194Z" fill="currentColor"/>
<path d="M-14.7205 182.851L8.73644 219.929V219.883C11.2927 223.898 14.9594 227.231 19.3708 229.551C23.7823 231.871 28.7841 233.097 33.8774 233.105H80.8212C85.9146 233.098 90.9169 231.873 95.3285 229.553C99.7401 227.233 103.407 223.898 105.962 219.883L129.419 182.851C131.96 178.828 133.297 174.267 133.297 169.625C133.297 164.983 131.96 160.422 129.419 156.399L105.962 119.367C103.404 115.348 99.7328 112.011 95.3155 109.691C90.8983 107.37 85.8898 106.148 80.7913 106.145H33.8774C28.7841 106.153 23.7823 107.379 19.3708 109.699C14.9594 112.019 11.2927 115.352 8.73644 119.367L-14.7205 156.399C-17.2613 160.422 -18.5986 164.983 -18.5986 169.625C-18.5986 174.267 -17.2613 178.828 -14.7205 182.851Z" fill="currentColor"/>
<path d="M-63.2883 -14.9705L-100.366 8.48644L-100.32 8.48644C-104.335 11.0427 -107.669 14.7094 -109.989 19.1208C-112.308 23.5322 -113.534 28.5341 -113.542 33.6274L-113.542 80.5711C-113.535 85.6646 -112.31 90.6669 -109.99 95.0785C-107.67 99.4901 -104.336 103.157 -100.32 105.712L-63.2884 129.169C-59.2649 131.71 -54.7042 133.047 -50.062 133.047C-45.4199 133.047 -40.8591 131.71 -36.8357 129.169L0.196181 105.712C4.21544 103.154 7.55212 99.4828 9.87244 95.0655C12.1928 90.6483 13.4154 85.6398 13.418 80.5413L13.418 33.6274C13.4097 28.5341 12.1844 23.5323 9.86444 19.1208C7.54445 14.7094 4.21083 11.0427 0.196185 8.48644L-36.8357 -14.9705C-40.8591 -17.5113 -45.4199 -18.8486 -50.062 -18.8486C-54.7041 -18.8486 -59.2649 -17.5113 -63.2883 -14.9705Z" fill="currentColor"/>
<path d="M153.649 -14.9705L116.572 8.48644L116.617 8.48644C112.603 11.0427 109.269 14.7094 106.949 19.1208C104.629 23.5322 103.404 28.5341 103.395 33.6274L103.395 80.5711C103.403 85.6646 104.628 90.6669 106.948 95.0785C109.268 99.4901 112.602 103.157 116.617 105.712L153.649 129.169C157.673 131.71 162.233 133.047 166.875 133.047C171.518 133.047 176.078 131.71 180.102 129.169L217.134 105.712C221.153 103.154 224.49 99.4828 226.81 95.0655C229.13 90.6483 230.353 85.6398 230.355 80.5413L230.355 33.6274C230.347 28.5341 229.122 23.5323 226.802 19.1208C224.482 14.7094 221.148 11.0427 217.134 8.48644L180.102 -14.9705C176.078 -17.5113 171.518 -18.8486 166.875 -18.8486C162.233 -18.8486 157.673 -17.5113 153.649 -14.9705Z" fill="currentColor"/>
</g>
<defs>
<clipPath id="clip0">
<rect width="115" height="115" fill="white" transform="translate(0.25)"/>
</clipPath>
</defs>
</svg>
