<svg width="116" height="115" viewBox="0 0 116 115" fill="none" xmlns="http://www.w3.org/2000/svg">
<g clip-path="url(#clip0)">
<g clip-path="url(#clip1)">
<path d="M63.2301 168.666C60.1752 168.665 57.1745 167.857 54.5289 166.323C51.8833 164.789 49.6859 162.583 48.1571 159.926L37.3165 141.357C36.1733 139.399 34.5397 137.775 32.5779 136.647C30.6162 135.519 28.3947 134.927 26.1343 134.929H1.8245C-0.452979 134.925 -2.68934 134.319 -4.65998 133.173C-6.63061 132.026 -8.26613 130.379 -9.40226 128.396L-41.1371 73.2113C-42.275 71.2319 -42.874 68.9865 -42.874 66.7009C-42.874 64.4153 -42.275 62.17 -41.1371 60.1906L-29.0045 39.086C-27.8658 37.1081 -26.2289 35.466 -24.2583 34.3245C-22.2876 33.1831 -20.0526 32.5825 -17.7778 32.5831H45.692C47.9669 32.5825 50.2019 33.1831 52.1725 34.3245C54.1431 35.466 55.78 37.1081 56.9188 39.086L68.7989 59.8028C69.9369 61.7825 71.5733 63.4268 73.5438 64.5708C75.5143 65.7148 77.7497 66.3182 80.0257 66.3206H104.529C106.803 66.3199 109.038 66.9205 111.009 68.062C112.98 69.2034 114.617 70.8456 115.755 72.8235L127.903 93.928C129.041 95.9074 129.64 98.1528 129.64 100.438C129.64 102.724 129.041 104.969 127.903 106.949L96.153 162.134C95.0191 164.121 93.382 165.773 91.4078 166.92C89.4335 168.067 87.1923 168.67 84.9114 168.666H63.2301Z" fill="currentColor"/>
</g>
</g>
<defs>
<clipPath id="clip0">
<rect width="115" height="115" fill="white" transform="translate(0.25)"/>
</clipPath>
<clipPath id="clip1">
<rect width="172.5" height="136.083" fill="white" transform="matrix(1 0 0 -1 -42.875 168.667)"/>
</clipPath>
</defs>
</svg>
