<svg width="116" height="115" viewBox="0 0 116 115" fill="none" xmlns="http://www.w3.org/2000/svg">
<g clip-path="url(#clip0)">
<g clip-path="url(#clip1)">
<path d="M160.583 58.3577L145.893 32.8353C145.027 31.3305 144.571 29.6236 144.571 27.8861C144.571 26.1486 145.027 24.4417 145.893 22.937L157.736 2.35801C158.602 0.853273 159.057 -0.853631 159.057 -2.59115C159.057 -4.32866 158.602 -6.03557 157.736 -7.5403L145.893 -28.1193C145.026 -29.6229 143.781 -30.8712 142.281 -31.739C140.782 -32.6067 139.081 -33.0632 137.35 -33.0627H113.619C111.888 -33.0632 110.187 -32.6067 108.687 -31.739C107.188 -30.8712 105.942 -29.6229 105.076 -28.1193L90.3851 -2.58548L75.6945 22.937C74.8258 24.442 73.5784 25.6918 72.0772 26.5614C70.576 27.4309 68.8735 27.8897 67.1401 27.8918H43.5221C41.7911 27.8913 40.0903 28.3478 38.5907 29.2156C37.0912 30.0833 35.8455 31.3317 34.979 32.8353L23.1362 53.4142C22.2703 54.919 21.8145 56.6259 21.8145 58.3634C21.8145 60.1009 22.2703 61.8078 23.1362 63.3125L34.979 83.8915C35.8455 85.3951 37.0912 86.6435 38.5907 87.5112C40.0903 88.3789 41.7911 88.8355 43.5221 88.835H102.284C104.016 88.8368 105.717 89.2955 107.217 90.1652C108.716 91.0349 109.962 92.2849 110.828 93.7898L122.659 114.335C123.526 115.838 124.771 117.087 126.271 117.954C127.77 118.822 129.471 119.279 131.202 119.278H154.933C156.664 119.279 158.365 118.822 159.865 117.954C161.364 117.087 162.61 115.838 163.476 114.335L175.308 93.7558C176.174 92.2511 176.63 90.5442 176.63 88.8066C176.63 87.0691 176.174 85.3622 175.308 83.8575L160.583 58.3577Z" fill="currentColor"/>
</g>
</g>
<defs>
<clipPath id="clip0">
<rect width="115" height="115" fill="white" transform="translate(0.25)"/>
</clipPath>
<clipPath id="clip1">
<rect width="154.771" height="152.375" fill="white" transform="translate(21.8125 -33.0627)"/>
</clipPath>
</defs>
</svg>
