<svg width="116" height="115" viewBox="0 0 116 115" fill="none" xmlns="http://www.w3.org/2000/svg">
<path d="M26.0493 72.2861C29.716 80.1471 36.1727 86.3654 44.166 89.7339C48.4649 91.5507 53.0853 92.4843 57.7524 92.4791C66.4265 92.4784 74.791 89.2548 81.2221 83.4341C87.6533 77.6135 91.6923 69.6109 92.5552 60.9798C93.4182 52.3487 91.0434 43.7048 85.8919 36.7261C80.7404 29.7474 73.1797 24.9317 64.6774 23.2137C56.1751 21.4958 47.3378 22.9982 39.8809 27.4293C32.424 31.8604 26.8794 38.904 24.3235 47.1931C21.7676 55.4821 22.3827 64.4251 26.0493 72.2861Z" fill="currentColor"/>
<path d="M40.3796 65.6019C42.3888 69.9093 45.9267 73.3166 50.3066 75.1623C52.6621 76.1579 55.1939 76.6694 57.7512 76.6666C62.5041 76.6662 67.0874 74.8999 70.6113 71.7105C74.1352 68.521 76.3484 64.136 76.8212 59.4067C77.294 54.6773 75.9928 49.941 73.1701 46.117C70.3473 42.2931 66.2045 39.6543 61.5457 38.713C56.8869 37.7716 52.0445 38.5949 47.9586 41.0229C43.8726 43.4508 40.8345 47.3104 39.434 51.8523C38.0335 56.3942 38.3705 61.2945 40.3796 65.6019Z" fill="#003C3C"/>
</svg>
