<svg width="116" height="115" viewBox="0 0 116 115" fill="none" xmlns="http://www.w3.org/2000/svg">
<g clip-path="url(#clip0)">
<path d="M52.8383 29.4675C52.8383 30.4862 53.1403 31.482 53.7063 32.329C54.2722 33.1759 55.0766 33.8361 56.0178 34.2259C56.9589 34.6158 57.9945 34.7178 58.9936 34.519C59.9927 34.3203 60.9104 33.8298 61.6307 33.1094C62.351 32.3891 62.8416 31.4714 63.0403 30.4723C63.239 29.4732 63.137 28.4376 62.7472 27.4965C62.3574 26.5554 61.6972 25.751 60.8502 25.185C60.0032 24.6191 59.0074 24.317 57.9888 24.317C56.6233 24.3188 55.3143 24.862 54.3488 25.8275C53.3832 26.793 52.84 28.102 52.8383 29.4675V29.4675ZM50.7051 36.7622C49.7479 35.8055 48.9885 34.6697 48.4702 33.4196C47.9519 32.1694 47.685 30.8295 47.6846 29.4762C47.6837 26.743 48.7687 24.1215 50.7007 22.1883C52.6327 20.2551 55.2536 19.1686 57.9867 19.1677C60.7199 19.1669 63.3414 20.2518 65.2746 22.1839C67.1621 24.1251 68.2095 26.7312 68.1905 29.4387C68.1715 32.1461 67.0876 34.7373 65.1731 36.6518C63.2585 38.5663 60.6674 39.6503 57.9599 39.6693C55.2525 39.6883 52.6463 38.6408 50.7051 36.7533" fill="currentColor"/>
</g>
<g clip-path="url(#clip1)">
<path d="M52.8383 57.2592C52.8383 58.2779 53.1403 59.2737 53.7063 60.1207C54.2722 60.9677 55.0766 61.6278 56.0178 62.0177C56.9589 62.4075 57.9945 62.5095 58.9936 62.3108C59.9927 62.112 60.9104 61.6215 61.6307 60.9012C62.351 60.1809 62.8416 59.2632 63.0403 58.2641C63.239 57.265 63.137 56.2294 62.7472 55.2882C62.3574 54.3471 61.6972 53.5427 60.8502 52.9768C60.0032 52.4108 59.0074 52.1088 57.9888 52.1088C56.6233 52.1105 55.3143 52.6537 54.3488 53.6192C53.3832 54.5848 52.84 55.8938 52.8383 57.2592V57.2592ZM50.7051 64.5539C49.7479 63.5973 48.9885 62.4615 48.4702 61.2113C47.9519 59.9612 47.685 58.6212 47.6846 57.2679C47.6837 54.5348 48.7687 51.9132 50.7007 49.98C52.6327 48.0468 55.2536 46.9603 57.9867 46.9595C60.7199 46.9586 63.3414 48.0436 65.2746 49.9756C67.1621 51.9168 68.2095 54.5229 68.1905 57.2304C68.1715 59.9379 67.0876 62.529 65.1731 64.4435C63.2585 66.3581 60.6674 67.442 57.9599 67.461C55.2525 67.48 52.6463 66.4325 50.7051 64.5451" fill="currentColor"/>
</g>
<g clip-path="url(#clip2)">
<path d="M52.8383 85.0507C52.8383 86.0694 53.1403 87.0652 53.7063 87.9122C54.2722 88.7592 55.0766 89.4194 56.0178 89.8092C56.9589 90.199 57.9945 90.301 58.9936 90.1023C59.9927 89.9035 60.9104 89.413 61.6307 88.6927C62.351 87.9724 62.8416 87.0547 63.0403 86.0556C63.239 85.0565 63.137 84.0209 62.7472 83.0797C62.3574 82.1386 61.6972 81.3342 60.8502 80.7683C60.0032 80.2023 59.0074 79.9003 57.9888 79.9003C56.6233 79.902 55.3143 80.4452 54.3488 81.4107C53.3832 82.3763 52.84 83.6853 52.8383 85.0507V85.0507ZM50.7051 92.3454C49.7479 91.3888 48.9885 90.253 48.4702 89.0028C47.9519 87.7527 47.685 86.4127 47.6846 85.0594C47.6837 82.3263 48.7687 79.7047 50.7007 77.7715C52.6327 75.8383 55.2536 74.7518 57.9867 74.751C60.7199 74.7501 63.3414 75.8351 65.2746 77.7671C67.1621 79.7083 68.2095 82.3144 68.1905 85.0219C68.1715 87.7294 67.0876 90.3205 65.1731 92.235C63.2585 94.1496 60.6674 95.2335 57.9599 95.2525C55.2525 95.2715 52.6463 94.224 50.7051 92.3366" fill="currentColor"/>
</g>
<defs>
<clipPath id="clip0">
<rect width="20.6042" height="20.6042" fill="white" transform="translate(47.6875 19.1665)"/>
</clipPath>
<clipPath id="clip1">
<rect width="20.6042" height="20.6042" fill="white" transform="translate(47.6875 46.9583)"/>
</clipPath>
<clipPath id="clip2">
<rect width="20.6042" height="20.6042" fill="white" transform="translate(47.6875 74.7498)"/>
</clipPath>
</defs>
</svg>
