<svg width="115" height="115" viewBox="0 0 115 115" fill="none" xmlns="http://www.w3.org/2000/svg">
<g clip-path="url(#clip0)">
<path d="M61.404 91.0281C63.1934 90.1934 64.6088 88.7237 65.3756 86.9042C65.7892 85.9257 66.0017 84.874 66.0005 83.8116C66.0003 81.8372 65.2666 79.9332 63.9416 78.4693C62.6167 77.0054 60.7951 76.086 58.8304 75.8896C56.8658 75.6932 54.8982 76.2338 53.3097 77.4064C51.7211 78.579 50.625 80.3 50.2339 82.2353C49.8429 84.1707 50.1848 86.1823 51.1935 87.8797C52.2021 89.577 53.8054 90.8391 55.6922 91.4209C57.579 92.0027 59.6147 91.8627 61.404 91.0281Z" fill="currentColor"/>
<path d="M61.404 35.5496C63.1934 34.7149 64.6088 33.2452 65.3756 31.4257C65.7892 30.4472 66.0017 29.3955 66.0005 28.3331C66.0003 26.3587 65.2666 24.4547 63.9416 22.9908C62.6167 21.5269 60.7951 20.6075 58.8304 20.4111C56.8658 20.2147 54.8982 20.7552 53.3097 21.9279C51.7211 23.1005 50.625 24.8215 50.2339 26.7568C49.8429 28.6921 50.1848 30.7038 51.1935 32.4011C52.2021 34.0985 53.8054 35.3606 55.6922 35.9424C57.579 36.5242 59.6147 36.3842 61.404 35.5496Z" fill="currentColor"/>
<path d="M61.404 63.2886C63.1934 62.4539 64.6088 60.9842 65.3756 59.1647C65.7892 58.1862 66.0017 57.1345 66.0005 56.0721C66.0003 54.0977 65.2666 52.1937 63.9416 50.7298C62.6167 49.2659 60.7951 48.3465 58.8304 48.1501C56.8658 47.9537 54.8982 48.4943 53.3097 49.6669C51.7211 50.8395 50.625 52.5605 50.2339 54.4958C49.8429 56.4312 50.1848 58.4428 51.1935 60.1402C52.2021 61.8375 53.8054 63.0996 55.6922 63.6814C57.579 64.2632 59.6147 64.1232 61.404 63.2886Z" fill="currentColor"/>
</g>
<defs>
<clipPath id="clip0">
<rect width="115" height="115" fill="white"/>
</clipPath>
</defs>
</svg>
