<svg width="116" height="115" viewBox="0 0 116 115" fill="none" xmlns="http://www.w3.org/2000/svg">
<g clip-path="url(#clip0)">
<g clip-path="url(#clip1)">
<path d="M55.084 186.688L73.4923 156.749C74.5778 154.984 76.1089 153.521 77.9319 152.505C79.7548 151.489 81.8053 150.957 83.8772 150.963L112.214 151.04C114.286 151.045 116.337 150.513 118.159 149.497C119.982 148.482 121.513 147.018 122.599 145.253L137.443 121.115C138.527 119.35 139.127 117.347 139.183 115.307C139.239 113.266 138.75 111.261 137.763 109.491L124.244 85.2303C123.259 83.4602 121.811 81.9884 120.046 80.9626C118.282 79.9368 116.262 79.3932 114.191 79.3863L79.0337 79.2948L43.8881 79.1967C41.8142 79.1885 39.7924 78.6439 38.0249 77.6175C36.2575 76.591 34.8063 75.1187 33.8167 73.3478L20.3625 49.2025C19.3769 47.4324 17.9291 45.9606 16.1645 44.9348C14.3998 43.909 12.3805 43.3654 10.3094 43.3585L-18.0275 43.2817C-20.0994 43.2762 -22.1499 43.808 -23.9729 44.8238C-25.7958 45.8396 -27.3269 47.3034 -28.4124 49.0683L-43.2565 73.2062C-44.3404 74.9711 -44.9405 76.9743 -44.9967 79.0147C-45.0528 81.055 -44.5629 83.0606 -43.5763 84.8301L-10.1019 144.905C-9.11714 146.676 -8.62942 148.684 -8.68765 150.725C-8.74587 152.766 -9.34798 154.77 -10.4336 156.535L-25.2485 180.642C-26.3323 182.407 -26.9325 184.41 -26.9886 186.45C-27.0448 188.49 -26.5549 190.496 -25.5683 192.266L-12.0498 216.526C-11.0641 218.296 -9.61631 219.768 -7.85168 220.794C-6.08705 221.82 -4.06776 222.364 -1.99661 222.37L26.3338 222.436C28.4058 222.441 30.4563 221.909 32.2792 220.894C34.1021 219.878 35.6332 218.414 36.7187 216.649L55.084 186.688Z" fill="currentColor"/>
</g>
</g>
<defs>
<clipPath id="clip0">
<rect width="115" height="115" fill="white" transform="translate(0.25)"/>
</clipPath>
<clipPath id="clip1">
<rect width="181.133" height="183.008" fill="white" transform="translate(71.9473 -8.625) rotate(60.8728)"/>
</clipPath>
</defs>
</svg>
