<svg width="116" height="115" viewBox="0 0 116 115" fill="none" xmlns="http://www.w3.org/2000/svg">
<g clip-path="url(#clip0)">
<g clip-path="url(#clip1)">
<path d="M128.539 91.984L145.608 64.2224C146.615 62.5859 148.035 61.2284 149.725 60.2866C151.415 59.3447 153.317 58.8515 155.238 58.8566L181.514 58.9279C183.435 58.933 185.337 58.4398 187.027 57.4979C188.717 56.5561 190.137 55.1986 191.143 53.5621L204.908 31.1799C205.913 29.5433 206.469 27.6858 206.522 25.7938C206.574 23.9019 206.119 22.0421 205.204 20.4014L192.669 -2.09497C191.755 -3.73627 190.413 -5.10105 188.776 -6.05223C187.14 -7.00341 185.268 -7.5075 183.347 -7.51387L150.747 -7.59872L118.157 -7.68971C116.234 -7.69734 114.36 -8.20229 112.721 -9.15407C111.082 -10.1058 109.736 -11.4711 108.818 -13.1132L96.3429 -35.5024C95.429 -37.1437 94.0864 -38.5085 92.4502 -39.4597C90.8139 -40.4108 88.9414 -40.9149 87.0209 -40.9213L60.745 -40.9925C58.8238 -40.9977 56.9224 -40.5045 55.2321 -39.5626C53.5418 -38.6207 52.122 -37.2633 51.1155 -35.6268L37.351 -13.2445C36.3459 -11.608 35.7894 -9.75045 35.7374 -7.85851C35.6853 -5.96656 36.1396 -4.10681 37.0545 -2.46605L68.0942 53.2392C69.0073 54.882 69.4596 56.7433 69.4056 58.6362C69.3516 60.5291 68.7933 62.3871 67.7866 64.0238L54.0493 86.377C53.0442 88.0135 52.4877 89.871 52.4357 91.763C52.3836 93.6549 52.8378 95.5147 53.7527 97.1554L66.288 119.652C67.2019 121.293 68.5445 122.658 70.1808 123.609C71.817 124.56 73.6895 125.064 75.61 125.071L101.88 125.131C103.801 125.136 105.702 124.643 107.393 123.701C109.083 122.759 110.503 121.402 111.509 119.765L128.539 91.984Z" fill="currentColor"/>
</g>
</g>
<defs>
<clipPath id="clip0">
<rect width="115" height="115" fill="white" transform="translate(0.25)"/>
</clipPath>
<clipPath id="clip1">
<rect width="167.959" height="169.697" fill="white" transform="translate(144.175 -89.1248) rotate(60.8728)"/>
</clipPath>
</defs>
</svg>
