<svg width="115" height="115" viewBox="0 0 115 115" fill="none" xmlns="http://www.w3.org/2000/svg">
<g clip-path="url(#clip0)">
<path d="M65.3572 56.4827L62.9226 52.1732L62.9226 52.1784C62.6572 51.7118 62.2767 51.3243 61.8188 51.0547C61.3609 50.785 60.8417 50.6426 60.3131 50.6416L55.4406 50.6416C54.912 50.6425 54.3928 50.7849 53.9349 51.0545C53.477 51.3242 53.0964 51.7117 52.8312 52.1784L50.3965 56.4827C50.1328 56.9504 49.994 57.4805 49.994 58.02C49.994 58.5596 50.1328 59.0897 50.3965 59.5574L52.8312 63.8616C53.0967 64.3288 53.4777 64.7166 53.9362 64.9863C54.3947 65.256 54.9145 65.3981 55.4437 65.3984L60.3131 65.3984C60.8417 65.3975 61.3609 65.2551 61.8188 64.9854C62.2767 64.7157 62.6572 64.3283 62.9226 63.8616L65.3572 59.5574C65.621 59.0897 65.7598 58.5596 65.7598 58.02C65.7598 57.4805 65.621 56.9504 65.3572 56.4827Z" fill="currentColor"/>
<path d="M91.2713 56.4827L88.8366 52.1732L88.8366 52.1784C88.5713 51.7118 88.1907 51.3243 87.7328 51.0547C87.275 50.785 86.7558 50.6426 86.2272 50.6416L81.3547 50.6416C80.826 50.6425 80.3068 50.7849 79.8489 51.0545C79.391 51.3242 79.0105 51.7117 78.7452 52.1784L76.3106 56.4827C76.0468 56.9504 75.908 57.4805 75.908 58.02C75.908 58.5596 76.0468 59.0897 76.3106 59.5574L78.7452 63.8616C79.0107 64.3288 79.3918 64.7166 79.8503 64.9863C80.3088 65.256 80.8286 65.3981 81.3578 65.3984L86.2272 65.3984C86.7558 65.3975 87.275 65.2551 87.7328 64.9854C88.1907 64.7157 88.5713 64.3283 88.8366 63.8616L91.2713 59.5574C91.535 59.0897 91.6738 58.5596 91.6738 58.02C91.6738 57.4805 91.535 56.9504 91.2713 56.4827Z" fill="currentColor"/>
<path d="M38.9666 56.4827L36.5319 52.1732L36.5319 52.1784C36.2666 51.7118 35.886 51.3243 35.4282 51.0547C34.9703 50.785 34.4511 50.6426 33.9225 50.6416L29.05 50.6416C28.5213 50.6425 28.0021 50.7849 27.5442 51.0545C27.0864 51.3242 26.7058 51.7117 26.4405 52.1784L24.0059 56.4827C23.7421 56.9504 23.6033 57.4805 23.6033 58.02C23.6033 58.5596 23.7421 59.0897 24.0059 59.5574L26.4405 63.8616C26.7061 64.3288 27.0871 64.7166 27.5456 64.9863C28.0041 65.256 28.5239 65.3981 29.0531 65.3984L33.9225 65.3984C34.4511 65.3975 34.9703 65.2551 35.4282 64.9854C35.886 64.7157 36.2666 64.3283 36.5319 63.8616L38.9666 59.5574C39.2303 59.0897 39.3691 58.5596 39.3691 58.02C39.3691 57.4805 39.2303 56.9504 38.9666 56.4827Z" fill="currentColor"/>
</g>
<defs>
<clipPath id="clip0">
<rect width="115" height="115" fill="white"/>
</clipPath>
</defs>
</svg>
