<svg width="115" height="115" viewBox="0 0 115 115" fill="none" xmlns="http://www.w3.org/2000/svg">
<g clip-path="url(#clip0)">
<path d="M34.2238 62.7921L41.9452 76.226V76.2095C42.7867 77.6641 43.9937 78.8719 45.4458 79.7125C46.8979 80.5531 48.5444 80.997 50.221 81H65.6736C67.3502 80.9973 68.9968 80.5535 70.449 79.7129C71.9012 78.8723 73.1081 77.6643 73.9493 76.2095L81.6707 62.7921C82.5071 61.3344 82.9473 59.6819 82.9473 58C82.9473 56.3181 82.5071 54.6656 81.6707 53.2079L73.9493 39.7905C73.1073 38.3342 71.8988 37.1253 70.4447 36.2846C68.9907 35.4439 67.342 35.0009 65.6637 35H50.221C48.5444 35.003 46.8979 35.4469 45.4458 36.2875C43.9937 37.1281 42.7867 38.3359 41.9452 39.7905L34.2238 53.2079C33.3875 54.6656 32.9473 56.3181 32.9473 58C32.9473 59.6819 33.3875 61.3344 34.2238 62.7921Z" fill="currentColor"/>
</g>
<defs>
<clipPath id="clip0">
<rect width="115" height="115" fill="white"/>
</clipPath>
</defs>
</svg>
