<svg width="116" height="115" viewBox="0 0 116 115" fill="none" xmlns="http://www.w3.org/2000/svg">
<g clip-path="url(#clip0)">
<g clip-path="url(#clip1)">
<path d="M46.3456 35.2179C45.8548 35.2232 45.3737 35.3555 44.9495 35.602C44.5252 35.8485 44.1723 36.2007 43.9252 36.6241L32.5055 56.3357C32.2583 56.7641 32.1281 57.2499 32.1281 57.7443C32.1281 58.2388 32.2583 58.7245 32.5055 59.153L43.901 78.8549C44.1481 79.2783 44.501 79.6305 44.9252 79.877C45.3495 80.1235 45.8306 80.2558 46.3214 80.2611H69.1366C69.6316 80.26 70.1176 80.1296 70.5465 79.8829C70.9753 79.6362 71.3321 79.2818 71.5812 78.8549L82.9767 59.1482C83.224 58.7197 83.3541 58.2339 83.3541 57.7395C83.3541 57.2451 83.224 56.7593 82.9767 56.3308L71.5812 36.6241C71.3321 36.1972 70.9753 35.8428 70.5465 35.5961C70.1176 35.3494 69.6316 35.219 69.1366 35.2179H46.3456ZM34.132 84.5089L22.7366 64.778C21.5022 62.6369 20.8525 60.2098 20.8525 57.7395C20.8525 55.2692 21.5022 52.8421 22.7366 50.701L34.132 30.9943C35.3739 28.8579 37.1552 27.0839 39.2983 25.8493C41.4414 24.6147 43.8713 23.9627 46.3456 23.9583H69.1366C71.6135 23.9596 74.0466 24.6103 76.1926 25.845C78.3385 27.0798 80.122 28.8554 81.3647 30.9943L92.7602 50.701C93.9945 52.8421 94.6442 55.2692 94.6442 57.7395C94.6442 60.2098 93.9945 62.6369 92.7602 64.778L81.3647 84.4847C80.1233 86.6214 78.342 88.3957 76.1988 89.6304C74.0557 90.865 71.6256 91.5168 69.1511 91.5207H46.3456C43.8713 91.5163 41.4414 90.8643 39.2983 89.6297C37.1552 88.3951 35.3739 86.6211 34.132 84.4847" fill="currentColor"/>
</g>
</g>
<defs>
<clipPath id="clip0">
<rect width="115" height="115" fill="white" transform="translate(0.25)"/>
</clipPath>
<clipPath id="clip1">
<rect width="73.7917" height="67.5625" fill="white" transform="translate(20.8545 23.9583)"/>
</clipPath>
</defs>
</svg>
