<svg width="116" height="115" viewBox="0 0 116 115" fill="none" xmlns="http://www.w3.org/2000/svg">
<g clip-path="url(#clip0)">
<g opacity="0.4">
<path d="M-33.5019 95.7447L-10.637 132.436V132.391C-8.14528 136.364 -4.57108 139.663 -0.270991 141.958C4.0291 144.254 8.90474 145.467 13.8695 145.475H59.6285C64.5935 145.468 69.4695 144.256 73.7698 141.96C78.07 139.664 81.6441 136.364 84.135 132.391L107 95.7447C109.477 91.7632 110.78 87.2499 110.78 82.6562C110.78 78.0624 109.477 73.5491 107 69.5676L84.135 32.9215C81.6416 28.9441 78.0629 25.6421 73.7571 23.346C69.4513 21.0498 64.5693 19.84 59.5994 19.8374H13.8695C8.90474 19.8456 4.0291 21.0581 -0.270991 23.3539C-4.57108 25.6497 -8.14528 28.9486 -10.637 32.9215L-33.5019 69.5676C-35.9787 73.5491 -37.2822 78.0624 -37.2822 82.6562C-37.2822 87.2499 -35.9787 91.7632 -33.5019 95.7447Z" fill="currentColor"/>
</g>
<g opacity="0.6">
<path d="M-34.4509 110.269L-17.5797 137.305V137.272C-15.7411 140.199 -13.1039 142.63 -9.93097 144.321C-6.75809 146.013 -3.16053 146.906 0.502786 146.912H34.2667C37.9302 146.907 41.528 146.014 44.701 144.322C47.874 142.63 50.5112 140.199 52.3492 137.272L69.2204 110.269C71.0479 107.335 72.0098 104.01 72.0098 100.625C72.0098 97.24 71.0479 93.9144 69.2204 90.9807L52.3492 63.9783C50.5094 61.0476 47.8688 58.6146 44.6917 56.9227C41.5146 55.2308 37.9123 54.3393 34.2452 54.3374H0.502786C-3.16053 54.3434 -6.75809 55.2369 -9.93097 56.9285C-13.1039 58.6202 -15.7411 61.0509 -17.5797 63.9783L-34.4509 90.9807C-36.2784 93.9144 -37.2402 97.24 -37.2402 100.625C-37.2402 104.01 -36.2784 107.335 -34.4509 110.269Z" fill="currentColor"/>
</g>
<g opacity="0.8">
<path d="M-34.932 117.628L-21.0946 139.772V139.745C-19.5867 142.142 -17.4237 144.133 -14.8213 145.519C-12.219 146.904 -9.26839 147.636 -6.26383 147.641H21.4285C24.4332 147.637 27.3841 146.905 29.9865 145.519C32.5889 144.134 34.7518 142.143 36.2593 139.745L50.0967 117.628C51.5955 115.225 52.3844 112.502 52.3844 109.729C52.3844 106.957 51.5955 104.233 50.0967 101.83L36.2593 79.714C34.7503 77.3136 32.5846 75.3208 29.9789 73.9351C27.3731 72.5493 24.4186 71.8192 21.4109 71.8176H-6.26383C-9.26839 71.8226 -12.219 72.5543 -14.8213 73.9399C-17.4237 75.3254 -19.5867 77.3163 -21.0946 79.714L-34.932 101.83C-36.4309 104.233 -37.2197 106.957 -37.2197 109.729C-37.2197 112.502 -36.4309 115.225 -34.932 117.628Z" fill="currentColor"/>
</g>
<path d="M-22.1727 115.24L-12.4792 130.689V130.67C-11.4228 132.343 -9.90756 133.732 -8.08454 134.698C-6.26152 135.665 -4.1945 136.176 -2.08971 136.179H17.3098C19.4146 136.176 21.4818 135.666 23.3049 134.699C25.128 133.732 26.6432 132.343 27.6992 130.67L37.3928 115.24C38.4428 113.564 38.9954 111.663 38.9954 109.729C38.9954 107.795 38.4428 105.895 37.3928 104.218L27.6992 88.7881C26.6421 87.1134 25.125 85.7232 23.2996 84.7564C21.4741 83.7896 19.4044 83.2801 17.2974 83.2791H-2.08971C-4.1945 83.2825 -6.26152 83.793 -8.08454 84.7597C-9.90756 85.7264 -11.4228 87.1154 -12.4792 88.7881L-22.1727 104.218C-23.2228 105.895 -23.7754 107.795 -23.7754 109.729C-23.7754 111.663 -23.2228 113.564 -22.1727 115.24Z" fill="currentColor"/>
</g>
<defs>
<clipPath id="clip0">
<rect width="115" height="115" fill="white" transform="translate(0.25)"/>
</clipPath>
</defs>
</svg>
