<svg width="117" height="116" viewBox="0 0 117 116" fill="none" xmlns="http://www.w3.org/2000/svg">
<g clip-path="url(#clip0)">
<g clip-path="url(#clip1)">
<path d="M101.32 42.6458C99.1139 42.6468 96.9467 43.2331 95.036 44.3459C93.1253 45.4586 91.5383 47.0586 90.4342 48.9854L82.6048 62.4545C81.7792 63.8751 80.5994 65.053 79.1825 65.871C77.7657 66.689 76.1613 67.1187 74.5288 67.1173H56.9717C55.3269 67.1201 53.7117 67.5595 52.2885 68.3912C50.8653 69.223 49.684 70.4178 48.8635 71.8558L25.9439 111.884C25.1221 113.32 24.6895 114.949 24.6895 116.607C24.6895 118.265 25.1221 119.893 25.9439 121.329L34.7063 136.637C35.5287 138.072 36.7109 139.263 38.1342 140.091C39.5574 140.919 41.1716 141.355 42.8145 141.354H88.6538C90.2968 141.355 91.9109 140.919 93.3342 140.091C94.7574 139.263 95.9396 138.072 96.762 136.637L105.342 121.61C106.164 120.174 107.346 118.982 108.769 118.152C110.192 117.322 111.807 116.884 113.45 116.883H131.147C132.79 116.883 134.404 116.447 135.827 115.619C137.25 114.792 138.433 113.6 139.255 112.166L148.028 96.8575C148.85 95.4217 149.283 93.793 149.283 92.1352C149.283 90.4773 148.85 88.8486 148.028 87.4129L125.098 47.3843C124.279 45.9425 123.097 44.7448 121.671 43.9126C120.245 43.0804 118.626 42.6434 116.979 42.6458H101.32Z" fill="currentColor"/>
</g>
<g clip-path="url(#clip2)">
<path d="M99.7946 -24.569C98.4496 -26.896 96.511 -28.8253 94.1732 -30.1634C91.8354 -31.5014 89.1807 -32.2011 86.4755 -32.1923L67.4965 -32.2482C65.4949 -32.2539 63.5336 -32.7812 61.8076 -33.7777C60.0816 -34.7742 58.651 -36.2052 57.6581 -37.9283L46.9639 -56.4512C45.9591 -58.1848 44.5117 -59.6212 42.7673 -60.6161C41.0229 -61.611 39.0428 -62.1293 37.026 -62.1191L-19.1651 -61.9178C-21.1803 -61.9102 -23.1621 -61.3746 -24.9112 -60.3648C-26.6602 -59.355 -28.115 -57.9065 -29.1292 -56.165L-39.9422 -37.5961C-40.9548 -35.8546 -41.4914 -33.8818 -41.498 -31.876C-41.5046 -29.8702 -40.981 -27.9019 -39.9797 -26.1688L-12.0586 22.192C-11.0584 23.9256 -9.6156 25.3632 -7.8752 26.3604C-6.13479 27.3576 -4.15804 27.8793 -2.14349 27.8731L18.9363 27.7721C20.9519 27.7646 22.93 28.2849 24.6723 29.2809C26.4146 30.2769 27.8598 31.7135 28.8628 33.4467L39.6419 52.1166C40.6422 53.8502 42.0849 55.2879 43.8253 56.2851C45.5657 57.2823 47.5425 57.804 49.557 57.7977L71.0512 57.7291C73.0664 57.7216 75.0482 57.186 76.7973 56.1762C78.5464 55.1663 80.0011 53.7179 81.0153 51.9763L109.279 3.40287C110.301 1.66069 110.844 -0.316223 110.854 -2.32739C110.863 -4.33856 110.338 -6.31246 109.332 -8.04894L99.7946 -24.569Z" fill="currentColor"/>
</g>
<g clip-path="url(#clip3)">
<path d="M28.3981 47.306C27.0531 44.979 25.1145 43.0497 22.7767 41.7116C20.439 40.3736 17.7843 39.6739 15.079 39.6827L-3.89993 39.6268C-5.90156 39.6211 -7.86289 39.0938 -9.5889 38.0973C-11.3149 37.1008 -12.7455 35.6698 -13.7384 33.9467L-24.4326 15.4238C-25.4374 13.6902 -26.8847 12.2538 -28.6292 11.2589C-30.3736 10.264 -32.3536 9.74567 -34.3705 9.75588L-90.5615 9.95725C-92.5768 9.9648 -94.5586 10.5004 -96.3077 11.5102C-98.0567 12.52 -99.5115 13.9685 -100.526 15.71L-111.339 34.2789C-112.351 36.0204 -112.888 37.9932 -112.894 39.999C-112.901 42.0048 -112.377 43.9731 -111.376 45.7062L-83.4551 94.067C-82.4549 95.8006 -81.0121 97.2382 -79.2717 98.2354C-77.5313 99.2326 -75.5545 99.7543 -73.54 99.7481L-52.4602 99.6471C-50.4446 99.6396 -48.4665 100.16 -46.7242 101.156C-44.9819 102.152 -43.5367 103.589 -42.5337 105.322L-31.7546 123.992C-30.7543 125.725 -29.3116 127.163 -27.5711 128.16C-25.8307 129.157 -23.854 129.679 -21.8394 129.673L-0.345329 129.604C1.66996 129.597 3.65174 129.061 5.4008 128.051C7.14987 127.041 8.60459 125.593 9.61878 123.851L37.8821 75.2779C38.9044 73.5357 39.4478 71.5588 39.4573 69.5476C39.4668 67.5364 38.9419 65.5625 37.936 63.8261L28.3981 47.306Z" fill="currentColor"/>
</g>
</g>
<defs>
<clipPath id="clip0">
<rect width="116" height="116" fill="white" transform="translate(0.25)"/>
</clipPath>
<clipPath id="clip1">
<rect width="124.583" height="98.7083" fill="white" transform="translate(24.6875 42.6458)"/>
</clipPath>
<clipPath id="clip2">
<rect width="151.77" height="120.248" fill="white" transform="translate(53.1172 -105.417) rotate(60)"/>
</clipPath>
<clipPath id="clip3">
<rect width="151.77" height="120.248" fill="white" transform="translate(-18.2793 -33.5417) rotate(60)"/>
</clipPath>
</defs>
</svg>
