<svg width="36" height="35" viewBox="0 0 36 35" fill="none" xmlns="http://www.w3.org/2000/svg">
<g clip-path="url(#clip0)">
<path d="M21.2373 35V29.3302C21.4836 29.3278 21.725 29.2612 21.9379 29.1371C22.1508 29.013 22.3278 28.8355 22.4516 28.6221L29.8028 15.864C30.4259 14.7855 31.3212 13.8902 32.3988 13.2679C33.4764 12.6456 34.6983 12.3182 35.9421 12.3186V17.9908C35.6957 17.9927 35.4541 18.0591 35.2411 18.1833C35.0282 18.3075 34.8512 18.4852 34.7278 18.6989L27.3766 31.457C26.7542 32.5328 25.8611 33.4261 24.7863 34.0478C23.7116 34.6695 22.4929 34.9978 21.2519 35" fill="currentColor"/>
<path d="M0 34.9998V29.3301C0.246345 29.3279 0.487871 29.2615 0.700791 29.1373C0.91371 29.0131 1.09068 28.8355 1.21427 28.622L15.1006 4.53171C15.723 3.45252 16.6176 2.55623 17.6947 1.93269C18.7718 1.30915 19.9936 0.980262 21.2376 0.979004V6.64874C20.9913 6.65141 20.75 6.71807 20.5371 6.84218C20.3243 6.9663 20.1472 7.14363 20.0233 7.35685L6.13691 31.4471C5.51489 32.5266 4.62038 33.4232 3.54319 34.0468C2.46601 34.6704 1.24405 34.9991 0 34.9998" fill="currentColor"/>
</g>
<defs>
<clipPath id="clip0">
<rect width="35.9375" height="34.0208" fill="white" transform="translate(0 0.979004)"/>
</clipPath>
</defs>
</svg>
