<svg width="32" height="32" viewBox="0 0 32 32" fill="none" xmlns="http://www.w3.org/2000/svg">
<rect width="32" height="32" rx="4" fill="#40E5A1"/>
<path fill-rule="evenodd" clip-rule="evenodd" d="M15.2506 8.70418C15.7167 8.43194 16.2833 8.43194 16.7493 8.70418L24.373 13.1579C25.4312 13.776 25.4312 15.3764 24.373 15.9945L22.1719 17.2804V20.7236C22.1719 21.064 22.0706 21.3967 21.831 21.6256C21.1595 22.2674 19.4239 23.5 16 23.5C12.5761 23.5 10.8405 22.2674 10.169 21.6256C9.92941 21.3967 9.82809 21.064 9.82809 20.7236V17.2804L7.627 15.9945C6.56875 15.3764 6.56875 13.776 7.627 13.1579L15.2506 8.70418ZM16 10.1225L23.6237 14.5762L16 19.0299L8.37627 14.5762L16 10.1225ZM11.3711 18.1818V20.5705C11.918 21.0227 13.2983 21.8775 16 21.8775C18.7017 21.8775 20.0819 21.0227 20.6289 20.5705V18.1818L16.7493 20.4483C16.2833 20.7205 15.7167 20.7205 15.2506 20.4483L11.3711 18.1818Z" fill="white"/>
</svg>
