<svg width="150" height="150" viewBox="0 0 150 150" fill="none" xmlns="http://www.w3.org/2000/svg">
<mask id="mask0" mask-type="alpha" maskUnits="userSpaceOnUse" x="24" y="11" width="102" height="128">
<path d="M56.5169 127.496C76.3718 134.814 98.4127 124.576 105.746 104.629C115.646 77.7017 80.4324 62.4453 93.5289 26.823C98.8725 12.2887 67.9624 34.9825 48.9941 57.0138C13.6744 98.0365 46.4604 123.79 56.5169 127.496Z" fill="black"/>
</mask>
<g mask="url(#mask0)">
<path d="M98.2006 110.77C74.6582 86.6636 30.5037 41.8328 30.2031 39.5788L45.418 28.1206L114.918 1.4476L132.951 61.9315L98.2006 110.77Z" fill="#00DC82"/>
<path d="M31.518 121.101C24.9437 108.515 111.349 106.637 113.603 106.449L91.2506 135.376C73.5312 134.813 36.7775 131.169 31.518 121.101Z" fill="#003C3C"/>
<path d="M79.4692 67.0967C54.3112 63.6301 46.739 36.2937 46.0976 23.0588C39.6538 41.3851 -22.2732 88.5352 22.5611 108.555C67.3955 128.574 52.3002 100.517 97.7756 115.885C127.316 125.867 110.917 71.4298 79.4692 67.0967Z" fill="#032A2A"/>
</g>
</svg>
