<svg width="150" height="150" viewBox="0 0 150 150" fill="none" xmlns="http://www.w3.org/2000/svg">
<path d="M80.7377 94.362C77.1457 90.0786 77.7061 83.6944 81.9894 80.1023C86.2727 76.5103 92.657 77.0707 96.249 81.354L131.121 122.936C134.713 127.22 134.152 133.604 129.869 137.196C125.586 140.788 119.201 140.228 115.609 135.944L80.7377 94.362Z" fill="#00DC82"/>
<path fill-rule="evenodd" clip-rule="evenodd" d="M58.65 85.2C76.7926 85.2 91.5 70.4925 91.5 52.35C91.5 34.2074 76.7926 19.5 58.65 19.5C40.5075 19.5 25.8 34.2074 25.8 52.35C25.8 70.4925 40.5075 85.2 58.65 85.2ZM58.65 98.7C84.2484 98.7 105 77.9484 105 52.35C105 26.7516 84.2484 6 58.65 6C33.0516 6 12.3 26.7516 12.3 52.35C12.3 77.9484 33.0516 98.7 58.65 98.7Z" fill="#00DC82"/>
<rect x="50.7223" y="33.5681" width="7.68649" height="25.491" rx="3.84324" transform="rotate(42.9771 50.7223 33.5681)" fill="#003C3C"/>
<rect x="55.7206" y="66.0981" width="7.68636" height="25.491" rx="3.84318" transform="rotate(139.255 55.7206 66.0981)" fill="#003C3C"/>
<rect width="7.56619" height="25.491" rx="3.78309" transform="matrix(-0.731627 0.681706 0.681706 0.731626 66.6385 33.5681)" fill="#003C3C"/>
<rect width="7.63459" height="25.491" rx="3.8173" transform="matrix(0.757618 0.652698 0.652698 -0.757618 61.5825 66.0981)" fill="#003C3C"/>
</svg>
