<svg width="150" height="150" viewBox="0 0 150 150" fill="none" xmlns="http://www.w3.org/2000/svg">
<path d="M70.4241 9.4331C73.0016 6.85564 77.1805 6.85563 79.7579 9.43309L99.5969 29.272C102.174 31.8495 102.174 36.0284 99.5969 38.6058L79.7579 58.4448C77.1805 61.0222 73.0016 61.0222 70.4241 58.4448L50.5852 38.6058C48.0077 36.0284 48.0077 31.8495 50.5852 29.272L70.4241 9.4331Z" fill="#00DC82"/>
<path d="M107.376 54.6993C109.954 52.1218 114.133 52.1218 116.71 54.6993L136.549 74.5382C139.126 77.1157 139.126 81.2946 136.549 83.872L116.71 103.711C114.133 106.288 109.954 106.288 107.376 103.711L87.5373 83.872C84.9599 81.2946 84.9599 77.1157 87.5373 74.5382L107.376 54.6993Z" fill="#003C3C"/>
<path d="M70.4241 91.6514C73.0016 89.074 77.1805 89.074 79.7579 91.6514L99.5969 111.49C102.174 114.068 102.174 118.247 99.5969 120.824L79.7579 140.663C77.1805 143.241 73.0016 143.241 70.4241 140.663L50.5852 120.824C48.0077 118.247 48.0077 114.068 50.5852 111.49L70.4241 91.6514Z" fill="#003C3C"/>
<path d="M33.472 54.6993C36.0494 52.1218 40.2283 52.1218 42.8058 54.6993L62.6447 74.5382C65.2222 77.1157 65.2222 81.2946 62.6447 83.872L42.8058 103.711C40.2283 106.288 36.0494 106.288 33.472 103.711L13.633 83.872C11.0556 81.2946 11.0556 77.1157 13.633 74.5382L33.472 54.6993Z" fill="#003C3C"/>
</svg>
