<svg width="150" height="150" viewBox="0 0 150 150" fill="none" xmlns="http://www.w3.org/2000/svg">
<path fill-rule="evenodd" clip-rule="evenodd" d="M146.934 110.367C146.934 89.825 138.327 71.2932 124.524 58.1808C120.678 54.4344 116.988 51.669 114.074 49.9428L94.4578 80.252C104.314 86.6443 110.835 97.7441 110.835 110.367L146.934 110.367Z" fill="#00DC82"/>
<path fill-rule="evenodd" clip-rule="evenodd" d="M35.8595 49.9428C47.1188 42.6406 60.5476 38.4 74.9669 38.4C89.3862 38.4 102.815 42.6406 114.074 49.9428L94.4577 80.252C88.8462 76.6126 82.1534 74.4991 74.9669 74.4991C67.7804 74.4991 61.0876 76.6126 55.4761 80.252L35.8595 49.9428Z" fill="#00C171"/>
<path fill-rule="evenodd" clip-rule="evenodd" d="M3 110.394C3 85.0674 16.083 62.7962 35.8595 49.9702L55.4635 80.2601C45.6141 86.6537 39.0991 97.7495 39.0991 110.367C39.0991 110.376 39.0991 110.385 39.0992 110.394H3Z" fill="#003C3C"/>
<path d="M70.3282 107.112C68.8699 104.468 69.8312 101.142 72.4755 99.6836L105.52 81.4591C108.164 80.0007 111.49 80.9621 112.949 83.6064V83.6064C114.407 86.2507 113.446 89.5765 110.801 91.0349L77.7567 109.259C75.1124 110.718 71.7866 109.756 70.3282 107.112V107.112Z" fill="#003C3C"/>
</svg>
