<svg width="150" height="150" viewBox="0 0 150 150" fill="none" xmlns="http://www.w3.org/2000/svg">
<mask id="mask0" mask-type="alpha" maskUnits="userSpaceOnUse" x="17" y="9" width="120" height="132">
<path fill-rule="evenodd" clip-rule="evenodd" d="M74.3057 9.9536C67.1851 9.47816 55.2545 12.1616 44.1907 18.1719C33.0207 24.2399 21.8826 34.1642 17.503 48.8607C16.7455 51.4026 18.1921 54.0774 20.734 54.835C23.276 55.5925 25.9508 54.1459 26.7083 51.6039C30.1147 40.1734 38.9404 31.9554 48.7759 26.6123C58.7176 21.2115 68.834 19.2151 73.6658 19.5377C76.3124 19.7144 78.6011 17.7122 78.7778 15.0656C78.9545 12.419 76.9523 10.1303 74.3057 9.9536ZM102.805 38.3255C89.2906 36.026 69.5957 36.6913 55.5634 47.7041C40.9424 59.1789 34.2322 80.3465 43.8335 114.998C44.5417 117.554 47.1881 119.052 49.7442 118.344C52.3004 117.636 53.7984 114.989 53.0901 112.433C44.0314 79.7396 51.1504 63.3779 61.4936 55.2603C72.4254 46.6809 88.8295 45.691 101.194 47.7948C103.809 48.2397 106.29 46.4806 106.734 43.8657C107.179 41.2508 105.42 38.7704 102.805 38.3255ZM121.824 66.3473C114.313 60.51 103.112 54.6756 91.5415 53.6668C85.687 53.1563 79.6068 53.8738 73.897 56.597C68.1558 59.3352 63.0875 63.9604 59.0852 70.7776C57.2703 73.869 56.0578 77.4131 55.8167 81.1688C54.8391 96.3978 60.9942 127.941 93.6903 139.861C96.1824 140.769 98.939 139.486 99.8475 136.993C100.756 134.501 99.4723 131.745 96.9803 130.836C69.9823 120.994 64.5618 94.8794 65.4024 81.7841C65.5362 79.6998 66.2208 77.5958 67.3686 75.6407C70.5043 70.2997 74.2008 67.094 78.0319 65.2668C81.8944 63.4247 86.1939 62.8423 90.7071 63.2359C99.872 64.035 109.358 68.824 115.93 73.9316C118.024 75.5593 121.041 75.181 122.669 73.0866C124.297 70.9923 123.918 67.975 121.824 66.3473ZM83.6776 70.055C90.6898 67.5528 97.823 69.934 102.08 73.1513C103.669 74.1209 105.395 75.4936 106.92 76.707L106.92 76.7071C107.323 77.0269 107.711 77.3357 108.079 77.6231C110.156 79.2443 112.079 80.6092 114.001 81.4653C117.074 82.8346 120.45 83.717 123.739 84.3868C125.308 84.7064 126.812 84.9689 128.252 85.2203L128.253 85.2206L128.446 85.2542C129.902 85.5084 131.364 85.7653 132.622 86.0527C135.208 86.6438 136.825 89.2192 136.234 91.8049C135.643 94.3907 133.067 96.0077 130.481 95.4166C129.513 95.1952 128.308 94.981 126.794 94.7164L126.571 94.6775C125.152 94.4298 123.528 94.1464 121.822 93.7991C118.24 93.0696 114.088 92.0197 110.092 90.2394C107.027 88.8741 104.326 86.8789 102.168 85.1944C101.587 84.7411 101.06 84.323 100.575 83.9383L100.574 83.9374L100.573 83.9373C99.0642 82.7408 97.9638 81.8684 96.9462 81.2726L96.6634 81.1071L96.4057 80.9047C94.0751 79.0739 90.197 77.9273 86.9057 79.1017C83.3101 80.3847 81.442 83.7083 81.7911 89.013C82.145 94.3904 84.8701 100.428 88.844 104.298C95.8762 111.147 106.561 117.674 121.783 119.669C124.413 120.013 126.265 122.425 125.921 125.055C125.576 127.685 123.164 129.537 120.534 129.193C103.074 126.904 90.5213 119.34 82.1425 111.18C76.4463 105.633 72.7141 97.3584 72.2064 89.6438C71.694 81.8565 74.5601 73.3083 83.6776 70.055ZM95.465 86.5369C93.9689 84.3466 90.9806 83.7838 88.7903 85.2799C86.6 86.7759 86.0372 89.7643 87.5332 91.9546C92.6101 99.3874 100.238 103.923 107.596 106.643C114.973 109.37 122.468 110.421 127.866 110.633C130.516 110.737 132.749 108.673 132.854 106.022C132.958 103.372 130.893 101.139 128.243 101.035C123.621 100.853 117.16 99.9376 110.926 97.633C104.672 95.321 99.0317 91.7588 95.465 86.5369ZM90.4108 22.44C78.0617 22.44 59.1112 24.8827 44.7841 36.4651C29.9988 48.4179 21.2842 69.1205 27.7952 102.991C28.2959 105.596 30.8134 107.302 33.4182 106.801C36.0229 106.3 37.7286 103.783 37.2279 101.178C31.1985 69.8124 39.4934 53.0939 50.8229 43.9348C62.6105 34.4054 78.8798 32.0454 90.4108 32.0454C93.0633 32.0454 95.2135 29.8951 95.2135 27.2427C95.2135 24.5902 93.0633 22.44 90.4108 22.44Z" fill="#00DC82"/>
</mask>
<g mask="url(#mask0)">
<path d="M108.955 43.2517C108.741 58.8338 72.9343 140.373 20.2379 120.228L12.3668 55.2584L20.2379 30.1777L33.5788 17.3704L69.4657 3.62937L79.4713 12.7011C87.209 15.5027 109.168 27.6696 108.955 43.2517Z" fill="#003C3C"/>
<path d="M167.387 143.708L70.2661 140.773L40.3826 134.236L50.1214 125.698C64.0914 127.651 47.1587 77.1692 57.1921 75.1363C57.1921 68.0657 57.8398 60.9378 64.1293 56.8594C70.1171 52.9766 80.3729 55.4679 84.0072 50.5892C89.1052 43.7455 108.933 57.0813 110.155 50.5892V35.3806L132.434 39.7831L167.387 143.708Z" fill="#00DC82"/>
</g>
</svg>
