<svg xmlns="http://www.w3.org/2000/svg" viewBox="0 0 1822.667 253.333"><defs><clipPath clipPathUnits="userSpaceOnUse" id="a"><path d="M0 190h1367V0H0z"/></clipPath></defs><g clip-path="url(#a)" transform="matrix(1.33333 0 0 -1.33333 0 253.333)"><path d="M99.751 36.904c-24.634 0-44.604 19.97-44.604 44.604 0 10.67 3.75 25.045 9.999 37.92l5.264-1.094 4.023-7.895a.968.968 0 011.139-.488l.09.027c4.178 1.253 8.332 2.576 12.487 3.894l10.316-9.137a1.918 1.918 0 012.34-.156l.232.156c3.638 2.444 7.1 5.103 10.475 7.864 3.936-1.365 7.919-2.597 11.921-3.775l.255-.076a2.07 2.07 0 012.447 1.088 215.402 215.402 0 013.604 7.854c1.586.451 3.162.97 4.738 1.483 6.174-12.81 9.878-27.066 9.878-37.665 0-24.634-19.97-44.604-44.604-44.604m-1.257 117.511c13.665.72 26.608-12.325 35.643-28.277-1.805-.115-3.615-.202-5.405-.389a1.135 1.135 0 01-.831-.51l-.175-.272c-1.296-2.012-2.508-4.065-3.722-6.118-3.874 1.356-7.758 2.675-11.696 3.814a2.704 2.704 0 01-2.57-.6c-3.191-2.932-6.256-6-9.186-9.216l-10.515 7.301-.084.058a1.45 1.45 0 01-1.422.13c-4.007-1.81-8.013-3.62-11.998-5.486l-4.726 6.75-.034.046a.567.567 0 01-.425.238l-5.461.355c7.3 16.947 18.859 31.451 32.607 32.176m69.703 26.06H31.306c-9.033 0-16.355-7.323-16.355-16.356V27.23c0-9.033 7.322-16.355 16.355-16.355h136.891c9.032 0 16.354 7.322 16.354 16.354V164.12c0 9.033-7.322 16.355-16.354 16.355m118.545-80.001c10.374 0 15.561 4.476 15.561 13.433 0 9.044-5.187 13.566-15.56 13.566h-19.685v-27zM249.103 51.53c-1.862 1.862-2.793 4.389-2.793 7.58v74.48c0 3.104.842 5.498 2.527 7.183 1.683 1.683 4.077 2.527 7.182 2.527h33.383c10.195 0 18.132-2.573 23.807-7.714 5.673-5.143 8.512-12.325 8.512-21.546 0-9.223-2.839-16.405-8.512-21.546-5.675-5.144-13.612-7.714-23.807-7.714h-22.344V59.11c0-3.191-.93-5.718-2.793-7.58-1.862-1.862-4.389-2.793-7.58-2.793-3.193 0-5.72.93-7.582 2.793M350.45 85.977h30.988l-15.428 34.58zm63.174-28.063c0-2.483-.998-4.588-2.992-6.317-1.995-1.73-4.28-2.594-6.85-2.594-1.686 0-3.28.466-4.788 1.396-1.509.932-2.66 2.328-3.458 4.19l-7.049 15.694H343.4l-7.049-15.694c-.798-1.862-1.928-3.258-3.392-4.19-1.463-.93-3.08-1.396-4.854-1.396-2.573 0-4.878.865-6.916 2.594-2.04 1.729-3.059 3.834-3.059 6.317 0 1.24.353 2.66 1.064 4.256l35.91 75.41c.974 2.129 2.438 3.746 4.39 4.855a12.451 12.451 0 006.25 1.663c2.305 0 4.433-.578 6.384-1.73 1.95-1.152 3.458-2.748 4.522-4.787l35.91-75.411c.708-1.596 1.064-3.015 1.064-4.256m64.371 46.882c2.66 2.082 3.99 5.34 3.99 9.775 0 4.522-1.33 7.802-3.99 9.842-2.66 2.04-6.962 3.06-12.9 3.06h-19.818V101.67h19.817c5.94 0 10.241 1.041 12.901 3.125m25.935-47.813c0-2.484-.998-4.523-2.993-6.119-1.995-1.596-4.322-2.394-6.982-2.394-1.686 0-3.325.4-4.92 1.197-1.597.798-2.927 2.04-3.99 3.724l-17.558 26.07c-1.509 2.305-3.105 3.967-4.788 4.988-1.685 1.018-3.813 1.53-6.384 1.53h-10.773V59.11c0-3.192-.91-5.719-2.727-7.58-1.818-1.863-4.279-2.794-7.38-2.794-3.193 0-5.72.931-7.582 2.793s-2.793 4.39-2.793 7.581v74.48c0 3.103.842 5.497 2.527 7.182 1.683 1.684 4.077 2.527 7.182 2.527h33.383c10.993 0 19.306-2.417 24.937-7.248 5.63-4.834 8.446-11.817 8.446-20.948 0-7.182-1.995-13.167-5.985-17.955-3.99-4.788-9.622-7.936-16.89-9.443 2.66-.532 5.03-1.575 7.114-3.125 2.083-1.553 4.1-3.79 6.052-6.717l10.108-15.162c1.33-1.95 1.995-3.857 1.995-5.718m16.891-4.921c-1.686 1.684-2.528 4.078-2.528 7.182v74.346c0 3.103.842 5.497 2.527 7.182 1.684 1.684 4.077 2.527 7.182 2.527h47.083c6.56 0 9.841-2.66 9.841-7.98 0-5.409-3.28-8.113-9.84-8.113h-36.577v-21.945h33.915c6.561 0 9.842-2.705 9.842-8.113 0-5.32-3.28-7.98-9.842-7.98h-33.915v-23.54h36.576c6.56 0 9.841-2.707 9.841-8.114 0-5.32-3.28-7.98-9.84-7.98H528c-3.105 0-5.498.842-7.182 2.527m155.012 89.044c1.815-1.908 2.726-4.368 2.726-7.381V59.111c0-3.105-.91-5.609-2.727-7.515-1.818-1.908-4.189-2.859-7.116-2.859-3.192 0-5.764 1.151-7.713 3.458l-44.555 57.056v-50.14c0-3.105-.865-5.609-2.594-7.515-1.729-1.908-4.056-2.859-6.982-2.859-2.927 0-5.277.951-7.049 2.859-1.775 1.906-2.66 4.41-2.66 7.515v74.613c0 3.013.908 5.473 2.727 7.381 1.815 1.906 4.19 2.86 7.115 2.86 3.28 0 5.806-1.153 7.58-3.458l44.556-56.658v49.875c0 3.013.885 5.473 2.66 7.381 1.772 1.906 4.077 2.86 6.915 2.86 2.927 0 5.298-.954 7.116-2.86m45.885-89.442c-1.908 1.862-2.86 4.343-2.86 7.448v67.298H697.31c-6.564 0-9.843 2.837-9.843 8.512 0 5.586 3.279 8.379 9.843 8.379h63.84c6.56 0 9.84-2.793 9.84-8.38 0-5.674-3.28-8.511-9.84-8.511h-21.546V59.11c0-3.105-.932-5.586-2.793-7.448-1.863-1.862-4.39-2.793-7.581-2.793-3.106 0-5.61.93-7.515 2.793m109.522-.864c-6.03 1.64-10.952 3.967-14.763 6.982-1.33.975-2.284 2.016-2.859 3.126-.578 1.107-.865 2.504-.865 4.19 0 2.215.686 4.166 2.061 5.851 1.374 1.684 2.947 2.527 4.722 2.527.975 0 1.93-.155 2.86-.465.931-.312 2.061-.865 3.391-1.663 3.811-2.394 7.668-4.146 11.571-5.253 3.901-1.11 8.2-1.663 12.901-1.663 5.852 0 10.33.975 13.433 2.926 3.103 1.95 4.655 4.743 4.655 8.38 0 2.747-1.442 4.964-4.323 6.65-2.882 1.683-8.003 3.28-15.36 4.787-8.247 1.684-14.83 3.724-19.75 6.118-4.922 2.394-8.514 5.364-10.775 8.911-2.26 3.546-3.39 7.847-3.39 12.901 0 5.586 1.616 10.617 4.853 15.096 3.236 4.476 7.714 7.98 13.434 10.507 5.72 2.527 12.17 3.79 19.351 3.79 12.59 0 22.963-3.148 31.122-9.443 1.33-1.064 2.282-2.15 2.86-3.258.575-1.11.864-2.46.864-4.057 0-2.217-.688-4.169-2.06-5.852-1.377-1.685-2.95-2.526-4.723-2.526-.977 0-1.885.132-2.727.398-.843.267-2.017.842-3.524 1.73-3.637 2.304-6.982 4.033-10.04 5.186-3.06 1.152-6.94 1.73-11.639 1.73-5.409 0-9.666-1.044-12.768-3.126-3.105-2.084-4.655-4.944-4.655-8.579 0-2.128.598-3.88 1.795-5.253 1.198-1.376 3.193-2.594 5.986-3.658 2.793-1.064 6.76-2.174 11.903-3.324 12.058-2.66 20.726-6.075 26.002-10.242 5.273-4.169 7.913-9.887 7.913-17.157 0-5.675-1.575-10.685-4.722-15.029-3.148-4.345-7.58-7.714-13.299-10.108-5.719-2.394-12.349-3.59-19.884-3.59-7.005 0-13.523.82-19.55 2.46m91.236 3.392c-6.916 3.9-12.236 9.487-15.96 16.758-3.725 7.269-5.586 15.782-5.586 25.536 0 9.753 1.86 18.242 5.586 25.47 3.724 7.225 9.044 12.789 15.96 16.69 6.916 3.901 14.983 5.852 24.206 5.852 11.614 0 21.633-3.192 30.058-9.576 1.33-1.063 2.26-2.127 2.793-3.191.532-1.065.797-2.395.797-3.99 0-2.307-.643-4.279-1.928-5.919-1.286-1.641-2.86-2.46-4.721-2.46-1.243 0-2.328.153-3.26.465-.93.31-1.973.864-3.125 1.662-3.547 2.306-6.828 3.968-9.841 4.989-3.016 1.017-6.251 1.528-9.71 1.528-8.511 0-14.918-2.638-19.218-7.912-4.302-5.277-6.45-13.147-6.45-23.608 0-21.103 8.555-31.654 25.669-31.654 3.279 0 6.383.509 9.31 1.53 2.926 1.018 6.338 2.68 10.24 4.987 1.33.798 2.439 1.35 3.326 1.663.885.308 1.906.464 3.059.464 1.86 0 3.435-.82 4.72-2.46 1.286-1.641 1.929-3.613 1.929-5.918 0-1.596-.29-2.948-.864-4.056-.578-1.11-1.486-2.151-2.726-3.126-8.425-6.384-18.444-9.576-30.058-9.576-9.223 0-17.29 1.95-24.206 5.852m152.416 86.982c1.862-1.862 2.794-4.346 2.794-7.448V59.11c0-3.105-.932-5.61-2.793-7.515-1.862-1.907-4.346-2.86-7.448-2.86-3.105 0-5.566.932-7.382 2.794-1.818 1.862-2.727 4.389-2.727 7.58v29.793h-43.224V59.11c0-3.105-.932-5.61-2.793-7.515-1.863-1.907-4.302-2.86-7.316-2.86-3.104 0-5.586.932-7.448 2.794-1.861 1.862-2.793 4.389-2.793 7.58v74.614c0 3.102.932 5.586 2.793 7.448 1.862 1.862 4.344 2.793 7.448 2.793 3.103 0 5.564-.931 7.382-2.793 1.817-1.862 2.727-4.346 2.727-7.448v-28.33h43.224v28.33c0 3.102.909 5.586 2.727 7.448 1.816 1.862 4.277 2.793 7.382 2.793 3.102 0 5.586-.931 7.448-2.793m23.939-89.109c-1.687 1.684-2.528 4.078-2.528 7.182v74.346c0 3.103.841 5.497 2.527 7.182 1.684 1.684 4.077 2.527 7.182 2.527h47.082c6.561 0 9.842-2.66 9.842-7.98 0-5.409-3.28-8.113-9.842-8.113h-36.575v-21.945h33.915c6.561 0 9.842-2.705 9.842-8.113 0-5.32-3.28-7.98-9.842-7.98h-33.915v-23.54h36.575c6.561 0 9.842-2.707 9.842-8.114 0-5.32-3.28-7.98-9.842-7.98h-47.082c-3.105 0-5.498.842-7.182 2.527m166.714 89.044c1.816-1.908 2.727-4.368 2.727-7.381V58.18c0-2.926-.844-5.233-2.528-6.916-1.685-1.686-3.902-2.527-6.649-2.527-2.66 0-4.834.841-6.518 2.527-1.685 1.683-2.526 3.99-2.526 6.916v46.949l-18.887-35.511c-1.242-2.307-2.593-3.991-4.057-5.055-1.462-1.063-3.214-1.595-5.252-1.595-1.952 0-3.681.532-5.188 1.595-1.509 1.064-2.882 2.748-4.123 5.055l-18.886 34.846V58.18c0-2.839-.843-5.121-2.527-6.85-1.685-1.729-3.902-2.593-6.649-2.593-2.661 0-4.834.841-6.518 2.527-1.685 1.683-2.526 3.99-2.526 6.916v75.544c0 3.013.908 5.473 2.726 7.381 1.817 1.906 4.19 2.86 7.115 2.86 4.256 0 7.492-2.261 9.709-6.783l26.999-51.205 26.867 51.205c2.393 4.522 5.586 6.783 9.576 6.783 2.926 0 5.297-.954 7.115-2.86m24.139-89.043c-1.686 1.684-2.527 4.078-2.527 7.182v74.346c0 3.103.84 5.497 2.527 7.182 1.684 1.684 4.077 2.527 7.182 2.527h47.082c6.56 0 9.842-2.66 9.842-7.98 0-5.409-3.281-8.113-9.842-8.113h-36.575v-21.945h33.915c6.56 0 9.842-2.705 9.842-8.113 0-5.32-3.281-7.98-9.842-7.98h-33.915v-23.54h36.575c6.56 0 9.842-2.707 9.842-8.114 0-5.32-3.281-7.98-9.842-7.98h-47.082c-3.105 0-5.498.842-7.182 2.527" fill="#fff"/></g></svg>