<?xml version="1.0" encoding="UTF-8"?>
<svg width="452px" height="342px" viewBox="0 0 452 342" version="1.1" xmlns="http://www.w3.org/2000/svg" xmlns:xlink="http://www.w3.org/1999/xlink">
    <!-- Generator: Sketch 53.1 (72631) - https://sketchapp.com -->
    <title>Logo</title>
    <desc>Created with Sketch.</desc>
    <g id="Page-1" stroke="none" stroke-width="1" fill="none" fill-rule="evenodd">
        <g id="Logo" transform="translate(-36.000000, -59.000000)">
            <path d="M0,362.302857 L138.300952,362.302857 C139.092175,357.054494 140.783008,351.981996 143.299048,347.308571 L273.005714,119.224762 L205.531429,0.611428571 L0,362.302857 Z" id="Path"></path>
            <path d="M447.634286,362.302857 L512,362.302857 L343.04,65.2819048 L312.56381,119.224762 L442.026667,347.308571 C444.785788,351.927131 446.685653,357.007204 447.634286,362.302857 Z" id="Path"></path>
            <path d="M175.213557,389.346742 C174.875502,388.743491 174.57443,388.119886 174.312037,387.479439 C172.492086,383.23077 171.931723,378.540819 172.698791,373.977406 L65.0383568,373.977406 L225.034384,89.860138 L292.353892,211.038889 L313.587404,195.020613 L247.002996,74.4429219 C245.721889,72.0968238 237.987799,59.552381 224.654796,59.552381 C218.628849,59.552381 209.993239,62.1857564 202.970875,74.6344401 L40.8871179,362.199035 C39.5111141,364.688772 32.8208887,377.75989 39.4636657,389.346742 C42.5003637,394.613493 48.953347,400.885714 63.1878689,400.885714 L198.93776,400.885714 C184.798135,400.885714 178.250255,394.709252 175.213557,389.346742 Z" id="Path" fill="#00C58E"></path>
            <path d="M482.895676,362.739247 L352.593197,129.280981 C351.247001,126.82601 343.726873,114.409524 330.636278,114.409524 C324.740868,114.409524 316.292329,116.958916 309.422088,129.23377 L292.313748,157.084785 L292.313748,210.883643 L330.77554,144.29407 L459.685402,374.353147 L410.665303,374.353147 C411.292568,378.15635 410.940729,382.059942 409.644051,385.683781 C409.370964,386.483847 409.02923,387.257941 408.622799,387.997118 L408.205014,388.846916 C401.613296,400.271972 387.362188,400.885714 384.576955,400.885714 L461.2637,400.885714 C464.095354,400.885714 478.300041,400.271972 484.891759,388.846916 C487.816254,383.653709 489.905178,374.919679 482.895676,362.739247 Z" id="Path" fill="#108775"></path>
            <path d="M411.625018,388.738112 L412.056163,387.880634 C412.475592,387.134776 412.828254,386.353686 413.110075,385.546389 C414.44822,381.889799 414.81131,377.950927 414.163986,374.113352 C413.418415,369.974506 411.925231,366.004148 409.75672,362.394488 L307.86266,184.134379 L292.571429,157.07619 L292.293515,157.07619 L276.820181,184.134379 L174.974026,362.394488 C172.996563,366.047028 171.667666,370.011466 171.045811,374.113352 C170.226135,378.639952 170.741919,383.305733 172.530868,387.547171 C172.795786,388.184382 173.099755,388.804836 173.441064,389.405039 C176.506988,394.645181 183.022076,400.885714 197.393593,400.885714 L387.097628,400.885714 C390.115646,400.885714 404.822499,400.266425 411.625018,388.738112 Z M292.293515,211.192568 L385.42095,374.113352 L199.213986,374.113352 L292.293515,211.192568 Z" id="Shape" fill="#2F495E" fill-rule="nonzero"></path>
        </g>
    </g>
</svg>