<svg width="75" height="75" viewBox="0 0 75 75" fill="none" xmlns="http://www.w3.org/2000/svg">
<mask id="mask0" mask-type="alpha" maskUnits="userSpaceOnUse" x="0" y="4" width="75" height="69">
<path d="M1.91487 45.6651L13.497 65.8046V65.7799C14.7591 67.9606 16.5696 69.7713 18.7478 71.0315C20.926 72.2916 23.3957 72.9572 25.9105 72.9617H49.0895C51.6044 72.9577 54.0743 72.2923 56.2526 71.0321C58.4309 69.7719 60.2413 67.9609 61.5031 65.7799L73.0851 45.6651C74.3397 43.4796 75 41.0023 75 38.4808C75 35.9593 74.3397 33.482 73.0851 31.2966L61.5031 11.1818C60.24 8.99859 58.4273 7.18619 56.2462 5.92585C54.0651 4.6655 51.5922 4.00141 49.0747 4H25.9105C23.3957 4.0045 20.926 4.67002 18.7478 5.93019C16.5696 7.19035 14.7591 9.0011 13.497 11.1818L1.91487 31.2966C0.660299 33.482 0 35.9593 0 38.4808C0 41.0023 0.660299 43.4796 1.91487 45.6651Z" fill="#00DC82"/>
</mask>
<g mask="url(#mask0)">
<path d="M1.91487 45.6651L13.497 65.8046V65.7799C14.7591 67.9606 16.5696 69.7713 18.7478 71.0315C20.926 72.2916 23.3957 72.9572 25.9105 72.9617H49.0895C51.6044 72.9577 54.0743 72.2923 56.2526 71.0321C58.4309 69.7719 60.2413 67.9609 61.5031 65.7799L73.0851 45.6651C74.3397 43.4796 75 41.0023 75 38.4808C75 35.9593 74.3397 33.482 73.0851 31.2966L61.5031 11.1818C60.24 8.99859 58.4273 7.18619 56.2462 5.92585C54.0651 4.6655 51.5922 4.00141 49.0747 4H25.9105C23.3957 4.0045 20.926 4.67002 18.7478 5.93019C16.5696 7.19035 14.7591 9.0011 13.497 11.1818L1.91487 31.2966C0.660299 33.482 0 35.9593 0 38.4808C0 41.0023 0.660299 43.4796 1.91487 45.6651Z" fill="#00DC82"/>
<path opacity="0.3" d="M-8.08513 45.6668L3.49695 65.8063V65.7816C4.75911 67.9623 6.5696 69.773 8.74778 71.0332C10.926 72.2933 13.3957 72.9589 15.9105 72.9634H39.0895C41.6044 72.9594 44.0743 72.294 46.2526 71.0338C48.4309 69.7736 50.2413 67.9626 51.5031 65.7816L63.0851 45.6668C64.3397 43.4813 65 41.004 65 38.4825C65 35.961 64.3397 33.4837 63.0851 31.2983L51.5031 11.1835C50.24 9.0003 48.4273 7.1879 46.2462 5.92756C44.0651 4.66721 41.5922 4.00312 39.0747 4.00171H15.9105C13.3957 4.0062 10.926 4.67173 8.74778 5.9319C6.5696 7.19206 4.75911 9.00281 3.49695 11.1835L-8.08513 31.2983C-9.3397 33.4837 -10 35.961 -10 38.4825C-10 41.004 -9.3397 43.4813 -8.08513 45.6668Z" fill="white"/>
<path d="M31.2146 55C29.5211 55 28.1575 54.5447 27.1238 53.6341C26.0901 52.7236 25.5733 51.3794 25.5733 49.6016C25.5733 48.8862 25.6282 48.2249 25.7382 47.6179C25.8482 47.0108 25.9581 46.4038 26.0681 45.7967C26.2001 45.168 26.2661 44.4743 26.2661 43.7154C26.2661 42.9783 26.0241 42.3279 25.5403 41.7642C25.0784 41.1789 24.2316 40.8103 23 40.6585V37.3089C24.2316 37.1572 25.0784 36.8103 25.5403 36.2683C26.0241 35.7046 26.2661 35.0325 26.2661 34.252C26.2661 33.5149 26.2001 32.8428 26.0681 32.2358C25.9581 31.607 25.8482 30.9892 25.7382 30.3821C25.6282 29.7751 25.5733 29.103 25.5733 28.3659C25.5733 26.6098 26.0901 25.2764 27.1238 24.3659C28.1575 23.4553 29.5211 23 31.2146 23H33.293V26.4472H32.0064C30.4229 26.4472 29.6311 27.2168 29.6311 28.7561C29.6311 29.6016 29.7301 30.458 29.928 31.3252C30.1479 32.1707 30.2579 33.2005 30.2579 34.4146C30.2579 35.5637 29.972 36.5501 29.4002 37.374C28.8283 38.1762 27.9156 38.7073 26.6619 38.9675V39.0325C27.9156 39.2927 28.8283 39.8347 29.4002 40.6585C29.972 41.4607 30.2579 42.4363 30.2579 43.5854C30.2579 44.7995 30.1479 45.8401 29.928 46.7073C29.7301 47.5528 29.6311 48.3984 29.6311 49.2439C29.6311 50.7832 30.4229 51.5528 32.0064 51.5528H33.293V55H31.2146Z" fill="#098466"/>
<path d="M41.707 55V51.5528H42.9606C44.5661 51.5528 45.3689 50.7832 45.3689 49.2439C45.3689 48.3984 45.2589 47.5528 45.039 46.7073C44.8191 45.8401 44.7091 44.7995 44.7091 43.5854C44.7091 42.4363 44.995 41.4607 45.5669 40.6585C46.1387 39.8347 47.0624 39.2927 48.3381 39.0325V38.9675C47.0624 38.7073 46.1387 38.1762 45.5669 37.374C44.995 36.5501 44.7091 35.5637 44.7091 34.4146C44.7091 33.2005 44.8191 32.1707 45.039 31.3252C45.2589 30.458 45.3689 29.6016 45.3689 28.7561C45.3689 27.2168 44.5661 26.4472 42.9606 26.4472H41.707V23H43.7524C45.4459 23 46.8095 23.4553 47.8432 24.3659C48.8989 25.2764 49.4267 26.6098 49.4267 28.3659C49.4267 29.103 49.3608 29.7751 49.2288 30.3821C49.1188 30.9892 48.9979 31.607 48.8659 32.2358C48.7559 32.8428 48.701 33.5149 48.701 34.252C48.701 35.0325 48.9429 35.7046 49.4267 36.2683C49.9106 36.8103 50.7684 37.1572 52 37.3089V40.6585C50.7684 40.8103 49.9106 41.1789 49.4267 41.7642C48.9429 42.3279 48.701 42.9783 48.701 43.7154C48.701 44.4743 48.7559 45.168 48.8659 45.7967C48.9979 46.4038 49.1188 47.0108 49.2288 47.6179C49.3608 48.2249 49.4267 48.8862 49.4267 49.6016C49.4267 51.3794 48.8989 52.7236 47.8432 53.6341C46.8095 54.5447 45.4459 55 43.7524 55H41.707Z" fill="#098466"/>
</g>
</svg>
