<svg width="70" height="55" viewBox="0 0 70 55" fill="none" xmlns="http://www.w3.org/2000/svg">
<path d="M23.38 27.5L34.69 33.05L46 27.5L34.69 21.95L23.38 27.5Z" fill="#F6BDD6"/>
<path d="M34.69 45.16C34.4506 45.1617 34.2142 45.1069 34 45L10.87 33.64L5.18 36.44L34.69 50.93L64.21 36.44L58.51 33.64L35.35 45C35.1449 45.1024 34.9192 45.1571 34.69 45.16V45.16Z" fill="#E95495"/>
<path d="M34.69 36.22C34.4615 36.2202 34.2359 36.169 34.03 36.07L20 29.17L14.28 32L34.69 42L55.1 32L49.41 29.2L35.35 36.1C35.1417 36.1887 34.9162 36.2297 34.69 36.22Z" fill="#F195BD"/>
<path d="M18.27 28.34L16.57 27.5L10.87 30.3L12.58 31.13L14.28 31.97L19.98 29.17L18.27 28.34Z" fill="#777475"/>
<path d="M35.35 18.93C35.1454 18.8263 34.9193 18.7723 34.69 18.7723C34.4607 18.7723 34.2346 18.8263 34.03 18.93L20 25.83L21.71 26.66L23.41 27.5L34.69 22L46 27.5L47.71 26.66L49.41 25.83L35.35 18.93Z" fill="#ABA9A9"/>
<path d="M52.81 27.5L51.11 28.34L49.41 29.17L55.1 31.97L56.81 31.13L58.51 30.3L52.81 27.5Z" fill="#777475"/>
<path d="M55.1 23L58.51 21.33L35.35 10C35.14 9.89675 34.909 9.84306 34.675 9.84306C34.441 9.84306 34.21 9.89675 34 10L10.87 21.36L14.28 23L34.69 13L55.1 23Z" fill="#777475"/>
<path d="M69.11 27.5C69.1083 27.2194 69.0289 26.9447 68.8806 26.7064C68.7323 26.4681 68.521 26.2755 68.27 26.15L61.91 23L68.27 19.88C68.5209 19.7561 68.7322 19.5645 68.8799 19.3268C69.0277 19.0891 69.1059 18.8149 69.1059 18.535C69.1059 18.2551 69.0277 17.9809 68.8799 17.7432C68.7322 17.5055 68.5209 17.3139 68.27 17.19L35.35 1.06C35.1454 0.95633 34.9193 0.902306 34.69 0.902306C34.4607 0.902306 34.2346 0.95633 34.03 1.06L1.11 17.22C0.859066 17.3439 0.647795 17.5355 0.500071 17.7732C0.352346 18.0109 0.274057 18.2851 0.274057 18.565C0.274057 18.8449 0.352346 19.1191 0.500071 19.3568C0.647795 19.5945 0.859066 19.7861 1.11 19.91L7.47 23L1.11 26.12C0.856392 26.2428 0.642512 26.4346 0.492859 26.6734C0.343206 26.9121 0.263832 27.1882 0.263832 27.47C0.263832 27.7518 0.343206 28.0279 0.492859 28.2666C0.642512 28.5054 0.856392 28.6972 1.11 28.82L7.47 32L1.11 35.12C0.859066 35.2439 0.647795 35.4355 0.500071 35.6732C0.352346 35.9109 0.274057 36.1851 0.274057 36.465C0.274057 36.7449 0.352346 37.0191 0.500071 37.2568C0.647795 37.4945 0.859066 37.6861 1.11 37.81L34 53.94C34.2041 54.0452 34.4304 54.1002 34.66 54.1002C34.8896 54.1002 35.1159 54.0452 35.32 53.94L68.27 37.78C68.5209 37.6561 68.7322 37.4645 68.8799 37.2268C69.0277 36.9891 69.1059 36.7149 69.1059 36.435C69.1059 36.1552 69.0277 35.8809 68.8799 35.6432C68.7322 35.4055 68.5209 35.2139 68.27 35.09L61.91 32L68.27 28.88C68.5256 28.7522 68.7399 28.5549 68.8885 28.3108C69.0371 28.0667 69.1139 27.7857 69.11 27.5V27.5ZM5.18 18.56L34.69 4.07L64.21 18.56L58.51 21.36L55.1 23L49.41 25.8L47.71 26.63L46 27.5L34.69 33.05L23.38 27.5L21.68 26.66L20 25.83L14.28 23L10.87 21.33L5.18 18.56ZM5.18 36.44L10.87 33.64L34 45C34.2061 45.0985 34.4316 45.1497 34.66 45.1497C34.8884 45.1497 35.1139 45.0985 35.32 45L58.51 33.64L64.21 36.44L34.69 50.93L5.18 36.44ZM58.51 30.3L56.81 31.13L55.1 32L34.69 42L14.28 32L12.58 31.16L10.87 30.33L5.18 27.53L10.87 24.73L16.57 27.53L18.27 28.37L19.97 29.2L34 36.07C34.2061 36.1685 34.4316 36.2197 34.66 36.2197C34.8884 36.2197 35.1139 36.1685 35.32 36.07L49.38 29.17L51.08 28.34L52.78 27.5L58.48 24.7L64.18 27.5L58.51 30.3Z" fill="white"/>
</svg>
