<svg width="32" height="32" viewBox="0 0 32 32" fill="none" xmlns="http://www.w3.org/2000/svg">
<g clip-path="url(#clip0)">
<path d="M19.078 1.61001C24.413 1.61001 27.713 4.03001 27.713 6.27301C27.7135 6.40265 27.6845 6.53072 27.6282 6.6475C27.5719 6.76427 27.4898 6.8667 27.388 6.94701L23.906 10.378L22.168 12.087L24.446 12.99C25.6229 13.29 26.6598 13.9878 27.381 14.965C28.0944 15.9334 28.4426 17.1228 28.364 18.323C28.3625 18.9231 28.2361 19.5163 27.993 20.065C27.7484 20.6162 27.393 21.1111 26.949 21.519L20.571 27.783C18.3917 29.6387 15.5739 30.5698 12.718 30.378C6.78799 30.378 3.62999 27.786 3.62999 25.916C3.6162 25.7781 3.63229 25.6388 3.67716 25.5077C3.72202 25.3765 3.79461 25.2566 3.88999 25.156L3.92299 25.128L3.95499 25.104L7.64499 21.481L7.70899 21.428L7.80999 21.305L9.11199 19.747L7.27299 18.86C6.27431 18.4621 5.4284 17.7563 4.85799 16.845C4.29294 15.9411 4.03676 14.8781 4.12799 13.816C4.13164 13.158 4.27194 12.5079 4.53999 11.907C4.80957 11.3033 5.20031 10.7614 5.68799 10.315L12.058 4.05801C13.0101 3.21488 14.1179 2.56604 15.319 2.14801C16.5252 1.7278 17.8014 1.54543 19.077 1.61101L19.078 1.61001ZM19.078 0.0130058C17.5827 -0.0575002 16.0882 0.166056 14.679 0.671006C13.2759 1.17317 11.9862 1.94806 10.884 2.95101L4.53799 9.18601C3.89729 9.779 3.38506 10.4971 3.03299 11.296C2.68269 12.0914 2.5012 12.9509 2.49999 13.82C2.40668 15.1804 2.74622 16.5354 3.46999 17.691C4.2013 18.8562 5.27651 19.7654 6.54699 20.293L2.80499 23.968C2.53599 24.217 2.32499 24.52 2.18699 24.856C2.04893 25.1916 1.98612 25.5535 2.00299 25.916C2.00299 28.896 6.01099 31.976 12.718 31.976C14.358 32.077 16.001 31.856 17.552 31.326C19.104 30.795 20.532 29.966 21.752 28.887L28.099 22.654C28.6945 22.0976 29.1701 21.4256 29.497 20.679C29.8222 19.9361 29.9907 19.134 29.992 18.323C30.0669 16.8042 29.6206 15.3054 28.727 14.075C27.8246 12.8334 26.5327 11.9294 25.057 11.507L28.547 8.07701C28.8007 7.84911 29.0032 7.56996 29.141 7.25801C29.279 6.94801 29.348 6.61201 29.344 6.27301C29.341 3.19601 25.504 0.0130058 19.077 0.0130058H19.078Z" fill="#550088"/>
<path d="M19.078 1.61001C24.413 1.61001 27.713 4.03001 27.713 6.27301C27.7135 6.40265 27.6845 6.53072 27.6282 6.6475C27.5719 6.76427 27.4898 6.8667 27.388 6.94701L23.906 10.378L22.168 12.087L24.446 12.99C25.6229 13.29 26.6598 13.9878 27.381 14.965C28.0944 15.9334 28.4426 17.1228 28.364 18.323C28.3625 18.9231 28.2361 19.5163 27.993 20.065C27.7484 20.6162 27.393 21.1111 26.949 21.519L20.571 27.783C18.3917 29.6387 15.5739 30.5698 12.718 30.378C6.78799 30.378 3.62999 27.786 3.62999 25.916C3.6162 25.7781 3.63229 25.6388 3.67716 25.5077C3.72202 25.3765 3.79461 25.2566 3.88999 25.156L3.92299 25.128L3.95499 25.104L7.64499 21.481L7.70899 21.428L7.80999 21.305L9.11199 19.747L7.27299 18.86C6.27431 18.4621 5.4284 17.7563 4.85799 16.845C4.29294 15.9411 4.03676 14.8781 4.12799 13.816C4.13164 13.158 4.27194 12.5079 4.53999 11.907C4.80957 11.3033 5.20031 10.7614 5.68799 10.315L12.058 4.05801C13.0101 3.21488 14.1179 2.56604 15.319 2.14801C16.5252 1.7278 17.8014 1.54543 19.077 1.61101L19.078 1.61001ZM19.078 0.0130058C17.5827 -0.0575002 16.0882 0.166056 14.679 0.671006C13.2759 1.17317 11.9862 1.94806 10.884 2.95101L4.53799 9.18601C3.89729 9.779 3.38506 10.4971 3.03299 11.296C2.68269 12.0914 2.5012 12.9509 2.49999 13.82C2.40668 15.1804 2.74622 16.5354 3.46999 17.691C4.2013 18.8562 5.27651 19.7654 6.54699 20.293L2.80499 23.968C2.53599 24.217 2.32499 24.52 2.18699 24.856C2.04893 25.1916 1.98612 25.5535 2.00299 25.916C2.00299 28.896 6.01099 31.976 12.718 31.976C14.358 32.077 16.001 31.856 17.552 31.326C19.104 30.795 20.532 29.966 21.752 28.887L28.099 22.654C28.6945 22.0976 29.1701 21.4256 29.497 20.679C29.8222 19.9361 29.9907 19.134 29.992 18.323C30.0669 16.8042 29.6206 15.3054 28.727 14.075C27.8246 12.8334 26.5327 11.9294 25.057 11.507L28.547 8.07701C28.8007 7.84911 29.0032 7.56996 29.141 7.25801C29.279 6.94801 29.348 6.61201 29.344 6.27301C29.341 3.19601 25.504 0.0130058 19.077 0.0130058H19.078Z" fill="url(#paint0_linear)"/>
</g>
<defs>
<linearGradient id="paint0_linear" x1="16" y1="5.76701e-06" x2="16" y2="32" gradientUnits="userSpaceOnUse">
<stop stop-color="#5B0488"/>
<stop offset="1" stop-color="#F87282"/>
</linearGradient>
<clipPath id="clip0">
<rect width="28" height="32" fill="white" transform="translate(2)"/>
</clipPath>
</defs>
</svg>
