<svg width="96" height="96" viewBox="0 0 96 96" fill="none" xmlns="http://www.w3.org/2000/svg">
<g clip-path="url(#clip0)">
<path d="M37.0337 30.201L31.784 9.79825L26.6752 17.286L18.6496 31.2346L19.4666 34.6569L37.0337 30.201Z" fill="#B2B2B2"/>
<path d="M31.4241 8.42628L29.9566 7.27408L28.5334 8.12949L14.9687 32.9436L15.2545 34.2248L19.3881 36.235L62.4678 27.9721L61.9491 27.3346L61.1423 26.2502L59.4905 26.0806L56.0025 26.724L48.7132 27.8118L20.1402 32.9738L20.2081 32.313L20.7737 30.8688L31.767 9.96379L31.4241 8.42628Z" fill="#D4D4D4"/>
<path d="M29.4775 88.3489L12.6137 33.1188L19.4027 36.9039L36.9803 90.8719L29.4775 88.3489Z" fill="#003C3C"/>
<path d="M30.5503 1.49248L29.5592 1.39072L12.6139 33.1188L19.2292 36.9696L36.989 90.7894L80.617 84.5024L66.2671 28.3619L65.7166 27.2204L19.7863 35.6079L13.9121 32.6679L30.5503 1.49248Z" fill="#2E6160"/>
<path d="M48.722 58.0551L52.4829 57.0898C52.6023 57.0592 52.7112 56.9991 52.7985 56.9157C52.8857 56.8323 52.9484 56.7284 52.98 56.6146C53.0117 56.5008 53.0114 56.381 52.979 56.2673C52.9466 56.1535 52.8833 56.0499 52.7955 55.9668L49.0854 52.4499C48.9977 52.3667 48.8885 52.307 48.769 52.2767C48.6494 52.2464 48.5235 52.2466 48.4041 52.2772C48.2847 52.3079 48.1758 52.3679 48.0886 52.4513C48.0013 52.5347 47.9387 52.6385 47.907 52.7524L47.5643 53.9838L45.709 52.2239C45.6212 52.1408 45.5121 52.0811 45.3925 52.0508C45.2728 52.0205 45.147 52.0207 45.0275 52.0513C44.9081 52.082 44.7992 52.142 44.712 52.2254C44.6247 52.3088 44.562 52.4127 44.5303 52.5265L42.8614 58.5166C42.8296 58.6304 42.8298 58.7502 42.8621 58.8639C42.8944 58.9777 42.9576 59.0813 43.0453 59.1645C43.133 59.2477 43.2422 59.3075 43.3618 59.3378C43.4814 59.3681 43.6073 59.3679 43.7267 59.3372L46.0875 58.7313C47.0228 58.4912 47.6014 57.923 47.859 57.038L48.471 54.8422L48.7991 53.6669L51.5201 56.2459L49.0504 56.8797L48.722 58.0551ZM45.7595 57.7233L44.1119 58.1458L45.4235 53.4396L47.2348 55.1595L46.7967 56.7322C46.6223 57.3083 46.3155 57.5806 45.7595 57.7233Z" fill="#00DC82"/>
<path d="M15.57 33.5893L13.6811 32.4773L30.4675 1.48404L38.588 29.6931L36.9764 29.9449L34.3431 19.8261L31.424 8.42606L29.8824 7.18279L15.57 33.5893Z" fill="#003C3C"/>
</g>
<defs>
<clipPath id="clip0">
<rect width="96" height="96" fill="white"/>
</clipPath>
</defs>
</svg>
