<svg width="160" height="160" viewBox="0 0 160 160" fill="none" xmlns="http://www.w3.org/2000/svg">
<path d="M128.132 93.9271C128.132 81.1533 123.027 68.9028 113.939 59.8704C104.85 50.838 92.5242 45.7637 79.6716 45.7637C66.8191 45.7637 54.4929 50.838 45.4047 59.8704C36.3166 68.9028 31.2109 81.1533 31.2109 93.9271H45.0568C45.0568 84.803 48.7038 76.0526 55.1953 69.6009C61.6868 63.1492 70.4912 59.5246 79.6716 59.5246C88.852 59.5246 97.6564 63.1492 104.148 69.6009C110.64 76.0526 114.286 84.803 114.286 93.9271" fill="black" fill-opacity="0.1"/>
<path d="M79.3271 110.853C96.5326 110.853 110.48 96.9903 110.48 79.8904C110.48 62.7905 96.5326 48.9282 79.3271 48.9282C62.1216 48.9282 48.1738 62.7905 48.1738 79.8904C48.1738 96.9903 62.1216 110.853 79.3271 110.853Z" fill="url(#paint0_radial)" stroke="url(#paint1_radial)" stroke-width="8.58149"/>
<path d="M148.902 45.7636C142.873 33.7076 133.771 23.4318 122.503 15.9594C111.235 8.48708 98.1943 4.07902 84.6789 3.17424C71.1635 2.26946 57.6454 4.89954 45.4709 10.8025C33.2964 16.7055 22.8903 25.6755 15.2891 36.819L46.4424 90.4868C44.8235 85.3725 44.4297 79.9529 45.2925 74.6605C46.1553 69.3681 48.2507 64.3494 51.4116 60.0048C54.5725 55.6602 58.7113 52.1099 63.4979 49.6373C68.2845 47.1647 73.5863 45.8382 78.9803 45.7636" fill="url(#paint2_radial)"/>
<path d="M15.2889 36.8188C7.76044 47.9802 3.29939 60.9041 2.34834 74.308C1.39729 87.712 3.98931 101.13 9.86721 113.231C15.7451 125.332 24.7046 135.695 35.8566 143.292C47.0086 150.889 59.9655 155.456 73.4417 156.539L105.98 101.495C102.047 106.233 96.9088 109.839 91.1001 111.936C85.2914 114.034 79.0235 114.548 72.9475 113.424C66.8714 112.301 61.2089 109.581 56.5479 105.547C51.8869 101.514 48.3975 96.3135 46.4422 90.4866" fill="url(#paint3_radial)"/>
<path d="M73.4414 156.539C87.0647 157.563 100.718 154.991 113.02 149.084C125.321 143.176 135.834 134.143 143.493 122.9C151.152 111.656 155.686 98.6001 156.636 85.0546C157.586 71.5091 154.918 57.9547 148.902 45.7637H78.9798C85.4688 45.7933 91.8189 47.6352 97.3053 51.0792C102.792 54.5232 107.194 59.4306 110.009 65.2414C112.824 71.0523 113.939 77.5326 113.226 83.9429C112.514 90.3533 110.003 96.4355 105.979 101.496" fill="url(#paint4_radial)"/>
<path opacity="0.075" d="M15.2891 36.8195L46.4424 90.4873C44.1351 82.7687 44.6251 74.4902 47.827 67.0936L16.6737 34.7554" fill="black"/>
<path opacity="0.05" d="M73.4412 156.54L105.979 101.496C100.846 107.581 93.7524 111.714 85.9026 113.193L72.0566 156.54" fill="black"/>
<path opacity="0.05" d="M148.9 45.7637H78.9785C84.1778 45.7875 89.305 46.9751 93.9791 49.2383C98.6533 51.5015 102.754 54.7821 105.978 58.8366L150.285 47.8278" fill="black"/>
<defs>
<radialGradient id="paint0_radial" cx="0" cy="0" r="1" gradientUnits="userSpaceOnUse" gradientTransform="translate(79.3271 48.9282) scale(62.3066 61.9244)">
<stop offset="0.1" stop-color="#7FB3DF"/>
<stop offset="0.9" stop-color="#0F5B94"/>
</radialGradient>
<radialGradient id="paint1_radial" cx="0" cy="0" r="1" gradientUnits="userSpaceOnUse" gradientTransform="translate(79.3271 48.9282) scale(62.3066 61.9244)">
<stop stop-color="#F6F0EE"/>
<stop offset="1" stop-color="#DDDDDD"/>
</radialGradient>
<radialGradient id="paint2_radial" cx="0" cy="0" r="1" gradientUnits="userSpaceOnUse" gradientTransform="translate(82.0956 3) scale(66.8065 43.7434)">
<stop stop-color="#F06B59"/>
<stop offset="1" stop-color="#DF2227"/>
</radialGradient>
<radialGradient id="paint3_radial" cx="0" cy="0" r="1" gradientUnits="userSpaceOnUse" gradientTransform="translate(69.6414 72.735) scale(78.9057 90.9875)">
<stop offset="0.65" stop-color="#4CB749"/>
<stop offset="1" stop-color="#388B41"/>
</radialGradient>
<radialGradient id="paint4_radial" cx="0" cy="0" r="1" gradientUnits="userSpaceOnUse" gradientTransform="translate(103.459 73.5124) scale(66.7059 88.7961)">
<stop offset="0.6" stop-color="#FCD209"/>
<stop offset="0.7" stop-color="#F7C616"/>
<stop offset="1" stop-color="#BC821E"/>
</radialGradient>
</defs>
</svg>
