<svg xmlns="http://www.w3.org/2000/svg" width="160" height="160" fill="none" viewBox="0 0 160 160"><rect width="16.577" height="88.412" x="70.865" y="63.423" fill="#FF2C38"/><rect width="11.052" height="13.814" x="73.629" y="66.186" fill="#fff"/><rect width="5.526" height="13.814" x="76.393" y="8.165" fill="#FF2C38"/><rect width="5.526" height="13.814" x="46" y="44.773" fill="#FF2C38" transform="rotate(-90 46 44.7734)"/><rect width="5.526" height="13.814" x="57.504" y="67.428" fill="#FF2C38" transform="rotate(-135 57.5039 67.4282)"/><rect width="5.526" height="13.814" x="102.047" y="15.763" fill="#FF2C38" transform="rotate(45 102.047 15.7627)"/><rect width="5.526" height="13.814" fill="#FF2C38" transform="matrix(0.707107 -0.707107 -0.707107 -0.707107 102.047 67.4282)"/><rect width="5.526" height="13.814" fill="#FF2C38" transform="matrix(-0.707107 0.707107 0.707107 0.707107 57.5039 15.7627)"/><rect width="5.526" height="13.814" x="99.186" y="44.773" fill="#FF2C38" transform="rotate(-90 99.1855 44.7734)"/><circle cx="78.808" cy="42.356" r="10.015" fill="#FF2C38"/></svg>