<svg width="100" height="100" viewBox="0 0 100 100" fill="none" xmlns="http://www.w3.org/2000/svg">
<path d="M15.6 7H84.4C89.1497 7 93 10.8504 93 15.6V84.4C93 89.1497 89.1497 93 84.4 93H15.6C10.8504 93 7 89.1497 7 84.4V15.6C7 10.8504 10.8504 7 15.6 7Z" fill="#C9D3FA"/>
<path d="M32.7992 58.5999V75.7999C28.0496 75.7999 24.1992 71.9496 24.1992 67.1999V58.5999H32.7992ZM58.5992 41.4C58.5992 46.1496 54.7489 49.9999 49.9992 49.9999H24.1992V41.4H58.5992ZM75.7992 24.2C75.7992 28.9496 71.9489 32.8 67.1992 32.8H24.1992C24.1992 28.0503 28.0496 24.2 32.7992 24.2H75.7992Z" fill="#4C4ADC"/>
</svg>
