<svg width="417" height="417" viewBox="0 0 417 417" fill="none" xmlns="http://www.w3.org/2000/svg">
<g clip-path="url(#clip0)">
<path d="M381.578 247.342C381.578 248.617 382.747 249.725 384.091 249.725H389.118C390.463 249.725 391.632 248.617 391.632 247.342V170.643H414.487C415.948 170.643 417 169.534 417 168.26V164.658C417 163.383 415.948 162.275 414.487 162.275H358.606C357.145 162.275 356.093 163.383 356.093 164.658V168.26C356.093 169.534 357.145 170.643 358.606 170.643H381.519L381.578 247.342ZM291.035 164.602C291.035 163.328 292.087 162.219 293.548 162.219H345.454C346.915 162.219 347.968 163.328 347.968 164.602V168.204C347.968 169.479 346.915 170.587 345.454 170.587H301.147V201.068H338.966C340.31 201.068 341.479 202.176 341.479 203.451V207.053C341.479 208.438 340.31 209.436 338.966 209.436H301.147V241.302H345.454C346.915 241.302 347.968 242.41 347.968 243.685V247.287C347.968 248.562 346.915 249.67 345.454 249.67H293.548C292.087 249.67 291.035 248.562 291.035 247.287V164.602ZM196.459 185.273V247.342C196.459 248.617 197.628 249.725 198.972 249.725H203.59C205.051 249.725 206.103 248.617 206.103 247.342V196.69L196.459 185.273ZM271.57 248.728V164.602C271.57 163.328 270.401 162.219 269.057 162.219H264.439C262.978 162.219 261.926 163.328 261.926 164.602V231.216H261.633L202.304 161H199.031C197.686 161 196.517 161.998 196.517 163.272V167.817L266.836 251H269.174C270.401 250.945 271.57 249.947 271.57 248.728ZM132.862 180.618H120.237V231.216H132.862C147.768 231.216 158.582 220.076 158.582 205.834C158.523 191.757 147.709 180.618 132.862 180.618ZM134.148 249.725H102C100.655 249.725 99.603 248.617 99.603 247.342V164.602C99.603 163.328 100.655 162.219 102 162.219H134.148C159.575 162.219 180.384 181.837 180.384 205.834C180.443 230.107 159.575 249.725 134.148 249.725ZM0 247.342C0 248.617 1.16905 249.725 2.51346 249.725H18.1787C19.64 249.725 20.6922 248.617 20.6922 247.342V214.479H58.394V247.342C58.394 248.617 59.4462 249.725 60.9075 249.725H76.5728C77.9172 249.725 79.0862 248.617 79.0862 247.342V164.602C79.0862 163.328 77.9172 162.219 76.5728 162.219H60.9075C59.4462 162.219 58.394 163.328 58.394 164.602V196.08H20.6922V164.602C20.6922 163.328 19.64 162.219 18.1787 162.219H2.51346C1.16905 162.219 0 163.328 0 164.602V247.342Z" fill="black"/>
</g>
<defs>
<clipPath id="clip0">
<rect width="417" height="90" fill="white" transform="translate(0 161)"/>
</clipPath>
</defs>
</svg>
