<svg width="100" height="100" viewBox="0 0 100 100" fill="none" xmlns="http://www.w3.org/2000/svg">
<path d="M95.841 22.6722C86.892 10.6389 59.361 8 49.5 8C39.639 8 12.108 10.6389 3.159 22.6722L2 24.2292V26.4722C2 37.2389 3.9 54.1278 8.099 65.7653L8.384 66.5306L8.821 67.1375C17.58 79.25 35.611 92.4444 49.5 92.4444C63.389 92.4444 81.42 79.25 90.179 67.1375L90.616 66.5306L90.901 65.7653C95.1 54.1278 97 37.2389 97 26.4722V24.2292L95.841 22.6722ZM38.9444 58.1389V73.9722C33.6226 71.8009 30.5219 69.2439 25.75 65.3167V26.4722C30.7776 25.2037 33.8466 24.3228 38.9444 23.8333V42.3056H60.0556V23.8333C65.1534 24.3228 68.2224 25.2037 73.25 26.4722V65.3167C68.4781 69.2439 65.3774 71.8009 60.0556 73.9722V58.1389H38.9444Z" fill="#0E103B"/>
</svg>
