<svg width="160" height="160" viewBox="0 0 160 160" fill="none" xmlns="http://www.w3.org/2000/svg">
<path d="M80 8H8V152H80V8Z" fill="black"/>
<path d="M116 80C125.548 80 134.705 76.2072 141.456 69.4558C148.207 62.7045 152 53.5478 152 44C152 34.4522 148.207 25.2955 141.456 18.5442C134.705 11.7928 125.548 8 116 8C106.452 8 97.2955 11.7928 90.5442 18.5442C83.7928 25.2955 80 34.4522 80 44C80 53.5478 83.7928 62.7045 90.5442 69.4558C97.2955 76.2072 106.452 80 116 80ZM116 152C125.548 152 134.705 148.207 141.456 141.456C148.207 134.705 152 125.548 152 116C152 106.452 148.207 97.2955 141.456 90.5442C134.705 83.7928 125.548 80 116 80C106.452 80 97.2955 83.7928 90.5442 90.5442C83.7928 97.2955 80 106.452 80 116C80 125.548 83.7928 134.705 90.5442 141.456C97.2955 148.207 106.452 152 116 152Z" fill="black"/>
</svg>
