<svg width="160" height="160" viewBox="0 0 160 160" fill="none" xmlns="http://www.w3.org/2000/svg">
<path fill-rule="evenodd" clip-rule="evenodd" d="M124.912 36.0114L104.983 15.4114C103.387 13.6932 101.241 12.5855 98.9161 12.2789C92.3095 11.2053 85.6265 10.6705 78.9333 10.6796C60.3432 10.6305 41.9802 14.7629 25.2033 22.771C24.8426 22.9439 24.5382 23.2154 24.3252 23.554C24.1123 23.8927 23.9995 24.2846 24 24.6847V98.4984C24 107.073 27.2606 115.17 33.1763 121.291C45.7399 134.313 61.2434 144.131 78.386 149.923C78.8267 150.071 79.3038 150.071 79.7445 149.923C96.8028 144.107 112.225 134.302 124.729 121.323C130.637 115.221 135 107.981 135 99.3523V48.6889C135 46.0436 127.159 38.2554 125.035 36.1461C124.99 36.1012 124.948 36.0588 124.908 36.0191L124.912 36.0114ZM119.675 116.439C124.294 111.665 127.435 106.153 127.435 99.3601V48.685H104.731C102.351 48.685 99.6924 45.9833 99.6846 43.6155V20.8108C93.2294 19.7317 83.568 18.2799 76.9808 18.276V58.82H116.36V68.9511H76.9808V79.09H116.36V89.2212H76.9808V99.3601H113.837V104.426C113.873 105.33 112.355 106.566 110.542 108.041C109.974 108.503 109.378 108.989 108.791 109.495H76.9808V117.095H103.745C98.9993 120.901 93.9358 124.291 88.6103 127.23H76.9808V142.431C76.9985 142.439 77.5212 142.508 78.0382 142.577C78.5429 142.644 79.0422 142.711 79.0614 142.718C94.4397 137.198 108.338 128.205 119.675 116.439Z" fill="currentColor"/>
</svg>
