<svg id="Calque_1" data-name="Calque 1" xmlns="http://www.w3.org/2000/svg" viewBox="0 0 80 50"><defs><style>.cls-1{fill:#999;}.cls-2{fill:#e94f2d;}.cls-3{fill:#fff;}</style></defs><path class="cls-1" d="M38,15c-2,0-3.09-1-4.25-2.45l-1.92,1.93c.6.62,1.29,1.25,2,1.92a6,6,0,0,0,4,1.4,5.76,5.76,0,0,0,4-1.61,5,5,0,0,0,1.75-3.84,5.43,5.43,0,0,0-.12-1.18,4.22,4.22,0,0,0-.37-1.07A4.74,4.74,0,0,0,41.4,8.17,8.34,8.34,0,0,0,39.13,7c-1.26-.46-2-.71-2-.76a1.89,1.89,0,0,1-1.21-1.65,1.51,1.51,0,0,1,.78-1.33,2.64,2.64,0,0,1,1.53-.45,4.92,4.92,0,0,1,3,1.09l1.76-2A5.81,5.81,0,0,0,38.31.06a6.09,6.09,0,0,0-3.67,1.15A3.94,3.94,0,0,0,32.9,4.53a4.1,4.1,0,0,0,2,3.62l3.72,1.72c1.33.63,2,1.41,2,2.34a2.79,2.79,0,0,1-.74,2A2.55,2.55,0,0,1,38,15Z"/><path class="cls-1" d="M3.4,6.77a3.68,3.68,0,0,1,7.36,0v11h3.1v-11a3.68,3.68,0,0,1,7.35,0v11h3.1v-11a6.78,6.78,0,0,0-12-4.31,6.78,6.78,0,0,0-12,4.31v11H3.4Z"/><rect class="cls-1" x="26.89" width="3.1" height="17.74"/><polygon class="cls-1" points="48.23 17.74 51.33 17.74 51.33 3.1 54.7 3.1 54.7 0 44.89 0 44.89 3.1 48.23 3.1 48.23 17.74"/><polygon class="cls-1" points="65.4 17.74 65.4 14.64 60.37 14.64 60.37 10.06 65.02 10.06 65.02 6.97 60.37 6.97 60.37 3.1 65.4 3.1 65.4 0 57.27 0 57.27 0.13 57.27 3.1 57.27 6.97 57.27 10.06 57.27 14.64 57.27 17.74 60.37 17.74 65.4 17.74"/><path class="cls-1" d="M71.08,13.16h.71A8.12,8.12,0,0,0,73.2,13l3,4.71h3.67l-3.81-6a6.19,6.19,0,0,0,2.49-5A6.8,6.8,0,0,0,71.79,0H68V17.74h3.09V13.16ZM71.79,3.1a3.68,3.68,0,0,1,3.68,3.67c0,2-1.65,3.29-3.68,3.29h-.71v-7Z"/><path class="cls-2" d="M4.42,35.78h9.8v8.16h4.11V29.34a9,9,0,1,0-18,0v14.6H4.42ZM9.31,24.45a4.9,4.9,0,0,1,4.89,4.89v2.32H4.42V29.34A4.9,4.9,0,0,1,9.31,24.45Z"/><path class="cls-2" d="M30.78,44a9,9,0,0,0,9-9V20.34H35.69V34.93a4.89,4.89,0,1,1-9.78,0V20.34H21.79V34.93A9,9,0,0,0,30.78,44Z"/><polygon class="cls-2" points="47.7 43.95 51.82 43.95 51.82 24.45 56.28 24.45 56.28 20.34 43.24 20.34 43.24 24.45 47.7 24.45 47.7 43.95"/><path class="cls-2" d="M68.11,43.85A11.81,11.81,0,1,0,56.3,32.05,11.81,11.81,0,0,0,68.11,43.85Z"/><rect class="cls-2" x="0.31" y="46.92" width="79.56" height="3.08"/><path class="cls-3" d="M72.37,40.14l-1.31-2.77,2.34.83a.4.4,0,0,0,.53-.25h0a.41.41,0,0,0-.25-.53l-3.09-1.11h0l-.88-1.86,2.34.84a.5.5,0,0,0,.21,0,.43.43,0,0,0,.23-.1h0a.41.41,0,0,0,.05-.59L70.9,32.72l2.06.17,0,0,2.12,2.51a.41.41,0,0,0,.59,0,.42.42,0,0,0,0-.59L74.13,33l3.05.26a.42.42,0,0,0,.45-.38h0a.42.42,0,0,0-.38-.45l-3-.26,1.89-1.6a.42.42,0,0,0-.54-.64L73.05,32l0,0-2-.17,1.9-1.61a.48.48,0,0,0,.12-.17.43.43,0,0,0,0-.25.42.42,0,0,0-.48-.34L70.09,30l1.18-1.69h0l3.23-.59a.41.41,0,1,0-.15-.81l-2.44.44,1.74-2.52a.41.41,0,1,0-.68-.47l-1.75,2.51-.44-2.45a.42.42,0,0,0-.82.15l.58,3.23a.06.06,0,0,1,0,0l-1.17,1.69L69,27a.45.45,0,0,0-.19-.27.37.37,0,0,0-.12-.07.4.4,0,0,0-.53.25l-.84,2.34-.88-1.86s0,0,0,0l1.1-3.09a.41.41,0,1,0-.78-.28l-.84,2.34L64.59,23.6a.42.42,0,0,0-.55-.19h0a.41.41,0,0,0-.2.55l1.31,2.77-2.34-.84a.42.42,0,0,0-.53.26.41.41,0,0,0,.25.53l3.09,1.1h0l.88,1.86-2.34-.83a.38.38,0,0,0-.21,0,.39.39,0,0,0-.23.09.42.42,0,0,0,0,.59l1.61,1.9-2-.17,0,0-2.12-2.5a.42.42,0,0,0-.59-.05h0a.42.42,0,0,0-.05.59l1.61,1.89L59,30.87a.42.42,0,0,0-.45.38h0a.42.42,0,0,0,.38.45l3.06.24-1.9,1.62a.42.42,0,0,0-.05.58.42.42,0,0,0,.59,0l2.5-2.13,0,0,2,.17-1.89,1.61a.3.3,0,0,0-.12.17.42.42,0,0,0,0,.25.43.43,0,0,0,.49.33l2.45-.44L65,35.82h0l-3.23.58a.43.43,0,0,0-.34.49h0a.41.41,0,0,0,.49.33l2.45-.44-1.75,2.52a.42.42,0,0,0,.11.58h0a.42.42,0,0,0,.58-.11L65,37.26l.45,2.45a.41.41,0,0,0,.48.33h0a.42.42,0,0,0,.34-.48l-.59-3.23s0,0,0,0l1.17-1.69.45,2.45a.37.37,0,0,0,.09.19.39.39,0,0,0,.2.15h0a.42.42,0,0,0,.53-.25l.84-2.34.88,1.86,0,0-1.1,3.09a.4.4,0,0,0,.25.53h0a.41.41,0,0,0,.53-.25l.84-2.34,1.31,2.77a.41.41,0,0,0,.55.2h0A.41.41,0,0,0,72.37,40.14Zm-2.62-7.49L70.89,34l-1.68-.6h0l-.4-.84,1,.08Zm-.29-1.72,1.73-.32-1.36,1.16,0,0-.92-.08.54-.78Zm-1.65-.61.6-1.68.32,1.78a0,0,0,0,0,0,0l-.53.77-.41-.87S67.81,30.33,67.81,30.32Zm-1.34,1.12L65.33,30.1l1.68.6h0l.4.84-1-.08Zm.3,1.72L65,33.48l1.36-1.16a0,0,0,0,0,0,0l.93.08-.55.78Zm1.64.61-.59,1.65-.32-1.75a.06.06,0,0,1,0,0l.53-.76.4.86S68.41,33.76,68.41,33.77Z"/></svg>
