<svg xmlns="http://www.w3.org/2000/svg" width="100" height="100" fill="none" viewBox="0 0 100 100"><path fill="#A299FF" d="M80.4051 54.7151L77.457 73.258L94.9945 79.9843L94.9918 63.1351L80.4051 54.7151Z"/><path fill="#7366FF" d="M4 71.5579V27.4421L18.5937 32.0697V63.1321L42.2056 76.7641L43.9699 83.4892L42.2056 93.6149L4 71.5579Z"/><path fill="#7366FF" d="M42.2092 22.2381L18.5937 35.8675L4 27.4425L42.2006 5.38721L80.4062 27.4425L72.3455 33.8647L65.8212 35.87L42.2092 22.2381Z"/><path fill="#5219FF" d="M94.9992 79.978L80.4053 88.4092L65.8203 79.978V63.1333L94.9992 79.978Z"/><path fill="#A299FF" d="M42.2039 32.6941L42.1953 49.5405L56.7933 57.963L56.7909 41.1138L42.2039 32.6941Z"/><path fill="#5219FF" d="M42.2018 49.5405L27.6133 57.9628L42.2043 66.3897L56.7999 57.9628L42.2018 49.5405Z"/><path fill="#7366FF" d="M42.2104 32.6941L27.615 41.1208L27.6133 57.963L42.2018 49.5405L42.2104 32.6941Z"/><path fill="url(#paint0_linear)" d="M80.4053 27.4421V54.7148L65.8203 63.1329V35.8698L80.4053 27.4421Z"/><path fill="url(#paint1_linear)" d="M80.4082 54.7065L42.2031 76.7644V93.6152L80.4038 71.5557L80.4082 54.7065Z"/><defs><linearGradient id="paint0_linear" x1="73.113" x2="73.113" y1="27.442" y2="63.133" gradientUnits="userSpaceOnUse"><stop offset=".25" stop-color="#7366FF"/><stop offset="1" stop-color="#5219FF"/></linearGradient><linearGradient id="paint1_linear" x1="42.203" x2="80.408" y1="74.161" y2="74.161" gradientUnits="userSpaceOnUse"><stop stop-color="#7366FF"/><stop offset="1" stop-color="#A299FF"/></linearGradient></defs></svg>