<svg xmlns="http://www.w3.org/2000/svg" width="109" height="113" fill="none" viewBox="0 0 109 113"><path fill="url(#paint0_linear)" d="M63.7076 110.284C60.8481 113.885 55.0502 111.912 54.9813 107.314L53.9738 40.0627L99.1935 40.0627C107.384 40.0627 111.952 49.5228 106.859 55.9374L63.7076 110.284Z"/><path fill="url(#paint1_linear)" fill-opacity=".2" d="M63.7076 110.284C60.8481 113.885 55.0502 111.912 54.9813 107.314L53.9738 40.0627L99.1935 40.0627C107.384 40.0627 111.952 49.5228 106.859 55.9374L63.7076 110.284Z"/><path fill="#3ECF8E" d="M45.317 2.07103C48.1765 -1.53037 53.9745 0.442937 54.0434 5.041L54.4849 72.2922H9.83113C1.64038 72.2922 -2.92775 62.8321 2.1655 56.4175L45.317 2.07103Z"/><defs><linearGradient id="paint0_linear" x1="53.974" x2="94.163" y1="54.974" y2="71.829" gradientUnits="userSpaceOnUse"><stop stop-color="#249361"/><stop offset="1" stop-color="#3ECF8E"/></linearGradient><linearGradient id="paint1_linear" x1="36.156" x2="54.484" y1="30.578" y2="65.081" gradientUnits="userSpaceOnUse"><stop/><stop offset="1" stop-opacity="0"/></linearGradient></defs></svg>