<svg width="160" height="160" viewBox="0 0 160 160" fill="none" xmlns="http://www.w3.org/2000/svg">
<path d="M82.9943 99.7601C82.2543 99.2198 81.3634 98.9253 80.4472 98.9181C79.531 98.9109 78.6355 99.1914 77.8871 99.72L40.6523 126.182L77.2925 152.751C78.0325 153.291 78.9234 153.585 79.8396 153.593C80.7559 153.6 81.6513 153.319 82.3997 152.791L119.635 126.193L82.9943 99.7601Z" fill="currentColor"/>
<path d="M83.0752 37.8067C82.3305 37.2481 81.427 36.9413 80.4961 36.9312V55.9845C81.427 55.9947 82.3305 56.3014 83.0752 56.8601L114.999 79.9918V90.3192C114.999 90.3192 91.4364 72.9549 82.8746 67.1546C82.1619 66.6924 81.3435 66.4188 80.4961 66.3594V86.788C81.366 86.7917 82.2147 87.056 82.9329 87.5467L127.774 120.039C127.917 119.761 127.992 119.452 127.993 119.138V70.3867L82.9949 37.741L83.0752 37.8067Z" fill="currentColor"/>
<path d="M128 41.8081C127.984 41.1304 127.811 40.4655 127.494 39.866C127.178 39.2665 126.726 38.7488 126.176 38.3535L83.0202 7.08311L83.1041 7.14875C82.3508 6.58213 81.4348 6.27373 80.4922 6.26953V26.5669C81.4298 26.5742 82.3402 26.8824 83.0895 27.446L83.0056 27.384L83.531 27.7488L128 60.0553V41.8154V41.8081Z" fill="currentColor"/>
<path d="M77.7998 67.1437L73.0574 70.4488L32.3242 99.8223V119.193C32.3245 119.495 32.3944 119.794 32.5285 120.065L77.9968 87.5979C78.7308 87.0856 79.6042 86.8105 80.4993 86.8099V66.3813C80.441 66.3813 80.3863 66.3813 80.3279 66.3813C79.4268 66.3691 78.5439 66.6354 77.7998 67.1437Z" fill="currentColor"/>
<path d="M80.4638 26.5634H80.4966V6.26611C79.5908 6.26683 78.7076 6.54849 77.9686 7.0723L34.1601 38.3244C33.5883 38.7289 33.1219 39.2647 32.8 39.8868C32.4782 40.5088 32.3104 41.1991 32.3105 41.8995C32.3105 41.9359 32.3105 41.9688 32.3105 42.0053V89.469L77.9102 56.7686C78.6492 56.2448 79.5325 55.9631 80.4383 55.9624H80.4893V36.9091H80.4383C79.5325 36.9098 78.6492 37.1914 77.9102 37.7153L45.2937 60.8872V50.5597L45.3447 50.5232L77.042 27.9751L77.9321 27.3404C78.6755 26.8262 79.5599 26.5548 80.4638 26.5634Z" fill="currentColor"/>
</svg>
