<svg xmlns="http://www.w3.org/2000/svg" width="100" height="100" fill="none" viewBox="0 0 100 100"><path fill="#FA598D" d="M81.5938 11H70.1406V89H81.5938V11Z"/><path fill="#FA598D" d="M14.6524 11H3.19922V22.4242H14.6524V11Z"/><path fill="#FA598D" d="M29.8555 11H18.4023V22.4242H29.8555V11Z"/><path fill="#FA598D" d="M45.2579 11H33.8047V37.5909H45.2579V11Z"/><path fill="#00E5A2" d="M45.26 43.303H3.19922V54.7272H45.26V43.303Z"/><path fill="#FA598D" d="M14.6524 60.4395H3.19922V89.0001H14.6524V60.4395Z"/><path fill="#FA598D" d="M29.8555 77.5757H18.4023V88.9999H29.8555V77.5757Z"/><path fill="#FA598D" d="M45.2579 77.5757H33.8047V88.9999H45.2579V77.5757Z"/><path fill="#FDC0A5" d="M66.1914 11H54.7383V22.4242H66.1914V11Z"/><path fill="#FA598D" d="M81.5938 77.5757H70.1406V88.9999H81.5938V77.5757Z"/><path fill="#31198C" d="M96.8008 77.5757H85.3477V88.9999H96.8008V77.5757Z"/><path fill="#31198C" d="M66.1914 77.5757H54.7383V88.9999H66.1914V77.5757Z"/></svg>