<svg fill="none" viewBox="0 0 24 24"><title>Cloud download</title><path d="M12 3c-1.568 0-2.992.588-4.075 1.431-1.06.826-1.8 1.901-2.027 2.92C3.728 7.468 2 9.206 2 11.333c0 2.202 1.854 3.99 4.135 3.99h2.259c.542 0 .984-.424.984-.95 0-.525-.442-.95-.984-.95H6.135c-1.196 0-2.167-.938-2.167-2.09s.972-2.09 2.167-2.09h1.363l.138-.793C7.99 6.415 9.83 4.9 12 4.9s4.01 1.515 4.364 3.55l.138.793h1.363c1.196 0 2.167.94 2.167 2.091 0 1.152-.972 2.09-2.167 2.09h-2.259c-.542 0-.984.425-.984.95 0 .526.442.95.984.95h2.259c2.28 0 4.135-1.786 4.135-3.99 0-2.18-1.87-3.926-3.88-3.96C17.318 4.816 14.857 3 12 3z" fill="currentColor"/><path d="M12 8.676a.947.947 0 00-.946.95v8.125l-.824-.83a.946.946 0 00-1.342-.002.954.954 0 00.003 1.346l2.44 2.457a.941.941 0 001.342-.003l2.438-2.454a.957.957 0 00.002-1.346.943.943 0 00-1.342.003l-.824.83V9.626A.949.949 0 0012 8.676z" fill="currentColor"/></svg>