<svg fill="none" viewBox="0 0 24 24"><title>Eye off</title><path d="M13.927 13.855c-.25.258-.55.465-.885.608a2.816 2.816 0 01-2.131.036 2.737 2.737 0 01-.907-.577 2.618 2.618 0 01-.6-.873 2.539 2.539 0 01.037-2.052 2.63 2.63 0 01.632-.852m7.327 7.053A9.385 9.385 0 0112 19c-6.364 0-10-7-10-7 1.13-2.028 2.7-3.8 4.6-5.197l10.8 10.395zM10.09 5.21A8.6 8.6 0 0112 5c6.364 0 10 7 10 7-.552.994-1.21 1.93-1.964 2.791L10.091 5.21zM2 2l20 20" stroke="currentColor" stroke-width="1.818" stroke-linecap="round" stroke-linejoin="round"/></svg>