<svg fill="none" viewBox="0 0 24 24"><title>Heart</title><path d="M20.458 4.59a5.255 5.255 0 00-1.708-1.178 5.122 5.122 0 00-4.028 0 5.255 5.255 0 00-1.708 1.178L12 5.636 10.986 4.59a5.182 5.182 0 00-3.722-1.591 5.183 5.183 0 00-3.722 1.59A5.52 5.52 0 002 8.43a5.52 5.52 0 001.542 3.84l1.014 1.047L12 20.998l7.444-7.68 1.014-1.047a5.445 5.445 0 001.141-1.762 5.58 5.58 0 000-4.157 5.445 5.445 0 00-1.141-1.762v0z" stroke="currentColor" stroke-width="2" stroke-linecap="round" stroke-linejoin="round"/></svg>