<svg fill="none" viewBox="0 0 24 24"><title>Link</title><path fill-rule="evenodd" clip-rule="evenodd" d="M15.294 5.171a2.5 2.5 0 113.535 3.535l-3.75 3.75a2.5 2.5 0 01-3.535 0 1.25 1.25 0 00-1.768 1.768 5 5 0 007.07 0l3.75-3.75a5 5 0 00-7.07-7.07l-1.875 1.875a1.251 1.251 0 101.768 1.767l1.875-1.875zm-6.25 6.25a2.5 2.5 0 013.535 0 1.251 1.251 0 002.048-1.362 1.25 1.25 0 00-.28-.405 5 5 0 00-7.07 0l-3.75 3.75a5 5 0 107.07 7.07l1.874-1.875a1.251 1.251 0 10-1.767-1.768l-1.875 1.875a2.5 2.5 0 11-3.535-3.535l3.75-3.75z" fill="currentColor"/></svg>