<svg fill="none" viewBox="0 0 24 24"><title>Log in</title><path fill-rule="evenodd" clip-rule="evenodd" d="M13.8 3c0-.552.403-1 .9-1h3.6c.716 0 1.403.316 1.91.879.505.562.79 1.325.79 2.121v14c0 .796-.285 1.559-.79 2.121-.507.563-1.194.879-1.91.879h-3.6c-.497 0-.9-.448-.9-1s.403-1 .9-1h3.6a.857.857 0 00.636-.293c.17-.187.264-.442.264-.707V5c0-.265-.095-.52-.264-.707A.857.857 0 0018.3 4h-3.6c-.497 0-.9-.448-.9-1zM9.564 6.293a.838.838 0 011.272 0l4.5 5a1.08 1.08 0 010 1.414l-4.5 5a.838.838 0 01-1.272 0 1.08 1.08 0 010-1.414L12.527 13H3.9c-.497 0-.9-.448-.9-1s.403-1 .9-1h8.627L9.564 7.707a1.08 1.08 0 010-1.414z" fill="currentColor"/></svg>
