<svg fill="none" viewBox="0 0 24 24"><title>Log out</title><path fill-rule="evenodd" clip-rule="evenodd" d="M5.7 4a.857.857 0 00-.636.293A1.06 1.06 0 004.8 5v14c0 .265.095.52.264.707A.857.857 0 005.7 20h3.6c.497 0 .9.448.9 1s-.403 1-.9 1H5.7c-.716 0-1.403-.316-1.91-.879A3.177 3.177 0 013 19V5c0-.796.284-1.559.79-2.121C4.298 2.316 4.985 2 5.7 2h3.6c.497 0 .9.448.9 1s-.403 1-.9 1H5.7zm9.264 2.293a.838.838 0 011.272 0l4.5 5a1.08 1.08 0 010 1.414l-4.5 5a.838.838 0 01-1.272 0 1.08 1.08 0 010-1.414L17.927 13H9.3c-.497 0-.9-.448-.9-1s.403-1 .9-1h8.627l-2.963-3.293a1.08 1.08 0 010-1.414z" fill="currentColor"/></svg>