<svg fill="none" viewBox="0 0 24 24"><title>Podcast</title><path d="M11.99 5.414c-3.582 0-6.495 2.845-6.495 6.365 0 1.58.583 3.035 1.597 4.152.28-.4.647-.76 1.057-1.054A4.746 4.746 0 017.027 11.8c0-2.677 2.222-4.868 4.984-4.868 2.761 0 4.984 2.191 4.984 4.868 0 1.18-.432 2.234-1.122 3.077.41.295.776.653 1.057 1.053.992-1.116 1.596-2.55 1.596-4.151-.043-3.52-2.955-6.365-6.537-6.365z" fill="currentColor"/><path d="M11.99 2C6.487 2 2 6.384 2 11.779c0 3.245 1.618 6.111 4.1 7.882l.172-1.665c0-.042 0-.084.021-.105-1.704-1.518-2.761-3.689-2.761-6.112-.022-4.574 3.775-8.283 8.457-8.283s8.48 3.71 8.48 8.283c0 2.423-1.058 4.594-2.762 6.111 0 .043 0 .085.021.148l.173 1.644c2.481-1.77 4.1-4.637 4.1-7.882C21.977 6.384 17.49 2 11.988 2z" fill="currentColor"/><path d="M13.09 15.446h-2.201c-1.597 0-2.934 1.159-3.129 2.697l-.28 2.845c-.065.549.388 1.012.95 1.012h7.098a.94.94 0 00.949-1.012l-.28-2.845c-.173-1.517-1.51-2.697-3.107-2.697zM11.99 14.666c1.632 0 2.955-1.293 2.955-2.887 0-1.595-1.323-2.887-2.956-2.887-1.632 0-2.956 1.292-2.956 2.887 0 1.594 1.324 2.887 2.956 2.887z" fill="currentColor"/></svg>