<svg fill="none" viewBox="0 0 24 24"><title>Refresh</title><path d="M5 2.968v3.5l.571-.563a9.063 9.063 0 013.865-2.253 9.292 9.292 0 014.508-.155 9.115 9.115 0 014.02 1.98 8.704 8.704 0 012.523 3.62l.003.009a.94.94 0 01-.259 1.063 1.007 1.007 0 01-.734.25 1.025 1.025 0 01-.697-.334.96.96 0 01-.195-.335l-.003-.009a6.78 6.78 0 00-2.137-2.96 7.115 7.115 0 00-3.406-1.478 7.218 7.218 0 00-3.706.425 6.978 6.978 0 00-2.954 2.207l-.4.517h4.668c.265 0 .52.102.707.283a.952.952 0 01.293.684.953.953 0 01-.293.685 1.018 1.018 0 01-.707.283H4c-.265 0-.52-.102-.707-.283A.952.952 0 013 9.419V2.968c0-.257.105-.503.293-.685C3.48 2.102 3.735 2 4 2c.265 0 .52.102.707.283A.952.952 0 015 2.968zM3.787 13.86a1.01 1.01 0 01.72-.246 1.026 1.026 0 01.691.32.963.963 0 01.2.325 6.78 6.78 0 002.137 2.96 7.116 7.116 0 003.406 1.478 7.22 7.22 0 003.706-.425 6.977 6.977 0 002.954-2.207l.4-.517h-4.668c-.265 0-.52-.102-.707-.283a.952.952 0 01-.293-.684c0-.257.106-.503.293-.685.188-.181.442-.283.707-.283H20c.265 0 .52.102.707.283a.952.952 0 01.293.685v6.451a.952.952 0 01-.293.685A1.017 1.017 0 0120 22c-.265 0-.52-.102-.707-.283a.952.952 0 01-.293-.685v-3.5l-.571.564a9.063 9.063 0 01-3.865 2.252 9.292 9.292 0 01-4.508.155 9.115 9.115 0 01-4.02-1.98 8.703 8.703 0 01-2.523-3.62.94.94 0 01.04-.74.971.971 0 01.234-.302z" fill="currentColor"/></svg>