<svg fill="none" viewBox="0 0 24 24"><title>Settings</title><path fill-rule="evenodd" clip-rule="evenodd" d="M12 10a2 2 0 100 4 2 2 0 000-4zm-4 2a4 4 0 118 0 4 4 0 01-8 0z" fill="currentColor"/><path fill-rule="evenodd" clip-rule="evenodd" d="M12 3.818a.743.743 0 00-.744.744v.144a2.273 2.273 0 01-1.377 2.08.91.91 0 01-.232.065 2.273 2.273 0 01-2.332-.523l-.007-.007-.05-.05a.746.746 0 00-1.053 0 .744.744 0 000 1.053l.056.057a2.273 2.273 0 01.466 2.48 2.273 2.273 0 01-2.07 1.461h-.095a.744.744 0 000 1.488h.144a2.273 2.273 0 012.078 1.373 2.273 2.273 0 01-.456 2.502l-.007.008-.05.049a.747.747 0 000 1.053.744.744 0 001.053 0l.057-.057a2.273 2.273 0 012.48-.465 2.272 2.272 0 011.461 2.07v.095a.744.744 0 001.488 0V19.294a2.272 2.272 0 011.373-2.078 2.273 2.273 0 012.502.456l.008.008.049.05a.747.747 0 00.811.16.742.742 0 00.242-.16v-.001a.744.744 0 000-1.053l-.057-.057a2.273 2.273 0 01-.456-2.502 2.273 2.273 0 012.078-1.373h.078a.744.744 0 000-1.488H19.294a2.273 2.273 0 01-2.08-1.377.91.91 0 01-.065-.232 2.272 2.272 0 01.523-2.332l.007-.007.05-.05a.747.747 0 000-1.053.744.744 0 00-1.053 0l-.057.056a2.273 2.273 0 01-2.502.457 2.273 2.273 0 01-1.373-2.078v-.078A.744.744 0 0012 3.818zm6.116 10.661l.831.367a.454.454 0 00.089.5l.044.044a2.564 2.564 0 010 3.625l-.642-.643.643.642a2.563 2.563 0 01-3.625 0l-.045-.044a.454.454 0 00-.498-.089l-.01.004a.454.454 0 00-.275.415v.138a2.562 2.562 0 11-5.124 0v-.06a.455.455 0 00-.297-.41.925.925 0 01-.053-.02.454.454 0 00-.5.088l-.044.044a2.566 2.566 0 01-2.794.557 2.562 2.562 0 01-.83-4.18l.044-.046a.455.455 0 00.089-.498l-.004-.01a.454.454 0 00-.415-.275h-.138a2.562 2.562 0 110-5.124h.06a.455.455 0 00.41-.297.911.911 0 01.02-.053.454.454 0 00-.088-.5L4.92 8.61a2.564 2.564 0 01.83-4.18 2.562 2.562 0 012.794.555l.045.045a.455.455 0 00.498.089.908.908 0 01.164-.055.455.455 0 00.187-.364v-.138a2.562 2.562 0 115.124 0v.072a.455.455 0 00.276.415l.008.004a.455.455 0 00.5-.089l.044-.044a2.563 2.563 0 113.625 3.624l-.045.045a.455.455 0 00-.089.498.916.916 0 01.055.164.455.455 0 00.364.187h.138a2.562 2.562 0 010 5.124h-.072a.455.455 0 00-.415.276l-.835-.359z" fill="currentColor"/></svg>
