<svg fill="none" viewBox="0 0 24 24"><title>Share</title><path fill-rule="evenodd" clip-rule="evenodd" d="M17.4 3.818c-.994 0-1.8.814-1.8 1.818a1.824 1.824 0 00.27.958c.317.516.884.86 1.53.86.994 0 1.8-.813 1.8-1.818a1.81 1.81 0 00-1.8-1.818zm-2.558 4.377A3.571 3.571 0 0017.4 9.273c1.988 0 3.6-1.628 3.6-3.637C21 3.628 19.388 2 17.4 2s-3.6 1.628-3.6 3.636c0 .343.047.675.135.99L9.158 9.44A3.571 3.571 0 006.6 8.364C4.612 8.364 3 9.992 3 12s1.612 3.636 3.6 3.636c1 0 1.906-.412 2.558-1.077l4.778 2.812a3.671 3.671 0 00-.136.993c0 2.008 1.612 3.636 3.6 3.636s3.6-1.628 3.6-3.636c0-2.009-1.612-3.637-3.6-3.637-.999 0-1.903.411-2.555 1.075l-4.78-2.814a3.673 3.673 0 000-1.977l4.777-2.816zM8.13 11.04a.912.912 0 00.052.09c.14.258.219.555.219.87a1.825 1.825 0 01-.271.96 1.795 1.795 0 01-1.529.858A1.81 1.81 0 014.8 12a1.81 1.81 0 011.8-1.818c.645 0 1.211.343 1.529.858zm7.665 6.502a.925.925 0 00.11-.19 1.794 1.794 0 011.496-.806c.994 0 1.8.814 1.8 1.818a1.81 1.81 0 01-1.8 1.818 1.81 1.81 0 01-1.8-1.818c0-.296.07-.576.194-.822z" fill="currentColor"/></svg>