<svg fill="none" viewBox="0 0 24 24"><title>Trash</title><path fill-rule="evenodd" clip-rule="evenodd" d="M3 6.545c0-.502.403-.909.9-.909h16.2c.497 0 .9.407.9.91 0 .502-.403.909-.9.909H3.9a.905.905 0 01-.9-.91z" fill="currentColor"/><path fill-rule="evenodd" clip-rule="evenodd" d="M10.2 3.818a.895.895 0 00-.636.266.914.914 0 00-.264.643v.91h5.4v-.91a.914.914 0 00-.264-.643.895.895 0 00-.636-.266h-3.6zm6.3 1.818v-.909c0-.723-.285-1.417-.79-1.928A2.686 2.686 0 0013.8 2h-3.6c-.716 0-1.403.287-1.91.799a2.741 2.741 0 00-.79 1.928v.91H5.7c-.497 0-.9.406-.9.908v12.728c0 .723.284 1.417.79 1.928A2.686 2.686 0 007.5 22h9c.716 0 1.403-.287 1.91-.799.506-.511.79-1.205.79-1.928V6.545a.905.905 0 00-.9-.909h-1.8zM6.6 7.455v11.818c0 .24.095.472.264.643.168.17.397.266.636.266h9a.896.896 0 00.636-.266.914.914 0 00.264-.643V7.455H6.6z" fill="currentColor"/><path fill-rule="evenodd" clip-rule="evenodd" d="M10.2 10.182c.497 0 .9.407.9.909v5.455a.905.905 0 01-.9.909.905.905 0 01-.9-.91v-5.454c0-.502.403-.91.9-.91zM13.8 10.182c.497 0 .9.407.9.909v5.455a.905.905 0 01-.9.909.905.905 0 01-.9-.91v-5.454c0-.502.403-.91.9-.91z" fill="currentColor"/></svg>
