<svg width="69" height="54" viewBox="0 0 69 54" fill="none" xmlns="http://www.w3.org/2000/svg">
<path d="M23.1162 26.5977L34.4262 32.1477L45.7362 26.5977L34.4262 21.0477L23.1162 26.5977Z" fill="#F6BDD6"/>
<path d="M34.4262 44.2577C34.1868 44.2594 33.9504 44.2046 33.7362 44.0977L10.6062 32.7377L4.91617 35.5377L34.4262 50.0277L63.9462 35.5377L58.2462 32.7377L35.0862 44.0977C34.881 44.2001 34.6554 44.2548 34.4262 44.2577Z" fill="#E95495"/>
<path d="M34.4262 35.3177C34.1977 35.3179 33.9721 35.2667 33.7662 35.1677L19.7362 28.2677L14.0162 31.0977L34.4262 41.0977L54.8362 31.0977L49.1462 28.2977L35.0862 35.1977C34.8779 35.2863 34.6524 35.3273 34.4262 35.3177Z" fill="#F195BD"/>
<path d="M18.0062 27.4377L16.3062 26.5977L10.6062 29.3977L12.3162 30.2277L14.0162 31.0677L19.7162 28.2677L18.0062 27.4377Z" fill="#777475"/>
<path d="M35.0862 18.0277C34.8816 17.924 34.6555 17.87 34.4262 17.87C34.1968 17.87 33.9707 17.924 33.7662 18.0277L19.7362 24.9277L21.4462 25.7577L23.1462 26.5977L34.4262 21.0977L45.7362 26.5977L47.4462 25.7577L49.1462 24.9277L35.0862 18.0277Z" fill="#ABA9A9"/>
<path d="M52.5462 26.5977L50.8462 27.4377L49.1462 28.2677L54.8362 31.0677L56.5462 30.2277L58.2462 29.3977L52.5462 26.5977Z" fill="#777475"/>
<path d="M54.8362 22.0977L58.2462 20.4277L35.0862 9.0977C34.8761 8.99444 34.6452 8.94075 34.4112 8.94075C34.1771 8.94075 33.9462 8.99444 33.7362 9.0977L10.6062 20.4577L14.0162 22.0977L34.4262 12.0977L54.8362 22.0977Z" fill="#777475"/>
<path d="M68.8462 26.5977C68.8444 26.3171 68.765 26.0424 68.6168 25.8041C68.4685 25.5658 68.2572 25.3732 68.0062 25.2477L61.6462 22.0977L68.0062 18.9777C68.2571 18.8538 68.4684 18.6622 68.6161 18.4245C68.7638 18.1868 68.8421 17.9125 68.8421 17.6327C68.8421 17.3528 68.7638 17.0786 68.6161 16.8409C68.4684 16.6032 68.2571 16.4116 68.0062 16.2877L35.0862 0.157695C34.8816 0.0540243 34.6555 0 34.4262 0C34.1968 0 33.9707 0.0540243 33.7662 0.157695L0.846167 16.3177C0.595234 16.4416 0.383963 16.6332 0.236238 16.8709C0.0885137 17.1086 0.0102253 17.3828 0.0102253 17.6627C0.0102253 17.9425 0.0885137 18.2168 0.236238 18.4545C0.383963 18.6922 0.595234 18.8838 0.846167 19.0077L7.20617 22.0977L0.846167 25.2177C0.59256 25.3405 0.37868 25.5323 0.229027 25.7711C0.079374 26.0098 0 26.2859 0 26.5677C0 26.8495 0.079374 27.1256 0.229027 27.3643C0.37868 27.6031 0.59256 27.7949 0.846167 27.9177L7.20617 31.0977L0.846167 34.2177C0.595234 34.3416 0.383963 34.5332 0.236238 34.7709C0.0885137 35.0086 0.0102253 35.2828 0.0102253 35.5627C0.0102253 35.8425 0.0885137 36.1168 0.236238 36.3545C0.383963 36.5922 0.595234 36.7838 0.846167 36.9077L33.7362 53.0377C33.9403 53.1429 34.1665 53.1979 34.3962 53.1979C34.6258 53.1979 34.8521 53.1429 35.0562 53.0377L68.0062 36.8777C68.2571 36.7538 68.4684 36.5622 68.6161 36.3245C68.7638 36.0868 68.8421 35.8125 68.8421 35.5327C68.8421 35.2528 68.7638 34.9786 68.6161 34.7409C68.4684 34.5032 68.2571 34.3116 68.0062 34.1877L61.6462 31.0977L68.0062 27.9777C68.2617 27.8499 68.4761 27.6526 68.6247 27.4085C68.7733 27.1644 68.85 26.8834 68.8462 26.5977ZM4.91617 17.6577L34.4262 3.16769L63.9462 17.6577L58.2462 20.4577L54.8362 22.0977L49.1462 24.8977L47.4462 25.7277L45.7362 26.5977L34.4262 32.1477L23.1162 26.5977L21.4162 25.7577L19.7362 24.9277L14.0162 22.0977L10.6062 20.4277L4.91617 17.6577ZM4.91617 35.5377L10.6062 32.7377L33.7362 44.0977C33.9422 44.1962 34.1678 44.2474 34.3962 44.2474C34.6246 44.2474 34.8501 44.1962 35.0562 44.0977L58.2462 32.7377L63.9462 35.5377L34.4262 50.0277L4.91617 35.5377ZM58.2462 29.3977L56.5462 30.2277L54.8362 31.0977L34.4262 41.0977L14.0162 31.0977L12.3162 30.2577L10.6062 29.4277L4.91617 26.6277L10.6062 23.8277L16.3062 26.6277L18.0062 27.4677L19.7062 28.2977L33.7362 35.1677C33.9422 35.2662 34.1678 35.3174 34.3962 35.3174C34.6246 35.3174 34.8501 35.2662 35.0562 35.1677L49.1162 28.2677L50.8162 27.4377L52.5162 26.5977L58.2162 23.7977L63.9162 26.5977L58.2462 29.3977Z" fill="black"/>
</svg>
