<svg width="20" height="20" viewBox="0 0 20 20" fill="none" xmlns="http://www.w3.org/2000/svg">
<path d="M9.99996 15.8332C6.7783 15.8332 4.16663 13.2215 4.16663 9.99984C4.16663 6.77818 6.7783 4.1665 9.99996 4.1665C13.2216 4.1665 15.8333 6.77818 15.8333 9.99984C15.8296 13.22 13.2201 15.8295 9.99996 15.8332ZM9.99996 5.83317C7.69877 5.83317 5.83329 7.69865 5.83329 9.99984C5.83329 12.301 7.69877 14.1665 9.99996 14.1665C12.3011 14.1665 14.1666 12.301 14.1666 9.99984C14.1666 7.69865 12.3011 5.83317 9.99996 5.83317ZM9.99996 12.4998C8.61925 12.4998 7.49996 11.3805 7.49996 9.99984C7.49996 8.61913 8.61925 7.49984 9.99996 7.49984C11.3807 7.49984 12.5 8.61913 12.5 9.99984C12.5 10.6629 12.2366 11.2988 11.7677 11.7676C11.2989 12.2364 10.663 12.4998 9.99996 12.4998Z" fill="#558887"/>
</svg>
