<svg width="43" height="43" viewBox="0 0 43 43" fill="none" xmlns="http://www.w3.org/2000/svg">
<g clip-path="url(#clip0)">
<path d="M11.7317 6.45913L11.1998 14.4684C11.1912 14.9931 10.5785 19.2293 10.5462 19.4633L12.9214 18.4519L12.0293 6.07155C11.9829 6.08266 11.7482 6.34037 11.7317 6.45913Z" fill="#00DC82"/>
<path d="M13.9233 6.81562C13.7393 6.68485 12.174 5.93936 12.0281 6.07217L12.8066 18.4844L17.3443 17.0236L23.8617 11.7129L13.9233 6.81562Z" fill="#33E39B"/>
<path d="M22.6759 34.675L10.5432 19.455L12.9182 18.4433L27.7938 35.008C27.6886 35.0157 22.774 34.7449 22.6759 34.675Z" fill="#00DC82"/>
<path d="M32.3064 32.2721C32.275 32.4946 27.9832 35.002 27.7857 35.0154L12.7976 18.4675L14.949 17.5515L23.8562 11.7132L32.3064 32.2721Z" fill="#33E39B"/>
<path opacity="0.75" d="M20.451 15.2554L16.8235 16.8L15.4947 21.4991L17.2106 23.4637L19.7844 19.9966L20.451 15.2554Z" fill="#33E39B"/>
<path opacity="0.75" d="M23.8605 11.7119L30.0221 26.7245L12.4515 12.6908L12.2591 9.74399L19.9672 9.79362L23.8605 11.7119Z" fill="#99F1CD"/>
</g>
<defs>
<clipPath id="clip0">
<rect width="43" height="43" fill="white"/>
</clipPath>
</defs>
</svg>
