<svg width="20" height="20" viewBox="0 0 20 20" fill="none" xmlns="http://www.w3.org/2000/svg">
<path fill-rule="evenodd" clip-rule="evenodd" d="M9.2507 2.70418C9.71676 2.43194 10.2833 2.43194 10.7494 2.70418L18.373 7.15788C19.4313 7.77603 19.4313 9.37636 18.373 9.99451L16.172 11.2804V14.7236C16.172 15.064 16.0707 15.3967 15.831 15.6256C15.1595 16.2674 13.4239 17.5 10 17.5C6.5762 17.5 4.84053 16.2674 4.16906 15.6256C3.92947 15.3967 3.82815 15.064 3.82815 14.7236V11.2804L1.62707 9.99451C0.56881 9.37636 0.56881 7.77603 1.62707 7.15788L9.2507 2.70418ZM10 4.12249L17.6237 8.57619L10 13.0299L2.37633 8.57619L10 4.12249ZM5.37112 12.1818V14.5705C5.91809 15.0227 7.29833 15.8775 10 15.8775C12.7018 15.8775 14.082 15.0227 14.629 14.5705V12.1818L10.7494 14.4483C10.2833 14.7205 9.71676 14.7205 9.2507 14.4483L5.37112 12.1818Z" fill="white"/>
</svg>
