<svg width="20" height="20" viewBox="0 0 20 20" fill="none" xmlns="http://www.w3.org/2000/svg">
<path d="M15.8333 18.3332H4.16667C3.24619 18.3332 2.5 17.587 2.5 16.6665V4.99984C2.5 4.07936 3.24619 3.33317 4.16667 3.33317H5.83333V1.6665H7.5V3.33317H12.5V1.6665H14.1667V3.33317H15.8333C16.7538 3.33317 17.5 4.07936 17.5 4.99984V16.6665C17.5 17.587 16.7538 18.3332 15.8333 18.3332ZM4.16667 8.33317V16.6665H15.8333V8.33317H4.16667ZM4.16667 4.99984V6.6665H15.8333V4.99984H4.16667ZM14.1667 14.9998H12.5V13.3332H14.1667V14.9998ZM10.8333 14.9998H9.16667V13.3332H10.8333V14.9998ZM7.5 14.9998H5.83333V13.3332H7.5V14.9998ZM14.1667 11.6665H12.5V9.99984H14.1667V11.6665ZM10.8333 11.6665H9.16667V9.99984H10.8333V11.6665ZM7.5 11.6665H5.83333V9.99984H7.5V11.6665Z" fill="white"/>
</svg>
