<svg width="20" height="20" viewBox="0 0 20 20" fill="none" xmlns="http://www.w3.org/2000/svg">
<path d="M16.6625 5.57349C17.4095 5.12689 17.9685 4.42368 18.235 3.59515C17.5331 4.01166 16.765 4.30505 15.9642 4.46265C14.8538 3.28809 13.0946 3.00226 11.6695 3.76487C10.2444 4.52747 9.50626 6.14973 9.86751 7.72515C6.99219 7.5808 4.31332 6.22258 2.49751 3.98849C1.54988 5.623 2.03414 7.71247 3.60418 8.76349C3.03644 8.74523 2.48129 8.59152 1.98501 8.31515C1.98501 8.33015 1.98501 8.34515 1.98501 8.36015C1.98534 10.0628 3.18532 11.5294 4.85418 11.8668C4.32757 12.0101 3.77518 12.0312 3.23918 11.9285C3.70851 13.3845 5.05047 14.3821 6.58001 14.4118C5.31321 15.4061 3.74874 15.9453 2.13835 15.9427C1.85291 15.9431 1.56769 15.9266 1.28418 15.8935C2.9195 16.9443 4.82282 17.5021 6.76668 17.5002C9.47105 17.5187 12.07 16.4526 13.9823 14.5402C15.8945 12.6278 16.9605 10.0287 16.9417 7.32432C16.9417 7.16932 16.9381 7.01515 16.9308 6.86182C17.6312 6.35565 18.2357 5.72861 18.7158 5.01015C18.0634 5.29937 17.3712 5.48926 16.6625 5.57349Z" fill="white"/>
</svg>
