<svg width="120" height="120" viewBox="0 0 120 120" fill="none" xmlns="http://www.w3.org/2000/svg">
<path d="M15.5446 78.452C13.4633 73.6852 15.0179 62.9181 16.0554 58.1305C20.822 49.3006 23.8726 45.6828 24.8021 44.9777L46.5633 27.8781C49.6437 27.6642 56.2414 27.3769 57.9881 27.9389C59.7349 28.5009 64.3948 33.6154 66.5064 36.1023L73.0615 64.4213L72.9912 74.943L69.2164 86.6828C61.9786 93.8941 46.9297 108.976 44.6364 111.612C42.3432 114.248 39.4629 113.964 38.3095 113.493L27.8407 109.522C24.6092 101.152 17.6258 83.2189 15.5446 78.452Z" fill="#40E5A1"/>
<path opacity="0.5" d="M43.9743 57.473L29.6908 70.0494L35.7223 83.1368L48.962 74.7435L43.9743 57.473Z" fill="#80EEC0"/>
<path opacity="0.5" d="M14.6628 68.5571L16.1431 57.858L31.7768 70.1184L36.7948 81.6747L27.8406 109.523L16.0057 79.686C14.6048 76.1544 14.1422 72.3204 14.6628 68.5571Z" fill="#00BB6F"/>
<path opacity="0.8" d="M47.685 74.0314L43.457 60.018L51.7967 34.0812L66.5063 36.1026L73.0614 64.4216L69.2865 76.1614L47.685 74.0314Z" fill="#00DC82"/>
<path opacity="0.5" d="M21.17 50.0217L16.1432 57.8577L31.6891 70.3911L43.6423 60.3789L51.982 34.4421L46.5632 27.8784L28.1026 42.3906C25.382 44.5293 23.0387 47.1087 21.17 50.0217Z" fill="#40E5A1"/>
<path opacity="0.3" d="M51.709 34.3542L46.5632 27.8784L51.5687 27.5536C55.7945 27.2794 59.9176 28.9331 62.7835 32.0516L66.5064 36.1026L51.709 34.3542Z" fill="#00DC82"/>
<path opacity="0.6" d="M27.8407 109.522L36.522 81.5866L47.4122 73.9437L69.3744 75.8885L73.0614 64.4217L72.9912 74.9433L69.2163 86.6831L45.0155 111.408C43.0928 113.373 40.1984 114.03 37.6159 113.088L27.8407 109.522Z" fill="#34CE8F"/>
<path d="M110.891 32.3159C110.7 30.7575 108.643 28.1985 107.638 27.1138C105.044 25.5516 103.695 25.0802 103.346 25.0397L95.0657 23.9395C94.2324 24.3572 92.4739 25.2961 92.1063 25.7105C91.7387 26.1248 91.313 28.1697 91.1461 29.1404L93.7906 37.5062L95.4242 40.2294L98.2075 42.7001C101.195 43.4621 107.421 45.0692 108.422 45.4019C109.423 45.7346 110.128 45.2184 110.355 44.9186L112.466 42.2785C112.02 39.607 111.082 33.8743 110.891 32.3159Z" fill="#40E5A1"/>
<path d="M100.282 31.2325L105.925 32.3063L106.367 36.6339L101.638 36.4868L100.282 31.2325Z" fill="#80EEC0"/>
<path opacity="0.8" d="M112.466 42.2795L111.467 35.9284C110.957 32.6844 109.616 29.6279 107.574 27.0566L105.393 32.6445L105.864 36.4185L112.466 42.2795Z" fill="#00BB6F"/>
<path opacity="0.8" d="M101.86 36.1054L100.807 31.8143L94.658 26.3555L91.1459 29.1407L93.7905 37.5068L96.574 39.9777L101.86 36.1054Z" fill="#00DC82"/>
<path opacity="0.8" d="M95.0657 23.9396L99.3062 24.504C102.185 24.8872 104.98 25.75 107.574 27.0566L105.458 32.702L100.815 31.9366L94.6653 26.4778L95.0657 23.9396Z" fill="#40E5A1"/>
<path d="M94.7228 26.4131L95.0657 23.9397C93.0714 24.9506 91.6415 26.8101 91.1764 28.9976L91.1459 29.1408L94.7228 26.4131Z" fill="#00DC82"/>
<path d="M112.467 42.2798L105.921 36.354L101.918 36.041L96.5095 39.9205L93.7908 37.5071L95.4245 40.2305L98.2079 42.7014L105.259 44.5941C107.908 45.305 110.727 44.3998 112.467 42.2798Z" fill="#34CE8F"/>
<path d="M16.1999 13.7058C16.3909 12.1474 18.4479 9.58836 19.4526 8.50366C22.0468 6.94149 23.395 6.47006 23.7448 6.42961L32.0247 5.32939C32.858 5.74705 34.6166 6.68596 34.9842 7.10035C35.3518 7.51474 35.7775 9.55964 35.9443 10.5303L33.2999 18.8961L31.6662 21.6193L28.8829 24.09C25.895 24.852 19.6691 26.459 18.6684 26.7918C17.6677 27.1245 16.9629 26.6082 16.7356 26.3085L14.6249 23.6684C15.0703 20.9969 16.0088 15.2642 16.1999 13.7058Z" fill="#40E5A1"/>
<path d="M26.808 12.6226L21.1653 13.6963L20.7233 18.0239L25.4525 17.8768L26.808 12.6226Z" fill="#80EEC0"/>
<path opacity="0.8" d="M14.6241 23.6695L15.6231 17.3184C16.1334 14.0744 17.4749 11.018 19.5168 8.44666L21.697 14.0345L21.2267 17.8085L14.6241 23.6695Z" fill="#00BB6F"/>
<path opacity="0.8" d="M25.2302 17.4955L26.2831 13.2043L32.4326 7.74554L35.9447 10.5307L33.3 18.8969L30.5166 21.3677L25.2302 17.4955Z" fill="#00DC82"/>
<path opacity="0.8" d="M32.0248 5.32953L27.7843 5.8939C24.9053 6.27707 22.1108 7.13988 19.5168 8.44653L21.6322 14.0919L26.2757 13.3265L32.4251 7.86768L32.0248 5.32953Z" fill="#40E5A1"/>
<path d="M32.3675 7.80309L32.0246 5.32969C34.019 6.34061 35.4488 8.20007 35.914 10.3876L35.9444 10.5308L32.3675 7.80309Z" fill="#00DC82"/>
<path d="M14.624 23.6697L21.1691 17.7439L25.1725 17.4309L30.5811 21.3104L33.2998 18.897L31.6661 21.6204L28.8826 24.0912L21.8313 25.984C19.1829 26.6949 16.3638 25.7897 14.624 23.6697Z" fill="#34CE8F"/>
</svg>
