<svg width="120" height="120" viewBox="0 0 120 120" fill="none" xmlns="http://www.w3.org/2000/svg">
<path d="M15.5388 78.4523C13.4573 73.6855 15.0121 62.9184 16.0497 58.1307C20.8167 49.3009 23.8675 45.6831 24.7971 44.9779L46.5602 27.8784C49.6409 27.6645 56.2391 27.3771 57.986 27.9391C59.7329 28.5011 64.3932 33.6156 66.505 36.1026L73.0606 64.4216L72.9903 74.9432L69.2152 86.683C61.9768 93.8943 46.9266 108.976 44.6331 111.612C42.3397 114.249 39.4592 113.965 38.3057 113.493L27.836 109.522C24.6042 101.152 17.6203 83.2191 15.5388 78.4523Z" fill="#D1E2E2"/>
<path opacity="0.5" d="M43.9714 57.4731L29.6867 70.0495L35.7188 83.1369L48.9595 74.7436L43.9714 57.4731Z" fill="#E6F0F0"/>
<path opacity="0.8" d="M14.6571 68.5577L16.1375 57.8588L31.7725 70.1192L36.791 81.6754L27.836 109.523L16.0001 79.6868C14.5991 76.1552 14.1364 72.321 14.6571 68.5577Z" fill="#B2CCCC"/>
<path opacity="0.8" d="M47.6823 74.0314L43.4539 60.018L51.7943 34.0812L66.5052 36.1026L73.0608 64.4215L69.2856 76.1614L47.6823 74.0314Z" fill="#D1E2E2"/>
<path opacity="0.8" d="M21.1649 50.0221L16.1378 57.858L31.685 70.3914L43.6392 60.3791L51.9796 34.4423L46.5605 27.8787L28.0983 42.3908C25.3774 44.5296 23.0338 47.109 21.1649 50.0221Z" fill="#E6F0F0"/>
<path d="M51.7066 34.3543L46.5604 27.8785L51.5672 27.5537C55.7929 27.2795 59.9157 28.933 62.7815 32.051L66.5053 36.1027L51.7066 34.3543Z" fill="#B2CCCC"/>
<path d="M27.8364 109.523L36.5184 81.5868L47.4096 73.9439L69.3737 75.8886L73.061 64.4218L72.9908 74.9435L69.2156 86.6833L45.0125 111.409C43.0898 113.373 40.1954 114.03 37.6129 113.088L27.8364 109.523Z" fill="#B2CCCC"/>
<path d="M110.893 32.316C110.702 30.7576 108.645 28.1986 107.641 27.1139C105.046 25.5517 103.698 25.0803 103.348 25.0398L95.0673 23.9396C94.2339 24.3573 92.4752 25.2962 92.1076 25.7106C91.7399 26.125 91.3142 28.1699 91.1473 29.1405L93.792 37.5063L95.4258 40.2296L98.2093 42.7003C101.198 43.4622 107.424 45.0693 108.425 45.402C109.426 45.7347 110.13 45.2185 110.358 44.9187L112.469 42.2786C112.023 39.6071 111.085 33.8744 110.893 32.316Z" fill="#D1E2E2"/>
<path d="M100.284 31.2321L105.927 32.3057L106.369 36.6331L101.64 36.4861L100.284 31.2321Z" fill="#E6F0F0"/>
<path opacity="0.8" d="M112.469 42.2786L111.47 35.9277C110.959 32.6839 109.618 29.6276 107.576 27.0564L105.396 32.6441L105.866 36.4179L112.469 42.2786Z" fill="#92ADAD"/>
<path opacity="0.8" d="M101.862 36.1056L100.809 31.8146L94.6593 26.3561L91.147 29.1412L93.7917 37.507L96.5752 39.9776L101.862 36.1056Z" fill="#B2CCCC"/>
<path opacity="0.8" d="M95.0676 23.9396L99.3082 24.5039C102.187 24.887 104.982 25.7498 107.576 27.0564L105.461 32.7015L100.817 31.9361L94.6672 26.4776L95.0676 23.9396Z" fill="#D1E2E2"/>
<path d="M94.724 26.4138L95.067 23.9402C93.0723 24.9512 91.6423 26.8108 91.1771 28.9985L91.1466 29.1417L94.724 26.4138Z" fill="#B2CCCC"/>
<path d="M112.469 42.2787L105.923 36.3533L101.92 36.0403L96.511 39.9196L93.7922 37.5064L95.426 40.2297L98.2095 42.7004L105.261 44.593C107.91 45.3039 110.729 44.3986 112.469 42.2787Z" fill="#B2CCCC"/>
<path d="M16.1944 13.706C16.3854 12.1476 18.4426 9.5886 19.4474 8.5039C22.0419 6.94173 23.3901 6.4703 23.7399 6.42985L32.0206 5.32964C32.854 5.74729 34.6127 6.6862 34.9803 7.10059C35.348 7.51498 35.7737 9.55988 35.9406 10.5305L33.2959 18.8963L31.6621 21.6196L28.8785 24.0903C25.8904 24.8522 19.6639 26.4593 18.6631 26.792C17.6624 27.1248 16.9575 26.6085 16.7301 26.3088L14.6193 23.6686C15.0647 20.9971 16.0034 15.2644 16.1944 13.706Z" fill="#D1E2E2"/>
<path d="M26.8037 12.6221L21.1608 13.6958L20.7188 18.0232L25.4481 17.8761L26.8037 12.6221Z" fill="#E6F0F0"/>
<path opacity="0.8" d="M14.6194 23.6686L15.6184 17.3177C16.1287 14.0739 17.4701 11.0176 19.5122 8.44641L21.6925 14.0341L21.2222 17.8079L14.6194 23.6686Z" fill="#92ADAD"/>
<path opacity="0.8" d="M25.226 17.4956L26.2789 13.2046L32.4286 7.74613L35.9409 10.5312L33.2962 18.897L30.5127 21.3677L25.226 17.4956Z" fill="#B2CCCC"/>
<path opacity="0.8" d="M32.0203 5.3296L27.7797 5.89392C24.9006 6.27706 22.106 7.13982 19.5118 8.4464L21.6274 14.0915L26.271 13.3262L32.4207 7.86764L32.0203 5.3296Z" fill="#D1E2E2"/>
<path d="M32.3638 7.80382L32.0208 5.33025C34.0155 6.34122 35.4455 8.20081 35.9107 10.3885L35.9412 10.5317L32.3638 7.80382Z" fill="#B2CCCC"/>
<path d="M14.6194 23.6687L21.1647 17.7433L25.1683 17.4303L30.5771 21.3096L33.2959 18.8964L31.6622 21.6197L28.8786 24.0904L21.827 25.983C19.1785 26.6939 16.3592 25.7887 14.6194 23.6687Z" fill="#B2CCCC"/>
</svg>
