<svg width="132" height="132" viewBox="0 0 132 132" fill="none" xmlns="http://www.w3.org/2000/svg">
<path d="M26.8322 36.904L21.4107 51.7391C21.1122 52.7196 17.5278 60.4592 17.3331 60.8872L23.0111 59.7588L27.6828 36.2739C27.5765 36.2797 26.9314 36.6868 26.8322 36.904Z" fill="#00DC82"/>
<path d="M31.3815 38.2839C31.053 37.9794 28.0641 36.0774 27.6777 36.2792L22.7431 59.7871L33.3391 58.5145L50.2709 50.6673L31.3815 38.2839Z" fill="#33E39B"/>
<path d="M47.2439 118.799L17.3274 60.8761L23.0052 59.7469L56.8321 116.402C56.8321 116.402 47.4189 118.962 47.2439 118.799Z" fill="#00DC82"/>
<path d="M84.7722 117.796L56.8346 116.408L22.7364 59.7498L27.8792 58.7277L50.2624 50.6633L95.3175 112.523L89.2759 111.754L84.7722 117.796Z" fill="#33E39B"/>
<path opacity="0.75" d="M41.003 56.2024L32.3317 57.9258L26.9511 66.3014L29.6157 70.5362L37.0327 64.8706L41.003 56.2024Z" fill="#33E39B"/>
<path opacity="0.75" d="M50.268 50.6662L55.5926 80.7837L25.0634 48.8182L26.2186 43.2347L42.868 45.8154L50.268 50.6662Z" fill="#99F1CD"/>
<path d="M109.155 42.659L113.306 54.0176C113.534 54.7682 116.279 60.6941 116.428 61.0218L112.08 60.1578L108.503 42.1765C108.585 42.181 109.079 42.4927 109.155 42.659Z" fill="#00DC82"/>
<path d="M105.672 43.7156C105.924 43.4825 108.212 42.0262 108.508 42.1807L112.286 60.1797L104.173 59.2053L91.2093 53.1971L105.672 43.7156Z" fill="#33E39B"/>
<path d="M95.7293 112.685L116.433 61.0135L112.085 60.1489L84.7994 103.042C84.7994 103.042 95.5953 112.81 95.7293 112.685Z" fill="#00DC82"/>
<path d="M64.7931 104.594L89.4263 110.582L112.291 60.1511L108.354 59.3685L91.2157 53.194L56.7191 100.557L61.3449 99.9684L64.7931 104.594Z" fill="#33E39B"/>
<path opacity="0.75" d="M98.3052 57.435L104.944 58.7545L109.064 65.1673L107.024 68.4097L101.345 64.0719L98.3052 57.435Z" fill="#33E39B"/>
<path opacity="0.75" d="M91.2114 53.1962L87.1347 76.2558L110.509 51.7813L109.625 47.5063L96.8772 49.4822L91.2114 53.1962Z" fill="#99F1CD"/>
<path d="M65.9448 2.5709L53.7019 24.1255C52.9728 25.5725 45.5749 36.5335 45.1706 37.141L53.1415 37.4817L67.2942 1.88864C67.15 1.85793 66.1505 2.26284 65.9448 2.5709Z" fill="#00DC82"/>
<path d="M71.5667 6.46907C71.23 5.86136 67.8745 1.71236 67.29 1.88794L52.7781 37.4187L67.3726 39.3799L92.6511 33.2677L71.5667 6.46907Z" fill="#33E39B"/>
<path d="M61.5245 116.406L45.1727 37.1136L53.1436 37.4532L75.7063 117.349C75.7063 117.349 61.7038 116.731 61.5245 116.406Z" fill="#00DC82"/>
<path d="M88.5327 101.616C88.1464 102.193 72.83 103.467 72.2623 103.242L52.7765 37.362L59.9962 37.6706L92.636 33.2634L88.5327 101.616Z" fill="#33E39B"/>
<path opacity="0.75" d="M78.3963 38.5882L66.2231 38.0678L56.2098 49.3648L58.3464 57.1019L70.1699 50.8809L78.3963 38.5882Z" fill="#33E39B"/>
<path opacity="0.75" d="M92.6494 33.2649L87.7105 113.025L59.5749 20.8468L62.9992 12.4013L84.3894 22.7673L92.6494 33.2649Z" fill="#99F1CD"/>
</svg>
