<svg width="132" height="132" viewBox="0 0 132 132" fill="none" xmlns="http://www.w3.org/2000/svg">
<path d="M68.2192 20.8736L53.7605 8.30079L43.0737 115.379L48.1028 116.636H55.0178L59.4183 113.912H65.9142L68.2192 20.8736Z" fill="#00DC82"/>
<path d="M94.9978 63.0127L98.1229 73.978C98.2912 74.704 100.404 80.4076 100.519 80.7231L96.9196 80.0078L94.469 62.561C94.5368 62.5629 94.9393 62.8527 94.9978 63.0127Z" fill="#00DC82"/>
<path d="M92.0634 64.1469C92.28 63.912 94.2312 62.423 94.4733 62.5651L97.0911 80.0232L90.3555 79.311L79.724 73.8281L92.0634 64.1469Z" fill="#33E39B"/>
<path d="M88.2141 105.364L100.524 80.7149L96.9251 79.9991L81.2075 107.31C81.3559 107.291 88.0987 105.489 88.2141 105.364Z" fill="#00DC82"/>
<path d="M74.1233 104.818C74.2332 105.118 80.9393 107.354 81.2175 107.316L97.0963 79.9951L93.8363 79.3472L79.7295 73.8249L74.1233 104.818Z" fill="#33E39B"/>
<path opacity="0.75" d="M85.5155 77.7559L91.0123 78.8483L94.2576 84.9867L92.4606 88.2118L87.8539 84.1448L85.5155 77.7559Z" fill="#33E39B"/>
<path opacity="0.75" d="M79.7261 73.8272L75.6448 96.4565L95.8585 71.8776L95.2475 67.7307L84.5601 70.0349L79.7261 73.8272Z" fill="#99F1CD"/>
<path d="M111.197 104.179L102.48 111.529C101.887 111.98 97.5524 116.247 97.3117 116.481L96.4871 112.906L111.392 103.512C111.418 103.574 111.319 104.06 111.197 104.179Z" fill="#00DC82"/>
<path d="M108.959 101.969C109.262 102.07 111.42 103.238 111.39 103.517L96.5435 113.068L94.429 106.634L95.0666 94.6886L108.959 101.969Z" fill="#33E39B"/>
<path d="M69.7919 115.371L97.3214 116.483L96.4973 112.907L65.1418 109.781C65.2207 109.908 69.6301 115.318 69.7919 115.371Z" fill="#00DC82"/>
<path d="M64.5076 102.298C64.2793 102.521 64.9916 109.554 65.141 109.792L96.5712 113.062L95.8243 109.823L95.0717 94.6924L64.5076 102.298Z" fill="#33E39B"/>
<path opacity="0.75" d="M93.8612 101.582L95.1205 107.043L90.8543 112.521L87.1758 112.206L88.9944 106.336L93.8612 101.582Z" fill="#33E39B"/>
<path opacity="0.75" d="M95.0682 94.6902L72.7571 100.254L103.466 108.602L106.997 106.343L100.51 97.5423L95.0682 94.6902Z" fill="#99F1CD"/>
<path opacity="0.75" d="M54.1256 38.7225L54.1256 21.5719L68.1437 36.7944L67.937 44.8612L61.3033 41.988L54.1256 38.7225Z" fill="#99F1CD"/>
<path d="M74.247 31.6977L81.858 40.4943C82.3197 41.0913 86.8109 45.483 87.0568 45.7268L82.8526 46.4342L73.4966 31.4862C73.5714 31.4624 74.1219 31.5741 74.247 31.6977Z" fill="#00DC82"/>
<path d="M71.475 33.8371C71.6215 33.5416 73.1821 31.4508 73.5009 31.4887L83.0438 46.3838L75.4159 48.2776L61.707 47.3012L71.475 33.8371Z" fill="#33E39B"/>
<path d="M80.2575 101.335L87.0571 45.7177L82.8528 46.4246L73.1311 102.827C73.1311 102.827 80.1795 101.493 80.2575 101.335Z" fill="#00DC82"/>
<path d="M55.5017 102.538L73.1311 102.538L83.0387 46.3563L79.2307 46.997L61.7117 47.2962L46.8629 101.665L50.8215 99.5558L55.5017 102.538Z" fill="#33E39B"/>
<path opacity="0.75" d="M69.5348 48.6892L75.9555 47.6089L81.8496 51.9689L81.1221 55.5811L74.5344 53.6193L69.5348 48.6892Z" fill="#33E39B"/>
<path opacity="0.75" d="M61.7087 47.2996L65.9161 69.4273L78.5788 39.4383L76.3238 35.896L65.5354 42.0254L61.7087 47.2996Z" fill="#99F1CD"/>
<path d="M40.0556 61.8211L26.2539 54.7253L25.6953 62.9961L47.6141 114.631L51.9139 110.62L40.0556 61.8211Z" fill="#33E39B"/>
<path d="M32.5231 78.4161L28.9639 70.5282L28.4829 67.4605H41.3053L44.6383 80.8455L32.5231 78.4161Z" fill="#7FEDC0"/>
<path d="M26.2623 54.7433L20 72.2776L38.7042 115.426L47.6539 114.671L29.1563 71.1054L26.2623 54.7433Z" fill="#00DC82"/>
<path d="M54.1334 8L36.1633 19.9801L42.6525 115.571H54.1334V8Z" fill="#33E39B"/>
<path opacity="0.75" d="M54.1044 85.8434L54.1044 68.7112L40.9914 84.1153L40.9914 92.6271L46.6094 89.4636L54.1044 85.8434Z" fill="#99F1CD"/>
</svg>
