<svg xmlns="http://www.w3.org/2000/svg" width="120" height="120" fill="none" viewBox="0 0 120 120"><g opacity=".8"><path fill="#00DC82" d="M58.1119 30.1209L39.9546 44.6782C38.1608 46.5934 21.313 60.288 20.3891 61.0494L34.1203 65.0326L59.7247 29.5163C59.1487 29.5225 58.5817 29.735 58.1119 30.1209Z"/><path fill="#33E39B" d="M62.117 31.2853C61.753 30.2021 60.8042 29.5017 59.7243 29.5189L33.5067 64.7756L45.9438 68.3834L77.6522 77.5815L62.117 31.2853Z"/><path fill="#99F1CD" d="M77.6213 77.5184L56.6511 71.4353L34.0039 64.8658L45.3601 48.8404L52.976 38.4873L69.8758 54.4372L77.6213 77.5184Z" opacity=".75"/><path fill="#00DC82" d="M36.0661 107.034L28.4012 84.9858C27.8965 82.4038 20.8834 61.7876 20.5043 60.6482L34.2355 64.6314L37.1113 108.409C36.627 108.096 36.2595 107.612 36.0661 107.034Z"/><path fill="#33E39B" d="M40.0725 108.194C39.191 108.915 38.0172 109 37.1122 108.407L33.58 64.5205L46.0171 68.1283L77.7255 77.3264L40.0725 108.194Z"/><path fill="#99F1CD" d="M77.666 77.3633L56.6957 71.2802L33.5428 64.564L35.1795 84.3583L36.1466 97.2012L58.8935 92.7521L77.666 77.3633Z" opacity=".75"/></g><g opacity=".8"><path fill="#00DC82" d="M93.3175 43.8346L92.0783 50.6368C92.0481 51.4153 90.9345 57.7686 90.8754 58.1193L94.7108 56.322L93.5607 43.3841C93.4333 43.4982 93.3478 43.6566 93.3175 43.8346Z"/><path fill="#33E39B" d="M94.4367 43.3109C94.146 43.1403 93.7988 43.1696 93.561 43.3847L94.5241 56.3846L97.9981 54.7567L106.855 50.6062L94.4367 43.3109Z"/><path fill="#99F1CD" d="M106.836 50.5984L100.978 53.3433L94.6526 56.3077L94.0897 50.5085L93.7884 46.7073L100.645 46.9614L106.836 50.5984Z" opacity=".75"/><path fill="#00DC82" d="M103.265 65.3182L97.2916 61.896C96.6798 61.4184 91.1286 58.1883 90.8237 58.0081L94.6591 56.2108L103.764 65.4208C103.596 65.4455 103.42 65.4094 103.265 65.3182Z"/><path fill="#33E39B" d="M104.384 64.7931C104.327 65.1267 104.081 65.3753 103.764 65.4199L94.4914 56.3141L97.9653 54.6862L106.822 50.5357L104.384 64.7931Z"/><path fill="#99F1CD" d="M106.816 50.5555L100.958 53.3004L94.4912 56.331L98.6833 60.4295L101.382 63.1072L105.6 57.6636L106.816 50.5555Z" opacity=".75"/></g><g opacity=".8"><path fill="#00DC82" d="M41.1909 7.28823L34.6213 9.32475C33.921 9.65742 27.8051 11.5986 27.4686 11.708L30.8249 14.2997L41.7004 7.29709C41.541 7.23612 41.3619 7.23301 41.1909 7.28823Z"/><path fill="#33E39B" d="M42.1696 8.04482C42.1858 7.70666 41.9996 7.4104 41.7001 7.29765L30.6834 14.162L33.7234 16.5095L41.474 22.4944L42.1696 8.04482Z"/><path fill="#99F1CD" d="M41.4721 22.4738L36.3463 18.5157L30.8106 14.2411L35.6636 11.0601L38.8758 9.03535L41.8188 15.2699L41.4721 22.4738Z" opacity=".75"/><path fill="#00DC82" d="M26.8458 26.0881L27.1036 19.1776C27.242 18.411 27.5256 11.9659 27.5436 11.6107L30.8999 14.2025L26.9859 26.581C26.8862 26.4418 26.8369 26.2686 26.8458 26.0881Z"/><path fill="#33E39B" d="M27.8254 26.8437C27.5048 26.9468 27.1722 26.8424 26.9865 26.5805L30.7312 14.1006L33.7711 16.4482L41.5215 22.4333L27.8254 26.8437Z"/><path fill="#99F1CD" d="M41.5012 22.4368L36.3755 18.4785L30.7164 14.1083L29.0394 19.7419L27.9252 23.3867L34.6728 24.6355L41.5012 22.4368Z" opacity=".75"/></g></svg>