<svg width="1440" height="85" viewBox="0 0 1440 85" fill="none" xmlns="http://www.w3.org/2000/svg">
<path d="M1424.81 61.4026L1440 61.4026L1440 53.5458L1440 0L0 0.000125889L6.57829e-06 75.2469L41.9854 70.3704L90.0767 75.2469L108.168 78.8501L166.442 81.8184L237.322 78.8501L311.892 75.2469L354.917 75.2469L375.019 75.2469L417.735 76.359L461.456 78.8501L478.191 81.8184L580.987 81.8184L594.693 82.5209L635.442 82.5209L676.587 85.0001L689.728 85.0001L746.335 85.0001L802.172 82.5209L843.761 85.0001L881.884 85L920.973 85L1002.54 80.3453L1038.73 75.8126L1083.69 70.9842L1102.55 70.9842L1171.82 70.9842L1211.11 68.524L1228.07 64.591L1270.46 64.591L1283.83 62.7838L1305.11 61.2183L1322.01 60.1013L1339.66 61.2183L1358.25 62.7838L1370.54 62.7838L1389.08 60.2305L1397.84 59.2093L1424.81 61.4026Z" fill="#001E26"/>
</svg>
