<svg viewBox="0 0 120 32" fill="none" xmlns="http://www.w3.org/2000/svg"><path fill-rule="evenodd" clip-rule="evenodd" d="M59.084 17.584v.043c0 4.286 3.321 7.758 7.975 7.758s8.022-3.513 8.022-7.802v-.043c0-4.289-3.327-7.758-7.978-7.758-4.652 0-8.02 3.513-8.02 7.802zm12.533 0v.043c0 2.582-1.862 4.696-4.526 4.696-2.665 0-4.558-2.155-4.558-4.74v-.043c0-2.587 1.835-4.698 4.514-4.698 2.68 0 4.57 2.155 4.57 4.742zm-26.416-4.485h4.714v12.023h3.367V13.099h4.7v-3.061H45.201v3.061zm32.648-3.061h6.802c1.912 0 3.396.54 4.385 1.53.839.842 1.291 2.026 1.291 3.448v.043c0 2.435-1.313 3.966-3.225 4.677l3.675 5.386h-3.87L83.684 20.3h-2.525v4.822h-3.31V10.038zm6.516 7.326c1.614 0 2.537-.86 2.537-2.131v-.043c0-1.42-.988-2.144-2.593-2.144h-3.22v4.34l3.276-.022zm20.172-7.326H93.264v15.084h11.381v-2.95h-8.093v-3.169h7.018V16.05h-7.018v-3.059h7.985v-2.953zm9.782 6.056c-2.6-.668-3.245-.991-3.245-1.982v-.043c0-.724.667-1.314 1.925-1.314 1.12 0 2.275.436 3.446 1.176l2.187-2.191a8.705 8.705 0 0 0-5.59-1.917c-3.074 0-5.268 1.81-5.268 4.547v.043c0 2.994 1.958 3.836 4.989 4.612 2.516.646 3.03 1.078 3.03 1.929v.043c0 .885-.815 1.422-2.164 1.422-1.629 0-2.988-.638-4.279-1.658l-2.165 2.17a9.567 9.567 0 0 0 6.386 2.41c3.245 0 5.532-1.687 5.532-4.677v-.043c-.01-2.63-1.729-3.717-4.784-4.527zm-78.63-1.982c0 .99.646 1.314 3.246 1.982 3.043.81 4.772 1.897 4.794 4.527v.043c0 2.99-2.285 4.677-5.532 4.677a9.572 9.572 0 0 1-6.386-2.41l2.165-2.17c1.291 1.02 2.65 1.659 4.279 1.659 1.346 0 2.164-.538 2.164-1.423v-.043c0-.851-.517-1.283-3.03-1.929-3.033-.776-4.989-1.617-4.989-4.612v-.043c0-2.736 2.194-4.547 5.268-4.547a8.709 8.709 0 0 1 5.59 1.917l-2.188 2.19c-1.174-.74-2.326-1.176-3.447-1.176-1.267 0-1.936.59-1.936 1.314v.043z" fill="#3D4C66"/><path d="M16.233.138C11.517 1.806 7.164 5.07 4.117 9.134c-7.328 8.925-5.224 16.906 9.141 15.237 7.546-.798 4.643-9.94-2.031-5.151-8.706 6.384-5.151 16.977 5.369 11.028C27.26 24.008 30.308 7.61 11.735 11.31c-4.498.87-4.136 7.038.725 6.167 3.338-.58 7.546-5.659 7.546-9.36 0-2.103-1.451-3.41-2.902-2.974-1.379.435-1.379 2.394-.218 2.83 1.669.58-.218 4.208-3.918 6.602-1.45.943-2.176-.363-.508-.653 8.053-1.379 10.665 1.16 9.504 5.37-1.305 4.062-3.917 7.182-7.763 8.996-6.602 3.047-6.311-2.612-1.886-6.748 2.25-1.886 3.338-.363 1.306 0-4.135.58-14.655 1.742-9.069-7.98C7.89 7.755 13.331 4.055 17.466 2.894c1.669-.653 1.088-3.555-1.233-2.757z" fill="url(#a)"/><defs><linearGradient id="a" x1="12.523" y1=".16" x2="12.523" y2="32.16" gradientUnits="userSpaceOnUse"><stop stop-color="#00A2D9"/><stop offset=".09" stop-color="#00ADD9"/><stop offset=".14" stop-color="#00B6D9"/><stop offset=".18" stop-color="#0CB6D9"/><stop offset=".25" stop-color="#2BB7D9"/><stop offset=".34" stop-color="#5DB9D9"/><stop offset=".45" stop-color="#A2BBD9"/><stop offset=".54" stop-color="#D9BDD9"/><stop offset=".71" stop-color="#FBB0B7"/><stop offset=".77" stop-color="#FAA3AC"/><stop offset=".87" stop-color="#F9818D"/><stop offset=".99" stop-color="#F65163"/><stop offset="1" stop-color="#F65163"/></linearGradient></defs></svg>