<svg width="2686" height="539" viewBox="0 0 2686 539" fill="none" xmlns="http://www.w3.org/2000/svg">
<path d="M842.35 298.798L776.649 159.293H732.93L842.35 377.867L951.521 159.293H908.04L842.35 298.798Z" fill="#5DCB79"/>
<path d="M1037.77 307.642C1037.77 332.724 1024.14 338.457 1008.14 338.457C993.569 338.457 986.878 331.291 986.878 310.509V229.051H947.458V319.347C947.458 351.118 959.883 369.273 990.697 369.273C1013.63 369.273 1029.4 359.717 1038 343.235V363.062H1077.42V229.051H1038V307.642H1037.77Z" fill="#5DCB79"/>
<path d="M1140.97 306.196H1247.04C1247.51 300.701 1247.51 295.685 1247.51 293.296C1247.51 251.014 1219.33 221.632 1175.61 221.632C1130.45 221.632 1100.35 255.553 1100.35 295.923C1100.35 336.533 1127.35 368.782 1175.61 368.782C1216.22 368.782 1235.33 347.76 1245.84 326.022L1208.58 317.661C1202.84 329.366 1192.33 338.444 1175.61 338.444C1158.4 338.205 1144.55 327.456 1140.97 306.196ZM1205.7 277.53H1141.92C1146.22 261.286 1161.28 251.014 1175.85 251.014C1192.33 250.775 1202.37 260.33 1205.7 277.53Z" fill="#5DCB79"/>
<path d="M1381.06 291.396L1349.53 314.089C1362.43 347.532 1390.61 371.897 1430.03 371.897C1476.37 371.897 1503.14 350.637 1503.14 304.773C1503.14 267.747 1468.98 248.159 1447.95 239.798C1424.54 230.243 1404.23 226.66 1404.23 207.55C1404.23 195.606 1412.59 187.245 1427.64 187.245C1447.95 187.245 1458.46 202.294 1467.3 219.254L1497.4 195.845C1489.28 175.062 1469.21 150.458 1430.27 150.458C1391.33 150.458 1362.43 174.823 1362.43 208.744C1362.43 245.771 1394.44 261.775 1414.26 269.897C1437.68 279.452 1458.46 286.619 1458.46 309.789C1458.46 324.361 1448.66 334.633 1430.99 334.633C1408.77 334.633 1393.24 319.344 1381.06 291.396Z" fill="#5DCB79"/>
<path d="M1533.72 182.454V229.035H1511.73V262.478H1533.72V363.046H1573.13V262.478H1595.12V229.035H1573.13V182.454H1533.72Z" fill="#5DCB79"/>
<path d="M1640.5 296.181C1640.5 271.098 1655.56 255.333 1678.96 255.333C1702.37 255.333 1717.43 271.098 1717.43 296.181C1717.43 321.262 1702.37 337.029 1678.96 337.029C1655.56 336.79 1640.5 321.262 1640.5 296.181ZM1600.84 296.181C1600.84 342.523 1638.11 370.472 1678.96 370.472C1719.82 370.472 1757.09 342.523 1757.09 296.181C1757.09 249.838 1719.82 221.89 1678.96 221.89C1638.11 221.65 1600.84 249.838 1600.84 296.181Z" fill="#5DCB79"/>
<path d="M1867.46 269.174L1887.52 237.643C1880.6 229.282 1870.56 224.505 1855.27 224.505C1842.85 224.505 1829.95 232.626 1821.11 245.765V228.805H1780.25V362.815H1821.11V287.091C1821.11 267.742 1829 262.248 1845 262.248C1852.65 262.487 1861.24 264.637 1867.46 269.174Z" fill="#5DCB79"/>
<path d="M1935.3 306.196H2041.37C2041.85 300.701 2041.85 295.685 2041.85 293.296C2041.85 251.014 2013.66 221.632 1969.94 221.632C1924.79 221.632 1894.69 255.553 1894.69 295.923C1894.69 336.533 1921.68 368.782 1969.94 368.782C2010.55 368.782 2029.66 347.76 2040.17 326.022L2002.91 317.661C1997.18 329.366 1986.67 338.444 1969.94 338.444C1952.74 338.205 1938.88 327.456 1935.3 306.196ZM2000.04 277.53H1936.25C1940.56 261.286 1955.61 251.014 1970.18 251.014C1986.67 250.775 1996.93 260.33 2000.04 277.53Z" fill="#5DCB79"/>
<path d="M2146.25 175.062L2161.06 143.53C2156.76 137.797 2144.09 129.914 2125.7 129.914C2089.63 129.914 2071 150.697 2071 179.362V228.809H2052.12V262.252H2071V362.821H2110.42V262.252H2143.86V228.809H2110.42V186.767C2110.42 170.523 2118.54 165.029 2127.38 165.029C2137.41 165.029 2142.19 168.373 2146.25 175.062Z" fill="#5DCB79"/>
<path d="M2253.99 269.174L2274.06 237.643C2267.13 229.282 2257.1 224.505 2241.81 224.505C2229.38 224.505 2216.48 232.626 2207.65 245.765V228.805H2167.04V362.815H2207.65V287.091C2207.65 267.742 2215.53 262.248 2231.54 262.248C2239.18 262.487 2247.78 264.637 2253.99 269.174Z" fill="#5DCB79"/>
<path d="M2321.12 296.181C2321.12 271.098 2336.17 255.333 2359.58 255.333C2383 255.333 2398.04 271.098 2398.04 296.181C2398.04 321.262 2383 337.029 2359.58 337.029C2336.17 336.79 2321.12 321.262 2321.12 296.181ZM2281.47 296.181C2281.47 342.523 2318.73 370.472 2359.58 370.472C2400.43 370.472 2437.71 342.523 2437.71 296.181C2437.71 249.838 2400.43 221.89 2359.58 221.89C2318.73 221.65 2281.47 249.838 2281.47 296.181Z" fill="#5DCB79"/>
<path d="M2500.29 281.596C2500.29 262.247 2513.92 253.647 2529.92 253.647C2544.49 253.647 2551.18 260.813 2551.18 281.596V363.292H2590.6V272.757C2590.6 240.987 2572.2 222.833 2544.49 222.833C2523.47 222.833 2508.66 233.104 2500.29 248.869V229.043H2460.88V363.053H2500.29V281.596Z" fill="#5DCB79"/>
<path d="M2624.52 182.454V229.035H2602.54V262.478H2624.52V363.046H2663.94V262.478H2685.92V229.035H2663.94V182.454H2624.52Z" fill="#5DCB79"/>
<path d="M494.728 9.09603C494.238 3.94569 490.068 0.0214844 484.917 0.0214844H81.1806C76.0304 0.0214844 71.8607 3.94569 71.3699 9.09603L37.5204 418.686C37.0297 424.327 41.4453 429.233 47.3321 429.233H520.483C526.125 429.233 530.785 424.327 530.295 418.686L494.728 9.09603ZM273.729 383.123C203.087 383.123 145.69 313.959 145.69 229.343C145.69 224.928 149.369 221.249 153.785 221.249C158.2 221.249 161.88 224.928 161.88 229.343C161.88 305.375 212.162 367.181 273.973 367.181C335.785 367.181 386.068 305.375 386.068 229.343C386.068 224.928 389.747 221.249 394.162 221.249C398.577 221.249 402.256 224.928 402.256 229.343C401.766 313.959 344.37 383.123 273.729 383.123ZM440.766 224.438C437.577 227.626 432.672 227.626 429.483 224.438L394.162 189.12L358.351 224.928C356.879 226.4 354.671 227.381 352.709 227.381C350.748 227.381 348.54 226.646 347.068 224.928C343.879 221.74 343.879 216.834 347.068 213.646L388.521 172.196C389.992 170.725 391.955 169.744 394.162 169.744C396.37 169.744 398.333 170.479 399.804 172.196L440.766 213.155C443.955 216.344 443.955 221.249 440.766 224.438Z" fill="#53C174"/>
<path d="M464.247 139.773H95.1755V449.114H464.247V139.773Z" fill="white"/>
<path d="M567.825 525.384L527.353 34.8577C526.862 28.4812 521.466 23.5757 515.089 23.5757H52.2391C45.8616 23.5757 40.4655 28.4812 39.9748 34.8577L0.975069 525.384C0.484336 532.497 6.12626 538.629 13.2394 538.629H555.805C562.918 538.629 568.56 532.497 567.825 525.384ZM273.73 383.131C203.089 383.131 145.692 313.967 145.692 229.352C145.692 224.937 149.371 221.258 153.787 221.258C158.201 221.258 161.881 224.937 161.881 229.352C161.881 305.384 212.164 367.19 273.975 367.19C335.786 367.19 386.07 305.384 386.07 229.352C386.07 224.937 389.749 221.258 394.164 221.258C398.579 221.258 402.258 224.937 402.258 229.352C401.767 313.967 344.372 383.131 273.73 383.131ZM440.768 224.446C437.579 227.635 432.674 227.635 429.484 224.446L394.164 189.128L358.353 224.937C356.881 226.409 354.673 227.39 352.711 227.39C350.749 227.39 348.541 226.653 347.069 224.937C343.881 221.749 343.881 216.843 347.069 213.655L388.523 172.205C389.994 170.734 391.957 169.753 394.164 169.753C396.371 169.753 398.334 170.488 399.805 172.205L440.768 213.164C443.956 216.353 443.956 221.258 440.768 224.446Z" fill="url(#paint0_linear)"/>
<defs>
<linearGradient id="paint0_linear" x1="545.398" y1="554.528" x2="23.8815" y2="47.3341" gradientUnits="userSpaceOnUse">
<stop stop-color="#5DCB79"/>
<stop offset="1" stop-color="#61D67F"/>
</linearGradient>
</defs>
</svg>
