<svg xmlns="http://www.w3.org/2000/svg" width="108" height="100" fill="none" viewBox="0 0 108 100"><g opacity=".7"><path fill="url(#paint0_linear)" d="M84.5609 79.4872L60.0382 74.4136L0 99.5L80.8966 90.762L84.5609 79.4872Z"/><path fill="url(#paint1_linear)" d="M85.4065 0L25.6501 21.704H45.9448L36.9249 44.8173L58.347 50.4547L60.0382 74.4136L84.5609 79.4873L107.11 11.5567L107.674 0.563739L85.4065 0Z"/><path fill="url(#paint2_linear)" d="M0 84.561L25.6501 21.7041H45.9448L36.9249 44.8174L0 99.5001V84.561Z"/><path fill="url(#paint3_linear)" d="M58.347 50.4548L36.9249 44.8174L0 99.5001L60.0382 74.4137L58.347 50.4548Z"/><path fill="#000" d="M36.9249 44.5354L45.9448 21.704L85.4065 0L107.674 0.563739L107.11 11.5567L58.347 50.4547L36.9249 44.5354Z" opacity=".05"/></g><defs><linearGradient id="paint0_linear" x1="3.382" x2="78.924" y1="98.373" y2="79.487" gradientUnits="userSpaceOnUse"><stop stop-color="#00DC82"/><stop offset="1" stop-color="#018750"/></linearGradient><linearGradient id="paint1_linear" x1="107.956" x2="47.354" y1="0" y2="55.528" gradientUnits="userSpaceOnUse"><stop stop-color="#00DC82"/><stop offset="1" stop-color="#00985A"/></linearGradient><linearGradient id="paint2_linear" x1="41.999" x2="-3.101" y1="21.422" y2="99.218" gradientUnits="userSpaceOnUse"><stop stop-color="#017E4B"/><stop offset="1" stop-color="#00DC82"/></linearGradient><linearGradient id="paint3_linear" x1="1.127" x2="60.038" y1="98.373" y2="49.609" gradientUnits="userSpaceOnUse"><stop stop-color="#00DC82"/><stop offset="1" stop-color="#027143"/></linearGradient></defs></svg>