<svg xmlns="http://www.w3.org/2000/svg" width="145" height="139" fill="none" viewBox="0 0 145 139"><g opacity=".8"><path fill="url(#paint0_linear)" d="M80.6555 76.2209L104.406 76.6204L122.486 93.1225L122.43 111.543L103.756 126.601L80.6555 76.2209Z"/><path fill="url(#paint1_linear)" d="M61.0902 102.698L80.6556 76.2213L103.756 126.601L79.2696 120.853L61.0902 102.698Z"/><path fill="url(#paint2_linear)" d="M49.2271 120.666L61.0902 102.698L79.2695 120.853L49.2271 120.666Z"/><path fill="url(#paint3_linear)" d="M78.787 58.9118L109.629 53.0785L104.406 76.6206L80.6555 76.2211L78.787 58.9118Z"/><path fill="url(#paint4_linear)" d="M86.8126 19.8543L109.63 53.0787L78.7871 58.912L64.7227 41.5882L86.8126 19.8543Z"/><path fill="url(#paint5_linear)" d="M61.3376 8.69059L86.8124 19.8543L64.7225 41.5881L49.645 39.1747L61.3376 8.69059Z"/><path fill="url(#paint6_linear)" d="M21.5367 29.7452L61.3376 8.69043L49.6451 39.1746L37.6512 53.5827L21.5367 29.7452Z"/><path fill="url(#paint7_linear)" d="M38.4983 78.7521L37.6513 53.5834L21.5367 29.7458L17.1614 63.2751L38.4983 78.7521Z"/><path fill="url(#paint8_linear)" d="M49.3922 39.1072L64.7227 41.5884L78.7871 58.9122L80.6556 76.2215L61.0903 102.698L38.4984 78.7519L37.6513 53.5832L49.3922 39.1072Z"/><path fill="url(#paint9_linear)" d="M49.2269 120.665L17.1613 63.2744L38.4982 78.7514L61.0901 102.698L49.2269 120.665Z"/></g><defs><linearGradient id="paint0_linear" x1="123.684" x2="80.705" y1="106.863" y2="77.047" gradientUnits="userSpaceOnUse"><stop stop-color="#1CC47F"/><stop offset="1" stop-color="#00FF97"/></linearGradient><linearGradient id="paint1_linear" x1="91.966" x2="78.979" y1="125.069" y2="81.465" gradientUnits="userSpaceOnUse"><stop stop-color="#03CE7B"/><stop offset=".953" stop-color="#0CC87B"/></linearGradient><linearGradient id="paint2_linear" x1="46.39" x2="71.167" y1="123.159" y2="111.633" gradientUnits="userSpaceOnUse"><stop stop-color="#00DC82"/><stop offset="1" stop-color="#02BB6F"/></linearGradient><linearGradient id="paint3_linear" x1="80.363" x2="106.814" y1="67.196" y2="65.608" gradientUnits="userSpaceOnUse"><stop stop-color="#06EB8D"/><stop offset="1" stop-color="#28CF8B"/></linearGradient><linearGradient id="paint4_linear" x1="98.329" x2="70.987" y1="37.58" y2="50.587" gradientUnits="userSpaceOnUse"><stop stop-color="#20D58B"/><stop offset="1" stop-color="#00DC82"/></linearGradient><linearGradient id="paint5_linear" x1="57.369" x2="74.337" y1="40.702" y2="13.8" gradientUnits="userSpaceOnUse"><stop stop-color="#16D285"/><stop offset="1" stop-color="#13CB80"/><stop offset="1" stop-color="#13CB80"/></linearGradient><linearGradient id="paint6_linear" x1="45.692" x2="33.007" y1="43.809" y2="16.281" gradientUnits="userSpaceOnUse"><stop stop-color="#00DC82"/><stop offset="1" stop-color="#1A9B66"/></linearGradient><linearGradient id="paint7_linear" x1="33.594" x2="15.361" y1="60.63" y2="45.713" gradientUnits="userSpaceOnUse"><stop stop-color="#00DC82"/><stop offset="1" stop-color="#0EB36F"/></linearGradient><linearGradient id="paint8_linear" x1="73.626" x2="37.719" y1="86.267" y2="53.33" gradientUnits="userSpaceOnUse"><stop stop-color="#00DC82"/><stop offset="1" stop-color="#1AAE72"/></linearGradient><linearGradient id="paint9_linear" x1="41.063" x2="13.043" y1="83.263" y2="98.975" gradientUnits="userSpaceOnUse"><stop stop-color="#00DC82"/><stop offset="1" stop-color="#108455"/></linearGradient></defs></svg>