<svg xmlns="http://www.w3.org/2000/svg" width="177" height="168" fill="none" viewBox="0 0 177 168"><g opacity=".8"><path fill="url(#paint0_linear)" d="M32.3068 57.7747L34.4877 100.198L123.554 137.342L141.064 110.33L80.1434 52.9111L32.3068 57.7747Z"/><path fill="url(#paint1_linear)" d="M24.3304 42.2383L34.4877 100.198L32.3068 57.7746L24.3304 42.2383Z"/><path fill="url(#paint2_linear)" d="M24.3303 42.2376L32.3067 57.7739L80.1433 52.9104L54.6995 26.3564L24.3303 42.2376Z"/><path fill="url(#paint3_linear)" d="M107.985 40.1293L80.1434 52.9104L54.6996 26.3564L107.985 40.1293Z"/><path fill="url(#paint4_linear)" d="M107.985 40.1294L80.1433 52.9105L141.064 110.329L161.149 108.642L107.985 40.1294Z"/><path fill="#00DC82" d="M148.909 131.565L141.064 110.329L161.149 108.643L148.909 131.565Z"/><path fill="url(#paint5_linear)" d="M123.554 137.341L148.909 131.565L141.064 110.329L123.554 137.341Z"/></g><defs><linearGradient id="paint0_linear" x1="47.324" x2="126.714" y1="55.181" y2="133.466" gradientUnits="userSpaceOnUse"><stop stop-color="#1CED97"/><stop offset="1" stop-color="#007042"/></linearGradient><linearGradient id="paint1_linear" x1="20.085" x2="48.642" y1="70.389" y2="64.643" gradientUnits="userSpaceOnUse"><stop stop-color="#00DC82"/><stop offset="1" stop-color="#03B86E"/></linearGradient><linearGradient id="paint2_linear" x1="32.072" x2="70.822" y1="32.744" y2="64.342" gradientUnits="userSpaceOnUse"><stop stop-color="#00DC82"/><stop offset="1" stop-color="#009C5C"/></linearGradient><linearGradient id="paint3_linear" x1="86.386" x2="79.684" y1="19.937" y2="51.891" gradientUnits="userSpaceOnUse"><stop stop-color="#00DC82"/><stop offset="1" stop-color="#03975A"/></linearGradient><linearGradient id="paint4_linear" x1="86.937" x2="162.887" y1="44.579" y2="106.511" gradientUnits="userSpaceOnUse"><stop stop-color="#00BB6F"/><stop offset="1" stop-color="#019F5F"/></linearGradient><linearGradient id="paint5_linear" x1="130.953" x2="146.066" y1="122.729" y2="135.053" gradientUnits="userSpaceOnUse"><stop stop-color="#219C6A"/><stop offset="1" stop-color="#00DC82"/></linearGradient></defs></svg>