<svg xmlns="http://www.w3.org/2000/svg" width="96" height="142" fill="none" viewBox="0 0 96 142"><g opacity=".8"><path fill="#009A5B" d="M0 97.5L6.5 107.5L10 131.5L0 97.5Z"/><path fill="url(#paint0_linear)" d="M71.5 34.5L23 28.5L6.5 107.5L56 119.5L71.5 34.5Z"/><path fill="url(#paint1_linear)" d="M38.5 0L23 28.5L71.5 34.5L70.5 2.5L38.5 0Z"/><path fill="url(#paint2_linear)" d="M81.5 45.5L71.5 34.5L70.5 2.5L95.5 33L96 41.5L81.5 45.5Z"/><path fill="url(#paint3_linear)" d="M96 41.5L81.5 45.5L67.5 114L81 123L96 41.5Z"/><path fill="url(#paint4_linear)" d="M81.5 45.5L71.5 34.5L56 119.5L67.5 114L81.5 45.5Z"/><path fill="url(#paint5_linear)" d="M10 131.5L6.5 107.5L56 119.5L43.5 141.5L10 131.5Z"/><path fill="url(#paint6_linear)" d="M65 132.5L56 119.5L67.5 114L68.5 114.5L66.5 132L65 132.5Z"/><path fill="url(#paint7_linear)" d="M81 123L68.5 114.5L66.5 132L81 123Z"/><path fill="url(#paint8_linear)" d="M65 132.5L43.5 141.5L56 119.5L65 132.5Z"/><path fill="#00BB6F" d="M6.5 107.5L0 97.5L12 33L23 28.5L6.5 107.5Z"/><path fill="#009A5B" d="M21 25L12 33L23 28.5L38.5 0L21 25Z"/></g><defs><linearGradient id="paint0_linear" x1="59.5" x2="18" y1="29.5" y2="115" gradientUnits="userSpaceOnUse"><stop stop-color="#00DC82"/><stop offset="1" stop-color="#21A871"/></linearGradient><linearGradient id="paint1_linear" x1="47.25" x2="47.25" y1="0" y2="34.5" gradientUnits="userSpaceOnUse"><stop stop-color="#00DC82"/><stop offset="1" stop-color="#0AAA69"/></linearGradient><linearGradient id="paint2_linear" x1="71" x2="95" y1="14" y2="42" gradientUnits="userSpaceOnUse"><stop stop-color="#00DC82"/><stop offset="1" stop-color="#30CE8D"/></linearGradient><linearGradient id="paint3_linear" x1="75.5" x2="91.5" y1="76.5" y2="81.5" gradientUnits="userSpaceOnUse"><stop stop-color="#26C584"/><stop offset="1" stop-color="#089F62"/></linearGradient><linearGradient id="paint4_linear" x1="72.5" x2="68.75" y1="37" y2="119.5" gradientUnits="userSpaceOnUse"><stop stop-color="#2AEA9B"/><stop offset="1" stop-color="#20B377"/></linearGradient><linearGradient id="paint5_linear" x1="31.5" x2="25" y1="113.5" y2="139" gradientUnits="userSpaceOnUse"><stop stop-color="#0FBA74"/><stop offset="1" stop-color="#33E39B"/></linearGradient><linearGradient id="paint6_linear" x1="67" x2="64" y1="119.5" y2="131" gradientUnits="userSpaceOnUse"><stop stop-color="#12BB76"/><stop offset="1" stop-color="#057748"/></linearGradient><linearGradient id="paint7_linear" x1="69.5" x2="74" y1="116.5" y2="128" gradientUnits="userSpaceOnUse"><stop offset="0" stop-color="#13BF79"/><stop offset="1" stop-color="#047748"/></linearGradient><linearGradient id="paint8_linear" x1="55.5" x2="54.25" y1="119" y2="141.5" gradientUnits="userSpaceOnUse"><stop stop-color="#10B16F"/><stop offset="1" stop-color="#18A96E"/></linearGradient></defs></svg>