<svg width="150" height="150" viewBox="0 0 150 150" fill="none" xmlns="http://www.w3.org/2000/svg">
<path d="M47.3671 116.541C31.9765 106.951 31.8986 91.2806 47.1931 81.5389V81.5389C62.4876 71.7972 87.3627 71.6736 102.753 81.2628V81.2628C118.144 90.8519 118.222 106.523 102.927 116.264V116.264C87.6328 126.006 62.7576 126.13 47.3671 116.541V116.541Z" fill="#032A2A"/>
<path d="M55.3069 108.737C44.4783 101.99 44.4235 90.9647 55.1845 84.1105V84.1105C65.9455 77.2564 83.4474 77.1694 94.276 83.9162V83.9162C105.105 90.6631 105.159 101.689 94.3984 108.543V108.543C83.6374 115.397 66.1355 115.484 55.3069 108.737V108.737Z" fill="url(#paint0_radial)" fill-opacity="0.5"/>
<path d="M47.3671 101.175C31.9765 91.586 31.8986 75.9152 47.1931 66.1735V66.1735C62.4876 56.4318 87.3627 56.3082 102.753 65.8973V65.8973C118.144 75.4865 118.222 91.1573 102.927 100.899V100.899C87.6328 110.641 62.7576 110.764 47.3671 101.175V101.175Z" fill="#003C3C"/>
<path d="M55.3069 91.9373C44.4783 85.1905 44.4235 74.1647 55.1845 67.3105V67.3105C65.9455 60.4564 83.4474 60.3694 94.276 67.1162V67.1162C105.105 73.8631 105.159 84.8889 94.3984 91.743V91.743C83.6374 98.5971 66.1355 98.6841 55.3069 91.9373V91.9373Z" fill="url(#paint1_radial)"/>
<path d="M47.3671 83.3513C31.9765 73.7621 31.8986 58.0913 47.1931 48.3496V48.3496C62.4876 38.6079 87.3627 38.4843 102.753 48.0735V48.0735C118.144 57.6626 118.222 73.3334 102.927 83.0751V83.0751C87.6328 92.8168 62.7576 92.9405 47.3671 83.3513V83.3513Z" fill="#00DC82"/>
<path d="M55.3069 75.1373C44.4783 68.3904 44.4235 57.3647 55.1845 50.5105V50.5105C65.9455 43.6564 83.4474 43.5694 94.276 50.3162V50.3162C105.105 57.0631 105.159 68.0888 94.3984 74.943V74.943C83.6374 81.7971 66.1355 81.8841 55.3069 75.1373V75.1373Z" fill="url(#paint2_radial)"/>
<path d="M47.3671 66.4655C31.9765 56.8763 31.8986 41.2055 47.1931 31.4638V31.4638C62.4876 21.7221 87.3627 21.5985 102.753 31.1877V31.1877C118.144 40.7768 118.222 56.4476 102.927 66.1893V66.1893C87.6328 75.931 62.7576 76.0547 47.3671 66.4655V66.4655Z" fill="#5BE8AF"/>
<defs>
<radialGradient id="paint0_radial" cx="0" cy="0" r="1" gradientUnits="userSpaceOnUse" gradientTransform="translate(74.7914 96.3268) rotate(31.9252) scale(23.1013 20.837)">
<stop/>
<stop offset="1" stop-opacity="0"/>
</radialGradient>
<radialGradient id="paint1_radial" cx="0" cy="0" r="1" gradientUnits="userSpaceOnUse" gradientTransform="translate(74.7914 79.5268) rotate(31.9252) scale(23.1013 20.837)">
<stop/>
<stop offset="1" stop-opacity="0"/>
</radialGradient>
<radialGradient id="paint2_radial" cx="0" cy="0" r="1" gradientUnits="userSpaceOnUse" gradientTransform="translate(74.7914 62.7268) rotate(31.9252) scale(23.1013 20.837)">
<stop/>
<stop offset="1" stop-opacity="0"/>
</radialGradient>
</defs>
</svg>
