<svg xmlns="http://www.w3.org/2000/svg" width="150" height="150" fill="none" viewBox="0 0 150 150"><rect width="9" height="48.9" x="106.396" y="37.24" fill="#003C3C" transform="rotate(45 106.396 37.2405)"/><rect width="9" height="48.9" x="71.818" y="71.818" fill="#003C3C" transform="rotate(45 71.818 71.818)"/><rect width="9" height="48.9" x="37.24" y="43.605" fill="#003C3C" transform="rotate(-45 37.2405 43.6045)"/><rect width="9" height="48.9" x="71.818" y="78.182" fill="#003C3C" transform="rotate(-45 71.818 78.182)"/><circle cx="75" cy="75" r="28.5" fill="#00DC82"/><circle cx="75" cy="75" r="17.7" fill="#003C3C"/><ellipse cx="33.3" cy="33.6" fill="#00DC82" rx="11.4" ry="11.4"/><ellipse cx="33.3" cy="33.6" fill="#003C3C" rx="7.08" ry="7.08"/><ellipse cx="33.3" cy="116.4" fill="#00DC82" rx="11.4" ry="11.4"/><ellipse cx="33.3" cy="116.4" fill="#003C3C" rx="7.08" ry="7.08"/><ellipse cx="116.7" cy="33.6" fill="#00DC82" rx="11.4" ry="11.4"/><ellipse cx="116.7" cy="33.6" fill="#003C3C" rx="7.08" ry="7.08"/><ellipse cx="116.7" cy="116.4" fill="#00DC82" rx="11.4" ry="11.4"/><ellipse cx="116.7" cy="116.4" fill="#003C3C" rx="7.08" ry="7.08"/></svg>