<svg xmlns="http://www.w3.org/2000/svg" width="150" height="150" fill="none" viewBox="0 0 150 150"><path fill="#00DC82" d="M80.7377 94.362C77.1457 90.0786 77.7061 83.6944 81.9894 80.1023C86.2727 76.5103 92.657 77.0707 96.249 81.354L131.121 122.936C134.713 127.22 134.152 133.604 129.869 137.196C125.586 140.788 119.201 140.228 115.609 135.944L80.7377 94.362Z"/><path fill="#00DC82" fill-rule="evenodd" d="M58.65 85.2C76.7926 85.2 91.5 70.4925 91.5 52.35C91.5 34.2074 76.7926 19.5 58.65 19.5C40.5075 19.5 25.8 34.2074 25.8 52.35C25.8 70.4925 40.5075 85.2 58.65 85.2ZM58.65 98.7C84.2484 98.7 105 77.9484 105 52.35C105 26.7516 84.2484 6 58.65 6C33.0516 6 12.3 26.7516 12.3 52.35C12.3 77.9484 33.0516 98.7 58.65 98.7Z" clip-rule="evenodd"/><rect width="7.686" height="25.491" x="50.722" y="33.568" fill="#003C3C" rx="3.843" transform="rotate(42.9771 50.7223 33.5681)"/><rect width="7.686" height="25.491" x="55.721" y="66.098" fill="#003C3C" rx="3.843" transform="rotate(139.255 55.7206 66.0981)"/><rect width="7.566" height="25.491" fill="#003C3C" rx="3.783" transform="matrix(-0.731627 0.681706 0.681706 0.731626 66.6385 33.5681)"/><rect width="7.635" height="25.491" fill="#003C3C" rx="3.817" transform="matrix(0.757618 0.652698 0.652698 -0.757618 61.5825 66.0981)"/></svg>