<svg width="150" height="150" viewBox="0 0 150 150" fill="none" xmlns="http://www.w3.org/2000/svg">
<mask id="mask0" mask-type="alpha" maskUnits="userSpaceOnUse" x="13" y="40" width="124" height="63">
<path d="M23.2672 101.942C19.9658 101.942 17.464 101.065 15.7617 99.3108C14.1111 97.5054 13.2857 95.2615 13.2857 92.5791C13.2857 90.2578 13.8789 88.3492 15.0654 86.8533C16.3034 85.3058 17.7477 84.1193 19.3984 83.294C21.0491 82.4687 23.1898 81.6175 25.8206 80.7406C28.6062 79.8121 30.6437 78.9609 31.9333 78.1872C33.2229 77.4134 33.8677 76.3302 33.8677 74.9374V68.0509C33.8677 66.4002 33.4551 64.9301 32.6297 63.6405C31.8044 62.3509 30.3858 61.7061 28.374 61.7061C26.7749 61.7061 25.3306 62.1446 24.041 63.0215C25.7948 63.6405 27.0844 64.569 27.9098 65.807C28.7867 66.9935 29.2252 68.3346 29.2252 69.8306C29.2252 71.8424 28.503 73.4672 27.0586 74.7053C25.6659 75.8917 23.9636 76.4849 21.9518 76.4849C19.94 76.4849 18.3409 75.8659 17.1545 74.6279C16.0197 73.3383 15.4522 71.7134 15.4522 69.7532C15.4522 68.2057 15.8391 66.8645 16.6129 65.7296C17.3866 64.5948 18.5989 63.5631 20.2495 62.6346C23.1383 60.9839 27.265 60.1586 32.6297 60.1586C35.4668 60.1586 37.9171 60.4423 39.9804 61.0097C42.0438 61.5255 43.7977 62.5314 45.242 64.0274C46.2737 65.1106 46.9443 66.4776 47.2538 68.1283C47.6149 69.7274 47.7954 71.9713 47.7954 74.86V95.5968C47.7954 96.8864 47.8728 97.7633 48.0275 98.2276C48.2339 98.6918 48.5692 98.924 49.0334 98.924C49.3945 98.924 49.7814 98.8208 50.1941 98.6145C50.6068 98.3565 50.9936 98.0728 51.3547 97.7633L52.1285 99.0787C49.9104 100.987 46.7379 101.942 42.6112 101.942C39.5162 101.942 37.3497 101.426 36.1116 100.394C34.8736 99.3108 34.203 97.8665 34.0999 96.061C31.6754 99.9814 28.0645 101.942 23.2672 101.942ZM31.0048 95.7515C32.0881 95.7515 33.0424 95.3131 33.8677 94.4361V78.1098C33.4035 78.8836 32.5523 79.8895 31.3143 81.1275C29.9216 82.4687 28.8641 83.784 28.1419 85.0737C27.4197 86.3117 27.0586 88.0139 27.0586 90.1805C27.0586 93.8945 28.374 95.7515 31.0048 95.7515Z" fill="#00DC82"/>
<path d="M83.253 60.1586C87.2765 60.1586 90.5263 61.8093 93.0024 65.1106C95.4784 68.412 96.7164 73.2351 96.7164 79.58C96.7164 87.7818 95.0657 93.6624 91.7644 97.2217C88.463 100.729 84.1041 102.483 78.6878 102.483C77.0371 102.483 75.6443 102.432 74.5095 102.329C73.4262 102.225 72.4203 101.967 71.4918 101.555C69.5832 100.781 67.5972 100.394 65.5339 100.394C63.9864 100.394 62.542 100.6 61.2008 101.013C59.8596 101.426 58.8279 101.967 58.1058 102.638L57.0225 101.864C57.3836 100.781 57.5641 99.3624 57.5641 97.6086V50.1771C57.5641 47.8042 57.2288 46.0761 56.5583 44.9929C55.9392 43.9096 54.8302 43.368 53.2311 43.368V41.7431C54.8302 41.8978 56.4293 41.9752 58.0284 41.9752C63.3931 41.9752 67.8809 41.6141 71.4918 40.8919V65.9618C73.8647 62.093 77.7851 60.1586 83.253 60.1586ZM75.1285 100.936C79.8742 100.936 82.2471 94.4104 82.2471 81.3596C82.2471 75.0148 81.7828 70.5785 80.8543 68.0509C79.9258 65.4717 78.662 64.1821 77.0629 64.1821C75.567 64.1821 74.2516 64.7238 73.1167 65.807C72.0335 66.8387 71.4918 68.1541 71.4918 69.7532V100.007C72.6783 100.626 73.8905 100.936 75.1285 100.936Z" fill="#00DC82"/>
<path d="M121.367 60.1586C123.482 60.1586 125.417 60.3907 127.171 60.8549C128.976 61.2676 130.446 61.8093 131.581 62.4799C133.025 63.3052 134.16 64.4143 134.986 65.807C135.811 67.1998 136.224 68.7731 136.224 70.527C136.224 72.6935 135.527 74.4989 134.134 75.9433C132.742 77.336 130.962 78.0324 128.795 78.0324C126.577 78.0324 124.823 77.4134 123.534 76.1754C122.296 74.8858 121.677 73.1835 121.677 71.0686C121.677 69.2116 122.27 67.5867 123.456 66.1939C124.695 64.7495 126.216 63.7952 128.022 63.331C127.248 62.712 126.216 62.4025 124.927 62.4025C121.625 62.4025 119.304 64.1821 117.963 67.7414C116.622 71.2491 115.951 75.4274 115.951 80.2763C115.951 85.2284 116.88 88.7619 118.737 90.8769C120.594 92.9918 122.889 94.0493 125.623 94.0493C129.389 94.0493 132.509 92.3212 134.986 88.8651L136.301 89.3293C135.166 92.9402 133.232 96.0353 130.498 98.6145C127.815 101.194 124.359 102.483 120.129 102.483C114.507 102.483 109.993 100.807 106.589 97.4538C103.184 94.1009 101.482 88.7361 101.482 81.3596C101.482 74.2926 103.287 69.0052 106.898 65.4975C110.56 61.9382 115.384 60.1586 121.367 60.1586Z" fill="#00DC82"/>
</mask>
<g mask="url(#mask0)">
<path d="M141.45 89.1C160.009 104.768 149.674 45.164 149.074 42.372C144.771 40.3414 135.026 35.2651 130.463 31.204C124.76 26.1276 81.6849 39.58 81.2347 31.204C80.7844 22.8279 20.4496 35.2651 6.64169 49.9866C-7.16626 64.7081 -3.18559 83.6292 16.8 78.45C25.6014 76.1691 45.1469 90.6337 50.4 81.75C55.653 72.8663 68.8376 77.7847 79.3667 81.75C88.1337 85.0517 98.0444 84.5059 106.899 75.1146C115.755 65.7233 123.781 74.1833 141.45 89.1Z" fill="#00DC82"/>
<path d="M14.4 79.5C-6.59998 72.3 4.80002 107.1 5.40002 108.75C9.70002 109.95 19.44 112.95 24 115.35C29.7 118.35 72.75 110.4 73.2 115.35C73.65 120.3 133.95 112.95 147.75 104.25C161.55 95.55 147.6 83.1 135.9 73.05C124.2 63 110.4 78.9 105.15 84.15C99.9 89.4 83.1 89.4 76.2 84.15C69.3 78.9 56.4 83.85 47.55 89.4C38.7 94.95 35.4 86.7 14.4 79.5Z" fill="#003C3C"/>
</g>
</svg>
