<svg width="150" height="150" viewBox="0 0 150 150" fill="none" xmlns="http://www.w3.org/2000/svg">
<path d="M5.5997 100.325C2.83846 97.9458 2.52902 93.7784 4.90855 91.0172L69.4696 16.0997C71.8491 13.3384 76.0165 13.029 78.7777 15.4085L118.249 49.4237C121.011 51.8033 121.32 55.9707 118.941 58.7319L54.3796 133.649C52.0001 136.411 47.8327 136.72 45.0714 134.341L5.5997 100.325Z" fill="#00DC82"/>
<path d="M76.7213 35.6791C76.4148 39.0116 73.4649 41.4646 70.1325 41.1581C66.8001 40.8516 64.3471 37.9017 64.6535 34.5693C64.96 31.2369 67.9099 28.7839 71.2424 29.0903C74.5748 29.3968 77.0278 32.3467 76.7213 35.6791Z" fill="#003C3C"/>
<path d="M81.634 30.0461C81.3275 33.3785 78.3776 35.8315 75.0452 35.525C71.7128 35.2185 69.2598 32.2686 69.5663 28.9362C69.8727 25.6038 72.8227 23.1508 76.1551 23.4573C79.4875 23.7637 81.9405 26.7136 81.634 30.0461Z" fill="#003C3C"/>
<path d="M23.0263 84.649C21.6096 81.2905 23.1838 77.4194 26.5423 76.0027L117.665 37.5658C121.024 36.1491 124.895 37.7233 126.311 41.0818L146.563 89.0916C147.979 92.4502 146.405 96.3212 143.047 97.7379L51.9238 136.175C48.5653 137.591 44.6942 136.017 43.2776 132.659L23.0263 84.649Z" fill="#003C3C"/>
<rect x="25.146" y="89.6676" width="112.099" height="8.75238" transform="rotate(-22.8653 25.146 89.6676)" fill="#00DC82"/>
</svg>
