<svg width="150" height="150" viewBox="0 0 150 150" fill="none" xmlns="http://www.w3.org/2000/svg">
<mask id="mask0" mask-type="alpha" maskUnits="userSpaceOnUse" x="13" y="29" width="124" height="92">
<mask id="path-1-inside-1" mask-type="luminance" fill="white">
<path fill-rule="evenodd" clip-rule="evenodd" d="M52.5896 31.2856C46.8789 27.6847 39.3304 29.3949 35.7294 35.1056L15.3856 67.3686C13.894 69.7341 13.3137 72.415 13.5516 75C13.3137 77.585 13.894 80.2659 15.3856 82.6314L35.7294 114.894C39.3304 120.605 46.8789 122.315 52.5896 118.714C58.3003 115.113 60.0106 107.565 56.4096 101.854L46.6861 86.4338H103.412L93.6882 101.854C90.0872 107.565 91.7975 115.113 97.5082 118.714C103.219 122.315 110.767 120.605 114.368 114.894L134.712 82.6314C136.204 80.2659 136.784 77.585 136.546 75C136.784 72.415 136.204 69.7341 134.712 67.3686L114.368 35.1056C110.767 29.3949 103.219 27.6847 97.5082 31.2856C91.7975 34.8865 90.0872 42.4351 93.6882 48.1458L102.482 62.0911H47.6162L56.4096 48.1458C60.0106 42.4351 58.3003 34.8865 52.5896 31.2856Z"/>
</mask>
<path fill-rule="evenodd" clip-rule="evenodd" d="M52.5896 31.2856C46.8789 27.6847 39.3304 29.3949 35.7294 35.1056L15.3856 67.3686C13.894 69.7341 13.3137 72.415 13.5516 75C13.3137 77.585 13.894 80.2659 15.3856 82.6314L35.7294 114.894C39.3304 120.605 46.8789 122.315 52.5896 118.714C58.3003 115.113 60.0106 107.565 56.4096 101.854L46.6861 86.4338H103.412L93.6882 101.854C90.0872 107.565 91.7975 115.113 97.5082 118.714C103.219 122.315 110.767 120.605 114.368 114.894L134.712 82.6314C136.204 80.2659 136.784 77.585 136.546 75C136.784 72.415 136.204 69.7341 134.712 67.3686L114.368 35.1056C110.767 29.3949 103.219 27.6847 97.5082 31.2856C91.7975 34.8865 90.0872 42.4351 93.6882 48.1458L102.482 62.0911H47.6162L56.4096 48.1458C60.0106 42.4351 58.3003 34.8865 52.5896 31.2856Z" fill="#C4C4C4"/>
<path d="M35.7294 35.1056L93.2491 71.3753L93.2491 71.3753L35.7294 35.1056ZM15.3856 67.3686L-42.134 31.0989L-42.134 31.0989L15.3856 67.3686ZM13.5516 75L81.2655 81.2307L81.8388 75L81.2655 68.7692L13.5516 75ZM15.3856 82.6314L72.9052 46.3617L72.9052 46.3616L15.3856 82.6314ZM35.7294 114.894L93.2491 78.6247L93.2491 78.6246L35.7294 114.894ZM52.5896 118.714L88.8593 176.234L88.8593 176.234L52.5896 118.714ZM56.4096 101.854L113.929 65.5845L113.929 65.5845L56.4096 101.854ZM46.6861 86.4338V18.4338H-76.582L-10.8335 122.704L46.6861 86.4338ZM103.412 86.4338L160.931 122.704L226.68 18.4338H103.412V86.4338ZM93.6882 101.854L36.1685 65.5845L36.1685 65.5845L93.6882 101.854ZM97.5082 118.714L61.2384 176.234L61.2385 176.234L97.5082 118.714ZM114.368 114.894L56.8487 78.6246L56.8487 78.6247L114.368 114.894ZM134.712 82.6314L192.232 118.901L192.232 118.901L134.712 82.6314ZM136.546 75L68.8323 68.7692L68.2589 75L68.8323 81.2308L136.546 75ZM134.712 67.3686L77.1925 103.638L77.1926 103.638L134.712 67.3686ZM114.368 35.1056L56.8487 71.3753L56.8487 71.3753L114.368 35.1056ZM97.5082 31.2856L61.2385 -26.234L61.2385 -26.234L97.5082 31.2856ZM93.6882 48.1458L36.1685 84.4155L36.1685 84.4155L93.6882 48.1458ZM102.482 62.0911V130.091H225.75L160.001 25.8214L102.482 62.0911ZM47.6162 62.0911L-9.90338 25.8214L-75.6519 130.091H47.6162V62.0911ZM56.4096 48.1458L113.929 84.4155L113.929 84.4155L56.4096 48.1458ZM93.2491 71.3753C76.8188 97.4319 42.3764 105.236 16.3199 88.8052L88.8593 -26.234C51.3814 -49.8662 1.84194 -38.642 -21.7902 -1.16408L93.2491 71.3753ZM72.9052 103.638L93.2491 71.3753L-21.7902 -1.16408L-42.134 31.0989L72.9052 103.638ZM81.2655 68.7692C82.3509 80.5644 79.6714 92.908 72.9052 103.638L-42.134 31.0989C-51.8834 46.5603 -55.7234 64.2656 -54.1624 81.2307L81.2655 68.7692ZM72.9052 46.3616C79.6714 57.092 82.3509 69.4356 81.2655 81.2307L-54.1624 68.7693C-55.7234 85.7344 -51.8834 103.44 -42.134 118.901L72.9052 46.3616ZM93.2491 78.6246L72.9052 46.3617L-42.134 118.901L-21.7902 151.164L93.2491 78.6246ZM16.3199 61.1947C42.3764 44.7645 76.8188 52.5681 93.2491 78.6247L-21.7902 151.164C1.84195 188.642 51.3814 199.866 88.8593 176.234L16.3199 61.1947ZM-1.11001 138.124C-17.5403 112.067 -9.73664 77.625 16.3199 61.1948L88.8593 176.234C126.337 152.602 137.561 103.062 113.929 65.5845L-1.11001 138.124ZM-10.8335 122.704L-1.11 138.124L113.929 65.5845L104.206 50.1641L-10.8335 122.704ZM103.412 18.4338H46.6861V154.434H103.412V18.4338ZM151.208 138.124L160.931 122.704L45.892 50.1641L36.1685 65.5845L151.208 138.124ZM133.778 61.1948C159.834 77.625 167.638 112.067 151.208 138.124L36.1685 65.5845C12.5364 103.062 23.7606 152.602 61.2384 176.234L133.778 61.1948ZM56.8487 78.6247C73.279 52.568 107.721 44.7645 133.778 61.1947L61.2385 176.234C98.7163 199.866 148.256 188.642 171.888 151.164L56.8487 78.6247ZM77.1925 46.3616L56.8487 78.6246L171.888 151.164L192.232 118.901L77.1925 46.3616ZM68.8323 81.2308C67.7469 69.4354 70.4265 57.0918 77.1925 46.3617L192.232 118.901C201.981 103.44 205.821 85.7346 204.26 68.7692L68.8323 81.2308ZM77.1926 103.638C70.4264 92.908 67.7469 80.5644 68.8323 68.7692L204.26 81.2308C205.821 64.2656 201.981 46.5602 192.232 31.0989L77.1926 103.638ZM56.8487 71.3753L77.1925 103.638L192.232 31.0989L171.888 -1.16408L56.8487 71.3753ZM133.778 88.8052C107.721 105.235 73.279 97.4319 56.8487 71.3753L171.888 -1.16405C148.256 -38.642 98.7164 -49.8662 61.2385 -26.234L133.778 88.8052ZM151.208 11.8761C167.638 37.9326 159.834 72.3749 133.778 88.8052L61.2385 -26.234C23.7606 -2.60186 12.5364 46.9376 36.1685 84.4155L151.208 11.8761ZM160.001 25.8214L151.208 11.8761L36.1685 84.4155L44.9619 98.3608L160.001 25.8214ZM47.6162 130.091H102.482V-5.90891H47.6162V130.091ZM-1.11 11.8761L-9.90338 25.8214L105.136 98.3608L113.929 84.4155L-1.11 11.8761ZM16.3199 88.8052C-9.73665 72.375 -17.5403 37.9326 -1.11 11.8761L113.929 84.4155C137.561 46.9376 126.337 -2.60188 88.8593 -26.234L16.3199 88.8052Z" fill="black" mask="url(#path-1-inside-1)"/>
</mask>
<g mask="url(#mask0)">
</g>
<mask id="mask1" mask-type="alpha" maskUnits="userSpaceOnUse" x="13" y="41" width="124" height="68">
<path d="M15.3924 70.7856C15.3269 70.851 15.2614 70.9165 15.1959 70.982C15.0773 71.0888 14.9644 71.2017 14.8575 71.3202C14.7467 71.4204 14.6411 71.526 14.5408 71.6366C14.447 71.7508 14.3664 71.8753 14.3006 72.0076C14.1914 72.1167 14.1478 72.2913 14.0823 72.444C14.0167 72.5968 13.9512 72.575 13.9512 72.6841L13.9076 72.8368C13.8093 72.935 13.7984 73.1424 13.7547 73.2951C13.711 73.4479 13.6783 73.5679 13.6455 73.7097C13.6095 73.8568 13.5839 74.0063 13.5691 74.1571C13.54 74.3047 13.5218 74.4542 13.5145 74.6044C13.5 74.7531 13.4964 74.9026 13.5036 75.0518C13.4964 75.201 13.5 75.3505 13.5145 75.4992C13.5218 75.6494 13.54 75.7989 13.5691 75.9465C13.5839 76.0972 13.6095 76.2467 13.6455 76.3939L13.7547 76.8085L13.9076 77.2668L14.1368 77.4959C14.2422 77.7504 14.3701 77.9951 14.519 78.2269L14.7374 78.4451C14.9193 78.8226 15.1388 79.1809 15.3924 79.5144L41.5963 105.701C42.7546 106.859 44.3256 107.509 45.9636 107.509C47.6017 107.509 49.1727 106.859 50.3309 105.701C51.4892 104.544 52.14 102.974 52.14 101.337C52.14 99.6996 51.4892 98.1297 50.331 96.9722L34.7069 81.3584L47.3295 81.3257C47.5479 81.3257 47.7553 81.2711 47.9628 81.2602L115.438 81.3475L98.7112 98.0633C97.5529 99.2208 96.9022 100.791 96.9022 102.428C96.9022 104.065 97.5529 105.635 98.7112 106.792C99.8695 107.95 101.441 108.6 103.079 108.6C104.717 108.6 106.288 107.95 107.446 106.792L134.742 79.5144C134.807 79.449 134.873 79.3835 134.938 79.318C135.004 79.2526 135.168 79.0889 135.277 78.9798C135.386 78.8707 135.484 78.7725 135.593 78.6634C135.676 78.54 135.774 78.5178 135.844 78.3867C135.953 78.2776 136.161 77.8123 136.227 77.6595C136.161 77.725 136.292 77.5068 136.227 77.6595C136.325 77.5613 136.379 77.1141 136.423 76.9613C136.473 76.8225 136.448 76.7109 136.478 76.5664C136.514 76.4193 136.463 76.3148 136.478 76.164C136.435 75.9466 136.555 75.8115 136.467 75.6083C136.481 75.4596 136.485 75.3101 136.478 75.1609C136.485 75.0117 136.481 74.8622 136.467 74.7135C136.467 74.5608 136.434 74.419 136.423 74.2771C136.405 74.1225 136.375 73.9694 136.336 73.8188L136.227 73.4042L136.074 72.9459L136.03 72.7932L135.899 72.5531L135.681 72.1167C135.615 71.9844 135.534 71.8599 135.44 71.7457L135.124 71.4293C135.017 71.3108 134.904 71.1979 134.785 71.0911L108.407 44.7298C107.248 43.5723 105.677 42.922 104.039 42.922C102.401 42.922 100.83 43.5723 99.672 44.7298C98.5138 45.8874 97.863 47.4573 97.863 49.0943C97.863 50.7313 98.5138 52.3012 99.672 53.4587L115.285 69.0616L47.395 68.9088C47.183 68.9198 46.9716 68.9416 46.7618 68.9743L34.7069 68.9416L51.4228 52.2367C52.5811 51.0792 53.2318 49.5092 53.2318 47.8722C53.2318 46.2353 52.5811 44.6653 51.4228 43.5078C50.2645 42.3503 48.6935 41.7 47.0555 41.7C45.4174 41.7 43.8464 42.3503 42.6882 43.5078L15.3924 70.7856Z" fill="black"/>
</mask>
<g mask="url(#mask1)">
<path d="M110.84 2.85704H10.8095H8.4598L-17.1001 73.8567C-17.1001 73.8567 64.0424 116.457 89.8052 93.5338C115.568 70.611 125.508 29.4312 125.508 29.4312L110.84 2.85704Z" fill="#00DC82"/>
<path d="M154.111 137.351C162.23 111.003 120.214 8.37157 93.6595 19.6941C87.7708 22.205 95.4757 51.7244 84.1253 66.5539C65.5933 90.7661 8.85317 63.924 6.63414 76.0882C3.6579 92.4034 -8.18201 107.294 -10.6086 114.834L154.111 137.351Z" fill="#003C3C"/>
<path d="M127.942 56.4111C78.1208 77.1836 85.951 112.94 96.0939 128.222L133.419 125.179C152.353 93.6014 177.764 35.6386 127.942 56.4111Z" fill="#00DC82"/>
</g>
</svg>
