<svg width="150" height="150" viewBox="0 0 150 150" fill="none" xmlns="http://www.w3.org/2000/svg">
<path fill-rule="evenodd" clip-rule="evenodd" d="M57 89.7C76.5509 89.7 92.4 73.8509 92.4 54.3C92.4 34.7491 76.5509 18.9 57 18.9C37.4491 18.9 21.6 34.7491 21.6 54.3C21.6 73.8509 37.4491 89.7 57 89.7ZM57 101.7C83.1783 101.7 104.4 80.4783 104.4 54.3C104.4 28.1217 83.1783 6.9 57 6.9C30.8217 6.9 9.59998 28.1217 9.59998 54.3C9.59998 80.4783 30.8217 101.7 57 101.7Z" fill="#003C3C"/>
<path d="M74.5009 88.0514L89.958 73.8549L133.27 121.013C137.191 125.282 136.908 131.92 132.64 135.84V135.84C128.372 139.76 121.733 139.478 117.813 135.21L74.5009 88.0514Z" fill="#003C3C"/>
<rect x="81.3" y="48.3" width="12" height="48.6" rx="6" transform="rotate(90 81.3 48.3)" fill="#003C3C"/>
<rect x="69.9" y="32.4" width="9.3" height="25.5" rx="4.65" transform="rotate(90 69.9 32.4)" fill="#00DC82"/>
<rect x="69.9" y="66.9" width="9.29998" height="25.5" rx="4.64999" transform="rotate(90 69.9 66.9)" fill="#00DC82"/>
</svg>
