<svg width="150" height="150" viewBox="0 0 150 150" fill="none" xmlns="http://www.w3.org/2000/svg">
<mask id="mask0" mask-type="alpha" maskUnits="userSpaceOnUse" x="25" y="28" width="101" height="101">
<path fill-rule="evenodd" clip-rule="evenodd" d="M75.15 128.7C102.737 128.7 125.1 106.337 125.1 78.75C125.1 51.1634 102.737 28.8 75.15 28.8C47.5633 28.8 25.2 51.1634 25.2 78.75C25.2 106.337 47.5633 128.7 75.15 128.7ZM66.9 51.7012C66.9 48.0959 69.8278 45.1732 73.4395 45.1732C77.0512 45.1732 79.9791 48.0959 79.9791 51.7012V73.5581L93.4701 66.7521C95.6539 65.6504 98.319 66.5245 99.4227 68.7045C100.526 70.8845 99.6507 73.5449 97.4669 74.6466L76.8946 85.025C76.7998 85.0728 76.7042 85.1169 76.6078 85.1573C75.6692 85.6772 74.589 85.9732 73.4395 85.9732C69.8278 85.9732 66.9 83.0505 66.9 79.4452V51.7012Z" fill="#C4C4C4"/>
</mask>
<g mask="url(#mask0)">
<path d="M130.652 27.1732H31.7237H29.3999L33.4523 50.7232L125.009 118.073L130.652 27.1732Z" fill="#5BE8AF"/>
<path d="M62.8499 25.35C45.4499 34.35 35.3201 38.2626 6.8999 27.3C6.8999 27.3 9.5999 111.623 10.1999 117.023C10.7999 122.423 17.8499 101.746 44.6999 108.323C59.3347 111.908 67.3499 106.973 67.3499 106.973C68.3659 101.753 70.0499 90.6232 71.8499 61.5232C73.6499 32.4232 98.2377 33.0011 92.2499 28.2232C88.8501 25.5104 66.5576 23.4322 62.8499 25.35Z" fill="#00DC82"/>
<path d="M47.8499 100.073C22.6688 110.873 26.3999 84.0232 17.3999 95.7232L38.2499 138L125.85 123.75C128.287 115.796 128.821 105.335 124.35 100.073C120.436 95.4679 106.755 71.5937 85.9499 75.7732C81.6342 76.6402 77.4639 80.25 73.6499 80.25C54.4499 85.65 56.6402 96.3031 47.8499 100.073Z" fill="#003C3C"/>
</g>
</svg>
