<svg width="150" height="150" viewBox="0 0 150 150" fill="none" xmlns="http://www.w3.org/2000/svg">
<ellipse cx="74.25" cy="133.35" rx="13.65" ry="13.65" fill="#003C3C"/>
<mask id="mask0" mask-type="alpha" maskUnits="userSpaceOnUse" x="33" y="3" width="90" height="106">
<path d="M63.6 107.7V107.7C63.6 106.095 64.1381 104.036 64.8099 102.579C66.9701 97.8928 70.5798 92.7886 75.6388 87.266L90.8549 71.5751C97.3594 64.2139 100.612 56.3103 100.612 47.8644C100.612 39.7283 98.4822 33.3745 94.2233 28.8028C89.9644 24.1537 83.7695 21.8291 75.6388 21.8291C67.7404 21.8291 61.3908 23.9212 56.5898 28.1054C54.6519 30.1899 53.8733 32.3095 53.6269 34.5419C52.9945 40.2704 49.328 44.9586 43.5648 44.9586V44.9586C37.7512 44.9586 32.8901 40.2004 33.1942 34.3948C33.6025 26.6005 35.1128 20.0099 41.2576 14.6229C50.0852 6.8743 61.5456 3 75.6388 3C90.2741 3 101.657 6.95178 109.788 14.8553C117.996 22.6814 122.1 33.452 122.1 47.167C122.1 60.727 115.828 74.0933 103.283 87.266L86.85 103.591V103.591C86.85 103.591 83.9604 107.918 81.511 108.153C75.0583 108.773 63.6 109.605 63.6 107.7Z" fill="black"/>
</mask>
<g mask="url(#mask0)">
<path d="M127.8 -13.8H28.8715H26.5477L21.9 45.6673L122.156 77.1L127.8 -13.8Z" fill="#00DC82"/>
<path d="M122.45 4.93448C114.527 -9.70994 38.0201 -2.23737 9.59998 -13.2L45.3405 104.7L91.5848 31.5574C94.8862 14.5964 130.373 19.5789 122.45 4.93448Z" fill="#5BE8AF"/>
<path d="M91.05 67.95C63.5222 68.5263 66.387 93.0746 61.2 107.7H90.4959C98.2339 84.9152 147.075 66.777 91.05 67.95Z" fill="#003C3C"/>
</g>
</svg>
