<svg width="120" height="120" viewBox="0 0 120 120" fill="none" xmlns="http://www.w3.org/2000/svg">
<path opacity="0.8" d="M23.4357 89.6293L18.1343 57.656L28.7439 61.5708L23.4357 89.6293Z" fill="#009A5B"/>
<path opacity="0.7" d="M51.3518 28.5345L18.1431 57.6456L28.6956 61.5815L51.3518 47.6961L51.3518 28.5345Z" fill="#00BB6F"/>
<path opacity="0.7" d="M45.5044 115.088L23.4357 89.6292L28.7438 61.5585L51.2144 47.6642L73.3638 67.1328L71.8793 91.1973L45.5044 115.088Z" fill="#00DC82"/>
<path opacity="0.65" d="M32.8939 100.54L61.2586 56.6658L72.3333 66.4001L71.8795 91.1974L45.5046 115.088L32.8939 100.54Z" fill="#80EEC0"/>
<path d="M51.2146 47.6643L51.3521 28.5814L85.3948 65.2972L73.0844 67.0892L51.2146 47.6643Z" fill="#40E5A1"/>
<path d="M71.8203 91.3079L72.2894 66.6791L85.3947 65.2971L71.8203 91.3079Z" fill="#80EEC0"/>
<path d="M104.208 62.6499L108.014 55.2025L105.263 54.992L104.208 62.6499Z" fill="#009A5B"/>
<path d="M102.196 45.5933L108.003 55.2739L105.125 55.409L100.637 50.3942L102.196 45.5933Z" fill="#00BB6F"/>
<path d="M96.8392 67.1287L104.208 62.6508L105.207 55.3497L100.731 50.2635L93.8115 53.2764L92.2878 59.2526L96.8392 67.1287Z" fill="#00DC82"/>
<path opacity="0.65" d="M101.05 64.5691L97.5797 51.6711L94.1201 53.1775L92.2879 59.2518L96.8394 67.1279L101.05 64.5691Z" fill="#80EEC0"/>
<path d="M100.731 50.2624L102.219 45.4503L91.0256 51.8894L93.8832 53.2865L100.731 50.2624Z" fill="#40E5A1"/>
<path d="M92.3103 59.1091L94.1088 53.2489L91.0255 51.8897L92.3103 59.1091Z" fill="#80EEC0"/>
<path d="M35.3401 29.8953L41.406 18.025L37.0217 17.6894L35.3401 29.8953Z" fill="#009A5B"/>
<path d="M32.1331 2.70904L41.3887 18.1394L36.8012 18.3546L29.6483 10.3612L32.1331 2.70904Z" fill="#00BB6F"/>
<path d="M23.5949 37.0323L35.3401 29.895L36.9325 18.2578L29.7976 10.151L18.7691 14.9531L16.3404 24.4786L23.5949 37.0323Z" fill="#00DC82"/>
<path opacity="0.65" d="M30.3065 32.954L24.775 12.396L19.2607 14.7971L16.3405 24.4788L23.5949 37.0325L30.3065 32.954Z" fill="#80EEC0"/>
<path d="M29.7979 10.1517L32.1687 2.48169L14.3289 12.7445L18.8836 14.9714L29.7979 10.1517Z" fill="#40E5A1"/>
<path d="M16.3762 24.2509L19.2429 14.9104L14.3285 12.744L16.3762 24.2509Z" fill="#80EEC0"/>
</svg>
