<svg width="120" height="120" viewBox="0 0 120 120" fill="none" xmlns="http://www.w3.org/2000/svg">
<g opacity="0.8">
<path d="M57.2915 31.1262L39.0265 45.6827C37.222 47.5978 20.2743 61.2915 19.3449 62.0529L33.1575 66.0358L58.9138 30.5217C58.3344 30.5279 57.7641 30.7404 57.2915 31.1262Z" fill="#B2CCCC"/>
<path d="M61.3205 32.2905C60.9543 31.2073 59.9999 30.5069 58.9135 30.5241L32.5404 65.7787L45.0513 69.3863L76.9479 78.5838L61.3205 32.2905Z" fill="#D1E2E2"/>
<path opacity="0.75" d="M76.9166 78.5214L55.8219 72.4386L33.0404 65.8695L44.4639 49.8451L52.1251 39.4926L69.1251 55.4416L76.9166 78.5214Z" fill="#E6F0F0"/>
<path d="M35.1145 108.034L27.4041 85.9873C26.8964 83.4055 19.8417 62.7905 19.4604 61.6512L33.2731 65.6342L36.1659 109.409C35.6787 109.096 35.3091 108.612 35.1145 108.034Z" fill="#B2CCCC"/>
<path d="M39.1449 109.194C38.2582 109.916 37.0774 110 36.167 109.407L32.6139 65.5234L45.1247 69.131L77.0213 78.3285L39.1449 109.194Z" fill="#D1E2E2"/>
<path opacity="0.75" d="M76.9616 78.3648L55.8669 72.282L32.5767 65.5662L34.223 85.3593L35.1959 98.2015L58.0777 93.7526L76.9616 78.3648Z" fill="#E6F0F0"/>
</g>
<path d="M92.7058 44.8391L91.4593 51.6411C91.4289 52.4195 90.3087 58.7727 90.2493 59.1235L94.1076 57.3262L92.9504 44.3886C92.8222 44.5027 92.7362 44.661 92.7058 44.8391Z" fill="#B2CCCC"/>
<path d="M93.8317 44.3152C93.5393 44.1446 93.19 44.1738 92.9508 44.389L93.9198 57.3886L97.4144 55.7608L106.324 51.6105L93.8317 44.3152Z" fill="#D1E2E2"/>
<path opacity="0.75" d="M106.305 51.6029L100.412 54.3477L94.049 57.3119L93.4827 51.5128L93.1795 47.7117L100.077 47.9658L106.305 51.6029Z" fill="#E6F0F0"/>
<path d="M102.713 66.321L96.7036 62.8988C96.0881 62.4212 90.5038 59.1911 90.1971 59.0109L94.0553 57.2137L103.215 66.4236C103.045 66.4483 102.869 66.4123 102.713 66.321Z" fill="#B2CCCC"/>
<path d="M103.838 65.796C103.78 66.1296 103.533 66.3782 103.215 66.4229L93.8865 57.3171L97.3811 55.6892L106.291 51.5389L103.838 65.796Z" fill="#D1E2E2"/>
<path opacity="0.75" d="M106.284 51.5587L100.392 54.3034L93.8865 57.3339L98.1036 61.4324L100.818 64.1101L105.061 58.6666L106.284 51.5587Z" fill="#E6F0F0"/>
<path d="M40.2701 8.29507L33.6615 10.3316C32.957 10.6643 26.8048 12.6055 26.4663 12.7148L29.8426 15.3065L40.7826 8.30392C40.6223 8.24295 40.4421 8.23984 40.2701 8.29507Z" fill="#B2CCCC"/>
<path d="M41.2547 9.05165C41.2709 8.7135 41.0836 8.41723 40.7823 8.30448L29.7003 15.1688L32.7584 17.5163L40.5549 23.5012L41.2547 9.05165Z" fill="#D1E2E2"/>
<path opacity="0.75" d="M40.5529 23.4804L35.3967 19.5223L29.8282 15.2477L34.7099 12.0667L37.9412 10.0419L40.9017 16.2765L40.5529 23.4804Z" fill="#E6F0F0"/>
<path d="M25.8397 27.0935L26.0991 20.1831C26.2384 19.4165 26.5237 12.9716 26.5419 12.6164L29.9181 15.2081L25.9807 27.5863C25.8804 27.4471 25.8308 27.2739 25.8397 27.0935Z" fill="#B2CCCC"/>
<path d="M26.825 27.8488C26.5026 27.9519 26.168 27.8475 25.9812 27.5856L29.7483 15.1061L32.8063 17.4535L40.6028 23.4384L26.825 27.8488Z" fill="#D1E2E2"/>
<path opacity="0.75" d="M40.5826 23.4421L35.4264 19.484L29.7335 15.114L28.0465 20.7474L26.9257 24.3922L33.7135 25.6408L40.5826 23.4421Z" fill="#E6F0F0"/>
</svg>
