<svg width="120" height="120" viewBox="0 0 120 120" fill="none" xmlns="http://www.w3.org/2000/svg">
<path d="M15.098 117L14.5406 110.241C12.9058 90.4188 18.7136 70.6983 30.8312 54.9261L36.3968 47.6821L57.4154 35.0091C60.4482 33.1805 64.369 33.9051 66.548 36.6969L75.1218 47.6821L80.9306 68.2064V81.5948C80.9306 84.8866 79.4564 88.0053 76.9127 90.0948L48.4015 113.515L15.098 117Z" fill="#D1E2E2"/>
<path opacity="0.75" d="M49.176 74.4024L36.3967 47.6821L58.503 34.5465C61.1302 32.9854 64.5109 33.6483 66.3539 36.0859L75.1218 47.6821L80.156 65.8829L49.176 74.4024Z" fill="#E6F0F0"/>
<path opacity="0.75" d="M38.7203 97.2505L49.9505 75.1773L36.3968 47.6825L14.786 76.1539C12.9925 78.5167 12.1378 81.4601 12.3867 84.416L15.098 116.613L38.7203 97.2505Z" fill="#B2CCCC"/>
<path opacity="0.75" d="M38.7202 97.6375L14.7107 117L48.0142 113.515L38.7202 105.77V97.6375Z" fill="#E6F0F0"/>
<path d="M45.2879 25.7298L38.8759 32.9557C33.7455 28.1975 30.5715 21.6989 29.9731 14.7273L29.915 14.0507L30.7828 11.1158C31.7231 7.93582 34.8902 5.95906 38.1599 6.51136L43.3925 9.75023L43.5026 9.87059C45.724 12.2998 46.7407 15.5963 46.2735 18.8547L45.2879 25.7298Z" fill="#B2CCCC"/>
<path opacity="0.75" d="M37.8379 17.2516L29.9149 14.0507L30.9578 10.605C31.8431 7.68013 34.7854 5.88795 37.7905 6.44308L38.1597 6.5113L42.7751 9.40626L37.8379 17.2516Z" fill="#E6F0F0"/>
<path opacity="0.75" d="M40.0598 24.1519L38.1534 17.2659L29.9147 14.0508L30.5572 21.0552C30.8282 24.0092 32.1837 26.7581 34.3621 28.7715L38.8001 32.8734L40.0598 24.1519Z" fill="#D1E2E2"/>
<path opacity="0.75" d="M40.1352 24.2343L38.7931 33.0311L45.2052 25.8052L41.7185 25.9657L40.1352 24.2343Z" fill="#E6F0F0"/>
<path d="M103.831 81.8324L108.154 86.7154C104.549 89.7679 99.9369 91.3681 95.2162 91.2039L94.7581 91.188L92.8616 90.3685C90.8067 89.4805 89.7387 87.1978 90.3739 85.0513L92.9687 81.8071C94.8336 80.4748 97.1971 80.0477 99.4102 80.6431L103.831 81.8324Z" fill="#B2CCCC"/>
<path opacity="0.75" d="M97.5456 86.1378L94.758 91.1881L92.7654 90.3118C90.7449 89.4232 89.715 87.158 90.3738 85.0513L92.6881 82.1929L97.5456 86.1378Z" fill="#E6F0F0"/>
<path opacity="0.75" d="M102.35 85.2078L97.5808 85.9271L94.7582 91.1878L98.0077 91.2818C100.973 91.3676 103.865 90.352 106.125 88.4312L108.093 86.7591L102.35 85.2078Z" fill="#D1E2E2"/>
<path opacity="0.75" d="M102.411 85.1641L108.198 86.7767L103.875 81.8937L103.7 84.2434L102.411 85.1641Z" fill="#E6F0F0"/>
</svg>
