<svg width="120" height="120" viewBox="0 0 120 120" fill="none" xmlns="http://www.w3.org/2000/svg">
<path d="M23.4109 89.6418L18.1716 57.3724L28.6447 59.8701L23.4109 89.6418Z" fill="#92ADAD"/>
<path d="M51.2773 28.5346L18.1278 57.6516L28.6615 61.5883L51.3318 48.2702L51.2773 28.5346Z" fill="#B2CCCC"/>
<path d="M45.4404 115.106L23.4109 89.6419L28.4262 61.2655L51.1402 47.6683L73.2502 67.1409L71.7683 91.2104L45.4404 115.106Z" fill="#D1E2E2"/>
<path opacity="0.65" d="M32.8519 100.555L61.1661 56.6717L72.2211 66.408L71.768 91.2104L45.4401 115.106L32.8519 100.555Z" fill="#E6F0F0"/>
<path d="M51.1402 47.6682L51.3647 27.9763L85.2595 65.3047L72.971 67.0971L51.1402 47.6682Z" fill="#E6F0F0"/>
<path d="M71.7088 91.3212L72.177 66.6873L85.259 65.305L71.7088 91.3212Z" fill="#E6F0F0"/>
<path d="M104.04 62.657L107.839 55.2081L105.093 54.9975L104.04 62.657Z" fill="#92ADAD"/>
<path d="M102.031 45.5968L107.828 55.2795L104.955 55.4146L100.475 50.3987L102.031 45.5968Z" fill="#B2CCCC"/>
<path d="M96.6842 67.1358L104.04 62.657L105.037 55.3544L100.569 50.2672L93.6619 53.2806L92.1409 59.2581L96.6842 67.1358Z" fill="#D1E2E2"/>
<path opacity="0.65" d="M100.888 64.5766L97.4232 51.6759L93.9698 53.1826L92.1409 59.2581L96.6842 67.1359L100.888 64.5766Z" fill="#E6F0F0"/>
<path d="M100.569 50.267L102.054 45.4539L90.8808 51.8943L93.7332 53.2916L100.569 50.267Z" fill="#E6F0F0"/>
<path d="M92.1636 59.1154L93.9589 53.254L90.8811 51.8945L92.1636 59.1154Z" fill="#E6F0F0"/>
<path d="M35.2947 29.8961L41.3499 18.0233L36.9734 17.6877L35.2947 29.8961Z" fill="#92ADAD"/>
<path d="M32.094 2.70366L41.3327 18.1368L36.7534 18.3522L29.6134 10.3574L32.094 2.70366Z" fill="#B2CCCC"/>
<path d="M23.5705 37.0344L35.2947 29.8956L36.8843 18.256L29.7621 10.1476L18.7532 14.9507L16.3289 24.4781L23.5705 37.0344Z" fill="#D1E2E2"/>
<path opacity="0.65" d="M30.2699 32.9555L24.7482 12.3933L19.2438 14.7948L16.3287 24.4786L23.5703 37.0348L30.2699 32.9555Z" fill="#E6F0F0"/>
<path d="M29.7628 10.1479L32.1296 2.47632L14.3212 12.7417L18.8677 14.9688L29.7628 10.1479Z" fill="#E6F0F0"/>
<path d="M16.3651 24.2504L19.2267 14.908L14.321 12.7412L16.3651 24.2504Z" fill="#E6F0F0"/>
</svg>
