<svg width="132" height="132" viewBox="0 0 132 132" fill="none" xmlns="http://www.w3.org/2000/svg">
<path d="M25.1326 53.2714L21.3823 66.4301C21.1804 67.3013 18.6447 74.1459 18.5071 74.5245L22.8264 73.6661L25.7672 52.7293C25.6858 52.7317 25.2027 53.0793 25.1326 53.2714Z" fill="#00DC82"/>
<path d="M28.6553 54.6321C28.3954 54.3502 26.054 52.5634 25.7634 52.734L22.6219 73.6842L30.7049 72.8297L43.4631 66.2499L28.6553 54.6321Z" fill="#33E39B"/>
<path d="M33.2746 104.094L18.5021 74.5144L22.8212 73.6553L41.6829 106.43C41.5047 106.406 33.4131 104.245 33.2746 104.094Z" fill="#00DC82"/>
<path d="M50.184 103.439C50.0522 103.799 42.0046 106.483 41.6707 106.436L22.6156 73.6506L26.5277 72.8731L43.4564 66.2462L50.184 103.439Z" fill="#33E39B"/>
<path opacity="0.75" d="M36.513 70.9635L29.9167 72.2744L26.0223 79.6408L28.1787 83.511L33.7069 78.6304L36.513 70.9635Z" fill="#33E39B"/>
<path opacity="0.75" d="M43.4605 66.2489L48.3582 93.4049L24.101 63.9093L24.8343 58.9328L37.6596 61.6981L43.4605 66.2489Z" fill="#99F1CD"/>
<path d="M88.3945 20.3376L68.7883 34.2975C67.5539 35.2727 56.5519 41.8915 55.9471 42.2606L62.8243 45.8254L89.8618 20.2897C89.7475 20.2036 88.7018 20.1507 88.3945 20.3376Z" fill="#00DC82"/>
<path d="M91.7466 26.0719C91.6992 25.399 90.4447 20.3722 89.8583 20.2874L62.5302 45.6212L74.5745 53.3255L99.3307 58.2989L91.7466 26.0719Z" fill="#33E39B"/>
<path d="M43.7665 99.1043L55.9601 42.2374L62.8378 45.8013L52.7533 111.549C52.5346 111.321 43.7914 99.4634 43.7665 99.1043Z" fill="#00DC82"/>
<path d="M67.7099 116.779C67.1335 117.129 53.1287 111.977 52.721 111.546L62.552 45.5706L68.7811 48.7994L99.3192 58.2889L67.7099 116.779Z" fill="#33E39B"/>
<path opacity="0.75" d="M84.6029 57.1438L74.1001 51.6996L60.6581 57.5429L59.3699 65.229L72.3262 64.5955L84.6029 57.1438Z" fill="#33E39B"/>
<path opacity="0.75" d="M99.3304 58.2957L76.2313 100.986L75.3013 33.8168L81.7749 27.7848L96.3588 45.6714L99.3304 58.2957Z" fill="#99F1CD"/>
</svg>
