<svg width="120" height="120" viewBox="0 0 120 120" fill="none" xmlns="http://www.w3.org/2000/svg">
<path d="M13.2173 117L12.7224 111.221C10.9744 90.813 17.1212 70.5114 29.8961 54.5001L35.3361 47.6821L57.5023 34.8126C60.4845 33.0812 64.2836 33.7796 66.455 36.4586L75.552 47.6821L81.5844 68.2064V81.4701C81.5844 84.833 80.0461 88.0112 77.4085 90.0975L47.803 113.515L13.2173 117Z" fill="#34CE8F" fill-opacity="0.7"/>
<path opacity="0.75" d="M48.6074 74.4024L35.3362 47.6821L58.587 34.3786C61.1706 32.9003 64.4475 33.5397 66.2858 35.8809L75.5521 47.6821L80.7802 65.8829L48.6074 74.4024Z" fill="#80EEC0"/>
<path opacity="0.75" d="M37.749 97.2505L49.4116 75.1772L35.3361 47.6824L12.9446 76.0886C11.0531 78.4882 10.1482 81.5189 10.4144 84.5627L13.2173 116.613L37.749 97.2505Z" fill="#00DC82" fill-opacity="0.6"/>
<path opacity="0.75" d="M37.7491 97.6376L12.8152 117L47.4009 113.515L37.7491 105.77V97.6376Z" fill="#80EEC0"/>
<path d="M44.5691 25.7297L37.9102 32.9556C32.5833 28.1983 29.2865 21.7022 28.6659 14.7405L28.6044 14.0506L29.5076 11.109C30.4837 7.93033 33.7684 5.9585 37.1667 6.51124L42.6007 9.75011L42.7711 9.92951C45.0421 12.3209 46.0826 15.564 45.606 18.7652L44.5691 25.7297Z" fill="#34CE8F"/>
<path opacity="0.75" d="M36.8325 17.2515L28.6044 14.0506L29.7246 10.4868C30.6236 7.62691 33.6087 5.87826 36.664 6.42175L37.1667 6.51117L41.9598 9.40614L36.8325 17.2515Z" fill="#80EEC0"/>
<path opacity="0.75" d="M39.1401 24.1518L37.1603 17.2658L28.6044 14.0507L29.2786 21.128C29.5555 24.0345 30.9428 26.742 33.1714 28.7254L37.832 32.8732L39.1401 24.1518Z" fill="#00DC82"/>
<path opacity="0.75" d="M39.2185 24.2342L37.8247 33.031L44.4836 25.8051L40.8628 25.9656L39.2185 24.2342Z" fill="#80EEC0"/>
<path d="M105.366 81.832L109.856 86.7149C106.11 89.7696 101.314 91.3676 96.386 91.2027L95.9441 91.1879L93.9907 90.3752C91.8536 89.486 90.7332 87.1916 91.3909 85.0512L94.0855 81.807C96.0236 80.4737 98.4846 80.0496 100.801 80.6497L105.366 81.832Z" fill="#34CE8F"/>
<path opacity="0.75" d="M98.8391 86.1377L95.9442 91.1879L93.8919 90.3189C91.79 89.4288 90.7091 87.1518 91.3912 85.0512L93.7946 82.1928L98.8391 86.1377Z" fill="#80EEC0"/>
<path opacity="0.75" d="M103.828 85.2079L98.8754 85.9273L95.9441 91.1879L99.4662 91.286C102.453 91.3692 105.354 90.3907 107.621 88.5358L109.792 86.7592L103.828 85.2079Z" fill="#00DC82"/>
<path opacity="0.75" d="M103.892 85.164L109.901 86.7766L105.412 81.8936L105.23 84.2433L103.892 85.164Z" fill="#80EEC0"/>
</svg>
