<svg width="62" height="90" fill="none" xmlns="http://www.w3.org/2000/svg"><path d="M.863281 53.142L21.3727.00390625 14.3809 46.1502l-2.7968 38.2221L.863281 53.142z" fill="#80EEC0"/><path d="M34.4241 89.9692c-6.3064-12.4545-19.6798-37.1968-20.4256-38.6884l-2.418 33.0947 22.8436 5.5937z" fill="#40E5A1"/><path d="M34.4169 89.9616l-5.8977-36.0864 33.2837 6.9239-27.386 29.1625z" fill="#00BB6F"/><path d="M44.0073 18.554L28.5175 53.8701l33.2805 6.9336L44.0073 18.554z" fill="#009A5B"/><path d="M43.9979 18.5575L21.3781 0l-6.9924 46.089-.3909 5.2028 20.4257 38.6773-5.9062-36.0877 15.4836-35.3239z" fill="#20D98C"/><path d="M44.0016 18.5539L14.4109 46.0097 21.3727.00732422 44.0016 18.5539z" fill="#20CF86"/></svg>