<svg width="177" height="196" fill="none" xmlns="http://www.w3.org/2000/svg"><path d="M29.464 122.881l5.4299-44.3917 12.8057 7.2774L29.464 122.881z" fill="#009A5B"/><path d="M89.3893 53.2362l-54.6592 25.603 12.3362 9.191 34.8641-8.8461 7.4589-25.9479z" fill="#00BB6F"/><path d="M48.6885 164.739l-19.2244-41.858 17.4162-35.3648 35.028-9.196 21.6167 34.0178-11.1313 31.055-43.7052 21.346z" fill="#00DC82"/><path opacity=".65" d="M37.703 140.82l53.9414-46.8462 10.8076 17.0092-10.0584 32.41-43.7052 21.346L37.703 140.82z" fill="#80EEC0"/><path d="M81.9082 78.3201l7.8088-25.784 30.285 61.9719-16.827-2.334-21.2668-33.8539z" fill="#40E5A1"/><path d="M92.2739 143.516l10.0151-32.183 17.713 3.176-27.7281 29.007z" fill="#80EEC0"/><path d="M145.684 118.197l7.833-8.337-3.527-1.324-4.306 9.661z" fill="#009A5B"/><path d="M149.555 95.0175l3.92 14.9325-3.826-.919-3.971-8.299 3.877-5.7145z" fill="#00BB6F"/><path d="M134.312 121.274l11.372-3.078 4.096-9.213-3.929-8.388-10.223 1.324-4.279 7.272 2.963 12.083z" fill="#00DC82"/><path opacity=".65" d="M140.81 119.515l.371-18.269-5.111.661-4.721 7.284 2.963 12.083 6.498-1.759z" fill="#80EEC0"/><path d="M145.851 100.595l3.788-5.7561-17.136 4.1977 3.214 2.9244 10.134-1.366z" fill="#40E5A1"/><path d="M131.433 109.012l4.595-7.015-3.525-2.9607-1.07 9.9757z" fill="#80EEC0"/><path d="M67.8728 48.9265l12.4849-13.2871-5.6214-2.1109-6.8635 15.398z" fill="#009A5B"/><path d="M74.0427 11.9819l6.2483 23.8-6.0982-1.4644-6.3294-13.2272 6.1793-9.1084z" fill="#00BB6F"/><path d="M49.7464 53.8308l18.1263-4.9047 6.5295-14.6846-6.2626-13.3699-16.2953 2.1093-6.8203 11.5914 4.7224 19.2585z" fill="#00DC82"/><path opacity=".65" d="M60.1042 51.0282l.5919-29.1199-8.1476 1.0547-7.5246 11.6094 4.7224 19.2585 10.3579-2.8027z" fill="#80EEC0"/><path d="M68.1396 20.8718l6.0366-9.1753-27.3123 6.6908 5.1231 4.6606 16.1526-2.1761z" fill="#40E5A1"/><path d="M45.1577 34.2871l7.3241-11.1814-5.6179-4.7184-1.7062 15.8998z" fill="#80EEC0"/></svg>