<svg width="181" height="181" fill="none" xmlns="http://www.w3.org/2000/svg"><path d="M86.9463 154.77L7.69769 88.1819l23.80291 8.7493 71.5104 63.5278-16.0647-5.689z" fill="#00BB6F"/><path d="M53.6271 71.1237L31.567 96.9286 7.72627 88.2067 37.8959 49.8279l76.8111-36.2594-16.2278 39.0524-44.8521 18.5028z" fill="#9EECCB"/><path d="M103.01 160.458L31.5161 96.9528l22.0393-25.8204L98.463 52.5961l41.563 79.7949-26.237 8.401-10.779 19.666z" fill="#40E5A1"/><path d="M114.71 13.5777L98.4872 52.5778 140.01 132.396l12.314-20.8-37.614-98.0183z" fill="#41DF9F"/><path d="M113.792 140.796L53.549 71.1362l44.9427-18.564 41.5293 79.8208-26.229 8.403z" fill="#7EECBE"/></svg>