<svg width="115" height="120" fill="none" xmlns="http://www.w3.org/2000/svg"><path d="M27.0568 31.4799l3.6017 23.9698c.7842 2.6157 4.2942 24.9538 4.496 26.1842l10.7359-10.3461L27.355 29.7082c-.2948.5239-.3997 1.1468-.2982 1.7717z" fill="#00DC82"/><path d="M30.1884 28.4603c-1.1623-.2331-2.2858.2611-2.8334 1.2464l17.9817 42.0012 9.7237-9.3715 24.7905-23.8928-49.6625-9.9833z" fill="#33E39B"/><path d="M84.8785 91.6056l-23.7901-4.5135c-2.5812-.8838-24.746-5.2435-25.9665-5.4921l10.7354-10.3467 40.801 20.1213c-.5342.275-1.1599.3562-1.7798.231z" fill="#00DC82"/><path d="M87.8542 88.4263c.1885 1.1717-.3475 2.2768-1.3517 2.7872L45.2616 71.6292l9.7236-9.3715 24.7905-23.8929 8.0785 50.0615z" fill="#33E39B"/><path opacity=".75" d="M79.8509 38.4447l3.3622 20.6537L37.284 52.727l-5.3945-12.2398 23.2017-7.0194 24.7597 4.9769z" fill="#99F1CD"/></svg>