<svg width="1050" height="140" viewBox="0 0 1050 140" xmlns="http://www.w3.org/2000/svg">
  <g fill="none" fill-rule="evenodd">
    <path d="M752 137.8a7.4 7.4 0 0 1-5.3 2.2c-2.2 0-4-.7-5.5-2.2a7.4 7.4 0 0 1-2.2-5.5V49.7c0-2.1.7-4 2.2-5.5a7.4 7.4 0 0 1 5.5-2.2c2.1 0 4 .7 5.5 2.2a7.3 7.3 0 0 1 2.3 5.5v33.6h36V49.7c0-2.1.8-4 2.3-5.5a7.4 7.4 0 0 1 5.4-2.2c2.1 0 4 .7 5.5 2.2a7.3 7.3 0 0 1 2.3 5.5v82.6c0 2.1-.8 4-2.3 5.5a7.6 7.6 0 0 1-5.5 2.2c-2.1 0-4-.7-5.4-2.2a7.4 7.4 0 0 1-2.3-5.5V98.7h-36v33.6c0 2.1-.8 4-2.4 5.5zM713.8 44.2a7.4 7.4 0 0 1 2.2 5.5c0 2.1-.8 4-2.3 5.5a7.4 7.4 0 0 1-5.4 2.3h-22.2v74.8c0 2.1-.7 4-2.2 5.5a7.4 7.4 0 0 1-5.5 2.2c-2.1 0-4-.7-5.4-2.2a7.4 7.4 0 0 1-2.3-5.5V57.5h-22c-2.2 0-4-.7-5.5-2.3a7.7 7.7 0 0 1-2.2-5.5c0-2.1.7-4 2.2-5.5a7.4 7.4 0 0 1 5.5-2.2h59.6c2.2 0 4 .7 5.5 2.2zM606 49.7a7.8 7.8 0 0 1 8-7.7 8 8 0 0 1 5.6 2.2 7.2 7.2 0 0 1 2.4 5.5v82.6c0 2.1-.8 4-2.4 5.5a8 8 0 0 1-5.7 2.2 7.8 7.8 0 0 1-7.9-7.7V49.7zM492.4 138.6l-1.2.8h-.1c-.3 0-.7.2-1.3.5h-.4l-1.3.1-1.3-.1h-.5a12.6 12.6 0 0 1-1.4-.6 5 5 0 0 1-1-.7h-.2l-1.1-1-.9-1v-.1l-.3-.6-.4-.7-34.5-81.6c-.7-2-.7-4 .1-5.9a7 7 0 0 1 4.1-4c2-.9 3.9-.9 5.9-.1a7 7 0 0 1 4 4.1l27.6 64.9 18-43a7.2 7.2 0 0 1 7.2-4.8c3.6 0 6 1.6 7.4 4.8l18 43 27.4-64.9c.8-2 2.2-3.3 4.2-4.1 2-.8 4-.8 5.9 0 2 .8 3.3 2.2 4.1 4.2.8 2 .8 4 0 5.8L546 135.2c-.2.8-.7 1.5-1.5 2.3l-.2.4-1 .7-1.3.8h-.2l-.3.1-1 .4h-.2l-1.4.1-1.3-.1h-.4l-1-.4-.5-.1c-.2 0-.6-.3-1-.8h-.2a5.2 5.2 0 0 1-1.8-2c-.4-.1-.6-.6-.8-1.4l-18.4-43.4-18.3 43.4-.6 1.3-1 1-.1.4a4 4 0 0 0-.9.7h-.2z" fill="#00C48D" fill-rule="nonzero"/>
    <path d="M383.8 44.2a7.4 7.4 0 0 1 2.2 5.5c0 2.1-.8 4-2.3 5.5a7.4 7.4 0 0 1-5.4 2.3h-22.2v74.8c0 2.1-.7 4-2.2 5.5a7.4 7.4 0 0 1-5.5 2.2c-2.1 0-4-.7-5.4-2.2a7.4 7.4 0 0 1-2.3-5.5V57.5h-22c-2.2 0-4-.7-5.5-2.3a7.7 7.7 0 0 1-2.2-5.5c0-2.1.7-4 2.2-5.5a7.4 7.4 0 0 1 5.5-2.2h59.6c2.2 0 4 .7 5.5 2.2zM247.7 140c-2.2 0-4-.7-5.5-2.2a7.4 7.4 0 0 1-2.2-5.5V49.7c0-2.1.7-4 2.2-5.5a7.4 7.4 0 0 1 5.5-2.2c2.1 0 4 .7 5.5 2.2a7.3 7.3 0 0 1 2.3 5.5v74.8h37.8c2 0 3.9.7 5.4 2.3a7.5 7.5 0 0 1 2.3 5.4c0 2.1-.8 4-2.3 5.5a7.4 7.4 0 0 1-5.4 2.3h-45.6zM197 49.7a7.8 7.8 0 0 1 8-7.7 8 8 0 0 1 5.6 2.2 7.2 7.2 0 0 1 2.4 5.5v82.6c0 2.1-.8 4-2.4 5.5a8 8 0 0 1-5.7 2.2 7.8 7.8 0 0 1-7.9-7.7V49.7zM164 98.5a39 39 0 0 1-11.8 28.6 39 39 0 0 1-28.7 11.9 39 39 0 0 1-28.7-11.8A39 39 0 0 1 83 98.5V48.7c0-2.1.7-4 2.2-5.5a7.4 7.4 0 0 1 5.5-2.2c2.2 0 4 .7 5.5 2.2a7.3 7.3 0 0 1 2.4 5.5v49.8a24 24 0 0 0 7.2 17.6 24 24 0 0 0 17.7 7.4 24 24 0 0 0 17.7-7.3 24 24 0 0 0 7.2-17.7V48.7c0-2.1.8-4 2.4-5.5a7.7 7.7 0 0 1 5.5-2.2c2.1 0 4 .7 5.5 2.2a7.4 7.4 0 0 1 2.2 5.5v49.8zM8.3 140l-.2-.1-.4.1c-2.1 0-4-.7-5.5-2.2a7.4 7.4 0 0 1-2.2-5.5V49.7c0-2.1.7-4 2.2-5.5A7.4 7.4 0 0 1 7.7 42h19.9c7.4 0 13.6 2.6 18.8 7.8 5.2 5.2 7.8 11 7.8 17.7 0 6.6-1.8 12.3-5.3 17A30.4 30.4 0 0 1 63 110c0 8.3-3 15.4-8.8 21.3A28.8 28.8 0 0 1 33 140H8.3zm7.2-82.5V80h12c3.2 0 5.8-1 8-3.3 2-2.3 3.1-5 3.1-8s-1-5.7-3.2-7.8a10.7 10.7 0 0 0-7.8-3.3h-12zm0 38v29H33c4-.1 7.5-1.6 10.3-4.4a14 14 0 0 0 4.2-10.2A14.5 14.5 0 0 0 33 95.5H15.4z" fill="#2F495E" fill-rule="nonzero"/>
    <g transform="translate(865)">
      <path d="M56.7 135a9.9 9.9 0 0 1-1-6.3h-44L77 12.4 104.7 62l8.7-6.5L86 6C85.6 5.1 82.4 0 77 0c-2.5 0-6 1-8.9 6.2L1.8 123.9c-.6 1-3.3 6.4-.6 11.1 1.2 2.2 3.9 4.7 9.7 4.7h55.6c-5.8 0-8.5-2.5-9.8-4.7z" fill="#00C58E"/>
      <path d="M182.7 124.1l-53.4-95.6c-.5-1-3.6-6-9-6-2.4 0-5.8 1-8.6 6l-7 11.4v22l15.7-27.2 52.8 94.2h-20a9.3 9.3 0 0 1-1 5.6v.3c-2.8 4.7-8.6 5-9.8 5h31.4c1.2 0 7-.3 9.7-5 1.2-2.1 2-5.7-.8-10.7z" fill="#108775"/>
      <path d="M153.5 134.8l.2-.4.4-1c.6-1.4.7-3 .4-4.6-.3-1.7-.9-3.4-1.8-4.8L111 51l-6.2-11h-.1l-6.4 11-41.7 73c-.8 1.5-1.3 3-1.6 4.8a9.7 9.7 0 0 0 1 6.2c1.3 2.2 4 4.7 9.8 4.7h77.7c1.2 0 7.2-.2 10-5zM104.7 62l38 66.7H66.7l38-66.7z" fill="#2F495E" fill-rule="nonzero"/>
    </g>
  </g>
</svg>
