<svg xmlns="http://www.w3.org/2000/svg" width="556" height="98" viewBox="0 0 556 98"><g fill="none" fill-rule="evenodd"><path fill="#FFF" d="M74.4 3.7c1 1.1 1.7 2.6 1.6 4.2v81.5c0 1.7-.6 3.4-1.8 4.7a6.2 6.2 0 0 1-4.6 1.9c-1 0-2-.2-3-.5a5 5 0 0 1-2.1-1.4L11.7 25.4V90a5.7 5.7 0 0 1-6 5.9c-1.5 0-3-.6-4-1.7A5.8 5.8 0 0 1 0 90.1V8.4C0 6.7.7 5 2 3.8A6 6 0 0 1 6.3 2c1 0 2.1.2 3 .6 1 .3 1.8 1 2.4 1.7l52.5 68.9V7.9a5.7 5.7 0 0 1 6-5.9c1.5 0 3 .5 4 1.7zM183.1 3.9c1.1 1.3 1.8 3 1.7 4.6v51.6c.1 6.6-1.5 13.2-4.7 19-3 5.6-7.5 10.2-13 13.3-5.6 3.3-12 5-18.6 4.9-6.5 0-13-1.6-18.8-4.8a34 34 0 0 1-13-13.2 38.6 38.6 0 0 1-4.7-19.1V8.6c0-1.7.6-3.4 2-4.6a6.7 6.7 0 0 1 9.3 0c1.2 1.2 1.9 2.8 1.9 4.6V60c-.1 4.4 1 8.7 3.2 12.6a23.2 23.2 0 0 0 20.1 11.7 24 24 0 0 0 24.1-24.3V8.6c0-1.7.5-3.4 1.6-4.7 1.2-1.3 2.8-2 4.5-1.9 1.7 0 3.3.7 4.4 1.9zM287 85.7a6.3 6.3 0 0 1 1.1 3.8c.1 1.7-.6 3.4-1.9 4.6a6.4 6.4 0 0 1-4.3 1.7c-2.1.1-4.1-1-5.3-2.7l-26-34.8L225 93.1a6.2 6.2 0 0 1-5.2 2.8c-1.6 0-3-.6-4.1-1.7-1-1-1.7-2.4-1.7-3.8 0-1.6.6-3.2 1.6-4.4l27.6-37.5-27.7-37.2a6.2 6.2 0 0 1 .5-8.4 6.3 6.3 0 0 1 7.4-1.2 6 6 0 0 1 2.4 2l25.8 34.6L277 4c1.1-1.7 3-2.8 5.1-3 1.6 0 3.2.8 4.3 2 1.1 1 1.8 2.5 1.9 4 0 1.5-.5 2.8-1.4 4l-28 37.2 28 37.5zM383.5 3.7c1.2 1.1 2 2.8 1.9 4.5 0 1.7-.7 3.3-2 4.4-1.2 1.1-2.9 1.7-4.6 1.6H355v75.4c0 1.7-.6 3.3-1.9 4.5a7.4 7.4 0 0 1-9.8 0 6.2 6.2 0 0 1-2-4.5V14.2h-23.8c-1.7 0-3.3-.5-4.6-1.7A5.9 5.9 0 0 1 311 8c0-1.6.6-3.2 1.8-4.3 1.3-1.2 3-1.8 4.6-1.7h61.4c1.7 0 3.4.5 4.7 1.7z"/><path fill="#00C48D" d="M412.7 93.6c-4.3-2.4-8-6-10.5-10.3-.7-1-1.1-2.3-1.2-3.6 0-1.7.7-3.3 2-4.4 1.1-1.2 2.6-1.8 4.2-2 2.4.3 4.6 1.5 6 3.4 3 5 8.4 8 14.1 7.8A17.2 17.2 0 0 0 445 67.3V8.5a6 6 0 0 1 2-4.6c1.3-1.2 3-1.9 4.7-1.9 1.8 0 3.5.6 4.8 1.8a6.3 6.3 0 0 1 1.8 4.6v59a29 29 0 0 1-15 26 31.2 31.2 0 0 1-30.5.2zM505.2 94c-5.3-2-10.2-5-14.4-9a7.2 7.2 0 0 1-2.8-5.4 6 6 0 0 1 2-4.4 6 6 0 0 1 4.3-1.9c1.5 0 2.8.5 3.9 1.5 3.2 3 7 5.5 11 7.3 4.2 1.6 8.6 2.4 13 2.4 5 .1 10-1.2 14.3-4 3.5-2 5.8-5.7 5.8-9.8.1-4.3-2.1-8.4-5.8-10.8a52 52 0 0 0-17.4-6.3c-9.2-2-16.3-5-21.3-9.3-5-4.3-7.4-10.3-7.4-17.9-.1-5 1.3-9.9 4.2-14 2.9-4 6.8-7.2 11.4-9.2a45.5 45.5 0 0 1 32.4-.5 33 33 0 0 1 12 7.1c1.8 1.4 3 3.5 3 5.7a6 6 0 0 1-1.8 4.3 5.7 5.7 0 0 1-4.4 2c-1 0-2.2-.4-3-1.1a32.1 32.1 0 0 0-21.4-8.2c-5-.3-10 1-14.3 3.6a11.9 11.9 0 0 0 0 19.8 50 50 0 0 0 15.8 6c5.9 1.1 11.6 3 17.1 5.3 4.2 1.9 7.8 4.8 10.3 8.6 2.6 4.4 3.8 9.3 3.6 14.4.1 5-1.4 9.8-4.3 13.8-3 4.2-7.2 7.4-12 9.4a49.8 49.8 0 0 1-33.9.6z"/></g></svg>