<svg width="423" height="423" viewBox="0 0 423 423" version="1" xmlns="http://www.w3.org/2000/svg">
  <g transform="translate(0 51)" fill="none" fill-rule="evenodd">
    <path d="M130 309l-1-2c-2-4-2-9-2-13H27L176 28l63 114 20-15-62-113c-1-2-9-14-21-14-6 0-14 2-20 14L4 283c-1 3-8 15-1 26 3 5 9 10 22 10h127c-13 0-19-5-22-10z" fill="#00C58E"/>
    <path d="M418 284L296 65c-2-2-9-14-21-14-5 0-13 3-20 14l-16 26v51l36-63 121 216h-46a21 21 0 0 1-2 12v1c-6 11-20 11-22 11h71c3 0 16 0 23-11 2-5 4-13-2-24z" fill="#108775"/>
    <path d="M351 308v-1l1-2c2-3 2-7 1-11 0-4-2-7-4-11l-95-166-14-26h-1l-14 26-95 166c-2 4-4 7-4 11a22 22 0 0 0 2 15c3 5 9 10 23 10h177c3 0 17 0 23-11zM239 142l87 152H152l87-152z" fill="#2F495E" fill-rule="nonzero"/>
  </g>
</svg>
