<svg width="556" height="98" viewBox="0 0 556 98" version="1" xmlns="http://www.w3.org/2000/svg">
  <g fill="none" fill-rule="evenodd">
    <path d="M74 4l2 4v81l-2 5-4 2h-3l-3-2-52-69v65a6 6 0 0 1-6 6l-4-2-2-4V8l2-4 4-2 3 1 3 1 52 69V8a6 6 0 0 1 6-6l4 2zM183 4l2 5v51c0 7-2 13-5 19s-7 10-13 13c-6 4-12 5-18 5-7 0-14-1-19-4a39 39 0 0 1-18-32V8l2-5a7 7 0 0 1 9 0c2 1 2 3 2 5v51c0 5 1 9 3 13 5 7 12 11 21 11a24 24 0 0 0 24-24V9l1-5 5-2 4 2zM287 86l1 4c0 1 0 3-2 4l-4 2c-2 0-4-1-5-3l-26-35-26 35c-1 2-3 3-5 3l-4-2-2-4 2-4 27-38-28-37a6 6 0 0 1 1-8 6 6 0 0 1 7-1l3 2 26 34 25-34c1-2 3-3 5-3l4 2c2 1 2 3 2 4l-1 4-28 37 28 38zM383 4c2 1 2 2 2 4s0 3-2 5l-4 1h-24v76l-2 4c-3 3-7 3-10 0l-2-4V14h-24l-4-1-2-5 2-4 4-2h62l4 2z" fill="#FFF"/>
    <path d="M413 94c-5-3-8-6-11-11l-1-3 2-5 4-2c3 1 5 2 6 4 3 5 9 8 14 8a17 17 0 0 0 18-18V8l2-4 5-2 4 2c2 1 2 3 2 4v59a29 29 0 0 1-15 26 31 31 0 0 1-30 1zM505 94c-5-2-10-5-14-9-2-1-3-3-3-5l2-5 4-2 4 2 11 7c4 2 9 3 13 2 5 1 10-1 14-3s6-6 6-10c0-5-2-9-6-11-5-3-11-5-17-6-9-2-16-5-21-10-5-4-8-10-8-18 0-5 2-9 5-14 2-4 6-7 11-9s11-3 17-3l15 3c5 1 9 4 12 7 2 1 3 3 3 6l-1 4-5 2-3-1c-3-3-6-5-10-6-3-2-7-3-11-3-5 0-10 1-15 4a12 12 0 0 0 0 20c5 3 11 5 16 6l17 5c5 2 8 5 11 9 2 4 4 9 3 14 0 5-1 10-4 14s-7 7-12 9c-5 3-11 4-16 4l-18-3z" fill="#00C48D"/>
  </g>
</svg>
