<svg width="100" height="100" viewBox="0 0 100 100" fill="none" xmlns="http://www.w3.org/2000/svg">
<path fill-rule="evenodd" clip-rule="evenodd" d="M50.4743 95.4723V77.7453C69.2379 77.7453 83.8033 59.1376 76.5977 39.3887C75.2744 35.7606 73.1738 32.4657 70.4432 29.7348C67.7126 27.0038 64.418 24.9029 60.79 23.5792C41.0411 16.4268 22.4334 30.939 22.4334 49.7026H4.75781C4.75781 19.7975 33.6813 -3.52773 65.0397 6.26695C78.7243 10.5716 89.6603 21.4544 93.9118 35.1409C103.708 66.5488 80.4344 95.4723 50.4743 95.4723Z" fill="#0080FF"/>
<path fill-rule="evenodd" clip-rule="evenodd" d="M28.9326 78.3243H46.5549V60.7019H28.9344L28.9326 78.3243ZM15.3525 91.9043H28.9307V78.3261H15.3525V91.9043ZM4 78.3261H15.3525V66.9717H4V78.3261Z" fill="#0080FF"/>
</svg>
