<svg width="100" height="100" viewBox="0 0 100 100" fill="none" xmlns="http://www.w3.org/2000/svg">
<path fill-rule="evenodd" clip-rule="evenodd" d="M50 9C72.6525 9 91 27.3475 91 50C91 68.1425 79.2638 83.4663 62.9663 88.8988C60.9163 89.2575 60.1475 88.0275 60.1475 86.9513C60.1475 85.9775 60.1987 82.7488 60.1987 79.315C70.5 81.2113 73.165 76.8038 73.985 74.4975C74.4463 73.3188 76.445 69.68 78.1875 68.7063C79.6225 67.9375 81.6725 66.0413 78.2387 65.99C75.01 65.9388 72.7037 68.9625 71.935 70.1925C68.245 76.3938 62.3512 74.6513 59.9937 73.575C59.635 70.91 58.5588 69.1163 57.38 68.0913C66.5025 67.0663 76.035 63.53 76.035 47.8475C76.035 43.3888 74.4462 39.6988 71.8325 36.8288C72.2425 35.8038 73.6775 31.6013 71.4225 25.9638C71.4225 25.9638 67.9887 24.8875 60.1475 30.1663C56.8675 29.2438 53.3825 28.7825 49.8975 28.7825C46.4125 28.7825 42.9275 29.2438 39.6475 30.1663C31.8062 24.8363 28.3725 25.9638 28.3725 25.9638C26.1175 31.6013 27.5525 35.8038 27.9625 36.8288C25.3487 39.6988 23.76 43.3375 23.76 47.8475C23.76 63.5813 33.3437 67.0663 42.4662 68.0913C40.98 69.3725 39.6987 71.8325 39.6987 75.6763C39.6987 81.16 39.75 85.5675 39.75 86.9513C39.75 88.0275 38.9812 89.3088 36.9312 88.8988C20.7362 83.4663 9 68.0913 9 50C9 27.3475 27.3475 9 50 9Z" fill="#1B1F23"/>
</svg>
