<svg width="100" height="100" viewBox="0 0 100 100" fill="none" xmlns="http://www.w3.org/2000/svg">
<path d="M23.5916 87.2751L4.35548 53.9573C2.85026 51.3502 2.85026 48.1381 4.35548 45.5309L23.5916 12.2132C25.0968 9.60605 27.8786 8 30.889 8H69.3613C72.3717 8 75.1535 9.60605 76.6587 12.2132L95.8948 45.5309C97.4 48.1381 97.4 51.3502 95.8948 53.9573L76.6587 87.275C75.1535 89.8822 72.3717 91.4882 69.3613 91.4882H30.889C27.8786 91.4883 25.0969 89.8822 23.5916 87.2751V87.2751Z" fill="url(#paint0_linear)"/>
<path opacity="0.07" d="M74.8073 92.2763L92.0542 62.8771L77.4442 48.2671L76.9366 48.1106L51.3693 22.5432L46.121 30.2179L50.5181 34.6151L39.3279 38.6912L34.9555 49.8143L30.6642 45.523L22.9336 52.3127L62.7903 92.1694L74.8073 92.2763Z" fill="black"/>
<path d="M50.1333 32.8586C40.8066 32.8586 33.2461 40.4186 33.2461 49.7468C33.2461 59.0722 40.8066 66.6348 50.1333 66.6348C59.4597 66.6348 67.0201 59.0722 67.0201 49.7468C67.0201 40.4186 59.4597 32.8586 50.1333 32.8586V32.8586ZM50.1333 62.5592C43.0558 62.5592 37.3186 56.8225 37.3186 49.7468C37.3186 42.6692 43.0557 36.932 50.1333 36.932C57.2104 36.932 62.9467 42.6691 62.9467 49.7468C62.9467 56.8225 57.2104 62.5592 50.1333 62.5592Z" fill="white"/>
<path d="M76.6069 47.7461L69.5664 45.5334C69.8593 46.892 70.0171 48.3004 70.0171 49.7454C70.0171 50.7559 69.9403 51.7486 69.7957 52.7182H76.6069C77.2362 52.5339 77.6568 52.1433 77.6568 51.563V48.8997C77.6569 48.3202 77.2362 47.9186 76.6069 47.7461" fill="white"/>
<path d="M50.1172 29.8479C51.5317 29.8479 52.9105 29.9979 54.2417 30.2791L51.7178 23.2642C51.5335 22.6336 51.1424 22.2134 50.5625 22.2134H49.5079C48.928 22.2134 48.5254 22.6336 48.3529 23.2642L46.1602 30.243C47.4388 29.985 48.7617 29.8479 50.1172 29.8479" fill="white"/>
<path d="M30.2292 49.7454C30.2292 48.3004 30.387 46.8925 30.6794 45.5334L23.6393 47.7461C23.0101 47.9186 22.5898 48.3202 22.5898 48.9005V51.5638C22.5898 52.1432 23.0101 52.5338 23.6393 52.7181H30.451C30.3059 51.749 30.2292 50.7559 30.2292 49.7454Z" fill="white"/>
<path d="M56.1503 44.2343L54.5527 45.8314V45.8278C53.4058 44.6818 51.8745 44.0491 50.2522 44.0491C48.626 44.0491 47.099 44.6836 45.9505 45.8314C43.579 48.2023 43.579 52.0628 45.9505 54.4342L44.3528 56.0304C45.8644 57.5406 47.9505 58.4767 50.2505 58.4767C54.8527 58.4767 58.5967 54.7335 58.5967 50.1306C58.5967 47.8297 57.6609 45.744 56.1503 44.2343ZM52.8534 52.4799C52.1002 53.2348 51.1094 53.6127 50.1213 53.6127C49.1301 53.6127 48.1419 53.2349 47.387 52.4799C45.8763 50.9692 45.8763 48.5215 47.387 47.0104C48.1419 46.2546 49.1301 45.879 50.1213 45.879C51.1094 45.879 52.1002 46.2547 52.8534 47.0104C54.3641 48.5206 54.3641 50.9692 52.8534 52.4799Z" fill="white"/>
<defs>
<linearGradient id="paint0_linear" x1="50.1252" y1="8" x2="50.1252" y2="91.3588" gradientUnits="userSpaceOnUse">
<stop stop-color="#4387FD"/>
<stop offset="1" stop-color="#4683EA"/>
</linearGradient>
</defs>
</svg>
