<svg width="160" height="160" viewBox="0 0 160 160" fill="none" xmlns="http://www.w3.org/2000/svg">
<path d="M86.1589 107.759C83.3299 101.42 83.3288 95.6555 84.5319 90.8316C88.0537 80.9848 98.7108 71.9817 98.7108 71.9817L98.676 71.9649C101.203 69.5182 103.38 66.5813 105.203 63.1542C107.615 58.6122 108.824 52.831 108.824 45.8086C108.824 39.4794 107.789 34.1105 105.719 29.7021C103.65 25.2989 101.027 21.6498 97.8546 18.7572C94.6776 15.8666 91.0905 13.6671 87.091 12.1492C83.0853 10.6366 79.1533 9.53734 75.2909 8.8473C71.4254 8.16042 67.8403 7.74597 64.5273 7.60712C61.2175 7.47143 58.5941 7.3999 56.6613 7.3999H46V153.6H114L86.1589 107.759Z" fill="white"/>
</svg>
