<svg width="160" height="160" viewBox="0 0 160 160" fill="none" xmlns="http://www.w3.org/2000/svg">
<path d="M49.9779 63.1349H56.824C65.3399 62.133 65.6738 49.7767 64.839 44.2664C64.338 40.7599 63.0022 37.0863 59.1617 35.5835C55.9891 34.2477 48.4751 34.0807 45.6365 36.0845C39.1243 40.2589 39.4583 63.1349 49.8109 63.1349H49.9779ZM123.949 96.5305C120.443 95.5287 114.264 95.3617 111.259 97.5324C105.916 101.373 105.415 123.247 115.099 123.247H119.274L128.959 116.735C129.626 114.063 129.626 111.225 129.626 109.054C129.459 104.712 129.626 98.2003 123.949 96.5305ZM117.604 18.7188L84.0414 13.2085L46.9723 19.2197C46.3044 23.2272 46.4714 24.396 45.3025 28.4035C50.6458 24.563 73.5218 24.563 75.5256 37.0864C76.5274 42.9306 76.6944 46.4371 76.5274 52.4483C76.3604 62.634 74.5237 65.6396 70.5162 68.9792C66.0078 72.6527 59.8296 74.6564 54.1524 74.6564C42.9648 74.6564 37.2876 72.8196 31.9443 67.3094C21.0907 89.5174 8.90132 103.377 8.40039 103.878L44.6346 124.416L39.2913 101.039L50.8128 107.718L56.824 83.1723L90.3866 73.4876L104.747 32.411L110.591 32.9119L116.435 18.7188L97.9006 81.6695L65.3399 92.1891L59.8296 113.061L67.6776 117.57L46.3044 125.418L84.0414 146.791L106.583 131.763C103.244 131.095 100.572 129.759 97.9006 126.921C93.5592 122.245 93.8931 115.399 94.0601 109.722C94.2271 103.878 93.2252 96.6975 96.8987 91.5212C100.071 86.8458 106.583 84.3411 112.428 83.8402C119.107 83.3393 118.94 83.6732 125.619 83.6732C131.129 83.6732 139.979 88.1816 140.981 93.3579C142.15 98.5343 143.319 103.043 142.15 107.718C142.985 107.217 151 101.707 151 101.874C127.456 76.1592 117.604 18.7188 117.604 18.7188Z" fill="#F1870F"/>
</svg>
