<svg width="100" height="100" viewBox="0 0 100 100" fill="none" xmlns="http://www.w3.org/2000/svg">
<path d="M49.5 95C74.0767 95 94 75.0767 94 50.5C94 25.9233 74.0767 6 49.5 6C24.9233 6 5 25.9233 5 50.5C5 75.0767 24.9233 95 49.5 95Z" fill="#1F1C3B"/>
<path d="M63.2082 59.438C64.3921 57.3874 63.6895 54.7652 61.6388 53.5812C59.5882 52.3973 56.966 53.0999 55.782 55.1506L43.9928 75.5702C42.8088 77.6209 43.5114 80.243 45.5621 81.427C47.6128 82.6109 50.2349 81.9083 51.4189 79.8577L63.2082 59.438Z" fill="#F6005B"/>
<path d="M53.6808 54.6487C54.8648 52.5981 54.1622 49.9759 52.1115 48.7919C50.0608 47.608 47.4387 48.3106 46.2547 50.3613L45.1835 52.2167C43.9995 54.2673 44.7021 56.8895 46.7528 58.0735C48.8035 59.2574 51.4256 58.5548 52.6096 56.5042L53.6808 54.6487Z" fill="#F6005B"/>
<path d="M56.0636 29.3187C57.2476 27.268 56.545 24.6458 54.4943 23.4619C52.4436 22.2779 49.8215 22.9805 48.6375 25.0312L36.8482 45.4508C35.6643 47.5015 36.3669 50.1237 38.4176 51.3076C40.4682 52.4916 43.0904 51.789 44.2744 49.7383L56.0636 29.3187Z" fill="#F6005B"/>
</svg>
