<svg width="100" height="100" viewBox="0 0 100 100" fill="none" xmlns="http://www.w3.org/2000/svg">
<g clip-path="url(#clip0)">
<path d="M78.0303 26.9857C77.4131 26.4714 76.7188 25.8543 74.816 25.3657V25.34C77.5417 18.3457 75.6646 15.5686 73.0417 13.3829C71.1388 11.7886 67.8217 11.48 65.2246 12.0714C62.4217 6.87714 56.0446 5.05143 50.0017 5C43.9588 5.05143 37.5817 6.87714 34.7531 12.0457C32.156 11.4543 28.8388 11.7886 26.936 13.3571C24.3131 15.5429 22.436 18.32 25.1617 25.3143V25.34C23.2588 25.8286 22.5903 26.4714 21.9731 26.9857C20.6103 28.04 19.4531 29.6857 19.4531 32.1286C19.5817 36.0114 22.6674 65.4543 22.6674 65.4543C22.6674 65.5314 22.7446 65.6086 22.8217 65.6086C22.8731 65.6086 22.8988 65.5829 22.9246 65.5571L25.7017 62.96V67.1514C25.7017 67.2543 25.7788 67.3057 25.856 67.3057C25.8817 67.3057 25.9331 67.3057 25.9588 67.2543L30.6646 63.1914V65.6343C30.6646 65.7371 30.7417 65.7886 30.8188 65.7886C30.8703 65.7886 30.896 65.7629 30.9217 65.7371L33.5703 63.1914L35.396 61.4429C35.4988 70.8286 35.1388 82.2457 33.5188 92.8657C33.2617 94.5886 34.2131 95 35.0617 95C35.5246 95 35.936 94.8714 36.1417 94.7686C38.7388 93.4057 40.8988 87.98 42.3131 81.9372C43.496 76.9229 44.8074 70.3914 46.0417 62.4457C46.6074 62.7286 48.2788 63.2429 49.9503 63.2429C51.6217 63.2429 53.2674 62.7286 53.8588 62.4457C55.0674 70.3657 56.4046 76.8971 57.5874 81.9372C59.0017 87.98 61.1617 93.4057 63.7588 94.7686C63.9646 94.8714 64.4017 95 64.8388 95C65.6874 95 66.6646 94.5886 66.3817 92.8657C64.7617 82.2714 64.4017 70.8543 64.5046 61.4429L66.3303 63.1914L68.9788 65.7371C69.0046 65.7629 69.056 65.7886 69.0817 65.7886C69.1588 65.7886 69.236 65.7114 69.236 65.6343V63.1914L73.9417 67.2543C73.9674 67.28 74.0188 67.3057 74.0446 67.3057C74.1217 67.3057 74.1988 67.2286 74.1988 67.1514V62.96L76.976 65.5571C77.0017 65.5829 77.0531 65.6086 77.0788 65.6086C77.156 65.6086 77.2331 65.5571 77.2331 65.4543C77.2331 65.4543 80.3188 36.0371 80.4474 32.1286C80.5503 29.6857 79.3931 28.04 78.0303 26.9857Z" fill="#564740"/>
<path d="M50.95 48.1742L49.9985 47.2742L49.0471 48.1742V48.1999L47.9414 49.3056C48.5843 49.9742 49.2785 50.3342 49.9985 50.3342C50.7185 50.3342 51.4128 49.9742 52.0557 49.3056L50.95 48.1742Z" fill="#483A34"/>
<path d="M53.0327 51.26H46.9642L46.707 53.2657H53.2899L53.0327 51.26Z" fill="#AAD9BD"/>
<path d="M45.86 51.3884C45.86 51.3884 45.0629 57.2256 44.78 59.257C42.4657 75.0199 39.2 91.5799 35.4458 93.1999C35.1629 93.3284 34.9058 93.0713 34.9315 92.7884C35.3943 90.2941 36.4486 83.7113 36.7829 77.8227C37.04 73.4513 37.1429 65.5313 37.1686 57.3541L39.4315 55.1941C39.6115 55.0141 39.8943 55.0913 39.8943 55.3741V57.4056L45.86 51.3884V51.3884Z" fill="#F6E3D6"/>
<path d="M39.8678 57.4313V55.3999C39.8678 55.117 39.585 55.0399 39.405 55.2199L37.9907 56.557C37.965 57.2513 37.6564 69.6713 37.6564 72.2427C37.6564 79.3913 35.805 90.6027 35.985 90.6027C37.605 90.6027 39.8678 66.3027 40.6136 56.6342L39.8678 57.4313V57.4313Z" fill="#FAF1EA"/>
<path d="M54.1406 51.3884C54.1406 51.3884 54.9378 57.2256 55.2206 59.257C57.5349 75.0199 60.8006 91.5799 64.5549 93.1999C64.8378 93.3284 65.0949 93.0713 65.0692 92.7884C64.6063 90.2941 63.5521 83.7113 63.2178 77.8227C62.9606 73.4513 62.8578 65.5313 62.8321 57.3541L60.5692 55.1941C60.3892 55.0141 60.1063 55.0913 60.1063 55.3741V57.4056L54.1406 51.3884V51.3884Z" fill="#F6E3D6"/>
<path d="M73.5525 26.3943C72.2411 26.1886 68.2297 26.24 68.1782 26.24L73.1925 25.0829C77.024 16.9315 71.1611 13.0486 67.6125 13.0486C66.404 13.0486 63.2411 13.4858 62.8811 13.4858C62.8811 13.4858 63.4725 13.4086 63.6268 13.2543C63.6268 11.7372 59.384 6.7229 49.9982 6.7229C40.6382 6.7229 36.3697 11.7372 36.3697 13.2543C36.524 13.4086 37.1154 13.4858 37.1154 13.4858C36.7554 13.4858 33.5925 13.0486 32.384 13.0486C28.8611 13.0486 22.9725 16.9058 26.804 25.0829L31.8182 26.24C31.7925 26.24 27.7554 26.2143 26.444 26.3943C24.644 26.6772 21.1211 28.6058 21.1211 32.0258C21.1211 33.62 21.7897 38.3258 21.7897 38.3258H78.1811C78.1811 38.3258 78.8497 33.62 78.8497 32.0258C78.8754 28.6058 75.3525 26.6772 73.5525 26.3943V26.3943Z" fill="#63C199"/>
<path d="M71.3178 16.1601C70.4692 15.5429 69.3378 15.2858 67.8206 15.2858C67.8206 15.2858 67.1521 15.3115 66.7664 15.3629C63.1406 15.8258 61.8549 17.7801 58.3578 17.7801C56.5835 17.7801 57.5349 13.5629 57.5349 13.5629C57.5349 13.5629 62.0092 13.6658 62.0092 13.3572C62.0092 11.9943 56.7378 8.06006 50.3606 8.06006H49.5892C43.2121 8.06006 37.9406 11.9943 37.9406 13.3572C37.9406 13.6658 42.4149 13.5629 42.4149 13.5629C42.4149 13.5629 43.3921 17.7801 41.5921 17.7801C38.0949 17.7801 36.8092 15.8258 33.1835 15.3629C32.7978 15.3115 32.1292 15.2858 32.1292 15.2858C30.6121 15.2858 29.4806 15.5429 28.6321 16.1601C27.4492 17.0343 25.0321 20.3001 29.2492 25.6743L31.7692 26.2401H68.1292L70.6492 25.6743C74.9178 20.2743 72.5006 17.0086 71.3178 16.1601V16.1601Z" fill="#C5E4D0"/>
<path d="M32.6675 18.783C32.4104 18.783 32.179 18.8601 31.9733 19.0144C32.0504 19.0915 32.0761 19.1687 32.0761 19.2715C32.0761 19.4772 31.9218 19.6315 31.7161 19.6315C31.639 19.6315 31.5618 19.6058 31.4847 19.5544C31.3561 19.7858 31.3047 20.0687 31.3047 20.3515C31.3047 21.2258 31.9218 21.9201 32.6933 21.9201C33.4647 21.9201 34.0818 21.2258 34.0818 20.3515C34.0561 19.4772 33.439 18.783 32.6675 18.783V18.783Z" fill="#483A34"/>
<path d="M32.384 19.2714C32.384 19.0914 32.3069 18.9114 32.1783 18.8085C32.0497 18.6799 31.8954 18.6028 31.7154 18.6028C31.3554 18.6028 31.0469 18.9114 31.0469 19.2714C31.0469 19.4771 31.1497 19.6828 31.304 19.8114C31.4069 19.8885 31.5612 19.9399 31.7154 19.9399C32.0754 19.9399 32.384 19.6314 32.384 19.2714V19.2714Z" fill="#FBF8F5"/>
<path d="M48.8951 29.1972L47.3008 27.7058L48.9208 29.223L48.8951 29.1972Z" fill="#564740"/>
<path d="M38.0165 56.5315L37.168 57.3544L38.0165 56.5315Z" fill="#A8E1C2"/>
<path d="M39.4042 55.1943L38.0156 56.5315L39.4042 55.1943Z" fill="#A8E1C2"/>
<path d="M48.999 29.3L49.6676 29.9172L48.9219 29.2229L48.999 29.3Z" fill="#564740"/>
<path d="M67.8199 18.783C67.5627 18.783 67.3313 18.8601 67.1256 19.0144C67.2027 19.0915 67.2285 19.1687 67.2285 19.2715C67.2285 19.4772 67.0742 19.6315 66.8685 19.6315C66.7913 19.6315 66.7142 19.6058 66.637 19.5544C66.5085 19.7858 66.457 20.0687 66.457 20.3515C66.457 21.2258 67.0742 21.9201 67.8456 21.9201C68.617 21.9201 69.2342 21.2258 69.2342 20.3515C69.2085 19.4772 68.5913 18.783 67.8199 18.783V18.783Z" fill="#483A34"/>
<path d="M67.5364 19.2714C67.5364 19.0914 67.4592 18.9114 67.3306 18.8085C67.2021 18.6799 67.0478 18.6028 66.8678 18.6028C66.5078 18.6028 66.1992 18.9114 66.1992 19.2714C66.1992 19.4771 66.3021 19.6828 66.4564 19.8114C66.5592 19.8885 66.7135 19.9399 66.8678 19.9399C67.2278 19.9399 67.5364 19.6314 67.5364 19.2714V19.2714Z" fill="#FBF8F5"/>
<path d="M51.1038 29.1972L52.6981 27.7058L51.0781 29.223L51.1038 29.1972Z" fill="#564740"/>
<path d="M60.1324 57.4313V55.3999C60.1324 55.117 60.4153 55.0399 60.5953 55.2199L62.0096 56.557C62.0353 57.2513 62.3439 69.6713 62.3439 72.2427C62.3439 79.3913 64.1953 90.6027 64.0153 90.6027C62.3953 90.6027 60.1324 66.3027 59.3867 56.6342L60.1324 57.4313V57.4313Z" fill="#FAF1EA"/>
<path d="M61.9844 56.5315L62.8329 57.3544L61.9844 56.5315Z" fill="#A8E1C2"/>
<path d="M60.5938 55.1943L61.9823 56.5315L60.5938 55.1943Z" fill="#A8E1C2"/>
<path d="M51.0045 29.3L50.3359 29.9172L51.0817 29.2229L51.0045 29.3Z" fill="#564740"/>
<path d="M69.0044 31.1515C63.4758 28.7601 55.2215 27.9115 52.7015 27.7058L51.0815 29.223L51.0044 29.3001L50.3358 29.9172C50.2587 29.9944 50.1301 30.0458 50.0015 30.0458C49.873 30.0458 49.7701 29.9944 49.6673 29.9172L48.9987 29.3001L48.9215 29.223L47.3015 27.7058C44.7815 27.9115 36.5273 28.7601 30.9987 31.1515C25.0587 33.723 21.793 38.5315 21.793 38.3258L22.0758 41.3858V41.3601C30.9987 31.1515 49.0244 48.1487 49.0244 48.1487L49.9758 47.2487L50.9273 48.1487C50.9273 48.1487 68.953 31.1515 77.8758 41.3601V41.3858L78.1587 38.3258C78.2101 38.5315 74.9444 33.723 69.0044 31.1515V31.1515Z" fill="#AAD9BD"/>
<path d="M49.0501 48.1742L47.8416 35.7285C46.5558 37.3999 44.2416 38.8914 40.4358 38.8914C34.5216 38.8914 31.0244 31.1514 22.1016 41.3599L23.9273 61.1857L24.0558 62.1371L26.5758 59.5657L26.8844 42.2599L27.2701 42.0028L27.3987 63.7057L30.3816 61.1342L31.7444 59.9514C31.8473 54.8857 32.0016 46.1685 32.0016 46.1685L32.413 45.8857L32.4901 61.8799L34.933 59.5399L35.0873 59.3857L36.553 57.9714C36.6301 53.8571 36.7073 49.9485 36.7073 49.9485L37.1187 49.5885L37.1701 57.4057L38.0187 56.5828L39.433 55.2457C39.5101 55.1685 39.5873 55.1428 39.6644 55.1428C39.793 55.1428 39.8958 55.2457 39.8958 55.4257V57.4571L49.0501 48.1742V48.1742Z" fill="#C5E4D0"/>
<path d="M56.8664 24.5429C56.7892 24.5172 56.7121 24.4915 56.6349 24.4915H43.3663C43.2892 24.4915 43.1864 24.5172 43.1349 24.5429C42.9549 24.6457 42.8521 24.8515 42.9549 25.0315L43.0321 25.1343L48.8949 30.6372L48.9206 30.6629L49.6664 31.3572C49.7435 31.4343 49.8721 31.4857 50.0006 31.4857C50.1292 31.4857 50.2321 31.4343 50.3349 31.3572L51.0806 30.6629L51.1064 30.6372L56.9692 25.1343C56.9949 25.1086 57.0206 25.0829 57.0464 25.0315C57.1492 24.8515 57.0721 24.62 56.8664 24.5429V24.5429Z" fill="#564740"/>
<path d="M50.9531 48.1742L52.1617 35.7285C53.4474 37.3999 55.7617 38.8914 59.5674 38.8914C65.4817 38.8914 68.9788 31.1514 77.9017 41.3599L76.076 61.1857L75.9474 62.1371L73.4274 59.5657L73.1188 42.2599L72.7331 42.0028L72.6046 63.7057L69.6217 61.1342L68.2588 59.9514C68.156 54.8857 68.0017 46.1685 68.0017 46.1685L67.5903 45.8857L67.5131 61.8799L65.0703 59.5399L64.916 59.3857L63.4503 57.9714C63.3731 53.8571 63.296 49.9485 63.296 49.9485L62.8846 49.5885L62.8331 57.4057L61.9846 56.5828L60.5703 55.2457C60.4931 55.1685 60.416 55.1428 60.3388 55.1428C60.2103 55.1428 60.1074 55.2457 60.1074 55.4257V57.4571L50.9531 48.1742V48.1742Z" fill="#C5E4D0"/>
<path d="M74.8148 21.2514C74.8148 20.7372 74.8148 20.2486 74.7891 19.76V25.34C74.8148 21.1486 74.8148 21.3543 74.8148 21.2514V21.2514Z" fill="#564740"/>
<path d="M41.4643 19.3742C44.3957 19.3742 42.6471 14.5657 42.6471 14.5657C42.6471 14.5657 42.8785 16.5457 40.6157 16.5457C36.2443 16.5457 36.2443 15.0285 32.7471 15.0285C29.8671 15.0285 28.9414 15.9542 28.9414 15.9542C35.5757 14.36 37.2214 19.3742 41.4643 19.3742V19.3742Z" fill="#AAD9BD"/>
<path d="M53.2664 53.0857L51.6721 51.4915C51.1064 51.5686 50.5664 51.5943 50.0007 51.5943C49.435 51.5943 48.8692 51.5429 48.3292 51.4915L46.735 53.0857L45.7578 60.2343C46.9407 61.2115 48.355 61.6229 49.9492 61.6229H50.0521C51.6721 61.6229 53.0607 61.2115 54.2435 60.2343L53.2664 53.0857V53.0857Z" fill="#C5E4D0"/>
<path d="M52.855 50.1029L52.0579 49.28C51.415 49.9486 50.7208 50.3086 50.0008 50.3086C49.2808 50.3086 48.5865 49.9486 47.9436 49.28L47.1465 50.1029L46.9922 51.26C47.1722 51.3115 47.3265 51.3372 47.5065 51.3629C48.3293 51.5172 49.1522 51.5943 50.0008 51.5943C50.8493 51.5943 51.6979 51.5172 52.495 51.3629C52.675 51.3372 52.855 51.2857 53.0093 51.26L52.855 50.1029Z" fill="#63C199"/>
<path d="M58.5363 19.3742C55.6048 19.3742 57.3534 14.5657 57.3534 14.5657C57.3534 14.5657 57.122 16.5457 59.3848 16.5457C63.7563 16.5457 63.7563 15.0285 67.2534 15.0285C70.1334 15.0285 71.0591 15.9542 71.0591 15.9542C64.4248 14.36 62.7791 19.3742 58.5363 19.3742V19.3742Z" fill="#AAD9BD"/>
</g>
<defs>
<clipPath id="clip0">
<rect width="90" height="90" fill="white" transform="translate(5 5)"/>
</clipPath>
</defs>
</svg>
