<svg viewBox="0 0 382.91 217.52" xmlns="http://www.w3.org/2000/svg"><g fill="#004777"><path d="m27.9 192.9v-3.69h-26.35v4.2h18.64l-20.19 19.56v3.97h28.39v-4.2h-20.68z"/><path d="m39.22 204.63h17.47v-3.96h-17.47v-7.26h18.87v-4.2h-24.94v27.73h25.29v-4.2h-19.22z"/><path d="m85.81 209.63h-.1l-15.82-20.42h-6.41v27.73h5.78v-20.39h.15l15.77 20.39h6.4v-27.73h-5.77z"/><path d="m219.16 527.87-14 27.72h3.55l4.19-8.59h15.77l4.22 8.62h3.54l-13.58-27.72zm-5.24 16.85 6.94-14.21 6.69 14.21z" transform="translate(-110.44 -338.65)"/><path d="m259.25 542.23v-.08c4.46-.7 6.74-3.57 6.74-7.06 0-5-4.8-7.22-10.53-7.22h-15.87v27.72h3.3v-12.31h12.52c6.26-.19 6.65 4.11 7 8 .09 1.17.09 3.23.92 4.32h3.63c-1.45-1.4-1.45-5.21-1.6-7.11-.29-3.31-1.6-5.79-6.11-6.26zm-4-1.2h-12.36v-10.91h12.33c5 0 7.47 2.14 7.47 5.51s-3.44 5.37-7.47 5.37z" transform="translate(-110.44 -338.65)"/><path d="m286.67 553.91c-9.17 0-13.05-6.12-13.05-12.18s3.88-12.2 13.05-12.2c5.05 0 9.47 2.45 10.63 6.72h3.3c-.87-5.82-7.38-9-13.93-9-10.92 0-16.35 6.88-16.35 14.45s5.43 14.44 16.35 14.44c8.11 0 13.49-4.35 14.42-11.14h-3.31c-.63 5-4.7 8.91-11.11 8.91z" transform="translate(-110.44 -338.65)"/><path d="m219.58 201.25h-20.58v-12.04h-3.3v27.73h3.3v-13.44h20.58v13.44h3.3v-27.73h-3.3z"/><path d="m230.11 189.21h3.3v27.72h-3.3z"/><path d="m236.91 191.47h12.08v25.47h3.3v-25.47h12.09v-2.26h-27.47z"/><path d="m270.93 203.73h19.32v-2.25h-19.32v-10.01h20.63v-2.26h-23.93v27.73h24.17v-2.26h-20.87z"/><path d="m421.56 553.91c-9.17 0-13.06-6.12-13.06-12.18s3.89-12.2 13.06-12.2c5 0 9.46 2.45 10.63 6.72h3.3c-.88-5.82-7.38-9-13.93-9-10.92 0-16.36 6.88-16.36 14.45s5.44 14.44 16.36 14.44c8.1 0 13.49-4.35 14.41-11.14h-3.3c-.67 5-4.67 8.91-11.11 8.91z" transform="translate(-110.44 -338.65)"/><path d="m326.85 191.47h12.08v25.47h3.3v-25.47h12.09v-2.26h-27.47z"/><path d="m484.37 541-8.45-1.67c-2.81-.54-5.24-1.63-5.24-4.23 0-4.12 4.17-5.52 8.69-5.52 4.9 0 9.26 2.14 9.46 6.37h3.3c.05-5.67-6-8.62-12.81-8.62-9.76 0-11.94 5.09-11.94 7.81 0 4.31 3.74 5.86 7.81 6.68l7.72 1.51c3.2.62 7.13 1.86 7.13 5 0 4-5.53 5.62-9.17 5.62-6.31 0-11.45-1.74-11.31-7.45h-3.3c-.38 6.76 5.63 9.71 13.83 9.71 12.28 0 13.25-6 13.25-7.92 0-4.58-4.07-6.29-8.97-7.29z" transform="translate(-110.44 -338.65)"/></g><path d="m182.41 103.44 35.55 1.07-16.74-32.53z" fill="#0098d4"/><path d="m105.04 159.67 134.24-33.71-94.28.53 64.71-118.3-2.05-8.19-90.91 46.74 50.94-12.79-66.23 111.47z" fill="#004777"/><path d="m189.26 143.37 96.7 8.32-76.18-106.92 47.82 91.49z" fill="#004777"/></svg>