<svg xmlns="http://www.w3.org/2000/svg" width="275" height="42" fill="none" viewBox="0 0 275 42"><g clip-path="url(#clip0)"><path fill="#fff" d="M58.6101 25.2802C57.0601 25.8902 55.4101 26.1802 53.7401 26.1202C47.7401 26.1202 44.1101 22.3602 44.1101 16.6202C44.1101 10.4102 48.4101 6.6602 54.1901 6.6602C55.7601 6.6002 57.3301 6.8902 58.7801 7.5002L58.0201 10.2402C56.8507 9.74314 55.5907 9.49455 54.3201 9.5102C50.4901 9.5102 47.7201 11.9202 47.7201 16.4602C47.7201 20.6002 50.1601 23.2602 54.3001 23.2602C55.5843 23.279 56.8592 23.041 58.0501 22.5602L58.6101 25.2802ZM60.8501 16.6002C60.8501 14.7502 60.8301 13.4402 60.7501 12.2002H63.7501L63.8501 14.8002H63.9701C64.2105 13.9885 64.6981 13.272 65.3648 12.7504C66.0316 12.2288 66.8444 11.9281 67.6901 11.8902C67.9601 11.8902 68.2401 11.9102 68.5001 11.9702V15.2202C68.1716 15.1485 67.8364 15.1117 67.5001 15.1102C66.7561 15.0902 66.0305 15.3438 65.461 15.823C64.8915 16.3022 64.5176 16.9737 64.4101 17.7102C64.3401 18.0602 64.3101 18.4202 64.3001 18.7802V25.8402H60.8501V16.6002V16.6002ZM83.5101 18.9002C83.5101 23.9002 79.9901 26.1402 76.5101 26.1402C72.6501 26.1402 69.6801 23.4802 69.6801 19.1202C69.6801 14.6402 72.6201 11.8902 76.7401 11.8902C80.8001 11.8902 83.5101 14.7502 83.5101 18.8902V18.9002ZM73.2401 19.0302C73.2401 21.6602 74.5301 23.6502 76.6301 23.6502C78.5901 23.6502 79.9601 21.7202 79.9601 18.9802C79.9601 16.8502 79.0101 14.4102 76.6601 14.4102C74.2201 14.4102 73.2401 16.7602 73.2401 19.0302ZM85.7601 22.6702C86.8301 23.2702 88.0301 23.6102 89.2601 23.6502C90.7701 23.6502 91.4401 23.0402 91.4401 22.1402C91.4401 21.2202 90.8801 20.7402 89.2001 20.1502C86.5401 19.2302 85.4201 17.7702 85.4501 16.1802C85.4501 13.7702 87.4401 11.8902 90.6001 11.8902C91.8536 11.8728 93.0936 12.1503 94.2201 12.7002L93.5401 15.1402C92.6592 14.6466 91.6698 14.3786 90.6601 14.3602C89.4301 14.3602 88.7601 14.9402 88.7601 15.7802C88.7601 16.6502 89.4001 17.0802 91.1401 17.6802C93.6001 18.5802 94.7501 19.8402 94.7801 21.8602C94.7801 24.3202 92.8501 26.1102 89.2401 26.1102C87.7999 26.138 86.3748 25.8118 85.0901 25.1602L85.7601 22.6702ZM96.9801 22.6702C98.0501 23.2702 99.2501 23.6102 100.48 23.6502C101.99 23.6502 102.66 23.0402 102.66 22.1402C102.66 21.2202 102.1 20.7402 100.42 20.1502C97.7601 19.2302 96.6401 17.7702 96.6701 16.1802C96.6701 13.7702 98.6601 11.8902 101.82 11.8902C103.074 11.8728 104.314 12.1503 105.44 12.7002L104.76 15.1402C103.879 14.6466 102.89 14.3786 101.88 14.3602C100.65 14.3602 99.9801 14.9402 99.9801 15.7802C99.9801 16.6502 100.62 17.0802 102.36 17.6802C104.82 18.5802 105.97 19.8402 106 21.8602C106 24.3202 104.07 26.1102 100.45 26.1102C99.0132 26.1363 97.5918 25.8102 96.3101 25.1602L96.9801 22.6702V22.6702ZM110.77 12.2002L112.2 18.3902C112.5 19.8402 112.81 21.3302 113.06 22.8102H113.12C113.4 21.3302 113.85 19.8102 114.24 18.4102L116.01 12.2002H118.81L120.51 18.2402C120.93 19.8402 121.3 21.3202 121.61 22.8102H121.66C121.89 21.3202 122.19 19.8402 122.56 18.2402L124.07 12.2002H127.47L123.17 25.8302H119.98L118.36 20.2902C117.939 18.853 117.595 17.3943 117.33 15.9202H117.27C117.01 17.4002 116.67 18.8502 116.23 20.2902L114.5 25.8302H111.28L107.24 12.2002H110.77V12.2002ZM142.07 18.9002C142.07 23.9002 138.54 26.1402 135.07 26.1402C131.21 26.1402 128.24 23.4802 128.24 19.1202C128.24 14.6402 131.18 11.8902 135.3 11.8902C139.36 11.8902 142.07 14.7502 142.07 18.8902V18.9002ZM131.8 19.0302C131.8 21.6602 133.08 23.6502 135.18 23.6502C137.15 23.6502 138.52 21.7202 138.52 18.9802C138.52 16.8502 137.56 14.4102 135.22 14.4102C132.78 14.4102 131.8 16.7602 131.8 19.0302ZM144.62 16.6002C144.62 14.7502 144.59 13.4402 144.5 12.2002H147.5L147.62 14.8002H147.72C147.961 13.987 148.45 13.2693 149.119 12.7476C149.788 12.2259 150.603 11.9261 151.45 11.8902C151.72 11.8902 152 11.9102 152.26 11.9702V15.2202C151.932 15.1485 151.596 15.1117 151.26 15.1102C150.518 15.0926 149.795 15.3474 149.227 15.8264C148.66 16.3053 148.287 16.9754 148.18 17.7102C148.11 18.0602 148.07 18.4102 148.06 18.7702V25.8302H144.62V16.6002V16.6002ZM166.91 5.9602V22.0002C166.91 23.4002 166.97 24.9102 167.03 25.8402H163.95L163.81 23.6802H163.75C163.304 24.4581 162.654 25.0988 161.869 25.5326C161.085 25.9663 160.196 26.1765 159.3 26.1402C156.05 26.1402 153.47 23.3702 153.47 19.1702C153.45 14.6102 156.3 11.8902 159.57 11.8902C161.07 11.7902 162.53 12.4602 163.41 13.6902H163.47V5.9502H166.91V5.9602ZM163.47 17.8802C163.47 17.5802 163.44 17.2802 163.38 16.9802C163.244 16.2954 162.874 15.6791 162.335 15.236C161.795 14.793 161.118 14.5506 160.42 14.5502C158.21 14.5502 156.97 16.5102 156.97 19.0502C156.97 21.5502 158.21 23.3702 160.39 23.3702C161.09 23.3678 161.769 23.1237 162.31 22.6792C162.851 22.2346 163.222 21.6168 163.36 20.9302C163.44 20.6002 163.48 20.2602 163.46 19.9302V17.8802H163.47ZM170.14 22.6702C171.21 23.2702 172.41 23.6102 173.64 23.6502C175.16 23.6502 175.83 23.0402 175.83 22.1402C175.83 21.2202 175.27 20.7402 173.59 20.1502C170.93 19.2302 169.81 17.7702 169.83 16.1802C169.83 13.7702 171.83 11.8902 174.99 11.8902C176.237 11.876 177.47 12.1534 178.59 12.7002L177.93 15.1402C177.046 14.645 176.053 14.377 175.04 14.3602C173.81 14.3602 173.14 14.9402 173.14 15.7802C173.14 16.6502 173.79 17.0802 175.52 17.6802C177.99 18.5802 179.13 19.8402 179.16 21.8602C179.16 24.3202 177.23 26.1102 173.62 26.1102C172.18 26.138 170.755 25.8118 169.47 25.1602L170.14 22.6702V22.6702ZM194.72 18.9002C194.72 23.9002 191.2 26.1402 187.72 26.1402C183.86 26.1402 180.89 23.4802 180.89 19.1202C180.89 14.6402 183.83 11.8902 187.95 11.8902C192.01 11.8902 194.72 14.7502 194.72 18.8902V18.9002ZM184.45 19.0302C184.45 21.6602 185.74 23.6502 187.84 23.6502C189.79 23.6502 191.17 21.7202 191.17 18.9802C191.17 16.8502 190.22 14.4102 187.87 14.4102C185.43 14.4102 184.45 16.7602 184.45 19.0302ZM197.34 5.9602H200.81V25.8402H197.34V5.9602ZM206.45 12.2002L208.65 19.1202C209.05 20.3202 209.33 21.4202 209.58 22.5302H209.67C209.92 21.4102 210.23 20.3502 210.59 19.1202L212.75 12.2002H216.39L211.18 25.8402H207.79L202.72 12.2002H206.45V12.2002ZM220.22 19.9802C220.3 22.4502 222.24 23.5102 224.42 23.5102C225.71 23.5502 226.99 23.3402 228.2 22.9002L228.7 25.2802C227.18 25.8502 225.56 26.1402 223.94 26.1202C219.51 26.1202 216.91 23.4002 216.91 19.2202C216.91 15.4502 219.21 11.8902 223.57 11.8902C228 11.8902 229.46 15.5302 229.46 18.5302C229.46 19.0202 229.42 19.5002 229.34 19.9802H220.22V19.9802ZM226.22 17.5802C226.24 16.3202 225.68 14.2402 223.38 14.2402C221.25 14.2402 220.36 16.1802 220.22 17.5802H226.22ZM232.03 16.6002C232.03 14.7502 232 13.4402 231.91 12.2002H234.91L235.03 14.8002H235.13C235.371 13.987 235.86 13.2693 236.529 12.7476C237.198 12.2259 238.013 11.9261 238.86 11.8902C239.13 11.8902 239.41 11.9102 239.67 11.9702V15.2202C239.342 15.1485 239.006 15.1117 238.67 15.1102C237.928 15.0926 237.205 15.3474 236.637 15.8264C236.07 16.3053 235.697 16.9754 235.59 17.7102C235.52 18.0602 235.48 18.4102 235.47 18.7702V25.8302H232.03V16.6002V16.6002ZM239.27 24.6102C239.26 24.4254 239.289 24.2406 239.354 24.0673C239.419 23.894 239.518 23.7358 239.647 23.6027C239.775 23.4695 239.93 23.3642 240.101 23.2932C240.271 23.2223 240.455 23.1872 240.64 23.1902C241.017 23.1902 241.378 23.3398 241.644 23.6061C241.91 23.8724 242.06 24.2336 242.06 24.6102C242.06 24.9868 241.91 25.348 241.644 25.6143C241.378 25.8806 241.017 26.0302 240.64 26.0302C240.455 26.0332 240.271 25.9981 240.101 25.9272C239.93 25.8562 239.775 25.7509 239.647 25.6177C239.518 25.4845 239.419 25.3264 239.354 25.1531C239.289 24.9798 239.26 24.795 239.27 24.6102Z"/><path fill="#F18F0B" d="M250.07 25.5699C249.28 25.8699 248.44 26.0299 247.59 26.0199C246.989 26.0655 246.385 25.9816 245.82 25.7738C245.254 25.566 244.739 25.2392 244.311 24.8154C243.882 24.3916 243.55 23.8808 243.336 23.3174C243.122 22.754 243.031 22.1513 243.07 21.5499C243.049 20.9123 243.162 20.2773 243.402 19.6864C243.642 19.0954 244.005 18.5618 244.465 18.1202C244.926 17.6787 245.474 17.3391 246.074 17.1236C246.675 16.9082 247.314 16.8217 247.95 16.8699C248.68 16.8699 249.41 16.9999 250.09 17.2799L249.69 18.9399C249.162 18.703 248.588 18.5869 248.01 18.5999C247.642 18.5901 247.275 18.6582 246.935 18.7997C246.595 18.9411 246.288 19.1528 246.035 19.4208C245.782 19.6888 245.589 20.0072 245.467 20.3551C245.346 20.703 245.299 21.0727 245.33 21.4399C245.297 21.807 245.343 22.1769 245.464 22.525C245.585 22.8732 245.778 23.1916 246.032 23.4592C246.285 23.7268 246.593 23.9375 246.934 24.0773C247.275 24.217 247.642 24.2827 248.01 24.2699C248.61 24.2699 249.21 24.1699 249.76 23.9299L250.07 25.5699V25.5699ZM259.73 21.3699C259.776 21.9799 259.692 22.5926 259.484 23.1679C259.276 23.7432 258.949 24.2681 258.524 24.7081C258.099 25.1481 257.586 25.4933 257.018 25.7211C256.451 25.9489 255.841 26.0541 255.23 26.0299C254.636 26.0537 254.043 25.9521 253.49 25.7317C252.937 25.5113 252.437 25.1771 252.022 24.7508C251.607 24.3245 251.287 23.8156 251.081 23.2572C250.876 22.6989 250.79 22.1035 250.83 21.5099C250.785 20.8967 250.871 20.2811 251.083 19.7038C251.294 19.1266 251.626 18.601 252.057 18.162C252.487 17.7231 253.006 17.3808 253.579 17.158C254.152 16.9352 254.766 16.837 255.38 16.8699C255.97 16.8472 256.559 16.9494 257.107 17.1695C257.655 17.3897 258.15 17.723 258.561 18.1477C258.971 18.5724 259.288 19.0788 259.489 19.6341C259.691 20.1893 259.773 20.7808 259.73 21.3699V21.3699ZM253.13 21.4699C253.13 23.1499 253.95 24.4299 255.3 24.4299C256.56 24.4299 257.45 23.1899 257.45 21.4299C257.45 20.0599 256.83 18.4899 255.32 18.4899C253.75 18.4899 253.12 19.9999 253.12 21.4599L253.13 21.4699ZM261.42 19.6799C261.42 18.6699 261.4 17.8199 261.34 17.0699H263.25L263.35 18.3699H263.4C263.675 17.9014 264.071 17.5152 264.545 17.2514C265.02 16.9876 265.557 16.8559 266.1 16.8699C266.623 16.8556 267.137 17.0037 267.572 17.2938C268.008 17.584 268.342 18.0018 268.53 18.4899H268.56C268.83 18.0499 269.2 17.6699 269.64 17.3899C270.158 17.0298 270.779 16.8474 271.41 16.8699C272.87 16.8699 274.34 17.8699 274.34 20.6699V25.8399H272.18V20.9899C272.18 19.5299 271.68 18.6699 270.62 18.6699C269.91 18.6999 269.29 19.1699 269.07 19.8399C269 20.0799 268.97 20.3299 268.96 20.5799V25.8399H266.8V20.7599C266.8 19.5299 266.31 18.6699 265.29 18.6699C264.54 18.6999 263.9 19.2099 263.7 19.9299C263.614 20.1599 263.573 20.4044 263.58 20.6499V25.8399H261.42V19.6799V19.6799Z"/><path fill="#F7A226" d="M9.8501 20.7998L10.1901 21.1298H9.8501V20.7998Z"/><path fill="#F7A327" d="M9.8501 20.3301L10.6501 21.1301H10.1901L9.8501 20.8001V20.3301Z"/><path fill="#F7A328" d="M9.8501 19.8599L11.1201 21.1299H10.6501L9.8501 20.3299V19.8599Z"/><path fill="#F7A429" d="M9.8501 19.3999L11.5901 21.1299H11.1201L9.8501 19.8599V19.3999Z"/><path fill="#F7A42A" d="M9.8501 18.9302L12.0501 21.1302H11.5901L9.8501 19.4002V18.9302Z"/><path fill="#F7A42B" d="M9.8501 18.4702L12.5201 21.1302H12.0501L9.8501 18.9302V18.4702Z"/><path fill="#F8A52C" d="M9.8501 18L12.9801 21.13H12.5201L9.8501 18.47V18Z"/><path fill="#F8A52D" d="M9.8501 17.54L13.4501 21.14H12.9801L9.8501 18V17.54Z"/><path fill="#F8A62E" d="M9.8501 17.0698L13.9101 21.1298H13.4501L9.8501 17.5298V17.0698Z"/><path fill="#F8A62F" d="M9.8501 16.6001L14.3801 21.1301H13.9101L9.8501 17.0701V16.6001Z"/><path fill="#F8A730" d="M9.8501 16.1401L14.8501 21.1401H14.3801L9.8501 16.6001V16.1401Z"/><path fill="#F8A731" d="M9.8501 15.6802L15.3101 21.1302H14.8401L9.8501 16.1402V15.6802Z"/><path fill="#F8A832" d="M9.8501 15.21L15.7701 21.13H15.3101L9.8501 15.68V15.21Z"/><path fill="#F8A833" d="M9.8501 14.7402L16.2401 21.1402H15.7701L9.8501 15.2002V14.7402Z"/><path fill="#F8A934" d="M9.8501 14.2798L16.7001 21.1298H16.2401L9.8501 14.7398V14.2798Z"/><path fill="#F8A935" d="M9.8501 13.8101L17.1701 21.1301H16.7001L9.8501 14.2801V13.8101Z"/><path fill="#F8AA36" d="M9.8501 13.3501L17.6401 21.1301H17.1701L9.8501 13.8101V13.3501Z"/><path fill="#F8AA37" d="M9.8501 12.8799L18.1001 21.1299H17.6401L9.8501 13.3499V12.8799Z"/><path fill="#F9AB38" d="M9.8501 12.4199L18.5701 21.1299H18.1001L9.8501 12.8799V12.4199Z"/><path fill="#F9AB39" d="M9.8501 11.9502L19.0301 21.1302H18.5701L9.8501 12.4202V11.9502Z"/><path fill="#F9AC3A" d="M9.8501 11.4902L19.5001 21.1302H19.0301L9.8501 11.9502V11.4902Z"/><path fill="#F9AC3B" d="M9.8501 11.02L19.8101 20.98L19.6501 21.13H19.5001L9.8501 11.5V11.02Z"/><path fill="#F9AD3C" d="M9.8501 10.5498L20.0501 20.7498L19.8101 20.9798L9.8501 11.0198V10.5498Z"/><path fill="#F9AD3D" d="M9.8501 10.0898L20.2701 20.5098L20.0401 20.7498L9.8501 10.5498V10.0898Z"/><path fill="#F9AE3F" d="M9.8501 9.62988L20.5101 20.2799L20.2701 20.5099L9.8501 10.0999V9.62988Z"/><path fill="#F9AE40" d="M9.8501 9.16016L20.7401 20.0502L20.5101 20.2802L9.8501 9.62016V9.16016Z"/><path fill="#F9AE41" d="M9.8501 8.7002L20.9701 19.8202L20.7401 20.0502L9.8501 9.1502V8.7002Z"/><path fill="#F9AF42" d="M9.8501 8.22998L21.2001 19.58L20.9701 19.82L9.8501 8.68998V8.22998Z"/><path fill="#F9AF43" d="M9.8501 7.75977L21.4401 19.3498L21.2001 19.5798L9.8501 8.22976V7.75977Z"/><path fill="#F9B044" d="M9.8501 7.2998L21.6701 19.1198L21.4401 19.3498L9.8501 7.7598V7.2998Z"/><path fill="#F9B045" d="M9.8501 6.83008L21.9001 18.8801L21.6701 19.1201L9.8501 7.30008V6.83008Z"/><path fill="#FAB146" d="M9.8501 6.37012L22.1401 18.6501L21.9001 18.8801L9.8501 6.83012V6.37012Z"/><path fill="#FAB147" d="M9.9501 6L22.1501 18.2V18.64L22.1401 18.65L9.8501 6.37V6H9.9501Z"/><path fill="#FAB248" d="M10.41 6L22.14 17.73V18.2L9.94995 6H10.41Z"/><path fill="#FAB249" d="M10.8799 6L22.1399 17.27V17.73L10.4099 6H10.8799Z"/><path fill="#FAB34A" d="M11.3399 6L22.1399 16.8V17.26L10.8799 6H11.3399Z"/><path fill="#FAB34B" d="M11.8001 6L22.1401 16.33V16.8L11.3401 6H11.8001Z"/><path fill="#FAB44C" d="M12.27 6L22.15 15.87V16.33L11.8 6H12.27Z"/><path fill="#FAB44D" d="M12.74 6L22.14 15.4V15.87L12.28 6H12.74Z"/><path fill="#FAB54E" d="M13.2 6L22.15 14.94V15.4L12.73 6H13.2Z"/><path fill="#FAB54F" d="M13.67 6L22.14 14.47V14.94L13.2 6H13.67Z"/><path fill="#FAB650" d="M14.1399 6L22.1399 14V14.47L13.6699 6H14.1399Z"/><path fill="#FAB651" d="M14.5999 6L22.1399 13.54V14.01L14.1399 6H14.5999Z"/><path fill="#FBB752" d="M15.0701 6L22.1401 13.08V13.54L14.6001 6H15.0701Z"/><path fill="#FBB753" d="M15.5301 6L22.1501 12.61V13.08L15.0601 6H15.5301Z"/><path fill="#FBB754" d="M16 6L22.14 12.14V12.61L15.54 6H16Z"/><path fill="#FBB855" d="M16.46 6L22.14 11.68V12.14L16 6H16.46Z"/><path fill="#FBB856" d="M16.93 6L22.14 11.21V11.68L16.46 6H16.93Z"/><path fill="#FBB957" d="M17.3999 6L22.1499 10.75V11.21L16.9299 6H17.3999Z"/><path fill="#FBB958" d="M17.8599 6L22.1499 10.28V10.75L17.3799 6H17.8599Z"/><path fill="#FBBA59" d="M18.3201 6L22.1401 9.82V10.28L17.8601 6H18.3201Z"/><path fill="#FBBA5A" d="M18.7901 6L22.1501 9.35V9.82L18.3201 6H18.7901Z"/><path fill="#FBBB5B" d="M19.26 6L22.14 8.89V9.35L18.8 6H19.26Z"/><path fill="#FBBB5C" d="M19.72 6.00023L22.15 8.42023V8.89023L19.25 5.99023L19.72 6.00023Z"/><path fill="#FBBC5D" d="M20.19 6L22.14 7.96V8.42L19.73 6H20.19Z"/><path fill="#FCBC5E" d="M20.6499 6L22.1499 7.5V7.96L20.1799 6H20.6499Z"/><path fill="#FCBD5F" d="M21.1199 6L22.1399 7.03V7.49L20.6599 6H21.1199Z"/><path fill="#FCBD60" d="M21.5801 6L22.1501 6.56V7.03L21.1101 6H21.5801Z"/><path fill="#FCBE61" d="M22.0501 6L22.1501 6.1V6.56L21.5701 6H22.0501Z"/><path fill="#FCBE62" d="M22.14 6.1L22.04 6H22.14V6.1Z"/><path fill="#F7A225" d="M14.3501 25.7598L14.4301 25.8398H14.3501V25.7598Z"/><path fill="#F7A226" d="M14.3501 25.29L14.8901 25.84H14.4301L14.3501 25.76V25.29Z"/><path fill="#F7A327" d="M14.3501 24.8198L15.3501 25.8398H14.8901L14.3501 25.2898V24.8198Z"/><path fill="#F7A328" d="M14.3501 24.3599L15.8201 25.8399H15.3601L14.3501 24.8199V24.3599Z"/><path fill="#F7A429" d="M14.3501 23.8999L16.2901 25.8399H15.8201L14.3501 24.3599V23.8999Z"/><path fill="#F7A42A" d="M14.3501 23.4302L16.7501 25.8302H16.2901L14.3501 23.8902V23.4302Z"/><path fill="#F7A42B" d="M14.3501 22.96L17.2201 25.84H16.7501L14.3501 23.43V22.96Z"/><path fill="#F8A52C" d="M14.3801 22.5298L17.6501 25.7998V25.8398H17.2201L14.3501 22.9598V22.5298H14.3801Z"/><path fill="#F8A52D" d="M14.8499 22.5298L17.6499 25.3298V25.7998L14.3799 22.5298H14.8499Z"/><path fill="#F8A62E" d="M15.3101 22.5298L17.6501 24.8698V25.3298L14.8501 22.5298H15.3101Z"/><path fill="#F8A62F" d="M15.7801 22.5298L17.6501 24.3998V24.8698L15.3101 22.5298H15.7801Z"/><path fill="#F8A730" d="M16.24 22.5298L17.64 23.9298V24.3998L15.78 22.5298H16.24Z"/><path fill="#F8A731" d="M16.7 22.5298L17.65 23.4698V23.9398L16.25 22.5398L16.7 22.5298Z"/><path fill="#F8A832" d="M17.18 22.5298L17.65 23.0098V23.4698L16.71 22.5298H17.18Z"/><path fill="#F8A833" d="M17.6399 22.5298V23.0098L17.1799 22.5298H17.6399Z"/><path fill="#F49000" d="M0 29.0999L12.9 41.9999H0V29.0999ZM0 28.6299L13.37 41.9999H12.91L0 29.0999V28.6299Z"/><path fill="#F49001" d="M0 28.1602L13.84 42.0002H13.37L0 28.6302V28.1602Z"/><path fill="#F49102" d="M0 27.7002L14.3 42.0002H13.84L0 28.1602V27.7002Z"/><path fill="#F49103" d="M0 27.23L14.77 42H14.3L0 27.7V27.23Z"/><path fill="#F49204" d="M0 26.77L15.23 42H14.77L0 27.23V26.77Z"/><path fill="#F49205" d="M0 26.2998L15.7 41.9998H15.23L0 26.7698V26.2998Z"/><path fill="#F49306" d="M0 25.8398L16.16 41.9998H15.7L0 26.2998V25.8398Z"/><path fill="#F59307" d="M0 25.3701L16.63 42.0001H16.16L0 25.8401V25.3701Z"/><path fill="#F59408" d="M0 24.8999L17.1 41.9999H16.63L0 25.3699V24.8999Z"/><path fill="#F59409" d="M0 24.4399L17.56 41.9999H17.09L0 24.8999V24.4399Z"/><path fill="#F5950A" d="M0 23.98L18.02 42H17.56L0 24.44V23.98Z"/><path fill="#F5950B" d="M0 23.5098L18.49 42.0098H18.03L0 23.9698V23.5098Z"/><path fill="#F5960C" d="M0 23.0498L18.96 41.9998H18.49L0 23.5098V23.0498Z"/><path fill="#F5960D" d="M0 22.5801L19.42 42.0001H18.96L0 23.0501V22.5801Z"/><path fill="#F5970E" d="M0 22.1099L19.89 42.0099H19.42L0 22.5699V22.1099Z"/><path fill="#F5970F" d="M0 21.6499L20.35 41.9999H19.89L0 22.1099V21.6499Z"/><path fill="#F59810" d="M0 21.1802L20.82 42.0002H20.35L0 21.6502V21.1802Z"/><path fill="#F59811" d="M0 20.7202L21.28 42.0002H20.82L0 21.1802V20.7202Z"/><path fill="#F59912" d="M0 20.25L21.75 42H21.28L0 20.72V20.25Z"/><path fill="#F69913" d="M0 19.79L22.21 42H21.75L0 20.25V19.79Z"/><path fill="#F69A14" d="M0 19.3198L22.68 41.9998H22.21L0 19.7998V19.3198Z"/><path fill="#F69A15" d="M0 18.8599L23.14 41.9999H22.68L0 19.3199V18.8599Z"/><path fill="#F69A16" d="M0 18.3999L23.61 41.9999H23.14L0 18.8599V18.3999Z"/><path fill="#F69B17" d="M0 17.9302L24.07 42.0002H23.61L0 18.4002V17.9302Z"/><path fill="#F69B18" d="M0 17.46L24.54 42H24.08L0 17.93V17.46Z"/><path fill="#F69C19" d="M0 17L25 42H24.54L0 17.46V17Z"/><path fill="#F69C1A" d="M0 16.5298L25.47 41.9998H25.01L0 16.9998V16.5298Z"/><path fill="#F69D1B" d="M0 16.0601L25.94 42.0001H25.47L0 16.5301V16.0601Z"/><path fill="#F69D1C" d="M0 15.6001L26.4 42.0001H25.94L0 16.0601V15.6001Z"/><path fill="#F69E1D" d="M0 15.1299L26.85 41.9799L26.83 41.9999H26.4L0 15.5999V15.1299Z"/><path fill="#F69E1E" d="M0 14.6699L27.08 41.7499L26.85 41.9799L0 15.1299V14.6699Z"/><path fill="#F79F1F" d="M0 14.2002L27.31 41.5202L27.08 41.7502L0 14.6702V14.2002Z"/><path fill="#F79F20" d="M0 13.7402L27.55 41.2802L27.31 41.5202L0 14.2002V13.7402Z"/><path fill="#F7A021" d="M0 13.27L27.78 41.05L27.55 41.28L0 13.74V13.27Z"/><path fill="#F7A022" d="M0 12.7998L28.01 40.8198L27.78 41.0498L0 13.2698V12.7998Z"/><path fill="#F7A123" d="M0 12.3398L28.24 40.5898L28.01 40.8198L0 12.7998V12.3398Z"/><path fill="#F7A124" d="M0 11.8799L28.48 40.3499L28.24 40.5799L0 12.3499V11.8799Z"/><path fill="#F7A225" d="M0 11.4102L28.71 40.1102L28.48 40.3502L0 11.8702V11.4102Z"/><path fill="#F7A226" d="M0 10.9399L28.94 39.8999L28.71 40.1299L0 11.3999V10.9399Z"/><path fill="#F7A327" d="M0 10.48L29.18 39.65L28.94 39.89L0 10.94V10.48Z"/><path fill="#F7A328" d="M0 10.0098L29.4 39.4198L29.18 39.6498L0 10.4798V10.0098Z"/><path fill="#F7A429" d="M0 9.5498L29.64 39.1898L29.41 39.4198L0 10.0198V9.5498Z"/><path fill="#F7A42A" d="M0 9.08008L29.87 38.9601L29.64 39.1901L0 9.55008V9.08008Z"/><path fill="#F7A42B" d="M0 8.62012L30.1 38.7201L29.87 38.9601L0 9.08012V8.62012Z"/><path fill="#F8A52C" d="M0 8.1499L30.34 38.4999L30.11 38.7299L0 8.6199V8.1499Z"/><path fill="#F8A52D" d="M0 7.68994L30.57 38.2599L30.34 38.4899L0 8.14994V7.68994Z"/><path fill="#F8A62E" d="M0 7.22021L30.8 38.0202L30.57 38.2602L0 7.69022V7.22021Z"/><path fill="#F8A62F" d="M0 6.75L31.04 37.8L30.8 38.03L0 7.22V6.75Z"/><path fill="#F8A730" d="M0 6.29004L31.27 37.56L31.04 37.79L0 6.75004V6.29004Z"/><path fill="#F8A731" d="M0 5.83008L31.5 37.3301L31.27 37.5601L0 6.29008V5.83008Z"/><path fill="#F8A832" d="M0 5.35986L31.73 37.0899L31.5 37.3299L0 5.82986V5.35986Z"/><path fill="#F8A833" d="M0 4.8999L31.97 36.8599L31.74 37.0899L0 5.3599V4.8999Z"/><path fill="#F8A934" d="M0 4.43018L32 36.4302V36.8302L31.97 36.8602L0 4.90018V4.43018Z"/><path fill="#F8A935" d="M0 3.95996L32 35.96V36.42L0 4.41996V3.95996Z"/><path fill="#F8AA36" d="M0 3.5L32 35.5V35.96L0 3.96V3.5Z"/><path fill="#F8AA37" d="M0 3.02979L32 35.0298V35.4898L0 3.49979V3.02979Z"/><path fill="#F9AB38" d="M0 2.56982L32 34.5698V35.0298L0 3.02982V2.56982Z"/><path fill="#F9AB39" d="M0 2.1001L32 34.1001V34.5601L0 2.5601V2.1001Z"/><path fill="#F9AC3A" d="M0 1.64014L32 33.6401V34.1001L0 2.10014V1.64014Z"/><path fill="#F9AC3B" d="M0 1.16992L32 33.1699V33.6299L0 1.62992V1.16992Z"/><path fill="#F9AD3C" d="M0 0.700195L32 32.7002V33.1602L0 1.1802V0.700195Z"/><path fill="#F9AD3D" d="M0 0.240234L32 32.2402V32.7002L0 0.700234V0.240234Z"/><path fill="#F9AE3F" d="M0.23 0L32 31.77V32.23L0 0.25V0H0.23Z"/><path fill="#F9AE40" d="M0.69998 0L32 31.3V31.77L0.22998 0H0.69998Z"/><path fill="#F9AE41" d="M1.15995 0L32 30.84V31.3L0.699951 0H1.15995Z"/><path fill="#F9AF42" d="M1.61991 0L31.9999 30.37V30.84L1.15991 0H1.61991Z"/><path fill="#F9AF43" d="M2.08988 0L31.9899 29.9V30.37L1.62988 0H2.08988Z"/><path fill="#F9B044" d="M2.55009 0L32.0001 29.44V29.91L2.09009 0H2.55009Z"/><path fill="#F9B045" d="M3.02005 0L32 28.98V29.44L2.55005 0H3.02005Z"/><path fill="#FAB146" d="M3.48002 0L32 28.51V28.98L3.02002 0H3.48002Z"/><path fill="#FAB147" d="M3.95 0L31.99 28.05V28.51L3.5 0H3.95Z"/><path fill="#FAB248" d="M4.41995 0L32 27.58V28.05L3.94995 0H4.41995Z"/><path fill="#FAB249" d="M4.8799 0L31.9999 27.11V27.58L4.3999 0H4.8799Z"/><path fill="#FAB34A" d="M5.33988 0L31.9999 26.65V27.11L4.87988 0H5.33988Z"/><path fill="#FAB34B" d="M5.81009 0L32.0001 26.18V26.65L5.34009 0H5.81009Z"/><path fill="#FAB44C" d="M6.28007 0L31.9901 25.72V26.18L5.82007 0H6.28007Z"/><path fill="#FAB44D" d="M6.74004 0L32 25.25V25.72L6.29004 0H6.74004Z"/><path fill="#FAB54E" d="M7.19998 0L32 24.79V25.25L6.72998 0H7.19998Z"/><path fill="#FAB54F" d="M7.66995 0L32 24.32V24.79L7.19995 0H7.66995Z"/><path fill="#FAB650" d="M8.13993 0L31.9899 23.86V24.32L7.67993 0H8.13993Z"/><path fill="#FAB651" d="M8.59989 0L31.9999 23.4V23.86L8.13989 0H8.59989Z"/><path fill="#FBB752" d="M9.0701 0L32.0001 22.93V23.39L8.6001 0H9.0701Z"/><path fill="#FBB753" d="M9.53007 0L32.0001 22.46V22.93L9.07007 0H9.53007Z"/><path fill="#FBB754" d="M10 0L32 22V22.46L9.53003 0H10Z"/><path fill="#FBB855" d="M10.46 0L32 21.53V21.99L10 0H10.46Z"/><path fill="#FBB856" d="M10.93 0L32 21.07V21.53L10.48 0H10.93Z"/><path fill="#FBB957" d="M11.3999 0L31.9999 20.6V21.06L10.9299 0H11.3999Z"/><path fill="#FBB958" d="M11.8599 0L31.9999 20.13V20.6L11.3999 0H11.8599Z"/><path fill="#FBBA59" d="M12.3301 0L31.9901 19.67V20.13L11.8701 0H12.3301Z"/><path fill="#FBBA5A" d="M12.8001 0L32.0001 19.2V19.67L12.3201 0H12.8001Z"/><path fill="#FBBB5B" d="M13.26 0L31.99 18.74V19.2L12.8 0H13.26Z"/><path fill="#FBBB5C" d="M13.72 0L32 18.27V18.74L13.27 0H13.72Z"/><path fill="#FBBC5D" d="M14.19 0L31.99 17.8V18.27L13.73 0H14.19Z"/><path fill="#FCBC5E" d="M14.65 0L32 17.34V17.81L14.2 0H14.65Z"/><path fill="#FCBD5F" d="M15.1199 0L31.9999 16.88V17.34L14.6399 0H15.1199Z"/><path fill="#FCBD60" d="M15.5899 0L31.9899 16.41V16.88L15.1299 0H15.5899Z"/><path fill="#FCBE61" d="M16.0501 0L32.0001 15.95V16.41L15.5901 0H16.0501Z"/><path fill="#FCBE62" d="M16.5201 0L32 15.48V15.94L16.05 0H16.5201Z"/><path fill="#FCBF63" d="M16.98 0L32 15.01V15.48L16.52 0H16.98Z"/><path fill="#FCBF64" d="M17.45 0L32 14.55V15L16.98 0H17.45Z"/><path fill="#FCC065" d="M17.91 0L32 14.08V14.55L17.45 0H17.91Z"/><path fill="#FCC066" d="M18.3799 0L31.9999 13.62V14.08L17.8999 0H18.3799Z"/><path fill="#FCC167" d="M18.8399 0L31.9999 13.15V13.62L18.3799 0H18.8399Z"/><path fill="#FCC168" d="M19.3001 0L32.0001 12.69V13.15L18.8401 0H19.3001Z"/><path fill="#FCC169" d="M19.7701 0L32 12.22V12.69L19.3 0H19.7701Z"/><path fill="#FCC26A" d="M20.24 0L32 11.76V12.22L19.77 0H20.24Z"/><path fill="#FDC26B" d="M20.7 0L32 11.3V11.76L20.23 0H20.7Z"/><path fill="#FDC36C" d="M21.17 0L31.99 10.82V11.29L20.7 0H21.17Z"/><path fill="#FDC36D" d="M21.6399 0L31.9999 10.36V10.82L21.1599 0H21.6399Z"/><path fill="#FDC46E" d="M22.0999 0L31.9999 9.9V10.36L21.6399 0H22.0999Z"/><path fill="#FDC46F" d="M22.5701 0L32.0001 9.43V9.89L22.1001 0H22.5701Z"/><path fill="#FDC570" d="M23.0301 0L32.0001 8.96V9.43L22.5801 0H23.0301Z"/><path fill="#FDC571" d="M23.5 0L32 8.5V8.96L23.02 0H23.5Z"/><path fill="#FDC672" d="M23.96 0L32 8.03V8.5L23.5 0H23.96Z"/><path fill="#FDC673" d="M24.43 0L32 7.57V8.03L23.96 0H24.43Z"/><path fill="#FDC774" d="M24.8999 0L31.9999 7.1V7.57L24.4299 0H24.8999Z"/><path fill="#FDC775" d="M25.3599 0L31.9999 6.64V7.1L24.8999 0H25.3599Z"/><path fill="#FDC876" d="M25.8201 0L32.0001 6.17V6.64L25.3601 0H25.8201Z"/><path fill="#FEC877" d="M26.2901 0L31.9901 5.7V6.17L25.8301 0H26.2901Z"/><path fill="#FEC978" d="M26.75 0L32 5.24V5.71L26.29 0H26.75Z"/><path fill="#FEC979" d="M27.22 0L32 4.78V5.24L26.75 0H27.22Z"/><path fill="#FECA7A" d="M27.69 0L31.99 4.3V4.78L27.23 0H27.69Z"/><path fill="#FECA7B" d="M28.1499 0L31.9999 3.84V4.31L27.6899 0H28.1499Z"/><path fill="#FECB7C" d="M28.6199 0L31.9999 3.38V3.84L28.1399 0H28.6199Z"/><path fill="#FECB7D" d="M29.0801 0L32.0001 2.91V3.38L28.6201 0H29.0801Z"/><path fill="#FECB7D" d="M32.0001 2.91L29.0801 0H32.0001V2.91Z"/><path fill="#F49000" d="M3 32.1001L6.13 35.2201H3V32.1001Z"/><path fill="#F49000" d="M3 31.6299L6.6 35.2299H6.13L3 32.0999V31.6299Z"/><path fill="#F49001" d="M3 31.1602L7.06 35.2202H6.59L3 31.6302V31.1602Z"/><path fill="#F49102" d="M3 30.7002L7.52 35.2202H7.06L3 31.1702V30.7002Z"/><path fill="#F49103" d="M3 30.23L7.99 35.23H7.52L3 30.7V30.23Z"/><path fill="#F49204" d="M3 29.77L8.46 35.22H7.99L3 30.23V29.77Z"/><path fill="#F49205" d="M3 29.2998L8.92 35.2198H8.46L3 29.7698V29.2998Z"/><path fill="#F49306" d="M3 28.8398L9.38 35.2198H8.92L3 29.2998V28.8398Z"/><path fill="#F59307" d="M3 28.3701L9.85 35.2201H9.4L3 28.8401V28.3701Z"/><path fill="#F59408" d="M3 27.8999L10.32 35.2199H9.85L3 28.3699V27.8999Z"/><path fill="#F59409" d="M3 27.4399L10.78 35.2199H10.32L3 27.9099V27.4399Z"/><path fill="#F5950A" d="M3 26.98L11.25 35.22H10.78L3 27.44V26.98Z"/><path fill="#F5950B" d="M3 26.5098L11.71 35.2198H11.25L3 26.9798V26.5098Z"/><path fill="#F5960C" d="M3 26.0498L12.18 35.2198H11.71L3 26.5198V26.0498Z"/><path fill="#F5960D" d="M3 25.5801L12.64 35.2201H12.18L3 26.0501V25.5801Z"/><path fill="#F5970E" d="M3 25.1099L13.1 35.2199H12.64L3 25.5799V25.1099Z"/><path fill="#F5970F" d="M3 24.6499L13.57 35.2199H13.11L3 25.1199V24.6499Z"/><path fill="#F59810" d="M3 24.1802L14.04 35.2202H13.57L3 24.6502V24.1802Z"/><path fill="#F59811" d="M3 23.7202L14.5 35.2202H14.04L3 24.1802V23.7202Z"/><path fill="#F59912" d="M3 23.25L14.97 35.22H14.51L3 23.72V23.25Z"/><path fill="#F69913" d="M3 22.79L15.44 35.22H14.97L3 23.25V22.79Z"/><path fill="#F69A14" d="M3 22.3198L15.9 35.2198H15.44L3 22.7998V22.3198Z"/><path fill="#F69A15" d="M3 21.8599L16.37 35.2199H15.9L3 22.3199V21.8599Z"/><path fill="#F69A16" d="M3 21.3999L16.83 35.2199H16.37L3 21.8599V21.3999Z"/><path fill="#F69B17" d="M3 20.9302L17.3 35.2302H16.83L3 21.3802V20.9302Z"/><path fill="#F69B18" d="M3 20.46L17.76 35.22H17.3L3 20.92V20.46Z"/><path fill="#F69C19" d="M3 20L18.23 35.22H17.76L3 20.46V20Z"/><path fill="#F69C1A" d="M3 19.5298L18.7 35.2298H18.23L3 19.9998V19.5298Z"/><path fill="#F69D1B" d="M3 19.0601L19.16 35.2201H18.69L3 19.5201V19.0601Z"/><path fill="#F69D1C" d="M3 18.6001L19.63 35.2201H19.16L3 19.0601V18.6001Z"/><path fill="#F69E1D" d="M3 18.1299L20.09 35.2299H19.63L3 18.5999V18.1299Z"/><path fill="#F69E1E" d="M3 17.6699L20.56 35.2199H20.09L3 18.1299V17.6699Z"/><path fill="#F79F1F" d="M3 17.2002L21.02 35.2202H20.56L3 17.6702V17.2002Z"/><path fill="#F79F20" d="M3 16.7402L21.49 35.2202H21.02L3 17.2002V16.7402Z"/><path fill="#F7A021" d="M3 16.27L21.95 35.22H21.49L3 16.74V16.27Z"/><path fill="#F7A022" d="M3 15.7998L22.42 35.2198H21.95L3 16.2698V15.7998Z"/><path fill="#F7A123" d="M3 15.3398L22.88 35.2198H22.42L3 15.8098V15.3398Z"/><path fill="#F7A124" d="M3 14.8799L23.35 35.2199H22.88L3 15.3399V14.8799Z"/><path fill="#F7A225" d="M3 14.4102L23.81 35.2202H23.35L3 14.8802V14.4102Z"/><path fill="#F7A226" d="M3 13.9399L24.28 35.2199H23.81L3 14.4099V13.9399Z"/><path fill="#F7A327" d="M3 13.48L24.73 35.2V35.21H24.28L3 13.94V13.48Z"/><path fill="#F7A328" d="M3 13.0098L24.97 34.9798L24.74 35.2098L3 13.4798V13.0098Z"/><path fill="#F7A429" d="M3 12.5498L25.2 34.7498L24.97 34.9798L3 13.0098V12.5498Z"/><path fill="#F7A42A" d="M3 12.0801L25.43 34.5201L25.2 34.7501L3 12.5501V12.0801Z"/><path fill="#F7A42B" d="M3 11.6201L25.67 34.2801L25.43 34.5201L3 12.0801V11.6201Z"/><path fill="#F8A52C" d="M3 11.1499L25.9 34.0499L25.67 34.2799L3 11.6199V11.1499Z"/><path fill="#F8A52D" d="M3 10.6899L26.13 33.8199L25.9 34.0499L3 11.1499V10.6899Z"/><path fill="#F8A62E" d="M3 10.2202L26.36 33.6002L26.13 33.8302L3 10.6902V10.2202Z"/><path fill="#F8A62F" d="M3 9.75977L26.6 33.3598L26.36 33.5898L3 10.2098V9.75977Z"/><path fill="#F8A730" d="M3 9.29004L26.83 33.12L26.6 33.35L3 9.75004V9.29004Z"/><path fill="#F8A731" d="M3 8.81982L27.06 32.8998L26.83 33.1298L3 9.28982V8.81982Z"/><path fill="#F8A832" d="M3 8.35986L27.3 32.6599L27.06 32.8899L3 8.81986V8.35986Z"/><path fill="#F8A833" d="M3 7.8999L27.53 32.4199L27.3 32.6499L3 8.3499V7.8999Z"/><path fill="#F8A934" d="M3 7.43018L27.76 32.1902L27.53 32.4202L3 7.90018V7.43018Z"/><path fill="#F8A935" d="M3 6.95996L28 31.96L27.76 32.19L3 7.42996V6.95996Z"/><path fill="#F8AA36" d="M3 6.5L28.23 31.72L27.99 31.96L3 6.96V6.5Z"/><path fill="#F8AA37" d="M3 6.02979L28.46 31.4998L28.23 31.7298L3 6.49978V6.02979Z"/><path fill="#F9AB38" d="M3 5.56982L28.7 31.2598L28.46 31.4898L3 6.02982V5.56982Z"/><path fill="#F9AB39" d="M3 5.1001L28.92 31.0301L28.69 31.2601L3 5.5601V5.1001Z"/><path fill="#F9AC3A" d="M3 4.64014L29 30.6401V30.9501L28.92 31.0201L3 5.10014V4.64014Z"/><path fill="#F9AC3B" d="M3 4.16992L29 30.1699V30.6299L3 4.62992V4.16992Z"/><path fill="#F9AD3C" d="M3 3.7002L29 29.7002V30.1602L3 4.1802V3.7002Z"/><path fill="#F9AD3D" d="M3 3.24023L29 29.2402V29.7002L3 3.70023V3.24023Z"/><path fill="#F9AE3F" d="M3.23 3L29 28.77V29.23L3 3.25V3H3.23Z"/><path fill="#F9AE40" d="M3.69998 3L29 28.3V28.77L3.22998 3H3.69998Z"/><path fill="#F9AE41" d="M4.15995 3L29 27.84V28.3L3.69995 3H4.15995Z"/><path fill="#F9AF42" d="M4.61991 3L28.9999 27.37V27.84L4.15991 3H4.61991Z"/><path fill="#F9AF43" d="M5.08988 3L28.9899 26.9V27.37L4.62988 3H5.08988Z"/><path fill="#F9B044" d="M5.55009 3L29.0001 26.44V26.91L5.09009 3H5.55009Z"/><path fill="#F9B045" d="M6.02005 3L29 25.98V26.44L5.55005 3H6.02005Z"/><path fill="#FAB146" d="M6.48002 3L29 25.51V25.98L6.02002 3H6.48002Z"/><path fill="#FAB147" d="M6.95 3L28.99 25.05V25.51L6.5 3H6.95Z"/><path fill="#FAB248" d="M7.41995 3L29 24.58V25.05L6.94995 3H7.41995Z"/><path fill="#FAB249" d="M7.8799 3L28.9999 24.11V24.58L7.3999 3H7.8799Z"/><path fill="#FAB34A" d="M8.34989 3L28.9899 23.65V24.11L7.88989 3H8.34989Z"/><path fill="#FAB34B" d="M8.8101 3L29.0001 23.18V23.65L8.3501 3H8.8101Z"/><path fill="#FAB44C" d="M9.28005 3L29 22.72V23.18L8.80005 3H9.28005Z"/><path fill="#FAB44D" d="M9.74003 3L29 22.25V22.72L9.28003 3H9.74003Z"/><path fill="#FAB54E" d="M10.2 3L29 21.79V22.25L9.72998 3H10.2Z"/><path fill="#FAB54F" d="M10.67 3L29 21.32V21.79L10.2 3H10.67Z"/><path fill="#FAB650" d="M11.1399 3L28.9899 20.86V21.32L10.6799 3H11.1399Z"/><path fill="#FAB651" d="M11.5999 3L28.9999 20.4V20.86L11.1399 3H11.5999Z"/><path fill="#FBB752" d="M12.0701 3L29.0001 19.93V20.39L11.6001 3H12.0701Z"/><path fill="#FBB753" d="M12.5301 3L29.0001 19.46V19.93L12.0701 3H12.5301Z"/><path fill="#FBB754" d="M13 3L29 19V19.46L12.53 3H13Z"/><path fill="#FBB855" d="M13.46 3L29 18.53V18.99L13 3H13.46Z"/><path fill="#FBB856" d="M13.93 3L29 18.07V18.53L13.46 3H13.93Z"/><path fill="#FBB957" d="M14.3999 3L28.9999 17.6V18.06L13.9299 3H14.3999Z"/><path fill="#FBB958" d="M14.8599 3L28.9999 17.13V17.6L14.3999 3H14.8599Z"/><path fill="#FBBA59" d="M15.3301 3L29.0001 16.67V17.13L14.8601 3H15.3301Z"/><path fill="#FBBA5A" d="M15.8001 3L29.0001 16.2V16.67L15.3301 3H15.8001Z"/><path fill="#FBBB5B" d="M16.26 3L28.99 15.74V16.2L15.8 3H16.26Z"/><path fill="#FBBB5C" d="M16.72 3L29 15.27V15.74L16.26 3H16.72Z"/><path fill="#FBBC5D" d="M17.19 3L28.99 14.8V15.27L16.73 3H17.19Z"/><path fill="#FCBC5E" d="M17.6499 3L28.9999 14.34V14.81L17.1899 3H17.6499Z"/><path fill="#FCBD5F" d="M18.1199 3L28.9999 13.88V14.34L17.6499 3H18.1199Z"/><path fill="#FCBD60" d="M18.5899 3L28.9899 13.41V13.88L18.1299 3H18.5899Z"/><path fill="#FCBE61" d="M19.0501 3L29.0001 12.95V13.41L18.5901 3H19.0501Z"/><path fill="#FCBE62" d="M19.5201 3L29 12.48V12.94L19.05 3H19.5201Z"/><path fill="#FCBF63" d="M19.98 3L29 12.01V12.48L19.52 3H19.98Z"/><path fill="#FCBF64" d="M20.45 3L29 11.55V12L19.98 3H20.45Z"/><path fill="#FCC065" d="M20.91 3L29 11.08V11.55L20.45 3H20.91Z"/><path fill="#FCC066" d="M21.3799 3L28.9999 10.62V11.08L20.8999 3H21.3799Z"/><path fill="#FCC167" d="M21.8399 3L28.9999 10.15V10.62L21.3799 3H21.8399Z"/><path fill="#FCC168" d="M22.3001 3L29.0001 9.69V10.15L21.8401 3H22.3001Z"/><path fill="#FCC169" d="M22.7701 3L29 9.22V9.69L22.3 3H22.7701Z"/><path fill="#FCC26A" d="M23.24 3L29 8.76V9.22L22.77 3H23.24Z"/><path fill="#FDC26B" d="M23.7 3L29 8.3V8.76L23.23 3H23.7Z"/><path fill="#FDC36C" d="M24.17 3L28.99 7.83V8.29L23.7 3H24.17Z"/><path fill="#FDC36D" d="M24.6399 3L28.9999 7.36V7.82L24.1599 3H24.6399Z"/><path fill="#FDC46E" d="M25.0999 3L28.9999 6.9V7.36L24.6399 3H25.0999Z"/><path fill="#FDC46F" d="M25.5701 3L29.0001 6.43V6.89L25.1001 3H25.5701Z"/><path fill="#FDC570" d="M26.0301 3L29.0001 5.96V6.43L25.5801 3H26.0301Z"/><path fill="#FDC571" d="M26.5 3L29 5.5V5.96L26.03 3H26.5Z"/><path fill="#FDC672" d="M26.96 3L29 5.03V5.5L26.5 3H26.96Z"/><path fill="#FDC673" d="M27.43 3L29 4.57V5.03L26.96 3H27.43Z"/><path fill="#FDC774" d="M27.8999 3L28.9999 4.1V4.57L27.4299 3H27.8999Z"/><path fill="#FDC775" d="M28.3599 3L28.9999 3.64V4.1L27.8999 3H28.3599Z"/><path fill="#FDC876" d="M28.8201 3L29.0001 3.17V3.64L28.3601 3H28.8201Z"/><path fill="#FEC877" d="M29.0001 3.17L28.8201 3H29.0001V3.17Z"/></g><defs><clipPath id="clip0"><rect width="275" height="42" fill="#fff"/></clipPath></defs></svg>