<svg xmlns="http://www.w3.org/2000/svg" width="644" height="171" fill="none" viewBox="0 0 644 171"><g clip-path="url(#clip0)"><path fill="#fff" d="M247.19 119.75C243.88 121.33 236.53 123.78 227.17 123.78C206.15 123.78 192.47 109.52 192.47 88.2099C192.47 66.7599 207.16 51.06 229.91 51.06C237.39 51.06 244.01 52.93 247.47 54.81L244.59 64.4499C241.57 62.8699 236.82 61.15 229.91 61.15C213.92 61.15 205.28 73.0899 205.28 87.4899C205.28 103.62 215.65 113.56 229.48 113.56C234.844 113.619 240.155 112.489 245.03 110.25L247.19 119.75V119.75ZM262.02 19.95H274.69V63.59H274.99C277.126 59.7964 280.259 56.6598 284.05 54.52C287.993 52.252 292.462 51.0589 297.01 51.06C306.37 51.06 321.35 56.82 321.35 80.73V122.2H308.68V82.1699C308.68 70.9399 304.5 61.57 292.55 61.57C284.34 61.57 278 67.3399 275.55 74.0999C274.84 75.9699 274.69 77.85 274.69 80.15V122.2H262.02V19.95V19.95ZM341.94 74.25C341.94 66.04 341.8 58.98 341.36 52.5H352.46L353.03 66.33H353.46C356.63 56.97 364.4 51.06 372.9 51.06C374.2 51.06 375.2 51.1999 376.36 51.3499V63.2999C375.06 63.0099 373.76 63.0099 372.04 63.0099C363.11 63.0099 356.77 69.6399 355.04 79.1399C354.743 81.0924 354.599 83.0651 354.61 85.0399V122.19H341.94V74.25ZM450.66 86.7699C450.66 112.55 432.66 123.78 415.96 123.78C397.24 123.78 382.55 109.96 382.55 87.9299C382.55 64.7399 397.95 51.06 417.11 51.06C437.12 51.06 450.66 65.6099 450.66 86.7699V86.7699ZM395.51 87.4899C395.51 102.76 404.15 114.28 416.53 114.28C428.63 114.28 437.7 102.9 437.7 87.2C437.7 75.4 431.8 60.56 416.82 60.56C401.99 60.56 395.51 74.3899 395.51 87.4899V87.4899ZM466.64 71.36C466.64 64.02 466.36 58.26 466.07 52.5H477.16L477.73 63.8799H478.17C482.06 57.2499 488.53 51.06 500.2 51.06C509.56 51.06 516.76 56.8199 519.78 65.0299H520.07C522.008 61.4587 524.712 58.3611 527.99 55.9599C532.17 52.7899 536.63 51.06 543.25 51.06C552.61 51.06 566.29 57.11 566.29 81.3V122.2H553.91V82.8899C553.91 69.3499 548.87 61.43 538.79 61.43C531.45 61.43 525.98 66.7599 523.67 72.8099C523.024 74.8586 522.687 76.992 522.67 79.1399V122.2H510.27V80.44C510.27 69.34 505.38 61.43 495.73 61.43C487.96 61.43 482.05 67.7599 480.03 74.0999C479.32 75.8299 479.03 78.13 479.03 80.3V122.2H466.64V71.3499V71.36ZM593.8 89.66C594.09 106.79 604.89 113.84 617.7 113.84C626.77 113.84 632.39 112.26 637 110.24L639.3 119.31C634.84 121.33 627.06 123.78 615.97 123.78C594.52 123.78 581.7 109.52 581.7 88.5C581.7 67.48 594.1 51.0499 614.4 51.0499C637.3 51.0499 643.2 70.9199 643.2 83.7399C643.2 86.3399 643.06 88.2 642.77 89.64H593.8V89.66ZM630.95 80.58C631.09 72.66 627.63 60.13 613.38 60.13C600.42 60.13 594.95 71.8 593.94 80.58H630.94H630.95Z"/><path fill="#fff" d="M85.31 169.27C131.597 169.27 169.12 131.747 169.12 85.4599C169.12 39.1729 131.597 1.6499 85.31 1.6499C39.023 1.6499 1.5 39.1729 1.5 85.4599C1.5 131.747 39.023 169.27 85.31 169.27Z"/><path fill="#000" fill-opacity=".1" d="M138.64 100.7C138.64 86.5561 133.021 72.9914 123.02 62.9901C113.019 52.9888 99.454 47.3701 85.31 47.3701C71.166 47.3701 57.6013 52.9888 47.6 62.9901C37.5987 72.9914 31.98 86.5561 31.98 100.7H47.22C47.1381 95.6455 48.0629 90.6251 49.9406 85.9314C51.8183 81.2378 54.6113 76.9647 58.1569 73.3612C61.7024 69.7578 65.9297 66.8959 70.5923 64.9424C75.2549 62.9889 80.2597 61.9829 85.315 61.9829C90.3703 61.9829 95.3751 62.9889 100.038 64.9424C104.7 66.8959 108.928 69.7578 112.473 73.3612C116.019 76.9647 118.812 81.2378 120.689 85.9314C122.567 90.6251 123.492 95.6455 123.41 100.7"/><path fill="#000" fill-opacity=".1" d="M89.1199 125.08C105.109 125.08 118.07 112.119 118.07 96.1299C118.07 80.1413 105.109 67.1799 89.1199 67.1799C73.1313 67.1799 60.1699 80.1413 60.1699 96.1299C60.1699 112.119 73.1313 125.08 89.1199 125.08Z"/><path fill="url(#paint0_linear)" d="M85.3101 116.7C102.563 116.7 116.55 102.713 116.55 85.46C116.55 68.2066 102.563 54.22 85.3101 54.22C68.0567 54.22 54.0701 68.2066 54.0701 85.46C54.0701 102.713 68.0567 116.7 85.3101 116.7Z"/><path fill="url(#paint1_linear)" d="M161.5 47.3699C151.427 27.105 133.716 11.6715 112.264 4.46452C90.8117 -2.74247 67.3752 -1.13263 47.11 8.93991C33.9536 15.4738 22.7072 25.2941 14.46 37.4499L48.74 96.8799C45.7099 87.2419 46.6319 76.7951 51.3033 67.8368C55.9746 58.8785 64.0128 52.1424 73.65 49.1099C77.1792 48.0009 80.851 47.4114 84.55 47.3599"/><path fill="url(#paint2_linear)" d="M14.46 37.47C1.86184 56.2665 -2.75454 79.2974 1.62617 101.497C6.00689 123.697 19.026 143.248 37.82 155.85C49.9334 163.968 63.9251 168.847 78.46 170.02L114.26 109.07C107.829 116.859 98.5689 121.777 88.5141 122.74C78.4593 123.704 68.4333 120.636 60.64 114.21C55.1266 109.664 51.003 103.658 48.74 96.88"/><path fill="url(#paint3_linear)" d="M78.46 170.03C101.026 171.736 123.345 164.409 140.508 149.659C157.672 134.909 168.273 113.946 169.98 91.3801C171.126 76.2165 168.199 61.0221 161.5 47.3701H84.55C94.653 47.4177 104.323 51.4762 111.435 58.653C118.546 65.8297 122.515 75.5371 122.47 85.6401C122.431 94.15 119.544 102.402 114.27 109.08"/><path fill="url(#paint4_linear)" d="M14.46 37.4699L48.74 96.8899C46.2042 88.3435 46.7456 79.1784 50.27 70.9899L15.98 35.1799"/><path fill="url(#paint5_linear)" d="M78.4599 170.03L114.26 109.08C108.611 115.816 100.807 120.391 92.1699 122.03L76.9299 170.03"/><path fill="url(#paint6_linear)" d="M161.5 47.3701H84.55C90.2717 47.3979 95.9136 48.7141 101.057 51.2208C106.2 53.7276 110.713 57.3606 114.26 61.8501L163.02 49.6501"/></g><defs><linearGradient id="paint0_linear" x1="85.19" x2="85.19" y1="54.4" y2="116.72" gradientUnits="userSpaceOnUse"><stop stop-color="#81B4E0"/><stop offset="1" stop-color="#0C5A94"/></linearGradient><linearGradient id="paint1_linear" x1="87.98" x2="87.98" y1=".13" y2="69.46" gradientUnits="userSpaceOnUse"><stop stop-color="#F06B59"/><stop offset="1" stop-color="#DF2227"/></linearGradient><linearGradient id="paint2_linear" x1="20.76" x2="55.81" y1="146.11" y2="88.21" gradientUnits="userSpaceOnUse"><stop stop-color="#388B41"/><stop offset="1" stop-color="#4CB749"/></linearGradient><linearGradient id="paint3_linear" x1="138.16" x2="100.83" y1="152.27" y2="62.37" gradientUnits="userSpaceOnUse"><stop stop-color="#E4B022"/><stop offset=".3" stop-color="#FCD209"/></linearGradient><linearGradient id="paint4_linear" x1="32.36" x2="32.36" y1="94.61" y2="33.66" gradientUnits="userSpaceOnUse"><stop stop-opacity=".15"/><stop offset=".3" stop-opacity=".06"/><stop offset="1" stop-opacity=".03"/></linearGradient><linearGradient id="paint5_linear" x1="116.49" x2="74.59" y1="114.29" y2="156.95" gradientUnits="userSpaceOnUse"><stop stop-opacity=".15"/><stop offset=".3" stop-opacity=".06"/><stop offset="1" stop-opacity=".03"/></linearGradient><linearGradient id="paint6_linear" x1="115.88" x2="121.98" y1="126.56" y2="66.38" gradientUnits="userSpaceOnUse"><stop stop-opacity=".15"/><stop offset=".3" stop-opacity=".06"/><stop offset="1" stop-opacity=".03"/></linearGradient><clipPath id="clip0"><rect width="643.19" height="170.28" fill="#fff"/></clipPath></defs></svg>