<svg id="Layer_2" data-name="Layer 2" xmlns="http://www.w3.org/2000/svg" viewBox="0 0 277 77"><path d="M88.27,47.09l-3.13-1.54-1.7.84-1.7.83-26.39,13a1.53,1.53,0,0,1-1.32,0l-26.38-13-1.71-.83-1.7-.84-3.13,1.54a1.5,1.5,0,0,0,0,2.69L54,65.94a1.44,1.44,0,0,0,1.32,0L88.27,49.78a1.5,1.5,0,0,0,0-2.69Z" fill="#fff"/><path d="M88.27,38.15l-3.13-1.53L81.91,38.2l-.17.09,2.47,1.21L81,41.09l-2.47-1.22L76,41.09l-1.7.83-1.7.84L55.35,51.24a1.53,1.53,0,0,1-1.32,0L36.75,42.76,35,41.92l-1.7-.83-2.47-1.22-2.46,1.22L25.18,39.5l2.46-1.21-.17-.09-3.23-1.58-3.13,1.53a1.5,1.5,0,0,0,0,2.7l.49.24L27.47,44l1.7.83,1.7.84L54,57a1.53,1.53,0,0,0,1.32,0L78.51,45.64l1.7-.84,1.7-.83,5.88-2.88.48-.24a1.5,1.5,0,0,0,0-2.7Z" fill="#fff"/><path d="M88.27,29.22,55.35,13.06a1.46,1.46,0,0,0-1.32,0L21.11,29.22a1.5,1.5,0,0,0,0,2.69l.49.24L27.47,35l3.23,1.59.17.08,3.23,1.59,2.47,1.21,1.7.84,1.71.83L54,48.07a1.53,1.53,0,0,0,1.32,0l14.06-6.9,1.7-.83,1.7-.84,2.47-1.21,3.23-1.59.17-.08L81.91,35l5.88-2.88.48-.24a1.5,1.5,0,0,0,0-2.69Zm-16.39,7.4-2.47,1.21-14.06-6.9a1.46,1.46,0,0,0-1.32,0L40,37.83l-2.47-1.21L34.28,35,54.69,25,75.11,35ZM81,32.15l-2.47,1.21L55.35,22A1.53,1.53,0,0,0,54,22L30.87,33.36l-2.46-1.21-3.23-1.59L54.69,16.07,84.21,30.56Z" fill="#fff"/><polygon points="113.65 19.55 107.72 19.55 107.72 52.29 128.07 52.29 128.07 47.32 113.65 47.32 113.65 19.55" fill="#fff"/><path d="M149.75,29.2a10,10,0,0,0-3.22-1.37,15.13,15.13,0,0,0-3.53-.41,13.79,13.79,0,0,0-4.7.76,9.28,9.28,0,0,0-3.6,2.26,8.76,8.76,0,0,0-2.11,3.75L138,35a4.53,4.53,0,0,1,1.67-2.19,5.45,5.45,0,0,1,3.36-.93,4.41,4.41,0,0,1,3.09,1,3.66,3.66,0,0,1,1.07,2.8v.1a1.35,1.35,0,0,1-.62,1.22,5.2,5.2,0,0,1-2,.58c-.89.12-2.06.26-3.5.4a25.77,25.77,0,0,0-3.46.62,10.89,10.89,0,0,0-3,1.24A6,6,0,0,0,132.56,42a7,7,0,0,0-.77,3.44,7.25,7.25,0,0,0,1.08,4.06A6.75,6.75,0,0,0,135.81,52a10.1,10.1,0,0,0,4.2.84,9.45,9.45,0,0,0,3.35-.54,7.14,7.14,0,0,0,2.38-1.42,6.89,6.89,0,0,0,1.48-1.91h.19v3.37H153V35.86a8.5,8.5,0,0,0-.88-4.08A7,7,0,0,0,149.75,29.2ZM147.2,43.48a4.79,4.79,0,0,1-.69,2.51,5.06,5.06,0,0,1-2,1.85,6.26,6.26,0,0,1-3,.69,5.1,5.1,0,0,1-3-.81,2.76,2.76,0,0,1-1.17-2.42,2.81,2.81,0,0,1,.59-1.83,4,4,0,0,1,1.62-1.11,10,10,0,0,1,2.32-.57l1.36-.19,1.58-.26a14,14,0,0,0,1.44-.34,2.49,2.49,0,0,0,.92-.41Z" fill="#fff"/><path d="M168,46.28h-.26L162.1,27.73H156l8.91,25.07-.5,1.33a3.63,3.63,0,0,1-2.12,2.39,5.8,5.8,0,0,1-3.17-.19l-1.34,4.5a7.92,7.92,0,0,0,1.59.44,12.25,12.25,0,0,0,2.18.18,9.5,9.5,0,0,0,3.91-.74,7.55,7.55,0,0,0,2.77-2.14A11.11,11.11,0,0,0,170,55.26l9.86-27.49-6.19,0Z" fill="#fff"/><path d="M201.47,30.39a10,10,0,0,0-3.58-2.25,12.73,12.73,0,0,0-4.3-.72,11.45,11.45,0,0,0-6.12,1.6,10.93,10.93,0,0,0-4.05,4.48A14.65,14.65,0,0,0,182,40.16a14.66,14.66,0,0,0,1.44,6.69,10.32,10.32,0,0,0,4.12,4.38,12.52,12.52,0,0,0,6.37,1.54A13.83,13.83,0,0,0,199,51.9a9.42,9.42,0,0,0,3.65-2.46,8.36,8.36,0,0,0,2-3.74l-5.41-.6A4.42,4.42,0,0,1,198,46.84a4.91,4.91,0,0,1-1.78,1.06,6.82,6.82,0,0,1-2.28.36,6.45,6.45,0,0,1-3.29-.81,5.43,5.43,0,0,1-2.19-2.33,7.81,7.81,0,0,1-.78-3.52h17.1V39.82a15.52,15.52,0,0,0-.9-5.57A10.44,10.44,0,0,0,201.47,30.39Zm-13.73,7.3a6.26,6.26,0,0,1,.73-2.67,6,6,0,0,1,2.09-2.24,5.65,5.65,0,0,1,3.11-.86,5.48,5.48,0,0,1,2.92.76,5.22,5.22,0,0,1,2,2,6.26,6.26,0,0,1,.72,3Z" fill="#fff"/><path d="M221.63,27.38a6.33,6.33,0,0,0-3.74,1.16,6.06,6.06,0,0,0-2.31,3.29h-.26v-4.1h-5.61V52.29h5.79V37.85a5.35,5.35,0,0,1,.71-2.76,5,5,0,0,1,2-1.88,5.9,5.9,0,0,1,2.84-.68,11.45,11.45,0,0,1,1.52.11,5.28,5.28,0,0,1,1.16.23V27.54a9.17,9.17,0,0,0-1-.12C222.31,27.4,222,27.38,221.63,27.38Z" fill="#fff"/><path d="M240.17,20.17h-.72A12.14,12.14,0,0,0,227.32,32.3v10a12.14,12.14,0,0,0,12.13,12.13h.72A12.14,12.14,0,0,0,252.3,42.3v-10A12.14,12.14,0,0,0,240.17,20.17Zm-.72,6h.72a6.1,6.1,0,0,1,4.6,2.1L233.32,39.5V32.3A6.14,6.14,0,0,1,239.45,26.17Zm.72,22.26h-.72a6.1,6.1,0,0,1-4.57-2.06l11.42-11.2V42.3A6.14,6.14,0,0,1,240.17,48.43Z" fill="#fff"/></svg>