<svg width="1002" height="351" xmlns="http://www.w3.org/2000/svg">
  <g transform="translate(1 74)" fill-rule="nonzero" fill="none">
    <path d="M294.84 148.79c-7.3 0-14.39-1.04-21.48-3.33a49.06 49.06 0 0 1-17.94-10.4l9.38-15.8a85.34 85.34 0 0 0 15.23 8.32c4.8 2.08 9.6 2.91 14.19 2.91 3.34 0 6.05-.62 7.93-1.87 1.87-1.04 2.7-2.9 2.7-5.2 0-2.07-1.03-4.15-3.54-5.4a54.36 54.36 0 0 0-12.3-4.16l-14.6-4.78c-3.97-1.66-7.1-3.33-9.6-5.2a15.33 15.33 0 0 1-5.43-6.24 20.32 20.32 0 0 1-1.67-8.31 27 27 0 0 1 9.8-21.21c2.93-2.5 6.68-4.37 10.85-5.82a41.18 41.18 0 0 1 13.56-2.08c6.47 0 12.52.83 18.15 2.5a47.12 47.12 0 0 1 16.28 9.56l-10.23 15.6a69.53 69.53 0 0 0-12.93-7.28 28 28 0 0 0-11.27-2.3c-2.7 0-5.21.42-7.09 1.67-2.08 1.04-2.92 2.91-2.92 5.4a5.8 5.8 0 0 0 3.13 5.41c2.09 1.25 6.26 2.5 11.9 3.95 5.22 1.32 10.37 2.91 15.43 4.79a51.3 51.3 0 0 1 10.22 5.4 18.48 18.48 0 0 1 7.51 16.22c0 8.52-3.13 15.18-9.6 20.17-6.25 4.99-14.6 7.48-25.66 7.48zm103.27-6.03a105.78 105.78 0 0 1-12.31 4.16 52.87 52.87 0 0 1-13.98 2.08c-3.34 0-6.26-.42-9.18-1.25a20.88 20.88 0 0 1-7.72-4.16c-2.08-1.66-3.75-4.16-5-6.86a26.66 26.66 0 0 1-2.09-10.6v-44.7h-10.85V61.88h11.06V34.65h25.87v27.03h17.52v19.75h-17.52v35.76c0 2.7.62 4.78 2.08 6.24a9.32 9.32 0 0 0 5.43 1.66c2.08 0 4.17-.21 6.05-1.04a26.86 26.86 0 0 0 5.42-2.08l5 20.8h.22zm48.81 6.03a50.22 50.22 0 0 1-19.4-3.53 40.81 40.81 0 0 1-23.36-23.91 47.67 47.67 0 0 1 0-33.69 40.81 40.81 0 0 1 23.36-23.9c5.63-2.3 12.1-3.54 19.4-3.54a43.88 43.88 0 0 1 33.8 13.51 41.02 41.02 0 0 1 8.97 13.93c4.27 10.9 4.27 23 0 33.9a41.02 41.02 0 0 1-23.16 23.7 50.22 50.22 0 0 1-19.6 3.53zm-18.77-44.08c0 6.66 1.67 12.06 5.21 16.01 3.76 4.16 8.35 6.24 13.77 6.24 5.24.1 10.24-2.2 13.56-6.24a23.13 23.13 0 0 0 3.96-7.07 25.14 25.14 0 0 0 1.46-8.94c0-6.86-1.87-12.26-5.42-16.21a17.13 17.13 0 0 0-13.56-6.24 17.76 17.76 0 0 0-13.56 6.24 23.5 23.5 0 0 0-4.17 7.06 26.94 26.94 0 0 0-1.25 9.15zM560.2 84.13c-6.26 0-12.1 1.04-17.32 3.12a20.85 20.85 0 0 0-11.05 8.73v51.36h-26.08V61.88h24v17.05c2.91-5.82 6.67-10.4 11.46-13.51a26.02 26.02 0 0 1 14.6-5.2h2.72l1.67.2v23.71zm11.47 75.89a38.08 38.08 0 0 0 11.27 2.08c3.13 0 5.63-1.04 7.5-3.12 1.68-2.08 3.14-6.24 4.6-11.64l-32.55-85.46h26.91l19.82 63 17.32-63h24.4l-32.75 99.18a34.02 34.02 0 0 1-39.63 23.28 32.16 32.16 0 0 1-6.89-2.08v-22.24zm141.02-11.23c-6.46 0-12.3-1.25-17.1-4.16a30.2 30.2 0 0 1-11.69-11.43v14.14h-22.73V28.4h26.28v47.4a31.1 31.1 0 0 1 27.95-15.59c5.43 0 10.44 1.04 15.02 3.53 4.6 2.08 8.35 5.41 11.9 9.36a54.32 54.32 0 0 1 7.5 49.07 45.8 45.8 0 0 1-8.55 14.14 38.44 38.44 0 0 1-28.58 12.47zm-7.3-21.83a19.81 19.81 0 0 0 18.78-13.3 25.71 25.71 0 0 0-3.97-24.75 16.92 16.92 0 0 0-13.77-6.65c-3.96 0-7.71 1.45-11.26 4.16a29.77 29.77 0 0 0-7.93 10.8v17.89a20.45 20.45 0 0 0 18.36 11.64l-.2.21zm60.08-98.55h26.08v88.36c0 6.66 2.71 9.77 8.34 9.77 2.98.01 5.92-.7 8.56-2.08l3.54 19.34a59.83 59.83 0 0 1-23.15 4.99c-7.51 0-13.36-2.08-17.32-5.82-4.17-4.16-6.26-9.57-6.26-17.05V28.41h.21zm95.75 120.38a50.22 50.22 0 0 1-19.4-3.53 41.02 41.02 0 0 1-23.57-23.91 47.7 47.7 0 0 1 8.76-47.82 44.96 44.96 0 0 1 14.6-9.78c5.64-2.28 12.1-3.53 19.4-3.53a43.88 43.88 0 0 1 33.8 13.51c4.17 3.95 6.88 8.74 8.97 13.93a46.66 46.66 0 0 1-8.76 47.82 40.06 40.06 0 0 1-14.6 9.78 50.22 50.22 0 0 1-19.4 3.53h.2zm-18.98-44.08c0 6.66 1.67 12.06 5.22 16.01 3.75 4.16 8.34 6.24 13.76 6.24a17.34 17.34 0 0 0 13.56-6.24 23.13 23.13 0 0 0 3.97-7.07 25.14 25.14 0 0 0 1.46-8.94c0-6.86-1.88-12.26-5.43-16.21a17.13 17.13 0 0 0-13.56-6.24 17.76 17.76 0 0 0-13.56 6.24 23.5 23.5 0 0 0-4.17 7.06c-1.04 2.92-1.25 5.83-1.25 9.15zm135.39 42.63l-22.32-34.52-9.18 9.57v24.95h-26.08V28.4h26.08v68.82l29-35.35h27.74L972 98.68l33.37 48.66h-27.74z" fill="#fff"/>
    <g fill="#09B3AF">
      <path d="M107.77 102.28H64.49v20.88h42.24a10 10 0 0 0 6.66-2.72c1.66-1.67 2.7-4.17 2.7-7.3.06-2.69-.74-5.32-2.29-7.52-1.66-2.09-3.54-3.34-6.03-3.34zm1.45-25.26c1.88-1.25 2.7-3.96 2.7-7.51 0-3.13-.82-5.43-2.28-6.89a8.3 8.3 0 0 0-5.4-2.09H64.48v18.79h38.9c2.09 0 4.17-1.04 5.83-2.3z"/>
      <path d="M172.68 0H9.36A9.3 9.3 0 0 0 0 9.18v164.07c0 5.01 4.16 8.14 9.15 8.14H33.3v32.78l29.96-32.57h109.43c5 0 8.11-3.13 8.11-8.35V9.4c0-5-3.12-9.18-8.32-9.18l.2-.21zm-27.46 132.97a25.19 25.19 0 0 1-8.95 9.18c-3.95 2.5-8.32 4.8-13.31 5.85-5 1.25-10.4 2.3-16.02 2.3H33.29V33.4h83.63c4.16 0 7.7.83 11.03 2.71a28.69 28.69 0 0 1 8.32 6.68 31.38 31.38 0 0 1 7.07 20.25c0 5.43-1.45 10.64-4.16 15.65-2.8 5.04-7.2 9-12.48 11.28 6.66 1.87 11.86 5.21 15.81 10.02 3.75 5 5.62 11.48 5.62 19.62 0 5.22-1.04 9.6-3.12 13.36h.2z"/>
    </g>
  </g>
</svg>
