<svg xmlns="http://www.w3.org/2000/svg" xmlns:xlink="http://www.w3.org/1999/xlink" width="101" height="46" version="1.1" viewBox="0 0 101 46"><title>LOGO</title><desc>Created with Sketch.</desc><g id="Home" fill="none" fill-rule="evenodd" stroke="none" stroke-width="1"><g id="Home-v1.1" fill-rule="nonzero" transform="translate(-150.000000, -39.000000)"><g id="Header"><g id="LOGO" transform="translate(150.000000, 39.000000)"><g id="TEXT" fill="#FFF" opacity=".9" transform="translate(42.000000, 14.000000)"><path id="Combined-Shape" d="M6.59067648,1.63843612 L0.179745722,1.63843612 L0.179745722,0.121365639 L14.6392905,0.121365639 L14.6392905,1.63843612 L8.22835972,1.63843612 L8.22835972,22.7358297 L6.59067648,22.7358297 L6.59067648,1.63843612 Z M18.9731596,0.121365639 C19.7121142,0.121365639 20.2713231,0.707966226 20.2713231,1.43616006 C20.2713231,2.16435389 19.6921424,2.75095448 18.9731596,2.75095448 C18.2342049,2.75095448 17.674996,2.16435389 17.674996,1.43616006 C17.674996,0.707966226 18.2342049,0.121365639 18.9731596,0.121365639 Z M18.1742897,5.96714391 L19.7720294,5.96714391 L19.7720294,22.7358297 L18.1742897,22.7358297 L18.1742897,5.96714391 Z M24.5652487,5.96714391 L26.1629884,5.96714391 L26.1629884,9.06196769 C26.5424516,8.41468429 28.3399088,5.54236417 32.3142865,5.54236417 C37.0276187,5.54236417 40.3828722,9.18333333 40.3828722,14.3009178 C40.3828722,19.479185 37.1274775,23.1606094 32.4740605,23.1606094 C28.719372,23.1606094 26.7022256,20.5714758 26.1629884,19.5398678 L26.1629884,28.783884 L24.5652487,28.783884 L24.5652487,5.96714391 Z M32.434117,21.6435389 C36.0490031,21.6435389 38.7252172,18.6093979 38.7252172,14.3009178 C38.7252172,9.91152717 35.9092009,7.05943465 32.3742017,7.05943465 C28.5196546,7.05943465 26.0831014,10.3565345 26.0831014,14.3009178 C26.0831014,18.9532673 28.9989765,21.6435389 32.434117,21.6435389 Z M51.0677568,5.54236417 C55.8210326,5.54236417 58.8567381,9.12265051 58.8567381,13.9368209 L58.8567381,14.6245595 L44.736713,14.6245595 C44.736713,19.0746329 47.5527294,21.6637665 51.5071352,21.6637665 C54.5628125,21.6637665 56.260411,20.146696 57.2190549,18.7914464 L58.2775574,19.5398678 C57.1990831,21.3198972 55.0820779,23.1606094 51.5071352,23.1606094 C46.634029,23.1606094 43.0790581,19.6410059 43.0790581,14.4020558 C43.0790581,8.92037445 46.8537182,5.54236417 51.0677568,5.54236417 Z M57.1791114,13.208627 C56.9793939,9.00128488 54.1434058,7.03920705 51.0278133,7.03920705 C48.0320513,7.03920705 45.1561197,9.10242291 44.8365718,13.208627 L57.1791114,13.208627 Z"/></g><g id="CAT-LOGO"><path id="Shape" fill="#D5D5E0" d="M27.9060403,26.0193833 C26.9597315,24.0334802 25.6308725,21.7030837 25.9530201,19.230837 C26.033557,18.6026432 26.2348993,18.014978 26.6174497,17.5488987 C25.6711409,18.5418502 24.5033557,19.4132159 23.2147651,20.0819383 C22.8120805,20.2845815 22.409396,20.4669604 21.9865772,20.6493392 C20.7986577,21.2370044 19.852349,21.8854626 19.0872483,22.554185 C16.3892617,24.9251101 13.8120805,31.5515419 9.32214765,32.8079295 C9.32214765,32.8079295 9.32214765,32.8079295 9.32214765,32.8079295 C8.75838926,33.0511013 8.09395973,33.2334802 7.34899329,33.2132159 C5.45637584,33.1929515 3.24161074,31.9568282 2.05369128,30.092511 C0.302013423,27.3162996 0.825503356,23.5066079 2.01342282,21.0748899 C1.97315436,21.1559471 1.93288591,21.2167401 1.91275168,21.2977974 C1.63087248,21.8854626 1.34899329,22.5744493 1.06711409,23.4052863 C1.06711409,23.4052863 1.06711409,23.4052863 1.06711409,23.4052863 C0.44295302,25.1885463 0.120805369,27.1339207 0.120805369,29.1400881 C0.120805369,38.4211454 7.26845638,45.9594714 16.0872483,45.9594714 C18.3422819,45.9594714 21.9261745,45.2704846 24.885906,43.2035242 C25.852349,42.5145374 28.4295302,40.4678414 29.4362416,36.7189427 C30.6040268,32.1594714 29.2751678,28.8969163 27.9060403,26.0193833 Z"/><path id="Shape" fill="#A6A5B7" d="M10.4697987,32.1189427 C10.1677852,32.3621145 9.7852349,32.6052863 9.32214765,32.8079295 C9.32214765,32.8079295 9.32214765,32.8079295 9.32214765,32.8079295 C13.8120805,31.5515419 16.3892617,24.9251101 19.0872483,22.554185 C19.852349,21.8854626 20.7785235,21.2370044 21.9865772,20.6493392 C20.6375839,21.1762115 19.2080537,21.4801762 17.6979866,21.4801762 C13.7315436,21.4801762 10.1073826,19.3524229 7.97315436,16.6167401 C8.17449664,16.9004405 10.590604,19.7577093 12.4630872,25.4722467 C13.2684564,27.9647577 12.3422819,30.6599119 10.4697987,32.1189427 Z"/><path id="Shape" fill="#E4E4EA" d="M29.3557047,12.0977974 C28.9328859,16.6167401 23.6577181,21.4801762 17.6778523,21.4801762 C11.6577181,21.4801762 6.42281879,16.5964758 6,12.0977974 C5.69798658,8.93656388 7.46979866,4.80264317 17.6778523,4.80264317 C27.885906,4.80264317 29.6577181,8.93656388 29.3557047,12.0977974 Z"/><path id="Shape" fill="#A6A5B7" d="M27.3624161,0.0202643172 C26.3557047,2.04669604 26.033557,4.33656388 26.4161074,6.52511013 C26.6577181,6.66696035 26.8791946,6.80881057 27.0805369,6.95066079 C29.0939597,8.40969163 29.5167785,10.3955947 29.3557047,12.077533 C29.3154362,12.584141 29.1946309,13.1110132 29.033557,13.6176211 C30.4026846,9.88898678 30.2214765,5.85638767 28.7114094,2.43171806 C28.3288591,1.60088106 27.885906,0.79030837 27.3624161,0.0202643172 Z"/><path id="Shape" fill="#3D3952" d="M26.4161074,6.52511013 C26.033557,4.33656388 26.3355705,2.04669604 27.3624161,0.0202643172 C26.6979866,0.425550661 26.0536913,0.891629956 25.4697987,1.4185022 C24.3221477,2.45198238 23.3557047,3.74889868 22.6510067,5.20792952 C23.0939597,5.28898678 23.5167785,5.39030837 23.9194631,5.51189427 C24.9060403,5.7753304 25.7315436,6.14008811 26.4161074,6.52511013 Z"/><path id="Shape" fill="#A6A5B7" d="M8.03355705,0.0202643172 C9.04026846,2.04669604 9.36241611,4.33656388 8.97986577,6.52511013 C8.73825503,6.66696035 8.51677852,6.80881057 8.31543624,6.95066079 C6.30201342,8.40969163 5.87919463,10.3955947 6.04026846,12.077533 C6.08053691,12.584141 6.20134228,13.1110132 6.36241611,13.6176211 C4.99328859,9.88898678 5.17449664,5.85638767 6.68456376,2.43171806 C7.04697987,1.60088106 7.51006711,0.79030837 8.03355705,0.0202643172 Z"/><path id="Shape" fill="#3D3952" d="M9.9261745,1.4185022 C9.34228188,0.891629956 8.69798658,0.425550661 8.03355705,0.0202643172 C9.04026846,2.04669604 9.36241611,4.33656388 8.97986577,6.52511013 C9.66442953,6.11982379 10.4899329,5.7753304 11.4966443,5.51189427 C11.8993289,5.41057269 12.3221477,5.3092511 12.7651007,5.20792952 C12.0402685,3.72863436 11.0738255,2.45198238 9.9261745,1.4185022 Z"/><g id="Group" transform="translate(7.248322, 9.321586)"><path id="Shape" fill="#3D3952" d="M20.738255,1.4185022 C20.6174497,0.830837004 20.3355705,0.364757709 19.7315436,0.222907489 C18.1409396,-0.14185022 14.295302,2.20881057 12.1208054,3.32334802 C11.3154362,3.74889868 10.8724832,3.95154185 10.4496644,3.93127753 C10.0067114,3.95154185 9.58389262,3.74889868 8.77852349,3.32334802 C6.60402685,2.20881057 2.75838926,-0.162114537 1.16778523,0.222907489 C0.563758389,0.364757709 0.281879195,0.810572687 0.161073826,1.4185022 C-0.0402684564,2.4722467 0.241610738,5.0660793 2.15436242,6.99118943 C3.58389262,8.42995595 5.51677852,9.11894273 7.12751678,9.56475771 C7.14765101,9.56475771 7.14765101,9.58502203 7.16778523,9.58502203 C7.14765101,9.64581498 7.14765101,9.70660793 7.14765101,9.76740088 C7.14765101,10.4361233 7.91275168,10.9629956 8.87919463,10.9629956 C9.34228188,10.9629956 10.1677852,10.8211454 10.4697987,10.6185022 C10.7718121,10.8414097 11.5973154,10.9629956 12.0604027,10.9629956 C13.0067114,10.9629956 13.7919463,10.415859 13.7919463,9.76740088 C13.7919463,9.70660793 13.7919463,9.64581498 13.7718121,9.58502203 C13.7919463,9.58502203 13.7919463,9.56475771 13.8120805,9.56475771 C15.4228188,9.11894273 17.3557047,8.42995595 18.7852349,6.99118943 C20.6778523,5.0660793 20.9395973,2.4722467 20.738255,1.4185022 Z"/><path id="Shape" fill="#FFF" d="M8.01342282,5.97797357 C5.8590604,8.30837004 2.47651007,6.32246696 1.93288591,3.52599119 C1.5704698,1.68193833 2.65771812,1.96563877 3.68456376,2.37092511 C4.95302013,2.89779736 6.70469799,4.1339207 8.01342282,5.97797357 Z"/><path id="Shape" fill="#2F273D" d="M5.01342282,4.53920705 C5.01342282,5.14713656 4.85234899,5.69427313 4.5704698,6.16035242 C4.2885906,5.71453744 4.12751678,5.14713656 4.12751678,4.53920705 C4.12751678,3.93127753 4.2885906,3.38414097 4.5704698,2.91806167 C4.85234899,3.36387665 5.01342282,3.93127753 5.01342282,4.53920705 Z"/><path id="Shape" fill="#171320" d="M10.4496644,8.26784141 C10.0469799,8.24757709 9.60402685,8.369163 9.18120805,8.77444934 C10.852349,9.82819383 10.0469799,9.82819383 11.6979866,8.77444934 C11.2751678,8.34889868 10.8322148,8.22731278 10.4496644,8.26784141 Z"/><path id="Shape" fill="#FFF" d="M12.966443,5.97797357 C15.1208054,8.30837004 18.5033557,6.32246696 19.0469799,3.52599119 C19.409396,1.68193833 18.3221477,1.96563877 17.295302,2.37092511 C16.0067114,2.89779736 14.2550336,4.1339207 12.966443,5.97797357 Z"/><path id="Shape" fill="#2F273D" d="M15.9463087,4.53920705 C15.9463087,5.14713656 16.1073826,5.69427313 16.3892617,6.16035242 C16.6711409,5.71453744 16.8322148,5.14713656 16.8322148,4.53920705 C16.8322148,3.93127753 16.6711409,3.38414097 16.3892617,2.91806167 C16.1073826,3.36387665 15.9463087,3.93127753 15.9463087,4.53920705 Z"/></g><path id="Shape" fill="#3D3952" d="M2.05369128,30.092511 C3.24161074,31.9568282 5.43624161,33.2132159 7.34899329,33.2132159 C7.95302013,33.2132159 8.51677852,33.1118943 9,32.9295154 C9,32.9295154 9,32.9295154 9,32.9295154 C5.97986577,33.7806167 5.11409396,27.8229075 6.80536913,24.1955947 C7.02684564,23.5066079 7.2885906,22.9189427 7.48993289,22.4123348 C7.5704698,22.2299559 7.99328859,21.3788546 7.91275168,20.4264317 C7.75167785,18.6026432 5.09395973,16.9207048 3.08053691,19.3321586 C2.73825503,19.7577093 2.37583893,20.3251101 1.99328859,21.0951542 C0.805369128,23.5471366 0.322147651,27.3365639 2.05369128,30.092511 Z"/></g></g></g></g></g></svg>