<svg xmlns="http://www.w3.org/2000/svg" id="Layer_1" viewBox="0 0 480 84"><style>.st0{fill:#fff}</style><path d="M36.5 83.1l11-19 11 19H76L47.5 33.8 19 83.1z" class="st0"/><linearGradient id="SVGID_1_" x1="61.76" x2="61.76" y1="83.14" y2="33.77" gradientUnits="userSpaceOnUse"><stop offset="0" stop-color="#36495e"/><stop offset="1" stop-color="#0a1c33"/></linearGradient><path fill="url(#SVGID_1_)" d="M47.5 33.8v30.3l11 19H76z"/><linearGradient id="SVGID_2_" x1="94.96" x2="94.96" y1="83.14" y2="83.13" gradientUnits="userSpaceOnUse"><stop offset="0" stop-color="#88c96e"/><stop offset="1" stop-color="#86d859"/></linearGradient><path fill="url(#SVGID_2_)" d="M95 83.1h-.1z"/><g><path d="M115.5 83.1l-11-19-11 19H76l28.5-49.3L133 83.1z" class="st0"/><linearGradient id="SVGID_3_" x1="151.97" x2="151.97" y1="83.14" y2="83.13" gradientUnits="userSpaceOnUse"><stop offset="0" stop-color="#88c96e"/><stop offset="1" stop-color="#86d859"/></linearGradient><path fill="url(#SVGID_3_)" d="M152 83.1h-.1z"/><linearGradient id="SVGID_4_" x1="3870.53" x2="3870.53" y1="83.14" y2="33.77" gradientTransform="matrix(-1 0 0 1 3960.8 0)" gradientUnits="userSpaceOnUse"><stop offset="0" stop-color="#36495e"/><stop offset="1" stop-color="#0a1c33"/></linearGradient><path fill="url(#SVGID_4_)" d="M104.5 33.8v30.3l-11 19H76z"/></g><linearGradient id="SVGID_5_" x1="76.01" x2="76.01" y1="83.14" y2=".86" gradientUnits="userSpaceOnUse"><stop offset=".2" stop-color="#41b782"/><stop offset="1" stop-color="#86d169"/></linearGradient><path fill="url(#SVGID_5_)" d="M104.5.9L76 50.2 47.5.9 0 83.1h19l28.5-49.3L76 83.1l28.5-49.3L133 83.1h19z"/><g fill="#fff"><path d="M178.9 35.6h10.8L178 71.2h-11.3l-11.6-35.6h10.8l4.8 18c1 4 1.6 6.8 1.7 8.4.1-1.1.3-2.6.7-4.3.3-1.7.6-3 .9-4l4.9-18.1zM212.6 71.2l-1.2-3.4h-.6c-.8 1.3-1.9 2.2-3.3 2.9-1.4.7-3.1 1-5 1-3 0-5.4-.9-7.1-2.6-1.7-1.8-2.5-4.2-2.5-7.5v-18h9.5v15.1c0 1.8.3 3.2.8 4.1.5.9 1.3 1.4 2.5 1.4 1.6 0 2.8-.6 3.5-1.9.7-1.3 1-3.5 1-6.5V43.6h9.5v27.6h-7.1zM239.6 71.7c-4.6 0-8.2-1.2-10.7-3.7-2.5-2.4-3.8-5.9-3.8-10.4 0-4.7 1.2-8.2 3.5-10.7 2.4-2.5 5.7-3.7 10.1-3.7 4.2 0 7.4 1.1 9.6 3.2 2.3 2.2 3.4 5.3 3.4 9.4V60h-17c.1 1.5.6 2.7 1.7 3.6 1.1.9 2.5 1.3 4.3 1.3 1.7 0 3.2-.2 4.6-.5s2.9-.9 4.6-1.6v6.8c-1.5.8-3 1.3-4.6 1.6-1.6.3-3.5.5-5.7.5zm-.5-22.1c-1.1 0-2.1.4-2.8 1.1-.8.7-1.2 1.8-1.3 3.3h8.2c0-1.3-.4-2.4-1.1-3.2s-1.8-1.2-3-1.2zM286.1 71.2l-7.3-25.6h-.2c.3 4.4.5 7.8.5 10.2v15.4h-8.5V35.6h12.8l7.4 25.2h.2l7.3-25.2h12.8v35.6h-8.8V55.6v-2.7c0-1 .1-3.4.3-7.3h-.2l-7.2 25.6h-9.1zM336.2 71.2l-1.8-3.6h-.2c-1.3 1.6-2.6 2.7-3.9 3.3-1.3.6-3 .9-5.2.9-2.6 0-4.6-.8-6.1-2.3-1.5-1.6-2.2-3.7-2.2-6.6 0-2.9 1-5.1 3.1-6.6 2-1.4 5-2.2 8.9-2.4l4.6-.1v-.4c0-2.3-1.1-3.4-3.4-3.4-2 0-4.6.7-7.7 2l-2.7-6.3c3.2-1.7 7.3-2.5 12.2-2.5 3.5 0 6.3.9 8.2 2.6 1.9 1.8 2.9 4.2 2.9 7.3v18.1h-6.7zm-7.1-6.3c1.2 0 2.1-.4 3-1.1s1.2-1.7 1.2-2.8v-2.1l-2.2.1c-3.1.1-4.7 1.3-4.7 3.5 0 1.6.9 2.4 2.7 2.4zM370.5 62.7c0 3-1 5.2-3 6.7s-4.9 2.3-8.7 2.3c-2 0-3.8-.1-5.3-.3s-3-.6-4.6-1.2v-7.6c1.5.6 3.1 1.2 4.9 1.6 1.8.4 3.3.6 4.7.6 2.1 0 3.1-.5 3.1-1.4 0-.5-.3-.9-.9-1.3-.6-.4-2.2-1.1-5-2.2-2.5-1-4.3-2.2-5.3-3.5s-1.5-3-1.5-5c0-2.6 1-4.6 3-6s4.8-2.1 8.4-2.1c1.8 0 3.5.2 5.1.6 1.6.4 3.3 1 5 1.7l-2.6 6.1c-1.3-.6-2.6-1-4-1.4-1.4-.4-2.6-.6-3.5-.6-1.6 0-2.3.4-2.3 1.1 0 .5.3.9.8 1.2s2.1 1 4.7 2c1.9.8 3.4 1.6 4.3 2.3s1.6 1.7 2.1 2.7.6 2.2.6 3.7zM389.3 64.1c1.3 0 2.8-.3 4.6-.9v6.9c-1.3.6-2.5.9-3.7 1.2-1.2.2-2.5.4-4.1.4-3.2 0-5.5-.8-6.9-2.3-1.4-1.6-2.1-4-2.1-7.2V50.7h-3.3v-3.9l4.2-3 2.5-5.8h6.2v5.5h6.8v7.1h-6.8v10.7c0 2 .9 2.8 2.6 2.8zM412 71.7c-4.6 0-8.2-1.2-10.7-3.7-2.5-2.4-3.8-5.9-3.8-10.4 0-4.7 1.2-8.2 3.5-10.7 2.4-2.5 5.7-3.7 10.1-3.7 4.2 0 7.4 1.1 9.6 3.2 2.3 2.2 3.4 5.3 3.4 9.4V60h-17c.1 1.5.6 2.7 1.7 3.6 1.1.9 2.5 1.3 4.3 1.3 1.7 0 3.2-.2 4.6-.5 1.4-.3 2.9-.9 4.6-1.6v6.8c-1.5.8-3 1.3-4.6 1.6-1.6.3-3.5.5-5.7.5zm-.5-22.1c-1.1 0-2.1.4-2.8 1.1-.8.7-1.2 1.8-1.3 3.3h8.2c0-1.3-.4-2.4-1.1-3.2s-1.8-1.2-3-1.2zM446.2 43.1c.8 0 1.6.1 2.4.2l.5.1-.9 9c-.8-.2-1.9-.3-3.2-.3-2.1 0-3.6.5-4.5 1.4-.9.9-1.4 2.3-1.4 4.1v13.5h-9.5V43.6h7.1l1.5 4.4h.5c.8-1.5 1.9-2.6 3.3-3.5a7.3 7.3 0 0 1 4.2-1.4zM449.6 43.6h10l4.7 15.8c.2.8.4 1.8.5 3h.2c.1-1.1.3-2.1.6-2.9l4.8-15.9h9.7l-10.9 29.3c-1.4 3.7-3.1 6.4-5.1 7.9s-4.7 2.3-8 2.3c-1.3 0-2.6-.1-3.9-.4v-7.5c.9.2 1.8.3 2.9.3.8 0 1.6-.2 2.2-.5.6-.3 1.2-.8 1.7-1.4s1-1.6 1.5-2.9l-10.9-27.1z" class="st0"/></g></svg>