<svg width="132" height="132" viewBox="0 0 132 132" fill="none" xmlns="http://www.w3.org/2000/svg">
<g opacity="0.8">
<path d="M64.4374 36.2094L46.1183 50.8089C44.3085 52.7297 27.3107 66.464 26.3785 67.2276L40.232 71.2223L66.0645 35.6031C65.4834 35.6093 64.9114 35.8224 64.4374 36.2094Z" fill="#B8D0D0"/>
<path d="M68.4782 37.3772C68.1109 36.2908 67.1537 35.5883 66.0641 35.6056L39.613 70.9645L52.1608 74.5828L84.1518 83.8075L68.4782 37.3772Z" fill="#B2CCCC"/>
<path opacity="0.75" d="M84.1205 83.7449L62.9634 77.6442L40.1145 71.0556L51.5718 54.9838L59.2556 44.6007L76.306 60.5968L84.1205 83.7449Z" fill="#D1E2E2"/>
<path d="M42.1949 113.345L34.4617 91.2328C33.9524 88.6434 26.8769 67.9674 26.4944 66.8247L40.348 70.8195L43.2493 114.724C42.7607 114.41 42.39 113.925 42.1949 113.345Z" fill="#B8D0D0"/>
<path d="M46.237 114.508C45.3477 115.232 44.1634 115.317 43.2503 114.722L39.6867 70.7084L52.2345 74.3267L84.2255 83.5514L46.237 114.508Z" fill="#B2CCCC"/>
<path opacity="0.75" d="M84.1656 83.5877L63.0085 77.487L39.6494 70.7513L41.3006 90.603L42.2764 103.483L65.2259 99.0211L84.1656 83.5877Z" fill="#D1E2E2"/>
</g>
<path d="M99.9565 49.9629L98.7063 56.785C98.6758 57.5658 97.5523 63.9378 97.4928 64.2896L101.362 62.487L100.202 49.5111C100.073 49.6255 99.987 49.7844 99.9565 49.9629Z" fill="#B2CCCC"/>
<path d="M101.086 49.4375C100.792 49.2664 100.442 49.2958 100.202 49.5115L101.174 62.5497L104.679 60.917L113.615 56.7544L101.086 49.4375Z" fill="#D1E2E2"/>
<path opacity="0.75" d="M113.596 56.7467L107.686 59.4996L101.304 62.4726L100.736 56.6563L100.432 52.8439L107.349 53.0989L113.596 56.7467Z" fill="#E6F0F0"/>
<path d="M109.993 71.5085L103.966 68.0762C103.349 67.5972 97.7478 64.3575 97.4402 64.1768L101.31 62.3742L110.497 71.6114C110.326 71.6362 110.149 71.6 109.993 71.5085Z" fill="#B2CCCC"/>
<path d="M111.121 70.982C111.064 71.3166 110.816 71.5659 110.496 71.6107L101.141 62.4779L104.645 60.8453L113.581 56.6827L111.121 70.982Z" fill="#D1E2E2"/>
<path opacity="0.75" d="M113.575 56.7024L107.665 59.4553L101.141 62.4947L105.37 66.6053L108.093 69.291L112.349 63.8314L113.575 56.7024Z" fill="#E6F0F0"/>
<path d="M47.3657 13.3108L40.7375 15.3534C40.0309 15.687 33.8605 17.634 33.521 17.7436L36.9073 20.343L47.8797 13.3197C47.7189 13.2586 47.5381 13.2555 47.3657 13.3108Z" fill="#B2CCCC"/>
<path d="M48.3531 14.0697C48.3694 13.7305 48.1815 13.4334 47.8793 13.3203L36.7645 20.205L39.8316 22.5594L47.6512 28.562L48.3531 14.0697Z" fill="#D1E2E2"/>
<path opacity="0.75" d="M47.6493 28.5412L42.4779 24.5714L36.8929 20.2841L41.789 17.0937L45.0299 15.063L47.9991 21.3159L47.6493 28.5412Z" fill="#E6F0F0"/>
<path d="M32.8925 32.1647L33.1527 25.2339C33.2924 24.4651 33.5785 18.0012 33.5967 17.6448L36.9829 20.2442L33.0339 32.659C32.9333 32.5194 32.8836 32.3457 32.8925 32.1647Z" fill="#B2CCCC"/>
<path d="M33.8808 32.9225C33.5574 33.0258 33.2218 32.9212 33.0345 32.6585L36.8127 20.142L39.8798 22.4964L47.6994 28.499L33.8808 32.9225Z" fill="#D1E2E2"/>
<path opacity="0.75" d="M47.6789 28.5027L42.5075 24.5329L36.7978 20.1499L35.1058 25.8L33.9816 29.4556L40.7895 30.708L47.6789 28.5027Z" fill="#E6F0F0"/>
</svg>
