<svg width="132" height="132" viewBox="0 0 132 132" fill="none" xmlns="http://www.w3.org/2000/svg">
<path d="M19.2003 125.798L18.5406 117.798C16.9058 97.976 22.7136 78.2555 34.8312 62.4833L41.2024 54.1906L63.0906 40.9934C66.1234 39.1647 70.0443 39.8893 72.2232 42.6811L81.2063 54.1906L87.2068 75.3927V89.3949C87.2068 92.6867 85.7326 95.8055 83.189 97.8949L53.6036 122.197L19.2003 125.798Z" fill="#D1E2E2"/>
<path opacity="0.75" d="M54.4038 81.7932L41.2025 54.1906L64.1912 40.5306C66.8183 38.9696 70.199 39.6325 72.0421 42.0701L81.2064 54.1906L86.4069 72.9924L54.4038 81.7932Z" fill="#E6F0F0"/>
<path opacity="0.75" d="M43.6027 105.396L55.2038 82.5937L41.2024 54.191L18.786 83.7238C16.9925 86.0866 16.1378 89.03 16.3867 91.9859L19.2003 125.398L43.6027 105.396Z" fill="#B2CCCC"/>
<path opacity="0.75" d="M43.6027 105.796L18.8003 125.797L53.2036 122.197L43.6027 114.196V105.796Z" fill="#E6F0F0"/>
<path d="M50.3868 31.5134L43.7631 38.9779C38.4633 34.0626 35.1845 27.3494 34.5663 20.1476L34.5063 19.4487L35.4028 16.4168C36.3741 13.1318 39.6458 11.0898 43.0235 11.6603L48.4289 15.0062L48.6584 15.2572C50.8798 17.6865 51.8965 20.9829 51.4294 24.2414L50.3868 31.5134Z" fill="#B2CCCC"/>
<path opacity="0.75" d="M42.6909 22.7552L34.5063 19.4486L35.635 15.7195C36.5203 12.7946 39.4625 11.0024 42.4676 11.5575L43.0234 11.6602L47.7911 14.6508L42.6909 22.7552Z" fill="#E6F0F0"/>
<path opacity="0.75" d="M44.9865 29.8834L43.0171 22.77L34.5064 19.4488L35.184 26.836C35.4549 29.79 36.8104 32.5389 38.9889 34.5523L43.6852 38.8929L44.9865 29.8834Z" fill="#D1E2E2"/>
<path opacity="0.75" d="M45.0643 29.9685L43.6779 39.0559L50.3016 31.5913L46.6999 31.7571L45.0643 29.9685Z" fill="#E6F0F0"/>
<path d="M110.864 89.4686L115.329 94.5128C111.606 97.6661 106.841 99.3192 101.964 99.1496L101.491 99.1331L99.5317 98.2865C97.409 97.3693 96.3057 95.0111 96.9619 92.7937L99.6424 89.4424C101.569 88.0661 104.01 87.6249 106.297 88.24L110.864 89.4686Z" fill="#B2CCCC"/>
<path opacity="0.75" d="M104.371 93.9161L101.491 99.1331L99.4326 98.2279C97.3453 97.31 96.2814 94.97 96.9619 92.7937L99.3527 89.8409L104.371 93.9161Z" fill="#E6F0F0"/>
<path opacity="0.75" d="M109.334 92.9555L104.407 93.6986L101.491 99.133L105 99.2345C107.965 99.3203 110.857 98.3047 113.117 96.3839L115.266 94.558L109.334 92.9555Z" fill="#D1E2E2"/>
<path opacity="0.75" d="M109.397 92.9103L115.374 94.5762L110.909 89.5319L110.728 91.9592L109.397 92.9103Z" fill="#E6F0F0"/>
</svg>
