<svg width="132" height="132" viewBox="0 0 132 132" fill="none" xmlns="http://www.w3.org/2000/svg">
<path d="M27.3046 97.6165L21.7161 63.1965L32.8871 65.8606L27.3046 97.6165Z" fill="#92ADAD"/>
<path d="M57.0282 32.4365L21.6695 63.4941L32.9051 67.6931L57.0863 53.4874L57.0282 32.4365Z" fill="#B2CCCC"/>
<path d="M50.8022 124.777L27.3045 97.6164L32.6541 67.3489L56.8818 52.8455L80.4653 73.6159L78.8847 99.2894L50.8022 124.777Z" fill="#D1E2E2"/>
<path opacity="0.65" d="M37.375 109.257L67.5762 62.4489L79.3679 72.8341L78.8847 99.2894L50.8022 124.777L37.375 109.257Z" fill="#E6F0F0"/>
<path d="M56.8819 52.8455L57.1214 31.8412L93.2751 71.6573L80.1677 73.5692L56.8819 52.8455Z" fill="#E6F0F0"/>
<path d="M78.8218 99.4074L79.3213 73.1317L93.2751 71.6573L78.8218 99.4074Z" fill="#E6F0F0"/>
<path d="M113.307 68.8331L117.359 60.8878L114.43 60.6631L113.307 68.8331Z" fill="#92ADAD"/>
<path d="M111.164 50.636L117.347 60.964L114.282 61.1081L109.504 55.758L111.164 50.636Z" fill="#B2CCCC"/>
<path d="M105.461 73.6104L113.307 68.8331L114.37 61.0438L109.604 55.6176L102.237 58.8318L100.615 65.2077L105.461 73.6104Z" fill="#D1E2E2"/>
<path opacity="0.65" d="M109.944 70.8806L106.249 57.1202L102.565 58.7273L100.615 65.2077L105.461 73.6105L109.944 70.8806Z" fill="#E6F0F0"/>
<path d="M109.604 55.6174L111.188 50.4835L99.2705 57.3532L102.313 58.8436L109.604 55.6174Z" fill="#E6F0F0"/>
<path d="M100.638 65.0554L102.553 58.8034L99.2705 57.3533L100.638 65.0554Z" fill="#E6F0F0"/>
<path d="M39.98 33.8884L46.4387 21.2244L41.7705 20.8664L39.98 33.8884Z" fill="#92ADAD"/>
<path d="M36.5653 4.8837L46.4197 21.3454L41.5352 21.5751L33.9194 13.0476L36.5653 4.8837Z" fill="#B2CCCC"/>
<path d="M27.4743 41.5027L39.9799 33.8882L41.6754 21.4729L34.0786 12.824L22.336 17.9472L19.7501 28.1096L27.4743 41.5027Z" fill="#D1E2E2"/>
<path opacity="0.65" d="M34.6204 37.1518L28.7307 15.2192L22.8594 17.7808L19.7501 28.1099L27.4743 41.5029L34.6204 37.1518Z" fill="#E6F0F0"/>
<path d="M34.0787 12.8242L36.6033 4.64136L17.608 15.5909L22.4575 17.9665L34.0787 12.8242Z" fill="#E6F0F0"/>
<path d="M19.7882 27.8668L22.8405 17.9017L17.6079 15.5905L19.7882 27.8668Z" fill="#E6F0F0"/>
</svg>
