<svg width="120" height="120" viewBox="0 0 120 120" fill="none" xmlns="http://www.w3.org/2000/svg">
<path d="M20.1325 47.3006L16.3822 60.4593C16.1802 61.3305 13.6445 68.1751 13.507 68.5536L17.8262 67.6952L20.767 46.7585C20.6857 46.7608 20.2026 47.1085 20.1325 47.3006Z" fill="#00DC82"/>
<path d="M23.6552 48.6613C23.3953 48.3794 21.0539 46.5926 20.7633 46.7631L17.6218 67.7134L25.7048 66.8588L38.463 60.2791L23.6552 48.6613Z" fill="#33E39B"/>
<path d="M28.2746 98.1231L13.5021 68.5435L17.8212 67.6845L36.6828 100.459C36.5047 100.435 28.4131 98.2737 28.2746 98.1231Z" fill="#00DC82"/>
<path d="M45.1838 97.4682C45.0519 97.828 37.0043 100.512 36.6705 100.465L17.6154 67.6798L21.5275 66.9023L38.4562 60.2754L45.1838 97.4682Z" fill="#33E39B"/>
<path opacity="0.75" d="M31.513 64.9927L24.9167 66.3036L21.0223 73.67L23.1787 77.5402L28.7069 72.6596L31.513 64.9927Z" fill="#33E39B"/>
<path opacity="0.75" d="M38.4603 60.2781L43.358 87.4341L19.1008 57.9385L19.8341 52.962L32.6594 55.7272L38.4603 60.2781Z" fill="#99F1CD"/>
<path d="M83.3944 14.3668L63.7883 28.3267C62.5538 29.3019 51.5518 35.9207 50.9471 36.2898L57.8243 39.8546L84.8618 14.3189C84.7474 14.2328 83.7018 14.1799 83.3944 14.3668Z" fill="#00DC82"/>
<path d="M86.7466 20.101C86.6992 19.4282 85.4447 14.4014 84.8583 14.3165L57.5302 39.6504L69.5745 47.3547L94.3307 52.3281L86.7466 20.101Z" fill="#33E39B"/>
<path d="M38.7665 93.1335L50.9601 36.2666L57.8378 39.8305L47.7533 105.578C47.5346 105.35 38.7914 93.4926 38.7665 93.1335Z" fill="#00DC82"/>
<path d="M62.7097 110.808C62.1334 111.158 48.1285 106.006 47.7208 105.575L57.5518 39.5997L63.7809 42.8286L94.319 52.318L62.7097 110.808Z" fill="#33E39B"/>
<path opacity="0.75" d="M79.6028 51.173L69.0999 45.7288L55.658 51.5721L54.3697 59.2582L67.3261 58.6247L79.6028 51.173Z" fill="#33E39B"/>
<path opacity="0.75" d="M94.3302 52.3249L71.2311 95.0153L70.3012 27.846L76.7748 21.8139L91.3587 39.7005L94.3302 52.3249Z" fill="#99F1CD"/>
</svg>
