<?xml version="1.0" encoding="UTF-8" ?>
<!DOCTYPE svg PUBLIC "-//W3C//DTD SVG 1.1//EN" "http://www.w3.org/Graphics/SVG/1.1/DTD/svg11.dtd">
<svg width="1000pt" height="700pt" viewBox="0 0 1000 700" version="1.1" xmlns="http://www.w3.org/2000/svg">
<g id="#9b99a6ff">
<path fill="#9b99a6" opacity="1.00" d=" M 151.48 43.39 C 156.36 39.53 162.71 36.48 169.07 37.53 C 175.38 39.06 182.04 41.52 185.85 47.11 C 192.49 56.48 191.41 69.78 184.56 78.74 L 184.04 78.22 C 182.50 76.68 181.00 75.04 179.14 73.88 C 177.09 72.53 173.82 73.68 173.26 76.12 C 172.53 79.70 174.25 83.12 175.97 86.15 C 169.92 87.39 163.34 88.22 157.50 85.69 C 148.75 82.09 141.99 73.51 141.24 64.00 C 141.72 56.15 146.01 48.87 151.48 43.39 Z" />
<path fill="#9b99a6" opacity="1.00" d=" M 243.22 150.50 C 248.21 149.64 252.89 147.35 258.00 147.14 C 269.33 146.75 280.90 147.45 291.68 151.24 C 294.83 152.38 297.94 154.11 299.80 157.02 C 295.14 157.85 290.80 159.75 286.41 161.41 C 269.08 168.21 252.05 175.81 235.70 184.71 C 228.50 188.66 221.29 192.73 215.08 198.15 C 210.63 202.10 205.38 205.18 201.61 209.85 C 200.32 197.73 202.76 184.90 210.14 175.00 C 213.35 169.76 218.57 166.38 222.77 162.04 C 228.58 156.69 235.78 153.03 243.22 150.50 Z" />
<path fill="#9b99a6" opacity="1.00" d=" M 564.01 220.03 C 568.49 215.82 574.90 214.02 580.95 214.80 C 588.36 215.94 594.83 221.24 597.79 228.08 C 601.71 237.27 599.24 249.00 591.11 255.11 C 583.73 260.83 572.46 260.63 565.46 254.37 C 569.00 251.07 573.00 246.52 571.82 241.33 C 568.29 236.78 561.27 237.43 556.73 240.05 C 555.65 232.72 558.20 224.79 564.01 220.03 Z" />
<path fill="#9b99a6" opacity="1.00" d=" M 494.25 237.33 C 508.16 235.97 520.23 244.70 530.51 252.95 C 535.63 258.00 539.22 264.64 540.59 271.70 C 542.28 281.56 541.75 291.78 538.30 301.22 C 535.44 310.59 530.66 320.75 521.34 325.08 C 521.23 319.65 520.00 314.34 519.08 309.01 C 515.14 288.01 509.02 267.36 500.07 247.94 C 498.46 244.23 496.65 240.60 494.25 237.33 Z" />
<path fill="#9b99a6" opacity="1.00" d=" M 143.13 398.18 C 150.51 395.44 158.57 398.03 164.92 402.10 C 178.86 410.22 192.06 420.16 201.86 433.12 C 208.43 441.85 214.25 451.20 218.91 461.09 C 222.21 468.32 224.81 476.06 224.98 484.07 C 225.19 491.77 220.44 498.55 215.02 503.57 C 208.84 508.61 202.78 513.92 195.75 517.76 C 186.71 522.51 176.08 524.86 165.94 522.96 C 153.50 520.88 141.85 514.91 132.42 506.61 C 135.81 504.44 139.60 501.42 139.60 497.00 C 140.29 488.73 132.17 481.54 124.13 482.15 C 121.07 483.50 119.13 486.46 116.93 488.85 C 111.87 480.92 107.89 471.61 108.81 462.03 C 111.37 445.02 116.96 428.16 127.13 414.13 C 128.20 412.85 128.31 411.16 128.46 409.58 C 133.61 406.10 137.09 400.34 143.13 398.18 Z" />
<path fill="#9b99a6" opacity="1.00" d=" M 45.51 523.40 C 50.37 512.91 61.47 505.78 73.00 505.72 C 80.54 506.37 87.65 509.28 94.38 512.57 C 99.07 514.99 102.25 519.58 103.83 524.52 C 107.80 535.52 105.57 548.30 98.36 557.46 C 93.87 562.89 88.40 567.99 81.34 569.67 C 70.85 572.77 59.29 568.97 51.68 561.39 C 42.61 551.34 39.30 535.76 45.51 523.40 Z" />
</g>
<g id="#f79727ff">
<path fill="#f79727" opacity="1.00" d=" M 173.26 76.12 C 173.82 73.68 177.09 72.53 179.14 73.88 C 181.00 75.04 182.50 76.68 184.04 78.22 C 186.84 81.65 190.09 84.65 193.11 87.88 C 205.40 101.39 216.46 115.95 228.12 129.99 C 233.47 136.51 238.77 143.07 244.00 149.69 L 243.22 150.50 C 235.78 153.03 228.58 156.69 222.77 162.04 C 220.27 159.47 218.57 156.32 216.67 153.32 C 206.34 136.83 196.31 120.14 186.98 103.06 C 183.69 97.18 179.35 91.97 175.97 86.15 C 174.25 83.12 172.53 79.70 173.26 76.12 Z" />
<path fill="#f79727" opacity="1.00" d=" M 556.73 240.05 C 561.27 237.43 568.29 236.78 571.82 241.33 C 573.00 246.52 569.00 251.07 565.46 254.37 C 557.71 260.84 549.56 267.01 540.59 271.70 C 539.22 264.64 535.63 258.00 530.51 252.95 C 538.70 247.58 548.33 245.05 556.73 240.05 Z" />
<path fill="#f79727" opacity="1.00" d=" M 116.93 488.85 C 119.13 486.46 121.07 483.50 124.13 482.15 C 132.17 481.54 140.29 488.73 139.60 497.00 C 139.60 501.42 135.81 504.44 132.42 506.61 C 127.70 509.51 122.83 512.15 118.21 515.21 C 113.40 518.29 108.97 521.96 103.83 524.52 C 102.25 519.58 99.07 514.99 94.38 512.57 C 100.22 503.20 109.79 497.10 116.93 488.85 Z" />
</g>
<g id="#787880ff">
<path fill="#787880" opacity="1.00" d=" M 323.07 152.65 C 335.51 150.66 348.14 151.19 360.69 151.39 C 397.54 153.90 434.30 168.07 460.96 194.06 C 464.71 196.64 467.00 200.66 470.31 203.70 C 479.73 213.81 486.92 225.70 494.25 237.33 C 496.65 240.60 498.46 244.23 500.07 247.94 C 509.02 267.36 515.14 288.01 519.08 309.01 C 520.00 314.34 521.23 319.65 521.34 325.08 C 520.89 334.44 522.97 343.80 521.68 353.14 C 521.05 358.20 521.62 363.34 520.69 368.36 C 519.25 377.79 515.11 386.48 510.93 394.95 C 508.93 399.17 504.53 401.28 500.85 403.78 C 497.10 406.22 492.13 408.45 487.77 406.21 C 480.88 402.29 477.56 394.45 475.99 387.03 C 474.26 380.15 474.86 373.03 474.76 366.02 C 473.67 346.44 472.58 326.71 468.24 307.52 C 465.33 294.94 460.35 282.26 450.64 273.36 C 444.49 268.17 437.45 263.98 429.89 261.22 C 418.58 257.86 406.79 255.91 394.97 256.16 C 380.70 255.84 366.64 258.83 352.91 262.42 C 339.02 266.03 325.90 271.95 312.94 278.02 C 302.65 282.38 292.92 287.87 283.03 293.04 C 277.49 296.03 272.01 299.17 267.02 303.02 C 257.99 309.91 248.28 316.16 240.88 324.91 C 233.46 333.66 226.87 343.66 224.62 355.09 C 221.79 371.91 225.01 389.21 231.00 405.01 C 237.85 422.45 248.08 438.50 260.75 452.29 C 269.51 463.27 281.17 471.31 292.48 479.43 C 298.67 483.49 302.73 490.67 302.78 498.10 C 302.20 504.30 297.47 509.16 292.59 512.55 C 287.33 515.80 281.18 517.91 274.95 517.72 C 260.36 517.59 245.65 515.85 231.80 511.13 C 225.96 509.17 220.59 506.14 215.02 503.57 C 220.44 498.55 225.19 491.77 224.98 484.07 C 224.81 476.06 222.21 468.32 218.91 461.09 C 214.25 451.20 208.43 441.85 201.86 433.12 C 192.06 420.16 178.86 410.22 164.92 402.10 C 158.57 398.03 150.51 395.44 143.13 398.18 C 137.09 400.34 133.61 406.10 128.46 409.58 C 126.95 405.19 127.66 400.46 127.05 395.93 C 126.29 390.64 126.71 385.29 126.20 379.99 C 125.39 372.68 125.78 365.31 125.65 357.97 C 125.44 343.62 125.71 329.19 127.92 314.98 C 130.06 301.79 135.48 289.41 141.62 277.64 C 148.28 265.18 156.78 253.74 166.38 243.38 C 171.63 237.34 177.23 231.57 183.47 226.55 C 189.08 220.50 196.36 216.23 201.61 209.85 C 205.38 205.18 210.63 202.10 215.08 198.15 C 221.29 192.73 228.50 188.66 235.70 184.71 C 252.05 175.81 269.08 168.21 286.41 161.41 C 290.80 159.75 295.14 157.85 299.80 157.02 C 307.71 156.43 315.17 153.35 323.07 152.65 Z" />
</g>
<g id="#464646ff">
<path fill="#464646" opacity="1.00" d=" M 352.84 380.74 C 358.35 369.70 374.55 368.04 383.74 375.27 C 389.82 380.19 391.51 388.46 391.58 395.91 C 391.67 416.88 391.63 437.85 391.60 458.82 C 398.82 450.84 406.94 443.25 417.01 439.07 C 429.60 433.83 443.80 432.74 457.14 435.31 C 471.09 437.99 483.89 446.66 490.85 459.14 C 497.77 470.07 498.60 483.40 498.86 495.99 C 498.91 522.66 498.85 549.33 498.89 576.00 C 498.99 582.48 498.53 589.34 495.05 595.00 C 488.29 606.41 469.23 607.35 461.51 596.57 C 457.87 591.16 457.17 584.42 457.13 578.07 C 457.11 554.71 457.13 531.35 457.12 507.99 C 457.01 496.96 456.17 485.28 450.39 475.59 C 445.28 467.51 434.81 465.52 425.94 466.14 C 410.20 466.95 396.48 479.83 393.56 495.13 C 392.12 502.66 391.81 510.36 391.64 518.01 C 391.58 538.34 391.68 558.67 391.59 579.01 C 391.51 586.03 390.07 593.70 384.79 598.76 C 379.71 603.79 371.95 604.78 365.18 603.56 C 360.81 602.79 356.68 600.42 354.16 596.73 C 350.60 591.61 349.75 585.17 349.68 579.08 C 349.69 520.38 349.69 461.69 349.69 402.99 C 349.66 395.52 349.25 387.57 352.84 380.74 Z" />
<path fill="#464646" opacity="1.00" d=" M 934.43 373.60 C 940.69 372.10 947.62 373.29 952.83 377.14 C 961.50 383.04 962.54 396.02 957.64 404.65 C 950.71 415.91 933.17 417.07 924.03 407.93 C 919.03 403.12 917.82 395.56 919.05 388.98 C 920.49 381.37 927.08 375.44 934.43 373.60 Z" />
<path fill="#464646" opacity="1.00" d=" M 573.13 439.08 C 591.59 432.31 611.71 432.22 631.06 433.85 C 645.67 435.38 661.45 438.99 671.74 450.29 C 681.64 461.38 683.86 476.96 684.63 491.27 C 684.98 509.85 684.55 528.44 684.50 547.02 C 684.54 556.94 687.12 566.59 690.01 576.00 C 691.37 581.45 693.71 587.52 690.87 592.90 C 687.11 599.99 678.96 604.77 670.88 603.92 C 666.86 603.47 663.31 601.21 660.41 598.51 C 654.73 593.16 650.50 586.53 646.34 579.99 C 632.75 590.66 617.41 600.17 600.06 602.85 C 584.78 605.24 568.19 604.44 554.60 596.39 C 543.07 589.88 534.57 578.18 532.28 565.11 C 530.50 554.69 531.96 543.47 537.47 534.34 C 542.41 526.11 550.11 519.71 558.85 515.84 C 568.03 511.60 578.18 510.40 587.95 508.18 C 606.62 504.42 625.23 500.30 643.53 495.02 C 643.10 486.19 641.96 476.69 636.46 469.44 C 631.18 463.40 622.54 462.45 615.01 462.09 C 604.54 461.94 592.96 462.48 584.45 469.37 C 576.60 475.22 572.75 484.51 566.89 492.06 C 564.34 495.25 559.80 495.28 556.07 495.33 C 548.41 495.42 540.64 489.92 539.34 482.16 C 538.35 475.13 540.38 467.96 543.85 461.87 C 550.03 450.64 561.46 443.54 573.13 439.08 M 592.98 532.44 C 586.51 534.21 580.09 537.72 576.23 543.34 C 571.33 551.59 573.47 563.05 580.70 569.28 C 587.40 575.63 597.29 576.74 606.08 575.57 C 618.97 573.94 632.21 567.37 638.57 555.58 C 643.89 544.57 643.47 531.98 643.65 520.05 C 627.14 525.64 609.84 528.18 592.98 532.44 Z" />
<path fill="#464646" opacity="1.00" d=" M 728.24 438.18 C 736.50 430.93 751.16 432.42 757.29 441.76 C 761.38 447.67 761.40 455.17 761.30 462.07 C 770.26 451.15 781.30 441.19 795.02 436.89 C 812.78 431.40 832.85 433.71 848.87 443.17 C 859.86 449.46 868.61 459.25 874.47 470.40 C 883.00 486.11 885.66 504.34 885.26 522.02 C 884.80 541.20 879.83 560.74 868.62 576.53 C 857.91 591.64 840.58 601.84 822.12 603.63 C 808.05 604.95 792.98 603.05 781.14 594.81 C 773.51 589.91 767.43 583.13 761.35 576.51 C 761.24 597.35 761.38 618.19 761.28 639.03 C 761.12 646.61 760.21 655.00 754.83 660.83 C 750.59 665.43 743.89 666.51 737.94 665.87 C 733.22 665.48 728.11 663.60 725.71 659.25 C 722.51 653.40 721.87 646.56 721.70 640.01 C 721.68 579.00 721.70 518.00 721.68 456.99 C 721.71 450.30 723.03 442.87 728.24 438.18 M 796.50 465.80 C 785.17 468.01 775.52 476.07 770.12 486.11 C 763.74 498.32 762.76 512.54 763.54 526.06 C 764.37 539.54 769.03 553.50 779.50 562.57 C 788.73 571.09 802.58 574.15 814.56 570.37 C 823.13 567.65 830.32 561.39 834.79 553.65 C 842.78 540.28 844.10 524.08 842.79 508.88 C 841.54 495.52 836.66 481.65 826.05 472.87 C 817.99 466.05 806.77 463.60 796.50 465.80 Z" />
<path fill="#464646" opacity="1.00" d=" M 933.49 434.69 C 940.41 432.94 948.39 434.30 953.63 439.39 C 958.77 444.06 960.59 451.26 960.50 458.00 C 960.50 498.32 960.52 538.65 960.49 578.97 C 960.45 585.76 959.01 593.11 954.03 598.08 C 948.53 603.89 939.50 605.41 932.09 602.82 C 926.32 600.79 921.99 595.69 920.20 589.93 C 918.05 583.50 918.72 576.65 918.63 570.00 C 918.67 532.01 918.52 494.03 918.70 456.05 C 918.72 446.84 923.98 436.91 933.49 434.69 Z" />
</g>
</svg>
