<svg xmlns="http://www.w3.org/2000/svg" width="359" height="76" class="companyLogo-image"><path fill="currentColor" d="M102.93 44.4c2.08 1.2 5.2 2.23 8.47 2.23 4.1 0 6.4-1.92 6.4-4.78 0-2.65-1.77-4.2-6.24-5.82-5.77-2.08-9.46-5.14-9.46-10.18 0-5.72 4.78-10.09 12.37-10.09 3.8 0 6.6.83 8.42 1.77l-1.56 5.14a14.85 14.85 0 0 0-6.97-1.66c-4.05 0-5.82 2.18-5.82 4.21 0 2.7 2.03 3.95 6.7 5.77 6.09 2.29 9.05 5.35 9.05 10.4 0 5.6-4.26 10.5-13.3 10.5-3.7 0-7.54-1.05-9.46-2.19l1.4-5.3m26.42-9.93c0-3.32-.1-6.02-.21-8.42h5.61l.31 3.9h.1c1.87-2.86 4.84-4.47 8.69-4.47 5.82 0 10.65 4.99 10.65 12.89 0 9.15-5.77 13.57-11.53 13.57-3.18 0-5.83-1.36-7.13-3.38h-.1v13.1h-6.4V34.46zm6.39 6.3c0 .61.05 1.19.2 1.76a5.78 5.78 0 0 0 5.62 4.47c4.05 0 6.45-3.38 6.45-8.37 0-4.47-2.19-8.1-6.3-8.1a5.96 5.96 0 0 0-5.71 4.72 5.74 5.74 0 0 0-.26 1.61v3.9zm38.16 10.6l-.41-2.81h-.16a9.38 9.38 0 0 1-7.48 3.38c-5.1 0-7.95-3.7-7.95-7.54 0-6.4 5.66-9.61 15.01-9.56v-.42c0-1.66-.68-4.42-5.14-4.42-2.5 0-5.1.78-6.81 1.87l-1.24-4.15c1.86-1.15 5.13-2.24 9.14-2.24 8.1 0 10.45 5.15 10.45 10.66v9.14c0 2.29.1 4.53.36 6.09h-5.77zm-.83-12.38c-4.52-.1-8.84.89-8.84 4.74 0 2.49 1.62 3.63 3.64 3.63a5.17 5.17 0 0 0 5-3.48c.15-.47.2-.99.2-1.4v-3.49zm12.61-4.78c0-3.43-.05-5.87-.2-8.16h5.56l.2 4.84h.22c1.24-3.59 4.2-5.4 6.9-5.4.63 0 1 .04 1.52.15v6.03c-.53-.1-1.1-.21-1.88-.21-3.06 0-5.14 1.97-5.72 4.83a10.9 10.9 0 0 0-.2 1.97v13.1h-6.4V34.22m18.15-19.75h6.45v15.08h.1a8.58 8.58 0 0 1 3.17-2.91 8.66 8.66 0 0 1 4.37-1.15c4.31 0 8.84 2.86 8.84 10.97v14.91h-6.4V37.18c0-3.68-1.35-6.44-4.88-6.44a5.22 5.22 0 0 0-5.2 5.5v15.14h-6.45v-36.9m34 26.03c.15 4.58 3.74 6.55 7.8 6.55 2.96 0 5.09-.42 7-1.14l.95 4.42c-2.19.88-5.2 1.56-8.84 1.56-8.2 0-13.04-5.05-13.04-12.8 0-7 4.26-13.6 12.37-13.6 8.2 0 10.9 6.75 10.9 12.3 0 1.2-.1 2.14-.2 2.71h-16.94zm11.12-4.47c.05-2.34-.99-6.18-5.25-6.18-3.94 0-5.6 3.58-5.87 6.18h11.12zm11.16-21.57h6.44v36.9h-6.44v-36.9zm36.49 0v29.79c0 2.6.1 5.4.2 7.12h-5.71l-.26-4h-.1c-1.5 2.8-4.58 4.57-8.27 4.57-6.03 0-10.8-5.15-10.8-12.95-.06-8.47 5.24-13.5 11.32-13.5 3.49 0 5.98 1.45 7.12 3.32h.1V14.46h6.4zm-6.4 22.14a8.64 8.64 0 0 0-.15-1.66 5.6 5.6 0 0 0-5.5-4.52c-4.12 0-6.4 3.64-6.4 8.37 0 4.62 2.28 8 6.34 8 2.6 0 4.89-1.77 5.5-4.52.17-.57.21-1.2.21-1.87v-3.8zm14.02 15.34c-1.2 0-2.08-1.1-2.03-2.34 0-1.36.88-2.34 2.13-2.34s2.08.98 2.08 2.34c0 1.24-.83 2.34-2.13 2.34h-.05m27.84-37.53V45.6c0 1.81.06 4 .2 5.76h-2.22l-.21-4.73h-.1c-1.3 2.76-4.27 5.3-8.89 5.3-6.19 0-10.76-5.14-10.76-12.57-.05-8.32 5.1-13.51 11.23-13.51 4.3 0 7.06 2.23 8.16 4.42h.1V14.4h2.49zm-2.5 21.88c0-.67-.05-1.56-.25-2.28a7.99 7.99 0 0 0-7.85-6.08c-5.46 0-8.89 4.72-8.89 11.17 0 5.6 2.81 10.76 8.74 10.76 3.58 0 6.96-2.4 8-6.5.2-.62.26-1.3.26-2.08V36.3zm10.85 2.34c0 7.95 4.36 11.12 9.5 11.12 3.65 0 5.52-.72 6.92-1.4l.63 1.92c-.94.52-3.49 1.62-7.85 1.62-7.18 0-11.64-5.2-11.64-12.53 0-8.32 4.78-13.51 11.22-13.51 8.16 0 9.72 7.69 9.72 11.27 0 .68 0 1.04-.1 1.5h-18.4zm15.9-1.97c.06-3.49-1.4-8.73-7.43-8.73-5.5 0-7.85 4.88-8.32 8.73h15.75zM101.56 57.29h23.83v4.34h-23.83v-4.34z"/><path fill="#FFF" d="M139.67 57.3h217.76v4.33H139.67v-4.34zM62.51 3.36L43.54.25 22.59 3.64C22.25 5.9 19.57 28.46.72 51.58L43.54 75.8 81.6 50.39C68.09 35.89 62.5 3.37 62.5 3.37"/><path fill="#F18709" d="M24.19 28.5h3.88c4.83-.52 4.99-7.59 4.52-10.62-.3-1.98-1.07-4.05-3.24-4.96-1.8-.75-6-.81-7.66.29-3.5 2.32-3.27 15.3 2.5 15.3m42 18.9c-1.96-.57-5.5-.67-7.2.53-3.06 2.2-3.33 14.51 2.23 14.51h2.31l5.48-3.65c.39-1.47.4-3.1.36-4.38-.1-2.43 0-6.08-3.18-7.01"/><path fill="#F1870F" d="M62.51 3.37L43.54.25 22.59 3.64c-.34 2.27-.33 2.94-.93 5.17 3.05-2.2 15.93-2.2 17.1 4.89.54 3.33.66 5.27.6 8.66-.08 5.76-1.14 7.46-3.43 9.31a15.25 15.25 0 0 1-9.3 3.21c-6.3 0-9.56-1-12.55-4.18C7.94 43.4 1 51.21.72 51.58l20.5 11.6-3.05-13.24 6.51 3.79 3.42-13.86 18.97-5.5 8.09-23.25 3.3.24 3.32-8-10.43 35.62-18.38 5.94-3.13 11.8 4.45 2.6-12.08 4.42L43.54 75.8l12.79-8.54a8.5 8.5 0 0 1-4.87-2.71c-2.45-2.64-2.25-6.52-2.13-9.74.12-3.32-.47-7.35 1.56-10.3 1.8-2.6 5.49-4.08 8.8-4.3 3.82-.26 3.69-.08 7.5-.08 3.14 0 8.08 2.58 8.72 5.5.64 2.91 1.35 5.52.64 8.09.5-.3 4.97-3.42 5.05-3.34C68.09 35.89 62.5 3.37 62.5 3.37"/></svg>