<svg class="companyLogo-image" enable-background="new 0 0 359 76" height="76" viewBox="0 0 359 76" width="359" x="0" xmlns="http://www.w3.org/2000/svg" y="0">
<path d="M102.926 44.401c2.085 1.196 5.205 2.232 8.476 2.232 4.104 0 6.392-1.924 6.392-4.78 0-2.652-1.768-4.212-6.236-5.82-5.767-2.08-9.46-5.147-9.46-10.187 0-5.716 4.785-10.084 12.372-10.084 3.792 0 6.6.832 8.416 1.768l-1.556 5.144c-1.252-.676-3.692-1.664-6.968-1.664-4.056 0-5.82 2.184-5.82 4.212 0 2.704 2.028 3.952 6.704 5.768 6.084 2.288 9.044 5.351 9.044 10.395 0 5.612-4.26 10.5-13.304 10.5-3.692 0-7.54-1.044-9.46-2.184l1.4-5.3M129.347 34.474c0-3.328-.104-6.028-.208-8.42h5.611l.312 3.896h.104c1.868-2.856 4.832-4.468 8.68-4.468 5.824 0 10.656 4.988 10.656 12.887 0 9.148-5.768 13.568-11.536 13.568-3.176 0-5.824-1.352-7.124-3.38h-.104v13.095h-6.391V34.474zm6.391 6.287c0 .624.052 1.196.208 1.768.624 2.6 2.908 4.468 5.612 4.468 4.056 0 6.448-3.376 6.448-8.368 0-4.467-2.184-8.107-6.288-8.107-2.656 0-5.096 1.924-5.72 4.732a5.744 5.744 0 0 0-.26 1.607v3.9zM173.898 51.365l-.412-2.808h-.16c-1.556 1.976-4.204 3.38-7.48 3.38-5.096 0-7.951-3.692-7.951-7.536 0-6.396 5.663-9.615 15.019-9.563v-.416c0-1.664-.68-4.42-5.148-4.42-2.492 0-5.087.78-6.808 1.872l-1.243-4.156c1.867-1.144 5.139-2.236 9.143-2.236 8.108 0 10.448 5.148 10.448 10.656v9.143c0 2.288.104 4.524.364 6.084h-5.772zm-.828-12.372c-4.524-.104-8.836.884-8.836 4.732 0 2.492 1.612 3.636 3.64 3.636 2.548 0 4.416-1.66 4.988-3.48.156-.468.208-.988.208-1.404v-3.484zM185.684 34.214c0-3.432-.052-5.872-.208-8.16h5.56l.208 4.832h.212c1.244-3.584 4.208-5.404 6.912-5.404.62 0 .984.052 1.508.156v6.028c-.524-.104-1.096-.208-1.872-.208-3.068 0-5.148 1.976-5.72 4.836a10.909 10.909 0 0 0-.204 1.971v13.1h-6.396V34.214M203.832 14.462h6.448v15.076h.1a8.583 8.583 0 0 1 3.172-2.912c1.248-.728 2.752-1.144 4.368-1.144 4.312 0 8.836 2.86 8.836 10.968v14.915h-6.396V37.173c0-3.687-1.348-6.443-4.884-6.443-2.496 0-4.26 1.664-4.94 3.588-.204.52-.256 1.191-.256 1.92v15.127h-6.448V14.462M237.827 40.501c.156 4.576 3.744 6.548 7.796 6.548 2.968 0 5.096-.416 7.016-1.144l.94 4.42c-2.184.88-5.2 1.56-8.836 1.56-8.211 0-13.047-5.044-13.047-12.788 0-7.015 4.264-13.615 12.371-13.615 8.208 0 10.912 6.756 10.912 12.315 0 1.196-.1 2.132-.208 2.704h-16.944zm11.124-4.467c.052-2.34-.988-6.188-5.248-6.188-3.947 0-5.611 3.588-5.876 6.188h11.124zM260.11 14.462h6.443v36.899h-6.444V14.462zM296.6 14.462v29.783c0 2.596.1 5.404.208 7.12h-5.72l-.26-4.004h-.104c-1.503 2.808-4.571 4.576-8.263 4.576-6.032 0-10.808-5.144-10.808-12.944-.056-8.471 5.248-13.511 11.328-13.511 3.484 0 5.975 1.456 7.12 3.328h.103V14.462h6.396zm-6.396 22.14a8.64 8.64 0 0 0-.156-1.66c-.572-2.496-2.6-4.524-5.507-4.524-4.108 0-6.392 3.64-6.392 8.367 0 4.628 2.284 8.008 6.34 8.008 2.595 0 4.888-1.772 5.507-4.524.16-.572.208-1.196.208-1.872v-3.796zM304.218 51.937c-1.196 0-2.08-1.096-2.028-2.34 0-1.352.884-2.34 2.132-2.34 1.248 0 2.076.988 2.076 2.34 0 1.244-.828 2.34-2.128 2.34h-.052M332.06 14.41v31.187c0 1.816.056 4 .208 5.768h-2.232l-.208-4.732h-.104c-1.3 2.756-4.26 5.304-8.883 5.304-6.188 0-10.764-5.144-10.764-12.58-.052-8.315 5.096-13.511 11.228-13.511 4.311 0 7.067 2.236 8.16 4.42h.103V14.41h2.492zm-2.492 21.884c0-.676-.056-1.56-.26-2.288-.832-3.328-3.791-6.08-7.847-6.08-5.46 0-8.888 4.728-8.888 11.171 0 5.612 2.808 10.76 8.732 10.76 3.583 0 6.963-2.392 8.003-6.496.204-.624.26-1.3.26-2.08v-4.987zM340.41 38.63c0 7.951 4.364 11.123 9.508 11.123 3.64 0 5.512-.728 6.911-1.404l.629 1.924c-.936.52-3.484 1.612-7.852 1.612-7.172 0-11.64-5.2-11.64-12.528 0-8.315 4.78-13.511 11.224-13.511 8.16 0 9.724 7.692 9.724 11.275 0 .676 0 1.04-.109 1.508H340.41zm15.904-1.972c.052-3.484-1.404-8.732-7.436-8.732-5.504 0-7.844 4.884-8.316 8.732h15.752zM101.557 57.293h23.833v4.333h-23.833v-4.333z" fill="currentColor"></path>
<path d="M139.673 57.293h217.754v4.333H139.673v-4.333zM62.514 3.365L43.538.253 22.586 3.638c-.338 2.275-3.011 24.825-21.87 47.94l42.822 24.231 38.06-25.423C68.09 35.89 62.514 3.365 62.514 3.365" fill="#FFF"></path><path d="M24.19 28.502h3.882c4.828-.52 4.984-7.587 4.516-10.625-.304-1.98-1.07-4.052-3.237-4.957-1.807-.75-6.006-.81-7.662.29-3.501 2.323-3.271 15.292 2.5 15.292M66.188 47.409c-1.963-.572-5.503-.672-7.189.533-3.068 2.192-3.34 14.512 2.219 14.512h2.314l5.473-3.657c.394-1.465.412-3.099.36-4.377-.096-2.431.013-6.08-3.177-7.011" fill="#F18709"></path><path d="M62.514 3.365L43.538.253 22.586 3.638c-.338 2.275-.329 2.942-.923 5.174 3.051-2.202 15.925-2.202 17.091 4.883.55 3.333.663 5.278.611 8.667-.082 5.759-1.14 7.453-3.432 9.308-2.548 2.067-6.088 3.215-9.3 3.211-6.304-.004-9.559-1.001-12.557-4.177-6.136 12.7-13.07 20.51-13.36 20.873l20.497 11.596-3.047-13.234 6.518 3.788 3.419-13.858 18.967-5.495 8.09-23.257 3.302.247 3.315-8-10.422 35.62-18.386 5.937-3.133 11.804 4.45 2.587-12.077 4.425 21.329 12.072 12.788-8.54c-1.89-.378-3.406-1.14-4.867-2.713-2.444-2.64-2.253-6.513-2.132-9.733.126-3.324-.468-7.35 1.565-10.296 1.807-2.613 5.486-4.09 8.8-4.312 3.814-.255 3.688-.078 7.497-.078 3.142 0 8.086 2.579 8.723 5.495.637 2.92 1.344 5.525.637 8.095.499-.304 4.975-3.42 5.049-3.341C68.09 35.89 62.514 3.365 62.514 3.365" fill="#F1870F"></path>
</svg>
