<svg width="599" height="117" viewBox="0 0 599 117" fill="none" xmlns="http://www.w3.org/2000/svg">
<path d="M255.139 18.6281C250.656 14.0813 245.338 10.444 239.476 7.91604C233.465 5.33466 226.988 4.01796 220.448 4.0478C214.3 4.03657 208.204 5.17909 202.477 7.41613C196.808 9.62075 191.592 12.8482 187.088 16.9379L179.179 7.74939C178.757 7.26363 178.236 6.87337 177.652 6.60454C177.068 6.3357 176.433 6.19445 175.79 6.1902H175.54C174.95 6.1902 174.366 6.30666 173.821 6.53291C173.276 6.75915 172.782 7.09075 172.365 7.50868C171.949 7.92661 171.619 8.42268 171.394 8.96846C171.169 9.51424 171.055 10.099 171.056 10.6892V112.334C171.053 113.529 171.523 114.675 172.364 115.523C173.204 116.371 174.346 116.851 175.54 116.857H194.664C195.256 116.856 195.841 116.737 196.388 116.509C196.934 116.281 197.43 115.948 197.847 115.528C198.265 115.108 198.596 114.609 198.821 114.061C199.046 113.514 199.161 112.927 199.159 112.334V53.692C199.143 50.8713 199.701 48.077 200.8 45.4795C201.853 42.9534 203.389 40.6571 205.32 38.719C207.311 36.739 209.673 35.1727 212.272 34.1105C214.87 33.0483 217.653 32.5111 220.459 32.5299C223.251 32.5126 226.016 33.0717 228.582 34.1724C233.641 36.3421 237.661 40.3912 239.797 45.4676C240.89 48.067 241.448 50.8601 241.439 53.6801V112.406C241.439 113.601 241.911 114.748 242.754 115.595C243.596 116.443 244.74 116.922 245.934 116.929H265.034C266.228 116.922 267.37 116.443 268.21 115.595C269.051 114.747 269.521 113.6 269.518 112.406V53.692C269.554 47.0697 268.243 40.5093 265.665 34.4104C263.184 28.5313 259.613 23.176 255.139 18.6281V18.6281ZM472.078 6.47584H396.725C395.535 6.48214 394.395 6.96057 393.557 7.8062C392.719 8.65183 392.25 9.79563 392.253 10.9868V30.0304C392.251 30.6196 392.366 31.2034 392.59 31.7484C392.814 32.2934 393.143 32.789 393.558 33.2068C393.973 33.6245 394.466 33.9564 395.01 34.1833C395.553 34.4102 396.136 34.5279 396.725 34.5294H401.482C402.675 34.5326 403.819 35.0092 404.661 35.8548C405.504 36.7005 405.977 37.8461 405.977 39.0404V67.3915C405.943 73.9932 407.25 80.5329 409.819 86.6136C414.878 98.4769 424.307 107.935 436.15 113.025C442.195 115.63 448.715 116.951 455.297 116.905H472.126C472.718 116.903 473.304 116.785 473.85 116.557C474.396 116.329 474.892 115.995 475.31 115.575C475.727 115.155 476.058 114.657 476.283 114.109C476.508 113.561 476.623 112.974 476.621 112.382V93.3384C476.623 92.7465 476.508 92.1602 476.283 91.613C476.057 91.0658 475.727 90.5684 475.309 90.1494C474.891 89.7303 474.395 89.3979 473.849 89.171C473.303 88.9442 472.717 88.8274 472.126 88.8274H455.25C452.388 88.835 449.555 88.2557 446.925 87.1254C444.397 86.039 442.097 84.4842 440.146 82.543C438.211 80.6005 436.673 78.3005 435.615 75.7706C434.509 73.1339 433.955 70.2985 433.985 67.4391V39.088C433.985 37.8957 434.457 36.7519 435.297 35.9066C436.137 35.0613 437.278 34.5833 438.469 34.577H472.114C473.306 34.577 474.45 34.103 475.293 33.2593C476.136 32.4155 476.61 31.2712 476.61 30.078V11.0344C476.616 10.436 476.503 9.84235 476.278 9.28799C476.053 8.73362 475.72 8.22962 475.298 7.80537C474.876 7.38111 474.374 7.0451 473.822 6.81684C473.269 6.58859 472.676 6.47265 472.078 6.47584V6.47584ZM594.576 4.42868H594.385C593.718 4.42588 593.058 4.57307 592.455 4.85941C591.852 5.14575 591.321 5.56392 590.901 6.08309L584.3 13.9981C583.924 14.4536 583.461 14.8301 582.938 15.1057C582.416 15.3812 581.844 15.5504 581.256 15.6036C580.667 15.6567 580.074 15.5927 579.511 15.4152C578.948 15.2377 578.425 14.9502 577.973 14.5694C576.368 13.2006 574.679 11.9033 572.931 10.6535C569.958 8.52358 566.807 6.65585 563.511 5.07139C560.247 3.50015 556.838 2.25242 553.331 1.346C549.864 0.458589 546.301 0.00678724 542.722 0.00104511C535.214 -0.0447713 527.774 1.41625 520.839 4.29775C514.119 7.06122 508.017 11.1401 502.893 16.2952C497.688 21.6253 493.579 27.9255 490.798 34.8389C487.789 42.3805 486.29 50.4401 486.386 58.56C486.238 67.0012 487.737 75.3901 490.798 83.2572C493.526 90.1387 497.643 96.3827 502.893 101.599C508.013 106.598 514.111 110.484 520.804 113.013C527.793 115.667 535.212 117.002 542.687 116.952C546.246 116.949 549.791 116.493 553.236 115.596C556.725 114.694 560.121 113.467 563.38 111.93C566.675 110.381 569.827 108.545 572.8 106.443C574.489 105.253 576.106 104.062 577.688 102.765C578.16 102.38 578.707 102.096 579.294 101.93C579.88 101.765 580.495 101.722 581.099 101.803C581.703 101.884 582.284 102.089 582.806 102.404C583.328 102.719 583.78 103.137 584.134 103.634L590.865 113.001C591.419 113.778 592.205 114.358 593.111 114.658C594.016 114.957 594.994 114.959 595.901 114.665C596.808 114.37 597.597 113.794 598.155 113.019C598.712 112.245 599.008 111.313 599 110.359V8.92774C599.003 7.73862 598.536 6.59658 597.7 5.7513C596.864 4.90601 595.728 4.42621 594.54 4.41678L594.576 4.42868ZM568.554 69.7719C567.129 73.3033 565.092 76.5549 562.536 79.377C560.011 82.1507 556.99 84.4275 553.628 86.0899C550.249 87.7607 546.528 88.6244 542.758 88.6132C539.053 88.6336 535.375 87.9678 531.912 86.6493C528.574 85.3883 525.554 83.4097 523.063 80.8529C520.449 78.1532 518.424 74.939 517.117 71.4145C514.233 63.0757 514.233 54.0087 517.117 45.6699C518.435 42.1505 520.458 38.9384 523.063 36.2314C525.56 33.6849 528.579 31.7113 531.912 30.447C535.376 29.1306 539.053 28.4648 542.758 28.4831C546.528 28.4667 550.25 29.3306 553.628 31.0064C556.996 32.6585 560.019 34.9366 562.536 37.7192C565.091 40.5417 567.128 43.7933 568.554 47.3243C571.489 54.5269 571.489 62.5932 568.554 69.7957V69.7719ZM23.8573 6.27353H4.50743C3.91607 6.27196 3.33021 6.38717 2.78342 6.61256C2.23662 6.83796 1.73962 7.1691 1.32092 7.58703C0.902206 8.00496 0.57001 8.50149 0.343345 9.04811C0.11668 9.59474 -2.06936e-06 10.1807 0 10.7726V112.418C-4.14312e-06 113.615 0.474516 114.764 1.31948 115.612C2.16445 116.459 3.3109 116.937 4.50743 116.941H23.8216C24.4135 116.939 24.9993 116.821 25.5456 116.593C26.0918 116.364 26.5879 116.031 27.0053 115.611C27.4228 115.191 27.7535 114.693 27.9786 114.145C28.2036 113.597 28.3187 113.01 28.3171 112.418V10.7726C28.3171 9.58141 27.8451 8.43885 27.0046 7.59546C26.1641 6.75206 25.0237 6.27668 23.8335 6.27353H23.8573ZM102.945 13.9386C103.505 13.2837 103.866 12.4824 103.986 11.629C104.106 10.7756 103.98 9.90567 103.623 9.12159C103.265 8.33751 102.692 7.67193 101.969 7.20321C101.246 6.73449 100.405 6.48212 99.5439 6.47584H77.8512C77.2034 6.47665 76.5635 6.61869 75.9761 6.89207C75.3887 7.16544 74.8679 7.56361 74.4498 8.05886L30.8622 58.7743C30.1357 59.5949 29.7346 60.6534 29.7346 61.7498C29.7346 62.8462 30.1357 63.9047 30.8622 64.7254L74.4498 115.429C74.869 115.922 75.3903 116.318 75.9777 116.589C76.565 116.86 77.2043 117.001 77.8512 117H99.5201C100.383 116.996 101.227 116.744 101.952 116.275C102.677 115.805 103.252 115.138 103.61 114.352C103.968 113.565 104.093 112.693 103.971 111.838C103.849 110.982 103.485 110.18 102.922 109.525L64.21 64.7135C63.4883 63.8905 63.0903 62.8329 63.0903 61.7379C63.0903 60.643 63.4883 59.5854 64.21 58.7624L102.945 13.9386ZM145.058 6.26161H144.82C144.174 6.26175 143.535 6.40227 142.947 6.67351C142.36 6.94475 141.839 7.34025 141.419 7.83272L140.515 8.892L122.545 29.7328C121.834 30.5511 121.445 31.6003 121.451 32.6846V112.43C121.449 113.02 121.564 113.606 121.788 114.152C122.013 114.699 122.343 115.195 122.759 115.614C123.175 116.033 123.67 116.366 124.215 116.593C124.76 116.821 125.344 116.939 125.934 116.941H145.034C146.226 116.934 147.366 116.456 148.206 115.611C149.046 114.766 149.518 113.622 149.518 112.43V10.7726C149.518 9.58031 149.046 8.43653 148.206 7.59124C147.366 6.74596 146.226 6.2679 145.034 6.26161H145.058ZM374.782 58.0363C371.539 55.093 367.765 52.7946 363.662 51.264C359.318 49.6495 354.715 48.8428 350.081 48.8835H320.812C319.885 48.895 318.967 48.7125 318.115 48.3476C317.263 47.9828 316.496 47.4436 315.865 46.7649C315.196 46.0934 314.67 45.2943 314.317 44.415C313.963 43.5358 313.79 42.5945 313.807 41.647C313.813 39.7885 314.553 38.0078 315.865 36.6925C317.177 35.3773 318.955 34.6341 320.812 34.6247H373.26C374.45 34.6215 375.591 34.1461 376.431 33.3027C377.272 32.4593 377.744 31.3168 377.744 30.1256V10.9868C377.745 10.396 377.63 9.81064 377.406 9.2642C377.181 8.71775 376.852 8.2209 376.435 7.80202C376.019 7.38314 375.524 7.05041 374.979 6.82287C374.435 6.59533 373.85 6.47741 373.26 6.47584H320.8C316.095 6.4434 311.432 7.37503 307.1 9.21338C298.708 12.7496 292.041 19.4433 288.535 27.8523C286.729 32.2101 285.799 36.8816 285.799 41.5993C285.799 46.3171 286.729 50.9886 288.535 55.3464C292.063 63.7798 298.716 70.5191 307.1 74.152C311.423 76.0237 316.089 76.9723 320.8 76.9371H350.984C352.479 76.9259 353.924 77.4718 355.039 78.4684C356.154 79.4651 356.858 80.8412 357.014 82.3288C357.089 83.1541 356.99 83.986 356.725 84.771C356.46 85.556 356.033 86.2769 355.474 86.8876C354.914 87.4982 354.233 87.9851 353.474 88.3171C352.715 88.6491 351.896 88.8189 351.068 88.8155H290.271C289.682 88.8171 289.099 88.9347 288.556 89.1616C288.013 89.3886 287.519 89.7204 287.104 90.1382C286.689 90.556 286.36 91.0515 286.136 91.5965C285.912 92.1415 285.798 92.7253 285.799 93.3146V112.358C285.798 112.947 285.912 113.531 286.136 114.076C286.36 114.621 286.689 115.117 287.104 115.535C287.519 115.952 288.013 116.284 288.556 116.511C289.099 116.738 289.682 116.856 290.271 116.857H350.021C354.613 116.866 359.16 115.962 363.401 114.199C367.641 112.436 371.489 109.848 374.723 106.586C377.898 103.362 380.446 99.5766 382.239 95.4212C384.101 91.1 385.049 86.4396 385.022 81.7337C385.071 77.1447 384.121 72.6 382.239 68.4151C380.456 64.4977 377.914 60.9739 374.758 58.0482L374.782 58.0363Z" fill="white"/>
</svg>
