<svg xmlns="http://www.w3.org/2000/svg" width="800" height="600" fill="none" viewBox="0 0 800 600"><g id="404"><g id="Mask Group"><mask id="mask0" width="800" height="600" x="0" y="0" mask-type="alpha" maskUnits="userSpaceOnUse"><rect id="Rectangle 1" width="800" height="600" fill="url(#paint0_radial)"/></mask><g mask="url(#mask0)"><path id="Vector" fill="#D7D7D7" d="M0 0H800V422H0V0Z"/></g></g><g id="details"><g id="Group 1"><g id="Group"><path id="Vector_2" fill="url(#paint1_linear)" d="M449.8 63H260C260 63 317.15 192 355 192C392.85 192 450 63 450 63H449.8Z" opacity=".65"/><path id="Vector_3" fill="#CFD8DC" d="M340 202H370V232H340V202Z"/><path id="Vector_4" fill="url(#paint2_linear)" d="M355 242C317.41 245 260 422 260 422H450C450 422 392.59 245 355 242Z" opacity=".8"/></g><g id="Group_2"><path id="Vector_5" fill="url(#paint3_linear)" d="M289.8 63H100C100 63 157.15 192 195 192C232.85 192 290 63 290 63H289.8Z" opacity=".65"/><path id="Vector_6" fill="#CFD8DC" d="M180 202H210V232H180V202Z"/><path id="Vector_7" fill="url(#paint4_linear)" d="M195 242C157.41 245 100 422 100 422H290C290 422 232.59 245 195 242Z" opacity=".8"/></g><g id="Group_3"><path id="Vector_8" fill="#B0BEC5" d="M460 171H590V422H460V171Z"/><path id="Vector_9" stroke="#78909C" stroke-miterlimit="10" stroke-width="15" d="M462.5 422V174.5H587.5V422"/><path id="Vector_10" fill="#fff" d="M536 235.11C536 239.277 535.11 242.467 533.33 244.68C531.55 246.893 528.947 248 525.52 248C522.14 248 519.52 246.91 517.75 244.75C515.98 242.59 515.04 239.47 515 235.42V229.87C515 225.65 515.9 222.46 517.7 220.27C519.5 218.08 522.09 217 525.48 217C528.87 217 531.48 218.08 533.25 220.24C535.02 222.4 535.96 225.51 536 229.56V235.11ZM529.83 229.01C529.961 227.126 529.599 225.241 528.78 223.54C528.08 222.404 526.811 221.746 525.48 221.83C524.193 221.746 522.962 222.371 522.27 223.46C521.46 225.03 521.081 226.786 521.17 228.55V235.89C521.044 237.775 521.387 239.661 522.17 241.38C522.842 242.564 524.132 243.259 525.49 243.17C526.817 243.269 528.083 242.601 528.75 241.45C529.513 239.803 529.857 237.992 529.75 236.18V229L529.83 229.01ZM558.49 236.12H562V241H558.54V247.55H552.48V241H539.65V237.21L552.37 217.21H558.49V236.12ZM545.68 236.12H552.43V225.43L552.04 226.11L545.68 236.12ZM506 236.12H509.46V241H506V247.55H499.94V241H487.12V237.21L499.85 217.21H506V236.12ZM493.19 236.12H499.94V225.43L499.54 226.11L493.19 236.12Z"/><path id="Vector_11" fill="#607D8B" d="M555 302H570V336H555V302Z"/><path id="Vector_12" fill="#78909C" d="M546 319H566V323H546V319Z"/><path id="Vector_13" fill="#000" d="M558 306H567V315H558V306Z"/></g></g><path id="Vector_14" fill="url(#paint5_linear)" d="M393 461C393 472.046 384.046 481 373 481H205C193.954 481 185 472.046 185 461H393Z" opacity=".2"/><path id="Vector_15" fill="#E0E0E0" d="M590 407H800V422H590V407ZM0 407H459V422H0V407Z"/><path id="Vector_16" fill="#E0E0E0" d="M5 332H35.08V412H5V332ZM655 332H685V412H655V332ZM595 332H625V412H595V332Z"/><path id="Vector_17" fill="#F5F5F5" d="M625 332H655V412H625V332Z"/><path id="Vector_18" fill="#E0E0E0" d="M715 332H745V412H715V332ZM775 332H800V412H775V332Z"/><path id="Vector_19" fill="#F5F5F5" d="M745 332H775V412H745V332ZM685 332H715V412H685V332Z"/><path id="Vector_20" fill="#D7D7D7" d="M0 292H460V332H0V292ZM590 292H800V332H590V292Z"/><path id="Vector_21" fill="#F5F5F5" d="M335 332H365V412H335V332Z"/><path id="Vector_22" fill="#E0E0E0" d="M305 332H335V412H305V332ZM365 332H395V412H365V332ZM245 332H275V412H245V332ZM185 332H215.08V412H185V332Z"/><path id="Vector_23" fill="#F5F5F5" d="M395 332H425V412H395V332Z"/><path id="Vector_24" fill="#E0E0E0" d="M425 332H455V412H425V332Z"/><path id="Vector_25" fill="#F5F5F5" d="M275 332H305V412H275V332ZM215 332H245V412H215V332ZM155 332H185V412H155V332Z"/><path id="Vector_26" fill="#E0E0E0" d="M125 332H155.08V412H125V332Z"/><path id="Vector_27" fill="#F5F5F5" d="M95 332H125V412H95V332Z"/><path id="Vector_28" fill="#E0E0E0" d="M65 332H95.08V412H65V332Z"/><path id="Vector_29" fill="#F5F5F5" d="M35 332H65V412H35V332Z"/></g><g id="person"><path id="Vector_30" fill="#191919" d="M329.63 300.13L339 301C339 301 340.06 306.63 337.75 309.25C335.44 311.87 334.31 312.94 332 313C329.69 313.06 326.88 305.25 329.63 300.13Z"/><path id="Vector_31" fill="#FFCCBC" d="M339 301C340.588 301.082 342.18 300.998 343.75 300.75C345.61 300.56 347.1 300 347.5 300C348.5 300 347.99 301.62 346 303C344.923 303.817 343.675 304.381 342.35 304.65C342.879 305.809 343.49 306.929 344.18 308C347.18 311.77 351.73 311.57 350.88 312.5C349.77 313.68 336.8 316.9 336.8 316.9C334.534 314.811 332.465 312.518 330.62 310.05C328.44 306.87 327 301 327 301H339Z"/><path id="Vector_32" fill="#FFAB91" d="M338.83 314.92C336.83 315.15 336.07 316.26 336.83 316.92C337.734 317.72 338.928 318.111 340.13 318C341.807 317.684 343.435 317.146 344.97 316.4C347.135 315.333 349.152 313.988 350.97 312.4C350.83 312.43 348.88 313.75 338.83 314.92Z"/><path id="Vector_33" fill="#212121" d="M295 256C297.28 256.841 299.62 257.509 302 258C306 258.48 311.1 259.1 315 263C316.992 265.129 318.5 267.664 319.42 270.43C320.3 272.79 322.31 278.62 323 281C323.9 284.14 328.08 291.08 330 293C333 296 339 301 339 301C339 301 336.88 300.5 333.44 303.81C330.44 306.67 329.81 310 331.56 312.92C331.56 312.92 321 305 319 303C317 301 312 292 312 292C312 292 313 305 314 313C315 321 317 323 317 333C317.06 340.825 316.37 348.637 314.94 356.33L299 370H262L257 316L250.64 310.32C249.041 308.721 248.102 306.579 248.01 304.32C247.98 303.572 248.04 302.823 248.19 302.09C249.93 293.68 255.25 271.94 256 268.96C256.49 267.01 261.32 264.57 265.11 262.6C269.11 260.53 273 258.96 273 258.96L295 256Z"/><path id="Vector_34" fill="#000" d="M297 449.9V455.9C297 458.37 296.93 459.69 299.09 460.18C300.7 460.55 305.91 461.82 306.79 462.13C311.64 463.79 316.17 465.88 320.69 465.88C322.69 465.88 324.88 465.77 326.63 464.63C326.63 464.63 326.5 459.5 319.82 458.03C311.65 455.68 310.2 447.49 310.2 447.49L297 449.9Z"/><path id="Vector_35" fill="#EEE" d="M274 258L273 270L280 286L292 302.92L296 291L299 278L297 263L286.5 268L274 258Z"/><path id="Vector_36" stroke="#212121" stroke-miterlimit="10" stroke-width="1.5" d="M286.11 299.38C286.11 299.38 288 291.63 288 271"/><path id="Vector_37" fill="#212121" d="M314.94 356.33L316.83 399.13C316.97 401.4 317.02 403.66 316.99 405.93L315.63 453C315.63 453 315 456.31 305.22 456.31C295.44 456.31 295.22 453.13 295.22 453.13L292.41 400.62L286.22 352.75L296 351L314.94 356.33Z"/><path id="Vector_38" fill="#191919" d="M267 300.63L265.25 298.25L267.5 287.25L269.25 297.88L267 300.63Z"/><path id="Vector_39" fill="#000" d="M278 459.51C277.85 461.37 278.09 461.73 276.72 462.93C275.97 463.58 273.2 465.93 272 467.04C270.683 468.536 269.2 469.878 267.58 471.04C264.766 472.85 261.523 473.885 258.18 474.04C258.07 473.338 258.01 472.63 258 471.92C258 470.14 258.24 467.67 259.69 466.11C263.98 461.51 266.58 460.11 267.87 455.96C268.649 453.407 268.951 450.732 268.76 448.07H277.83L278 459.51Z"/><path id="Vector_40" fill="#191919" d="M288.24 312L288 298.7L292.07 302.89C292.07 302.89 290.07 338.89 304.56 357.46C306.08 359.46 315 356 315 356C315 356 308.19 363.69 301.49 361.64C292.63 358.94 288.24 312 288.24 312Z"/><path id="Vector_41" fill="#212121" d="M284.88 406.75L282.66 455.25C282.66 455.25 283 461 270 461C262.75 461 261.68 456.75 261.68 456.75L260.05 403.75L264.05 343.25L293.82 350.67L284.88 406.75Z"/><path id="Vector_42" fill="#5D4037" d="M279 306L269 307.33L263 320C263 320 255.33 356.33 254.67 362.67C254.07 368.33 253.21 386.53 253.03 390.31C252.996 390.74 253.242 391.143 253.64 391.31L274 400L272 324L269 314L279 306Z"/><path id="Vector_43" fill="#6D4C41" d="M265.5 311.5C265.5 311.5 269.76 342.65 269.23 357.77C268.6 375.99 270.34 400.56 270.69 405.22C270.731 405.762 270.991 406.264 271.41 406.61C273.734 408.28 276.551 409.121 279.41 409C281.62 409.13 283.832 408.789 285.9 408C286.693 407.673 287.159 406.847 287.03 406C286.47 399 284.13 367 284.13 351C284.13 333 286.07 313.25 286.07 313.25C286.07 313.25 283.67 306.55 277.82 306.55C271.97 306.55 265.5 311.5 265.5 311.5Z"/><path id="Vector_44" fill="#BDBDBD" d="M290.35 266.94L289.06 265.65C288.209 264.801 286.831 264.801 285.98 265.65L284.69 266.94C283.831 267.802 283.831 269.198 284.69 270.06L285.98 271.35C286.842 272.209 288.238 272.209 289.1 271.35L290.39 270.06C291.233 269.184 291.215 267.794 290.35 266.94Z"/><path id="Vector_45" fill="#212121" d="M287.5 270C288.328 270 289 269.328 289 268.5C289 267.672 288.328 267 287.5 267C286.672 267 286 267.672 286 268.5C286 269.328 286.672 270 287.5 270Z"/><path id="Vector_46" fill="#fff" d="M275.9 253.1L272 260C272 260 271 265 275 268C280.12 271.84 282 273 282 273C283.919 270.62 285.491 267.981 286.67 265.16C283.352 264.622 280.282 263.071 277.88 260.72C273.64 256.72 275.9 253.1 275.9 253.1ZM291 258L297 259L293 271C290.69 271 288.09 265.08 288.09 265.08C289.26 263.91 288.81 264.21 289.41 263.08C290.18 261.63 291.2 259.62 291 258Z"/><path id="Vector_47" fill="#424242" d="M295.38 256.13C295.38 256.13 302 262 304 270L300 273L304 276L292 302.92C292 302.92 293.05 299 294 281C295 262 291 258 291 258L295.38 256.13Z"/><path id="Vector_48" fill="#FFCCBC" d="M293 229C294.08 229 294.23 230.85 295 233C295.65 234.82 296.54 235.75 296.66 236.87C296.78 237.99 296.88 239.01 297 240.13C297.12 241.25 297.38 243.13 297.63 244.38C297.833 245.409 297.957 246.452 298 247.5C298.03 249.336 297.96 251.172 297.79 253C297.16 256.25 291 258 291 258C291 258 292.05 265.33 287.05 265.33C285.63 265.33 277.56 265.64 274.56 257.64C272.2 251.36 272 253 272 253C272 253 274 251 274 244C274 237 278.93 229 286 229H293Z"/><path id="Vector_49" fill="#000" d="M273 228C275.5 225.5 278 224 284 224C293 224 294 228 294 230C294 231 292 232 292 232C290.422 231.32 288.718 230.98 287 231C283.05 231 282 232.25 282 234V237C282 240 281 240 281 242V247H279C279 247 279 242 276.57 242C274.69 242 274 243 274 245C274.167 246.826 274.862 248.563 276 250V254C276 259 271.48 260.5 269.52 260.5C267.918 260.135 266.838 258.635 267 257C267 253 270.51 251.27 271.65 250.29C271.872 250.1 272 249.822 272 249.53V248.38C271.998 248.15 271.917 247.927 271.77 247.75C270.431 246.039 269.559 244.009 269.24 241.86C269.08 240.915 269 239.958 269 239C269 234 270 231 273 228Z"/><path id="Vector_50" fill="#424242" d="M274.57 258.13L272 260L269 273L273 276L271 281C271 281 282 292.59 292 302.92C292 302.92 274.24 274.8 274.57 258.13Z"/><path id="Vector_51" stroke="#000" stroke-miterlimit="10" stroke-width="1.5" d="M304 326.5C307.554 326.368 310.971 325.099 313.75 322.88M302.57 290C305.243 289.858 307.878 289.302 310.38 288.35L302.57 290Z"/><path id="Vector_52" fill="#795548" d="M279.68 310.59C284.1 317.4 280.43 345.18 283.61 350.93C283.61 350.93 294 350.32 294 347C293.941 345.613 293.601 344.252 293 343L294 341C287.48 331.5 290.53 316.09 279.68 310.59Z"/><path id="Vector_53" fill="#8D6E63" d="M299 341.38C298.44 335.96 294.92 329.48 292 321.58C289.87 315.78 285.52 307.76 281 303C279.36 301.28 276 299 273 299C271 299 269 298 266 298C258 298 253.29 304.64 252.34 308.32C248.78 322.15 246 342 246 342C246 342 239 346 239 349C239 352 240.86 357.1 243.09 358.61C245.32 360.12 244.54 358.17 246.67 359.44C250.154 361.279 254.063 362.163 258 362C262.075 361.907 266.115 361.233 270 360L267 352L271 349.88C271 349.88 269 328.81 269 315.75C269 311.55 272.63 305.13 278.6 309.41C279.038 309.708 279.406 310.097 279.68 310.55C290.53 316.05 286.48 333.46 293 342.96C295.47 343 299 342.5 299 341.38Z"/><path id="Vector_54" fill="#fff" d="M278 314.25V306C280.5 307.63 284.13 307 288 307C287.17 310.37 287 323 287 323L280.9 322.64L278 314.25Z"/><path id="Vector_55" fill="#FFCCBC" d="M281 311.93C281.66 312.53 283.81 314.16 283.81 314.16L285.13 315.49C285.883 316.248 286.176 317.348 285.9 318.38L285.01 321.84C284.753 322.76 284.074 323.503 283.18 323.84L280.87 324.75C280.216 325.011 279.492 325.039 278.82 324.83L273.88 323.32C273.88 323.32 271 322.6 271 318.08C271 313.56 273.6 310.97 276.11 310.97C279.07 311 280.09 311.1 281 311.93Z"/><path id="Vector_56" fill="#86665A" d="M260 305C260 305 256.54 306 253.75 318.41C251.42 328.78 251 345.49 251 345.49V348.64C250.908 349.128 251.032 349.631 251.34 350.02L252.15 350.83C252.347 351.023 252.664 351.02 252.857 350.823C252.949 350.729 253.001 350.602 253 350.47V346.88C253 346.88 253.13 329.49 255.25 318.39C257.53 306.46 260 305 260 305ZM266 303C266 303 260.48 306.57 259.35 320.08C257.83 338.3 254.97 340.87 256.35 341.56C257.73 342.25 259.71 342.82 260.68 337.56C261.41 333.56 261.1 329.56 261.55 320.1C261.86 313.29 263.15 307.77 266 303Z"/></g></g><defs><radialGradient id="paint0_radial" cx="0" cy="0" r="1" gradientTransform="translate(400 300) rotate(90) scale(300 400)" gradientUnits="userSpaceOnUse"><stop stop-color="#fff"/><stop offset="1" stop-color="#C4C4C4" stop-opacity="0"/></radialGradient><linearGradient id="paint1_linear" x1="355" x2="355" y1="63" y2="192" gradientUnits="userSpaceOnUse"><stop stop-color="#fff" stop-opacity="0"/><stop offset="1" stop-color="#fff"/></linearGradient><linearGradient id="paint2_linear" x1="355" x2="355" y1="242" y2="422" gradientUnits="userSpaceOnUse"><stop stop-color="#fff"/><stop offset="1" stop-color="#fff" stop-opacity="0"/></linearGradient><linearGradient id="paint3_linear" x1="195" x2="195" y1="63" y2="192" gradientUnits="userSpaceOnUse"><stop stop-color="#fff" stop-opacity="0"/><stop offset="1" stop-color="#fff"/></linearGradient><linearGradient id="paint4_linear" x1="195" x2="195" y1="242" y2="422" gradientUnits="userSpaceOnUse"><stop stop-color="#fff"/><stop offset="1" stop-color="#fff" stop-opacity="0"/></linearGradient><linearGradient id="paint5_linear" x1="289" x2="289" y1="481" y2="461" gradientUnits="userSpaceOnUse"><stop stop-color="#fff"/><stop offset="1" stop-color="#E0E0E0"/></linearGradient></defs></svg>