<svg xmlns="http://www.w3.org/2000/svg" width="81" height="92"><g fill="none" fill-rule="evenodd"><circle cx="40.59" cy="51.09" r="40" fill="#DAE1E9"/><ellipse cx="40.59" cy="80.99" fill="#D6DAFF" rx="12" ry="1.5"/><path fill="#FFF" d="M37.09 74.59h7v3h-7z"/><path stroke="#2F495E" stroke-linecap="round" stroke-linejoin="round" d="M37.09 74.59h7v3h-7z"/><path fill="#00C58E" d="M56.4 69.59H24.78c-.3810765 0-.69-.3089235-.69-.69V53.28c0-2.0379307 1.6520693-3.69 3.69-3.69H53.4c2.0379307 0 3.69 1.6520693 3.69 3.69V68.9c0 .3810765-.3089235.69-.69.69z"/><path fill="#FFF" stroke="#2F495E" stroke-linecap="round" stroke-linejoin="round" d="M46.09 77.59h-11c-1.1045695 0-2 .8954305-2 2v1h15v-1c0-1.1045695-.8954305-2-2-2zM54.09 74.59h-27c-1.6568542 0-3-1.3431458-3-3v-2h33v2c0 1.6568542-1.3431458 3-3 3z"/><path fill="#FFF" d="M24.09 69.59v-17c0-1.6568542 1.3431458-3 3-3h17l-20 20z"/><path stroke="#2F495E" stroke-linecap="round" stroke-linejoin="round" d="M57.09 69.59h-33v-17c0-1.6568542 1.3431458-3 3-3h27c1.6568542 0 3 1.3431458 3 3v17z"/><circle cx="40.59" cy="72.09" r="1" stroke="#2F495E"/><path fill="#FFF" stroke="#2F495E" stroke-linecap="round" stroke-linejoin="round" d="M34.37 57.8c.0641504.2360594.0316477.4879477-.0903239.6999907-.1219716.212043-.3233684.3667798-.5596761.4300093l-11.87 3.18c-.2360594.0641504-.4879477.0316477-.6999907-.0903239-.212043-.1219716-.3667798-.3233684-.4300093-.5596761l-3.79-14.15c-.0639143-.2347738-.0311457-.4853654.0909877-.6958107S17.3444457 46.250975 17.58 46.19L25.79 44l5.77 3.33 2.81 10.47z"/><path fill="#FFF" stroke="#2F495E" stroke-linecap="round" stroke-linejoin="round" d="M25.79 43.99l1.22 4.54 4.55-1.21z"/><path stroke="#2F495E" stroke-linecap="round" stroke-linejoin="round" d="M23.06 52.08l-1.58 3.16 3.16 1.59M27.34 50.67l3.15 1.59-1.58 3.15M25.59 55.59l.5-4"/><path fill="#FFF" d="M62.84 60.33c-.1270303.4700932-.6082718.7508174-1.08.63l-14.52-3.89c-.4618093-.1315017-.7390561-.6023812-.63-1.07l3-11.1c.0584605-.2270189.2060626-.4208386.4093687-.5375513.203306-.1167128.4451091-.1464405.6706313-.0824487l2.56.68 1.25 2.17 10.25 2.74c.4714666.1315636.7513469.615801.63 1.09l-2.54 9.37z"/><path stroke="#2F495E" stroke-linecap="round" stroke-linejoin="round" d="M62.84 60.33c-.1270303.4700932-.6082718.7508174-1.08.63l-14.52-3.89c-.4618093-.1315017-.7390561-.6023812-.63-1.07l3-11.1c.0584605-.2270189.2060626-.4208386.4093687-.5375513.203306-.1167128.4451091-.1464405.6706313-.0824487l2.56.68 1.25 2.17 10.25 2.74c.4714666.1315636.7513469.615801.63 1.09l-2.54 9.37z"/><path fill="#FFF" d="M60.32 12.82a7.10000166 7.10000166 0 0 0 .2-1.61c.0106876-2.63926099-1.4808358-5.05478268-3.8452935-6.22745172C54.3102488 3.80987924 51.4846361 4.08428763 49.39 5.69c-3.7739541-4.43899059-9.9158529-6.05321834-15.3846874-4.04343838C28.536478 3.65634157 24.901441 8.86356328 24.9 14.69v.08a8.27001883 8.27001883 0 0 0-.87-.08c-3.838379 0-6.95 3.111621-6.95 6.95s3.111621 6.95 6.95 6.95h31.28c3.780478-.0032317 7.1240828-2.4529515 8.2666588-6.0566364C64.7192349 18.9296788 63.3979736 15.0009272 60.31 12.82h.01z"/><path stroke="#2F495E" stroke-linecap="round" stroke-linejoin="round" d="M60.32 12.82a7.10000166 7.10000166 0 0 0 .2-1.61c.0106876-2.63926099-1.4808358-5.05478268-3.8452935-6.22745172C54.3102488 3.80987924 51.4846361 4.08428763 49.39 5.69c-3.7739541-4.43899059-9.9158529-6.05321834-15.3846874-4.04343838C28.536478 3.65634157 24.901441 8.86356328 24.9 14.69v.08a8.27001883 8.27001883 0 0 0-.87-.08c-3.838379 0-6.95 3.111621-6.95 6.95s3.111621 6.95 6.95 6.95h31.28c3.780478-.0032317 7.1240828-2.4529515 8.2666588-6.0566364C64.7192349 18.9296788 63.3979736 15.0009272 60.31 12.82h.01z"/><path fill="#00C58E" d="M48.91 23c-.3751365.3755541-.8841815.5865733-1.415.5865733-.5308185 0-1.0398635-.2110192-1.415-.5865733L43 19.91v18.18c0 1.3807119-1.1192881 2.5-2.5 2.5s-2.5-1.1192881-2.5-2.5V19.91L34.91 23c-.7814829.7814829-2.0485171.7814829-2.83 0-.7814829-.7814829-.7814829-2.0485171 0-2.83l7-7c.3774377-.374373.888394-.5830735 1.42-.58.528145-.0004215 1.0350171.2080791 1.41.58l7 7c.3755541.3751365.5865733.8841815.5865733 1.415 0 .5308185-.2110192 1.0398635-.5865733 1.415z"/><path stroke="#2F495E" stroke-linejoin="round" d="M48.91 23c-.3751365.3755541-.8841815.5865733-1.415.5865733-.5308185 0-1.0398635-.2110192-1.415-.5865733L43 19.91v18.18c0 1.3807119-1.1192881 2.5-2.5 2.5s-2.5-1.1192881-2.5-2.5V19.91L34.91 23c-.7814829.7814829-2.0485171.7814829-2.83 0-.7814829-.7814829-.7814829-2.0485171 0-2.83l7-7c.3774377-.374373.888394-.5830735 1.42-.58.528145-.0004215 1.0350171.2080791 1.41.58l7 7c.3755541.3751365.5865733.8841815.5865733 1.415 0 .5308185-.2110192 1.0398635-.5865733 1.415z"/></g></svg>