<svg xmlns="http://www.w3.org/2000/svg" width="81" height="80"><g fill="none" fill-rule="evenodd"><circle cx="40.34" cy="40" r="40" fill="#DAE1E9"/><g transform="translate(13 12)"><ellipse cx="26.12" cy="54.96" fill="#B8C2CC" rx="22.24" ry="1.72"/><path fill="#00C58E" stroke="#2F495E" stroke-linecap="round" stroke-linejoin="round" d="M2.68654414 8.19097822L29.42153082.79178305c1.06455122-.294626 2.16638206.3295217 2.46100806 1.39407292L42.39184996 40.1584037 13.7293228 48.09106644c-1.06455122.294626-2.16638206-.3295217-2.46100807-1.39407293l-9.9758435-36.04500723c-.29462601-1.06455122.3295217-2.16638206 1.39407292-2.46100806z"/><rect width="31.74" height="41.4" x="11.8" y="7.23" fill="#FFF" rx="2" transform="rotate(180 27.67 27.93)"/><rect width="31.74" height="41.4" x="11.79" y="7.23" stroke="#2F495E" stroke-linecap="round" stroke-linejoin="round" rx="2"/><path stroke="#2F495E" stroke-linecap="round" stroke-linejoin="round" d="M22.14 15.51l-3.45 3.45 3.45 3.45M29.73 15.51l3.45 3.45-3.45 3.45M26.97 15.51l-2.76 6.9M17.31 27.93h17.94M17.31 32.07h13.11M17.31 36.21h9.66"/><path fill="#108775" d="M54.72863883 17.67290831l3.90322943 3.90322943-18.5403398 18.5403398-3.90322943-3.90322943z"/><path fill="#FFF" stroke="#2F495E" stroke-linecap="round" stroke-linejoin="round" d="M36.19 36.21c-.09 0-1.7 3.87-2.49 5.78-.0736681.1738368-.0336335.3750367.1009685.507432.134602.1323954.336436.1690992.5090315.092568l5.78-2.48-3.9-3.9z"/><path stroke="#2F495E" stroke-linecap="round" stroke-linejoin="round" d="M54.72863883 17.67290831l3.90322943 3.90322943-18.5403398 18.5403398-3.90322943-3.90322943z"/><path fill="#00C58E" stroke="#2F495E" stroke-linecap="round" stroke-linejoin="round" d="M56.67289422 15.71019978l3.90322943 3.90322944-1.95161472 1.95161471-3.90322943-3.90322943z"/><path fill="#108775" stroke="#2F495E" stroke-linecap="round" stroke-linejoin="round" d="M62.05 18.15c.6966679-.6984542.9677947-1.7155205.7112495-2.6680797-.2565451-.9525592-1.0017869-1.695895-1.955-1.95-.953213-.2541049-1.9695816.0196255-2.6662495.7180797l-1.46 1.46 3.9 3.91 1.47-1.47z"/><path fill="#00C58E" stroke="#2F495E" stroke-linecap="round" stroke-linejoin="round" d="M37.36 41.28L35 38.91c-.47 1.09-1 2.26-1.3 3.09-.0736681.1738368-.0336335.3750367.1009685.507432.134602.1323954.336436.1690992.5090315.092568l3.05-1.32z"/></g></g></svg>