<svg xmlns="http://www.w3.org/2000/svg" viewBox="0 0 800 600"><path fill="currentColor" d="M0 0h800v600H0z"/><radialGradient id="a" cx="-4141.029" cy="739.751" r="172.822" gradientTransform="matrix(.4478 0 0 -.4741 2418.3528 514.716)" gradientUnits="userSpaceOnUse"><stop offset="0" stop-color="#e0e0e0"/><stop offset=".586" stop-color="#f5f5f5" stop-opacity=".414"/><stop offset="1" stop-color="#fff" stop-opacity="0"/></radialGradient><circle cx="564" cy="164" r="100" fill="url(#a)"/><circle cx="564" cy="164" r="29" fill="#fefefe"/><linearGradient id="b" x1="355.389" x2="280.795" y1="289.889" y2="364.484" gradientTransform="matrix(1 0 0 -1 0 600)" gradientUnits="userSpaceOnUse"><stop offset="0" stop-color="#fff" stop-opacity="0"/><stop offset="1" stop-color="#fafafa"/></linearGradient><path fill="url(#b)" d="M361 304.5l-26.713-.396-23.544-10.813-9.097-24.268 3.026-15.201L291.311 225l28.819 27.591 8.859 3.292 20.166 32.234z"/><linearGradient id="c" x1="260.344" x2="322.15" y1="282.355" y2="344.161" gradientTransform="matrix(1 0 0 -1 0 600)" gradientUnits="userSpaceOnUse"><stop offset="0" stop-color="#fff" stop-opacity="0"/><stop offset="1" stop-color="#f5f5f5"/></linearGradient><path fill="url(#c)" d="M337.167 302.5l-46.134 42.943-19.454-16.564-33.332-42.427 23.69-30.569 9.765-10.268L291.311 225l13.388 28.812-3.016 15.211 9.097 24.268z"/><linearGradient id="d" x1="268.446" x2="179.629" y1="231.97" y2="320.787" gradientTransform="matrix(1 0 0 -1 0 600)" gradientUnits="userSpaceOnUse"><stop offset="0" stop-color="#fff"/><stop offset="1" stop-color="#f5f5f5"/></linearGradient><path fill="url(#d)" d="M291.033 345.443l-49.825 46.594-8.917-4.974-3.833-22.362-19.991-22.985-4.845-15.506 9.191-7.609L202.842 256l.091.05 21.319 12.597 13.995 17.805 33.332 42.427z"/><linearGradient id="e" x1="55.84" x2="243.261" y1="116.16" y2="303.581" gradientTransform="matrix(1 0 0 -1 0 600)" gradientUnits="userSpaceOnUse"><stop offset="0" stop-color="#fff" stop-opacity="0"/><stop offset=".349" stop-color="#fafafa" stop-opacity=".349"/><stop offset=".774" stop-color="#ebebeb" stop-opacity=".774"/><stop offset="1" stop-color="#e0e0e0"/></linearGradient><path fill="url(#e)" d="M175.169 454H26l.121-.141c.04-.04.081-.161.151-.351 1.026-3.262 6.298-27.863 33.171-61.768l9.638-14.704 15.655-4.216 49.369-51.389 28.121-17.394L202.842 256l9.97 62.601-9.191 7.609 4.844 15.506 19.991 22.985 3.753 22.312 8.998 5.024L175.169 454z"/><g><linearGradient id="f" x1="568.216" x2="494.636" y1="286.029" y2="359.609" gradientTransform="matrix(1 0 0 -1 0 600)" gradientUnits="userSpaceOnUse"><stop offset="0" stop-color="#fff" stop-opacity="0"/><stop offset="1" stop-color="#fafafa"/></linearGradient><path fill="url(#f)" d="M548.25 326.599l-1.417-5.251-15.744-10.055-1.875-22.956 2.635-11.691-11.429-17.057 3.81-13.528-13.207-22.057s31.366 26.697 32.382 33.968l12.763 10.723 5.038 11.667 18.1 15.023-7.434 14.93-23.622 16.284z"/><linearGradient id="g" x1="463.946" x2="545.911" y1="259.143" y2="341.107" gradientTransform="matrix(1 0 0 -1 0 600)" gradientUnits="userSpaceOnUse"><stop offset="0" stop-color="#fff" stop-opacity="0"/><stop offset=".351" stop-color="#f9f9f9" stop-opacity=".351"/><stop offset="1" stop-color="#f5f5f5"/></linearGradient><path fill="url(#g)" d="M548.25 326.599l-42.662 29.41-8.137 4.364-25.431-30.915-26.332-16.564-11.567-1.963-.121-.02 27.368-37.521 14.225-2.646 5.085-8.304 30.34-38.44 13.163 22.229-3.71 13.426 11.384 16.989-2.639 11.688 1.87 22.958 15.742 10.062z"/></g><g><linearGradient id="h" x1="734.414" x2="564.316" y1="131.415" y2="301.514" gradientTransform="matrix(1 0 0 -1 0 600)" gradientUnits="userSpaceOnUse"><stop offset="0" stop-color="#fff" stop-opacity="0"/><stop offset=".843" stop-color="#f7f7f7" stop-opacity=".843"/><stop offset="1" stop-color="#f5f5f5"/></linearGradient><path fill="url(#h)" d="M661.17 460.999l-11.919-77.06-37.328-43.162 1.596-26.84-22.744-41.91 57.748 45.009 5.695 16.809L742 460.999z"/><linearGradient id="i" x1="563.95" x2="657.25" y1="168.193" y2="261.493" gradientTransform="matrix(1 0 0 -1 0 600)" gradientUnits="userSpaceOnUse"><stop offset="0" stop-color="#fff" stop-opacity="0"/><stop offset=".002" stop-color="#fff" stop-opacity=".002"/><stop offset=".613" stop-color="#e8e8e8" stop-opacity=".613"/><stop offset="1" stop-color="#e0e0e0"/></linearGradient><path fill="url(#i)" d="M663.833 469.857H604l-73.91-81.667h-9.757l-22.882-27.817 8.137-4.364 66.284-45.695 18.901-38.284.01.01 22.723 41.875v.01l.01.01-1.575 26.707-.01.129 25.542 29.554 11.778 13.621 11.888 76.905z"/></g><g><path fill="#fafafa" d="M604 469.857H289.138l-7.82-55.042-15.909-26.625 40.299 21.414 11.744-14.233 14.047-42.939 18.413-4.991 43.052-41.438 52.724 6.891 26.332 16.564 48.313 58.732h9.757z"/><linearGradient id="j" x1="158" x2="392.967" y1="212.075" y2="212.075" gradientTransform="matrix(1 0 0 -1 0 600)" gradientUnits="userSpaceOnUse"><stop offset="0" stop-color="#fff" stop-opacity="0"/><stop offset="1" stop-color="#bdbdbd"/></linearGradient><path fill="url(#j)" d="M392.967 306l-43.046 41.439-18.425 4.99-14.047 42.944-11.741 14.231-40.29-21.415L158 469.85l173.806-162.536z"/><linearGradient id="k" x1="223.573" x2="223.573" y1="130" y2="211.661" gradientTransform="matrix(1 0 0 -1 0 600)" gradientUnits="userSpaceOnUse"><stop offset="0" stop-color="#fff" stop-opacity="0"/><stop offset=".072" stop-color="#f8f8f8" stop-opacity=".072"/><stop offset=".279" stop-color="#eaeaea" stop-opacity=".279"/><stop offset=".536" stop-color="#e2e2e2" stop-opacity=".536"/><stop offset="1" stop-color="#e0e0e0"/></linearGradient><path fill="url(#k)" d="M289.147 470H158l107.418-81.661 15.898 26.624z"/><linearGradient id="l" x1="416.105" x2="410.655" y1="254.924" y2="292.555" gradientTransform="matrix(1 0 0 -1 0 600)" gradientUnits="userSpaceOnUse"><stop offset="0" stop-color="#fff" stop-opacity="0"/><stop offset=".147" stop-color="#dadada" stop-opacity=".147"/><stop offset=".317" stop-color="#b6b6b6" stop-opacity=".317"/><stop offset=".489" stop-color="#999" stop-opacity=".489"/><stop offset=".66" stop-color="#858585" stop-opacity=".66"/><stop offset=".83" stop-color="#797979" stop-opacity=".83"/><stop offset="1" stop-color="#757575"/></linearGradient><path fill="url(#l)" d="M355.128 342.476l37.836-36.473 51.976 6.407 26.3 16.56 3.621 4.539c3.536 4.433.01 10.938-5.634 10.395l-76.944-7.404-35.533 8.927c-1.73.421-2.904-1.716-1.622-2.951z" opacity=".25"/></g><g><path fill="#f2d5d3" d="M407 188.891c0 5.411-2.968 20.347-11.5 20.347S384 194.301 384 188.891c0-5.411 5.149-9.797 11.5-9.797s11.5 4.386 11.5 9.797z"/><path fill="#4db6ac" d="M407.54 215.396c0 .552-5.373 4.104-12 4.104s-12-3.552-12-4.104 5.373-2.396 12-2.396 12 1.844 12 2.396z"/><path fill="#f2d5d3" d="M405.941 221.857c-7.711-4.907-4.54-15.845-4.54-15.845h-11.95s3.171 10.938-4.54 15.845c-3.707 2.358 24.736 2.358 21.03 0z"/><path fill="#01579b" d="M414 295h-73l54.425 18.16L450 295h-36z"/><path fill="#424242" d="M370.889 323.949s-17.893-.44-20.652 5.505c-2.76 5.945 10.348 4.624 13.798 3.963 3.449-.661 9.658-2.922 9.658-2.922l-2.804-6.546zM419.962 323.949s17.893-.44 20.652 5.505c2.76 5.945-10.348 4.624-13.798 3.963-3.449-.661-9.658-2.922-9.658-2.922l2.804-6.546zM384.541 179s3.975 2.068 1.818 6.838c-1.438 3.18-1.229 8.744-1.229 10.162 0 0-3.086-3.975-3.086-10.335 0-3.456-.581-6.665 2.497-6.665zM405.732 178s-3.023 2.081-1.082 7.048c1.294 3.312 1.283 9.475 1.283 10.952 0 0 3.067-4.14 3.067-10.763 0-4.968-1.327-7.237-3.268-7.237z"/><path fill="none" stroke="#bdbdbd" stroke-miterlimit="10" stroke-width="3" d="M410 191.465v-6.485c0-8.392-6.492-12.392-14.5-12.392S381 176.587 381 184.98v6.485"/><path fill="#ef5350" d="M386 187.905c0-1.052-.895-1.905-2-1.905s-2 .853-2 1.905v12.19c0 1.052.895 1.905 2 1.905s2-.853 2-1.905v-12.19zM409 187.905c0-1.052-.895-1.905-2-1.905s-2 .853-2 1.905v12.19c0 1.052.895 1.905 2 1.905s2-.853 2-1.905v-12.19z"/><path fill="#d32f2f" d="M412 198.4l-3 1.6v-12l3 1.6zM379 198.4l3 1.6v-12l-3 1.6z"/><path fill="#424242" d="M386.385 186.104s-1.58-2.677-2.789-4.907-1.043-8.143 5.005-7.697 8.751.779 10.842.078C402.403 172.586 402 170 402 170s6 1.308 6 7c0 4-4.664 6.988-14.41 8.417-4.69.687-7.205.687-7.205.687z"/><path fill="#1a68a5" d="M331 305c0-5.258 4.773-10 10-10 10.165 0 17.49 2.685 27.788 6.401 32.246 11.638 51.174 22.548 51.174 22.548l-2.804 6.546s-46.267-5.819-66.596-11.638C344.624 317.158 331 313.111 331 305z"/><path fill="#2770aa" d="M460 305c0-5.258-4.773-10-10-10-10.165 0-17.639 2.685-27.937 6.401-32.246 11.638-51.174 22.548-51.174 22.548l2.804 6.546s46.267-5.819 66.596-11.638C446.226 317.158 460 313.111 460 305z"/><path fill="#f2d5d3" d="M444.707 293.021c.904.492 1.92.975 2.937 1.483 2.529 1.259 6.862 2.496 11.482 2.496 3.464 0 6.036.052 10.655-5.722.485-.612 0-2.31-1.155-2.31-.751 0-4.641 1.124-5.969 2.071-.462-.554-2.333-1.008-3.5-1.008-4.619 0-3.937 1.008-6.894 1.008-.84 0-2.05-.898-3.461-2.354 0 .001-2.089 1.66-4.095 4.336zM346.344 293.021c-.904.492-1.92.975-2.937 1.483-2.529 1.259-6.975 2.465-11.594 2.465-3.464 0-6.006.064-10.625-5.71-.485-.612 0-2.31 1.155-2.31.751 0 4.724 1.143 6.052 2.09.462-.554 2.22-1.008 3.387-1.008 4.619 0 4.05 1.008 7.006 1.008.84 0 2.05-.898 3.461-2.354 0 .001 2.089 1.66 4.095 4.336z"/><path fill="#4db6ac" d="M448.8 288.69c-1.43 1.33-2.8 2.79-4.09 4.33-4.95-2.68-11.64-2.64-20.22-11.12-1.27-1.25-2.27-2.74-2.99-4.38-2.82-6.46-5.5-21.52-5.5-21.52v22c0 8.402 3.61 17-2 17h-37c-5.61 0-2-8.598-2-17v-22s-2.63 15.06-5.45 21.52c-.72 1.64-1.72 3.13-2.99 4.38-8.58 8.48-15.27 8.44-20.22 11.12-1.29-1.54-2.66-3-4.09-4.33 3.95-4.04 9.46-12.56 12.81-17.93.74-1.19 1.29-2.47 1.65-3.82.96-3.65 2.89-12.94 2.89-12.94 1.4-10.52 4.03-21.12 10.12-23.81 3.805-1.697 7.316-3.538 10.296-5.282l31.014.071c2.983 1.714 6.497 3.515 10.3 5.211 6.09 2.69 8.72 13.29 10.12 23.81 0 0 1.93 9.29 2.89 12.94.36 1.35.91 2.63 1.65 3.82 3.35 5.37 8.86 13.89 12.81 17.93z"/><path fill="#80cbc4" d="M411.002 290h-31.004c-.687 0-1.17-.681-.94-1.331 1.017-2.875 3.271-9.95 3.477-16.691.017-.544.448-.978.99-.978h23.95c.542 0 .974.434.99.978.206 6.741 2.46 13.817 3.477 16.691.23.65-.253 1.331-.94 1.331zM383.041 215.85l-3.501 9.334s5.538 5.816 16 5.816 16-5.731 16-5.731l-3.501-9.419c-.219-.585-.944-.846-1.485-.51-1.382.86-4.497 2.089-11.014 2.089s-9.632-1.229-11.014-2.089c-.54-.336-1.265-.075-1.485.51z"/><circle cx="391" cy="226" r="3" fill="#4db6ac"/><circle cx="400" cy="226" r="3" fill="#4db6ac"/><path fill="none" stroke="#80cbc4" stroke-linecap="round" stroke-miterlimit="10" stroke-width="2" d="M400 226v26M391 226v26"/></g><g fill="#fff"><circle cx="385.917" cy="480.295" r="26.366"/><circle cx="345.89" cy="465.645" r="28.362"/><circle cx="303.106" cy="478.318" r="25.016"/><circle cx="242.924" cy="487.136" r="44.981"/><circle cx="183.612" cy="453.302" r="40.706"/><circle cx="124.11" cy="454.078" r="33.058"/><ellipse cx="72.971" cy="472.293" rx="33.8" ry="33.8" transform="matrix(.9985 -.0553 .0553 .9985 -26.0063 4.758)"/><circle cx="451.476" cy="480.295" r="48.632"/><circle cx="526.931" cy="506.093" r="47.01"/><circle cx="590.775" cy="475.471" r="35.544"/><circle cx="648.662" cy="468.661" r="37.279"/><circle cx="693.609" cy="440.752" r="23.909"/><circle cx="733.15" cy="478.318" r="38.39"/></g></svg>