<svg xmlns="http://www.w3.org/2000/svg" width="197" height="160"><g fill="none" fill-rule="evenodd"><path fill="#E2E8F0" d="M189.674523 89.7867565c-.003434-36.6675407-22.302993-69.6486929-56.32978-83.31201107C99.3179548-7.18857274 60.4018603 1.21168314 35.0407757 27.6942045 9.67969115 54.1767259 2.97010499 93.4196636 18.0920314 126.823793H181.683502c5.277806-11.63343 8.002598-24.262382 7.991021-37.0370365z"/><path stroke="#2F495E" stroke-linecap="round" stroke-linejoin="round" d="M11.2233446 126.801347H186.30752M1.12233446 126.801347h5.61167227M190.796857 126.801347h5.611673"/><g transform="translate(18.765432 7.542088)"><ellipse cx="24.108" cy="148.552" fill="#E2E8F0" rx="11.223" ry="3.367"/><path stroke="#2F495E" stroke-linecap="round" stroke-linejoin="round" d="M18.8776655 86.7340067c-.765013.7512771-1.1959666 1.7785065-1.1959666 2.8507296 0 1.072223.4309536 2.0994524 1.1959666 2.8507295l2.3569024 2.379349c1.5695374 1.5764314 1.5695374 4.1250276 0 5.7014592l-2.3569024 2.379349c-.765013.751277-1.1959666 1.778506-1.1959666 2.850729s.4309536 2.099453 1.1959666 2.85073M29.0909091 86.7340067c-1.5695375 1.5764315-1.5695375 4.1250276 0 5.7014591l2.3569023 2.379349c.7650131.7512771 1.1959667 1.7785065 1.1959667 2.8507295 0 1.0722231-.4309536 2.0994525-1.1959667 2.8507297l-2.3569023 2.379349c-1.5695375 1.576431-1.5695375 4.125028 0 5.701459"/><path fill="#00C58E" stroke="#2F495E" stroke-linejoin="round" d="M11.2682379 142.154882c-3.84932629 0-7.40625057-2.053591-9.33091378-5.387205-1.92466322-3.333614-1.92466322-7.440797 0-10.774411 1.92466321-3.333614 5.48158749-5.387206 9.33091378-5.387205v5.387205c-2.97527134 0-5.38720535 2.411934-5.38720535 5.387205 0 2.975272 2.41193401 5.387206 5.38720535 5.387206v5.387205z"/><rect width="26.599" height="33.67" x="11.268" y="113.872" fill="#FFF" stroke="#2F495E" stroke-linejoin="round" rx="1.2"/><path fill="#FFF" stroke="#4550E5" stroke-linecap="round" stroke-linejoin="round" d="M58.6756453 37.3512907v-5.6116723c0-12.3969641 10.0497251-22.44668911 22.4466892-22.44668911 12.396964 0 22.4466895 10.04972501 22.4466895 22.44668911v5.6116723c2.479392 0 4.489337 2.009945 4.489337 4.4893378 0 2.4793928-2.009945 4.4893378-4.489337 4.4893378h-.269361c-1.708014 10.9257067-11.118921 18.979711-22.1773285 18.979711-11.0584076 0-20.469315-8.0540043-22.1773289-18.979711h-.2693603c-2.4793928 0-4.4893378-2.009945-4.4893378-4.4893378 0-2.4793928 2.009945-4.4893378 4.4893378-4.4893378z"/><path stroke="#2F495E" stroke-linecap="round" stroke-linejoin="round" d="M58.6756453 37.3512907v-5.6116723c0-12.3969641 10.0497251-22.44668911 22.4466892-22.44668911 12.396964 0 22.4466895 10.04972501 22.4466895 22.44668911v5.6116723c2.479392 0 4.489337 2.009945 4.489337 4.4893378 0 2.4793928-2.009945 4.4893378-4.489337 4.4893378h-.269361c-1.708014 10.9257067-11.118921 18.979711-22.1773285 18.979711-11.0584076 0-20.469315-8.0540043-22.1773289-18.979711h-.2693603c-2.4793928 0-4.4893378-2.009945-4.4893378-4.4893378 0-2.4793928 2.009945-4.4893378 4.4893378-4.4893378z"/><circle cx="94.029" cy="46.869" r="2.806" fill="#DAE1E9"/><circle cx="68.215" cy="46.869" r="2.806" fill="#DAE1E9"/><path stroke="#4550E5" stroke-linecap="round" stroke-linejoin="round" d="M87.8787879 52.5701459c-3.77558 3.5801117-9.6924335 3.5801117-13.4680135 0"/><path stroke="#2F495E" stroke-linecap="round" stroke-linejoin="round" d="M68.7766554 39.5959596c.5742368-1.3503252 1.89965-2.2269649 3.3670034-2.2269649 1.4673534 0 2.7927666.8766397 3.3670034 2.2269649M86.7340067 39.5959596c.5742368-1.3503252 1.89965-2.2269649 3.3670034-2.2269649 1.4673534 0 2.7927666.8766397 3.3670034 2.2269649"/><path stroke="#4550E5" stroke-linecap="round" stroke-linejoin="round" d="M102.671156 99.9775533V98.630752M59.5735129 107.138047v-8.507295M102.671156 107.138047v-8.507295"/><path fill="#108775" d="M102.671156 107.138047h11.223345c1.239696 0 2.244668-1.004972 2.244668-2.244669v-2.693602c0-19.3392644-15.677571-35.0168355-35.0168345-35.0168355-19.339264 0-35.0168351 15.6775711-35.0168351 35.0168355v2.693602c0 1.239697 1.0049725 2.244669 2.244669 2.244669h11.2233445v12.121212h43.0976431v-12.121212z"/><path stroke="#2F495E" stroke-linejoin="round" d="M81.1223345 67.1829405v52.0763185"/><path stroke="#2F495E" stroke-linecap="round" stroke-linejoin="round" d="M59.5735129 107.138047v-8.507295M102.671156 107.138047v-8.507295M102.671156 107.138047h11.223345c1.239696 0 2.244668-1.004972 2.244668-2.244669v-2.693602c0-19.3392644-15.677571-35.0168355-35.0168345-35.0168355-19.339264 0-35.0168351 15.6775711-35.0168351 35.0168355v2.693602c0 1.239697 1.0049725 2.244669 2.244669 2.244669h11.2233445v12.121212h43.0976431v-12.121212z"/><circle cx="104.983" cy="81.549" r="1.347" fill="#FFF" opacity=".6"/><circle cx="98.249" cy="88.283" r="1.347" fill="#FFF" opacity=".6"/><circle cx="104.983" cy="95.017" r="1.347" fill="#FFF" opacity=".6"/><circle cx="98.249" cy="101.751" r="1.347" fill="#FFF" opacity=".6"/><circle cx="98.249" cy="115.219" r="1.347" fill="#FFF" opacity=".6"/><circle cx="91.515" cy="95.017" r="1.347" fill="#FFF" opacity=".6"/><circle cx="84.781" cy="101.751" r="1.347" fill="#FFF" opacity=".6"/><circle cx="91.515" cy="108.485" r="1.347" fill="#FFF" opacity=".6"/><circle cx="84.781" cy="115.219" r="1.347" fill="#FFF" opacity=".6"/><circle cx="71.313" cy="101.751" r="1.347" fill="#FFF" opacity=".6"/><circle cx="78.047" cy="108.485" r="1.347" fill="#FFF" opacity=".6"/><circle cx="71.313" cy="115.219" r="1.347" fill="#FFF" opacity=".6"/><circle cx="57.845" cy="88.283" r="1.347" fill="#FFF" opacity=".6"/><circle cx="64.579" cy="95.017" r="1.347" fill="#FFF" opacity=".6"/><circle cx="64.579" cy="108.485" r="1.347" fill="#FFF" opacity=".6"/><circle cx="51.111" cy="95.017" r="1.347" fill="#FFF" opacity=".6"/><path fill="#FFF" stroke="#2F495E" stroke-linejoin="round" d="M88.013468 136.767677c0-1.428776-.5675789-2.799033-1.5778759-3.80933s-2.3805538-1.577876-3.8093295-1.577876h-9.5847362c-7.003367 0-13.4680135-2.446689-13.4680135-20.20202v-4.040404H48.7991021v4.040404c0 25.611672 13.1762065 30.976431 24.2424243 30.976431h9.5847362c1.4306062.005999 2.8043509-.559654 3.8159511-1.571254 1.0116002-1.0116 1.5772527-2.385345 1.5712543-3.815951zM136.520763 131.380471h-9.607183c-7.003367 0-13.468013-2.446689-13.468013-20.20202v-4.040404h-10.774411v4.040404c0 25.611672 13.176207 30.976431 24.242424 30.976431h9.607183c2.975272 0 5.387206-2.411934 5.387206-5.387205 0-2.975272-2.411934-5.387206-5.387206-5.387206z"/><path fill="#2F495E" d="M64.7362514 22.962963c6.7340067 1.3468013 21.3468013 4.6464646 35.9147026-1.3468014 12.547699-27.90123455-45.5218855-28.91133556-52.0763188-1.1672278-.1481997.6398229-.0087515 1.3124551.3815938 1.8406285.3951843.5432282 1.0128939.8809094 1.6835016.9203142 8.2828283.4489338 8.664422 21.3468014 7.2278339 30.7295174C53.3782267 83.1200898 73.28844 84.691358 81.1447811 100.40404c8.1930416-16.3860826 29.5398429-17.3063969 22.4466889-50.4152633-.24642-1.350618-.24642-2.7346795 0-4.0852975 1.481482-9.1133557 4.242425-24.2648709-3.030303-24.2648709l-1.3243544.5387205c.3815937 4.4893379 5.7912454 41.1223345-18.338945 42.6487094C56.7676768 66.352413 60.9203143 22.962963 64.7362514 22.962963z"/><path stroke="#2F495E" stroke-linecap="round" stroke-linejoin="round" d="M64.7362514 22.962963c6.7340067 1.3468013 21.3468013 4.6464646 35.9147026-1.3468014 12.547699-27.90123455-45.5218855-28.91133556-52.0763188-1.1672278-.1481997.6398229-.0087515 1.3124551.3815938 1.8406285.3951843.5432282 1.0128939.8809094 1.6835016.9203142 8.2828283.4489338 8.664422 21.3468014 7.2278339 30.7295174C53.3782267 83.1200898 73.28844 84.691358 81.1447811 100.40404c8.1930416-16.3860826 29.5398429-17.3063969 22.4466889-50.4152633-.24642-1.350618-.24642-2.7346795 0-4.0852975 1.481482-9.1133557 4.242425-24.2648709-3.030303-24.2648709l-1.3243544.5387205c.3815937 4.4893379 5.7912454 41.1223345-18.338945 42.6487094C56.7676768 66.352413 60.9203143 22.962963 64.7362514 22.962963z"/><path fill="#00C58E" stroke="#2F495E" stroke-linecap="round" stroke-linejoin="round" d="M112.637486 52.4130191c-.586048-.0280066-1.133408.292479-1.395795.817254-.262388.524775-.19036 1.1549544.183674 1.6069884.792087.7912038 1.042914 1.9751653.639716 3.019596-.403199 1.0444307-1.384525 1.7527235-2.502791 1.8064422-7.115601 1.2570146-22.8282833-12.0763188-28.6644224-8.4175085-5.8361392-3.6588103-21.6161617 9.6745231-28.6195287 8.4175085-1.1182661-.0537187-2.0995921-.7620115-2.5027909-1.8064422-.4031989-1.0444307-.152371-2.2283922.6397157-3.019596.3812073-.4582205.4506762-1.1002759.1763006-1.629429-.2743757-.529153-.839155-.842339-1.4333151-.7948134-5.993266.3142536-6.1728395 14.2985409 8.6195286 13.647587 9.8540965-.4264871 18.7429854-4.4893379 23.1200898-10.7744108 4.4893378 6.2401796 13.2659932 10.3479237 23.1200894 10.7744108 14.792368.6509539 14.612795-13.3333334 8.619529-13.647587z"/><ellipse cx="112.211" cy="146.442" fill="#E2E8F0" rx="43.3" ry="3.367"/><path fill="#DAE1E9" stroke="#2F495E" stroke-linejoin="round" d="M101.481481 137.373737h-6.105499l13.041526-40.40404c.361013-1.1343097 1.413446-1.9054892 2.603816-1.9079686h4.130191l-13.670034 42.3120086z"/><path fill="#DAE1E9" d="M154.747475 137.373737h-53.265994l13.670034-42.356902h49.382716c.883996-.0035681 1.717126.4129968 2.244669 1.1223345.513207.706763.655204 1.6172115.381594 2.4466891l-12.413019 38.7878784z"/><path fill="#DAE1E9" stroke="#2F495E" stroke-linejoin="round" d="M154.747521 137.373737H98.7654321v6.734007h50.5274969c1.450533.000012 2.841331-.577742 3.864904-1.605527 1.023574-1.027786 1.595611-2.420944 1.589642-3.871465l.000046-1.257015z"/><path fill="#DAE1E9" stroke="#2F495E" stroke-linejoin="round" d="M98.7654321 137.373737h-24.691358c-.3610672-.006018-.7094263.133215-.9668763.386445-.25745.253229-.4024219.599239-.4023718.960357-.0059692 1.45052.5660682 2.843679 1.5896416 3.871465 1.0235734 1.027785 2.4143709 1.605539 3.8649039 1.605527h20.6285073l-.0224467-6.823794z"/><path stroke="#2F495E" stroke-linejoin="round" d="M154.747475 137.373737h-53.265994l13.670034-42.356902h49.382716c.883996-.0035681 1.717126.4129968 2.244669 1.1223345.513207.706763.655204 1.6172115.381594 2.4466891l-12.413019 38.7878784z"/></g><g><path d="M35.35353491 145.9034794h4.548474c.02602192-.1954291.08163042-.3843097.16437852-.5583302l4.26582317-8.49297378-2.2191101-4.41670951-6.75956559 13.46801349zM48.8928948 145.9034794h2.1733225l-5.7049715-11.22334458-1.0290352 2.03830493 4.3713417 8.61845995c.0931624.1745186.1573117.3664762.1893425.5665797z"/><path d="M44.3333649 136.92480373l-4.49049217 8.97867567h8.97867567z"/><path fill="#00C58E" d="M39.18189992 145.372303c-.01480806-.0277696-.02799611-.0564762-.03948988-.085958-.07972053-.1955801-.1042665-.4114737-.07066608-.6215425h-4.71592205l7.00841302-13.07884097 2.30080467 4.28908401.667171-1.25190119-2.00566985-3.74688737c-.05611718-.10799851-.39489871-.68545998-.97893313-.68545998-.26395862 0-.64223002.12122283-.94983534.69427619l-7.09986325 13.23753271c-.06027402.1146106-.35333044.7163167-.06235243 1.2496971.13301851.2424456.41568286.5311764 1.03920715.5311764h5.94634332c-.61936747 0-.90618864-.2843227-1.03920715-.5311764z"/><path fill="#108775" d="M53.093454 144.1101117l-5.9982464-10.97549875c-.0619698-.11541475-.4081457-.69914704-1.0107483-.69914704-.2713849 0-.6602986.11985378-.9765582.69692753l-.7756905 1.41161117.690215 1.26068418 1.0684443-1.96427025 5.9341398 10.81569376h-2.2565544c.028875.1787987.0126788.3623171-.0470116.5326834-.012571.0376133-.0283021.0740055-.0470115.1087562l-.019232.0399513c-.3034382.5371225-.959463.5659762-1.0876763.5659762h3.53014c.1303502 0 .7842382-.0288537 1.0876764-.5659762.1346239-.2441466.2307839-.6547567-.0918863-1.2273915z"/><path fill="#2F495E" fill-rule="nonzero" d="M49.8126341 145.3442858l.019847-.0394725c.0193077-.0343343.0355419-.0702904.048515-.1074529.0615992-.1683247.0783134-.3496438.0485149-.5262999-.034321-.1905245-.1030571-.373293-.2028807-.5394573l-4.6905147-8.20589204-.7166983-1.24557634-.7122878 1.24557634-4.68830949 8.20589204c-.09102901.1681382-.15220247.3506342-.18082849.5394573-.03773233.2083741-.01398911.4231552.06836199.6184024.01219504.0293329.02618774.0578944.04189928.0855237.14113444.2412208.44104511.5284928 1.10261276.5284928h8.73269305c.1389292 0 .8159335-.0285079 1.1290755-.5591936zm-5.4932168-8.1729983l4.2869584 7.499773h-8.57171158l4.28475318-7.499773z"/></g><path fill="#00C58E" fill-rule="nonzero" stroke="#2F495E" d="M156.330708 127.579281l-.01609.029488c-.255283.432632-.671283.567999-1.080969.567999h-5.030031c-.503969 0-.867443-.211412-1.069745-.557252-.027732-.051183-.027732-.051183-.050192-.102109-.085146-.201874-.109708-.42406-.07303-.625457.02515-.165896.078884-.326197.16437-.483822l2.700563-4.726763.842981-1.47412.434718.755512.413528.71869 2.696252 4.717235c.088707.147661.149814.310144.18129.485047.031604.187362.013876.379683-.048917.551107-.017171.049187-.038652.096764-.053296.121709l-.011432.022736z"/></g></svg>