<svg width="845" height="596" viewBox="0 0 845 596" fill="none" xmlns="http://www.w3.org/2000/svg"><g clip-path="url(#clip0)"><path d="M431.393 594c25.405 0 46-20.595 46-46s-20.595-46-46-46-46 20.595-46 46 20.595 46 46 46z" fill="#00C58E"/><path d="M706.199 591.416c25.735-7.729 53.094-15.788 73.504-34.161 18.237-16.419 30.55-41.489 22.994-66.112-7.54-24.572-30.124-40.956-53.441-49.105-13.225-4.622-27.061-7.186-40.892-9.201-15.035-2.189-30.136-3.983-45.23-5.71a2079.775 2079.775 0 00-184.044-12.811c-30.384-.765-60.763-.746-91.152-.305-27.14.394-55.722.384-80.899-11.151-19.579-8.97-37.348-25.289-42.804-46.733-6.297-24.755 5.318-49.964 21.98-67.892 8.783-9.451 19.048-17.404 29.637-24.718 11.487-7.934 23.375-15.306 35.52-22.188a494.562 494.562 0 0174.767-34.468c12.746-4.635 25.681-8.633 38.728-12.322 11.017-3.115 22.068-6.234 32.716-10.477 20.583-8.204 40.161-22.1 45.394-44.882 4.96-21.591-3.403-45.03-18.065-61.07-16.963-18.557-42.539-26.692-67.06-28.008-27.528-1.478-54.422 5.412-80.297 14.155-27.596 9.326-54.598 20.05-82.778 27.604a556.92 556.92 0 01-85.196 15.836c-14.082 1.5-28.59 3.193-42.756 2.045-11.872-.962-23.684-4.454-32.434-12.88-7.503-7.224-11.972-17.154-10.435-27.632.279-1.903 3.17-1.094 2.893.797-1.871 12.756 6.799 24.51 17.484 30.53 12.348 6.958 27.374 6.968 41.121 6.172a537.935 537.935 0 0088.515-12.796c28.592-6.53 56.164-15.866 83.704-25.839 26.156-9.471 52.897-18.716 80.84-20.767 24.246-1.78 49.752 1.752 70.874 14.423 18.564 11.136 32.215 29.707 36.565 51.018 4.25 20.825-1.637 41.785-17.4 56.317-16.322 15.047-38.701 21.479-59.557 27.404-26.452 7.514-52.337 16.298-77.392 27.703a485.833 485.833 0 00-72.8 40.928c-22.247 15.202-44.201 34.331-51.237 61.451-3.277 12.633-2.672 26.032 2.812 37.965 4.876 10.61 12.906 19.535 22.261 26.418 22.321 16.425 50.453 19.797 77.415 20.133 30.281.376 60.563-.646 90.855-.148a2081.102 2081.102 0 01230.976 16.679c13.821 1.776 27.69 3.541 41.278 6.695 24.163 5.608 47.674 16.392 62.692 36.878a61.319 61.319 0 0111.947 30.446c1.052 11.524-1.77 23.069-6.98 33.321-11.532 22.69-33.134 37.123-56.073 46.604-12.287 5.079-25.032 8.926-37.752 12.747-1.853.556-2.645-2.339-.797-2.893h-.001z" fill="#F2F2F2"/><path d="M125.893 93.5c13.255 0 24-10.745 24-24s-10.745-24-24-24-24 10.745-24 24 10.745 24 24 24zM292.393 139c13.255 0 24-10.745 24-24s-10.745-24-24-24-24 10.745-24 24 10.745 24 24 24zM433.393 48c13.255 0 24-10.745 24-24s-10.745-24-24-24-24 10.745-24 24 10.745 24 24 24zM521.393 150c13.255 0 24-10.745 24-24s-10.745-24-24-24-24 10.745-24 24 10.745 24 24 24zM402.393 268c13.255 0 24-10.745 24-24s-10.745-24-24-24-24 10.745-24 24 10.745 24 24 24zM251.393 325c13.255 0 24-10.745 24-24s-10.745-24-24-24-24 10.745-24 24 10.745 24 24 24zM411.393 414c13.255 0 24-10.745 24-24s-10.745-24-24-24-24 10.745-24 24 10.745 24 24 24zM583.393 464c13.255 0 24-10.745 24-24s-10.745-24-24-24-24 10.745-24 24 10.745 24 24 24zM784.393 453c13.255 0 24-10.745 24-24s-10.745-24-24-24-24 10.745-24 24 10.745 24 24 24z" fill="#F2F2F2"/><path d="M426.465 68.003c-71.892.508-130.756 58.93-131.777 130.817-.009.663-.014 5.33-.013 11.434A33.748 33.748 0 00328.419 244a33.775 33.775 0 0023.883-9.904 33.762 33.762 0 009.878-23.894l-.006-7.202a64.005 64.005 0 0162.886-64.004 64 64 0 0135.635 117.883l.011.015s-48.028 30.919-62.671 73.335l.013.003A93.99 93.99 0 00394.174 357c0 3.725.219 36.321.643 62.778A34.79 34.79 0 00429.607 454a34.793 34.793 0 0032.207-21.629 34.803 34.803 0 002.587-13.382c-.147-24.229-.227-52.441-.227-54.489 0-26.045 25.126-51.995 45.764-68.917 23.766-19.487 40.868-46.043 47.737-76a86.746 86.746 0 002.499-18.833 132.742 132.742 0 00-39.221-94.207 132.751 132.751 0 00-94.488-38.54z" fill="#00C58E"/><path d="M843.485 595.262H1.191a1.192 1.192 0 010-2.382h842.294a1.19 1.19 0 010 2.382z" fill="#3F3D56"/><path d="M628.449 272.996c16.568 0 30-13.432 30-30 0-16.569-13.432-30-30-30-16.569 0-30 13.431-30 30 0 16.568 13.431 30 30 30z" fill="#2F2E41"/><path d="M573.012 582.129h-12.259l-5.833-47.288h18.095l-.003 47.288z" fill="#A0616A"/><path d="M551.996 578.626h23.643v14.887h-38.53a14.889 14.889 0 0114.887-14.887z" fill="#2F2E41"/><path d="M668.012 582.129h-12.259l-5.833-47.288h18.095l-.003 47.288z" fill="#A0616A"/><path d="M646.996 578.626h23.643v14.887h-38.53a14.889 14.889 0 0114.887-14.887z" fill="#2F2E41"/><path d="M623.89 273.171c13.564 0 24.561-10.996 24.561-24.561s-10.997-24.561-24.561-24.561c-13.565 0-24.561 10.996-24.561 24.561s10.996 24.561 24.561 24.561z" fill="#A0616A"/><path d="M638.529 352.406l10.99-25.25a31.383 31.383 0 00-6.95-35.6 31.928 31.928 0 00-3.07-2.67 30.937 30.937 0 00-18.99-6.57 32.172 32.172 0 00-13.4 2.98c-.36.16-.71.33-1.07.5-.69.33-1.37.69-2.03 1.06a31.679 31.679 0 00-15.7 23.88l-4.85 40.64c-1.22 3.19-44.74 118.39-29.52 206.34a4.468 4.468 0 003.82 3.67l15.43 2.1a4.499 4.499 0 005.01-3.53l25.89-123.41a3.5 3.5 0 013.31-2.78 3.502 3.502 0 013.49 2.55l36.58 129.78a4.473 4.473 0 004.31 3.28c.292-.002.583-.029.87-.08l18.85-3.63a4.472 4.472 0 003.63-4.81c-2.77-30.89-17.49-185.62-36.6-208.45z" fill="#2F2E41"/><path d="M528.439 269.05a10.067 10.067 0 002.682 8.075 10.05 10.05 0 007.913 3.128l13.729 32.993 10.385-15.395-14.63-28.97a10.112 10.112 0 00-10.114-8.834 10.114 10.114 0 00-9.965 9.003zM622.528 385.626a10.056 10.056 0 008.426-12.913l28.886-21.038-17.391-6.513-24.763 20.977a10.114 10.114 0 00-6.235 11.895 10.111 10.111 0 0011.077 7.592z" fill="#A0616A"/><path d="M575.44 335.241a17.075 17.075 0 01-3.299-.325 16.31 16.31 0 01-11.947-9.616l-19.235-23.454a4.505 4.505 0 01-.959-3.592 4.504 4.504 0 012.07-3.088l13.685-8.471a4.504 4.504 0 015.021.19c.48.351.886.792 1.194 1.3l13.557 22.334 25.961-19.186a9.723 9.723 0 0112.378 2.894 9.724 9.724 0 01-1.068 12.667l-25.912 23.637a16.255 16.255 0 01-11.446 4.71zM645.59 370.513l-.106-.001a4.508 4.508 0 01-3.311-1.57l-12.166-14.193a4.502 4.502 0 01.92-6.673l22.782-15.188-20.639-24.812a9.72 9.72 0 0114.888-12.183l25.083 24.513a16.529 16.529 0 015.228 14.434 16.529 16.529 0 01-8.903 12.506L648.865 369.1a4.511 4.511 0 01-3.275 1.413z" fill="#2F2E41"/><path d="M617.645 318.214c-.195 0-.39-.012-.584-.037a4.463 4.463 0 01-3.711-3.069l-9.142-28.029a3.083 3.083 0 011.594-3.725l.297-.14c.269-.128.535-.254.807-.375a32.581 32.581 0 0113.603-3.023 31.316 31.316 0 0117.161 5.157 3.127 3.127 0 01.902 4.294l-17.15 26.868a4.46 4.46 0 01-3.777 2.079z" fill="#E6E6E6"/><path d="M652.101 229.603c5.422 0 9.817-4.395 9.817-9.817 0-5.421-4.395-9.817-9.817-9.817-5.422 0-9.817 4.396-9.817 9.817 0 5.422 4.395 9.817 9.817 9.817z" fill="#2F2E41"/><path d="M618.449 208.996a26 26 0 00-26 26v11h13.529l6.471-11 1.941 11h41.059l-11-11a26 26 0 00-26-26zM657.147 213.062a15.149 15.149 0 0116.48-10.396c6.256 1.046 11.203 6.075 14.15 11.691 2.947 5.617 4.308 11.903 6.289 17.928 1.981 6.026 4.791 12.084 9.793 15.984 5.002 3.901 12.677 4.959 17.59.946a20.117 20.117 0 01-37.477 7.182c-2.592-4.612-3.261-10.017-4.03-15.251-.769-5.234-1.767-10.65-4.862-14.941-3.095-4.29-8.888-7.093-13.804-5.138l-4.129-8.005z" fill="#2F2E41"/><path d="M337.947 228.038a33.746 33.746 0 01-33.745-33.746c0-6.103.004-10.77.014-11.434a131.51 131.51 0 0115.358-59.909 131.8 131.8 0 00-25.358 75.909c-.01.664-.014 5.331-.014 11.434a33.75 33.75 0 0033.745 33.746 33.767 33.767 0 0032.487-24.59 33.618 33.618 0 01-22.487 8.59zM428.753 139.109a64 64 0 0151.283 30.107 64.003 64.003 0 014.376 59.306 63.994 63.994 0 004.678-76.753 64 64 0 00-96.149-12.366 64.01 64.01 0 00-15.955 22.134 63.867 63.867 0 0151.767-22.428zM439.134 438.038a34.787 34.787 0 01-34.789-34.222c-.424-26.456-.643-59.052-.643-62.778a94.034 94.034 0 013.873-26.768l-.012-.003a95.191 95.191 0 015.494-12.7 110.081 110.081 0 00-15.494 28.7l.012.003a94.034 94.034 0 00-3.873 26.768c0 3.726.219 36.322.643 62.778a34.784 34.784 0 0034.789 34.222 34.805 34.805 0 0033.402-25.048 34.655 34.655 0 01-23.402 9.048z" fill="#3F3D56"/><path d="M126.541 582.585l12.259-.001 5.833-47.288-18.095.001.003 47.288z" fill="#FFB8B8"/><path d="M162.445 593.968l-38.531.001-.001-14.887 23.644-.001a14.888 14.888 0 0114.888 14.886v.001z" fill="#2F2E41"/><path d="M82.541 582.585l12.259-.001 5.833-47.288-18.095.001.003 47.288z" fill="#FFB8B8"/><path d="M118.445 593.968l-38.531.001v-14.887l23.643-.001a14.888 14.888 0 0114.888 14.886v.001zM93.254 568.042l-11.975-.63a4.675 4.675 0 01-4.419-4.967l14.313-158.466 65.911 17.785 6.351-1.732-19.859 140.285a4.696 4.696 0 01-4.358 3.944l-12.909.602a4.683 4.683 0 01-3.517-1.316 4.666 4.666 0 01-1.414-3.48l2.339-84.196a1.563 1.563 0 00-.379-1.064 1.561 1.561 0 00-2.704.704l-22.557 88.812a4.643 4.643 0 01-4.57 3.726c-.083 0-.168-.002-.253-.007z" fill="#2F2E41"/><path d="M128.742 274.32c13.565 0 24.561-10.997 24.561-24.561 0-13.565-10.996-24.561-24.561-24.561s-24.561 10.996-24.561 24.561c0 13.564 10.996 24.561 24.561 24.561z" fill="#FFB8B8"/><path d="M87.85 321.918l2.7 58.267.976 21.199a4.644 4.644 0 003.075 4.175l63.336 22.944c.511.19 1.053.285 1.599.28a4.652 4.652 0 003.349-1.404 4.644 4.644 0 001.315-3.384l-2.597-104.767a36.925 36.925 0 00-30.743-35.677c-.613-.094-1.236-.187-1.859-.271a36.26 36.26 0 00-29.166 9.442 37.237 37.237 0 00-11.985 29.196z" fill="#CCC"/><path d="M188.192 416.876a10.071 10.071 0 01-6.508-6.265 10.056 10.056 0 01-.492-4.616 10.056 10.056 0 011.631-4.346l-21.478-28.56 18.535-1.147 17.554 27.297a10.113 10.113 0 012.772 12.692 10.112 10.112 0 01-12.014 4.945z" fill="#FFB8B8"/><path d="M173.091 396.481a4.634 4.634 0 01-2.541-2.518l-32.358-77.095a12.466 12.466 0 012.632-13.602 12.453 12.453 0 018.8-3.693 12.45 12.45 0 018.833 3.614 12.465 12.465 0 012.719 4.034l32.358 77.096a4.68 4.68 0 01-2.5 6.118l-14.366 6.029a4.648 4.648 0 01-3.577.017z" fill="#CCC"/><path d="M120.845 393.762l31.08-59.509a4.883 4.883 0 016.575-2.064l45.111 23.56a4.877 4.877 0 012.064 6.575l-31.08 59.509a4.876 4.876 0 01-6.575 2.064l-45.111-23.56a4.877 4.877 0 01-2.064-6.575z" fill="#3F3D56"/><path d="M141.688 366.574a10.057 10.057 0 00-6.638-6.127 10.07 10.07 0 00-8.879 1.666l-29.778-19.754-.05 18.57 28.285 15.912a10.11 10.11 0 0017.06-10.267z" fill="#FFB8B8"/><path d="M104.038 370.75l-24.337-19.278a17.162 17.162 0 01-7.823-27.135l22.097-28.96a10.097 10.097 0 0117.13 10.285l-17.484 28.6 25.694 12.186a4.701 4.701 0 011.557 1.194 4.685 4.685 0 011.068 3.685 4.685 4.685 0 01-.677 1.841l-10.372 16.414a4.673 4.673 0 01-5.147 2.02 4.722 4.722 0 01-1.706-.852z" fill="#CCC"/><path d="M110.183 266.205a2.141 2.141 0 01.237-1.864 2.132 2.132 0 011.619-.955 4.92 4.92 0 011.914.502 4.918 4.918 0 011.563 1.213 13.78 13.78 0 003.071 2.637c1.188.599 2.799.514 3.477-.628.636-1.072.2-2.508-.185-3.753a36.91 36.91 0 01-1.63-9.77c-.111-3.701.411-7.562 2.459-10.449 2.644-3.724 7.372-5.138 11.846-5.036 4.474.103 8.875 1.484 13.307 2.357 1.53.301 3.328.455 4.352-.73 1.088-1.261.688-3.302.225-5.004-1.201-4.418-2.475-8.985-5.265-12.552a18.898 18.898 0 00-12.061-6.791 28.932 28.932 0 00-13.462 1.529 36.096 36.096 0 00-17.683 12.318 29.237 29.237 0 00-5.578 21.601 26.667 26.667 0 009.886 16.854l1.908-1.479z" fill="#2F2E41"/><path d="M421.258 582.78a45.99 45.99 0 01-26.433-52.583 45.99 45.99 0 019.363-18.906 46.011 46.011 0 00-18.677 32.902 46.005 46.005 0 0012.309 35.776 46.008 46.008 0 0034.968 14.445 46.006 46.006 0 0033.969-16.659 45.976 45.976 0 01-45.499 5.025z" fill="#3F3D56"/></g><defs><clipPath id="clip0"><path fill="#fff" d="M0 0h844.675v595.262H0z"/></clipPath></defs></svg>