<svg xmlns="http://www.w3.org/2000/svg" width="200" height="212"><g fill="none" fill-rule="evenodd"><circle cx="95.238" cy="96.619" r="95.238" fill="#DAE1E9"/><path fill="#108775" d="M128.571429 103.166667c-.271663-8.4924492 4.103926-16.4586834 11.416662-20.7852726 7.312737-4.3265892 16.401558-4.3265892 23.714294 0 7.312736 4.3265892 11.688325 12.2928234 11.416663 20.7852726v4.095238h-9.52381v23.285714H135.5v-19.166667h-6.928571v-8.214285z"/><circle cx="168.357" cy="36.452" r="8.214" fill="#00C58E"/><circle cx="168.357" cy="36.452" r="8.214" stroke="#2F495E" stroke-linecap="round" stroke-linejoin="round"/><path fill="#FFF" stroke="#2F495E" stroke-linecap="round" stroke-linejoin="round" d="M150.571429 35.0714286c4.357128 0 8.535799 1.7308623 11.616754 4.8118171C165.269138 42.9642005 167 47.142872 167 51.5v2.2619048c1.546393.3966844 2.599535 1.8275145 2.518659 3.4219264-.080876 1.5944119-1.273396 2.9113316-2.851992 3.1495021-1.692239 8.2738155-9.381715 13.9168735-17.78218 13.0497683-8.400466-.8671052-14.775129-7.9618787-14.74163-16.4069111V51.5c0-9.0732495 7.355322-16.4285714 16.428572-16.4285714z"/><circle cx="158.095" cy="59.024" r="2.048" fill="#DAE1E9"/><path stroke="#2F495E" stroke-linecap="round" stroke-linejoin="round" d="M128.571429 103.166667c-.271663-8.4924492 4.103926-16.4586834 11.416662-20.7852726 7.312737-4.3265892 16.401558-4.3265892 23.714294 0 7.312736 4.3265892 11.688325 12.2928234 11.416663 20.7852726v4.095238h-9.52381v23.285714H135.5v-19.166667h-6.928571v-8.214285zM151.928571 63.952381c-2.487126 1.6579212-5.727159 1.6579212-8.214285 0M165.619048 100.785714v5.476191"/><path fill="#FFF" stroke="#2F495E" stroke-linecap="round" stroke-linejoin="round" d="M139.619048 88.4761905l-1.380953 4.0952381 12.309524 9.5238094-7.857143-21.4285713c-2.656824 1.1284445-5.07936 2.7434691-7.142857 4.7619047l4.071429 3.0476191z"/><path fill="#FFF" stroke="#2F495E" stroke-linecap="round" stroke-linejoin="round" d="M162.880952 92.5714286l-1.357142-4.0952381 4.095238-2.7380953-2.166667-3.7857142c-1.506415-.8571004-3.103549-1.5438681-4.761905-2.0476191L150.5 102.166667l12.380952-9.5952384z"/><path fill="#FFF" stroke="#2F495E" stroke-linecap="round" stroke-linejoin="round" d="M142.714286 80.7857143c5.080862-2.1731669 10.768992-2.4685446 16.047619-.8333333l-3.142857 8.5714285H145.52381l-2.809524-7.7380952z"/><path fill="#00C58E" stroke="#2F495E" stroke-linecap="round" stroke-linejoin="round" d="M155.595238 88.4761905l-5.023809 13.6904765-5.047619-13.6904765z"/><path stroke="#2F495E" stroke-linecap="round" stroke-linejoin="round" d="M150.571429 102.142857v27.380953"/><path fill="#FFF" stroke="#2F495E" stroke-linecap="round" stroke-linejoin="round" d="M165.619048 106.261905v4.761905c0 1.893547-1.535024 3.428571-3.428572 3.428571h-17.785714c-2.629927 0-4.761905 2.131977-4.761905 4.761905 0 2.629927 2.131978 4.761904 4.761905 4.761904h17.785714c7.174267-.013103 12.986896-5.825733 13-13v-4.761904l-9.571428.047619z"/><path fill="#00C58E" d="M167 53.7619048c-4.119048-3.5714286-5.47619-11.7857143-5.47619-11.7857143S152 48.8333333 134.142857 51.5v4.3571429c-3.059069-7.9687006-.443366-16.999537 6.401012-22.0997907 6.844377-5.1002537 16.246088-5.0244844 23.007375.1854188 6.761287 5.2099031 9.231098 14.2817241 6.043994 22.2000861-.350764-1.217143-1.352447-2.1361183-2.595238-2.3809523z"/><path stroke="#2F495E" stroke-linecap="round" stroke-linejoin="round" d="M161.52381 41.9761905S152 48.8333333 134.142857 51.5v4.3571429c-3.059069-7.9687006-.443366-16.999537 6.401012-22.0997907 6.844377-5.1002537 16.246088-5.0244844 23.007375.1854188 6.761287 5.2099031 9.231098 14.2817241 6.043994 22.2000861-.350764-1.217143-1.352447-2.1361183-2.595238-2.3809523-4.119048-3.5714286-5.47619-11.7857143-5.47619-11.7857143zM139.761905 53.547619c.919758-.8767956 2.365956-.8767956 3.285714 0M152.904762 53.547619c.919758-.8767956 2.365956-.8767956 3.285714 0"/><path fill="#FFF" stroke="#2F495E" stroke-linecap="round" stroke-linejoin="round" d="M57.5238095 137.095238c0 2.629927 2.1319774 4.761905 4.7619048 4.761905s4.7619047-2.131978 4.7619047-4.761905V109h-9.5238095v28.095238zM41.4047619 35.0714286c-9.0732495 0-16.4285714 7.3553219-16.4285714 16.4285714v2.2619048c-1.6473808.3122316-2.8117975 1.7920672-2.7277673 3.4666689.0840301 1.6746018 1.3907387 3.0304383 3.0611006 3.1761882 1.6922389 8.2738155 9.3817143 13.9168734 17.78218 13.0497683 8.4004656-.8671052 14.7751283-7.9618787 14.7416295-16.4069112v-5.4761904c.018998-4.3694909-1.7034739-8.5665358-4.7864902-11.6629566-3.0830163-3.0964207-7.2725491-4.8370847-11.6420812-4.8370434z"/><path fill="#00C58E" d="M15.0952381 104.904762c-1e-7-9.2931587 4.9578409-17.8803914 13.0059523-22.5269707 8.0481114-4.6465794 17.9637936-4.6465794 26.0119049 0 8.0481114 4.6465793 13.0059525 13.233812 13.0059523 22.5269707V109h-6.8571428v20.547619H24.6666667V109h-9.5238096l-.047619-4.095238z"/><path stroke="#2F495E" stroke-linecap="round" stroke-linejoin="round" d="M15.0952381 104.904762c-1e-7-9.2931587 4.9578409-17.8803914 13.0059523-22.5269707 8.0481114-4.6465794 17.9637936-4.6465794 26.0119049 0 8.0481114 4.6465793 13.0059525 13.233812 13.0059523 22.5269707V109h-6.8571428v20.547619H24.6666667V109h-9.5238096l-.047619-4.095238z"/><path fill="#2F495E" d="M39.3571429 51.3809524c-1.1308688 0-2.0476191.9167503-2.0476191 2.047619 0 1.1308688.9167503 2.0476191 2.0476191 2.0476191 1.1308687 0 2.047619-.9167503 2.047619-2.0476191 0-1.1308687-.9167503-2.047619-2.047619-2.047619zM50.3095238 51.3809524c-1.1308688 0-2.047619.9167503-2.047619 2.047619 0 1.1308688.9167502 2.0476191 2.047619 2.0476191s2.0476191-.9167503 2.0476191-2.0476191c0-1.1308687-.9167503-2.047619-2.0476191-2.047619z"/><circle cx="33.881" cy="59.024" r="2.048" fill="#DAE1E9"/><path stroke="#2F495E" stroke-linecap="round" stroke-linejoin="round" d="M40.0238095 63.952381c2.4871268 1.6579212 5.727159 1.6579212 8.2142857 0"/><path fill="#108775" d="M59.1904762 47.4047619c.2382852-6.5137336-3.1008424-12.6372889-8.7055331-15.9648928-5.6046907-3.3276038-12.5794812-3.3276038-18.1841719 0-5.6046907 3.3276039-8.9438183 9.4511592-8.7055331 15.9648928v5.4761905c4.2843916-1.0982663 7.8082842-4.1376237 9.5238095-8.2142857 7.7380953 5.1428571 17.8571429 4.0952381 26.0714286 2.7380952z"/><path stroke="#2F495E" stroke-linecap="round" stroke-linejoin="round" d="M59.1904762 47.4047619c.2382852-6.5137336-3.1008424-12.6372889-8.7055331-15.9648928-5.6046907-3.3276038-12.5794812-3.3276038-18.1841719 0-5.6046907 3.3276039-8.9438183 9.4511592-8.7055331 15.9648928v5.4761905c4.2843916-1.0982663 7.8082842-4.1376237 9.5238095-8.2142857 7.7380953 5.1428571 17.8571429 4.0952381 26.0714286 2.7380952zM30.452381 41.8571429c.6977035 1.1049761 1.633119 2.0403917 2.7380952 2.7380952"/><path fill="#FFF" stroke="#2F495E" stroke-linecap="round" stroke-linejoin="round" d="M15.0952381 137.095238c0 2.629927 2.1319774 4.761905 4.7619048 4.761905 2.6299273 0 4.7619047-2.131978 4.7619047-4.761905V109h-9.5238095v28.095238z"/><path stroke="#2F495E" stroke-linecap="round" stroke-linejoin="round" d="M24.6666667 109v-8.214286M60.2619048 109v-8.214286"/><path fill="#FFF" stroke="#2F495E" stroke-linecap="round" stroke-linejoin="round" d="M41.0952381 78.8809524c-2.7494828-.002953-5.4819683.43103-8.0952381 1.2857143l9.5238095 8.2857143 9.5238095-7.1428572c-3.4293256-1.6005437-7.1679372-2.4295402-10.9523809-2.4285714z"/><path fill="#108775" stroke="#2F495E" stroke-linecap="round" stroke-linejoin="round" d="M42.4761905 88.4761905l-9.5238095-8.2857143v8.1904762c-.0094206.9239405.4477841 1.7903146 1.2158497 2.3039585.7680656.5136438 1.7433836.6052693 2.5936741.2436605l5.7142857-2.4523809zM42.4761905 88.4761905L52 81.3333333v7.1428572c.0094206.9239405-.4477842 1.7903146-1.2158498 2.3039585-.7680656.5136438-1.7433835.6052693-2.593674.2436605l-5.7142857-2.547619z"/><path stroke="#2F495E" stroke-linecap="round" stroke-linejoin="round" d="M42.4761905 88.452381v41.071429M138.761905 11.5238095V9.57142857M142.904762 13.2380952l1.380952-1.3809523M144.619048 17.3809524h1.952381M142.904762 21.5238095l1.380952 1.3809524M138.761905 23.2380952v1.952381M134.619048 21.5238095l-1.380953 1.3809524M132.904762 17.3809524h-1.952381M134.619048 13.2380952l-1.380953-1.3809523"/><path stroke="#108775" stroke-linecap="round" stroke-linejoin="round" d="M193.52381 53.1666667V42.6190476M188.261905 47.8809524h10.547619M103.714286 55.4047619v-6.8333333M100.285714 51.9761905h6.857143M179.904762 95v-6.8571429M176.47619 91.5714286h6.857143"/><circle cx="178.786" cy="69" r="6.167" fill="#FFF" stroke="#2F495E" stroke-linecap="round" stroke-linejoin="round"/><path fill="#00C58E" fill-rule="nonzero" d="M180.452381 18.452381c0-1.3809524.214286-1.8571429 2.071429-2.2142858 4.5-.9047619 6.619047-3.3333333 6.619047-6.61904758-.297754-3.04006111-2.644083-5.4778493-5.670542-5.89157878-3.026459-.41372948-5.940985 1.30487831-7.043744 4.15348354-.380952 1.73809524-.857142 2.16666662-2.071428 2.16666662s-1.738095-.9523809-1.738095-1.99999995c0-4.76190476 4.761904-7.83333334 10.119047-7.83333334 6.190476 0 10.52381 3.80952381 10.52381 9.30952381 0 6.45238098-4.285715 8.90476188-9 10.04761908v5.6190476c0 1.5952381-.690476 2.3809524-1.904762 2.3809524s-1.904762-.8571429-1.904762-2.3809524V18.452381zm1.904762 15.1904761c1.314964 0 2.380952 1.0659887 2.380952 2.3809524s-1.065988 2.3809524-2.380952 2.3809524c-1.314964 0-2.380953-1.0659887-2.380953-2.3809524s1.065989-2.3809524 2.380953-2.3809524zM109.738095 27.1904762c0 .9862228-.799491 1.7857143-1.785714 1.7857143-.986223 0-1.785714-.7994915-1.785714-1.7857143v-4.5714286c0-1.8333333 0-2.1428571 2.833333-2.7142857 2.223255-.2139113 3.876726-2.1517365 3.738095-4.3809524.040494-1.2480742-.459391-2.4529492-1.371523-3.3057933-.912133-.8528441-2.147838-1.2707452-3.390382-1.1465876-2.193683-.2211929-4.218878 1.1964437-4.761904 3.3333333-.357143 1.0476191-.857143 1.3333333-1.571429 1.3333333-.482359.0011329-.943496-.1982371-1.273101-.5504184-.329606-.3521813-.4980338-.8254969-.4649941-1.3067244.1666671-3.5714286 4.1428571-6.11904764 7.9047621-6.11904764 4.904762 0 8.642857 3.16666664 8.642857 7.45238094.10609 4.0050807-2.835839 7.4407602-6.809524 7.952381l.095238 4.0238095zm-1.785714 5.7619048c1.144018 0 2.071429.9274101 2.071429 2.0714285 0 1.1440184-.927411 2.0714286-2.071429 2.0714286-1.144018 0-2.071429-.9274102-2.071429-2.0714286s.927411-2.0714285 2.071429-2.0714285z"/><g transform="translate(7.142857 59.52381)"><rect width="175.238" height="91.714" x=".476" y="59.667" fill="#FFF" stroke="#2F495E" stroke-linecap="round" stroke-linejoin="round" rx="3"/><rect width="158.81" height="83.5" x="8.69" y="67.881" fill="#2F495E" rx="2"/><rect width="158.81" height="83.5" x="8.69" y="67.881" stroke="#2F495E" rx="2"/><rect width="71.19" height="49.286" x="52.5" y=".786" fill="#FFF" rx="2.6"/><rect width="71.19" height="49.286" x="52.5" y=".786" stroke="#2F495E" stroke-linecap="round" stroke-linejoin="round" rx="2.6"/><path stroke="#2F495E" stroke-linecap="round" stroke-linejoin="round" d="M61.7857143 7.64285714h52.6190477"/><path fill="#FFF" stroke="#2F495E" stroke-linecap="round" stroke-linejoin="round" d="M98.9285714 59.5952381H77.2619048l2.6190476-31.4761905c.2720581-3.203703 2.9514329-5.6658312 6.1666666-5.6666666h4.0952381c3.2152338.0008354 5.8946086 2.4629636 6.1666667 5.6666666l2.6190476 31.4761905z"/><path stroke="#2F495E" stroke-linecap="round" stroke-linejoin="round" d="M62.0714286 37.9285714v3.0952381M67.5714286 37.9285714v3.0952381M73.047619 37.9285714v3.0952381"/></g><path fill="#00C58E" d="M84.0174324 190.4787488c-.0439324-.0795302-.0830586-.1617437-.1171582-.2461776-.2365143-.5601273-.3093371-1.1784314-.2096516-1.7800533H69.69945963L90.491968 150.99565156l8.7486011 15.97571424L102 164.8595814l-8.6530702-15.89647297C93.1804417 148.65380839 92.1753472 147 90.4426382 147c-.7831105 0-1.9053634.34717352-2.8179645 1.98835741L66.56085146 186.8997054c-.1788205.3282368-1.04825813 2.0514799-.18498673 3.5790434C66.7705031 191.1730958 67.6091096 192 69.45897688 192H87.1005446c-1.8375349 0-2.6884738-.8142797-3.0831122-1.5212512z"/><path fill="#108775" d="M124.3712015 186.9400132l-17.3465054-30.96736982C106.8454839 155.64700066 105.8443674 154 104.1016832 154c-.7848258 0-1.9095369.33816744-2.8241371 1.96638102L99 159.6607145v7.1362182l5.1202224-8.8328589 17.1611135 30.5164799h-6.5257961c.0835046.5044807.0366661 1.0222777-.1359541 1.5029664-.0363547.1061258-.0818479.2088065-.1359541.3068556l-.0556176.1127225C113.5504922 191.9185893 111.6533147 192 111.2825309 192h10.2089159c.3769636 0 2.2679613-.0814107 3.1454832-1.5969018.389323-.6888596.6674109-1.8473962-.2657285-3.463085z"/><path fill="#FFF" fill-rule="nonzero" d="M114.6257836 190.4056272l.0565878-.112544c.0550501-.0978939.101337-.2004119.1383259-.3063696.1756316-.4799274.2232872-.9969044.1383259-1.5005862-.0978562-.5432235-.2938366-1.064333-.5784536-1.5381008l-13.3735955-23.3966393L99 160h-.0364761l-2.0308751 3.5513873-13.3673079 23.3966393c-.259542.4793958-.4339597.9997283-.5155782 1.5381008-.1075824.5941163-.0398858 1.2065001.1949137 1.7631887.0347705.083634.0746665.1650686.1194632.2438453C83.7665421 191.1809301 84.6216474 192 86.5079091 192h24.8986545c.396115 0 2.3263894-.0812818 3.21922-1.5943728zm-15.6622597-23.3028527l12.2229758 21.3833529H86.7468356l12.2166883-21.3833529z"/></g></svg>