<svg xmlns="http://www.w3.org/2000/svg" width="210" height="160"><g fill="none" fill-rule="evenodd"><path fill="#E2E8F0" d="M201.408955 95.5223881c-.003653-39.0098851-23.727721-74.097893-59.92816-88.63403207C105.280355-7.64778306 63.8782777 1.28908618 36.8971119 29.4633268 9.91594605 57.6375675 2.77774752 99.3873675 18.8656716 134.925373H192.883582c5.633804-12.371237 8.541322-25.809347 8.525373-39.4029849z"/><path stroke="#2F495E" stroke-linecap="round" stroke-linejoin="round" d="M11.558209 134.925373h186.268657M.8119403 134.925373h5.97014925M202.602985 134.925373h5.970149"/><g transform="translate(29.456716 18.316418)"><ellipse cx="136.49" cy="137.337" fill="#E2E8F0" rx="32.31" ry="3.869"/><ellipse cx="33.087" cy="137.337" fill="#E2E8F0" rx="32.31" ry="3.869"/><path fill="#FFF" stroke="#2F495E" stroke-linecap="round" stroke-linejoin="round" d="M2.06567164 52.0119403H111.916418v60.1552237c0 2.466323-1.999349 4.465672-4.465672 4.465672H6.53134328c-1.18436975 0-2.32023081-.470489-3.1577067-1.307965-.83747588-.837476-1.30796494-1.973337-1.30796494-3.157707V52.0119403z"/><path fill="#FFF" d="M7.05671642 36.6089552H106.949254c2.67468-.002481 4.875868 2.1039193 4.991045 4.7761194v10.5313433H2.08955224V41.3850746c.11476042-2.6629808 2.30173155-4.7658377 4.96716418-4.7761194z"/><path fill="#2F495E" stroke="#2F495E" stroke-linecap="round" stroke-linejoin="round" d="M7.05671642 36.6089552H106.949254c2.67468-.002481 4.875868 2.1039193 4.991045 4.7761194v10.5313433H2.08955224V41.3850746c.11476042-2.6629808 2.30173155-4.7658377 4.96716418-4.7761194z"/><circle cx="9.803" cy="44.251" r="2.579" fill="#00C58E" stroke="#00C58E" stroke-linecap="round" stroke-linejoin="round"/><circle cx="20.143" cy="44.251" r="2.579" fill="#FFF" stroke="#FFF" stroke-linecap="round" stroke-linejoin="round"/><circle cx="30.484" cy="44.251" r="2.579" fill="#108775" stroke="#108775" stroke-linecap="round" stroke-linejoin="round"/><path fill="#DAE1E9" stroke="#2F495E" stroke-linejoin="round" d="M13.9674102 106.92027363l23.76089858 23.76089859c.19526216.19526216.19526259.51184419 0 .70710678l-2.9571835 2.95718349c-.19526187.19526188-.5118446.19526216-.70710677 0l-23.7608986-23.7608986c-.19526213-.19526213-.19526187-.5118449 0-.70710677l2.9571835-2.9571835c.19526259-.19526258.51184464-.19526214.70710678 0zM39.120618 106.92721202l23.76089856 23.76089856c.19526216.19526216.19526188.5118449 0 .70710678l-2.9571842 2.9571842c-.19526188.19526188-.51184462.19526216-.70710678 0L35.45632702 110.591503c-.19526217-.19526217-.19526188-.5118449 0-.70710678l2.9571842-2.9571842c.19526188-.19526188.51184461-.19526217.70710678 0z"/><path fill="#DAE1E9" stroke="#2F495E" stroke-linejoin="round" d="M37.73644274 110.55248524l-23.7608986 23.7608986c-.19526217.19526216-.5118449.19526188-.70710678 0l-2.9571842-2.9571842c-.19526188-.19526188-.19526216-.51184461 0-.70710678l23.7608986-23.7608986c.19526215-.19526214.5118449-.19526188.70710678 0l2.9571842 2.9571842c.19526188.19526188.19526214.51184463 0 .70710678z"/><rect width="5.182" height="36.203" x="34.376" y="98.555" fill="#DAE1E9" stroke="#2F495E" stroke-linejoin="round" rx=".35"/><rect width="5.182" height="36.203" x="8.513" y="98.555" fill="#DAE1E9" stroke="#2F495E" stroke-linejoin="round" rx=".35"/><rect width="20.681" height="5.182" x="13.696" y="102.424" fill="#DAE1E9" stroke="#2F495E" stroke-linejoin="round" rx=".5"/><rect width="27.152" height="31.021" x="11.116" y="61.063" fill="#00C58E" stroke="#2F495E" stroke-linejoin="round" rx="1"/><path fill="#108775" stroke="#2F495E" stroke-linejoin="round" d="M58.7343284 99.8447761h37.8746268c1.318889 0 2.3880597 1.0691709 2.3880597 2.3880599v14.328358H56.3462687v-14.328358c0-1.318889 1.0691707-2.3880599 2.3880597-2.3880599z"/><path fill="#FFF" stroke="#2F495E" stroke-linecap="round" stroke-linejoin="round" d="M56.3462687 86.9253731H98.997015v6.47164179H56.3462687z"/><path fill="#FFF" d="M120.298507 23.3791045l-3.080597 10.7701492h21.540299V23.3791045z"/><rect width="102.448" height="6.161" x="62.484" y="17.218" fill="#00C58E" stroke="#2F495E" stroke-linecap="round" stroke-linejoin="round" rx="1"/><path fill="#00C58E" stroke="#2F495E" stroke-linecap="round" stroke-linejoin="round" d="M123.379104 40.3104478h12.3223881v93.9223881H123.379104z"/><path fill="#108775" stroke="#2F495E" stroke-linecap="round" stroke-linejoin="round" d="M135.677612 17.2179104h-12.298508l4.919403-15.99999995c.197957-.48528036.669928-.80248172 1.19403-.80248172.524103 0 .996074.31720136 1.19403.80248172l4.991045 15.99999995z"/><path stroke="#2F495E" stroke-linecap="round" stroke-linejoin="round" d="M65.0626866 17.2179104L129.707463 1.07462687M157.241791 17.2179104L129.707463 1.07462687"/><path fill="#108775" stroke="#2F495E" stroke-linecap="round" stroke-linejoin="round" d="M118.602985 40.3104478h18.865672c.7122 0 1.289552-.5773522 1.289552-1.2895523v-4.8h-21.492537v4.7761194c-.006814.354574.132697.6963042.385714.9448029.253017.2484987.597205.3818302.951599.36863z"/><path stroke="#2F495E" stroke-linecap="round" stroke-linejoin="round" d="M120.298507 23.3791045l-3.080597 10.7701492h21.540299V23.3791045z"/><path fill="#108775" stroke="#2F495E" stroke-linecap="round" stroke-linejoin="round" d="M71.7253731 23.3791045h12.3223881v6.16119403H71.7253731z"/><path fill="#FFF" stroke="#2F495E" stroke-linecap="round" stroke-linejoin="round" d="M81.0626866 61.5641791c-.0000375 1.2481503-.753211 2.372929-1.9072858 2.8483138-1.1540747.4753847-2.4809469.2074153-3.3600817-.6785877-.8791347-.8860029-1.1367703-2.2149203-.6524189-3.3652607.4843513-1.1503403 1.6149572-1.894738 2.8630699-1.8850624 1.6920335.0131169 3.0567673 1.3885127 3.0567165 3.080597z"/><path stroke="#2F495E" stroke-linecap="round" stroke-linejoin="round" d="M123.379104 69.5402985l12.298508 12.3223881M135.677612 69.5402985l-12.298508 12.3223881M123.379104 83.3910448l12.298508 12.322388M135.677612 83.3910448l-12.298508 12.322388M123.379104 96.0477612l12.298508 12.3223878M135.677612 96.0477612l-12.298508 12.3223878M123.379104 108.991045l12.298508 12.298507M135.677612 108.991045l-12.298508 12.298507M123.379104 55.6895522l12.298508 12.3223881M135.677612 55.6895522l-12.298508 12.3223881M123.379104 41.838806l12.298508 12.322388M135.677612 41.838806l-12.298508 12.322388"/><path fill="#2F495E" stroke="#2F495E" stroke-linecap="round" stroke-linejoin="round" d="M159.438805 134.232836h-45.253731v-3.98806c0-.659444.534585-1.19403 1.19403-1.19403h42.865672c.659444 0 1.194029.534586 1.194029 1.19403v3.98806z"/><path fill="#108775" stroke="#2F495E" stroke-linecap="round" stroke-linejoin="round" d="M137.444776 129.050745h-16.716418v-3.988059c0-.659445.534585-1.19403 1.19403-1.19403h14.328358c.659444 0 1.19403.534585 1.19403 1.19403v3.988059z"/><path fill="#FFF" stroke="#2F495E" stroke-linecap="round" stroke-linejoin="round" d="M156.83582 129.050745h-12.919403v-5.18208955h12.919403z"/><path fill="#FFF" stroke="#2F495E" stroke-linecap="round" stroke-linejoin="round" d="M156.83582 123.892538h-12.919403v-5.18208955h12.919403zM156.83582 118.710448h-12.919403v-5.18208955h12.919403z"/><path stroke="#2F495E" stroke-linecap="round" stroke-linejoin="round" d="M77.9820896 64.6447761l9.0507462 8.0477612H68.9552239z"/><path fill="#FFF" stroke="#2F495E" stroke-linecap="round" stroke-linejoin="round" d="M95.1283585 79.1641787H60.8597018v-6.47164179h34.2686567z"/><path stroke="#2F495E" stroke-linecap="round" stroke-linejoin="round" d="M77.9820896 58.4835821V29.5402985"/></g></g></svg>