<svg width="795" height="506" viewBox="0 0 795 506" fill="none" xmlns="http://www.w3.org/2000/svg"><g clip-path="url(#clip0)"><path d="M44.519 503.871C32.268 502.863 21.452 494 15.3 483.357c-2.063-3.569-3.476-8.25-1.14-11.647a6.415 6.415 0 016.107-2.724 6.406 6.406 0 015.208 4.195 62.035 62.035 0 01-.965-12.641c.094-3.586.771-7.64 3.753-9.634 3.46-2.314 8.446-.477 10.962 2.838s3.199 7.626 3.803 11.744a10.83 10.83 0 0112.038-13.657c5.067.765 9.036 5.152 10.585 10.036 1.549 4.885 1.065 10.181.069 15.207-1.17 5.894-3.066 11.741-6.482 16.684-3.415 4.944-8.487 8.929-14.373 10.139l-.347-.026zM794.122 106a106.036 106.036 0 01-71 100.08c-.66.23-1.33.46-2 .67V99.04h-138.77c.04-.67.09-1.34.15-2h138.62V76a5.006 5.006 0 00-5-5h-128.08c.23-.67.47-1.34.73-2a106.008 106.008 0 01180.672-30.984A106.013 106.013 0 01794.122 106z" fill="#F2F2F2"/><path d="M716.122 69h-487a7.01 7.01 0 00-7 7v330a7.006 7.006 0 007 7h487a7.003 7.003 0 004.947-2.053 7.003 7.003 0 002.053-4.947V76a7.005 7.005 0 00-7-7zm5 337a5.003 5.003 0 01-5 5h-487a5.001 5.001 0 01-5-5V76a4.998 4.998 0 015-5h487a5.003 5.003 0 015 5v330z" fill="#000"/><path d="M722.122 97.04h-499v2h499v-2zM240.122 90a6 6 0 100-12 6 6 0 000 12zM257.372 90a6 6 0 100-12 6 6 0 000 12zM274.622 90a6 6 0 100-12 6 6 0 000 12zM359.122 138h-88a7.007 7.007 0 00-7 7v88a7.006 7.006 0 007 7h88a7.003 7.003 0 004.947-2.053 7.003 7.003 0 002.053-4.947v-88a7.003 7.003 0 00-2.053-4.947 7.003 7.003 0 00-4.947-2.053zm5 95a5.003 5.003 0 01-5 5h-88a5.001 5.001 0 01-5-5v-88a4.999 4.999 0 015-5h88a5.003 5.003 0 015 5v88z" fill="#000"/><path d="M517.122 138.5h-88a6.51 6.51 0 00-6.5 6.5v88a6.514 6.514 0 006.5 6.5h88a6.51 6.51 0 006.5-6.5v-88a6.511 6.511 0 00-6.5-6.5z" fill="#00C58E"/><path d="M675.122 138.5h-88a6.51 6.51 0 00-6.5 6.5v88a6.514 6.514 0 006.5 6.5h88a6.51 6.51 0 006.5-6.5v-88a6.511 6.511 0 00-6.5-6.5zM359.122 270.5h-88a6.51 6.51 0 00-6.5 6.5v88a6.51 6.51 0 006.5 6.5h88a6.511 6.511 0 006.5-6.5v-88a6.511 6.511 0 00-6.5-6.5z" fill="#E6E6E6"/><path d="M517.122 270.5h-88a6.51 6.51 0 00-6.5 6.5v88a6.51 6.51 0 006.5 6.5h88a6.511 6.511 0 006.5-6.5v-88a6.511 6.511 0 00-6.5-6.5z" fill="#00C58E"/><path d="M675.122 270.5h-88a6.51 6.51 0 00-6.5 6.5v88a6.51 6.51 0 006.5 6.5h88a6.511 6.511 0 006.5-6.5v-88a6.511 6.511 0 00-6.5-6.5z" fill="#E6E6E6"/><path d="M337.622 285h-88a6.505 6.505 0 01-6.5-6.5v-88a6.507 6.507 0 016.5-6.5h88a6.507 6.507 0 016.5 6.5v88a6.511 6.511 0 01-6.5 6.5z" fill="#00C58E"/><path d="M202.746 492.088l11.72-3.597-8.296-46.918-17.298 5.308 13.874 45.207z" fill="#F9CDBE"/><path d="M240.41 492.438l-36.836 11.304-4.367-14.232 22.603-6.937a14.9 14.9 0 0115.845 4.751 14.896 14.896 0 012.755 5.114z" fill="#46455B"/><path d="M102.748 492.358l12.26-.001 5.832-47.288-18.094.001.002 47.288z" fill="#F9CDBE"/><path d="M138.652 503.74l-38.531.002v-14.887l23.643-.001a14.889 14.889 0 0114.888 14.886z" fill="#46455B"/><path d="M101.868 355.28a9.159 9.159 0 01-2.172-10.952 9.152 9.152 0 012.49-3.093l9.506-119.695 19.331 4.83-15.478 116.759a9.208 9.208 0 01-7.559 14.476 9.211 9.211 0 01-6.118-2.325zM140.579 175.116c13.565 0 24.561-10.996 24.561-24.561 0-13.564-10.996-24.561-24.561-24.561-13.564 0-24.561 10.997-24.561 24.561 0 13.565 10.997 24.561 24.561 24.561z" fill="#F9CDBE"/><path d="M119.223 217.859c-5.542-7.609-5.713-18.087.257-25.364 3.895-4.75 10.412-8.55 21.292-8.55 29 0 40 23 40 23s12 22 5 42-7 22-7 22l-46-4s7.76-19.832-13.549-49.086z" fill="#CCC"/><path d="M105.037 237.767l9.91-32.421a15.502 15.502 0 0121.93-9.245 15.527 15.527 0 017.088 20.01l-12.598 28.691-26.33-7.035z" fill="#CCC"/><path d="M177.772 265.945l39 202-21 6-51-133-23 136-22 3s-9.65-179.945 33-213l45-1z" fill="#46455B"/><path d="M233.903 256.477c-.355.424-.677.875-.962 1.35l-49.535 2.401-9.539-29.119-16.562 7.871 15.588 43.372 61.262-11.981a10.496 10.496 0 10-.252-13.894z" fill="#F9CDBE"/><path d="M150.375 209.849a15.505 15.505 0 019.715-16.234 15.496 15.496 0 016.647-1.048 15.533 15.533 0 0114.535 15.472v31.335l-26.936 4.144-3.961-33.669z" fill="#CCC"/><path d="M145.981 175.339c-3.687-.016-6.531-3.897-6.365-7.58.165-3.683 2.638-6.923 5.618-9.093 2.98-2.17 6.475-3.492 9.798-5.087 3.324-1.596 6.618-3.586 8.67-6.648a14.724 14.724 0 001.023-13.505 21.672 21.672 0 00-9.333-10.224 28.381 28.381 0 00-37.607 8.25l-4.208 11.458c-4.288 5.156-4.968 12.814-2.333 18.98 2.636 6.166 8.249 10.806 14.582 13.011a35.794 35.794 0 0019.841.595" fill="#46455B"/><path d="M123.534 137.179c-1.809-2.9-4.944-4.744-8.186-5.826a25.718 25.718 0 00-30.546 11.752 25.73 25.73 0 00-3.286 11.251c-.344 6.314 1.633 12.489 2.795 18.705 1.162 6.216 1.393 13.082-2.034 18.396-2.61 4.048-6.964 6.597-11.261 8.773-3.581 1.814-7.455 3.516-11.453 3.154-3.998-.361-8.017-3.528-7.91-7.541a32.056 32.056 0 00-2.682 9.08c-.281 3.156.496 6.562 2.776 8.762 3.313 3.199 8.562 2.965 13.116 2.275 9.856-1.494 19.838-4.296 27.625-10.521 7.787-6.224 12.955-16.474 10.904-26.231-.857-4.075-2.87-7.796-4.497-11.629-1.627-3.834-2.897-8.027-2.15-12.124a14.737 14.737 0 017.493-9.982 19.6 19.6 0 0112.523-1.899c2.799.459 6.294 1.172 7.954-1.128a4.501 4.501 0 00-.094-4.808 13.241 13.241 0 00-3.592-3.56" fill="#46455B"/><path d="M308.485 505.345H1.191a1.192 1.192 0 01-1.194-1.191 1.192 1.192 0 011.194-1.19h307.294a1.187 1.187 0 011.194 1.19 1.194 1.194 0 01-.738 1.102c-.144.059-.3.09-.456.089z" fill="#000"/></g><defs><clipPath id="clip0"><path fill="#fff" d="M0 0h794.122v505.345H0z"/></clipPath></defs></svg>