<svg xmlns="http://www.w3.org/2000/svg" width="206" height="160"><g fill="none" fill-rule="evenodd"><path fill="#E2E8F0" d="M198.447059 94.1176471c-.0036-38.4362103-23.378784-73.0082181-59.046864-87.33059043C103.732115-7.53531566 62.9388912 1.27012903 36.3545073 29.0300426 9.77012331 56.7899562 2.73689829 97.9257886 18.5882353 132.941176H190.047059c5.550954-12.189307 8.415714-25.429797 8.4-38.8235289z"/><path stroke="#2F495E" stroke-linecap="round" stroke-linejoin="round" d="M.8 132.941176h5.88235294M199.623529 132.941176h5.882353M11.3882353 132.941176H194.917647"/><g transform="translate(30.588235 54.117647)"><ellipse cx="54.188" cy="102.259" fill="#E2E8F0" rx="54.188" ry="2.635"/><path fill="#FFF" stroke="#2F495E" stroke-linecap="round" stroke-linejoin="round" d="M.47058824 15.1764706H108.705882v74.6029651c0 3.0586697-1.969947 5.5382114-4.4 5.5382114H4.87058824c-1.16695256 0-2.28610978-.5834885-3.11126984-1.6221046C.93415833 92.6569264.47058824 91.2482607.47058824 89.7794357V15.1764706z"/><path fill="#FFF" d="M5.38823529 0H103.811765c2.635346-.00244452 4.804164 2.07297924 4.917647 4.70588235V15.0823529H.49411765V4.70588235C.6071904 2.08206302 2.7620002.01013052 5.38823529 0z"/><path fill="#2F495E" stroke="#2F495E" stroke-linecap="round" stroke-linejoin="round" d="M5.38823529 0H103.811765c2.635346-.00244452 4.804164 2.07297924 4.917647 4.70588235V15.0823529H.49411765V4.70588235C.6071904 2.08206302 2.7620002.01013052 5.38823529 0z"/><circle cx="8.094" cy="7.529" r="2.541" fill="#00C58E" stroke="#00C58E" stroke-linecap="round" stroke-linejoin="round"/><circle cx="18.282" cy="7.529" r="2.541" fill="#FFF" stroke="#FFF" stroke-linecap="round" stroke-linejoin="round"/><circle cx="28.471" cy="7.529" r="2.541" fill="#108775" stroke="#108775" stroke-linecap="round" stroke-linejoin="round"/><rect width="28.235" height="30.565" x="9.412" y="23.529" fill="#00C58E" stroke="#2F495E" stroke-linejoin="round" rx="1"/><path fill="#108775" stroke="#2F495E" stroke-linejoin="round" d="M14.2862789 62.3058824H91.596074c2.6921199 0 4.8745142 2.1068952 4.8745142 4.7058823v28.2352941H9.41176471V67.0117647c0-2.5989871 2.18239429-4.7058823 4.87451419-4.7058823z"/><path fill="#F5F7FA" stroke="#2F495E" stroke-linecap="round" stroke-linejoin="round" d="M44.7058824 36.4705882h51.7647059v4.70588235H44.7058824zM44.7058824 49.4117647h51.7647059v4.70588235H44.7058824zM96.4705876 28.2352942H44.7058817v-4.70588235h51.7647059z"/></g><g transform="translate(94.917647 6.305882)"><path fill="#FFF" stroke="#2F495E" stroke-linecap="round" stroke-linejoin="round" d="M60.99978944 64.61385912l5.96108843-5.921436 10.4319047 10.36251291-5.96108844 5.921436z"/><ellipse cx="43.1" cy="42.398" fill="#DAE1E9" stroke="#2F495E" stroke-linecap="round" stroke-linejoin="round" rx="31.589" ry="31.465" transform="rotate(-26.88 43.100361 42.398194)"/><ellipse cx="43.108" cy="42.401" fill="#FFF" rx="25.309" ry="25.141"/><path stroke="#2F495E" d="M61.0033613 24.6243902c7.2387094 7.1901248 9.4043406 18.0037886 5.48704 27.3984812-3.9173007 9.3946927-13.1460659 15.5202378-23.3828383 15.5202378s-19.4655376-6.1255451-23.3828382-15.5202378c-3.9173006-9.3946926-1.7516695-20.2083564 5.4870399-27.3984812 9.8879722-9.8072848 25.9036244-9.8072848 35.7915966 0z"/><path fill="#00C58E" d="M98.06818425 94.4201091l-1.07157582 1.06519123c-2.16517688 2.15227637-5.6768479 2.15349405-7.84353695.00271967L69.78584982 76.26305308c-.72222966-.71692477-.72263858-1.87969568-.00091286-2.5971211l6.29877502-6.26124624c.72172572-.7174254 1.89228301-.71783097 2.61451267-.0009062l19.35414463 19.21198582c1.04621806 1.0316329 1.63593925 2.4345621 1.63890661 3.89891056.00296743 1.46434854-.58106312 2.86962471-1.62309164 3.90543319z"/><path stroke="#2F495E" d="M69.77796693 73.66698954l6.38163689-6.33476299c.72222965-.71692477 1.89278666-.71651892 2.61451231.00090656l19.35370555 19.2383932c2.1651768 2.15227644 2.16395095 5.64058827-.00273823 7.79136236l-1.07232422 1.06444789c-2.16668847 2.1507748-5.67835979 2.14955698-7.8435366-.00271946L69.85551702 76.18622397c-.72172558-.71742555-.72131701-1.88019611.00091264-2.59712088l-.07846273.07788645z"/><path fill="#2F495E" d="M28.6382715 41.8044233l5.3983193-5.3624104c.3928751-.3893154.6136703-.9179088.6136703-1.4691535s-.2207952-1.0798381-.6136703-1.4691535c-.3919225-.3902618-.9240555-.6095883-1.4789916-.6095883s-1.0870691.2193265-1.4789916.6095883l-6.3781513 6.3540889c-1.6241378 1.6195214-1.6241378 4.2387283 0 5.8582497l6.3781513 6.3357245c.3919225.3902618.9240555.6095883 1.4789916.6095883s1.0870691-.2193265 1.4789916-.6095883c.3917608-.3861725.6121038-.911728.6121038-1.4599713 0-.5482433-.220343-1.0737988-.6121038-1.4599713l-5.3983193-5.3624103c-.265352-.2589649-.4148226-.6129821-.4148226-.9824964 0-.3695144.1494706-.7235316.4148226-.9824964zM56.71283 41.8028672l-5.4168067-5.3624103c-.3928752-.3893155-.6136704-.9179088-.6136704-1.4691535 0-.5512448.2207952-1.0798381.6136704-1.4691536.3887585-.3891548.9178333-.6080322 1.4697479-.6080322.5519145 0 1.0809894.2188774 1.4697479.6080322l6.3966386 6.354089c1.6241379 1.6195214 1.6241379 4.2387282 0 5.8582496l-6.3781513 6.3357246c-.3887584.3891548-.9178333.6080322-1.4697479.6080322-.5519145 0-1.0809894-.2188774-1.4697478-.6080322-.3917608-.3861726-.6121039-.9117281-.6121039-1.4599713 0-.5482433.2203431-1.0737988.6121039-1.4599713l5.3983193-5.3807748c.2642732-.2557939.4133226-.6067834.4133226-.9733142 0-.3665308-.1490494-.7175203-.4133226-.9733142zM38.794958 54.6162944c-.5567522-.1763927-1.0189813-.5673023-1.2831026-1.0851268-.2641213-.5178244-.3080491-1.1192636-.1219394-1.669536l7.0991596-21.4680057c.3868112-1.1383583 1.62028-1.7591586 2.7731093-1.3956959.5567521.1763927 1.0189812.5673024 1.2831025 1.0851268.2641213.5178245.3080492 1.1192637.1219395 1.6695361l-7.0991597 21.4680057c-.1775739.5530487-.5711012 1.0122031-1.0923933 1.2745675-.521292.2623644-1.1267587.3060001-1.6807159.1211283z"/></g></g></svg>