<svg xmlns="http://www.w3.org/2000/svg" width="81" height="80"><g fill="none" fill-rule="evenodd"><circle cx="40.34" cy="40" r="40" fill="#DAE1E9"/><g transform="translate(8 6)"><path fill="#00C58E" d="M.25 26.65H47v25.63c0 1.0327725-.8372275 1.87-1.87 1.87h-43c-1.03277248 0-1.87-.8372275-1.87-1.87V26.65H.25z"/><path fill="#FFF" d="M2.31 54.15h4.54l25.84-27.5H.25v25.44c0 1.1377066.92229342 2.06 2.06 2.06z"/><path stroke="#2F495E" stroke-linecap="round" stroke-linejoin="round" d="M.25 26.65H47v25.63c0 1.0327725-.8372275 1.87-1.87 1.87h-43c-1.03277248 0-1.87-.8372275-1.87-1.87V26.65H.25z"/><path fill="#FFF" d="M44.91 20.05c1.1542751 0 2.09.9357249 2.09 2.09v4.51H.25v-4.51c0-1.1542751.93572487-2.09 2.09-2.09h42.57z"/><path stroke="#2F495E" stroke-linecap="round" stroke-linejoin="round" d="M2.34 20.05h42.57c1.1542751 0 2.09.9357249 2.09 2.09v4.51H.25v-4.51c0-1.1542751.93572487-2.09 2.09-2.09z"/><circle cx="3.55" cy="23.35" r="1.1" fill="#00C58E" stroke="#00C58E" stroke-linecap="round" stroke-linejoin="round"/><circle cx="7.95" cy="23.35" r="1.1" fill="#2F495E" stroke="#2F495E" stroke-linecap="round" stroke-linejoin="round"/><circle cx="12.35" cy="23.35" r="1.1" fill="#108775" stroke="#108775" stroke-linecap="round" stroke-linejoin="round"/><path fill="#FFF" stroke="#2F495E" stroke-linecap="round" stroke-linejoin="round" d="M47.42806827 36.05551576l3.22440692-3.22440692 5.64271212 5.6427121-3.22440693 3.22440693z"/><circle cx="37.746" cy="23.958" r="17.11" fill="#DAE1E9" stroke="#2F495E" stroke-linecap="round" stroke-linejoin="round" transform="rotate(-26.88 37.746105 23.958392)"/><circle cx="37.75" cy="23.96" r="13.69" fill="#FFF"/><path fill="#FFF" d="M47.44 14.29c-3.4294017-3.5963487-8.5383533-5.05191696-13.3482044-3.8029765-4.8098511 1.2489404-8.565213 5.006243-9.8116681 9.8167387C23.0336723 25.114258 24.49188 30.2224568 28.09 33.65l19.35-19.36z"/><path stroke="#2F495E" d="M47.43 14.28c3.9154837 3.9152476 5.0868933 9.8036255 2.9679898 14.9193292-2.1189036 5.1157037-7.1108266 8.4512545-12.6479898 8.4512545-5.5371632 0-10.5290862-3.3355508-12.6479898-8.4512545C22.9831067 24.0836255 24.1545163 18.1952476 28.07 14.28c5.3484941-5.34037305 14.0115059-5.34037305 19.36 0z"/><path fill="#108775" d="M67.47869983 52.2859488l-.57962512.58002993c-1.17116382 1.17198173-3.07065864 1.17264485-4.24264043.00148096l-10.4759063-10.46859528c-.39066055-.39038792-.39088157-1.02355293-.00049365-1.41421348l3.40706477-3.40944418c.39038798-.39066062 1.02355292-.39088157 1.41421348-.00049366l10.46883276 10.4615267c.56590891.5617563.88489443 1.32569516.88649952 2.12307867.00160515.79738344-.31430228 1.56260034-.87794503 2.12663035z"/><path stroke="#2F495E" d="M52.17626402 40.98522791l3.4518854-3.44947636c.39066062-.39038799 1.02382556-.3901669 1.41421347.00049365l10.46859529 10.4759063c1.17116388 1.1719818 1.17050083 3.07147654-.00148096 4.24264043l-.58002993.57962512c-1.17198172 1.17116382-3.07147654 1.17050084-4.24264043-.00148096L52.21821158 42.3570298c-.39038792-.39066055-.3901669-1.02382556.00049365-1.41421347l-.04244121.0424116z"/><path fill="#2F495E" stroke="#2F495E" stroke-linecap="round" stroke-linejoin="round" d="M29.44 23.36l2.92-2.92c.2125097-.2119944.3319399-.49983.3319399-.8 0-.30017-.1194302-.5880056-.3319399-.8-.2119944-.2125097-.49983-.3319399-.8-.3319399-.30017 0-.5880056.1194302-.8.3319399l-3.45 3.46c-.8785109.88188-.8785109 2.30812 0 3.19l3.45 3.45c.2119944.2125097.49983.3319399.8.3319399.30017 0 .5880056-.1194302.8-.3319399.211907-.210283.3310925-.4964644.3310925-.795 0-.2985356-.1191855-.584717-.3310925-.795l-2.92-2.92c-.1435313-.1410145-.2243813-.3337879-.2243813-.535s.08085-.3939855.2243813-.535zM45.93 23.66L43 20.74c-.2125097-.2119944-.3319399-.49983-.3319399-.8 0-.30017.1194302-.5880056.3319399-.8.210283-.211907.4964644-.3310925.795-.3310925.2985356 0 .584717.1191855.795.3310925l3.46 3.46c.8785109.88188.8785109 2.30812 0 3.19l-3.45 3.45c-.210283.211907-.4964644.3310925-.795.3310925-.2985356 0-.584717-.1191855-.795-.3310925-.211907-.210283-.3310925-.4964644-.3310925-.795 0-.2985356.1191855-.584717.3310925-.795l2.92-2.93c.1429478-.1392878.2235699-.3304125.2235699-.53 0-.1995875-.0806221-.3907122-.2235699-.53zM35.85 30.44c-.3011523-.0960513-.5511762-.3089139-.6940418-.5908855-.1428657-.2819716-.1666266-.609474-.0659582-.9091145l3.84-11.69c.2092297-.6198716.8764242-.9579168 1.5-.76.3011523.0960513.5511762.3089139.6940418.5908855.1428657.2819716.1666266.609474.0659582.9091145l-3.84 11.69c-.0960513.3011523-.3089139.5511762-.5908855.6940418-.2819716.1428657-.609474.1666266-.9091145.0659582z"/><ellipse cx="32.7" cy="64.05" fill="#B8C2CC" rx="26.4" ry="1.65"/></g></g></svg>