<svg xmlns="http://www.w3.org/2000/svg" viewBox="0 0 800 600"><path fill="currentColor" d="M0 0h800v600H0z"/><linearGradient id="a" x1="171.486" x2="171.486" y1="-2253.501" y2="-2026.5" gradientTransform="translate(0 2426)" gradientUnits="userSpaceOnUse"><stop offset="0" stop-color="#fafafa"/><stop offset="1" stop-color="#fff" stop-opacity="0"/></linearGradient><path fill="url(#a)" d="M127.625 228.198c5.403-1.933 9.124-7.51 8.939-13.737-.059-1.992.014-4.02.231-6.077 2.034-19.331 16.616-34.526 34.331-35.795 21.602-1.548 39.563 17.2 39.563 40.546 0 2.267-.17 4.491-.497 6.656-.96 6.362 2.009 12.569 7.297 15.395 18.162 9.704 30.35 30.75 28.872 54.735-1.705 27.683-21.892 50.131-47.12 52.4-5.847.526-11.503-.032-16.832-1.498-2.277-.626-4.613-.375-6.662.61V399.5h-12.783v-45.209c-5.058 3.532-11.158 5.428-17.69 4.973-13.944-.973-25.49-12.861-27.242-28.055-.269-2.337-.304-4.63-.13-6.858.305-3.895-1.164-7.664-3.973-10.072-10.03-8.597-16.69-21.713-17.379-36.414-1.081-23.096 12.289-42.944 31.075-49.667z"/><linearGradient id="b" x1="3784.514" x2="3784.514" y1="-2239.723" y2="-2012.723" gradientTransform="matrix(-1 0 0 1 3956 2426)" gradientUnits="userSpaceOnUse"><stop offset="0" stop-color="#fafafa"/><stop offset="1" stop-color="#fff" stop-opacity="0"/></linearGradient><path fill="url(#b)" d="M127.625 228.198c5.403-1.933 9.124-7.51 8.939-13.737-.059-1.992.014-4.02.231-6.077 2.034-19.331 16.616-34.526 34.331-35.795 21.602-1.548 39.563 17.2 39.563 40.546 0 2.267-.17 4.491-.497 6.656-.96 6.362 2.009 12.569 7.297 15.395 18.162 9.704 30.35 30.75 28.872 54.735-1.705 27.683-21.892 50.131-47.12 52.4-5.847.526-11.503-.032-16.832-1.498-2.277-.626-4.613-.375-6.662.61V399.5h-12.783v-45.209c-5.058 3.532-11.158 5.428-17.69 4.973-13.944-.973-25.49-12.861-27.242-28.055-.269-2.337-.304-4.63-.13-6.858.305-3.895-1.164-7.664-3.973-10.072-10.03-8.597-16.69-21.713-17.379-36.414-1.081-23.096 12.289-42.944 31.075-49.667z"/><linearGradient id="c" x1="586.408" x2="586.408" y1="-2228.5" y2="-1991.5" gradientTransform="translate(0 2426)" gradientUnits="userSpaceOnUse"><stop offset="0" stop-color="#fafafa"/><stop offset="1" stop-color="#fff" stop-opacity="0"/></linearGradient><path fill="url(#c)" d="M650.986 365.337c0 38.198-28.913 69.163-64.578 69.163s-64.578-30.966-64.578-69.163S586.406 197.5 586.406 197.5s64.58 129.639 64.58 167.837z"/><linearGradient id="d" x1="624.908" x2="624.908" y1="-2008.5" y2="-2301.5" gradientTransform="translate(0 2426)" gradientUnits="userSpaceOnUse"><stop offset="0" stop-color="#fff" stop-opacity="0"/><stop offset=".349" stop-color="#fafafa" stop-opacity=".349"/><stop offset=".774" stop-color="#ebebeb" stop-opacity=".774"/><stop offset="1" stop-color="#e0e0e0"/></linearGradient><path fill="url(#d)" d="M666.986 331.994c0 47.224-18.839 85.506-42.078 85.506s-42.078-38.282-42.078-85.506S624.906 124.5 624.906 124.5s42.08 160.271 42.08 207.494z"/><linearGradient id="e" x1="624.908" x2="624.908" y1="-2008.5" y2="-2301.5" gradientTransform="translate(0 2426)" gradientUnits="userSpaceOnUse"><stop offset="0" stop-color="#fff" stop-opacity="0"/><stop offset=".349" stop-color="#fafafa" stop-opacity=".349"/><stop offset=".774" stop-color="#ebebeb" stop-opacity=".774"/><stop offset="1" stop-color="#e0e0e0"/></linearGradient><path fill="url(#e)" d="M666.986 331.994c0 47.224-18.839 85.506-42.078 85.506s-42.078-38.282-42.078-85.506S624.906 124.5 624.906 124.5s42.08 160.271 42.08 207.494z"/><linearGradient id="f" x1="580.001" x2="580.001" y1="-1999.499" y2="-2034.5" gradientTransform="translate(0 2426)" gradientUnits="userSpaceOnUse"><stop offset="0" stop-color="#fff" stop-opacity="0"/><stop offset=".349" stop-color="#fafafa" stop-opacity=".349"/><stop offset=".774" stop-color="#ebebeb" stop-opacity=".774"/><stop offset="1" stop-color="#e0e0e0"/></linearGradient><path fill="url(#f)" d="M675.986 391.5c-8.399 0-15.937 4.624-21.065 11.947-2.531 3.614-7.439 4.424-11.129 2.005-2.633-1.726-5.629-2.702-8.806-2.702-4.976 0-9.505 2.393-12.891 6.308-2.696 3.118-7.344 3.527-10.702 1.137-2.187-1.556-4.716-2.445-7.407-2.445-2.52 0-4.898.778-6.985 2.155-3.133 2.066-7.287 1.432-9.979-1.182-3.048-2.961-6.879-4.722-11.036-4.722-2.16 0-4.232.476-6.151 1.35-3.353 1.527-7.291.436-9.564-2.464-4.901-6.254-11.734-10.136-19.285-10.136-7.325 0-13.971 3.653-18.837 9.582-2.086 2.542-5.543 3.388-8.673 2.378-3.021-.975-6.35-.99-9.764.234-1.444.518-2.734 1.367-3.984 2.256-3.11 2.211-7.36 2.164-10.149-.456-3.506-3.293-7.865-5.244-12.593-5.244-11.26 0-20.45 11.075-20.97 25h247.97c0-19.326-12.541-35.001-28-35.001z"/><linearGradient id="g" x1="220" x2="220" y1="-1999.499" y2="-2034.5" gradientTransform="translate(0 2426)" gradientUnits="userSpaceOnUse"><stop offset="0" stop-color="#fff" stop-opacity="0"/><stop offset=".349" stop-color="#fafafa" stop-opacity=".349"/><stop offset=".774" stop-color="#ebebeb" stop-opacity=".774"/><stop offset="1" stop-color="#e0e0e0"/></linearGradient><path fill="url(#g)" d="M315.986 391.5c-8.399 0-15.937 4.624-21.065 11.947-2.531 3.614-7.439 4.424-11.129 2.005-2.633-1.726-5.629-2.702-8.806-2.702-4.976 0-9.505 2.393-12.891 6.308-2.696 3.118-7.344 3.527-10.702 1.137-2.187-1.556-4.716-2.445-7.408-2.445-2.52 0-4.898.778-6.985 2.155-3.133 2.066-7.287 1.432-9.979-1.182-3.048-2.961-6.879-4.722-11.036-4.722-2.16 0-4.232.476-6.151 1.35-3.353 1.527-7.291.436-9.564-2.464-4.901-6.254-11.734-10.136-19.285-10.136-7.325 0-13.971 3.653-18.837 9.582-2.086 2.542-5.543 3.388-8.673 2.378-3.021-.975-6.35-.99-9.764.234-1.444.518-2.734 1.367-3.984 2.256-3.11 2.211-7.36 2.164-10.149-.456-3.506-3.293-7.865-5.244-12.593-5.244-11.26 0-20.45 11.075-20.97 25h247.97c.001-19.326-12.539-35.001-27.999-35.001z"/><linearGradient id="h" x1="221.479" x2="221.479" y1="-2228.501" y2="-2011.5" gradientTransform="translate(0 2426)" gradientUnits="userSpaceOnUse"><stop offset="0" stop-color="#e0e0e0"/><stop offset="1" stop-color="#fff" stop-opacity="0"/></linearGradient><path fill="url(#h)" d="M179.666 250.744c5.151-1.848 8.698-7.18 8.522-13.132-.057-1.904.013-3.843.22-5.809 1.939-18.479 15.84-33.005 32.727-34.218 20.592-1.479 37.715 16.443 37.715 38.76 0 2.167-.162 4.293-.473 6.363-.915 6.082 1.915 12.016 6.956 14.716 17.313 9.277 28.932 29.395 27.523 52.324-1.625 26.463-20.869 47.922-44.919 50.092-5.574.503-10.966-.031-16.045-1.432-2.17-.599-4.398-.359-6.351.583V414.5h-12.186v-43.217c-4.821 3.377-10.637 5.189-16.863 4.754-13.292-.93-24.299-12.294-25.969-26.819-.257-2.235-.29-4.426-.124-6.555.29-3.723-1.109-7.327-3.787-9.628-9.562-8.218-15.911-20.757-16.567-34.809-1.032-22.081 11.713-41.055 29.621-47.482z"/><linearGradient id="i" x1="3734.521" x2="3734.521" y1="-2215.33" y2="-1998.33" gradientTransform="matrix(-1 0 0 1 3956 2426)" gradientUnits="userSpaceOnUse"><stop offset="0" stop-color="#e0e0e0"/><stop offset="1" stop-color="#fff" stop-opacity="0"/></linearGradient><path fill="url(#i)" d="M179.666 250.744c5.151-1.848 8.698-7.18 8.522-13.132-.057-1.904.013-3.843.22-5.809 1.939-18.479 15.84-33.005 32.727-34.218 20.592-1.479 37.715 16.443 37.715 38.76 0 2.167-.162 4.293-.473 6.363-.915 6.082 1.915 12.016 6.956 14.716 17.313 9.277 28.932 29.395 27.523 52.324-1.625 26.463-20.869 47.922-44.919 50.092-5.574.503-10.966-.031-16.045-1.432-2.17-.599-4.398-.359-6.351.583V414.5h-12.186v-43.217c-4.821 3.377-10.637 5.189-16.863 4.754-13.292-.93-24.299-12.294-25.969-26.819-.257-2.235-.29-4.426-.124-6.555.29-3.723-1.109-7.327-3.787-9.628-9.562-8.218-15.911-20.757-16.567-34.809-1.032-22.081 11.713-41.055 29.621-47.482z"/><path fill="#ffcc80" d="M250.986 186.5h300V431h-300z"/><linearGradient id="j" x1="399.486" x2="399.486" y1="-1971.5" y2="-1990.5" gradientTransform="translate(0 2426)" gradientUnits="userSpaceOnUse"><stop offset="0" stop-color="#fff"/><stop offset="1" stop-color="#e0e0e0"/></linearGradient><path fill="url(#j)" d="M570.986 435.5v1c0 10.493-9 18-20.027 18H248.013c-11.027 0-20.027-7.507-20.027-19h343z" opacity=".2"/><path fill="#ffb74d" d="M250.986 426.5h300v9h-300z"/><g><path fill="#3949ab" d="M232.986 284.5h336v-17l-5.091-4H236.04l-3.054 4z"/><path fill="#e0e0e0" d="M263.531 267.5h30.545v17h-30.545zM324.622 267.5h30.545v17h-30.545zM385.713 267.5h30.545v17h-30.545zM446.804 267.5h30.545v17h-30.545zM507.895 267.5h30.545v17h-30.545z"/><path fill="#fafafa" d="M416.26 267.5v.01h-30.54v-.01l.2-3.99v-.01l2.43-49h25.28l2.43 49v.01zM477.35 267.5v.01h-30.54v-.01l-.6-3.99v-.01l-7.29-49h25.29l12.15 49v.01zM538.44 267.5v.01H507.9v-.01h-.01l-1.38-3.99v-.01l-17.01-49h25.28l21.87 49v.01zM363.06 214.5l-7.29 49v.01l-.6 3.99v.01h-30.54v-.01l.99-3.99v-.01l12.15-49zM312.48 214.5l-17.01 49v.01l-1.39 3.99v.01h-30.55v-.01l1.79-3.99v-.01l21.87-49z"/><g fill="#5c6bc0"><path d="M446.81 267.5v.01h-30.55v-.01l-.2-3.99v-.01l-2.43-49h25.29l7.29 49v.01zM507.9 267.5v.01h-30.55v-.01l-.99-3.99v-.01l-12.15-49h25.29l17.01 49v.01l1.38 3.99zM538.44 267.51v-.01l-1.79-3.99v-.01l-21.87-49h25.29l28.91 52.99.01.02zM388.35 214.5l-2.43 49v.01l-.2 3.99v.01h-30.55v-.01l.6-3.99v-.01l7.29-49zM337.77 214.5l-12.15 49v.01l-.99 3.99v.01h-30.55v-.01l1.39-3.99v-.01l17.01-49zM287.19 214.5l-21.87 49v.01l-1.79 3.99v.01h-30.54l.02-.04 28.9-52.97z"/></g></g><path fill="#ffb74d" d="M250.986 284.5h300v9h-300z"/><path fill="#e3f2fd" d="M451.486 310.5h70v91h-70z"/><g><path fill="#eefbff" d="M502.02 401.5h-8.83L452 313.15l5.68-2.65h1.91zM521.6 396.16l-.11.05-11.34 5.29h-3.71l-42.44-91h17.65l39.84 85.42z"/></g><path fill="#5c6bc0" d="M447.986 305.5v130h77v-130h-77zm70 92h-63v-82h63v82z"/><path fill="#e3f2fd" d="M276.986 377.5h151v24h-151z"/><path fill="#3949ab" d="M276.986 310.5h151v67h-151z"/><g fill="#fafafa"><path d="M304.754 346.054c0 1.566-.369 2.782-1.111 3.648-.741.866-1.768 1.298-3.083 1.298-1.31 0-2.339-.429-3.087-1.287-.748-.859-1.127-2.06-1.139-3.605v-1.996c0-1.603.372-2.856 1.114-3.757s1.775-1.35 3.095-1.35c1.298 0 2.322.442 3.071 1.328.748.884 1.127 2.127 1.139 3.724l.001 1.997zm-2.366-1.957c0-1.052-.149-1.836-.449-2.349-.3-.514-.765-.769-1.395-.769-.625 0-1.087.247-1.388.741-.299.495-.454 1.247-.464 2.258v2.077c0 1.02.152 1.774.457 2.257.305.484.775.726 1.411.726.615 0 1.072-.236 1.371-.71.299-.472.452-1.206.457-2.201v-2.03zM295.194 346.951c-.059 1.331-.433 2.339-1.123 3.023S292.409 351 291.153 351c-1.32 0-2.332-.434-3.034-1.302-.703-.869-1.055-2.108-1.055-3.717v-1.965c0-1.603.364-2.84 1.091-3.709.727-.868 1.737-1.302 3.031-1.302 1.271 0 2.238.355 2.898 1.066s1.036 1.732 1.126 3.063h-2.366c-.021-.823-.148-1.391-.381-1.704-.232-.312-.659-.468-1.279-.468-.631 0-1.077.221-1.34.66-.262.442-.401 1.167-.416 2.177v2.205c0 1.16.129 1.957.389 2.389s.705.65 1.335.65c.62 0 1.047-.151 1.283-.453.236-.303.368-.849.401-1.64h2.358v.001zM309.146 339.16l2.205 8.443 2.197-8.443h3.079v11.674h-2.366v-3.159l.217-4.867-2.333 8.025h-1.603l-2.333-8.027.217 4.867v3.16h-2.358V339.16h3.078zM323.226 345.783h-2.582v3.095h3.755v1.957h-5.865V339.16h5.865v1.965h-3.755v2.759h2.582z"/><g><path d="M332.245 350.834V339.16h3.608c1.219 0 2.145.271 2.778.814.635.542.951 1.337.951 2.385 0 .594-.13 1.104-.393 1.532s-.619.74-1.074.938c.523.15.927.45 1.21.903.284.452.425 1.008.425 1.671 0 1.133-.312 1.988-.934 2.566-.623.577-1.526.866-2.707.866h-3.864v-.001zm2.357-6.791h1.227c.925 0 1.388-.479 1.388-1.436 0-.529-.107-.908-.32-1.139-.213-.231-.562-.345-1.043-.345h-1.25v2.92h-.002zm0 1.716v3.119h1.507c.422 0 .744-.13.962-.393.218-.263.328-.633.328-1.114 0-1.049-.38-1.586-1.139-1.612h-1.658zM346.632 348.445h-3.215l-.626 2.389h-2.494l3.648-11.674h2.157l3.673 11.674h-2.517l-.626-2.389zm-2.702-1.964h2.181l-1.091-4.162-1.09 4.162zM358.258 346.946c-.059 1.331-.433 2.339-1.123 3.023s-1.662 1.026-2.918 1.026c-1.321 0-2.332-.434-3.034-1.302-.704-.869-1.054-2.108-1.054-3.717v-1.965c0-1.603.364-2.84 1.091-3.709.727-.868 1.737-1.302 3.031-1.302 1.273 0 2.238.355 2.9 1.066.66.711 1.036 1.732 1.126 3.063h-2.366c-.021-.823-.149-1.391-.38-1.704-.233-.312-.66-.468-1.28-.468-.631 0-1.078.221-1.34.66-.262.442-.401 1.167-.416 2.177v2.205c0 1.16.129 1.957.389 2.389.259.433.704.65 1.335.65.619 0 1.049-.151 1.283-.453.235-.303.368-.849.401-1.64h2.355v.001zM362.82 346.328l-.93 1.171v3.336h-2.358V339.16h2.358v5.092l.746-1.259 2.173-3.833h2.887l-3.344 5.132 3.399 6.543h-2.799l-2.132-4.507z"/></g><g><path d="M413.618 346.569h-1.171v4.266h-2.358V339.16h3.76c1.181 0 2.094.307 2.738.916.645.615.967 1.485.967 2.612 0 1.548-.564 2.634-1.691 3.255l2.044 4.779v.113h-2.534l-1.755-4.266zm-1.172-1.965h1.34c.469 0 .822-.156 1.058-.467.235-.312.353-.733.353-1.255 0-1.171-.457-1.755-1.371-1.755h-1.379v3.477h-.001zM407.211 345.783h-2.582v3.095h3.755v1.957h-5.865V339.16h5.865v1.965h-3.755v2.759h2.582zM389.802 348.445h-3.215l-.626 2.389h-2.494l3.648-11.674h2.157l3.673 11.674h-2.517l-.626-2.389zm-2.703-1.964h2.181l-1.091-4.162-1.09 4.162zM378.745 348.878h4.137v1.956h-6.495V339.16h2.358v9.718zM401.035 341.125h-2.887v9.71h-2.366v-9.71h-2.839v-1.965h8.09v1.965h.002z"/></g></g><path fill="#3949ab" d="M358.986 386.5h-13c-.552 0-1-.448-1-1v-5h15v5c0 .552-.448 1-1 1z"/><path fill="#e3f2fd" d="M347.986 380.5h9v3h-9z"/><path fill="#ffe0b2" d="M406.659 180.5H242.986c8 8 8 12 8 12h299.673s0-4 8-12h-152z"/><path fill="#5c6bc0" d="M273.986 305.5v99h157v-99h-157zm150 92h-143v-17h143v17zm0-24h-143v-58h143v58z"/></svg>