<svg xmlns="http://www.w3.org/2000/svg" xmlns:xlink="http://www.w3.org/1999/xlink" viewBox="0 0 800 600"><path fill="#fff" d="M0 0h800v600H0z"/><radialGradient id="a" cx="491.963" cy="89.383" r="238.445" gradientTransform="matrix(1.339 0 0 1.2858 -261.1463 257.0781)" gradientUnits="userSpaceOnUse"><stop offset=".003" stop-color="#fff" stop-opacity="0"/><stop offset=".951" stop-color="#fff" stop-opacity=".855"/><stop offset="1" stop-color="#fff"/></radialGradient><path fill="url(#a)" d="M-.375 0h800v600h-800z"/><path fill="#fff" d="M-.375 0h800v600h-800z"/><path fill="#f5f5f5" d="M79.618 56h640v373h-640z"/><defs><path id="b" d="M79.618 56h640v373h-640z"/></defs><clipPath id="c"><use overflow="visible" xlink:href="#b"/></clipPath><g clip-path="url(#c)"><path fill="#d1d1d1" d="M204.525 408.409h3.591v26.93h-3.591z"/><path fill="#d1d1d1" d="M187.1876138 405.8054238l1.2692445-1.2692445 19.042203 19.042203-1.2692445 1.2692445z"/><path fill="#d1d1d1" d="M205.135973 423.5815728l19.042203-19.042203 1.2692445 1.2692445-19.042203 19.042203zM213.312 448.803h2.174c.887 0 1.606-.719 1.606-1.606v-15.639c0-.887-.719-1.606-1.606-1.606h-2.174c-.887 0-1.606.719-1.606 1.606v15.639c0 .887.719 1.606 1.606 1.606zM197.154 448.803h2.174c.887 0 1.606-.719 1.606-1.606v-15.639c0-.887-.719-1.606-1.606-1.606h-2.174c-.887 0-1.606.719-1.606 1.606v15.639c0 .887.719 1.606 1.606 1.606z"/><path fill="#eaeaea" d="M200.934 434.441l5.386-1.796 5.386 1.796v8.976l-5.386-1.795-5.386 1.795z"/><path fill="#d1d1d1" d="M278.134 386.865h5.386v26.93h-5.386z"/><path fill="#d1d1d1" d="M261.6945511 384.2615617l1.2692445-1.2692445 19.042203 19.042203-1.2692445 1.2692445zM290.685 436.236h3.623c1.478 0 2.677-1.198 2.677-2.677v-21.576c0-1.478-1.198-2.677-2.677-2.677h-3.623c-1.478 0-2.677 1.198-2.677 2.677v21.576c0 1.478 1.198 2.677 2.677 2.677zM267.345 436.236h3.623c1.478 0 2.677-1.198 2.677-2.677v-21.576c0-1.478-1.198-2.677-2.677-2.677h-3.623c-1.478 0-2.677 1.198-2.677 2.677v21.576c0 1.478 1.199 2.677 2.677 2.677z"/><path fill="#eaeaea" d="M273.645 415.44l7.181-2.543 7.182 2.543v12.717l-7.182-2.543-7.181 2.543z"/><path fill="#d2d2d2" d="M270.105 324.028l120.874-9.821c1.42-.115 1.693 1.968.291 2.222L270.105 338.39v-14.362z"/><path fill="#d9d9d9" d="M206.767 183.611l4.939 101.817h-12.567l4.939-101.817c.091-1.886 2.598-1.886 2.689 0z"/><path fill="#e0e0e0" d="M592.704 336.913l-326.221 14.941c-.012 0-.024.006-.031.016l-42.093 51.944c-.026.032 6.211-7.629 6.259-7.65-3.345 4.089-6.259 7.65-6.259 7.65-.026.032.001.081.042.069 3.664-1.04 85.777-24.277 134.523-32.28 38.541-6.328 134.585-19.29 198.609-27.786 1.588-.211-.997-.049-6.859.428 16.275-1.867 30.797-3.597 42.231-5.1 1.421-.186 1.231-2.297-.201-2.232z"/><path fill="#d1d1d1" d="M129.189 386.864h5.386v26.93h-5.386z"/><path fill="#d1d1d1" d="M130.7007582 402.0293492l19.042203-19.042203 1.2692445 1.2692445-19.042203 19.042203z"/><path fill="#d9d9d9" d="M122.024 436.236H118.4c-1.478 0-2.677-1.198-2.677-2.677v-21.576c0-1.478 1.198-2.677 2.677-2.677h3.623c1.478 0 2.677 1.198 2.677 2.677v21.576c0 1.478-1.198 2.677-2.676 2.677z"/><path fill="#d1d1d1" d="M145.363 436.236h-3.623c-1.478 0-2.677-1.198-2.677-2.677v-21.576c0-1.478 1.198-2.677 2.677-2.677h3.623c1.478 0 2.677 1.198 2.677 2.677v21.576c0 1.478-1.199 2.677-2.677 2.677z"/><path fill="#eaeaea" d="M139.063 415.44l-7.181-2.543-7.182 2.543v12.717l7.182-2.543 7.181 2.543z"/><path fill="#d2d2d2" d="M353.978 386.839c29.661 1.196 46.425-.093 67.242 0 0 18.568-15.053 33.621-33.621 33.621s-33.621-15.052-33.621-33.621z"/><path fill="#eee" d="M353.978 386.839c0-18.568 15.053-33.621 33.621-33.621s33.621 15.053 33.621 33.621c0 5.043-15.053 8.405-33.621 8.405s-33.621-3.362-33.621-8.405z"/><circle cx="387.599" cy="386.839" r="24.375" fill="#d4d4d4"/><circle cx="387.599" cy="386.839" r="5.884" fill="#b5b5b5"/><path fill="#d2d2d2" d="M141.657 324.028l-120.874-9.821c-1.42-.115-1.693 1.968-.291 2.222l121.165 21.961v-14.362z"/><path fill="#e0e0e0" d="M145.279 351.855l-326.221-14.941c-1.432-.066-1.622 2.046-.2 2.233 56.363 7.41 187.75 20.332 234.412 27.993 48.746 8.003 124.21 27.984 127.873 29.024.04.011 6.286 7.684 6.26 7.651L145.31 351.87c-.007-.009-.019-.015-.031-.015z"/><path fill="#e0e0e0" d="M171.331 384.17c-43.088-17.055-330.593-42.143-317.101-40.352 64.024 8.496 160.069 21.458 198.609 27.786 48.746 8.003 130.859 31.24 134.523 32.28.04.011.068-.037.042-.069-.001 0-16.073-19.644-16.073-19.645z"/><path fill="#d2d2d2" d="M57.784 386.839c-29.661 1.196-46.425-.093-67.242 0 0 18.568 15.053 33.621 33.621 33.621s33.621-15.052 33.621-33.621z"/><path fill="#f6f6f6" d="M57.784 386.839c0-18.568-15.053-33.621-33.621-33.621s-33.621 15.053-33.621 33.621c0 5.043 15.053 8.405 33.621 8.405s33.621-3.362 33.621-8.405z"/><circle cx="24.164" cy="386.839" r="24.375" fill="#c2c2c2"/><circle cx="24.164" cy="386.839" r="5.884" fill="#ccc"/><path fill="#e9e9e9" d="M134.507 340.186c0-39.166 31.75-70.915 70.915-70.915s70.915 31.75 70.915 70.915c0 3.041-.191 6.037-.563 8.976-24.312 15.662-116.513 15.017-140.699.048-.374-2.955-.568-5.967-.568-9.024z"/><path fill="#d8d8d8" d="M206.147 318.499c4.775-.935 31.903-6.141 44.158-6.141l8.977 19.749-6.284 6.284s-3.591-4.488-17.056-4.488-30.521 3.591-30.521 3.591V319.38c.002-.43.305-.799.726-.881z"/><path fill="#d8d8d8" d="M204.698 318.499c-4.775-.935-31.903-6.141-44.158-6.141l-8.977 19.749 6.284 6.284s3.591-4.488 17.056-4.488 30.521 3.591 30.521 3.591V319.38c-.001-.43-.305-.799-.726-.881z"/><path fill="#eaeaea" d="M150.651 333.018l6.283 6.284c.242.242.57.378.912.378.024 0 .047-.001.071-.002.366-.02.706-.195.936-.482.021-.024 3.568-4.005 16.049-4.005 13.179 0 30.085 3.527 30.255 3.563.039.008.078.007.118.011.049.006.098.014.148.014.049 0 .097-.008.146-.014.04-.005.08-.003.12-.012.169-.036 17.084-3.563 30.255-3.563 12.495 0 16.016 3.965 16.048 4.005.229.286.569.462.936.482.024.001.047.002.071.002.341 0 .669-.135.912-.378l6.284-6.284c.38-.38.485-.956.262-1.445l-8.977-19.749c-.209-.46-.668-.756-1.174-.756-12.3 0-39.149 5.135-44.407 6.165h-.001c-.168.033-.325.091-.476.16-.151-.068-.308-.127-.476-.16h-.001c-5.257-1.029-32.103-6.165-44.407-6.165-.506 0-.965.296-1.174.756l-8.976 19.749c-.222.49-.117 1.066.263 1.446zm56.061-13.316c2.928-.571 10.782-2.068 19.396-3.43l3.6 16.559c-9.501.617-19.282 2.374-22.995 3.09v-16.219h-.001zm51.027 12.125l-4.241 4.242-8.417-22.191c1.587-.12 3.072-.199 4.399-.222l8.259 18.171zm-21.796.786c-1.185 0-2.399.029-3.627.08l-3.656-16.817c4.7-.714 9.496-1.358 13.749-1.768l7.977 21.032c-2.73-1.258-7.257-2.527-14.443-2.527zm-31.81 3.308c-3.714-.716-13.494-2.474-22.995-3.09l3.6-16.56c8.614 1.363 16.468 2.86 19.396 3.431v16.219h-.001zm-29.231-3.308c-7.185 0-11.713 1.27-14.444 2.527l7.978-21.032c4.253.41 9.049 1.053 13.748 1.768l-3.656 16.817c-1.227-.051-2.442-.08-3.626-.08zm-21.795-.786l8.259-18.172c1.328.023 2.812.103 4.399.222l-8.417 22.191-4.241-4.241z"/><path fill="#f5f5f5" d="M205.423 353.651c39.166 0 70.353-4.489 70.353-4.489-4.412 34.928-34.228 61.939-70.353 61.939-36.108 0-65.914-26.987-70.347-61.891 0 0 31.181 4.441 70.347 4.441z"/><path fill="#f5f5f5" d="M179.39 371.604c0-14.377 11.655-26.032 26.032-26.032s26.032 11.655 26.032 26.032-11.655 26.032-26.032 26.032c-12.466 0-22.886-8.763-25.436-20.465-.39-1.793-.596-3.656-.596-5.567z"/></g><defs><path id="d" d="M79.618 56h640v373h-640z"/></defs><clipPath id="e"><use overflow="visible" xlink:href="#d"/></clipPath><g clip-path="url(#e)"><path fill="#c4c4c4" d="M434.557 146.648l-5.027 6.837c-.31.421-.715.763-1.183.996l-6.299 3.144-3.724-2.515-1.946-2.143s4.444 1.826 8.239-.638c2.524-1.639 4.988-3.765 6.355-5.005.713-.646 1.673-.943 2.626-.81l.959.134z"/><path fill="#e0e0e0" d="M466.544 165.332L477 145.225l-4.923-.687c-1.027-.143-2.069.123-2.902.74l-16.962 12.583c-2.382 1.767-5.429 2.372-8.305 1.646-6.276-1.585-18.328-4.677-31.62-8.344-25.325-6.987-54.796-15.103-59.466-10.738l-2.253 1.446s-5.311.215-5.629 2.499c-.319 2.284.041 6.159 35.879 13.932l-.622 4.459s1.542 2.46 10.812 2.174l.294-.915 5.883.447.455-1.475 1.859.384s-.038.868.755 1.145 1.393.444 1.393.444l.187 2.232 1.202.914.501-3.589 1.458.287.099 1.677.775.108.583-1.499s21.308 4.455 34.064 5.585c19.163 1.698 32.936-.042 32.936-.042l.367-2.627-1.812-.496 1.979-.698c0 .001-2.245-1.573-7.443-1.485z"/><circle cx="405.337" cy="167.934" r="2.032" fill="#c4c4c4"/><circle cx="359.33" cy="157.605" r="1.112" fill="#e0e0e0"/><path fill="#e0e0e0" d="M359.143 157.184l.649.091 2.351-4.932-.649-.09z"/><path fill="#e0e0e0" d="M359.547 155.049l-.262.567 1.561.75.279-.56zM360.142 155.088l.649.091-.932-3.155-.649-.09z"/><circle cx="402.226" cy="168.775" r="2.032" fill="#e0e0e0"/></g><path fill="#fafafa" d="M719.618 219.95v59.97L382.819 56.84l.559-.84h88.7zM719.618 302.42L346.818 56h-36.26l409.06 270.39zM446.178 429h-54.37L79.618 222.45v-35.97zM358.469 429h-36.32L79.618 268.94v-23.97z"/><path fill="#fff" d="M279.118 50.301h21v384.398h-21zM499.118 50.301h21v384.398h-21z"/><radialGradient id="f" cx="492.243" cy="89.189" r="238.445" gradientTransform="matrix(1.339 0 0 1.2858 -261.1463 257.0781)" gradientUnits="userSpaceOnUse"><stop offset=".003" stop-color="currentColor" stop-opacity="0"/><stop offset=".817" stop-color="currentColor" stop-opacity=".734"/><stop offset=".951" stop-color="currentColor" stop-opacity=".855"/><stop offset="1" stop-color="currentColor"/></radialGradient><path fill="url(#f)" d="M0-.25h800v600H0z"/><linearGradient id="g" x1="396.625" x2="396.625" y1="1680.367" y2="1660.367" gradientTransform="translate(0 -1179.3665)" gradientUnits="userSpaceOnUse"><stop offset="0" stop-color="#fff"/><stop offset="1" stop-color="#e0e0e0"/></linearGradient><path fill="url(#g)" d="M710.625 481c0 11.045-8.966 20-20.026 20H102.651c-11.06 0-20.026-8.954-20.026-20h628z" opacity=".2"/><g><path fill="#ffccbc" d="M403.078 219.167s-12.635-.686-14.039 13.723-.209 18.487 1.501 21.286c.902 1.477 1.059 3.351.446 4.969-.733 1.933-6.411 2.488-6.411 2.488-3.568 5.947 11.681 15.751 11.681 15.751l16.865-5.046-4.734-10.262c-.387-1.45.16-3.868 1.172-4.976 1.298-1.419 2.558-3.356 3.127-5.859 1.404-6.175 3.016-10.779 3.295-14.409 1.017-13.219-6.715-17.671-12.903-17.665z"/><path fill="#64b5f6" d="M401.475 271.847s-1.349 1.555-3.97 2.379l-2.333-2.116 2.797-5.94 3.506 5.677z"/><path fill="#ffccbc" d="M373.909 439.703c0 15 2.999 26.125 2.999 31.672v5h8v-5c0-5.319 5-18.625 5-29.5"/><path fill="#212121" d="M373.654 483.562c-2.073 3.687-3.37 5.617-3.37 8.135 0 3.254 3.099 4.803 3.099 4.803s9.917 0 11.776-8.677c1.069-4.99 3.719-4.958 3.719-8.677 0-2.247-1.24-6.198-1.24-6.198s-1.24 1.24-6.198 1.24c-3.719 0-3.719-1.24-3.719-1.24s.427 2.621-4.067 10.614z"/><path fill="#ffccbc" d="M423.368 439.703c0 15-2.999 26.125-2.999 31.672v5h-8v-5c0-5.319-5-18.625-5-29.5"/><path fill="#212121" d="M424.755 483.562c2.073 3.687 3.37 5.617 3.37 8.135 0 3.254-3.099 4.803-3.099 4.803s-9.917 0-11.776-8.677c-1.069-4.99-3.719-4.958-3.719-8.677 0-2.247 1.24-6.198 1.24-6.198s1.24 1.24 6.198 1.24c3.719 0 3.719-1.24 3.719-1.24s-.427 2.621 4.067 10.614z"/><path fill="#0d47a1" d="M426.241 353.987l-27.011.048h-.31l-27.011-.048s0 37.871 1.546 60.707c-1.546 19.542 1.558 62.515 1.558 62.515s2.04 2.541 7.987 2.541 6.75-3.125 6.75-3.125 6.791-45.957 6.102-62.87c1.152-7.409 2.624-27.593 3.165-34.402.581 6.884 2.133 27.019 3.281 34.402-.69 16.913 5.952 63.37 5.952 63.37s.928 2.625 6.875 2.625 8.011-2.541 8.011-2.541 3.104-42.973 1.558-62.515c1.547-22.836 1.547-60.707 1.547-60.707z"/><path fill="#212121" d="M403.078 219.167s-12.635-.686-14.039 13.723c-.324 3.326-.573 6.102-.743 8.438-.237 3.247 1.633 2.125 2.282-1.049.996-4.871 2.384-11.759 5.011-10.967 2.568.775 11.901 2.164 14.867 1.883 3.667-.347 2.265 6.451 3.124 10.569.42 2.014 1.483 3.324 1.582 2.655.439-2.952.654-5.439.819-7.586 1.017-13.22-6.715-17.672-12.903-17.666z"/><ellipse cx="413.37" cy="245.894" fill="#ffccbc" rx="4.163" ry="3.568" transform="rotate(-79.047 413.3687747 245.88807038)"/><ellipse cx="389.557" cy="243.544" fill="#ffccbc" rx="3.568" ry="4.163"/><path fill="#424242" d="M369.506 321.089l7.273 8.629-7.273 13.541s-7.445-7.082-9.23-9.973c-2.008-3.254.372-12.197 9.23-12.197zM428.725 321.089l-7.273 8.629 7.273 13.541s7.445-7.082 9.23-9.973c2.008-3.254-.372-12.197-9.23-12.197z"/><path fill="#616161" d="M433.875 273.905c-2.2-2.89-6.185-6.221-10.705-7.517-4.865-1.392-14.783-4.312-14.783-4.312s-1.277 4.752-10.882 10.96c-3.776-3.235-12.93-11.403-12.93-11.403s-4.649.984-9.514 2.376c-4.52 1.297-8.504 4.627-10.705 7.517-7.802 10.217-11.775 27.963-13.083 44.805 3.354 20.672 18.233 26.928 18.233 26.928s-14.273-17.02 0-22.17l1.986-15.451v49.955H426.738v-49.955l1.986 15.451c14.273 5.15 0 22.17 0 22.17s14.879-6.256 18.233-26.928c-1.307-16.842-5.28-32.209-13.082-42.426z"/><path fill="#b71c1c" d="M368.982 300.845h60.294v44.729h-60.294z"/><path fill="#fff" d="M372.55 304.413h53.158v37.593H372.55z"/><path fill="#ffccbc" d="M362.52 322.847c.582-2.753 2.625-5.059 5.359-5.726.284-.069.547-.11.774-.11 1.586 0 5.352 1.586 5.551 4.163.198 2.577.329 12.508-5.222 13.4v4.857s-8.836-5.357-6.462-16.584zM435.711 322.847c-.582-2.753-2.625-5.059-5.359-5.726-.284-.069-.547-.11-.774-.11-1.586 0-5.352 1.586-5.551 4.163s-.329 12.508 5.222 13.4v4.857s8.836-5.357 6.462-16.584z"/><path fill="#90caf9" d="M404.235 263.309c-1.524.948-2.866 1.08-6.266 2.86 1.109 2.652 2.944 5.915 4.749 8.153 0 0 1.768-1.091 6.582-4.702 3.761-2.821 3.844-6.148 3.844-6.148s-2.393-1.254-4.679-4.044c.001.002.23 1.106-4.23 3.881zM397.969 266.17s-2.495 7.329-5.116 8.153c0 0-5.37-8.127-8.279-12.689 2.909-2.635 6.685-3.565 6.685-3.565 1.589 1.682 4.965 7.191 6.71 8.101z"/><g fill="#b71c1c"><path d="M388.257 313.617h3.837v19.185h-3.837zM398.489 313.617h3.837v19.185h-3.837zM406.163 320.012H410v12.79h-3.837zM406.163 313.617H410v3.837h-3.837z"/><path d="M390.815 321.291h8.953v3.837h-8.953z"/></g></g><g><path fill="#64b5f6" d="M238.724 347.738h43.45v23.795h-43.45z"/><path fill="#ffccbc" d="M235.72 439.453c0 15 2.999 27.125 2.999 32.672v3l-.345 3.062 8.345-1.062v-6c0-5.319 5-18.625 5-29.5"/><path fill="#5d4037" d="M235.341 479.78c-3.184 2.046-2.912 1.315-5.363 3.815-2.165 2.208-2.23 4.158-2.23 4.158s6.669 3.07 11.518-2.083c2.359-2.506 7.762-1.725 7.566-5.254-.138-2.488-.114-5.208-.114-5.208s-.511 1.697-3.687 1.818c-2.563.098-4.415-.994-4.415-.994s-.118 1.72-3.275 3.748z"/><path fill="#ffccbc" d="M284.542 439.375c0 15-2.179 24.771-2.917 31.667-.106.994-.387 5.041-.387 5.041l-1.655 6.668-6.027-7.5.027-3.5c0-5.319-5-19.625-5-30.5"/><path fill="#5d4037" d="M284.042 481.458c1.962 2.547 3.281 3.554 4.126 5.29.961 1.974.724 3.635.724 3.635s-8.084 1.655-10.741-4.537c-1.41-3.285-5.439-3.289-5.439-5.859 0-1.552.845-4.737.845-4.737s1.48 1.232 5.018 1.232c2.653 0 2.664-.399 2.664-.399s-.064 1.655 2.803 5.375z"/><path fill="#b71c1c" d="M266.337 465.829c-2.712-18.281-6.126-88.776-6.126-88.776s-2.902 70.084-5.614 88.365l-22.681.082s-.562-96.234 7.871-128.054h41.325c8.433 31.821 8.222 128.383 8.222 128.383h-22.997z"/><path fill="#dd3636" d="M238.724 318.456h43.45v30.283h-43.45z"/><path fill="#3e2723" d="M275.317 246.217v17.273s-2.973 7.15-14.867 7.15c-10.705 0-14.867-5.961-14.867-5.961v-18.462"/><path fill="#ffccbc" d="M274.128 247.276c0 6.435-4.813 21.539-13.738 21.539-9.515 0-13.618-15.104-13.618-21.539s6.124-11.652 13.678-11.652c7.554 0 13.678 5.217 13.678 11.652z"/><path fill="#ffccbc" d="M271.993 276.731c-8.716-3.463-5.714-11.47-5.714-11.47h-11.835s2.737 9.295-5.537 11.47c0 0 4.782 20.63 12.138 20.63 7.355 0 10.948-20.63 10.948-20.63z"/><path fill="#3e2723" d="M259.855 231.944c-9.515 0-14.273 7.136-14.273 14.273 0 7.564 2.533 11.894 2.533 11.894 0-.832 1.576-1.873 2.224-4.758 0 0-.449-8.502 1.588-9.92 1.995-1.389 3.27 5.241 8.522 5.241 7.415 0 9.391 6.796 9.391 6.796l.719-3.306c3.397 1.078 3.419 4.546 3.419 5.352 0 0 1.339-3.421 1.339-11.299 0-3.568-2.379-14.273-15.462-14.273z"/><ellipse cx="250.34" cy="257.516" fill="#ffccbc" rx="3.568" ry="4.163"/><path fill="#ffccbc" d="M319.378 322.173s6.221-3.804 7.179-2.428c.794 1.14-1.343 2.387-2.012 3.056s10.306 4.328 9.811 7.08c-.451 2.504-4.029 3.487-7.88 3.294-3.609-.181-8.15-.799-9.953-1.637-1.289-.6 2.855-9.365 2.855-9.365zM201.269 322.173s-6.221-3.804-7.179-2.428c-.794 1.14 1.343 2.387 2.012 3.056s-10.306 4.328-9.811 7.08c.451 2.504 4.029 3.487 7.88 3.294 3.609-.181 8.15-.799 9.953-1.637 1.289-.6-2.855-9.365-2.855-9.365z"/><path fill="#f5f5f5" d="M271.985 276.731c-6.57 5.859-16.502 5.859-23.072 0l-.002-.002-11.519 26.902 3.519 33.978h35.076l6.187-32.358-10.187-28.521c0-.001 0-.001-.002.001z"/><ellipse cx="270.559" cy="256.327" fill="#ffccbc" rx="3.568" ry="4.163"/><path fill="#5d4037" d="M248.906 276.731s-2.995 13.443-2.995 25.59c0 11.205 1.169 34.325 1.03 46.417h-14.324c-1.091 0-1.98-.877-2.001-1.968-.638-32.796 2.18-30.711 2.18-30.711l-6.977 9.354c-3.613 2.786-9.757 3.434-15.687 4.98-1.977.515-3.93.908-5.758 1.143l-2.855-9.365s2.786-1.174 5.45-2.728c4.463-2.603 7.602-3.859 10.964-7.436 6.922-8.873 7.327-15.748 14.903-25.68 2.141-2.807 6.196-5.509 10.395-7.303 4.434-1.891 5.675-2.293 5.675-2.293zM271.993 276.731s2.995 15.633 2.995 26.72c0 9.284-2.284 33.195-2.021 45.287h14.317c1.09 0 1.979-.875 2.001-1.965.65-31.414-1.329-30.903-1.329-30.903l7.123 9.544c3.613 2.786 9.757 3.434 15.687 4.98 1.977.515 3.93.908 5.758 1.143l2.855-9.365s-2.979-1.12-5.694-2.886c-3.578-2.328-7.433-3.781-10.72-7.277-6.922-8.873-7.327-15.748-14.903-25.68-2.141-2.807-6.076-5.823-10.395-7.303-4.003-1.371-5.674-2.295-5.674-2.295z"/></g><g><path fill="#fad6b7" d="M511.739 474.773h9.869v-14.042h-10.683z"/><path fill="#212121" d="M507.632 480.487c-2.793 3.005-4.59 4.127-5.869 6.231-1.454 2.394-1.35 4.532-1.35 4.532s10.074 3.061 14.184-4.49c2.181-4.007 7.3-3.534 7.604-6.798.184-1.972-.593-7.182-.593-7.182s-2.374 1.561-7.205 1.561c-2.137 0-2.753-1.094-2.753-1.094-.009.001.059 2.854-4.018 7.24z"/><path fill="#f9a825" d="M588.706 316.637c-4.888 1.594-12.988 2.295-18.174-.809-4.924-2.95-10.705-6.625-10.705-6.625 1.712-16.419-.879-35.222-4.758-41.629 3.202.523 18.888 12.75 26.357 28.76 5.614.618 13.226 1.844 14.225 5.757 2.487 9.753-3.496 13.404-6.945 14.546zM499.732 273.364s-16.834 26.409-19.212 36.222l-8.326-1.784s7.731 5.501 5.352 10.407-8.474 0-8.474 0 5.798 11.597 12.935 12.34c7.136.743 12.043-4.312 12.043-4.312s6.096 1.189 10.705-2.527c4.607-3.717-5.023-50.346-5.023-50.346z"/><path fill="#e39922" d="M480.641 309.114c-.044.161-.085.319-.122.472l5.36 7.598s-.921-6.934-5.238-8.07z"/><path fill="#fad6b7" d="M524.558 220.646s13.616-4.316 14.039 10.154c.433 14.818-.747 19.473-2.458 22.273-.902 1.477-1.432 6.341 1.086 8.094 1.696 1.181 10.566 9.799 10.566 9.799 3.568 5.947-16.3 6.418-16.3 6.418l-18.391-7.047s6.388-5.75 7.929-8.136c1.289-1.994-.271-5.957-1.284-7.065-1.298-1.419-2.082-2.348-3.606-5.984-2.448-5.84-4.206-10.779-4.485-14.409-1.016-13.219 6.715-14.102 12.904-14.097zM547.902 474.773h-9.869v-14.042h10.684z"/><path fill="#616161" d="M503.584 346.851l25.878-4.71 26.377 4.71c0 31.924.389 39.086-1.501 67.843 1.501 19.542-2.513 51.81-2.513 51.81s-2.853-1.641-8.627-1.641-8.349 1.641-8.349 1.641-2.927-35.836-2.257-52.75c-1.119-7.409-2.548-33.54-3.073-40.349-.564 6.884-.882 32.966-1.997 40.349.67 16.913-2.257 52.75-2.257 52.75s-2.575-1.641-8.349-1.641-8.627 1.641-8.627 1.641-4.014-32.268-2.513-51.81c-1.891-28.757-2.192-35.92-2.192-67.843z"/><path fill="#3e2723" d="M529.724 217.821s10.103-1.744 10.062 12.979c-.009 3.342.068 6.492-.446 8.438-.832 3.147-1.633 2.125-2.282-1.049-.996-4.871-1.195-11.759-3.821-10.967-2.568.775-9.57 3.092-17.246 1.883-3.639-.573-1.076 6.451-1.934 10.569-.42 2.014-1.215 3.223-1.582 2.655-.91-1.41-2.168-5.768-2.559-7.885-3.064-16.562 8.165-21.937 19.808-16.623z"/><ellipse cx="515.463" cy="243.823" fill="#fad6b7" rx="3.568" ry="4.163" transform="rotate(-10.948 515.47848824 243.77951835)"/><ellipse cx="536.889" cy="241.455" fill="#fad6b7" rx="3.568" ry="4.163"/><path fill="#212121" d="M552.009 480.487c2.793 3.005 4.59 4.127 5.869 6.231 1.454 2.394 1.35 4.532 1.35 4.532s-10.074 3.061-14.184-4.49c-2.181-4.007-7.3-3.534-7.604-6.798-.184-1.972.593-7.182.593-7.182s2.374 1.561 7.205 1.561c2.137 0 2.753-1.094 2.753-1.094.009.001-.059 2.854 4.018 7.24z"/><path fill="#424242" d="M537.228 261.163s-.06.797-.167 2.224c-.892 11.43-5.007 63.205-7.006 69.223 0 0-.19-.619-.511-1.748-.488-1.713-1.297-4.591-2.272-8.219-4.603-17.341-12.798-51.917-7.077-59.589.238-.345.523-.63.833-.856l.036-1.606-.312-2.777c3.509.773 9.242.06 14.82-1.427l1.24 3.836.416.939z"/><path fill="#ffc71c" d="M561.109 306.112c-.047 10.443-.83 29.385-4.851 35.205v5.947l-52.678-.416v-5.947c-4.06-1.836-6.078-17.77-6.672-23.514-1.249-12.298-1.002-42.428 3.188-44.555 4.916-2.495 10.13-5.229 19.946-9.919.363-.174.654-.464.987-.714 0 0 1.082 1.546 3.271 1.534l4.389 61.896s5.424-15.736 4.627-61.837c3.128-.25 3.913-2.629 3.913-2.629s.642.083 1.677.238c3.176.476 16.428 4.731 16.164 6.173 3.202.524 6.116 21.353 6.039 38.538z"/><path fill="#f9a825" d="M538.906 261.401c-.404.559-1.023 1.308-1.844 1.986-.714.583-1.57 1.106-2.545 1.38.345 24.668-2.533 45.554-4.258 58.09l-.393 2.89-.321 5.114-.63 14.867-2.367.012s.626-11.038.94-20.149l-.214-2.95-4.092-57.876c-1.166-.309-2.212-1.047-2.985-1.713-.059-.06-.107-.095-.155-.143.333-.226.654-.464.987-.714l.036-1.606c.714.749 2.117 1.998 3.223 1.951h1.118l3.651 51.453c1.665-12.941 3.414-30.08 3.069-50.192l-.024-1.118 1.118-.083c1.618-.131 2.902-1.475 3.592-2.379l.416.94c0 .002.643.086 1.678.24zM550.925 332.701c-8.399-4.04-8.496-17.436-8.496-18.004l2-.001c0 .127.099 12.709 7.363 16.202l-.867 1.803zM504.799 333.106l-1.113-1.662c6.695-4.488 5.01-16.956 4.991-17.081l1.98-.283c.08.563 1.884 13.836-5.858 19.026z"/><path fill="#f9a825" d="M503.58 340.901v8.325l52.679.417v-8.326"/><path fill="#fad6b7" d="M475.979 308.613c2.233 2.863 3.021 4.554 2.558 7.22-.326 1.877-1.037 5.255-5.05 5.052-2.563-.13-5.734-.715-8.743-1.9-1.586-.625-6.745-3.485-7.328-7.901-.337-2.548.074-8.083 3.5-8.083 2.016 0 4.499 4.817 8.395 4.077 1.418-.269-1.369-3.474.189-4.232 1.75-.852 3.896 2.455 6.479 5.767z"/><path fill="#bdbdbd" d="M525.265 466.504s-8.886 3.296-16.976 0c-1.472-2.453-.423-4.686-.423-4.686s10.781 1.78 17.886.293c1.629 1.866-.487 4.393-.487 4.393zM551.825 466.504c-9.792 2.998-16.976 0-16.976 0s-2.13-2.893-.518-4.686c9.693 1.982 17.87.558 17.87.558s.908 1.774-.376 4.128z"/><path fill="#43a047" d="M589.801 277.042l1.39-.397c-.971-3.394-4.525-5.297-4.676-5.376l-.674 1.279c.031.016 3.161 1.702 3.96 4.494z"/><path fill="#43a047" d="M576.2 270.719s1.524-.355 3.155-1.418c1.631-1.064 5.562-1.418 8.219.605 2.705 2.06.759 6.055-1.794 6.055-2.562 0-3.483-1.91-3.838-3.186-.354-1.276-1.098-2.41-5.742-2.056z"/><path fill="#2e7d32" d="M608.074 284.462s-1.933-1.368-2.946-2.889c-1.763-2.647-7.859-3.363-11.312-1.012-3.516 2.394-.976 7.512 2.213 7.682 3.2.17 5.068-1.113 6.157-2.362 1.254-1.437 3.385-2.016 5.888-1.419z"/><path fill="#2e7d32" d="M588.845 287.648l-1.358-.496c.785-2.149 5.201-2.784 6.078-2.89l.173 1.435c-1.764.213-4.539.982-4.893 1.951z"/><path fill="#388e3c" d="M611.46 264.327c-1.367.389-2.875 1.062-4.248 1.781-1.39.74-2.732 1.584-4.012 2.518-2.549 1.883-4.856 4.113-6.845 6.604-4.014 4.974-6.736 10.933-8.425 17.135-1.577 6.28-2.937 12.696-3.847 19.112-.45 3.22-.679 6.436-1.025 9.734-.306 3.314-1.104 6.639-2.145 9.784l-2.154-.743c1.092-3.033 1.922-6.083 2.303-9.279.383-3.199.667-6.507 1.169-9.759.976-6.527 2.346-12.919 3.941-19.323 1.677-6.415 4.496-12.603 8.604-17.908 2.04-2.658 4.438-5.049 7.1-7.114 1.33-1.035 2.734-1.979 4.206-2.822 1.501-.833 2.963-1.57 4.727-2.134l.651 2.414z"/><path fill="#43a047" d="M601.689 250.346c-1.683 2.75-3.139 5.908-4.455 9.008-1.298 3.136-2.486 6.328-3.565 9.559-2.148 6.47-3.894 13.067-5.452 19.727-1.553 6.667-3.049 13.342-4.438 20.052-1.404 6.692-2.829 13.479-5.047 20.042l-2.154-.743c1.145-3.198 2.144-6.436 3.01-9.725.851-3.294 1.584-6.634 2.333-9.975 1.49-6.687 2.942-13.394 4.532-20.064 1.557-6.681 3.245-13.363 5.346-19.922 1.027-3.288 2.167-6.545 3.426-9.764 1.272-3.238 2.562-6.382 4.357-9.539l2.107 1.344z"/><path fill="#66bb6a" d="M584.236 251.528c.387 1.72.683 3.367.962 5.05.281 1.675.509 3.353.734 5.031.446 3.355.778 6.718 1.016 10.085.54 6.732.662 13.477.568 20.221-.101 6.747-.67 13.492-1.547 20.186-.842 6.687-1.284 11.331-1.253 17.853h-2.584c.065-3.46 1.211-14.809 1.696-18.119.498-3.308.868-6.627 1.131-9.955.283-3.326.422-6.663.501-10.001.012-1.67.066-3.339.02-5.01l-.037-2.506-.084-2.505c-.117-3.339-.317-6.675-.625-10-.312-3.325-.717-6.641-1.233-9.938-.265-1.647-.56-3.289-.891-4.92-.323-1.624-.692-3.276-1.123-4.823l2.749-.649z"/><path fill="#66bb6a" d="M567.393 280.319s2.799-1.257 4.419-2.813c2.116-2.031 7.244-2.171 10.31.163 3.121 2.377 1.227 6.75-1.719 6.75-2.956 0-4.419-2.35-5.361-3.554-1.084-1.385-2.951-1.506-7.649-.546z"/><path fill="#66bb6a" d="M587.203 284.793l-1.446-.032c.027-1.212-2.432-2.704-3.628-3.237l.588-1.32c.466.207 4.542 2.096 4.486 4.589z"/><path fill="#ff8f00" d="M582.22 242.533c-.405-3.002-2.487-4.442-2.487-4.442s-1.622 1.972-1.222 4.942l.807 5.984 3.709-.5-.807-5.984zM581.168 262.741c.405 3.002 2.487 4.442 2.487 4.442s1.622-1.972 1.222-4.942l-.807-5.984-3.709.5.807 5.984z"/><path fill="#ff8f00" d="M574.921 245.121c-2.409-1.837-4.9-1.383-4.9-1.383s.247 2.541 2.631 4.358l4.802 3.661 2.269-2.976-4.802-3.66zM588.467 260.153c2.409 1.837 4.9 1.383 4.9 1.383s-.247-2.541-2.631-4.358l-4.802-3.661-2.269 2.976 4.802 3.66zM574.178 259.41c-1.837 2.409-1.383 4.9-1.383 4.9s2.541-.247 4.358-2.631l3.661-4.802-2.976-2.269-3.66 4.802zM589.21 245.864c1.837-2.409 1.383-4.9 1.383-4.9s-2.541.247-4.358 2.631l-3.661 4.802 2.976 2.269 3.66-4.802z"/><path fill="#ff8f00" d="M571.59 252.111c-3.002.405-4.442 2.487-4.442 2.487s1.972 1.622 4.942 1.222l5.984-.807-.5-3.709-5.984.807zM591.798 253.163c3.002-.405 4.442-2.487 4.442-2.487s-1.972-1.622-4.942-1.222l-5.984.807.5 3.709 5.984-.807z"/><path fill="#ffb300" d="M585.97 243.468c.751-2.935-.64-5.051-.64-5.051s-2.243 1.22-2.986 4.123l-1.496 5.85 3.625.927 1.497-5.849zM577.418 261.807c-.75 2.935.64 5.051.64 5.051s2.243-1.22 2.986-4.123l1.496-5.85-3.625-.927-1.497 5.849z"/><path fill="#ffb300" d="M578.234 243.13c-1.545-2.606-4.024-3.119-4.024-3.119s-.724 2.449.805 5.027l3.079 5.194 3.219-1.908-3.079-5.194zM585.154 262.144c1.545 2.606 4.024 3.119 4.024 3.119s.724-2.449-.805-5.027l-3.079-5.194-3.219 1.908 3.079 5.194zM572.187 256.097c-2.606 1.545-3.119 4.024-3.119 4.024s2.449.724 5.027-.805l5.194-3.079-1.908-3.219-5.194 3.079zM591.201 249.177c2.606-1.545 3.119-4.024 3.119-4.024s-2.449-.724-5.027.805l-5.194 3.079 1.908 3.219 5.194-3.079z"/><path fill="#ffb300" d="M572.525 248.361c-2.935-.751-5.051.64-5.051.64s1.22 2.243 4.123 2.986l5.85 1.496.927-3.626-5.849-1.496zM590.864 256.913c2.935.751 5.051-.64 5.051-.64s-1.22-2.243-4.123-2.986l-5.85-1.496-.927 3.626 5.849 1.496z"/><circle cx="581.694" cy="252.637" r="5.695" fill="#616161"/><g><path fill="#ff8f00" d="M599.646 241.562c-.405-3.002-2.487-4.442-2.487-4.442s-1.622 1.972-1.222 4.942l.807 5.984 3.709-.5-.807-5.984zM598.594 261.77c.405 3.002 2.487 4.442 2.487 4.442s1.622-1.972 1.222-4.942l-.807-5.984-3.709.5.807 5.984z"/><path fill="#ff8f00" d="M592.347 244.15c-2.409-1.837-4.9-1.383-4.9-1.383s.247 2.541 2.631 4.358l4.802 3.661 2.269-2.976-4.802-3.66zM605.893 259.182c2.409 1.837 4.9 1.383 4.9 1.383s-.247-2.541-2.631-4.358l-4.802-3.661-2.269 2.976 4.802 3.66zM591.604 258.439c-1.837 2.409-1.382 4.9-1.382 4.9s2.541-.247 4.358-2.631l3.661-4.802-2.976-2.269-3.661 4.802zM606.636 244.893c1.837-2.409 1.383-4.9 1.383-4.9s-2.541.247-4.358 2.631L600 247.426l2.976 2.269 3.66-4.802z"/><path fill="#ff8f00" d="M589.016 251.14c-3.002.405-4.442 2.487-4.442 2.487s1.972 1.622 4.942 1.222l5.984-.807-.5-3.709-5.984.807zM609.224 252.192c3.002-.405 4.442-2.487 4.442-2.487s-1.972-1.622-4.942-1.222l-5.984.807.5 3.709 5.984-.807z"/><path fill="#ffb300" d="M603.396 242.497c.751-2.935-.64-5.051-.64-5.051s-2.243 1.22-2.986 4.123l-1.496 5.85 3.625.927 1.497-5.849zM594.844 260.836c-.75 2.935.64 5.051.64 5.051s2.243-1.22 2.986-4.123l1.496-5.85-3.626-.927-1.496 5.849z"/><path fill="#ffb300" d="M595.66 242.159c-1.545-2.606-4.024-3.119-4.024-3.119s-.724 2.449.805 5.027l3.079 5.194 3.219-1.908-3.079-5.194zM602.58 261.174c1.545 2.606 4.024 3.119 4.024 3.119s.724-2.449-.805-5.027l-3.079-5.194-3.219 1.908 3.079 5.194zM589.612 255.126c-2.606 1.545-3.119 4.024-3.119 4.024s2.449.724 5.027-.805l5.194-3.079-1.908-3.219-5.194 3.079zM608.627 248.206c2.606-1.545 3.119-4.024 3.119-4.024s-2.449-.724-5.027.805l-5.194 3.079 1.908 3.219 5.194-3.079z"/><path fill="#ffb300" d="M589.95 247.39c-2.935-.751-5.051.64-5.051.64s1.22 2.243 4.123 2.986l5.85 1.496.927-3.626-5.849-1.496zM608.289 255.942c2.935.751 5.051-.64 5.051-.64s-1.22-2.243-4.123-2.986l-5.85-1.496-.927 3.626 5.849 1.496z"/><circle cx="599.12" cy="251.666" r="5.695" fill="#616161"/></g><g><path fill="#ff8f00" d="M612.277 254.016c-.405-3.002-2.487-4.442-2.487-4.442s-1.622 1.972-1.222 4.942l.807 5.984 3.709-.5-.807-5.984zM611.226 274.224c.405 3.002 2.487 4.442 2.487 4.442s1.622-1.972 1.222-4.942l-.807-5.984-3.709.5.807 5.984z"/><path fill="#ff8f00" d="M604.979 256.604c-2.409-1.837-4.9-1.383-4.9-1.383s.247 2.541 2.631 4.358l4.802 3.661 2.269-2.976-4.802-3.66zM618.525 271.637c2.409 1.837 4.9 1.383 4.9 1.383s-.247-2.541-2.631-4.358L615.992 265l-2.269 2.976 4.802 3.661zM604.236 270.893c-1.837 2.409-1.383 4.9-1.383 4.9s2.541-.247 4.359-2.631l3.661-4.802-2.976-2.269-3.661 4.802zM619.268 257.348c1.837-2.409 1.383-4.9 1.383-4.9s-2.541.247-4.358 2.631l-3.661 4.802 2.976 2.269 3.66-4.802z"/><path fill="#ff8f00" d="M601.648 263.595c-3.002.405-4.442 2.487-4.442 2.487s1.972 1.622 4.942 1.222l5.984-.807-.5-3.709-5.984.807zM621.856 264.646c3.002-.405 4.442-2.487 4.442-2.487s-1.972-1.622-4.942-1.222l-5.984.807.5 3.709 5.984-.807z"/><path fill="#ffb300" d="M616.028 254.951c.751-2.935-.64-5.051-.64-5.051s-2.243 1.22-2.986 4.123l-1.496 5.85 3.626.927 1.496-5.849zM607.476 273.29c-.751 2.935.64 5.051.64 5.051s2.243-1.22 2.986-4.123l1.496-5.85-3.626-.927-1.496 5.849z"/><path fill="#ffb300" d="M608.292 254.613c-1.545-2.606-4.024-3.119-4.024-3.119s-.724 2.449.805 5.027l3.079 5.194 3.219-1.908-3.079-5.194zM615.212 273.628c1.545 2.606 4.024 3.119 4.024 3.119s.724-2.449-.805-5.027l-3.079-5.194-3.219 1.908 3.079 5.194zM602.244 267.581c-2.606 1.545-3.119 4.024-3.119 4.024s2.449.724 5.027-.805l5.194-3.079-1.908-3.219-5.194 3.079zM621.259 260.66c2.606-1.545 3.119-4.024 3.119-4.024s-2.449-.724-5.027.805l-5.194 3.079 1.908 3.219 5.194-3.079z"/><path fill="#ffb300" d="M602.582 259.844c-2.935-.751-5.051.64-5.051.64s1.22 2.243 4.123 2.986l5.85 1.496.927-3.626-5.849-1.496zM620.921 268.396c2.935.751 5.051-.64 5.051-.64s-1.22-2.243-4.123-2.986l-5.85-1.496-.927 3.626 5.849 1.496z"/><circle cx="611.752" cy="264.12" r="5.695" fill="#616161"/></g><path fill="#fad6b7" d="M580.569 292.594c.518-.699 1.377-1.06 2.245-1.001 2.888.195 9.619.962 11.165 3.9 1.515 2.878.599 8.995-1.597 12.518-.955 1.531-2.828 2.218-4.563 1.722l-3.355-2.148s-4.634-1.872-5.749-4.361c-.815-1.818-.992-6.793 1.854-10.63z"/></g><g><path fill="none" stroke="#b0bec5" stroke-miterlimit="10" stroke-width="12" d="M126.551 371.533s53.449 10 273.449 10c222 0 273.449-10 273.449-10"/><path fill="#90a4ae" d="M120.448 356.218h8.103V481h-8.103z"/><circle cx="124.5" cy="350.816" r="6.752" fill="#90a4ae"/><g><path fill="#90a4ae" d="M671.449 356.218h8.103V481h-8.103z"/><circle cx="675.5" cy="350.816" r="6.752" fill="#90a4ae"/></g></g></svg>