<svg xmlns="http://www.w3.org/2000/svg" data-name="Layer 1" viewBox="0 0 800 600"><defs><radialGradient id="a" cx="736.97" cy="537.14" r="280.78" gradientTransform="matrix(1.42 0 0 -1.38 -641.9 1131.89)" gradientUnits="userSpaceOnUse"><stop offset="0" stop-color="#b3b3b3"/><stop offset=".47" stop-color="#b3b3b3"/><stop offset=".54" stop-color="#b5b5b5" stop-opacity=".98"/><stop offset=".62" stop-color="#bababa" stop-opacity=".91"/><stop offset=".71" stop-color="#c3c3c3" stop-opacity=".79"/><stop offset=".79" stop-color="#cfcfcf" stop-opacity=".64"/><stop offset=".87" stop-color="#dedede" stop-opacity=".43"/><stop offset=".95" stop-color="#f1f1f1" stop-opacity=".18"/><stop offset="1" stop-color="#fff" stop-opacity="0"/></radialGradient><radialGradient id="b" cx="208.5" cy="961.5" r="59.5" gradientTransform="matrix(1 0 0 -1 0 1150)" gradientUnits="userSpaceOnUse"><stop offset=".76" stop-color="#e1e1e1"/><stop offset=".78" stop-color="#e6e6e6" stop-opacity=".64"/><stop offset=".8" stop-color="#ececec" stop-opacity=".3"/><stop offset=".81" stop-color="#efefef" stop-opacity=".08"/><stop offset=".82" stop-color="#f0f0f0" stop-opacity="0"/></radialGradient><linearGradient id="c" x1="400" x2="400" y1="757" y2="633" gradientTransform="matrix(1 0 0 -1 0 1150)" gradientUnits="userSpaceOnUse"><stop offset="0" stop-color="#e0e0e0"/><stop offset=".29" stop-color="#e0e0e0" stop-opacity=".99"/><stop offset=".43" stop-color="#e1e1e1" stop-opacity=".96"/><stop offset=".54" stop-color="#e3e3e3" stop-opacity=".9"/><stop offset=".64" stop-color="#e6e6e6" stop-opacity=".81"/><stop offset=".72" stop-color="#e9e9e9" stop-opacity=".71"/><stop offset=".8" stop-color="#ededed" stop-opacity=".57"/><stop offset=".87" stop-color="#f2f2f2" stop-opacity=".41"/><stop offset=".93" stop-color="#f8f8f8" stop-opacity=".23"/><stop offset=".99" stop-color="#fefefe" stop-opacity=".03"/><stop offset="1" stop-color="#fff" stop-opacity="0"/></linearGradient><radialGradient id="d" cx="589.6" cy="-783.2" r="78.65" gradientTransform="translate(1.02 1101.16)" gradientUnits="userSpaceOnUse"><stop offset="0" stop-color="#e0e0e0"/><stop offset="1" stop-color="#ccc" stop-opacity="0"/></radialGradient><radialGradient id="e" cx="400" cy="-227.02" r="256.27" gradientTransform="translate(0 550.02)" gradientUnits="userSpaceOnUse"><stop offset="0" stop-color="#cfcfcf"/><stop offset="1" stop-color="#d4d4d4"/></radialGradient><linearGradient id="f" x1="399" x2="399" y1="-608.63" y2="-626.63" gradientTransform="translate(0 1070.63)" gradientUnits="userSpaceOnUse"><stop offset="0" stop-color="#fff" stop-opacity="0"/><stop offset="1" stop-color="#b3b3b3" stop-opacity=".8"/></linearGradient><radialGradient id="g" cx="474.96" cy="856.5" r="4.82" gradientTransform="matrix(1 0 0 -1 0 1150)" gradientUnits="userSpaceOnUse"><stop offset=".76" stop-color="#ebebeb"/><stop offset=".77" stop-color="#ececec" stop-opacity=".86"/><stop offset=".78" stop-color="#eee" stop-opacity=".66"/><stop offset=".79" stop-color="#f0f0f0" stop-opacity=".48"/><stop offset=".8" stop-color="#f2f2f2" stop-opacity=".33"/><stop offset=".81" stop-color="#f3f3f3" stop-opacity=".21"/><stop offset=".82" stop-color="#f4f4f4" stop-opacity=".12"/><stop offset=".83" stop-color="#f4f4f4" stop-opacity=".05"/><stop offset=".85" stop-color="#f5f5f5" stop-opacity=".01"/><stop offset=".87" stop-color="#f5f5f5" stop-opacity="0"/></radialGradient></defs><path fill="currentColor" d="M0 0h800v600H0z"/><path fill="url(#a)" d="M0 0h800v600H0z"/><circle cx="208.5" cy="188.5" r="41.5" fill="#cdcdcd"/><path fill="#c8c8c8" d="M250 188.5a41.51 41.51 0 0 1-62 36.07 294.45 294.45 0 0 1 60.46-47.45A41.26 41.26 0 0 1 250 188.5z"/><path fill="#b6b6b6" d="M244.94 186.61l-3.94-1.13-.47-.14a23.88 23.88 0 0 0-9.49.2c-5.8 1.72-2.45 6.06-9.38 4.08-.89-.25-.93-4.36-.48-5.93.19-.67 3.25-1.25 4.57-1.6a2.35 2.35 0 0 0 1.82-2.14l-1.31-3a2.58 2.58 0 0 1 1.36-2.26l5.38-2.09a5.9 5.9 0 0 0 2.85-2.32l6.25-6.14a41.26 41.26 0 0 1 7.9 24.36"/><path fill="#afafaf" d="M219.43 213.69c.33 1.13 1.51 5.49 2.5 10.12.17.88.45 2.09.73 3.29a40.85 40.85 0 0 0 7.91-4.15 42.39 42.39 0 0 0 6.45-5.36l-17.67-4.19a2.45 2.45 0 0 1 .08.29z"/><path fill="#b9b9b9" d="M208.69 162l-3.19 11.18c-1.28 4.47-5.08 3.38-8 2.56-7.16-2-7.86 2.11-8.63 4.79s-1.27 4.47-3.28 3.89-.07-4.85-3.42-5.81l-2-.56-10.94-3.12a41.55 41.55 0 0 1 32.4-27.36 19.4 19.4 0 0 0-2.41 4.25c-.77 2.68 1.95 4.18 5.75 5.27 4.51 1.27 3.91 4.23 3.72 4.91zm-7.02 41.5l-1.71 6s-3 3.78-3.71 4.55a76 76 0 0 0-8.87 10.17 41 41 0 0 1-5-3.48c-.7-.57-1.37-1.16-2-1.77l2.5-8.77v-16.9l2.54-1.41.34-.19 1.78.5 3.58 1c1.57.45 3.13 2.59 4.09 4.3 1.95 4.7 3.79 5.22 6.46 6z"/><path fill="#9b9b9b" d="M250 188.5a41.43 41.43 0 0 1-18.42 34.5 21.14 21.14 0 0 0-11.07-9.26h-.08c-.91-.38-8.47-3.88-6.31-11.46.71-2.45 2.56-8.94 13.74-5.75 6.7 1.92 11.81 1 12.45-1.28 1.91-6.7.32-9.58.32-9.58a1.77 1.77 0 0 0 .31-.15h.06c2.45-1.36 4.16-6.32 7.51-8.08A41.3 41.3 0 0 1 250 188.5z"/><path fill="#aaa" d="M202.91 207.52c-2.07 7.36-6.67 6.53-6.67 6.53-3.33-.93-11.27 1-13.87 6.69-.7-.57-1.37-1.16-2-1.77s-1.38-1.31-2-2c.57-4.84-1-13 1-19.82 1.29-4.47-4.43-9-5.84-10.86-1.89-2.49-4.21-5.48-5.09-8.28.27-1 .58-2.07.94-3.08a41.35 41.35 0 0 1 10.27-16.15 12.55 12.55 0 0 1 1.06 8.28c-1 3.36 2.75 7.32 1.6 11.34a8 8 0 0 0-2-.35c-2-.07-3 .94-3.31 2l-.63 2.23c-.33 1.13.37 2 1.72 2.43 1.79.51 1.88 1 1.56 2.14s.29 3.23 1.63 3.61l4.25 1.21-.07.25c-2.36 8.54.94 12.1 5.37 13.35 8.5 2.43 10.89-1.72 10.89-1.72 1.28.39 1.44 3.08 1.19 3.97z"/><path fill="url(#b)" d="M208.5 129a59.5 59.5 0 1 0 59.5 59.5 59.5 59.5 0 0 0-59.5-59.5zm0 101a41.5 41.5 0 1 1 41.5-41.5 41.5 41.5 0 0 1-41.5 41.5z"/><path style="isolation:isolate" fill="#fff" d="M615.24 227.87a293.48 293.48 0 0 0-98.09-68.15 301.13 301.13 0 0 0-234.3 0A292.74 292.74 0 0 0 188 224.57c-1.08 1.09-2.14 2.19-3.2 3.3C127.57 288 96.05 370.26 96 459.62c1.29 1.3 14 13.23 56.69 25.28 25.54 7.22 56.66 13 92.48 17.14 44.6 5.18 96.7 7.85 154.84 8 58.12-.11 110.22-2.78 154.82-8 35.82-4.15 66.94-9.92 92.48-17.14 42.64-12 55.4-24 56.69-25.28 0-89.35-31.56-171.62-88.76-231.75z" opacity=".45"/><path fill="#fff" d="M374.5 93l1 7.16a1.55 1.55 0 0 0 .44.87 1.61 1.61 0 0 0 .87.44l7.15 1-7.16 1a1.55 1.55 0 0 0-.87.44 1.61 1.61 0 0 0-.44.87l-1 7.15-1-7.16a1.51 1.51 0 0 0-.49-.77 1.61 1.61 0 0 0-.87-.44l-7.15-1 7.16-1a1.52 1.52 0 0 0 .86-.56 1.61 1.61 0 0 0 .44-.87z"/><path fill="#fafafa" d="M633.5 195l1.37 9.42a2 2 0 0 0 .57 1.14 2.08 2.08 0 0 0 1.14.58l9.42 1.36-9.42 1.37a2 2 0 0 0-1.72 1.71L633.5 220l-1.37-9.42a2 2 0 0 0-.57-1.14 2.08 2.08 0 0 0-1.14-.58L621 207.5l9.42-1.37a2 2 0 0 0 1.72-1.71zm-380 185l.82 5.65a1.24 1.24 0 0 0 .35.69 1.11 1.11 0 0 0 .68.34l5.65.82-5.65.82a1.24 1.24 0 0 0-.69.35 1.11 1.11 0 0 0-.34.68l-.82 5.65-.82-5.65a1.24 1.24 0 0 0-.35-.69 1.11 1.11 0 0 0-.68-.34l-5.65-.82 5.65-.82a1.24 1.24 0 0 0 .69-.35 1.11 1.11 0 0 0 .34-.68z"/><circle cx="288" cy="131" r="3" fill="#fff"/><path fill="#fafafa" d="M405.5 248l.6 4.15a1 1 0 0 0 .25.5 1 1 0 0 0 .51.25l4.14.6-4.15.6a1 1 0 0 0-.5.25 1 1 0 0 0-.25.51l-.6 4.14-.6-4.15a1 1 0 0 0-.25-.5 1 1 0 0 0-.51-.25l-4.14-.6 4.15-.6a1 1 0 0 0 .5-.25 1 1 0 0 0 .25-.51zm59-49l.6 4.15a1 1 0 0 0 .25.5 1 1 0 0 0 .51.25l4.14.6-4.15.6a1 1 0 0 0-.5.25 1 1 0 0 0-.25.51l-.6 4.14-.6-4.15a1 1 0 0 0-.25-.5 1 1 0 0 0-.51-.25l-4.14-.6 4.15-.6a1 1 0 0 0 .5-.25 1 1 0 0 0 .25-.51zm-231 86l1.15 7.91a1.66 1.66 0 0 0 .48 1 1.73 1.73 0 0 0 1 .49l7.87 1.1-7.91 1.15a1.66 1.66 0 0 0-1 .48 1.73 1.73 0 0 0-.49 1l-1.1 7.87-1.15-7.91a1.66 1.66 0 0 0-.48-1 1.73 1.73 0 0 0-1-.49l-7.87-1.1 7.91-1.15a1.66 1.66 0 0 0 1-.48 1.73 1.73 0 0 0 .49-1zm-69 78l.6 4.15a1 1 0 0 0 .25.5 1 1 0 0 0 .51.25l4.14.6-4.15.6a1 1 0 0 0-.5.25 1 1 0 0 0-.25.51l-.6 4.14-.6-4.15a1 1 0 0 0-.25-.5 1 1 0 0 0-.51-.25l-4.14-.6 4.15-.6a1 1 0 0 0 .5-.25 1 1 0 0 0 .25-.51zm390-112l.6 4.15a1 1 0 0 0 .25.5 1 1 0 0 0 .51.25l4.14.6-4.14.6a.87.87 0 0 0-.76.76l-.6 4.14-.6-4.15a1 1 0 0 0-.25-.5 1 1 0 0 0-.51-.25l-4.14-.6 4.14-.6a.87.87 0 0 0 .76-.76zm-332 112l.6 4.14a.87.87 0 0 0 .76.76l4.14.6-4.14.6a.87.87 0 0 0-.76.76l-.6 4.14-.6-4.15a1 1 0 0 0-.25-.5.91.91 0 0 0-.51-.25l-4.14-.6 4.14-.6a.87.87 0 0 0 .76-.76zm448 10l.6 4.15a.87.87 0 0 0 .26.5 1 1 0 0 0 .5.25l4.14.6-4.14.6a.87.87 0 0 0-.76.76l-.6 4.14-.6-4.15a1 1 0 0 0-.25-.5 1 1 0 0 0-.51-.25l-4.14-.6 4.15-.6a1 1 0 0 0 .5-.25 1 1 0 0 0 .25-.51z"/><path fill="#fff" d="M373.5 173l.82 5.65a1.24 1.24 0 0 0 .35.69 1.11 1.11 0 0 0 .68.34l5.65.82-5.65.82a1.24 1.24 0 0 0-.69.35 1.11 1.11 0 0 0-.34.68l-.82 5.65-.82-5.65a1.24 1.24 0 0 0-.35-.69 1.11 1.11 0 0 0-.68-.34l-5.65-.82 5.65-.82a1.24 1.24 0 0 0 .69-.35 1.11 1.11 0 0 0 .34-.68zm231 210l.82 5.65a1.24 1.24 0 0 0 .35.69 1.11 1.11 0 0 0 .68.34l5.65.82-5.65.82a1.24 1.24 0 0 0-.69.35 1.11 1.11 0 0 0-.34.68l-.82 5.65-.82-5.65a1.24 1.24 0 0 0-.35-.69 1.11 1.11 0 0 0-.68-.34l-5.65-.82 5.65-.82a1.24 1.24 0 0 0 .69-.35 1.11 1.11 0 0 0 .34-.68zm-103-115l.82 5.65a1.24 1.24 0 0 0 .35.69 1.11 1.11 0 0 0 .68.34l5.65.82-5.65.82a1.24 1.24 0 0 0-.69.35 1.11 1.11 0 0 0-.34.68l-.82 5.65-.82-5.65a1.24 1.24 0 0 0-.35-.69 1.11 1.11 0 0 0-.68-.34l-5.65-.82 5.65-.82a1.24 1.24 0 0 0 .69-.35 1.11 1.11 0 0 0 .34-.68zm27-62l1.5 10.17a2.19 2.19 0 0 0 .62 1.24 2.26 2.26 0 0 0 1.23.62L542 219.5l-10.17 1.5a2.2 2.2 0 0 0-1.86 1.85L528.5 233l-1.5-10.17a2.19 2.19 0 0 0-.62-1.24 2.26 2.26 0 0 0-1.23-.62L515 219.5l10.17-1.5a2.2 2.2 0 0 0 1.86-1.85z"/><circle cx="525" cy="101" r="3" fill="#fafafa"/><circle cx="481" cy="121" r="2" fill="#fff"/><circle cx="639" cy="403" r="2" fill="#fff"/><circle cx="583" cy="127" r="4" fill="#fafafa"/><circle cx="144" cy="317" r="3" fill="#eee"/><circle cx="376" cy="281.07" r="3" fill="#eee"/><circle cx="140" cy="242" r="2" fill="#fafafa"/><g><path fill="#fff" d="M779 517s-86.71-124-379-124S21 517 21 517H0v83h800v-83z"/><path fill="url(#c)" d="M21 517s86.71-124 379-124 379 124 379 124z"/></g><g><circle cx="589.5" cy="318.5" r="78.5" fill="url(#d)"/><circle cx="589.5" cy="318.5" r="18.5" fill="#fff"/></g><path fill="url(#e)" d="M400 140a293.12 293.12 0 0 1 115.58 23.4 289.55 289.55 0 0 1 96.77 67.23c56.1 58.95 87.18 139.58 87.64 227.19-4 3.24-18.66 13.44-54.88 23.55-25.38 7.08-56.25 12.74-91.77 16.82-44.22 5.08-95.81 7.7-153.33 7.81-57.54-.11-109.13-2.73-153.35-7.81-35.52-4.08-66.39-9.74-91.77-16.82-36.24-10.12-50.89-20.32-54.89-23.55.47-87.64 31.55-168.25 87.65-227.19a289.41 289.41 0 0 1 96.76-67.23A293.16 293.16 0 0 1 400 140m0-8c-82.87 0-161 33.07-218.14 93.12C123.91 286 92 369.36 92 459.85a3.5 3.5 0 0 0 1 2.43c2 2.1 51.94 51.25 307 51.72 255.06-.47 305-49.62 307-51.72a3.5 3.5 0 0 0 1-2.43c0-90.49-31.91-173.85-89.86-234.73C561 165.07 482.87 132 400 132z"/><g><path fill="#ebebeb" d="M440.25 331H426a2 2 0 0 1 0-4h14.25a28.81 28.81 0 0 0 6.28-.59h.16c.32-.06 3.31-.65 3.31-3.45a19.79 19.79 0 0 0-.67-4.19c-2.07-8.92-4.23-16.59-5.66-21.66l-.15-.52c-.16-.57-.34-1.23-.53-1.93-1-3.73-3.65-13.63-6.52-13.63a2 2 0 0 1 0-4c5.94 0 8.51 9.59 10.39 16.59.18.69.35 1.32.51 1.88l.15.53c1.44 5.1 3.62 12.82 5.71 21.83A24.09 24.09 0 0 1 454 323c0 5-4.27 7-6.61 7.39a31.67 31.67 0 0 1-7.14.61z"/><path fill="#fafafa" d="M441.77 238.43l-1-.43L424 320h1.06a5.4 5.4 0 0 0 5.31-4.21l14.52-71.38a5.34 5.34 0 0 0-3.12-5.98z"/><path style="isolation:isolate" fill="url(#f)" d="M568 444a18 18 0 0 1-18 18H248a18 18 0 0 1-18-18z" opacity=".2"/><path fill="#4d3e34" d="M387 318l5 1h7.27a10.57 10.57 0 0 1 1.49.13c.92.16 2.5.44 3.57.69a3.17 3.17 0 0 1 1.84 1.1c1.08 1.36 4.82 4.78 4.83 5.79 0 .23-.05.75-.83.82-.95.09-6.14-3-6.14-3l-4-.59-1 1a16.49 16.49 0 0 0 3 1.35c1 .35 1 .68 1 1.18 0 .21-.09.68-.8.75-1.13.12-3.4-.28-5.12-.28a8.48 8.48 0 0 1-5.08-2h-7z"/><path fill="#1b3963" d="M343 279c-4 0-9 1-9 14 0 6 2.22 22.78 8 30 4 5 37.62 3 43 3l2-8s-14.91-3.16-30.72-5.8c0 0-1.32-5.44-3.51-15.92C350 283 347.12 279 343 279z"/><path fill="#22477d" d="M344 276c5 3 9 15.49 9 26 0 13-3 27-2 40a87.37 87.37 0 0 1 0 15h-31v-81z"/><path fill="#212121" d="M345.72 428.62A5 5 0 0 1 345 426a4.66 4.66 0 0 1 1.44-3c4.56-5 6.56-7 6.56-7l8 6a10.7 10.7 0 0 0-3 8 9.64 9.64 0 0 0 2 6s4 2 4 8h-6.34a4 4 0 0 1-3.38-1.87z"/><path fill="#6d4c41" d="M337 368c12 3 29 5 29 5-7 18-17 46-17 46l13 6s28.72-42 28.72-57.7c0-8.3-6.72-18.3-46.72-23.3-13.94-1.74-19 5-19 11 0 8 6 11.5 12 13z"/><path fill="#212121" d="M395 426s.35 1.47 5 11c1.26 2.58 2.08 7 5 7 1.77 0 21.49-8.14 24-9 0-2-3-5-8-5-4 0-8 1-10 1s-5-9-5-9z"/><path fill="#8d6e63" d="M327 350c-19.89 0-27 8-27 8s0 21 19 21h51c0 10 24.93 50.52 25 51l13-6s-13-40.33-19.89-57.8c-1.37-3.47-4.11-6.2-11.44-8.87-19.36-7.04-45.81-7.33-49.67-7.33z"/><path fill="#fafafa" d="M390 331h-17c0-4 2-5 6-5 10 0 11 5 11 5z"/><path fill="#6d584a" d="M365 322h3c1.45 0 7.08-2 10-2 1.5 0 5.29 1.4 7 2 1.54.54 4 4.81 4 6 0 .74-.28 1-1 1-1 0-4-1-8-1-1.51 0-7 1-9 1h-6zm-15-51a12.27 12.27 0 0 1-5-1 14.64 14.64 0 0 0-1 6c0 2-1 4-3 4-17 0-14-14-14-14s3-3 3-5v-8c0-15 5-22 16-22s19 7.71 19 16c0 11-7 24-15 24z"/><path fill="#212121" d="M346 228c-15 0-18 12-18 18 0 5.22 1.84 9.52 2 12 .05.85 0 3 0 3s7.43-.77 10.42-2.49A3 3 0 0 0 342 256a20.35 20.35 0 0 1-1-5 3.76 3.76 0 0 1 3-4c2 0 3 1.24 3 5a2.78 2.78 0 0 0 3-2c.56-2.28 2.71-8 5-8 2 0 5 5 10 5 0-7-2-19-19-19z"/><path fill="#ffb300" d="M348 328a140.6 140.6 0 0 0 2-31c-.54-15.28-6-21-6-21s-1 1-4 1c-9 0-13-9-13-9l-7 8v81h14s12-4.15 12-12c0-1.76 1.13-11.89 2-17z"/><path fill="#22477d" d="M327 266s-13 9-19 20.62c-5.69 11-6.95 32.79-6.75 42.27C301 352 299 354 299 365c0 0 3.95 4 18 4s18.91-9.18 19-11c.43-8.76 0-17 2-33 .62-5 4-15 4-25a30.2 30.2 0 0 0-5-17c-10-14-10-17-10-17z"/><path fill="#254e8a" d="M323 282c-7 0-11 6-11 24 0 7.95 1.4 18.53 5 22 2.16 2.09 9 3 16 3h32v-9c-13-3-33-7-33-7v-16c0-10-2-17-9-17z"/><path fill="#fafafa" d="M417 331h-22v-1.11a1 1 0 0 1 .91-1l20-1.87a1 1 0 0 1 1.09.9z"/><path fill="#e0e0e0" d="M417 331h-22l22-2v2z"/><path fill="#546e7a" d="M272 279c0 37.75 12 44.64 12 71 0 21.07-1.48 41 26.63 41H353v-7a5 5 0 0 0-5-5h-37.37c-3.88 0-9-.48-11.26-2.77-3.44-3.46-3.41-13.48-3.38-23.18V350c0-13.83-2.92-23.17-5.74-32.22-3.08-9.85-6.26-20-6.26-38.78a5 5 0 0 0-5-4.95h-7z"/><path fill="#455a64" d="M348 396h-37.37c-10.47 0-18.09-2.54-23.3-7.77-8.43-8.46-8.33-21.46-8.33-35.23v-3c0-11.24-2.3-18.61-5-27.15-3.29-10.56-7-22.52-7-43.85a5 5 0 0 1 5-5h5v5c0 19.81 3.34 30.51 6.58 40.87 2.79 8.93 5.42 17.37 5.42 30.13v3c0 11.64-.07 22.63 5.42 28.14 3.24 3.25 8.55 4.83 16.22 4.83H353v5a5 5 0 0 1-5 5z"/><path fill="#263238" d="M321 392a3 3 0 0 1-1.28-5.71c.17-.08 17.28-8.38 17.28-20.46 0-2.71-.66-5.83-5.83-5.83H285a3 3 0 0 1 0-6h46.17c7.3 0 11.83 4.53 11.83 11.83 0 15.89-19.87 25.48-20.72 25.88a3 3 0 0 1-1.28.29zm15.1 48.69S334 437 319 437c-9.91 0-14.15 1.62-15.8 2.59a3.52 3.52 0 0 0-1.27 1.06l-1.3-.41-1-.19-3.63-.29c.16-2.05 2.31-8.76 23-8.76s22.83 6.71 23 8.76l-6 .48a1.14 1.14 0 0 0 .1.45z"/><path fill="#546e7a" d="M353 445.46c-.58-2.36-7.81-8.46-34-8.46s-33.46 6.1-34 8.46a.81.81 0 0 0 0-.22l-6-.48c.18-2.3 3-13.76 40-13.76s39.81 11.46 40 13.76l-6 .48a.81.81 0 0 0 0 .22z"/><path fill="#37474f" d="M313 396h12v37h-12z"/><rect width="16" height="12" x="311" y="427" fill="#455a64" rx="3" ry="3"/><path fill="#78909c" d="M319 451a3 3 0 0 1-3-3v-14a3 3 0 0 1 6 0v14a3 3 0 0 1-3 3z"/><rect width="8" height="7" x="315" y="448" fill="#263238" rx="2" ry="2"/><rect width="8" height="7" x="278" y="444" fill="#263238" rx="2" ry="2"/><rect width="8" height="7" x="295" y="439" fill="#263238" rx="2" ry="2"/><rect width="8" height="7" x="335" y="439" fill="#263238" rx="2" ry="2"/><rect width="8" height="7" x="352" y="444" fill="#263238" rx="2" ry="2"/><g><path fill="#33691e" d="M502 314a10.62 10.62 0 0 0-5.48-9.13l1-1.76A12.63 12.63 0 0 1 504 314z"/><path fill="#33691e" d="M503 314l-2-.06a10.74 10.74 0 0 0-4.58-9.15l1.16-1.64A12.79 12.79 0 0 1 503 314z"/><path fill="#33691e" d="M503 314a12.79 12.79 0 0 1 5.42-10.85l1.16 1.64A10.74 10.74 0 0 0 505 314z"/><path fill="#558b2f" d="M511.5 296c4.31 0 9.23 3.39 10.5 4.31-2.75 1.07-4.6 4.41-9.47 5.05-3.25.41-4-.77-4-.77s-2.57-.25-2.57-4c.04-1.94 1.68-4.59 5.54-4.59z"/><path fill="#33691e" d="M512.8 310.92c4.65-.65 6.41-9.54 9.2-10.61-2.17-.32-5.58 1-13.43 4.28-1.76 4.83.82 6.86 4.23 6.33z"/><path fill="#558b2f" d="M497.54 296.85c-4.24-2.09-10.86.26-12.54.86 2.47 1.48 2.12 9.46 6.63 10.94 3.18 1 5.65-.17 5.91-4.51 3.54-2 3.01-5.82 0-7.29z"/><path fill="#33691e" d="M491.63 308.65c-4.51-1.48-4.16-9.46-6.63-10.94 2.21.18 5.39 2.09 12.54 6.43-.26 4.34-2.65 5.55-5.91 4.51zM502 298h2v15h-2z"/><path fill="#558b2f" d="M503 287a11.61 11.61 0 0 0-3 7.38c0 4.62 3 4.62 3 4.62s3 0 3-2.77c0-2.41-3-4.61-3-9.23z"/><path fill="#e64a19" d="M492 316l3 15h16l3-15z"/><path fill="#bf360c" d="M514 319h-22a1 1 0 0 1-1-1v-4h24v4a1.08 1.08 0 0 1-1 1z"/></g><g><path fill="#ffb300" d="M463 312h32v10h-32z"/><path fill="#ff8f00" d="M468 312h2v10h-2zm20 0h2v10h-2zm-15 3h12v4h-12z"/></g><g><path fill="#2e7d32" d="M463 322h32v9h-32z"/><path fill="#7cb342" d="M468 322h2v9h-2zm20 0h2v9h-2zm-15 3h12v3h-12z"/></g><g><path fill="#1565c0" d="M467 303h27v9h-27z"/><path fill="#64b5f6" d="M470 303h2v9h-2zm19 0h2v9h-2zm-14 3h11v3h-11z"/></g><g><path fill="url(#g)" d="M478 288l1 11h-3.71a3 3 0 0 1-2.89-2.21l-1.37-5a3 3 0 0 1 2.1-3.68 3.09 3.09 0 0 1 .8-.11z"/><path fill="#1b3963" d="M480.09 300h-4.8a4 4 0 0 1-3.85-2.95l-1.37-5a3.93 3.93 0 0 1 .38-3 4 4 0 0 1 2.42-1.88 4.15 4.15 0 0 1 1.05-.14h5zm-6.16-11a1.88 1.88 0 0 0-.53.07 2 2 0 0 0-1.4 2.46l1.37 5a2 2 0 0 0 1.92 1.47h2.62l-.82-9z"/><path fill="#254e8a" d="M477 303h12a111.16 111.16 0 0 0 2-19 1 1 0 0 0-1-1h-14a1 1 0 0 0-1 1 111.16 111.16 0 0 0 2 19z"/></g><g><path fill="#4e342e" d="M516.99 391.25L517 446h-8.99l-.01-54.75.01-55.25H517l-.01 55.25zm-43-.5L474 446h-8.99l-.01-55.25.01-54.75H474l-.01 54.75z"/><path fill="#6d4c41" d="M371 331h160v11H371zm54 105h106v10H425z"/></g></g></svg>