<svg xmlns="http://www.w3.org/2000/svg" width="81" height="80"><g fill="none" fill-rule="evenodd"><circle cx="40.34" cy="40" r="40" fill="#DAE1E9"/><g transform="translate(13 14)"><rect width="48.3" height="34.5" x=".49" y="13.37" fill="#00C58E" rx="3.6"/><path fill="#FFF" d="M29.7 13.3699879L4.63 13.37c-1.0970757-.0026564-2.15012821.4312944-2.92681762 1.2061078C.92649298 15.3509211.48999678 16.4029211.49 17.5v25.08L29.7 13.3699879z"/><rect width="48.3" height="34.5" x=".49" y="13.37" stroke="#2F495E" stroke-linecap="round" stroke-linejoin="round" rx="3.6"/><path fill="#FFF" stroke="#2F495E" stroke-linecap="round" stroke-linejoin="round" d="M44.65 47.86c2.2864589 0 4.14-1.8535411 4.14-4.14v-1.37H.49v1.37c0 2.2864589 1.85354114 4.14 4.14 4.14h40.02z"/><path fill="#FFF" d="M28.78 53.39H20.5l.69-5.53h6.9z"/><path stroke="#2F495E" stroke-linecap="round" stroke-linejoin="round" d="M28.78 53.39H20.5l.69-5.53h6.9z"/><path fill="#FFF" stroke="#2F495E" stroke-linecap="round" stroke-linejoin="round" d="M33.61 56.15H15.6699817c-.0026514-.7328127.2872762-1.4363817.8054564-1.9545619S17.6971873 53.3873303 18.43 53.39h12.42c1.5243059 0 2.76 1.2356941 2.76 2.76zM11.53 8.54h40v23.81c0 1.3254834-1.0745166 2.4-2.4 2.4h-35.2c-1.3254834 0-2.4-1.0745166-2.4-2.4V8.54zM13.93.25h35.22c.6365196 0 1.246969.25285642 1.6970563.70294373C51.2971436 1.40303102 51.55 2.01348042 51.55 2.65v5.88h-40V2.65c-.0000458-1.31771203 1.0623337-2.38901907 2.38-2.4z"/><circle cx="15.67" cy="4.4" r="1.38" fill="#00C58E" stroke="#00C58E" stroke-linecap="round" stroke-linejoin="round"/><circle cx="21.19" cy="4.4" r="1.38" fill="#2F495E" stroke="#2F495E" stroke-linecap="round" stroke-linejoin="round"/><circle cx="26.71" cy="4.4" r="1.38" fill="#108775" stroke="#108775" stroke-linecap="round" stroke-linejoin="round"/><rect width="5.52" height="5.52" x="23.95" y="16.81" fill="#00C58E" stroke="#2F495E" stroke-linecap="round" stroke-linejoin="round" rx="1"/><rect width="5.52" height="5.52" x="32.92" y="16.81" fill="#00C58E" stroke="#2F495E" stroke-linecap="round" stroke-linejoin="round" rx="1"/><rect width="5.52" height="5.52" x="41.89" y="16.81" fill="#00C58E" stroke="#2F495E" stroke-linecap="round" stroke-linejoin="round" rx="1"/><rect width="5.52" height="5.52" x="23.95" y="25.1" fill="#00C58E" stroke="#2F495E" stroke-linecap="round" stroke-linejoin="round" rx="1"/><rect width="5.52" height="5.52" x="32.92" y="25.1" fill="#00C58E" stroke="#2F495E" stroke-linecap="round" stroke-linejoin="round" rx="1"/><rect width="5.52" height="5.52" x="41.89" y="25.1" fill="#00C58E" stroke="#2F495E" stroke-linecap="round" stroke-linejoin="round" rx="1"/><rect width="5.52" height="2.76" x="15.67" y="11.3" fill="#00C58E" stroke="#2F495E" stroke-linecap="round" stroke-linejoin="round" rx="1"/><rect width="23.46" height="2.76" x="23.95" y="11.3" fill="#00C58E" stroke="#2F495E" stroke-linejoin="round" rx="1"/><path stroke="#2F495E" stroke-linecap="round" stroke-linejoin="round" d="M15.67 16.81h5.52M15.67 19.57h5.52M15.67 22.34h5.52M15.67 25.1h5.52M15.67 27.85h5.52M15.67 30.61h3.45"/><path fill="#FFF" stroke="#2F495E" stroke-linejoin="round" d="M60.52 45.72c-.2.73-.6.76-.89.06L55.1 34.91c-.29-.7 0-1 .75-.74l10.86 4.53c.7.29.67.69-.06.89l-3.48 1c-.8019102.2630056-1.432268.8896554-1.7 1.69l-.95 3.44z"/><circle cx="24.64" cy="45.1" r="1" stroke="#2F495E" stroke-linecap="round" stroke-linejoin="round"/></g></g></svg>