<svg xmlns="http://www.w3.org/2000/svg" width="198" height="198"><g fill="none" fill-rule="evenodd"><circle cx="100.002" cy="101.221" r="98.765" fill="#DAE1E9" transform="translate(-1 -2)"/><g transform="translate(45.91358 32.567901)"><path fill="#FFF" d="M107.580247 70.4444444H42.962963v36.2222226c0 2.727332-2.2109395 4.938271-4.9382716 4.938271h69.5555556c2.727332 0 4.938272-2.210939 4.938272-4.938271V75.382716c0-2.727332-2.21094-4.9382716-4.938272-4.9382716z"/><path stroke="#2F495E" stroke-linejoin="round" d="M107.580247 70.4444444H42.962963v36.2222226c0 2.727332-2.2109395 4.938271-4.9382716 4.938271h69.5555556c2.727332 0 4.938272-2.210939 4.938272-4.938271V75.382716c0-2.727332-2.21094-4.9382716-4.938272-4.9382716z"/><rect width="25.556" height="24.148" x="77.037" y="78.963" fill="#00C58E" rx="1.15"/><rect width="25.556" height="24.148" x="77.037" y="78.963" stroke="#2F495E" stroke-linejoin="round" rx="1.15"/><path fill="#108775" d="M42.962963 79.0123457v24.1234563h21.2345679c1.5682159 0 2.8395061-1.27129 2.8395061-2.839506V81.8024691c-.0269414-1.5488972-1.2903746-2.7903577-2.8395061-2.7901234H42.962963z"/><path stroke="#2F495E" stroke-linejoin="round" d="M42.962963 79.0123457v24.1234563h21.2345679c1.5682159 0 2.8395061-1.27129 2.8395061-2.839506V81.8024691c-.0269414-1.5488972-1.2903746-2.7903577-2.8395061-2.7901234H42.962963z"/><path fill="#FFF" d="M107.012346 66.9876543c1.138721-.6557613 1.969128-1.7383241 2.30742-3.0080754.338291-1.2697513.156566-2.6219696-.504951-3.7573567L93.1358025 33.0617284c-1.3977924-2.3066569-4.3877485-3.0651384-6.7160494-1.7037037L42.962963 56.4938272v47.6049378l64.049383-37.1111107z"/><path stroke="#2F495E" stroke-linejoin="round" d="M107.012346 66.9876543c1.138721-.6557613 1.969128-1.7383241 2.30742-3.0080754.338291-1.2697513.156566-2.6219696-.504951-3.7573567L93.1358025 33.0617284c-1.3977924-2.3066569-4.3877485-3.0651384-6.7160494-1.7037037L42.962963 56.4938272v47.6049378l64.049383-37.1111107z"/><path fill="#108775" d="M65.21171357 53.4551726l20.11957696-11.66291083c.54948138-.31852321 1.25313822-.13129467 1.57166149.41818679l10.95708085 18.90195636c.31852327.54948146.1312946 1.25313827-.41818678 1.57166148L77.32226913 74.34697724c-.54948146.31852326-1.25313823.13129467-1.57166149-.41818679L64.79352678 55.02683408c-.31852326-.54948145-.13129467-1.25313822.41818679-1.57166148z"/><path stroke="#2F495E" stroke-linejoin="round" d="M65.21171357 53.4551726l20.11957696-11.66291083c.54948138-.31852321 1.25313822-.13129467 1.57166149.41818679l10.95708085 18.90195636c.31852327.54948146.1312946 1.25313827-.41818678 1.57166148L77.32226913 74.34697724c-.54948146.31852326-1.25313823.13129467-1.57166149-.41818679L64.79352678 55.02683408c-.31852326-.54948145-.13129467-1.25313822.41818679-1.57166148z"/><path fill="#2F495E" d="M53.1604938 60.4444444L42.962963 66.345679v21.8271605l1.2098765 2.0987654c.3763456.6520672.9982274 1.1261918 1.7266774 1.3164239.72845.1902322 1.5027478.0807151 2.1498658-.3040782l17.2839506-9.8765432c1.3590332-.7944604 1.8221871-2.5368014 1.0370371-3.9012346L57.037037 61.4814815c-.7848295-1.3559063-2.5195404-1.8199691-3.8765432-1.0370371z"/><path stroke="#2F495E" stroke-linejoin="round" d="M53.1604938 60.4444444L42.962963 66.345679v21.8271605l1.2098765 2.0987654c.3763456.6520672.9982274 1.1261918 1.7266774 1.3164239.72845.1902322 1.5027478.0807151 2.1498658-.3040782l17.2839506-9.8765432c1.3590332-.7944604 1.8221871-2.5368014 1.0370371-3.9012346L57.037037 61.4814815c-.7848295-1.3559063-2.5195404-1.8199691-3.8765432-1.0370371z"/><path fill="#FFF" d="M83.4074074 27.6049383c.6615177-1.1353871.8432422-2.4876054.5049508-3.7573567-.3382914-1.2697513-1.1686985-2.3523141-2.3074199-3.0080754L54.4444444 5.18518519c-1.135387-.66151768-2.4876053-.84324215-3.7573566-.50495075-1.2697513.3382914-2.3523141 1.16869844-3.0080755 2.30741988L42.962963 15.2839506v82.2222222l40.4444444-69.9012345z"/><path fill="#FFF" d="M42.962963 97.2592593v.2469135l1.9012345-3.2839506z"/><path stroke="#2F495E" stroke-linejoin="round" d="M83.4074074 27.6049383c.6615177-1.1353871.8432422-2.4876054.5049508-3.7573567-.3382914-1.2697513-1.1686985-2.3523141-2.3074199-3.0080754L54.4444444 5.18518519c-1.135387-.66151768-2.4876053-.84324215-3.7573566-.50495075-1.2697513.3382914-2.3523141 1.16869844-3.0080755 2.30741988L42.962963 15.2839506v82.2222222l40.4444444-69.9012345z"/><path fill="#2F495E" d="M42.962963 32.2962963v7.2098765l15.3086419 8.8641976c1.3570029.782932 3.0917137.3188692 3.8765432-1.0370371l9.8765433-17.2839506c.782932-1.3570028.3188692-3.0917137-1.0370371-3.8765432l-15.9753086-9.2345679c-1.3570028-.782932-3.0917137-.3188692-3.8765432 1.037037L42.962963 32.2962963z"/><path fill="#00C58E" d="M42.962963 80.4938272l11.382716-19.7530865c.7685566-1.3588648.3073437-3.0829227-1.037037-3.8765432l-10.345679-5.8765432v29.5061729z"/><path stroke="#2F495E" stroke-linejoin="round" d="M42.962963 80.4938272l11.382716-19.7530865c.7685566-1.3588648.3073437-3.0829227-1.037037-3.8765432l-10.345679-5.8765432v29.5061729zM42.962963 32.2962963v7.2098765l15.3086419 8.8641976c1.3570029.782932 3.0917137.3188692 3.8765432-1.0370371l9.8765433-17.2839506c.782932-1.3570028.3188692-3.0917137-1.0370371-3.8765432l-15.9753086-9.2345679c-1.3570028-.782932-3.0917137-.3188692-3.8765432 1.037037L42.962963 32.2962963z"/><rect width="41.185" height="110.741" x="1.802" y=".864" fill="#FFF" rx="2"/><rect width="41.185" height="110.741" x="1.802" y=".864" stroke="#2F495E" stroke-linejoin="round" rx="2"/><rect width="24.148" height="25.556" x="10.321" y="10.815" fill="#00C58E" rx="1.15"/><rect width="24.148" height="25.556" x="10.321" y="10.815" stroke="#2F495E" stroke-linejoin="round" rx="1.15"/><rect width="24.148" height="25.556" x="10.321" y="46.296" fill="#108775" rx="1.15"/><rect width="24.148" height="25.556" x="10.321" y="46.296" stroke="#2F495E" stroke-linejoin="round" rx="1.15"/><circle cx="22.395" cy="97.407" r="4.272" fill="#2F495E" stroke="#2F495E" stroke-linejoin="round"/><ellipse cx="57.16" cy="129.802" fill="#B8C2CC" rx="56.79" ry="4.272"/></g></g></svg>