<svg xmlns="http://www.w3.org/2000/svg" class="w-2/3 mx-auto lg:mx-0 lg:w-5/12 lg:-mt-8 text-light-elevatedSurface dark:text-dark-elevatedSurface" viewBox="0 0 800 600"><path fill="currentColor" d="M0 0h800v600H0z"/><linearGradient id="a" x1="496.5" x2="496.5" y1="-872.366" y2="-683.366" gradientTransform="matrix(1 0 0 -1 0 -505.3665)" gradientUnits="userSpaceOnUse"><stop offset="0" stop-color="#fff" stop-opacity="0"/><stop offset=".349" stop-color="#fafafa" stop-opacity=".349"/><stop offset=".774" stop-color="#ebebeb" stop-opacity=".774"/><stop offset="1" stop-color="#e0e0e0"/></linearGradient><path fill="url(#a)" d="M536 222v-44h-79v44h-8v145h95V222z"/><linearGradient id="b" x1="567" x2="567" y1="-901.366" y2="-633.408" gradientTransform="matrix(1 0 0 -1 0 -505.3665)" gradientUnits="userSpaceOnUse"><stop offset="0" stop-color="#fff" stop-opacity="0"/><stop offset=".349" stop-color="#fafafa" stop-opacity=".349"/><stop offset=".774" stop-color="#ebebeb" stop-opacity=".774"/><stop offset="1" stop-color="#e0e0e0"/></linearGradient><path fill="url(#b)" d="M587.8 211l-15.6-50h-2.6l-2.451-32.959L564.4 161h-2.6l-15.6 50H541v185h52V211z"/><linearGradient id="c" x1="279.5" x2="279.5" y1="-905.366" y2="-632.366" gradientTransform="matrix(1 0 0 -1 0 -505.3665)" gradientUnits="userSpaceOnUse"><stop offset="0" stop-color="#fff" stop-opacity="0"/><stop offset="1" stop-color="#eee"/></linearGradient><path fill="url(#c)" d="M298 152v-25h-72v273h107V152z"/><linearGradient id="d" x1="185.5" x2="185.5" y1="-911.366" y2="-688.366" gradientTransform="matrix(1 0 0 -1 0 -505.3665)" gradientUnits="userSpaceOnUse"><stop offset="0" stop-color="#fff" stop-opacity="0"/><stop offset=".349" stop-color="#fafafa" stop-opacity=".349"/><stop offset=".774" stop-color="#ebebeb" stop-opacity=".774"/><stop offset="1" stop-color="#e0e0e0"/></linearGradient><path fill="url(#d)" d="M156 239v31h-23v136h105V183z"/><linearGradient id="e" x1="413" x2="413" y1="-909.366" y2="-591.366" gradientTransform="matrix(1 0 0 -1 0 -505.3665)" gradientUnits="userSpaceOnUse"><stop offset="0" stop-color="#fff" stop-opacity="0"/><stop offset="1" stop-color="#eee"/></linearGradient><path fill="url(#e)" d="M465 381V242h-16v-46h-11v-30h-15l-10-80-11 80h-14v30h-11v46h-16v140h-14v22h132v-23z"/><linearGradient id="f" x1="328.5" x2="328.5" y1="-893.366" y2="-693.366" gradientTransform="matrix(1 0 0 -1 0 -505.3665)" gradientUnits="userSpaceOnUse"><stop offset="0" stop-color="#fff" stop-opacity="0"/><stop offset="1" stop-color="#e0e0e0"/></linearGradient><path fill="url(#f)" d="M289 188h79v200h-79z"/><linearGradient id="g" x1="198.5" x2="198.5" y1="-932.366" y2="-754.366" gradientTransform="matrix(1 0 0 -1 0 -505.3665)" gradientUnits="userSpaceOnUse"><stop offset="0" stop-color="#fff" stop-opacity="0"/><stop offset="1" stop-color="#fafafa"/></linearGradient><path fill="url(#g)" d="M194 249h9v178h-9z"/><linearGradient id="h" x1="178.5" x2="178.5" y1="-932.366" y2="-754.366" gradientTransform="matrix(1 0 0 -1 0 -505.3665)" gradientUnits="userSpaceOnUse"><stop offset="0" stop-color="#fff" stop-opacity="0"/><stop offset="1" stop-color="#fafafa"/></linearGradient><path fill="url(#h)" d="M174 249h9v178h-9z"/><linearGradient id="i" x1="218.5" x2="218.5" y1="-932.366" y2="-754.366" gradientTransform="matrix(1 0 0 -1 0 -505.3665)" gradientUnits="userSpaceOnUse"><stop offset="0" stop-color="#fff" stop-opacity="0"/><stop offset="1" stop-color="#fafafa"/></linearGradient><path fill="url(#i)" d="M214 249h9v178h-9z"/><linearGradient id="j" x1="400" x2="400" y1="-986.846" y2="-966.812" gradientTransform="matrix(1 0 0 -1 0 -505.3665)" gradientUnits="userSpaceOnUse"><stop offset="0" stop-color="#fff"/><stop offset="1" stop-color="#e0e0e0"/></linearGradient><path fill="url(#j)" d="M667 461.445c0 11.064-8.966 20.034-20.026 20.034H153.026c-11.06 0-20.026-8.969-20.026-20.034h534z" opacity=".2"/><linearGradient id="k" x1="635.5" x2="635.5" y1="-942.346" y2="-712.388" gradientTransform="matrix(1 0 0 -1 0 -505.3665)" gradientUnits="userSpaceOnUse"><stop offset="0" stop-color="#fff" stop-opacity="0"/><stop offset="1" stop-color="#eee"/></linearGradient><path fill="url(#k)" d="M670 237.979v-17l-34.885-13.958L601 220.979v17h-14v199h97v-199z"/><g><linearGradient id="l" x1="636" x2="636" y1="-861.054" y2="-757.721" gradientTransform="matrix(1 0 0 -1 0 -505.3665)" gradientUnits="userSpaceOnUse"><stop offset="0" stop-color="#fff" stop-opacity="0"/><stop offset="1" stop-color="#fff"/></linearGradient><path fill="url(#l)" d="M597 251.021h78v5h-78z"/><linearGradient id="m" x1="636" x2="636" y1="-861.054" y2="-757.721" gradientTransform="matrix(1 0 0 -1 0 -505.3665)" gradientUnits="userSpaceOnUse"><stop offset="0" stop-color="#fff" stop-opacity="0"/><stop offset="1" stop-color="#fff"/></linearGradient><path fill="url(#m)" d="M597 261.021h78v5h-78z"/><linearGradient id="n" x1="636" x2="636" y1="-861.054" y2="-757.721" gradientTransform="matrix(1 0 0 -1 0 -505.3665)" gradientUnits="userSpaceOnUse"><stop offset="0" stop-color="#fff" stop-opacity="0"/><stop offset="1" stop-color="#fff"/></linearGradient><path fill="url(#n)" d="M597 271.021h78v5h-78z"/><linearGradient id="o" x1="636" x2="636" y1="-861.054" y2="-757.721" gradientTransform="matrix(1 0 0 -1 0 -505.3665)" gradientUnits="userSpaceOnUse"><stop offset="0" stop-color="#fff" stop-opacity="0"/><stop offset="1" stop-color="#fff"/></linearGradient><path fill="url(#o)" d="M597 281.021h78v5h-78z"/><linearGradient id="p" x1="636" x2="636" y1="-861.054" y2="-757.721" gradientTransform="matrix(1 0 0 -1 0 -505.3665)" gradientUnits="userSpaceOnUse"><stop offset="0" stop-color="#fff" stop-opacity="0"/><stop offset="1" stop-color="#fff"/></linearGradient><path fill="url(#p)" d="M597 291.02h78v5h-78z"/><linearGradient id="q" x1="636" x2="636" y1="-861.054" y2="-757.721" gradientTransform="matrix(1 0 0 -1 0 -505.3665)" gradientUnits="userSpaceOnUse"><stop offset="0" stop-color="#fff" stop-opacity="0"/><stop offset="1" stop-color="#fff"/></linearGradient><path fill="url(#q)" d="M597 301.02h78v5h-78z"/><linearGradient id="r" x1="636" x2="636" y1="-861.054" y2="-757.721" gradientTransform="matrix(1 0 0 -1 0 -505.3665)" gradientUnits="userSpaceOnUse"><stop offset="0" stop-color="#fff" stop-opacity="0"/><stop offset="1" stop-color="#fff"/></linearGradient><path fill="url(#r)" d="M597 311.02h78v5h-78z"/><linearGradient id="s" x1="636" x2="636" y1="-861.054" y2="-757.721" gradientTransform="matrix(1 0 0 -1 0 -505.3665)" gradientUnits="userSpaceOnUse"><stop offset="0" stop-color="#fff" stop-opacity="0"/><stop offset="1" stop-color="#fff"/></linearGradient><path fill="url(#s)" d="M597 321.02h78v5h-78z"/><linearGradient id="t" x1="636" x2="636" y1="-861.054" y2="-757.721" gradientTransform="matrix(1 0 0 -1 0 -505.3665)" gradientUnits="userSpaceOnUse"><stop offset="0" stop-color="#fff" stop-opacity="0"/><stop offset="1" stop-color="#fff"/></linearGradient><path fill="url(#t)" d="M597 331.02h78v5h-78z"/><linearGradient id="u" x1="636" x2="636" y1="-861.054" y2="-757.721" gradientTransform="matrix(1 0 0 -1 0 -505.3665)" gradientUnits="userSpaceOnUse"><stop offset="0" stop-color="#fff" stop-opacity="0"/><stop offset="1" stop-color="#fff"/></linearGradient><path fill="url(#u)" d="M597 341.02h78v5h-78z"/><linearGradient id="v" x1="636" x2="636" y1="-861.054" y2="-757.721" gradientTransform="matrix(1 0 0 -1 0 -505.3665)" gradientUnits="userSpaceOnUse"><stop offset="0" stop-color="#fff" stop-opacity="0"/><stop offset="1" stop-color="#fff"/></linearGradient><path fill="url(#v)" d="M597 351.02h78v5h-78z"/></g><g><path fill="#e0e0e0" d="M343 436.479h114v24H343z"/><ellipse cx="400" cy="436.479" fill="#b0bec5" rx="57" ry="7"/><ellipse cx="400.115" cy="460.479" fill="#e0e0e0" rx="57" ry="7"/></g><g><path fill="#bdbdbd" d="M471 226.479h47.471v13H471zM444 220.479h21v6h-21zM444 239.479h21v6h-21z"/><path fill="#bdbdbd" d="M514.7124375 238.0412459l9.2410899-9.2410899 52.5877341 52.5877341-9.2410899 9.2410899z"/><ellipse cx="521.013" cy="233.973" fill="#78909c" rx="11" ry="11"/><circle cx="521" cy="233.479" r="6" fill="#e0e0e0"/><path fill="#78909c" d="M474 225.021h4v16.959h-4zM481 224.979h4v17h-4zM465 217.979h6v31h-6z"/><ellipse cx="521" cy="233.479" fill="#90a4ae" rx="3" ry="3"/><path fill="none" stroke="#90a4ae" stroke-miterlimit="10" stroke-width="3" d="M520.631 232.479s-18.13 74.05 51.369 54.037"/><path fill="#bdbdbd" d="M561 288.52h21v158.959h-21z"/><circle cx="572" cy="286.979" r="16" fill="#78909c"/><circle cx="572" cy="286.479" r="9" fill="#e0e0e0"/><ellipse cx="572" cy="286.5" fill="#90a4ae" rx="4" ry="3.973"/><path fill="#78909c" d="M558 330.979h27v8.041h-27zM558 365.979h27v8.041h-27zM588 467.979h-33v-6l3-3.5v-12.5h27v12.333l3 3.667z"/></g><g><path fill="#dd2c00" d="M456.143 270.979c0 4.6-1.143 11.501-1.143 11.501h1.486s6.514-3.451 6.514-6.326v-.575c0-1.38-.686-2.53-1.714-3.335-.8-.575-.8-1.841 0-2.53 1.029-.805 1.714-2.07 1.714-3.335v-.575c0-2.875-6.514-6.326-6.514-6.326H455c0 .001 1.143 6.901 1.143 11.501zm2.286 2.645c1.714 0 2.286.575 2.286 2.07v.345c0 1.15-.8 2.185-1.829 2.646-.8.23-1.6-.345-1.6-1.15l1.143-3.911zm.457-10.12c1.143.345 1.829 1.38 1.829 2.646v.23c0 1.495-.571 2.07-2.286 2.07l-1.143-3.795c0-.922.8-1.496 1.6-1.151z"/><path fill="none" stroke="#dd2c00" stroke-miterlimit="10" stroke-width="2" d="M456.038 260.479s-3.368-4.481-1.444-10.455c.974-3.023 2.406-6.22 2.406-8.464 0-3.983-2-3.435-2-2.081"/><path fill="none" stroke="#dd2c00" stroke-linecap="round" stroke-miterlimit="10" stroke-width="2" d="M456.485 280.479c-5.485 9.969 6.89 14.344.795 27"/></g><path fill="#c62828" d="M357.115 257.52s-15 4-35 29-66.865 35.522-90.865 29.522-52.135 6.478-58.135 26.478c0 0 26.378-2.292 21.26 22.147-5.562 26.562 8.74 41.853 17.74 43.853s32 2 42-10 35-16 40-3l20.948-11.853c-.001 0 48.052-128.147 42.052-126.147"/><g><path fill="#bdbdbd" d="M225.6515618 311.381509l52.5877341-52.5877341 9.2410899 9.2410899-52.5877341 52.5877341zM342.0963635 240.5556847l20.7740673-3.0979425.885 5.9346-20.7740673 3.0979425z"/><path fill="#bdbdbd" d="M280.3101577 255.8374623l56.7367542-8.460895 1.924875 12.907755-56.7367542 8.460895zM344.8996258 259.3503876l20.7740673-3.0979425.885 5.9346-20.7740673 3.0979425zM220 328.479h21v128h-21z"/><path fill="#78909c" d="M247 467.979h-33v-6l3-3.5v-12.5h27v12.333l3 3.667zM217 350.02h27v7.959h-27zM217 364.979h27v8h-27z"/><ellipse cx="281.01" cy="262.978" fill="#78909c" rx="11" ry="11"/><circle cx="281" cy="263.479" r="6" fill="#e0e0e0"/><ellipse cx="281" cy="263.479" fill="#90a4ae" rx="3" ry="3"/><path fill="none" stroke="#90a4ae" stroke-miterlimit="10" stroke-width="3" d="M280.898 262.479s19.719 103.788-50.283 53.89"/><circle cx="230" cy="316.979" r="16" fill="#78909c"/><circle cx="230" cy="317.479" r="9" fill="#e0e0e0"/><ellipse cx="230" cy="317.5" fill="#90a4ae" rx="4" ry="3.973"/><path fill="#78909c" d="M329.8275636 245.9291944l3.9564-.59 2.5079425 16.8176673-3.9564.59zM322.9023136 246.9623722l3.9564-.59 2.5079425 16.8176673-3.9564.59zM335.7960192 238.4915348l5.9346-.885 4.4254425 29.6759673-5.9346.885z"/></g><path fill="#b71c1c" d="M356.115 257.52S325.117 364.157 294 395.479c-9.5 9.562-2.854 16.269-.885 18.041 9.885 7.959 25 7 25 7s47-46 49-142c.107-5.153-2.917-22-9-22-2 0-2 1-2 1z"/><g><path fill="#1565c0" d="M380 317.479s-.674 28.449 2.115 64.006c.299 3.813.613 7.025 1 10.994h13c4-37.979 4-56.969 4-56.969v-17.99L380 317.479z"/><path fill="#1565c0" d="M420 317.479s.938 28.04-1.898 63.86c-.289 3.653-.617 7.387-.987 11.181h-13c-4-38-4-57-4-57v-18l19.885-.041z"/><path fill="#1e88e5" d="M420.115 280.491l-10-22.98c-4.94-.926-10-10.99-10-10.99s-5.06 10.064-10 10.99l-10 22.98 3 22.98-3 13.988 17.034 17.706c1.588 1.753 4.344 1.753 5.932 0l17.034-17.706-3.115-13.98 3.115-22.988z"/><path fill="#b71c1c" d="M407.115 434.358s0 3.121 2.907 3.121h18.071s-.275-5.064-6.088-5.461c-7.891-.539-6.956-3.13-6.891-5.539.25-9.26 2-34 2-34h-13l3.001 41.879zM393.115 434.358s0 3.121-2.907 3.121h-18.071s.275-5.064 6.088-5.461c7.891-.539 6.956-3.13 6.891-5.539-.25-9.26-2-34-2-34h13l-3.001 41.879z"/><path fill="#1565c0" d="M410.115 257.52c-7.041-5-4.163-16-4.163-16h-12.019s3.108 11-3.933 16c.634.155 7.041 2 10.058 4 3.016-2 9.654-3.844 10.057-4z"/><path fill="#ffccbc" d="M423.13 307.52h-5.484c-1.184 0-2.078 1.074-1.863 2.239l1.129 6.111c.332 1.798 2.326 2.744 3.929 1.864l7.275-5.214-3.507-4.341c-.378-.419-.915-.659-1.479-.659zM377.1 307.52h5.484c1.184 0 2.078 1.074 1.863 2.239l-1.129 6.111c-.332 1.798-2.326 2.744-3.929 1.864l-7.275-5.214 3.507-4.341c.378-.419.915-.659 1.479-.659zM411 228.313c0 5.363-3 20.167-11 20.167s-11-14.805-11-20.167 4.925-9.71 11-9.71 11 4.347 11 9.71z"/><path fill="#1565c0" d="M410.115 257.52c10.364 2.591 19.556 7.593 26.096 16.041l7.441 10.612c3.627 4.685 2.967 11.386-1.504 15.274l-14.034 13.073-5-5 9.478-13.244c.794-.916.569-2.327-.471-2.951l-12.008-10.805-9.998-23zM390.115 257.52c-10.364 2.591-19.556 7.593-26.096 16.041l-7.675 10.606c-3.627 4.685-2.967 11.386 1.504 15.274l14.268 13.079 5-5-9.712-13.25c-.794-.916-.569-2.327.471-2.951l12.242-10.799 9.998-23z"/><path fill="#424242" d="M413 225.708c0-4.836-2.318-9.262-7.762-10.402L403.753 213h-3.713c-4.283 0-9.925 1.834-12.124 7.834-2.583 7.041 1.646 14.363 1.646 14.363l-.242-3.421c.172-1.59 1.247-2.939 2.76-3.46l13.118-4.527 3.668 3.255c.983.873 1.598 2.086 1.72 3.396l-.148 4.757c0-.002 2.562-4.531 2.562-9.489z"/><ellipse cx="409" cy="233.979" fill="#ffccbc" rx="3" ry="3.5"/><ellipse cx="391" cy="233.979" fill="#ffccbc" rx="3" ry="3.5"/></g></svg>