<svg xmlns="http://www.w3.org/2000/svg" width="1093" height="614" fill="none" viewBox="0 0 1093 614"><path fill="#7D7B8C" d="M130.097 25.5C133.963 25.5 137.097 22.366 137.097 18.5C137.097 14.634 133.963 11.5 130.097 11.5C126.231 11.5 123.097 14.634 123.097 18.5C123.097 22.366 126.231 25.5 130.097 25.5Z"/><path fill="#7D7B8C" d="M154.097 25.5C157.963 25.5 161.097 22.366 161.097 18.5C161.097 14.634 157.963 11.5 154.097 11.5C150.231 11.5 147.097 14.634 147.097 18.5C147.097 22.366 150.231 25.5 154.097 25.5Z"/><path fill="#7D7B8C" d="M178.097 25.5C181.963 25.5 185.097 22.366 185.097 18.5C185.097 14.634 181.963 11.5 178.097 11.5C174.231 11.5 171.097 14.634 171.097 18.5C171.097 22.366 174.231 25.5 178.097 25.5Z"/><path fill="#F2F2F2" d="M842.097 401.5H173.097V480.5H842.097V401.5Z"/><path fill="#F2F2F2" d="M901.596 129H503.596V331H901.596V129Z"/><path fill="#00C58E" d="M573.455 312.5L663.597 162L757.097 312.5"/><path fill="#00C58E" d="M710.098 235.5L728.098 188.5L830.098 312.5H709.598L710.098 235.5Z"/><path fill="#00C58E" d="M691.145 216.826C693.947 215.112 696.384 212.862 698.315 210.205C700.247 207.548 701.637 204.537 702.404 201.343C703.171 198.149 703.302 194.835 702.788 191.59C702.274 188.346 701.126 185.234 699.409 182.434C697.692 179.634 695.44 177.199 692.781 175.269C690.123 173.34 687.11 171.953 683.916 171.188C680.721 170.423 677.407 170.295 674.163 170.812C670.919 171.329 667.809 172.479 665.01 174.199"/><path fill="#57B894" d="M1014.03 451.657C1013.25 453.812 1012.86 456.088 1012.86 458.381C1012.83 461.725 1013.69 465.017 1015.35 467.919C1013.72 470.833 1012.86 474.117 1012.86 477.457C1012.86 480.797 1013.72 484.081 1015.35 486.995C1013.72 489.91 1012.86 493.194 1012.86 496.534C1012.86 499.874 1013.72 503.158 1015.35 506.072C1013.72 508.986 1012.86 512.27 1012.86 515.61C1012.86 518.95 1013.72 522.234 1015.35 525.148C1013.69 528.05 1012.83 531.342 1012.86 534.687C1012.86 543.307 1018.2 550.295 1024.79 550.295C1031.37 550.295 1036.71 543.307 1036.71 534.687C1036.74 531.342 1035.88 528.05 1034.22 525.148C1035.85 522.234 1036.71 518.95 1036.71 515.61C1036.71 512.27 1035.85 508.986 1034.22 506.072C1035.85 503.158 1036.71 499.874 1036.71 496.534C1036.71 493.194 1035.85 489.91 1034.22 486.995C1035.85 484.081 1036.71 480.797 1036.71 477.457C1036.71 474.117 1035.85 470.833 1034.22 467.919C1035.88 465.017 1036.74 461.725 1036.71 458.381C1036.72 456.121 1036.33 453.877 1035.57 451.749"/><path fill="#57B894" d="M980.156 289.681C978.527 287.608 977.043 285.424 975.715 283.145L1007.04 278L973.161 278.252C969.911 271.18 968.138 263.52 967.95 255.739C967.763 247.958 969.165 240.221 972.071 233L1017.53 256.581L975.606 225.766C979.533 218.979 984.816 213.073 991.126 208.417C997.435 203.761 1004.64 200.454 1012.28 198.702C1019.92 196.95 1027.84 196.79 1035.55 198.233C1043.26 199.677 1050.59 202.692 1057.08 207.09C1063.57 211.489 1069.09 217.177 1073.28 223.801C1077.48 230.424 1080.27 237.841 1081.47 245.589C1082.68 253.337 1082.28 261.251 1080.29 268.836C1078.31 276.422 1074.78 283.518 1069.93 289.681C1072.47 292.909 1074.66 296.401 1076.45 300.096L1035.78 321.224L1079.14 306.671C1082.19 315.671 1082.94 325.288 1081.33 334.653C1079.72 344.017 1075.8 352.833 1069.93 360.302C1076.56 368.726 1080.68 378.844 1081.83 389.5C1082.97 400.156 1081.1 410.92 1076.42 420.561C1071.73 430.201 1064.43 438.33 1055.35 444.017C1046.26 449.704 1035.76 452.719 1025.04 452.719C1014.33 452.719 1003.82 449.704 994.74 444.017C985.656 438.33 978.355 430.201 973.673 420.561C968.99 410.92 967.115 400.156 968.261 389.5C969.408 378.844 973.53 368.726 980.156 360.302C972.238 350.235 967.934 337.799 967.934 324.992C967.934 312.184 972.238 299.748 980.156 289.681Z"/><path fill="#F2F2F2" d="M417.097 151H127.097V172H417.097V151Z"/><path fill="#F2F2F2" d="M417.097 201H127.097V222H417.097V201Z"/><path fill="#F2F2F2" d="M417.097 251H127.097V272H417.097V251Z"/><path fill="#57B894" d="M21.1044 431.017C24.4488 431.175 27.7843 430.555 30.8481 429.205C33.9118 427.854 36.62 425.81 38.7592 423.235C40.8984 420.659 42.4101 417.622 43.1752 414.362C43.9403 411.103 43.9378 407.71 43.168 404.451C42.3982 401.193 40.8821 398.158 38.7392 395.585C36.5963 393.012 33.8851 390.973 30.8194 389.627C27.7537 388.281 24.4173 387.665 21.0731 387.828C17.7289 387.992 14.4684 388.93 11.5485 390.568L15.3676 401.034L7.51005 393.489C3.29645 397.341 0.784487 402.708 0.526159 408.411C0.426689 410.412 0.611219 412.416 1.07425 414.365C2.14838 418.941 4.68485 423.042 8.2993 426.047C11.9138 429.052 16.4092 430.797 21.1044 431.017Z"/><path fill="#57B894" d="M24.3547 362.606C24.5227 358.986 25.5993 355.466 27.4851 352.371C29.3709 349.276 32.0053 346.706 35.1456 344.897L39.9849 354.47L39.8391 342.881C44.2349 341.586 48.9285 341.722 53.2423 343.268C57.5561 344.814 61.2668 347.692 63.8387 351.485C66.4106 355.277 67.7107 359.79 67.5511 364.369C67.3915 368.949 65.7806 373.36 62.9509 376.964C60.1213 380.569 56.2193 383.181 51.8083 384.423C47.3974 385.666 42.7057 385.474 38.4107 383.877C34.1156 382.279 30.4395 379.357 27.913 375.534C25.3866 371.711 24.1405 367.184 24.3547 362.606Z"/><path fill="#57B894" d="M73.739 466.931C79.0417 467.178 84.2502 465.466 88.3716 462.12C92.493 458.774 95.2391 454.029 96.0866 448.789C96.9341 443.548 95.8236 438.179 92.9669 433.705C90.1102 429.231 85.7069 425.964 80.5964 424.527L80.7087 433.433L75.8151 423.746C75.7956 423.743 75.776 423.742 75.7564 423.742C72.9206 423.61 70.0864 424.037 67.4158 425C64.7452 425.963 62.2904 427.442 60.1915 429.354C58.0926 431.265 56.3908 433.572 55.1832 436.141C53.9756 438.71 53.2859 441.492 53.1534 444.328C53.021 447.164 53.4484 449.998 54.4112 452.668C55.374 455.339 56.8534 457.794 58.765 459.893C60.6765 461.992 62.9827 463.693 65.552 464.901C68.1212 466.109 70.9032 466.798 73.739 466.931Z"/><path fill="#57B894" d="M62.9018 507.895C65.1702 512.303 68.8852 515.797 73.4237 517.791C77.9622 519.785 83.0483 520.157 87.829 518.846C92.6097 517.535 96.7942 514.62 99.6808 510.59C102.567 506.56 103.981 501.66 103.683 496.712C103.386 491.763 101.396 487.068 98.0475 483.413C94.699 479.757 90.1955 477.364 85.2922 476.635C80.389 475.906 75.3841 476.885 71.117 479.408C66.8499 481.931 63.5801 485.845 61.8559 490.493L75.3566 501.478L60.5049 498.036C60.5026 501.467 61.3246 504.849 62.9018 507.895Z"/><path stroke="#000" stroke-miterlimit="10" d="M1024.03 450.657C1023.25 452.812 1022.86 455.088 1022.86 457.381C1022.83 460.725 1023.69 464.017 1025.35 466.919C1023.72 469.833 1022.86 473.117 1022.86 476.457C1022.86 479.797 1023.72 483.081 1025.35 485.995C1023.72 488.91 1022.86 492.194 1022.86 495.534C1022.86 498.874 1023.72 502.158 1025.35 505.072C1023.72 507.986 1022.86 511.27 1022.86 514.61C1022.86 517.95 1023.72 521.234 1025.35 524.148C1023.69 527.05 1022.83 530.342 1022.86 533.687C1022.86 542.307 1028.2 549.295 1034.79 549.295C1041.37 549.295 1046.71 542.307 1046.71 533.687C1046.74 530.342 1045.88 527.05 1044.22 524.148C1045.85 521.234 1046.71 517.95 1046.71 514.61C1046.71 511.27 1045.85 507.986 1044.22 505.072C1045.85 502.158 1046.71 498.874 1046.71 495.534C1046.71 492.194 1045.85 488.91 1044.22 485.995C1045.85 483.081 1046.71 479.797 1046.71 476.457C1046.71 473.117 1045.85 469.833 1044.22 466.919C1045.88 464.017 1046.74 460.725 1046.71 457.381C1046.72 455.121 1046.33 452.877 1045.57 450.749"/><path stroke="#000" stroke-miterlimit="10" d="M990.156 288.681C988.527 286.608 987.043 284.424 985.715 282.145L1017.04 277L983.161 277.252C979.911 270.18 978.138 262.52 977.95 254.739C977.763 246.958 979.165 239.221 982.071 232L1027.53 255.581L985.606 224.766C989.533 217.979 994.816 212.073 1001.13 207.417C1007.44 202.761 1014.64 199.454 1022.28 197.702C1029.92 195.95 1037.84 195.79 1045.55 197.233C1053.26 198.677 1060.59 201.692 1067.08 206.09C1073.57 210.489 1079.09 216.177 1083.28 222.801C1087.48 229.424 1090.27 236.841 1091.47 244.589C1092.68 252.337 1092.28 260.251 1090.29 267.836C1088.31 275.422 1084.78 282.518 1079.93 288.681C1082.47 291.909 1084.66 295.401 1086.45 299.096L1045.78 320.224L1089.14 305.671C1092.19 314.671 1092.94 324.288 1091.33 333.653C1089.72 343.017 1085.8 351.833 1079.93 359.302C1086.56 367.726 1090.68 377.844 1091.83 388.5C1092.97 399.156 1091.1 409.92 1086.42 419.561C1081.73 429.201 1074.43 437.33 1065.35 443.017C1056.26 448.704 1045.76 451.719 1035.04 451.719C1024.33 451.719 1013.82 448.704 1004.74 443.017C995.656 437.33 988.355 429.201 983.673 419.561C978.99 409.92 977.115 399.156 978.261 388.5C979.408 377.844 983.53 367.726 990.156 359.302C982.238 349.235 977.934 336.799 977.934 323.992C977.934 311.184 982.238 298.748 990.156 288.681Z"/><path stroke="#000" stroke-miterlimit="10" d="M951.097 0.5H111.097V546.5H951.097V0.5Z"/><path stroke="#000" stroke-miterlimit="10" d="M111.097 30.835H951.097"/><path stroke="#000" stroke-miterlimit="10" d="M132.097 22.5C135.963 22.5 139.097 19.366 139.097 15.5C139.097 11.634 135.963 8.5 132.097 8.5C128.231 8.5 125.097 11.634 125.097 15.5C125.097 19.366 128.231 22.5 132.097 22.5Z"/><path stroke="#000" stroke-miterlimit="10" d="M156.097 22.5C159.963 22.5 163.097 19.366 163.097 15.5C163.097 11.634 159.963 8.5 156.097 8.5C152.231 8.5 149.097 11.634 149.097 15.5C149.097 19.366 152.231 22.5 156.097 22.5Z"/><path stroke="#000" stroke-miterlimit="10" d="M180.097 22.5C183.963 22.5 187.097 19.366 187.097 15.5C187.097 11.634 183.963 8.5 180.097 8.5C176.231 8.5 173.097 11.634 173.097 15.5C173.097 19.366 176.231 22.5 180.097 22.5Z"/><path stroke="#000" stroke-miterlimit="10" d="M427.097 144H137.097V165H427.097V144Z"/><path stroke="#000" stroke-miterlimit="10" d="M427.097 194H137.097V215H427.097V194Z"/><path stroke="#000" stroke-miterlimit="10" d="M427.097 244H137.097V265H427.097V244Z"/><path stroke="#000" stroke-miterlimit="10" d="M925.096 103.5H527.096V305.5H925.096V103.5Z"/><path stroke="#000" stroke-miterlimit="10" d="M865.597 383.5H196.597V462.5H865.597V383.5Z"/><path stroke="#000" stroke-miterlimit="10" d="M578.455 305.5L668.597 155L762.097 305.5"/><path stroke="#000" stroke-miterlimit="10" d="M713.098 226.5L731.098 179.5L833.098 305.5"/><path stroke="#000" stroke-miterlimit="10" d="M698.145 202.826C700.947 201.112 703.384 198.862 705.315 196.205C707.247 193.548 708.637 190.537 709.404 187.343C710.171 184.149 710.302 180.835 709.788 177.59C709.274 174.346 708.126 171.234 706.409 168.434C704.692 165.634 702.44 163.199 699.781 161.269C697.123 159.34 694.11 157.953 690.916 157.188C687.721 156.423 684.407 156.295 681.163 156.812C677.919 157.329 674.809 158.479 672.01 160.199"/><path stroke="#000" stroke-miterlimit="10" d="M84.2817 546.531C79.6984 538.045 84.8987 527.643 90.8762 520.075C96.8538 512.507 104.139 504.632 103.984 494.989C103.762 481.131 89.052 472.947 77.299 465.6C68.5788 460.148 60.5355 453.681 53.3377 446.334C50.4521 443.389 47.6626 440.239 45.9748 436.476C43.5443 431.058 43.6119 424.894 43.7652 418.957C44.2758 399.181 45.2528 379.425 46.6964 359.688"/><path stroke="#000" stroke-miterlimit="10" d="M21.1044 428.017C24.4488 428.175 27.7843 427.555 30.8481 426.205C33.9118 424.854 36.62 422.81 38.7592 420.235C40.8984 417.659 42.4101 414.622 43.1752 411.362C43.9403 408.103 43.9378 404.71 43.168 401.451C42.3982 398.193 40.8821 395.158 38.7392 392.585C36.5963 390.012 33.8851 387.973 30.8194 386.627C27.7537 385.281 24.4173 384.665 21.0731 384.828C17.7289 384.992 14.4684 385.93 11.5485 387.568L15.3676 398.034L7.51005 390.489C3.29645 394.341 0.784487 399.708 0.526159 405.411C0.426689 407.412 0.611219 409.416 1.07425 411.365C2.14838 415.941 4.68485 420.042 8.2993 423.047C11.9138 426.052 16.4092 427.797 21.1044 428.017Z"/><path stroke="#000" stroke-miterlimit="10" d="M24.3547 358.606C24.5227 354.986 25.5993 351.466 27.4851 348.371C29.3709 345.276 32.0053 342.706 35.1456 340.897L39.9849 350.47L39.8391 338.881C44.2349 337.586 48.9285 337.722 53.2423 339.268C57.5561 340.814 61.2668 343.692 63.8387 347.485C66.4106 351.277 67.7107 355.79 67.5511 360.369C67.3915 364.949 65.7806 369.36 62.9509 372.964C60.1213 376.569 56.2193 379.181 51.8083 380.423C47.3974 381.666 42.7057 381.474 38.4107 379.877C34.1156 378.279 30.4395 375.357 27.913 371.534C25.3866 367.711 24.1405 363.184 24.3547 358.606Z"/><path stroke="#000" stroke-miterlimit="10" d="M73.5729 462.931C78.8757 463.178 84.0841 461.466 88.2055 458.12C92.3269 454.774 95.073 450.029 95.9205 444.789C96.768 439.548 95.6576 434.179 92.8008 429.705C89.9441 425.231 85.5409 421.964 80.4304 420.527L80.5427 429.433L75.6491 419.746C75.6296 419.743 75.61 419.742 75.5903 419.742C72.7545 419.61 69.9204 420.037 67.2498 421C64.5792 421.963 62.1243 423.442 60.0255 425.354C55.7866 429.214 53.2549 434.601 52.9874 440.328C52.855 443.164 53.2823 445.998 54.2452 448.668C55.208 451.339 56.6874 453.794 58.599 455.893C62.4595 460.132 67.8458 462.663 73.5729 462.931Z"/><path stroke="#000" stroke-miterlimit="10" d="M62.9018 504.895C65.1702 509.303 68.8852 512.797 73.4237 514.791C77.9622 516.785 83.0483 517.157 87.829 515.846C92.6097 514.535 96.7942 511.62 99.6808 507.59C102.567 503.56 103.981 498.66 103.683 493.712C103.386 488.763 101.396 484.068 98.0475 480.413C94.699 476.757 90.1955 474.364 85.2922 473.635C80.389 472.906 75.3841 473.885 71.117 476.408C66.8499 478.931 63.5801 482.845 61.8559 487.493L75.3566 498.478L60.5049 495.036C60.5026 498.467 61.3246 501.849 62.9018 504.895Z"/><path stroke="#000" stroke-miterlimit="10" d="M137.597 613H380.597"/><path fill="#F2F2F2" d="M198.405 556.123C196.8 557.017 195.106 557.742 193.351 558.287C190.213 559.145 186.858 558.83 183.688 559.562C182.39 559.862 180.977 560.488 180.564 561.755C180.37 562.719 180.49 563.721 180.906 564.612C184.409 574.883 186.521 585.788 192.107 595.092C194.455 598.999 197.369 602.537 200.755 605.59C201.933 606.845 203.475 607.7 205.164 608.034C205.948 608.117 206.739 607.991 207.459 607.671C208.179 607.35 208.801 606.845 209.263 606.206C209.725 605.568 210.011 604.819 210.091 604.035C210.171 603.251 210.043 602.46 209.719 601.742C209.218 600.629 208.287 599.766 207.687 598.704C207.035 597.35 206.654 595.883 206.562 594.384C206.01 589.991 205.479 585.4 207.001 581.242C208.022 578.453 209.894 576.076 211.454 573.55C213.014 571.023 214.31 568.128 213.963 565.179C213.611 563.177 212.842 561.271 211.708 559.584C210.668 557.84 208.615 553.152 206.527 552.57C204.36 551.965 200.295 555.154 198.405 556.123Z"/><path fill="#F2F2F2" d="M255.529 591.601C255.561 592.595 255.423 593.587 255.119 594.534C254.465 596.26 252.844 597.442 252.006 599.087C250.842 601.374 251.369 604.138 252.141 606.586C252.497 608.167 253.343 609.595 254.559 610.666C255.67 611.355 256.934 611.76 258.239 611.845C269.385 613.387 280.707 612.502 291.955 612.825C294.005 612.884 296.176 612.956 297.965 611.954C299.755 610.952 300.861 608.434 299.644 606.783C298.551 605.301 296.39 605.314 294.551 605.227C289.76 604.984 285.199 603.105 281.627 599.903C280.922 599.301 280.311 598.598 279.814 597.816C279.431 597.123 279.114 596.395 278.866 595.643C277.289 591.372 275.413 587.217 273.252 583.21C272.746 582.032 271.907 581.027 270.838 580.32C270.015 579.945 269.122 579.751 268.218 579.748C265.415 579.566 258.155 578.612 255.988 580.792C253.985 582.806 255.573 589.043 255.529 591.601Z"/><path fill="#FBBEBE" d="M272.779 342.671C282.669 342.671 290.686 334.654 290.686 324.765C290.686 314.875 282.669 306.858 272.779 306.858C262.89 306.858 254.873 314.875 254.873 324.765C254.873 334.654 262.89 342.671 272.779 342.671Z"/><path fill="#FBBEBE" d="M256.61 339.55C255.636 342.463 253.695 344.955 251.109 346.613L275.875 351.665C274.977 348.051 274.859 344.286 275.528 340.622C275.774 339.735 275.824 338.806 275.676 337.898C275.21 336.101 273.188 335.236 271.378 334.823C266.858 333.793 262.861 333.24 258.66 331.244C257.377 333.442 257.556 337.016 256.61 339.55Z"/><path fill="#3F3D56" d="M250.903 339.909C253.567 338.703 256.469 338.117 259.393 338.193C262.316 338.27 265.184 339.007 267.782 340.35C270.878 342.175 273.702 344.427 276.169 347.041C278.55 349.338 281.09 351.968 281.259 355.271C281.201 356.873 280.976 358.465 280.589 360.02C280.135 363.293 280.712 366.626 282.237 369.557C283.763 372.488 286.163 374.872 289.105 376.378C291.072 379.655 291.478 383.626 291.508 387.449C291.623 401.932 287.053 416.594 290.315 430.705C291.081 434.018 292.269 437.228 292.931 440.563C293.788 444.883 293.746 449.326 294.194 453.708C294.68 458.453 295.741 463.121 297.354 467.61C296.276 469.324 294.033 469.981 292.013 469.842C289.998 469.587 288.056 468.928 286.302 467.904C277.573 463.438 269.579 457.548 260.539 453.753C254.559 451.241 248.187 449.677 242.385 446.777C236.583 443.876 231.187 439.273 229.413 433.034C228.765 430.301 228.477 427.496 228.557 424.689C228.381 412.877 228.217 400.936 230.788 389.405C233.055 379.237 237.426 369.51 238.38 359.136C238.69 355.759 238.697 352.144 240.583 349.326C243.25 345.343 249.008 344.312 250.903 339.909Z"/><path fill="#3F3D56" d="M262.595 325.017C263.65 323.641 265.685 323.454 267.371 323.861C269.057 324.268 270.611 325.136 272.313 325.466C272.7 325.576 273.106 325.604 273.504 325.548C273.903 325.492 274.285 325.354 274.627 325.142C275.222 324.556 275.578 323.769 275.625 322.935C276.221 319.387 276.361 315.778 276.04 312.194C275.951 311.691 275.985 311.175 276.138 310.688C276.559 309.672 277.845 309.431 278.895 309.105C280.628 308.519 282.116 307.373 283.125 305.847C284.133 304.321 284.605 302.503 284.465 300.68C284.439 299.805 284.071 298.975 283.441 298.368C282.645 297.862 281.701 297.638 280.762 297.732C275.948 297.694 271.135 297.695 266.321 297.736C264.537 297.603 262.748 297.929 261.124 298.683C260.054 299.45 259.046 300.3 258.108 301.224C255.435 303.381 251.819 303.82 248.566 304.926C246.978 305.378 245.536 306.238 244.384 307.42C243.818 308.019 243.432 308.765 243.269 309.572C243.106 310.38 243.172 311.217 243.461 311.989C243.81 312.612 244.199 313.211 244.627 313.783C246.546 316.851 245.269 320.83 245.555 324.437C245.913 328.941 252.578 336.248 257.098 337.314C264.395 339.035 260.18 327.974 262.595 325.017Z"/><path fill="#3F3D56" d="M252.487 522.499C253.092 525.766 253.391 529.082 253.381 532.405C253.16 537.036 251.49 541.498 251.181 546.124C250.951 549.579 251.484 553.071 251.004 556.5C250.697 558.696 249.981 560.813 249.538 562.986C248.836 566.526 248.855 570.172 249.596 573.704C250.336 577.236 251.782 580.583 253.847 583.543C254.15 584.05 254.581 584.468 255.097 584.755C255.592 584.939 256.122 585.009 256.647 584.96C261.859 584.854 267.057 584.382 272.202 583.547C272.579 583.531 272.936 583.374 273.201 583.106C273.317 582.928 273.391 582.727 273.418 582.516C274.372 577.612 272.196 572.694 271.643 567.729C271.052 562.427 272.325 557.113 273.587 551.93C274.16 549.373 274.875 546.85 275.73 544.373C276.341 542.706 277.078 541.085 277.607 539.391C278.356 536.729 278.812 533.993 278.968 531.232C279.335 526.875 279.529 522.508 279.551 518.131C279.676 513.983 279.331 509.835 278.522 505.765C277.362 500.612 274.985 495.827 272.629 491.1C271.37 491.402 270.187 491.964 269.157 492.75C266.122 494.716 262.952 496.467 259.671 497.991C257.467 499.014 253.169 499.742 251.77 501.875C250.39 503.979 251.28 508.272 251.386 510.592C251.567 514.575 251.934 518.544 252.487 522.499Z"/><path fill="#000" d="M252.487 522.499C253.092 525.766 253.391 529.082 253.381 532.405C253.16 537.036 251.49 541.498 251.181 546.124C250.951 549.579 251.484 553.071 251.004 556.5C250.697 558.696 249.981 560.813 249.538 562.986C248.836 566.526 248.855 570.172 249.596 573.704C250.336 577.236 251.782 580.583 253.847 583.543C254.15 584.05 254.581 584.468 255.097 584.755C255.592 584.939 256.122 585.009 256.647 584.96C261.859 584.854 267.057 584.382 272.202 583.547C272.579 583.531 272.936 583.374 273.201 583.106C273.317 582.928 273.391 582.727 273.418 582.516C274.372 577.612 272.196 572.694 271.643 567.729C271.052 562.427 272.325 557.113 273.587 551.93C274.16 549.373 274.875 546.85 275.73 544.373C276.341 542.706 277.078 541.085 277.607 539.391C278.356 536.729 278.812 533.993 278.968 531.232C279.335 526.875 279.529 522.508 279.551 518.131C279.676 513.983 279.331 509.835 278.522 505.765C277.362 500.612 274.985 495.827 272.629 491.1C271.37 491.402 270.187 491.964 269.157 492.75C266.122 494.716 262.952 496.467 259.671 497.991C257.467 499.014 253.169 499.742 251.77 501.875C250.39 503.979 251.28 508.272 251.386 510.592C251.567 514.575 251.934 518.544 252.487 522.499Z" opacity=".1"/><path fill="#3F3D56" d="M228.279 452.255C225.901 458.657 229.396 465.575 232.433 471.692C239.914 486.763 245.109 502.843 250.277 518.856C250.793 520.015 250.913 521.313 250.619 522.548C250.247 523.389 249.642 524.106 248.875 524.616C245.312 527.322 240.775 528.286 236.531 529.702C232.429 531.071 228.501 532.913 224.825 535.19C221.749 537.096 218.868 539.296 215.992 541.492L206.839 548.483C206.246 548.883 205.728 549.385 205.309 549.964C204.426 551.349 204.788 553.157 205.227 554.74C206.391 558.93 207.89 563.021 209.709 566.971C210.008 567.837 210.578 568.584 211.334 569.101C212.763 569.869 214.51 568.851 215.601 567.651C216.692 566.45 217.636 564.957 219.174 564.442C220.71 563.927 222.401 564.55 224.005 564.325C226.6 563.961 228.323 561.57 230.193 559.735C237.835 552.238 250.593 552.782 258.999 546.154C260.214 545.066 261.501 544.061 262.85 543.146C264.271 542.306 265.883 541.845 267.357 541.102C271.842 538.844 274.661 534.175 276.171 529.387C277.681 524.598 278.112 519.544 279.197 514.641C279.868 512.133 280.385 509.587 280.747 507.016C280.907 504.613 280.855 502.2 280.59 499.807L277.557 462.285C277.31 459.23 277.063 456.171 276.583 453.144C267.575 453.466 258.573 453.829 249.56 453.935C242.388 454.02 235.084 454.521 228.279 452.255Z"/><path fill="#3F3D56" d="M224.967 461.032C226.189 462.997 229.163 462.957 231.211 461.879C233.259 460.802 234.85 458.992 236.903 457.923C239.662 456.488 242.926 456.542 246.035 456.63C250.956 456.769 255.938 456.917 260.673 458.265C265.57 459.66 270.338 462.346 275.402 461.81C275.846 461.81 276.284 461.712 276.686 461.523C277.087 461.335 277.443 461.06 277.727 460.719C278.008 460.179 278.14 459.575 278.109 458.967L278.275 454.542C278.377 453.777 278.254 452.999 277.923 452.302C277.498 451.722 276.915 451.276 276.244 451.017C269.037 447.528 260.816 446.878 252.813 446.604C248.745 446.465 244.675 446.407 240.603 446.432C237.148 446.453 233 445.953 229.641 446.876C225.132 448.115 222.679 457.354 224.967 461.032Z"/><path fill="#00C58E" d="M270.226 345.161C260.782 345.077 252.223 338.844 242.78 338.692C241.639 338.613 240.496 338.81 239.447 339.267C238.216 340.079 237.139 341.104 236.267 342.294C233.474 345.318 229.431 346.932 226.562 349.884C223.873 352.651 222.377 356.774 223.439 360.484C224.501 364.194 228.508 367.04 232.263 366.148C233.776 361.252 236.898 357.01 241.123 354.11C243.322 352.7 245.639 351.483 248.048 350.475C252.292 348.552 257.038 346.592 261.469 348.033C263.104 348.651 264.644 349.491 266.048 350.53L273.436 355.493C272.575 352.098 271.801 348.29 270.226 345.161Z"/><path fill="#00C58E" d="M231.176 362.866C229.922 364.431 231.728 366.698 231.452 368.684C231.268 370.003 230.182 371.011 229.73 372.264C229.262 373.562 229.51 375 229.332 376.368C229.154 377.363 228.89 378.341 228.544 379.291C227.749 382.128 227.193 385.028 226.884 387.959L225.231 400.303C224.944 402.161 224.77 404.035 224.708 405.914C224.792 407.318 224.698 408.727 224.429 410.108C223.942 411.417 223.366 412.692 222.707 413.924C222.382 414.544 222.207 415.232 222.196 415.933C222.185 416.633 222.339 417.326 222.646 417.956C221.423 419.027 220.608 420.488 220.339 422.091C220.07 423.695 220.364 425.342 221.17 426.753C221.499 427.175 221.755 427.648 221.93 428.153C222.026 428.859 221.909 429.578 221.596 430.217L219.924 434.671C219.496 435.811 219.361 437.547 220.551 437.807C219.565 438.83 218.798 440.042 218.294 441.371C218.05 442.038 217.977 442.755 218.082 443.458C218.187 444.16 218.466 444.825 218.895 445.391C219.31 445.755 219.664 446.185 219.942 446.662C220.106 447.327 220.063 448.026 219.821 448.666C219.571 449.639 219.523 450.652 219.68 451.644C219.836 452.636 220.194 453.586 220.732 454.434C221.288 455.271 222.077 455.928 223.001 456.324C223.925 456.72 224.944 456.838 225.934 456.664C229.278 455.91 232.282 454.719 235.654 455.338C242.941 456.516 250.146 458.157 257.225 460.252C265.249 462.814 273.019 466.571 281.405 467.36C281.956 467.472 282.53 467.383 283.022 467.108C283.449 466.703 283.715 466.157 283.77 465.571L286.361 453.418C287.406 448.928 288.201 444.383 288.744 439.805C289.039 436.85 289.123 433.879 289.207 430.911L289.875 407.284C290.188 403.802 289.724 400.294 288.515 397.013L284.673 384.747C282.48 377.747 277.45 371.54 275.659 364.427C274.526 359.925 273.688 355.093 270.649 351.584C266.315 346.582 258.817 345.804 252.255 346.664C249.268 346.939 246.368 347.822 243.736 349.26C240.77 351.038 238.586 353.839 236.473 356.575C234.731 358.83 232.958 360.643 231.176 362.866Z"/><path fill="#FBBEBE" d="M246.499 432.359C247.039 434.69 248.175 436.84 248.87 439.13C250.034 442.967 249.935 447.099 251.098 450.937C251.586 452.548 252.292 454.094 252.642 455.741C253.459 459.579 252.267 463.549 250.786 467.183C249.306 470.817 247.503 474.4 247.022 478.294C246.683 481.037 247.17 484.135 249.284 485.915C251.479 487.763 254.669 487.638 257.527 487.392C258.554 487.363 259.567 487.152 260.519 486.769C262.705 485.734 263.626 483.147 264.137 480.783C265.85 472.861 265.361 464.65 264.863 456.56L263.561 435.404C263.476 431.299 262.88 427.22 261.787 423.262C261.331 421.84 260.535 418.965 259.235 418.056C257.948 417.157 254.273 417.117 252.679 417.042C245.203 416.691 245.287 427.126 246.499 432.359Z"/><path fill="#3F3D56" d="M254.782 354.244C253.991 353.897 253.124 353.755 252.263 353.832C251.402 353.908 250.574 354.199 249.856 354.68C248.431 355.656 247.183 356.867 246.165 358.263C242.866 362.29 239.373 366.912 239.863 372.095C240.181 374.021 240.66 375.917 241.295 377.763C243.507 386.032 241.061 394.777 241.341 403.331C241.657 408.27 242.43 413.169 243.65 417.965C243.869 418.95 244.219 420.091 245.172 420.423C245.922 420.567 246.699 420.446 247.371 420.082C250.011 419.107 252.847 418.781 255.64 419.133C258.433 419.485 261.1 420.504 263.416 422.105C265.186 421.16 264.523 418.172 264.126 416.205C262.946 410.361 264.547 404.331 266.492 398.694C268.436 393.058 270.762 387.428 271.084 381.474C271.449 374.728 269.213 368.144 267.006 361.758C266.796 360.423 266.164 359.189 265.203 358.238C264.243 357.287 263.003 356.668 261.665 356.471C259.321 355.778 256.948 355.378 254.782 354.244Z"/></svg>