<svg xmlns="http://www.w3.org/2000/svg" width="1015" height="598" fill="none" viewBox="0 0 1015 598"><path fill="#605D82" d="M411 596H404.984C403.662 596 402.395 595.475 401.46 594.54C400.525 593.605 400 592.338 400 591.016V574H411L415.421 590.211C415.607 590.891 415.633 591.605 415.498 592.296C415.363 592.988 415.07 593.639 414.642 594.199C414.214 594.759 413.663 595.213 413.031 595.525C412.4 595.838 411.705 596 411 596Z"/><path fill="#F2F2F2" d="M776.276 187.5H92.7244C85.4208 187.5 79.5 193.421 79.5 200.724V444.276C79.5 451.579 85.4208 457.5 92.7244 457.5H776.276C783.579 457.5 789.5 451.579 789.5 444.276V200.724C789.5 193.421 783.579 187.5 776.276 187.5Z"/><path fill="#F86B75" d="M24.5 32.5C30.0228 32.5 34.5 28.0228 34.5 22.5C34.5 16.9772 30.0228 12.5 24.5 12.5C18.9772 12.5 14.5 16.9772 14.5 22.5C14.5 28.0228 18.9772 32.5 24.5 32.5Z"/><path fill="#FAD375" d="M55.5 32.5C61.0228 32.5 65.5 28.0228 65.5 22.5C65.5 16.9772 61.0228 12.5 55.5 12.5C49.9772 12.5 45.5 16.9772 45.5 22.5C45.5 28.0228 49.9772 32.5 55.5 32.5Z"/><path fill="#8BCC55" d="M86.5 32.5C92.0228 32.5 96.5 28.0228 96.5 22.5C96.5 16.9772 92.0228 12.5 86.5 12.5C80.9772 12.5 76.5 16.9772 76.5 22.5C76.5 28.0228 80.9772 32.5 86.5 32.5Z"/><path fill="#F2F2F2" d="M225 94C236.046 94 245 85.0457 245 74C245 62.9543 236.046 54 225 54C213.954 54 205 62.9543 205 74C205 85.0457 213.954 94 225 94Z"/><path fill="#00C58E" d="M598.577 63.5H510.423C507.428 63.5 505 65.9281 505 68.9232V85.0768C505 88.0719 507.428 90.5 510.423 90.5H598.577C601.572 90.5 604 88.0719 604 85.0768V68.9232C604 65.9281 601.572 63.5 598.577 63.5Z"/><path fill="#00C58E" d="M739.577 63.5H651.423C648.428 63.5 646 65.9281 646 68.9232V85.0768C646 88.0719 648.428 90.5 651.423 90.5H739.577C742.572 90.5 745 88.0719 745 85.0768V68.9232C745 65.9281 742.572 63.5 739.577 63.5Z"/><path fill="#00C58E" d="M409.639 243.8C396.151 243.8 382.965 247.8 371.75 255.294C360.534 262.787 351.793 273.439 346.631 285.901C341.469 298.363 340.118 312.075 342.75 325.305C345.381 338.534 351.877 350.687 361.415 360.224C370.953 369.762 383.105 376.258 396.334 378.889C409.564 381.521 423.277 380.17 435.738 375.008C448.2 369.846 458.852 361.105 466.346 349.89C473.84 338.674 477.839 325.488 477.839 312C477.831 293.915 470.643 276.573 457.855 263.784C445.067 250.996 427.725 243.808 409.639 243.8ZM395.999 342.69V281.31L436.92 312L395.999 342.69Z"/><path fill="#46455B" d="M383.099 430.704C383.099 430.704 370.85 473.31 370.317 491.951C369.784 510.591 367.654 540.415 369.252 547.871C370.85 555.327 375.643 570.239 375.643 570.239C375.643 570.239 385.762 557.99 389.49 564.913C389.49 564.913 388.957 550.534 386.294 546.273C386.294 546.273 387.359 523.905 387.359 515.917C387.359 507.928 400.674 471.18 401.739 470.648C402.804 470.115 406 480.767 403.337 504.2C400.674 527.633 398.544 568.653 398.544 572.913C398.544 577.174 404.934 585.695 409.195 583.032C413.456 580.37 416.119 557.457 416.119 557.457C416.119 557.457 419.847 509.526 421.977 504.2C424.107 498.874 435.291 437.628 426.77 432.835C418.249 428.042 383.099 430.704 383.099 430.704Z"/><path fill="#605D82" d="M392.153 569.173C391.62 571.304 389.49 581.422 389.49 584.618C389.49 587.813 391.62 593.672 382.566 595.802C373.747 597.879 375.036 592.372 373.63 589.134C373.592 589.049 373.555 588.964 373.512 588.878C371.915 585.683 375.643 569.173 376.175 569.173C376.488 569.173 379.007 564.945 381.032 561.457C381.455 560.714 382.042 560.076 382.747 559.592C383.453 559.107 384.259 558.789 385.105 558.661C385.951 558.533 386.815 558.599 387.632 558.853C388.449 559.106 389.198 559.542 389.823 560.127C390.663 560.941 391.331 561.917 391.785 562.996C392.239 564.074 392.471 565.233 392.467 566.404C392.483 567.337 392.378 568.268 392.153 569.173Z"/><path fill="#000" d="M392.154 569.174C391.621 571.304 389.491 581.423 389.491 584.619C389.491 587.814 391.621 593.673 382.567 595.803C373.748 597.88 375.037 592.373 373.631 589.135C375.159 585.162 378.871 576.625 381.502 569.174C383.824 562.592 389.534 564.738 392.468 566.405C392.485 567.338 392.379 568.269 392.154 569.174Z" opacity=".1"/><path fill="#FBBEBE" d="M407.598 348.155C413.775 348.155 418.782 343.148 418.782 336.971C418.782 330.794 413.775 325.787 407.598 325.787C401.421 325.787 396.414 330.794 396.414 336.971C396.414 343.148 401.421 348.155 407.598 348.155Z"/><path fill="#FBBEBE" d="M398.543 339.101L396.945 356.676L416.118 359.872C416.118 359.872 413.988 344.427 415.585 341.231C417.183 338.036 398.543 339.101 398.543 339.101Z"/><path fill="#605D82" d="M413.456 352.948C413.456 352.948 397.479 351.351 396.414 352.948C395.718 354.261 395.353 355.723 395.349 357.209C395.349 357.209 388.958 359.872 387.893 358.807C386.827 357.742 385.762 354.546 382.567 355.611C379.371 356.676 372.98 375.849 372.98 375.849C372.98 375.849 374.578 369.991 377.241 392.359C379.904 414.727 379.371 428.574 379.904 430.172C380.437 431.77 377.241 441.356 396.414 441.356C415.587 441.356 429.434 440.291 429.434 436.563C429.434 432.835 426.238 416.857 429.434 405.141C432.629 393.424 437.422 377.447 437.422 377.447L431.031 356.676C431.031 356.676 424.64 355.079 423.043 357.742C421.445 360.404 417.184 359.872 417.184 359.872C417.184 359.872 416.652 353.481 413.456 352.948Z"/><path fill="#605D82" d="M383.1 356.676L369.785 350.818C369.785 350.818 344.754 331.645 345.819 314.603C345.819 314.603 337.298 306.614 336.765 315.135C336.233 323.657 338.896 342.829 345.287 349.22C351.678 355.611 373.513 375.849 376.709 376.382C379.904 376.914 383.1 356.676 383.1 356.676Z"/><path fill="#FBBEBE" d="M337.83 316.201C337.83 316.201 327.711 288.507 336.765 289.572C345.819 290.637 343.689 302.354 343.689 302.354V316.201H337.83Z"/><path fill="#605D82" d="M428.9 357.741L442.215 351.882C442.215 351.882 467.246 332.71 466.181 315.667C466.181 315.667 474.702 307.679 475.234 316.2C475.767 324.721 473.104 343.894 466.713 350.285C460.322 356.676 438.487 376.914 435.291 377.446C432.096 377.979 428.9 357.741 428.9 357.741Z"/><path fill="#FBBEBE" d="M474.17 317.265C474.17 317.265 484.289 289.571 475.235 290.636C466.182 291.702 468.312 303.418 468.312 303.418V317.265H474.17Z"/><path fill="#46455B" d="M416.12 323.656L417.717 322.591C417.717 322.591 407.598 316.733 403.338 319.928C399.077 323.124 398.012 325.787 396.947 326.852C395.882 327.917 393.219 333.775 394.817 335.906C396.414 338.036 395.882 338.473 396.947 340.385C398.012 342.297 395.086 349.988 403.206 352.267C411.326 354.546 417.717 344.959 418.783 342.829C419.848 340.699 423.576 326.319 416.12 323.656Z"/><path fill="#46455B" d="M825.164 474.191C825.164 533.152 862.153 580.862 907.863 580.862L825.164 474.191Z"/><path fill="#00C58E" d="M907.863 580.861C907.863 521.238 949.14 472.992 1000.15 472.992L907.863 580.861Z"/><path fill="#00C58E" d="M855.127 479.536C855.127 535.542 878.714 580.861 907.863 580.861L855.127 479.536Z"/><path fill="#46455B" d="M907.863 580.862C907.863 504.677 955.573 443.029 1014.53 443.029L907.863 580.862Z"/><path fill="#A8A8A8" d="M890.465 581.614C890.465 581.614 902.193 581.252 905.728 578.736C909.262 576.219 923.768 573.213 924.645 577.25C925.522 581.286 942.27 597.326 929.029 597.433C915.788 597.54 898.263 595.37 894.735 593.221C891.208 591.072 890.465 581.614 890.465 581.614Z"/><path fill="#000" d="M929.266 596.027C916.025 596.134 898.5 593.964 894.972 591.816C892.285 590.179 891.215 584.307 890.856 581.598C890.608 581.608 890.465 581.613 890.465 581.613C890.465 581.613 891.208 591.072 894.735 593.221C898.263 595.37 915.788 597.539 929.029 597.432C932.852 597.401 934.172 596.041 934.099 594.027C933.568 595.244 932.111 596.004 929.266 596.027Z" opacity=".2"/><path stroke="#000" stroke-miterlimit="10" d="M950.862 0.5H16.1378C8.60585 0.5 2.5 6.60585 2.5 14.1378V509.862C2.5 517.394 8.60585 523.5 16.1378 523.5H950.862C958.394 523.5 964.5 517.394 964.5 509.862V14.1378C964.5 6.60585 958.394 0.5 950.862 0.5Z"/><path stroke="#000" stroke-miterlimit="10" d="M0 37.0391H962"/><path stroke="#000" stroke-miterlimit="10" d="M0 100.5H962"/><path stroke="#000" stroke-miterlimit="10" d="M230 89C241.046 89 250 80.0457 250 69C250 57.9543 241.046 49 230 49C218.954 49 210 57.9543 210 69C210 80.0457 218.954 89 230 89Z"/><path stroke="#000" stroke-miterlimit="10" d="M606.778 55.5H516.222C513.89 55.5 512 57.3904 512 59.7224V78.2776C512 80.6095 513.89 82.5 516.222 82.5H606.778C609.11 82.5 611 80.6095 611 78.2776V59.7224C611 57.3904 609.11 55.5 606.778 55.5Z"/><path stroke="#000" stroke-miterlimit="10" d="M747.778 55.5H657.222C654.89 55.5 653 57.3904 653 59.7224V78.2776C653 80.6095 654.89 82.5 657.222 82.5H747.778C750.11 82.5 752 80.6095 752 78.2776V59.7224C752 57.3904 750.11 55.5 747.778 55.5Z"/><path stroke="#000" stroke-miterlimit="10" d="M809.496 165.5H131.504C122.665 165.5 115.5 172.665 115.5 181.504V419.496C115.5 428.335 122.665 435.5 131.504 435.5H809.496C818.335 435.5 825.5 428.335 825.5 419.496V181.504C825.5 172.665 818.335 165.5 809.496 165.5Z"/><path stroke="#000" stroke-miterlimit="10" d="M406.001 285.921V274.31L446.921 305L437.501 311.5L406.001 285.921ZM451.904 365.09C460.436 360.512 467.896 354.169 473.786 346.483C479.677 338.798 483.863 329.946 486.067 320.517C488.27 311.088 488.441 301.297 486.566 291.797C484.692 282.297 480.816 273.305 475.197 265.419C469.577 257.533 462.342 250.935 453.974 246.062C445.606 241.19 436.296 238.155 426.664 237.161C417.032 236.166 407.298 237.234 398.111 240.293C388.924 243.353 380.493 248.334 373.381 254.905L451.904 365.09Z"/><path stroke="#000" stroke-miterlimit="10" d="M275 596H512"/><path stroke="#000" stroke-miterlimit="10" d="M876.887 596.479H950.887"/><path stroke="#000" stroke-miterlimit="10" d="M27.5 28.5C33.0228 28.5 37.5 24.0228 37.5 18.5C37.5 12.9772 33.0228 8.5 27.5 8.5C21.9772 8.5 17.5 12.9772 17.5 18.5C17.5 24.0228 21.9772 28.5 27.5 28.5Z"/><path stroke="#000" stroke-miterlimit="10" d="M58.5 28.5C64.0228 28.5 68.5 24.0228 68.5 18.5C68.5 12.9772 64.0228 8.5 58.5 8.5C52.9772 8.5 48.5 12.9772 48.5 18.5C48.5 24.0228 52.9772 28.5 58.5 28.5Z"/><path stroke="#000" stroke-miterlimit="10" d="M89.5 28.5C95.0228 28.5 99.5 24.0228 99.5 18.5C99.5 12.9772 95.0228 8.5 89.5 8.5C83.9772 8.5 79.5 12.9772 79.5 18.5C79.5 24.0228 83.9772 28.5 89.5 28.5Z"/></svg>