<svg width="100" height="14" viewBox="0 0 100 14" fill="none" xmlns="http://www.w3.org/2000/svg">
<path fill-rule="evenodd" clip-rule="evenodd" d="M9.95949 8.87366C9.95949 11.7433 7.84942 13.3639 4.97974 13.3639C2.11006 13.3639 0 11.7433 0 8.87366C0 6.00398 2.11006 4.38345 4.97974 4.38345C7.84942 4.38345 9.95949 6.00398 9.95949 8.87366ZM6.16138 8.82302C6.16138 7.92836 5.73936 7.33754 4.97974 7.33754C4.22012 7.33754 3.79811 7.92836 3.79811 8.82302C3.79811 9.70081 4.22012 10.2916 4.97974 10.2916C5.73936 10.2916 6.16138 9.70081 6.16138 8.82302ZM16.9649 4.55226V7.33754H15.1924V9.70081C15.1924 10.2072 15.4456 10.2916 15.8677 10.2916C16.2897 10.2916 16.7117 10.1735 16.7117 10.1735L16.8805 13.0769C16.5429 13.1613 15.6144 13.3639 14.5172 13.3639C13.42 13.3639 12.6604 13.0769 12.1539 12.6211C11.6475 12.1485 11.3943 11.3889 11.3943 10.1228V7.33754H10.2127V4.55226H11.3943V2.4422H15.1924V4.55226H16.9649ZM26.5868 8.68798C26.5868 9.19439 26.5361 9.75145 26.5361 9.75145H20.8812C21.0162 10.5448 21.8602 10.7136 22.5354 10.7136C23.2107 10.7136 24.1391 10.5448 24.8987 10.0384L26.3336 11.8953C25.9115 12.2329 24.7299 13.3639 21.9784 13.3639C19.2438 13.3639 17.1337 11.8277 17.1337 8.87366C17.1337 5.91958 19.3282 4.38345 22.029 4.38345C24.7299 4.38345 26.5868 6.0715 26.5868 8.68798ZM20.8812 7.75955H23.0756C23.0419 7.16873 22.6198 6.74672 21.9784 6.74672C21.3538 6.74672 20.9318 7.16873 20.8812 7.75955ZM34.2167 9.70081L34.892 12.5705C34.892 12.5705 33.8791 13.3639 31.7691 13.3639C29.237 13.3639 27.0425 11.7433 27.0425 8.87366C27.0425 6.00398 29.237 4.38345 31.7691 4.38345C33.7103 4.38345 34.8076 5.05867 34.8076 5.05867L34.2167 7.92836C33.8791 7.67515 33.2039 7.33754 32.3599 7.33754C31.5159 7.33754 30.79 7.84395 30.79 8.82302C30.79 9.78521 31.4315 10.2916 32.4443 10.2916C33.4569 10.2916 34.2164 9.70108 34.2167 9.70081ZM45.1384 8.09716V13.1613H41.3403V8.94118C41.3403 8.09716 41.2559 7.4557 40.4625 7.4557C39.6523 7.4557 39.5679 8.09716 39.5679 8.94118V13.1613H35.7697V1.51377H39.5679V4.04584C39.5679 4.55226 39.5341 5.64949 39.5341 5.64949C39.9561 4.97427 40.6651 4.38345 41.9311 4.38345C44.4632 4.38345 45.1384 5.9871 45.1384 8.09716ZM50.287 2.4422C50.287 3.53943 49.4936 4.24841 48.2613 4.24841C47.0459 4.24841 46.2356 3.53943 46.2356 2.4422C46.2356 1.34497 47.0459 0.635986 48.2613 0.635986C49.4936 0.635986 50.287 1.34497 50.287 2.4422ZM50.1688 4.55226V13.1613H46.3707V4.55226H50.1688ZM60.5503 8.68798C60.5503 9.19439 60.4997 9.75145 60.4997 9.75145H54.8447C54.9797 10.5448 55.8238 10.7136 56.499 10.7136C57.1742 10.7136 58.1026 10.5448 58.8622 10.0384L60.2971 11.8953C59.8751 12.2329 58.6934 13.3639 55.9419 13.3639C53.2073 13.3639 51.0972 11.8277 51.0972 8.87366C51.0972 5.91958 53.2917 4.38345 55.9926 4.38345C58.6934 4.38345 60.5503 6.0715 60.5503 8.68798V8.68798ZM54.8447 7.75955H57.0392C57.0054 7.16873 56.5834 6.74672 55.9419 6.74672C55.3173 6.74672 54.8953 7.16873 54.8447 7.75955V7.75955ZM65.5976 11.5239C65.5976 12.7055 64.7535 13.347 63.5381 13.347C62.3059 13.347 61.4618 12.7055 61.4618 11.5239C61.4618 10.3423 62.3059 9.68393 63.5381 9.68393C64.7535 9.68393 65.5976 10.3423 65.5976 11.5239ZM73.582 9.70081L74.2572 12.5705C74.2572 12.5705 73.2444 13.3639 71.1344 13.3639C68.6023 13.3639 66.4078 11.7433 66.4078 8.87366C66.4078 6.00398 68.6023 4.38345 71.1344 4.38345C73.0756 4.38345 74.1728 5.05867 74.1728 5.05867L73.582 7.92836C73.2444 7.67515 72.5692 7.33754 71.7252 7.33754C70.8811 7.33754 70.1553 7.84395 70.1553 8.82302C70.1553 9.78521 70.7967 10.2916 71.8096 10.2916C72.8224 10.2916 73.582 9.70081 73.582 9.70081ZM84.6387 8.87366C84.6387 11.7433 82.5287 13.3639 79.659 13.3639C76.7893 13.3639 74.6793 11.7433 74.6793 8.87366C74.6793 6.00398 76.7893 4.38345 79.659 4.38345C82.5287 4.38345 84.6387 6.00398 84.6387 8.87366ZM80.8406 8.82302C80.8406 7.92836 80.4186 7.33754 79.659 7.33754C78.8994 7.33754 78.4774 7.92836 78.4774 8.82302C78.4774 9.70081 78.8994 10.2916 79.659 10.2916C80.4186 10.2916 80.8406 9.70081 80.8406 8.82302ZM100 8.01276V13.1613H96.2019V8.77238C96.2019 7.92836 96.0331 7.4557 95.4423 7.4557C94.8514 7.4557 94.6826 7.92836 94.6826 8.77238V13.1613H90.8845V8.77238C90.8845 7.92836 90.7157 7.4557 90.1249 7.4557C89.5341 7.4557 89.3653 7.92836 89.3653 8.77238V13.1613H85.5672V4.55226H89.3653L89.3146 5.64949C89.7873 4.97427 90.5469 4.38345 91.6441 4.38345C92.7414 4.38345 93.7542 4.63666 94.21 5.8183C94.8514 4.80547 95.6111 4.38345 96.9615 4.38345C99.0716 4.38345 100 5.73389 100 8.01276Z" fill="white"/>
</svg>
