<svg width="100" height="100" viewBox="0 0 100 100" fill="none" xmlns="http://www.w3.org/2000/svg">
<path fill-rule="evenodd" clip-rule="evenodd" d="M78.7799 10H21.2201C17.2089 10 14 13.2 14 17.2V82.8C14 86.8 17.2089 90 21.2201 90H78.7799C82.7911 90 86 86.8 86 82.8V17.2C86 13.2 82.7911 10 78.7799 10ZM78.7799 86C80.585 86 81.9889 84.6 81.9889 82.8V17.2C81.9889 15.4 80.585 14 78.7799 14H21.2201C19.415 14 18.0111 15.4 18.0111 17.2V82.8C18.0111 84.6 19.415 86 21.2201 86H78.7799ZM32.0501 78L41.0752 70L32.0501 62V78ZM64.5404 45.6C62.9359 44 59.9276 42 54.9137 42C49.4986 42 43.883 43.4 39.8719 44.8V22H31.8496V56.6L37.4652 54C37.4652 54 46.6908 49.8 54.7131 49.8C58.7242 49.8 59.727 52 59.727 54V78H67.7493V54C67.9499 53.4 67.9499 49 64.5404 45.6ZM53.9109 35H61.9331C65.5432 30.8 67.3482 26.6 67.9499 22H59.9276C59.1253 26.6 57.1198 30.8 53.9109 35Z" fill="#430098"/>
</svg>
