<svg width="567" height="516" viewBox="0 0 567 516" fill="none" xmlns="http://www.w3.org/2000/svg">
<path d="M566.88 501.809L526.408 11.282C525.917 4.90552 520.521 0 514.143 0H51.2938C44.9163 0 39.5202 4.90552 39.0295 11.282L0.0297569 501.809C-0.460977 508.922 5.18095 515.053 12.2941 515.053H554.86C561.973 515.053 567.615 508.922 566.88 501.809ZM272.785 359.556C202.144 359.556 144.747 290.392 144.747 205.776C144.747 201.361 148.426 197.683 152.841 197.683C157.256 197.683 160.936 201.361 160.936 205.776C160.936 281.808 211.219 343.614 273.03 343.614C334.841 343.614 385.125 281.808 385.125 205.776C385.125 201.361 388.804 197.683 393.218 197.683C397.634 197.683 401.313 201.361 401.313 205.776C400.822 290.392 343.426 359.556 272.785 359.556ZM439.823 200.87C436.634 204.059 431.728 204.059 428.539 200.87L393.218 165.552L357.408 201.361C355.936 202.833 353.728 203.814 351.766 203.814C349.804 203.814 347.596 203.078 346.124 201.361C342.936 198.173 342.936 193.268 346.124 190.079L387.577 148.629C389.049 147.158 391.011 146.177 393.218 146.177C395.426 146.177 397.389 146.913 398.86 148.629L439.823 189.588C443.011 192.777 443.011 197.683 439.823 200.87Z" fill="url(#paint0_linear)"/>
<defs>
<linearGradient id="paint0_linear" x1="544.453" y1="530.953" x2="22.9362" y2="23.7584" gradientUnits="userSpaceOnUse">
<stop stop-color="#5DCB79"/>
<stop offset="1" stop-color="#61D67F"/>
</linearGradient>
</defs>
</svg>
