<svg xmlns="http://www.w3.org/2000/svg" width="329" height="70" fill="none" viewBox="0 0 329 70"><path fill="#fff" d="M101.159 17.5519C101.458 16.6369 102.056 16.2302 102.853 16.2302H106.738C107.137 16.2302 107.436 16.3319 107.734 16.6369C108.033 16.9419 108.133 17.2469 108.133 17.6536C108.133 17.7553 108.133 17.9586 108.033 18.162L96.4768 51.1039C96.2776 51.7139 95.9787 52.2223 95.7795 52.4256C95.4806 52.7306 95.0821 52.8323 94.584 52.8323H90.4994C90.0012 52.8323 89.6027 52.7306 89.3039 52.4256C89.005 52.1206 88.8057 51.7139 88.6065 51.1039L77.0501 18.162C76.9504 17.9586 76.9504 17.7553 76.9504 17.6536C76.9504 17.2469 77.0501 16.9419 77.3489 16.6369C77.6478 16.3319 77.9467 16.2302 78.3452 16.2302H82.2305C83.0275 16.2302 83.6253 16.6369 83.9241 17.5519L92.5915 42.5634L101.159 17.5519Z"/><path fill="#fff" d="M109.727 26.0924C110.026 25.7874 110.325 25.6857 110.723 25.6857H114.609C115.007 25.6857 115.306 25.7874 115.605 26.0924C115.904 26.3974 116.003 26.7025 116.003 27.1091V40.4283C116.003 42.665 116.502 44.2918 117.398 45.5119C118.295 46.732 119.69 47.342 121.582 47.342C123.376 47.342 124.77 46.732 125.667 45.5119C126.663 44.2918 127.161 42.5634 127.161 40.4283V27.1091C127.161 26.7025 127.261 26.3974 127.56 26.0924C127.859 25.7874 128.158 25.6857 128.556 25.6857H132.442C132.84 25.6857 133.139 25.7874 133.438 26.0924C133.737 26.3974 133.836 26.7025 133.836 27.1091V51.5106C133.836 51.9172 133.737 52.2223 133.438 52.5273C133.139 52.8323 132.84 52.934 132.442 52.934H128.556C128.158 52.934 127.859 52.8323 127.56 52.5273C127.261 52.2223 127.161 51.9172 127.161 51.5106V50.2905C125.169 52.4256 122.778 53.4423 119.988 53.4423C116.103 53.4423 113.413 52.3239 111.72 50.0871C110.126 47.8503 109.229 44.9018 109.229 41.2416V27.1091C109.329 26.7025 109.528 26.2958 109.727 26.0924Z"/><path fill="#fff" d="M157.247 26.9058C159.14 28.1259 160.635 29.7526 161.731 31.7861C162.727 33.8195 163.325 36.0563 163.325 38.3948V40.7333C163.325 41.14 163.225 41.445 162.926 41.75C162.627 42.055 162.328 42.1567 161.93 42.1567H144.794C144.794 43.6818 145.392 44.9018 146.588 45.7152C147.783 46.6303 149.178 47.037 150.772 47.037C152.665 47.037 154.06 46.6303 155.155 45.8169C155.554 45.5119 155.853 45.3085 156.052 45.2069C156.251 45.1052 156.65 45.0035 157.048 45.0035H161.133C161.531 45.0035 161.83 45.1052 162.129 45.4102C162.428 45.7152 162.528 46.0202 162.528 46.3253C162.528 47.037 162.029 47.952 161.133 49.0704C160.236 50.1888 158.841 51.2055 157.048 52.0189C155.255 52.8323 153.163 53.239 150.772 53.239C148.281 53.239 145.99 52.6289 144.097 51.4089C142.204 50.1888 140.71 48.562 139.714 46.4269C138.717 44.2918 138.219 41.8517 138.219 39.0048C138.219 36.3613 138.717 34.0229 139.714 31.8877C140.71 29.7526 142.204 28.0242 144.097 26.8041C145.99 25.5841 148.182 24.8723 150.672 24.8723C153.063 25.0757 155.255 25.6857 157.247 26.9058ZM156.251 36.2597C155.853 33.0061 153.96 31.4811 150.573 31.4811C148.779 31.4811 147.385 31.9894 146.388 32.9045C145.392 33.9212 144.794 35.0396 144.695 36.2597H156.251Z"/><path fill="#fff" d="M200.983 26.3975C200.684 26.7025 200.385 26.8041 199.987 26.8041H196.4C195.902 26.8041 195.404 26.7025 195.105 26.4991C194.806 26.2958 194.507 25.9908 194.308 25.5841C193.71 24.5673 192.913 23.8556 191.817 23.2456C190.721 22.6356 189.227 22.3306 187.334 22.3306C185.441 22.3306 183.947 22.7372 182.652 23.449C181.357 24.2623 180.759 25.2791 180.759 26.4991C180.759 27.5159 181.058 28.3292 181.656 28.9393C182.253 29.5493 183.15 29.956 184.445 30.3627C185.74 30.7694 187.733 31.2777 190.622 31.8878C194.806 32.8028 197.795 34.0229 199.588 35.7513C201.481 37.3781 202.378 39.6149 202.378 42.4617C202.378 44.5968 201.78 46.4269 200.584 48.0537C199.389 49.6805 197.695 51.0022 195.404 51.9173C193.212 52.8323 190.522 53.3407 187.533 53.3407C184.943 53.3407 182.552 52.934 180.361 52.1206C178.169 51.3072 176.376 50.0871 174.981 48.5621C173.586 47.037 172.889 45.2069 172.789 43.2751C172.789 42.8684 172.889 42.5634 173.188 42.2584C173.486 41.9533 173.785 41.8517 174.184 41.8517H177.77C178.268 41.8517 178.767 41.9533 179.065 42.1567C179.364 42.36 179.663 42.6651 179.862 43.0717C180.46 44.1901 181.257 45.1052 182.353 45.8169C183.449 46.5286 185.143 46.8336 187.533 46.8336C189.825 46.8336 191.718 46.4269 193.212 45.7152C194.706 45.0035 195.503 43.8851 195.503 42.4617C195.503 41.6483 195.205 40.9366 194.607 40.4283C194.009 39.9199 193.212 39.5132 192.116 39.2082C191.02 38.9032 189.426 38.4965 187.334 37.8864C186.438 37.6831 185.342 37.4798 184.047 37.0731C180.46 36.158 177.87 34.9379 176.276 33.3112C174.682 31.7861 173.885 29.4476 173.885 26.3975C173.885 24.364 174.483 22.5339 175.678 20.8055C176.874 19.1787 178.468 17.857 180.56 16.9419C182.652 16.0269 184.943 15.5185 187.434 15.5185C190.323 15.5185 192.814 16.0269 194.906 17.0436C196.998 18.0603 198.592 19.2804 199.688 20.8055C200.784 22.3306 201.381 23.754 201.481 25.1774C201.381 25.7874 201.282 26.0924 200.983 26.3975Z"/><path fill="#fff" d="M213.635 45.6136C214.731 46.6303 216.126 47.1386 217.719 47.1386C219.214 47.1386 220.409 46.9353 221.206 46.4269C222.003 46.0202 222.701 45.2069 223.298 44.2918C223.597 43.8851 223.797 43.4784 224.095 43.2751C224.394 43.0717 224.693 42.8684 224.992 42.8684H228.877C229.276 42.8684 229.575 42.9701 229.874 43.2751C230.173 43.5801 230.272 43.8851 230.272 44.2918C230.173 45.4102 229.674 46.732 228.778 48.1554C227.881 49.5788 226.486 50.7989 224.594 51.8156C222.701 52.8323 220.409 53.3407 217.719 53.3407C215.329 53.3407 213.137 52.8323 211.244 51.7139C209.351 50.5955 207.857 49.1721 206.761 47.342C205.665 45.5119 205.067 43.4784 204.868 41.3433C204.868 40.9366 204.768 40.2249 204.768 39.2082C204.768 38.1915 204.768 37.4798 204.868 37.0731C205.067 34.9379 205.665 32.9045 206.761 31.0744C207.857 29.2443 209.351 27.8209 211.244 26.7025C213.137 25.5841 215.329 25.0757 217.719 25.0757C220.409 25.0757 222.701 25.5841 224.594 26.6008C226.486 27.6175 227.881 28.8376 228.778 30.261C229.674 31.6844 230.173 33.0062 230.272 34.1246C230.272 34.5313 230.173 34.8363 229.874 35.1413C229.575 35.4463 229.276 35.548 228.877 35.548H224.992C224.693 35.548 224.394 35.4463 224.095 35.1413C223.797 34.9379 223.597 34.5313 223.298 34.1246C222.601 33.1078 221.904 32.3961 221.206 31.9894C220.409 31.5828 219.313 31.2777 217.719 31.2777C216.126 31.2777 214.83 31.7861 213.635 32.8028C212.439 33.8196 211.842 35.3446 211.642 37.3781C211.642 37.6831 211.543 38.2931 211.543 39.2082C211.543 40.1232 211.543 40.7333 211.642 41.0383C211.742 43.0717 212.439 44.5968 213.635 45.6136Z"/><path fill="#fff" d="M258.865 52.4256C258.566 52.7306 258.267 52.8323 257.868 52.8323H253.983C253.584 52.8323 253.286 52.7306 252.987 52.4256C252.688 52.1205 252.588 51.8155 252.588 51.4088V38.1914C252.588 36.0563 252.09 34.3279 251.094 33.1078C250.098 31.8877 248.603 31.2777 246.71 31.2777C244.917 31.2777 243.522 31.8877 242.427 33.2095C241.331 34.4295 240.833 36.158 240.833 38.1914V51.5105C240.833 51.9172 240.733 52.2222 240.434 52.5272C240.135 52.8323 239.836 52.9339 239.438 52.9339H235.552C235.154 52.9339 234.855 52.8323 234.556 52.5272C234.257 52.2222 234.158 51.9172 234.158 51.5105V17.1452C234.158 16.7385 234.257 16.4335 234.556 16.1285C234.855 15.8235 235.154 15.7218 235.552 15.7218H239.438C239.836 15.7218 240.135 15.8235 240.434 16.1285C240.733 16.4335 240.833 16.7385 240.833 17.1452V28.3292C242.925 26.1941 245.316 25.1773 248.205 25.1773C252.09 25.1773 254.88 26.2957 256.573 28.5325C258.267 30.7693 259.163 33.7178 259.163 37.378V51.5105C259.263 51.8155 259.064 52.2222 258.865 52.4256Z"/><path fill="#fff" d="M289.15 39.3099C289.15 40.2249 289.15 41.14 289.051 41.9534C288.852 44.0885 288.254 46.0203 287.158 47.7487C286.062 49.4771 284.568 50.9005 282.675 51.9173C280.782 52.934 278.59 53.4423 276.199 53.4423C273.808 53.4423 271.616 52.934 269.724 51.9173C267.831 50.9005 266.336 49.4771 265.241 47.7487C264.145 46.0203 263.547 44.0885 263.348 41.9534C263.348 41.5467 263.248 40.6316 263.248 39.3099C263.248 37.9881 263.248 37.0731 263.348 36.6664C263.547 34.5313 264.145 32.4978 265.241 30.7694C266.336 29.0409 267.831 27.6175 269.724 26.6008C271.616 25.5841 273.808 25.0757 276.199 25.0757C278.59 25.0757 280.782 25.5841 282.675 26.6008C284.568 27.6175 286.062 29.0409 287.158 30.7694C288.254 32.4978 288.852 34.4296 289.051 36.6664C289.15 37.4798 289.15 38.3948 289.15 39.3099ZM272.015 32.7012C270.819 33.5145 270.222 34.9379 270.022 36.9714C270.022 37.2764 269.923 38.0898 269.923 39.3099C269.923 40.5299 269.923 41.3433 270.022 41.6483C270.222 43.6818 270.919 45.0035 272.015 45.9186C273.21 46.732 274.506 47.1387 276.199 47.1387C277.793 47.1387 279.188 46.732 280.383 45.9186C281.579 45.1052 282.177 43.6818 282.376 41.6483C282.476 40.9366 282.476 40.1232 282.476 39.3099C282.476 38.3948 282.476 37.6831 282.376 36.9714C282.177 34.9379 281.479 33.6162 280.383 32.7012C279.188 31.8878 277.893 31.4811 276.199 31.4811C274.605 31.3794 273.21 31.7861 272.015 32.7012Z"/><path fill="#fff" d="M318.141 39.3099C318.141 40.2249 318.141 41.14 318.041 41.9534C317.842 44.0885 317.244 46.0203 316.148 47.7487C315.053 49.4771 313.558 50.9005 311.665 51.9173C309.772 52.934 307.581 53.4423 305.19 53.4423C302.799 53.4423 300.607 52.934 298.714 51.9173C296.821 50.9005 295.327 49.4771 294.231 47.7487C293.135 46.0203 292.537 44.0885 292.338 41.9534C292.338 41.5467 292.239 40.6316 292.239 39.3099C292.239 37.9881 292.239 37.0731 292.338 36.6664C292.537 34.5313 293.135 32.4978 294.231 30.7694C295.327 29.0409 296.821 27.6175 298.714 26.6008C300.607 25.5841 302.799 25.0757 305.19 25.0757C307.581 25.0757 309.772 25.5841 311.665 26.6008C313.558 27.6175 315.053 29.0409 316.148 30.7694C317.244 32.4978 317.842 34.4296 318.041 36.6664C318.141 37.4798 318.141 38.3948 318.141 39.3099ZM301.005 32.7012C299.81 33.5145 299.212 34.9379 299.013 36.9714C299.013 37.2764 298.913 38.0898 298.913 39.3099C298.913 40.5299 298.913 41.3433 299.013 41.6483C299.212 43.6818 299.91 45.0035 301.005 45.9186C302.101 46.732 303.496 47.1387 305.19 47.1387C306.784 47.1387 308.178 46.732 309.374 45.9186C310.47 45.1052 311.167 43.6818 311.366 41.6483C311.466 40.9366 311.466 40.1232 311.466 39.3099C311.466 38.3948 311.466 37.6831 311.366 36.9714C311.167 34.9379 310.47 33.6162 309.374 32.7012C308.178 31.8878 306.883 31.4811 305.19 31.4811C303.496 31.3794 302.101 31.7861 301.005 32.7012Z"/><path fill="#fff" d="M328.602 52.4256C328.303 52.7306 328.004 52.8323 327.605 52.8323H323.72C323.321 52.8323 323.023 52.7306 322.724 52.4256C322.425 52.1206 322.325 51.8155 322.325 51.4088V17.1452C322.325 16.7385 322.425 16.4335 322.724 16.1285C323.023 15.8235 323.321 15.7218 323.72 15.7218H327.605C328.004 15.7218 328.303 15.8235 328.602 16.1285C328.9 16.4335 329 16.7385 329 17.1452V51.5105C329 51.8155 328.9 52.2222 328.602 52.4256Z"/><path fill="url(#paint0_linear)" d="M18.0193 43.4278C13.3391 20.1921 17.7735 4.94458 17.7735 4.94458C17.7735 4.94458 16.5872 14.2263 25.9124 29.1867C25.7936 47.7331 29.4296 57.4076 29.4296 57.4076L30.1768 56.8556L29.4296 57.5092C29.4296 57.5092 23.9004 52.9774 18.0193 43.4278Z"/><path fill="url(#paint1_linear)" d="M40.0617 40.1381C42.2987 42.4014 44.3858 43.9674 45.8943 44.7121C45.8854 44.7076 45.8765 44.7031 45.8676 44.6985C45.8676 44.6985 47.5612 45.3085 47.8601 44.9019C49.9248 42.707 50.4294 38.6169 49.0534 30.9295C41.1826 26.4169 40.1891 19.3821 40.1891 19.3821C40.1891 19.3821 38.7714 29.1486 40.0617 40.1381Z"/><path fill="url(#paint2_linear)" d="M17.7733 4.94458C17.7733 4.94458 11.2977 27.2109 22.2564 58.9327C22.5552 59.8477 22.2564 60.8645 21.4594 61.4745L9.90295 69.6083C8.80708 70.4217 7.21309 69.9133 6.71497 68.5916C3.62661 60.1527 -4.84147 32.1928 3.72623 1.58938C4.12473 0.369314 5.41985 -0.342394 6.61534 0.165969L17.7733 4.94458Z"/><path fill="url(#paint3_linear)" d="M39.8901 49.6805L29.4295 57.4076C29.4295 57.4076 23.8505 42.5634 26.7396 14.4001C26.9389 12.7734 28.6325 11.96 30.0272 12.7734L40.1889 19.3821C40.1889 19.3821 38.1964 33.1079 41.0855 46.3253C41.3844 47.647 40.8863 48.9688 39.8901 49.6805Z"/><path fill="url(#paint4_linear)" d="M59.2171 32.4978L49.5535 26.0925C48.9558 25.6858 48.0592 26.2958 48.2584 27.0075C50.5498 37.2764 50.2509 42.3601 47.8599 44.9019C47.561 45.3086 45.8674 44.6985 45.8674 44.6985C47.4614 45.5119 47.8599 45.1052 47.8599 45.1052C49.4539 43.8851 55.4314 39.5132 59.2171 36.8697C60.7115 35.7513 60.7115 33.5145 59.2171 32.4978Z"/><defs><linearGradient id="paint0_linear" x1="28.891" x2="35.097" y1="18.809" y2="39.584" gradientUnits="userSpaceOnUse"><stop stop-color="#131057"/><stop offset="1" stop-color="#4F48AD"/></linearGradient><linearGradient id="paint1_linear" x1="28.891" x2="35.097" y1="18.809" y2="39.584" gradientUnits="userSpaceOnUse"><stop stop-color="#131057"/><stop offset="1" stop-color="#4F48AD"/></linearGradient><linearGradient id="paint2_linear" x1="18.283" x2="6.186" y1="48.294" y2="20.168" gradientUnits="userSpaceOnUse"><stop stop-color="#EE6D93"/><stop offset="1" stop-color="#F7C6B8"/></linearGradient><linearGradient id="paint3_linear" x1="32.7" x2="30.824" y1="56.698" y2="12.448" gradientUnits="userSpaceOnUse"><stop stop-color="#3CAC96"/><stop offset="1" stop-color="#5FCEB8"/></linearGradient><linearGradient id="paint4_linear" x1="53.417" x2="46.17" y1="22.371" y2="38.485" gradientUnits="userSpaceOnUse"><stop stop-color="#80C3FF"/><stop offset=".455" stop-color="#349BF7"/><stop offset="1" stop-color="#714DD6"/></linearGradient></defs></svg>