<svg xmlns="http://www.w3.org/2000/svg" width="467" height="467" fill="none" viewBox="0 0 467 467"><path fill="#71A2B0" d="M38.562 237.307l41.757 117.119.023-.13a77.055 77.055 0 0022.632 32.667 76.765 76.765 0 0035.864 16.996l122.018 22.099a76.726 76.726 0 0039.548-3.333 77.038 77.038 0 0032.65-22.658l80.158-94.904a77.272 77.272 0 0016.934-36.014 77.264 77.264 0 00-3.227-39.665l-41.78-116.99a77.04 77.04 0 00-22.659-32.695 76.731 76.731 0 00-35.915-16.981l-121.94-22.086a76.759 76.759 0 00-39.547 3.337 77.063 77.063 0 00-32.651 22.655l-80.158 94.903a77.279 77.279 0 00-16.934 36.014 77.28 77.28 0 003.227 39.666z"/></svg>