<svg width="86" height="296" fill="none" xmlns="http://www.w3.org/2000/svg"><path d="M0 8.312a8 8 0 0 1 8-8h77.906v295.3H8a8.001 8.001 0 0 1-8-8V8.312Z" fill="#E5F9FF"/><path d="M47.66 37.22H12.75c-1.11 0-2.01.9-2.01 2.01v.01c0 1.11.9 2.01 2.01 2.01h34.91c1.11 0 2.01-.9 2.01-2.01v-.01c0-1.11-.9-2.01-2.01-2.01ZM53.7 48.63H12.75c-1.11 0-2.01.9-2.01 2.01v.01c0 1.11.9 2.01 2.01 2.01H53.7c1.11 0 2.01-.9 2.01-2.01v-.01c0-1.11-.9-2.01-2.01-2.01ZM47.66 60.04H12.75c-1.11 0-2.01.9-2.01 2.01v.01c0 1.11.9 2.01 2.01 2.01h34.91c1.11 0 2.01-.9 2.01-2.01v-.01c0-1.11-.9-2.01-2.01-2.01ZM53.7 71.45H12.75c-1.11 0-2.01.9-2.01 2.01v.01c0 1.11.9 2.01 2.01 2.01H53.7c1.11 0 2.01-.9 2.01-2.01v-.01c0-1.11-.9-2.01-2.01-2.01ZM47.66 82.86H12.75c-1.11 0-2.01.9-2.01 2.01v.01c0 1.11.9 2.01 2.01 2.01h34.91c1.11 0 2.01-.9 2.01-2.01v-.01c0-1.11-.9-2.01-2.01-2.01Z" fill="#95CDDE"/><path fill-rule="evenodd" clip-rule="evenodd" d="M18.992 14.38a1.355 1.355 0 0 0-2.339 0l-5.664 9.739c-.52.893.13 2.01 1.17 2.01h4.421a1.294 1.294 0 0 1-.272-1.636l4.29-7.353-1.606-2.76Z" fill="#80EEC0"/><path d="M22.58 16.516c.43-.731 1.506-.731 1.936 0l4.688 7.968c.43.731-.108 1.645-.968 1.645H18.86c-.86 0-1.398-.914-.968-1.645l4.688-7.968Z" fill="#00DC82"/></svg>
