<svg width="1440" height="147" preserveAspectRatio="none"  fill="none" xmlns="http://www.w3.org/2000/svg">
<path d="M498.48 122.787H524.25L549.671 119.265L586.982 112.916C586.982 112.916 615.73 110.001 615.73 109.013C619.769 106.18 631.225 108.706 639.036 110.428L639.037 110.428C643.2 111.346 646.327 112.035 646.744 111.564C647.249 110.993 649.367 109.986 652.084 109.013H668.148C674.418 108.711 687.323 109.013 687.323 109.013H700.384L727.137 114.792C727.137 114.792 759.339 122.009 777.912 126.198C786.092 128.043 795.464 128.237 803.38 126.038C803.936 125.884 804.496 125.727 805.056 125.57C810.516 124.04 817.377 123.428 817.377 123.428L846.325 122.295L867.158 118.821L902.429 115.571L911.908 116.784L920.699 114.948L932.375 109.358L937.065 106.567L971.699 108.445L1006.01 111.263L1016.99 112.582C1016.99 112.582 1020.26 111.729 1022.08 111.263L1027.2 110.707C1029.29 110.357 1041.47 108.939 1041.47 108.939L1057.08 110.707L1094.97 102.199L1123.4 107.396C1129.3 107.396 1135.47 107.396 1143.76 107.695L1192.72 117.158L1203.02 115.661L1220.86 116.42L1223.1 113.407C1223.1 113.407 1231.71 111.555 1235.21 111.555C1236.52 111.555 1239.38 111.437 1242.92 111.29C1253.3 110.861 1269.49 111.555 1269.49 111.555L1270.1 111.634C1284.16 113.451 1284.16 113.451 1291.1 113.451L1311.76 114.29C1322.38 119.81 1341.49 126.913 1372.84 133.28L1413.3 147H1435.21L1440 145.072V0H0L0.000750775 101.769L103.792 103.806L149.621 106.931L160.34 103.806L264.642 112.916L294.802 115.597L314.134 114.792L345.9 116.313L381.144 119.265H406.777L451.622 130.91L455.093 128.061L498.48 122.787Z" fill="#012A35"/>
</svg>
