<svg width="1500" height="199" viewBox="0 0 1500 199" fill="none" xmlns="http://www.w3.org/2000/svg">
<g clip-path="url(#clip0)">
<path d="M107.308 20.248C132.091 8.97087 162.494 10.5087 187.022 24.0925C199.285 30.7563 209.761 40.4957 217.936 52.0292C226.112 63.5627 231.222 77.1465 233.266 90.9867C237.609 119.18 227.134 149.167 206.439 168.902C196.22 178.897 183.445 186.074 169.648 190.175C155.852 194.019 141.288 194.532 127.236 191.712C113.184 188.637 99.8986 181.973 89.1679 172.746C78.4372 163.263 69.7504 151.473 64.385 138.146C59.2752 124.818 57.4867 109.953 59.5307 95.8564C60.5526 88.68 62.5966 81.7599 65.1515 75.3524C67.9619 68.945 71.5388 62.5375 75.8822 56.8989C93.2558 34.0882 122.893 21.7858 150.742 25.8866C178.59 29.7311 203.118 49.7225 212.06 75.6087C208.994 69.4576 205.928 63.5627 201.329 58.4367C199.285 55.6174 196.73 53.3107 194.687 51.004C192.132 48.9536 189.832 46.3906 187.022 44.5965C176.291 36.6512 163.261 31.7815 150.231 30.5C123.915 27.6807 97.0882 40.2394 81.7586 61.256C74.0938 71.7642 69.2394 84.3229 67.4509 97.1379C65.6625 109.953 67.7064 123.28 72.3053 135.07C77.1597 147.116 84.8245 157.881 94.7887 166.082C104.753 174.284 116.506 180.179 129.025 182.998C141.544 185.561 154.83 185.305 167.093 181.717C179.357 178.129 190.854 171.465 200.307 162.751C219.214 145.322 229.178 118.154 226.112 92.0119C224.579 78.9406 219.98 66.382 212.827 55.3611C205.673 44.3402 195.964 34.8571 184.467 27.937C161.983 13.5843 132.857 11.0213 107.308 20.248Z" fill="#42BA85"/>
<path d="M242.974 107.9C240.675 101.492 236.076 94.8287 229.944 88.1649C229.433 87.396 228.667 86.8834 227.9 86.1145C228.411 88.9338 228.922 91.7531 229.433 94.5724C232.755 98.6732 235.31 102.774 237.353 106.618C240.675 113.539 241.697 119.69 240.419 125.072C239.908 127.891 238.375 130.454 236.332 132.761C234.288 135.068 231.222 137.118 227.389 138.912C223.301 140.706 218.702 141.731 213.593 142.5C207.716 143.269 201.584 143.269 195.453 142.757C182.422 141.732 167.348 138.143 152.019 132.505C123.148 121.996 96.8323 105.337 81.7582 87.9086C74.8599 80.2196 70.5165 72.5306 68.9835 65.8668C68.217 62.7912 68.217 59.7156 68.728 57.1526C69.239 54.5897 70.261 52.283 71.7939 49.9763C74.8599 46.1318 79.7142 42.7999 86.1016 41.0058C90.7004 39.468 96.0658 38.6991 102.453 38.4428C104.242 37.4176 106.03 36.3924 107.818 35.3672C107.052 35.3672 106.286 35.3672 105.519 35.3672C88.401 35.6235 75.3708 40.2369 68.728 48.1822C66.6841 50.4889 65.4066 53.0519 64.3846 55.8711C63.3627 58.6904 63.1072 62.0223 63.3627 65.3542C64.1291 72.7869 67.9615 81.2448 74.3489 89.4464C81.7582 98.9295 92.7444 108.156 105.519 116.358C106.541 117.127 107.818 117.639 108.84 118.408C109.351 118.665 110.118 119.177 110.629 119.433C111.906 120.202 112.928 120.715 114.206 121.484C114.717 121.74 115.483 122.253 115.994 122.509C117.272 123.278 118.294 123.791 119.571 124.303C120.338 124.559 120.849 125.072 121.615 125.328C122.893 125.841 124.17 126.61 125.447 127.122L127.491 128.148C134.901 131.736 142.821 134.811 151.252 137.374C166.837 142.244 182.422 145.063 196.219 145.576C197.241 145.576 198.263 145.576 199.54 145.576C205.161 145.576 210.016 145.32 214.359 144.551C219.724 143.782 224.579 142.5 228.411 140.706C232.244 139.169 235.565 137.118 238.12 134.555C240.419 132.505 242.208 129.685 243.741 126.61C245.785 121.228 245.529 114.82 242.974 107.9Z" fill="#42BA85"/>
<path d="M263.923 117.385C261.113 109.696 256.003 101.75 248.594 93.805C242.717 87.1412 235.564 80.7337 227.643 74.5825C227.899 75.6077 228.154 76.3766 228.41 77.4018C231.22 79.7085 233.775 81.7589 236.075 84.0656C240.163 87.6538 243.484 91.242 246.294 94.5739C252.682 102.007 257.025 109.696 258.814 116.616C259.835 120.204 260.091 123.792 259.835 127.124C259.835 127.38 259.835 127.637 259.835 128.149C259.835 128.662 259.58 129.174 259.58 129.687C259.58 129.943 259.324 130.2 259.324 130.712C259.069 131.225 259.069 131.737 258.814 132.25C258.814 132.506 258.558 132.763 258.558 133.275C258.303 133.788 258.303 134.3 258.047 134.813C257.792 135.069 257.792 135.326 257.536 135.582C257.281 136.094 257.025 136.607 256.77 137.12C252.937 143.527 245.528 148.397 235.053 151.216C223.3 154.548 207.97 155.061 190.852 152.754C181.91 151.472 172.457 149.678 162.748 146.859C153.039 144.04 143.075 140.708 133.622 136.607C114.715 128.662 97.5973 118.41 83.5452 107.389C71.0261 97.6495 61.5728 86.8849 55.952 76.6329C51.3531 67.9188 49.5646 59.7172 51.0976 52.5408C52.3751 46.3896 56.2075 41.5199 62.3393 37.4191C67.7046 33.8309 74.8584 31.5242 83.2897 30.2427C87.8886 29.4738 92.9985 29.2175 98.3638 29.2175C101.941 29.2175 105.773 29.4738 109.606 29.7301C111.394 29.9864 113.438 29.9864 115.226 30.2427C117.27 29.4738 119.314 28.7049 121.358 27.936C116.759 27.1671 112.16 26.6545 107.562 26.1419C97.0864 25.373 87.6331 25.373 79.7128 26.6545C70.5151 27.936 63.1058 30.7553 57.2294 34.3435C50.5866 38.4443 46.4987 44.3392 45.2213 51.003C43.6883 58.4357 45.7322 67.4062 51.3531 77.1455C57.4849 87.3975 67.7046 98.6747 81.2458 109.183C95.8089 120.46 113.693 130.968 132.855 139.17C142.82 143.527 152.784 147.115 162.748 150.191C172.712 153.266 182.677 155.573 192.385 157.111C201.328 158.649 209.759 159.161 217.679 159.161C226.11 159.161 233.775 158.392 240.418 156.598C252.171 153.523 260.346 147.884 264.179 140.452C267.5 134.557 267.5 126.355 263.923 117.385Z" fill="#42BA85"/>
<path d="M124.936 161.212C91.211 147.885 59.7854 128.662 38.5795 108.158C34.2361 104.058 30.4037 99.7004 26.0603 94.3181C22.7389 89.9611 19.673 85.604 17.3735 81.5032C13.0301 73.3016 10.7307 66.1252 10.7307 59.7177C10.7307 58.6925 10.7307 57.6673 10.7307 56.6421C10.7307 56.1295 10.7307 55.6169 10.7307 55.3606L10.9862 54.5917C11.2417 53.5665 11.4972 52.285 11.7527 51.2598C12.0082 50.2346 12.5192 49.4657 12.7747 48.4405C13.0301 48.1842 13.0301 47.9279 13.0301 47.6716L13.2856 46.9027C13.7966 45.8775 14.3076 45.1086 15.0741 44.0834C16.6071 42.033 18.3955 39.9826 20.4394 38.4448C22.7389 36.6507 25.0383 35.113 27.5933 33.8315C37.0465 28.9618 50.3321 26.3988 65.9172 26.6551C73.071 26.6551 80.7358 27.424 88.4006 28.4492C96.0654 29.4744 103.986 31.2685 111.906 33.3189C113.439 32.55 114.972 32.0374 116.505 31.5248C114.972 31.0122 113.439 30.4996 111.906 30.2433C103.219 27.9366 94.7879 26.1425 86.8677 24.861C78.4364 23.5795 70.2606 22.8106 62.5958 22.5543C45.9888 22.0417 31.4257 24.3484 20.6949 29.4744C7.4093 35.6256 0 45.8775 0 58.4362C0 74.3268 10.7307 93.2929 30.1482 111.747C41.9009 122.767 55.442 133.019 70.7716 142.246C79.7138 147.628 88.1451 151.986 96.3209 155.83C106.285 160.443 115.227 164.288 123.914 167.364C152.018 177.616 179.867 182.741 202.862 182.485C210.015 182.485 216.914 181.716 223.045 180.435L222.79 178.897C194.941 181.716 160.194 175.309 124.936 161.212Z" fill="#42BA85"/>
<path d="M266.991 147.627C264.692 137.888 260.093 126.867 253.195 115.59C247.318 105.85 239.398 95.5984 230.456 85.6027C229.178 84.3212 227.901 83.0397 226.623 81.5019C226.879 82.5271 227.134 83.5523 227.39 84.5775C227.901 85.0901 228.667 85.859 229.178 86.3716C237.865 96.111 245.785 106.363 251.406 115.846C257.794 126.611 262.392 137.375 264.181 146.858C266.48 157.623 265.458 167.106 261.37 174.282C256.772 182.74 247.829 188.123 235.566 190.173C221.514 192.48 203.374 190.173 183.701 183.765C161.984 176.845 138.989 165.056 117.528 149.678C96.0664 134.556 76.9044 117.128 62.3413 98.9303C49.3112 82.5271 40.3689 66.3803 36.5365 52.0275C33.2151 39.7251 33.7261 29.2168 38.0695 21.2716C41.6464 14.6078 48.0337 9.48178 56.465 6.66248C62.0858 4.86839 68.4731 3.84319 75.6269 3.84319C77.9264 3.84319 80.2258 3.84319 82.7808 4.09949C91.723 4.86839 101.687 6.66248 112.162 9.99438C116.761 11.5322 121.616 13.07 126.47 15.1204C127.492 14.8641 128.259 14.6078 129.536 14.6078C130.302 14.6078 130.813 14.6078 131.58 14.8641C124.937 12.0448 118.039 9.48178 111.651 7.17508C100.665 3.58689 90.1901 1.28019 80.7368 0.511294C69.7506 -0.513904 59.7864 -0.00130521 51.8661 2.30539C42.1573 5.12469 34.4926 10.2507 30.1492 17.4271C24.7838 26.1412 28.3607 37.4184 26.5723 51.0023C25.2948 61.5106 36.5365 81.2457 53.91 102.262C69.7506 121.485 89.9346 140.707 113.951 157.11C136.945 173.001 161.473 185.303 184.978 192.223C198.775 196.324 211.549 198.375 223.046 198.375C228.923 198.375 234.288 197.862 239.143 196.58C251.662 193.761 260.859 187.097 265.203 177.614C269.035 169.925 269.546 159.417 266.991 147.627Z" fill="#42BA85"/>
<path d="M300.972 141.222C298.417 131.226 289.985 120.718 277.977 110.722C275.167 108.416 271.845 105.853 268.524 103.546C265.202 101.239 261.881 98.9327 258.049 96.8823C254.472 94.8319 250.639 92.5252 246.807 90.4748C242.975 88.4244 238.887 86.6303 234.543 84.5799C231.988 83.2984 229.178 82.2732 226.368 81.248C226.623 81.7606 226.623 82.5295 226.879 83.0421C228.922 83.811 230.966 84.5799 233.01 85.3488C237.098 87.1429 241.186 88.937 245.019 90.9874C248.851 93.0378 252.683 94.8319 256.516 97.1386C260.093 99.189 263.67 101.496 267.246 103.546C270.568 105.853 273.889 108.159 276.7 110.466C279.51 112.773 282.321 115.336 284.875 117.643C287.175 120.206 289.474 122.512 291.263 125.075C293.051 127.638 294.584 130.201 295.606 132.508C296.628 135.071 297.395 137.378 297.906 139.941C299.439 150.193 293.818 158.907 281.554 164.545C268.268 170.697 247.573 173.26 223.046 171.209C197.752 169.159 169.648 162.495 144.354 152.243C119.571 142.247 99.132 129.689 86.1018 116.874H85.5908C90.9562 123.281 98.621 129.945 108.074 136.352C117.783 142.76 129.28 149.167 142.31 154.55C168.626 165.827 198.774 173.516 225.857 175.823C239.142 176.848 251.406 176.848 261.881 175.31C266.991 174.541 271.59 173.516 275.933 172.234C280.021 170.953 283.853 169.415 287.175 167.877C299.439 161.726 303.782 151.987 300.972 141.222Z" fill="#42BA85"/>
<path d="M184.721 27.9354C195.963 34.8555 205.672 44.3386 213.081 55.3595C220.235 66.3804 224.833 79.1954 226.366 92.0103C227.644 102.262 226.877 112.514 224.323 122.254C227.133 122.766 229.688 124.304 231.221 126.867C234.287 115.077 235.309 102.775 233.265 90.9851C231.221 76.8887 226.111 63.3048 217.935 52.0276C209.759 40.4941 199.284 31.011 187.02 24.0909C162.493 10.5071 132.089 9.22557 107.307 20.2465C132.856 11.0197 161.982 13.5827 184.721 27.9354Z" fill="#42BA85"/>
<path d="M75.1151 72.2726C77.1591 68.4281 79.203 64.5836 81.7579 61.2517C96.832 39.9789 123.914 27.6765 150.23 30.4958C163.26 31.7773 176.29 36.647 187.021 44.5922C189.832 46.3863 192.131 48.9493 194.686 50.9997C196.985 53.5627 199.54 55.6131 201.329 58.4324C205.672 63.5584 208.994 69.7096 212.059 75.6045C202.862 49.7182 178.59 29.7269 150.741 25.8824C122.892 21.7816 93.2551 34.084 76.1371 56.8946C73.0712 60.7391 70.5162 65.0962 68.2168 69.4533C70.7717 69.4533 73.0712 70.4785 75.1151 72.2726Z" fill="#42BA85"/>
<path d="M329.33 65.6153H367.654C368.931 65.6153 369.698 66.3842 369.698 67.6657V85.3503C369.698 86.6318 370.464 86.6318 371.231 85.3503C377.618 70.9976 389.882 63.3086 399.335 63.3086C400.612 63.3086 401.123 63.8212 401.123 65.1027V98.9342C401.123 100.985 400.868 101.754 399.335 102.01C385.794 103.035 374.296 111.749 371.231 130.715C370.464 135.841 369.953 141.48 369.953 148.144V171.98C369.953 173.261 369.187 174.03 367.909 174.03H329.585C328.308 174.03 327.541 173.261 327.541 171.98V67.6657C327.286 66.6405 328.052 65.6153 329.33 65.6153Z" fill="white"/>
<path d="M469.851 176.335C421.052 176.335 407 155.319 407 119.437C407 84.5799 424.374 63.0508 464.997 63.0508C509.964 63.0508 516.607 90.7311 516.607 117.899C516.607 122.769 516.351 127.895 516.096 131.483C515.84 133.021 515.074 133.277 513.796 133.277H448.901C448.134 133.277 447.623 133.789 447.623 134.558C448.134 140.197 452.222 144.81 475.217 144.81C482.37 144.81 493.101 144.298 503.321 142.247C504.598 141.991 505.62 142.76 505.876 143.785L508.175 169.928C508.175 170.953 507.92 171.722 506.642 172.234C496.423 175.31 483.137 176.335 469.851 176.335ZM449.156 107.134H479.305C480.071 107.134 480.837 106.622 480.837 105.596C480.837 99.189 478.283 92.2689 465.252 92.2689C452.478 92.2689 447.879 99.189 447.879 105.853C447.879 106.622 448.39 107.134 449.156 107.134Z" fill="white"/>
<path d="M636.687 139.686H638.22C639.498 139.686 640.264 140.455 640.264 141.736V170.698C640.264 173.005 640.264 173.517 637.709 174.03C633.11 174.543 628.256 175.055 622.38 175.055C612.16 175.055 603.218 173.517 601.429 166.597C601.174 166.085 600.918 165.828 600.152 166.597C595.042 173.261 585.078 176.337 566.427 176.337C540.877 176.337 526.059 169.673 526.059 141.224C526.059 116.106 540.877 108.93 568.981 108.93C578.69 108.93 587.121 109.955 588.91 110.468C589.676 110.724 590.187 110.468 590.187 109.699V107.905C590.187 99.7031 584.567 96.3712 566.937 96.3712C561.572 96.3712 554.929 96.6275 547.009 97.3964C545.987 97.6527 544.71 96.8838 544.71 95.8586V67.6657C544.71 66.1279 545.476 65.1027 546.498 65.1027C554.929 63.5649 566.427 63.3086 573.58 63.3086C607.816 63.3086 630.3 70.9976 630.3 101.754V135.072C630.811 139.43 631.322 139.686 636.687 139.686ZM592.487 140.198C592.487 133.791 589.421 132.253 576.391 132.253C565.66 132.253 561.572 133.791 561.572 140.967C561.572 147.375 565.405 149.169 575.113 149.169C589.165 149.169 592.487 146.606 592.487 140.198Z" fill="white"/>
<path d="M705.16 176.335C664.025 176.335 646.907 158.907 646.907 119.693C646.907 80.2228 664.025 63.0508 705.16 63.0508C711.802 63.0508 722.022 63.8197 728.665 65.6138C730.198 66.1264 730.709 66.639 730.453 68.1768L726.877 96.3697C726.621 97.9075 725.599 98.1638 724.577 97.9075C718.445 96.626 713.846 96.3697 710.269 96.3697C697.495 96.3697 688.297 99.9579 688.297 119.693C688.297 139.428 698.517 143.016 709.758 143.016C714.868 143.016 718.956 142.504 725.344 140.71C726.876 140.197 727.898 140.966 727.898 142.247L731.986 170.184C732.242 171.722 731.731 172.491 730.709 172.747C726.366 175.054 713.846 176.335 705.16 176.335Z" fill="white"/>
<path d="M803.014 140.967H811.701C812.979 140.967 813.745 141.736 813.745 143.017V171.21C813.745 172.492 812.979 173.261 811.957 173.517C807.358 174.542 799.948 175.055 791.006 175.055C761.88 175.055 751.405 164.546 751.405 144.042V101.753C751.405 100.984 750.894 100.472 750.127 100.472H740.163C738.886 100.472 738.119 99.7027 738.119 98.4212V67.6652C738.119 66.3837 738.886 65.6148 740.163 65.6148H750.127C750.894 65.6148 751.405 65.1022 751.405 64.3333V39.4723C751.405 38.1908 752.171 37.4219 753.449 37.4219H791.262C792.539 37.4219 793.306 38.1908 793.306 39.4723V64.3333C793.306 65.1022 793.817 65.6148 794.583 65.6148H811.957C813.234 65.6148 814.001 66.3837 814.001 67.6652V98.4212C814.001 99.7027 813.234 100.472 811.957 100.472H794.583C793.817 100.472 793.306 100.984 793.306 101.753V128.921C793.05 138.404 795.35 140.967 803.014 140.967Z" fill="white"/>
<path d="M874.807 67.6659V171.724C874.807 173.005 874.04 173.774 872.763 173.774H834.184C832.906 173.774 832.14 173.005 832.14 171.724V101.754C832.14 100.985 831.629 100.472 830.862 100.472H821.92C820.643 100.472 819.876 99.7034 819.876 98.4219V67.6659C819.876 66.3844 820.643 65.6155 821.92 65.6155H872.763C874.04 65.6155 874.807 66.6407 874.807 67.6659ZM877.617 31.784C877.617 46.1368 867.653 55.8762 853.346 55.8762C839.038 55.8762 828.563 46.1368 828.563 31.784C828.563 17.4312 839.038 7.43555 853.346 7.43555C867.653 7.43555 877.617 17.4312 877.617 31.784Z" fill="white"/>
<path d="M920.797 171.98C908.789 139.429 889.882 81.7621 886.561 69.4597C886.305 68.6908 886.05 67.9219 886.05 67.153C886.05 66.6404 886.561 65.6152 887.583 65.6152H927.44C928.717 65.6152 929.484 65.8715 929.995 67.4093C935.615 91.5015 941.747 115.594 946.346 132.509C946.602 133.278 947.113 133.535 947.879 133.535C948.646 133.535 948.901 133.022 949.157 132.509C953.755 115.594 959.376 91.5015 964.742 67.6656C965.253 66.1278 965.764 65.6152 967.297 65.6152H1006.39C1007.66 65.6152 1008.18 66.1278 1008.18 67.153C1008.18 67.6656 1007.92 68.4345 1007.66 68.9471C1004.09 81.5058 984.67 139.173 972.917 171.98C972.406 173.517 971.384 174.03 969.596 174.03H923.863C922.33 174.03 921.308 173.261 920.797 171.98Z" fill="white"/>
<path d="M1074.86 176.335C1026.06 176.335 1012.01 155.319 1012.01 119.437C1012.01 84.5799 1029.38 63.0508 1070 63.0508C1114.97 63.0508 1121.61 90.7311 1121.61 117.899C1121.61 122.769 1121.36 127.895 1121.1 131.483C1120.85 133.021 1120.08 133.277 1118.8 133.277H1053.91C1053.14 133.277 1052.63 133.789 1052.63 134.558C1053.14 140.197 1057.23 144.81 1080.22 144.81C1087.38 144.81 1098.11 144.298 1108.33 142.247C1109.61 141.991 1110.63 142.76 1110.88 143.785L1113.18 169.928C1113.18 170.953 1112.93 171.722 1111.65 172.234C1101.43 175.31 1088.14 176.335 1074.86 176.335ZM1054.16 107.134H1084.31C1085.08 107.134 1085.84 106.622 1085.84 105.596C1085.84 99.189 1083.29 92.2689 1070.26 92.2689C1057.48 92.2689 1052.89 99.189 1052.89 105.853C1052.89 106.622 1053.4 107.134 1054.16 107.134Z" fill="white"/>
<path d="M1192.38 176.335C1158.15 176.335 1139.75 160.445 1139.75 119.949C1139.75 80.9917 1157.89 63.0508 1192.38 63.0508C1199.28 63.0508 1207.2 64.076 1211.8 65.6138C1213.08 66.1264 1213.33 66.639 1213.33 67.6642L1212.06 73.8154C1211.8 74.5843 1211.04 75.0969 1210.01 74.8406C1205.41 73.3028 1199.28 72.5339 1192.64 72.5339C1163 72.5339 1150.99 88.4244 1150.99 119.693C1150.99 151.218 1162.75 166.339 1193.15 166.339C1200.05 166.339 1205.93 165.314 1211.04 163.776C1211.8 163.52 1212.82 163.776 1213.08 164.802L1214.36 170.697C1214.61 171.722 1214.36 172.491 1213.08 173.003C1206.95 175.566 1199.54 176.335 1192.38 176.335Z" fill="#42BA85"/>
<path d="M1317.83 119.949C1317.83 157.113 1303.78 176.335 1269.03 176.335C1234.29 176.335 1220.24 156.856 1220.24 119.949C1220.24 83.2984 1234.54 63.0508 1269.03 63.0508C1304.55 63.3071 1317.83 83.811 1317.83 119.949ZM1306.85 119.949C1306.85 89.1933 1297.65 72.7902 1269.03 72.7902C1240.93 72.7902 1230.97 89.7059 1230.97 119.949C1230.97 151.474 1241.7 166.596 1269.03 166.596C1296.88 166.852 1306.85 151.218 1306.85 119.949Z" fill="#42BA85"/>
<path d="M1338.78 65.6138H1345.42C1346.7 65.6138 1347.47 66.3827 1347.47 67.6642V83.811C1347.47 85.0925 1347.98 85.3488 1348.75 84.0673C1355.9 70.7398 1368.67 63.0508 1386.56 63.0508C1414.41 63.0508 1423.35 77.1473 1423.35 103.802V171.722C1423.35 173.003 1422.58 173.772 1421.31 173.772H1414.66C1413.39 173.772 1412.62 173.003 1412.62 171.722V108.672C1412.62 85.0925 1407.77 72.7902 1384.26 72.7902C1366.89 72.7902 1354.62 82.0169 1349.77 99.4453C1347.72 106.109 1347.72 113.285 1347.72 120.462V171.978C1347.72 173.26 1346.96 174.028 1345.68 174.028H1338.78C1337.5 174.028 1336.74 173.26 1336.74 171.978V67.6642C1336.74 66.639 1337.5 65.6138 1338.78 65.6138Z" fill="#42BA85"/>
<path d="M1455.54 174.03C1454.27 174.03 1453.5 173.261 1453.5 171.979V76.3794C1453.5 75.8668 1452.99 75.0979 1452.22 75.0979H1434.34C1433.06 75.0979 1432.29 74.329 1432.29 73.0475V67.6652C1432.29 66.3837 1433.06 65.6148 1434.34 65.6148H1452.22C1452.99 65.6148 1453.5 65.1022 1453.5 64.3333V56.9006C1453.5 29.7329 1465.51 19.2246 1485.95 19.2246C1491.06 19.2246 1495.15 19.7372 1498.72 20.7624C1500 21.275 1500.26 21.7876 1500.26 23.0691V28.1951C1500.26 29.4766 1499.49 29.9892 1498.47 29.7329C1495.66 29.2203 1491.82 28.7077 1486.97 28.7077C1471.13 28.7077 1464.23 37.6782 1464.23 57.4132V64.3333C1464.23 65.1022 1464.74 65.6148 1465.51 65.6148H1487.22C1488.5 65.6148 1489.27 66.3837 1489.27 67.6652V73.0475C1489.27 74.329 1488.5 75.0979 1487.22 75.0979H1465.51C1464.74 75.0979 1464.23 75.6105 1464.23 76.3794V171.979C1464.23 173.261 1463.46 174.03 1462.19 174.03H1455.54V174.03Z" fill="#42BA85"/>
</g>
<defs>
<clipPath id="clip0">
<path d="M0 0H1500V198.632H0V0Z" fill="white"/>
</clipPath>
</defs>
</svg>
