<svg width="83" height="35" viewBox="0 0 83 35" fill="none" xmlns="http://www.w3.org/2000/svg">
<path d="M9.07345 15.7907L14.4564 1.07828H10.5779L7.31047 10.5911L4.04309 1.07828H0L5.38295 15.7907H9.07345Z" fill="white"></path>
<path d="M9.07345 15.7907L14.4564 1.07828H10.5779L7.31047 10.5911L4.04309 1.07828H0L5.38295 15.7907H9.07345Z" fill="url(#paint0_linear)"></path>
<path d="M25.0267 5.00799H21.3362V11.5495C21.1482 12.2923 20.5135 12.7476 19.8318 12.7476C18.8916 12.7476 18.4685 12.1006 18.4685 11.1901V5.00799H14.8015V12.0767C14.8015 14.4728 16.1883 16.0304 18.5155 16.0304C19.7143 16.0304 20.7721 15.5272 21.3362 14.8562V15.7907H25.0267V5.00799Z" fill="white"></path>
<path d="M25.0267 5.00799H21.3362V11.5495C21.1482 12.2923 20.5135 12.7476 19.8318 12.7476C18.8916 12.7476 18.4685 12.1006 18.4685 11.1901V5.00799H14.8015V12.0767C14.8015 14.4728 16.1883 16.0304 18.5155 16.0304C19.7143 16.0304 20.7721 15.5272 21.3362 14.8562V15.7907H25.0267V5.00799Z" fill="url(#paint1_linear)"></path>
<path d="M33.3621 12.0288C33.1506 12.7716 32.5629 13.107 31.8107 13.107C30.7529 13.107 30.0947 12.4121 29.9772 11.1182H36.8176V10.1837C36.8176 6.97284 34.9841 4.76837 31.7402 4.76837C28.6844 4.76837 26.4277 7.06869 26.4277 10.3994C26.4277 13.754 28.5668 16.0304 31.8107 16.0304C34.5609 16.0304 36.3944 14.5208 36.7705 12.0288H33.3621ZM31.7402 7.69169C32.6569 7.69169 33.1976 8.36262 33.2446 9.2492H30.0477C30.2828 8.24281 30.8704 7.69169 31.7402 7.69169Z" fill="white"></path>
<path d="M33.3621 12.0288C33.1506 12.7716 32.5629 13.107 31.8107 13.107C30.7529 13.107 30.0947 12.4121 29.9772 11.1182H36.8176V10.1837C36.8176 6.97284 34.9841 4.76837 31.7402 4.76837C28.6844 4.76837 26.4277 7.06869 26.4277 10.3994C26.4277 13.754 28.5668 16.0304 31.8107 16.0304C34.5609 16.0304 36.3944 14.5208 36.7705 12.0288H33.3621ZM31.7402 7.69169C32.6569 7.69169 33.1976 8.36262 33.2446 9.2492H30.0477C30.2828 8.24281 30.8704 7.69169 31.7402 7.69169Z" fill="url(#paint2_linear)"></path>
<path d="M37.747 8.43451C37.747 12.8914 40.6383 16.0304 44.6813 16.0304C48.2778 16.0304 50.3934 13.8498 50.9105 10.8307H47.1495C46.7734 11.9329 45.9977 12.6518 44.6813 12.6518C42.6833 12.6518 41.555 10.8307 41.555 8.43451C41.555 6.01438 42.6833 4.21725 44.6813 4.21725C45.9977 4.21725 46.7734 4.9361 47.1495 6.01438H50.9105C50.3934 3.01917 48.2778 0.838659 44.6813 0.838659C40.6383 0.838659 37.747 3.97764 37.747 8.43451Z" fill="white"></path>
<path d="M37.747 8.43451C37.747 12.8914 40.6383 16.0304 44.6813 16.0304C48.2778 16.0304 50.3934 13.8498 50.9105 10.8307H47.1495C46.7734 11.9329 45.9977 12.6518 44.6813 12.6518C42.6833 12.6518 41.555 10.8307 41.555 8.43451C41.555 6.01438 42.6833 4.21725 44.6813 4.21725C45.9977 4.21725 46.7734 4.9361 47.1495 6.01438H50.9105C50.3934 3.01917 48.2778 0.838659 44.6813 0.838659C40.6383 0.838659 37.747 3.97764 37.747 8.43451Z" fill="url(#paint3_linear)"></path>
<path d="M62.6523 10.3994C62.6523 7.06869 60.4662 4.76837 57.2459 4.76837C54.049 4.76837 51.8394 7.06869 51.8394 10.3994C51.8394 13.73 54.049 16.0304 57.2459 16.0304C60.4662 16.0304 62.6523 13.73 62.6523 10.3994ZM59.0323 10.3994C59.0323 11.885 58.3977 12.9153 57.2459 12.9153C56.1175 12.9153 55.4829 11.885 55.4829 10.3994C55.4829 8.91374 56.1175 7.85942 57.2459 7.85942C58.3977 7.85942 59.0323 8.91374 59.0323 10.3994Z" fill="white"></path>
<path d="M62.6523 10.3994C62.6523 7.06869 60.4662 4.76837 57.2459 4.76837C54.049 4.76837 51.8394 7.06869 51.8394 10.3994C51.8394 13.73 54.049 16.0304 57.2459 16.0304C60.4662 16.0304 62.6523 13.73 62.6523 10.3994ZM59.0323 10.3994C59.0323 11.885 58.3977 12.9153 57.2459 12.9153C56.1175 12.9153 55.4829 11.885 55.4829 10.3994C55.4829 8.91374 56.1175 7.85942 57.2459 7.85942C58.3977 7.85942 59.0323 8.91374 59.0323 10.3994Z" fill="url(#paint4_linear)"></path>
<path d="M64.0878 15.7907H67.7784V9.27316C67.9664 8.53035 68.5776 8.09904 69.3063 8.09904C70.2465 8.09904 70.6931 8.74601 70.6931 9.63259V15.7907H74.3601V8.72204C74.3601 6.32588 72.9733 4.76837 70.6226 4.76837C69.4003 4.76837 68.366 5.27157 67.7784 5.94249V5.00799H64.0878V15.7907Z" fill="white"></path>
<path d="M64.0878 15.7907H67.7784V9.27316C67.9664 8.53035 68.5776 8.09904 69.3063 8.09904C70.2465 8.09904 70.6931 8.74601 70.6931 9.63259V15.7907H74.3601V8.72204C74.3601 6.32588 72.9733 4.76837 70.6226 4.76837C69.4003 4.76837 68.366 5.27157 67.7784 5.94249V5.00799H64.0878V15.7907Z" fill="url(#paint5_linear)"></path>
<path d="M83 0.287541C82.5534 0.119808 81.9892 0 81.284 0C78.6983 0 77.1704 1.62939 77.1704 4.21725V5.00799H75.5955V7.93131H77.1704V15.7907H80.8139V7.93131H82.859V5.00799H80.8139V4.43291C80.8139 3.57029 81.3075 3.13898 82.1303 3.13898C82.4594 3.13898 82.7414 3.21086 83 3.35463V0.287541Z" fill="white"></path>
<path d="M83 0.287541C82.5534 0.119808 81.9892 0 81.284 0C78.6983 0 77.1704 1.62939 77.1704 4.21725V5.00799H75.5955V7.93131H77.1704V15.7907H80.8139V7.93131H82.859V5.00799H80.8139V4.43291C80.8139 3.57029 81.3075 3.13898 82.1303 3.13898C82.4594 3.13898 82.7414 3.21086 83 3.35463V0.287541Z" fill="url(#paint6_linear)"></path>
<path d="M1.28501 23.3546H5.72771V34.7604H9.51224V23.3546H13.9784V20.0479H1.28501V23.3546Z" fill="white"></path>
<path d="M1.28501 23.3546H5.72771V34.7604H9.51224V23.3546H13.9784V20.0479H1.28501V23.3546Z" fill="url(#paint7_linear)"></path>
<path d="M24.2402 29.369C24.2402 26.0383 22.0542 23.738 18.8338 23.738C15.6369 23.738 13.4273 26.0383 13.4273 29.369C13.4273 32.6997 15.6369 35 18.8338 35C22.0542 35 24.2402 32.6997 24.2402 29.369ZM20.6203 29.369C20.6203 30.8546 19.9856 31.885 18.8338 31.885C17.7055 31.885 17.0708 30.8546 17.0708 29.369C17.0708 27.8834 17.7055 26.8291 18.8338 26.8291C19.9856 26.8291 20.6203 27.8834 20.6203 29.369Z" fill="white"></path>
<path d="M24.2402 29.369C24.2402 26.0383 22.0542 23.738 18.8338 23.738C15.6369 23.738 13.4273 26.0383 13.4273 29.369C13.4273 32.6997 15.6369 35 18.8338 35C22.0542 35 24.2402 32.6997 24.2402 29.369ZM20.6203 29.369C20.6203 30.8546 19.9856 31.885 18.8338 31.885C17.7055 31.885 17.0708 30.8546 17.0708 29.369C17.0708 27.8834 17.7055 26.8291 18.8338 26.8291C19.9856 26.8291 20.6203 27.8834 20.6203 29.369Z" fill="url(#paint8_linear)"></path>
<path d="M32.7747 23.9297C32.6102 23.8339 32.2341 23.738 31.7639 23.738C30.7061 23.738 29.8834 24.2173 29.3663 24.9361V23.9776H25.6758V34.7604H29.3663V28.4345C29.5543 27.6677 30.236 27.2125 31.2468 27.2125C31.8345 27.2125 32.3281 27.3083 32.7747 27.5479V23.9297Z" fill="white"></path>
<path d="M32.7747 23.9297C32.6102 23.8339 32.2341 23.738 31.7639 23.738C30.7061 23.738 29.8834 24.2173 29.3663 24.9361V23.9776H25.6758V34.7604H29.3663V28.4345C29.5543 27.6677 30.236 27.2125 31.2468 27.2125C31.8345 27.2125 32.3281 27.3083 32.7747 27.5479V23.9297Z" fill="url(#paint9_linear)"></path>
<path d="M44.3721 29.369C44.3721 26.0383 42.1861 23.738 38.9657 23.738C35.7688 23.738 33.5592 26.0383 33.5592 29.369C33.5592 32.6997 35.7688 35 38.9657 35C42.1861 35 44.3721 32.6997 44.3721 29.369ZM40.7522 29.369C40.7522 30.8546 40.1175 31.885 38.9657 31.885C37.8374 31.885 37.2027 30.8546 37.2027 29.369C37.2027 27.8834 37.8374 26.8291 38.9657 26.8291C40.1175 26.8291 40.7522 27.8834 40.7522 29.369Z" fill="white"></path>
<path d="M44.3721 29.369C44.3721 26.0383 42.1861 23.738 38.9657 23.738C35.7688 23.738 33.5592 26.0383 33.5592 29.369C33.5592 32.6997 35.7688 35 38.9657 35C42.1861 35 44.3721 32.6997 44.3721 29.369ZM40.7522 29.369C40.7522 30.8546 40.1175 31.885 38.9657 31.885C37.8374 31.885 37.2027 30.8546 37.2027 29.369C37.2027 27.8834 37.8374 26.8291 38.9657 26.8291C40.1175 26.8291 40.7522 27.8834 40.7522 29.369Z" fill="url(#paint10_linear)"></path>
<path d="M45.8077 34.7604H49.4982V28.2428C49.6862 27.5 50.2974 27.0687 51.0261 27.0687C51.9664 27.0687 52.413 27.7157 52.413 28.6022V34.7604H56.08V27.6917C56.08 25.2955 54.6931 23.738 52.3425 23.738C51.1201 23.738 50.0858 24.2412 49.4982 24.9121V23.9776H45.8077V34.7604Z" fill="white"></path>
<path d="M45.8077 34.7604H49.4982V28.2428C49.6862 27.5 50.2974 27.0687 51.0261 27.0687C51.9664 27.0687 52.413 27.7157 52.413 28.6022V34.7604H56.08V27.6917C56.08 25.2955 54.6931 23.738 52.3425 23.738C51.1201 23.738 50.0858 24.2412 49.4982 24.9121V23.9776H45.8077V34.7604Z" fill="url(#paint11_linear)"></path>
<path d="M58.7727 31.0463C58.7727 33.778 60.1831 34.976 62.6748 34.976C63.4975 34.976 64.2967 34.8323 64.7198 34.6406V31.4537C64.3907 31.5974 63.9441 31.6933 63.5445 31.6933C62.8158 31.6933 62.4162 31.3339 62.4162 30.4952V26.901H64.6258V23.9776H62.4162V21.0064H58.7727V23.9776H57.2213V26.901H58.7727V31.0463Z" fill="white"></path>
<path d="M58.7727 31.0463C58.7727 33.778 60.1831 34.976 62.6748 34.976C63.4975 34.976 64.2967 34.8323 64.7198 34.6406V31.4537C64.3907 31.5974 63.9441 31.6933 63.5445 31.6933C62.8158 31.6933 62.4162 31.3339 62.4162 30.4952V26.901H64.6258V23.9776H62.4162V21.0064H58.7727V23.9776H57.2213V26.901H58.7727V31.0463Z" fill="url(#paint12_linear)"></path>
<path d="M76.6245 29.369C76.6245 26.0383 74.4384 23.738 71.218 23.738C68.0212 23.738 65.8116 26.0383 65.8116 29.369C65.8116 32.6997 68.0212 35 71.218 35C74.4384 35 76.6245 32.6997 76.6245 29.369ZM73.0045 29.369C73.0045 30.8546 72.3699 31.885 71.218 31.885C70.0897 31.885 69.4551 30.8546 69.4551 29.369C69.4551 27.8834 70.0897 26.8291 71.218 26.8291C72.3699 26.8291 73.0045 27.8834 73.0045 29.369Z" fill="white"></path>
<path d="M76.6245 29.369C76.6245 26.0383 74.4384 23.738 71.218 23.738C68.0212 23.738 65.8116 26.0383 65.8116 29.369C65.8116 32.6997 68.0212 35 71.218 35C74.4384 35 76.6245 32.6997 76.6245 29.369ZM73.0045 29.369C73.0045 30.8546 72.3699 31.885 71.218 31.885C70.0897 31.885 69.4551 30.8546 69.4551 29.369C69.4551 27.8834 70.0897 26.8291 71.218 26.8291C72.3699 26.8291 73.0045 27.8834 73.0045 29.369Z" fill="url(#paint13_linear)"></path>
<circle cx="76.5" cy="24.5" r="3" fill="white" stroke="#273837"></circle>
<defs>
<linearGradient id="paint0_linear" x1="41.951" y1="13.7939" x2="41.951" y2="34.7604" gradientUnits="userSpaceOnUse">
<stop stop-color="#75C05E"></stop>
<stop offset="1" stop-color="#4DB879"></stop>
</linearGradient>
<linearGradient id="paint1_linear" x1="41.951" y1="13.7939" x2="41.951" y2="34.7604" gradientUnits="userSpaceOnUse">
<stop stop-color="#75C05E"></stop>
<stop offset="1" stop-color="#4DB879"></stop>
</linearGradient>
<linearGradient id="paint2_linear" x1="41.951" y1="13.7939" x2="41.951" y2="34.7604" gradientUnits="userSpaceOnUse">
<stop stop-color="#75C05E"></stop>
<stop offset="1" stop-color="#4DB879"></stop>
</linearGradient>
<linearGradient id="paint3_linear" x1="41.951" y1="13.7939" x2="41.951" y2="34.7604" gradientUnits="userSpaceOnUse">
<stop stop-color="#75C05E"></stop>
<stop offset="1" stop-color="#4DB879"></stop>
</linearGradient>
<linearGradient id="paint4_linear" x1="41.951" y1="13.7939" x2="41.951" y2="34.7604" gradientUnits="userSpaceOnUse">
<stop stop-color="#75C05E"></stop>
<stop offset="1" stop-color="#4DB879"></stop>
</linearGradient>
<linearGradient id="paint5_linear" x1="41.951" y1="13.7939" x2="41.951" y2="34.7604" gradientUnits="userSpaceOnUse">
<stop stop-color="#75C05E"></stop>
<stop offset="1" stop-color="#4DB879"></stop>
</linearGradient>
<linearGradient id="paint6_linear" x1="41.951" y1="13.7939" x2="41.951" y2="34.7604" gradientUnits="userSpaceOnUse">
<stop stop-color="#75C05E"></stop>
<stop offset="1" stop-color="#4DB879"></stop>
</linearGradient>
<linearGradient id="paint7_linear" x1="41.951" y1="13.7939" x2="41.951" y2="34.7604" gradientUnits="userSpaceOnUse">
<stop stop-color="#75C05E"></stop>
<stop offset="1" stop-color="#4DB879"></stop>
</linearGradient>
<linearGradient id="paint8_linear" x1="41.951" y1="13.7939" x2="41.951" y2="34.7604" gradientUnits="userSpaceOnUse">
<stop stop-color="#75C05E"></stop>
<stop offset="1" stop-color="#4DB879"></stop>
</linearGradient>
<linearGradient id="paint9_linear" x1="41.951" y1="13.7939" x2="41.951" y2="34.7604" gradientUnits="userSpaceOnUse">
<stop stop-color="#75C05E"></stop>
<stop offset="1" stop-color="#4DB879"></stop>
</linearGradient>
<linearGradient id="paint10_linear" x1="41.951" y1="13.7939" x2="41.951" y2="34.7604" gradientUnits="userSpaceOnUse">
<stop stop-color="#75C05E"></stop>
<stop offset="1" stop-color="#4DB879"></stop>
</linearGradient>
<linearGradient id="paint11_linear" x1="41.951" y1="13.7939" x2="41.951" y2="34.7604" gradientUnits="userSpaceOnUse">
<stop stop-color="#75C05E"></stop>
<stop offset="1" stop-color="#4DB879"></stop>
</linearGradient>
<linearGradient id="paint12_linear" x1="41.951" y1="13.7939" x2="41.951" y2="34.7604" gradientUnits="userSpaceOnUse">
<stop stop-color="#75C05E"></stop>
<stop offset="1" stop-color="#4DB879"></stop>
</linearGradient>
<linearGradient id="paint13_linear" x1="41.951" y1="13.7939" x2="41.951" y2="34.7604" gradientUnits="userSpaceOnUse">
<stop stop-color="#75C05E"></stop>
<stop offset="1" stop-color="#4DB879">
</stop>
</linearGradient>
</defs>
</svg>
