<svg width="268" height="131" viewBox="0 0 268 131" fill="none" xmlns="http://www.w3.org/2000/svg">
  <g clip-path="url(#clip0_141_69)">
    <path
      d="M234.312 121.863C234.308 121.562 234.368 121.264 234.489 120.988C234.601 120.722 234.764 120.48 234.968 120.275C235.166 120.074 235.403 119.915 235.665 119.81C236.058 119.648 236.491 119.607 236.908 119.689C237.325 119.772 237.709 119.976 238.012 120.275C238.334 120.579 238.558 120.973 238.655 121.406C238.751 121.839 238.715 122.292 238.552 122.704C238.389 123.117 238.106 123.47 237.74 123.72C237.373 123.969 236.941 124.103 236.498 124.103C235.934 124.107 235.391 123.892 234.983 123.501C234.759 123.294 234.583 123.039 234.467 122.756C234.351 122.473 234.298 122.168 234.312 121.863ZM249.455 104.276H253.084V123.805H250.495L250.111 122.379H249.975C249.6 122.879 249.119 123.29 248.566 123.582C247.828 123.954 247.005 124.129 246.179 124.088C245.391 124.093 244.611 123.935 243.887 123.622C243.179 123.316 242.545 122.859 242.03 122.283C241.477 121.662 241.055 120.936 240.788 120.149C240.473 119.225 240.321 118.253 240.339 117.277C240.327 116.322 240.465 115.372 240.748 114.46C240.992 113.674 241.39 112.945 241.919 112.316C242.434 111.721 243.08 111.254 243.807 110.951C244.617 110.607 245.49 110.435 246.371 110.445C246.969 110.442 247.563 110.534 248.132 110.718C248.617 110.862 249.068 111.105 249.455 111.431V104.276ZM249.455 114.177C249.199 113.87 248.883 113.618 248.526 113.439C248.139 113.235 247.707 113.131 247.269 113.135C246.845 113.134 246.425 113.21 246.028 113.358C245.633 113.507 245.279 113.746 244.993 114.056C244.667 114.418 244.421 114.845 244.271 115.31C244.071 115.923 243.977 116.566 243.993 117.211C243.982 117.85 244.066 118.487 244.241 119.102C244.379 119.575 244.601 120.018 244.897 120.412C245.151 120.744 245.484 121.008 245.866 121.18C246.24 121.342 246.644 121.425 247.052 121.423C247.589 121.445 248.119 121.296 248.566 120.998C248.951 120.743 249.265 120.395 249.48 119.987L249.455 114.177ZM268.02 118.222H259.343V118.323C259.313 118.772 259.397 119.222 259.589 119.629C259.781 120.036 260.073 120.387 260.439 120.649C261.274 121.19 262.257 121.457 263.25 121.413C263.898 121.423 264.544 121.35 265.173 121.195C265.691 121.067 266.197 120.898 266.688 120.69L267.344 123.218C266.749 123.492 266.126 123.699 265.486 123.835C264.617 124.019 263.73 124.106 262.841 124.093C261.903 124.099 260.969 123.966 260.07 123.698C259.239 123.453 258.467 123.038 257.804 122.48C257.141 121.911 256.613 121.201 256.259 120.401C255.855 119.451 255.661 118.425 255.689 117.393C255.676 116.429 255.831 115.471 256.148 114.561C256.436 113.753 256.888 113.012 257.476 112.387C258.057 111.779 258.758 111.301 259.535 110.981C260.384 110.634 261.294 110.462 262.21 110.475C262.987 110.438 263.763 110.561 264.489 110.839C265.215 111.117 265.876 111.542 266.43 112.089C267.473 113.167 267.997 114.671 268 116.599L268.02 118.222ZM264.305 115.734C264.306 115.394 264.265 115.054 264.184 114.723C264.11 114.412 263.975 114.12 263.785 113.863C263.6 113.613 263.36 113.409 263.084 113.267C262.769 113.114 262.423 113.04 262.074 113.049C261.739 113.04 261.405 113.1 261.095 113.227C260.785 113.354 260.504 113.545 260.272 113.788C259.782 114.346 259.492 115.052 259.449 115.795L264.305 115.734ZM59.2644 50.5149H73.0395L66.1696 62.4433L59.2644 50.5149ZM50.6127 87.0738L57.4372 75.1909H43.753L50.6127 87.0738ZM58.1237 75.2212C55.7765 79.317 53.5808 83.1145 51.2841 87.1294H64.9885L58.1237 75.2212ZM50.9156 87.6452L57.74 99.4623C60.1074 95.3362 62.2829 91.5893 64.5291 87.6452H50.9156ZM50.8147 62.8681L44.0054 74.7004H57.6593C55.3575 70.7158 53.177 66.9437 50.8147 62.8681ZM29.4076 49.9486H43.011L36.2269 38.1466C33.8646 42.2323 31.6386 46.0803 29.4076 49.9486ZM66.2201 38.1466L59.4159 49.9486H73.0445L66.2201 38.1466ZM36.8932 62.3574H50.5219L43.7025 50.5149L36.8932 62.3574ZM50.5219 38.0859H36.8932C39.2151 42.0958 41.3907 45.8781 43.7277 49.9486L50.5219 38.0859ZM51.8999 38.1213L58.7092 49.9284L65.5033 38.1213H51.8999ZM44.4193 49.9486H57.9874L51.2084 38.1668L44.4193 49.9486ZM36.1866 62.3321L42.9706 50.5149H29.3823L36.1866 62.3321ZM50.0676 63.0046H36.5298C38.8164 66.9689 40.9717 70.7158 43.2987 74.7459L50.0676 63.0046ZM150.42 62.6203C142.985 62.6203 136.963 68.314 136.963 75.3426C136.963 82.3712 142.985 88.0598 150.42 88.0598C157.855 88.0598 163.872 82.3661 163.872 75.3426C163.872 68.319 157.87 62.6203 150.42 62.6203Z"
      fill="white" />
    <path
      d="M180.201 110.763H184.053L179.439 123.809H175.234L170.757 110.763H174.634L176.547 117.271L177.334 121.21H177.445L178.238 117.271L180.201 110.763ZM194.335 110.763H197.964V123.809H195.263L194.88 122.333H194.769C194.55 122.551 194.317 122.756 194.072 122.945C193.786 123.172 193.474 123.366 193.143 123.521C192.76 123.704 192.359 123.846 191.947 123.946C191.459 124.057 190.959 124.112 190.458 124.108C189.855 124.143 189.251 124.057 188.682 123.856C188.113 123.654 187.589 123.341 187.142 122.935C186.327 122.149 185.922 120.991 185.925 119.461V110.763H189.555V119.157C189.526 119.464 189.561 119.773 189.657 120.066C189.754 120.358 189.909 120.627 190.115 120.856C190.509 121.206 191.023 121.387 191.548 121.362C192.135 121.379 192.716 121.238 193.229 120.952C193.658 120.711 194.033 120.386 194.335 119.997V110.763ZM212.844 118.227H204.172V118.323C204.142 118.772 204.227 119.22 204.417 119.627C204.608 120.034 204.899 120.386 205.263 120.649C206.1 121.19 207.084 121.456 208.079 121.413C208.727 121.423 209.373 121.35 210.003 121.195C210.52 121.067 211.026 120.898 211.517 120.689L212.173 123.218C211.578 123.491 210.955 123.698 210.315 123.835C209.444 124.019 208.556 124.106 207.665 124.093C206.727 124.098 205.794 123.966 204.894 123.698C204.064 123.451 203.292 123.037 202.628 122.479C201.966 121.91 201.44 121.2 201.088 120.401C200.683 119.452 200.486 118.425 200.513 117.393C200.501 116.429 200.659 115.47 200.977 114.561C201.266 113.752 201.718 113.012 202.305 112.387C202.886 111.779 203.587 111.3 204.364 110.981C205.213 110.634 206.123 110.462 207.04 110.475C207.816 110.437 208.592 110.561 209.318 110.839C210.045 111.116 210.706 111.542 211.259 112.088C212.306 113.167 212.829 114.671 212.829 116.599L212.844 118.227ZM209.129 115.739C209.13 115.398 209.089 115.059 209.008 114.728C208.932 114.418 208.797 114.126 208.609 113.868C208.426 113.617 208.188 113.411 207.913 113.266C207.599 113.114 207.252 113.04 206.903 113.049C206.568 113.039 206.235 113.1 205.924 113.227C205.614 113.354 205.334 113.545 205.101 113.787C204.602 114.338 204.303 115.042 204.253 115.785L209.129 115.739ZM215.535 110.763H219.169V121.974C219.172 122.936 219.094 123.897 218.937 124.846C218.795 125.7 218.517 126.527 218.114 127.293C217.715 128.044 217.183 128.716 216.544 129.275C215.808 129.918 214.968 130.431 214.061 130.792L212.506 128.295C212.985 128.053 213.441 127.769 213.869 127.445C214.257 127.145 214.578 126.768 214.813 126.338C215.086 125.816 215.27 125.252 215.358 124.669C215.491 123.833 215.55 122.987 215.535 122.141V110.763ZM217.392 107.972C217.126 107.991 216.858 107.953 216.607 107.862C216.355 107.77 216.126 107.627 215.934 107.441C215.766 107.264 215.635 107.055 215.549 106.827C215.462 106.599 215.421 106.355 215.429 106.111C215.421 105.868 215.461 105.626 215.548 105.398C215.635 105.171 215.766 104.963 215.934 104.787C216.128 104.608 216.357 104.471 216.606 104.385C216.855 104.298 217.119 104.262 217.382 104.281C217.641 104.263 217.9 104.299 218.144 104.386C218.388 104.473 218.611 104.609 218.801 104.787C219.135 105.148 219.32 105.622 219.32 106.114C219.32 106.606 219.135 107.08 218.801 107.441C218.617 107.619 218.399 107.758 218.161 107.849C217.922 107.941 217.668 107.982 217.412 107.972H217.392ZM230.678 113.883C229.711 113.398 228.649 113.135 227.568 113.115C227.098 113.087 226.629 113.193 226.216 113.418C226.069 113.498 225.947 113.617 225.862 113.761C225.778 113.905 225.734 114.07 225.736 114.237C225.733 114.402 225.77 114.565 225.844 114.712C225.917 114.859 226.026 114.986 226.16 115.082C226.686 115.411 227.263 115.652 227.866 115.795L228.684 116.043C229.651 116.278 230.539 116.769 231.253 117.463C231.848 118.12 232.162 118.984 232.126 119.87C232.146 120.468 232.021 121.061 231.762 121.599C231.503 122.137 231.117 122.604 230.637 122.96C229.457 123.783 228.035 124.188 226.599 124.108C225.065 124.15 223.542 123.831 222.152 123.177L222.97 120.497C223.503 120.773 224.061 120.998 224.636 121.17C225.212 121.341 225.811 121.428 226.412 121.428C226.965 121.469 227.519 121.351 228.007 121.089C228.163 120.999 228.292 120.869 228.381 120.713C228.469 120.556 228.515 120.379 228.512 120.199C228.515 120.019 228.469 119.842 228.381 119.685C228.292 119.529 228.163 119.399 228.007 119.309C227.419 119 226.796 118.766 226.15 118.611L225.302 118.363C224.385 118.108 223.555 117.608 222.899 116.917C222.317 116.121 222.053 115.135 222.159 114.153C222.266 113.172 222.735 112.266 223.475 111.613C224.363 110.865 225.61 110.49 227.215 110.49C228.661 110.464 230.096 110.752 231.42 111.335L230.678 113.883ZM58.4367 99.4621H73.933C83.2056 83.3368 92.473 67.2064 101.857 50.8889H86.3149L58.4367 99.4621ZM130.436 88.8737C129.52 89.0025 128.596 89.065 127.67 89.0608C126.1 89.0553 124.539 88.8115 123.042 88.3377C121.498 87.8512 120.082 87.0254 118.897 85.9207C117.61 84.6976 116.592 83.218 115.909 81.5771C115.082 79.5051 114.688 77.2848 114.753 75.0541C114.753 70.4864 115.909 67.0581 118.221 64.7691C120.533 62.4802 123.562 61.3374 127.307 61.3408C128.395 61.3396 129.481 61.46 130.542 61.6998C132.857 58.7078 135.837 56.2977 139.245 54.6611L139.356 54.292C137.101 53.0754 134.681 52.1963 132.173 51.6828C130.03 51.2566 127.851 51.0315 125.666 51.0103C122.147 50.9635 118.649 51.5686 115.349 52.7952C112.375 53.9195 109.656 55.6265 107.348 57.8164C105.087 59.9931 103.313 62.6268 102.144 65.5428C100.894 68.6914 100.271 72.055 100.312 75.4435C100.24 78.9995 100.897 82.5324 102.24 85.8246C103.431 88.685 105.223 91.2547 107.495 93.3588C109.78 95.4258 112.473 96.9884 115.399 97.9451C118.62 99.0004 121.99 99.523 125.379 99.4924C128.24 99.5192 131.093 99.1604 133.859 98.4255C136.433 97.7176 138.26 97.0451 139.356 96.4029L139.255 96.0338C135.793 94.3771 132.771 91.9236 130.436 88.8737ZM206.151 55.2578C203.392 52.4261 199.408 51.0103 194.198 51.0103C191.301 50.9827 188.436 51.6101 185.814 52.8458C183.216 54.0876 180.864 55.7885 178.869 57.8669L177.223 52.0823H166.118V57.4574C168.887 59.5437 171.133 62.2461 172.68 65.3513C174.227 68.4566 175.032 71.8795 175.032 75.35C175.032 78.8204 174.227 82.2433 172.68 85.3486C171.133 88.4538 168.887 91.1562 166.118 93.2425V98.4356H180.403V66.7462C181.664 65.2874 183.184 64.0752 184.885 63.1713C186.374 62.3287 188.047 61.8651 189.756 61.8212C191.809 61.8212 193.367 62.4802 194.431 63.7983C195.494 65.1163 196.024 66.903 196.021 69.1582V98.4204H210.29V67.7171C210.29 62.2459 208.907 58.0928 206.141 55.2578H206.151ZM239.652 41.9287C240.662 40.7691 242.19 40.1909 244.236 40.1943C245.434 40.1791 246.628 40.3584 247.769 40.7252C248.842 41.0843 249.888 41.5203 250.899 42.0298L253.67 32.8674C251.752 31.7556 249.694 30.9054 247.552 30.3391C245.178 29.6916 242.728 29.3685 240.268 29.3784C235.446 29.3784 231.524 30.7133 228.502 33.3831C225.48 36.053 223.966 39.9971 223.959 45.2155V52.0823H216.847V62.3167H223.979V98.4356H238.148V62.3066H249.046V52.0823H238.148V47.9207C238.148 45.084 238.648 43.0917 239.642 41.9287H239.652ZM118.161 104.165C109.496 116.035 97.0954 124.638 82.9557 128.589C68.8161 132.539 53.7607 131.607 40.2143 125.942C26.6679 120.278 15.4192 110.21 8.27983 97.3613C1.14048 84.5126 -1.47386 69.6305 0.857867 55.1121C3.1896 40.5936 10.3317 27.284 21.1337 17.3269C31.9358 7.36978 45.7691 1.3448 60.4055 0.222357C75.042 -0.900088 89.6295 2.94535 101.819 11.1393C114.008 19.3333 123.089 31.3987 127.6 45.3924C122.911 33.5579 114.475 23.592 103.586 17.0248C92.6966 10.4576 79.9569 7.65215 67.3224 9.03909C54.688 10.426 42.8571 15.9287 33.6462 24.7024C24.4353 33.476 18.3535 45.0356 16.3346 57.6065C14.3156 70.1773 16.4711 83.0645 22.4702 94.2896C28.4692 105.515 37.9801 114.457 49.5427 119.744C61.1054 125.031 74.0806 126.37 86.4763 123.555C98.872 120.741 110.003 113.929 118.161 104.165Z"
      fill="white" />
  </g>
  <defs>
    <clipPath id="clip0_141_69">
      <rect width="268" height="131" fill="white" />
    </clipPath>
  </defs>
</svg>