<svg xmlns="http://www.w3.org/2000/svg" width="342" height="333" viewBox="0 0 342 333"><g transform="translate(-35 -39)" fill="none" fill-rule="evenodd"><circle fill="#FFF" cx="206.5" cy="206.5" r="152.5"/><g fill-rule="nonzero"><path d="M213.289 368.972c-4.226 0-8.523 0-12.82-.495a164.94 164.94 0 01-92.903-37.072C54.3 286.672 34.41 213.445 57.698 147.813 81.738 82.85 143.328 39.541 212.444 39c8.68.056 17.345.764 25.92 2.118 67.425 11.173 121.159 62.576 135.447 129.574 13.523 68.41-16.744 138.047-75.93 174.695a161.704 161.704 0 01-84.592 23.585zm-.845-318.956c-64.439.474-121.891 40.792-144.392 101.328-16.6 45.354-10.944 95.895 15.267 136.435 26.21 40.54 69.92 66.353 117.996 69.682a150.992 150.992 0 0090.79-21.536 153.117 153.117 0 0060.927-70.613 154.928 154.928 0 0010.002-92.149c-13.185-62.611-63.317-110.712-126.29-121.17a169.824 169.824 0 00-24.3-1.977z" fill="#D92585"/><path d="M201.235 370.988c-4.3 0-8.598 0-12.897-.498a166.037 166.037 0 01-93.448-37.068c-53.7-45.073-73.702-118.976-50.107-185.128C69.047 82.991 130.957 39.507 200.39 39c8.754.088 17.491.797 26.146 2.122 67.76 11.322 121.733 63.085 136.085 130.517a167.317 167.317 0 01-10.571 99.885c-13.493 31.546-36.453 58.08-65.682 75.905a162.288 162.288 0 01-85.132 23.56zm-.846-321.943c-65.232.467-123.408 41.302-146.233 102.645-16.87 45.993-11.169 97.276 15.385 138.406 26.554 41.13 70.859 67.301 119.572 70.632a153.241 153.241 0 0091.969-21.859c55.966-34.622 84.58-100.53 71.742-165.25-13.455-63.279-64.057-111.884-127.628-122.593a173.568 173.568 0 00-24.807-1.98z" fill="#75F272"/><path d="M207.319 372c-4.296 0-8.592 0-12.887-.496a165.585 165.585 0 01-93.45-37.288c-53.758-45.025-73.78-118.91-50.141-185.027C75.106 83.971 136.99 40.537 206.403 40.01c8.701.095 17.384.803 25.986 2.119 67.869 11.227 121.962 62.98 136.337 130.437 13.7 68.832-16.786 138.939-76.408 175.705a162.478 162.478 0 01-85 23.73zm-.845-318.997C142.589 53.642 85.698 93.68 63.376 153.71c-16.483 45.068-10.86 95.288 15.178 135.568 26.04 40.28 69.46 65.927 117.216 69.233 64.436 5.027 124.894-31.708 150.28-91.313a153.221 153.221 0 009.93-91.807c-13.231-62.038-62.946-109.653-125.352-120.056a168.551 168.551 0 00-24.154-2.33z" fill="#2D2D2D"/><path d="M296.795 133.87c.704 0 .985 0 .492.845-60.716 104.926-91.162 157.448-91.34 157.567l-91.482-158.27c0-.353.492 0 .774 0h35.889c-.563 0-.704 0-.422.774.512.734.96 1.512 1.337 2.324l10.696 18.243c4.433 7.678 8.867 15.355 13.37 22.963 2.463 4.367 4.997 8.663 7.53 12.96 2.533 4.297 4.152 7.044 6.333 10.988l8.234 14.087 7.037 12.115c.563.986.774.986 1.337 0l4.081-7.043 12.315-21.131c2.463-4.226 4.926-8.382 7.037-12.608l9.078-15.99c2.956-5.07 5.981-10.142 8.937-15.284l9.36-16.412c1.196-1.972 2.322-4.015 3.518-6.128h35.889z" fill="#E87409"/><path d="M226.506 132.845h33.812c-1.193 2.128-2.315 4.185-3.508 6.171l-9.33 16.527c-2.946 5.178-5.962 10.286-8.908 15.393l-8.839 15.96c-2.385 4.255-4.84 8.44-7.015 12.696l-12.276 21.28-4.068 7.092c-.561.993-.772.993-1.333 0l-7.015-12.2-8.207-14.186c-2.175-3.689-4.209-7.093-6.313-11.065-2.105-3.973-5.051-8.654-7.506-13.052-4.49-7.66-8.909-15.392-13.328-23.123l-10.663-18.372a15.436 15.436 0 00-1.333-2.34c0-.426 0-.78.421-.78h32.97c.42 0 .49 0 .631.638 5.612 9.646 11.224 19.222 16.766 28.869l3.577 6.1c.124.4.403.732.772.922l2.876-5.249 17.396-30.5c.05-.301.198-.576.421-.78z" fill="#9B4C0A"/></g></g></svg>
