<svg xmlns="http://www.w3.org/2000/svg" width="1440" height="288" fill="none" viewBox="0 0 1440 288"><g id="Camp"><path id="Mountains background" fill="#95CDDE" fill-rule="evenodd" d="M1439.79 285.143v-83.298c-2.55-.202.78.35-1.7 0a6.29 6.29 0 001.42-4.215 3.682 3.682 0 00-.92-2.356l1.2-4.498c1.13 1.526-2.75-.707 0 0v-13.595c-9.51 0-17.14-24.998-18.85-19.297-5.27.091-10.7 2.446-10.7 6.378a8.107 8.107 0 001.17 4.65c-5.36 1.789-10.05 4.7-10.31 8.269h-.58c-5.37 0-11.03 2.365-11.03 6.388-.01.863.08 1.725.27 2.567-10.39-5.025-20.53-10.733-30.79-16.506-32.43-18.252-66.01-37.148-111.91-37.148-8.31.015-16.61-.705-24.79-2.153l3.1-11.584c1.78.226 3.58.337 5.38.333 9.75 0 16.32-4.114 16.32-9.643 0-3.669-2.17-6.712-6.71-8.339 4.88-1.92 7.7-5.368 7.7-10.614 0-4.74-5.32-8.33-13.24-9.38.26-.903.4-1.84.4-2.78 0-5.054-8.77-7.339-18.37-7.339-9.59 0-15.45 5.903-15.45 10.846v.425h-1.81c-3.26.07-6.51.552-9.65 1.435-1.03-3.032-4.3-5.347-9.85-6.065a8.555 8.555 0 001.74-5.327c0-3.639-4.88-5.67-11.16-6.388a9.489 9.489 0 002.46-3.381c.56-1.291.82-2.688.76-4.089 0-5.165-6.92-8.855-16.55-8.855-8.01 0-13 4.498-14.42 8.218-5.27.091-10.69 2.446-10.69 6.378a8.079 8.079 0 001.17 4.69c-1.01.33-2 .711-2.96 1.143-.7-.789-1.38-1.572-2.07-2.348-6.26-7.12-12.01-13.666-17.61-18.88-3.6-8.227-10.31-18.093-21.76-18.093-2.9-.019-5.76.676-8.32 2.022-3.09-6.338-8.79-13.778-18.46-13.778-6.18 0-10.62 3.093-13.71 6.975-3.35-4.56-8.25-8.461-15.26-8.461-1.32.002-2.64.155-3.92.455a245.205 245.205 0 01-22.46-16.466c-16.666-4.151-27.413 1.217-43.47 9.238-6.316 3.155-17.676 4.986-31.2 7.165-26.821 4.323-62.156 10.017-83.542 30.132-3.149 2.963-6.761 5.52-10.93 6.743-31.21 9.155-49.792 7.035-64.689 5.337-11.804-1.347-21.295-2.43-32.92 2.57-7.847-1.287-15.49-2.045-18.787 1.698a30.28 30.28 0 00-2.958-1.142 8.097 8.097 0 001.165-4.69c0-3.932-5.42-6.288-10.686-6.379-1.422-3.72-6.41-8.217-14.427-8.217-9.624 0-16.549 3.689-16.549 8.854a9.36 9.36 0 00.761 4.09 9.536 9.536 0 002.464 3.38c-6.286.718-11.16 2.75-11.16 6.389a8.533 8.533 0 001.742 5.327c-5.554.718-8.821 3.032-9.852 6.065a38.745 38.745 0 00-9.655-1.436h-1.803v-.424c0-4.943-5.864-10.846-15.457-10.846-9.594 0-18.363 2.284-18.363 7.338-.002.94.133 1.877.402 2.78-7.925 1.051-13.242 4.64-13.242 9.38 0 5.247 2.813 8.694 7.698 10.614-4.545 1.627-6.709 4.67-6.709 8.339 0 5.53 6.564 9.644 16.323 9.644a42.243 42.243 0 005.379-.334l3.091 11.584a140.42 140.42 0 01-11.387 1.539c-1.906-.801-3.798-1.652-5.691-2.503-7.806-3.511-15.617-7.024-24.34-7.024-11.082 0-21.238-3.831-30.7-7.399-8.248-3.111-15.968-6.022-23.312-6.022-11.71 0-23.29 4.596-34.495 9.044-5.985 2.375-11.863 4.708-17.596 6.276l-6.957-7.893a1.244 1.244 0 00-.941-.407c-.371 0-.72.151-.941.407l-8.554 9.716c-13.845-.622-24.609-3.906-34.547-6.939-9.316-2.843-17.908-5.465-27.635-5.465-9.711 0-19.228 3.516-29.567 7.335-12.292 4.541-25.745 9.511-42.065 9.511-16.358 0-26.939 6.006-36.579 11.478-8.067 4.58-15.476 8.785-25.061 8.785-10.778 0-20.84-6.604-30.655-13.045-9.343-6.133-18.462-12.118-27.762-12.118-8.654 0-16.955 2.994-25.417 6.046-8.795 3.173-17.764 6.408-27.482 6.408-9.546-.004-15.629-3.772-21.588-7.463-5.28-3.27-10.462-6.48-17.869-6.958l-6.406-7.266a1.244 1.244 0 00-.941-.407c-.371 0-.72.151-.941.407l-5.351 6.07c-4.066-.776-7.746-1.85-11.286-2.883-5.776-1.686-11.182-3.263-17.292-3.263-6.74 0-16.028 3.688-25.067 7.277-8.564 3.4-16.904 6.712-22.638 6.712-10.31 0-13.481-1.674-17.292-3.685-2.597-1.37-5.49-2.897-11.14-4.158L0 287h626.846v-1.857h812.944zm-3.32-101.534c.66.091 1.37.172 2.16.213l-3.09 9.097-2.06-7.48a16.864 16.864 0 002.99-1.83zm-5.79 3.033l.91 5.054c-1.22-.26-2.47-.412-3.73-.455.04-.244.06-.491.07-.738a7.71 7.71 0 00-.62-3.032c1.14-.215 2.26-.498 3.37-.849v.02zm-208.58-68.574l-2.61 7.793-2.86-10.492a12.79 12.79 0 005.47 2.699zm-11.74-3.811c.95-.104 1.9-.263 2.83-.475l2.74 15.111-7.03-7.277a6.734 6.734 0 001.65-2.379c.37-.9.54-1.868.49-2.837a3.835 3.835 0 00-.68-2.143zm-3.92 8.905l3.19 4.205c-3.02-.869-5.96-1.85-8.8-2.901 1.93-.156 3.82-.595 5.61-1.304zm-30.95-28.222h.84c.74 5.943 7.14 10.189 18.63 10.573-.04.244-.07.491-.06.738-.03 1.123.12 2.244.43 3.326-5.04.596-9.64 3.032-9.64 6.843 0 .435 0 .859.06 1.284a143.766 143.766 0 01-24.94-16.992c.48-.979.72-2.056.7-3.144a3.68 3.68 0 00-.92-2.355l1.2-4.498c2.05 2.77 7 4.225 13.7 4.225zm-17.02-11.392c.72.107 1.44.178 2.16.212l-3.09 9.098-2.06-7.48a16.89 16.89 0 002.99-1.83zm-5.79 3.032l.91 5.054c-1.08-.231-2.18-.38-3.28-.444l-.42-.394v-.354a7.53 7.53 0 00-.61-3.033c1.15-.212 2.28-.496 3.4-.849v.02zm-523.009 25.797l2.608 7.793 2.864-10.492a12.787 12.787 0 01-5.472 2.699zm11.738-3.811a24.949 24.949 0 01-2.824-.475l-2.741 15.112 7.028-7.278a6.743 6.743 0 01-1.652-2.379 6.648 6.648 0 01-.492-2.837 3.894 3.894 0 01.681-2.143zm3.926 8.905l-3.195 4.205a125.23 125.23 0 008.8-2.901 19.515 19.515 0 01-5.605-1.304zm30.945-28.222h-.835c-.742 5.944-7.141 10.19-18.631 10.573.042.244.062.491.062.738a11.302 11.302 0 01-.433 3.326c5.039.596 9.635 3.032 9.635 6.843 0 .435 0 .859-.062 1.284a143.545 143.545 0 0024.948-16.992 6.74 6.74 0 01-.701-3.144 3.704 3.704 0 01.917-2.355l-1.195-4.498c-2.051 2.77-7.007 4.225-13.705 4.225zm17.023-11.392c-.717.108-1.439.178-2.164.213l3.091 9.097 2.061-7.48a16.88 16.88 0 01-2.988-1.83zm5.791 3.033l-.917 5.054a21.766 21.766 0 013.287-.445l.413-.394v-.354a7.488 7.488 0 01.618-3.032 28.071 28.071 0 01-3.401-.85v.02z" clip-rule="evenodd"/><path id="Floor" fill="#003543" fill-rule="evenodd" d="M1440 215.407l-484.795-2.629-73.344-1.043H306.855l-175.512 1.043-104.07-1.043H0V288h1440v-72.593z" clip-rule="evenodd"/><g id="Rocks"><g id="Group 988"><path id="Path" fill="#003543" d="M265.496 194.577c2.804.001 5.216 1.949 5.76 4.652l3.478 17.541-20.298-7.588v-14.605h11.06z"/><path id="Path_2" fill="#001E26" d="M257.638 196.228c2.638 0 4.907 1.948 5.419 4.652l3.67 15.994H247.23l-3.694-20.646h14.102z"/><path id="Path_3" fill="#003543" d="M221.511 172.37c.188-.615.767-1.007 1.381-.934l3.792.433c.566.065 1.026.506 1.137 1.089l.187.99h17.488c3.956 0 7.361 2.922 8.13 6.976l6.786 35.846h-70.593v-42.831h31.206l.486-1.569z"/><path id="Path_4" fill="#001E26" d="M241.243 182.564l6.435 34.31h-58.002v-41.285h43.437c3.956 0 7.361 2.921 8.13 6.975z"/></g><g id="Group 989"><path id="Path_5" fill="#003543" d="M113.853 196.395c-2.803.001-5.215 1.949-5.76 4.651l-3.478 17.541L124.914 211v-14.605h-11.061z"/><path id="Path_6" fill="#001E26" d="M121.712 198.046c-2.638-.001-4.908 1.948-5.419 4.651l-3.67 15.994h19.496l3.694-20.645h-14.101z"/><path id="Path_7" fill="#003543" d="M157.838 174.188c-.188-.616-.766-1.007-1.381-.934l-3.791.432c-.566.065-1.027.506-1.138 1.09l-.186.99h-17.489c-3.956 0-7.36 2.921-8.129 6.976l-6.786 35.845h70.593v-42.831h-31.206l-.487-1.568z"/><path id="Path_8" fill="#001E26" d="M138.107 184.382l-6.435 34.309h58.002v-41.285h-43.438c-3.956 0-7.36 2.921-8.129 6.976z"/></g></g><g id="Fire"><g style="animation-delay:3s;animation-name:appearFireSpark;animation-timing-function:cubic-bezier(0.83, 0, 0.17, 1);animation-direction:normal;animation-iteration-count:infinite;animation-duration:7s;opacity:0" fill="#00DB81"><path d="M370.188 89.259h7.757v5.849h-7.757v-5.849z"/><path d="M351.674 89.259h19.05v5.849h-19.05v-5.849z"/></g><path fill="#00DB81" d="M325.023 107.361h7.216v7.249h-7.216v-7.249z" style="animation-delay:7s;animation-name:appearFireSpark;animation-timing-function:cubic-bezier(0.83, 0, 0.17, 1);animation-direction:normal;animation-iteration-count:infinite;animation-duration:7s;opacity:0"/><path fill="#00DB81" d="M368.988 107.361h7.216v7.249h-7.216v-7.249z" style="animation-delay:2s;animation-name:appearFireSpark;animation-timing-function:cubic-bezier(0.83, 0, 0.17, 1);animation-direction:normal;animation-iteration-count:infinite;animation-duration:7s;opacity:0"/><path fill="#00DB81" d="M376.207 114.604h3.605v3.622h-3.605v-3.622z" style="animation-delay:7s;animation-name:appearFireSpark;animation-timing-function:cubic-bezier(0.83, 0, 0.17, 1);animation-direction:normal;animation-iteration-count:infinite;animation-duration:7s;opacity:0"/><path fill="#00DB81" d="M394.385 110.013h22.422v7.248h-22.422v-7.248z" style="animation-delay:4s;animation-name:appearFireSpark;animation-timing-function:cubic-bezier(0.83, 0, 0.17, 1);animation-direction:normal;animation-iteration-count:infinite;animation-duration:7s;opacity:0"/><path fill="#64E5B3" d="M387.166 117.262h7.216v7.248h-7.216v-7.248z" style="animation-delay:4s;animation-name:appearFireSpark;animation-timing-function:cubic-bezier(0.83, 0, 0.17, 1);animation-direction:normal;animation-iteration-count:infinite;animation-duration:7s;opacity:0"/><path fill="#00DB81" d="M337.938 118.226h3.605v3.621h-3.605v-3.621z" style="animation-delay:6s;animation-name:appearFireSpark;animation-timing-function:cubic-bezier(0.83, 0, 0.17, 1);animation-direction:normal;animation-iteration-count:infinite;animation-duration:7s;opacity:0"/><path fill="#00DB81" d="M376.207 136.012H399.8v7.248h-23.593v-7.248z" style="animation-delay:3s;animation-name:appearFireSpark;animation-timing-function:cubic-bezier(0.83, 0, 0.17, 1);animation-direction:normal;animation-iteration-count:infinite;animation-duration:7s;opacity:0"/><path fill="#64E5B3" d="M303.865 137.406h19.051v5.849h-19.051v-5.849z" style="animation-delay:1s;animation-name:appearFireSpark;animation-timing-function:cubic-bezier(0.83, 0, 0.17, 1);animation-direction:normal;animation-iteration-count:infinite;animation-duration:7s;opacity:0"/><path id="Path_9" fill="#00DB81" d="M288.641 211.958s2.553-36.123 27.795-62.72c0 8.925 2.71 13.614 2.71 13.614s13.412-26.14 23.74-35.779c-2.711 12.999-1.372 22.644-1.372 22.644s11.694-17.258 19.409-26.075c3.507 19.932 2.786 48.468 2.786 48.468a150.048 150.048 0 006.657-23.706c5.248 7.706 6.11 16.529 6.11 16.529a19.834 19.834 0 002.467-8.545c10.712 25.977 6.533 55.548 6.533 55.548l-96.835.022z"/><path id="Path_10" fill="#D6F9EB" d="M308.428 211.96s2.564-26.767 11.119-37.609c1.707 11.725 3.16 12.966 3.16 12.966s.217-14.84 11.298-28.051c-1.274 17.132 3.356 23.319 3.356 23.319s9.834-9.89 14.638-26.178c4.781 22.638 3.068 44.313 3.068 44.313s11.119-5.991 13.9-15.483c1.713 13.07-5.92 26.723-5.92 26.723h-54.619z"/><path id="Path_11" fill="#33E39B" d="M259.631 211.608h152.192s-22.665 9.316-81.377 9.316c-58.713 0-70.815-9.316-70.815-9.316z"/></g><g id="Guy 1"><g id="Face"><path id="Face_2" fill="#E6BEAA" d="M455.244 111.269c6.138-5.38 1.039 1.682.484 3.3 2.807-2.578 5.41.773 8.944 2.215 3.534 1.443 5.339 4.505 5.99 8.494l2.254 10.501 5.317 13.875-20.467 1.163 1.423-9.871c-2.592 1.919-4.926-.745-5.414-2.919-.554-2.458-4.669-21.378 1.469-26.758z"/><path id="Nose" fill="#E6BEAA" d="M453.018 123.699l-2.868 4.848a1.488 1.488 0 00-.117 1.222c.138.411.442.736.825.881a8.314 8.314 0 002.797.634c1.857.003-.637-7.585-.637-7.585z"/><path id="Shadow" fill="#D9B09B" d="M459.05 140.989c-1.159 1.117-3.477.682-4.464-1.165l5.698-3.354c-.203 2.958-.847 4.146-1.234 4.519z"/><ellipse id="Oval" fill="#E6BEAA" rx="2.16" ry="3.47" transform="matrix(1 .00393 -.01278 .99992 461.728 125.852)"/><g id="Hair" fill="#002D2D"><path id="Path_12" d="M475.554 132.513l.334-13.073c.153-6.005-6.36-10.771-14.606-10.594-1.9.037-3.791.34-5.582.895-3.428 6.295-1.776 12.97 4.383 15.672.887.383 1.842.67 2.838.852 1.291 4.415 6.813 7.146 12.633 6.248z"/><path id="Path_13" d="M473.193 115.036c.789-2.309-4.825-5.75-9.21-5.986-4.385-.236-17.091 2.462-22.935 1.538 5.279 6.096 11.499 9.284 17.417 9.174 5.129-.121 14.728-4.726 14.728-4.726z"/></g></g><g id="Bottle"><path id="Rectangle 109" fill="#F5F5EB" d="M412.599 140.529h5.519v2.553a10.247 10.247 0 011.91 5.958v16.189h-9.196v-16.271c0-2.089.614-4.133 1.767-5.876v-2.553z"/><rect id="Rectangle 110" width="6.27" height="2.17" x="412.23" y="138.49" fill="#002021" rx=".6"/><path id="Vector 181" fill="#002021" d="M418.119 142.238c-1.569.159-4.331.067-5.515 0v.794c2.187.234 3.231.216 5.515.047v-.841z"/><path id="Subtract" fill="#002021" fill-rule="evenodd" d="M412.604 142.259c-1.731-.022-5.131 1.51-5.645 7.623-.063.751.009 1.538.419 2.171.406.628.969.997 1.59.296.636-.719.67-1.757.702-2.724l.004-.123c.079-2.34.728-5.447 2.93-6.503v-.74zm-1.413.719c-1.386.501-3.586 3.013-3.784 7.128-.019.398.029.801.192 1.165.291.649.752 1.166 1.247.395.25-.39.303-.871.292-1.334l-.001-.048c-.042-1.835-.088-3.878 2.353-7.027.156-.201.128-.433-.299-.279z" clip-rule="evenodd"/><g id="Artwork_23"><path id="Shape" fill="#003C3C" fill-rule="evenodd" d="M417.346 155.116l-1.991.004.37-.608 1.308-.003-.86-1.784-.365.606-.688 1.116c-.247.431-.697.694-1.158.679l-1.25.003a.318.318 0 01-.309-.183.39.39 0 01.035-.385l1.874-3.043a.392.392 0 01.326-.191.33.33 0 01.299.19l.585 1.218.384-.624a.383.383 0 01.325-.2.32.32 0 01.298.198l1.168 2.437a.4.4 0 01-.025.38.391.391 0 01-.326.19zm-4.24-.594l.875-.003a.735.735 0 00.677-.394l.495-.804-.573-1.189-1.474 2.39z" clip-rule="evenodd"/></g></g><path id="Hand" fill="#E6BEAA" d="M418.835 156.455c3.836-1.517 5.936 2.807 6.55 4.519.477 1.643 3.07 5.011-5.118 5.34-10.234.411-13.918-2.259-12.28-9.037.53-2.196 3.831 1.952 10.848-.822z"/><g id="Legs"><path id="Vector 83" fill="#000" d="M417.645 190.568c10.015-.913 34.026 6.881 43.207 10.459-3.278 6.761-16.956 8.347-21.812 8.727l-23.152-3.016c-3.111-4.568-8.258-15.256 1.757-16.17z"/><path id="Vector 87" fill="#001D1F" d="M438.402 204.033c16.801 0 19.81-4.454 19.264-5.432-3.642 3.472-22.306 3.579-31.183 3.199-6.525 1.065-13.403 4.69-13.403 9.441 0 .666 4.126-7.208 25.322-7.208z"/><path id="Vector 82" fill="#000D0E" d="M476.967 221.93c16.801 0 16.085-11.192 13.657-17.587-9.484-3.198-29.362-8.726-33.004-5.254-3.642 3.472-22.306 3.579-31.183 3.198-6.525 1.066-13.403 4.691-13.403 9.441 0 14.399 42.737 10.202 63.933 10.202z"/></g><g id="Teeshirt"><path id="Path_14" fill="#003543" d="M483.41 141.835c-2.222-1.5-4.012-2.235-6.855-2.753-.573-1.41-1.187-1.927-2.337-1.484-1.151.443-19.886 12.173-19.886 12.173-.09 1.963 3.676 7.901 12.785 6.143 9.109-1.757 16.293-14.079 16.293-14.079z"/><path id="Vector 84" fill="#003543" d="M448.061 167.564l9.332-9.822c2.959 0 5.463 12.791 5.918 16.902.455 4.112-7.336 5.025-12.746 5.025-2.148 0-26.176-10.278-28.907-12.105-2.185-1.462.91-6.091 2.731-8.223l23.672 8.223z"/><path id="Vector 81" fill="#003543" d="M492.451 203.177c2.549-37.824-5.007-56.721-9.104-61.441-6.449.305-20.394 1.873-24.582 5.71-4.189 3.837-3.895 35.553-2.605 51.846 7.578 5.835 36.291 9.001 36.291 3.885z"/><path id="Vector 673" fill="#012833" d="M473.657 159.479c-2.683 6.973-14.062 17.82-18.335 19.932l.038 2.255c10.249-2.454 18.777-16.09 18.297-22.187z"/></g></g><path id="Moon" fill="#003543" fill-rule="evenodd" d="M54.725 26.983c0 8.94 7.22 16.185 16.128 16.185a16.04 16.04 0 0010.756-4.124 12.462 12.462 0 01-4.179.717c-6.915 0-12.52-5.626-12.52-12.565 0-6.939 5.605-12.564 12.52-12.564 1.751 0 3.418.36 4.931 1.012a16.052 16.052 0 00-11.508-4.845c-8.907 0-16.128 7.246-16.128 16.184z" clip-rule="evenodd"/><g id="Food"><path id="Vector 654" stroke="#24240F" stroke-linecap="round" d="M312.162 175.199l-20.908 8.597"/><rect id="Rectangle 180" width="5.78" height="4.36" fill="#FCBBCF" rx="1" transform="matrix(-.91595 .40129 .39895 .91697 309.713 173.771)"/><rect id="Rectangle 181" width="5.78" height="4.34" fill="#FCBBCF" rx="1" transform="matrix(-.91595 .40129 .39895 .91697 303.26 176.601)"/></g><g id="Girl"><path id="Leg right" fill="#9C9C6A" d="M297.131 233l7.521.559h.246l-1.054-3.872-19.805-35.819-2.507 22.361L297.131 233z"/><g id="Shoe rirght"><path id="Vector 325" fill="#003C3C" d="M298.449 241.115c1.228.055 10.456-.204 15.826-.085a1.634 1.634 0 001.599-1.15c-.225-.519-12.81-1.02-18.352-1.002.151 1.172-.012 2.194.927 2.237z"/><path id="Vector 326" fill="#2E6160" d="M312.92 236.081c-6.636-1.382-7.817-4.737-8.548-6.869-.196-.573-.855-.772-1.36-.439l-6.145 4.05a.937.937 0 00-.43.73c-.116 2.444.81 5.399 1.287 5.93 1.01 1.122 13.345.093 18.128.491.355-.952.898-3.096-2.932-3.893z"/></g><g id="Leg left"><path id="Leg left_2" fill="#B4B48C" d="M320.807 238.869c.892.224 1.014-3.331 1.849-4.915-.654-3.768-.966-9.791-2.861-15.305-1.316-3.829-3.411-11.315-4.832-14.928-1.422-3.613-5.297-6.872-6.69-10.413l-8.914.839-17.098 27.41-41.556 14.77s1.585 14.333 14.514 19.1c19.483 7.183 24.288 3.183 33.446-3.478 15.741-11.449 16.129-35.153 17.8-35.433 1.337-.224 1.808 11.172 8.498 19.811 1.764.746 4.953 2.318 5.844 2.542z"/><path id="Shadow 3" fill="#A8A881" d="M289.266 232.776c-2.587-1.785-6.3-8.685-6.939-11.341-4.875 2.061-7.189 2.597-3.773 4.24 0 0 .671 4.914 2.549 4.012.995-.478 6.252 2.113 8.163 3.089.242.167.475.289.695.359 0 0-.262-.138-.695-.359z"/><path id="Shadow 2" fill="#A8A881" d="M249.04 251.688c31.656 9.962 46.279-7.285 49.991-12.914-2.103 5.836-9.577 18.005-22.644 19.992-13.067 1.987-23.676-3.891-27.347-7.078z"/><path id="Shadow 1" fill="#A8A881" d="M306.555 216.539c.367-.012 1.189 2.838 1.554 4.265.295-2.227-.913-7.505-1.554-9.909-1.054 3.171-1.427 8.101-1.482 10.214.341-1.518 1.115-4.558 1.482-4.57z"/></g><path id="Shadow 2_2" stroke="#244949" d="M313.314 235.939c-.14.485.084 2.105.096 3.077 0 0 .025.952 0 1.277"/><path id="Shadow 1_2" fill="#002F2F" d="M315.498 240.724a.501.501 0 01-.029 1.001l.029-1.001zm-2.11-.193l-.497-.05.497.05zm.02-.247l.498.027v.006l-.001.016-.004.055a5.238 5.238 0 01-.016.192l-.994-.099c.007-.069.011-.126.014-.166a.991.991 0 01.003-.045l.001-.01v-.003l.499.027zm.477.296c-.012.128-.004.083-.015.044-.025-.094-.089-.122-.057-.105.051.026.181.073.466.115.277.041.668.074 1.219.09l-.029 1.001a11.984 11.984 0 01-1.335-.101c-.323-.048-.582-.115-.778-.216-.216-.112-.385-.282-.45-.523-.05-.186-.017-.384-.015-.404l.994.099z"/><g id="Shoe left"><path id="Vector 248" fill="#003C3C" d="M315.444 245.419c1.455.071 12.399-.209 18.765-.051a1.936 1.936 0 001.9-1.359c-.265-.616-15.186-1.249-21.757-1.244.176 1.39-.021 2.601 1.092 2.654z"/><path id="Vector 247" fill="#2E6160" d="M332.615 239.497c-8.087-1.705-8.736-6.319-9.431-8.957-.155-.588-.817-.787-1.323-.451l-8.349 5.543a.944.944 0 00-.429.726c-.173 2.914.933 6.489 1.503 7.126 1.195 1.334 15.823.152 21.493.638.424-1.128 1.074-3.668-3.464-4.625z"/></g><g id="Face_3"><path id="Face_4" fill="#E6BEAA" d="M286.608 145.731c2.299 1.92 1.93 23.033-4.228 23.033-18.373-.001-9.948-23.848 4.228-23.033z"/><path id="Nose_2" fill="#E6BEAA" d="M289.945 158.092c.511-.648-1.22-3.285-2.324-4.782l-.378 5.599c.445.097 2.3-.305 2.702-.817z"/><path id="Neck" fill="#E6BEAA" d="M277.977 172.123c-.37 1.855.514 4.793 1.541 6.03-8.988 0-17.019 3.776-14.905-4.499 2.732-10.699 3.246-10.499 2.732-11.581l13.2 2.835c-.719.412-2.198 5.36-2.568 7.215z"/><path id="Shadow_2" fill="#D1B0A0" d="M278.89 168.694c2.029.362 4.998.242 5.663-.987 0 0-2.84.452-4.747 0s-4.947-2.021-4.947-2.021l4.031 3.008z"/></g><g id="Teeshirt_2"><path id="Teeshirt_3" fill="#28AAF0" d="M263.251 171.288c-12.386 1.815-15.789 19.537-17.142 22.796-1.841 4.434-7.685 35.809-6.967 42.987 2.837 18.341 13.765 17.635 23.132 12.867 17.074-8.691 19.476-20.664 19.476-22.062-.835-8.385 1.311-22.707 1.95-25.156.634-2.43 1.393-5.311 4.178-6.988 2.229-1.341 10.306 3.075 12.256 3.075l11.699 3.913c5.068 1.306 6.052-2.085 6.407-3.913 0-1.949.991-9.923-10.301-13.068-11.292-3.144-18.221-5.415-23.605-8.171 0 0-7.317-8.728-21.083-6.28z"/><path id="Shadow_3" fill="#218FC9" d="M282.659 192.013c.337.893 1.991 3.368 6.294 3.463-2.552.474-3.982 2.987-4.712 5.642l-1.582-9.105z"/></g><g id="Hair_2"><path id="Union" fill="#24240F" d="M264.16 143.506c-3.228-3.065-8.754-6.351-12.139-1.437-3.227 4.687.044 14.155 2.386 20.937 1.162 3.363 2.096 6.066 1.895 7.197-.483 2.73-1.776 4.786-2.362 5.472 2.033-.002 5.883-3.039 5.024-15.169-.76-10.724.923-11.161 2.18-9.715-.875 5.2 0 17.312 12.984 17.312 3.081 0 6.809-.408 4.856-11.93-.738-1.74-1.325-3.943 2.885-3.923 3.194-2.496 8.708-9.423 4.555-12.084-5.19-3.325-15.767-2.811-19.361.053-.788.628-1.868 1.769-2.903 3.287z"/><ellipse id="Oval_2" fill="#28AAF0" rx="2.36" ry="4.83" transform="matrix(-.9418 -.33618 -.33411 .94253 261.934 146.067)"/></g></g><g id="Guy 2"><g id="legs"><path id="Vector 644" fill="#5A7D7D" d="M178.53 172.257c-3.663-4.157-.908-15.391-1.532-18.074l12.017 4.436s18.185 5.665 25.479 14.985c1.374 1.756 1.937 3.97 2.204 6.186l3.161 26.27-5.901 3.412-8.179-27.418c-.419-1.403-1.795-2.402-3.249-2.573-6.245-.732-21.023-3.846-24-7.224z"/><path id="Shadow 1_3" fill="#4F6B6B" d="M197.813 178.752c.463.1 3.49.546 4.281.651-.525-4.017-12.155-9.708-14.859-10.248.468 1.396.001 7.318 10.578 9.597z"/><path id="Vector 302" fill="#5A7D7D" d="M161.145 175.624c-3.663-4.157-.908-15.391-1.532-18.074l12.017 4.436s16.176 5.039 24.135 13.432c2.444 2.577 3.002 6.261 2.731 9.807l-2.005 26.252-7.379.534-1.39-27.946c-.029-.58-.542-1.042-1.121-1.079-4.967-.315-22.213-3.683-25.456-7.362z"/><path id="Vector 645" fill="#4F6B6B" d="M179.22 181.802c-8.899-1.741-17.085-9.834-20.029-13.581 0 2.664.637 4.911.637 5.088 1.286 5.531 13.452 7.613 19.392 8.493z"/></g><g id="Shoe right"><path id="Vector 647" fill="#00DC82" d="M188.112 219.332c-.048-.08-.134-.475-.171-.663 4.754.42 14.362 1.573 14.692 2.132.413.7-.603 1.384-.603 1.384-2.785 1.179-13.858-2.753-13.918-2.853z"/><path id="Vector 646" fill="#000606" d="M188.006 218.841c-.385-.434.093-4.496.334-6.763.048-.457.397-.824.851-.893l7.108-1.077c.616-.093 1.112.389.938.987-.426 1.467-1.189 3.489-.348 4.393 1.381 1.485 6.053 3.395 5.856 5.684-.197 2.289-14.195-1.718-14.739-2.331z"/></g><g id="Shoe left_2"><path id="Vector 648" fill="#00DC82" d="M214.164 214.982c-.069-.063-.26-.42-.348-.59 4.684-.917 14.235-2.479 14.706-2.033.59.558-.198 1.498-.198 1.498-2.35 1.906-14.075 1.204-14.16 1.125z"/><path id="Vector 649" fill="#000606" d="M213.928 214.54c-.49-.31-1.151-4.346-1.545-6.591a1.01 1.01 0 01.571-1.095l6.534-3.01c.566-.26 1.175.065 1.173.688-.005 1.529-.18 3.683.878 4.318 1.736 1.043 6.753 1.58 7.195 3.835.442 2.255-14.114 2.293-14.806 1.855z"/></g><g id="Face_5"><path id="Vector 289" fill="#E6BEAA" d="M174.198 112.699c.833.558 2.43-2.554 3.124-4.18-1.041-1.277-2.846-4.389-1.735-6.619 1.111-2.23 3.24.929 4.166 2.787.347-3.6 1.527-10.8 3.471-10.8 1.389 3.066 7.753 4.297 10.762 4.53.262 1.94.365 3.665.339 5.197-.013.768.074.929 0 1.602-.078.716.659 3.904.521 4.52-.162.72-1.904-.28-2.134.313-.281.454-1.803 2.296-2.12 2.65-1.954 2.18-3.53 2.54-4.947 2.229-1.357-.298 1.166 4.855 1.745 6.48-7.291 2.787-14.234-9.406-13.192-8.709z"/><path id="Shadow_4" fill="#D1B0A0" d="M181.763 111.582l3.553 4.33c-.137-.506.205-1.003.205-1.003-1.371-1.131-3.758-3.327-3.758-3.327z"/><path id="Hair_3" fill="#000808" d="M183.411 106.015c0 .975-.32 3.197-.709 3.861-.735.935-1.738.935-2.592.935 0 0-3.419-.035-3.724-.935 0 0-.149-.08-.343-.99-1.441-5.026 0-9.18 0-9.18.178-.852.98-3.841.98-3.841.252-1.028 1.06-2.459 1.483-3.25.496-.927 1.51-.874 2.511-1.5 5.48-3.426 10.256-.847 10.802.909.194-.571.291-1.919 0-2.665 2.882 1.994 4.237 11.283 2.293 10.348-1.943-.935-8.14-1.725-8.448-1.38-.487.545-.691 1.724-.936 2.414a15.66 15.66 0 00-.32 1.056c.049-.996-1.479-1.629-1.706-1.087-1.182 2.829.709 4.331.709 5.305z"/></g><g id="Teeshirt_4" fill="#001E26"><path id="Vector 637" d="M200.482 136.242c1.457 5.901.905 12.757.905 12.757-2.243 1.143-1.853-2.092-2.851-1.595 0 0-8.216 1.966-12.677-28.718.725-1.582-.135-2.453-.58-2.92 6.936-.29 14.526 17.737 15.203 20.476z"/><path id="Vector 639" d="M159.038 168.105c1.484 3.665 28.178.774 32.997-6.091 3.804-24.774-1.692-42.203-4.819-45.193 0 0-1.171-1.14-1.798-1.109-3.804 1.629-8.566-1.999-9.395-4.003-1.087-.403-3.005-.353-10.593 2.962-9.485 4.144-8.248 48.852-6.392 53.434z"/><path id="Vector 641" d="M212.772 136.341c-3.825 8.992-23.114 5.097-23.563 4.947 0 0 8.941-4.869 9.888-6.544 2.223-1.759 11.263-2.948 12.11-2.223-2.692 4.022-.679 4.095 1.565 3.82z"/></g><g id="Guitar"><path id="Vector 632" fill="#004545" d="M153.406 137.744c-9.062 8.161-.008 23.55 6.968 29.934 4.261 3.899 14.143.475 17.043-4.19 2.899-4.665 1.34-6.361 4.969-8.361 1.969-1.086 4.033-1.018 4.435-1.171 17.745 2.594 16.765-6.249 11.008-21.024-5.757-14.776-17.299-7.066-18.834-4.252-1.228 2.251-3.804 2.843-4.938 2.857-4.579-.555-11.588-1.954-20.651 6.207z"/><path id="Shadow_5" fill="#013838" d="M161.792 142.951c1.702-5.434 7.258-10.138 10.352-11.659-3.223-.646-8.708-1.596-9.095-1.441-.387.155-3.965 3.105-5.705 4.561l4.448 8.539z"/><path id="Vector 633" fill="#005757" d="M222.96 122.074l-48.021 20.885 1.361 3.59 48.329-20.074 5.571-.197c5.538-.685 12.33-4.962 12.641-6.634.256-1.381-1.194-4.957-2.642-6.009-1.449-1.052-11.899 3.943-13.039 4.628-.911.549-3.18 2.769-4.2 3.811z"/><ellipse id="Ellipse 31" fill="#2E6160" rx="5.1" ry="5.11" transform="rotate(-20.901 479.572 -403.573) skewX(-.133)"/><path id="Rectangle 174" fill="#003C3C" d="M0 0h.29v3.35H0z" transform="rotate(-20.901 429.377 -561.424) skewX(-.133)"/><path id="Rectangle 175" fill="#003C3C" d="M0 0h.29v3.35H0z" transform="rotate(-20.901 427.3 -572.686) skewX(-.133)"/><path id="Rectangle 176" fill="#003C3C" d="M0 0h.29v3.35H0z" transform="rotate(-20.901 426.198 -584.838) skewX(-.133)"/><path id="Rectangle 177" fill="#003C3C" d="M0 0h.29v3.35H0z" transform="rotate(-20.901 445.566 -587.951) skewX(-.133)"/><path id="Rectangle 178" fill="#003C3C" d="M0 0h.29v3.35H0z" transform="rotate(-20.901 448.578 -576.562) skewX(-.133)"/><path id="Rectangle 179" fill="#003C3C" d="M0 0h.29v3.35H0z" transform="rotate(-20.901 450.738 -564.901) skewX(-.133)"/><ellipse id="Ellipse 32" fill="#003C3C" rx=".58" ry=".59" transform="rotate(-20.901 428.82 -561.737) skewX(-.133)"/><ellipse id="Ellipse 33" fill="#003C3C" rx=".58" ry=".59" transform="rotate(-20.901 426.746 -572.993) skewX(-.133)"/><ellipse id="Ellipse 34" fill="#003C3C" rx=".58" ry=".59" transform="rotate(-20.901 425.029 -585.037) skewX(-.133)"/><ellipse id="Ellipse 35" fill="#003C3C" rx=".58" ry=".59" transform="rotate(-20.901 460.372 -567.485) skewX(-.133)"/><ellipse id="Ellipse 36" fill="#003C3C" rx=".58" ry=".59" transform="rotate(-20.901 458.282 -578.738) skewX(-.133)"/><ellipse id="Ellipse 37" fill="#003C3C" rx=".58" ry=".59" transform="rotate(-20.901 455.394 -590.57) skewX(-.133)"/><path id="Vector 634" stroke="#558887" stroke-width=".5" d="M172.164 144.169l50.817-20.95"/><path id="Vector 635" stroke="#558887" stroke-width=".5" d="M173.496 145.126l49.936-20.636"/><path id="Vector 636" stroke="#558887" stroke-width=".5" d="M175.97 145.678l47.911-19.915"/></g><path id="hand" fill="#E0B09B" d="M175.451 148.05c2.172-.739 2.699-.383 3.421-.728.722-.346 2.642-1.44 3.278-1.851.473-.311 1.967-3.58 1.592-3.714 0 0 .024.009 0-.001-.297-.135-.846-.032-1.328.25l-.958.559s-1.83.655-2.806.733c-.976.078-.938-.165-.381-.52.33-.209 1.074-.626 1.623-.928a.952.952 0 00.363-.325c.066-.116.059-.217-.02-.277-.114-.09-.365-.074-.62.04l-1.74.775a5.393 5.393 0 00-.978.561l-2.107 1.533-1.864 1.033 1.138 2.841 1.387.019z"/><path id="Arm" fill="#001E26" d="M167.418 127.668c2.503-3.971 8.729-12.999 8.577-15.938-21.18 0-24.765 25.36-22.821 32.235 2.152 7.616 21.444 4.373 21.948 4.134 1.909-.906 1.237-2.729.319-4.476-.813-1.548-11.144-1.829-12.755-3.244-1.61-1.416 1.603-7.747 4.732-12.711z"/><g id="Hand_2"><path id="Vector 642" fill="#E6BEAA" d="M210.847 132.618c-.498.215-4.769 1.923-5.409 2.139 1.353 1.425 4.412 3.972 5.814 2.749 1.403-1.222 2.676-1.805 3.138-1.944 4.396-4.632 2.548-10.203 1.835-10.328-.712-.124-.132 3.877-.195 3.709-.063-.169-1.251-3.563-1.901-3.584-.52-.017.824 3.348.782 3.839-.139-.112-2.107-2.724-2.627-2.724-.52 0 1.282 2.735 1.331 3.163-2.695-1.834-1.329-.282-1.165.467.774 3.538-1.104 2.299-1.603 2.514z"/><path id="Vector 643" fill="#001E26" d="M211.097 132.489c-.366 1.868-.309 4.012 1.934 3.737-.328.76-1.788 2.411-1.788 2.411-.454.774-1.957.425-2.44.972-.48.544-5.506.661-5.998 1.015l-1.617-3.219-.495-.96s2.047-.867 2.624-1.106l2.924-1.217 1.918-.79 2.381-.996c0 .002.453.048.557.153z"/></g></g><g id="Music" fill="#003543"><path d="M207.316 22.43l-6.525 4.006a.736.736 0 00-.315.811l1.551 5.81a3.17 3.17 0 00-.732.103c-1.174.316-1.956 1.209-1.746 1.994.21.785 1.332 1.166 2.506.85 1.173-.315 1.956-1.208 1.746-1.993l-1.387-5.193 5.224-3.192 1.096 4.103a3.16 3.16 0 00-.732.103c-1.174.316-1.956 1.209-1.746 1.994.209.785 1.332 1.166 2.505.85 1.174-.315 1.956-1.208 1.747-1.993l-2.089-7.823a.738.738 0 00-.781-.541.733.733 0 00-.322.112z" style="animation-delay:7s;animation-duration:5s;animation-name:appearFadeOutUp;animation-timing-function:ease-in-out;animation-direction:normal;animation-iteration-count:infinite;opacity:0"/><path d="M217.88 34.962a28.218 28.218 0 00-.478-1.683c.508.085 1.626.5 2.033 1.477-.028-.59-.197-1.867-.654-2.248-.457-.382-2.568-1.747-3.566-2.382l1.408 4.626 1.017 3.761a2.51 2.51 0 00-.578.082c-.927.25-1.545.955-1.379 1.575.165.62 1.052.92 1.979.672.926-.25 1.544-.955 1.379-1.575l-1.095-4.101-.066-.204z" style="animation-delay:4s;animation-duration:4s;animation-name:appearFadeOutUp;animation-timing-function:ease-in-out;animation-direction:normal;animation-iteration-count:infinite;opacity:0"/><path d="M195.07 47.378l-3.324.174a.318.318 0 00-.288.245l-.608 2.545a1.398 1.398 0 00-.301-.113c-.514-.123-.998.055-1.08.4-.083.343.268.723.782.846.514.124.998-.055 1.08-.399l.544-2.275 2.658-.133-.429 1.797a1.377 1.377 0 00-.302-.113c-.514-.123-.998.056-1.08.4-.082.344.269.723.783.847.514.123.998-.055 1.08-.4l.818-3.427a.319.319 0 00-.333-.394z" style="animation-delay:2s;animation-duration:3s;animation-name:appearFadeOutUp;animation-timing-function:ease-in-out;animation-direction:normal;animation-iteration-count:infinite;opacity:0"/><path d="M236.27 73.448l-8.633 5.3a.976.976 0 00-.417 1.073l2.052 7.686a4.2 4.2 0 00-.968.137c-1.553.417-2.588 1.599-2.31 2.638.277 1.039 1.762 1.543 3.315 1.125 1.553-.417 2.588-1.599 2.31-2.638l-1.834-6.87 6.911-4.223 1.45 5.428a4.195 4.195 0 00-.969.137c-1.553.417-2.587 1.599-2.31 2.638.277 1.039 1.762 1.543 3.315 1.125 1.553-.417 2.588-1.598 2.311-2.638l-2.764-10.35a.966.966 0 00-.586-.654.969.969 0 00-.873.086z" style="animation-delay:5s;animation-duration:4s;animation-name:appearFadeOutUp;animation-timing-function:ease-in-out;animation-direction:normal;animation-iteration-count:infinite;opacity:0"/><path d="M215.263 61.374a52.8 52.8 0 001.018-3.082c.69.663 1.971 2.471 1.579 4.396.572-.935 1.641-3.07 1.338-4.133-.303-1.064-2.119-5.369-2.989-7.388l-2.656 8.568-2.355 6.831a4.648 4.648 0 00-.972-.48c-1.68-.59-3.361-.156-3.753.969-.391 1.124.655 2.514 2.335 3.103 1.681.59 3.361.156 3.753-.968l2.589-7.435.113-.38z" style="animation-delay:6s;animation-duration:6s;animation-name:appearFadeOutUp;animation-timing-function:ease-in-out;animation-direction:normal;animation-iteration-count:infinite;opacity:0"/><path d="M190.08 64.949a52.88 52.88 0 00-1.468-2.894c.955-.026 3.137.331 4.225 1.964-.26-1.066-1.021-3.329-1.988-3.86-.967-.532-5.295-2.263-7.337-3.062l4.204 7.919 3.185 6.484a4.643 4.643 0 00-1.023.355c-1.599.785-2.474 2.29-1.952 3.36.521 1.07 2.241 1.3 3.841.516 1.599-.785 2.473-2.29 1.952-3.36l-3.448-7.075-.191-.347z" style="animation-delay:3s;animation-duration:4s;animation-name:appearFadeOutUp;animation-timing-function:ease-in-out;animation-direction:normal;animation-iteration-count:infinite;opacity:0"/></g></g><style>@keyframes appearFadeOutUp{0%{opacity:0;transform:translateY(0)}20%{opacity:1}100%{opacity:0;transform:translateY(-20px)}}@keyframes appearFireSpark{0%{opacity:0;width:100%;transform:translateX(20px)}20%{width:0;opacity:1}100%{width:100%;opacity:0;transform:translateX(-20px)}}</style></svg>
