<svg xmlns="http://www.w3.org/2000/svg" width="2496" height="288" fill="none" viewBox="0 0 2496 288"><g id="Frame 480" clip-path="url(#clip0)"><g id="Group 1321"><path id="Union" fill="#95CDDE" fill-rule="evenodd" d="M2461.01 191.65c2.33 1.216 4.61 2.501 6.87 3.835 9.5 5.603 37.06 21.534 57.2 29.866 35.44 14.662 94.92 25.244 94.92 25.244h-845.55v1.536h-209.93V311H-622v-62.135s23.622-9.704 32.236-15.966c21.447-15.587 20.727-14.759 45.333-24.657 10.739-4.32 31.928-18.005 40.172-22.417l5.429-12.121c.383-.855 1.624-.762 1.876.14l2.659 9.534c5.717-3.378 23.819-15.044 30.446-18.532a343.16 343.16 0 0113.429-6.699 361.408 361.408 0 0111.243-5.067c4.158-1.789 15.927-8.487 20.416-10.555l3.895-13.981c.279-1.002 1.712-.965 1.939.049l2.539 11.336c7.188-3.614 30.468-15.389 36.953-18.76a2066.413 2066.413 0 0018.424-9.7 1624.557 1624.557 0 0017.203-9.284l23.901-9.214a59.002 59.002 0 0149.623 3.336l10.704 5.878 71.466 45.082 4.376-24.028c.195-1.069 1.715-1.104 1.959-.045l6.428 27.914 26.848 12.017 13.424 6.008 13.424 6.009 39.537 20.211 23.945 12.819 4.393-16.664c.255-.967 1.615-1.002 1.92-.049l6.984 21.873a30.144 30.144 0 0027.02-1.494l15.447-8.858 11.647-8.081c16.93-11.747 39.537-11.097 55.763 1.604l11.957 9.359 17.62 14.027c1.367 1.088 2.888 1.992 4.561 2.498 12.942 3.916 17.129-3.295 17.129-3.295 8.663-7.744 48.645-33.417 52.105-34.548 4.714-1.54 12.031-2.211 15.759-2.667 6.5-.795 26.37 2.667 46.946 13.907 8.789 4.801 17.901 11.646 23.355 15.064 4.237 2.845 13.789 9.518 16.955 11.777 6.171 4.401 9.953 7.319 9.953 7.319h.59l.566-.387c3.814-2.607 7.463-5.451 11.112-8.294 4.33-3.374 8.66-6.747 13.263-9.724 3.161-2.045 6.352-3.607 8.722-3.607 2.319-.637 5.678-.638 9.143-.638 4.538-.001 9.259-.001 12.065-1.432 5.444-2.777 7.624-6.215 9.825-9.685 1.013-1.598 2.031-3.202 3.373-4.752 4.188-4.836 11.081-9.548 11.081-9.548s15.828-6.82 18.734-10.175c4.626 1.043 6.995 2.306 9.121 3.44 3.119 1.663 5.716 3.048 14.156 3.048 4.694 0 11.522-2.74 18.533-5.553 7.4-2.969 15.004-6.019 20.522-6.019 5.002 0 9.427 1.305 14.156 2.699 2.898.855 5.911 1.743 9.24 2.385l4.381-5.021c.181-.212.466-.337.77-.337s.589.125.77.337l5.244 6.01c6.065.396 10.307 3.051 14.63 5.756 4.878 3.053 9.858 6.17 17.673 6.174 7.956 0 15.298-2.676 22.499-5.301 6.927-2.525 13.722-5.002 20.807-5.002 7.614 0 15.079 4.951 22.729 10.024 8.034 5.329 16.272 10.792 25.096 10.792 7.846 0 13.912-3.479 20.516-7.267 7.892-4.527 16.554-9.495 29.946-9.495 13.36 0 24.372-4.111 34.435-7.867l.002-.001c8.464-3.159 16.255-6.068 24.205-6.068 7.963 0 14.997 2.169 22.624 4.521 8.136 2.509 16.948 5.226 28.283 5.74l7.002-8.037c.181-.212.467-.337.771-.337.303 0 .589.125.77.337l5.696 6.529c4.693-1.296 9.505-3.226 14.405-5.191 9.173-3.68 18.653-7.482 28.24-7.482 6.012 0 12.332 2.408 19.085 4.982 7.746 2.951 16.061 6.12 25.133 6.12 7.141 0 13.536 2.906 19.926 5.81 1.55.705 3.099 1.409 4.659 2.071a113.52 113.52 0 009.323-1.273l-2.531-9.582c-1.46.187-2.931.279-4.404.276-7.989 0-13.363-3.404-13.363-7.977 0-3.036 1.772-5.553 5.492-6.899-3.998-1.589-6.301-4.44-6.301-8.78 0-3.921 4.353-6.89 10.84-7.76a8.098 8.098 0 01-.329-2.299c0-4.181 7.179-6.071 15.033-6.071 7.854 0 12.654 4.884 12.654 8.973v.351h1.477c2.675.057 5.332.457 7.904 1.187.844-2.508 3.518-4.423 8.066-5.017a7.101 7.101 0 01-1.426-4.407c0-3.01 3.99-4.691 9.136-5.284a7.877 7.877 0 01-2.017-2.797 7.797 7.797 0 01-.623-3.383c0-4.273 5.668-7.325 13.548-7.325 6.563 0 10.646 3.721 11.811 6.799 4.31.075 8.748 2.023 8.748 5.276a6.757 6.757 0 01-.953 3.88 24.46 24.46 0 012.421.945c2.699-3.097 8.956-2.47 15.38-1.404 9.514-4.137 17.284-3.241 26.954-2.128 12.19 1.406 27.4 3.159 52.96-4.414 3.41-1.012 6.36-3.127 8.94-5.578 17.51-16.64 46.44-21.35 68.39-24.926 11.08-1.803 20.38-3.317 25.55-5.927 13.14-6.635 21.94-11.076 35.58-7.642 5.86 4.884 12 9.431 18.39 13.621 1.05-.248 2.13-.374 3.21-.376 5.74 0 9.75 3.227 12.49 6.999 2.53-3.211 6.17-5.77 11.23-5.77 7.91 0 12.58 6.154 15.11 11.397a14.309 14.309 0 016.81-1.672c9.31 0 14.79 8.04 17.75 14.816 2.56-.916 5.26-2 7.99-3.096 7.4-2.968 15-6.019 20.52-6.019 5 0 9.43 1.305 14.16 2.699 2.9.855 5.91 1.743 9.24 2.385l4.38-5.021c.18-.212.46-.337.77-.337.3 0 .59.125.77.337l5.24 6.01c6.07.396 10.31 3.051 14.63 5.756 4.88 3.054 9.86 6.17 17.68 6.174 7.95 0 15.29-2.676 22.49-5.301 6.93-2.525 13.73-5.002 20.81-5.002 7.62 0 15.08 4.952 22.73 10.025 8.04 5.328 16.27 10.791 25.1 10.791 7.84 0 13.91-3.479 20.51-7.267 7.89-4.527 16.56-9.495 29.95-9.495 13.36 0 24.37-4.11 34.43-7.867h.01c8.46-3.16 16.25-6.068 24.2-6.068 7.96 0 15 2.168 22.62 4.52 8.14 2.509 16.95 5.226 28.29 5.74l7-8.037c.18-.212.47-.337.77-.337.3 0 .59.125.77.337l5.7 6.529c4.69-1.296 9.5-3.226 14.4-5.191 9.17-3.679 18.65-7.482 28.24-7.482 6.01 0 12.33 2.409 19.09 4.982 7.74 2.952 16.06 6.12 25.13 6.12 7.14 0 13.53 2.906 19.93 5.811v.002c1.55.704 3.1 1.407 4.65 2.069 3.13-.296 6.24-.721 9.33-1.274l-2.53-9.582c-1.46.187-2.94.279-4.41.276-7.99 0-13.36-3.403-13.36-7.977 0-3.036 1.77-5.552 5.49-6.899-4-1.588-6.3-4.44-6.3-8.78 0-3.921 4.35-6.89 10.84-7.76a8.138 8.138 0 01-.33-2.299c0-4.18 7.18-6.07 15.03-6.07 7.86 0 12.66 4.883 12.66 8.972v.35h1.47c2.68.059 5.34.458 7.91 1.188.84-2.508 3.52-4.423 8.06-5.017a7.137 7.137 0 01-1.42-4.406c0-3.01 3.99-4.691 9.14-5.285a7.713 7.713 0 01-2.02-2.797 7.86 7.86 0 01-.63-3.383c0-4.272 5.67-7.324 13.55-7.324 6.57 0 10.65 3.72 11.81 6.798 4.31.075 8.75 2.023 8.75 5.276a6.778 6.778 0 01-.95 3.88c.82.272 1.63.588 2.42.945 2.7-3.097 8.96-2.47 15.38-1.404 9.52-4.136 17.29-3.241 26.95-2.127 12.2 1.405 32.21 16.333 57.76 8.76 0 0 39.77-30.798 108.98-60.127 13.15-6.635 54.72 20.973 54.72 20.973s68.39 34.861 71.13 38.632c.5.569-.5-.576 0 0 .79-.357 1.6-.672 2.42-.945a6.777 6.777 0 01-.95-3.88c0-3.252 4.44-5.2 8.75-5.276 1.16-3.077 5.24-6.798 11.81-6.798 7.88 0 13.55 3.052 13.55 7.325a7.86 7.86 0 01-.63 3.382 7.806 7.806 0 01-2.01 2.797c5.14.594 9.13 2.275 9.13 5.285a7.137 7.137 0 01-1.42 4.407c4.54.593 7.22 2.508 8.06 5.017a31.45 31.45 0 017.91-1.188h1.47v-.35c0-4.09 4.8-8.973 12.66-8.973 7.85 0 15.03 1.89 15.03 6.07 0 .779-.11 1.553-.33 2.3 6.49.87 10.84 3.838 10.84 7.76 0 4.34-2.3 7.19-6.3 8.78 3.72 1.346 5.49 3.863 5.49 6.898 0 4.574-5.37 7.977-13.36 7.977-1.47.003-2.95-.089-4.41-.276l-2.53 9.583c6.7 1.198 13.49 1.794 20.29 1.781 37.58 0 65.07 15.632 91.62 30.73 8.4 4.775 56.49 20.842 64.99 25l22.21 11.61zm-201.38-72.817l2.13-6.447a10.48 10.48 0 01-4.48-2.232l2.35 8.679zm-5.17-9.992c-.76.176-1.53.307-2.31.393.36.525.55 1.141.56 1.772.04.802-.1 1.603-.4 2.347a5.673 5.673 0 01-1.36 1.968l5.76 6.021-2.25-12.501zm-2.91 11.238l-2.61-3.479c-1.47.587-3.02.95-4.59 1.079 2.33.87 4.73 1.681 7.2 2.4zm-27.26-26.825h-.69c-5.48 0-9.54-1.204-11.22-3.495l-.97 3.721c.47.544.73 1.232.75 1.948.02.9-.18 1.792-.58 2.6a117.643 117.643 0 0020.43 14.057c-.05-.351-.05-.702-.05-1.062 0-3.152 3.76-5.167 7.88-5.661a9.471 9.471 0 01-.35-2.751c0-.204.02-.408.05-.61-9.41-.318-14.65-3.83-15.25-8.747zm-12.85-9.248c-.59-.028-1.19-.087-1.77-.175a13.69 13.69 0 01-2.45 1.513l1.69 6.188 2.53-7.526zm-5.76 6.514l-.75-4.18v-.018c-.92.293-1.85.527-2.79.703.34.793.51 1.647.51 2.508v.293l.34.326c.9.053 1.8.176 2.69.368zm-426.79 23.606l-2.13-6.447a10.425 10.425 0 004.48-2.233l-2.35 8.68zm5.17-9.993c.76.176 1.53.307 2.31.393a3.217 3.217 0 00-.56 1.773c-.04.802.1 1.602.4 2.347.31.745.77 1.416 1.36 1.968l-5.76 6.02 2.25-12.501zm2.91 11.238l2.61-3.478c1.47.586 3.02.95 4.59 1.079-2.33.869-4.73 1.68-7.2 2.399zm27.26-26.824h.69c5.48 0 9.54-1.204 11.22-3.495l.98 3.72a3.116 3.116 0 00-.76 1.949c-.02.9.18 1.791.58 2.6a117.295 117.295 0 01-20.43 14.057c.06-.352.06-.703.06-1.062 0-3.153-3.77-5.168-7.89-5.661.25-.895.37-1.822.35-2.751 0-.205-.01-.409-.05-.61 9.41-.318 14.65-3.83 15.25-8.747zm12.85-9.248c.6-.028 1.19-.087 1.77-.176.76.588 1.58 1.096 2.45 1.514l-1.69 6.187-2.53-7.525zm5.76 6.514l.75-4.181v-.017c.92.292 1.85.527 2.79.702a6.362 6.362 0 00-.51 2.509v.293l-.34.326c-.9.053-1.8.176-2.69.368zM903.441 174.53l-2.135-6.447a10.424 10.424 0 004.48-2.232l-2.345 8.679zm5.163-9.992c.762.176 1.533.307 2.311.393a3.239 3.239 0 00-.557 1.773 5.548 5.548 0 001.755 4.314l-5.754 6.021 2.245-12.501zm2.91 11.238l2.615-3.478c1.466.586 3.014.95 4.589 1.079a102.35 102.35 0 01-7.204 2.399zm27.266-26.824h.683c5.483 0 9.541-1.204 11.22-3.495l.979 3.721a3.07 3.07 0 00-.751 1.948c-.02.9.176 1.791.573 2.6a117.414 117.414 0 01-20.423 14.056c.05-.351.05-.702.05-1.061 0-3.153-3.763-5.168-7.888-5.661a9.407 9.407 0 00.354-2.751 3.573 3.573 0 00-.05-.611c9.406-.318 14.645-3.83 15.253-8.746zm12.848-9.248a17.52 17.52 0 001.771-.176c.76.588 1.58 1.095 2.447 1.514l-1.687 6.187-2.531-7.525zm5.762 6.513l.75-4.18v-.017c.912.292 1.842.527 2.784.702a6.273 6.273 0 00-.506 2.509v.292l-.337.327a17.66 17.66 0 00-2.691.367z" clip-rule="evenodd"/><g id="Camp"><path id="Floor" fill="#003543" fill-rule="evenodd" d="M2497 215.659l-840.65-2.62L1529.17 212H532.096l-304.344 1.039L47.292 212H0v76h2497v-72.341z" clip-rule="evenodd"/><g id="Rocks"><g id="Group 988"><path id="Path" fill="#003543" d="M448.774 194.578c2.803.001 5.215 1.949 5.76 4.652l3.478 17.54-20.299-7.587v-14.605h11.061z"/><path id="Path_2" fill="#001E26" d="M440.915 196.229c2.638-.001 4.908 1.948 5.419 4.651l3.67 15.994h-19.496l-3.695-20.645h14.102z"/><path id="Path_3" fill="#003543" d="M404.791 172.371c.187-.616.766-1.008 1.381-.935l3.791.433c.566.065 1.027.506 1.138 1.089l.186.991h17.489c3.956 0 7.36 2.921 8.129 6.975l6.786 35.846h-70.593v-42.831h31.206l.487-1.568z"/><path id="Path_4" fill="#001E26" d="M424.518 182.565l6.435 34.31h-58.002V175.59h43.438c3.956 0 7.36 2.921 8.129 6.975z"/></g><g id="Group 989"><path id="Path_5" fill="#003543" d="M297.129 196.396c-2.804.001-5.216 1.949-5.76 4.652l-3.478 17.541 20.298-7.588v-14.605h-11.06z"/><path id="Path_6" fill="#001E26" d="M304.987 198.047c-2.638 0-4.907 1.948-5.419 4.651l-3.67 15.994h19.497l3.694-20.645h-14.102z"/><path id="Path_7" fill="#003543" d="M341.112 174.189c-.188-.616-.766-1.007-1.381-.934l-3.792.432c-.566.065-1.026.506-1.137 1.09l-.187.99h-17.488c-3.956 0-7.361 2.921-8.13 6.976l-6.786 35.845h70.593v-42.831h-31.206l-.486-1.568z"/><path id="Path_8" fill="#001E26" d="M321.38 184.384l-6.435 34.309h58.002v-41.285H329.51c-3.956 0-7.361 2.921-8.13 6.976z"/></g></g><g id="Fire"><g style="animation-delay:3s;animation-name:appearFireSpark;animation-timing-function:cubic-bezier(0.83, 0, 0.17, 1);animation-direction:normal;animation-iteration-count:infinite;animation-duration:7s;opacity:0" fill="#00DB81"><path d="M553.463 89.26h7.758v5.849h-7.758v-5.85z"/><path d="M534.949 89.26H554v5.849h-19.051v-5.85z"/></g><path fill="#00DB81" d="M508.297 107.361h7.216v7.249h-7.216v-7.249z" style="animation-delay:7s;animation-name:appearFireSpark;animation-timing-function:cubic-bezier(0.83, 0, 0.17, 1);animation-direction:normal;animation-iteration-count:infinite;animation-duration:7s;opacity:0"/><path fill="#00DB81" d="M552.266 107.361h7.215v7.249h-7.215v-7.249z" style="animation-delay:2s;animation-name:appearFireSpark;animation-timing-function:cubic-bezier(0.83, 0, 0.17, 1);animation-direction:normal;animation-iteration-count:infinite;animation-duration:7s;opacity:0"/><path fill="#00DB81" d="M559.484 114.605h3.606v3.622h-3.606v-3.622z" style="animation-delay:7s;animation-name:appearFireSpark;animation-timing-function:cubic-bezier(0.83, 0, 0.17, 1);animation-direction:normal;animation-iteration-count:infinite;animation-duration:7s;opacity:0"/><path fill="#00DB81" d="M577.66 110.014h22.423v7.248H577.66v-7.248z" style="animation-delay:4s;animation-name:appearFireSpark;animation-timing-function:cubic-bezier(0.83, 0, 0.17, 1);animation-direction:normal;animation-iteration-count:infinite;animation-duration:7s;opacity:0"/><path fill="#64E5B3" d="M570.441 117.262h7.216v7.248h-7.216v-7.248z" style="animation-delay:4s;animation-name:appearFireSpark;animation-timing-function:cubic-bezier(0.83, 0, 0.17, 1);animation-direction:normal;animation-iteration-count:infinite;animation-duration:7s;opacity:0"/><path fill="#00DB81" d="M521.211 118.227h3.605v3.621h-3.605v-3.621z" style="animation-delay:6s;animation-name:appearFireSpark;animation-timing-function:cubic-bezier(0.83, 0, 0.17, 1);animation-direction:normal;animation-iteration-count:infinite;animation-duration:7s;opacity:0"/><path fill="#00DB81" d="M559.484 136.012h23.594v7.248h-23.594v-7.248z" style="animation-delay:3s;animation-name:appearFireSpark;animation-timing-function:cubic-bezier(0.83, 0, 0.17, 1);animation-direction:normal;animation-iteration-count:infinite;animation-duration:7s;opacity:0"/><path fill="#64E5B3" d="M487.141 137.406h19.05v5.849h-19.05v-5.849z" style="animation-delay:1s;animation-name:appearFireSpark;animation-timing-function:cubic-bezier(0.83, 0, 0.17, 1);animation-direction:normal;animation-iteration-count:infinite;animation-duration:7s;opacity:0"/><path id="Path_9" fill="#00DB81" d="M471.914 211.958s2.553-36.122 27.795-62.72c0 8.926 2.711 13.615 2.711 13.615s13.412-26.14 23.739-35.78c-2.71 13-1.371 22.644-1.371 22.644s11.694-17.258 19.408-26.074c3.508 19.931 2.787 48.468 2.787 48.468a150.292 150.292 0 006.657-23.706c5.248 7.706 6.11 16.528 6.11 16.528a19.829 19.829 0 002.466-8.544c10.713 25.976 6.533 55.547 6.533 55.547l-96.835.022z"/><path id="Path_10" fill="#D6F9EB" d="M491.703 211.961s2.564-26.766 11.119-37.609c1.708 11.725 3.161 12.967 3.161 12.967s.217-14.84 11.298-28.052c-1.274 17.133 3.355 23.319 3.355 23.319s9.835-9.889 14.638-26.178c4.782 22.639 3.068 44.313 3.068 44.313s11.119-5.99 13.901-15.482c1.713 13.07-5.92 26.722-5.92 26.722h-54.62z"/><path id="Path_11" fill="#33E39B" d="M442.906 211.609l152.192.001s-22.665 9.315-81.377 9.315c-58.712 0-70.815-9.316-70.815-9.316z"/></g><g id="Guy 1"><g id="Face"><path id="Face_2" fill="#E6BEAA" d="M638.517 111.27c6.138-5.38 1.04 1.681.485 3.299 2.807-2.578 5.409.773 8.943 2.216 3.535 1.442 5.34 4.504 5.991 8.493l2.254 10.502 5.317 13.875-20.468 1.163 1.423-9.871c-2.592 1.919-4.925-.745-5.413-2.92-.554-2.458-4.669-21.378 1.468-26.757z"/><path id="Nose" fill="#E6BEAA" d="M636.292 123.699l-2.869 4.848a1.49 1.49 0 00-.117 1.223c.139.41.443.735.825.881a8.349 8.349 0 002.798.634c1.857.002-.637-7.586-.637-7.586z"/><path id="Shadow" fill="#D9B09B" d="M642.326 140.988c-1.16 1.117-3.477.682-4.464-1.165l5.697-3.354c-.203 2.958-.846 4.146-1.233 4.519z"/><ellipse id="Oval" fill="#E6BEAA" rx="2.16" ry="3.47" transform="matrix(1 .00393 -.01278 .99992 645.003 125.851)"/><g id="Hair" fill="#002D2D"><path id="Path_12" d="M658.827 132.513l.335-13.073c.152-6.004-6.36-10.77-14.607-10.594-1.9.038-3.79.341-5.581.896-3.429 6.295-1.776 12.97 4.383 15.672.887.383 1.841.669 2.837.851 1.292 4.415 6.814 7.146 12.633 6.248z"/><path id="Path_13" d="M656.466 115.036c.789-2.31-4.825-5.75-9.21-5.986-4.384-.236-17.091 2.461-22.935 1.538 5.279 6.095 11.5 9.283 17.418 9.173 5.129-.12 14.727-4.725 14.727-4.725z"/></g></g><g id="Bottle"><path id="Rectangle 109" fill="#F5F5EB" d="M595.872 140.529h5.519v2.553a10.24 10.24 0 011.91 5.958v16.189h-9.195l-.001-16.271c0-2.089.615-4.132 1.767-5.876v-2.553z"/><rect id="Rectangle 110" width="6.27" height="2.17" x="595.5" y="138.49" fill="#002021" rx=".6"/><path id="Vector 181" fill="#002021" d="M601.391 142.238c-1.569.159-4.331.067-5.516 0v.794c2.187.234 3.231.216 5.516.047v-.841z"/><path id="Subtract" fill="#002021" fill-rule="evenodd" d="M595.876 142.26c-1.731-.022-5.132 1.51-5.645 7.623-.063.751.009 1.538.418 2.17.407.628.97.998 1.59.297.637-.719.671-1.758.702-2.724l.004-.123c.08-2.34.728-5.448 2.931-6.503v-.74zm-1.413.719c-1.387.501-3.586 3.013-3.784 7.128-.019.398.028.801.191 1.164.292.65.753 1.167 1.247.396.25-.391.303-.871.293-1.334l-.001-.048c-.042-1.835-.089-3.879 2.352-7.027.157-.202.128-.434-.298-.279z" clip-rule="evenodd"/><g id="Artwork_23"><path id="Shape" fill="#003C3C" fill-rule="evenodd" d="M600.405 154.915l-1.92.253.439-.677 1.261-.167-.588-1.742-.434.674-.813 1.242c-.297.478-.766.808-1.208.849l-1.206.159c-.128.025-.234-.034-.273-.151-.04-.116-.007-.272.085-.404l2.218-3.388a.513.513 0 01.339-.238c.125-.017.225.044.263.159l.399 1.19.455-.695a.51.51 0 01.341-.248c.126-.016.226.048.26.169l.798 2.38c.038.114.01.266-.076.397a.513.513 0 01-.34.238zm-4.029-.262l.79-.107c.241-.015.501-.2.66-.47l.549-.852-.367-1.106-1.632 2.535z" clip-rule="evenodd"/></g></g><path id="Hand" fill="#E6BEAA" d="M602.106 156.456c3.836-1.517 5.936 2.807 6.55 4.518.478 1.644 3.07 5.012-5.117 5.341-10.234.411-13.918-2.26-12.281-9.038.531-2.195 3.832 1.953 10.848-.821z"/><g id="Legs"><path id="Vector 83" fill="#000" d="M600.922 190.568c10.015-.914 34.027 6.881 43.207 10.459-3.278 6.761-16.956 8.346-21.811 8.727l-23.153-3.016c-3.11-4.568-8.258-15.256 1.757-16.17z"/><path id="Vector 87" fill="#001D1F" d="M621.678 204.034c16.801 0 19.809-4.454 19.263-5.432-3.642 3.471-22.306 3.579-31.183 3.198-6.525 1.066-13.402 4.691-13.403 9.442 0 .665 4.127-7.208 25.323-7.208z"/><path id="Vector 82" fill="#000D0E" d="M660.242 221.929c16.801 0 16.085-11.192 13.657-17.588-9.484-3.197-29.362-8.725-33.004-5.253-3.642 3.472-22.306 3.579-31.183 3.198-6.525 1.066-13.403 4.69-13.403 9.441 0 14.399 42.737 10.202 63.933 10.202z"/></g><g id="Teeshirt"><path id="Path_14" fill="#003543" d="M666.685 141.835c-2.222-1.5-4.012-2.235-6.855-2.753-.573-1.41-1.187-1.927-2.337-1.484-1.15.443-19.886 12.173-19.886 12.173-.09 1.963 3.676 7.901 12.785 6.143 9.109-1.757 16.293-14.079 16.293-14.079z"/><path id="Vector 84" fill="#003543" d="M631.332 167.564l9.333-9.822c2.959 0 5.462 12.791 5.917 16.902.456 4.112-7.335 5.025-12.746 5.025-2.147 0-26.175-10.278-28.907-12.105-2.185-1.462.911-6.091 2.732-8.223l23.671 8.223z"/><path id="Vector 81" fill="#003543" d="M675.725 203.177c2.549-37.824-5.008-56.72-9.105-61.441-6.449.305-20.394 1.873-24.582 5.71-4.188 3.838-3.895 35.553-2.605 51.846 7.578 5.835 36.292 9.002 36.292 3.885z"/><path id="Vector 673" fill="#012833" d="M656.929 159.479c-2.683 6.972-14.063 17.82-18.335 19.932l.038 2.255c10.249-2.455 18.776-16.091 18.297-22.187z"/></g></g><path id="Moon" fill="#003543" fill-rule="evenodd" d="M238 26.984c0 8.938 7.221 16.184 16.129 16.184a16.04 16.04 0 0010.755-4.124 12.46 12.46 0 01-4.178.717c-6.915 0-12.521-5.625-12.521-12.565 0-6.939 5.606-12.564 12.521-12.564 1.75 0 3.417.36 4.93 1.012a16.05 16.05 0 00-11.507-4.845c-8.908 0-16.129 7.246-16.129 16.185z" clip-rule="evenodd"/><g id="Food"><path id="Vector 654" stroke="#24240F" stroke-linecap="round" d="M495.438 175.199l-20.908 8.598"/><rect id="Rectangle 180" width="5.78" height="4.36" fill="#FCBBCF" rx="1" transform="matrix(-.91595 .40129 .39895 .91697 492.988 173.771)"/><rect id="Rectangle 181" width="5.78" height="4.34" fill="#FCBBCF" rx="1" transform="matrix(-.91595 .40129 .39895 .91697 486.535 176.602)"/></g><g id="Girl"><path id="Leg right" fill="#9C9C6A" d="M480.404 232.999l7.521.559h.247l-1.055-3.872-19.804-35.819-2.507 22.361 15.598 16.771z"/><g id="Shoe rirght"><path id="Vector 325" fill="#003C3C" d="M481.724 241.115c1.228.056 10.456-.204 15.826-.085a1.63 1.63 0 001.599-1.15c-.225-.518-12.81-1.02-18.352-1.001.152 1.172-.011 2.193.927 2.236z"/><path id="Vector 326" fill="#2E6160" d="M496.196 236.081c-6.637-1.382-7.818-4.738-8.549-6.87-.196-.572-.854-.771-1.36-.438l-6.145 4.05a.934.934 0 00-.43.73c-.116 2.444.81 5.399 1.287 5.93 1.011 1.122 13.345.093 18.128.491.356-.952.898-3.096-2.931-3.893z"/></g><g id="Leg left"><path id="Leg left_2" fill="#B4B48C" d="M504.081 238.869c.891.224 1.013-3.331 1.849-4.915-.654-3.767-.967-9.79-2.862-15.305-1.315-3.828-3.411-11.314-4.832-14.927-1.421-3.613-5.297-6.873-6.69-10.413l-8.913.838-17.099 27.41-41.556 14.771s1.586 14.333 14.514 19.099c19.483 7.183 24.289 3.183 33.447-3.478 15.74-11.449 16.129-35.153 17.8-35.432 1.337-.224 1.807 11.172 8.497 19.811 1.764.745 4.953 2.318 5.845 2.541z"/><path id="Shadow 3" fill="#A8A881" d="M472.539 232.776c-2.587-1.785-6.299-8.685-6.938-11.34-4.876 2.061-7.19 2.597-3.773 4.24 0 0 .671 4.913 2.548 4.011.996-.478 6.252 2.114 8.163 3.089.243.167.476.29.695.359 0 0-.261-.138-.695-.359z"/><path id="Shadow 2" fill="#A8A881" d="M432.314 251.688c31.656 9.962 46.279-7.285 49.991-12.915-2.104 5.837-9.578 18.006-22.645 19.993-13.067 1.986-23.675-3.891-27.346-7.078z"/><path id="Shadow 1" fill="#A8A881" d="M489.831 216.54c.366-.012 1.188 2.839 1.553 4.265.295-2.227-.913-7.504-1.554-9.909-1.054 3.171-1.427 8.102-1.482 10.214.341-1.518 1.116-4.558 1.483-4.57z"/></g><path id="Shadow 2_2" stroke="#244949" d="M496.59 235.939c-.141.485.084 2.105.095 3.077 0 0 .025.952 0 1.277"/><path id="Shadow 1_2" fill="#002F2F" d="M498.771 240.725a.5.5 0 01-.028 1.001l.028-1.001zm-2.109-.193l-.498-.05.498.05zm.019-.247l.499.027v.002l-.001.004v.016l-.004.055-.016.192-.995-.099a3.572 3.572 0 00.017-.211l.001-.01v-.003l.499.027zm.478.296c-.013.128-.005.083-.015.044-.026-.094-.089-.122-.058-.105.051.026.182.073.466.115.277.041.669.073 1.219.09l-.028 1.001a12.005 12.005 0 01-1.336-.101c-.323-.048-.581-.115-.778-.216-.215-.112-.384-.282-.449-.523-.051-.186-.017-.384-.016-.404l.995.099z"/><g id="Shoe left"><path id="Vector 248" fill="#003C3C" d="M498.72 245.419c1.455.07 12.398-.21 18.764-.052a1.936 1.936 0 001.9-1.359c-.265-.616-15.186-1.249-21.757-1.244.176 1.39-.02 2.601 1.093 2.655z"/><path id="Vector 247" fill="#2E6160" d="M515.888 239.497c-8.086-1.705-8.735-6.319-9.431-8.957-.155-.588-.817-.787-1.323-.451l-8.348 5.543a.947.947 0 00-.43.726c-.173 2.914.933 6.489 1.504 7.126 1.194 1.334 15.822.152 21.492.638.425-1.128 1.074-3.668-3.464-4.625z"/></g><g id="Face_3"><path id="Face_4" fill="#E6BEAA" d="M469.883 145.731c2.3 1.921 1.93 23.033-4.228 23.033-18.373-.001-9.948-23.848 4.228-23.033z"/><path id="Nose_2" fill="#E6BEAA" d="M473.221 158.093c.51-.649-1.221-3.285-2.325-4.782l-.378 5.599c.445.097 2.3-.306 2.703-.817z"/><path id="Neck" fill="#E6BEAA" d="M461.252 172.124c-.369 1.855.514 4.793 1.541 6.03-8.988 0-17.019 3.776-14.905-4.499 2.733-10.699 3.246-10.499 2.733-11.581l13.199 2.835c-.719.412-2.198 5.36-2.568 7.215z"/><path id="Shadow_2" fill="#D1B0A0" d="M462.165 168.694c2.029.362 4.999.242 5.663-.987 0 0-2.84.452-4.747 0s-4.946-2.021-4.946-2.021l4.03 3.008z"/></g><g id="Teeshirt_2"><path id="Teeshirt_3" fill="#28AAF0" d="M446.524 171.289c-12.385 1.814-15.788 19.537-17.141 22.795-1.841 4.434-7.685 35.809-6.968 42.988 2.838 18.34 13.765 17.635 23.133 12.867 17.073-8.691 19.476-20.664 19.476-22.062-.836-8.385 1.311-22.708 1.95-25.156.634-2.43 1.392-5.311 4.178-6.988 2.228-1.342 10.306 3.075 12.256 3.075l11.699 3.913c5.067 1.306 6.051-2.085 6.406-3.913 0-1.949.991-9.923-10.3-13.068-11.292-3.144-18.222-5.415-23.605-8.172 0 0-7.318-8.727-21.084-6.279z"/><path id="Shadow_3" fill="#218FC9" d="M465.933 192.014c.337.892 1.99 3.367 6.294 3.463-2.553.474-3.983 2.986-4.713 5.641l-1.581-9.104z"/></g><g id="Hair_2"><path id="Union_2" fill="#24240F" d="M447.434 143.507c-3.229-3.066-8.755-6.352-12.139-1.437-3.228 4.686.043 14.154 2.386 20.936 1.162 3.363 2.095 6.066 1.895 7.197-.483 2.73-1.776 4.786-2.363 5.472 2.033-.002 5.884-3.039 5.024-15.169-.76-10.723.923-11.161 2.181-9.715-.875 5.2 0 17.313 12.983 17.313 3.082 0 6.81-.409 4.857-11.931-.738-1.74-1.326-3.943 2.885-3.923 3.194-2.496 8.707-9.423 4.555-12.083-5.19-3.326-15.768-2.812-19.362.053-.788.628-1.868 1.768-2.902 3.287z"/><ellipse id="Oval_2" fill="#28AAF0" rx="2.36" ry="4.83" transform="matrix(-.9418 -.33618 -.33411 .94253 445.208 146.068)"/></g></g><g id="Guy 2"><g id="legs"><path id="Vector 644" fill="#5A7D7D" d="M361.8 172.257c-3.664-4.156-.909-15.39-1.533-18.073l12.017 4.436s18.185 5.665 25.479 14.985c1.375 1.756 1.937 3.97 2.204 6.186l3.161 26.27-5.9 3.412-8.18-27.418c-.418-1.403-1.794-2.402-3.248-2.573-6.246-.732-21.023-3.847-24-7.225z"/><path id="Shadow 1_3" fill="#4F6B6B" d="M381.083 178.753c.463.1 3.49.546 4.281.651-.526-4.017-12.155-9.709-14.86-10.249.469 1.396.001 7.318 10.579 9.598z"/><path id="Vector 302" fill="#5A7D7D" d="M344.417 175.624c-3.663-4.156-.908-15.39-1.533-18.073l12.017 4.436s16.177 5.039 24.135 13.431c2.445 2.578 3.003 6.262 2.732 9.807l-2.005 26.253-7.38.534-1.389-27.946c-.029-.58-.542-1.042-1.122-1.079-4.966-.315-22.212-3.683-25.455-7.363z"/><path id="Vector 645" fill="#4F6B6B" d="M362.489 181.802c-8.899-1.741-17.084-9.834-20.028-13.581 0 2.664.637 4.911.637 5.087 1.285 5.532 13.451 7.614 19.391 8.494z"/></g><g id="Shoe right"><path id="Vector 647" fill="#00DC82" d="M371.382 219.333c-.049-.08-.134-.475-.171-.663 4.754.42 14.362 1.573 14.692 2.132.412.7-.604 1.384-.604 1.384-2.784 1.179-13.857-2.753-13.917-2.853z"/><path id="Vector 646" fill="#000606" d="M371.278 218.842c-.386-.435.093-4.497.333-6.763.049-.457.398-.825.852-.894l7.108-1.076c.615-.094 1.112.389.938.986-.427 1.468-1.19 3.489-.349 4.394 1.382 1.484 6.054 3.394 5.857 5.684-.198 2.289-14.195-1.718-14.739-2.331z"/></g><g id="Shoe left_2"><path id="Vector 648" fill="#00DC82" d="M397.433 214.983c-.068-.064-.26-.42-.347-.59 4.684-.918 14.234-2.479 14.706-2.033.589.558-.198 1.498-.198 1.498-2.351 1.905-14.075 1.204-14.161 1.125z"/><path id="Vector 649" fill="#000606" d="M397.2 214.541c-.49-.31-1.151-4.346-1.546-6.591a1.013 1.013 0 01.572-1.095l6.533-3.01c.566-.261 1.176.065 1.174.688-.006 1.528-.18 3.683.877 4.318 1.737 1.043 6.754 1.58 7.196 3.835.442 2.254-14.114 2.293-14.806 1.855z"/></g><g id="Face_5"><path id="Vector 289" fill="#E6BEAA" d="M357.467 112.7c.834.558 2.43-2.554 3.125-4.18-1.042-1.277-2.847-4.39-1.736-6.619 1.111-2.23 3.24.929 4.166 2.787.347-3.6 1.528-10.8 3.472-10.8 1.388 3.066 7.753 4.297 10.761 4.53.263 1.939.366 3.665.34 5.197-.013.768.074.929 0 1.602-.079.716.658 3.904.52 4.52-.161.72-1.904-.28-2.133.313-.282.454-1.804 2.296-2.121 2.65-1.953 2.18-3.529 2.54-4.946 2.229-1.357-.298 1.165 4.855 1.744 6.48-7.29 2.787-14.233-9.406-13.192-8.709z"/><path id="Shadow_4" fill="#D1B0A0" d="M365.03 111.582l3.553 4.33c-.137-.506.206-1.003.206-1.003-1.371-1.131-3.759-3.327-3.759-3.327z"/><path id="Hair_3" fill="#000808" d="M366.681 106.016c0 .974-.321 3.196-.709 3.86-.736.935-1.738.935-2.592.935 0 0-3.419-.035-3.724-.935 0 0-.15-.08-.344-.99-1.441-5.025 0-9.179 0-9.179.178-.853.981-3.842.981-3.842.251-1.028 1.06-2.458 1.483-3.25.495-.927 1.509-.874 2.51-1.5 5.48-3.426 10.257-.846 10.802.91.194-.572.292-1.92 0-2.666 2.883 1.994 4.237 11.283 2.294 10.348-1.944-.935-8.14-1.724-8.448-1.38-.487.546-.692 1.725-.936 2.414-.105.295-.209.65-.32 1.057.048-.996-1.48-1.63-1.706-1.087-1.182 2.828.709 4.331.709 5.305z"/></g><g id="Teeshirt_4" fill="#001E26"><path id="Vector 637" d="M383.753 136.242c1.457 5.9.905 12.757.905 12.757-2.242 1.142-1.853-2.092-2.85-1.596 0 0-8.216 1.967-12.678-28.717.726-1.582-.135-2.453-.58-2.921 6.936-.29 14.527 17.737 15.203 20.477z"/><path id="Vector 639" d="M342.311 168.104c1.485 3.665 28.179.774 32.997-6.091 3.804-24.774-1.692-42.202-4.818-45.192 0 0-1.172-1.14-1.799-1.11-3.804 1.629-8.565-1.998-9.395-4.002-1.087-.404-3.005-.354-10.593 2.961-9.485 4.144-8.248 48.853-6.392 53.434z"/><path id="Vector 641" d="M396.043 136.341c-3.824 8.992-23.114 5.097-23.563 4.947 0 0 8.942-4.869 9.889-6.545 2.222-1.758 11.262-2.947 12.11-2.222-2.692 4.022-.679 4.095 1.564 3.82z"/></g><g id="Guitar"><path id="Vector 632" fill="#004545" d="M336.679 137.743c-9.062 8.161-.007 23.55 6.968 29.934 4.261 3.899 14.144.475 17.043-4.19 2.9-4.665 1.341-6.361 4.969-8.361 1.969-1.086 4.034-1.018 4.435-1.171 17.746 2.594 16.765-6.249 11.008-21.024-5.756-14.776-17.298-7.066-18.833-4.252-1.229 2.251-3.804 2.843-4.939 2.857-4.579-.554-11.588-1.954-20.651 6.207z"/><path id="Shadow_5" fill="#013838" d="M345.065 142.951c1.702-5.434 7.258-10.138 10.352-11.659-3.223-.646-8.708-1.596-9.095-1.441-.386.155-3.964 3.105-5.705 4.561l4.448 8.539z"/><path id="Vector 633" fill="#005757" d="M406.232 122.074l-48.021 20.886 1.361 3.589 48.329-20.074 5.571-.196c5.537-.686 12.329-4.963 12.64-6.635.257-1.38-1.194-4.957-2.642-6.009-1.448-1.052-11.899 3.943-13.038 4.629-.912.548-3.18 2.769-4.2 3.81z"/><ellipse id="Ellipse 31" fill="#2E6160" rx="5.1" ry="5.11" transform="rotate(-20.901 571.208 -900.38) skewX(-.133)"/><path id="Rectangle 174" fill="#003C3C" d="M0 0h.29v3.35H0z" transform="rotate(-20.901 521.01 -1058.23) skewX(-.133)"/><path id="Rectangle 175" fill="#003C3C" d="M0 0h.29v3.35H0z" transform="rotate(-20.901 518.933 -1069.498) skewX(-.133)"/><path id="Rectangle 176" fill="#003C3C" d="M0 0h.29v3.35H0z" transform="rotate(-20.901 517.833 -1081.647) skewX(-.133)"/><path id="Rectangle 177" fill="#003C3C" d="M0 0h.29v3.35H0z" transform="rotate(-20.901 537.2 -1084.766) skewX(-.133)"/><path id="Rectangle 178" fill="#003C3C" d="M0 0h.29v3.35H0z" transform="rotate(-20.901 540.216 -1073.367) skewX(-.133)"/><path id="Rectangle 179" fill="#003C3C" d="M0 0h.29v3.35H0z" transform="rotate(-20.901 542.375 -1061.715) skewX(-.133)"/><ellipse id="Ellipse 32" fill="#003C3C" rx=".58" ry=".59" transform="rotate(-20.901 520.46 -1058.548) skewX(-.133)"/><ellipse id="Ellipse 33" fill="#003C3C" rx=".58" ry=".59" transform="rotate(-20.901 518.379 -1069.805) skewX(-.133)"/><ellipse id="Ellipse 34" fill="#003C3C" rx=".58" ry=".59" transform="rotate(-20.901 516.665 -1081.849) skewX(-.133)"/><ellipse id="Ellipse 35" fill="#003C3C" rx=".58" ry=".59" transform="rotate(-20.901 552.007 -1064.292) skewX(-.133)"/><ellipse id="Ellipse 36" fill="#003C3C" rx=".58" ry=".59" transform="rotate(-20.901 549.921 -1075.55) skewX(-.133)"/><ellipse id="Ellipse 37" fill="#003C3C" rx=".58" ry=".59" transform="rotate(-20.901 547.03 -1087.384) skewX(-.133)"/><path id="Vector 634" stroke="#558887" stroke-width=".5" d="M355.437 144.169l50.818-20.95"/><path id="Vector 635" stroke="#558887" stroke-width=".5" d="M356.769 145.126l49.937-20.636"/><path id="Vector 636" stroke="#558887" stroke-width=".5" d="M359.242 145.679l47.911-19.915"/></g><path id="hand" fill="#E0B09B" d="M358.724 148.051c2.173-.74 2.7-.383 3.422-.729.722-.345 2.641-1.439 3.277-1.851.474-.31 1.968-3.579 1.592-3.713 0 0 .025.009.001-.002-.297-.135-.846-.031-1.329.251l-.957.559s-1.83.655-2.807.733c-.976.078-.938-.165-.381-.52.331-.21 1.074-.626 1.623-.928a.949.949 0 00.364-.326c.066-.115.058-.216-.02-.276-.115-.09-.366-.074-.621.04l-1.74.774a5.447 5.447 0 00-.977.562l-2.108 1.532-1.863 1.033 1.137 2.842 1.387.019z"/><path id="Arm" fill="#001E26" d="M350.69 127.667c2.503-3.971 8.729-12.999 8.576-15.938-21.179 0-24.764 25.36-22.821 32.236 2.153 7.616 21.444 4.373 21.949 4.133 1.909-.905 1.236-2.728.319-4.476-.813-1.548-11.145-1.829-12.755-3.244-1.611-1.415 1.603-7.747 4.732-12.711z"/><g id="Hand_2"><path id="Vector 642" fill="#E6BEAA" d="M394.121 132.619c-.499.215-4.769 1.923-5.41 2.139 1.354 1.426 4.412 3.972 5.815 2.75 1.402-1.223 2.676-1.806 3.137-1.945 4.397-4.632 2.549-10.203 1.836-10.328-.713-.124-.133 3.877-.196 3.709-.063-.169-1.251-3.563-1.901-3.584-.52-.017.825 3.348.783 3.839-.14-.112-2.108-2.724-2.628-2.724s1.282 2.735 1.331 3.163c-2.694-1.834-1.328-.282-1.164.467.774 3.538-1.105 2.299-1.603 2.514z"/><path id="Vector 643" fill="#001E26" d="M394.368 132.49c-.366 1.867-.308 4.012 1.935 3.736-.329.76-1.788 2.411-1.788 2.411-.455.774-1.957.425-2.441.973-.48.544-5.505.661-5.998 1.015l-1.617-3.22-.494-.96s2.047-.866 2.624-1.106l2.923-1.216 1.919-.791 2.38-.996c0 .003.453.049.557.154z"/></g></g><g id="Music" fill="#003543"><path d="M390.59 22.431l-6.526 4.005a.741.741 0 00-.315.812l1.551 5.809c-.247.006-.492.04-.732.103-1.173.316-1.955 1.209-1.746 1.994.21.786 1.332 1.167 2.506.851 1.174-.316 1.956-1.209 1.746-1.994l-1.386-5.193 5.224-3.191 1.095 4.103c-.247.005-.493.04-.732.103-1.173.315-1.956 1.208-1.746 1.994.21.785 1.332 1.166 2.506.85 1.174-.315 1.956-1.208 1.746-1.994l-2.089-7.822a.737.737 0 00-.443-.495.728.728 0 00-.659.065z" style="animation-delay:7s;animation-duration:5s;animation-name:appearFadeOutUp;animation-timing-function:ease-in-out;animation-direction:normal;animation-iteration-count:infinite;opacity:0"/><path d="M401.154 34.963c-.139-.554-.3-1.121-.479-1.684.508.086 1.626.501 2.033 1.478-.027-.59-.197-1.867-.654-2.249-.456-.382-2.567-1.746-3.566-2.381l1.409 4.626 1.016 3.761a2.51 2.51 0 00-.578.082c-.927.249-1.544.954-1.379 1.574.166.62 1.052.921 1.979.672.927-.25 1.545-.954 1.379-1.575l-1.095-4.1-.065-.204z" style="animation-delay:4s;animation-duration:4s;animation-name:appearFadeOutUp;animation-timing-function:ease-in-out;animation-direction:normal;animation-iteration-count:infinite;opacity:0"/><path d="M378.342 47.38l-3.324.173a.321.321 0 00-.289.245l-.607 2.545a1.376 1.376 0 00-.302-.113c-.514-.124-.998.055-1.08.4-.082.343.268.723.783.846.514.124.998-.055 1.08-.399l.543-2.275 2.658-.133-.429 1.797a1.388 1.388 0 00-.301-.113c-.514-.123-.998.055-1.08.4-.083.343.268.723.782.846.515.124.998-.055 1.08-.399l.819-3.427a.34.34 0 000-.149.326.326 0 00-.333-.245z" style="animation-delay:2s;animation-duration:3s;animation-name:appearFadeOutUp;animation-timing-function:ease-in-out;animation-direction:normal;animation-iteration-count:infinite;opacity:0"/><path d="M419.544 73.45l-8.634 5.298a.973.973 0 00-.417 1.074l2.053 7.686a4.212 4.212 0 00-.969.136c-1.553.418-2.587 1.6-2.31 2.638.277 1.04 1.762 1.544 3.315 1.126 1.553-.418 2.588-1.599 2.311-2.638l-1.835-6.87 6.912-4.223 1.449 5.428a4.179 4.179 0 00-.968.137c-1.553.417-2.588 1.599-2.311 2.638.278 1.039 1.763 1.543 3.316 1.125 1.553-.417 2.588-1.599 2.31-2.638l-2.763-10.35a.98.98 0 00-.586-.654.968.968 0 00-.873.086z" style="animation-delay:5s;animation-duration:4s;animation-name:appearFadeOutUp;animation-timing-function:ease-in-out;animation-direction:normal;animation-iteration-count:infinite;opacity:0"/><path d="M398.538 61.375a52.8 52.8 0 001.019-3.082c.689.664 1.971 2.472 1.579 4.396.572-.934 1.64-3.069 1.337-4.133-.303-1.064-2.119-5.369-2.989-7.388l-2.655 8.568-2.356 6.832a4.664 4.664 0 00-.971-.48c-1.681-.59-3.362-.156-3.753.968-.392 1.124.654 2.514 2.335 3.104 1.68.59 3.361.155 3.752-.97l2.59-7.434.112-.38z" style="animation-delay:6s;animation-duration:6s;animation-name:appearFadeOutUp;animation-timing-function:ease-in-out;animation-direction:normal;animation-iteration-count:infinite;opacity:0"/><path d="M373.353 64.95a52.177 52.177 0 00-1.468-2.894c.955-.026 3.138.33 4.225 1.964-.259-1.065-1.021-3.329-1.988-3.86-.967-.532-5.294-2.263-7.337-3.062l4.205 7.919 3.185 6.484a4.656 4.656 0 00-1.024.355c-1.599.785-2.473 2.29-1.952 3.36.522 1.07 2.242 1.3 3.841.516 1.599-.785 2.474-2.29 1.952-3.36l-3.448-7.075-.191-.347z" style="animation-delay:3s;animation-duration:4s;animation-name:appearFadeOutUp;animation-timing-function:ease-in-out;animation-direction:normal;animation-iteration-count:infinite;opacity:0"/></g></g></g></g><defs><clipPath id="clip0"><path fill="#fff" d="M0 0h2496v288H0z"/></clipPath></defs><style>@keyframes appearFadeOutUp{0%{opacity:0;transform:translateY(0)}20%{opacity:1}100%{opacity:0;transform:translateY(-20px)}}@keyframes appearFireSpark{0%{opacity:0;width:100%;transform:translateX(20px)}20%{width:0;opacity:1}100%{width:100%;opacity:0;transform:translateX(-20px)}}</style></svg>