<svg width="54" height="54" viewBox="0 0 54 54" fill="none" xmlns="http://www.w3.org/2000/svg">
<rect width="54" height="54" rx="5.4" fill="#4CE6A7"/>
<path d="M41.175 0H48.6001C51.5824 0 54 2.41766 54 5.4V48.6C54 51.5823 51.5824 54 48.6 54H41.175L43.7441 48.8618C44.0535 48.243 44.2411 47.5706 44.2967 46.881L45.869 27.3852C45.8897 27.1287 45.892 26.8711 45.8759 26.6143L44.6354 6.7652C44.5794 5.86922 44.3009 5.00133 43.8251 4.24005L41.175 0Z" fill="#00DC82"/>
<path d="M25.9621 18.0357C21.8463 18.501 18.4821 21.7936 17.981 25.9094C17.5516 29.4884 19.2337 32.7452 21.9179 34.5705C22.6337 35.0357 23.0631 35.8231 23.0631 36.682V37.4336H30.8295V36.7178C30.8295 35.8947 31.2231 35.0715 31.9389 34.6062C34.4084 32.9957 36.0189 30.2041 36.0189 27.0189C36.0547 21.6863 31.4379 17.4273 25.9621 18.0357Z" fill="#098466"/>
<path d="M23.099 41.4062C23.099 41.7284 23.2422 42.0147 23.4927 42.2294L24.6022 43.1599C24.7811 43.3031 25.0316 43.4105 25.2822 43.4105H28.7179C28.9685 43.4105 29.219 43.3389 29.3979 43.1599L30.5074 42.2294C30.7579 42.0147 30.9011 41.7284 30.9011 41.4062V39.402H23.099V41.4062Z" fill="#098466"/>
<path d="M27.0001 15.2441C27.6085 15.2441 28.1096 14.7431 28.1096 14.1347V11.0926C28.1096 10.4841 27.6085 9.98309 27.0001 9.98309C26.3917 9.98309 25.8906 10.4841 25.8906 11.0926V14.0989C25.8906 14.7431 26.3559 15.2441 27.0001 15.2441Z" fill="#098466"/>
<path d="M19.5916 16.4252C19.8063 16.7831 20.1642 16.9979 20.5579 16.9979C20.7368 16.9979 20.9516 16.9621 21.0947 16.8547C21.6316 16.5326 21.8105 15.8526 21.4884 15.3515L19.9852 12.7389C19.6631 12.2021 18.9831 12.0231 18.4821 12.3452C17.9452 12.6673 17.7663 13.3473 18.0884 13.8484L19.5916 16.4252Z" fill="#098466"/>
<path d="M12.6842 20.0399L15.2969 21.5431C15.4758 21.6505 15.6548 21.6863 15.8337 21.6863C16.2274 21.6863 16.5853 21.4715 16.8 21.1136C17.1221 20.5768 16.9074 19.8968 16.4063 19.6105L13.7937 18.1073C13.2569 17.7852 12.5769 17.9999 12.2905 18.501C11.9684 19.0378 12.1474 19.7178 12.6842 20.0399Z" fill="#098466"/>
<path d="M15.2253 27.0189C15.2253 26.4105 14.7242 25.9094 14.1158 25.9094H11.1095C10.5011 25.9094 10 26.4105 10 27.0189C10 27.6273 10.5011 28.1284 11.1095 28.1284H14.1158C14.76 28.1284 15.2253 27.6273 15.2253 27.0189Z" fill="#098466"/>
<path d="M15.2969 32.4948L12.6842 33.9979C12.1474 34.32 11.9684 35 12.2905 35.5011C12.5053 35.859 12.8632 36.0737 13.2569 36.0737C13.4358 36.0737 13.6505 36.0379 13.7937 35.9305L16.4063 34.4274C16.9432 34.1053 17.1221 33.4253 16.8 32.9242C16.5137 32.3516 15.8337 32.1727 15.2969 32.4948Z" fill="#098466"/>
<path d="M41.3157 33.9621L38.7031 32.4589C38.1662 32.1368 37.4862 32.3516 37.1999 32.8526C36.8778 33.3895 37.0925 34.0695 37.5936 34.3558L40.2062 35.8589C40.3852 35.9663 40.5641 36.0021 40.7431 36.0021C41.1367 36.0021 41.4946 35.7874 41.7094 35.4295C42.0315 34.9642 41.8525 34.2842 41.3157 33.9621Z" fill="#098466"/>
<path d="M42.8906 25.8737H39.8843C39.2758 25.8737 38.7748 26.3747 38.7748 26.9831C38.7748 27.5916 39.2758 28.0926 39.8843 28.0926H42.8906C43.499 28.0926 44 27.5916 44 26.9831C44 26.3747 43.499 25.8737 42.8906 25.8737Z" fill="#098466"/>
<path d="M38.1305 21.6505C38.3095 21.6505 38.5242 21.6147 38.6674 21.5073L41.28 20.0042C41.8168 19.6821 41.9958 19.0021 41.6737 18.501C41.3516 17.9642 40.6716 17.7852 40.1705 18.1073L37.5579 19.6105C37.021 19.9326 36.8421 20.6126 37.1642 21.1136C37.3789 21.4715 37.7368 21.6505 38.1305 21.6505Z" fill="#098466"/>
<path d="M32.8695 16.8189C33.0485 16.9263 33.2274 16.9621 33.4064 16.9621C33.8001 16.9621 34.1579 16.7473 34.3727 16.3894L35.8758 13.7768C36.198 13.24 35.9832 12.56 35.4822 12.2736C34.9453 11.9515 34.2653 12.1305 33.979 12.6673L32.4758 15.28C32.1537 15.8168 32.3327 16.4968 32.8695 16.8189Z" fill="#098466"/>
</svg>
