<svg width="152" height="32" viewBox="0 0 152 32" fill="none" xmlns="http://www.w3.org/2000/svg">
<g clip-path="url(#clip0)">
<path d="M14.2337 7.33781C14.146 7.22292 14.0443 7.16232 13.937 7.16232C13.8557 7.16555 13.777 7.19158 13.7098 7.23744C12.8727 7.89459 11.7276 10.6797 10.7889 14.3499L11.6197 14.3594C13.2609 14.3777 14.9552 14.3972 16.6306 14.4225C16.1887 12.7414 15.7715 11.3003 15.3889 10.1375C14.8296 8.43811 14.4521 7.6768 14.2337 7.33781Z" fill="#007FD2"/>
<path d="M16.0972 0.261993C7.41671 0.261993 0.378754 7.29932 0.378754 15.9805C0.378754 24.6616 7.41671 31.6989 16.0972 31.6989C24.7777 31.6989 31.8157 24.6616 31.8157 15.9805C31.8157 7.29932 24.7777 0.261993 16.0972 0.261993ZM27.3968 16.2658L27.3931 16.2689C27.3766 16.2822 27.359 16.2955 27.3413 16.3081L27.3236 16.3201L27.287 16.3422C27.2758 16.3493 27.2642 16.3558 27.2523 16.3617V16.3617C27.1329 16.4244 27.0001 16.4571 26.8653 16.4571H19.4202C19.4802 16.7039 19.5464 16.9842 19.6159 17.2891C20.0237 19.0522 21.1076 23.7355 22.259 23.7355H22.2836H22.2962H22.3183C23.2179 23.7355 23.6768 22.4351 24.683 19.5862L24.695 19.5515C24.8573 19.0938 25.0397 18.5775 25.2367 18.0314L25.2872 17.8919C25.3178 17.8145 25.3742 17.7501 25.447 17.7097C25.5197 17.6693 25.6043 17.6553 25.6862 17.6702C25.768 17.6851 25.8422 17.7279 25.8961 17.7913C25.95 17.8548 25.9802 17.935 25.9816 18.0182C25.9817 18.0532 25.9766 18.0881 25.9664 18.1217V18.1217L25.9247 18.2618C25.8199 18.6008 25.7082 19.0629 25.5794 19.5976C24.9797 22.0829 24.0739 25.8376 21.7489 25.8376H21.7325C20.2301 25.8256 19.3337 23.4243 18.948 22.3991C18.2303 20.482 17.6855 18.4392 17.1634 16.4608H10.3111L8.88819 21.0116L8.86736 20.9952C8.7835 21.1271 8.65919 21.2282 8.51303 21.2836C8.36687 21.3389 8.20673 21.3454 8.05657 21.3021C7.9064 21.2588 7.77429 21.1681 7.68 21.0435C7.58571 20.9189 7.53431 20.767 7.5335 20.6108V20.5861L7.61935 20.071C7.81567 18.9013 8.05113 17.6861 8.32005 16.4583H5.42886L5.41813 16.4476C5.16004 16.4079 4.9246 16.2773 4.75424 16.0794C4.58388 15.8815 4.48979 15.6293 4.48891 15.3681C4.48741 15.1128 4.57605 14.8652 4.73923 14.6689C4.90241 14.4726 5.12964 14.3402 5.38089 14.295C5.49326 14.2831 5.60627 14.2782 5.71925 14.2805H5.86002C6.77788 14.2962 7.75381 14.3108 8.81812 14.3246C10.3287 8.18624 12.0786 5.07033 14.0197 5.06149C16.1029 5.06149 17.647 9.80417 18.8836 14.4427L18.8887 14.461C21.4295 14.5121 24.1376 14.5873 26.7706 14.7766L26.8811 14.7867C26.9234 14.7875 26.9656 14.7913 27.0074 14.7981H27.0231H27.0364H27.0433C27.1989 14.8293 27.3424 14.9043 27.4567 15.0143C27.5711 15.1243 27.6516 15.2648 27.6887 15.4191C27.7259 15.5733 27.7182 15.735 27.6664 15.885C27.6147 16.0351 27.5212 16.1672 27.3968 16.2658Z" fill="#007FD2"/>
<path d="M40.5378 19.9132L39.2924 22.9925H35.6721L42.5598 6.9136H45.7565L52.6208 22.9925H49.0226L47.7765 19.9132H40.5378ZM44.136 10.9802L41.7852 16.8339H46.5336L44.136 10.9802Z" fill="#007FD2"/>
<path d="M73.0258 16.8105V22.9925H69.7578V17.0921C69.7578 15.3056 68.8885 14.3417 67.359 14.3417C66.6772 14.3417 65.9247 14.6478 65.2436 15.5878C65.2984 15.9932 65.3292 16.4015 65.3358 16.8105V22.9925H62.0709V17.0921C62.0709 15.3056 61.201 14.3417 59.65 14.3417C59.0149 14.3417 58.3098 14.7204 57.6514 15.6111V22.9925H54.384V11.7327H57.6514V12.4144C58.3565 11.756 59.109 11.3798 60.4289 11.3798C61.8625 11.3798 63.132 11.9441 64.0272 12.9788C65.2266 11.8734 66.3546 11.3798 68.1177 11.3798C70.8631 11.3798 73.0258 13.5191 73.0258 16.8105Z" fill="#007FD2"/>
<path d="M87.3889 17.3743C87.3889 20.6423 84.8967 23.228 81.794 23.228C80.5246 23.228 79.4666 22.8991 78.5967 22.3347V28.4232H75.3293V11.7327H78.5967V12.3911C79.4666 11.8267 80.5246 11.4978 81.794 11.4978C84.8967 11.4978 87.3889 14.0601 87.3889 17.3743ZM84.1695 17.3743C84.1695 15.7052 82.9467 14.2482 81.2543 14.2482C80.2904 14.2482 79.3271 14.5771 78.598 15.5644V19.1626C79.3271 20.1259 80.2904 20.4555 81.2543 20.4555C82.948 20.4529 84.1682 19.02 84.1682 17.3743H84.1695Z" fill="#007FD2"/>
<path d="M92.4895 22.9925H89.2221V6.30252H92.4895V22.9925Z" fill="#007FD2"/>
<path d="M95.4281 7.76009C95.4281 6.65475 96.298 5.83221 97.4027 5.83221C98.484 5.83221 99.3539 6.65286 99.3539 7.76009C99.3539 8.84145 98.484 9.64063 97.4027 9.64063C96.298 9.64063 95.4281 8.84145 95.4281 7.76009ZM99.0484 11.7326V22.9925H95.7803V11.7326H99.0484Z" fill="#007FD2"/>
<path d="M110.919 22.8284C109.556 23.2513 108.945 23.3454 107.889 23.3454C105.163 23.3454 103.376 21.4175 103.376 18.503V14.4831H101.002V11.7327H103.377V7.71277H106.62V11.7327H110.687V14.4831H106.62V18.4796C106.62 19.7491 107.396 20.3361 108.595 20.3361C109.206 20.3361 109.864 20.1954 110.499 20.0306L110.919 22.8284Z" fill="#007FD2"/>
<path d="M124.036 22.9925H120.769V22.1933C119.852 22.9224 118.818 23.3454 117.549 23.3454C114.588 23.3454 112.613 21.206 112.613 17.9386V11.7327H115.88V17.6331C115.88 19.4196 116.774 20.3835 118.302 20.3835C119.123 20.3835 120.018 19.8898 120.77 18.9733V11.7327H124.038L124.036 22.9925Z" fill="#007FD2"/>
<path d="M137.906 22.9925H134.638V22.3347C133.768 22.8991 132.711 23.228 131.442 23.228C128.338 23.228 125.823 20.6657 125.823 17.3509C125.823 14.0835 128.338 11.4978 131.442 11.4978C132.711 11.4978 133.768 11.8267 134.638 12.3911V6.30252H137.906V22.9925ZM134.638 19.1614V15.5632C133.91 14.5992 132.946 14.2703 131.982 14.2703C130.266 14.2703 129.067 15.7039 129.067 17.3496C129.067 19.0187 130.267 20.4763 131.982 20.4763C132.944 20.4775 133.91 20.1487 134.638 19.1614Z" fill="#007FD2"/>
<path d="M151.164 18.1974H142.866C143.125 19.5136 143.994 20.5483 145.781 20.5483C146.698 20.5483 147.333 20.2661 147.685 19.7017H151.094C150.483 21.8644 148.367 23.3454 145.711 23.3454C142.09 23.3454 139.646 20.7364 139.646 17.3743C139.646 13.8954 142.067 11.3773 145.617 11.3773C148.836 11.3773 151.235 13.658 151.235 17.1369C151.24 17.4917 151.217 17.8464 151.164 18.1974V18.1974ZM142.89 16.2695H147.991C147.802 14.8593 146.956 14.0835 145.64 14.0835C144.065 14.0835 143.195 15.0001 142.89 16.2695V16.2695Z" fill="#007FD2"/>
</g>
<defs>
<clipPath id="clip0">
<rect width="151.503" height="32" fill="white"/>
</clipPath>
</defs>
</svg>
