<svg xmlns="http://www.w3.org/2000/svg" xmlns:cc="http://web.resource.org/cc/" xmlns:svg="http://www.w3.org/2000/svg" id="Calque_1" width="341.005" height="83.158" enable-background="new 0 0 341.193 134.913" overflow="visible" version="1.0" viewBox="0 0 341.193 134.913" xml:space="preserve"><metadata id="metadata40"/><g id="g5" transform="matrix(1.62236, 0, 0, 1.62236, -105.869, -0.507613)"><path id="path7" fill="#F47920" d="M 187.428,0.036 C 198.73,0.022 210.011,0.009 221.314,0 C 221.319,5.125 221.323,10.268 221.328,15.392 C 227.977,15.388 234.586,15.379 241.241,15.374 C 241.248,22.426 241.255,29.482 241.26,36.544 C 234.609,36.549 227.997,36.558 221.351,36.562 C 221.367,51.896 221.382,67.135 221.396,82.469 C 213.034,83.203 202.797,83.821 196.248,81.721 C 192.765,80.604 189.817,77.381 188.555,74.033 C 187.447,71.125 187.407,45.605 187.397,36.598 C 182.851,36.598 178.213,36.603 173.671,36.612 C 173.662,29.55 173.657,22.495 173.649,15.442 C 178.19,15.438 182.829,15.433 187.375,15.428 C 187.369,10.366 187.238,4.796 187.428,0.036 z"/><path id="path9" fill="#F47920" d="M 45.097,13.649 C 64.43,12.208 86.083,18.233 90.177,31.968 C 90.306,32.585 90.81,35.296 90.81,35.296 C 90.81,35.296 90.918,73.047 90.927,82.702 C 79.694,82.716 68.447,82.723 57.22,82.737 C 57.213,76.383 57.207,70.016 57.202,63.666 C 47.754,66.453 27.579,70.506 40.45,82.756 C 32.297,82.764 10.723,82.836 6.919,82.787 C 1.988,81.691 -0.922,74.928 0.265,68.448 C 1.34,62.553 5.075,58.415 9.509,55.844 C 20.376,49.531 36.494,49.882 50.546,46.527 C 52.383,46.086 54.232,45.883 55.608,44.947 C 56.448,44.375 56.792,43.587 57.004,42.321 C 57.941,36.62 52.217,34.931 46.865,34.99 C 45.264,35.004 43.046,35.256 41.625,35.697 C 40.634,35.994 39.256,36.642 38.482,37.273 C 36.856,38.579 35.865,40.439 35.87,43.397 C 25.046,43.407 14.203,43.419 3.382,43.429 C 3.769,40.537 4.269,38.151 5.122,35.904 C 6.663,31.842 8.711,28.64 11.4,25.75 C 18.793,17.797 30.774,14.712 45.097,13.649 z"/><path id="path11" fill="#F47920" d="M 156.53,13.884 C 160.245,13.609 163.506,14.564 166.137,15.45 C 166.144,22.503 166.151,29.559 166.158,36.616 C 160.124,36.625 153.59,36.251 149.392,38.034 C 146.859,39.101 144.317,41.592 143.286,44.168 C 141.962,47.446 142.422,52.778 142.426,57.286 C 142.435,65.729 142.442,74.201 142.453,82.654 C 130.983,82.662 119.505,82.675 108.044,82.685 C 108.022,60.29 107.999,37.904 107.976,15.509 C 118.455,15.495 129.236,15.487 139.724,15.473 C 139.728,18.108 139.531,21.44 139.771,23.526 C 143.178,18.071 148.278,14.496 156.53,13.884 z"/><g id="g13"><g id="g15"><path id="path17" fill="#F47920" d="M 337.152,37.494 C 333.85,30.144 328.298,23.934 321.413,20.192 C 313.489,15.882 302.265,12.969 289.446,13.928 C 266.567,15.621 250.901,26.163 247.037,47.032 C 245.587,54.836 246.528,63.86 248.807,70.124 C 249.769,72.776 254.144,81.833 256.157,82.536 C 259.066,82.378 274.892,82.516 281.133,82.513 C 281.126,76.906 281.119,71.318 281.114,65.716 C 300.899,65.698 320.707,65.68 340.499,65.657 C 341.862,55.467 340.386,44.708 337.152,37.494 z M 280.046,48.05 C 280.28,45.01 280.658,42.853 281.784,40.876 C 283.543,37.765 286.675,35.616 291.038,35.166 C 301.783,34.045 306.638,39.079 307.642,48.022 C 298.446,48.027 289.237,48.041 280.046,48.05 z"/></g></g></g></svg>