<svg width="157" height="20" viewBox="0 0 157 20" fill="none" xmlns="http://www.w3.org/2000/svg">
<path d="M0 0H7.72143C11.5743 0 13.9735 2.16969 13.9735 4.9848C13.994 5.83226 13.781 6.66904 13.3579 7.40359C12.9347 8.13814 12.3177 8.74217 11.5743 9.14958C12.5993 9.46369 13.496 10.0992 14.1319 10.9623C14.7678 11.8254 15.1091 12.8701 15.1054 13.9421C15.1054 17.4066 12.4296 19.7155 8.06277 19.7155H0V0ZM7.80579 8.08239C9.63609 8.08239 10.6797 7.2977 10.6797 5.57724C10.6797 3.85679 9.63609 3.0976 7.80579 3.0976H3.29377V8.08239H7.80579ZM8.63168 16.618C10.4345 16.618 11.6743 15.7155 11.6743 13.9127C11.6743 12.1099 10.4247 11.182 8.63168 11.182H3.29966V16.618H8.63168ZM16.4787 12.6748C16.4787 7.94311 19.5763 5.35164 23.1819 5.35164C24.9475 5.35164 26.4483 6.19127 27.5194 7.17803L28.6238 5.63217H30.7288V19.7155H27.5076V17.9735C26.6052 18.9309 25.1967 19.998 23.0858 19.998C19.7901 19.998 16.4669 17.4066 16.4669 12.6748H16.4787ZM27.5194 13.7165V11.6606C27.5194 9.63217 25.8009 8.11182 23.7155 8.11182C21.5203 8.11182 19.7175 9.57528 19.7175 12.6748C19.7175 15.7744 21.5086 17.2379 23.7371 17.2379C25.7891 17.2379 27.5076 15.745 27.5076 13.7165H27.5194ZM60.767 5.63217H56.8239L51.0603 12.1628V0H47.8489V19.7155H51.0603V13.1908L56.8239 19.7155H60.767L54.513 12.6748L60.767 5.63217ZM68.8337 5.63217H64.8906L58.6562 12.6748L64.8945 19.7155H68.8376L62.5797 12.6748L68.8337 5.63217ZM87.2977 0L81.4419 12.5728L75.5723 0H72.0412V19.7155H75.2447V6.38941L79.9529 16.5611H82.9387L87.6469 6.38941V19.7155H90.8288V0H87.2977ZM92.8004 12.6748C92.8004 7.94311 95.898 5.35164 99.5037 5.35164C101.269 5.35164 102.77 6.19127 103.841 7.17803L104.953 5.63217H107.06V19.7155H103.845V17.9735C102.945 18.9309 101.536 19.998 99.4232 19.998C96.1255 19.998 92.8043 17.4066 92.8043 12.6748H92.8004ZM103.841 13.7165V11.6606C103.841 9.63217 102.123 8.11182 100.039 8.11182C97.8421 8.11182 96.0392 9.57528 96.0392 12.6748C96.0392 15.7744 97.8421 17.2379 100.067 17.2379C102.127 17.2379 103.845 15.745 103.845 13.7165H103.841ZM109.328 5.63217H111.427L112.534 7.17803C113.491 6.07945 114.429 5.41246 115.857 5.41246H118.234V8.46493H114.637C113.308 8.46493 112.539 9.08877 112.539 10.5856V19.7077H109.328V5.63217ZM149.614 16.0863V8.39235H146.996V5.63217H149.614V2.90731L152.853 1.02992V5.63217H156.008V8.39235H152.853V15.5802C152.853 16.5081 153.389 16.9318 154.458 16.9318H155.867V19.7155H153.501C151.192 19.7155 149.614 18.7288 149.614 16.0863ZM143.049 14.925C142.517 16.3413 141.348 17.2791 139.409 17.2791C137.155 17.2791 135.578 15.8705 135.439 13.5517H146.229V12.5552C146.229 8.02158 143.357 5.34576 139.362 5.34576C135.617 5.34576 132.322 8.27465 132.322 12.669C132.322 17.0633 135.139 19.9922 139.362 19.9922C142.642 19.9922 144.895 18.3953 145.875 15.5076C145.03 15.335 144.065 15.1329 143.049 14.921V14.925ZM139.353 7.97057C141.381 7.97057 142.986 9.12604 143.184 11.2094H135.494C135.888 9.15351 137.438 7.97057 139.353 7.97057ZM132.81 5.63217H128.867L123.098 12.1393V0H119.886V19.7155H123.098V13.2104L128.861 19.7155H132.81L126.55 12.6748L132.81 5.63217ZM39.6665 17.1515C37.3281 17.1515 35.5821 15.5468 35.5821 12.6748C35.5821 9.80285 37.3281 8.19617 39.6665 8.19617C41.6851 8.19617 42.9818 9.20059 43.437 10.7641C44.1707 10.617 45.6655 10.3168 46.2952 10.1756C45.5949 7.15449 43.1368 5.35361 39.6371 5.35361C35.5821 5.35361 32.4277 8.30996 32.4277 12.6768C32.4277 17.0437 35.5821 20 39.6371 20C43.0623 20 45.4674 18.2678 46.2795 15.1721C45.638 15.0289 44.155 14.7308 43.4291 14.5836C42.9073 16.1962 41.6891 17.1515 39.6665 17.1515Z" fill="black"/>
</svg>
