<svg xmlns="http://www.w3.org/2000/svg" xmlns:xlink="http://www.w3.org/1999/xlink" version="1.1" viewBox="0 0 189.78 28"><path fill="#2c2e31" d="M8,.13a.07.07,0,0,1,0-.13c.07,0,.57.16,1.19.37A9,9,0,0,1,12.6,2.14,1,1,0,0,1,11.83,4c-1.11-.2-.94-.91-1.81-2A9.09,9.09,0,0,0,8,.13"/><path fill="#2c2e31" d="M2.71 5.28a.22.22 0 0 0 .16.11H13.56v3.7H6.34l-2-.25c-.07 0-.1 0-.07.09l.32.71a.19.19 0 0 0 .16.1h8.79v3.82H6.34L4 13.3c-.06 0-.09 0-.07.09l.33.71a.18.18 0 0 0 .16.1H25.17l.23 0a.22.22 0 0 0 .1-.08.35.35 0 0 0 0-.22.19.19 0 0 0 0-.09.57.57 0 0 0-.16-.15l-2.42-2a.15.15 0 0 0-.17 0l-1.18 1.77a.23.23 0 0 1-.19.09H15.77V9.73H25.2a.22.22 0 0 0 .1-.09.28.28 0 0 0 0-.22.22.22 0 0 0 0-.09 1.14 1.14 0 0 0-.16-.15l-2.42-1.6a.12.12 0 0 0-.17 0L21.37 9a.19.19 0 0 1-.18.08H15.77V5.39H26.66l.22 0a.17.17 0 0 0 .1-.09.34.34 0 0 0 0-.22A.22.22 0 0 0 27 5a1.21 1.21 0 0 0-.16-.16l-2.42-1.6a.13.13 0 0 0-.17 0L23.05 4.66a.19.19 0 0 1-.18.08H17.09a.38.38 0 0 0 .18-.09c.14-.14 2.08-1.76 2.41-2s1.55-.54 1.66-.86-.13-.47-.52-.68A22.13 22.13 0 0 0 17.9 0c-.09 0-.16 0-.13.11a3.52 3.52 0 0 1-.16 1.79 21.06 21.06 0 0 1-1.14 2.67.13.13 0 0 0 0 .16H5.14L2.46 4.48c-.06 0-.09 0-.07.09zM28.68 24.68a16.37 16.37 0 0 1-8.15-2.58 12.65 12.65 0 0 1-4.35-3.76H27.65a.82.82 0 0 0 .22 0 .18.18 0 0 0 .1-.08A.34.34 0 0 0 28 18a.22.22 0 0 0 0-.09l-.16-.15-2.77-2.06a.12.12 0 0 0-.17 0s-1.12 1.79-1.19 1.88a.19.19 0 0 1-.18.08H15.7c.07-.4.1-.7.11-.8.08-.47.46-.8.65-1.15s-.15-.51-.5-.64l-3.16-.7a0 0 0 0 0-.05.07l.07.08a3.88 3.88 0 0 1 .57 2.64c0 .17-.06.33-.1.5H3.72l-2.26-.25a.06.06 0 0 0-.06.09l.32.71a.18.18 0 0 0 .16.1H13.15c-.94 3.85-2.93 5.31-6.2 6.46A28.64 28.64 0 0 1 .12 26.24c-.11 0-.19.22 0 .24 3.12.25 8.34 0 11.73-2.25a9.09 9.09 0 0 0 3.72-5.7c.72 1.45 1.66 2.52 3.81 4.86a15.69 15.69 0 0 0 5.5 3.78.85.85 0 0 0 .69-.16 7.67 7.67 0 0 1 3.17-2.19C28.79 24.77 28.76 24.67 28.68 24.68zM137 15.74a.57.57 0 0 0-.16-.15l-2.48-1.77a.14.14 0 0 0-.17 0l-1.2 1.58a.25.25 0 0 1-.19.09H125.2v-5.2h7.5l.21 0a.19.19 0 0 0 .11-.08.31.31 0 0 0 0-.22.19.19 0 0 0 0-.09.75.75 0 0 0-.16-.15L130.27 8a.12.12 0 0 0-.16 0s-.78 1.49-.84 1.57a.19.19 0 0 1-.19.09H125.2V4l4-.27c.53 0 3.44-.15 3.54-.17s.13-.31 0-.41C132 2.5 130 1.1 129.89 1a.26.26 0 0 0-.3 0c-2.86 1.92-8.22 2.05-10.77 2.34s-5.91.42-6.18.44-.17.26 0 .27c1 .06 7.33.13 8.77.07l1.65-.09V9.67h-5l-3.78-.53c-.07 0-.1 0-.07.1l.46 1a.21.21 0 0 0 .16.1h8.2v5.2h-8.19L111.07 15c-.06 0-.09 0-.06.1l.46 1a.19.19 0 0 0 .16.11h11.42V19s0 2.13 0 3.74-1.39 1.29-2.68 1.22l-2.31-.15s0 .05 0 .07c.88.39 3 1.41 3.27 2.94 0 .2.21.14.28.14 3.62-.54 3.6-3.07 3.6-3.91V16.14h11.63A.21.21 0 0 0 137 16a.32.32 0 0 0 .05-.2.28.28 0 0 0-.05-.1M189.73 8.74h0a.57.57 0 0 0-.16-.15l-2.15-1.67a.14.14 0 0 0-.17 0l-1.07 1.47a.21.21 0 0 1-.18.09h-2.92v-5a.12.12 0 0 1 .08-.11c.33-.06 1-.45 1-.74s-.29-.47-.63-.58c-.56-.17-1.13-.32-1.7-.46-.82-.21-1-.24-1.08-.25a.06.06 0 0 0-.06.08s0 .62.05.92.07 1.16.07 1.7 0 10.54 0 11.7h-2.55a.45.45 0 0 1-.25 0c-.09 0-.61-.27-1-.47a15.84 15.84 0 0 0-1.49-.65c-.09 0-.11.06-.09.13.35.91.36 4.07.37 5.95s-.2 4.56-.3 5.33.1 1.2.85 1.17c1.74-.11 1.42-2.48 1.41-2.54s0-.07.05-.07h7.94c.07 0 .11 0 .1.06s0 .51 0 1.07.55.73 1 .63c1.46-.46 1.31-1.28 1.3-1.62s-.06-5.42 0-6.35a1.35 1.35 0 0 1 .77-1.29c.25-.14.28-.44.2-.52s-.09-.12-.33-.37a11.1 11.1 0 0 0-1.67-1.39.18.18 0 0 0-.26 0c0 .05-.78.84-.83.9a.2.2 0 0 1-.16 0h-2.73V9.15h6.33a.68.68 0 0 0 .2 0 .23.23 0 0 0 .12-.08.35.35 0 0 0 .05-.21A.19.19 0 0 0 189.73 8.74zm-3.95 7.65a.11.11 0 0 1 .11.12v7.4a.11.11 0 0 1-.11.11H178a.11.11 0 0 1-.12-.1h0v-7.4a.12.12 0 0 1 .12-.12zM174.19 5.35l-1.72-.94c-.14-.07-.2 0-.23 0s-.61.87-.66.93a.19.19 0 0 1-.14.09h-2c0-1.3 0-2.28 0-2.55s.42-.58.56-.65.51-.3.51-.49-.37-.35-.62-.44L169 1 167.3.62c-.06 0-.06 0-.06.06s.15 1.17.21 1.91c0 .38 0 1.69 0 2.86h-1.92a.4.4 0 0 1-.19 0l-1.11-.57a13.19 13.19 0 0 0-1.23-.5c-.1 0-.11.06-.1.1a12 12 0 0 1 .29 2.87c0 .6-.05 8.09-.06 8.68s-.15 4.43-.18 4.86-.24 1.62.81 1.62c1.31 0 1.27-1.18 1.27-1.73s0-3.69 0-4 .12-10.5.12-10.56 0-.09.08-.09h2.17c0 .8 0 1.41 0 1.41s-.17 12.63-.17 14S167 26 167 26.61s-.15 1.3 1.08 1.23a1.29 1.29 0 0 0 1.26-1.49c0-.4 0-1.42 0-2V18.31a2.73 2.73 0 0 1 1.77 1.92s.06 0 .08 0a3.08 3.08 0 0 0 2.64-3.09V7.34c0-.43.12-.66.39-.79s.5-.22.59-.46S174.48 5.52 174.19 5.35zm-2.41 2.5h0s0 7.52 0 8.85-.9 1.36-1.28 1.32l-1.13-.17V15.39s.06-5.56.09-9.29h2.28c.07 0 .07.07.07.11zM60.89 12.16L61 12c.93-1.19 2-2.62 2.13-2.7a8.14 8.14 0 0 0 1.13-.67c.26-.25 0-.44-.17-.52A16 16 0 0 0 61.5 6.93s-.08 0-.08.06l0 .26c-.39 2.45-2.91 5.56-3.74 6.6s-2.46 2.69-2.53 2.76a.1.1 0 0 0 .11.15 18.3 18.3 0 0 0 4.21-3.12c0 2.31 0 8 0 9.34 0 1.57-.11 3.95-.13 4.23s.16.79.94.79a1.22 1.22 0 0 0 1.28-.94c0-.31-.06-10.18-.08-13.3a6.09 6.09 0 0 0 .69-.63c.1-.13 0-.21 0-.32a8.21 8.21 0 0 0-1.16-.65M84.31 9.74c-.28-.26-2.1-1.54-2.22-1.61s-.21-.06-.28 0-.82 1-1.06 1.25a.69.69 0 0 1-.49.2H75.79c-.24 0-1.68-.17-1.9-.2L73 9.29s0 0 0 .06a1.77 1.77 0 0 0 .3.81.37.37 0 0 0 .31.11l1.4 0c.74 0 1.48-.05 2.22-.05h1.24V23.89c0 .69-1 .54-1.31.55-.59 0-2.73-.08-2.77-.08s0 0 0 .05c.94.38 2.89.88 3.45 2.28 0 .08 0 .09.09.09a2.59 2.59 0 0 0 2.66-2.59c0-.53 0-12.25 0-14l3.48 0a.36.36 0 0 0 .33-.16.27.27 0 0 0-.08-.3M74.83 3.54s0 0 .07 0h2.29l5.18-.15c.11 0 .19 0 .23-.14s-.21-.44-.29-.49a5.12 5.12 0 0 0-.49-.38l-1.34-.92a.15.15 0 0 0-.18 0s-1.06 1.16-1.16 1.24-.11.08-.25.09c-.81.07-2.67.11-2.93.1l-1.47-.15s0 0 0 0 .35.69.36.72"/><path fill="#2c2e31" d="M75.29 17.59c-.14-2-1.55-4.35-2.22-5.49a15 15 0 0 0-1.8-2.35s-.09 0-.06.06a13.4 13.4 0 0 1 1 2.81 25 25 0 0 1 .57 3c.22 1.14.38 3.59.41 3.79a.74.74 0 0 0 .58.52c.27 0 1.64-.29 1.5-2.31M67 10.37c-.2-.09-2.44-.78-2.6-.84s-.22 0-.18.23c0 0 .14.68.27 2a25.58 25.58 0 0 1-.16 4.93A37.52 37.52 0 0 1 63 21.73c0 .18.17.28.25.17a15.19 15.19 0 0 0 2.29-4.83A45.4 45.4 0 0 0 66.37 12a2.5 2.5 0 0 1 .74-1c.22-.21.14-.44-.13-.55"/><path fill="#2c2e31" d="M70.06 16.28c0-1.13-.06-5.77-.07-6.56 0-1 0-1.93-.07-2.89h4.92l.22 0a.22.22 0 0 0 .1-.08.22.22 0 0 0-.07-.27L73.52 4.93h0a.86.86 0 0 0 .33-.3c.85-2-3-2.46-3.15-2.48s-.14.11-.08.16A20.3 20.3 0 0 1 71.92 4c.35.55.43.92.85 1a1 1 0 0 0 .54 0l-.86 1.07a.22.22 0 0 1-.19.09H69.9l-.09-3.69c0-.26.46-.63.55-.73s.19-.15.19-.26-.06-.21-.35-.34A5.31 5.31 0 0 0 69 .74 6.62 6.62 0 0 0 67.56.58a.09.09 0 0 0-.08.13 6.09 6.09 0 0 1 .2.61c.06.22.21 1.61.26 2.22 0 .24 0 1.34.06 2.62H64.57c-.18 0-1.46-.25-1.46-.25S63 5.94 63 6l.41.92c0 .06 0 .07.08.07l1.15-.17H68c0 1.82 0 3.79 0 4.22 0 .82 0 7.49 0 9.12 0 1.87-.07 3.74-.11 5.61 0 1.07.63 1 1.46.86s.92-.5.93-.71 0-2-.09-3.48-.15-5.05-.15-6.17M59.76 6c1.06-.81 2.78-2.43 2.89-2.53s.26-.1.58-.16a.81.81 0 0 0 .48-.22c.06-.05.08-.16-.05-.32a2.66 2.66 0 0 0-.59-.5l-1.71-1s-.08 0-.11.05a37.08 37.08 0 0 1-3 4.27 24.06 24.06 0 0 1-3.24 3.24c-.11.07 0 .25.09.2s3.54-2.17 4.61-3"/></svg>