<svg width="163" height="24" viewBox="0 0 163 24" fill="none" xmlns="http://www.w3.org/2000/svg">
<path d="M6.85154 0.111415C6.8404 0.106964 6.83086 0.0992772 6.82413 0.0893473C6.81741 0.0794175 6.81381 0.0677001 6.81381 0.0557074C6.81381 0.0437148 6.81741 0.0319974 6.82413 0.0220675C6.83086 0.0121376 6.8404 0.00445112 6.85154 0C6.91153 0 7.34005 0.137126 7.87141 0.317104C8.94341 0.606507 9.94029 1.12395 10.7939 1.83406C11.0053 1.92157 11.1733 2.08947 11.2609 2.30082C11.3485 2.51218 11.3485 2.74967 11.261 2.96106C11.1735 3.17245 11.0056 3.34042 10.7942 3.42802C10.5829 3.51561 10.3454 3.51566 10.134 3.42815C9.18268 3.25674 9.32838 2.64824 8.58275 1.71407C8.09038 1.09507 7.50662 0.554654 6.85154 0.111415" fill="#2C2E31"/>
<path d="M2.3178 4.52516C2.33192 4.55031 2.35163 4.57189 2.3754 4.58824C2.39917 4.60458 2.42638 4.61525 2.45493 4.61943H11.6167V7.79047H5.42884L3.71477 7.57621C3.65478 7.57621 3.62907 7.57621 3.65478 7.65334L3.92903 8.26184C3.94244 8.28683 3.96215 8.30788 3.9862 8.32291C4.01025 8.33795 4.03781 8.34643 4.06616 8.34754H11.5995V11.6214H5.42884L3.42338 11.3986C3.37196 11.3986 3.34624 11.3986 3.36339 11.4757L3.64621 12.0842C3.6589 12.1098 3.67843 12.1313 3.70264 12.1465C3.72685 12.1616 3.75478 12.1697 3.78333 12.1699H21.5669H21.764C21.7987 12.1561 21.8285 12.1322 21.8497 12.1014C21.8699 12.0401 21.8699 11.974 21.8497 11.9128C21.8559 11.8875 21.8559 11.861 21.8497 11.8357C21.8127 11.7844 21.7661 11.7407 21.7125 11.7071L19.6385 9.99305C19.6171 9.97831 19.5917 9.97042 19.5657 9.97042C19.5397 9.97042 19.5143 9.97831 19.4928 9.99305L18.4815 11.51C18.4625 11.5349 18.4377 11.5549 18.4094 11.5683C18.3811 11.5817 18.35 11.5882 18.3187 11.5871H13.5107V8.33897H21.5926C21.6285 8.32284 21.6585 8.29587 21.6783 8.26184C21.691 8.23204 21.6976 8.19997 21.6976 8.16756C21.6976 8.13516 21.691 8.10309 21.6783 8.07329C21.6836 8.04785 21.6836 8.02159 21.6783 7.99616C21.6368 7.949 21.5909 7.90595 21.5411 7.8676L19.4671 6.49634C19.4576 6.48675 19.4462 6.47915 19.4337 6.47395C19.4212 6.46876 19.4078 6.46609 19.3943 6.46609C19.3807 6.46609 19.3673 6.46876 19.3548 6.47395C19.3423 6.47915 19.331 6.48675 19.3214 6.49634L18.3101 7.71333C18.2931 7.73777 18.2698 7.75708 18.2426 7.76917C18.2154 7.78126 18.1854 7.78566 18.1558 7.7819H13.5107V4.61943H22.8438H23.0324C23.0512 4.61308 23.0685 4.60296 23.0832 4.5897C23.0979 4.57644 23.1098 4.56031 23.1181 4.5423C23.139 4.48118 23.139 4.41486 23.1181 4.35375C23.1281 4.33218 23.1339 4.30892 23.1352 4.28519C23.0939 4.23529 23.048 4.18938 22.9981 4.14806L20.9241 2.7768C20.9038 2.75931 20.878 2.74968 20.8512 2.74968C20.8245 2.74968 20.7986 2.75931 20.7784 2.7768L19.7499 3.99379C19.7329 4.01823 19.7096 4.03754 19.6824 4.04963C19.6552 4.06171 19.6252 4.06612 19.5957 4.06236H14.642C14.6994 4.05098 14.7527 4.02433 14.7963 3.98522C14.9162 3.86524 16.5789 2.47684 16.8617 2.27115C17.1445 2.06546 18.1901 1.80835 18.2844 1.5341C18.3787 1.25984 18.173 1.13129 17.8387 0.951311C17.028 0.575653 16.1917 0.257758 15.3362 0C15.2591 0 15.1991 0 15.2248 0.0942741C15.3126 0.60889 15.2653 1.13748 15.0877 1.62837C14.815 2.4127 14.4886 3.17728 14.1106 3.91666C14.0953 3.93624 14.087 3.96038 14.087 3.98522C14.087 4.01007 14.0953 4.0342 14.1106 4.05379H4.4004L2.10354 3.83953C2.05212 3.83953 2.02641 3.83953 2.04355 3.91666L2.3178 4.52516ZM24.5751 21.1517C22.092 21.0463 19.6815 20.2832 17.5902 18.9405C16.1166 18.1668 14.841 17.0641 13.8621 15.7181H23.6923C23.7549 15.7265 23.8183 15.7265 23.8809 15.7181C23.9169 15.7065 23.9474 15.6821 23.9666 15.6495C23.9854 15.6159 23.9973 15.5789 24.0017 15.5407C24.0061 15.5024 24.0029 15.4637 23.9923 15.4267C23.9976 15.4012 23.9976 15.375 23.9923 15.3495L23.8551 15.221L21.4811 13.4555C21.4716 13.4459 21.4602 13.4383 21.4477 13.4331C21.4352 13.4279 21.4218 13.4252 21.4083 13.4252C21.3948 13.4252 21.3814 13.4279 21.3689 13.4331C21.3564 13.4383 21.345 13.4459 21.3355 13.4555C21.3355 13.4555 20.3756 14.9896 20.3156 15.0667C20.2986 15.0911 20.2752 15.1105 20.248 15.1225C20.2208 15.1346 20.1908 15.139 20.1613 15.1353H13.4507C13.5107 14.7925 13.5364 14.5353 13.545 14.4496C13.6135 14.0468 13.9392 13.764 14.1021 13.4641C14.2649 13.1641 13.9735 13.027 13.6735 12.9155L10.9653 12.3156L10.9225 12.3756L10.9824 12.4442C11.411 13.1155 11.5843 13.9184 11.471 14.7068C11.471 14.8525 11.4195 14.9896 11.3853 15.1353H3.18341L1.2465 14.921C1.23691 14.9197 1.22713 14.921 1.21829 14.925C1.20945 14.929 1.20191 14.9353 1.19653 14.9434C1.19116 14.9515 1.18817 14.9609 1.18792 14.9706C1.18766 14.9803 1.19014 14.9898 1.19508 14.9981L1.46933 15.6066C1.48202 15.6322 1.50156 15.6538 1.52577 15.6689C1.54998 15.684 1.57791 15.6922 1.60646 15.6923H11.2653C10.4597 18.9919 8.75415 20.2432 5.95164 21.2288C4.05917 21.8861 2.09336 22.3092 0.0980742 22.4887C0.00380013 22.4887 -0.0647628 22.6772 0.0980742 22.6943C2.77203 22.9086 7.24576 22.6943 10.1511 20.766C11.8064 19.612 12.9493 17.8607 13.3393 15.8809C13.9564 17.1236 14.762 18.0406 16.6046 20.0461C17.9253 21.4515 19.5329 22.5564 21.3183 23.2857C21.4209 23.3067 21.5269 23.3053 21.629 23.2817C21.731 23.258 21.8268 23.2126 21.9097 23.1486C22.6408 22.302 23.5759 21.6559 24.6265 21.2717C24.6693 21.2288 24.6436 21.1431 24.5751 21.1517ZM117.409 13.4898C117.372 13.4384 117.326 13.3948 117.272 13.3612L115.147 11.8443C115.126 11.8283 115.1 11.8196 115.074 11.8196C115.048 11.8196 115.022 11.8283 115.001 11.8443L113.973 13.1984C113.953 13.2223 113.928 13.2416 113.9 13.2549C113.872 13.2682 113.841 13.2752 113.81 13.2755H107.296V8.81891H113.724H113.904C113.943 8.80847 113.976 8.78405 113.998 8.75035C114.021 8.68961 114.021 8.62254 113.998 8.5618C114.004 8.53646 114.004 8.51001 113.998 8.48467C113.959 8.43533 113.913 8.39201 113.861 8.35611L111.641 6.8563C111.623 6.83943 111.598 6.83011 111.573 6.83011C111.548 6.83011 111.523 6.83943 111.504 6.8563C111.504 6.8563 110.836 8.13328 110.784 8.20184C110.768 8.2293 110.744 8.25126 110.715 8.26499C110.686 8.27871 110.653 8.28357 110.622 8.27898H107.296V3.42815L110.724 3.19675C111.179 3.19675 113.673 3.06819 113.758 3.05105C113.844 3.03391 113.87 2.78537 113.758 2.69967C113.124 2.14259 111.41 0.942741 111.316 0.857037C111.278 0.830475 111.233 0.816214 111.187 0.816214C111.141 0.816214 111.096 0.830475 111.059 0.857037C108.608 2.50255 104.014 2.61396 101.828 2.8625C99.6429 3.11104 96.7633 3.22246 96.5319 3.2396C96.3005 3.25674 96.3862 3.46243 96.5319 3.471C97.3889 3.52242 102.814 3.58241 104.048 3.53099L105.462 3.45386V8.28755H101.177L97.9374 7.83332C97.8774 7.83332 97.8517 7.83332 97.8774 7.91902L98.2717 8.77606C98.2863 8.80005 98.3063 8.8203 98.3301 8.83518C98.3539 8.85006 98.3808 8.85916 98.4088 8.86176H105.436V13.3184H98.4174L95.1863 12.8556C95.1349 12.8556 95.1092 12.8556 95.1349 12.9413L95.5291 13.7983C95.5414 13.8249 95.5606 13.8477 95.5848 13.8643C95.6089 13.8809 95.6371 13.8906 95.6663 13.8926H105.454V16.2837C105.454 16.2837 105.454 18.1092 105.454 19.489C105.454 20.8689 104.262 20.5946 103.157 20.5346L101.177 20.4061C101.177 20.4061 101.177 20.4489 101.177 20.466C101.931 20.8003 103.748 21.6745 103.98 22.9857C103.98 23.1571 104.16 23.1057 104.22 23.1057C107.322 22.6429 107.305 20.4746 107.305 19.7547V13.8326H117.272C117.304 13.8266 117.333 13.8123 117.357 13.7912C117.381 13.7701 117.399 13.743 117.409 13.7126C117.442 13.6617 117.457 13.6015 117.452 13.5412C117.444 13.51 117.429 13.4809 117.409 13.4555V13.4898ZM162.601 7.4905C162.564 7.43918 162.517 7.39552 162.464 7.36195L160.621 5.9307C160.6 5.91471 160.575 5.90605 160.548 5.90605C160.522 5.90605 160.496 5.91471 160.475 5.9307L159.558 7.19054C159.541 7.21529 159.518 7.23531 159.491 7.24879C159.464 7.26227 159.434 7.26876 159.404 7.26767H156.902V2.98249C156.902 2.96168 156.909 2.94153 156.921 2.9247C156.933 2.90787 156.951 2.89515 156.97 2.88821C157.253 2.83679 157.827 2.50255 157.827 2.25401C157.827 2.00547 157.579 1.8512 157.287 1.75693C156.807 1.61123 156.319 1.48267 155.83 1.36269C155.128 1.18271 154.973 1.157 154.905 1.14843C154.896 1.14794 154.888 1.14955 154.88 1.15313C154.872 1.1567 154.866 1.16212 154.861 1.16891C154.855 1.1757 154.852 1.18364 154.851 1.19203C154.85 1.20042 154.85 1.209 154.853 1.21699C154.853 1.21699 154.853 1.74836 154.896 2.00547C154.939 2.26258 154.956 2.99963 154.956 3.46243C154.956 3.92523 154.956 12.4956 154.956 13.4898H152.771C152.701 13.51 152.626 13.51 152.556 13.4898C152.479 13.4898 152.034 13.2584 151.699 13.087C151.284 12.8795 150.857 12.6936 150.422 12.5299C150.345 12.5299 150.328 12.5813 150.345 12.6413C150.645 13.4212 150.654 16.1294 150.662 17.7407C150.671 19.3519 150.491 21.6488 150.405 22.3087C150.32 22.9686 150.491 23.3371 151.134 23.3114C152.625 23.2171 152.351 21.186 152.342 21.1345C152.334 21.0831 152.342 21.0745 152.385 21.0745H159.19C159.25 21.0745 159.284 21.0745 159.276 21.126C159.267 21.1774 159.276 21.5631 159.276 22.043C159.276 22.5229 159.747 22.6686 160.133 22.5829C161.384 22.1887 161.255 21.4859 161.247 21.1945C161.238 20.9031 161.195 16.5494 161.247 15.7523C161.235 15.5234 161.291 15.2961 161.409 15.0993C161.526 14.9024 161.7 14.7449 161.907 14.6468C162.121 14.5268 162.147 14.2697 162.078 14.2011C162.01 14.1325 162.001 14.0983 161.795 13.884C161.358 13.4411 160.879 13.0421 160.364 12.6927C160.35 12.6777 160.332 12.6657 160.313 12.6575C160.294 12.6494 160.273 12.6452 160.253 12.6452C160.232 12.6452 160.211 12.6494 160.192 12.6575C160.173 12.6657 160.156 12.6777 160.141 12.6927C160.141 12.7356 159.473 13.4126 159.43 13.4641C159.408 13.4735 159.385 13.4784 159.361 13.4784C159.338 13.4784 159.314 13.4735 159.293 13.4641H156.953V7.84189H162.378C162.435 7.85034 162.493 7.85034 162.549 7.84189C162.59 7.83065 162.626 7.80662 162.652 7.77333C162.685 7.71935 162.7 7.65636 162.695 7.59335C162.688 7.57029 162.676 7.5491 162.66 7.53132C162.643 7.51353 162.623 7.49959 162.601 7.4905V7.4905ZM159.216 14.0468C159.229 14.0468 159.242 14.0495 159.254 14.0547C159.266 14.06 159.277 14.0677 159.285 14.0774C159.294 14.0871 159.301 14.0985 159.305 14.111C159.309 14.1234 159.311 14.1366 159.31 14.1497V20.4918C159.31 20.5168 159.3 20.5407 159.282 20.5584C159.265 20.5761 159.241 20.586 159.216 20.586H152.548C152.535 20.5872 152.523 20.5859 152.511 20.5822C152.499 20.5786 152.488 20.5726 152.479 20.5646C152.469 20.5566 152.461 20.5469 152.455 20.5358C152.45 20.5248 152.446 20.5127 152.445 20.5003V20.5003V14.1583C152.445 14.1447 152.448 14.1314 152.453 14.1189C152.458 14.1064 152.466 14.0951 152.475 14.0855C152.485 14.076 152.496 14.0684 152.508 14.0632C152.521 14.0581 152.534 14.0554 152.548 14.0554L159.216 14.0468ZM149.283 4.58515L147.808 3.77953C147.688 3.71954 147.637 3.77953 147.611 3.77953C147.586 3.77953 147.089 4.52516 147.046 4.57658C147.033 4.5977 147.015 4.61562 146.995 4.62898C146.974 4.64235 146.95 4.6508 146.926 4.65371H145.212C145.212 3.53956 145.212 2.69967 145.212 2.46827C145.212 2.23687 145.572 1.97119 145.692 1.91119C145.812 1.8512 146.129 1.65408 146.129 1.49124C146.129 1.32841 145.812 1.19128 145.597 1.11415L144.834 0.857037L143.378 0.531363C143.326 0.531363 143.326 0.531363 143.326 0.582785C143.326 0.634207 143.455 1.58552 143.506 2.21973C143.506 2.5454 143.506 3.66812 143.506 4.67085H141.861C141.807 4.68393 141.751 4.68393 141.698 4.67085L140.746 4.18234C140.402 4.0219 140.051 3.87887 139.692 3.75382C139.607 3.75382 139.598 3.80524 139.607 3.83953C139.788 4.64645 139.871 5.47231 139.855 6.29922C139.855 6.81344 139.812 13.2327 139.804 13.7383C139.795 14.244 139.675 17.535 139.649 17.9035C139.624 18.272 139.444 19.2919 140.344 19.2919C141.466 19.2919 141.432 18.2806 141.432 17.8092C141.432 17.3379 141.432 14.6468 141.432 14.3811C141.432 14.1154 141.535 5.38219 141.535 5.33077C141.535 5.27935 141.535 5.25364 141.603 5.25364H143.463C143.463 5.93927 143.463 6.46206 143.463 6.46206C143.463 6.46206 143.318 17.2864 143.318 18.4606C143.318 19.6347 143.12 22.283 143.12 22.8058C143.12 23.3285 142.992 23.9199 144.046 23.8599C144.205 23.8581 144.361 23.8223 144.505 23.7547C144.648 23.6871 144.775 23.5894 144.878 23.4683C144.98 23.3471 145.055 23.2054 145.098 23.0526C145.141 22.8998 145.15 22.7397 145.126 22.5829C145.126 22.2401 145.126 21.3659 145.126 20.8689V15.6923C145.496 15.818 145.829 16.0345 146.094 16.322C146.359 16.6094 146.548 16.9587 146.643 17.3379C146.643 17.3379 146.694 17.3379 146.711 17.3379C147.346 17.2464 147.925 16.9272 148.341 16.4399C148.758 15.9526 148.983 15.3305 148.974 14.6896V6.29065C148.974 5.92213 149.077 5.72501 149.308 5.61359C149.54 5.50218 149.737 5.42504 149.814 5.21936C149.891 5.01367 149.531 4.73084 149.283 4.58515ZM147.217 6.72774C147.217 6.72774 147.217 13.1727 147.217 14.3125C147.217 15.4524 146.446 15.4781 146.12 15.4438L145.152 15.2981V13.1898C145.152 13.1898 145.203 8.42467 145.229 5.22793H147.183C147.243 5.22793 147.243 5.28792 147.243 5.3222L147.217 6.72774ZM52.1802 10.4216L52.2745 10.2844C53.0715 9.26457 53.9886 8.03901 54.1 7.97044C54.4377 7.80544 54.7616 7.61341 55.0684 7.39623C55.2913 7.18197 55.0684 7.01913 54.9227 6.95057C54.2143 6.5482 53.4715 6.20976 52.703 5.93927C52.703 5.93927 52.6344 5.93927 52.6344 5.99069V6.21352C52.3002 8.31326 50.1405 10.9786 49.4291 11.87C48.7178 12.7613 47.3208 14.1754 47.2608 14.2354C47.2517 14.2499 47.2471 14.2669 47.2477 14.2841C47.2483 14.3013 47.2541 14.3179 47.2642 14.3317C47.2744 14.3456 47.2885 14.3561 47.3047 14.3618C47.3209 14.3676 47.3385 14.3683 47.3551 14.3639C48.6799 13.6503 49.895 12.7498 50.9632 11.69C50.9632 13.6697 50.9632 18.5463 50.9632 19.6947C50.9632 21.0403 50.869 23.08 50.8518 23.32C50.8347 23.5599 50.9889 23.997 51.6574 23.997C51.9063 24.0158 52.1538 23.9449 52.355 23.7972C52.5562 23.6494 52.6978 23.4345 52.7544 23.1914C52.7544 22.9257 52.703 14.4668 52.6859 11.7928C52.8965 11.6283 53.0942 11.4478 53.2772 11.2529C53.3629 11.1415 53.2772 11.0729 53.2772 10.9786C52.9614 10.7664 52.629 10.5801 52.2831 10.4216H52.1802ZM72.252 8.34754C72.012 8.12471 70.4522 7.0277 70.3494 6.96771C70.2466 6.90772 70.1694 6.91629 70.1094 6.96771C70.0494 7.01913 69.4067 7.82475 69.201 8.03901C69.1457 8.09381 69.0802 8.13716 69.0081 8.16658C68.936 8.19599 68.8589 8.21089 68.781 8.21042H64.9501C64.7444 8.21042 63.5102 8.06472 63.3217 8.03901L62.5589 7.96187C62.5589 7.96187 62.5589 7.96187 62.5589 8.0133C62.586 8.26238 62.6743 8.50088 62.816 8.7075C62.8501 8.74263 62.8917 8.76943 62.9378 8.78578C62.9839 8.80214 63.0332 8.80761 63.0817 8.80177H64.2816C64.9158 8.80177 65.55 8.75892 66.1842 8.75892H67.2469V20.4746C67.2469 21.066 66.3899 20.9374 66.1242 20.946C65.6186 20.946 63.7845 20.8774 63.7502 20.8774C63.7159 20.8774 63.7502 20.8774 63.7502 20.9203C64.5558 21.2459 66.227 21.6745 66.707 22.8743C66.707 22.9429 66.707 22.9515 66.7841 22.9515C67.0806 22.9595 67.3757 22.908 67.652 22.8C67.9283 22.6921 68.1801 22.5298 68.3926 22.3229C68.6051 22.116 68.774 21.8686 68.8893 21.5953C69.0046 21.322 69.0639 21.0283 69.0638 20.7317C69.0638 20.2775 69.0638 10.233 69.0638 8.73321H72.0463C72.1014 8.73779 72.1568 8.72748 72.2065 8.70336C72.2563 8.67924 72.2986 8.64218 72.3292 8.59608C72.3456 8.55138 72.3478 8.5027 72.3355 8.45669C72.3233 8.41067 72.2971 8.36956 72.2606 8.33897L72.252 8.34754ZM64.1273 3.03391C64.1273 3.03391 64.1273 3.03391 64.1873 3.03391H66.1499L70.5894 2.90536C70.6836 2.90536 70.7522 2.90536 70.7865 2.78537C70.8208 2.66539 70.6065 2.40827 70.5379 2.36542C70.4047 2.24848 70.2644 2.13972 70.118 2.03975L68.9696 1.25127C68.9473 1.23458 68.9203 1.22556 68.8924 1.22556C68.8646 1.22556 68.8376 1.23458 68.8153 1.25127C68.8153 1.25127 67.9068 2.24544 67.8211 2.314C67.7354 2.38256 67.7269 2.38256 67.6069 2.39113C66.9127 2.45113 65.3186 2.48541 65.0958 2.47684L63.8359 2.34828C63.8359 2.34828 64.1359 2.93964 64.1444 2.96535" fill="#2C2E31"/>
<path d="M64.5216 15.0753C64.4016 13.3612 63.1932 11.3472 62.6189 10.3702C62.1724 9.64961 61.6556 8.97498 61.0763 8.35614C61.0763 8.35614 60.9991 8.35614 61.0249 8.40756C61.3993 9.17592 61.6867 9.98368 61.8819 10.8158C62.097 11.6621 62.2601 12.5208 62.3704 13.3869C62.559 14.364 62.6961 16.4637 62.7218 16.6351C62.755 16.7483 62.8191 16.8499 62.9069 16.9286C62.9948 17.0074 63.1028 17.0601 63.2189 17.0808C63.4503 17.0808 64.6244 16.8322 64.5044 15.101L64.5216 15.0753ZM57.4167 8.8875C57.2453 8.81036 55.3256 8.21901 55.1884 8.16759C55.0513 8.11616 54.9999 8.16759 55.0342 8.36471C55.0342 8.36471 55.1542 8.94749 55.2656 10.0788C55.3561 11.4883 55.3102 12.9033 55.1284 14.304C54.8491 15.7685 54.4682 17.2118 53.9886 18.6234C53.9886 18.7777 54.1343 18.8634 54.2028 18.7691C55.0966 17.5162 55.7611 16.1146 56.1655 14.6296C56.4844 13.1958 56.7219 11.7451 56.8768 10.2845C57.0126 9.94992 57.2308 9.65511 57.511 9.42743C57.6996 9.24745 57.631 9.05034 57.3996 8.95606" fill="#2C2E31"/>
<path d="M60.0393 13.9524C60.0393 12.984 59.9878 9.00733 59.9793 8.33027C59.9793 7.47323 59.9793 6.67619 59.9193 5.85343H64.1359H64.3244C64.3592 5.83958 64.389 5.81571 64.4101 5.78487C64.4284 5.74531 64.4324 5.70063 64.4215 5.65844C64.4106 5.61626 64.3854 5.57916 64.3501 5.55347L63.0046 4.22506C63.1198 4.16572 63.2174 4.07703 63.2874 3.96795C64.0159 2.25387 60.7163 1.85964 60.5878 1.8425C60.4592 1.82536 60.4678 1.93677 60.5192 1.97962C60.9157 2.44257 61.2876 2.92603 61.6333 3.42802C61.9333 3.89939 62.0019 4.21649 62.3618 4.28505C62.5132 4.32749 62.6733 4.32749 62.8246 4.28505L62.0876 5.20208C62.069 5.22751 62.0444 5.24789 62.016 5.26136C61.9875 5.27483 61.9562 5.28097 61.9247 5.27922H59.9021L59.825 2.11675C59.825 1.89392 60.2192 1.57682 60.2964 1.49111C60.3735 1.40541 60.4592 1.36256 60.4592 1.26828C60.4592 1.17401 60.4078 1.0883 60.1592 0.976889C59.8313 0.822048 59.486 0.70696 59.1308 0.634074C58.7257 0.54335 58.3118 0.497366 57.8967 0.496948C57.8836 0.497039 57.8707 0.500455 57.8593 0.506876C57.8479 0.513297 57.8384 0.522512 57.8315 0.533654C57.8246 0.544796 57.8207 0.557499 57.8201 0.570569C57.8195 0.583638 57.8223 0.596644 57.8281 0.608363C57.8944 0.779493 57.9516 0.953999 57.9995 1.13116C58.0509 1.3197 58.1795 2.51099 58.2223 3.03378C58.2223 3.23947 58.2223 4.18221 58.2738 5.27922H55.3341C55.1799 5.27922 54.0828 5.06496 54.0828 5.06496C54.0828 5.06496 53.9886 5.09067 53.9886 5.14209L54.34 5.93056C54.34 5.98199 54.34 5.99056 54.4085 5.99056L55.3941 5.84486H58.2738C58.2738 7.40467 58.2738 9.09303 58.2738 9.46156C58.2738 10.1643 58.2738 15.8808 58.2738 17.2777C58.2738 18.8804 58.2138 20.4831 58.1795 22.0857C58.1795 23.0027 58.7194 22.9427 59.4308 22.8228C60.1421 22.7028 60.2192 22.3942 60.2278 22.2143C60.2364 22.0343 60.2278 20.5002 60.1507 19.2318C60.0735 17.9634 60.0221 14.9037 60.0221 13.9439L60.0393 13.9524ZM51.2118 5.14209C52.1202 4.44789 53.5943 3.05949 53.6886 2.97379C53.7829 2.88808 53.9114 2.88808 54.1857 2.83666C54.34 2.82152 54.4848 2.75515 54.5971 2.64811C54.6485 2.60526 54.6656 2.51099 54.5542 2.37386C54.4074 2.20715 54.2371 2.06278 54.0486 1.94534L52.583 1.0883C52.583 1.0883 52.5145 1.0883 52.4888 1.13116C51.7187 2.40987 50.8596 3.63275 49.9176 4.7907C49.0825 5.80253 48.1527 6.73235 47.1408 7.5675C47.0466 7.6275 47.1408 7.78176 47.218 7.73891C47.2951 7.69606 50.2519 5.87914 51.1689 5.1678" fill="#2C2E31"/>
</svg>
