<svg width="91" height="32" viewBox="0 0 91 32" fill="none" xmlns="http://www.w3.org/2000/svg">
<g clip-path="url(#clip0)">
<path d="M90.0692 7.7782H85.3837L82.6722 19.2182L82.2918 20.788C82.03 20.8593 81.7686 20.9307 81.5067 20.9782C81.0312 21.0734 80.5318 21.1209 80.0086 21.1209C79.4141 21.1209 78.9381 21.0258 78.5816 20.8593C78.2486 20.6928 77.9867 20.455 77.8443 20.122C77.7014 19.8128 77.6541 19.4323 77.6775 19.0042C77.7014 18.5761 77.7965 18.1004 77.9155 17.6247L79.3424 11.6787L80.27 7.73061H75.4894L73.3251 16.8636C73.0637 17.9577 72.9208 19.0042 72.8735 20.0031C72.8257 21.002 72.9925 21.8582 73.3251 22.6431C73.6581 23.4042 74.2526 23.9988 75.0616 24.4507C75.8702 24.9026 77.0353 25.1166 78.51 25.1166C79.5326 25.1166 80.4367 25.0215 81.1975 24.855C81.2214 24.855 81.2692 24.8312 81.2926 24.8312C81.0785 25.7826 80.6508 26.5437 79.9847 27.1382C79.2951 27.7329 78.2959 28.042 76.9641 28.042C76.3935 28.042 75.8702 28.0182 75.3943 27.9469L74.4667 31.8237C75.0851 31.895 75.7751 31.9426 76.5359 31.9426C77.9633 31.9426 79.2 31.7761 80.27 31.4669C81.3404 31.134 82.2441 30.6583 83.0292 29.9923C83.79 29.3264 84.4322 28.494 84.9555 27.5188C85.4788 26.5199 85.883 25.3544 86.1922 23.975L89.4269 10.3707L90.0692 7.7782Z" fill="#2A3F90"/>
<path d="M70.4554 17.5736C70.1701 18.7628 70.075 19.9757 70.1936 21.165C70.3126 22.378 70.7885 24.2093 71.2401 25.1369H66.7214C66.1742 24.2093 66.1981 23.7574 66.0791 23.472C65.4846 23.9477 64.8424 24.352 64.1289 24.6612C63.4154 24.9704 62.6303 25.1369 61.7267 25.1369C60.6801 25.1369 59.7765 24.9466 59.0391 24.5898C58.3018 24.2331 57.6834 23.7336 57.2079 23.1152C56.732 22.4969 56.3993 21.7833 56.1853 20.9509C55.9712 20.1185 55.8761 19.2385 55.8761 18.2871C55.8761 16.8363 56.1375 15.4806 56.6369 14.1963C57.1601 12.9119 57.8736 11.7941 58.7777 10.8428C59.6814 9.89142 61.8934 7.77464 65.5085 7.77464C67.0779 7.77464 69.1709 7.77464 72.7626 7.77464L70.4554 17.5736ZM67.1495 11.7466C64.9614 11.7466 64.5571 11.7466 63.6534 12.1984C63.0112 12.5314 62.4879 13.0309 62.0358 13.6017C61.5842 14.1725 61.2034 14.8384 60.942 15.5995C60.6801 16.3606 60.5377 17.1455 60.5377 17.9542C60.5377 18.9531 60.704 19.7617 61.0371 20.3563C61.3701 20.9509 61.9885 21.2363 62.8922 21.2363C63.3677 21.2363 63.8197 21.1412 64.2001 20.9509C64.581 20.7606 65.0087 20.4514 65.4369 19.9995C65.4846 19.4763 65.5558 18.9293 65.6509 18.3585C65.746 17.7877 65.865 17.2406 65.9601 16.7649L67.1495 11.7466Z" fill="#2A3F90"/>
<path d="M54.5938 14.6685C54.5938 16.2144 54.332 17.6176 53.8326 18.902C53.3332 20.1863 52.6197 21.2803 51.7156 22.2079C50.812 23.1355 49.7415 23.849 48.4814 24.3723C47.2207 24.8955 45.865 25.1571 44.3904 25.1571C43.6769 25.1571 42.9633 25.0858 42.226 24.9669L40.799 30.6987H36.1136L41.5601 7.8187C42.3449 7.8187 46.5307 7.8187 47.8152 7.8187C49.0046 7.8187 50.0273 8.00894 50.8597 8.36571C51.7156 8.72245 52.4056 9.22192 52.9762 9.84028C53.5234 10.4587 53.9277 11.196 54.1891 12.0284C54.4748 12.8371 54.5938 13.7171 54.5938 14.6685ZM43.106 21.1614C43.4628 21.2566 43.9147 21.2803 44.4379 21.2803C45.2705 21.2803 46.0074 21.1376 46.6975 20.8285C47.3632 20.5193 47.9581 20.0911 48.4336 19.5441C48.9091 18.9971 49.266 18.3311 49.5513 17.57C49.8132 16.809 49.9556 15.9528 49.9556 15.0252C49.9556 14.1214 49.7654 13.3365 49.3611 12.7182C48.9569 12.076 48.2673 11.743 47.2681 11.743C46.5785 11.743 45.413 11.743 45.413 11.743L43.106 21.1614Z" fill="#2A3F90"/>
<path d="M33.24 21.142C32.6454 21.142 32.1697 21.0469 31.8129 20.8804C31.48 20.7139 31.2184 20.476 31.0756 20.1431C30.9329 19.8339 30.8854 19.4533 30.9091 19.0252C30.9329 18.5971 31.0281 18.1214 31.147 17.6458L32.574 11.6998H37.9016L38.8767 7.75167H33.5254L34.7621 2.75705L29.7676 3.54192L26.6043 16.9084C26.3427 18.0025 26.2 19.049 26.1524 20.0479C26.1048 21.0469 26.2713 21.9031 26.6043 22.6879C26.9373 23.449 27.5318 24.0436 28.3405 24.4955C29.1491 24.9474 30.3146 25.1614 31.7891 25.1614C32.8119 25.1614 33.7157 25.0663 34.4767 24.8998C34.5481 24.876 34.667 24.8522 34.7384 24.8285L35.7135 20.7614C35.3805 20.8804 35.0476 20.9517 34.7384 20.9993C34.2627 21.0944 33.7632 21.142 33.24 21.142Z" fill="#2A3F90"/>
<path d="M21.3259 7.77464L17.1875 25.1369H21.8729L25.9875 7.77464H21.3259Z" fill="#2A3F90"/>
<path d="M26.4944 5.77758L27.208 2.75705H22.5225L21.809 5.77758H26.4944Z" fill="#2A3F90"/>
<path d="M10.9644 7.80795C11.9633 7.80795 12.8433 7.99824 13.5806 8.35497C14.3179 8.71175 14.9125 9.18742 15.412 9.80579C15.8876 10.4242 16.2444 11.1377 16.4822 11.9464C16.72 12.755 16.839 13.635 16.839 14.5864C16.839 16.0372 16.5774 17.3929 16.0303 18.701C15.4833 19.9853 14.7698 21.1269 13.8422 22.0783C12.9147 23.0296 11.8206 23.7907 10.56 24.3378C9.29947 24.8848 7.9438 25.1702 6.46923 25.1702C6.27894 25.1702 5.94596 25.1702 5.47029 25.1464C4.99461 25.1464 4.44759 25.0988 3.85299 25.0037C3.2346 24.9085 2.59244 24.7896 1.92649 24.6231C1.23676 24.4567 0.594596 24.2188 0 23.9334L5.44649 1.05333L10.3222 0.292252L8.39572 8.40257C8.8238 8.21228 9.20437 8.06959 9.63245 7.97444C10.0368 7.8555 10.4887 7.80795 10.9644 7.80795ZM6.87355 21.2696C7.61082 21.2696 8.30057 21.1031 8.94274 20.7226C9.5849 20.3658 10.1557 19.8902 10.6314 19.2955C11.1071 18.701 11.4876 18.0112 11.7492 17.2739C12.0109 16.5129 12.1536 15.728 12.1536 14.9193C12.1536 13.9204 11.9871 13.1355 11.6541 12.5647C11.3211 11.9939 10.6314 11.7323 9.72759 11.7323C9.44221 11.7323 9.13303 11.7561 8.65731 11.875C8.18163 11.9701 7.77731 12.208 7.39678 12.5409L5.35139 21.1745C5.96976 21.2696 6.63572 21.2696 6.87355 21.2696Z" fill="#2A3F90"/>
</g>
<defs>
<clipPath id="clip0">
<rect width="90.1408" height="32" fill="white"/>
</clipPath>
</defs>
</svg>
