<svg xmlns="http://www.w3.org/2000/svg" class="c-logo -is-full" viewBox="0 0 140 33"><g fill-rule="evenodd"><g><path fill="#8EC31F" d="M16.32 7.14a9.21 9.21 0 0 0-9.23 9.18c0 5.06 4.14 9.17 9.23 9.17s9.22-4.11 9.22-9.17-4.14-9.18-9.22-9.18m0 20.04A10.9 10.9 0 0 1 5.4 16.32c0-6 4.9-10.86 10.92-10.86s10.91 4.87 10.91 10.86a10.9 10.9 0 0 1-10.91 10.86"/><path fill="#E51773" d="M18.1 18.91l-.2.13a3.16 3.16 0 0 1-1.58.41 3.15 3.15 0 0 1-3.16-3.13 3.15 3.15 0 0 1 3.16-3.14 3.14 3.14 0 0 1 1.17.23c.39.17.63.31.63.31l2.1-2.09s-.38-.29-.75-.52a4.38 4.38 0 0 0-.36-.2l-.08-.05-.11-.05a6.14 6.14 0 0 0-1.3-.43l-.25-.06a6.15 6.15 0 0 0-1.05-.09 6.1 6.1 0 0 0-6.12 6.09 6.1 6.1 0 0 0 6.12 6.08 6.14 6.14 0 0 0 3.05-.81c.5-.3.84-.59.84-.59l-2.11-2.09z"/><path fill="#2EA7DF" d="M26.53 27.28l-.1.1-.3.28c-2.7 2.4-6 3.62-9.81 3.62-8.3 0-15.05-6.71-15.05-14.97S8.02 1.35 16.32 1.35a15.86 15.86 0 0 1 10.25 4l.9-.9-.57-.48A17.16 17.16 0 0 0 16.31.07C7.32.08 0 7.38 0 16.32a16.3 16.3 0 0 0 16.32 16.24c4.07 0 7.75-1.37 10.65-3.95l.1-.1h.01l.21-.2.15-.13-.9-.89z"/></g><g><path fill="#2F3030" d="M45.16 26.61c-1.47.7-2.89.9-4.33.9-4.22 0-6.77-3.06-6.77-6.68s2.53-6.66 6.77-6.66c1.5 0 2.9.32 4.38.95l-.81 2.26a9.66 9.66 0 0 0-3.52-.72c-2.47 0-3.89 1.93-3.89 4.17 0 2.26 1.42 4.2 3.9 4.2 1.18 0 2.32-.3 3.5-.78l.77 2.36zm12.23-5.76c0-2.49-1.65-4.2-3.64-4.2-2 0-3.64 1.71-3.64 4.2 0 2.47 1.62 4.18 3.64 4.18 2.04 0 3.64-1.71 3.64-4.18m-10.21 0c0-3.59 2.68-6.68 6.57-6.68s6.57 3.09 6.57 6.68c0 3.6-2.63 6.67-6.57 6.67a6.47 6.47 0 0 1-6.57-6.67m26.42 5.76c-1.46.7-2.88.9-4.32.9-4.22 0-6.77-3.06-6.77-6.68s2.52-6.66 6.77-6.66c1.49 0 2.9.32 4.37.95l-.8 2.26a9.67 9.67 0 0 0-3.52-.72c-2.48 0-3.9 1.93-3.9 4.17 0 2.26 1.42 4.2 3.9 4.2 1.19 0 2.32-.3 3.51-.78l.76 2.36zm12.22-5.76c0-2.49-1.65-4.2-3.64-4.2-2 0-3.64 1.71-3.64 4.2 0 2.47 1.61 4.18 3.64 4.18 2.04 0 3.63-1.71 3.63-4.18m-10.2 0c0-3.59 2.67-6.68 6.56-6.68 3.9 0 6.58 3.09 6.58 6.68 0 3.6-2.63 6.67-6.57 6.67a6.47 6.47 0 0 1-6.58-6.67m15.9-6.22h2.69v1.5a4.66 4.66 0 0 1 4.04-1.96c2.55 0 4.22 1.86 4.22 4.85v8.17h-2.83v-7.8c0-1.58-.58-2.73-1.97-2.73-2.05 0-3.31 1.73-3.31 4.67v5.86H91.5V14.63zM115 20.8c0-2.49-1.6-4.15-3.62-4.15-2.05 0-3.36 1.84-3.36 4.18 0 2.24 1.21 4.2 3.36 4.2 1.9 0 3.61-1.56 3.61-4.23zm-.06 4.88a4.83 4.83 0 0 1-3.89 1.84c-3.69 0-5.96-3.22-5.96-6.7 0-3.51 2.37-6.65 5.96-6.65 1.57 0 2.83.63 3.77 1.66v-1.34h2.83v12.7h-2.71v-1.5zm6.2-16.92l2.84-.02v15.2c0 .79.28 1.11 1.01 1.11v2.44c-2.15 0-3.84-.78-3.84-3.2V8.77zM137.1 20.8c0-2.49-1.59-4.15-3.61-4.15-2.05 0-3.36 1.84-3.36 4.18 0 2.24 1.21 4.2 3.36 4.2 1.9 0 3.61-1.56 3.61-4.23zm-.05 4.88a4.83 4.83 0 0 1-3.9 1.84c-3.68 0-5.96-3.22-5.96-6.7 0-3.51 2.38-6.65 5.97-6.65 1.57 0 2.83.63 3.77 1.66v-1.34h2.83v12.7h-2.71v-1.5z"/><path fill="#333" fill-rule="nonzero" d="M40.27 9.35l-.43.47c-.6-.76-1.45-1.58-2.41-2.32-.53.6-.9.95-1.44 1.34a9.72 9.72 0 0 1-1.48.9 1.67 1.67 0 0 0-.37-.5c.58-.22.95-.43 1.53-.85A8.14 8.14 0 0 0 38.37 5c0-.04.02-.05.03-.09.02-.02.02-.03.02-.05h-.18l-2.52.05a5.1 5.1 0 0 0-.77.06l-.02-.61c.2.03.34.04.6.04h.2l2.69-.03c.26-.01.35-.02.48-.06l.32.32c-.08.09-.13.18-.22.37a9.08 9.08 0 0 1-1.24 2.1 18.7 18.7 0 0 1 2.51 2.25zm3.7-4.1l-.15-.81a2.53 2.53 0 0 0-.17-.64l.6-.1c0 .19.02.33.08.64l.15.83 1.7-.26c.34-.06.5-.1.67-.15l.1.54-.67.1-1.71.26.29 1.51 1.87-.3c.34-.06.55-.1.74-.17l.1.55-.32.04-.24.04a2.7 2.7 0 0 1-.17.03l-1.9.3.32 1.66c.06.39.09.48.16.7l-.6.12a5.77 5.77 0 0 0-.1-.72l-.3-1.68-2.02.32c-.43.07-.48.08-.73.15l-.1-.57c.25 0 .44-.01.75-.07l2-.32-.26-1.51-1.56.24c-.3.05-.55.1-.75.16l-.1-.57c.24 0 .44-.02.78-.07l1.54-.24zM50 4.05l.62.03c-.03.19-.03.19-.04.65-.06 2.03-.12 2.59-.4 3.34-.26.7-.63 1.2-1.31 1.86a1.39 1.39 0 0 0-.45-.41 3.7 3.7 0 0 0 1.27-1.72 10.17 10.17 0 0 0 .3-3.75zm1.88-.06l.61.01c-.03.18-.04.32-.04.66l-.05 4.53a3.48 3.48 0 0 0 1.4-.87 3.71 3.71 0 0 0 .9-1.5c.15.2.22.27.42.44a4.27 4.27 0 0 1-1.52 1.92 4.98 4.98 0 0 1-1.08.55l-.24.09a1.25 1.25 0 0 0-.17.08l-.3-.34c.04-.13.05-.19.05-.51l.05-4.39c0-.49 0-.49-.03-.67zm7.24 1.8a9 9 0 0 1-.59 2.37c-.35.8-.7 1.16-1.14 1.16-.57 0-1-.63-1-1.47 0-.61.23-1.2.63-1.65.49-.53 1.14-.8 1.95-.8.68 0 1.27.2 1.66.6a2 2 0 0 1 .59 1.46c0 .93-.51 1.7-1.39 2.07a4.66 4.66 0 0 1-.91.27.95.95 0 0 0-.21-.4c.44-.07.72-.15 1-.28a1.81 1.81 0 0 0 1.07-1.68c0-.69-.35-1.24-.96-1.5a1.74 1.74 0 0 0-.7-.16zm-.43 0c-.36.03-.62.11-.9.28-.6.37-.98 1.04-.98 1.79 0 .57.25 1.02.58 1.02.25 0 .5-.28.75-.87.25-.57.47-1.45.55-2.22zm8.55-1.35l.35.33c-.05.08-.05.08-.16.46a6.39 6.39 0 0 1-4.26 4.67 1.42 1.42 0 0 0-.37-.53 5.6 5.6 0 0 0 1.7-.8A5.54 5.54 0 0 0 66.89 5h-3.84a5.27 5.27 0 0 0-.84.04v-.6c.28.04.44.05.85.05h3.71c.3 0 .35-.01.48-.06zm2.94-.47h.63c-.02.18-.03.28-.03.62V6.6c0 .36 0 .44.03.62h-.63c.03-.17.03-.33.03-.63v-2c0-.32 0-.45-.03-.63zm3.34 0h.63c-.03.17-.04.3-.04.65v.89a8.4 8.4 0 0 1-.19 2.29c-.21.7-.69 1.25-1.43 1.66-.37.21-.73.35-1.37.54-.09-.22-.13-.3-.32-.52a4.4 4.4 0 0 0 1.43-.5c.7-.41 1.07-.9 1.21-1.59.08-.43.1-.77.1-1.91v-.85c0-.39 0-.5-.02-.66zm2.86 3.22v-.62c.22.04.42.05.94.05h4.38c.55 0 .68-.01.9-.04v.6a8.67 8.67 0 0 0-.91-.02h-4.37c-.55 0-.71 0-.94.03zm8.18-.59l.42-.33c.56.47.84.72 1.53 1.42.32-.27.72-.63 1-.92a11 11 0 0 0 1.25-1.63l.06-.09-4.31.02c-.4 0-.62 0-.87.03v-.6c.26.04.44.05.88.05h4.4c.26 0 .3-.01.42-.05l.31.37c-.09.09-.14.16-.3.4a11.48 11.48 0 0 1-2.49 2.81c.29.3.6.7 1.1 1.37l-.46.38a14.13 14.13 0 0 0-2.94-3.23zm5.92.59v-.62c.22.04.42.05.94.05h4.38c.55 0 .68-.01.9-.04v.6a8.67 8.67 0 0 0-.91-.02h-4.37c-.55 0-.71 0-.94.03zm12.64-1.55h-1.1a5.8 5.8 0 0 1-.4 2.11 3.9 3.9 0 0 1-1.3 1.58c-.3.23-.6.4-1.15.66a1.06 1.06 0 0 0-.37-.48 4.37 4.37 0 0 0 1.59-.97c.7-.66 1-1.5 1.08-2.9h-2.08a6.9 6.9 0 0 1-1.32 1.6c-.13-.18-.2-.23-.44-.36.7-.55 1.2-1.18 1.61-2.07.23-.48.33-.74.39-1.05l.57.18c-.07.14-.09.17-.19.41-.17.4-.3.68-.39.82h3.5c.48 0 .62-.01.93-.05v.55c-.2-.02-.2-.02-.93-.03zm2.74.16l.48-.16c.3.52.47.87.74 1.67l-.5.17a6.17 6.17 0 0 0-.72-1.68zm1.56-.31l.46-.15c.4.72.53 1.02.73 1.62l-.5.17a6.56 6.56 0 0 0-.7-1.65zm2.61-.01l.56.12-.16.6a6.73 6.73 0 0 1-.67 1.69 5.46 5.46 0 0 1-2.5 2.16 1.52 1.52 0 0 0-.34-.42 4.84 4.84 0 0 0 2.39-1.95 5.64 5.64 0 0 0 .64-1.62c.05-.24.08-.42.08-.5v-.08zm4.03 4.51h-.65c.03-.2.05-.38.05-.78V4.54c0-.4-.02-.58-.05-.77h.65c-.03.2-.04.35-.04.78v1.4c1.16.42 2.04.83 3.36 1.59l-.33.55c-.7-.5-1.75-1.05-2.81-1.48a.83.83 0 0 1-.23-.13h-.02c.02.16.03.26.03.45v2.26c0 .42 0 .58.04.8z"/></g></g></svg>