<svg width="138" height="32" viewBox="0 0 138 32" fill="none" xmlns="http://www.w3.org/2000/svg">
<path fill-rule="evenodd" clip-rule="evenodd" d="M16.0739 6.96338C13.6698 6.95814 11.3619 7.90748 9.65734 9.60282C7.95277 11.2982 6.99091 13.6008 6.98308 16.0049C6.98308 20.9886 11.0606 25.0366 16.0739 25.0366C21.0871 25.0366 25.1548 20.9886 25.1548 16.0049C25.1548 11.0212 21.0773 6.96338 16.0739 6.96338V6.96338ZM16.0739 26.7011C13.23 26.7064 10.5003 25.583 8.48383 23.5777C6.46738 21.5723 5.329 18.8488 5.31857 16.0049C5.31857 10.0954 10.1447 5.30872 16.0739 5.30872C22.0031 5.30872 26.8193 10.1053 26.8193 16.0049C26.8089 18.8471 25.6719 21.5691 23.6576 23.5742C21.6432 25.5793 18.916 26.7038 16.0739 26.7011" fill="#8EC31F"/>
<path fill-rule="evenodd" clip-rule="evenodd" d="M17.827 18.5558L17.63 18.6839C17.1556 18.9524 16.619 19.0917 16.0739 19.0877C15.2527 19.0903 14.4641 18.7673 13.8807 18.1894C13.2973 17.6116 12.9667 16.826 12.9615 16.0049C12.9628 15.5975 13.0443 15.1943 13.2015 14.8184C13.3586 14.4425 13.5882 14.1012 13.8772 13.814C14.1662 13.5268 14.5089 13.2994 14.8858 13.1446C15.2628 12.9899 15.6664 12.911 16.0739 12.9123C16.4689 12.9135 16.8601 12.9904 17.2262 13.1388C17.6103 13.3062 17.8467 13.4441 17.8467 13.4441L19.9151 11.3856C19.9151 11.3856 19.5408 11.1 19.1764 10.8735C19.0613 10.8023 18.943 10.7366 18.8218 10.6765L18.743 10.6272L18.6347 10.578C18.225 10.3895 17.7955 10.2475 17.3543 10.1545L17.108 10.0954C16.7665 10.0363 16.4205 10.0066 16.0739 10.0067C15.2841 10.0042 14.5015 10.1573 13.7709 10.4575C13.0404 10.7576 12.3762 11.1989 11.8163 11.756C11.2565 12.3131 10.812 12.9751 10.5082 13.7042C10.2045 14.4333 10.0475 15.2151 10.0462 16.0049C10.0488 16.7939 10.2067 17.5746 10.511 18.3026C10.8154 19.0305 11.2601 19.6914 11.8198 20.2474C12.3795 20.8035 13.0433 21.2439 13.7732 21.5434C14.5031 21.843 15.2849 21.9958 16.0739 21.9932C17.1276 21.9935 18.1631 21.7185 19.0779 21.1954C19.5703 20.8999 19.9052 20.6143 19.9052 20.6143L17.827 18.5558V18.5558Z" fill="#E51773"/>
<path fill-rule="evenodd" clip-rule="evenodd" d="M26.1299 26.7996L26.0314 26.8981L25.7359 27.1739C23.0766 29.5377 19.8264 30.7393 16.0739 30.7393C7.89904 30.7393 1.25085 24.1305 1.25085 15.9951C1.25085 7.85965 7.89904 1.2607 16.0739 1.2607C19.8013 1.32717 23.3821 2.72454 26.1693 5.20037L27.0557 4.31394L26.4943 3.84118C23.55 1.42146 19.8744 0.0678285 16.064 0C7.2096 0.00984918 0 7.19975 0 16.0049C0.0156447 20.2559 1.71667 24.3272 4.72997 27.3257C7.74328 30.3242 11.8228 32.0052 16.0739 32C20.0825 32 23.707 30.6507 26.5632 28.1096L26.6617 28.0111H26.6716L26.8784 27.8141L27.0262 27.686L26.1397 26.8095L26.1299 26.7996Z" fill="#2EA7DF"/>
<path fill-rule="evenodd" clip-rule="evenodd" d="M44.4789 26.1398C43.0311 26.8292 41.6325 27.0262 40.2142 27.0262C36.0578 27.0262 33.5463 24.0124 33.5463 20.447C33.5463 16.8816 36.0381 13.8874 40.2142 13.8874C41.6916 13.8874 43.0705 14.2026 44.5281 14.8231L43.7303 17.049C42.6292 16.5979 41.4533 16.3574 40.2634 16.3399C37.8307 16.3399 36.4321 18.2407 36.4321 20.447C36.4321 22.6729 37.8307 24.5836 40.2733 24.5836C41.4355 24.5836 42.5583 24.2881 43.7205 23.8154L44.4789 26.1398V26.1398ZM56.5244 20.4667C56.5244 18.0142 54.8993 16.33 52.9393 16.33C50.9695 16.33 49.3542 18.0142 49.3542 20.4667C49.3542 22.8994 50.9498 24.5836 52.9393 24.5836C54.9486 24.5836 56.5244 22.8994 56.5244 20.4667ZM46.4684 20.4667C46.4684 16.9308 49.108 13.8874 52.9393 13.8874C56.7707 13.8874 59.4102 16.9308 59.4102 20.4667C59.4102 24.0124 56.8199 27.0361 52.9393 27.0361C52.0774 27.0498 51.2217 26.8885 50.4239 26.562C49.6261 26.2354 48.9028 25.7504 48.2979 25.1363C47.693 24.5221 47.2189 23.7917 46.9045 22.989C46.59 22.1864 46.4417 21.3283 46.4684 20.4667V20.4667ZM72.49 26.1398C71.052 26.8292 69.6534 27.0262 68.2351 27.0262C64.0788 27.0262 61.5672 24.0124 61.5672 20.447C61.5672 16.8816 64.0492 13.8874 68.2351 13.8874C69.7026 13.8874 71.0914 14.2026 72.5392 14.8231L71.7513 17.049C70.6501 16.5981 69.4741 16.3576 68.2844 16.3399C65.8418 16.3399 64.4432 18.2407 64.4432 20.447C64.4432 22.6729 65.8418 24.5836 68.2844 24.5836C69.4564 24.5836 70.5694 24.2881 71.7414 23.8154L72.49 26.1398V26.1398ZM84.5257 20.4667C84.5257 18.0142 82.9005 16.33 80.9406 16.33C78.9707 16.33 77.3554 18.0142 77.3554 20.4667C77.3554 22.8994 78.9412 24.5836 80.9406 24.5836C82.9498 24.5836 84.5158 22.8994 84.5158 20.4667H84.5257ZM74.4696 20.4667C74.4696 16.9308 77.0994 13.8874 80.9307 13.8874C84.7719 13.8874 87.4115 16.9308 87.4115 20.4667C87.4115 24.0124 84.8211 27.0361 80.9406 27.0361C80.0778 27.0512 79.221 26.8909 78.422 26.5649C77.6231 26.239 76.8986 25.7542 76.2927 25.1399C75.6867 24.5256 75.2117 23.7947 74.8967 22.9914C74.5816 22.1881 74.433 21.3291 74.4598 20.4667H74.4696ZM90.12 14.3405H92.7694V15.8179C93.2164 15.187 93.8155 14.6792 94.5111 14.3418C95.2067 14.0043 95.9763 13.848 96.7485 13.8874C99.26 13.8874 100.905 15.7194 100.905 18.6643V26.711H98.1175V19.0287C98.1175 17.4725 97.5463 16.3399 96.1772 16.3399C94.1582 16.3399 92.9172 18.0438 92.9172 20.9394V26.711H90.12V14.3405V14.3405ZM113.266 20.4174C113.266 17.965 111.69 16.33 109.7 16.33C107.681 16.33 106.391 18.1423 106.391 20.447C106.391 22.6532 107.583 24.5836 109.7 24.5836C111.571 24.5836 113.256 23.0471 113.256 20.4174H113.266ZM113.206 25.2238C112.751 25.8015 112.169 26.2658 111.504 26.5802C110.839 26.8946 110.11 27.0507 109.375 27.0361C105.741 27.0361 103.505 23.8646 103.505 20.4371C103.505 16.9801 105.839 13.8874 109.375 13.8874C110.921 13.8874 112.162 14.5079 113.088 15.5224V14.2026H115.876V26.711H113.206V25.2337V25.2238ZM119.313 8.55901L122.11 8.53931V23.5101C122.11 24.2881 122.386 24.6033 123.105 24.6033V27.0065C120.987 27.0065 119.323 26.2383 119.323 23.8548V8.56885L119.313 8.55901ZM135.032 20.4174C135.032 17.965 133.466 16.33 131.477 16.33C129.458 16.33 128.167 18.1423 128.167 20.447C128.167 22.6532 129.359 24.5836 131.477 24.5836C133.348 24.5836 135.032 23.0471 135.032 20.4174V20.4174ZM134.983 25.2238C134.527 25.8028 133.942 26.2679 133.276 26.5824C132.609 26.8969 131.879 27.0522 131.142 27.0361C127.517 27.0361 125.272 23.8646 125.272 20.4371C125.272 16.9801 127.616 13.8874 131.152 13.8874C132.698 13.8874 133.939 14.5079 134.865 15.5224V14.2026H137.652V26.711H134.983V25.2337V25.2238Z" fill="#2F3030"/>
<path d="M39.6626 9.1401L39.2391 9.60302C38.6482 8.85448 37.811 8.04685 36.8655 7.31801C36.3435 7.90896 35.979 8.25368 35.4472 8.6378C34.9886 8.97606 34.5008 9.27272 33.9895 9.52422C33.8999 9.3387 33.7763 9.17165 33.6251 9.03176C34.1963 8.81508 34.5608 8.60825 35.132 8.19458C36.3039 7.34238 37.2229 6.18853 37.7913 4.85571C37.7913 4.81631 37.811 4.80646 37.8208 4.76707C37.8405 4.74737 37.8405 4.73752 37.8405 4.71782H37.6633L35.1813 4.76707C34.9273 4.76757 34.6738 4.78732 34.4229 4.82616L34.4032 4.22536C34.6002 4.25491 34.738 4.26476 34.9941 4.26476H35.1911L37.8405 4.23521C38.0966 4.22536 38.1853 4.21551 38.3133 4.17612L38.6285 4.49129C38.5497 4.57993 38.5004 4.66858 38.4118 4.85571C38.0996 5.59694 37.6887 6.29265 37.1905 6.92404C38.0796 7.5868 38.907 8.3285 39.6626 9.1401V9.1401ZM43.3068 5.10194L43.1591 4.30416C43.1311 4.08761 43.0749 3.87568 42.9917 3.67381L43.5826 3.57532C43.5826 3.76245 43.6023 3.90034 43.6614 4.20567L43.8091 5.02315L45.4835 4.76707C45.8184 4.70797 45.976 4.66858 46.1434 4.61933L46.2419 5.15119L45.582 5.24968L43.8978 5.50576L44.1834 6.99298L46.0252 6.69751C46.3601 6.63841 46.5669 6.59902 46.7541 6.53007L46.8525 7.07178L46.5374 7.11117L46.301 7.15057C46.2455 7.1622 46.1897 7.17206 46.1336 7.18012L44.2622 7.47559L44.5774 9.11056C44.6365 9.49467 44.666 9.58332 44.735 9.8L44.144 9.91819C44.1261 9.67997 44.0932 9.44312 44.0455 9.20905L43.75 7.55439L41.7605 7.86956C41.337 7.9385 41.2878 7.94835 41.0415 8.0173L40.943 7.45589C41.1893 7.45589 41.3764 7.44605 41.6817 7.38695L43.6516 7.07178L43.3955 5.58455L41.859 5.82093C41.5635 5.87018 41.3173 5.91942 41.1203 5.97852L41.0218 5.41711C41.2582 5.41711 41.4552 5.39742 41.7901 5.34817L43.3068 5.11179V5.10194ZM49.2459 3.92004L49.8565 3.94959C49.827 4.13672 49.827 4.13672 49.8171 4.58978C49.7581 6.58917 49.699 7.14072 49.4232 7.87941C49.1671 8.56885 48.8027 9.06131 48.1329 9.71136C48.0168 9.54566 47.8655 9.40774 47.6897 9.30754C48.2643 8.87825 48.6994 8.28896 48.9406 7.61348C49.2679 6.41142 49.3681 5.15885 49.236 3.92004H49.2459ZM51.0975 3.86094L51.6983 3.87079C51.6688 4.04808 51.6589 4.18597 51.6589 4.52084L51.6097 8.98252C52.1313 8.81143 52.6042 8.51757 52.9886 8.12564C53.3976 7.71087 53.7015 7.20434 53.875 6.64826C54.0227 6.84525 54.0917 6.91419 54.2887 7.08163C53.985 7.84462 53.4645 8.502 52.7916 8.97267C52.4604 9.19587 52.1032 9.37778 51.7279 9.51437L51.4915 9.60302C51.4338 9.62504 51.3778 9.65138 51.3241 9.68181L51.0286 9.34694C51.068 9.2189 51.0778 9.1598 51.0778 8.84463L51.1271 4.52084C51.1271 4.03823 51.1271 4.03823 51.0975 3.86094V3.86094ZM58.2283 5.6338C58.1416 6.43467 57.9461 7.21999 57.6472 7.96805C57.3025 8.75599 56.9578 9.11056 56.5244 9.11056C55.963 9.11056 55.5395 8.49006 55.5395 7.66273C55.5395 7.06193 55.766 6.48083 56.16 6.03761C56.6426 5.51561 57.2828 5.24968 58.0806 5.24968C58.7504 5.24968 59.3315 5.44666 59.7156 5.84063C59.9047 6.02852 60.0537 6.25285 60.1536 6.50002C60.2535 6.74719 60.3022 7.01207 60.2967 7.27861C60.2967 8.19458 59.7944 8.95297 58.9276 9.31739C58.6387 9.43631 58.3384 9.52541 58.0314 9.58332C57.9951 9.43727 57.9241 9.30213 57.8245 9.18935C58.2579 9.12041 58.5337 9.04161 58.8094 8.91357C59.1277 8.77106 59.3971 8.53834 59.5844 8.24424C59.7718 7.95014 59.8687 7.60756 59.8633 7.25891C59.8633 6.57932 59.5186 6.03761 58.9178 5.78153C58.7014 5.68164 58.4666 5.62797 58.2283 5.62395V5.6338ZM57.8048 5.6338C57.4503 5.66334 57.1942 5.74214 56.9184 5.90957C56.3275 6.27399 55.9532 6.93389 55.9532 7.67258C55.9532 8.23398 56.1994 8.67719 56.5244 8.67719C56.7707 8.67719 57.0169 8.40142 57.2631 7.82031C57.5094 7.25891 57.726 6.39218 57.8048 5.6338V5.6338ZM66.2259 4.30416L66.5706 4.62918C66.5213 4.70797 66.5214 4.70797 66.413 5.08224C66.1725 6.14693 65.6593 7.13077 64.9237 7.93717C64.1881 8.74357 63.2554 9.34479 62.2173 9.68181C62.1375 9.48211 62.0128 9.30348 61.8528 9.1598C62.4514 8.99333 63.0174 8.72693 63.5272 8.37187C64.1339 7.97204 64.6547 7.45506 65.0589 6.85126C65.4631 6.24746 65.7427 5.56901 65.8812 4.85571H62.0991C61.8227 4.84678 61.546 4.85996 61.2717 4.89511V4.30416C61.5475 4.34355 61.7051 4.3534 62.1089 4.3534H65.763C66.0584 4.3534 66.1077 4.34355 66.2357 4.29431L66.2259 4.30416ZM69.1215 3.84125H69.742C69.7223 4.01853 69.7125 4.11702 69.7125 4.45189V6.43158C69.7125 6.78615 69.7125 6.86494 69.742 7.04223H69.1215C69.1511 6.87479 69.1511 6.71721 69.1511 6.42173V4.45189C69.1511 4.13672 69.1511 4.00868 69.1215 3.8314V3.84125ZM72.4112 3.84125H73.0317C73.0021 4.00868 72.9923 4.13672 72.9923 4.48144V5.35802C73.0335 6.11486 72.9705 6.87378 72.8051 7.61348C72.5983 8.30292 72.1255 8.84463 71.3967 9.24845C71.0323 9.45528 70.6777 9.59317 70.0474 9.7803C69.9587 9.56362 69.9193 9.48483 69.7322 9.26814C70.2266 9.18665 70.7031 9.02003 71.1406 8.77568C71.8301 8.37187 72.1945 7.88926 72.3324 7.20966C72.4112 6.78615 72.4309 6.45128 72.4309 5.32847V4.49129C72.4309 4.10717 72.4309 3.99883 72.4112 3.84125V3.84125ZM75.228 7.01268V6.40203C75.4447 6.44143 75.6417 6.45128 76.1539 6.45128H80.4678C81.0095 6.45128 81.1375 6.44143 81.3542 6.41188V7.00283C81.056 6.98058 80.7568 6.974 80.4579 6.98313H76.1539C75.6121 6.98313 75.4546 6.98313 75.228 7.01268ZM83.2847 6.43158L83.6983 6.10656C84.2499 6.56947 84.5257 6.8157 85.2052 7.50514C85.5204 7.23921 85.9144 6.88464 86.1902 6.59902C86.6497 6.10345 87.0619 5.56597 87.4213 4.9936L87.4804 4.90496L83.2354 4.92466C82.8414 4.92466 82.6248 4.92465 82.3785 4.9542V4.36325C82.6346 4.40265 82.8119 4.4125 83.2453 4.4125H87.5789C87.835 4.4125 87.8744 4.40265 87.9926 4.36325L88.2979 4.72767C88.2092 4.81631 88.16 4.88526 88.0024 5.12164C87.3423 6.17251 86.5138 7.10755 85.55 7.88926C85.8356 8.18473 86.1409 8.5787 86.6334 9.2386L86.1803 9.61286C85.3858 8.40877 84.4089 7.33552 83.2847 6.43158V6.43158ZM89.1154 7.01268V6.40203C89.3321 6.44143 89.529 6.45128 90.0412 6.45128H94.3551C94.8968 6.45128 95.0249 6.44143 95.2416 6.41188V7.00283C94.9434 6.98058 94.6442 6.974 94.3453 6.98313H90.0412C89.4995 6.98313 89.3419 6.98313 89.1154 7.01268ZM101.565 5.48606H100.481C100.481 6.19727 100.347 6.90207 100.087 7.56424C99.8067 8.18767 99.3647 8.72488 98.807 9.12041C98.5115 9.34694 98.216 9.51437 97.6743 9.77045C97.6014 9.58076 97.4748 9.41645 97.3099 9.29769C97.8945 9.09547 98.4286 8.76961 98.8759 8.34232C99.5654 7.69227 99.8608 6.86494 99.9396 5.48606H97.891C97.5395 6.07386 97.1012 6.60515 96.5909 7.06193C96.4629 6.88464 96.3939 6.8354 96.1575 6.70736C96.847 6.16565 97.3394 5.54515 97.7433 4.66858C97.9698 4.19582 98.0683 3.93974 98.1274 3.63441L98.6888 3.8117C98.6198 3.94959 98.6001 3.97913 98.5016 4.21551C98.3342 4.60948 98.2062 4.88526 98.1175 5.02315H101.565C102.037 5.02315 102.175 5.0133 102.481 4.9739V5.51561C102.284 5.49591 102.284 5.49591 101.565 5.48606V5.48606ZM104.263 5.64365L104.736 5.48606C105.032 5.99822 105.199 6.34294 105.465 7.13087L104.973 7.29831C104.82 6.71461 104.581 6.15693 104.263 5.64365V5.64365ZM105.8 5.33832L106.253 5.19058C106.647 5.89972 106.775 6.1952 106.972 6.78615L106.479 6.95359C106.325 6.38289 106.093 5.83608 105.79 5.32847L105.8 5.33832ZM108.371 5.32847L108.922 5.44666L108.764 6.03761C108.621 6.61974 108.399 7.17969 108.105 7.70212C107.523 8.64853 106.663 9.39171 105.642 9.82955C105.556 9.67276 105.443 9.53266 105.307 9.41588C106.281 9.04954 107.107 8.37508 107.661 7.49529C107.953 6.99929 108.165 6.46101 108.292 5.89972C108.341 5.66334 108.371 5.48606 108.371 5.40726V5.32847ZM112.34 9.77045H111.7C111.729 9.57347 111.749 9.39618 111.749 9.00222V4.40265C111.749 4.00868 111.729 3.8314 111.7 3.64426H112.34C112.31 3.84125 112.3 3.98898 112.3 4.4125V5.79138C113.443 6.20505 114.31 6.60886 115.61 7.3574L115.285 7.89911C114.595 7.40665 113.561 6.86494 112.517 6.44143C112.435 6.41112 112.359 6.36789 112.29 6.31339H112.271C112.29 6.47098 112.3 6.56947 112.3 6.7566V8.98252C112.3 9.39618 112.3 9.55377 112.34 9.77045Z" fill="#333333"/>
</svg>
