<svg width="82" height="48" viewBox="0 0 82 48" fill="none" xmlns="http://www.w3.org/2000/svg">
<g clip-path="url(#clip0)">
<path d="M81.4834 0H0V27.5497H81.4834V0Z" fill="white"/>
<path d="M65.0685 47.9693C65.0236 47.951 65.0208 47.9019 65.0585 47.7936C65.1064 47.6563 65.1285 47.6456 65.3124 47.6703C65.4792 47.6926 65.5283 47.6766 65.598 47.5771C65.732 47.3858 65.6286 47.2477 65.3854 47.2934C65.1988 47.3284 65.1959 47.3263 65.2318 47.1831C65.346 46.7284 65.3568 46.7534 65.0167 46.686C64.6119 46.6057 64.2246 46.3789 63.927 46.048C63.4803 45.5511 63.3254 45.0485 63.3699 44.2405C63.3926 43.8289 63.4276 43.6684 63.5574 43.3821C63.9546 42.5061 64.8619 42.0594 66.0813 42.1395C66.3453 42.1568 66.6806 42.2017 66.8263 42.2394L67.0912 42.3078L67.1064 42.7978L67.1216 43.2879H66.9607C66.8658 43.2879 66.7998 43.2602 66.7998 43.2205C66.7998 43.0829 66.4753 42.7644 66.2459 42.6767C65.9498 42.5636 65.3752 42.5894 65.0874 42.7287C64.4296 43.0471 64.1297 43.8736 64.3297 44.8169C64.4226 45.2551 64.5762 45.5491 64.8697 45.8508C65.1479 46.1368 65.4285 46.2522 65.849 46.2536C66.2937 46.2551 66.6051 46.0764 66.8009 45.7073C66.9339 45.4565 66.9814 45.4257 67.1097 45.5071C67.1695 45.5449 67.17 45.6321 67.1131 46.0344L67.0449 46.5165L66.8031 46.6C66.6701 46.646 66.3647 46.6979 66.1243 46.7155C65.7098 46.7457 65.6872 46.7538 65.6872 46.8719C65.6872 46.9662 65.7165 46.9965 65.8078 46.9965C65.9848 46.9965 66.1508 47.1335 66.19 47.312C66.2355 47.5193 66.088 47.826 65.8946 47.926C65.7547 47.9983 65.2097 48.0269 65.0685 47.9693V47.9693ZM33.5474 47.7464C33.0887 47.6111 32.6932 47.4072 32.2174 47.0605L31.8064 46.7611L31.1706 46.7285C30.4657 46.6923 30.2194 46.6136 29.7634 46.2789C28.7588 45.5415 28.7224 43.665 29.6948 42.7517C30.4269 42.0641 31.7148 41.922 32.6418 42.4266C33.8933 43.1077 34.0262 45.1172 32.8893 46.1697C32.7129 46.3331 32.5401 46.4668 32.5054 46.4669C32.3971 46.4673 33.6421 47.1484 34.0062 47.2879C34.4084 47.4421 34.8783 47.4627 35.2226 47.3412C35.473 47.2529 35.5158 47.2635 35.5578 47.4242C35.5824 47.518 35.5395 47.5576 35.2861 47.6749C34.8866 47.86 34.0494 47.8944 33.5474 47.7464V47.7464ZM31.9938 46.109C32.881 45.6456 33.0499 44.1614 32.3233 43.2137C31.65 42.3353 30.4699 42.4683 30.0263 43.4725C29.6255 44.3798 30.0828 45.7825 30.9004 46.1538C31.2313 46.3041 31.6536 46.2868 31.9938 46.109ZM4.15077 46.6581C3.90743 46.5519 3.64046 46.2215 3.21858 45.5045C2.57043 44.4029 2.44896 44.2415 2.268 44.2415H2.11103L2.1121 44.8376C2.11404 45.9254 2.22342 46.2977 2.56639 46.3838C2.65813 46.4068 2.69381 46.4526 2.69381 46.5472V46.6786H1.60772H0.52163V46.5538C0.52163 46.4593 0.562102 46.4174 0.688424 46.3812C0.78016 46.3549 0.905325 46.2663 0.966569 46.1842C1.07525 46.0386 1.07792 45.9856 1.07792 43.9766C1.07792 41.9675 1.07525 41.9146 0.966569 41.769C0.905325 41.687 0.78016 41.5984 0.688424 41.5721C0.566539 41.5371 0.52163 41.4929 0.52163 41.4079C0.52163 41.2922 0.527616 41.2915 1.86728 41.257C3.29313 41.2203 3.60734 41.2475 4.00923 41.442C4.36032 41.612 4.65297 42.127 4.65378 42.5763C4.65472 43.0907 4.27216 43.6717 3.76736 43.9225L3.50312 44.0538L4.08715 44.9291C4.77423 45.9589 4.99001 46.234 5.19302 46.339C5.38253 46.437 5.40074 46.6507 5.22362 46.6982C5.01052 46.7553 4.31385 46.7293 4.15077 46.6581V46.6581ZM2.82507 43.7056C3.53531 43.5084 3.77502 42.5215 3.23752 42.0075C2.98485 41.7658 2.71654 41.6781 2.37409 41.7252L2.11103 41.7614V42.7631V43.7647L2.36269 43.7644C2.5011 43.7642 2.70917 43.7378 2.82507 43.7056V43.7056ZM15.0319 46.6585C14.7416 46.5547 14.4678 46.3699 14.3229 46.1799C14.0595 45.8346 14.0318 45.653 14.0286 44.2481C14.0252 42.7797 13.9976 42.6184 13.7281 42.4932C13.6198 42.4429 13.5566 42.3748 13.5559 42.3078C13.5548 42.2059 13.5897 42.2018 14.4554 42.2018C15.3541 42.2018 15.3561 42.2021 15.3561 42.321C15.3561 42.4011 15.3243 42.4402 15.2593 42.4402C15.2061 42.4402 15.1048 42.5017 15.0342 42.5769L14.9057 42.7136V44.1531C14.9057 45.5078 14.9122 45.6049 15.0158 45.8024C15.1773 46.1103 15.4996 46.2687 15.914 46.2439C16.3599 46.2172 16.6011 46.059 16.7791 45.6767C16.9158 45.3833 16.917 45.3688 16.918 44.0803C16.9189 42.9265 16.9085 42.7639 16.8256 42.6374C16.7742 42.559 16.6729 42.48 16.6004 42.4618C16.5181 42.4411 16.4686 42.3911 16.4686 42.3285C16.4686 42.2352 16.5176 42.2283 17.1839 42.2283C17.8501 42.2283 17.8991 42.2352 17.8991 42.3285C17.8991 42.3909 17.8497 42.4411 17.7682 42.4616C17.5242 42.5228 17.5047 42.6364 17.4759 44.166L17.4488 45.6005L17.2893 45.9121C17.101 46.2799 16.7962 46.5342 16.4037 46.6508C16.0727 46.7491 15.2977 46.7534 15.0319 46.6585V46.6585ZM35.6942 46.6585C35.4006 46.5535 35.1296 46.3693 34.9796 46.1727C34.7299 45.8453 34.6941 45.6031 34.6908 44.2199C34.6874 42.7817 34.659 42.618 34.3903 42.4932C34.2821 42.4429 34.2189 42.3748 34.2182 42.3078C34.2171 42.2059 34.252 42.2018 35.1177 42.2018C36.0079 42.2018 36.0184 42.2031 36.0183 42.3173C36.0183 42.3949 35.981 42.4384 35.9044 42.4498C35.8418 42.4591 35.7405 42.534 35.6793 42.6162C35.575 42.7562 35.5669 42.8435 35.5505 44.0045C35.5304 45.431 35.5702 45.7318 35.8119 45.979C36.2491 46.4262 37.1578 46.3013 37.4154 45.7586C37.5776 45.4168 37.6192 44.9886 37.5992 43.8673C37.5781 42.6801 37.5427 42.5321 37.2627 42.4618C37.1804 42.4411 37.1309 42.3911 37.1309 42.3285C37.1309 42.2352 37.1799 42.2283 37.8461 42.2283C38.5106 42.2283 38.5614 42.2353 38.5614 42.3278C38.5614 42.3879 38.4999 42.4528 38.4062 42.4916C38.3209 42.527 38.2328 42.5954 38.2105 42.6437C38.1882 42.6921 38.1567 43.3771 38.1405 44.1661L38.111 45.6006L37.9515 45.9122C37.7633 46.2799 37.4583 46.5343 37.066 46.6508C36.7349 46.7491 35.9599 46.7534 35.6942 46.6585V46.6585ZM52.464 46.6562C52.2522 46.564 52.0004 46.2501 51.6106 45.5925C51.1073 44.7434 51.0501 44.6668 50.919 44.666C50.8017 44.6654 50.7998 44.6759 50.7998 45.3293C50.7998 46.1215 50.8659 46.3448 51.1153 46.3947C51.2407 46.4198 51.2766 46.455 51.2766 46.5528V46.6786H50.3759H49.4753V46.5528C49.4753 46.455 49.5111 46.4198 49.6366 46.3947C49.9384 46.3343 49.9598 46.1909 49.9416 44.3467L49.9256 42.7135L49.7972 42.5768C49.7265 42.5017 49.6252 42.4402 49.572 42.4402C49.512 42.4402 49.4753 42.4017 49.4753 42.3388C49.4753 42.2514 49.529 42.2323 49.8639 42.2009C50.0776 42.1809 50.6677 42.1736 51.1751 42.1847C52.0001 42.2028 52.1211 42.2173 52.3185 42.3214C52.6691 42.5063 52.866 42.8669 52.866 43.324C52.866 43.7582 52.6171 44.1395 52.1652 44.3976C52.021 44.4799 51.9278 44.5627 51.9581 44.5815C51.9885 44.6002 52.2226 44.9308 52.4784 45.316C52.9805 46.0722 53.2596 46.4137 53.3755 46.4137C53.4776 46.4137 53.4686 46.6597 53.365 46.6994C53.2146 46.7571 52.6315 46.7292 52.464 46.6562V46.6562ZM51.4848 44.164C51.6954 44.0551 51.9022 43.7932 51.941 43.5862C51.9909 43.3204 51.8739 42.9698 51.6718 42.7791C51.4846 42.6025 51.3037 42.5519 50.9907 42.5884L50.7998 42.6107V43.4261V44.2415H51.0673C51.2144 44.2415 51.4023 44.2066 51.4848 44.164ZM75.0675 46.6471C74.9088 46.6044 74.7694 46.56 74.7578 46.5484C74.7462 46.5367 74.7074 46.299 74.6717 46.0201L74.6067 45.5131H74.7562C74.8385 45.5131 74.9057 45.5328 74.9057 45.557C74.9057 45.6948 75.2534 46.1008 75.455 46.1984C75.9999 46.4622 76.6543 46.2139 76.6539 45.7435C76.6533 45.4348 76.5037 45.2503 75.9932 44.9303C75.2769 44.4813 75.0004 44.2442 74.8575 43.9568C74.7151 43.6702 74.6896 43.2242 74.7971 42.8985C74.8681 42.6836 75.2009 42.3625 75.4811 42.2388C75.7632 42.1143 76.646 42.1183 77.0117 42.2458L77.2898 42.3428V42.8153V43.2879H77.1366C77.0177 43.2879 76.9761 43.2585 76.9504 43.1564C76.8949 42.9351 76.6109 42.6589 76.3732 42.5948C75.7373 42.4236 75.2279 43.076 75.6271 43.5505C75.7034 43.6411 76.049 43.9072 76.3952 44.1418C77.0658 44.5964 77.3136 44.8439 77.3966 45.1422C77.5793 45.7987 77.2759 46.3785 76.6216 46.6233C76.2705 46.7547 75.511 46.7663 75.0675 46.6471V46.6471ZM5.6607 46.5358C5.6607 46.4419 5.69036 46.4137 5.78931 46.4137C5.86514 46.4137 5.96297 46.3564 6.02772 46.2741C6.13351 46.1396 6.13752 46.0738 6.13752 44.4693C6.13752 43.3049 6.11899 42.7693 6.07589 42.6884C5.99696 42.5402 5.87117 42.444 5.75342 42.4419C5.69029 42.4407 5.6607 42.3979 5.6607 42.3078V42.1753H7.25011H8.83951V42.7351V43.2949L8.70041 43.2782C8.59565 43.2655 8.54661 43.2169 8.50174 43.0809C8.39729 42.7646 8.22289 42.684 7.59227 42.6606L7.03819 42.6401V43.3947V44.1492L7.46432 44.1245C7.92876 44.0976 8.16264 43.9849 8.19419 43.7726C8.20668 43.6886 8.24836 43.6588 8.35313 43.6588L8.49514 43.6589V44.3476V45.0362L8.34944 45.0362C8.23192 45.0362 8.20375 45.0122 8.20375 44.912C8.20375 44.6754 8.02709 44.5877 7.50952 44.5674L7.03819 44.5489V45.2928C7.03819 46.1896 7.04642 46.2018 7.65134 46.2018C8.24791 46.2018 8.5589 46.0507 8.7146 45.6852C8.79329 45.5005 8.97672 45.4478 9.03274 45.5937C9.0697 45.6901 8.92039 46.312 8.80825 46.5289L8.72889 46.6824L7.19479 46.6701L5.6607 46.6578V46.5358V46.5358ZM9.74017 46.5528C9.74017 46.4559 9.77604 46.4198 9.89623 46.3958C10.1758 46.3399 10.189 46.2614 10.207 44.5594C10.2256 42.7873 10.203 42.6277 9.9135 42.4932C9.79278 42.4371 9.74213 42.3772 9.74132 42.2895L9.74017 42.1652L10.9455 42.1872C12.2487 42.211 12.355 42.2316 12.7082 42.5288C13.0964 42.8554 13.197 43.5051 12.9342 43.9879C12.705 44.409 12.3087 44.6327 11.677 44.6974L11.3461 44.7313L11.2639 44.5262L11.1816 44.321L11.3774 44.2924C11.6261 44.256 11.8962 44.0985 12.0393 43.9064C12.1206 43.7971 12.1498 43.6826 12.1471 43.4825C12.1403 42.9667 11.8503 42.6512 11.3444 42.6092L11.0581 42.5855L11.0746 44.3539C11.0927 46.2825 11.1012 46.3367 11.3958 46.3971C11.5055 46.4196 11.5415 46.4581 11.5415 46.5528V46.6786H10.6408H9.74017V46.5528H9.74017ZM18.5349 46.5334C18.5349 46.4514 18.5664 46.4137 18.635 46.4137C18.69 46.4137 18.7913 46.3682 18.8601 46.3125L18.9852 46.2113L19.0012 44.5692C19.0192 42.7309 18.9989 42.5921 18.6947 42.4773C18.5993 42.4413 18.5349 42.3789 18.5349 42.3226C18.5349 42.2369 18.6083 42.2271 19.3428 42.215C20.8889 42.1897 21.2125 42.207 21.464 42.3288C21.7899 42.4866 21.9422 42.715 21.9691 43.0865C21.9812 43.2534 21.9763 43.4486 21.9583 43.5203C21.9061 43.7283 21.6592 43.9822 21.3862 44.1087L21.1338 44.2256L21.3476 44.2897C21.8583 44.4427 22.184 44.9768 22.1165 45.5509C22.0596 46.0354 21.8517 46.3079 21.3693 46.5301C21.116 46.6468 21.0483 46.6522 19.8196 46.6526L18.5349 46.6532V46.5335V46.5334ZM20.8714 46.1345C21.1414 45.9541 21.2486 45.7085 21.2185 45.339C21.1733 44.7831 20.785 44.4535 20.1755 44.4535H19.8517L19.8688 45.253C19.8852 46.0193 19.8911 46.0567 20.0109 46.1536C20.1939 46.3016 20.636 46.2918 20.8714 46.1345V46.1345ZM20.6526 43.9331C20.9779 43.8084 21.1491 43.5537 21.1152 43.2449C21.0697 42.8298 20.7353 42.5991 20.179 42.5991H19.8594V43.3144V44.0296L20.1375 44.0267C20.2905 44.0252 20.5223 43.983 20.6526 43.933V43.9331ZM22.8263 46.5365C22.8263 46.4508 22.8628 46.4164 22.9667 46.404C23.0457 46.3946 23.1559 46.3217 23.2184 46.2377C23.3257 46.0933 23.3296 46.0308 23.3296 44.4628C23.3296 43.1602 23.3147 42.8113 23.2547 42.7051C23.1611 42.5396 23.0393 42.4441 22.919 42.4419C22.8586 42.4408 22.8263 42.3986 22.8263 42.321C22.8263 42.2018 22.8263 42.2018 23.7799 42.2018C24.7335 42.2018 24.7335 42.2018 24.7335 42.321C24.7335 42.4037 24.702 42.4402 24.6305 42.4402C24.5739 42.4402 24.4606 42.4977 24.3789 42.568L24.2302 42.6958L24.2149 44.3667L24.1995 46.0376L24.3351 46.1265C24.4424 46.1968 24.5571 46.2103 24.8856 46.1913C25.3897 46.1621 25.6258 46.0373 25.7663 45.7259C25.8597 45.5187 25.9586 45.4683 26.0981 45.557C26.1505 45.5902 26.142 45.6881 26.0581 46.0163C25.9994 46.2457 25.9145 46.4896 25.8695 46.5584L25.7876 46.6834L24.307 46.6677L22.8263 46.6521L22.8263 46.5365V46.5365ZM26.5349 46.5528C26.5349 46.455 26.5708 46.4198 26.6962 46.3947C26.9887 46.3362 27.0117 46.1917 27.0115 44.4154C27.0113 42.9403 27.0045 42.8264 26.9072 42.6668C26.8499 42.5729 26.7427 42.4809 26.669 42.4624C26.5777 42.4395 26.5349 42.3925 26.5349 42.3153C26.5349 42.2037 26.5503 42.2018 27.4355 42.2018C28.3207 42.2018 28.3362 42.2037 28.3362 42.3153C28.3362 42.3919 28.2935 42.4394 28.2044 42.4618C28.1319 42.48 28.0306 42.559 27.9792 42.6373C27.8952 42.7656 27.8859 42.9417 27.8859 44.3981C27.8859 46.1969 27.9075 46.3412 28.1849 46.3967C28.3003 46.4198 28.3362 46.4568 28.3362 46.5528V46.6786H27.4355H26.5349V46.5528V46.5528ZM39.1971 46.5432C39.1971 46.4561 39.2375 46.4189 39.3584 46.3947C39.651 46.3362 39.6739 46.1921 39.6739 44.41C39.6739 42.8489 39.6722 42.8242 39.5529 42.6467C39.4864 42.5477 39.3791 42.4591 39.3145 42.4498C39.2302 42.4376 39.1971 42.3966 39.1971 42.3041V42.1753H40.76H42.3229V42.7316C42.3229 43.2827 42.3218 43.2879 42.1964 43.2879C42.094 43.2879 42.0633 43.2529 42.0355 43.1047C41.9764 42.7897 41.76 42.684 41.1266 42.6605L40.5906 42.6407L40.5561 42.8922C40.5371 43.0306 40.5216 43.3703 40.5216 43.6471V44.1505L40.9723 44.1224C41.4686 44.0914 41.665 44.0041 41.7186 43.7905C41.7423 43.6961 41.7876 43.6588 41.8784 43.6588H42.0051V44.3475V45.0362H41.8726C41.7824 45.0362 41.7396 45.0067 41.7385 44.9435C41.7337 44.6813 41.4816 44.5594 40.9439 44.5594H40.5115L40.5298 45.3055C40.552 46.2092 40.5466 46.2018 41.1828 46.2018C41.7443 46.2018 42.0363 46.0673 42.1891 45.7382C42.2661 45.5725 42.3247 45.5131 42.4112 45.5131C42.4758 45.5131 42.5447 45.5391 42.5644 45.571C42.6127 45.6491 42.3777 46.5103 42.282 46.6061C42.2188 46.6692 41.9498 46.6803 40.7015 46.6708L39.1971 46.6595V46.5432ZM45.0249 46.5557C45.0249 46.4689 45.0743 46.4106 45.1933 46.3571C45.286 46.3154 45.4111 46.214 45.4715 46.1317C45.5779 45.9866 45.5812 45.9215 45.5812 43.986C45.5812 41.7406 45.577 41.7135 45.2113 41.5928C45.0663 41.545 45.0249 41.5028 45.0249 41.403V41.2746H46.8792H48.7335V41.9369V42.5991H48.5746C48.4452 42.5991 48.4156 42.577 48.4155 42.4799C48.4151 42.285 48.2156 42.0161 48.0039 41.9253C47.8786 41.8715 47.5885 41.8315 47.2104 41.8158L46.6143 41.7911V42.6984V43.6058L47.0514 43.6028C47.634 43.5988 47.8334 43.5265 47.9564 43.2746C48.0356 43.1126 48.0821 43.076 48.2081 43.076H48.3627V43.874V44.6721L48.1926 44.6555C48.0757 44.6441 48.0135 44.6057 47.9939 44.5329C47.9099 44.2213 47.5856 44.0826 46.9413 44.0826H46.6025L46.6241 45.023C46.6487 46.0962 46.6939 46.253 47.0112 46.3678C47.1504 46.4181 47.1971 46.4656 47.1971 46.5568V46.6786H46.111H45.0249V46.5557V46.5557ZM53.5018 46.5462C53.5018 46.4494 53.5301 46.4137 53.607 46.4137C53.7693 46.4137 53.9547 46.0836 54.3577 45.0768C54.8973 43.7287 55.409 42.358 55.409 42.2606C55.409 42.194 55.4642 42.1755 55.6607 42.1764L55.9124 42.1775L56.6269 44.0091C57.4029 45.998 57.546 46.3072 57.7269 46.3866C57.8 46.4186 57.8461 46.4852 57.8461 46.5587C57.8461 46.6786 57.8456 46.6786 56.9455 46.6786H56.0448V46.5528C56.0448 46.4556 56.0807 46.4198 56.2023 46.3955C56.43 46.3499 56.4438 46.1958 56.2668 45.672L56.1146 45.2217H55.4886H54.8626L54.7367 45.5925C54.5782 46.0598 54.5874 46.3796 54.76 46.4042C54.8463 46.4164 54.8792 46.4567 54.8792 46.5499V46.6786H54.1905H53.5018V46.5462V46.5462ZM55.9388 44.691C55.9388 44.6104 55.5496 43.5528 55.52 43.5528C55.5007 43.5528 55.4467 43.6541 55.4 43.778C55.3533 43.9018 55.2538 44.1641 55.179 44.3607L55.0429 44.7184H55.4909C55.7373 44.7184 55.9388 44.7061 55.9388 44.691V44.691ZM58.217 46.5528C58.217 46.4581 58.253 46.4196 58.3627 46.3971C58.6493 46.3384 58.6622 46.2638 58.6844 44.5312C58.7074 42.7439 58.685 42.5936 58.3769 42.4773C58.2815 42.4413 58.217 42.3789 58.217 42.3226C58.217 42.2377 58.2767 42.2283 58.813 42.2284L59.409 42.2285L59.7534 42.6644C59.9428 42.9041 60.4316 43.4946 60.8395 43.9766C61.2475 44.4586 61.6359 44.924 61.7027 45.0108L61.8242 45.1687L61.807 43.9718C61.7883 42.6676 61.7587 42.5331 61.4746 42.4618C61.3923 42.4411 61.3428 42.3911 61.3428 42.3285C61.3428 42.2351 61.3918 42.2283 62.058 42.2283C62.7294 42.2283 62.7733 42.2346 62.7733 42.3306C62.7733 42.3946 62.7307 42.4392 62.6594 42.4498C62.5967 42.4591 62.4954 42.534 62.4342 42.6162C62.3266 42.7607 62.3224 42.8304 62.3067 44.7221L62.2905 46.6786H62.0595C61.8506 46.6786 61.8118 46.6571 61.6534 46.4535C61.5133 46.2734 59.2688 43.4934 59.1831 43.3938C59.1706 43.3793 59.1707 43.9634 59.1836 44.6919C59.2094 46.1691 59.2417 46.3458 59.4948 46.3964C59.6118 46.4198 59.6476 46.4565 59.6476 46.5528V46.6786H58.9324H58.2172V46.5528L58.217 46.5528ZM67.4885 46.5462C67.4885 46.4675 67.5188 46.4137 67.5633 46.4137C67.668 46.4137 67.8643 46.1651 68.0046 45.855C68.1996 45.4238 69.1063 43.0834 69.2619 42.6097L69.4063 42.1699L69.6431 42.1859L69.88 42.2018L70.5828 44.0031C70.9694 44.9939 71.3282 45.8879 71.3801 45.9899C71.4985 46.2227 71.671 46.4137 71.7626 46.4137C71.8022 46.4137 71.8329 46.4715 71.8329 46.5462V46.6786H70.9322H70.0316V46.5462C70.0316 46.454 70.0605 46.4137 70.1269 46.4137C70.3833 46.4137 70.4071 46.1898 70.2126 45.606L70.0758 45.1952H69.4541H68.8323L68.7196 45.5528C68.5066 46.2283 68.5167 46.4137 68.7665 46.4137C68.8373 46.4137 68.866 46.4519 68.866 46.5462V46.6786H68.1773H67.4885V46.5462ZM69.7365 44.1753C69.6363 43.8766 69.5402 43.5965 69.5228 43.5528C69.504 43.5053 69.398 43.708 69.2597 44.0561C69.1324 44.3766 69.0275 44.6568 69.0266 44.6786C69.0257 44.7005 69.226 44.7184 69.4718 44.7184H69.9186L69.7365 44.1753ZM72.1508 46.5462C72.1508 46.4426 72.1778 46.4137 72.275 46.4137C72.3433 46.4137 72.4447 46.3636 72.5002 46.3023C72.5941 46.1985 72.6022 46.0767 72.6167 44.5407C72.6252 43.6331 72.619 42.8376 72.6028 42.7728C72.565 42.6218 72.3706 42.4402 72.2467 42.4402C72.1825 42.4402 72.1508 42.4007 72.1507 42.321C72.1507 42.2021 72.1527 42.2018 73.0514 42.2018C73.9176 42.2018 73.952 42.2059 73.9521 42.3081C73.9521 42.3743 73.8944 42.4399 73.7988 42.4822C73.7144 42.5195 73.6208 42.6148 73.5908 42.6938C73.5136 42.8968 73.4697 44.5501 73.5177 45.4432C73.5513 46.0661 73.5751 46.2132 73.6574 46.3041C73.7119 46.3644 73.8006 46.4137 73.8543 46.4137C73.9233 46.4137 73.9521 46.4528 73.9521 46.5462V46.6786H73.0514H72.1508V46.5462ZM78.0845 46.5367C78.0845 46.4418 78.1139 46.4137 78.2131 46.4137C78.289 46.4137 78.3868 46.3564 78.4515 46.2741C78.5573 46.1396 78.5614 46.0738 78.5614 44.4693C78.5614 43.3049 78.5428 42.7693 78.4997 42.6884C78.4208 42.5402 78.295 42.444 78.1773 42.4419C78.1141 42.4407 78.0845 42.3979 78.0845 42.3078V42.1753H79.6739H81.2633V42.7351V43.2949L81.1243 43.2782C81.0195 43.2655 80.9704 43.2169 80.9256 43.0809C80.8211 42.7646 80.6467 42.684 80.0161 42.6606L79.462 42.6401V43.3878V44.1356L79.7931 44.1326C80.2528 44.1284 80.477 44.0422 80.5746 43.8321C80.6328 43.7068 80.6895 43.6608 80.7865 43.66L80.919 43.6589V44.3476V45.0363L80.7733 45.0362C80.6558 45.0362 80.6276 45.0122 80.6276 44.912C80.6276 44.6754 80.4509 44.5877 79.9334 44.5674L79.462 44.5489V45.2929C79.462 46.1896 79.4703 46.2018 80.0752 46.2018C80.6717 46.2018 80.9827 46.0507 81.1384 45.6853C81.2171 45.5005 81.4006 45.4478 81.4566 45.5938C81.4935 45.6901 81.3442 46.312 81.2321 46.5289L81.1527 46.6824L79.6186 46.671L78.0845 46.6596V46.5367V46.5367ZM7.09413 41.7026L6.96464 41.6031L7.27956 41.1218C7.45276 40.8571 7.62829 40.6402 7.66961 40.6397C7.84875 40.6377 8.41917 40.7603 8.40488 40.7977C8.37643 40.8722 7.33076 41.8038 7.2766 41.8029C7.24746 41.8025 7.16535 41.7573 7.09413 41.7026ZM0.362689 38.0428H81.0514V38.5197H0.362689V38.0428V38.0428ZM31.0719 36.9586C30.6481 36.8075 30.4098 36.4125 30.487 35.9891C30.539 35.7037 30.7005 35.5041 30.9865 35.3716L31.2367 35.2557L31.0845 35.1683C30.9979 35.1186 30.9322 35.0359 30.9322 34.9766C30.9322 34.8807 31.3207 34.4932 31.4168 34.4932C31.4397 34.4932 31.4064 34.405 31.3429 34.2973C31.0716 33.8375 31.2886 33.1726 31.7952 32.912C32.0694 32.7708 32.162 32.7649 33.1222 32.8264C33.6746 32.8617 33.6952 32.8674 33.666 32.9762C33.6493 33.0383 33.6353 33.1071 33.6349 33.1289C33.6345 33.1508 33.5411 33.1687 33.4273 33.1687H33.2204L33.2483 33.4767C33.3093 34.1487 32.8314 34.6089 32.0598 34.6213C31.659 34.6277 31.465 34.7127 31.6214 34.8134C31.6649 34.8414 31.9236 34.9365 32.1964 35.0248C33.0735 35.3086 33.2356 35.4515 33.1982 35.9076C33.1593 36.3814 32.7783 36.7945 32.227 36.9604C31.9113 37.0554 31.341 37.0545 31.0719 36.9586V36.9586ZM32.2516 36.6315C32.6817 36.4172 32.868 36.0088 32.6328 35.7959C32.4743 35.6525 31.7861 35.4323 31.6078 35.468C31.2447 35.5406 30.9055 35.9833 30.9681 36.3029C31.0541 36.742 31.6986 36.9071 32.2516 36.6315V36.6315ZM32.3934 34.2343C32.7163 34.0374 32.8411 33.4786 32.6237 33.2023C32.3265 32.8244 31.7607 33.2456 31.7554 33.8487C31.7538 34.0362 31.7808 34.1021 31.9021 34.2064C32.0808 34.3601 32.1781 34.3656 32.3934 34.2343V34.2343ZM34.4024 35.4637C34.1697 35.4162 34.045 35.2608 34.0185 34.9854C33.9508 34.2803 34.544 33.2468 35.208 32.9133C35.5531 32.74 36.2338 32.7225 36.6874 32.8753C36.728 32.8891 36.698 33.0702 36.5931 33.4427C36.388 34.1712 36.2706 34.9004 36.3381 35.0265C36.3823 35.1091 36.4137 35.1149 36.5541 35.0659C36.6838 35.0207 36.7282 35.0241 36.7649 35.082C36.8411 35.2026 36.7948 35.2484 36.4921 35.3519C36.0851 35.4911 35.8987 35.464 35.8376 35.2567L35.7893 35.093L35.5723 35.2142C35.2062 35.4189 34.7056 35.5256 34.4024 35.4637V35.4637ZM35.3183 34.9874C35.4723 34.9142 35.633 34.8015 35.6753 34.7369C35.7461 34.6289 35.9619 33.8341 36.0462 33.3713C36.0807 33.1816 36.0765 33.1751 35.8838 33.1219C35.528 33.0236 35.1701 33.2831 34.8851 33.8461C34.586 34.4367 34.5106 34.9628 34.7054 35.0993C34.8377 35.192 34.9188 35.1772 35.3183 34.9874ZM60.4027 35.4481C60.165 35.3917 60.0811 35.3092 60.0161 35.0678C59.9176 34.7019 60.1456 34.0096 60.5334 33.4975C60.9978 32.8842 61.5139 32.6772 62.276 32.7986C62.4767 32.8306 62.6566 32.8733 62.6759 32.8935C62.6952 32.9137 62.6282 33.2521 62.5271 33.6455C62.426 34.0389 62.3387 34.5157 62.3331 34.7051L62.3229 35.0495L62.5481 35.0394C62.7501 35.0304 62.7733 35.0418 62.7733 35.1502C62.7733 35.2514 62.7235 35.2862 62.4676 35.3637C62.0465 35.4911 61.8511 35.4639 61.8294 35.2746C61.8201 35.1945 61.8029 35.1289 61.7911 35.1289C61.7793 35.1289 61.6408 35.1859 61.4832 35.2556C61.2298 35.3677 60.7133 35.5092 60.6117 35.4944C60.5913 35.4914 60.4973 35.4706 60.4027 35.4481V35.4481ZM61.2898 34.9946C61.421 34.9291 61.5669 34.8312 61.6142 34.777C61.7314 34.6427 61.9418 33.9512 62.0507 33.3424C62.0798 33.1802 62.071 33.1691 61.8704 33.1151C61.6987 33.0689 61.625 33.0746 61.4741 33.1463C61.1378 33.3059 60.8041 33.8473 60.631 34.5141C60.4652 35.1527 60.6719 35.3034 61.2898 34.9946V34.9946ZM3.8327 35.3276C3.81692 35.262 3.91136 34.7692 4.04257 34.2324C4.30128 33.1741 4.2991 33.0881 4.01556 33.1695C3.87532 33.2097 3.85938 33.202 3.85938 33.0939C3.85938 32.993 3.90864 32.9591 4.16401 32.8846C4.33156 32.8357 4.55209 32.7902 4.65408 32.7835C4.82864 32.772 4.84051 32.7817 4.85652 32.949C4.86588 33.0468 4.7745 33.531 4.65345 34.0252C4.5324 34.5193 4.44754 34.9606 4.46486 35.0057C4.48995 35.0711 4.5456 35.0804 4.73835 35.0515C4.96894 35.0169 4.97952 35.0209 4.96291 35.1366C4.94916 35.2323 4.88379 35.2773 4.65408 35.3492C4.49381 35.3993 4.2499 35.4418 4.11204 35.4436C3.89461 35.4464 3.85759 35.431 3.8327 35.3276V35.3276ZM5.86953 35.349L5.74873 35.2512L6.15918 33.448C6.38492 32.4563 6.5618 31.5764 6.55225 31.4928C6.53443 31.337 6.51524 31.3289 6.30971 31.3913C6.20805 31.4221 6.1905 31.4078 6.1905 31.2939C6.1905 31.1396 6.37658 31.0651 6.89249 31.0127C7.18805 30.9827 7.19713 30.9856 7.19713 31.1101C7.19713 31.1808 7.11368 31.6167 7.0117 32.0788C6.90971 32.541 6.82626 32.9501 6.82626 32.9879C6.82626 33.0393 6.88451 33.031 7.05625 32.955C7.64628 32.694 8.16061 32.7078 8.34524 32.9896C8.51812 33.2534 8.42861 33.9362 8.14777 34.4959C8.00165 34.7872 7.56685 35.2404 7.33071 35.3477C7.02049 35.4886 6.04302 35.4895 5.86953 35.349V35.349ZM7.21017 35.013C7.4758 34.8251 7.77192 34.1898 7.85543 33.6287C7.9391 33.0666 7.56758 32.9545 6.97418 33.3627C6.84884 33.449 6.74827 33.5773 6.69637 33.7174C6.60031 33.9765 6.40242 34.8224 6.40242 34.9737C6.40242 35.1967 6.91541 35.2216 7.21017 35.013ZM9.23353 35.2843C9.09002 35.1345 9.07817 35.0923 9.08116 34.7413C9.08878 33.847 9.5972 33.0466 10.2976 32.8263C10.647 32.7163 10.9544 32.7536 11.1605 32.9308C11.2793 33.0331 11.3031 33.0969 11.3031 33.3136C11.3031 33.8591 10.8057 34.2728 10.0898 34.3228C9.88294 34.3372 9.69617 34.3755 9.67476 34.4079C9.61511 34.498 9.62698 34.8043 9.69512 34.9337C9.82732 35.1849 10.017 35.1908 10.4712 34.9578C10.7543 34.8127 10.8125 34.7986 10.8545 34.8651C10.9482 35.0132 10.9048 35.0597 10.4928 35.253C10.1497 35.414 10.0214 35.4468 9.73449 35.4468C9.41825 35.4468 9.37602 35.4331 9.23353 35.2843ZM10.1823 34.0122C10.633 33.887 10.9303 33.4052 10.6993 33.1742C10.5537 33.0285 10.419 33.0333 10.2319 33.1908C10.0828 33.3162 9.84064 33.7136 9.76909 33.9501C9.73892 34.0499 9.75308 34.0693 9.85581 34.069C9.92333 34.0689 10.0702 34.0433 10.1823 34.0122ZM11.9653 35.4288C11.9653 35.42 12.0606 35.0091 12.1769 34.5159C12.2933 34.0226 12.3887 33.5146 12.3889 33.3871L12.3892 33.1551L12.1773 33.189C11.9894 33.219 11.9653 33.2109 11.9653 33.117C11.9653 33.0008 12.1366 32.9118 12.5666 32.8047C12.8608 32.7313 12.972 32.7816 12.972 32.9881V33.1125L13.16 32.9849C13.4907 32.7604 13.6928 32.7193 13.9328 32.8275C14.0478 32.8794 14.1345 32.9475 14.1256 32.979C13.9817 33.4861 13.8999 33.6455 13.7835 33.6455C13.6793 33.6455 13.6607 33.6183 13.6607 33.4665C13.6607 33.0811 13.3254 33.0784 13.0822 33.4618C12.9307 33.7007 12.7741 34.244 12.6497 34.962C12.6126 35.1762 12.5567 35.3589 12.5254 35.3681C12.4322 35.3955 11.9653 35.4461 11.9653 35.4288H11.9653ZM14.6229 35.3777C14.5645 35.3072 14.5966 35.1168 14.8995 33.7382L15.0247 33.1687H14.846C14.7477 33.1687 14.6673 33.1552 14.6673 33.1387C14.6673 33.0558 14.7859 32.9038 14.8506 32.9038C14.9797 32.9038 15.2278 32.6529 15.3318 32.417C15.4481 32.1533 15.4944 32.111 15.6673 32.1099C15.7811 32.1091 15.7899 32.1255 15.7586 32.2812C15.7396 32.3759 15.7098 32.5428 15.6923 32.6521L15.6604 32.8508H15.9056C16.156 32.8508 16.1929 32.8913 16.1186 33.0849C16.0955 33.1451 16.0152 33.1687 15.833 33.1687C15.5384 33.1687 15.5868 33.0627 15.3518 34.2229C15.1792 35.0752 15.1908 35.1537 15.4777 35.0715C15.7171 35.0028 15.7364 35.0085 15.7174 35.1422C15.7045 35.2326 15.6365 35.2827 15.4355 35.3498C15.1112 35.4582 14.7014 35.4722 14.6229 35.3777ZM16.76 35.3093C16.3723 34.8909 16.6528 33.7011 17.2701 33.1462C17.522 32.9197 17.9152 32.7448 18.1726 32.7448C18.3355 32.7448 18.6944 32.9117 18.7483 33.0126C18.8337 33.1722 18.8071 33.5533 18.6981 33.7321C18.4747 34.0984 17.9932 34.3342 17.4686 34.3342H17.1574V34.6138C17.1574 35.1566 17.383 35.2518 17.9759 34.9595C18.1649 34.8662 18.33 34.8007 18.3427 34.8138C18.3554 34.8268 18.3741 34.8852 18.3841 34.9435C18.3988 35.0285 18.3252 35.0887 18.0111 35.2481C17.671 35.4208 17.5718 35.4468 17.2536 35.4468C16.9275 35.4468 16.8735 35.4318 16.76 35.3093V35.3093ZM17.6925 34.0082C17.9725 33.9133 18.1688 33.7529 18.2536 33.5499C18.325 33.3791 18.323 33.3529 18.2291 33.2266C18.0835 33.0308 17.9405 33.0296 17.7211 33.2223C17.5518 33.3709 17.2633 33.8692 17.2633 34.0131C17.2633 34.087 17.4672 34.0847 17.6925 34.0082V34.0082ZM37.5901 35.4115C37.5152 35.3367 37.5638 35.0241 37.8179 33.9434C38.1636 32.4732 38.3494 31.6076 38.3494 31.4673C38.3494 31.3668 38.3277 31.357 38.164 31.3836C37.9953 31.4109 37.9786 31.4022 37.9786 31.2866C37.9786 31.154 38.1108 31.0954 38.6372 30.9942C38.9091 30.942 38.9852 30.9764 38.9852 31.1518C38.9852 31.231 38.8066 32.0688 38.5882 33.0137C38.3698 33.9585 38.191 34.8123 38.1908 34.911L38.1905 35.0904L38.4325 35.0572C38.6601 35.026 38.6735 35.031 38.6577 35.141C38.6446 35.2315 38.5747 35.2787 38.3494 35.3492C38.0518 35.4423 37.6535 35.475 37.59 35.4115H37.5901ZM39.5872 35.3821C39.5222 35.2769 39.5594 35.0475 39.785 34.1616C39.9025 33.7002 39.9897 33.2821 39.9788 33.2324C39.9579 33.1371 39.9447 33.135 39.7137 33.1894C39.5906 33.2183 39.568 33.2066 39.568 33.114C39.568 32.9877 39.7941 32.8755 40.2061 32.7973C40.5005 32.7415 40.6276 32.7701 40.6276 32.8921C40.6276 32.9377 40.5196 33.4251 40.3877 33.9752C40.2558 34.5253 40.1636 35.0008 40.1828 35.0319C40.2042 35.0665 40.3089 35.0759 40.4528 35.0562C40.6729 35.0261 40.6867 35.0314 40.6709 35.141C40.6579 35.2315 40.588 35.2787 40.3627 35.3492C40.0179 35.457 39.6434 35.4729 39.5872 35.3821V35.3821ZM41.544 35.3585C41.5254 35.3099 41.5396 35.137 41.5756 34.9744C41.6937 34.4404 41.9521 33.2183 41.9521 33.1932C41.9521 33.1797 41.8788 33.1687 41.7893 33.1687C41.5593 33.1687 41.6022 33.0206 41.8727 32.8808C42.0337 32.7976 42.1266 32.6918 42.2596 32.4402C42.4112 32.1536 42.4549 32.1091 42.5842 32.1091H42.7337L42.6626 32.4402C42.6235 32.6223 42.5907 32.7892 42.5897 32.811C42.5887 32.8329 42.7071 32.8508 42.8527 32.8508C43.1295 32.8508 43.136 32.8563 43.0843 33.0495C43.0563 33.1536 43.0177 33.1687 42.7782 33.1687H42.504L42.3258 34.0628C42.2278 34.5545 42.162 34.9943 42.1795 35.04C42.2053 35.1072 42.2449 35.1135 42.386 35.073C42.6289 35.0034 42.6408 35.007 42.6408 35.1484C42.6408 35.2561 42.5971 35.2862 42.3327 35.3604C41.9222 35.4755 41.5886 35.4747 41.544 35.3585V35.3585ZM43.7258 35.3268C43.5939 35.2134 43.571 35.1512 43.5521 34.8544C43.5097 34.1876 43.8149 33.4348 44.2681 33.0887C44.7685 32.7067 45.3151 32.6559 45.6222 32.9631C45.7647 33.1055 45.7772 33.1457 45.7542 33.3851C45.7038 33.9099 45.2009 34.291 44.5127 34.3261C44.0823 34.3479 44.0371 34.3996 44.1215 34.7728C44.2134 35.179 44.3804 35.2207 44.9107 34.9699C45.2619 34.8037 45.3428 34.8038 45.3428 34.9704C45.3428 35.1397 44.707 35.4118 44.2526 35.4368C43.9145 35.4554 43.8628 35.4446 43.7258 35.3268V35.3268ZM44.8651 33.9109C45.1955 33.7423 45.3372 33.3674 45.1492 33.1596C44.9125 32.8981 44.4744 33.2406 44.2568 33.8572L44.1769 34.0838L44.4156 34.0511C44.547 34.0331 44.7492 33.97 44.8651 33.9109V33.9109ZM57.5282 35.4273C57.5282 35.4193 57.6235 35.0091 57.7398 34.5159C57.8562 34.0226 57.9516 33.5146 57.9518 33.3871L57.9523 33.1551L57.7404 33.189C57.5532 33.2189 57.5285 33.2107 57.5285 33.1182C57.5285 32.9895 57.6217 32.9374 58.0509 32.8262C58.4238 32.7296 58.5351 32.7668 58.5351 32.9881V33.1125L58.7231 32.9849C59.0529 32.7611 59.256 32.7194 59.4938 32.8266C59.6075 32.8779 59.7006 32.9341 59.7006 32.9515C59.7007 32.969 59.6472 33.1322 59.5819 33.3144C59.4839 33.5878 59.4423 33.6455 59.3435 33.6455C59.2429 33.6455 59.2238 33.617 59.2238 33.4665C59.2238 33.1044 58.9125 33.0774 58.68 33.4194C58.5032 33.6794 58.4128 33.9616 58.2679 34.7051C58.2026 35.0402 58.1347 35.3292 58.117 35.3473C58.0852 35.3798 57.5285 35.4554 57.5285 35.4273H57.5282ZM63.6388 35.3639C63.5953 35.2507 63.6455 34.9243 63.8501 33.9899L64.0242 33.1952L63.8755 33.1786C63.6978 33.1587 63.6677 32.9827 63.8332 32.9302C64.0194 32.8711 64.2345 32.6526 64.3384 32.417C64.4548 32.1533 64.501 32.111 64.6739 32.1099C64.7878 32.1091 64.7965 32.1255 64.7652 32.2812C64.7463 32.3759 64.7164 32.5428 64.6989 32.6521L64.667 32.8508H64.9122C65.1626 32.8508 65.1995 32.8913 65.1252 33.0849C65.1021 33.1451 65.0219 33.1687 64.8396 33.1687C64.5451 33.1687 64.5934 33.0627 64.3584 34.2229C64.1858 35.0752 64.1974 35.1537 64.4843 35.0715C64.7237 35.0028 64.743 35.0085 64.724 35.1422C64.7111 35.2326 64.6431 35.2827 64.4422 35.3498C64.0895 35.4676 63.6814 35.4748 63.6388 35.3639V35.3639ZM65.7764 35.3097C65.3748 34.9081 65.6524 33.7074 66.2767 33.1462C66.5286 32.9197 66.9218 32.7448 67.1792 32.7448C67.3421 32.7448 67.701 32.9117 67.755 33.0126C67.8403 33.1722 67.8138 33.5533 67.7047 33.7321C67.4803 34.1001 66.9998 34.3342 66.4689 34.3342H66.1513L66.1748 34.6592C66.2121 35.1754 66.4017 35.2458 66.9825 34.9595C67.1715 34.8662 67.3366 34.8007 67.3493 34.8138C67.3621 34.8268 67.3807 34.8852 67.3908 34.9435C67.4054 35.0285 67.3318 35.0887 67.0177 35.2481C66.6807 35.4192 66.5769 35.4468 66.2699 35.4468C65.9572 35.4468 65.8968 35.43 65.7764 35.3097V35.3097ZM66.8871 33.9289C67.2577 33.7448 67.4237 33.3177 67.1927 33.1429C67.0393 33.0268 66.928 33.0464 66.7243 33.2253C66.5538 33.3749 66.27 33.8715 66.27 34.02C66.27 34.1077 66.6361 34.0537 66.8871 33.9289ZM68.4951 35.4013C68.4951 35.3789 68.5919 34.9493 68.7101 34.4465C68.8284 33.9437 68.9178 33.4564 68.9088 33.3637C68.8935 33.2057 68.8804 33.1958 68.6994 33.2062C68.548 33.2148 68.5006 33.1952 68.4797 33.1152C68.458 33.0323 68.5038 32.9945 68.7257 32.9126C68.8757 32.8573 69.0879 32.7958 69.1972 32.776C69.4026 32.7388 69.3991 32.7359 69.5277 33.047C69.5301 33.0529 69.6717 32.9873 69.8423 32.9013C70.2073 32.7171 70.2685 32.712 70.4905 32.8474L70.6581 32.9496L70.5435 33.2962C70.4479 33.5855 70.4092 33.6431 70.3097 33.6442C70.2099 33.6453 70.1905 33.617 70.1905 33.4707C70.1905 33.009 69.7511 33.1003 69.5106 33.6119C69.4502 33.7405 69.3305 34.1837 69.2447 34.5968C69.1588 35.0099 69.0802 35.3549 69.07 35.3634C69.0234 35.4025 68.4951 35.4373 68.4951 35.4013V35.4013ZM71.1441 35.4015C71.1441 35.3776 71.2292 35.0264 71.3332 34.621C71.4467 34.1783 71.526 33.7358 71.5318 33.5131L71.5415 33.1422L71.3494 33.1569C71.1984 33.1685 71.1517 33.1503 71.1311 33.0717C71.1098 32.99 71.1546 32.9567 71.3762 32.8891C71.8579 32.7425 71.9713 32.7319 72.0647 32.8253C72.112 32.8726 72.1508 32.9693 72.1508 33.04C72.1508 33.1108 72.1605 33.1687 72.1725 33.1687C72.1844 33.1687 72.3418 33.0989 72.5221 33.0136C72.9491 32.8117 73.5151 32.7057 73.6841 32.7961C73.7943 32.8551 73.8022 32.8856 73.77 33.1284C73.7505 33.2755 73.6647 33.6844 73.5795 34.0372C73.4942 34.39 73.418 34.7621 73.4101 34.8641C73.3958 35.0495 73.3958 35.0495 73.6187 35.0451C73.771 35.0421 73.8512 35.0658 73.8721 35.1202C73.9141 35.2296 73.864 35.2653 73.5319 35.3626C73.1551 35.4729 72.8082 35.4738 72.7663 35.3645C72.7489 35.3192 72.8298 34.8574 72.946 34.3382C73.1791 33.2973 73.1925 33.1788 73.0818 33.1363C72.9675 33.0925 72.5621 33.2913 72.3203 33.5098C72.1212 33.6897 72.0957 33.7456 71.9734 34.2708C71.9009 34.5825 71.8246 34.9527 71.804 35.0934C71.7835 35.2342 71.7398 35.3573 71.707 35.3671C71.5463 35.415 71.1441 35.4396 71.1441 35.4015V35.4015ZM74.7779 35.3602C74.7596 35.3126 74.8542 34.8218 74.988 34.2696C75.1219 33.7173 75.219 33.2331 75.2038 33.1935C75.1826 33.1384 75.1353 33.1332 75.0016 33.1716C74.9055 33.1991 74.8208 33.2217 74.8134 33.2217C74.8059 33.2217 74.7998 33.1664 74.7998 33.0989C74.7998 32.9968 74.8466 32.962 75.0779 32.892C75.7056 32.7022 75.8995 32.7344 75.8361 33.0179C75.8209 33.0863 75.7117 33.5459 75.5935 34.0393C75.4753 34.5327 75.3919 34.971 75.4081 35.0133C75.4307 35.0719 75.4946 35.0823 75.6786 35.0571C75.905 35.026 75.9186 35.0311 75.9027 35.1411C75.8701 35.3675 74.8565 35.565 74.7779 35.3602ZM76.7767 35.3609C76.7414 35.2688 76.7843 35.0159 76.9914 34.0958C77.2203 33.0786 77.217 33.1687 77.0253 33.1687C76.7923 33.1687 76.8311 33.0225 77.1016 32.8808C77.2573 32.7993 77.3533 32.6901 77.4775 32.4535C77.6132 32.195 77.672 32.1323 77.7924 32.1181C77.9532 32.0991 77.9544 32.1126 77.8409 32.6786L77.8064 32.8508H78.0836C78.3146 32.8508 78.3554 32.8648 78.3286 32.9346C78.3109 32.9807 78.2965 33.0522 78.2965 33.0936C78.2965 33.1491 78.2222 33.1687 78.0117 33.1687H77.7269L77.552 34.0597C77.4558 34.5498 77.3919 34.9895 77.4101 35.0369C77.4372 35.1075 77.475 35.114 77.6178 35.0731C77.8606 35.0034 77.8726 35.007 77.8726 35.1485C77.8726 35.2561 77.8289 35.2862 77.5645 35.3604C77.1582 35.4744 76.8204 35.4746 76.7767 35.3609V35.3609ZM78.9546 35.3242C78.8029 35.1936 78.7998 35.1803 78.7998 34.667C78.7998 34.1676 78.8092 34.1241 78.9999 33.7382C79.234 33.2648 79.5025 33.0087 79.9343 32.8472C80.6863 32.5658 81.2265 33.0438 80.8937 33.6961C80.7055 34.065 80.2036 34.3313 79.6929 34.3331C79.3862 34.3342 79.3655 34.3422 79.3326 34.4735C79.2883 34.65 79.3436 34.9161 79.4496 35.0362C79.5701 35.1728 79.7773 35.15 80.1468 34.9594C80.4224 34.8172 80.4836 34.8022 80.5243 34.8666C80.6182 35.015 80.5716 35.072 80.217 35.2434C79.9439 35.3753 79.7707 35.421 79.4844 35.4368C79.1445 35.4556 79.095 35.4451 78.9546 35.3242V35.3242ZM80.1086 33.898C80.4666 33.6968 80.586 33.301 80.3379 33.1384C80.24 33.0743 80.1701 33.0651 80.0597 33.1016C79.8729 33.1636 79.6061 33.5099 79.4958 33.8337L79.4106 34.0835L79.6538 34.0502C79.7876 34.0319 79.9922 33.9634 80.1086 33.898V33.898ZM0.00162911 35.3026C0.0114776 35.2515 0.0669435 35.2009 0.124887 35.1903C0.282203 35.1614 0.419665 35.0219 0.527014 34.7821C0.669406 34.4641 1.10879 32.2522 1.12067 31.7936C1.1308 31.4025 1.12926 31.3977 0.960756 31.2903C0.632023 31.0809 0.719867 31.0495 1.63421 31.0495C2.35856 31.0495 2.48189 31.0612 2.48189 31.1302C2.48189 31.1778 2.41587 31.2242 2.32134 31.2432C1.98346 31.3107 1.85522 31.6443 1.53624 33.2851C1.23814 34.8184 1.24106 34.7888 1.37496 34.9227C1.4767 35.0244 1.53206 35.0331 1.94503 35.0123C2.5005 34.9844 2.70118 34.8909 2.8952 34.5697C3.04804 34.3166 3.05412 34.3124 3.16371 34.3818C3.22454 34.4203 3.22226 34.4694 3.14962 34.6856C3.10197 34.8275 3.00897 35.0389 2.94297 35.1554L2.82295 35.3673L1.40334 35.3815C0.074019 35.3947 -0.015138 35.3897 0.00162911 35.3026V35.3026ZM26.7998 35.3187C26.7998 35.2774 26.8892 35.1999 26.9984 35.1465C27.1369 35.0789 27.2323 34.9772 27.3133 34.8111C27.4651 34.4996 27.9239 32.2433 27.9323 31.767C27.9387 31.4071 27.9349 31.396 27.7687 31.2902C27.4132 31.0639 27.4935 31.0495 29.108 31.0495C30.589 31.0495 30.6208 31.0517 30.5884 31.1537C30.5702 31.211 30.5256 31.4196 30.4892 31.6173C30.4332 31.9221 30.4055 31.9792 30.3068 31.9935C30.2122 32.0073 30.1905 31.9844 30.1905 31.8708C30.1905 31.5191 29.9818 31.4203 29.2391 31.4203H28.7273L28.5804 32.0958C28.4996 32.4673 28.4219 32.813 28.4078 32.864C28.3847 32.9473 28.4296 32.9567 28.8492 32.956C29.3768 32.9551 29.5323 32.8988 29.6871 32.6526C29.8249 32.4336 30.0046 32.416 29.9628 32.6256C29.9468 32.7057 29.8915 32.9918 29.8399 33.2614C29.7659 33.6479 29.7273 33.7514 29.657 33.7514C29.6008 33.7514 29.5565 33.6939 29.5368 33.5954C29.5196 33.5094 29.4512 33.4101 29.3845 33.3742C29.2573 33.3058 28.4242 33.2753 28.3625 33.3368C28.3268 33.3723 28.1704 34.1359 28.1017 34.6093C28.0688 34.8369 28.0772 34.8655 28.2015 34.9469C28.3107 35.0185 28.4279 35.0313 28.8003 35.0126C29.3532 34.9848 29.5496 34.8966 29.777 34.574C29.8754 34.4344 29.9684 34.354 30.0122 34.3708C30.1152 34.4103 30.103 34.505 29.9468 34.8789C29.7151 35.4332 29.8471 35.3938 28.222 35.3938C27.0298 35.3938 26.7998 35.3817 26.7998 35.3187V35.3187ZM53.7137 35.3198C53.7137 35.2776 53.7912 35.2167 53.8859 35.1844C54.2203 35.0704 54.3309 34.7682 54.6655 33.0533C54.9536 31.5765 54.9466 31.3403 54.6111 31.2339C54.5514 31.2149 54.5118 31.1716 54.5231 31.1377C54.5379 31.0931 54.9527 31.072 56.0133 31.0619C57.4579 31.048 57.4824 31.0496 57.4496 31.1528C57.4312 31.2106 57.3865 31.4196 57.3501 31.6173C57.2941 31.9221 57.2664 31.9792 57.1677 31.9935C57.0696 32.0078 57.0514 31.9851 57.0514 31.8478C57.0514 31.5134 56.793 31.403 56.0747 31.4306L55.6542 31.4468L55.507 32.1355C55.4259 32.5144 55.3589 32.8541 55.3579 32.8905C55.3552 32.9883 56.1648 32.9796 56.3579 32.8798C56.4397 32.8374 56.5368 32.7302 56.5736 32.6414C56.6145 32.5424 56.679 32.4799 56.74 32.4799C56.8633 32.4799 56.8641 32.4415 56.7255 33.1554C56.6284 33.6559 56.5943 33.7514 56.5128 33.7514C56.4541 33.7514 56.4157 33.7132 56.4157 33.6547C56.4157 33.4075 55.9204 33.2237 55.4626 33.301L55.2601 33.3352L55.1527 33.9274C54.9632 34.9718 54.9712 35.0664 55.259 35.1856C55.5758 35.3168 55.3929 35.367 54.5438 35.3819C53.8478 35.3942 53.7137 35.3841 53.7137 35.3198V35.3198ZM22.6352 34.1801C22.3982 34.0725 22.1905 33.7399 22.1905 33.4681C22.1905 33.0472 22.5625 32.6709 22.9771 32.6723C23.4729 32.6741 23.7793 32.9769 23.7797 33.4655C23.7802 34.0862 23.211 34.4416 22.6352 34.1801ZM49.6013 34.2051C49.5104 34.1656 49.3681 34.0442 49.2852 33.9356C49.1623 33.7744 49.1352 33.6872 49.1385 33.4628C49.1455 32.9761 49.4482 32.6767 49.9333 32.6767C50.1736 32.6767 50.2537 32.7028 50.4178 32.8348C50.7835 33.129 50.8403 33.6222 50.5485 33.969C50.3032 34.2605 49.9378 34.3516 49.6013 34.2051ZM17.9266 32.322C17.8224 32.2069 17.8148 32.219 18.4169 31.5334L18.6201 31.3021L18.9218 31.3696C19.0878 31.4068 19.2236 31.4532 19.2236 31.4727C19.2236 31.5085 18.0892 32.4269 18.0451 32.4269C18.0321 32.4269 17.9788 32.3797 17.9266 32.322V32.322ZM44.8804 32.322L44.7628 32.2268L45.1628 31.7706C45.3827 31.5197 45.5829 31.3144 45.6077 31.3144C45.7369 31.3144 46.191 31.4446 46.1785 31.4781C46.1654 31.5133 45.1783 32.3071 45.0512 32.3847C45.0219 32.4025 44.945 32.3743 44.8804 32.322V32.322ZM80.0997 32.3225L79.9719 32.226L80.3857 31.7702C80.6133 31.5195 80.8186 31.3144 80.842 31.3144C80.9468 31.3144 81.422 31.4417 81.4198 31.4692C81.4174 31.4978 80.417 32.305 80.2869 32.3832C80.2543 32.4028 80.17 32.3755 80.0997 32.3225ZM4.48962 32.0506C4.27432 31.8353 4.48444 31.4203 4.80876 31.4203C5.03432 31.4203 5.15209 31.5387 5.15209 31.7653C5.15209 32.1189 4.73677 32.2977 4.48962 32.0506V32.0506ZM40.2435 32.0883C40.1133 31.9894 40.121 31.662 40.2567 31.5263C40.4752 31.3078 40.8925 31.4504 40.8925 31.7436C40.8925 32.0612 40.4896 32.2751 40.2435 32.0883V32.0883ZM75.43 32.0506C75.2109 31.8315 75.4258 31.4203 75.7593 31.4203C76.0921 31.4203 76.2347 31.7915 75.9942 32.032C75.831 32.1952 75.5828 32.2034 75.43 32.0506V32.0506ZM29.0141 30.5362C28.9332 30.4459 28.9525 30.4136 29.3358 29.9967L29.7435 29.5532L30.0465 29.621C30.2131 29.6583 30.3482 29.7029 30.3468 29.7201C30.3425 29.7705 29.2786 30.5855 29.1852 30.6099C29.1385 30.6221 29.0615 30.5889 29.0141 30.5362Z" fill="black"/>
<path d="M46.6277 27.5497L46.7513 27.23C46.9608 26.6526 47.178 26.2119 47.4915 25.7284C47.8236 25.2163 48.5547 24.4618 48.8588 24.3174C49.2325 24.14 49.6971 24.0775 50.2717 24.1274C50.7651 24.1703 52.281 24.4182 52.8927 24.556C53.3583 24.6609 54.04 24.6709 54.3607 24.5776C54.9788 24.3978 55.345 24.0503 55.5187 23.4785C55.652 23.0398 55.6508 22.6411 55.5152 22.3753C55.3332 22.0182 55.3642 21.9253 55.8066 21.5022C56.0252 21.2932 56.2043 21.1 56.2046 21.0728C56.2065 20.9314 55.9037 20.3634 55.8257 20.3621C55.778 20.3613 55.6836 20.3159 55.616 20.2612L55.4932 20.1616L55.7559 20.0273C56.1146 19.844 56.3806 19.5588 56.3806 19.3577C56.3806 19.2709 56.305 19.0579 56.2127 18.8845C56.0354 18.5517 55.988 18.2338 56.0878 18.0472C56.1537 17.9239 56.2674 17.8721 56.826 17.7106C57.2953 17.5749 57.465 17.4374 57.5319 17.1385C57.5892 16.8827 57.561 16.7183 57.4075 16.4111C57.2824 16.1609 56.4681 14.9133 56.2309 14.6085C55.9121 14.199 55.5238 13.4914 55.409 13.1108C55.2958 12.7357 55.295 12.7144 55.3776 12.2295C55.5522 11.2044 55.4501 10.3545 54.9533 8.69733C54.584 7.46574 54.4848 7.16676 54.3692 6.93634C54.1602 6.51976 54.1881 6.42224 54.617 6.07111C54.8223 5.90303 55.013 5.72297 55.0408 5.67096C55.1703 5.42881 55.0256 4.96221 54.7802 4.83079C54.6244 4.74738 54.5377 4.80464 54.3796 5.09538C54.2598 5.31566 54.2128 5.35737 54.0846 5.35737C53.8759 5.35737 53.8393 5.26982 53.9726 5.0894C54.128 4.87905 54.1157 4.84533 53.8716 4.81256C53.6888 4.78803 53.5922 4.71662 53.1961 4.31318C52.6649 3.77228 52.3081 3.52302 51.5968 3.19598C51.2708 3.04606 51.1572 2.9751 51.2768 2.99603C51.3788 3.01387 51.7394 3.04239 52.0782 3.05939C53.0611 3.10873 53.3 2.97887 53.5291 2.27078C53.6846 1.79001 53.7592 1.56767 53.4023 1.232L52.0924 0H81.4834V27.5497H46.6277Z" fill="#E2011C"/>
<path d="M21.5646 27.5497C21.3513 27.5273 21.1664 27.5175 21.1536 27.5048C21.1312 27.4823 21.3721 27.3275 22.4755 26.6551C22.8293 26.4394 22.9749 26.3238 22.9258 26.2975C22.8858 26.2761 22.5769 26.2422 22.2393 26.2222C21.7378 26.1925 21.5924 26.201 21.4446 26.2689C21.3451 26.3146 20.9481 26.4349 20.5623 26.5361C19.6055 26.7872 19.2836 26.9596 18.9763 27.3852L18.8615 27.5497H0V0H37.4219L36.6968 0.473309C36.2977 0.671491 35.8338 0.946741 35.666 1.08498C35.0968 1.55389 34.3303 2.62062 34.1389 3.21025C34.0685 3.42697 34.0047 3.5082 33.7888 3.65551C33.4595 3.8803 33.0649 4.30899 32.7382 4.79703C32.2946 5.45972 31.4491 6.95319 31.283 7.36749C31.0253 8.01021 31.0487 8.49961 31.429 10.4203C31.5965 11.2659 31.7777 12.1248 31.8317 12.3289C31.8857 12.533 31.9448 12.8789 31.963 13.0976C31.9956 13.4881 32.021 13.5726 32.2496 14.0519C32.3121 14.1831 32.3633 14.332 32.3632 14.3828C32.3631 14.4336 32.4107 14.5049 32.469 14.5413C32.5294 14.5791 32.575 14.665 32.575 14.7412C32.575 14.833 32.6956 15.0073 32.9607 15.2984C33.567 15.9641 34.0054 16.5882 34.0054 16.7856C34.0054 16.9478 33.7676 16.9896 33.3845 16.895C32.9367 16.7845 32.5703 16.5456 32.0054 15.9959C31.765 15.7619 31.5683 15.6046 31.5683 15.6463C31.5683 15.6881 31.7332 15.9056 31.9346 16.1297C32.3353 16.5754 32.3981 16.6971 32.3115 16.8591C32.2357 17.0008 32.0513 17.042 31.8018 16.9731C31.5139 16.8936 31.3452 17.0045 31.3927 17.242C31.4218 17.3877 31.4138 17.4049 31.3315 17.3733C31.1688 17.3108 30.8126 17.2392 30.4924 17.2046C30.1982 17.1728 30.1764 17.1599 29.9984 16.9119C29.8634 16.7239 29.7584 16.6374 29.6174 16.5977C29.0917 16.4501 27.7841 16.2226 26.9061 16.1259C25.3629 15.956 24.9912 15.9427 24.2518 16.0307C23.6841 16.0982 23.5297 16.1379 23.2187 16.296C22.6683 16.5759 21.7141 17.4529 21.7141 17.679C21.7141 17.785 21.9242 17.7476 22.1644 17.5988C22.8932 17.1472 25.3898 16.5098 26.6147 16.4626C27.2217 16.4393 27.1888 16.4683 26.4605 16.5989C26.2591 16.635 25.7823 16.7571 25.4009 16.8704C25.0195 16.9836 24.3617 17.158 23.9392 17.258C23.5167 17.358 23.0399 17.4869 22.8796 17.5445L22.5882 17.6492L23.0386 17.6541C25.3332 17.6792 27.9488 18.4076 29.0133 19.3181C29.4713 19.7098 29.6391 19.7573 30.3128 19.6864C31.2361 19.5892 32.4312 19.1484 32.9553 18.7117C33.1828 18.5222 33.3699 18.4469 33.3695 18.5449C33.3689 18.7181 33.0677 19.649 32.9374 19.88C32.7923 20.1374 32.784 20.1745 32.8596 20.2298C32.9061 20.2638 32.9308 20.305 32.9145 20.3213C32.8982 20.3377 32.9343 20.3667 32.9948 20.3859C33.1687 20.4412 33.1249 20.4945 32.8474 20.5657C32.5769 20.6351 32.363 20.7566 32.363 20.8408C32.363 20.8684 32.4002 20.8909 32.4456 20.8909C32.5817 20.8909 32.4802 20.986 32.3024 21.0251C32.1807 21.0518 32.1564 21.0737 32.2103 21.1079C32.2632 21.1414 32.2651 21.1545 32.2173 21.1551C32.1809 21.1555 32.1511 21.2098 32.1511 21.2755C32.1511 21.3574 32.101 21.4173 31.9922 21.4655C31.7269 21.583 31.8013 21.6465 32.1644 21.6125C32.3465 21.5954 32.4597 21.5956 32.416 21.6128C32.3723 21.6301 32.0743 21.765 31.7538 21.9126C31.4332 22.0602 31.016 22.2354 30.8266 22.302C30.6122 22.3773 30.4753 22.4567 30.4638 22.5122C30.4453 22.6015 30.5448 22.5985 30.7952 22.5024C30.8416 22.4845 30.879 22.4904 30.8783 22.5154C30.8776 22.5404 30.3258 22.859 29.6521 23.2235C28.9784 23.588 28.348 23.9637 28.2512 24.0585C28.1544 24.1533 28.0305 24.2308 27.976 24.2308C27.9211 24.2308 27.8493 24.2911 27.8153 24.3658C27.7124 24.5919 27.7336 24.6193 27.9789 24.5772C28.3434 24.5146 28.5104 24.518 28.5346 24.5887C28.5477 24.6269 28.5133 24.6549 28.4534 24.6549C28.3963 24.6549 28.321 24.6893 28.2862 24.7313C28.2513 24.7733 28.1594 24.8151 28.0817 24.8241C27.9915 24.8346 27.9022 24.9012 27.834 25.0092C27.7753 25.102 27.6796 25.1902 27.6213 25.2052C27.5631 25.2202 27.6465 25.2227 27.8068 25.2108C30.1898 25.0334 30.6338 24.9452 31.5948 24.4578C32.4147 24.0421 33.2658 23.424 33.8713 22.8047C34.0452 22.6269 34.2062 22.4813 34.2289 22.4813C34.3113 22.4813 34.2666 22.7787 34.145 23.0399C33.9347 23.492 33.4932 23.9084 32.5859 24.5108C32.1282 24.8147 31.6346 25.1009 31.4889 25.1468C31.0337 25.2902 30.2988 25.443 29.5284 25.5544C27.0185 25.9173 26.0581 26.1926 25.1067 26.8216C24.9474 26.9269 24.7803 27.0068 24.7352 26.9991C24.6902 26.9915 24.5701 27.0564 24.4684 27.1433C24.1825 27.3878 24.3897 27.3465 24.9827 27.0406C25.5905 26.7272 25.8754 26.6778 25.3962 26.969C24.8086 27.326 24.3607 27.5497 23.9221 27.5497H21.5646ZM18.447 24.4765C18.5422 24.4367 18.8573 24.2601 19.1472 24.0842C19.4371 23.9082 19.7816 23.7156 19.9127 23.6561C20.0439 23.5966 20.4134 23.4296 20.7339 23.2849C21.4058 22.9817 22.3917 22.6956 22.4484 22.7874C22.4683 22.8197 22.6152 22.8552 22.7748 22.8663C22.9982 22.882 23.0376 22.8963 22.9458 22.9287C22.8803 22.9519 22.8266 22.9919 22.8266 23.0176C22.8266 23.1136 23.3225 23.0848 23.5312 22.9768C23.6131 22.9344 23.7979 22.8858 23.9421 22.8687C24.1213 22.8475 24.2041 22.8134 24.2041 22.7609C24.2041 22.7009 24.2496 22.6917 24.4114 22.7191C24.6341 22.7568 25.113 22.6662 26.4028 22.3424C27.2762 22.1232 27.9378 21.9025 28.5188 21.6366L28.9395 21.4441L28.5188 21.1746C27.4935 20.5175 26.464 20.114 24.2041 19.4836C23.8107 19.3739 23.4651 19.2604 23.4359 19.2314C23.4008 19.1965 23.4186 19.1916 23.4889 19.2168C23.7145 19.2977 23.8862 19.3133 23.8862 19.2527C23.8862 19.1741 23.7156 19.1108 23.3804 19.0649C23.0738 19.023 22.8759 18.9314 23.0889 18.9301C23.4185 18.928 22.8518 18.719 22.2174 18.6086C21.7477 18.5269 21.7206 18.5094 21.9168 18.4144C22.0878 18.3315 22.2717 18.0179 22.2233 17.8918C22.1822 17.7847 22.131 17.7957 21.8769 17.9665C21.3871 18.2956 20.9378 18.8347 20.6854 19.3962C20.5413 19.7165 20.5912 19.7458 21.3325 19.7775C21.9395 19.8035 21.9492 19.8058 21.7935 19.8894C21.7061 19.9364 21.5308 19.9908 21.4039 20.0102C20.9729 20.0764 20.7335 20.281 20.9471 20.4007C21.0106 20.4362 20.9854 20.4661 20.8296 20.5405C20.655 20.6238 20.6427 20.6415 20.7266 20.6885C20.779 20.7178 20.9313 20.7331 21.0652 20.7224C21.2511 20.7076 21.3361 20.7277 21.4256 20.8075L21.5427 20.9119L21.3077 21.061C21.1784 21.1431 21.0322 21.2867 20.9828 21.3802C20.9333 21.4737 20.7558 21.6961 20.5882 21.8744C20.4207 22.0528 20.2836 22.2373 20.2836 22.2844C20.2836 22.3315 20.0392 22.5657 19.7406 22.8048C18.9373 23.4477 18.5882 23.8011 18.5882 23.9712C18.5882 24.0613 18.5429 24.1424 18.4632 24.1946C18.2125 24.359 18.0816 24.5489 18.2191 24.5489C18.2492 24.5489 18.3517 24.5163 18.447 24.4765V24.4765ZM24.6445 23.857C24.843 23.8305 25.0729 23.7689 25.1553 23.7202L25.3052 23.6316L25.0496 23.5041L24.7939 23.3766L24.5388 23.48C24.3984 23.5369 24.2041 23.6136 24.1069 23.6504C23.716 23.7984 23.665 23.9973 24.0319 23.9427C24.1703 23.9221 24.446 23.8836 24.6445 23.857ZM15.6743 21.4462C16.855 20.211 17.6881 19.4781 18.7457 18.7448C19.1051 18.4956 19.3582 18.3515 19.3707 18.389C19.4051 18.4921 19.559 18.4617 19.8097 18.3025C20.0977 18.1196 20.2417 17.9344 20.6013 17.2852C20.9742 16.6117 21.1151 16.4434 21.6535 16.0286C21.9054 15.8345 22.2762 15.5448 22.4776 15.3847C22.7679 15.1541 22.8376 15.1176 22.8137 15.209C22.7952 15.2797 22.808 15.3242 22.8468 15.3242C22.9671 15.3242 23.5343 15.082 23.5542 15.0221C23.5854 14.9284 23.0092 14.8316 22.583 14.859C22.2558 14.88 22.1399 14.918 21.7339 15.1373C20.7798 15.6527 20.0906 16.2087 18.7746 17.5244C17.8275 18.4712 17.0814 19.1061 16.7043 19.2861C16.5815 19.3447 16.489 19.4675 16.3401 19.7699C16.0505 20.3576 15.5335 21.201 15.0428 21.8863C14.579 22.534 14.4795 22.758 14.8399 22.343C14.9638 22.2004 15.3392 21.7968 15.6743 21.4462V21.4462ZM27.4889 27.2462C28.9068 26.9513 29.0634 26.9293 30.0584 26.8857C31.1757 26.8368 31.3181 26.8077 31.9903 26.4916C32.2057 26.3903 32.2901 26.3719 32.32 26.4197C32.3721 26.5029 32.7367 26.3042 33.4491 25.8044C33.7405 25.5999 34.1526 25.3387 34.3648 25.2238C34.6846 25.0507 34.7825 25.0209 34.9363 25.0498C35.1006 25.0806 35.1492 25.0606 35.359 24.8758C35.9404 24.3637 36.4368 24.127 36.9326 24.1254C37.08 24.1249 37.1312 24.1468 37.1312 24.21C37.1312 24.2639 37.1604 24.284 37.2107 24.2647C37.3584 24.2079 37.2915 24.2728 36.9117 24.5546C36.4719 24.8808 36.5151 24.9788 36.9622 24.6691C37.3951 24.3693 37.3961 24.3689 37.3961 24.4901C37.3961 24.5592 37.2332 24.7327 36.9326 24.9836C36.2485 25.5547 35.7642 26.0269 35.0268 26.8418L34.3672 27.5497H25.979L27.4889 27.2462V27.2462ZM27.5021 16.454C27.5531 16.4407 27.6366 16.4407 27.6876 16.454C27.7385 16.4674 27.6968 16.4783 27.5948 16.4783C27.4929 16.4783 27.4511 16.4674 27.5021 16.454Z" fill="#003189"/>
<path d="M52.2166 14.4379C51.9852 14.4029 52.1046 14.3169 52.3846 14.3169C52.6655 14.3169 52.8135 14.209 52.8135 14.0043C52.8135 13.9081 52.7926 13.8923 52.7028 13.9208C52.6254 13.9454 52.5703 13.9247 52.5194 13.852C52.4718 13.784 52.3568 13.736 52.1876 13.7136C51.8854 13.6735 51.396 13.3815 51.4838 13.2937C51.5137 13.2637 51.6693 13.2283 51.8295 13.215C52.1056 13.1921 52.1238 13.1815 52.1799 13.0116C52.2218 12.8845 52.2801 12.8228 52.3805 12.7991C52.4584 12.7808 52.5817 12.7109 52.6546 12.6437C52.7274 12.5766 52.9658 12.4049 53.1844 12.2622C53.5518 12.0224 53.7794 11.7668 53.698 11.6854C53.6123 11.5996 52.8168 11.5062 52.4426 11.538C52.008 11.575 51.2591 11.733 50.9459 11.8538C50.6245 11.9777 50.7184 11.8698 51.1601 11.6077C51.7564 11.2538 52.9042 10.924 53.539 10.924C53.7853 10.924 54.6094 11.1187 54.7076 11.2001C54.8998 11.3596 54.6901 11.9193 54.3335 12.1985L54.1845 12.3151L54.307 12.4458L54.4294 12.5764L54.3043 12.678C54.2355 12.7338 54.1413 12.7795 54.0949 12.7795C54.0486 12.7795 53.9337 12.8541 53.8398 12.9452C53.6951 13.0855 53.6764 13.1308 53.718 13.2403C53.7502 13.325 53.7471 13.4071 53.7089 13.4786C53.6732 13.5453 53.6643 13.697 53.6858 13.8698C53.7299 14.2225 53.6663 14.3488 53.4089 14.4203C53.218 14.4734 52.5192 14.4837 52.2166 14.4379V14.4379Z" fill="#7F7F7F"/>
</g>
<defs>
<clipPath id="clip0">
<rect width="81.4834" height="48" fill="white"/>
</clipPath>
</defs>
</svg>
