<svg xmlns="http://www.w3.org/2000/svg" id="fox-news-channel" width="90" height="90" viewBox="0 0 90 90"><defs><style>.cls-1{fill:#036}.cls-1,.cls-2,.cls-3{fill-rule:evenodd}.cls-2{fill:#c20017}.cls-3,.cls-4{fill:#fff}</style></defs><title>fnc-primary</title><path id="bg-top" d="M0,0H90V73H0Z" class="cls-1"/><path id="bg-bottom" d="M0,74H90V90H0Z" class="cls-2"/><path id="kliegs" d="M90,52.25l-.17,0a72.92,72.92,0,0,0-3.39-7.16h1.11Q88.86,47.6,90,50.19ZM0,10A71.94,71.94,0,0,1,13.62,6.86L14.94,0H25.63l-2.4,6.22a72.53,72.53,0,0,1,8.61.5L35.17,0H46.92l-5.6,8.5a72.12,72.12,0,0,1,20.94,9.16Q64.18,18.9,66,20.25h-1.7A71.84,71.84,0,0,0,40.75,9.38L33.91,20H29v7.23L16.88,47H13l0,6.61L.58,73H.19L31.39,7.66a70.54,70.54,0,0,0-8.5-.46L.09,73H0m0-1.22L13.4,7.89A70.83,70.83,0,0,0,.06,11.1l-.06,0M.58,73h0Zm-.4,0h0ZM46.45,0h0Z" class="cls-3"/><path id="fox-news" d="M37,36.68h6.57V30.54H37V27.61h8l-.44-6.16H30.31V44H37Zm27.81,7.25H72l3.28-5.53,3.36,5.54H86l-7.1-11.68,6.39-10.77H78l-2.75,4.68L72.4,21.48H65l6.58,10.84Zm-8.37.25A11.54,11.54,0,0,0,68.14,32.83a11.73,11.73,0,0,0-23.44,0A11.54,11.54,0,0,0,56.42,44.18Zm-2.07-16.3a2.09,2.09,0,0,1,2-2.07,2.15,2.15,0,0,1,2.11,2.07l0,9.57a2.06,2.06,0,0,1-4.11,0ZM38.52,60.83h6.81V56.32H38.52V53.25h8.29V48.37H33.27V69.45H46.92V64.38H38.52ZM67.82,48.37,65.21,60.44,62.66,48.37h-4.5L55.73,60.56,53.2,48.37H47.83L52.7,69.45h4.9L60,57.37l2.47,12.08h4.79l4.9-21.08Zm17.78,9.52c-1.4-1.29-3-1.63-4.8-2.14-2.13-.6-3.3-.66-3.3-1.9a1.67,1.67,0,0,1,1.84-1.5,2.76,2.76,0,0,1,2.91,2.11l4.6-1.53a7.07,7.07,0,0,0-7.14-5.24c-4.8,0-7.74,2.95-7.74,6.92,0,3.43,2,5.12,6,6.32,2.39.72,3.66.66,3.66,2.2,0,.81-.75,1.44-2,1.44A3.12,3.12,0,0,1,76.2,62l-5.06,1.11c.86,4,3.84,6.38,8.41,6.38a8,8,0,0,0,6-2.47,6.79,6.79,0,0,0,1.77-4.64A5.85,5.85,0,0,0,85.59,57.89ZM26.72,58.95,20.44,48.46H14.35l0,21h5.35V57.19l7.17,12.24h5.07v-21h-5.2Z" class="cls-4"/><path id="channel" d="M8.65,81.23A1.22,1.22,0,0,1,10,82h3c-.19-1.42-1.8-2.27-4.31-2.27C5.82,79.77,4,81,4,83c0,1.82,1.79,3,4.51,3,2.51,0,4.15-.87,4.45-2.35H10c-.17.57-.64.85-1.41.85-1,0-1.54-.53-1.54-1.59S7.62,81.23,8.65,81.23Zm29.2,3.44V82.46a2.12,2.12,0,0,0-.6-1.87,5.45,5.45,0,0,0-3.35-.76c-2.59,0-4,.63-4.29,2h2.75c.12-.43.62-.66,1.48-.66s1.18.18,1.18.52v.14c0,.45-1.13.36-3.24.68-1.61.24-2.42.84-2.42,1.81S30.42,86,32.21,86a5.16,5.16,0,0,0,2.9-.79,3.14,3.14,0,0,0,.15.6h3v-.22C38,85.49,37.86,85.18,37.86,84.66ZM35,83.73c0,.62-.72,1-1.73,1-.67,0-1.1-.29-1.1-.69s.31-.53,1-.65A10.31,10.31,0,0,0,35,83.06Zm13.46-3.89a3.64,3.64,0,0,0-2.76.94V80H42.8v5.83h3V82.7c0-1,.43-1.41,1.51-1.41s1.25.52,1.25,1.59v2.93h3V82C51.52,80.53,50.7,79.84,48.49,79.84Zm-25.94.08a3.89,3.89,0,0,0-2.8.91V78h-3v7.9h3V82.79c0-1,.43-1.41,1.51-1.41s1.25.52,1.25,1.59v2.93h3v-4C25.48,80.6,24.45,79.92,22.54,79.92Zm40-.08a3.64,3.64,0,0,0-2.76.94V80H56.91v5.83h3V82.7c0-1,.43-1.41,1.51-1.41s1.25.52,1.25,1.59v2.93h3V82C65.63,80.53,64.8,79.84,62.59,79.84Zm11.66-.06c-2.78,0-4.58,1.19-4.58,3.14S71.44,86,74.25,86c2.33,0,4-.74,4.5-2H75.88c-.21.42-.72.64-1.53.64-1.06,0-1.63-.44-1.63-1.26h6.16a2.3,2.3,0,0,0,0-.34C78.9,81,77.12,79.78,74.25,79.78Zm-1.61,2.49c.12-.78.74-1.2,1.7-1.2s1.68.44,1.7,1.2ZM83,78v7.9h3V78Z" class="cls-4"/></svg>