<svg width="38" height="38" viewBox="0 0 38 38" fill="none" xmlns="http://www.w3.org/2000/svg">
<path d="M0 0H38V30.8222H0V0Z" fill="#003366"/>
<path d="M0 31.2444H38V38H0V31.2444Z" fill="#C20017"/>
<path d="M38 22.0611H37.9282C37.5062 21.0282 37.0284 20.019 36.4969 19.038H36.9656C37.3343 19.7445 37.6791 20.4623 38 21.1913V22.0611ZM0 4.22222C1.86931 3.59469 3.79529 3.15066 5.75067 2.89644L6.308 0H10.8216L9.80822 2.62622C11.0231 2.62442 12.237 2.69492 13.4436 2.83733L14.8496 0H19.8107L17.4462 3.58889C20.5802 4.39992 23.5648 5.7055 26.2876 7.45644C26.828 7.80548 27.3544 8.17 27.8667 8.55H27.1489C24.1404 6.42953 20.771 4.87433 17.2056 3.96044L14.3176 8.44444H12.2444V11.4971L7.12711 19.8444H5.48889V22.6353L0.244889 30.8222H0.0802222L13.2536 3.23422C12.0623 3.09729 10.8638 3.03243 9.66467 3.04L0.038 30.8222H0V4.22222ZM0 30.3071L5.65778 3.33133C3.74086 3.59977 1.85453 4.05368 0.0253333 4.68667H0V30.3071Z" fill="white"/>
<path d="M15.6222 15.4871H18.3962V12.8947H15.6222V11.6576H19L18.8142 9.05667H12.7975V18.5778H15.6222V15.4871ZM27.3642 18.5482H30.4L31.7849 16.2133L33.2035 18.5524H36.3111L33.3133 13.6209L36.0113 9.07356H32.9333L31.7722 11.0496L30.5689 9.06934H27.4444L30.2226 13.6462L27.3642 18.5482ZM23.8302 18.6538C25.1203 18.6718 26.3649 18.1775 27.291 17.2791C28.2171 16.3807 28.7491 15.1516 28.7702 13.8616C28.7174 12.5845 28.173 11.3773 27.2508 10.4924C26.3285 9.60748 25.0999 9.11335 23.8218 9.11335C22.5436 9.11335 21.315 9.60748 20.3927 10.4924C19.4705 11.3773 18.9261 12.5845 18.8733 13.8616C18.8944 15.1531 19.4275 16.3835 20.3555 17.2821C21.2834 18.1807 22.5302 18.6741 23.8218 18.6538H23.8302ZM22.9562 11.7716C22.9582 11.5454 23.0469 11.3287 23.204 11.166C23.3611 11.0034 23.5747 10.9073 23.8006 10.8976C24.0327 10.9017 24.2544 10.9946 24.4201 11.1572C24.5858 11.3197 24.6829 11.5396 24.6915 11.7716V15.8122C24.6762 16.0319 24.5781 16.2376 24.4171 16.3877C24.2561 16.5379 24.0441 16.6214 23.8239 16.6214C23.6037 16.6214 23.3917 16.5379 23.2306 16.3877C23.0696 16.2376 22.9715 16.0319 22.9562 15.8122V11.7716ZM16.264 25.6838H19.1393V23.7796H16.264V22.4833H19.7642V20.4229H14.0473V29.3233H19.8106V27.1827H16.264V25.6838ZM28.6351 20.4229L27.5331 25.5191L26.4564 20.4229H24.5564L23.5304 25.5698L22.4622 20.4229H20.1949L22.2511 29.3233H24.32L25.3333 24.2229L26.3762 29.3233H28.3986L30.4675 20.4229H28.6351ZM36.1422 24.4424C35.5511 23.8978 34.8755 23.7542 34.1155 23.5389C33.2162 23.2856 32.7222 23.2602 32.7222 22.7367C32.7312 22.6439 32.7584 22.5538 32.8024 22.4716C32.8464 22.3895 32.9063 22.3168 32.9785 22.2579C33.0508 22.199 33.134 22.155 33.2233 22.1285C33.3127 22.102 33.4064 22.0934 33.4991 22.1033C33.7765 22.0806 34.053 22.1579 34.2783 22.3213C34.5037 22.4848 34.6631 22.7235 34.7278 22.9942L36.67 22.3482C36.4946 21.6912 36.1002 21.1138 35.552 20.7115C35.0038 20.3091 34.3347 20.106 33.6553 20.1358C31.6286 20.1358 30.3873 21.3813 30.3873 23.0576C30.3873 24.5058 31.2318 25.2193 32.9206 25.726C33.9298 26.03 34.466 26.0047 34.466 26.6549C34.466 26.9969 34.1493 27.2629 33.6215 27.2629C33.2872 27.3012 32.9509 27.2101 32.6816 27.0084C32.4123 26.8066 32.2304 26.5094 32.1733 26.1778L30.0369 26.6464C30.4 28.3353 31.6582 29.3402 33.5878 29.3402C34.0594 29.353 34.5286 29.2668 34.9649 29.0871C35.4012 28.9075 35.7951 28.6385 36.1211 28.2973C36.6086 27.7621 36.8756 27.0622 36.8684 26.3382C36.8881 25.9885 36.8331 25.6386 36.7071 25.3118C36.5812 24.9849 36.3872 24.6886 36.138 24.4424H36.1422ZM11.2818 24.89L8.6302 20.4609H6.05887V29.3276H8.31776V24.1469L11.3451 29.3149H13.4858V20.4482H11.2902L11.2818 24.89Z" fill="white"/>
<path d="M3.65221 34.2971C3.77019 34.2766 3.89165 34.2978 3.99567 34.3572C4.0997 34.4165 4.1798 34.5102 4.22221 34.6222H5.48887C5.40865 34.0227 4.72887 33.6638 3.6691 33.6638C2.45732 33.6807 1.68887 34.2 1.68887 35.0444C1.68887 35.8129 2.44465 36.3111 3.5931 36.3111C4.65287 36.3111 5.34532 35.9438 5.47198 35.3189H4.22221C4.15043 35.5596 3.95198 35.6778 3.62687 35.6778C3.20465 35.6778 2.97665 35.454 2.97665 35.0065C2.97665 34.5589 3.21732 34.2971 3.65221 34.2971ZM15.9811 35.7496V34.8164C16.0057 34.6742 15.9955 34.5281 15.9514 34.3906C15.9073 34.2531 15.8305 34.1283 15.7278 34.0269C15.3032 33.7703 14.8071 33.6577 14.3133 33.706C13.2198 33.706 12.6244 33.972 12.502 34.5505H13.6631C13.7138 34.3689 13.9249 34.2718 14.288 34.2718C14.6511 34.2718 14.7862 34.3478 14.7862 34.4913V34.5505C14.7862 34.7405 14.3091 34.7025 13.4182 34.8376C12.7384 34.9389 12.3964 35.1922 12.3964 35.6018C12.3964 36.0113 12.844 36.3111 13.5998 36.3111C14.032 36.3239 14.4582 36.2078 14.8242 35.9776C14.8369 36.0639 14.8581 36.1487 14.8875 36.2309H16.1542V36.138C16.0444 36.0958 15.9853 35.9649 15.9853 35.7453L15.9811 35.7496ZM14.7778 35.3527C14.7778 35.6145 14.4738 35.7749 14.0473 35.7749C13.7644 35.7749 13.5829 35.6524 13.5829 35.4836C13.5829 35.3147 13.7138 35.2598 14.0051 35.2091C14.2663 35.186 14.5249 35.1394 14.7778 35.0698V35.3527ZM20.4609 33.7102C20.2498 33.6925 20.0373 33.7186 19.8367 33.7869C19.6362 33.8552 19.4519 33.9642 19.2955 34.1071V33.7778H18.0711V36.2393H19.3378V34.9178C19.3378 34.4956 19.5193 34.3224 19.9753 34.3224C20.4313 34.3224 20.5031 34.542 20.5031 34.9938V36.2309H21.7698V34.6222C21.7529 34.0016 21.4067 33.7102 20.4735 33.7102H20.4609ZM9.50843 33.744C9.07924 33.7122 8.65472 33.8502 8.32621 34.1282V32.9333H7.05954V36.2689H8.32621V34.9558C8.32621 34.5336 8.50776 34.3604 8.96376 34.3604C9.41976 34.3604 9.49154 34.58 9.49154 35.0318V36.2689H10.7582V34.58C10.7582 34.0311 10.3233 33.744 9.51687 33.744H9.50843ZM26.3973 33.7102C26.1862 33.6925 25.9737 33.7186 25.7732 33.7869C25.5726 33.8552 25.3884 33.9642 25.232 34.1071V33.7778H24.0287V36.2393H25.2953V34.9178C25.2953 34.4956 25.4769 34.3224 25.9329 34.3224C26.3889 34.3224 26.4607 34.542 26.4607 34.9938V36.2309H27.7273V34.6222C27.7104 34.0016 27.36 33.7102 26.4269 33.7102H26.3973ZM31.3204 33.6849C30.1467 33.6849 29.3867 34.1873 29.3867 35.0107C29.3867 35.834 30.1635 36.3111 31.35 36.3111C32.3338 36.3111 33.0389 35.9987 33.25 35.4667H32.0382C31.9495 35.644 31.7342 35.7369 31.3922 35.7369C30.9447 35.7369 30.704 35.5511 30.704 35.2049H33.3049C33.3084 35.1571 33.3084 35.1091 33.3049 35.0613C33.3133 34.2 32.5618 33.6849 31.35 33.6849H31.3204ZM30.6407 34.7362C30.6913 34.4069 30.9531 34.2296 31.3584 34.2296C31.7638 34.2296 32.0678 34.4153 32.0762 34.7362H30.6407ZM35.0444 32.9333V36.2689H36.3111V32.9333H35.0444Z" fill="white"/>
</svg>
