<svg width="148" height="32" viewBox="0 0 148 32" fill="none" xmlns="http://www.w3.org/2000/svg">
<path d="M52.3444 14.2006V23.9937H47.4847V15.1578C47.4847 14.127 47.1902 13.8324 46.7484 13.8324C46.233 13.8324 45.6439 14.2742 45.1285 15.1578V23.9937H40.2688V5.58564L45.1285 5.07021V11.9916C46.233 10.8135 47.3375 10.2981 48.8101 10.2981C51.0191 10.2245 52.3444 11.6971 52.3444 14.2006ZM66.4818 18.7658H58.6032C58.8977 20.6802 59.7813 20.9748 61.2539 20.9748C62.2111 20.9748 63.0947 20.6066 64.1992 19.7966L66.1873 22.521C64.7146 23.7728 62.7266 24.5091 60.8121 24.5091C56.026 24.5091 53.7435 21.4902 53.7435 17.4404C53.7435 13.5379 55.9524 10.2981 60.2967 10.2981C64.1256 10.2981 66.7027 12.8016 66.7027 17.2195C66.6291 17.5877 66.5554 18.2504 66.4818 18.7658V18.7658ZM61.843 15.8205C61.843 14.4951 61.5485 13.3906 60.2967 13.3906C59.2659 13.3906 58.7504 13.9797 58.5295 16.0414H61.843V15.8205ZM67.8072 20.1648V5.51201L72.6669 4.99658V19.9439C72.6669 20.3857 72.8878 20.6066 73.256 20.6066C73.4032 20.6066 73.6241 20.6066 73.7714 20.4593L74.655 23.92C73.7714 24.2146 72.8878 24.3618 72.0042 24.3618C69.2798 24.5091 67.8072 22.8892 67.8072 20.1648V20.1648ZM75.1704 20.1648V5.51201L80.0301 4.99658V19.9439C80.0301 20.3857 80.251 20.6066 80.6192 20.6066C80.7664 20.6066 80.9873 20.6066 81.1346 20.4593L82.0182 23.92C81.1346 24.2146 80.251 24.3618 79.3674 24.3618C76.643 24.5091 75.1704 22.8892 75.1704 20.1648V20.1648ZM95.272 17.3668C95.272 21.7111 92.6949 24.4355 88.4978 24.4355C84.3744 24.4355 81.7237 21.932 81.7237 17.2932C81.7237 12.9489 84.3008 10.2245 88.4978 10.2245C92.6212 10.2245 95.272 12.8016 95.272 17.3668ZM86.8043 17.3668C86.8043 20.0175 87.3197 20.9748 88.5715 20.9748C89.7496 20.9748 90.3386 19.9439 90.3386 17.3668C90.3386 14.716 89.8232 13.7588 88.5715 13.7588C87.3197 13.7588 86.7307 14.8633 86.8043 17.3668ZM108.82 21.2693L107.863 24.4355C106.17 24.2882 105.065 23.8464 104.329 22.5947C103.372 24.0673 101.899 24.5091 100.353 24.5091C97.7018 24.5091 96.0083 22.7419 96.0083 20.3121C96.0083 17.3668 98.2173 15.7469 102.341 15.7469H103.298V15.3787C103.298 14.0533 102.856 13.6852 101.383 13.6852C100.205 13.7588 99.1009 13.9797 97.9964 14.3479L96.9655 11.2553C98.5854 10.5926 100.353 10.2245 102.12 10.2245C106.317 10.2245 108.01 11.8444 108.01 15.0842V19.6494C108.01 20.6066 108.231 21.0484 108.82 21.2693V21.2693ZM103.298 20.2384V18.2504H102.782C101.383 18.2504 100.794 18.6922 100.794 19.723C100.794 20.4593 101.236 20.9748 101.899 20.9748C102.414 21.0484 103.003 20.7539 103.298 20.2384V20.2384ZM120.454 11.9916L118.761 14.6424C117.803 14.0533 116.773 13.6852 115.668 13.6852C114.858 13.6852 114.564 13.9061 114.564 14.2742C114.564 14.716 114.711 14.9369 117.214 15.6732C119.718 16.4832 121.043 17.514 121.043 19.9439C121.043 22.6683 118.466 24.5091 114.858 24.5091C112.576 24.5091 110.44 23.6991 109.115 22.3738L111.397 19.7966C112.355 20.533 113.533 21.122 114.711 21.122C115.594 21.122 116.11 20.8275 116.11 20.3121C116.11 19.6494 115.815 19.5021 113.606 18.8394C111.177 18.1031 109.778 16.7041 109.778 14.5688C109.778 12.2125 111.839 10.2981 115.447 10.2981C117.362 10.2245 119.276 10.8872 120.454 11.9916V11.9916ZM132.603 11.9916L130.91 14.6424C129.953 14.0533 128.922 13.6852 127.817 13.6852C127.007 13.6852 126.713 13.9061 126.713 14.2742C126.713 14.716 126.86 14.9369 129.364 15.6732C131.867 16.4832 133.193 17.514 133.193 19.9439C133.193 22.6683 130.615 24.5091 127.007 24.5091C124.725 24.5091 122.59 23.6991 121.264 22.3738L123.547 19.7966C124.504 20.533 125.682 21.122 126.86 21.122C127.744 21.122 128.259 20.8275 128.259 20.3121C128.259 19.6494 127.965 19.5021 125.756 18.8394C123.326 18.1031 121.927 16.7041 121.927 14.5688C121.927 12.2125 123.989 10.2981 127.596 10.2981C129.511 10.2245 131.352 10.8872 132.603 11.9916V11.9916ZM147.256 17.3668C147.256 21.7111 144.679 24.4355 140.482 24.4355C136.359 24.4355 133.708 21.932 133.708 17.2932C133.708 12.9489 136.285 10.2245 140.482 10.2245C144.606 10.2245 147.256 12.8016 147.256 17.3668ZM138.789 17.3668C138.789 20.0175 139.304 20.9748 140.556 20.9748C141.734 20.9748 142.323 19.9439 142.323 17.3668C142.323 14.716 141.807 13.7588 140.556 13.7588C139.304 13.7588 138.715 14.8633 138.789 17.3668Z" fill="black"/>
<path d="M9.49051 25.6873C4.63078 20.0912 7.8706 5.95386 9.9323 5.95386C5.95616 5.8066 -0.817994 8.45735 0.139224 17.9559C1.24371 26.7918 9.19598 32.9769 17.8846 31.8724C20.6826 31.5042 23.2597 30.3997 25.4687 28.7062C17.8109 34.2286 12.6567 29.2953 9.49051 25.6873V25.6873Z" fill="url(#paint0_linear)"/>
<path d="M27.3831 16.1151C23.3334 24.2882 10.8895 27.749 9.49051 25.6136C11.9204 29.2216 17.9582 34.1549 25.5423 28.5589C32.4637 23.1838 33.7155 13.0962 28.3403 6.1011C26.6468 3.89214 24.3642 2.1986 21.7871 1.09412C30.402 4.99662 29.5185 11.8444 27.3831 16.1151V16.1151Z" fill="url(#paint1_linear)"/>
<path d="M9.93231 5.95388C18.6945 4.99666 28.6349 14.0534 27.3831 16.1887C29.813 11.9181 30.402 5.07029 21.8607 1.16779C13.6875 -2.14566 4.4099 1.83048 1.17008 10.0773C0.139233 12.6544 -0.228928 15.4524 0.139233 18.1768C-0.449824 8.7519 6.69249 6.24841 9.93231 5.95388Z" fill="url(#paint2_linear)"/>
<defs>
<linearGradient id="paint0_linear" x1="3.17434" y1="8.15178" x2="17.861" y2="33.3001" gradientUnits="userSpaceOnUse">
<stop stop-color="#498A63"/>
<stop offset="0.25" stop-color="#61B984"/>
</linearGradient>
<linearGradient id="paint1_linear" x1="14.6367" y1="30.2591" x2="29.8307" y2="5.90892" gradientUnits="userSpaceOnUse">
<stop stop-color="#89356D"/>
<stop offset="0.21" stop-color="#B94794"/>
</linearGradient>
<linearGradient id="paint2_linear" x1="2.37912" y1="6.5827" x2="27.7432" y2="15.7116" gradientUnits="userSpaceOnUse">
<stop offset="0.6" stop-color="#F59C1C"/>
<stop offset="1" stop-color="#C7702B"/>
</linearGradient>
</defs>
</svg>
