<svg width="160" height="28" viewBox="0 0 160 28" fill="none" xmlns="http://www.w3.org/2000/svg">
<path d="M69.76 18.56C69.76 16.64 68.8 14.88 67.04 14.4C69.12 13.76 69.76 12.32 69.76 10.08V5.92C69.76 2.4 68 0.48 64.32 0.48H57.6V27.52H61.12V15.68H64C65.6 15.68 66.24 16.64 66.24 18.24V21.44C66.24 24.48 66.4 26.08 66.72 27.52H70.56C69.92 25.6 69.76 23.84 69.76 21.44V18.56V18.56ZM66.08 10.4C66.08 12 65.28 12.96 63.84 12.96H61.12V3.68H64.16C65.6 3.68 66.08 4.48 66.08 5.92V10.4ZM0 0.48H3.52V27.52H0V0.48ZM18.88 18.24L17.28 14.08L12 0.48H8.96V27.52H12.32V9.92L13.92 14.08L19.68 27.52H22.24V0.48H18.88V18.24ZM33.12 0C29.12 0 26.88 2.72 26.88 6.4C26.88 9.92 29.44 12.96 32 15.2C34.24 17.12 35.68 19.04 35.68 21.92C35.68 23.84 34.72 24.96 32.8 24.96C30.72 24.96 29.92 23.52 29.92 21.44V19.2H26.4V21.76C26.4 25.28 28.96 27.84 32.8 27.84C36.32 27.84 39.2 25.44 39.2 21.28C39.2 17.76 37.28 15.2 34.56 12.8C32.16 10.56 30.4 8.96 30.4 5.76C30.4 4.16 31.36 3.04 33.12 3.04C35.04 3.04 36 4.48 36 6.4V8.64H39.36V6.08C39.04 2.56 36.8 0 33.12 0ZM41.6 3.68H46.24V27.52H49.6V3.68H54.24V0.48H41.6V3.68ZM84 21.92C84 23.84 83.04 24.96 81.12 24.96C79.2 24.96 78.24 23.84 78.24 21.92V0.48H74.72V21.76C74.72 25.6 77.44 28 81.12 28C84.8 28 87.52 25.6 87.52 21.76V0.48H84V21.92V21.92ZM102.56 17.28L101.76 21.76L100.96 17.28L97.92 0.48H92.96V27.52H96.16V7.52L96.96 11.68L100 27.52H103.36L106.4 11.68L107.2 7.52V27.52H110.4V0.48H105.6L102.56 17.28ZM115.84 27.52H126.56V24.32H119.36V15.04H124.96V12H119.36V3.68H126.56V0.48H115.84V27.52ZM140.8 18.24L139.2 14.08L133.92 0.48H131.04V27.52H134.24V9.92L136 14.08L141.6 27.52H144.16V0.48H140.8V18.24ZM147.52 0.48V3.68H152V27.52H155.52V3.68H160V0.48H147.52Z" fill="#121212"/>
</svg>
