<svg xmlns="http://www.w3.org/2000/svg" id="レイヤー_1" data-name="レイヤー 1" viewBox="0 0 300 56"><defs><style>.cls-1{fill:#4dc452}.cls-2{fill:#20333c}</style></defs><title>logo</title><path d="M65.51,30.94c-.3-.82-7.45-20.11-12.81-25.8a1,1,0,0,0-1.21-.21L48.28,6.57C43.9,4.69,37.45,2,36.32,2c-.67,0-4,.24-7.15.57-6.68.69-7,1.12-7.27,1.58-.12.18-.34.49-.63.89V5a5.46,5.46,0,0,1-2.48,1.56c-1.41.26-3.14.54-4.1.69l-3.06-1a1,1,0,0,0-1.3.66,223,223,0,0,1-9.19,23,1,1,0,0,0,.43,1.34L4.83,33l.68.58a3,3,0,0,1,.12,1.26c-.63,1.35-1.47,3.18-.33,5a3.79,3.79,0,0,0,2.6,1.67,5.56,5.56,0,0,0,1.1.1,6.93,6.93,0,0,0,1.39-.14h0a1.14,1.14,0,0,1,1,.59h0a3.55,3.55,0,0,0,.13.57,3.86,3.86,0,0,0,2.09,2.48,8.21,8.21,0,0,0,3.12.63h0a1.29,1.29,0,0,1,.85.5A4.68,4.68,0,0,0,20,49.28a7.52,7.52,0,0,0,3.12.86h0a4.75,4.75,0,0,0,1.55,1.79,4.42,4.42,0,0,0,2.62.78,6.57,6.57,0,0,0,2.12-.37l0,0a3.88,3.88,0,0,1,1.86-.07c1.42.68,2.51,1.19,2.55,1.21a5.45,5.45,0,0,0,2.27.53,4,4,0,0,0,3.35-1.77l.12-.2v0a1.65,1.65,0,0,1,1.56-.86h0a4.19,4.19,0,0,0,.56,0,4.8,4.8,0,0,0,3.85-2,4.91,4.91,0,0,0,.73-1.42v0A1.89,1.89,0,0,1,48,47a7.93,7.93,0,0,0,3,.67,4.1,4.1,0,0,0,3.25-1.45,5.32,5.32,0,0,0,1.26-3.19c.08-.3.18-.62.54-.63a4.88,4.88,0,0,0,1.18.15,3.89,3.89,0,0,0,2.91-1.3,4.37,4.37,0,0,0,.45-5.87,2,2,0,0,1,1-1.55L65,32.2A1,1,0,0,0,65.51,30.94ZM5,30.75,3.39,29.9C6.12,24.11,10.12,14.09,12,8.47l1.27.44a.69.69,0,0,0,.15.19C12.51,13.27,7.2,26.67,5,30.75Zm6.74,8.11a5.75,5.75,0,0,1-3.44.63A1.88,1.88,0,0,1,7,38.75c-.52-.83-.16-1.77.45-3.09l.17-.37,4.19,3.3C11.8,38.68,11.77,38.78,11.73,38.87Zm7.17,2.5-.11.06a1.18,1.18,0,0,0-.2.16,4.09,4.09,0,0,0-.93,1.54,3.7,3.7,0,0,0-.15.53,6.5,6.5,0,0,1-3.08-.42,1.86,1.86,0,0,1-1-1.21,3.54,3.54,0,0,1,0-1.78q0-.18.09-.35a5.1,5.1,0,0,1,.36-.87,5.82,5.82,0,0,1,.76-.16,5,5,0,0,1,.82,0,4.15,4.15,0,0,1,2.39.79,4,4,0,0,1,1,1.37h0a.4.4,0,0,1,0,.37Zm5.49,4.27h0l-.12.06a2.36,2.36,0,0,0-.79.65,3.76,3.76,0,0,0-.49.93,3.16,3.16,0,0,0-.19.78,6.15,6.15,0,0,1-1.91-.63,2.74,2.74,0,0,1-1.38-2,.68.68,0,0,1,0-.14,3,3,0,0,1,0-.74,2.85,2.85,0,0,1,.06-.42,2.38,2.38,0,0,1,.38-.89l.36-.07q.32-.05.66-.08h.4a3.15,3.15,0,0,1,2.41,1,6.62,6.62,0,0,1,.72,1l0,.06A.57.57,0,0,1,24.38,45.64Zm3.58,5a2.77,2.77,0,0,1-2.11-.33,3.24,3.24,0,0,1-.72-.69,1.83,1.83,0,0,1-.35-.86.79.79,0,0,1,0-.11,1.67,1.67,0,0,1,.31-1,1.5,1.5,0,0,1,.7-.27,2.86,2.86,0,0,1,.43,0h0a2.3,2.3,0,0,1,.6.08l.1,0a2.61,2.61,0,0,1,1.35,1.09A5.71,5.71,0,0,1,29,50.29,4.79,4.79,0,0,1,28,50.61ZM58.67,39.9c-1.06,1.11-2.45.84-5.14-1l-1-.7-.18-.13-1.29-.94-.18-.1c-3.69-2.64-9.29-6.71-9.37-6.76l-.11-.07a.51.51,0,0,1-.11-.19,2,2,0,0,1-1.42-.72,2.89,2.89,0,0,1-.79,2.62A2.74,2.74,0,0,1,40.4,32c1,.7,8.33,6.06,11.29,8.13l.8.58a2.45,2.45,0,0,1,1,1.74,3.3,3.3,0,0,1-.75,2.5c-1.49,1.73-4.75-.08-6.08-.93-.48-.31-1.16-.77-1.94-1.32l-.06,0-.2-.16-1.47-1-.38-.27C40.38,39.6,38,37.83,36.88,37l0,0c-.18-.17-.88-.67-1-1.2a3.79,3.79,0,0,1-.56,1,.7.7,0,0,0-.14.14,1.08,1.08,0,0,0-.11.16,3.06,3.06,0,0,1-1.17.81,2.16,2.16,0,0,1,1.34.39l.09.08,0,0h0c.82.66,2.64,2,4.56,3.42a.83.83,0,0,0,.16.14l1.3.91.09.06c.67.48,1.32,1,1.92,1.37A2.66,2.66,0,0,1,43.9,48c-.79,1.07-2.43,1.79-4.45.31l-.36-.26-7.58-5.67-.1-.06a6.71,6.71,0,0,1-1-1c-.25.58-.47,1.34-1.08,1.5a.77.77,0,0,1,.13.79,1.91,1.91,0,0,1,.81.41l0,0,.22.17,0,0,7.19,5.38.1.11c.34.32.22.94-.07,1.37-.47.71-1.53,1.23-3.08.51-.58-.26-2.1-1-3.68-1.77-.74-3-2.39-4.06-3.51-4.41a2.25,2.25,0,0,1-1-.76h0a7.54,7.54,0,0,0-1.33-2,5,5,0,0,0-3.2-1.6h0a1.88,1.88,0,0,1-1.23-.92A6.1,6.1,0,0,0,19.08,38a6.61,6.61,0,0,0-5.83-.91c-2.81-2.2-5.4-4.25-6.57-5.21a147,147,0,0,0,7.75-19,32.39,32.39,0,0,0,1-3.7c.82-.13,2-.31,3-.5l-.3.36a11.15,11.15,0,0,1-1.37,1.26,6.5,6.5,0,0,0-2.24,2.62,2.5,2.5,0,0,0,.08,1.81c.8,2,3.58,2.44,5.79,2.44A13.86,13.86,0,0,0,22.63,17a9.07,9.07,0,0,0,5.27-3h0l.19,0,4.74.4,12.3,8.41c.92.9,11.38,11.12,12.78,12.53l.1.1C60.19,37.71,59.51,39,58.67,39.9Zm.27-7.1a1.86,1.86,0,0,1-1.14-.39L47.39,22.21a2.34,2.34,0,0,1,.6-1.4,8.46,8.46,0,0,1-2.77-.36L33.76,12.61a1,1,0,0,0-.48-.17l-2.19-.19c-1.52-.44-3-2.49-3-2.49l-.76,1.55-.05.08A7.07,7.07,0,0,1,22.3,15c-2.28.38-5.37,0-5.8-1-.21-.51.23-1,1.57-2.08a12.5,12.5,0,0,0,1.64-1.52c.61-.71,1.34-1.65,2-2.53S23.12,6,23.47,5.47C25.07,4.89,34.91,4,36.29,4c.85.1,6.75,2.49,12,4.77,2.94,3.68,9.38,16.71,11.39,23h0C59.78,32.46,59.58,32.75,58.94,32.79Zm2.83-1.25c-1.92-6.31-8.24-19.15-11.59-23.66l1.54-.78c4.41,5.3,10.15,20,11.56,23.68Z" class="cls-1"/><path d="M87.63,37.72v-3H79.75V15.41h7.88v-3H78.69V7.7h8.94V2.8h5.59V7.7h9.1v4.74h-9.1v3h8.36V34.68h-8.3v3h9.37v4.84H93.27v9.63H87.63V42.56H78.37V37.72ZM84.54,23.13h3.57v-3.3H84.54Zm0,7.13h3.57V26.86H84.54Zm12-7.13v-3.3H92.79v3.3Zm0,7.13V26.86H92.79v3.41ZM105.09,45c1.65-6.49,3.14-13.79,4-19.27H102.8V20.31h24.91v5.43H115.15c-1.12,5.43-2.71,12.3-4.47,18.63,3.19-.43,6.55-.85,9.47-1.28-1-2.66-2.24-5.48-3.67-8.36l4.79-1.54a72.48,72.48,0,0,1,6.81,17.35l-5.38,1.7a40.48,40.48,0,0,0-1.12-4.58c-6,1.06-14.1,2.4-19,3.09L101,45.49C102.21,45.38,103.6,45.22,105.09,45ZM125.9,5.19v5.32H104.13V5.19Z" class="cls-2"/><path d="M138.79,40V9.24h-2.07V4.08h18.63v4h5.54V2.75H166V8.12h5.54v4.31h-4.68l3.94,1.07c-.53,1.81-1.22,4-2,6.28h4c-.21-5.32-.37-11-.43-16.87h5c-.05,5.91.05,11.66.21,16.87h8.52V24.2h-8.35c.16,3.51.42,6.71.69,9.58A48.21,48.21,0,0,0,180.73,25L185,26.11a48,48,0,0,1-5.54,15.65c.64,3.14,1.44,5,2.34,5.11.64.11.91-.8,1.12-4.47l4,1.28c-.74,7.24-2.82,9-6.23,8.36-1.86-.37-3.3-2.34-4.42-5.54a40.07,40.07,0,0,1-5.16,5.64l-3.78-2.4c1-.85,1.86-1.7,2.72-2.61h-9.37v2.24h-4.68V26.27h14.74V46.34a36.67,36.67,0,0,0,4.1-5.38,129.42,129.42,0,0,1-1.86-16.77H153.32V19.78H158a41.11,41.11,0,0,0-1.38-6.33l3.83-1a38.17,38.17,0,0,1,1.65,7.29h2.5a73.2,73.2,0,0,0,1.81-7.35H155V9.24h-1.81v43h-5V43.36c-3.62.91-8,1.86-10.86,2.5l-1.17-5.43C136.87,40.32,137.78,40.16,138.79,40Zm9.37-24.54V9.24h-4.42v6.23Zm0,11.23V20.26h-4.42V26.7Zm0,11.76V31.54h-4.42v7.72C145.23,39,146.77,38.73,148.16,38.46Zm17.94-4V30.64h-5.32v3.78Zm-5.32,4.31v4h5.32v-4ZM181.53,5.57a37.52,37.52,0,0,1,4.31,9.1l-4.2,1.49a33.52,33.52,0,0,0-3.78-9.1Z" class="cls-2"/><path d="M195.27,23.24l-1.81-2.55A52.28,52.28,0,0,0,216.4,3.22h3.09A56.33,56.33,0,0,0,243,20.68l-1.91,2.61A60.72,60.72,0,0,1,217.89,5.94,56.89,56.89,0,0,1,195.27,23.24Zm8.57,23.15a138.59,138.59,0,0,0,7.29-14.74h-15V28.88h44v2.77H214.49a156,156,0,0,1-7.35,14.53c8-.58,17.35-1.33,24.43-1.92a87.48,87.48,0,0,0-7.61-8l2.29-1.54a81.26,81.26,0,0,1,13.47,15.38L237,51.77a51,51,0,0,0-3.46-5.11c-10.7,1.06-27.57,2.55-36.73,3.3l-.74-3.09C198.25,46.76,200.91,46.61,203.84,46.39Zm28.48-27v2.71h-28V19.35Z" class="cls-2"/><path d="M266.87,12.33v2.5H250.26v-2.5ZM254.73,34h10.54V49.16H254.73v2.5H252V34h2.71Zm10-14.37v2.4H252.39v-2.4Zm0,7.19V29.2H252.39V26.86Zm-.37-21.66v2.4H252.92V5.19Zm-1.76,41.41v-10h-7.82v10Zm12.08-6.44V34.95h-7.29V32.71h7.29V28.3a54.85,54.85,0,0,1-5.8,1l-.91-2a59,59,0,0,0,13.79-3.14L283,26a46,46,0,0,1-5.7,1.76v5h8.46c-.37-2.71-.69-5.64-.91-8.68h2.72c.16,3.09.42,6,.8,8.68h10.38v2.23h-10a53,53,0,0,0,1.6,7.13,29.46,29.46,0,0,0,4-6.23l2.18,1a29.11,29.11,0,0,1-5.27,7.77c1.17,2.87,2.55,4.58,4,4.68.8.05,1.22-.91,1.44-4.84l2.29.69c-.58,5.43-1.65,6.81-4.15,6.6-2.18-.21-4-2.08-5.48-5.22a37.45,37.45,0,0,1-7.24,5.16l-2-1.54a35.28,35.28,0,0,0,8.25-5.91,57.55,57.55,0,0,1-2.29-9.26H277.3v4.79c2.34-.43,4.58-.85,6.44-1.22l.16,2.08c-1.92.43-4.26.85-6.6,1.33v6.71c0,1.7-.53,2.71-2.13,3a47.9,47.9,0,0,1-5.8.11l-.37-2.4c1.6.05,3.89.05,4.52,0,.85-.05,1.12-.43,1.12-1.12V42.45c-2.66.48-5.21,1-7.08,1.33l-.48-2.34C269,41.12,271.76,40.7,274.64,40.16Zm7-19.59V16.43h-9.74V14.35h9.74v-4H269V8.12h7.29a33,33,0,0,0-2.61-3.89l2.56-1a34.32,34.32,0,0,1,3.19,4.84h7.45a35.37,35.37,0,0,0,3.46-4.9l2.87.8A33,33,0,0,1,290,8.12H297v2.23H284.59v4h9.74v2.08h-9.74v4.15h14.16v2.18h-31.4V20.58Zm9.79,3.89a28.26,28.26,0,0,1,5.48,4.84c-1,.8-1.38,1.12-1.76,1.44a25.86,25.86,0,0,0-5.22-4.84Z" class="cls-2"/></svg>