<svg width="64" height="24" viewBox="0 0 64 24" fill="none" xmlns="http://www.w3.org/2000/svg">
<path fill-rule="evenodd" clip-rule="evenodd" d="M5.436 24C3.98227 23.9655 2.59971 23.3637 1.58389 22.3232C0.568065 21.2827 -0.000408461 19.8861 2.20201e-07 18.432V0H5.436V24ZM25.116 23.94H19.668V21.6C18.66 22.368 17.736 22.944 16.908 23.34C16.08 23.736 15.06 23.94 13.908 23.94C12.036 23.94 10.584 23.4 9.576 22.32C8.568 21.24 8.052 19.656 8.052 17.556V6.528H13.524V14.928C13.524 15.792 13.56 16.5 13.608 17.064C13.668 17.64 13.8 18.108 13.992 18.48C14.184 18.84 14.472 19.128 14.868 19.296C15.252 19.464 15.792 19.548 16.488 19.548C17.6132 19.4905 18.7045 19.1433 19.656 18.54V6.54H25.104L25.116 23.94ZM45.78 23.94H39.444L34.692 16.56L33.204 18.36V23.94H27.768V0C30.768 0 33.204 2.436 33.204 5.436V14.484L39.072 6.996L39.408 6.564H45.696L45.336 6.996L39.24 14.304L45.78 23.94ZM63.6 15.3C63.6 18 62.808 20.124 61.236 21.672C59.664 23.22 57.444 24 54.588 24C51.744 24 49.524 23.22 47.952 21.672C46.38 20.124 45.588 18 45.588 15.312C45.588 12.588 46.38 10.464 47.964 8.916C49.548 7.368 51.756 6.588 54.588 6.588C57.468 6.588 59.688 7.368 61.248 8.928C62.808 10.488 63.6 12.6 63.6 15.3ZM57.12 19.284C57.456 18.864 57.72 18.36 57.876 17.772C58.056 17.184 58.14 16.368 58.14 15.336C58.14 14.376 58.044 13.56 57.876 12.912C57.708 12.264 57.456 11.736 57.144 11.352C56.832 10.956 56.448 10.668 56.016 10.512C55.1206 10.1789 54.1383 10.162 53.232 10.464C52.848 10.584 52.464 10.872 52.104 11.28C51.78 11.652 51.528 12.18 51.336 12.84C51.1262 13.6549 51.0293 14.4947 51.048 15.336C51.048 16.224 51.132 17.004 51.288 17.664C51.468 18.312 51.708 18.84 52.032 19.248C52.344 19.62 52.716 19.896 53.148 20.076C53.58 20.244 54.084 20.34 54.636 20.34C55.116 20.34 55.572 20.256 56.004 20.1C56.436 19.944 56.808 19.668 57.108 19.284H57.12Z" fill="#0042DA"/>
</svg>
