<svg width="105" height="32" viewBox="0 0 105 32" fill="none" xmlns="http://www.w3.org/2000/svg">
<path d="M0.0804529 20.1936H104.367V21.3199H0.0804529V20.1936ZM14.1798 0.0402264H14.22L18.3633 15.7285L14.5016 16.2514L13.1741 8.78944H13.1339L9.07102 16.2514H8.99057L5.30987 8.82967H5.26964L3.94218 16.2514L0 15.7285L4.22376 0.0402264H4.26398L9.15148 9.51351L14.1798 0.0402264V0.0402264ZM27.374 6.29541L29.4255 10.1169H25.2822L27.374 6.29541V6.29541ZM27.374 0.0402264L19.1075 15.4871L22.8485 16.2916L24.4173 12.9529H30.2703L31.8793 16.2916L35.7813 15.4871L27.374 0.0402264V0.0402264ZM40.9503 0.0402264V15.7687L37.1288 16.1307V0.442489L40.9503 0.0402264V0.0402264ZM52.5355 4.50534C51.6505 3.74104 50.9667 3.29855 49.7599 3.29855C49.0761 3.29855 48.0704 3.70082 48.0704 4.50534C48.0704 6.99937 54.9692 5.35009 54.9692 11.0421C54.9692 14.5418 52.274 16.2112 49.076 16.2112C47.1854 16.2112 45.1741 15.648 43.7058 14.401L45.9987 11.4645C46.7228 12.3092 47.7687 12.7115 48.895 12.7115C49.6996 12.7115 50.9063 12.3092 50.9063 11.3036C50.9063 8.89001 44.0075 10.3382 44.0075 4.76681C44.0075 1.70962 46.8636 0 49.6191 0C51.4293 0 53.1992 0.64362 54.5468 1.81018L52.5355 4.50534V4.50534ZM65.428 3.53991C67.8818 3.53991 69.8529 5.75236 69.8529 8.14582C69.8529 10.5393 67.8818 12.7517 65.428 12.7517C62.9742 12.7517 61.0031 10.5393 61.0031 8.14582C60.9629 5.77247 62.9742 3.53991 65.428 3.53991V3.53991ZM65.428 0.0402264C60.9227 0.0402264 57.1615 3.62036 57.1615 8.14582C57.1615 12.6713 60.9026 16.2514 65.428 16.2514C69.9736 16.2514 73.6945 12.6713 73.6945 8.14582C73.6543 3.66059 69.9133 0.0402264 65.428 0.0402264V0.0402264ZM90.2275 16.2514L80.1106 7.42175V15.7285L76.2891 16.0905V0.0402264H76.3294L86.4463 8.70899V0.402263L90.2678 0.0402264V16.2514H90.2275ZM101.833 4.50534C100.948 3.74104 100.264 3.29855 99.0572 3.29855C98.3733 3.29855 97.3677 3.70082 97.3677 4.50534C97.3677 6.99937 104.267 5.35009 104.267 11.0421C104.267 14.5418 101.571 16.2112 98.3734 16.2112C96.4827 16.2112 94.4714 15.648 93.0031 14.401L95.296 11.4645C96.0201 12.3092 97.066 12.7115 98.1923 12.7115C98.9969 12.7115 100.204 12.3092 100.204 11.3036C100.204 8.89001 93.3048 10.3382 93.3048 4.76681C93.3048 1.70962 96.1609 0 98.9164 0C100.727 0 102.497 0.64362 103.844 1.81018L101.833 4.50534V4.50534ZM1.97109 25.5638H2.57448C3.8215 25.5638 4.82715 26.6499 4.82715 27.8567C4.82715 29.0635 3.8215 30.1496 2.57448 30.1496H1.97109V25.5638V25.5638ZM0.0402264 31.7586H2.77561C5.02828 31.7586 6.79824 30.0691 6.79824 27.8165C6.79824 25.604 4.98806 23.8743 2.77561 23.8743H0.0402264V31.7586ZM20.797 29.0635C20.797 30.8737 19.3891 31.9598 17.3777 31.9598C15.5676 31.9598 14.2803 31.115 14.2803 29.1842V23.8944L16.2112 23.7335V28.621C16.2112 29.4657 16.4525 30.1496 17.418 30.1496C18.665 30.1496 18.8259 29.2646 18.8259 28.1785V23.8743L20.7568 23.7134L20.797 29.0635V29.0635ZM44.9529 23.7134L47.0446 31.6581L45.0735 31.9397L44.3897 28.1584H44.3495L42.2577 31.9598H42.2175L40.3268 28.1785H40.2866L39.6028 31.9598L37.6317 31.6782L39.8039 23.7335H39.8441L42.3382 28.5003L44.9529 23.7134V23.7134ZM57.9661 25.5236C59.2131 25.5236 60.2187 26.6499 60.2187 27.8567C60.2187 29.0635 59.2131 30.1898 57.9661 30.1898C56.719 30.1898 55.7134 29.0635 55.7134 27.8567C55.7134 26.6499 56.7593 25.5236 57.9661 25.5236ZM57.9661 23.7134C55.6732 23.7134 53.7423 25.5236 53.7423 27.8567C53.7423 30.1496 55.6329 32 57.9661 32C60.2992 32 62.1898 30.1898 62.1898 27.8567C62.1697 25.5236 60.2992 23.7134 57.9661 23.7134ZM76.792 31.9598L71.6631 27.4544V31.6782L69.7322 31.8391V23.6933H69.7725L74.9013 28.1182V23.8944L76.8322 23.7335L76.792 31.9598ZM86.6675 25.5638H87.2709C88.5179 25.5638 89.5236 26.6499 89.5236 27.8567C89.5236 29.0635 88.5179 30.1496 87.2709 30.1496H86.6675V25.5638ZM84.7366 31.7586H87.472C89.7247 31.7586 91.4947 30.0691 91.4947 27.8165C91.4947 25.604 89.6845 23.8743 87.472 23.8743H84.7366V31.7586ZM99.0572 31.7586V23.9145H103.482L103.804 25.5638H100.948V26.9315H102.959V28.5808H100.948V30.0691H104.005L103.522 31.7184L99.0572 31.7586V31.7586Z" fill="#3B3B3A"/>
</svg>
