<svg xmlns="http://www.w3.org/2000/svg" fill="#3b3b3a" aria-label="Retourner à l'accueil de Maisons Du Monde" version="1" viewBox="0 0 595.3 245.5"><path d="M38.7 143.5h518.5v5.6H38.7zm70.1-100.2h.2l20.6 78-19.2 2.6-6.6-37.1h-.2l-20.2 37.1H83L64.7 87h-.2l-6.6 36.9-19.6-2.6 21-78h.2l24.3 47.1 25-47.1zm65.6 31.1l10.2 19H164l10.4-19zm0-31.1l-41.1 76.8 18.6 4 7.8-16.6h29.1l8 16.6 19.4-4-41.8-76.8zm67.5 0v78.2l-19 1.8v-78l19-2zm57.6 22.2c-4.4-3.8-7.8-6-13.8-6-3.4 0-8.4 2-8.4 6 0 12.4 34.3 4.2 34.3 32.5 0 17.4-13.4 25.7-29.3 25.7-9.4 0-19.4-2.8-26.7-9l11.4-14.6c3.6 4.2 8.8 6.2 14.4 6.2 4 0 10-2 10-7 0-12-34.3-4.8-34.3-32.5 0-15.2 14.2-23.7 27.9-23.7 9 0 17.8 3.2 24.5 9l-10 13.4zm64.1-4.8c12.2 0 22 11 22 22.9s-9.8 22.9-22 22.9-22-11-22-22.9c-.2-11.8 9.8-22.9 22-22.9zm0-17.4c-22.4 0-41.1 17.8-41.1 40.3s18.6 40.3 41.1 40.3c22.6 0 41.1-17.8 41.1-40.3-.2-22.3-18.8-40.3-41.1-40.3zm123.3 80.6L436.6 80v41.3l-19 1.8V43.3h.2l50.3 43.1V45.1l19-1.8v80.6h-.2zm57.7-58.4c-4.4-3.8-7.8-6-13.8-6-3.4 0-8.4 2-8.4 6 0 12.4 34.3 4.2 34.3 32.5 0 17.4-13.4 25.7-29.3 25.7-9.4 0-19.4-2.8-26.7-9l11.4-14.6c3.6 4.2 8.8 6.2 14.4 6.2 4 0 10-2 10-7 0-12-34.3-4.8-34.3-32.5 0-15.2 14.2-23.7 27.9-23.7 9 0 17.8 3.2 24.5 9l-10 13.4zM48.1 170.2h3c6.2 0 11.2 5.4 11.2 11.4s-5 11.4-11.2 11.4h-3v-22.8zM38.5 201h13.6c11.2 0 20-8.4 20-19.6 0-11-9-19.6-20-19.6H38.5V201zm103.2-13.4c0 9-7 14.4-17 14.4-9 0-15.4-4.2-15.4-13.8v-26.3l9.6-.8v24.3c0 4.2 1.2 7.6 6 7.6 6.2 0 7-4.4 7-9.8v-21.4l9.6-.8.2 26.6zM261.8 161l10.4 39.5-9.8 1.4-3.4-18.8h-.2L248.4 202h-.2l-9.4-18.8h-.2l-3.4 18.8-9.8-1.4 10.8-39.5h.2l12.4 23.7 13-23.8zm64.7 9c6.2 0 11.2 5.6 11.2 11.6s-5 11.6-11.2 11.6c-6.2 0-11.2-5.6-11.2-11.6s5.2-11.6 11.2-11.6zm0-9c-11.4 0-21 9-21 20.6 0 11.4 9.4 20.6 21 20.6s21-9 21-20.6c-.1-11.6-9.4-20.6-21-20.6zm93.6 41l-25.5-22.4v21l-9.6.8v-40.5h.2l25.5 22v-21l9.6-.8-.2 40.9zm49.1-31.8h3c6.2 0 11.2 5.4 11.2 11.4s-5 11.4-11.2 11.4h-3v-22.8zm-9.6 30.8h13.6c11.2 0 20-8.4 20-19.6 0-11-9-19.6-20-19.6h-13.6V201zm71.2 0v-39h22l1.6 8.2h-14.2v6.8h10v8.2h-10v7.4h15.2l-2.4 8.2-22.2.2z"/></svg>