<svg width="129" height="28" viewBox="0 0 129 28" fill="none" xmlns="http://www.w3.org/2000/svg">
<mask id="mask0" mask-type="alpha" maskUnits="userSpaceOnUse" x="0" y="0" width="28" height="28">
<path d="M0 0H27.999V28H0V0Z" fill="white"/>
</mask>
<g mask="url(#mask0)">
<path fill-rule="evenodd" clip-rule="evenodd" d="M21.4051 14.9729C20.9826 18.2979 18.2979 20.9826 14.9729 21.4051C10.0953 22.0251 5.97452 17.9044 6.59452 13.0267C7.017 9.70176 9.70176 7.017 13.0263 6.59452C17.9044 5.97452 22.0247 10.0953 21.4051 14.9729ZM15.4282 0.070791C6.57393 -0.805826 -0.805823 6.57431 0.0707942 15.4282C0.719773 21.9801 6.01913 27.2799 12.5715 27.9288C21.4253 28.8055 28.8055 21.4253 27.9285 12.5714C27.2799 6.01951 21.9801 0.71977 15.4282 0.070791Z" fill="#005BFF"/>
</g>
<path fill-rule="evenodd" clip-rule="evenodd" d="M54.1392 21.3636H42.7836L57.2769 2.36243C57.7572 1.7326 57.305 0.828156 56.5098 0.828156H35.5597C33.49 0.828156 31.8603 2.69942 32.2902 4.83213C32.6052 6.39584 34.0809 7.46414 35.6856 7.46414H45.0058L30.5019 26.4796C30.026 27.1036 30.4738 27.9996 31.262 27.9996H54.0133C55.6184 27.9996 57.0937 26.9317 57.4087 25.3676C57.8386 23.2349 56.2089 21.3636 54.1392 21.3636Z" fill="#005BFF"/>
<mask id="mask1" mask-type="alpha" maskUnits="userSpaceOnUse" x="102" y="0" width="27" height="28">
<path d="M102.462 0.907471H128.394V27.7586H102.462V0.907471Z" fill="white"/>
</mask>
<g mask="url(#mask1)">
<path fill-rule="evenodd" clip-rule="evenodd" d="M124.388 0.982129C122.861 1.30245 121.812 2.71804 121.812 4.27293V15.1905L103.998 1.11378C103.377 0.62316 102.462 1.06364 102.462 1.85276V24.3936C102.462 25.9481 103.511 27.364 105.038 27.684C107.168 28.1306 109.044 26.5244 109.044 24.4812V13.4703L126.858 27.547C127.479 28.0376 128.394 27.5971 128.394 26.8076V4.18529C128.394 2.14208 126.518 0.535523 124.388 0.982129Z" fill="#005BFF"/>
</g>
<mask id="mask2" mask-type="alpha" maskUnits="userSpaceOnUse" x="58" y="0" width="41" height="28">
<path d="M58.5512 0H98.1832V27.992H58.5512V0Z" fill="white"/>
</mask>
<g mask="url(#mask2)">
<path fill-rule="evenodd" clip-rule="evenodd" d="M78.3669 21.4593C70.8058 21.4593 65.1562 17.5189 65.1562 13.9961C65.1562 10.4728 70.8058 6.53243 78.3669 6.53243C85.928 6.53243 91.5775 10.4728 91.5775 13.9961C91.5775 17.5189 85.928 21.4593 78.3669 21.4593ZM78.3669 -6.10352e-05C67.4229 -6.10352e-05 58.5509 6.26628 58.5509 13.9961C58.5509 21.7255 67.4229 27.9918 78.3669 27.9918C89.3112 27.9918 98.1828 21.7255 98.1828 13.9961C98.1828 6.26628 89.3112 -6.10352e-05 78.3669 -6.10352e-05Z" fill="#005BFF"/>
</g>
</svg>
