<svg width="108" height="32" viewBox="0 0 108 32" fill="none" xmlns="http://www.w3.org/2000/svg">
<path d="M86.4777 26.8179H21.5061L26.6883 32.0001L86.4777 26.8179Z" fill="#BF0000"/>
<path d="M96.9068 23.5141V13.1498C96.9068 11.2065 98.2671 9.58703 100.21 9.58703C102.154 9.58703 103.514 11.2065 103.514 13.1498V23.5141H107.53V13.1498C107.53 8.87448 104.615 5.44128 100.34 5.44128C98.3967 5.44128 96.9068 6.5425 96.9068 6.5425V5.82995H92.8906V23.4494H96.9068V23.5141Z" fill="#BF0000"/>
<path d="M83.6275 5.37659C78.9635 5.37659 75.6599 9.45756 75.6599 14.6397C75.6599 20.081 79.8056 23.9029 84.0161 23.9029C86.1538 23.9029 88.8097 23.1903 91.0769 19.9515L87.5141 17.8786C84.7935 21.8948 80.1943 19.8867 79.6761 15.8057H91.2064C92.2429 9.58711 88.1619 5.37659 83.6275 5.37659ZM87.1255 12.3725H79.9352C80.7773 8.29157 86.3481 8.03246 87.1255 12.3725Z" fill="#BF0000"/>
<path d="M74.3643 19.3036C73.9757 19.5627 73.5222 19.757 73.004 19.757C72.3562 19.757 71.1255 19.2388 71.1255 17.6194V10.0404H74.5587V5.82991H71.1255V1.42505H67.1093V5.82991H64.9716V10.0404H67.1093V17.6194C67.1093 21.5708 70.089 23.9028 73.0688 23.9028C74.17 23.9028 75.7246 23.5141 76.9554 22.8016L74.3643 19.3036Z" fill="#BF0000"/>
<path d="M59.5951 5.82996V16.1943C59.5951 18.1376 58.2348 19.7571 56.2915 19.7571C54.3481 19.7571 52.9878 18.1376 52.9878 16.1943V5.82996H48.9716V16.1943C48.9716 20.4696 51.8866 23.9028 56.1619 23.9028C58.1052 23.9028 59.5951 22.8016 59.5951 22.8016V23.4494H63.6113V5.82996H59.5951Z" fill="#BF0000"/>
<path d="M41.4575 14.1215L48.3239 5.82996H42.753L37.8947 11.9838V0H33.8138V23.5142H37.8947V16.2591L43.8542 23.5142H49.4251L41.4575 14.1215Z" fill="#BF0000"/>
<path d="M27.5303 5.83003V6.60736C26.2996 5.83003 25.2631 5.37659 23.7733 5.37659C19.2389 5.37659 15.7409 9.52233 15.7409 14.6397C15.7409 19.7571 19.1741 23.9029 23.7733 23.9029C25.2631 23.9029 26.3644 23.4495 27.5303 22.6721V23.4495H31.5465V5.83003H27.5303ZM23.7085 19.6924C21.4413 19.6924 19.8218 17.4899 19.8218 14.7045C19.8218 11.9191 21.4413 9.71667 23.7085 9.71667C25.9757 9.71667 27.5303 11.9191 27.5303 14.7045C27.5951 17.4899 25.9757 19.6924 23.7085 19.6924Z" fill="#BF0000"/>
<path d="M4.21052 23.5141V16.6477H7.1255L12.2429 23.4493H17.4899L11.2712 15.2226C13.2146 13.8623 14.4453 11.5951 14.4453 9.00399C14.4453 4.79347 11.0121 1.42505 6.86639 1.42505H0V23.4493H4.21052V23.5141ZM4.21052 5.63557H6.93117C8.80971 5.63557 10.3644 7.19023 10.3644 9.06877C10.3644 10.9473 8.80971 12.502 6.93117 12.502H4.21052V5.63557Z" fill="#BF0000"/>
</svg>
