<svg width="42" height="42" viewBox="0 0 42 42" fill="none" xmlns="http://www.w3.org/2000/svg">
<g clip-path="url(#clip0)">
<path d="M42 21C42 25.1534 40.7684 29.2135 38.4609 32.667C36.1534 36.1204 32.8736 38.812 29.0364 40.4015C25.1991 41.9909 20.9767 42.4068 16.9031 41.5965C12.8295 40.7862 9.08767 38.7861 6.15077 35.8492C3.21386 32.9123 1.21381 29.1705 0.403519 25.0969C-0.406771 21.0233 0.00909895 16.8009 1.59854 12.9636C3.18798 9.1264 5.8796 5.84665 9.33303 3.53914C12.7865 1.23163 16.8466 0 21 0C26.5696 0 31.911 2.21249 35.8493 6.15076C39.7875 10.089 42 15.4305 42 21" fill="#05482F"/>
<path d="M21 40.7535C17.0931 40.7535 13.274 39.595 10.0255 37.4245C6.77706 35.2539 4.2452 32.1688 2.7501 28.5594C1.255 24.9499 0.863812 20.9781 1.62601 17.1463C2.3882 13.3145 4.26954 9.79472 7.03213 7.03213C9.79471 4.26955 13.3145 2.38821 17.1463 1.62601C20.9781 0.863819 24.9499 1.255 28.5594 2.7501C32.1688 4.2452 35.2539 6.77707 37.4245 10.0255C39.595 13.274 40.7535 17.0931 40.7535 21C40.7518 26.2384 38.67 31.2618 34.9659 34.9659C31.2618 38.67 26.2384 40.7518 21 40.7535V40.7535ZM21 0.78581C16.9953 0.78581 13.0806 1.97334 9.75077 4.19822C6.421 6.42311 3.82575 9.58542 2.29322 13.2853C0.760696 16.9851 0.359717 21.0563 1.14099 24.9841C1.92227 28.9118 3.85071 32.5197 6.68245 35.3514C9.5142 38.1832 13.1221 40.1116 17.0498 40.8929C20.9775 41.6742 25.0487 41.2732 28.7486 39.7406C32.4484 38.2081 35.6108 35.6129 37.8356 32.2831C40.0605 28.9533 41.2481 25.0386 41.2481 21.0339V21C41.2445 15.6316 39.1098 10.4842 35.3132 6.68882C31.5165 2.89343 26.3684 0.760507 21 0.758713" fill="white"/>
<path d="M33.3561 21.0474C33.3561 23.4912 32.6314 25.8802 31.2737 27.9121C29.916 29.9441 27.9863 31.5278 25.7285 32.463C23.4707 33.3982 20.9863 33.6429 18.5894 33.1661C16.1926 32.6894 13.9909 31.5126 12.2629 29.7845C10.5349 28.0565 9.35805 25.8548 8.88128 23.458C8.40452 21.0611 8.64921 18.5767 9.58442 16.3189C10.5196 14.0611 12.1033 12.1314 14.1353 10.7737C16.1673 9.41596 18.5562 8.69128 21 8.69128C24.277 8.69128 27.4199 9.99309 29.7371 12.3103C32.0543 14.6275 33.3561 17.7704 33.3561 21.0474" fill="white"/>
<path d="M10.229 31.3035L10.3984 31.1884C10.6761 31.4864 11.34 32.0961 11.34 32.0961C11.8277 32.5297 11.8277 33.0039 11.5635 33.2952C11.4784 33.3881 11.3757 33.4633 11.2614 33.5163C11.1471 33.5694 11.0234 33.5993 10.8974 33.6044C10.7715 33.6094 10.6458 33.5895 10.5276 33.5457C10.4094 33.5019 10.301 33.4352 10.2087 33.3494C10.189 33.333 10.1708 33.3149 10.1545 33.2952L10.019 33.1529L10.1545 32.9429C10.2087 32.9974 10.273 33.0406 10.344 33.0701C10.4149 33.0996 10.4909 33.1148 10.5677 33.1148C10.6445 33.1148 10.7206 33.0996 10.7915 33.0701C10.8624 33.0406 10.9268 32.9974 10.981 32.9429L11.0148 32.9023C11.1842 32.7194 11.1977 32.4619 10.9064 32.2248L10.7506 32.0826L9.13838 33.871L8.69128 33.4442L10.3306 31.6084L10.229 31.3035Z" fill="white"/>
<path d="M14.4561 36.181L15.2284 36.479V35.7474C15.2284 35.584 15.242 35.4208 15.269 35.2597C15.181 35.3884 15.0794 35.5171 14.9777 35.639L14.4561 36.181ZM15.2419 36.8584L14.2258 36.4519L13.8261 36.9193L13.4129 36.7297L15.3977 34.5958L15.8448 34.7719L15.9871 37.4206L16.1971 37.6239L16.1158 37.7729L15.2758 37.5019L15.2419 36.8584Z" fill="white"/>
<path d="M20.2142 35.9032L20.2616 35.7068H21.5487C21.7721 35.6839 21.9955 35.75 22.1705 35.8908C22.3455 36.0315 22.458 36.2356 22.4836 36.4587C22.4813 36.6491 22.4193 36.8339 22.3062 36.9871C22.1932 37.1403 22.0348 37.254 21.8536 37.3122L22.7139 38.3758L21.9281 38.4368L21.2507 37.3461V37.1564C21.4086 37.1314 21.5514 37.0478 21.6506 36.9223C21.7497 36.7968 21.798 36.6385 21.7858 36.479C21.7876 36.4183 21.7772 36.3578 21.7552 36.3012C21.7332 36.2445 21.7001 36.1929 21.6578 36.1493C21.6154 36.1057 21.5648 36.0711 21.5088 36.0474C21.4529 36.0237 21.3927 36.0116 21.3319 36.0116H21.0678V38.43H20.4513V36.0048L20.2142 35.9032Z" fill="white"/>
<path d="M28.1536 36.9397L27.5777 37.1835L26.5887 34.9413H26.3177L26.2839 34.7448L27.0426 34.4265L28.1536 36.9397Z" fill="white"/>
<path d="M31.6965 32.0419L31.2968 31.8861C31.2224 31.9313 31.156 31.9885 31.1003 32.0555C30.9648 32.2181 30.8836 32.4416 31.1003 32.5974C31.5474 32.9768 32.3061 32.0013 32.9971 32.5974C33.1532 32.7642 33.2372 32.9858 33.2308 33.2141C33.2245 33.4424 33.1283 33.659 32.9632 33.8168C32.7552 34.0466 32.495 34.2232 32.2045 34.3316L31.9945 33.9658C32.2744 33.9059 32.5282 33.7589 32.7194 33.5458C32.8345 33.4103 32.8887 33.241 32.7194 33.1123C32.2926 32.7532 31.5068 33.6745 30.8429 33.1123C30.7614 33.0316 30.6967 32.9356 30.6525 32.8298C30.6083 32.724 30.5856 32.6105 30.5856 32.4958C30.5856 32.3811 30.6083 32.2676 30.6525 32.1618C30.6967 32.056 30.7614 31.96 30.8429 31.8794L30.8971 31.8252C31.0522 31.6458 31.2409 31.4985 31.4526 31.3916L31.8387 31.8387L31.6965 32.0419Z" fill="white"/>
<path d="M3.62419 25.2271L3.38709 25.1865C3.23245 24.516 3.11485 23.8376 3.03484 23.1542C2.97698 22.8543 3.03989 22.5437 3.20989 22.29C3.37989 22.0362 3.64322 21.8599 3.94258 21.7994C4.22173 21.783 4.49838 21.8601 4.72895 22.0183C4.95952 22.1765 5.13091 22.4069 5.21613 22.6732L7.1129 21C7.10419 21.3731 7.11776 21.7463 7.15354 22.1177L5.35838 23.4794H5.10096C5.06737 23.2495 4.9482 23.0409 4.76732 22.8952C4.58644 22.7495 4.35719 22.6774 4.12548 22.6935C4.03695 22.7028 3.95111 22.7295 3.87289 22.772C3.79466 22.8145 3.72558 22.872 3.66959 22.9412C3.61359 23.0104 3.57179 23.0899 3.54656 23.1753C3.52134 23.2607 3.51319 23.3502 3.52258 23.4387C3.51613 23.4768 3.51613 23.5158 3.52258 23.5539L3.57677 24.0145L7.30258 23.5539C7.33188 23.8165 7.38864 24.0753 7.47193 24.3261L3.73935 24.7868L3.62419 25.2271Z" fill="white"/>
<path d="M6.84873 18.8661C6.98421 18.0735 6.55744 17.3826 5.4126 17.1861C5.03979 17.0734 4.63761 17.1118 4.29288 17.293C3.94815 17.4743 3.68851 17.7838 3.57002 18.1548L3.52937 18.3377C3.39389 19.1439 3.81389 19.8077 4.92486 19.9974C6.03582 20.1871 6.70647 19.6926 6.84873 18.8661ZM7.29582 19.0355C7.22484 19.5799 6.94142 20.0742 6.5074 20.4105C6.07338 20.7468 5.52398 20.8978 4.97905 20.8306H4.83002C4.55281 20.7877 4.28679 20.6905 4.04717 20.5447C3.80755 20.3988 3.59904 20.2072 3.43356 19.9807C3.26809 19.7542 3.1489 19.4973 3.08281 19.2247C3.01672 18.952 3.00503 18.6691 3.0484 18.3919V18.2293C3.2584 17.0168 4.1255 16.1023 5.43292 16.3258C6.01981 16.4222 6.5446 16.7472 6.89246 17.2297C7.24031 17.7121 7.38291 18.3127 7.28905 18.9C7.2916 18.9451 7.2916 18.9903 7.28905 19.0355" fill="white"/>
<path d="M4.60645 14.4426L4.25419 14.7203L4.06451 14.551C4.17968 14.2597 4.34903 13.8194 4.49806 13.5077L7.88516 15.1606L8.01387 14.8897C8.13646 14.6188 8.1901 14.3217 8.17001 14.025C8.14991 13.7284 8.05671 13.4413 7.89871 13.1894L8.12903 12.9929L8.91484 14.131C8.50198 14.8661 8.15077 15.6342 7.86484 16.4274L7.61419 16.3868V15.9126L4.60645 14.4426Z" fill="white"/>
<path d="M9.68033 10.6558L7.96646 10.0326L8.80646 11.6652L9.68033 10.6558ZM11.8684 10.1613L12.0039 10.3781C11.7194 10.6219 11.4484 10.8726 11.1571 11.1571L10.1613 10.8387L9.00969 12.1258L9.53807 13.1419C9.43646 13.2842 9.30775 13.4874 9.21291 13.6432L7.09259 9.41613L7.45162 9.00967L11.4619 10.3645L11.8684 10.1613Z" fill="white"/>
<path d="M13.3316 4.57259L15.3639 8.27807L15.0929 8.40001L11.3129 7.16033L12.9523 9.65323L12.5119 9.97839L10.4797 6.83517L10.0258 6.87581L9.95807 6.62517L10.6355 6.12388L14.1174 7.23484L12.9997 5.20259L12.5526 5.23646L12.4848 4.99259C12.7219 4.86388 13.0945 4.68097 13.3248 4.57259" fill="white"/>
<path d="M17.6129 7.03162C18.0162 6.92651 18.3613 6.66548 18.5722 6.30596C18.7831 5.94643 18.8425 5.51786 18.7374 5.11452C18.7293 5.07528 18.7179 5.03676 18.7035 4.99936C18.6232 4.6081 18.3937 4.26348 18.0637 4.03842C17.7337 3.81337 17.3291 3.72555 16.9355 3.79355L16.7052 3.86129L16.0277 4.06452L16.9355 7.22807L17.6129 7.03162ZM16.8 3.3871C17.0366 3.28657 17.2907 3.23363 17.5478 3.23131C17.8049 3.22899 18.06 3.27733 18.2984 3.37358C18.5368 3.46982 18.7539 3.61208 18.9373 3.79224C19.1207 3.97239 19.2669 4.18691 19.3674 4.42355C19.4074 4.52763 19.4413 4.63394 19.469 4.74194C19.5584 5.0021 19.5955 5.27737 19.5781 5.55191C19.5607 5.82646 19.4892 6.09485 19.3677 6.34165C19.2462 6.58845 19.0771 6.80879 18.8701 6.98998C18.6631 7.17117 18.4223 7.30964 18.1616 7.39742L17.9787 7.45162C17.9787 7.45162 17.0371 7.70226 16.3258 7.95968L15.2419 4.28807L14.7881 4.22033V3.96291C15.5671 3.69871 16.4003 3.46162 16.8203 3.35323" fill="white"/>
<path d="M26.3449 7.69548C25.717 7.7783 25.079 7.73454 24.4684 7.56677C23.2355 7.24161 22.2939 6.40161 22.6732 4.96548C23.0526 3.52935 24.3329 3.08903 25.6878 3.44806C26.2242 3.59793 26.7355 3.8262 27.2052 4.12548L26.7784 5.14161L26.5481 5.08064L26.4939 4.48451C26.2034 4.2127 25.853 4.01312 25.471 3.90193C25.2811 3.84079 25.0809 3.81771 24.8821 3.834C24.6832 3.85029 24.4895 3.90564 24.3121 3.99687C24.1347 4.08811 23.977 4.21344 23.848 4.3657C23.7191 4.51796 23.6214 4.69415 23.5607 4.88419C23.5607 4.95193 23.5268 5.02645 23.5132 5.09419C23.4461 5.29648 23.4201 5.51014 23.4368 5.72261C23.4535 5.93508 23.5125 6.14208 23.6103 6.33143C23.7081 6.52077 23.8428 6.68865 24.0065 6.82518C24.1701 6.96171 24.3594 7.06414 24.5632 7.12645H24.6649C24.9964 7.2077 25.3427 7.2077 25.6742 7.12645L25.8842 6.32032L25.2745 5.90032L25.4032 5.64967L26.7581 6.01548L26.3449 7.69548Z" fill="white"/>
<path d="M29.5423 8.19678L29.8065 6.39484L28.3839 7.49903L29.5423 8.19678ZM30.3958 10.2968L30.1926 10.5C29.9216 10.2765 29.5694 9.98516 29.3323 9.82258L29.4677 8.70484L27.991 7.81065L27.151 8.48807L26.609 8.23742L30.301 5.41936L30.7413 5.68355L30.1587 9.95807L30.3958 10.2968Z" fill="white"/>
<path d="M33.2681 7.92582L33.4984 7.81743C33.977 8.28428 34.4293 8.77729 34.8532 9.2942C35.0721 9.51495 35.1949 9.81321 35.1949 10.124C35.1949 10.4349 35.0721 10.7331 34.8532 10.9539C34.6323 11.1253 34.3606 11.2183 34.081 11.2183C33.8014 11.2183 33.5297 11.1253 33.3087 10.9539L32.6787 13.4129L32.0013 12.4848L32.6787 10.351L32.9158 10.2358C33.071 10.4026 33.2832 10.5049 33.5104 10.5225C33.7375 10.5401 33.963 10.4716 34.142 10.3307C34.2116 10.2614 34.2669 10.1791 34.3046 10.0884C34.3423 9.99772 34.3617 9.90048 34.3617 9.80227C34.3617 9.70406 34.3423 9.60682 34.3046 9.51614C34.2669 9.42546 34.2116 9.34313 34.142 9.27388L33.8236 8.95549L31.1139 11.3739L30.5584 10.8048L33.4036 8.37291L33.2681 7.92582Z" fill="white"/>
<path d="M36.418 11.8413L36.6755 11.8074C37.021 12.3957 37.3309 13.0043 37.6035 13.6297C37.7559 13.8939 37.7972 14.2077 37.7185 14.5023C37.6398 14.797 37.4474 15.0483 37.1835 15.2013H37.1361C36.8749 15.3003 36.588 15.3088 36.3214 15.2252C36.0549 15.1417 35.8241 14.971 35.6661 14.7406L34.379 16.949C34.2706 16.6035 33.9997 15.8719 33.9997 15.8719L35.28 14.009L35.5374 13.9616C35.641 14.1643 35.816 14.3215 36.0287 14.4028C36.2413 14.4841 36.4766 14.4838 36.689 14.4019C36.8659 14.3183 37.0023 14.1679 37.0684 13.9837C37.1344 13.7995 37.1247 13.5967 37.0413 13.4197V13.379L36.8516 12.9523L33.4103 14.5306L33.0106 13.8532L36.3977 12.3019L36.418 11.8413Z" fill="white"/>
<path d="M35.2258 19.1574C35.3139 19.9568 35.9032 20.5123 37.0684 20.3835C37.2631 20.3936 37.4579 20.3647 37.6414 20.2987C37.8249 20.2327 37.9934 20.1309 38.1371 19.9991C38.2809 19.8673 38.397 19.7083 38.4787 19.5312C38.5603 19.3542 38.606 19.1626 38.6129 18.9677V18.7374C38.5248 17.9177 37.9355 17.3826 36.8177 17.5113C35.7 17.64 35.1919 18.2971 35.2732 19.1303L35.2258 19.1574ZM34.8058 19.0897C34.7596 18.8214 34.7678 18.5466 34.8299 18.2815C34.8919 18.0165 35.0066 17.7666 35.1671 17.5467C35.3276 17.3268 35.5306 17.1414 35.7641 17.0015C35.9976 16.8616 36.2569 16.7701 36.5265 16.7323H36.689C37.2504 16.6633 37.8162 16.8201 38.2621 17.1682C38.7079 17.5162 38.9974 18.027 39.0668 18.5884C39.0701 18.6471 39.0701 18.7059 39.0668 18.7645C39.1955 19.9906 38.6129 21.1084 37.2919 21.2506C36.7018 21.3194 36.1086 21.1511 35.6424 20.7827C35.1763 20.4144 34.8754 19.8761 34.8058 19.2861C34.8027 19.2297 34.8027 19.1732 34.8058 19.1168" fill="white"/>
<path d="M37.6239 24.5226L38.3623 24.3261C38.4162 24.1927 38.457 24.0543 38.4842 23.9129C38.5452 23.5335 38.4842 23.1271 38.0642 23.0593C37.3868 22.9442 36.7906 24.8681 35.6932 24.6919C34.8058 24.5497 34.6365 23.7368 34.7652 22.9442C34.8414 22.4809 35.0349 22.0448 35.3274 21.6774L35.8152 21.9619C35.4885 22.2656 35.2757 22.672 35.2123 23.1135C35.1581 23.4523 35.2732 23.791 35.6323 23.8384C36.3097 23.9468 36.8923 22.0568 38.0439 22.2397C38.8229 22.3684 39.0871 23.1813 38.9516 24.0213C38.8942 24.3653 38.7797 24.6973 38.6129 25.0035L37.59 24.719L37.6239 24.5226Z" fill="white"/>
<path d="M27.4355 21H26.6158L26.1484 19.2116C25.5862 18.9557 24.9776 18.8174 24.36 18.8052C22.2735 18.8052 21.1355 20.7019 21.1829 23.1813L19.4826 19.9161C20.0074 19.0803 20.7436 18.3978 21.6166 17.9375C22.4896 17.4772 23.4687 17.2554 24.4548 17.2945C25.5844 17.3028 26.6986 17.5571 27.72 18.0397L27.4355 21ZM28.2077 11.6448L21.0745 17.3148C21.2081 16.8416 21.2267 16.3433 21.1289 15.8614C21.0311 15.3795 20.8197 14.9279 20.5122 14.5442L25.9316 10.2561C25.5468 10.0805 25.1534 9.92454 24.7529 9.78871L19.6722 13.8532C19.0828 13.5676 18.4288 13.4414 17.7755 13.4874H16.0819L21.4471 9.21968H21C18.7984 9.21968 16.6403 9.83275 14.7675 10.9902C12.8947 12.1476 11.3813 13.8037 10.3967 15.7729C9.41212 17.742 8.99533 19.9465 9.19305 22.1392C9.39076 24.3318 10.1952 26.4262 11.5161 28.1874V24.9968L15.899 21.5081V14.971H16.8677C18.2226 14.971 18.7984 15.8042 18.7984 16.4816C18.7984 17.4368 18.0803 18.1684 16.651 18.3852L16.4951 19.0152L18.4461 22.6936L11.5161 28.201C12.2503 29.1724 13.13 30.0247 14.1242 30.7277V27.5236L18.9271 23.7097H21.3387C21.4269 24.4549 21.7936 25.1393 22.3652 25.6255C22.9369 26.1117 23.6712 26.3638 24.421 26.3313C24.878 26.3414 25.3341 26.2867 25.7758 26.1687V24.1365L23.9468 23.6081L24.0822 22.6868H27.8758V27.1645C26.6559 27.6379 25.3633 27.8969 24.0551 27.93C23.2856 27.9657 22.5182 27.8228 21.8131 27.5126C21.108 27.2023 20.4842 26.7331 19.9906 26.1416L14.158 30.7277C16.6927 32.5461 19.842 33.2921 22.923 32.8041C26.0041 32.3161 28.7686 30.6333 30.6172 28.1206C32.4659 25.6079 33.2496 22.4678 32.7986 19.3811C32.3475 16.2945 30.6981 13.5099 28.2077 11.6313" fill="#D35220"/>
</g>
<defs>
<clipPath id="clip0">
<rect width="42" height="42" fill="white"/>
</clipPath>
</defs>
</svg>
