<svg height="24" viewBox="0 0 144 24" width="144" xmlns="http://www.w3.org/2000/svg"><path d="m18.5782345 9.82145455c-.1011914-.1010818-.1580494-.23824395-.1580494-.38127273s.056858-.28019093.1580494-.38127273l3.9512728-3.95345454c.2108786-.21085715.5527577-.21085715.7636363 0l7.9832727 7.98327275c.5821252.6046577.5768041 1.5629351-.012 2.1610909l-8.194909 8.196c-.1010828.1016722-.2384485.1589733-.3818182.1592727h-7.9101818c-.2225104.0000528-.4221754-.1366533-.5026019-.3441199-.0804266-.2074667-.0250763-.443032.1393291-.592971l8.1229091-8.1272727c.100725-.1006651.1573167-.2372321.1573167-.3796364 0-.1424042-.0565917-.2789713-.1573167-.3796364l-3.96-3.95999995zm-5.4458182 3.96436365c.1011915.1010818.1580494.2382439.1580494.3812727s-.0568579.2801909-.1580494.3812727l-3.95127268 3.9534546c-.21087866.2108571-.5527577.2108571-.76363636 0l-7.98545455-7.9832727c-.58111534-.60481364-.57531255-1.56227444.01309091-2.16000005l8.196-8.19818181c.10139674-.10106972.2386528-.15793295.38181818-.15818182h7.9090909c.2225103-.00005277.4221753.13665326.5026019.34411994.0804265.20746668.0250763.44303195-.1393292.59297097l-8.12290905 8.12727272c-.10043996.10092659-.15724196.23725141-.15818182.37963637 0 .13854545.05454545.27709091.15818182.38072727l3.95999995 3.96000001zm28.008.18c.8192728.7461818 2.0869091 1.1934545 3.3032728 1.1934545.8716363 0 1.5414545-.4232727 1.5414545-1.0189091 0-1.8130909-5.8385454-1.1683636-5.8385454-5.04545451 0-2.31054545 2.2363636-3.75163636 4.6221818-3.75163636 1.5654545 0 3.2792727.59781818 4.0745454 1.21745454l-1.5152727 2.33454546c-.6218182-.44509091-1.44-.81818182-2.3127273-.81818182-.8934545 0-1.6396363.34909091-1.6396363.97090909 0 1.5621818 5.8407272.94145455 5.8407272 5.1185455 0 2.3094545-2.2614545 3.7265454-4.7956363 3.7265454-1.6658182 0-3.4309091-.5727273-4.8469091-1.6145454zm13.1683637-.5465455c.6676021.9423854 1.7534955 1.4991807 2.9083636 1.4912728 1.8130909 0 3.1810909-1.392 3.1810909-3.2803637 0-1.73999998-1.2174545-3.30327271-3.1069091-3.30327271-1.1736055-.00379398-2.2797652.54807209-2.9825454 1.488zm-3.2290909-7.82618179h3.1058182v.96763636c.9436363-.77018182 2.1621818-1.21745454 3.528-1.21745454 3.2814545 0 5.914909 2.73381818 5.914909 6.28690907 0 1.6407273-.5716363 3.1309091-1.5163636 4.2250909-1.0690909 1.2425455-2.7818182 2.0378182-4.572 2.0378182-1.2174545 0-2.2614545-.3490909-3.2312727-1.0941818v6.8094545h-3.2290909zm22.1705454 4.47163639c-.1003636-1.06909094-1.0690909-2.11309094-2.3858182-2.11309094-1.3418181 0-2.436 1.02-2.5854545 2.11309094zm3.0076364 5.6650909c-1.1683636 1.392-3.0818182 2.1632727-4.9461818 2.1632727-3.6032728 0-6.312-2.4850909-6.312-6.264 0-3.35345454 2.2854545-6.28581817 5.8647272-6.28581817 3.3305455 0 5.6912728 2.80909091 5.6912728 6.16363637 0 .3218182-.0250909.6458182-.0752728.9185454h-8.3487272c.1734545 1.6909091 1.5381818 2.857091 3.2541818 2.857091 1.3669091 0 2.46-.768 3.0327273-1.3898182zm2.1621818 1.9145454v-12.05127269h3.1069091v.96763636c.9573268-.79199656 2.1622685-1.22285683 3.4047273-1.21745454 1.6636363 0 3.1810909.74509091 4.1749091 1.93854545.7941818.94254546 1.2414545 2.16 1.2414545 4.22509092v6.1374545h-3.2290909v-6.3861818c0-1.1934545-.2727273-1.81527271-.7221818-2.26254544-.4221818-.42218181-1.068-.66872727-1.8130909-.66872727-1.3669091 0-2.4861818.86727273-2.9334546 1.488v7.82945451zm22.9909093-7.82945451c-.702551-.940202-1.8088588-1.49214171-2.9825457-1.488-1.8894545 0-3.1058181 1.56327273-3.1058181 3.30218181 0 1.8883636 1.3658181 3.2814546 3.18 3.2814546 1.155001.0084671 2.2411378-.5484531 2.9083638-1.4912728zm.123273 7.82945451v-.9687272c-.99491.8454545-2.1360005 1.2174545-3.3545459 1.2174545-1.7890909 0-3.4789091-.7963636-4.5469091-2.0378182-1.0029353-1.1789123-1.5498556-2.6783954-1.5414546-4.2261818 0-3.55199999 2.6334546-6.28581817 5.9149091-6.28581817 1.3167273 0 2.4589095.37309091 3.4036365 1.11709091v-6.46036364h3.231273v17.6443636zm13.287272-7.5796363c-.099272-1.06909094-1.069091-2.11309094-2.385818-2.11309094-1.341818 0-2.436 1.02-2.584364 2.11309094zm3.005455 5.6650909c-1.167273 1.392-3.080727 2.1632727-4.944 2.1632727-3.603273 0-6.312-2.4850909-6.312-6.264 0-3.35345454 2.285454-6.28581817 5.864727-6.28581817 3.329455 0 5.690182 2.80909091 5.690182 6.16363637 0 .3218182-.024.6458182-.073091.9185454h-8.349818c.172363 1.6909091 1.539273 2.857091 3.254182 2.857091 1.366909 0 2.461091-.768 3.032727-1.3898182zm3.328363-1.764c.819273.7461818 2.08691 1.1934545 3.305455 1.1934545.869455 0 1.540364-.4232727 1.540364-1.0189091 0-1.8130909-5.840728-1.1683636-5.840728-5.04545451 0-2.31054545 2.236364-3.75163636 4.622182-3.75163636 1.565455 0 3.281455.59781818 4.075637 1.21745454l-1.515273 2.33454546c-.620727-.44509091-1.441091-.81818182-2.311637-.81818182-.894545 0-1.640727.34909091-1.640727.97090909 0 1.5621818 5.840727.94145455 5.840727 5.1185455 0 2.3094545-2.261454 3.7265454-4.795636 3.7265454-1.665818 0-3.429818-.5727273-4.845818-1.6145454zm15.726546-2.9563637 6.636 6.6349091h-4.349455l-5.094545-5.2189091v5.2189091h-3.230182v-17.6443636h3.230182v9.49309091l4.149818-3.9h4.549091z" fill="#6000d7" fill-rule="evenodd"/></svg>