<svg width="142" height="28" viewBox="0 0 142 28" fill="none" xmlns="http://www.w3.org/2000/svg">
<path fill-rule="evenodd" clip-rule="evenodd" d="M58.2664 26.227H58.6465C58.6657 26.227 58.6892 26.214 58.6985 26.1973L60.2678 23.6276L61.1215 26.5675C61.127 26.5873 61.1469 26.6009 61.166 26.6009H62.8134C62.8326 26.6009 62.8437 26.5873 62.8375 26.5687L61.1004 21.0684C61.0955 21.051 61.0744 21.0343 61.0546 21.0343H60.4362C60.4176 21.0343 60.3922 21.0479 60.3829 21.0653L58.2664 24.3444L56.151 21.0653C56.1399 21.0479 56.1157 21.0343 56.0965 21.0343H55.4781C55.4583 21.0343 55.4379 21.051 55.4323 21.0684L53.6952 26.5687C53.689 26.5873 53.7008 26.6009 53.7193 26.6009H55.3667C55.3859 26.6009 55.4063 26.5873 55.4112 26.5675L56.2649 23.6276L57.8343 26.1973C57.8435 26.214 57.8677 26.227 57.8869 26.227H58.2664Z" fill="#005BAB"/>
<path fill-rule="evenodd" clip-rule="evenodd" d="M53.77 23.4877V23.4865C53.7663 23.4704 53.7521 23.4586 53.7354 23.4586H53.515H51.8875H49.0435C48.7946 23.4586 48.5934 23.6598 48.5934 23.9081C48.5934 24.1569 48.7946 24.3581 49.0435 24.3581H51.8318C51.4993 25.2353 50.3763 25.8804 49.0435 25.8804C47.4469 25.8804 46.155 24.9574 46.155 23.8183C46.155 22.6792 47.4469 21.7556 49.0435 21.7556C49.9145 21.7556 50.6945 22.0304 51.2245 22.4675C51.2263 22.4687 51.2282 22.4694 51.23 22.4725C51.2356 22.4762 51.2424 22.4768 51.2498 22.4768H53.1671C53.1863 22.4768 53.2024 22.4613 53.2024 22.4421C53.2024 22.4341 53.1999 22.4266 53.1937 22.4204C53.1931 22.418 53.1912 22.418 53.1912 22.4174C52.3753 21.5463 50.8233 20.9601 49.0435 20.9601C46.415 20.9601 44.2835 22.2397 44.2835 23.8183C44.2835 25.3969 46.415 26.6765 49.0435 26.6765C51.6708 26.6765 53.8016 25.3969 53.8016 23.8183C53.8016 23.7069 53.7905 23.5954 53.77 23.4877Z" fill="#005BAB"/>
<path fill-rule="evenodd" clip-rule="evenodd" d="M67.4897 25.8805C65.8957 25.8805 64.6018 24.9575 64.6018 23.8184C64.6018 22.68 65.8957 21.7551 67.4897 21.7551C69.0857 21.7551 70.3795 22.68 70.3795 23.8184C70.3795 24.9575 69.0857 25.8805 67.4897 25.8805ZM67.4897 20.9602C64.8618 20.9602 62.7316 22.2398 62.7316 23.8184C62.7316 25.3976 64.8618 26.676 67.4897 26.676C70.1183 26.676 72.2491 25.3976 72.2491 23.8184C72.2491 22.2398 70.1183 20.9602 67.4897 20.9602Z" fill="#005BAB"/>
<path fill-rule="evenodd" clip-rule="evenodd" d="M92.3121 26.5124C92.3084 26.5613 92.3455 26.6009 92.3938 26.6009H93.3874C93.4363 26.6009 93.4803 26.5613 93.484 26.5124L93.6542 24.2367C93.6579 24.1878 93.6208 24.1482 93.5719 24.1482H92.5783C92.5294 24.1482 92.486 24.1878 92.4823 24.2367L92.3121 26.5124Z" fill="#38393C"/>
<path fill-rule="evenodd" clip-rule="evenodd" d="M98.0632 24.1479C98.0149 24.1479 97.9777 24.1876 97.9815 24.2365L98.1536 26.5128C98.1573 26.5611 98.2012 26.6013 98.2495 26.6013H99.2431C99.292 26.6013 99.3855 26.5611 99.3812 26.5128L99.1533 24.2365C99.1496 24.1876 99.1063 24.1479 99.0568 24.1479H98.0632Z" fill="#38393C"/>
<path fill-rule="evenodd" clip-rule="evenodd" d="M99.1199 23.0207C99.1688 23.0207 99.2091 22.9811 99.2091 22.9322V21.9751C99.2091 21.9262 99.1688 21.8866 99.1199 21.8866H96.4629C96.4134 21.8866 96.3731 21.847 96.3731 21.7981V21.1239C96.3731 21.0744 96.3335 21.0348 96.2852 21.0348H95.3288C95.2793 21.0348 95.239 21.0744 95.239 21.1239V21.7981C95.239 21.847 95.1994 21.8866 95.1511 21.8866H92.512C92.4631 21.8866 92.4235 21.9262 92.4235 21.9751V22.9322C92.4235 22.9811 92.4631 23.0207 92.512 23.0207H95.1511C95.1994 23.0207 95.239 23.0604 95.239 23.1093V26.5122C95.239 26.5612 95.2793 26.6008 95.3288 26.6008H96.2852C96.3335 26.6008 96.3731 26.5612 96.3731 26.5122V23.1093C96.3731 23.0604 96.4134 23.0207 96.4629 23.0207H99.1199Z" fill="#38393C"/>
<path fill-rule="evenodd" clip-rule="evenodd" d="M99.7638 22.358C99.7638 22.407 99.8028 22.4472 99.8523 22.4472H100.526C100.575 22.4472 100.615 22.407 100.615 22.358V21.0493C100.615 21.0004 100.575 20.9602 100.526 20.9602H99.8523C99.8028 20.9602 99.7638 21.0004 99.7638 21.0493V22.358Z" fill="#030100"/>
<path fill-rule="evenodd" clip-rule="evenodd" d="M101.072 22.358C101.072 22.407 101.112 22.4472 101.161 22.4472H101.835C101.884 22.4472 101.923 22.407 101.923 22.358V21.0493C101.923 21.0004 101.884 20.9602 101.835 20.9602H101.161C101.112 20.9602 101.072 21.0004 101.072 21.0493V22.358Z" fill="#030100"/>
<path fill-rule="evenodd" clip-rule="evenodd" d="M73.7227 24.9248C73.6991 24.9483 73.6991 24.9861 73.7227 25.0096L74.4395 25.7265C74.4624 25.75 74.5008 25.75 74.525 25.7265L77.125 23.1264C77.1479 23.1035 77.1863 23.1035 77.2092 23.1264L80.6048 26.5288C80.6283 26.5517 80.6667 26.5517 80.6896 26.5288L81.4065 25.8119C81.43 25.7878 81.43 25.75 81.4065 25.7265L77.2098 21.5218C77.1869 21.4989 77.1485 21.4989 77.1256 21.5218L73.7227 24.9248Z" fill="#38393C"/>
<path fill-rule="evenodd" clip-rule="evenodd" d="M80.6859 22.6359C81.149 22.6359 81.5241 22.2607 81.5241 21.7977C81.5241 21.3352 81.149 20.9601 80.6859 20.9601C80.2235 20.9601 79.8477 21.3352 79.8477 21.7977C79.8477 22.2607 80.2235 22.6359 80.6859 22.6359Z" fill="#030100"/>
<path fill-rule="evenodd" clip-rule="evenodd" d="M83.3024 26.5416C83.2981 26.5744 83.3223 26.601 83.3557 26.601H84.457C84.4904 26.601 84.5201 26.5744 84.5245 26.5416L85.1206 21.5879C85.1237 21.5551 85.1002 21.5278 85.0674 21.5278H83.9655C83.9326 21.5278 83.9029 21.5551 83.8986 21.5879L83.3024 26.5416Z" fill="#38393C"/>
<path fill-rule="evenodd" clip-rule="evenodd" d="M87.7658 21.5281C87.733 21.5281 87.7095 21.5547 87.7132 21.5875L88.3143 26.5419C88.3187 26.574 88.3484 26.6007 88.3812 26.6007H89.4831C89.5159 26.6007 89.5401 26.574 89.5357 26.5419L88.9346 21.5875C88.9309 21.5547 88.9006 21.5281 88.8678 21.5281H87.7658Z" fill="#38393C"/>
<path fill-rule="evenodd" clip-rule="evenodd" d="M90.551 20.9604C90.0885 20.9604 89.7128 21.3356 89.7128 21.7987C89.7128 22.2611 90.0885 22.6362 90.551 22.6362C91.014 22.6362 91.3892 22.2611 91.3892 21.7987C91.3892 21.3356 91.014 20.9604 90.551 20.9604Z" fill="#030100"/>
<path fill-rule="evenodd" clip-rule="evenodd" d="M38.3077 25.134C38.3077 25.0231 38.291 24.9129 38.2569 24.804C38.2235 24.695 38.1727 24.5966 38.1052 24.5093C38.0378 24.422 37.953 24.3521 37.8496 24.2982C37.7468 24.245 37.6261 24.2184 37.4868 24.2184C37.3562 24.2184 37.2392 24.2456 37.1358 24.3013C37.033 24.3564 36.9445 24.4288 36.8715 24.5155C36.7984 24.6022 36.7427 24.7018 36.7049 24.8127C36.6678 24.9235 36.6486 25.0343 36.6486 25.1457C36.6486 25.2565 36.6678 25.3667 36.7049 25.4757C36.7427 25.5846 36.7984 25.6831 36.8715 25.7703C36.9445 25.8576 37.033 25.9276 37.1358 25.9814C37.2392 26.0353 37.3562 26.0619 37.4868 26.0619C37.6261 26.0619 37.7468 26.0347 37.8496 25.9784C37.953 25.9226 38.0378 25.8521 38.1052 25.7642C38.1727 25.6775 38.2235 25.5784 38.2569 25.467C38.291 25.3562 38.3077 25.2448 38.3077 25.134ZM36.6721 22.077V24.0809H36.6901C36.726 24.0339 36.7718 23.9837 36.8269 23.933C36.8826 23.881 36.9488 23.8339 37.0262 23.79C37.1036 23.7466 37.194 23.7095 37.2967 23.6798C37.3995 23.6501 37.5171 23.6352 37.6478 23.6352C37.8496 23.6352 38.0365 23.6742 38.2068 23.7516C38.377 23.8284 38.5237 23.9348 38.6469 24.0692C38.7701 24.2041 38.8648 24.3626 38.9323 24.5452C38.9998 24.7272 39.0332 24.9235 39.0332 25.134C39.0332 25.3438 39.0004 25.5413 38.9354 25.7258C38.8698 25.9096 38.7769 26.0706 38.6556 26.2074C38.5349 26.3442 38.3882 26.4538 38.2154 26.5337C38.0433 26.6154 37.8477 26.6562 37.6298 26.6562C37.4274 26.6562 37.2386 26.6123 37.0615 26.5256C36.8851 26.4383 36.7476 26.3108 36.6486 26.1449H36.6368V26.5733H35.959V22.077H36.6721Z" fill="#9A9DA6"/>
<mask id="mask0" mask-type="alpha" maskUnits="userSpaceOnUse" x="39" y="23" width="4" height="5">
<path d="M39.3407 23.7191H42.3915V28.0001H39.3407V23.7191Z" fill="white"/>
</mask>
<g mask="url(#mask0)">
<path fill-rule="evenodd" clip-rule="evenodd" d="M39.3406 23.7186H40.1311L40.9285 25.7937H40.9402L41.6478 23.7186H42.3913L41.0411 27.186C40.9898 27.3166 40.934 27.4324 40.8752 27.5339C40.8152 27.6348 40.744 27.7202 40.6604 27.7896C40.5775 27.8583 40.479 27.9109 40.3664 27.9462C40.2537 27.9827 40.1175 28.0007 39.959 28.0007C39.8996 28.0007 39.8389 27.997 39.7776 27.9914C39.7157 27.9858 39.6532 27.9747 39.5901 27.9586L39.6501 27.3401C39.6972 27.3556 39.7436 27.3674 39.7894 27.3729C39.8346 27.3791 39.8773 27.3816 39.9175 27.3816C39.9931 27.3816 40.0556 27.3729 40.1076 27.3556C40.159 27.3377 40.2029 27.3092 40.2382 27.272C40.2741 27.2337 40.3057 27.1878 40.3336 27.1321C40.3614 27.077 40.3911 27.0108 40.4227 26.9359L40.5657 26.5731L39.3406 23.7186Z" fill="#9A9DA6"/>
</g>
<path fill-rule="evenodd" clip-rule="evenodd" d="M48.8693 11.2558C48.8693 12.381 47.8383 12.9303 46.8447 12.9303C45.8521 12.9303 44.8017 12.381 44.8017 11.2558V2.18005H41.5352V11.3646C41.5352 14.3057 44.1142 16.0052 46.8447 16.0052C49.5951 16.0052 52.1737 14.3057 52.1737 11.3646V2.18005H48.8693V11.2558Z" fill="black"/>
<mask id="mask1" mask-type="alpha" maskUnits="userSpaceOnUse" x="0" y="1" width="11" height="15">
<path d="M0 1.7627H10.956V15.8755H0V1.7627Z" fill="white"/>
</mask>
<g mask="url(#mask1)">
<path fill-rule="evenodd" clip-rule="evenodd" d="M5.63311 7.49213C4.41383 7.35682 3.41124 7.1633 3.48458 6.13706C3.60807 4.41341 7.23989 4.35616 7.23989 6.15693H10.5306C10.6082 0.310815 0.0779718 0.291416 0.193891 6.13706C0.232215 9.07952 2.23975 10.023 5.11076 10.3182C6.4611 10.4573 7.58434 10.6182 7.58812 11.5668C7.59475 13.1892 3.34879 13.1253 3.34879 11.4026H0.000376842C-0.0772181 17.3647 10.9564 17.3136 10.9564 11.5668C10.9564 8.24443 8.32386 7.78264 5.63311 7.49213Z" fill="black"/>
</g>
<path fill-rule="evenodd" clip-rule="evenodd" d="M21.2116 11.2558C21.2116 12.381 20.1802 12.9303 19.187 12.9303C18.1939 12.9303 17.1436 12.381 17.1436 11.2558V2.18005H13.8775V11.3646C13.8775 14.3057 16.4561 16.0052 19.187 16.0052C21.9374 16.0052 24.5156 14.3057 24.5156 11.3646V2.18005H21.2116V11.2558Z" fill="black"/>
<path fill-rule="evenodd" clip-rule="evenodd" d="M38.2023 2.18018H28.0799V5.23571H33.046L27.5841 15.5492H38.26V12.4927H32.7214L38.2023 2.18018Z" fill="black"/>
<path fill-rule="evenodd" clip-rule="evenodd" d="M61.6105 8.53965H59.1658V5.23571C59.9678 5.23571 60.8081 5.21632 61.6105 5.23571C63.5585 5.25511 63.4634 8.53965 61.6105 8.53965ZM61.6105 2.18018H55.7469V15.5492H59.1658V11.6146H60.942L63.2339 15.5492H67.2868L64.4376 10.8126C67.8177 8.52025 66.8629 2.1991 61.6105 2.18018Z" fill="black"/>
<path fill-rule="evenodd" clip-rule="evenodd" d="M76.8843 5.15907V2.18018H70.2329V5.15907H71.8662V12.5505H70.2329V15.5492H76.8843V12.5505H75.2463V5.15907H76.8843Z" fill="black"/>
<path fill-rule="evenodd" clip-rule="evenodd" d="M123.503 11.256C123.532 11.132 123.573 11.01 123.624 10.8907C123.674 10.771 123.73 10.6513 123.792 10.5316C123.853 10.4119 123.899 10.287 123.928 10.1574C123.958 10.0386 123.972 9.90992 123.97 9.77034C123.969 9.63124 123.988 9.50207 124.029 9.38284C124.049 9.3289 124.069 9.28774 124.09 9.2603C124.11 9.23333 124.131 9.19216 124.151 9.13775L124.396 8.61541C124.528 8.35423 124.676 8.1082 124.842 7.87778C125.006 7.64784 125.149 7.4018 125.272 7.14063C125.383 6.87993 125.487 6.60078 125.583 6.32446C125.679 6.04815 125.788 5.78461 125.911 5.53432C125.972 5.39285 126.043 5.26226 126.126 5.14161C126.207 5.02144 126.285 4.90078 126.356 4.78061C126.438 4.64955 126.505 4.51612 126.555 4.38033C126.606 4.24501 126.667 4.11159 126.739 3.98053C126.943 3.59918 127.024 3.2377 127.266 2.8819C127.507 2.52609 127.877 2.149 128.092 1.76718L128.368 2.56158L128.332 3.46244L127.947 4.03778L127.876 4.65049L127.254 6.36894C127.079 6.58895 126.92 6.81937 126.776 7.05925C126.704 7.1799 126.64 7.30481 126.585 7.4354C126.529 7.56551 126.46 7.69136 126.377 7.81154C126.305 7.93219 126.221 8.04717 126.123 8.15741C126.025 8.26812 125.945 8.3831 125.884 8.5028C125.812 8.62298 125.754 8.75877 125.708 8.91017C125.663 9.06158 125.61 9.19737 125.549 9.31707C125.426 9.56736 125.283 9.8134 125.119 10.0542C125.015 10.1328 124.909 10.2085 124.8 10.2818C124.691 10.3551 124.59 10.4361 124.498 10.5245C124.393 10.6135 124.301 10.7133 124.219 10.8226C124.136 10.9328 124.049 11.0374 123.956 11.1368C123.863 11.2257 123.767 11.3062 123.669 11.379C123.57 11.4524 123.479 11.5328 123.397 11.6208C123.437 11.502 123.473 11.38 123.503 11.256ZM119.472 10.4881C119.443 10.6551 119.406 10.825 119.361 10.9977C119.316 11.1708 119.287 11.3431 119.273 11.5148C119.26 11.687 119.317 11.8616 119.444 12.0395C119.392 12.1053 119.344 12.1928 119.299 12.3012C119.253 12.41 119.201 12.5056 119.145 12.5874C119.089 12.6697 119.019 12.7313 118.936 12.7715C118.853 12.8117 118.758 12.7904 118.652 12.7081C118.498 12.9058 118.34 13.0076 118.178 13.0128C118.016 13.0184 117.849 12.9943 117.676 12.9413C117.502 12.8879 117.326 12.8401 117.148 12.7975C116.97 12.7554 116.782 12.7909 116.585 12.9044C116.488 12.6721 116.329 12.4952 116.108 12.3736C115.887 12.252 115.671 12.1332 115.461 12.0173C115.25 11.9009 115.081 11.7618 114.954 11.6C114.827 11.4382 114.802 11.2063 114.882 10.903C114.986 10.8141 115.092 10.7384 115.202 10.6759C115.311 10.614 115.414 10.5482 115.513 10.481C115.611 10.4133 115.707 10.3381 115.8 10.2548C115.893 10.1716 115.981 10.0694 116.063 9.94872C116.335 9.95061 116.585 9.88106 116.813 9.73959C117.041 9.59812 117.267 9.45949 117.49 9.3237C117.714 9.18791 117.939 9.09233 118.169 9.0365C118.398 8.98067 118.65 9.03414 118.923 9.19642C119.009 9.32228 119.089 9.44813 119.163 9.57399C119.238 9.70032 119.313 9.83706 119.388 9.98468C119.473 10.1531 119.502 10.3211 119.472 10.4881ZM117.944 14.3943C117.719 14.4606 117.477 14.4658 117.215 14.4104C117.15 14.2623 117.066 14.1691 116.96 14.1294C116.855 14.0901 116.75 14.0556 116.646 14.0272C116.541 13.9983 116.449 13.9562 116.37 13.8994C116.29 13.8436 116.239 13.7244 116.217 13.5427C116.311 13.5829 116.416 13.6326 116.532 13.6931C116.648 13.7537 116.766 13.8091 116.887 13.8583C117.007 13.908 117.128 13.9392 117.249 13.9515C117.369 13.9633 117.48 13.9411 117.585 13.8838C117.679 13.9023 117.768 13.9288 117.853 13.9638C117.936 13.9983 118.025 13.9978 118.119 13.9628L118.211 13.8313C118.244 13.9056 118.293 13.9387 118.361 13.9311C118.43 13.9231 118.489 13.9184 118.542 13.9169C118.367 14.1691 118.168 14.3286 117.944 14.3943ZM109.612 9.65537C109.582 9.8328 109.543 10.014 109.493 10.1971C109.443 10.3812 109.419 10.5534 109.42 10.7138C109.39 10.7682 109.338 10.8079 109.265 10.8316C109.192 10.8553 108.899 10.6475 108.82 10.6447C108.742 10.6419 108.666 10.6281 108.592 10.604C108.518 10.5794 108.46 10.552 108.418 10.5212C108.438 10.4029 108.413 10.3074 108.345 10.234C108.275 10.1616 107.73 10.0916 107.657 10.0244C107.582 9.95723 107.518 9.88437 107.465 9.80583C107.412 9.72729 107.411 9.62272 107.462 9.49214C107.619 9.51958 107.746 9.49403 107.845 9.41549C107.943 9.33742 108.028 9.2409 108.1 9.1264C108.172 9.01143 108.244 8.89645 108.315 8.78195C108.387 8.66698 108.48 8.57519 108.594 8.50706C108.763 8.63055 109.559 8.98966 109.598 9.14911C109.636 9.30856 109.641 9.47747 109.612 9.65537ZM109.091 12.6087C108.953 12.8543 108.796 13.0923 108.621 13.3232L108.732 13.432C108.545 13.4812 108.241 13.5933 108.16 13.7835C108.079 13.9737 107.506 14.0049 107.435 14.1786C107.364 14.3522 107.271 14.4838 107.157 14.5732C107.043 14.6626 106.878 14.787 106.615 14.6461C106.511 14.6924 106.404 14.7279 106.294 14.753C106.185 14.7776 106.075 14.8055 105.967 14.8358C105.857 14.8661 105.75 14.9072 105.646 14.9588C105.542 15.0104 105.449 15.0804 105.367 15.1689C105.386 15.1149 105.383 15.0667 105.357 15.0246C105.33 14.9825 105.296 14.9517 105.254 14.9314L104.912 15.1835C105.024 14.9763 105.089 14.744 105.107 14.4861C105.125 14.2287 105.145 13.9709 105.169 13.713C105.192 13.4552 105.243 13.2153 105.324 12.9929C105.405 12.771 105.565 12.5969 105.804 12.471C105.718 12.2813 105.692 12.1105 105.728 11.9591C105.752 11.8512 105.797 11.7495 105.852 11.6511C105.906 11.5971 105.963 11.5465 106.008 11.4841C106.08 11.3852 106.157 11.292 106.24 11.2035C106.333 11.0932 106.402 11.0109 106.449 10.9556C106.495 10.9007 106.536 10.8486 106.572 10.7989C106.574 10.7971 106.576 10.7947 106.577 10.7928C106.803 10.8079 106.997 10.8671 107.158 10.9726C107.322 11.0795 107.48 11.195 107.632 11.3185C107.786 11.4419 108.581 11.5598 108.734 11.6568C108.886 11.7533 109.067 11.7982 109.277 11.7911C109.291 12.0911 109.229 12.3631 109.091 12.6087ZM96.9523 11.6307C97.0076 11.4732 97.0687 11.3241 97.1349 11.1827C97.2011 11.0412 97.283 10.9101 97.3809 10.789C97.4789 10.6679 97.6161 10.5723 97.793 10.5023C97.8016 10.3305 97.8176 10.1616 97.8418 9.99461C97.8654 9.82759 97.8929 9.65821 97.9222 9.48551C98.1313 9.54324 98.3092 9.54276 98.4554 9.48409C98.6007 9.42637 98.728 9.34452 98.8363 9.23901C98.9451 9.1335 99.0473 9.01805 99.1457 8.89125C99.2437 8.76492 99.352 8.65988 99.4713 8.57519C99.59 8.49144 99.723 8.44413 99.8697 8.43419C100.015 8.42379 100.199 8.47394 100.42 8.58465C100.43 8.59506 100.438 8.59979 100.444 8.59979C100.449 8.59979 100.457 8.60453 100.467 8.61493C100.458 8.66887 100.425 8.75877 100.368 8.88368C100.313 9.00859 100.275 9.10321 100.255 9.16803C100.144 9.48267 100.006 9.78738 99.8422 10.0817C99.678 10.3764 99.4301 10.577 99.097 10.6844C99.0052 10.8803 98.8661 11.0403 98.6792 11.1642C98.4928 11.2882 98.2979 11.4041 98.0959 11.5124C97.8929 11.6213 97.6956 11.7377 97.504 11.8611C97.3119 11.9856 97.1595 12.1351 97.0469 12.3102C97.0256 12.2898 96.9882 12.2534 96.9357 12.2013C96.8827 12.1498 96.8354 12.1351 96.7942 12.1578L96.7304 12.0797C96.8226 11.9373 96.8969 11.7878 96.9523 11.6307ZM131.175 10.5231C131.231 10.366 131.292 10.2165 131.359 10.075C131.424 9.93358 131.506 9.80252 131.604 9.68139C131.702 9.56074 131.839 9.46469 132.016 9.39467C132.025 9.22292 132.041 9.05401 132.065 8.88699C132.089 8.71997 132.116 8.55059 132.145 8.37789C132.355 8.43561 132.533 8.43514 132.679 8.37694C132.824 8.31875 132.952 8.23689 133.059 8.13138C133.168 8.02587 133.271 7.91043 133.369 7.7841C133.467 7.65777 133.575 7.55226 133.695 7.46804C133.814 7.38382 133.946 7.33651 134.093 7.3261C134.239 7.31616 134.423 7.36632 134.644 7.47703C134.654 7.48744 134.662 7.49217 134.667 7.49217C134.672 7.49217 134.68 7.49738 134.69 7.50731C134.681 7.56125 134.648 7.65115 134.592 7.77606C134.536 7.90097 134.498 7.99559 134.478 8.06089C134.367 8.37505 134.23 8.67975 134.065 8.97405C133.902 9.26881 133.653 9.4699 133.32 9.57683C133.229 9.77271 133.09 9.9331 132.903 10.0566C132.716 10.1806 132.522 10.2969 132.319 10.4053C132.116 10.5136 131.919 10.63 131.728 10.7535C131.535 10.878 131.383 11.0279 131.27 11.2025C131.249 11.1822 131.212 11.1458 131.159 11.0937C131.106 11.0421 131.059 11.0279 131.017 11.0502L130.954 10.9716C131.046 10.8297 131.12 10.6802 131.175 10.5231ZM141.48 8.66556C141.479 8.60689 141.453 8.56715 141.4 8.54775C141.266 8.66982 141.128 8.78148 140.989 8.88226C140.848 8.98351 140.706 9.08476 140.561 9.18554C140.385 9.3095 139.968 9.67855 139.87 9.74053C139.77 9.80252 139.685 9.8645 139.613 9.92553C139.54 9.98657 139.465 10.0561 139.388 10.1337C139.311 10.2113 139.194 10.3277 139.039 10.4824L138.993 10.5482L138.866 10.3916C138.752 10.5132 138.634 10.6296 138.51 10.7408C138.385 10.8519 138.229 10.8784 138.04 10.8207C137.957 10.877 137.871 10.9116 137.783 10.9253C137.693 10.939 137.61 10.9579 137.532 10.9816C137.454 11.0057 137.381 11.0431 137.314 11.0932C137.247 11.1439 137.193 11.2338 137.153 11.3639L137.137 11.4126L137.106 11.4136C136.97 11.4396 136.835 11.4599 136.699 11.4746C136.563 11.4902 136.435 11.5158 136.316 11.5517C136.196 11.5877 136.084 11.6397 135.981 11.7074C135.877 11.775 135.789 11.8692 135.718 11.9889C135.676 12.0655 135.646 12.1337 135.626 12.1928C135.605 12.2524 135.586 12.3201 135.566 12.3958C135.482 12.4199 135.38 12.4611 135.292 12.453C135.203 12.4455 135.165 12.5411 135.112 12.4573C134.862 12.5084 134.619 12.5832 134.386 12.682C134.151 12.7805 133.923 12.8846 133.7 12.9934C133.476 13.1027 133.247 13.2068 133.014 13.3052C132.779 13.4041 132.537 13.4736 132.286 13.5134L132.271 13.5304L132.255 13.5148C132.129 13.4334 131.985 13.3951 131.823 13.4003C131.66 13.4055 131.496 13.4192 131.329 13.441C131.162 13.4623 131 13.4675 130.843 13.4566C130.687 13.4457 130.577 12.9659 130.471 12.8519C130.566 12.7431 130.607 12.7965 130.747 12.6901C130.886 12.5836 131.037 12.4933 131.199 12.4185C131.359 12.3433 131.523 12.2789 131.69 12.2255C131.857 12.172 132.005 12.1029 132.134 12.0182C132.265 11.9335 132.37 11.8257 132.452 11.6941C132.534 11.5631 132.574 11.3847 132.571 11.16C132.665 11.1784 132.765 11.1969 132.87 11.2148C132.975 11.2328 133.074 11.256 133.169 11.2853C133.251 11.229 133.315 11.1467 133.362 11.0379C133.407 10.9295 133.471 10.8306 133.554 10.7422L133.585 10.7091L133.617 10.7403C133.754 10.843 133.843 10.8614 133.884 10.7956C133.925 10.7303 133.961 10.6409 133.991 10.5274C134.02 10.4138 134.069 10.3078 134.136 10.2089C134.202 10.1105 134.33 10.085 134.519 10.1323C134.747 9.97474 134.923 9.78454 135.045 9.56074C135.168 9.33742 135.28 9.10038 135.381 8.85103C135.453 8.69868 135.521 8.55437 135.588 8.41811C135.654 8.28184 135.734 8.14842 135.826 8.01641C135.908 7.89623 135.948 7.75571 135.947 7.59484C135.945 7.43445 135.885 7.29724 135.769 7.18321C135.946 7.10231 136.001 6.95847 135.936 6.75171C135.871 6.54495 135.735 6.36468 135.53 6.21044C135.323 6.05667 135.077 5.96819 134.789 5.94548C134.502 5.92324 134.218 6.06092 133.94 6.359L133.908 6.32777C133.75 6.21564 133.624 6.19246 133.531 6.26012C133.438 6.3273 133.345 6.41341 133.252 6.51845C133.159 6.62301 133.053 6.72048 132.934 6.8099C132.815 6.89933 132.655 6.90453 132.456 6.82552C132.28 7.00295 132.094 7.16949 131.897 7.32563C131.7 7.48224 131.509 7.64121 131.323 7.80255C131.137 7.96389 130.958 8.13612 130.788 8.31828C130.618 8.50043 130.471 8.70625 130.349 8.93525C130.382 9.07341 130.388 9.18318 130.368 9.26408C130.348 9.34499 130.318 9.41549 130.276 9.47558C130.235 9.53614 130.187 9.5967 130.13 9.65726C130.073 9.7183 130.014 9.79731 129.953 9.89572C129.963 9.9279 129.987 9.95913 130.024 9.98988C130.061 10.0211 130.08 10.0632 130.081 10.1167C130.082 10.2132 130.065 10.2804 130.029 10.3197C129.992 10.3585 129.945 10.3812 129.888 10.3883C129.831 10.3958 129.771 10.3977 129.708 10.3944C129.645 10.3906 129.588 10.3897 129.535 10.3916C129.536 10.4668 129.54 10.5364 129.545 10.6002C129.552 10.6646 129.555 10.7337 129.556 10.8089C129.559 11.0232 129.532 11.2111 129.477 11.3738C129.422 11.5361 129.347 11.6889 129.254 11.8309C129.192 11.9274 129.165 12.0376 129.152 12.1545C128.861 12.3551 128.572 12.5538 128.288 12.7464C128.101 12.8812 127.873 13.036 127.604 13.2105C127.334 13.3856 127.095 13.5195 126.887 13.6118C126.793 13.6577 126.676 13.7045 126.536 13.7518C126.395 13.7991 126.252 13.8441 126.106 13.8867C125.96 13.9288 125.819 13.9657 125.684 13.9964C125.548 14.0277 125.429 14.056 125.325 14.0806C125.094 14.0348 124.863 13.9832 124.633 13.9264C124.401 13.8696 124.177 13.8076 123.956 13.74L123.604 13.1244C123.902 12.7828 124.207 12.4516 124.517 12.1308C124.826 11.81 125.115 11.4684 125.383 11.106C125.464 10.9858 125.544 10.8571 125.621 10.7209C125.697 10.5841 125.782 10.4559 125.875 10.3348C126.05 10.1039 126.246 9.87254 126.462 9.6407C126.679 9.40839 126.891 9.19832 127.098 9.00906C127.169 8.86759 127.24 8.72896 127.312 8.5927C127.384 8.45643 127.445 8.32301 127.495 8.19289C127.546 8.0519 127.586 7.90333 127.616 7.7472C127.645 7.59106 127.674 7.43729 127.704 7.28636L128.229 6.62633L128.298 5.7936L128.918 5.1946L128.97 4.32545C129.093 4.17168 129.203 3.98857 129.3 3.7766C129.397 3.56464 129.47 3.36119 129.52 3.16673C129.498 3.01769 129.487 2.84404 129.49 2.64533C129.493 2.44708 129.501 2.24363 129.514 2.03403C129.527 1.8249 129.545 1.61814 129.569 1.41374C129.593 1.20935 129.615 1.02624 129.633 0.865373L129.154 0.157556L128.403 0.310853L128.086 0L127.403 0.536541C127.259 0.809069 127.111 1.06031 126.957 1.29025C126.813 1.51973 126.656 1.7421 126.487 1.95643C126.317 2.17077 126.171 2.39787 126.048 2.63728C125.936 2.8554 125.658 3.10143 125.566 3.38248C125.476 3.664 125.379 3.89773 125.277 4.08273C125.227 4.20243 125.159 4.31173 125.077 4.41061C124.995 4.50997 124.912 4.61453 124.831 4.7243C124.779 4.80095 124.223 6.0666 124.193 6.13142C124.142 6.25113 124.102 6.3784 124.072 6.51325C124.042 6.64856 124.002 6.78057 123.952 6.91068C123.901 7.03039 123.839 7.14773 123.768 7.2627C123.696 7.3772 123.629 7.49974 123.568 7.63033C123.517 7.75003 123.469 7.8721 123.424 7.99654C123.378 8.12145 123.33 8.24352 123.279 8.36275C123.076 8.86239 122.907 9.36912 122.772 9.882C122.638 10.3954 122.484 10.9064 122.313 11.4154C122.336 11.6184 122.357 11.8157 122.375 12.0078C122.384 12.1039 122.395 12.2042 122.406 12.3026C122.049 12.4232 121.208 12.5429 120.831 12.6205L120.278 12.189C120.275 11.996 120.282 11.7684 120.3 11.5053C120.318 11.2423 120.333 10.974 120.345 10.7005C120.358 10.4271 120.355 10.1673 120.336 9.92127C120.317 9.67571 120.265 9.47368 120.18 9.31613C120.137 9.23191 120.081 9.15053 120.012 9.07246C119.943 8.99439 119.882 8.92389 119.829 8.86144C119.522 8.51794 119.203 8.29273 118.872 8.1858C118.542 8.07887 118.151 8.05426 117.703 8.11151C117.598 8.12571 117.507 8.16592 117.43 8.23311C117.352 8.29982 117.28 8.36417 117.213 8.4252C117.145 8.48624 117.078 8.52551 117.01 8.54396C116.942 8.56242 116.866 8.52456 116.782 8.43088C116.658 8.55295 116.531 8.66935 116.402 8.78101C116.272 8.89219 116.14 8.99818 116.006 9.09896C115.954 9.13302 115.907 9.15053 115.865 9.15195C115.771 9.17655 115.698 9.16283 115.645 9.11079C115.592 9.05921 115.547 8.99108 115.509 8.90639C115.471 8.82217 115.431 8.73748 115.389 8.65326C115.346 8.56904 115.293 8.50138 115.23 8.44934C115.083 8.42237 114.965 8.43987 114.877 8.50138C114.789 8.56336 114.714 8.64332 114.652 8.74174C114.591 8.84015 114.535 8.94661 114.484 9.06063C114.433 9.17466 114.377 9.27544 114.315 9.36344C114.284 9.40744 114.258 9.43489 114.238 9.44624C114.227 9.4576 114.202 9.48504 114.16 9.52904C114.098 9.59528 114.068 9.67146 114.069 9.75709C114.07 9.84273 114.076 9.92553 114.088 10.0055C114.099 10.0855 114.097 10.1607 114.083 10.2307C114.072 10.2775 114.039 10.3135 113.993 10.3447C113.91 10.3585 113.823 10.3641 113.742 10.3864C113.586 10.429 113.435 10.5222 113.29 10.666C113.183 10.4876 113.078 10.4025 112.974 10.4114C112.869 10.4204 112.768 10.4583 112.67 10.5259C112.571 10.5936 112.469 10.6532 112.366 10.7043C112.261 10.7564 112.151 10.7303 112.036 10.6267C111.735 10.8188 111.454 10.9011 111.152 10.8737C110.848 10.8458 110.762 10.9645 110.457 10.7923C110.456 10.728 110.455 10.6371 110.453 10.5193C110.452 10.4015 110.45 10.2761 110.449 10.1422C110.447 10.0079 110.445 9.88248 110.444 9.76419C110.442 9.64685 110.442 9.56074 110.441 9.50728C110.43 9.4434 110.403 9.3431 110.359 9.20494C110.315 9.06726 110.269 8.92389 110.221 8.77533C110.171 8.62724 110.123 8.48151 110.074 8.33862C110.026 8.19573 109.99 8.08691 109.968 8.01263C109.704 7.83898 108.782 7.56409 108.584 7.62371C108.386 7.68427 108.191 7.78126 107.999 7.91611C107.807 8.05095 107.605 8.1839 107.393 8.31354C107.18 8.44366 106.932 8.49239 106.649 8.45832C106.681 8.52173 106.685 8.5856 106.659 8.65089C106.634 8.71619 106.611 8.77864 106.591 8.83826C106.571 8.89787 106.558 8.95418 106.554 9.00811C106.549 9.06158 106.584 9.1141 106.658 9.1652C106.596 9.24232 106.529 9.30335 106.456 9.3483C106.383 9.39372 106.309 9.43631 106.23 9.47652C106.152 9.51674 106.072 9.55932 105.989 9.60474C105.906 9.65064 105.833 9.70647 105.771 9.77271C105.806 10.0074 105.756 10.1858 105.621 10.3078C105.487 10.4299 105.342 10.542 105.186 10.6433C105.031 10.745 104.899 10.8595 104.79 10.9858C104.682 11.1126 104.566 11.4992 104.566 11.4992C104.452 11.6208 104.333 11.7372 104.209 11.8484C104.085 11.9596 103.929 11.9861 103.739 11.9279C103.657 11.9846 103.571 12.0192 103.483 12.0329C103.393 12.0466 102.913 12.0655 102.835 12.0892C102.757 12.1133 102.684 12.1507 102.617 12.2009C102.55 12.2515 102.496 12.3414 102.456 12.471L102.44 12.5198L102.409 12.5207C102.273 12.5472 102.612 12.5671 102.476 12.5822C102.34 12.5978 102.212 12.6234 102.093 12.6593C101.973 12.6953 101.861 12.7473 101.757 12.815C101.653 12.8827 101.566 12.9768 101.494 13.0965C101.453 13.1732 101.423 13.2413 101.403 13.3004C101.382 13.3601 101.362 13.4277 101.343 13.5034L101.327 13.5361C101.244 13.5602 101.157 13.5687 101.069 13.5607C100.979 13.5526 100.908 13.5067 100.855 13.423C100.605 13.4741 100.363 13.5488 100.129 13.6477C99.8947 13.7461 99.6657 13.8502 99.4424 13.9591C99.2191 14.0683 98.9901 14.1724 98.7564 14.2709C98.5222 14.3697 98.2799 14.4393 98.0296 14.479L98.014 14.4961L97.9984 14.4805C97.8721 14.3991 97.7273 14.3607 97.5659 14.366C97.4036 14.3712 97.239 14.3849 97.0724 14.4066C96.905 14.4279 96.7431 14.4331 96.5861 14.4223C96.429 14.4114 96.2979 14.3489 96.1919 14.2339C96.2728 14.0494 96.384 13.9042 96.5236 13.7977C96.6632 13.6913 96.8141 13.6009 96.9755 13.5257C97.1363 13.4509 97.3 13.3866 97.467 13.3331C97.6331 13.2791 97.7817 13.2101 97.9109 13.1259C98.041 13.0412 98.1465 12.9328 98.2288 12.8018C98.3107 12.6707 98.3504 12.4923 98.348 12.2676C98.4422 12.286 98.5415 12.3045 98.6466 12.322C98.7511 12.3404 98.8505 12.3636 98.9456 12.3925C99.0279 12.3367 99.0923 12.2543 99.1387 12.145C99.1841 12.0367 99.248 11.9383 99.3308 11.8498L99.362 11.8167L99.3932 11.8474C99.5304 11.9506 99.6194 11.969 99.6605 11.9033C99.7012 11.8375 99.7372 11.7485 99.767 11.635C99.7968 11.5214 99.8451 11.415 99.9127 11.3166C99.979 11.2177 100.107 11.1926 100.295 11.2399C100.524 11.0824 100.699 10.8917 100.822 10.6684C100.945 10.445 101.057 10.208 101.158 9.95818C101.229 9.8063 101.298 9.66199 101.365 9.52573C101.431 9.38994 101.511 9.25557 101.603 9.12403C101.685 9.00386 101.725 8.86286 101.723 8.70246C101.721 8.54207 101.662 8.40486 101.546 8.29036C101.722 8.20993 101.778 8.06609 101.713 7.85933C101.648 7.65257 101.512 7.4723 101.307 7.31806C101.1 7.16429 100.854 7.07581 100.566 7.0531C100.278 7.03039 99.995 7.16807 99.7168 7.46662L99.6847 7.4354C99.5266 7.32279 99.4012 7.30008 99.3076 7.36774C99.2144 7.43492 99.1216 7.52103 99.0284 7.62607C98.9357 7.73064 98.8297 7.8281 98.7109 7.91705C98.5917 8.00695 98.4323 8.01215 98.2326 7.93314C98.0571 8.11057 97.8706 8.27711 97.6738 8.43325C97.477 8.58986 97.2858 8.74883 97.0994 8.91017C96.9135 9.07151 96.7351 9.24374 96.5648 9.4259C96.3944 9.60805 96.2478 9.81387 96.1252 10.0429C96.1583 10.181 96.165 10.2903 96.1451 10.3712C96.1252 10.4526 96.0945 10.5231 96.0533 10.5832C96.0121 10.6438 95.9634 10.7043 95.9066 10.7649C95.8499 10.8254 95.7907 10.9049 95.7292 11.0033C95.7401 11.0355 95.7637 11.0667 95.8011 11.0975C95.8376 11.1283 95.8565 11.1708 95.8574 11.2243C95.8584 11.3208 95.8409 11.388 95.8049 11.4268C95.7685 11.4656 95.7216 11.4888 95.6644 11.4959C95.6071 11.503 95.547 11.5053 95.4841 11.502C95.4217 11.4982 95.3639 11.4978 95.3119 11.4992C95.3128 11.5744 95.3166 11.6435 95.3218 11.7079C95.3285 11.7717 95.3318 11.8413 95.3327 11.9165C95.3356 12.1308 95.3086 12.3187 95.2532 12.4814C95.1979 12.6437 95.1241 12.7961 95.0313 12.9385C94.9391 13.0809 94.9017 13.2456 94.9201 13.4324C94.9376 13.6193 94.9821 13.8024 95.0521 13.9822C95.1226 14.162 95.205 14.3309 95.3015 14.4885C95.3975 14.6461 95.477 14.7667 95.5404 14.85C95.6365 14.9754 95.7297 15.1145 95.8205 15.2668C95.9109 15.4192 96.0093 15.5497 96.1148 15.659C96.2208 15.7679 96.3396 15.8445 96.4706 15.8885C96.6021 15.932 96.7559 15.9084 96.9324 15.8166L96.9636 15.8157C97.1103 15.8431 97.2466 15.8549 97.3719 15.8507C97.4973 15.8464 97.6331 15.8313 97.7793 15.8052C97.9146 15.7792 98.0476 15.7612 98.1786 15.7518C98.3088 15.7423 98.437 15.7461 98.5628 15.7636C98.6665 15.6959 98.8122 15.6534 99.0005 15.6368C99.1883 15.6198 99.3606 15.59 99.5167 15.5474C99.6733 15.5048 99.7925 15.4395 99.8749 15.351C99.9572 15.2626 99.9553 15.1126 99.8697 14.9011L100.072 14.8301C100.312 14.7369 100.554 14.6356 100.798 14.5254C101.042 14.4156 101.278 14.2926 101.507 14.1568C101.559 14.1228 101.61 14.084 101.662 14.039C101.714 13.995 101.766 13.9609 101.818 13.9373L102.865 13.3743L103.488 13.2058C103.716 13.0052 103.955 12.8505 104.204 12.7402C104.212 12.7369 104.22 12.7327 104.228 12.7289C104.247 12.859 104.25 12.983 104.22 13.0932C104.175 13.2612 104.117 13.4258 104.046 13.5891C103.975 13.7518 103.906 13.9174 103.84 14.0859C103.774 14.2543 103.753 14.4341 103.776 14.6262C103.904 14.7937 104.008 14.972 104.089 15.1622C104.169 15.3524 104.216 15.5597 104.23 15.7844C104.344 15.7593 104.446 15.7584 104.535 15.7825C104.624 15.8062 104.708 15.8436 104.787 15.8947C104.866 15.9458 104.945 16.0021 105.024 16.0636C105.104 16.1256 105.185 16.1762 105.27 16.2164C105.739 16.1364 106.192 15.9798 106.628 15.7461C107.064 15.5124 107.998 15.546 108.319 15.1821C108.538 15.2072 108.838 14.9015 108.916 14.8022C108.993 14.7033 109.051 14.5841 109.092 14.4431C109.132 14.3026 109.18 14.162 109.236 14.0206C109.291 13.8796 109.408 13.7793 109.585 13.7201C109.563 13.6884 109.534 13.652 109.497 13.6103C109.46 13.5687 109.452 13.5209 109.472 13.4665C109.691 13.3951 109.833 13.2758 109.898 13.1074C109.965 12.939 110.02 12.7606 110.065 12.5718C110.109 12.3825 110.167 12.2146 110.239 12.0679C110.31 11.9208 110.232 11.7684 110.472 11.7391C110.535 11.7268 110.597 11.7216 110.66 11.7254C110.723 11.7287 110.791 11.7291 110.864 11.7263C110.989 11.7116 111.112 11.7159 111.233 11.7386C111.353 11.7613 111.458 11.7599 111.594 11.7339C112.053 11.644 112.473 11.5687 112.854 11.5082C113.059 11.4755 113.279 11.432 113.51 11.3814C113.5 11.3932 113.486 11.4031 113.478 11.415C113.395 11.5356 113.326 11.661 113.27 11.7916C113.215 11.9222 113.159 12.0551 113.103 12.1909C113.047 12.3267 112.952 12.4445 112.817 12.5458C112.8 12.8888 112.721 13.2238 112.578 13.5498C112.436 13.8758 112.342 14.3735 112.105 14.6276C111.923 15.1693 111.658 15.6907 111.371 16.1771C111.084 16.663 111.093 17.1447 111.006 17.3032C110.919 17.4612 110.852 17.6562 110.755 17.7986C110.657 17.941 110.641 18.0219 110.581 18.1899C110.521 18.3578 110.406 18.3417 110.482 18.575C110.389 18.7065 110.326 18.8475 110.291 18.9989C110.256 19.1503 110.227 19.3036 110.203 19.4598C110.179 19.6159 110.144 19.7673 110.098 19.913C110.053 20.0592 109.979 20.1984 109.876 20.3304C109.868 20.4482 109.84 20.5778 109.795 20.7183C109.749 20.8589 109.71 21.0027 109.674 21.1484C109.64 21.2941 109.626 21.4309 109.632 21.5591C109.639 21.6878 109.69 21.7985 109.785 21.8917C109.713 21.9906 109.68 22.0777 109.687 22.1519C109.693 22.2267 109.717 22.301 109.76 22.3748C109.803 22.4481 109.745 22.5253 109.788 22.5986C109.831 22.6719 110.183 22.9426 110.642 22.0725C110.729 21.9088 110.509 21.7862 110.643 21.6481C110.777 21.5099 110.901 21.3642 111.014 21.2104C111.127 21.0562 111.161 20.8413 111.116 20.5641C111.071 20.319 111.198 20.028 111.259 19.8813C111.32 19.7347 111.404 19.6164 111.513 19.5274C111.622 19.438 111.603 19.3595 111.727 19.2965C111.852 19.2331 111.852 19.2033 111.939 19.1097C112.027 19.0155 111.891 18.8419 111.91 18.6966C111.929 18.5513 112.204 18.3654 112.096 18.1014C112.263 18.0744 112.385 17.9878 112.461 17.8407C112.538 17.6931 112.695 17.3401 112.751 17.2687C112.808 17.1972 112.819 17.0974 112.787 16.9701C112.848 16.8717 112.75 16.8518 112.775 16.7227C112.799 16.593 112.955 16.487 112.98 16.3574C113.004 16.2282 113.032 16.1066 113.062 15.9936C113.092 15.88 113.143 15.7896 113.216 15.7229C113.192 15.5526 113.222 15.4097 113.304 15.2947C113.386 15.1793 113.474 15.0719 113.567 14.9725C113.66 14.8732 113.724 14.7667 113.759 14.6531C113.794 14.5391 113.753 14.3991 113.636 14.2311L113.729 14.0996C113.737 13.9704 113.906 13.7632 113.952 13.6652C113.998 13.5673 114.049 13.4722 114.105 13.3795C114.161 13.2867 114.218 13.1907 114.274 13.0923C114.33 12.9943 114.374 12.8855 114.404 12.7667C114.7 13.0785 114.968 13.3832 115.207 13.6808C115.445 13.978 115.641 14.3494 115.792 14.7941C115.865 14.7814 115.934 14.8003 115.997 14.8519C116.061 14.903 116.123 14.9522 116.187 14.9985C116.25 15.0444 116.311 15.0719 116.368 15.0804C116.426 15.0894 116.48 15.0506 116.532 14.9626C116.584 15.0255 116.664 15.1031 116.77 15.1958C116.875 15.289 116.986 15.3709 117.102 15.4423C117.218 15.5133 117.331 15.5474 117.44 15.5436C117.55 15.5403 117.636 15.4731 117.697 15.3425C117.937 15.3879 118.165 15.3539 118.377 15.2398C118.59 15.1258 118.792 14.9796 118.984 14.8022C119.175 14.6248 119.358 14.4393 119.534 14.2462C119.709 14.0532 119.89 13.8942 120.077 13.7703L120.188 13.8952C120.248 13.6681 120.336 13.5451 120.45 13.5252C120.565 13.5053 120.688 13.5067 120.819 13.529C120.949 13.5517 121.075 13.5635 121.196 13.5649C121.316 13.5663 121.892 13.4594 121.973 13.2744C122.079 13.3672 122.181 13.3989 122.28 13.369C122.367 13.3425 122.452 13.2985 122.534 13.247C122.566 13.3733 122.604 13.5001 122.653 13.6297C122.707 13.7726 122.761 13.9184 122.816 14.066C122.9 14.171 122.995 14.2827 123.101 14.4024C123.207 14.5221 123.313 14.6285 123.419 14.7213C123.514 14.8041 123.63 14.8807 123.767 14.9512C123.904 15.0213 124.03 15.0979 124.146 15.1793L124.38 15.0274C124.578 15.0104 124.776 14.9985 124.975 14.9919C125.173 14.9853 125.366 14.9683 125.555 14.9408C125.586 14.9399 125.726 14.903 125.977 14.8306C126.227 14.7582 126.495 14.6768 126.781 14.5874C127.068 14.498 127.331 14.4166 127.571 14.3447C127.81 14.2723 127.945 14.225 127.976 14.2027C128.028 14.18 128.067 14.154 128.092 14.1265C128.118 14.0991 128.158 14.0736 128.209 14.0504C128.406 13.9155 128.596 13.7755 128.777 13.6302C128.958 13.485 129.243 13.4466 129.45 13.3113C129.469 13.2981 129.494 13.2886 129.513 13.2763C129.548 13.344 129.576 13.4183 129.615 13.4826C129.711 13.6402 129.701 13.6591 129.764 13.7424C129.86 13.8682 129.953 14.0068 130.044 14.1592C130.134 14.3115 130.232 14.4421 130.338 14.5514C130.444 14.6602 130.563 14.7369 130.694 14.7809C130.825 14.8244 130.979 14.8008 131.156 14.709L131.187 14.708C131.334 14.7355 131.47 14.7473 131.595 14.743C131.72 14.7388 131.856 14.7241 132.002 14.6976C132.138 14.6716 132.271 14.6541 132.402 14.6446C132.532 14.6347 132.697 14.6068 132.822 14.6243C133.638 14.3489 134.246 13.996 134.246 13.996C134.473 13.872 134.857 13.6146 135.102 13.5044C135.346 13.3951 135.576 13.2498 135.804 13.1135C135.855 13.08 135.874 13.0634 135.926 13.0189C135.977 12.9744 136.029 12.9409 136.081 12.9172L137.3 12.3679L137.789 12.0982C138.017 11.8976 138.255 11.7429 138.504 11.6326C138.754 11.5229 139.004 11.3942 139.252 11.2465C139.326 11.2555 139.386 11.2238 139.432 11.1529C139.478 11.0814 139.529 11.0048 139.586 10.9224C139.642 10.8406 139.704 10.7658 139.771 10.6996C139.838 10.6333 139.935 10.614 140.061 10.6419C140.154 10.5638 140.236 10.4753 140.308 10.3769C140.38 10.278 140.458 10.1843 140.54 10.0959C140.633 9.98562 140.982 9.62745 141.029 9.5721C141.075 9.51721 141.116 9.46469 141.152 9.41549C141.188 9.36628 141.229 9.31376 141.276 9.2584C141.321 9.20399 141.391 9.1264 141.484 9.02704C141.463 9.00622 141.454 8.97452 141.46 8.93099C141.464 8.88841 141.472 8.85624 141.482 8.834C141.481 8.78101 141.48 8.72423 141.48 8.66556Z" fill="black"/>
<path fill-rule="evenodd" clip-rule="evenodd" d="M94.6807 7.88828C94.728 7.7435 94.7782 7.60345 94.8307 7.46813C94.8842 7.35411 94.9594 7.21595 95.0554 7.05414C95.1519 6.89185 95.1993 6.75464 95.1978 6.64203L95.1817 6.6425C95.2338 6.4769 95.231 6.28197 95.1737 6.05818L95.1571 6.04351C95.1448 5.99288 95.1444 5.94131 95.1548 5.88974C95.1647 5.83817 95.1699 5.78707 95.1694 5.73549C95.2021 5.69339 95.2258 5.66736 95.2423 5.65648C95.2584 5.6456 95.266 5.61437 95.2655 5.56327C95.2646 5.51217 95.2589 5.47905 95.248 5.46391C95.2366 5.44924 95.2144 5.4218 95.1813 5.38159C95.0914 5.23065 95.0379 5.09155 95.0195 4.9638C95.0015 4.83606 94.9802 4.6908 94.9561 4.52757C94.9319 4.36433 94.8912 4.20678 94.8349 4.05443C94.7782 3.90255 94.71 3.75635 94.632 3.61488C94.6315 3.60494 94.6206 3.59028 94.5984 3.56993C94.6523 3.51741 94.657 3.47105 94.613 3.4313C94.4574 3.28226 94.3301 3.14789 94.2303 3.02819C94.13 2.90848 94.0183 2.76323 93.8958 2.5929C93.8063 2.46231 93.7117 2.35254 93.6119 2.26359C93.512 2.17417 93.4013 2.07528 93.2797 1.96646C93.1685 1.85717 93.0607 1.76348 92.9556 1.68447C92.8506 1.60593 92.737 1.52739 92.6159 1.44932L92.5994 1.41904C92.5762 1.34807 92.5426 1.31353 92.499 1.31447C92.3888 1.28751 92.2847 1.25249 92.1858 1.20944C92.0865 1.16638 91.9824 1.15692 91.8731 1.18058C91.6526 1.07507 91.3891 1.01687 91.0825 1.00599C91.0602 0.996524 91.0243 0.994631 90.9755 1.00173C90.9259 1.00835 90.8856 1.00693 90.852 0.997943C90.7314 0.970501 90.6103 0.938801 90.4901 0.901423C90.369 0.864518 90.237 0.847958 90.095 0.852216C89.9744 0.856475 89.8485 0.857894 89.7175 0.856948C89.5855 0.856001 89.4544 0.86783 89.3233 0.892433C89.1923 0.917036 89.0721 0.964351 88.9637 1.03438C88.8549 1.10487 88.7409 1.16212 88.6212 1.2066C88.5015 1.26196 88.3846 1.31164 88.2701 1.35611C88.1561 1.40106 88.0388 1.45074 87.9191 1.50562C87.8102 1.56051 87.7014 1.61539 87.5931 1.6698C87.4838 1.72469 87.0821 1.83919 86.9685 1.96173C84.8205 4.27728 86.3913 4.247 86.3913 4.247C86.3913 4.247 86.5928 4.07335 86.695 3.96642C86.8516 3.80224 86.9505 3.62766 86.9922 3.44171C87.0892 3.3362 87.1805 3.22596 87.2671 3.11004C87.3527 2.99507 87.4611 2.89382 87.5916 2.8077C87.7218 2.72159 87.8604 2.66103 88.0075 2.62507C88.1552 2.59006 88.2995 2.53423 88.4409 2.45758C88.5715 2.39229 88.7101 2.33409 88.8573 2.28346C89.0044 2.23237 89.1435 2.17937 89.2741 2.12402L89.2902 2.10793C89.312 2.11787 89.3314 2.12733 89.3479 2.13679C89.365 2.14673 89.3839 2.15146 89.4061 2.15051C89.4279 2.19073 89.4558 2.2106 89.4885 2.20965C89.5216 2.20824 89.5651 2.21202 89.6205 2.22054C89.7738 2.24656 89.8693 2.24609 89.9077 2.21959C89.9455 2.19262 90.0184 2.13111 90.1272 2.03554L90.1598 2.03412V2.04973C90.1712 2.07008 90.1958 2.09989 90.2351 2.13963C90.2743 2.17985 90.3127 2.21959 90.3519 2.25933C90.3907 2.29908 90.4291 2.33125 90.4683 2.35538C90.5067 2.37951 90.5365 2.3814 90.5582 2.36011C90.6126 2.33835 90.6453 2.30381 90.6557 2.25744C90.6661 2.2106 90.6704 2.16707 90.6699 2.12591C90.7475 2.1543 90.8293 2.16471 90.9169 2.15666C91.0039 2.14862 91.0863 2.13348 91.1624 2.1103L91.2126 2.13963C91.3328 2.13585 91.4562 2.15004 91.5826 2.18174C91.7089 2.21391 91.8163 2.26927 91.9053 2.34829C91.9389 2.40837 92.0056 2.47603 92.1049 2.54984C92.2048 2.62365 92.298 2.65393 92.385 2.64069L92.4021 2.67097C92.359 2.73342 92.3599 2.79493 92.4044 2.85502C92.4385 2.92599 92.4806 2.98655 92.5298 3.03576C92.5804 3.08544 92.6353 3.13275 92.6963 3.17675C92.7569 3.22123 92.8151 3.26523 92.8705 3.30971C92.9258 3.35418 92.9755 3.41143 93.0204 3.48193C93.0876 3.57183 93.1378 3.6726 93.1723 3.78426C93.2069 3.89593 93.2518 4.00238 93.3081 4.10316C93.364 4.20394 93.4307 4.29384 93.5087 4.37332C93.5863 4.45281 93.653 4.54318 93.7093 4.64396C93.7108 4.74663 93.7145 4.85167 93.7221 4.95907C93.7287 5.06647 93.7439 5.17057 93.7671 5.27229C93.7784 5.29264 93.7926 5.31771 93.8087 5.34799C93.8262 5.37827 93.8451 5.40808 93.8678 5.43836L93.935 5.55949C93.9241 5.57037 93.9024 5.58598 93.8702 5.60727C93.8376 5.62904 93.8215 5.64512 93.8215 5.65506C93.7784 5.70805 93.7571 5.75726 93.7576 5.80315C93.7585 5.84952 93.7533 5.90346 93.7439 5.96544L93.7268 5.98105L93.7439 5.99572C93.6895 6.03878 93.6956 6.07663 93.7619 6.11069C93.8276 6.14476 93.8721 6.17126 93.8943 6.19113L93.8778 6.1916C93.856 6.21289 93.8314 6.23418 93.8049 6.25548C93.7779 6.27677 93.7808 6.30232 93.8139 6.33165C93.8144 6.37329 93.8205 6.39836 93.8314 6.4083C93.8328 6.50056 93.8172 6.57579 93.785 6.63304C93.7529 6.69029 93.7377 6.74943 93.7382 6.81094C93.6843 6.86393 93.6275 6.95052 93.5688 7.07022C93.5106 7.18993 93.5144 7.27935 93.5811 7.33897C93.4619 7.44495 93.3564 7.55898 93.2655 7.67963C93.1737 7.80028 93.107 7.94317 93.0659 8.10876C92.9575 8.22468 92.8302 8.31837 92.6836 8.38981C92.5364 8.46125 92.3983 8.545 92.2677 8.64105C92.1054 8.75933 91.9776 8.85018 91.8854 8.91452C91.7931 8.97934 91.7065 9.03328 91.6247 9.07681C91.5433 9.12034 91.4482 9.15914 91.3394 9.19368C91.2296 9.22774 91.0773 9.26323 90.8809 9.30013C90.6841 9.33751 90.4925 9.36921 90.307 9.39523C90.121 9.42173 89.9299 9.44302 89.7331 9.45958C89.6891 9.461 89.6621 9.47709 89.6512 9.50831C89.5864 9.56178 89.4662 9.60389 89.2916 9.63512C89.1166 9.66634 88.8034 9.67864 88.7163 9.68148L88.7158 9.66634C88.7584 9.60341 88.7821 9.53623 88.7868 9.46431C88.7915 9.39239 88.8038 9.3148 88.8246 9.232C88.8653 8.98502 88.9585 8.66281 88.9997 8.45652C89.0409 8.25023 89.1696 8.04631 89.3863 7.84428C89.4506 7.78088 89.5187 7.74587 89.5897 7.7383C89.6612 7.73073 89.6957 7.67584 89.6943 7.57317C89.6933 7.48091 89.6569 7.42839 89.5855 7.41514C89.514 7.40237 89.4506 7.37114 89.3952 7.32146C89.3839 7.29118 89.3967 7.24954 89.4345 7.19702C89.4724 7.14498 89.5183 7.09199 89.5722 7.039C89.6261 6.986 89.6777 6.93301 89.726 6.88049C89.7752 6.8275 89.8097 6.78066 89.831 6.73855L89.8286 6.56964C89.8064 6.53936 89.7917 6.46839 89.7846 6.35578C89.778 6.24317 89.7742 6.16652 89.7738 6.12536C89.7951 6.10407 89.8059 6.07805 89.8055 6.04729C89.8268 6.01607 89.823 5.96781 89.7955 5.90204C89.7671 5.83627 89.7525 5.78281 89.752 5.74165L89.7681 5.71042C89.7671 5.63897 89.7686 5.54908 89.7728 5.4412C89.7771 5.3338 89.77 5.23113 89.7525 5.13461C89.7345 5.03761 89.7028 4.9463 89.6583 4.86066C89.6134 4.77502 89.5467 4.71304 89.4587 4.67471C89.4908 4.64301 89.5178 4.6009 89.5391 4.54886C89.5717 4.54791 89.5878 4.52709 89.5873 4.48593C89.62 4.42348 89.6105 4.34446 89.5599 4.24889C89.5093 4.15284 89.4426 4.07051 89.3593 4.00096C89.2765 3.93188 89.1857 3.88883 89.0868 3.87132C88.9879 3.85429 89.0361 3.98724 88.9718 4.07099C88.8805 3.8382 88.7698 3.73411 88.6387 3.75872C88.5076 3.78332 88.4215 3.89876 88.3808 4.10505C88.36 4.18785 88.3468 4.24463 88.342 4.27538C88.3364 4.30661 88.3349 4.36812 88.3364 4.45991L88.3534 4.52094C88.2876 4.52331 88.272 4.58766 88.3066 4.71493C88.3416 4.84221 88.3591 4.93636 88.36 4.99787C88.36 5.01821 88.3605 5.05133 88.361 5.0977C88.3619 5.1436 88.3728 5.17151 88.395 5.18097C88.3302 5.24485 88.2649 5.30304 88.2001 5.35604C88.1353 5.40997 88.185 5.46959 88.3506 5.5363L88.351 5.5822C88.3293 5.60349 88.316 5.62431 88.3108 5.64512C88.3051 5.66594 88.3141 5.68629 88.3364 5.70569C88.3586 5.74638 88.3756 5.78659 88.387 5.82728C88.3988 5.86797 88.4154 5.90819 88.4381 5.94841C88.4168 6.00045 88.4012 6.03688 88.3903 6.0577C88.3794 6.07852 88.3747 6.11448 88.3752 6.16558L88.3922 6.19586V6.21147C88.3042 6.21384 88.2611 6.24128 88.2621 6.29238C88.2294 6.32408 88.2133 6.35531 88.2138 6.38606L88.1651 6.44899C88.1656 6.46981 88.1632 6.49063 88.1585 6.51097C88.1523 6.53179 88.1613 6.55213 88.1835 6.57153L88.184 6.58715C88.1509 6.58809 88.1287 6.60418 88.1187 6.63541C88.1192 6.68651 88.1225 6.73524 88.1287 6.78113C88.1348 6.82703 88.1381 6.87576 88.1391 6.92686C88.0738 6.96992 88.0634 7.02669 88.1083 7.09672C88.1107 7.27131 88.0828 7.45914 88.0255 7.66117C87.9678 7.86273 87.8963 8.06713 87.8116 8.27484C87.727 8.48255 87.6418 8.68552 87.5571 8.88282C87.4724 9.08059 87.3977 9.26181 87.3347 9.42788C87.2245 9.42126 87.1341 9.39618 87.0622 9.35218C86.9903 9.30818 86.9217 9.26133 86.8554 9.21213C86.7887 9.16339 86.723 9.11655 86.6562 9.07255C86.59 9.02855 86.5124 8.99259 86.4249 8.96468C86.3913 8.92446 86.3312 8.8956 86.2432 8.87809C86.2867 8.86626 86.3189 8.83977 86.3407 8.79813L86.3402 8.76738C86.2948 8.68694 86.2318 8.62496 86.149 8.58143C86.0658 8.5379 85.9863 8.50715 85.9096 8.4887C85.9082 8.39643 85.8439 8.32452 85.718 8.272C85.5912 8.21995 85.4843 8.20008 85.3967 8.21286C85.3419 8.22516 85.2827 8.26774 85.2174 8.34155C85.1526 8.41536 85.1043 8.47356 85.0722 8.51519L85.0556 8.51567C85.0234 8.53743 84.9908 8.56393 84.9581 8.59563C84.926 8.62733 84.9316 8.66329 84.9761 8.70303C84.9766 8.73378 84.9823 8.77495 84.9941 8.8251C85.0059 8.8762 85.0168 8.91689 85.0286 8.94717C84.9411 8.95001 84.8753 8.98265 84.8332 9.04558C84.7907 9.16008 84.8162 9.24383 84.9104 9.29729C85.0036 9.35028 85.084 9.41179 85.1507 9.48182C85.0963 9.51399 85.0831 9.54758 85.111 9.58307C85.1384 9.61808 85.18 9.63417 85.2349 9.63275C85.3915 9.90433 85.5368 10.1049 85.6697 10.2341C85.8027 10.3633 86.0345 10.4636 86.3638 10.535C86.4514 10.5525 86.5394 10.5781 86.6274 10.6112C86.7154 10.6443 86.8091 10.6746 86.908 10.702C86.8214 10.7867 86.7868 10.8804 86.8048 10.9821C86.8228 11.0843 86.8095 11.1463 86.766 11.1681C86.6785 11.1705 86.6354 11.2234 86.6368 11.3261C86.6056 11.4189 86.5791 11.4969 86.5578 11.5589C86.537 11.6214 86.5157 11.6786 86.4944 11.7302C86.4731 11.7822 86.4438 11.8371 86.4064 11.8944C86.3686 11.9521 86.3123 12.0178 86.2366 12.0921C86.2148 12.1134 86.177 12.148 86.123 12.1957C86.0691 12.2435 86.053 12.2823 86.0757 12.3126V12.3278L86.0591 12.3438C86.0596 12.3642 86.0814 12.394 86.1263 12.4337C86.0421 12.703 85.9333 12.9499 85.7994 13.1747C85.665 13.3994 85.5122 13.6218 85.34 13.8423C85.2539 13.9582 85.1895 14.0807 85.1479 14.2104C85.1058 14.3395 85.0414 14.4569 84.9553 14.5619C84.8692 14.6674 84.7774 14.7602 84.6799 14.8401C84.5825 14.9201 84.485 15.0029 84.3875 15.0876C84.3535 14.9859 84.2976 14.896 84.22 14.816C84.142 14.7365 84.0426 14.6887 83.9224 14.6717C83.7971 14.3272 83.8893 13.9047 83.6466 13.7041C82.8929 13.0829 82.3317 14.3022 82.3171 14.384C82.3015 14.4668 82.2896 14.552 82.2792 14.6395C82.2698 14.7266 82.2759 14.8136 82.2991 14.8997C82.3223 14.9863 82.3947 15.0635 82.5158 15.1316C82.5186 15.3365 82.5697 15.4883 82.6696 15.5877C82.7694 15.687 82.8971 15.7907 83.0514 15.8985L83.0679 15.8981C83.1006 15.9175 83.1366 15.9345 83.1754 15.9487C83.2142 15.9629 83.244 15.9847 83.2667 16.0149L83.2671 16.0608C83.2132 16.1138 83.2302 16.1644 83.3182 16.2132C83.4067 16.2614 83.516 16.2581 83.6471 16.2028C83.7242 16.2411 83.8037 16.2747 83.8865 16.3026C83.9683 16.331 84.0535 16.3334 84.141 16.3102C84.1865 16.4521 84.3762 16.4762 84.4254 16.454C84.4741 16.4322 84.5148 16.3897 84.547 16.3272C84.5787 16.2648 84.6331 16.2586 84.6326 16.2174C84.6762 16.2165 84.7145 16.2051 84.7471 16.1834C84.7793 16.1616 84.8172 16.1398 84.8612 16.1181C85.2411 15.8702 85.5609 15.6218 85.8202 15.3729C86.0795 15.124 86.3161 14.8065 86.5299 14.42C86.5943 14.3055 86.6529 14.1834 86.7064 14.0533C86.7589 13.9232 86.8176 13.7959 86.8819 13.671C86.9567 13.556 87.0376 13.4458 87.1237 13.3403C87.2098 13.2352 87.2794 13.1203 87.3328 12.9954C87.3428 12.9641 87.3773 12.8861 87.436 12.7612C87.4946 12.6367 87.5557 12.5066 87.62 12.3713C87.6839 12.236 87.7426 12.1111 87.7956 11.9966C87.849 11.8821 87.8755 11.8149 87.8751 11.7941C87.8741 11.7325 87.8462 11.6876 87.7908 11.6583C87.8017 11.6171 87.8254 11.5551 87.8627 11.4718C87.8997 11.3886 87.9422 11.3025 87.9905 11.214C88.0388 11.1255 88.087 11.047 88.1353 10.9788C88.184 10.9107 88.2351 10.8705 88.2895 10.8582C88.3004 10.8478 88.3113 10.8402 88.3226 10.8345C88.3331 10.8288 88.3435 10.8156 88.3548 10.7948C88.4092 10.7934 88.4807 10.7806 88.5677 10.7574C88.7967 10.7191 89.0238 10.6869 89.2481 10.659C89.4719 10.6315 89.6938 10.6552 89.9143 10.73C90.0359 10.8393 90.1017 10.8653 90.1125 10.8085C90.122 10.7517 90.149 10.6973 90.1925 10.6443C90.3008 10.5998 90.421 10.5809 90.5525 10.5871C90.6846 10.5932 90.8099 10.5838 90.9301 10.5596C91.0943 10.5341 91.293 10.4792 91.5277 10.3945C91.7619 10.3103 91.9441 10.2251 92.0742 10.139C92.0964 10.1589 92.1158 10.1712 92.1319 10.1754C92.1489 10.1802 92.1678 10.1873 92.1901 10.1967C92.3973 10.1286 92.5653 10.0264 92.6954 9.88872C92.8246 9.75151 92.9651 9.61855 93.117 9.49081C93.2357 9.39476 93.3635 9.31149 93.4993 9.24052C93.6355 9.16955 93.7628 9.07586 93.882 8.95947C94.1087 8.73662 94.3027 8.51046 94.464 8.27957C94.561 8.16412 94.6329 8.03354 94.6807 7.88828Z" fill="black"/>
</svg>
