<svg width="115" height="32" viewBox="0 0 115 32" fill="none" xmlns="http://www.w3.org/2000/svg">
<g clip-path="url(#clip0)">
<path d="M9.12384 18.1254C8.22906 17.6389 7.0722 17.4406 6.14372 17.276L5.75061 17.2086C4.77345 17.0477 3.84872 16.8943 3.16359 16.58C2.41107 16.2357 2.06288 15.7493 2.06288 15.0421C2.06288 13.2348 3.99847 12.8569 5.62332 12.8569C6.72402 12.8569 7.81349 13.0964 8.76818 13.5454C8.80561 13.5641 8.82808 13.6015 8.82808 13.6464V15.0421C8.82808 15.3489 9.07892 15.5996 9.38966 15.5996C9.69291 15.5996 9.93627 15.3639 9.9475 15.0608L10.0037 13.2498C10.0111 13.0402 9.89508 12.8382 9.71163 12.7409C8.46867 12.0748 7.0984 11.7269 5.74686 11.7269H5.62706C2.59826 11.7269 0.864842 12.9355 0.864842 15.0458C0.864842 17.6277 3.71019 18.0692 5.59711 18.3611C6.84756 18.5444 7.75358 18.7278 8.42374 19.0571C9.17252 19.4275 9.5207 19.9551 9.5207 20.7147C9.5207 22.9747 6.3384 23.0907 5.70194 23.0907C4.53385 23.0907 3.11866 22.7203 2.00673 22.1254C1.99007 22.1153 1.97642 22.101 1.9672 22.0839C1.95798 22.0668 1.95353 22.0475 1.95431 22.0281V20.5725C1.95431 20.2395 1.66978 19.985 1.31785 20.0187C1.03332 20.0449 0.819916 20.2956 0.819916 20.5837V22.4733C0.819916 22.6791 0.932232 22.87 1.11568 22.9673C2.6357 23.7792 3.81128 24.2208 5.65327 24.2208C6.2785 24.2208 7.48777 24.1534 8.57349 23.6969C9.95499 23.1169 10.6626 22.1216 10.6776 20.7371C10.6888 19.5547 10.1834 18.7016 9.12384 18.1254V18.1254ZM25.1477 11.9588H21.2578C20.9358 11.9588 20.6775 12.232 20.6962 12.5613C20.7112 12.8531 20.9845 13.0889 21.2765 13.0889H22.4558C22.482 13.0889 22.5082 13.0964 22.5269 13.1151C22.5644 13.1487 22.5756 13.1974 22.5569 13.2385L20.0485 19.4013L18.9815 22.159C18.9553 22.2226 18.8954 22.2301 18.8804 22.2301C18.8317 22.2301 18.798 22.2039 18.7793 22.1628L17.6973 19.4687L15.0354 13.246C15.0205 13.2124 15.0242 13.1749 15.0467 13.1413C15.0691 13.1113 15.0991 13.0926 15.1365 13.0926H16.3495C16.6715 13.0926 16.9298 12.8195 16.9111 12.4902C16.8961 12.1983 16.6228 11.9626 16.3308 11.9626H12.3249C12.0029 11.9626 11.7446 12.2357 11.7633 12.565C11.7783 12.8569 12.0516 13.0926 12.3436 13.0926H13.6577C13.7026 13.0926 13.7401 13.1188 13.7588 13.16L18.2739 23.6707C18.2851 23.6969 18.2851 23.7306 18.2739 23.7568L16.7015 27.4051C16.3121 28.2769 15.7505 28.7371 15.0766 28.7371C14.6685 28.7371 14.223 28.5762 13.755 28.2619C13.6689 28.2021 13.5641 28.1721 13.4518 28.1721C13.2608 28.1721 13.0811 28.2657 12.98 28.4191L12.9463 28.4715C12.864 28.5987 12.8378 28.7484 12.8677 28.8943C12.9014 29.0402 12.9875 29.1637 13.1111 29.246C13.77 29.6763 14.4289 29.8934 15.0616 29.8934C16.2672 29.8934 17.263 29.1188 17.7947 27.768L23.9047 13.1562C23.9234 13.1151 23.9608 13.0889 24.0058 13.0889H25.1701C25.4921 13.0889 25.7504 12.8157 25.7317 12.4864C25.7092 12.1983 25.4397 11.9588 25.1477 11.9588V11.9588ZM34.9154 18.1254C34.0207 17.6389 32.8638 17.4406 31.9353 17.276L31.5422 17.2086C30.5651 17.0477 29.6403 16.8943 28.9552 16.58C28.2027 16.2357 27.8545 15.7493 27.8545 15.0421C27.8545 13.2348 29.7901 12.8569 31.4149 12.8569C32.5194 12.8569 33.6051 13.0964 34.5598 13.5454C34.5972 13.5641 34.6197 13.6015 34.6197 13.6464V15.0421C34.6197 15.3714 34.9117 15.637 35.2561 15.5921C35.5145 15.5585 35.7316 15.3003 35.7391 15.0384L35.7915 13.246C35.799 13.0365 35.6829 12.8344 35.4995 12.7371C34.2565 12.0711 32.8863 11.7231 31.5347 11.7231H31.4149C28.3861 11.7231 26.6527 12.9317 26.6527 15.0421C26.6527 17.624 29.498 18.0655 31.385 18.3573C32.6354 18.5407 33.5414 18.724 34.2116 19.0533C34.9604 19.4238 35.3085 19.9514 35.3085 20.7109C35.3085 22.971 32.1262 23.087 31.4898 23.087C30.3217 23.087 28.9065 22.7166 27.7946 22.1216C27.7779 22.1116 27.7643 22.0973 27.7551 22.0801C27.7458 22.063 27.7414 22.0437 27.7422 22.0243V20.5688C27.7422 20.2357 27.4576 19.9813 27.1057 20.015C26.8212 20.0412 26.6078 20.2919 26.6078 20.58V22.4696C26.6078 22.6754 26.7201 22.8662 26.9035 22.9635C28.4236 23.7755 29.5991 24.217 31.4411 24.217C32.0663 24.217 33.2756 24.1497 34.3613 23.6932C35.7428 23.1132 36.4504 22.1179 36.4654 20.7334C36.4804 19.5547 35.975 18.7016 34.9154 18.1254V18.1254ZM45.4095 22.6268C45.3347 22.6268 45.2635 22.6417 45.1961 22.6717C44.5747 22.9411 43.8933 23.1132 43.459 23.1132C41.6881 23.1132 41.3662 22.1852 41.3662 20.3592V13.0028L41.3699 12.9991H44.9977C45.3122 12.9991 45.5668 12.7184 45.5219 12.3892C45.4882 12.1385 45.2336 11.9364 44.9827 11.9364H41.3699L41.3662 11.9327V8.8232C41.3662 8.5725 41.164 8.37044 40.9169 8.37044C40.9019 8.37044 40.8832 8.37044 40.8682 8.37419L40.6174 8.40038C40.3853 8.42283 40.2093 8.6174 40.2093 8.8494V11.9327L40.2055 11.9364H38.1839C37.8694 11.9364 37.6148 12.217 37.6597 12.5463C37.6934 12.797 37.948 12.9991 38.1988 12.9991H40.2018L40.2055 13.0028V20.3592C40.2055 21.1899 40.2692 22.2414 40.7671 23.0122C41.2838 23.8129 42.1786 24.2095 43.5039 24.2208C44.1142 24.2208 44.9116 24.0262 45.6342 23.6969C45.7427 23.6483 45.8363 23.5697 45.8925 23.4687C45.9936 23.2965 45.9936 23.0945 45.9037 22.9224C45.8139 22.7428 45.6192 22.6268 45.4095 22.6268ZM52.6951 11.7942C49.2096 11.7942 46.6787 14.4135 46.6787 18.0206C46.6787 22.2339 49.8086 24.1534 52.7176 24.1534C54.7056 24.1534 56.6225 23.3527 57.7232 22.0655C57.8243 21.9457 57.8729 21.7923 57.8542 21.6352C57.8355 21.478 57.7531 21.3396 57.6183 21.2423C57.5249 21.1739 57.4121 21.1372 57.2964 21.1375C57.1316 21.1375 56.9781 21.2049 56.877 21.3246C55.9972 22.3386 54.3275 23.0196 52.7176 23.0196C49.3855 23.0196 48.004 20.4939 47.8356 18.3349C47.8318 18.2638 47.8243 18.0505 47.8243 17.9757C47.8243 17.9121 47.8356 17.71 47.8356 17.7063C48.0303 14.8064 49.9359 12.928 52.6951 12.928C54.2414 12.928 55.4619 13.3171 56.3192 14.0842C57.1766 14.8513 57.6221 15.9476 57.6483 17.3471C57.6483 17.3807 57.6371 17.4107 57.6146 17.4331C57.5921 17.4556 57.5659 17.4668 57.536 17.4668H49.8348C49.5203 17.4668 49.2657 17.7362 49.2845 18.058C49.2994 18.3424 49.569 18.5781 49.8535 18.5781H58.1986C58.4907 18.5781 58.7378 18.3499 58.7527 18.0617C58.8725 16.2095 58.4083 14.7091 57.3675 13.6015C56.2855 12.4341 54.6232 11.7942 52.6951 11.7942V11.7942ZM77.0004 11.8952C76.5324 11.7792 76.0532 11.7231 75.5777 11.7231C73.5673 11.7231 71.8938 12.7409 71.1001 14.4509C70.3812 12.7559 68.674 11.7456 66.5213 11.7456C64.8777 11.7456 63.5337 12.3892 62.7325 13.5603V12.4004C62.7325 12.1572 62.5341 11.9588 62.2907 11.9588H59.8609C59.5202 11.9588 59.2507 12.2619 59.2956 12.6137C59.333 12.8831 59.6063 13.1038 59.8759 13.1038H61.5344V23.7456C61.5344 23.9888 61.7329 24.1871 61.9762 24.1871H62.2907C62.5341 24.1871 62.7325 23.9888 62.7325 23.7456V16.8457C62.7325 14.5744 64.2562 12.9841 66.5213 12.8906C68.8762 12.8906 70.5235 14.5182 70.5235 16.8457V23.6221C70.5235 23.9626 70.8268 24.232 71.1787 24.1871C71.4482 24.1497 71.6691 23.8765 71.6691 23.6071V16.8457C71.6691 14.5033 73.2752 12.8681 75.5777 12.8681C77.9289 12.8681 79.5088 14.4284 79.5088 16.7484V23.7493C79.5088 23.9925 79.7072 24.1908 79.9506 24.1908H80.2651C80.5084 24.1908 80.7069 23.9925 80.7069 23.7493V16.6922C80.7031 14.2563 79.3179 12.4602 77.0004 11.8952V11.8952ZM98.9134 14.8438C97.9549 17.3733 98.0036 19.8092 99.0631 21.8971C99.2466 22.2563 99.4562 22.608 99.6921 22.9373C100.909 24.6548 102.728 25.7923 104.814 26.1441C105.027 26.1815 105.244 26.2077 105.454 26.2264C105.686 26.2488 105.926 26.2563 106.162 26.2563C107.801 26.2563 109.378 25.7661 110.718 24.8382C112.447 23.6408 113.589 21.8485 113.934 19.7979C114.278 17.7474 113.784 15.682 112.545 13.9832C111.309 12.2919 109.479 11.1693 107.389 10.8176C107.27 10.7989 107.15 10.7802 107.034 10.7652C106.742 10.7315 106.442 10.8251 106.225 11.0196C106.012 11.2105 105.888 11.4762 105.881 11.7605C105.872 12.0182 105.96 12.2698 106.128 12.4657C106.296 12.6617 106.531 12.7878 106.787 12.8195C106.873 12.8307 106.963 12.8419 107.049 12.8569C108.591 13.1151 109.943 13.9457 110.86 15.188C111.781 16.4378 112.148 17.9495 111.893 19.4537C111.654 20.8718 110.879 22.1328 109.707 23.0084C108.677 23.7792 107.453 24.1834 106.162 24.1834C105.986 24.1834 105.806 24.1759 105.63 24.1609C104.791 24.0911 103.977 23.8393 103.245 23.4232C102.513 23.007 101.881 22.4364 101.392 21.7512C100.886 21.0396 100.554 20.2194 100.422 19.3564C100.164 17.6576 100.677 15.4986 101.789 13.5791C101.796 13.5641 101.98 13.2348 102.275 12.7035C103.597 10.3124 107.592 3.09448 107.936 2.45463L108.037 2.14781C108.194 1.67634 107.992 1.15997 107.554 0.920491L107.532 0.909265C107.378 0.823203 107.206 0.782043 107.034 0.782043C106.723 0.782043 106.435 0.916749 106.236 1.15622L106.045 1.38822L100.029 12.3742C99.6472 13.1413 99.2428 13.9794 98.9134 14.8438V14.8438ZM85.9146 31.0758L85.9408 31.0907C86.098 31.1768 86.274 31.218 86.45 31.218C86.8506 31.218 87.2137 31.0009 87.4047 30.6492L97.8276 11.3265C98.086 10.8475 97.9437 10.2526 97.5057 9.93827L97.4907 9.92704C97.3409 9.8073 97.0452 9.72124 96.7981 9.72124H83.1441C82.635 9.72124 82.2119 10.1366 82.1969 10.6455V10.6829C82.1932 10.8588 82.2419 11.0346 82.3392 11.188L85.0273 15.7119C85.1123 15.8472 85.2306 15.9584 85.3709 16.0351C85.5111 16.1117 85.6687 16.1512 85.8285 16.1497C86.0082 16.1497 86.1879 16.0973 86.3451 16C86.5698 15.8578 86.727 15.6483 86.7869 15.4013C86.8506 15.1506 86.8094 14.8962 86.6746 14.6791L84.8663 11.6333H95.1732L85.4728 29.6127C85.338 29.8672 85.3081 30.159 85.3905 30.4359C85.4728 30.7128 85.66 30.9411 85.9146 31.0758Z" fill="#554741"/>
<path d="M112.421 31.1918H99.8755C99.269 31.1918 98.7785 30.7016 98.7785 30.0954V30.073C98.7785 29.4668 99.269 28.9766 99.8755 28.9766H112.421C113.028 28.9766 113.518 29.4668 113.518 30.073V30.0954C113.518 30.7016 113.028 31.1918 112.421 31.1918Z" fill="#FAA41A"/>
</g>
<defs>
<clipPath id="clip0">
<rect width="114.855" height="32" fill="white"/>
</clipPath>
</defs>
</svg>
