<svg width="52" height="37" viewBox="0 0 52 37" fill="none" xmlns="http://www.w3.org/2000/svg">
<path d="M36.147 12.6213C35.985 13.1032 35.837 13.5363 35.705 13.9201C35.573 14.3039 35.4459 14.6761 35.324 15.0379C35.2024 15.3996 35.1005 15.7676 35.0186 16.1403C34.9377 16.5131 34.8868 16.9297 34.8666 17.3898C35.1316 17.3686 35.3613 17.1717 35.5549 16.7974C35.7482 16.4252 35.8759 16.0852 35.9375 15.7782C36.019 15.3393 36.1057 14.896 36.1982 14.4461C36.2892 13.9976 36.3354 13.5311 36.3354 13.0486C36.3354 12.9384 36.3198 12.8014 36.2879 12.6366C36.2576 12.4731 36.2101 12.4672 36.147 12.6213V12.6213ZM41.0527 13.3115C41.3235 13.3115 41.4482 13.3935 41.4277 13.558C41.4071 13.7222 41.3967 13.9366 41.3967 14.1989C41.3967 14.2433 41.3915 14.315 41.3805 14.4127C41.3698 14.5122 41.344 14.6488 41.3024 14.8241C41.2468 15.0646 41.1947 15.3059 41.1461 15.5479C41.084 15.8551 40.9896 16.2383 40.8653 16.699C40.4686 18.3871 40.0419 19.8783 39.5842 21.1713C39.3545 21.8078 39.1312 22.3503 38.9128 22.799C38.6938 23.249 38.4803 23.6276 38.2729 23.9336C37.7096 24.7671 37.001 25.1834 36.147 25.1834C35.1892 25.1834 34.367 24.6572 33.6784 23.605C33.0541 22.6189 32.7417 21.4234 32.7417 20.0207C32.7417 18.8797 32.8198 17.7295 32.9766 16.5673C33.1319 15.4045 33.336 14.364 33.5853 13.4432C33.6683 13.1145 33.7676 12.7745 33.8818 12.4234C33.9898 12.0866 34.1315 11.7616 34.3048 11.4533C34.4703 11.1568 34.6577 10.9164 34.8663 10.7301C35.0749 10.5439 35.3243 10.4495 35.6162 10.4495C36.1988 10.4495 36.7404 10.6799 37.2412 11.1412C37.47 11.3826 37.6575 11.6776 37.8033 12.0286C37.9482 12.3796 38.0214 12.6863 38.0214 12.9494C38.0214 13.3883 37.9803 13.8702 37.8983 14.3964C37.8162 14.9227 37.7129 15.4434 37.5889 15.959C37.4645 16.4736 37.3254 16.9453 37.1707 17.3726C37.0167 17.8005 36.8565 18.1458 36.6907 18.4089C36.5875 18.6059 36.4429 18.804 36.2576 19.0013C36.0723 19.1983 35.8812 19.3573 35.6848 19.4773C35.4891 19.5986 35.3037 19.6648 35.1279 19.6752C34.9521 19.6868 34.8029 19.6048 34.6792 19.428C34.6375 19.6044 34.6274 19.8348 34.6485 20.1191C34.6687 20.4042 34.6997 20.6833 34.7416 20.9571C34.7833 21.2322 34.836 21.4895 34.8982 21.7303C34.961 21.9714 35.0124 22.1478 35.0547 22.2572C35.2164 22.63 35.4296 22.9096 35.6934 23.0949C35.9574 23.2821 36.1406 23.3755 36.242 23.3755C36.45 23.3755 36.6653 23.1822 36.9364 22.9167C37.2734 22.5874 37.777 21.7432 38.0309 21.0539C38.4276 19.9831 38.3666 20.2067 38.804 19.1327C39.2412 18.0588 39.6363 16.907 39.9904 15.6787C40.0532 15.4388 40.1099 15.2027 40.1626 14.9723C40.2152 14.7426 40.2728 14.5064 40.335 14.265C40.4379 13.63 40.6781 13.3115 41.0527 13.3115" fill="#302E6B"/>
<path d="M37.9791 21.1853C38.48 19.9659 39.2819 17.5208 39.3441 17.2586C39.4063 16.9955 39.5006 16.6334 39.6259 16.1721C39.8967 15.0988 40.0327 14.2322 40.0327 13.5749C40.0327 13.5304 40.0211 13.4266 40.0005 13.263C39.9803 13.0982 39.9172 12.8627 39.8134 12.5557C39.6054 12.0289 39.5006 11.5575 39.5006 11.1409C39.5006 10.6802 39.5426 10.3086 39.6259 10.0231C39.7092 9.73823 39.8131 9.5137 39.9383 9.34859C40.0636 9.18379 40.2033 9.06954 40.3601 9.00337C40.5167 8.93812 40.6668 8.90382 40.8132 8.90382C40.8962 8.90382 41.0003 8.92066 41.125 8.95405C41.2509 8.98622 41.3704 9.0579 41.4859 9.16786C41.6001 9.27814 41.704 9.43651 41.798 9.64541C41.8917 9.8534 41.9493 10.1214 41.9698 10.4498C41.9904 10.67 41.9698 11.0536 41.9071 11.6016C41.8654 11.9082 41.8443 12.1391 41.8443 12.2914V12.6531C41.8654 12.6982 41.9496 12.7745 42.0945 12.8841C42.24 12.9938 42.5424 13.169 43.0003 13.4098C44.1254 13.9807 44.6881 14.715 44.6881 15.6137C44.6881 15.6575 44.6823 15.7402 44.6713 15.8609C44.6612 15.981 44.6517 16.1623 44.6403 16.4025C44.6302 16.6445 44.6045 16.9728 44.5628 17.3894C44.5086 17.9263 44.4563 18.4634 44.406 19.0007C44.3719 19.3846 44.3355 19.7683 44.2969 20.1518C44.2663 20.4597 44.2394 20.7111 44.2188 20.9084C44.1977 21.1054 44.1821 21.2705 44.172 21.4016C44.1612 21.5333 44.1566 21.6647 44.1566 21.7955C44.1566 22.3224 44.2084 22.6517 44.3132 22.7825C44.4173 22.9148 44.5206 22.9807 44.6253 22.9807C44.6747 22.9221 44.7215 22.8615 44.7656 22.799C44.8388 22.7004 44.9319 22.5249 45.0474 22.2734C45.1617 22.0222 45.2977 21.6803 45.4542 21.2539C45.6526 20.7025 45.8452 20.1489 46.0319 19.5934C46.7389 17.4437 47.1763 15.7889 47.3433 14.6268C47.4061 14.1229 47.5304 13.7933 47.7188 13.6398C47.906 13.4869 48.0827 13.4094 48.2494 13.4094C48.3327 13.4094 48.4727 13.4594 48.6715 13.5568C48.8693 13.6563 48.968 13.9354 48.968 14.3961C48.968 15.1634 48.5303 16.9949 47.6566 19.8887C47.3019 20.9847 46.9892 21.8611 46.7187 22.5197C46.4479 23.1773 46.2038 23.6818 45.9848 24.0322C45.7663 24.3833 45.5679 24.6133 45.3911 24.7227C45.2131 24.833 45.0517 24.8875 44.9065 24.8875C44.0525 24.8875 43.355 24.3833 42.8134 23.3746C42.7301 23.2658 42.6517 23.0462 42.5797 22.7172C42.5053 22.3885 42.4489 21.8179 42.4073 21.0077V15.6465C42.4073 15.6027 42.3656 15.4982 42.2823 15.3334C42.199 15.1692 41.9702 14.9564 41.5958 14.6923C41.4705 15.395 40.381 18.9998 39.8615 20.357L37.9791 21.1853ZM51.9482 23.2759C51.9482 23.4138 51.8955 23.5994 51.7916 23.831C51.6875 24.0644 51.5518 24.2902 51.3821 24.5098C51.2205 24.7208 51.0294 24.9075 50.8148 25.0642C50.6068 25.2149 50.3991 25.29 50.1911 25.29C50.0144 25.2923 49.8422 25.2344 49.7028 25.1258C49.5583 25.0171 49.4872 24.8516 49.4872 24.6332C49.4872 24.0852 49.6636 23.6052 50.0153 23.1948C50.3663 22.7825 50.7633 22.5772 51.2062 22.5772C51.3361 22.5772 51.4927 22.6259 51.6746 22.7218C51.8572 22.8171 51.9482 23.0027 51.9482 23.2759V23.2759ZM8.43569 6.74152C8.7273 6.78624 8.87342 6.95073 8.87342 7.235V7.46596C8.87342 7.57562 8.84187 7.67334 8.77938 7.76186C8.7172 7.84978 8.58119 7.93708 8.3732 8.02438C8.16429 8.11229 7.69593 8.22134 6.9672 8.35275C6.48781 8.46303 6.09266 8.52919 5.77991 8.54971C5.46747 8.57208 5.19699 8.58372 4.96786 8.58372L3.99929 8.64896C3.95732 8.9562 3.91015 9.44416 3.85869 10.1119C3.79186 10.9406 3.71364 11.7684 3.62405 12.5949C3.55454 13.274 3.49205 13.9538 3.43658 14.6341C3.39462 15.161 3.35847 15.5776 3.32753 15.8836C3.3041 16.1025 3.28327 16.3218 3.26504 16.5412C3.25402 16.673 3.24942 16.7609 3.24942 16.805C3.24942 17.8566 3.25432 18.7066 3.26504 19.3539C3.27485 20.0005 3.29047 20.4447 3.31191 20.686C3.37409 21.3878 3.46231 21.8479 3.57718 22.0675C3.69144 22.2862 3.76955 22.3959 3.81182 22.3959C3.89453 22.3515 3.97784 22.2758 4.06178 22.1655C4.14448 22.0565 4.24373 21.9027 4.3586 21.7055C4.47255 21.5085 4.61315 21.223 4.7804 20.8502C5.00922 20.2578 5.25366 19.5076 5.51433 18.5972C5.7744 17.6875 6.03967 16.6295 6.31076 15.4238C6.37294 15.1389 6.43543 14.8969 6.49884 14.7C6.56102 14.503 6.61249 14.3278 6.65506 14.1743C6.69642 14.0647 6.76411 13.9228 6.85815 13.7464C6.95219 13.5712 7.10259 13.4833 7.31089 13.4833C7.49805 13.4833 7.67571 13.5549 7.84174 13.6968C8.00838 13.8404 8.092 14.0971 8.092 14.4699C8.092 14.8871 7.99796 15.5169 7.8108 16.3614C7.62364 17.2053 7.32161 18.2845 6.90471 19.6004C6.36284 21.2889 5.83689 22.5322 5.32717 23.3332C4.81654 24.1339 4.28049 24.5331 3.71778 24.5331C2.92656 24.5331 2.29065 23.8981 1.81248 22.6259C1.39528 21.4858 1.18759 20.0716 1.18759 18.3837C1.18759 17.8357 1.25437 16.7829 1.39038 15.2262C1.52516 13.6695 1.73897 11.4989 2.03058 8.7139C1.84312 8.75862 1.66576 8.75311 1.49943 8.69797C1.33279 8.64406 1.21853 8.59413 1.15574 8.5491C1.11438 8.52858 1.06231 8.48386 0.999515 8.4183C0.937027 8.35214 0.823383 8.28689 0.656439 8.22073C0.363906 8.11168 0.181953 7.97506 0.109049 7.80996C0.0358393 7.64516 0 7.50915 0 7.39857C0 7.33333 0.0358393 7.21754 0.109049 7.05396C0.181953 6.88916 0.426395 6.76327 0.843293 6.67535C0.968577 6.65361 1.07273 6.63737 1.15543 6.62604L1.40508 6.59326C1.48871 6.58162 1.58734 6.57151 1.70221 6.56049C1.81677 6.54885 1.96779 6.53292 2.15495 6.51056C2.17608 6.26979 2.19691 5.97358 2.21835 5.62254C2.23857 5.27272 2.25971 4.86747 2.28054 4.40584L2.12431 3.84681C2.12431 3.7154 2.13504 3.61646 2.15525 3.55122C2.32189 3.20079 2.58226 3.02496 2.93698 3.02496C3.31191 3.02496 3.84276 3.25531 4.53014 3.7154C4.65542 3.82568 4.7176 3.9574 4.7176 4.10933V4.96457C4.67406 5.21196 4.62729 5.45877 4.57731 5.70494C4.52462 5.95704 4.46765 6.23609 4.40516 6.54364H4.67104C4.70198 6.54364 4.72832 6.54884 4.74885 6.56018C4.76968 6.57121 4.82144 6.58131 4.90507 6.59295C4.98808 6.60398 5.17585 6.6098 5.46747 6.6098C5.73764 6.6098 5.95206 6.61501 6.10767 6.62573C6.2639 6.63737 6.43053 6.64809 6.6085 6.65851C6.78494 6.67015 7.00855 6.68026 7.27995 6.6919C7.55012 6.70384 7.93608 6.72038 8.43569 6.74152" fill="#302E6B"/>
<path d="M8.93537 12.694C8.78911 13.1275 8.64167 13.5607 8.49304 13.9934C8.3645 14.3654 8.23758 14.738 8.11229 15.1112C7.99001 15.4727 7.88795 15.8407 7.80658 16.2136C7.72572 16.5864 7.67456 17.003 7.65465 17.4631C7.91962 17.4419 8.14874 17.245 8.34264 16.8707C8.53685 16.4979 8.66336 16.1585 8.72523 15.8518C8.80671 15.4129 8.89371 14.9696 8.9856 14.5197C9.0775 14.0712 9.12345 13.6047 9.12345 13.1222C9.12345 13.012 9.10782 12.875 9.07627 12.7102C9.04533 12.5464 8.99847 12.5408 8.93537 12.694ZM13.8404 13.3851C14.1112 13.3851 14.2359 13.4675 14.2154 13.6316C14.1945 13.7958 14.1838 14.0096 14.1838 14.2728C14.1838 14.3172 14.1786 14.3883 14.1688 14.4863C14.1575 14.5858 14.132 14.7224 14.0907 14.8977C14.0347 15.1379 13.9826 15.379 13.9345 15.6209C13.872 15.9287 13.7779 16.3119 13.6533 16.772C13.2575 18.4611 12.8305 19.9522 12.3723 21.2452C12.1428 21.8817 11.9195 22.4239 11.7008 22.873C11.4821 23.3229 11.2683 23.7006 11.0609 24.0072C10.4979 24.841 9.78999 25.2567 8.93598 25.2567C7.97812 25.2567 7.15535 24.7311 6.46767 23.6789C5.84309 22.6925 5.53003 21.4973 5.53003 20.0946C5.53003 18.9536 5.60845 17.8034 5.76467 16.6412C5.9212 15.4787 6.12398 14.4379 6.37393 13.5165C6.4611 13.1732 6.5601 12.8331 6.67076 12.4967C6.77861 12.1602 6.91992 11.8353 7.09256 11.5269C7.25858 11.2304 7.44666 10.99 7.65496 10.8031C7.86264 10.6178 8.11321 10.5234 8.40482 10.5234C8.98775 10.5234 9.52962 10.7538 10.0292 11.2145C10.2584 11.4559 10.4458 11.7515 10.5916 12.1025C10.7365 12.4535 10.8103 12.7602 10.8103 13.0227C10.8103 13.4616 10.769 13.9441 10.6869 14.4697C10.6045 14.9945 10.501 15.5158 10.3766 16.0323C10.2637 16.511 10.1245 16.9832 9.95939 17.4465C9.80408 17.8745 9.64357 18.2191 9.47877 18.4828C9.37524 18.6804 9.23035 18.8773 9.04595 19.0743C8.87676 19.2578 8.68405 19.4182 8.47283 19.5512C8.27648 19.6719 8.09085 19.7378 7.91563 19.7491C7.7395 19.7605 7.59124 19.6787 7.46688 19.5019C7.42552 19.6784 7.41542 19.9087 7.43594 20.1924C7.45646 20.4779 7.48801 20.7572 7.52998 21.0308C7.57133 21.3061 7.62341 21.5628 7.68559 21.8039C7.74808 22.0453 7.80015 22.2211 7.84212 22.3302C8.00447 22.7039 8.21705 22.9829 8.4814 23.1689C8.74484 23.356 8.9274 23.4485 9.02941 23.4485C9.2377 23.4485 9.44079 23.2837 9.63837 22.9554C9.89083 22.5372 10.146 22.1207 10.4039 21.7059C10.7573 21.1135 11.1537 20.2809 11.5911 19.206C12.0289 18.1324 12.4237 16.9806 12.7775 15.7526C12.8409 15.5118 12.8979 15.2763 12.9503 15.0453C13.0017 14.8162 13.0593 14.58 13.1221 14.338C13.226 13.7027 13.4658 13.3851 13.8404 13.3851" fill="#302E6B"/>
<path d="M16.8085 15.5233C16.8499 15.1499 16.8808 14.8874 16.902 14.7333C16.9231 14.5801 16.9335 14.4156 16.9335 14.2404C16.9335 13.6924 16.8658 13.3683 16.7326 13.2691C16.599 13.1717 16.4906 13.1224 16.4085 13.1224H16.2685C16.1962 13.1224 16.093 13.1876 15.9588 13.3193C15.8253 13.4507 15.6709 13.6756 15.496 13.9938C15.3208 14.3121 15.1302 14.7991 14.9247 15.4568C14.3479 17.2328 14.0584 18.8664 14.0584 20.3573C14.0584 20.9053 14.0691 21.3608 14.0897 21.7222C14.1099 22.0834 14.1362 22.3747 14.1662 22.5937C14.1975 22.813 14.2333 22.972 14.2747 23.0703C14.316 23.1693 14.3577 23.2413 14.3981 23.2841C14.5427 23.3721 14.6965 23.2523 14.8622 22.9221C15.027 22.5937 15.2736 21.9474 15.6032 20.9822H15.6344C16.0595 19.8243 16.4003 18.6371 16.6542 17.4301C16.6747 17.2331 16.6949 16.981 16.716 16.6741C16.7363 16.3675 16.7666 15.9947 16.8085 15.5557V15.5233ZM22.9009 13.3852C22.9836 13.3852 23.0207 13.4397 23.01 13.5503C22.9998 13.6593 22.9943 13.9442 22.9943 14.4043C22.9943 15.216 22.5462 17.0463 21.6514 19.8969C21.2967 20.9935 20.9843 21.8699 20.7138 22.5278C20.443 23.1855 20.1986 23.6845 19.9799 24.0242C19.7611 24.3642 19.5627 24.5891 19.3862 24.6978C19.2095 24.8081 19.0477 24.8629 18.9016 24.8629C17.8813 24.8629 17.1939 24.0839 16.8401 22.5278C16.4652 23.3831 16.1524 23.9749 15.9022 24.3033C15.4856 24.9398 14.9967 25.2568 14.4343 25.2568C14.1846 25.2568 13.8875 25.175 13.5441 25.0102C13.2004 24.8461 12.8822 24.5008 12.5912 23.9746C12.1528 23.2296 11.9347 22.2644 11.9347 21.0808C11.9347 20.1171 12.0073 19.1455 12.1528 18.1696C12.2995 17.1949 12.5489 16.093 12.9033 14.8647C13.7359 11.9927 14.7357 10.556 15.9022 10.556C16.3194 10.556 16.7562 10.7646 17.215 11.1812C17.2564 11.2036 17.2821 11.2259 17.2934 11.2474C17.3029 11.2691 17.3293 11.2918 17.3713 11.3126C17.4962 10.1949 17.657 8.79745 17.8552 7.12005C18.0759 5.2601 18.3105 3.40183 18.5588 1.54537C18.5374 1.37016 18.5429 1.10703 18.5736 0.755993C18.6054 0.405565 18.7659 0.164186 19.0581 0.0327761L19.1519 0H19.8702C20.141 0 20.3441 0.0603446 20.4798 0.180421C20.6152 0.301723 20.7349 0.46009 20.8388 0.657052C20.9843 0.899043 21.037 1.27122 20.995 1.77603L20.9641 1.80789C20.776 2.83926 20.5836 3.88625 20.386 4.94887C20.1882 6.01271 19.974 7.16906 19.7452 8.41823C19.7241 8.59406 19.646 9.22415 19.5115 10.3097C19.3167 11.8715 19.1238 13.4335 18.9329 14.9958C18.5585 18.0002 18.3705 19.9398 18.3705 20.8161C18.3916 21.5188 18.4382 22.0169 18.5111 22.3134C18.584 22.609 18.6409 22.8017 18.6832 22.889C18.7871 22.7793 18.9378 22.5 19.136 22.0503C19.3338 21.6012 19.6619 20.8287 20.1202 19.7321C20.4804 18.8615 20.8242 17.9841 21.1512 17.1005C21.4622 16.2668 21.7435 15.4222 21.9945 14.5685C22.015 14.4812 22.0466 14.3715 22.0886 14.2398C22.1299 14.1084 22.182 13.9754 22.2442 13.844C22.3036 13.7181 22.389 13.6062 22.4947 13.5157C22.5986 13.4296 22.7343 13.3852 22.9009 13.3852" fill="#302E6B"/>
<path d="M23.3374 11.1818C22.7958 11.1818 22.3688 10.9631 22.0567 10.5235C21.7237 10.1078 21.5568 9.68019 21.5568 9.24124C21.5568 8.86845 21.7237 8.50669 22.0567 8.15565C22.4313 7.80461 22.7652 7.62939 23.0568 7.62939C23.5564 7.62939 23.9415 7.78347 24.2129 8.0901C24.4827 8.39733 24.6187 8.83567 24.6187 9.40543C24.6187 9.80027 24.5722 10.1176 24.4781 10.3596C24.3841 10.6001 24.2637 10.7811 24.1188 10.9012C23.9727 11.0231 23.8269 11.0988 23.6817 11.1321C23.5359 11.1652 23.421 11.1818 23.3374 11.1818ZM25.2752 23.1854C24.7333 24.4135 24.0671 25.027 23.2752 25.027C23.0045 25.027 22.7082 24.9508 22.3857 24.7967C22.0616 24.6432 21.755 24.3148 21.4634 23.8103C21.269 23.4179 21.1223 23.0037 21.0262 22.5765C20.9218 22.1271 20.8697 21.6177 20.8697 21.0473C20.8697 20.5649 20.9638 19.2502 21.1509 17.101C21.2545 16.0479 21.3277 15.1985 21.3696 14.5525C21.411 13.9065 21.4318 13.4727 21.4318 13.2537V12.7602C21.4318 12.6506 21.4631 12.5749 21.5259 12.5299C21.5887 12.4861 21.6977 12.4753 21.8539 12.4965C22.0893 12.5337 22.3236 12.578 22.5563 12.6294C23.1395 12.7385 23.5096 12.8809 23.6661 13.0561C23.8217 13.2319 23.9001 13.3851 23.9001 13.5168C23.9001 13.5824 23.8851 13.681 23.8533 13.8127C23.8189 13.9557 23.7826 14.0981 23.7442 14.24C23.7056 14.3822 23.6691 14.5248 23.6345 14.668C23.6036 14.7997 23.588 14.8876 23.588 14.9311C23.546 15.1063 23.4887 15.4246 23.4161 15.884C23.3426 16.3448 23.2541 16.8275 23.1503 17.3317C23.0253 18.0338 22.9364 18.6746 22.885 19.256C22.8313 19.8735 22.8051 20.4931 22.8066 21.1129C22.8066 21.2232 22.8118 21.376 22.8222 21.5742C22.8329 21.7715 22.8537 21.9743 22.885 22.1819C22.9165 22.3905 22.9683 22.5719 23.0412 22.7244C23.1141 22.8779 23.2131 22.9658 23.3377 22.9882C23.3797 22.9658 23.4633 22.8617 23.588 22.6754C23.7127 22.4895 23.879 22.1109 24.0879 21.5405C24.1293 21.4088 24.2751 21.047 24.5253 20.4555C24.7753 19.8637 25.0562 19.0419 25.3686 17.9888C25.4731 17.6383 25.6075 17.211 25.7748 16.7059C25.9414 16.2023 26.1182 15.5998 26.3053 14.8971C26.3262 14.8104 26.3571 14.6955 26.3997 14.5525C26.4407 14.4107 26.4934 14.2728 26.5562 14.1411C26.6143 14.0145 26.6998 13.9023 26.8065 13.8127C26.9103 13.7254 27.0451 13.681 27.212 13.681C27.2748 13.681 27.3529 13.7306 27.4461 13.8293C27.5407 13.9276 27.5867 14.2073 27.5867 14.668C27.5867 14.7776 27.5766 14.9247 27.5557 15.1115C27.5346 15.2981 27.4822 15.5832 27.3992 15.9661C27.2901 16.4566 27.1703 16.9445 27.0399 17.4297C26.8363 18.1891 26.6228 18.9458 26.3994 19.6995C26.1716 20.4743 25.9372 21.2471 25.6961 22.0178C25.5196 22.5765 25.379 22.9661 25.2752 23.1854" fill="#302E6B"/>
<path d="M29.7429 21.3099C30.2214 19.4906 30.4615 17.5829 30.4615 15.5888C30.4615 14.6453 30.414 14.0152 30.3209 13.6969C30.2272 13.3793 30.1601 13.1986 30.1181 13.1548C30.0759 13.1765 30.0238 13.2313 29.9616 13.3199C29.8994 13.4072 29.8097 13.5606 29.6966 13.7793C29.5812 13.9987 29.4516 14.2946 29.3055 14.668C29.1597 15.0408 28.9933 15.5232 28.8056 16.115C28.4515 17.189 28.1859 18.1928 28.0091 19.1237C27.8321 20.0567 27.7319 20.9162 27.712 21.7059C27.9206 21.9681 28.1693 22.3418 28.4619 22.8237C28.5452 22.9768 28.6178 23.0654 28.68 23.0865C28.7431 23.1082 28.7841 23.1199 28.8053 23.1199C28.888 23.1199 29.0139 22.994 29.1808 22.7413C29.3474 22.4898 29.5349 22.0122 29.7429 21.3099ZM29.8673 11.3126C30.1598 11.3126 30.4557 11.3628 30.7577 11.4608C31.0598 11.5598 31.3309 11.7408 31.5707 12.0033C31.8099 12.267 32.0078 12.6346 32.1643 13.1057C32.3203 13.5781 32.3981 14.1855 32.3981 14.9308C32.3981 16.0936 32.3249 17.2282 32.18 18.3355C32.0369 19.4292 31.8175 20.5115 31.5232 21.5745C30.8564 24.0529 30.003 25.2905 28.9624 25.2905C28.3363 25.2905 27.795 24.8298 27.3371 23.9084C27.1505 24.1072 26.9416 24.2049 26.7113 24.2049C26.3994 24.2049 26.1078 24.0076 25.837 23.6137C25.6076 23.2403 25.4933 22.8895 25.4933 22.5606C25.4933 22.408 25.5249 22.2646 25.5874 22.1339C25.5246 18.6253 25.7436 14.668 26.2429 10.2604C26.4095 8.85834 26.5713 7.53137 26.7272 6.2819C26.8831 5.03121 27.0344 3.80379 27.1809 2.59812C27.2219 2.09392 27.243 1.75361 27.243 1.57839V1.28279L27.1809 1.08522L27.2746 0.920727C27.3368 0.789316 27.4516 0.66342 27.6183 0.542118C27.784 0.421429 28.0238 0.361084 28.336 0.361084H28.5553C28.9302 0.361084 29.2277 0.475953 29.4452 0.706917C29.6642 0.936043 29.7732 1.27146 29.7732 1.7098C29.7732 1.7971 29.7576 1.93495 29.727 2.12119C29.696 2.30651 29.6277 2.61987 29.5236 3.05821C29.4295 3.42827 29.3464 3.80102 29.2742 4.17597C29.2155 4.48176 29.1632 4.78876 29.1174 5.09676C28.8506 6.54489 28.611 7.99791 28.3988 9.45505C28.2296 10.6207 28.0735 11.7881 27.9304 12.9572C28.0548 12.717 28.2012 12.4637 28.3681 12.2012C28.7636 11.6091 29.2641 11.3126 29.8673 11.3126Z" fill="#302E6B"/>
<path d="M5.11829 36L7.69197 30.981M41.1453 36L43.7177 30.981L41.1453 36ZM46.292 36L43.7177 30.981L46.292 36ZM41.1453 36L38.571 30.981L41.1453 36ZM35.9991 36L38.571 30.981L35.9991 36ZM30.8514 36L33.4257 30.981L30.8514 36ZM35.9991 36L33.426 30.981L35.9991 36ZM30.8514 36L28.2787 30.981L30.8514 36ZM25.705 36L28.2784 30.981L25.705 36ZM20.5582 36L23.1319 30.981L20.5582 36ZM25.705 36L23.1319 30.981L25.705 36ZM20.5582 36L17.9852 30.981L20.5582 36ZM15.4115 36L17.9852 30.981L15.4115 36ZM10.2647 36L12.839 30.981L10.2647 36ZM15.4115 36L12.839 30.981L15.4115 36ZM10.2647 36L7.69228 30.981L10.2647 36Z" stroke="#302E6B" stroke-width="1.073" stroke-miterlimit="10" stroke-linecap="round"/>
</svg>
