<svg xmlns="http://www.w3.org/2000/svg" width="127" height="32" fill="none" viewBox="0 0 127 32"><path fill="#E44232" fill-rule="evenodd" d="M54.778 19.281C54.778 19.7986 54.8644 20.3004 55.0377 20.7794C55.2107 21.2633 55.4639 21.6883 55.8013 22.0592C56.1387 22.4296 56.5424 22.726 57.0153 22.9472C57.4878 23.1687 58.0253 23.2799 58.6244 23.2799C59.2235 23.2799 59.7605 23.1687 60.2336 22.9472C60.7058 22.726 61.1102 22.4296 61.4476 22.0592C61.7825 21.6883 62.0379 21.2633 62.2108 20.7794C62.3816 20.3004 62.4681 19.7986 62.4681 19.281C62.4681 18.7634 62.3816 18.2616 62.2108 17.78C62.0379 17.2985 61.7825 16.8738 61.4476 16.5028C61.1102 16.1325 60.7058 15.8361 60.2336 15.6146C59.7605 15.3931 59.2235 15.2799 58.6244 15.2799C58.0253 15.2799 57.4878 15.3931 57.0153 15.6146C56.5424 15.8361 56.1387 16.1325 55.8013 16.5028C55.4639 16.8738 55.2107 17.2985 55.0377 17.78C54.8644 18.2616 54.778 18.7634 54.778 19.281V19.281ZM51.5737 19.441C51.5737 18.3792 51.7624 17.4153 52.1406 16.549C52.5156 15.6825 53.0285 14.9436 53.6734 14.3277C54.3163 13.714 55.0808 13.2387 55.9645 12.9024C56.8499 12.5684 57.7876 12.3999 58.7836 12.3999C59.7769 12.3999 60.7169 12.5684 61.6003 12.9024C62.4837 13.2387 63.2482 13.714 63.8934 14.3277C64.5386 14.9436 65.0492 15.6825 65.4265 16.549C65.8041 17.4153 65.9927 18.3792 65.9927 19.441C65.9927 20.5029 65.8041 21.4668 65.4265 22.3327C65.0492 23.1996 64.5386 23.9381 63.8934 24.5544C63.2482 25.1681 62.4837 25.6434 61.6003 25.9774C60.7169 26.3137 59.7769 26.4799 58.7836 26.4799C57.7876 26.4799 56.8499 26.3137 55.9645 25.9774C55.0808 25.6434 54.3163 25.1681 53.6734 24.5544C53.0285 23.9381 52.5156 23.1996 52.1406 22.3327C51.7624 21.4668 51.5737 20.5029 51.5737 19.441" clip-rule="evenodd"/><path fill="#E44232" fill-rule="evenodd" d="M70.799 19.2809C70.799 19.7985 70.8854 20.3004 71.0587 20.7794C71.2317 21.2632 71.4849 21.6882 71.822 22.0592C72.1594 22.4295 72.5634 22.7259 73.036 22.9471C73.5088 23.1686 74.046 23.2798 74.6454 23.2798C75.2442 23.2798 75.7815 23.1686 76.2543 22.9471C76.7268 22.7259 77.1312 22.4295 77.468 22.0592C77.8035 21.6882 78.0589 21.2632 78.2318 20.7794C78.4026 20.3004 78.4891 19.7985 78.4891 19.2809C78.4891 18.7634 78.4026 18.2615 78.2318 17.78C78.0589 17.2984 77.8035 16.8737 77.468 16.5027C77.1312 16.1324 76.7268 15.836 76.2543 15.6145C75.7815 15.393 75.2442 15.2798 74.6454 15.2798C74.046 15.2798 73.5088 15.393 73.036 15.6145C72.5634 15.836 72.1594 16.1324 71.822 16.5027C71.4849 16.8737 71.2317 17.2984 71.0587 17.78C70.8854 18.2615 70.799 18.7634 70.799 19.2809V19.2809ZM78.8399 23.8503H78.7832C78.3009 24.6583 77.6533 25.2445 76.8353 25.6115C76.0195 25.9762 75.1383 26.1598 74.1918 26.1598C73.1518 26.1598 72.2297 25.9832 71.421 25.6248C70.6142 25.2671 69.9235 24.777 69.3481 24.1526C68.7726 23.5304 68.3354 22.7962 68.0387 21.9529C67.7416 21.1114 67.5947 20.2031 67.5947 19.2318C67.5947 18.2606 67.751 17.3523 68.0683 16.5086C68.3831 15.6671 68.8226 14.9332 69.389 14.3088C69.955 13.6867 70.6371 13.1966 71.4345 12.8388C72.2342 12.4805 73.1063 12.3016 74.051 12.3016C74.6831 12.3016 75.2401 12.3666 75.7231 12.4939C76.2054 12.6237 76.631 12.7873 77.0028 12.991C77.374 13.1924 77.6894 13.4072 77.9497 13.6354C78.2081 13.8655 78.4233 14.0896 78.5886 14.3088H78.6724V7.03748C78.6724 6.70873 78.9369 6.31982 79.4008 6.31982H81.2875C81.7241 6.31982 82.0137 6.68231 82.0137 7.03748V25.1118C82.0137 25.5711 81.6197 25.8308 81.2875 25.8308H79.57C79.1614 25.8308 78.8399 25.4909 78.8399 25.1131V23.8503Z" clip-rule="evenodd"/><path fill="#E44232" fill-rule="evenodd" d="M87.4611 19.281C87.4611 19.7986 87.5475 20.3004 87.7208 20.7794C87.8938 21.2633 88.147 21.6883 88.4847 22.0592C88.8218 22.4296 89.2259 22.726 89.6984 22.9472C90.1709 23.1687 90.7085 23.2799 91.3076 23.2799C91.9067 23.2799 92.4436 23.1687 92.9167 22.9472C93.3896 22.726 93.7933 22.4296 94.1307 22.0592C94.4659 21.6883 94.721 21.2633 94.8939 20.7794C95.065 20.3004 95.1512 19.7986 95.1512 19.281C95.1512 18.7634 95.065 18.2616 94.8939 17.78C94.721 17.2985 94.4659 16.8738 94.1307 16.5028C93.7933 16.1325 93.3896 15.8361 92.9167 15.6146C92.4436 15.3931 91.9067 15.2799 91.3076 15.2799C90.7085 15.2799 90.1709 15.3931 89.6984 15.6146C89.2259 15.8361 88.8218 16.1325 88.4847 16.5028C88.147 16.8738 87.8938 17.2985 87.7208 17.78C87.5475 18.2616 87.4611 18.7634 87.4611 19.281V19.281ZM84.2568 19.441C84.2568 18.3792 84.4455 17.4153 84.8237 16.549C85.1987 15.6825 85.7115 14.9436 86.3564 14.3277C86.9993 13.714 87.7638 13.2387 88.6474 12.9024C89.5327 12.5684 90.4704 12.3999 91.4663 12.3999C92.4597 12.3999 93.3996 12.5684 94.283 12.9024C95.1664 13.2387 95.9308 13.714 96.576 14.3277C97.2212 14.9436 97.7317 15.6825 98.109 16.549C98.4866 17.4153 98.6758 18.3792 98.6758 19.441C98.6758 20.5029 98.4866 21.4668 98.109 22.3327C97.7317 23.1996 97.2212 23.9381 96.576 24.5544C95.9308 25.1681 95.1664 25.6434 94.283 25.9774C93.3996 26.3137 92.4597 26.4799 91.4663 26.4799C90.4704 26.4799 89.5327 26.3137 88.6474 25.9774C87.7638 25.6434 86.9993 25.1681 86.3564 24.5544C85.7115 23.9381 85.1987 23.1996 84.8237 22.3327C84.4455 21.4668 84.2568 20.5029 84.2568 19.441" clip-rule="evenodd"/><path fill="#E44232" fill-rule="evenodd" d="M100.278 7.92C100.278 7.40382 100.472 6.95707 100.859 6.57264C101.248 6.19098 101.739 6 102.333 6C102.927 6 103.429 6.18234 103.834 6.54703C104.239 6.91141 104.443 7.36896 104.443 7.92C104.443 8.47104 104.239 8.92859 103.834 9.29328C103.429 9.65766 102.927 9.84 102.333 9.84C101.739 9.84 101.248 9.64902 100.859 9.2652C100.472 8.88324 100.278 8.43648 100.278 7.92" clip-rule="evenodd"/><path fill="#E44232" fill-rule="evenodd" d="M114.035 16.4511C113.707 16.4511 113.464 16.1979 113.422 16.0876C113.148 15.3572 112.274 15.083 111.568 15.083C110.455 15.083 109.582 15.6071 109.582 16.5083C109.582 17.3804 110.427 17.5582 110.949 17.7186C111.522 17.8951 112.617 18.1376 113.22 18.2815C113.834 18.4283 114.405 18.6433 114.939 18.9253C116.691 19.8491 116.94 21.3028 116.94 22.1785C116.94 25.4083 113.791 26.4799 111.604 26.4799C109.918 26.4799 106.751 26.2206 106.056 22.9551C105.988 22.6376 106.265 22.149 106.774 22.149H108.595C108.954 22.149 109.195 22.4148 109.265 22.6234C109.5 23.2794 110.244 23.7751 111.498 23.7751C112.844 23.7751 113.64 23.2329 113.64 22.5115C113.64 22.0456 113.379 21.6304 113.04 21.3966C112.019 20.6933 109.495 20.6138 108.125 19.873C107.6 19.5894 106.283 18.9411 106.283 16.7311C106.283 13.6849 109.009 12.3999 111.403 12.3999C114.935 12.3999 116.231 14.6672 116.377 15.5072C116.458 15.9709 116.203 16.4511 115.689 16.4511H114.035Z" clip-rule="evenodd"/><path fill="#E44232" fill-rule="evenodd" d="M117.26 14.6253V13.2496C117.26 12.9215 117.523 12.5267 117.989 12.5267H119.788V9.14919C119.788 8.78771 120.036 8.56767 120.225 8.48684C120.336 8.43873 121.342 8.00604 122.146 7.6606C122.707 7.43318 123.162 7.88897 123.162 8.32839V12.5267H126.139C126.599 12.5267 126.873 12.9225 126.873 13.2496V14.6273C126.873 15.0263 126.511 15.3521 126.139 15.3521H123.162V21.1734C123.162 21.8383 123.143 22.3583 123.401 22.7425C123.637 23.0947 123.984 23.2252 124.679 23.2252C124.878 23.2252 125.056 23.1925 125.206 23.1422C125.647 22.9933 125.977 23.2474 126.088 23.4607C126.308 23.8793 126.559 24.3395 126.735 24.6693C126.929 25.0314 126.773 25.4955 126.419 25.6645C125.848 25.9381 125.058 26.1601 123.973 26.1601C123.074 26.1601 122.565 26.0629 121.995 25.8689C121.424 25.6748 120.881 25.2636 120.554 24.8665C120.225 24.4698 120.062 23.9383 119.941 23.3471C119.817 22.7566 119.788 22.0394 119.788 21.2616V15.3521H117.994C117.523 15.3521 117.26 14.9506 117.26 14.6253" clip-rule="evenodd"/><path fill="#E44232" fill-rule="evenodd" d="M41.3203 14.6253V13.2496C41.3203 12.9215 41.5764 12.5267 42.0302 12.5267H44.032V9.14919C44.032 8.78771 44.2741 8.56767 44.4576 8.48684C44.5663 8.43873 45.5461 8.00604 46.3288 7.6606C46.8755 7.43318 47.3185 7.88897 47.3185 8.32839V12.5267H50.2184C50.6658 12.5267 50.933 12.9225 50.933 13.2496V14.6273C50.933 15.0263 50.5803 15.3521 50.2184 15.3521H47.3185V21.1734C47.3185 21.8383 47.3001 22.3583 47.5511 22.7425C47.7812 23.0947 48.119 23.2252 48.7959 23.2252C48.9898 23.2252 49.1631 23.1925 49.3095 23.1422C49.7389 22.9933 50.0599 23.2474 50.169 23.4607C50.3829 23.8793 50.6278 24.3395 50.7989 24.6693C50.9875 25.0314 50.836 25.4955 50.4912 25.6645C49.9351 25.9381 49.1654 26.1601 48.1088 26.1601C47.2329 26.1601 46.737 26.0629 46.1824 25.8689C45.6253 25.6748 45.0974 25.2636 44.7786 24.8665C44.4579 24.4698 44.2991 23.9383 44.1809 23.3471C44.0605 22.7566 44.032 22.0394 44.032 21.2616V15.3521H42.0349C41.5764 15.3521 41.3203 14.9506 41.3203 14.6253" clip-rule="evenodd"/><path fill="#E44232" fill-rule="evenodd" d="M101.616 25.8402H103.426C103.81 25.8402 104.123 25.5194 104.123 25.1268V13.4336C104.123 13.041 103.81 12.7202 103.426 12.7202H101.616C101.232 12.7202 100.919 13.041 100.919 13.4336V25.1268C100.919 25.5194 101.232 25.8402 101.616 25.8402Z" clip-rule="evenodd"/><path fill="#E44232" fill-rule="evenodd" d="M4.00528 0C1.80238 0 0 1.8 0 4V28C0 30.2 1.80238 32 4.00528 32H28.037C30.2399 32 32.0423 30.2 32.0423 28V4C32.0423 1.8 30.2399 0 28.037 0H4.00528Z" clip-rule="evenodd"/><path fill="#fff" fill-rule="evenodd" d="M6.79155 15.1572C7.35312 14.8303 19.3808 7.83933 19.6568 7.67831C19.9323 7.51772 19.946 7.02495 19.6379 6.8473C19.3294 6.66969 18.7438 6.33365 18.5258 6.20486C18.304 6.07416 17.905 6.00147 17.535 6.21675C17.3814 6.30627 7.10223 12.2762 6.75865 12.4734C6.34738 12.7096 5.8385 12.7126 5.42863 12.4731C5.10504 12.2839 0 9.28754 0 9.28754V11.9955C1.32145 12.7728 4.60693 14.7056 5.4032 15.1596C5.87843 15.4306 6.33334 15.4239 6.79155 15.1572" clip-rule="evenodd"/><path fill="#fff" fill-rule="evenodd" d="M6.79155 20.2773C7.35312 19.9504 19.3808 12.9595 19.6568 12.7984C19.9323 12.6378 19.946 12.1451 19.6379 11.9674C19.3294 11.7898 18.7438 11.4538 18.5258 11.325C18.304 11.1943 17.905 11.1216 17.535 11.3369C17.3814 11.4264 7.10223 17.3963 6.75865 17.5936C6.34738 17.8297 5.8385 17.8328 5.42863 17.5932C5.10504 17.404 0 14.4076 0 14.4076V17.1156C1.32145 17.8929 4.60693 19.8257 5.4032 20.2797C5.87843 20.5508 6.33334 20.5441 6.79155 20.2773" clip-rule="evenodd"/><path fill="#fff" fill-rule="evenodd" d="M6.79155 25.7172C7.35312 25.3903 19.3808 18.3994 19.6568 18.2384C19.9323 18.0778 19.946 17.585 19.6379 17.4074C19.3294 17.2297 18.7438 16.8937 18.5258 16.7649C18.304 16.6342 17.905 16.5615 17.535 16.7768C17.3814 16.8663 7.10223 22.8363 6.75865 23.0335C6.34738 23.2696 5.8385 23.2727 5.42863 23.0331C5.10504 22.8439 0 19.8476 0 19.8476V22.5556C1.32145 23.3328 4.60693 25.2656 5.4032 25.7197C5.87843 25.9907 6.33334 25.984 6.79155 25.7172" clip-rule="evenodd"/></svg>