<svg xmlns="http://www.w3.org/2000/svg" aria-labelledby="title" class="icon icon-ubisoft-logo" viewBox="0 0 106 32"><path fill="#000" d="M31.4 16.15C31.06-.03 9.54-6.06 1.26 9.1L2.5 10a15.42 15.42 0 0 0-1.29 4.03 15.61 15.61 0 0 0-.24 2.73 15.22 15.22 0 0 0 30.43 0v-.6zM4.72 18.86c-.2 1.64-.07 2.15-.07 2.35l-.37.13a8.72 8.72 0 0 1-.64-2.5A9.44 9.44 0 0 1 11.67 8.7c4.67-.68 9.13 2.21 10.17 6.27l-.37.12c-.11-.11-.3-.44-1.01-1.15-5.64-5.64-14.48-3.06-15.74 4.92zM19.2 21.6a4.14 4.14 0 0 1-3.4 1.78 4.15 4.15 0 0 1-4.16-4.15 4.16 4.16 0 0 1 3.85-4.14 3.4 3.4 0 0 1 3.18 1.84 3.4 3.4 0 0 1-.6 3.89l1.13.78zm8.66.16a12.22 12.22 0 0 1-11.54 7.51c-9.26-.45-11.95-11.14-5.76-14.99l.27.27c-.1.15-.47.43-1.04 1.56a7.2 7.2 0 0 0-.8 3.6c.48 7.45 10.94 8.98 14.54 1.59C28.1 11.18 15.95.9 5.16 8.76l-.24-.24c2.84-4.45 8.4-6.44 13.68-5.11a13.47 13.47 0 0 1 9.26 18.35zm18.3-11.55v7.02c0 2.8-1.7 4.88-4.83 4.88s-4.83-2.08-4.83-4.88v-7.01h2.53v6.81c0 1.7.8 2.67 2.3 2.67 1.49 0 2.3-.97 2.3-2.67v-6.81h2.54zm9.47 8.32c0 2.03-1.59 3.48-4.16 3.48h-4.05v-11.7h3.9c2.25 0 3.75 1.09 3.75 2.83 0 1.33-.61 2.12-1.54 2.51 1.25.47 2.1 1.31 2.1 2.88zm-5.65-5.98v2.47h1.34c.78 0 1.32-.45 1.32-1.24s-.54-1.24-1.32-1.24h-1.34zm1.4 7.22c1.1 0 1.72-.5 1.72-1.46s-.61-1.47-1.71-1.47h-1.41v2.93h1.4zm5.24-9.45h2.54v11.7h-2.54v-11.7zm8.7 4.73c2 .7 3.03 1.6 3.03 3.41 0 2.43-1.85 3.77-4.05 3.77-2.03 0-3.58-.9-4.24-2.57l2.03-1.5a2.48 2.48 0 0 0 2.28 1.7c.84 0 1.44-.46 1.44-1.2 0-.7-.45-1.14-2.12-1.74-1.81-.66-3.16-1.55-3.16-3.5 0-1.86 1.56-3.3 3.81-3.3 1.8 0 3.18.72 3.84 2.15l-2.02 1.4c-.39-.87-.99-1.36-1.92-1.36-.77 0-1.34.42-1.34 1.02.02.68.66 1.1 2.41 1.72zm15.66 1.11A5.83 5.83 0 0 1 75 22.21c-3.56 0-5.96-2.55-5.96-5.65 0-2 .79-3.46 1.94-4.4l-.4-.4a6.28 6.28 0 0 1 4.43-1.64 5.85 5.85 0 0 1 5.96 6.04zm-2.58 0c0-2.1-1.35-3.63-3.39-3.63-1.18 0-2.06.45-2.6 1.04l.4.4a3.06 3.06 0 0 0-1.18 2.52 3.24 3.24 0 0 0 3.38 3.33c2.06-.02 3.38-1.55 3.38-3.66zm6.16-3.43v2.7h4.96v1.95h-4.96V22h-2.54v-11.7h8.02v2.42h-5.48zm15.56 0h-3.28V22H94.3v-9.28H91v-2.41h9.12v2.4z"/></svg>