<svg width="441" height="292" viewBox="0 0 441 292" fill="none" xmlns="http://www.w3.org/2000/svg">
<mask id="mask0" style="mask-type:alpha" maskUnits="userSpaceOnUse" x="0" y="0" width="441" height="292">
<path d="M99.2764 23.0732L97.1522 13.1903L86.833 0L99.6092 5.27621L110.42 16.2679L117.277 20.0282L125.583 11.9211L138.693 16.8398L240.815 11.9215L237.146 24.9787L356.386 34.7112C368.315 40.7757 392.983 56.4628 392.983 56.4628L391.515 75.4872L407.032 72.6147L431.258 88.2231L441 121.501L418.206 210.935L368.589 241.271L383.72 248.234L401.587 254.073L397.359 259.449L340.477 256.587L339.088 255.482L336.885 256.073L306.041 280.591L257.192 291.078L243.76 281.139L174.601 280.591L157.435 267.64L115.494 245.053L91.1923 252.564L64.3687 231.224L48.1543 249.868H30.7418L16.104 239.262L23.2501 242.55H41.2665L43.2951 214.459L32.3601 205.759L10.0469 171.296L0 152.357L15.2142 128.372L4.12132 110.919L10.8103 80.5141L43.7173 65.4334L45.8576 52.9858L31.3985 39.2399L45.8576 27.3724L99.2764 23.0732Z" fill="#001216"/>
</mask>
<g mask="url(#mask0)">
<g filter="url(#filter0_i)">
<path d="M80.8293 -16.5134L78.2648 -30.8304L65.8067 -49.9387L81.231 -42.2953L94.2823 -26.3719L102.561 -20.9246L112.589 -32.6691L128.416 -25.5434L251.706 -32.6685L247.277 -13.753L391.232 0.346176C405.633 9.13171 435.415 31.857 435.415 31.857L433.643 59.4171L452.376 55.2557L481.623 77.8671L493.385 126.076L465.865 255.636L405.964 299.582L424.231 309.669L500.76 321.771L442.029 328.777L372.026 321.771L370.348 320.17L367.689 321.026L330.451 356.544L271.477 371.735L255.261 357.337L171.767 356.544L151.042 337.783L100.409 305.062L71.0695 315.942L38.686 285.028L19.1107 312.037L-1.91101 313.449L-19.4437 297.326L-10.9555 301.435H10.7952L13.2443 260.74L0.0426979 248.137L-26.8955 198.212L-39.0249 170.775L-20.6571 136.03L-34.0493 110.745L-25.9739 66.6994L13.754 44.8524L16.3379 26.82L-1.1182 6.90676L16.3379 -10.2852L80.8293 -16.5134Z" fill="#001216"/>
</g>
<path d="M111.519 94.7462L88.5101 135.878C88.035 136.728 86.8145 136.733 86.3323 135.887L62.867 94.7502C62.3417 93.8292 63.1294 92.7137 64.1733 92.9003L87.2071 97.0162C87.354 97.0424 87.5044 97.0422 87.6514 97.0154L110.203 92.9062C111.244 92.7166 112.035 93.8235 111.519 94.7462Z" fill="#E5F9FF"/>
<path d="M98.1794 87.5021L81.152 90.8375C80.8721 90.8923 80.6649 91.1294 80.648 91.414L79.6006 109.099C79.576 109.515 79.9586 109.839 80.3653 109.745L85.106 108.651C85.5495 108.549 85.9503 108.939 85.8592 109.385L84.4507 116.28C84.3559 116.744 84.7917 117.141 85.245 117.004L88.1731 116.114C88.627 115.976 89.0632 116.374 88.9672 116.839L86.7289 127.669C86.5888 128.347 87.4902 128.716 87.8661 128.135L88.1172 127.747L101.992 100.066C102.224 99.6022 101.824 99.0737 101.315 99.1719L96.4348 100.113C95.9763 100.202 95.5861 99.7749 95.7155 99.3264L98.9005 88.2887C99.03 87.8394 98.6385 87.4121 98.1794 87.5021Z" fill="url(#paint0_linear)"/>
<path d="M155.715 154.273L178.683 167.075V192.678L155.715 205.48L132.747 192.678V167.075L155.715 154.273Z" fill="white"/>
<path d="M174.582 191.795L156.474 201.887V194.027L167.756 187.912L174.582 191.795ZM175.821 190.69V169.584L169.194 173.352V186.918L175.821 190.69ZM136.776 191.795L154.884 201.887V194.027L143.602 187.912L136.776 191.795ZM135.537 190.69V169.584L142.164 173.352V186.918L135.537 190.69ZM136.312 168.219L154.884 157.866V165.466L142.987 171.914L142.896 171.965L136.312 168.219ZM175.046 168.219L156.474 157.866V165.466L168.371 171.914L168.462 171.965L175.046 168.219Z" fill="#B7E1ED"/>
<path d="M154.884 192.24L143.753 186.21V174.262L154.884 180.594V192.24ZM156.473 192.24L167.604 186.21V174.262L156.473 180.594V192.24ZM144.506 172.879L155.681 166.824L166.855 172.879L155.681 179.237L144.506 172.879Z" fill="#255461"/>
<path d="M266.473 140.754C265.809 140.754 265.149 140.58 264.566 140.245L258.497 136.656C257.59 136.15 258.032 135.971 258.331 135.867C259.54 135.445 259.785 135.349 261.076 134.617C261.211 134.54 261.389 134.567 261.528 134.649L266.191 137.413C266.359 137.504 266.598 137.504 266.754 137.413L284.935 126.931C285.104 126.836 285.213 126.64 285.213 126.44V105.486C285.213 105.277 285.104 105.091 284.932 104.986L266.758 94.5139C266.589 94.4139 266.366 94.4139 266.198 94.5139L248.027 104.986C247.851 105.086 247.739 105.282 247.739 105.482V126.436C247.739 126.636 247.849 126.827 248.022 126.922L253 129.795C255.704 131.145 257.356 129.554 257.356 127.954V107.273C257.356 106.977 257.588 106.75 257.884 106.75H260.186C260.473 106.75 260.71 106.977 260.71 107.273V127.963C260.71 131.563 258.744 133.631 255.326 133.631C254.275 133.631 253.446 133.631 251.134 132.495L246.365 129.749C245.186 129.068 244.458 127.795 244.458 126.436V105.482C244.458 104.118 245.186 102.845 246.365 102.173L264.564 91.6867C265.716 91.0367 267.245 91.0367 268.387 91.6867L286.564 102.177C287.738 102.855 288.471 104.123 288.471 105.486V126.44C288.471 127.799 287.738 129.068 286.564 129.749L268.387 140.235C267.805 140.572 267.145 140.744 266.471 140.744" fill="#E5F9FF"/>
<path d="M272.089 126.316C264.134 126.316 262.466 122.669 262.466 119.61C262.466 119.319 262.701 119.087 262.992 119.087H265.341C265.6 119.087 265.819 119.276 265.86 119.532C266.214 121.922 267.27 123.127 272.081 123.127C275.913 123.127 277.542 122.262 277.542 120.233C277.542 119.065 277.078 118.197 271.125 117.615C266.146 117.124 263.07 116.029 263.07 112.051C263.07 108.388 266.164 106.206 271.348 106.206C277.169 106.206 280.054 108.224 280.418 112.56C280.432 112.71 280.377 112.856 280.277 112.965C280.177 113.07 280.036 113.133 279.89 113.133H277.528C277.283 113.133 277.069 112.96 277.019 112.724C276.45 110.21 275.075 109.406 271.339 109.406C267.157 109.406 266.67 110.86 266.67 111.951C266.67 113.274 267.243 113.66 272.886 114.406C278.475 115.147 281.128 116.192 281.128 120.115C281.128 124.069 277.824 126.337 272.063 126.337L272.089 126.316Z" fill="#E5F9FF"/>
<path d="M380.656 128.378L374.412 139.069L368.167 128.378H347.372L374.412 174.674L401.451 128.378H380.656Z" fill="#71A2B0"/>
<path d="M380.656 128.378L374.412 139.07L368.167 128.378H358.188L374.412 156.155L390.635 128.378H380.656Z" fill="#E5F9FF"/>
<path d="M526.158 159.326L258.858 468.349L-92.9577 146.376L148.466 -158.164L526.158 159.326Z" fill="url(#paint1_linear)"/>
<path d="M319.909 195.377L308.781 196.331C307.555 196.614 297.18 197.574 296.608 197.63L301.052 202.864L320.714 195.566C320.482 195.415 320.199 195.349 319.909 195.377Z" fill="#00DC82"/>
<path d="M321.205 196.904C321.347 196.377 321.152 195.846 320.715 195.566L300.875 202.597L304.9 207.337L315.161 219.421L321.205 196.904Z" fill="#33E39B"/>
<path d="M290.568 220.176L293.339 209.382C293.821 208.222 296.475 198.17 296.625 197.616L301.068 202.849L290.622 221C290.511 220.747 290.492 220.457 290.568 220.176Z" fill="#00DC82"/>
<path d="M291.942 221.636C291.398 221.688 290.906 221.41 290.7 220.934L300.913 202.565L304.938 207.305L315.2 219.389L291.942 221.636Z" fill="#33E39B"/>
<path opacity="0.75" d="M315.161 219.421L305.565 220.362L309.839 199.454L315.625 197.334L318.174 208.195L315.161 219.421Z" fill="#99F1CD"/>
<path opacity="0.75" d="M314.972 219.474L321.016 196.957C321.157 196.43 320.963 195.899 320.526 195.618C320.293 195.468 320.01 195.401 319.72 195.43L308.591 196.383C307.365 196.667 297.007 197.613 296.435 197.67C296.285 198.223 293.631 208.276 293.15 209.435L290.378 220.23C290.302 220.511 290.399 220.733 290.51 220.987C290.716 221.463 291.208 221.741 291.752 221.689L314.972 219.474ZM314.972 219.474L317.985 208.248" stroke="#003C3C"/>
<path d="M339.167 229.435L339.535 233.709C339.645 234.18 340.015 238.166 340.037 238.385L342.057 236.678L339.24 229.125C339.182 229.214 339.156 229.323 339.167 229.435Z" fill="#00DC82"/>
<path d="M339.758 228.938C339.554 228.883 339.349 228.958 339.241 229.126L341.955 236.747L343.785 235.201L348.449 231.259L339.758 228.938Z" fill="#33E39B"/>
<path d="M348.738 240.705L344.571 239.64C344.124 239.455 340.243 238.435 340.03 238.378L342.05 236.671L349.056 240.684C348.958 240.726 348.846 240.734 348.738 240.705Z" fill="#00DC82"/>
<path d="M349.301 240.177C349.321 240.386 349.214 240.575 349.03 240.654L341.94 236.731L343.77 235.185L348.434 231.243L349.301 240.177Z" fill="#33E39B"/>
<path opacity="0.75" d="M348.446 231.258L348.809 234.944L340.739 233.303L339.921 231.08L344.113 230.101L348.446 231.258Z" fill="#99F1CD"/>
<path opacity="0.75" d="M348.29 231.154L339.599 228.833C339.396 228.779 339.191 228.853 339.083 229.021C339.024 229.111 338.999 229.219 339.01 229.331L339.378 233.606C339.487 234.076 339.852 238.055 339.874 238.275C340.088 238.333 343.968 239.352 344.415 239.537L348.581 240.602C348.69 240.631 348.776 240.593 348.873 240.551C349.057 240.472 349.165 240.283 349.144 240.074L348.29 231.154ZM348.29 231.154L343.957 229.997" stroke="#003C3C"/>
<path d="M203.468 97.61L203.738 100.742C203.818 101.087 204.089 104.007 204.105 104.168L205.586 102.917L203.522 97.3832C203.479 97.4486 203.46 97.5283 203.468 97.61Z" fill="#00DC82"/>
<path d="M203.901 97.2448C203.752 97.2051 203.602 97.2598 203.523 97.3828L205.511 102.967L206.852 101.834L210.27 98.9459L203.901 97.2448Z" fill="#33E39B"/>
<path d="M210.48 105.867L207.428 105.087C207.1 104.951 204.257 104.205 204.1 104.162L205.58 102.911L210.714 105.852C210.642 105.883 210.56 105.888 210.48 105.867Z" fill="#00DC82"/>
<path d="M210.893 105.48C210.908 105.633 210.829 105.772 210.694 105.83L205.499 102.955L206.84 101.822L210.258 98.9339L210.893 105.48Z" fill="#33E39B"/>
<path opacity="0.75" d="M210.269 98.9456L210.535 101.646L204.621 100.443L204.021 98.8149L207.093 98.0975L210.269 98.9456Z" fill="#99F1CD"/>
<path opacity="0.75" d="M210.153 98.8695L203.785 97.1684C203.636 97.1287 203.486 97.1835 203.407 97.3065C203.364 97.3719 203.345 97.4516 203.353 97.5333L203.623 100.665C203.703 101.01 203.971 103.926 203.987 104.087C204.143 104.129 206.986 104.876 207.314 105.011L210.366 105.791C210.446 105.813 210.509 105.785 210.58 105.754C210.715 105.696 210.794 105.558 210.779 105.404L210.153 98.8695ZM210.153 98.8695L206.978 98.0216" stroke="#003C3C"/>
<path d="M77.5153 205.755L76.5994 211.996C76.5972 212.706 75.782 218.533 75.7392 218.855L79.2055 217.092L77.724 205.337C77.6107 205.445 77.5373 205.592 77.5153 205.755Z" fill="#00DC82"/>
<path d="M78.5288 205.241C78.2561 205.095 77.9379 205.133 77.7264 205.337L79.0379 217.155L82.1774 215.559L90.1818 211.489L78.5288 205.241Z" fill="#33E39B"/>
<path d="M87.4061 225.103L81.804 222.177C81.2261 221.762 76.0184 218.997 75.7323 218.843L79.1984 217.08L87.8683 225.181C87.714 225.209 87.5515 225.182 87.4061 225.103Z" fill="#00DC82"/>
<path d="M88.3905 224.538C88.3488 224.843 88.1312 225.078 87.8416 225.129L79.0211 217.129L82.1606 215.532L90.1646 211.462L88.3905 224.538Z" fill="#33E39B"/>
<path opacity="0.75" d="M90.1776 211.487L89.453 216.884L78.4601 211.818L78.0395 208.362L84.3683 208.373L90.1776 211.487Z" fill="#99F1CD"/>
<path opacity="0.75" d="M89.9891 211.286L78.3373 205.038C78.0646 204.892 77.746 204.93 77.5345 205.134C77.4212 205.242 77.3478 205.389 77.3258 205.552L76.4097 211.793C76.4074 212.504 75.587 218.32 75.5442 218.642C75.8303 218.796 81.0378 221.56 81.6158 221.976L87.2177 224.902C87.3631 224.98 87.4988 224.956 87.6531 224.928C87.9427 224.877 88.1603 224.642 88.202 224.336L89.9891 211.286ZM89.9891 211.286L84.1799 208.171" stroke="#003C3C"/>
<path d="M172.861 33.067L168.289 37.4179C167.848 37.9761 163.611 42.0636 163.378 42.2905L167.196 43.0358L173.283 32.8658C173.127 32.8812 172.979 32.9519 172.861 33.067Z" fill="#00DC82"/>
<path d="M173.976 33.286C173.851 33.003 173.577 32.8371 173.285 32.8674L167.025 42.9822L170.482 43.6571L179.297 45.378L173.976 33.286Z" fill="#33E39B"/>
<path d="M168.712 54.3928L166.106 48.6403C165.907 47.9573 163.512 42.5748 163.382 42.2771L167.199 43.0224L169.028 54.7382C168.89 54.6652 168.778 54.5438 168.712 54.3928Z" fill="#00DC82"/>
<path d="M169.837 54.5533C169.615 54.7686 169.299 54.8194 169.039 54.6813L167.029 42.9519L170.487 43.6269L179.302 45.3479L169.837 54.5533Z" fill="#33E39B"/>
<path opacity="0.75" d="M179.296 45.3756L175.396 49.1797L169.864 38.4241L171.665 35.4436L176.643 39.347L179.296 45.3756Z" fill="#99F1CD"/>
<path opacity="0.75" d="M179.272 45.1008L173.951 33.0088C173.826 32.7259 173.552 32.5597 173.259 32.59C173.103 32.6054 172.955 32.6761 172.837 32.7911L168.265 37.1419C167.825 37.7002 163.59 41.7759 163.357 42.0028C163.487 42.3005 165.883 47.6829 166.082 48.3659L168.688 54.1182C168.754 54.2693 168.876 54.3334 169.015 54.4064C169.274 54.5444 169.591 54.4937 169.812 54.2784L179.272 45.1008ZM179.272 45.1008L176.619 39.0724" stroke="#003C3C"/>
<path d="M426.984 92.9144L423.279 95.0864C422.901 95.3878 419.458 97.4371 419.269 97.5514L421.681 98.6373L427.295 92.8468C427.189 92.8328 427.08 92.8566 426.984 92.9144Z" fill="#00DC82"/>
<path d="M427.688 93.2325C427.649 93.0258 427.494 92.8734 427.295 92.8482L421.576 98.5753L423.761 99.5588L429.331 102.066L427.688 93.2325Z" fill="#33E39B"/>
<path d="M420.919 106.394L420.087 102.18C420.062 101.697 419.313 97.7607 419.273 97.5433L421.685 98.6293L421.074 106.672C420.994 106.602 420.939 106.505 420.919 106.394Z" fill="#00DC82"/>
<path d="M421.638 106.675C421.458 106.783 421.241 106.767 421.091 106.636L421.584 98.5558L423.769 99.5393L429.339 102.047L421.638 106.675Z" fill="#33E39B"/>
<path opacity="0.75" d="M429.331 102.065L426.156 103.979L424.165 95.9976L425.822 94.3032L428.511 97.6607L429.331 102.065Z" fill="#99F1CD"/>
<path opacity="0.75" d="M429.357 101.879L427.714 93.0456C427.675 92.8388 427.52 92.6862 427.321 92.6609C427.216 92.6469 427.106 92.6707 427.01 92.7286L423.305 94.9005C422.927 95.2018 419.488 97.2439 419.299 97.3581C419.339 97.5754 420.088 101.512 420.114 101.995L420.945 106.209C420.965 106.319 421.036 106.381 421.117 106.45C421.267 106.582 421.484 106.598 421.664 106.489L429.357 101.879ZM429.357 101.879L428.538 97.4752" stroke="#003C3C"/>
<path d="M344.861 216.086L342.905 218.596C342.728 218.907 340.919 221.261 340.82 221.391L342.78 221.476L345.057 215.954C344.98 215.974 344.911 216.02 344.861 216.086Z" fill="#00DC82"/>
<path d="M345.433 216.111C345.349 215.979 345.2 215.917 345.057 215.954L342.689 221.461L344.464 221.539L348.989 221.735L345.433 216.111Z" fill="#33E39B"/>
<path d="M344.384 227.018L342.654 224.348C342.504 224.022 340.908 221.521 340.821 221.382L342.78 221.467L344.567 227.166C344.492 227.14 344.428 227.088 344.384 227.018Z" fill="#00DC82"/>
<path d="M344.956 227.014C344.862 227.138 344.708 227.187 344.568 227.137L342.69 221.445L344.465 221.522L348.99 221.719L344.956 227.014Z" fill="#33E39B"/>
<path opacity="0.75" d="M348.989 221.735L347.327 223.923L343.766 218.979L344.442 217.36L347.216 218.931L348.989 221.735Z" fill="#99F1CD"/>
<path opacity="0.75" d="M348.956 221.599L345.4 215.975C345.317 215.844 345.167 215.782 345.024 215.819C344.947 215.838 344.878 215.884 344.828 215.95L342.873 218.46C342.695 218.771 340.887 221.118 340.788 221.249C340.876 221.387 342.472 223.888 342.622 224.214L344.351 226.883C344.395 226.954 344.461 226.977 344.535 227.002C344.675 227.052 344.829 227.003 344.923 226.879L348.956 221.599ZM348.956 221.599L347.183 218.795" stroke="#003C3C"/>
<path d="M286.998 256.923L287.713 265.22C287.926 266.134 288.644 273.869 288.687 274.296L292.608 270.983L287.14 256.322C287.027 256.495 286.977 256.706 286.998 256.923Z" fill="#00DC82"/>
<path d="M288.141 255.956C287.746 255.851 287.349 255.996 287.139 256.321L292.407 271.115L295.958 268.114L305.011 260.462L288.141 255.956Z" fill="#33E39B"/>
<path d="M305.577 278.8L297.489 276.733C296.621 276.374 289.089 274.396 288.674 274.284L292.595 270.97L306.194 278.76C306.004 278.842 305.787 278.857 305.577 278.8Z" fill="#00DC82"/>
<path d="M306.669 277.776C306.709 278.182 306.5 278.549 306.143 278.702L292.381 271.087L295.932 268.086L304.986 260.434L306.669 277.776Z" fill="#33E39B"/>
<path opacity="0.75" d="M305.01 260.462L305.714 267.618L290.05 264.431L288.461 260.116L296.599 258.216L305.01 260.462Z" fill="#99F1CD"/>
<path opacity="0.75" d="M305.166 260.261L288.296 255.754C287.901 255.649 287.503 255.794 287.293 256.12C287.18 256.293 287.13 256.505 287.152 256.721L287.866 265.019C288.079 265.933 288.787 273.657 288.83 274.083C289.244 274.195 296.776 276.174 297.644 276.533L305.732 278.6C305.942 278.656 306.109 278.584 306.299 278.501C306.656 278.348 306.864 277.981 306.825 277.575L305.166 260.261ZM305.166 260.261L296.755 258.015" stroke="#003C3C"/>
<path d="M8.7833 85.1313L9.49798 93.4283C9.71056 94.3422 10.4294 102.078 10.4719 102.504L14.393 99.191L8.9247 84.5304C8.81178 84.7036 8.76207 84.9148 8.7833 85.1313Z" fill="#00DC82"/>
<path d="M9.92608 84.1641C9.53123 84.0588 9.13382 84.2038 8.92381 84.5296L14.1918 99.3232L17.7429 96.3221L26.7964 88.6707L9.92608 84.1641Z" fill="#33E39B"/>
<path d="M27.3616 107.009L19.2742 104.942C18.4054 104.583 10.8739 102.604 10.4594 102.492L14.38 99.1786L27.9791 106.968C27.7893 107.051 27.5722 107.065 27.3616 107.009Z" fill="#00DC82"/>
<path d="M28.4543 105.984C28.4935 106.39 28.2849 106.757 27.9282 106.91L14.1663 99.2954L17.7173 96.2942L26.7707 88.6426L28.4543 105.984Z" fill="#33E39B"/>
<path opacity="0.75" d="M26.7947 88.6709L27.4994 95.8263L11.8347 92.6395L10.2464 88.3249L18.3838 86.4242L26.7947 88.6709Z" fill="#99F1CD"/>
<path opacity="0.75" d="M26.9507 88.4696L10.0807 83.9629C9.68591 83.8576 9.28787 84.0029 9.07786 84.3287C8.96496 84.502 8.91525 84.7132 8.93647 84.9297L9.65089 93.2276C9.86342 94.1416 10.5722 101.866 10.6147 102.292C11.0293 102.404 18.5606 104.382 19.4294 104.742L27.5165 106.808C27.7271 106.865 27.894 106.792 28.0839 106.709C28.4406 106.556 28.6492 106.189 28.61 105.783L26.9507 88.4696ZM26.9507 88.4696L18.5399 86.2232" stroke="#003C3C"/>
</g>
<defs>
<filter id="filter0_i" x="-39.0249" y="-49.9387" width="539.785" height="421.674" filterUnits="userSpaceOnUse" color-interpolation-filters="sRGB">
<feFlood flood-opacity="0" result="BackgroundImageFix"/>
<feBlend mode="normal" in="SourceGraphic" in2="BackgroundImageFix" result="shape"/>
<feColorMatrix in="SourceAlpha" type="matrix" values="0 0 0 0 0 0 0 0 0 0 0 0 0 0 0 0 0 0 127 0" result="hardAlpha"/>
<feOffset/>
<feGaussianBlur stdDeviation="62"/>
<feComposite in2="hardAlpha" operator="arithmetic" k2="-1" k3="1"/>
<feColorMatrix type="matrix" values="0 0 0 0 0 0 0 0 0 0 0 0 0 0 0 0 0 0 0.25 0"/>
<feBlend mode="normal" in2="shape" result="effect1_innerShadow"/>
</filter>
<linearGradient id="paint0_linear" x1="85.8852" y1="88.4076" x2="91.0624" y2="123.933" gradientUnits="userSpaceOnUse">
<stop stop-color="#00DC82"/>
<stop offset="0.0833333" stop-color="#33E39B"/>
<stop offset="1" stop-color="#5DBFA5"/>
</linearGradient>
<linearGradient id="paint1_linear" x1="87.202" y1="760.813" x2="228.65" y2="-203.698" gradientUnits="userSpaceOnUse">
<stop stop-color="#00DC82"/>
<stop offset="0.809259" stop-color="#001216" stop-opacity="0"/>
</linearGradient>
</defs>
</svg>
