<svg width="125" height="125" viewBox="0 0 125 125" xmlns="http://www.w3.org/2000/svg">
  <g fill="none" fill-rule="evenodd">
    <path fill="#FFF" fill-rule="nonzero" d="M0 0h125v125H0z"/>
    <g transform="translate(3 10)">
      <ellipse fill="#41B883" fill-rule="nonzero" opacity=".1" cx="58.5" cy="98" rx="58.5" ry="9"/>
      <path d="M69.98 13.35c-7.5-.26-14.64-2.67-21.46-5.3-6.82-2.65-13.58-5.57-20.9-6.96C22.9.19 17.52.06 13.73 2.58 10.08 4.99 8.9 9.17 8.27 13.04c-.48 2.92-.76 6 .54 8.72.9 1.9 2.52 3.5 3.63 5.3 3.88 6.32 1.14 14.11-3.06 20.28C7.4 50.24 5.12 53 3.6 56.08c-1.52 3.08-2.23 6.6-.9 9.75 1.32 3.11 4.47 5.45 7.87 7.1 6.92 3.34 15.08 4.3 23.02 4.84 17.6 1.2 35.29.68 52.93.16 6.53-.2 13.09-.39 19.5-1.4 3.58-.55 7.26-1.44 9.85-3.58 3.28-2.72 4.1-7.32 1.9-10.72-3.7-5.72-13.91-7.14-16.5-13.27-1.42-3.37.04-7.13 2.1-10.26 4.44-6.72 11.87-12.6 12.26-20.28.27-5.28-3.3-10.56-8.83-13.05C101.02 2.76 93 3.08 88.72 7.4c-4.39 4.46-12.11 6.17-18.74 5.94z" fill="#41B883" fill-rule="nonzero" opacity=".1"/>
      <path d="M80 41h-3c0-.25.02-.5.04-.76.1-.9.39-2.35 1.28-3.03.84-.64 1.93.32 1.5 1.34v.02c-.16.37-.17.83-.12 1.25.06.4.16.8.3 1.18z" fill="#41B883" fill-rule="nonzero"/>
      <path d="M80 41h-3c0-.21.02-.42.04-.63.85-.3 1.76-.41 2.66-.36.06.34.16.67.3.99z" fill="#000" fill-rule="nonzero" opacity=".1"/>
      <path d="M82.87 44.42c-.9.68-2.17.69-3.46.4-2.65-.6-5.41-2.45-5.41-2.45a8.21 8.21 0 0 1 7.53-2.16c.82.17 1.54.6 2.03 1.24.55.74.84 1.83-.7 2.97z" fill="#41B883" fill-rule="nonzero"/>
      <path d="M82 43.53s-2.1-1.46-5 .47" fill="#000" fill-rule="nonzero" opacity=".1"/>
      <path d="M27 57.35s-6.62-4.97-6.96-.46c-.33 4.5 1.34 8.73 2.77 9.1 1.43.37 4.19-8.64 4.19-8.64z" fill="#41B883" fill-rule="nonzero"/>
      <path d="M27 57.35s-6.62-4.97-6.96-.46c-.33 4.5 1.34 8.73 2.77 9.1 1.43.37 4.19-8.64 4.19-8.64z" fill="#000" fill-rule="nonzero" opacity=".2"/>
      <path d="M23 59s.16 3.5 1.53 2.94c1.38-.56-.64-2.78-1.53-2.94z" fill="#000" fill-rule="nonzero" opacity=".1"/>
      <path d="M41.86 91.47a7.93 7.93 0 0 1-.92 2.32c-1.46 2.56-4.84 3.63-4.84 3.06 0-.56-.34-2.02-1.19-1.6-.85.43-2.14.33-2.14.33-2.34-.19-1.94-2.61-1.17-4.67A19.42 19.42 0 0 1 33 88l8.93 1.5s.2.75-.07 1.97z" fill="#41B883" fill-rule="nonzero"/>
      <path d="M79 45c-2.45-.6-5-2.46-5-2.46.17-.2.36-.37.56-.54.37.2.75.4 1.12.63 1.18.68 2.3 1.47 3.32 2.37zM42.85 91c-2.54-.2-6.23-.74-9.85-2.19.3-.49.54-.81.54-.81l9.38 1.3s.22.64-.07 1.7z" fill="#000" fill-rule="nonzero" opacity=".1"/>
      <path d="M80.62 80.22s-.17 2.91-1.82 6.21a15.77 15.77 0 0 1-5.67 6.34s-1.46 1.19-1.55-2.09c0 0-.64-.68-5.02 2.3 0 0-2.64 1.61-1.92-5.1v-.02l-.18.12h-.01c-.31.19-.98.58-1.76.97-1.45.73-3.32 1.46-4.25 1a13.9 13.9 0 0 1-1.55 4.86 8.22 8.22 0 0 1-4.64 4.03 3.27 3.27 0 0 1-3.32-.8l-.26-.26s-2 1.36-3.01.9c-1-.45-1.83-1.72-.46-4.09l.16-.48c.23-.73.55-2.05.03-2.25 0 0-21.27 1.1-24.1-17.74C18.46 55.3 37.17 48.37 42.46 49.1c0 0 14.06-17.65 33.5-6.28 19.44 11.37 4.66 37.4 4.66 37.4z" fill="#41B883" fill-rule="nonzero"/>
      <path d="M43 49s23.54-.1 21.92 30" stroke="#000" opacity=".1"/>
      <path d="M41 93.38c-.07.15-.16.3-.25.46-1.43 2.52-4.75 3.57-4.75 3.01 0-.55-.32-1.99-1.16-1.57-.83.41-2.1.32-2.1.32-2.3-.18-1.91-2.57-1.15-4.6 2.15 1.14 6.04 2.84 9.41 2.38zM57 94.71a8.1 8.1 0 0 1-4.5 4.13 3.05 3.05 0 0 1-3.2-.82l-.25-.27s-1.94 1.4-2.91.93c-.97-.46-1.77-1.76-.44-4.18l.15-.5c1.73.64 6.32 2.01 11.15.71z" fill="#000" fill-rule="nonzero" opacity=".2"/>
      <path d="M65 88c8.54-4.45 10-8 10-8" fill="#000" fill-rule="nonzero" opacity=".1"/>
      <path d="M79 86a16.14 16.14 0 0 1-5.56 6.6s-1.43 1.24-1.52-2.17c0 0-.62-.71-4.92 2.4 0 0-2.59 1.67-1.88-5.33l2.15-1.26C71.9 88.97 76.55 87.31 79 86z" fill="#000" fill-rule="nonzero" opacity=".2"/>
      <path d="M45 51.3s4.86-7.1 8.53-4.87c3.66 2.23-.67 10.57-.67 10.57s-7.2-.14-7.86-5.7z" fill="#41B883" fill-rule="nonzero"/>
      <path d="M45 51.3s4.86-7.1 8.53-4.87c3.66 2.23-.67 10.57-.67 10.57s-7.2-.14-7.86-5.7z" fill="#000" fill-rule="nonzero" opacity=".2"/>
      <path d="M53 50s-6.65 2.97-4.61 4.7C50.42 56.44 53 50 53 50z" fill="#000" fill-rule="nonzero" opacity=".1"/>
      <path d="M69 41.12a27.3 27.3 0 0 0-4.67.78l-.04.01c-2.16.56-4.62 1.51-6.31 3.09 0 0-3.92-1.55-4.98-1.3 0 0 3.18-3.6 11.74-3.7h.02s2.21.18 4.24 1.12z"/>
      <ellipse fill="#000" fill-rule="nonzero" opacity=".1" transform="rotate(-13 36.5 71)" cx="36.5" cy="71" rx="8.5" ry="7"/>
      <ellipse fill="#41B883" fill-rule="nonzero" transform="rotate(-13 36.5 71)" cx="36.5" cy="71" rx="8.5" ry="7"/>
      <ellipse fill="#000" fill-rule="nonzero" opacity=".2" transform="rotate(-13 36.5 71)" cx="36.5" cy="71" rx="8.5" ry="7"/>
      <path d="M33 71s.08 2.63.73 1.86c.65-.77.03-1.86-.73-1.86zM37 69s.08 2.63.73 1.86c.65-.77.03-1.87-.73-1.86zM45 83.53s1.8 1.35 4-.53" fill="#000" fill-rule="nonzero" opacity=".1"/>
      <path d="M53 43.7c1.08-.25 5.09 1.3 5.09 1.3 1.73-1.58 4.24-2.53 6.45-3.09L65 40c-8.75.1-12 3.7-12 3.7z" fill="#000" fill-rule="nonzero" opacity=".15"/>
      <path d="M64.46 40L64 42a29.7 29.7 0 0 1 5-.82c-2.17-1-4.54-1.18-4.54-1.18z" fill="#000" fill-rule="nonzero" opacity=".3"/>
      <path fill="#000" fill-rule="nonzero" opacity=".15" d="M64.48 40L64 42l.05-.01.45-1.99z"/>
      <g opacity=".1" transform="translate(21 49)" fill="#FFF" fill-rule="nonzero">
        <path d="M25.26 46.6s.08-.2.17-.5c.22-.73.54-2.05.02-2.25l-.69.01c-.05.49-.15.96-.3 1.42l-.16.49c-1.37 2.38-.55 3.65.46 4.1l.05.03c-.4-.7-.43-1.77.45-3.3zM1.3 26.04C-1.54 7.14 17.82-.54 23.12.2L21.56.11C16.26-.62-2.5 6.32.34 25.23c.9 5.94 3.61 9.9 6.92 12.55C4.39 35.15 2.1 31.4 1.3 26.04zM44.74 39.85v-.02l-.18.12h-.01l-.88.51c-.14 3.12.67 3.8 1.3 3.85-.31-.73-.48-2.06-.23-4.46zM51.7 42.67s-.17-.18-.9.04c.2 1.36.72 1.5 1.1 1.42-.13-.48-.2-.97-.2-1.46z"/>
      </g>
      <path d="M46 91s11.82-.76 13-2" fill="#000" fill-rule="nonzero" opacity=".1"/>
      <ellipse fill="#FBD56F" fill-rule="nonzero" cx="74" cy="88.5" rx="5" ry="5.5"/>
      <ellipse fill="#000" fill-rule="nonzero" opacity=".1" cx="74" cy="88.5" rx="5" ry="5.5"/>
      <ellipse fill="#FBD56F" fill-rule="nonzero" cx="75" cy="88.5" rx="5" ry="5.5"/>
      <path d="M76.74 93.42l-.55-.3s-.26 1.06-.17 1.81c.01.16.13.29.28.33 1.27.3 7.31 1.62 11.47-.23.12-.06.2-.17.22-.3a5.47 5.47 0 0 0-.2-1.6c-.15-.4-11.05.3-11.05.3z" fill="#FBD56F" fill-rule="nonzero"/>
      <path d="M76.74 93.42l-.55-.3s-.26 1.06-.17 1.81c.01.16.13.29.28.33 1.27.3 7.31 1.62 11.47-.23.12-.06.2-.17.22-.3a5.47 5.47 0 0 0-.2-1.6c-.15-.4-11.05.3-11.05.3z" fill="#000" fill-rule="nonzero" opacity=".1"/>
      <ellipse fill="#FBD56F" fill-rule="nonzero" cx="81.5" cy="93.5" rx="5.5" ry="1.5"/>
      <path d="M78.74 91.42l-.55-.3s-.26 1.06-.17 1.81c.01.16.13.29.28.33 1.27.3 7.31 1.62 11.47-.23.12-.06.2-.17.22-.3a5.51 5.51 0 0 0-.2-1.6c-.16-.4-11.05.3-11.05.3z" fill="#FBD56F" fill-rule="nonzero"/>
      <path d="M78.74 91.42l-.55-.3s-.26 1.06-.17 1.81c.01.16.13.29.28.33 1.27.3 7.31 1.62 11.47-.23.12-.06.2-.17.22-.3a5.51 5.51 0 0 0-.2-1.6c-.16-.4-11.05.3-11.05.3z" fill="#000" fill-rule="nonzero" opacity=".1"/>
      <ellipse fill="#FBD56F" fill-rule="nonzero" cx="83.5" cy="91.5" rx="5.5" ry="1.5"/>
      <path d="M80.74 88.42l-.55-.3s-.26 1.06-.17 1.81c.01.16.13.29.28.33 1.27.3 7.31 1.62 11.47-.23.12-.06.2-.17.22-.3a5.51 5.51 0 0 0-.2-1.6c-.15-.4-11.05.3-11.05.3z" fill="#FBD56F" fill-rule="nonzero"/>
      <path d="M80.74 88.42l-.55-.3s-.26 1.06-.17 1.81c.01.16.13.29.28.33 1.27.3 7.31 1.62 11.47-.23.12-.06.2-.17.22-.3a5.51 5.51 0 0 0-.2-1.6c-.15-.4-11.05.3-11.05.3z" fill="#000" fill-rule="nonzero" opacity=".1"/>
      <ellipse fill="#FBD56F" fill-rule="nonzero" cx="85.5" cy="88.5" rx="5.5" ry="1.5"/>
      <path d="M78.74 86.43l-.55-.3s-.26 1.05-.17 1.8c.01.16.13.29.28.33 1.27.3 7.31 1.62 11.47-.23.12-.06.2-.17.22-.3a5.53 5.53 0 0 0-.2-1.6c-.15-.4-11.05.3-11.05.3z" fill="#FBD56F" fill-rule="nonzero"/>
      <path d="M78.74 86.43l-.55-.3s-.26 1.05-.17 1.8c.01.16.13.29.28.33 1.27.3 7.31 1.62 11.47-.23.12-.06.2-.17.22-.3a5.53 5.53 0 0 0-.2-1.6c-.15-.4-11.05.3-11.05.3z" fill="#000" fill-rule="nonzero" opacity=".1"/>
      <ellipse fill="#FBD56F" fill-rule="nonzero" cx="83.5" cy="86.5" rx="5.5" ry="1.5"/>
      <path d="M83.74 84.43l-.55-.3s-.26 1.05-.17 1.8c.01.16.13.29.28.33 1.27.3 7.31 1.62 11.47-.23.12-.06.2-.17.22-.3a5.52 5.52 0 0 0-.2-1.6c-.15-.4-11.05.3-11.05.3z" fill="#FBD56F" fill-rule="nonzero"/>
      <path d="M83.74 84.43l-.55-.3s-.26 1.05-.17 1.8c.01.16.13.29.28.33 1.27.3 7.31 1.62 11.47-.23.12-.06.2-.17.22-.3a5.52 5.52 0 0 0-.2-1.6c-.15-.4-11.05.3-11.05.3z" fill="#000" fill-rule="nonzero" opacity=".1"/>
      <ellipse fill="#FBD56F" fill-rule="nonzero" cx="88.5" cy="84.5" rx="5.5" ry="1.5"/>
      <path d="M80.74 82.43l-.55-.3s-.26 1.05-.17 1.8c.01.16.13.29.28.33 1.27.3 7.31 1.62 11.47-.23.12-.06.2-.17.22-.3a5.52 5.52 0 0 0-.2-1.6c-.15-.4-11.05.3-11.05.3z" fill="#FBD56F" fill-rule="nonzero"/>
      <path d="M80.74 82.43l-.55-.3s-.26 1.05-.17 1.8c.01.16.13.29.28.33 1.27.3 7.31 1.62 11.47-.23.12-.06.2-.17.22-.3a5.52 5.52 0 0 0-.2-1.6c-.15-.4-11.05.3-11.05.3z" fill="#000" fill-rule="nonzero" opacity=".1"/>
      <ellipse fill="#FBD56F" fill-rule="nonzero" cx="85.5" cy="82.5" rx="5.5" ry="1.5"/>
      <path d="M82.74 80.43l-.55-.3s-.26 1.05-.17 1.8c.01.16.13.29.28.33 1.27.3 7.31 1.62 11.47-.23.12-.06.2-.17.22-.3a5.53 5.53 0 0 0-.2-1.6c-.15-.4-11.05.3-11.05.3z" fill="#FBD56F" fill-rule="nonzero"/>
      <path d="M82.74 80.43l-.55-.3s-.26 1.05-.17 1.8c.01.16.13.29.28.33 1.27.3 7.31 1.62 11.47-.23.12-.06.2-.17.22-.3a5.53 5.53 0 0 0-.2-1.6c-.15-.4-11.05.3-11.05.3z" fill="#000" fill-rule="nonzero" opacity=".1"/>
      <ellipse fill="#FBD56F" fill-rule="nonzero" cx="87.5" cy="80.5" rx="5.5" ry="1.5"/>
      <path d="M83.74 77.43l-.55-.3s-.26 1.05-.17 1.8c.01.16.13.29.28.33 1.27.3 7.31 1.62 11.47-.23.12-.06.2-.17.22-.3a5.53 5.53 0 0 0-.2-1.6c-.15-.4-11.05.3-11.05.3z" fill="#FBD56F" fill-rule="nonzero"/>
      <path d="M83.74 77.43l-.55-.3s-.26 1.05-.17 1.8c.01.16.13.29.28.33 1.27.3 7.31 1.62 11.47-.23.12-.06.2-.17.22-.3a5.53 5.53 0 0 0-.2-1.6c-.15-.4-11.05.3-11.05.3z" fill="#000" fill-rule="nonzero" opacity=".1"/>
      <ellipse fill="#FBD56F" fill-rule="nonzero" cx="88.5" cy="77.5" rx="5.5" ry="1.5"/>
      <path d="M92.74 93.43l-.55-.3s-.26 1.05-.17 1.8c.01.16.13.29.28.33 1.27.3 7.31 1.62 11.47-.23.12-.06.2-.17.22-.3a5.47 5.47 0 0 0-.2-1.6c-.15-.4-11.05.3-11.05.3z" fill="#FBD56F" fill-rule="nonzero"/>
      <path d="M92.74 93.43l-.55-.3s-.26 1.05-.17 1.8c.01.16.13.29.28.33 1.27.3 7.31 1.62 11.47-.23.12-.06.2-.17.22-.3a5.47 5.47 0 0 0-.2-1.6c-.15-.4-11.05.3-11.05.3z" fill="#000" fill-rule="nonzero" opacity=".1"/>
      <ellipse fill="#FBD56F" fill-rule="nonzero" cx="97.5" cy="93.5" rx="5.5" ry="1.5"/>
      <path d="M94.74 91.43l-.55-.3s-.26 1.05-.17 1.8c.01.16.13.29.28.33 1.27.3 7.31 1.62 11.47-.23.12-.06.2-.17.22-.3a5.52 5.52 0 0 0-.2-1.6c-.15-.4-11.05.3-11.05.3z" fill="#FBD56F" fill-rule="nonzero"/>
      <path d="M94.74 91.43l-.55-.3s-.26 1.05-.17 1.8c.01.16.13.29.28.33 1.27.3 7.31 1.62 11.47-.23.12-.06.2-.17.22-.3a5.52 5.52 0 0 0-.2-1.6c-.15-.4-11.05.3-11.05.3z" fill="#000" fill-rule="nonzero" opacity=".1"/>
      <ellipse fill="#FBD56F" fill-rule="nonzero" cx="99.5" cy="91.5" rx="5.5" ry="1.5"/>
      <path d="M92.74 88.42l-.55-.3s-.26 1.06-.17 1.81c.01.16.13.29.28.33 1.27.3 7.31 1.63 11.47-.23.12-.06.2-.17.22-.3a5.53 5.53 0 0 0-.2-1.61c-.15-.4-11.05.3-11.05.3z" fill="#FBD56F" fill-rule="nonzero"/>
      <path d="M92.74 88.42l-.55-.3s-.26 1.06-.17 1.81c.01.16.13.29.28.33 1.27.3 7.31 1.63 11.47-.23.12-.06.2-.17.22-.3a5.53 5.53 0 0 0-.2-1.61c-.15-.4-11.05.3-11.05.3z" fill="#000" fill-rule="nonzero" opacity=".1"/>
      <ellipse fill="#FBD56F" fill-rule="nonzero" cx="97.5" cy="88.5" rx="5.5" ry="1.5"/>
      <path d="M97.74 86.43l-.55-.3s-.26 1.05-.17 1.8c.01.16.13.29.28.33 1.27.3 7.31 1.63 11.47-.23.12-.06.2-.17.22-.3a5.55 5.55 0 0 0-.2-1.61c-.15-.39-11.05.3-11.05.3z" fill="#FBD56F" fill-rule="nonzero"/>
      <path d="M97.74 86.43l-.55-.3s-.26 1.05-.17 1.8c.01.16.13.29.28.33 1.27.3 7.31 1.63 11.47-.23.12-.06.2-.17.22-.3a5.55 5.55 0 0 0-.2-1.61c-.15-.39-11.05.3-11.05.3z" fill="#000" fill-rule="nonzero" opacity=".1"/>
      <ellipse fill="#FBD56F" fill-rule="nonzero" cx="102.5" cy="86.5" rx="5.5" ry="1.5"/>
      <path d="M93.74 85.42l-.55-.3s-.26 1.06-.17 1.81c.01.16.13.29.28.33 1.27.3 7.31 1.62 11.47-.23.12-.06.2-.17.22-.3a5.52 5.52 0 0 0-.2-1.6c-.15-.4-11.05.3-11.05.3z" fill="#FBD56F" fill-rule="nonzero"/>
      <path d="M93.74 85.42l-.55-.3s-.26 1.06-.17 1.81c.01.16.13.29.28.33 1.27.3 7.31 1.62 11.47-.23.12-.06.2-.17.22-.3a5.52 5.52 0 0 0-.2-1.6c-.15-.4-11.05.3-11.05.3z" fill="#000" fill-rule="nonzero" opacity=".1"/>
      <ellipse fill="#FBD56F" fill-rule="nonzero" cx="99.5" cy="85.5" rx="5.5" ry="1.5"/>
      <path d="M96.74 82.42l-.55-.3s-.26 1.06-.17 1.81c.01.16.13.29.28.33 1.27.3 7.31 1.62 11.47-.23.12-.06.2-.17.22-.3a5.51 5.51 0 0 0-.2-1.6c-.15-.4-11.05.3-11.05.3z" fill="#FBD56F" fill-rule="nonzero"/>
      <path d="M96.74 82.42l-.55-.3s-.26 1.06-.17 1.81c.01.16.13.29.28.33 1.27.3 7.31 1.62 11.47-.23.12-.06.2-.17.22-.3a5.51 5.51 0 0 0-.2-1.6c-.15-.4-11.05.3-11.05.3z" fill="#000" fill-rule="nonzero" opacity=".1"/>
      <ellipse fill="#FBD56F" fill-rule="nonzero" cx="101.5" cy="82.5" rx="5.5" ry="1.5"/>
      <path d="M97.74 79.42l-.55-.3s-.26 1.06-.17 1.81c.01.16.13.29.28.33 1.27.3 7.31 1.62 11.47-.23.12-.06.2-.17.22-.3a5.51 5.51 0 0 0-.2-1.6c-.15-.4-11.05.3-11.05.3z" fill="#FBD56F" fill-rule="nonzero"/>
      <path d="M97.74 79.42l-.55-.3s-.26 1.06-.17 1.81c.01.16.13.29.28.33 1.27.3 7.31 1.62 11.47-.23.12-.06.2-.17.22-.3a5.51 5.51 0 0 0-.2-1.6c-.15-.4-11.05.3-11.05.3z" fill="#000" fill-rule="nonzero" opacity=".1"/>
      <ellipse fill="#FBD56F" fill-rule="nonzero" cx="102.5" cy="79.5" rx="5.5" ry="1.5"/>
      <path d="M55.9 40.32A5.17 5.17 0 0 1 62 35.3a5.27 5.27 0 0 0-7 4.9c0 2.16 1.33 4.01 3.21 4.8l.34-.26a5.06 5.06 0 0 1-2.64-4.42z" fill="#FBD56F" fill-rule="nonzero"/>
      <path d="M55.9 40.32A5.17 5.17 0 0 1 62 35.3a5.27 5.27 0 0 0-7 4.9c0 2.16 1.33 4.01 3.21 4.8l.34-.26a5.06 5.06 0 0 1-2.64-4.42z" fill="#000" fill-rule="nonzero" opacity=".1"/>
      <path d="M65.18 40.22c0 .6-.09 1.2-.26 1.78l.9-.21c.12-.47.18-.96.18-1.45 0-2.7-1.73-4.92-4-5.34 1.85.77 3.18 2.81 3.18 5.22z" fill="#FBD56F" fill-rule="nonzero"/>
      <path d="M56 40.35A5.45 5.45 0 0 0 58.48 45c.93-.77 2.98-2.19 6.26-3.01.17-.57.26-1.16.26-1.76 0-2.38-1.37-4.4-3.28-5.16a4.62 4.62 0 0 0-.8-.07C58.2 35 56 37.4 56 40.35z" fill="#FBD56F" fill-rule="nonzero"/>
      <ellipse fill="#FBD56F" fill-rule="nonzero" cx="85" cy="96.5" rx="5" ry="5.5"/>
      <ellipse fill="#000" fill-rule="nonzero" opacity=".1" cx="85" cy="96.5" rx="5" ry="5.5"/>
      <ellipse fill="#FBD56F" fill-rule="nonzero" cx="86" cy="96.5" rx="5" ry="5.5"/>
      <ellipse fill="#41B883" fill-rule="nonzero" cx="12.5" cy="98" rx="6.5" ry="1"/>
      <path d="M14.42 95.99c.25-.26.49-.56.56-.94.07-.37-.07-.81-.39-.95-.36-.15-.74.13-1.03.4-.3.28-.63.6-1.01.54.4-.4.58-1 .47-1.58a.7.7 0 0 0-.12-.32c-.2-.24-.56-.14-.8.05-.76.59-.97 1.73-.98 2.75-.07-.37-.01-.75-.01-1.13 0-.38-.1-.8-.38-1-.18-.11-.38-.16-.59-.16-.34-.01-.72.03-.95.3-.3.34-.22.92.03 1.3.26.37.64.6 1 .87.27.18.52.44.7.74l.05.14h2.14c.48-.27.92-.61 1.31-1.01z" fill="#41B883" fill-rule="nonzero"/>
      <path d="M58 38.58L63.16 36l1.91 1.74.45 1.25.48 2.09-.42.92-3.3.6s-1.76-.1-2.03.03c-.28.14-1.39.37-1.39.37L58 40.88v-2.3z" fill="#FBD56F" fill-rule="nonzero"/>
    </g>
    <g transform="translate(10 28)">
      <path d="M8.28 19.72a1.45 1.45 0 0 1-.15-.92H1.7l9.56-16.99 4.02 7.25 1.27-.96L12.57.9C12.49.75 12.03 0 11.24 0c-.36 0-.88.16-1.3.9L.26 18.1c-.08.15-.48.93-.09 1.62.18.32.57.7 1.42.7h8.1c-.84 0-1.23-.38-1.4-.7z" fill="#00C58E"/>
      <path d="M26.66 18.13L18.88 4.17c-.08-.15-.53-.89-1.31-.89-.36 0-.86.15-1.27.89l-1.02 1.66v3.22l2.3-3.98 7.7 13.76h-2.93a1.36 1.36 0 0 1-.13.81l-.02.05c-.4.69-1.25.72-1.41.72h4.58c.17 0 1.02-.03 1.41-.72.17-.3.3-.83-.12-1.56z" fill="#108775"/>
      <path d="M22.4 19.69l.03-.06.06-.13c.08-.22.1-.46.07-.69a2.08 2.08 0 0 0-.27-.7L16.21 7.45l-.92-1.62h-.01l-.93 1.62-6.08 10.66c-.12.22-.2.46-.24.7a1.42 1.42 0 0 0 .15.92c.18.3.57.68 1.43.68h11.33c.18 0 1.06-.03 1.46-.72zM15.28 9.07l5.56 9.74H9.72l5.56-9.74z" fill="#2F495E" fill-rule="nonzero"/>
    </g>
    <g transform="translate(53 6)">
      <path d="M8.28 19.72a1.45 1.45 0 0 1-.15-.92H1.7l9.56-16.99 4.02 7.25 1.27-.96L12.57.9C12.49.75 12.03 0 11.24 0c-.36 0-.88.16-1.3.9L.26 18.1c-.08.15-.48.93-.09 1.62.18.32.57.7 1.42.7h8.1c-.84 0-1.23-.38-1.4-.7z" fill="#00C58E"/>
      <path d="M26.66 18.13L18.88 4.17c-.08-.15-.53-.89-1.31-.89-.36 0-.86.15-1.27.89l-1.02 1.66v3.22l2.3-3.98 7.7 13.76h-2.93a1.36 1.36 0 0 1-.13.81l-.02.05c-.4.69-1.25.72-1.41.72h4.58c.17 0 1.02-.03 1.41-.72.17-.3.3-.83-.12-1.56z" fill="#108775"/>
      <path d="M22.4 19.69l.03-.06.06-.13c.08-.22.1-.46.07-.69a2.08 2.08 0 0 0-.27-.7L16.21 7.45l-.92-1.62h-.01l-.93 1.62-6.08 10.66c-.12.22-.2.46-.24.7a1.42 1.42 0 0 0 .15.92c.18.3.57.68 1.43.68h11.33c.18 0 1.06-.03 1.46-.72zM15.28 9.07l5.56 9.74H9.72l5.56-9.74z" fill="#2F495E" fill-rule="nonzero"/>
    </g>
    <g transform="translate(91 32)">
      <path d="M8.28 19.72a1.45 1.45 0 0 1-.15-.92H1.7l9.56-16.99 4.02 7.25 1.27-.96L12.57.9C12.49.75 12.03 0 11.24 0c-.36 0-.88.16-1.3.9L.26 18.1c-.08.15-.48.93-.09 1.62.18.32.57.7 1.42.7h8.1c-.84 0-1.23-.38-1.4-.7z" fill="#00C58E"/>
      <path d="M26.66 18.13L18.88 4.17c-.08-.15-.53-.89-1.31-.89-.36 0-.86.15-1.27.89l-1.02 1.66v3.22l2.3-3.98 7.7 13.76h-2.93a1.36 1.36 0 0 1-.13.81l-.02.05c-.4.69-1.25.72-1.41.72h4.58c.17 0 1.02-.03 1.41-.72.17-.3.3-.83-.12-1.56z" fill="#108775"/>
      <path d="M22.4 19.69l.03-.06.06-.13c.08-.22.1-.46.07-.69a2.08 2.08 0 0 0-.27-.7L16.21 7.45l-.92-1.62h-.01l-.93 1.62-6.08 10.66c-.12.22-.2.46-.24.7a1.42 1.42 0 0 0 .15.92c.18.3.57.68 1.43.68h11.33c.18 0 1.06-.03 1.46-.72zM15.28 9.07l5.56 9.74H9.72l5.56-9.74z" fill="#2F495E" fill-rule="nonzero"/>
    </g>
  </g>
</svg>
