<?xml version="1.0" encoding="UTF-8"?>
<svg width="125px" height="125px" viewBox="0 0 125 125" version="1.1" xmlns="http://www.w3.org/2000/svg" xmlns:xlink="http://www.w3.org/1999/xlink">
    <!-- Generator: Sketch 51.3 (57544) - http://www.bohemiancoding.com/sketch -->
    <title>Group 2</title>
    <desc>Created with Sketch.</desc>
    <defs></defs>
    <g id="Page-1" stroke="none" stroke-width="1" fill="none" fill-rule="evenodd">
        <g id="Group-2">
            <rect id="Rectangle" fill="#FFFFFF" x="0" y="0" width="125" height="125"></rect>
            <g id="undraw_savings_hjfl" transform="translate(3.000000, 10.000000)">
                <ellipse id="Oval" fill="#41B883" fill-rule="nonzero" opacity="0.1" cx="58.5" cy="98" rx="58.5" ry="9"></ellipse>
                <path d="M69.9839293,13.3545518 C62.4828514,13.0948251 55.3389031,10.6828847 48.5181366,8.04368347 C41.6973701,5.40448225 34.9390673,2.47985229 27.6172331,1.08923267 C22.9093698,0.189658704 17.5239109,0.0625008801 13.729919,2.57724977 C10.0812231,4.99054295 8.89984403,9.16781275 8.26570149,13.0447737 C7.78771825,15.9612872 7.50663152,19.0306606 8.80886426,21.7604956 C9.717304,23.6543355 11.3291395,25.250572 12.4439811,27.0659529 C16.3221633,33.3832618 13.5805492,41.1737077 9.37782726,47.3435677 C7.40614641,50.2370845 5.11943114,52.9966799 3.59721747,56.078228 C2.07500381,59.1597761 1.37296592,62.6877294 2.70371471,65.8301509 C4.02360025,68.9414594 7.16715479,71.28441 10.5727854,72.9293452 C17.4899633,76.2719727 25.6455523,77.2283619 33.5906657,77.769459 C51.1864237,78.9693419 68.8758772,78.4458304 86.517804,77.9290827 C93.0479784,77.7369932 99.605311,77.5421982 106.028211,76.5371103 C109.595432,75.9784275 113.278076,75.0910282 115.866246,72.9509891 C119.153739,70.2346815 119.968483,65.6340032 117.767316,62.2277968 C114.072451,56.5138112 103.856918,55.094784 101.274179,48.9628008 C99.853808,45.5877075 101.313558,41.8284352 103.378934,38.6981883 C107.809785,31.9818203 115.237536,26.0906253 115.629971,18.4151626 C115.901552,13.1394656 112.327541,7.86376868 106.803576,5.36931093 C101.016176,2.75581182 92.9909464,3.08452832 88.721687,7.41195258 C84.3329318,11.8692401 76.6064414,13.5831653 69.9839293,13.3545518 Z" id="Shape" fill="#41B883" fill-rule="nonzero" opacity="0.1"></path>
                <path d="M80,41 L77,41 C77.0019659,40.7461584 77.0164624,40.4926198 77.0434258,40.2404979 C77.1375151,39.3433856 77.4270205,37.8878937 78.3244873,37.2051357 C79.1628468,36.5673656 80.2545235,37.5293134 79.8262967,38.5468346 L79.8154403,38.5746212 C79.655006,38.9424637 79.6501809,39.4002821 79.7032569,39.8197284 C79.7595659,40.2245714 79.859167,40.6207265 80,41 Z" id="Shape" fill="#41B883" fill-rule="nonzero"></path>
                <path d="M80,41 L77,41 C77.0019659,40.7880979 77.0164624,40.5764488 77.0434258,40.3659823 C77.8900933,40.0753179 78.7953254,39.9555037 79.6972256,40.0147321 C79.7554753,40.3529167 79.8571028,40.683626 80,41 Z" id="Shape" fill="#000000" fill-rule="nonzero" opacity="0.1"></path>
                <path d="M82.8669118,44.4235878 C81.9638393,45.0989419 80.7009379,45.109233 79.4086342,44.8197956 C76.7624217,44.225484 74,42.3653659 74,42.3653659 C74.1880766,42.1737036 74.3901617,41.9940499 74.6048486,41.8276554 C75.694136,40.9683477 78.1905364,39.4491227 81.5326047,40.2042328 C82.3499403,40.3766811 83.0698951,40.8188863 83.5557671,41.4468843 C84.1088115,42.190417 84.3972346,43.2799883 82.8669118,44.4235878 Z" id="Shape" fill="#41B883" fill-rule="nonzero"></path>
                <path d="M82,43.5253947 C82,43.5253947 79.8970459,42.0719158 77,44" id="Shape" fill="#000000" fill-rule="nonzero" opacity="0.1"></path>
                <path d="M27,57.3519698 C27,57.3519698 20.3760495,52.3843576 20.0429937,56.8880846 C19.709938,61.3918116 21.3766463,65.6183218 22.8060702,65.9888728 C24.2354941,66.3594238 27,57.3519698 27,57.3519698 Z" id="Shape" fill="#41B883" fill-rule="nonzero"></path>
                <path d="M27,57.3519698 C27,57.3519698 20.3760495,52.3843576 20.0429937,56.8880846 C19.709938,61.3918116 21.3766463,65.6183218 22.8060702,65.9888728 C24.2354941,66.3594238 27,57.3519698 27,57.3519698 Z" id="Shape" fill="#000000" fill-rule="nonzero" opacity="0.2"></path>
                <path d="M23,59 C23,59 23.1617932,62.498111 24.5348091,61.9395891 C25.9078251,61.3810672 23.8906049,59.1563861 23,59 Z" id="Shape" fill="#000000" fill-rule="nonzero" opacity="0.1"></path>
                <path d="M41.8601568,91.4692679 C41.7140971,92.1159012 41.4888613,92.7397986 41.1901088,93.3252838 C41.1137233,93.4777171 41.0306374,93.6343846 40.9395109,93.7938749 C39.4774662,96.354189 36.0977444,97.4169874 36.0977444,96.8524199 C36.0977444,96.2878523 35.7640605,94.828445 34.9144397,95.2518707 C34.0648189,95.6752964 32.7702862,95.5821428 32.7702862,95.5821428 C30.4318189,95.394424 30.8271472,92.9667834 31.6017226,90.9103459 C31.859335,90.2343759 32.1537516,89.5746181 32.4835057,88.9343594 C32.7756466,88.3697918 32.9940823,88 32.9940823,88 L41.9285017,89.5059841 C41.9285017,89.5059841 42.1281759,90.2483904 41.8601568,91.4692679 Z" id="Shape" fill="#41B883" fill-rule="nonzero"></path>
                <path d="M79,45 C76.5537147,44.4041273 74,42.539123 74,42.539123 C74.173867,42.3469572 74.3606841,42.1668316 74.5591509,42 C74.9319182,42.1960447 75.3064113,42.4045572 75.6826301,42.6255374 C76.8620098,43.3095953 77.9728789,44.1047183 79,45 Z" id="Shape" fill="#000000" fill-rule="nonzero" opacity="0.1"></path>
                <path d="M42.8545738,91 C40.3078704,90.8018753 36.6194442,90.2576437 33,88.8096209 C33.3068996,88.320424 33.5363704,88 33.5363704,88 L42.9221481,89.3049327 C42.9221481,89.3049327 43.1361331,89.9421117 42.8545738,91 Z" id="Shape" fill="#000000" fill-rule="nonzero" opacity="0.1"></path>
                <path d="M80.6172388,80.2176573 C80.6172388,80.2176573 80.452945,83.13445 78.8017924,86.4306851 C77.5303934,89.023075 75.569236,91.2175693 73.1322875,92.7747432 C73.1322875,92.7747432 71.672811,93.9581121 71.5810803,90.6823505 C71.5810803,90.6823505 70.9417036,89.9999002 66.5605359,92.9822081 C66.5605359,92.9822081 63.9167749,94.5927909 64.643775,87.873385 C64.643775,87.873385 64.643775,87.8651956 64.643775,87.8611009 C64.643775,87.8570062 64.5780575,87.9034128 64.4575753,87.9757526 L64.4493606,87.9757526 C64.1372024,88.1668387 63.4745508,88.5585651 62.6859406,88.9530214 C61.2415244,89.6764188 59.3699443,90.4121002 58.4416843,89.948034 C58.2285067,91.6487309 57.7021572,93.2955664 56.889108,94.8057154 C55.9690628,96.4749888 54.517801,98.10741 52.2450702,98.8444564 C51.0766028,99.2179683 49.7967286,98.9068934 48.9318121,98.039165 L48.6716802,97.7798339 C48.6716802,97.7798339 46.6631886,99.1447345 45.6596274,98.6888577 C44.6560661,98.2329809 43.8332281,96.9608935 45.202343,94.5941558 C45.202343,94.5941558 45.2749061,94.3976101 45.3638985,94.109616 C45.5870643,93.3793942 45.9115445,92.0622651 45.3858044,91.8643545 C45.3858044,91.8643545 24.1179731,92.956275 21.2893817,74.1206462 C18.4607902,55.2850174 37.1711148,48.3704308 42.4641131,49.0979228 C42.4641131,49.0979228 56.5208161,31.4456629 75.9622481,42.8193799 C95.4036801,54.1930969 80.6172388,80.2176573 80.6172388,80.2176573 Z" id="Shape" fill="#41B883" fill-rule="nonzero"></path>
                <path d="M43,49.0000032 C43,49.0000032 66.5352856,48.9094591 64.9205552,79" id="Shape" stroke="#000000" opacity="0.1"></path>
                <path d="M41,93.3793843 C40.9250396,93.5295734 40.8435037,93.6839344 40.7540773,93.8410766 C39.3193089,96.3636968 36.0026398,97.4108484 36.0026398,96.8545926 C36.0026398,96.2983368 35.6751812,94.8604154 34.8414111,95.2776073 C34.007641,95.6947992 32.7372594,95.603017 32.7372594,95.603017 C30.442419,95.4180619 30.8303719,93.0261619 31.5904967,91 C33.7419918,92.1417151 37.6333573,93.8424673 41,93.3793843 Z" id="Shape" fill="#000000" fill-rule="nonzero" opacity="0.2"></path>
                <path d="M57,94.7117021 C56.1102352,96.4183917 54.7067371,98.087403 52.5088062,98.8409699 C51.3787954,99.222854 50.1410442,98.9048064 49.3045937,98.0176282 L49.0530233,97.7524843 C49.0530233,97.7524843 47.1106349,99.1479787 46.1401028,98.6818835 C45.1695707,98.2157884 44.3738137,96.9151877 45.6978685,94.4954005 C45.6978685,94.4954005 45.7680434,94.2944493 45.854107,94 C47.5846465,94.6433229 52.1685242,96.0123029 57,94.7117021 Z" id="Shape" fill="#000000" fill-rule="nonzero" opacity="0.2"></path>
                <path d="M65,88 C73.5368615,83.5505059 75,80 75,80" id="Shape" fill="#000000" fill-rule="nonzero" opacity="0.1"></path>
                <path d="M79,86 C77.7539247,88.7001491 75.8318298,90.9858631 73.4434206,92.6077649 C73.4434206,92.6077649 72.013014,93.8403234 71.9231104,90.4283966 C71.9231104,90.4283966 71.2964688,89.7175786 67.0025654,92.8238536 C67.0025654,92.8238536 64.411463,94.5013842 65.1239826,87.5026694 L67.2709343,86.2416781 C71.8976153,88.9669547 76.5457658,87.305062 79,86 Z" id="Shape" fill="#000000" fill-rule="nonzero" opacity="0.2"></path>
                <path d="M45,51.3076009 C45,51.3076009 49.8592154,44.2023501 53.5264938,46.4336721 C57.1937722,48.6649942 52.8604954,57 52.8604954,57 C52.8604954,57 45.6659983,56.8633606 45,51.3076009 Z" id="Shape" fill="#41B883" fill-rule="nonzero"></path>
                <path d="M45,51.3076009 C45,51.3076009 49.8592154,44.2023501 53.5264938,46.4336721 C57.1937722,48.6649942 52.8604954,57 52.8604954,57 C52.8604954,57 45.6659983,56.8633606 45,51.3076009 Z" id="Shape" fill="#000000" fill-rule="nonzero" opacity="0.2"></path>
                <path d="M53,50 C53,50 46.3528285,52.967875 48.3870088,54.70313 C50.4211891,56.438385 53,50 53,50 Z" id="Shape" fill="#000000" fill-rule="nonzero" opacity="0.1"></path>
                <path d="M69,41.1239007 C67.4215805,41.247375 65.8587669,41.5071478 64.3315466,41.8998965 L64.288666,41.9115365 C62.1252702,42.4741335 59.6686263,43.4208484 57.9796836,45 C57.9796836,45 54.0609493,43.4480083 53,43.7066736 C53,43.7066736 56.1814645,40.0918262 64.7368376,40 L64.7575862,40 C64.7575862,40 66.9707789,40.1758924 69,41.1239007 Z" id="Shape"></path>
                <ellipse id="Oval" fill="#000000" fill-rule="nonzero" opacity="0.1" transform="translate(36.500000, 71.000000) rotate(-13.000000) translate(-36.500000, -71.000000) " cx="36.5" cy="71" rx="8.5" ry="7"></ellipse>
                <ellipse id="Oval" fill="#41B883" fill-rule="nonzero" transform="translate(36.500000, 71.000000) rotate(-13.000000) translate(-36.500000, -71.000000) " cx="36.5" cy="71" rx="8.5" ry="7"></ellipse>
                <ellipse id="Oval" fill="#000000" fill-rule="nonzero" opacity="0.2" transform="translate(36.500000, 71.000000) rotate(-13.000000) translate(-36.500000, -71.000000) " cx="36.5" cy="71" rx="8.5" ry="7"></ellipse>
                <path d="M33,71.000005 C33,71.000005 33.0767289,73.6281368 33.7260611,72.8589953 C34.3753933,72.0898537 33.7638529,70.9972923 33,71.000005 Z" id="Shape" fill="#000000" fill-rule="nonzero" opacity="0.1"></path>
                <path d="M37,69.0000451 C37,69.0000451 37.0756681,71.6281255 37.7257254,70.8589975 C38.3757828,70.0898696 37.7635594,68.9918918 37,69.0000451 Z" id="Shape" fill="#000000" fill-rule="nonzero" opacity="0.1"></path>
                <path d="M45,83.5283339 C45,83.5283339 46.8021978,84.8833665 49,83" id="Shape" fill="#000000" fill-rule="nonzero" opacity="0.1"></path>
                <path d="M53,43.7066736 C54.0844821,43.4480083 58.0901379,45 58.0901379,45 C59.8165429,43.4208484 62.3319194,42.4741335 64.5390597,41.9115365 L65,40 C56.2463768,40.0918262 53,43.7066736 53,43.7066736 Z" id="Shape" fill="#000000" fill-rule="nonzero" opacity="0.15"></path>
                <path d="M64.4562963,40 L64,42 C65.6356812,41.5865577 67.3094834,41.3130979 69,41.1831178 C66.8266667,40.1810756 64.4562963,40 64.4562963,40 Z" id="Shape" fill="#000000" fill-rule="nonzero" opacity="0.3"></path>
                <polygon id="Shape" fill="#000000" fill-rule="nonzero" opacity="0.15" points="64.4778761 40 64 42 64.0457227 41.9878214 64.5 40"></polygon>
                <g id="Group" opacity="0.1" transform="translate(21.000000, 49.000000)" fill="#FFFFFF" fill-rule="nonzero">
                    <path d="M25.263219,46.5917808 C25.263219,46.5917808 25.3359367,46.3945205 25.4251187,46.1054795 C25.6487599,45.3726027 25.9739314,44.0506849 25.4470712,43.8520548 C25.4470712,43.8520548 25.2028496,43.8643836 24.7610554,43.8630137 C24.7129456,44.3457925 24.6131316,44.8220301 24.4633245,45.2835616 C24.3741425,45.5726027 24.3014248,45.769863 24.3014248,45.769863 C22.9293931,48.1452055 23.7526121,49.4232877 24.7596834,49.8794521 L24.8131926,49.8986301 C24.4084433,49.2068493 24.3755145,48.1287671 25.263219,46.5917808 Z" id="Shape"></path>
                    <path d="M1.29931398,26.0438356 C-1.53667546,7.13972603 17.8185752,-0.542465753 23.1228496,0.193150685 L21.5587335,0.11369863 C16.2544591,-0.616438356 -2.49709763,6.32328767 0.338891821,25.2273973 C1.2307124,31.1712329 3.95007916,35.1369863 7.25804749,37.7821918 C4.39050132,35.1520548 2.10332454,31.4013699 1.29931398,26.0438356 Z" id="Shape"></path>
                    <path d="M44.7446966,39.8465753 C44.7446966,39.8465753 44.7446966,39.8383562 44.7446966,39.8342466 C44.7446966,39.830137 44.6788391,39.8767123 44.5581003,39.9493151 L44.5498681,39.9493151 C44.3646438,40.0616438 44.0559367,40.2465753 43.6717678,40.460274 C43.5345646,43.5767123 44.3426913,44.2520548 44.977942,44.3109589 C44.6555145,43.5835616 44.4867546,42.2479452 44.7446966,39.8465753 Z" id="Shape"></path>
                    <path d="M51.698153,42.6657534 C51.698153,42.6657534 51.5335092,42.4917808 50.8063325,42.7068493 C50.9956728,44.0657534 51.5197889,44.2136986 51.8929815,44.1328767 C51.7650488,43.6542492 51.6995644,43.1611294 51.698153,42.6657534 Z" id="Shape"></path>
                </g>
                <path d="M46,91 C46,91 57.8190496,90.2385714 59,89" id="Shape" fill="#000000" fill-rule="nonzero" opacity="0.1"></path>
                <ellipse id="Oval" fill="#FBD56F" fill-rule="nonzero" cx="74" cy="88.5" rx="5" ry="5.5"></ellipse>
                <ellipse id="Oval" fill="#000000" fill-rule="nonzero" opacity="0.1" cx="74" cy="88.5" rx="5" ry="5.5"></ellipse>
                <ellipse id="Oval" fill="#FBD56F" fill-rule="nonzero" cx="75" cy="88.5" rx="5" ry="5.5"></ellipse>
                <path d="M76.7424671,93.424294 L76.190642,93.1235689 C76.190642,93.1235689 75.932371,94.1795714 76.01705,94.9334629 C76.0334181,95.0886307 76.1457687,95.217707 76.2993135,95.2577471 C77.5694989,95.5667872 83.612759,96.8847116 87.7704994,95.0276993 C87.8931843,94.9731031 87.9770434,94.8585596 87.9906648,94.7269742 C88.0428836,94.264107 87.862235,93.3092701 87.7902578,93.1235689 C87.6392469,92.723064 76.7424671,93.424294 76.7424671,93.424294 Z" id="Shape" fill="#FBD56F" fill-rule="nonzero"></path>
                <path d="M76.7424671,93.424294 L76.190642,93.1235689 C76.190642,93.1235689 75.932371,94.1795714 76.01705,94.9334629 C76.0334181,95.0886307 76.1457687,95.217707 76.2993135,95.2577471 C77.5694989,95.5667872 83.612759,96.8847116 87.7704994,95.0276993 C87.8931843,94.9731031 87.9770434,94.8585596 87.9906648,94.7269742 C88.0428836,94.264107 87.862235,93.3092701 87.7902578,93.1235689 C87.6392469,92.723064 76.7424671,93.424294 76.7424671,93.424294 Z" id="Shape" fill="#000000" fill-rule="nonzero" opacity="0.1"></path>
                <ellipse id="Oval" fill="#FBD56F" fill-rule="nonzero" cx="81.5" cy="93.5" rx="5.5" ry="1.5"></ellipse>
                <path d="M78.7410839,91.4243061 L78.1906493,91.1235724 C78.1906493,91.1235724 77.9323684,92.1796051 78.0170507,92.9335182 C78.0331908,93.0884938 78.1457663,93.2172746 78.2993248,93.2564258 C79.5695585,93.5668606 85.613048,94.8848226 89.7709462,93.0277573 C89.8932596,92.9727097 89.976944,92.8584058 89.9911201,92.7270236 C90.0419294,92.2641431 89.8612739,91.309279 89.789294,91.1235724 C89.6326319,90.7230561 78.7410839,91.4243061 78.7410839,91.4243061 Z" id="Shape" fill="#FBD56F" fill-rule="nonzero"></path>
                <path d="M78.7410839,91.4243061 L78.1906493,91.1235724 C78.1906493,91.1235724 77.9323684,92.1796051 78.0170507,92.9335182 C78.0331908,93.0884938 78.1457663,93.2172746 78.2993248,93.2564258 C79.5695585,93.5668606 85.613048,94.8848226 89.7709462,93.0277573 C89.8932596,92.9727097 89.976944,92.8584058 89.9911201,92.7270236 C90.0419294,92.2641431 89.8612739,91.309279 89.789294,91.1235724 C89.6326319,90.7230561 78.7410839,91.4243061 78.7410839,91.4243061 Z" id="Shape" fill="#000000" fill-rule="nonzero" opacity="0.1"></path>
                <ellipse id="Oval" fill="#FBD56F" fill-rule="nonzero" cx="83.5" cy="91.5" rx="5.5" ry="1.5"></ellipse>
                <path d="M80.7424079,88.424294 L80.1906269,88.1235689 C80.1906269,88.1235689 79.9323764,89.1795714 80.0170487,89.9334629 C80.0334155,90.0886307 80.1457571,90.217707 80.2992896,90.2577471 C81.5693739,90.5667872 87.6135639,91.8847116 91.769562,90.0276993 C91.8922224,89.9728069 91.9763974,89.8585551 91.9911211,89.7269742 C92.0419245,89.264107 91.8612903,88.3092701 91.7893188,88.1235689 C91.6383199,87.723064 80.7424079,88.424294 80.7424079,88.424294 Z" id="Shape" fill="#FBD56F" fill-rule="nonzero"></path>
                <path d="M80.7424079,88.424294 L80.1906269,88.1235689 C80.1906269,88.1235689 79.9323764,89.1795714 80.0170487,89.9334629 C80.0334155,90.0886307 80.1457571,90.217707 80.2992896,90.2577471 C81.5693739,90.5667872 87.6135639,91.8847116 91.769562,90.0276993 C91.8922224,89.9728069 91.9763974,89.8585551 91.9911211,89.7269742 C92.0419245,89.264107 91.8612903,88.3092701 91.7893188,88.1235689 C91.6383199,87.723064 80.7424079,88.424294 80.7424079,88.424294 Z" id="Shape" fill="#000000" fill-rule="nonzero" opacity="0.1"></path>
                <ellipse id="Oval" fill="#FBD56F" fill-rule="nonzero" cx="85.5" cy="88.5" rx="5.5" ry="1.5"></ellipse>
                <path d="M78.7420836,86.4259659 L78.1902175,86.1239244 C78.1902175,86.1239244 77.9333386,87.1810695 78.0166125,87.9334021 C78.0333692,88.0883709 78.1455655,88.2172307 78.298897,88.2576117 C79.5691771,88.5665807 85.6128876,89.8842019 89.7695264,88.0290024 C89.8923919,87.9743458 89.976668,87.8600006 89.9911197,87.7283464 C90.0419309,87.2655857 89.8612689,86.3109685 89.7892863,86.1239244 C89.6396756,85.7221262 78.7420836,86.4259659 78.7420836,86.4259659 Z" id="Shape" fill="#FBD56F" fill-rule="nonzero"></path>
                <path d="M78.7420836,86.4259659 L78.1902175,86.1239244 C78.1902175,86.1239244 77.9333386,87.1810695 78.0166125,87.9334021 C78.0333692,88.0883709 78.1455655,88.2172307 78.298897,88.2576117 C79.5691771,88.5665807 85.6128876,89.8842019 89.7695264,88.0290024 C89.8923919,87.9743458 89.976668,87.8600006 89.9911197,87.7283464 C90.0419309,87.2655857 89.8612689,86.3109685 89.7892863,86.1239244 C89.6396756,85.7221262 78.7420836,86.4259659 78.7420836,86.4259659 Z" id="Shape" fill="#000000" fill-rule="nonzero" opacity="0.1"></path>
                <ellipse id="Oval" fill="#FBD56F" fill-rule="nonzero" cx="83.5" cy="86.5" rx="5.5" ry="1.5"></ellipse>
                <path d="M83.7410839,84.4264452 L83.1906493,84.12446 C83.1906493,84.12446 82.9323684,85.1814082 83.0170507,85.9336007 C83.0330279,86.0888685 83.1455476,86.2180805 83.2993248,86.25775 C84.5695585,86.5666614 90.613048,87.8840373 94.7695349,86.0291832 C94.8920252,85.9740925 94.9761231,85.8600064 94.9911201,85.7285832 C95.0419294,85.2659086 94.8612739,84.3100839 94.789294,84.12446 C94.6382774,83.7213513 83.7410839,84.4264452 83.7410839,84.4264452 Z" id="Shape" fill="#FBD56F" fill-rule="nonzero"></path>
                <path d="M83.7410839,84.4264452 L83.1906493,84.12446 C83.1906493,84.12446 82.9323684,85.1814082 83.0170507,85.9336007 C83.0330279,86.0888685 83.1455476,86.2180805 83.2993248,86.25775 C84.5695585,86.5666614 90.613048,87.8840373 94.7695349,86.0291832 C94.8920252,85.9740925 94.9761231,85.8600064 94.9911201,85.7285832 C95.0419294,85.2659086 94.8612739,84.3100839 94.789294,84.12446 C94.6382774,83.7213513 83.7410839,84.4264452 83.7410839,84.4264452 Z" id="Shape" fill="#000000" fill-rule="nonzero" opacity="0.1"></path>
                <ellipse id="Oval" fill="#FBD56F" fill-rule="nonzero" cx="88.5" cy="84.5" rx="5.5" ry="1.5"></ellipse>
                <path d="M80.7420836,82.4254866 L80.1902175,82.123389 C80.1902175,82.123389 79.9333386,83.1807309 80.0166125,83.9332035 C80.0333692,84.0882011 80.1455655,84.2170849 80.298897,84.2574735 C81.5691771,84.5665 87.6128876,85.8843665 91.7695264,84.0288216 C91.8923919,83.9741549 91.976668,83.8597884 91.9911197,83.7281097 C92.0419309,83.2652628 91.8612689,82.309082 91.7892863,82.123389 C91.6396756,81.7229017 80.7420836,82.4254866 80.7420836,82.4254866 Z" id="Shape" fill="#FBD56F" fill-rule="nonzero"></path>
                <path d="M80.7420836,82.4254866 L80.1902175,82.123389 C80.1902175,82.123389 79.9333386,83.1807309 80.0166125,83.9332035 C80.0333692,84.0882011 80.1455655,84.2170849 80.298897,84.2574735 C81.5691771,84.5665 87.6128876,85.8843665 91.7695264,84.0288216 C91.8923919,83.9741549 91.976668,83.8597884 91.9911197,83.7281097 C92.0419309,83.2652628 91.8612689,82.309082 91.7892863,82.123389 C91.6396756,81.7229017 80.7420836,82.4254866 80.7420836,82.4254866 Z" id="Shape" fill="#000000" fill-rule="nonzero" opacity="0.1"></path>
                <ellipse id="Oval" fill="#FBD56F" fill-rule="nonzero" cx="85.5" cy="82.5" rx="5.5" ry="1.5"></ellipse>
                <path d="M82.7410839,80.4254866 L82.1906493,80.123389 C82.1906493,80.123389 81.9323684,81.1807309 82.0170507,81.9332035 C82.0330279,82.0885291 82.1455476,82.2177892 82.2993248,82.2574735 C83.5695585,82.5665 89.613048,83.8843665 93.7709462,82.0288216 C93.8934469,81.9740017 93.9772196,81.8595855 93.9911201,81.7281097 C94.0419294,81.2652628 93.8612739,80.3104678 93.789294,80.123389 C93.6396887,79.7229017 82.7410839,80.4254866 82.7410839,80.4254866 Z" id="Shape" fill="#FBD56F" fill-rule="nonzero"></path>
                <path d="M82.7410839,80.4254866 L82.1906493,80.123389 C82.1906493,80.123389 81.9323684,81.1807309 82.0170507,81.9332035 C82.0330279,82.0885291 82.1455476,82.2177892 82.2993248,82.2574735 C83.5695585,82.5665 89.613048,83.8843665 93.7709462,82.0288216 C93.8934469,81.9740017 93.9772196,81.8595855 93.9911201,81.7281097 C94.0419294,81.2652628 93.8612739,80.3104678 93.789294,80.123389 C93.6396887,79.7229017 82.7410839,80.4254866 82.7410839,80.4254866 Z" id="Shape" fill="#000000" fill-rule="nonzero" opacity="0.1"></path>
                <ellipse id="Oval" fill="#FBD56F" fill-rule="nonzero" cx="87.5" cy="80.5" rx="5.5" ry="1.5"></ellipse>
                <path d="M83.7420836,77.4254866 L83.1902175,77.123389 C83.1902175,77.123389 82.9333386,78.1807309 83.0166125,78.9332035 C83.0333692,79.0882011 83.1455655,79.2170849 83.298897,79.2574735 C84.5691771,79.5665 90.6128876,80.8843665 94.7695264,79.0288216 C94.8923919,78.9741549 94.976668,78.8597884 94.9911197,78.7281097 C95.0419309,78.2652628 94.8612689,77.3104678 94.7892863,77.123389 C94.6382641,76.7229017 83.7420836,77.4254866 83.7420836,77.4254866 Z" id="Shape" fill="#FBD56F" fill-rule="nonzero"></path>
                <path d="M83.7420836,77.4254866 L83.1902175,77.123389 C83.1902175,77.123389 82.9333386,78.1807309 83.0166125,78.9332035 C83.0333692,79.0882011 83.1455655,79.2170849 83.298897,79.2574735 C84.5691771,79.5665 90.6128876,80.8843665 94.7695264,79.0288216 C94.8923919,78.9741549 94.976668,78.8597884 94.9911197,78.7281097 C95.0419309,78.2652628 94.8612689,77.3104678 94.7892863,77.123389 C94.6382641,76.7229017 83.7420836,77.4254866 83.7420836,77.4254866 Z" id="Shape" fill="#000000" fill-rule="nonzero" opacity="0.1"></path>
                <ellipse id="Oval" fill="#FBD56F" fill-rule="nonzero" cx="88.5" cy="77.5" rx="5.5" ry="1.5"></ellipse>
                <path d="M92.7424671,93.4254866 L92.190642,93.123389 C92.190642,93.123389 91.932371,94.1807309 92.01705,94.9332035 C92.0334181,95.0883645 92.1457687,95.2174351 92.2993135,95.2574735 C93.5694989,95.5665 99.612759,96.8843665 103.770499,95.0288216 C103.893024,94.9733087 103.976689,94.8585079 103.990665,94.7267239 C104.042884,94.263877 103.862235,93.309082 103.790258,93.123389 C103.639247,92.7229017 92.7424671,93.4254866 92.7424671,93.4254866 Z" id="Shape" fill="#FBD56F" fill-rule="nonzero"></path>
                <path d="M92.7424671,93.4254866 L92.190642,93.123389 C92.190642,93.123389 91.932371,94.1807309 92.01705,94.9332035 C92.0334181,95.0883645 92.1457687,95.2174351 92.2993135,95.2574735 C93.5694989,95.5665 99.612759,96.8843665 103.770499,95.0288216 C103.893024,94.9733087 103.976689,94.8585079 103.990665,94.7267239 C104.042884,94.263877 103.862235,93.309082 103.790258,93.123389 C103.639247,92.7229017 92.7424671,93.4254866 92.7424671,93.4254866 Z" id="Shape" fill="#000000" fill-rule="nonzero" opacity="0.1"></path>
                <ellipse id="Oval" fill="#FBD56F" fill-rule="nonzero" cx="97.5" cy="93.5" rx="5.5" ry="1.5"></ellipse>
                <path d="M94.7420836,91.4254866 L94.1902175,91.123389 C94.1902175,91.123389 93.9333386,92.1807309 94.0166125,92.9332035 C94.0333692,93.0882011 94.1455655,93.2170849 94.298897,93.2574735 C95.5691771,93.5665 101.612888,94.8843665 105.769526,93.0288216 C105.892392,92.9741549 105.976668,92.8597884 105.99112,92.7281097 C106.041931,92.2652628 105.861269,91.309082 105.789286,91.123389 C105.639676,90.7229017 94.7420836,91.4254866 94.7420836,91.4254866 Z" id="Shape" fill="#FBD56F" fill-rule="nonzero"></path>
                <path d="M94.7420836,91.4254866 L94.1902175,91.123389 C94.1902175,91.123389 93.9333386,92.1807309 94.0166125,92.9332035 C94.0333692,93.0882011 94.1455655,93.2170849 94.298897,93.2574735 C95.5691771,93.5665 101.612888,94.8843665 105.769526,93.0288216 C105.892392,92.9741549 105.976668,92.8597884 105.99112,92.7281097 C106.041931,92.2652628 105.861269,91.309082 105.789286,91.123389 C105.639676,90.7229017 94.7420836,91.4254866 94.7420836,91.4254866 Z" id="Shape" fill="#000000" fill-rule="nonzero" opacity="0.1"></path>
                <ellipse id="Oval" fill="#FBD56F" fill-rule="nonzero" cx="99.5" cy="91.5" rx="5.5" ry="1.5"></ellipse>
                <path d="M92.7410839,88.4214286 L92.1906493,88.1203589 C92.1906493,88.1203589 91.9323684,89.1775713 92.0170507,89.9323267 C92.0331908,90.0874755 92.1457663,90.2164001 92.2993248,90.2555951 C93.5695585,90.5663767 99.613048,91.8858111 103.770946,90.0266711 C103.893636,89.9720123 103.977498,89.8573376 103.99112,89.7256014 C104.041929,89.2622038 103.861274,88.3062729 103.789294,88.1203589 C103.639689,87.7277196 92.7410839,88.4214286 92.7410839,88.4214286 Z" id="Shape" fill="#FBD56F" fill-rule="nonzero"></path>
                <path d="M92.7410839,88.4214286 L92.1906493,88.1203589 C92.1906493,88.1203589 91.9323684,89.1775713 92.0170507,89.9323267 C92.0331908,90.0874755 92.1457663,90.2164001 92.2993248,90.2555951 C93.5695585,90.5663767 99.613048,91.8858111 103.770946,90.0266711 C103.893636,89.9720123 103.977498,89.8573376 103.99112,89.7256014 C104.041929,89.2622038 103.861274,88.3062729 103.789294,88.1203589 C103.639689,87.7277196 92.7410839,88.4214286 92.7410839,88.4214286 Z" id="Shape" fill="#000000" fill-rule="nonzero" opacity="0.1"></path>
                <ellipse id="Oval" fill="#FBD56F" fill-rule="nonzero" cx="97.5" cy="88.5" rx="5.5" ry="1.5"></ellipse>
                <path d="M97.7424917,86.425333 L97.1906484,86.1238377 C97.1906484,86.1238377 96.9323688,87.1825446 97.0170506,87.9300305 C97.0330277,88.0857608 97.1455469,88.2153576 97.2993234,88.2551452 C98.5695511,88.5663661 104.613012,89.8862763 108.77089,88.0258977 C108.89358,87.9711616 108.977441,87.8563248 108.991063,87.7244024 C109.041872,87.2603498 108.862629,86.3030676 108.79065,86.1168908 C108.639634,85.7306434 97.7424917,86.425333 97.7424917,86.425333 Z" id="Shape" fill="#FBD56F" fill-rule="nonzero"></path>
                <path d="M97.7424917,86.425333 L97.1906484,86.1238377 C97.1906484,86.1238377 96.9323688,87.1825446 97.0170506,87.9300305 C97.0330277,88.0857608 97.1455469,88.2153576 97.2993234,88.2551452 C98.5695511,88.5663661 104.613012,89.8862763 108.77089,88.0258977 C108.89358,87.9711616 108.977441,87.8563248 108.991063,87.7244024 C109.041872,87.2603498 108.862629,86.3030676 108.79065,86.1168908 C108.639634,85.7306434 97.7424917,86.425333 97.7424917,86.425333 Z" id="Shape" fill="#000000" fill-rule="nonzero" opacity="0.1"></path>
                <ellipse id="Oval" fill="#FBD56F" fill-rule="nonzero" cx="102.5" cy="86.5" rx="5.5" ry="1.5"></ellipse>
                <path d="M93.7410839,85.4243911 L93.1906493,85.1235972 C93.1906493,85.1235972 92.9323684,86.1798414 93.0170507,86.9339055 C93.0335834,87.0887463 93.1459927,87.2173628 93.2993248,87.2568778 C94.5695585,87.5673748 100.613048,88.8842147 104.770946,87.0281635 C104.893636,86.9735548 104.977498,86.8589851 104.99112,86.7273696 C105.041929,86.2643964 104.861274,85.3093409 104.789294,85.1235972 C104.639689,84.7230006 93.7410839,85.4243911 93.7410839,85.4243911 Z" id="Shape" fill="#FBD56F" fill-rule="nonzero"></path>
                <path d="M93.7410839,85.4243911 L93.1906493,85.1235972 C93.1906493,85.1235972 92.9323684,86.1798414 93.0170507,86.9339055 C93.0335834,87.0887463 93.1459927,87.2173628 93.2993248,87.2568778 C94.5695585,87.5673748 100.613048,88.8842147 104.770946,87.0281635 C104.893636,86.9735548 104.977498,86.8589851 104.99112,86.7273696 C105.041929,86.2643964 104.861274,85.3093409 104.789294,85.1235972 C104.639689,84.7230006 93.7410839,85.4243911 93.7410839,85.4243911 Z" id="Shape" fill="#000000" fill-rule="nonzero" opacity="0.1"></path>
                <ellipse id="Oval" fill="#FBD56F" fill-rule="nonzero" cx="99.5" cy="85.5" rx="5.5" ry="1.5"></ellipse>
                <path d="M96.7424952,82.424294 L96.1906493,82.1235689 C96.1906493,82.1235689 95.9323684,83.1795714 96.0170507,83.9334629 C96.0334194,84.0886307 96.1457742,84.217707 96.2993248,84.2577471 C97.5695585,84.5667872 103.613048,85.8847116 107.769535,84.0276993 C107.89221,83.9728069 107.976395,83.8585551 107.99112,83.7269742 C108.041929,83.264107 107.861274,82.3092701 107.789294,82.1235689 C107.639689,81.723064 96.7424952,82.424294 96.7424952,82.424294 Z" id="Shape" fill="#FBD56F" fill-rule="nonzero"></path>
                <path d="M96.7424952,82.424294 L96.1906493,82.1235689 C96.1906493,82.1235689 95.9323684,83.1795714 96.0170507,83.9334629 C96.0334194,84.0886307 96.1457742,84.217707 96.2993248,84.2577471 C97.5695585,84.5667872 103.613048,85.8847116 107.769535,84.0276993 C107.89221,83.9728069 107.976395,83.8585551 107.99112,83.7269742 C108.041929,83.264107 107.861274,82.3092701 107.789294,82.1235689 C107.639689,81.723064 96.7424952,82.424294 96.7424952,82.424294 Z" id="Shape" fill="#000000" fill-rule="nonzero" opacity="0.1"></path>
                <ellipse id="Oval" fill="#FBD56F" fill-rule="nonzero" cx="101.5" cy="82.5" rx="5.5" ry="1.5"></ellipse>
                <path d="M97.7410839,79.424294 L97.1906493,79.1235689 C97.1906493,79.1235689 96.9323684,80.1795714 97.0170507,80.9334629 C97.0334194,81.0886307 97.1457742,81.217707 97.2993248,81.2577471 C98.5695585,81.5667872 104.613048,82.8847116 108.770946,81.0276993 C108.893636,80.9731031 108.977498,80.8585596 108.99112,80.7269742 C109.041929,80.264107 108.861274,79.3092701 108.789294,79.1235689 C108.639689,78.723064 97.7410839,79.424294 97.7410839,79.424294 Z" id="Shape" fill="#FBD56F" fill-rule="nonzero"></path>
                <path d="M97.7410839,79.424294 L97.1906493,79.1235689 C97.1906493,79.1235689 96.9323684,80.1795714 97.0170507,80.9334629 C97.0334194,81.0886307 97.1457742,81.217707 97.2993248,81.2577471 C98.5695585,81.5667872 104.613048,82.8847116 108.770946,81.0276993 C108.893636,80.9731031 108.977498,80.8585596 108.99112,80.7269742 C109.041929,80.264107 108.861274,79.3092701 108.789294,79.1235689 C108.639689,78.723064 97.7410839,79.424294 97.7410839,79.424294 Z" id="Shape" fill="#000000" fill-rule="nonzero" opacity="0.1"></path>
                <ellipse id="Oval" fill="#FBD56F" fill-rule="nonzero" cx="102.5" cy="79.5" rx="5.5" ry="1.5"></ellipse>
                <path d="M55.9052085,40.3216757 C55.9052085,37.5133762 58.2534424,35.2322853 61.1520655,35.2322853 C61.4361926,35.2325593 61.7198073,35.2548199 62,35.2988389 C61.4392743,35.1010499 60.8448273,34.9998019 60.24546,35.0000003 C57.3482339,35.0000003 55,37.3293751 55,40.2029233 C55,42.3613468 56.3256835,44.211797 58.2129316,45 C58.3037318,44.9256166 58.4168829,44.8368785 58.5509878,44.7390056 C56.8972234,43.805158 55.8919916,42.1268471 55.9052085,40.3216757 Z" id="Shape" fill="#FBD56F" fill-rule="nonzero"></path>
                <path d="M55.9052085,40.3216757 C55.9052085,37.5133762 58.2534424,35.2322853 61.1520655,35.2322853 C61.4361926,35.2325593 61.7198073,35.2548199 62,35.2988389 C61.4392743,35.1010499 60.8448273,34.9998019 60.24546,35.0000003 C57.3482339,35.0000003 55,37.3293751 55,40.2029233 C55,42.3613468 56.3256835,44.211797 58.2129316,45 C58.3037318,44.9256166 58.4168829,44.8368785 58.5509878,44.7390056 C56.8972234,43.805158 55.8919916,42.1268471 55.9052085,40.3216757 Z" id="Shape" fill="#000000" fill-rule="nonzero" opacity="0.1"></path>
                <path d="M65.1766201,40.2215391 C65.1762808,40.8251248 65.090559,41.425027 64.9224905,42 C65.2121982,41.9236414 65.5146125,41.8611662 65.8259212,41.7889726 C65.9414694,41.3161756 65.9999908,40.8289108 66,40.3395478 C66,37.6489488 64.2681067,35.4192781 62,35 C63.8513342,35.7663626 65.1766201,37.8127727 65.1766201,40.2215391 Z" id="Shape" fill="#FBD56F" fill-rule="nonzero"></path>
                <path d="M56.0001244,40.350817 C55.9875316,42.250941 56.9316448,44.0175166 58.4847929,45 C59.4117905,44.22834 61.4559056,42.8099684 64.7377659,41.9888782 C64.9111943,41.4202322 64.9996499,40.8269315 65,40.2299876 C65,37.8477276 63.632449,35.8238363 61.7220733,35.0700261 C61.4590813,35.0237104 61.1928775,35.0002883 60.9261927,35 C58.2042023,35.0041192 56.0001244,37.4001098 56.0001244,40.350817 Z" id="Shape" fill="#FBD56F" fill-rule="nonzero"></path>
                <ellipse id="Oval" fill="#FBD56F" fill-rule="nonzero" cx="85" cy="96.5" rx="5" ry="5.5"></ellipse>
                <ellipse id="Oval" fill="#000000" fill-rule="nonzero" opacity="0.1" cx="85" cy="96.5" rx="5" ry="5.5"></ellipse>
                <ellipse id="Oval" fill="#FBD56F" fill-rule="nonzero" cx="86" cy="96.5" rx="5" ry="5.5"></ellipse>
                <ellipse id="Oval" fill="#41B883" fill-rule="nonzero" cx="12.5" cy="98" rx="6.5" ry="1"></ellipse>
                <path d="M14.4206517,95.9850495 C14.6737357,95.7267746 14.9078385,95.4266173 14.9812329,95.0524677 C15.0546273,94.6783181 14.9103693,94.2399488 14.590218,94.104529 C14.2308386,93.9523562 13.8461508,94.2273841 13.5551041,94.5052041 C13.2640575,94.7830241 12.9312519,95.0985383 12.5503604,95.039903 C12.9489369,94.6415129 13.1286259,94.0414843 13.0236276,93.4595398 C13.0085878,93.3418374 12.9648499,93.230853 12.8970856,93.1384413 C12.6984146,92.9038998 12.3365043,92.9988332 12.0973399,93.1900963 C11.3380877,93.7792422 11.1267625,94.9170479 11.1229662,95.9403749 C11.0457756,95.5704135 11.110312,95.1864914 11.1090466,94.8067575 C11.1077812,94.4270236 11.0128746,94.0081994 10.7294205,93.8043717 C10.5487364,93.6976939 10.3458326,93.6452205 10.141,93.6521989 C9.79933653,93.6382381 9.41971042,93.6759323 9.18687308,93.9509601 C8.89709181,94.294396 8.97175162,94.868185 9.22357027,95.2451268 C9.47538892,95.6220685 9.85628044,95.8566101 10.2118636,96.1176771 C10.4945842,96.3039203 10.7358676,96.5577139 10.9179681,96.8603919 C10.9396697,96.9047827 10.9570602,96.9515783 10.9698504,97 L13.1096762,97 C13.5861466,96.7284399 14.0271357,96.3870284 14.4206517,95.9850495 Z" id="Shape" fill="#41B883" fill-rule="nonzero"></path>
                <path d="M58,38.579519 L63.1635745,36 L65.0699574,37.7418542 L65.5234043,38.9868115 L66,41.0789372 L65.5805957,41.9953452 L62.2784681,42.5954228 C62.2784681,42.5954228 60.5191489,42.4935997 60.2468085,42.6293638 C59.9744681,42.765128 58.8633191,43 58.8633191,43 L58,40.8807215 L58,38.579519 Z" id="Shape" fill="#FBD56F" fill-rule="nonzero"></path>
            </g>
            <g id="logo" opacity="0.680691964" transform="translate(9.000000, 26.000000)">
                <g id="Group-3" transform="translate(0.000000, 3.000000)">
                    <polygon id="Triangle" fill="#41B883" points="11.1111111 0 22.2222222 19 0 19"></polygon>
                    <polygon id="Triangle-2" fill="#3B8070" points="17.2777778 2.36127168 27 19 7.55555556 19"></polygon>
                    <path d="M14.8858623,6.42485549 L22.2222222,19 L7.55555556,19 L14.8858623,6.42485549 Z" id="Combined-Shape" fill="#35495E"></path>
                </g>
            </g>
            <g id="logo" opacity="0.446986607" transform="translate(53.000000, 3.000000)">
                <g id="Group-3" transform="translate(0.000000, 3.000000)">
                    <polygon id="Triangle" fill="#41B883" points="11.1111111 0 22.2222222 19 0 19"></polygon>
                    <polygon id="Triangle-2" fill="#3B8070" points="17.2777778 2.36127168 27 19 7.55555556 19"></polygon>
                    <path d="M14.8858623,6.42485549 L22.2222222,19 L7.55555556,19 L14.8858623,6.42485549 Z" id="Combined-Shape" fill="#35495E"></path>
                </g>
            </g>
            <g id="logo" opacity="0.633091518" transform="translate(91.000000, 30.000000)">
                <g id="Group-3" transform="translate(0.000000, 3.000000)">
                    <polygon id="Triangle" fill="#41B883" points="11.1111111 0 22.2222222 19 0 19"></polygon>
                    <polygon id="Triangle-2" fill="#3B8070" points="17.2777778 2.36127168 27 19 7.55555556 19"></polygon>
                    <path d="M14.8858623,6.42485549 L22.2222222,19 L7.55555556,19 L14.8858623,6.42485549 Z" id="Combined-Shape" fill="#35495E"></path>
                </g>
            </g>
        </g>
    </g>
</svg>