<svg xmlns="http://www.w3.org/2000/svg" height="28" viewBox="0 0 163 28"><g fill="none" fill-rule="evenodd"><path d="M64.715 8.20555556c.2220305.23147033.3412209.54276772.3305556.86333333V25.6666667c.0092544.3553789-.1237343.6997496-.3694445.9566666-.245654.2576937-.5891223.3990387-.945.3888889-.1994598.0003303-.397694-.0311771-.5872222-.0933333-.1735664-.0534988-.3294374-.1529337-.4511111-.2877778l-10.7527778-14v13.1794445c.009802.3216066-.1136514.6329835-.3411673.8604994-.2275158.2275158-.5388927.3509692-.8604994.3411672-.3184937.0122086-.6270124-.1123311-.8477777-.3422222-.2196334-.2311478-.3373171-.540768-.3266667-.8594444V9.17777778c-.0080688-.35435608.1330303-.69581594.3888889-.94111111.2394557-.24568792.5709656-.37970259.9138889-.36944445.2158301-.00104173.4298026.03990363.63.12055556.1821616.07050189.3420052.18870554.4627777.34222222l10.7061112 14.0311111V9.06888889c-.0098021-.32160665.1136514-.63298357.3411672-.86049941.2275159-.22751584.5388928-.35096928.8604994-.34116726.3176445-.01173348.6254917.11112298.8477778.33833334zM86.8038889 8.20555556c.2325638.25854679.3553097.59749305.3422222.945V19.6505556c.0222701 1.3571572-.3073188 2.6969496-.9566667 3.8888888-.6149787 1.1245304-1.5288086 2.0572021-2.6405555 2.695-1.1519937.6609548-2.4597157 1.001983-3.7877778.9877778-1.3399627.0211819-2.6616294-.3129247-3.8305555-.9683333-1.1167967-.6351167-2.0350545-1.5681851-2.6522223-2.695-.6493478-1.1919392-.9789368-2.5317316-.9566666-3.8888889V9.17c-.0101498-.35587767.1311952-.69934597.3888889-.945.26235-.25662203.616983-.39679315.9838888-.38888889.3459182.00023164.677002.14052136.9177778.38888889.2548568.24114067.3960786.57866089.3888889.92944444V19.6544444c-.0140659.8964317.2129163 1.7801851.6572222 2.5588889.8379117 1.4770943 2.4045723 2.390361 4.1027778 2.3916667.8525575.0060649 1.6918534-.211133 2.4344445-.63.7491557-.414004 1.3725889-1.0226575 1.8044444-1.7616667.4514527-.7762901.6827084-1.6609775.6688889-2.5588889V9.15444444c-.0126338-.34469503.103859-.68169211.3266667-.945.2297228-.25716892.5614445-.39953874.9061111-.38888888.342205-.00786306.6711228.13249411.9022222.385zM107.854444 25.0444444c.164055.2257281.250065.4987773.245.7777778.014389.3521144-.12803.6924962-.388888.9294445-.24068.2274983-.559373.3541408-.890556.3538889-.42569.0161378-.829197-.1900338-1.065556-.5444445l-5.316111-7.0972222-5.1955552 7.0855555c-.2340609.3602294-.6359835.5758594-1.0655556.5716667-.314127.0069443-.617001-.1170228-.8361111-.3422222-.2173771-.200312-.3413998-.4821818-.3422222-.7777778.0060092-.3292781.1224161-.6470005.3305555-.9022222L98.9372222 17.465l-5.635-7.57555556c-.175949-.22135151-.2731054-.49503137-.2761111-.77777777-.0071897-.35078356.1340321-.68830378.3888889-.92944445.2407759-.24836753.5718596-.38865725.9177778-.38888889.2038841.00103969.4047998.04894013.5872222.14.1927648.09139128.3578262.23229734.4783333.40833334L100.652222 15.4l5.203334-6.98833333c.229677-.35554123.615691-.57963173 1.038333-.60277778.32981.00177074.643461.14305514.863333.38888889.238946.21347586.379576.51582963.388889.83611111-.009199.28097268-.104196.55239443-.272222.77777778L102.165 17.4105556l5.689444 7.6338888zM127.590556 8.20555556c.257245.23459074.399276.56978328.388888.91777777.009492.3433222-.132776.67338449-.388888.90222227-.263308.2228076-.600305.3393004-.945.3266666h-4.868889v15.3494445c.006704.350691-.134439.6880229-.388889.9294444-.569423.5081212-1.429467.5081212-1.998889 0-.253246-.2422504-.394158-.5790289-.388889-.9294444V10.3522222h-4.857222c-.345647.0131301-.682944-.1081297-.941111-.3383333-.250075-.2381055-.384812-.57282078-.369445-.91777779-.011009-.33623329.123658-.6608532.369445-.89055555.258167-.23020366.595464-.35146345.941111-.33833334h12.502778c.346723-.01252476.685014.10859172.945.33833334z" class="fill-current"/><path fill="#00C58E" d="M133.579444 26.5222222c-.88549-.5014932-1.622185-1.2287956-2.135-2.1077778-.152035-.2173666-.238424-.4738349-.248888-.7388888-.000193-.3430171.150578-.6687379.412222-.8905556.222676-.2329753.525939-.3720868.847778-.3888889.48858.0456475.935693.2938871 1.232777.6844445.607819 1.0001935 1.699729 1.6038507 2.87 1.5866666.949877.0221498 1.867941-.3428297 2.543334-1.0111111.68192-.6461735 1.060237-1.5496176 1.042222-2.4888889V9.17777778c-.004199-.35418453.144633-.69295609.408333-.92944445.254951-.25098396.598911-.39080498.956667-.38888889.361385-.01763672.713749.11626146.972222.36944445.247128.24968064.380721.5899909.369445.94111111v12.0166667c.010226 1.0770922-.27347 2.1365818-.820556 3.0644444-.542163.924686-1.320659 1.6884177-2.255556 2.2127778-.980032.5549692-2.089955.8394961-3.216111.8244444-1.043058.0110499-2.07058-.2532084-2.978889-.7661111zM152.386111 26.7244444c-1.083808-.4114434-2.078081-1.0280772-2.928333-1.8161111-.350592-.269001-.560727-.6821233-.571667-1.1238889.004184-.336029.144515-.655984.388889-.8866666.232746-.2506324.560201-.3917768.902222-.3888889.288127-.0039551.566692.1032927.777778.2994444.656906.6271532 1.420815 1.131597 2.255556 1.4894445.839615.3338482 1.737135.4977548 2.640555.4822222 1.028927.0325665 2.043848-.2452155 2.912778-.7972222.723023-.4062612 1.176065-1.1657737 1.19-1.995.013567-.8908368-.437196-1.7246021-1.19-2.2011111-1.092306-.6414419-2.290981-1.0813952-3.538889-1.2988889-1.882222-.3888889-3.325-1.015-4.34-1.89-1.015-.875-1.516667-2.0883334-1.516667-3.6361111-.021436-1.0164805.27792-2.0138785.855556-2.8505556.587391-.83052839 1.395716-1.47988214 2.333333-1.87444443 1.072402-.45239591 2.227347-.67623265 3.391111-.65722223 1.090803-.00693167 2.17427.17869268 3.200556.54833334.905215.30530096 1.735082.79977447 2.434444 1.45055555.373522.27543843.604551.70326957.63 1.16666667-.000023.3295714-.133263.6451397-.369444.875-.22617.252974-.551274.394941-.890556.3888889-.229358.0088112-.453389-.0705043-.626111-.2216667-.567368-.5321772-1.238641-.9412966-1.971666-1.2016666-.759251-.3060841-1.569185-.4670156-2.387778-.4744445-1.025275-.0527238-2.042016.2106243-2.912778.7544445-.676188.4480604-1.082775 1.2052239-1.082775 2.0163888 0 .811165.406587 1.5683285 1.082775 2.0163889.996126.5808801 2.083599.9885181 3.216111 1.2055556 1.202731.2367017 2.376254.6031018 3.5 1.0927778.848078.3750097 1.57323.9815497 2.092222 1.75.525801.8833524.781322 1.9013804.735 2.9283333.015198 1.0094901-.295766 1.996936-.886666 2.8155556-.621706.8441439-1.458334 1.5061946-2.422778 1.9172222-1.060141.4638984-2.206765.6972-3.363889.6844444-1.203988.0224112-2.40234-.1698519-3.538889-.5677778z" class="fill-nuxt-lightgreen"/><path d="M2.33333333 25.5383333h8.82388887c.0504817-.3348565.1583603-.6584924.3188889-.9566666l8.2755556-14.5522223-4.305-7.56777773L2.33333333 25.5383333zM30.8933333 25.5383333H35L24.22 6.58777778l-1.9444444 3.44166662 8.26 14.5522223c.1760377.2946737.297253.6187929.3577777.9566666zM21.0077778 12.2383333l-7.5638889 13.3h15.1238889z"/><path fill="#00C58E" d="M11.3633333 26.7866667a1.37669204 1.37669204 0 0 1-.0738889-.1516667c-.1491638-.3450868-.1950914-.7260156-.1322222-1.0966667H2.33333333L15.4466667 2.46166667l4.305 7.56777773L21 7.82055556l-3.7527778-6.61111112C17.1422222 1.01888889 16.5083333 0 15.4155556 0c-.4938889 0-1.2016667.21388889-1.7772223 1.225L.35388889 24.5816667c-.11277778.2022222-.66111111 1.2638889-.11666667 2.205.2488889.4277777.77777778.9372222 1.94444445.9372222H13.3077778c-1.1588889 0-1.6955556-.5016667-1.9444445-.9372222z" class="fill-nuxt-lightgreen"/><path fill="#108775" d="M36.9444444 24.5816667L26.0283333 5.35111111c-.1127777-.20222222-.7427777-1.225-1.8394444-1.225-.4938889 0-1.2016667.21-1.7772222 1.22111111L21 7.82055556l1.2561111 2.20888884 1.9444445-3.44166662L35 25.5383333h-4.1066667c.0525492.3132796.0230739.6348285-.0855555.9333334a1.18999367 1.18999367 0 0 1-.0855556.1905555l-.035.07c-.5522222.9411111-1.7461111.9916667-1.9794444.9916667h6.4244444c.2372222 0 1.4272222-.0505556 1.9794445-.9916667.245-.4277778.42-1.1472222-.1672223-2.1505555z" class="fill-nuxt-green"/><path fill-rule="nonzero" d="M30.6872222 26.7322222l.035-.07a1.18999367 1.18999367 0 0 0 .0855556-.1905555c.1086294-.2985049.1381047-.6200538.0855555-.9333334-.0605247-.3378737-.18174-.6619929-.3577777-.9566666l-8.2716667-14.5522223L21 7.82055556l-1.2561111 2.20888884-8.2677778 14.5522223c-.1605286.2981742-.2684072.6218101-.3188889.9566666-.0665405.369528-.0246696.750418.1205556 1.0966667a1.37665623 1.37665623 0 0 0 .0738889.1516667c.2488889.4277777.7777777.9372222 1.9444444.9372222h15.4c.245 0 1.4388889-.0505556 1.9911111-.9916667zM21 12.2383333l7.56 13.3H13.4438889L21 12.2383333z" class="fill-current"/></g></svg>