<svg xmlns="http://www.w3.org/2000/svg" width="33" height="24" class="nui-svg nui-svg-mountains"><g fill="none" fill-rule="evenodd"><path d="M2.02631579 21.89h7.66285088c.04383933-.2870199.13752342-.5644221.27692982-.82L17.1527632 8.59666667 13.4142105 2.11 2.02631579 21.89zM26.8284211 21.89h3.5663157L21.0331579 5.64666667l-1.6885965 2.95L26.5177193 21.07c.1528748.2525775.2581408.530394.3107018.82zM18.2435965 10.49l-6.5686404 11.4h13.1339035z"/><path fill="#00C58E" d="M9.86815789 22.96c-.02406145-.0419978-.04549056-.0854126-.06416666-.13-.12953704-.2957887-.16942152-.6222991-.11482456-.94H2.02631579L13.4142105 2.11l3.7385527 6.48666667 1.0840789-1.89333334-3.2589912-5.66666666C14.8866667.87333333 14.3361842 0 13.387193 0c-.4289035 0-1.0435526.18333333-1.5433772 1.05L.30732456 21.07c-.0979386.1733333-.5741228 1.0833333-.10131579 1.89.21614035.3666667.6754386.8033333 1.68859649.8033333h9.66214914c-1.0064035 0-1.4724562-.43-1.68859651-.8033333z" class="fill-nuxt-lightgreen"/><path fill="#108775" d="M32.0833333 21.07L22.6035526 4.58666667c-.0979386-.17333334-.6450438-1.05-1.5974122-1.05-.4289036 0-1.0435527.18-1.5433772 1.04666666l-1.2259211 2.12 1.0908333 1.89333334 1.6885965-2.95L30.3947368 21.89h-3.5663157c.0456348.2685253.0200378.5441387-.0742983.8-.0198676.0564887-.0447295.1111437-.0742982.1633333l-.0303948.06c-.4795614.8066667-1.5163596.85-1.7189912.85h5.5791228c.2060088 0 1.2394298-.0433333 1.7189912-.85.2127632-.3666666.3647369-.9833333-.1452193-1.8433333z" class="fill-nuxt-green"/><path fill-rule="nonzero" d="M26.6494298 22.9133333l.0303948-.06c.0295687-.0521896.0544306-.1068446.0742982-.1633333.0943361-.2558613.1199331-.5314747.0742983-.8-.052561-.289606-.157827-.5674225-.3107018-.82L19.3344298 8.59666667l-1.0975877-1.89333334-1.0908333 1.89333334L9.96609649 21.07c-.1394064.2555779-.23309049.5329801-.27692982.82-.05778518.3167382-.02142363.6432154.10469298.94.0186761.0445874.04010522.0880022.06416667.13.21614038.3666667.67543858.8033333 1.68859648.8033333H24.920307c.2127632 0 1.2495614-.0433333 1.7291228-.85zM18.2368421 10.49l6.5652632 11.4H11.6749561l6.561886-11.4z" class="fill-current"/></g></svg>