<?xml version="1.0" encoding="utf-8"?>
<!-- Generator: Adobe Illustrator 21.1.0, SVG Export Plug-In . SVG Version: 6.00 Build 0)  -->
<svg version="1.1" id="Layer_1" xmlns="http://www.w3.org/2000/svg" xmlns:xlink="http://www.w3.org/1999/xlink" x="0px" y="0px"
	 viewBox="0 0 144 144" style="enable-background:new 0 0 144 144;" xml:space="preserve">
<style type="text/css">
	.st0{fill:#FFFFFF;}
	.st1{fill:#F6914D;}
</style>
<title>Tidelift_Logos</title>
<g>
	<g>
		<path class="st0" d="M67.8,42.2H41.8c-5.4,0-5.4,0-5.4,5c0,4.9,0,4.9,5.4,4.9h15.5v17.6l10.6-8.3V42.2z"/>
		<path class="st1" d="M57.3,96.7c0,5,0,5,5.3,5c5.3,0,5.3,0,5.3-5.1v-25l-10.6,8.3V96.7z"/>
	</g>
	<path class="st0" d="M76.2,42.2h26.1c5.4,0,5.4,0,5.4,5c0,4.9,0,4.9-5.4,4.9H86.7v17.6l-10.6-8.3V42.2z"/>
	<path class="st1" d="M86.7,96.7c0,5,0,5-5.3,5c-5.3,0-5.3,0-5.3-5.1v-25l10.6,8.3V96.7z"/>
</g>
</svg>
