<svg width="54" height="54" viewBox="0 0 54 54" fill="none" xmlns="http://www.w3.org/2000/svg">
<rect width="54" height="54" rx="5.4" fill="#4CE6A7"/>
<path d="M41.175 0H48.6001C51.5824 0 54 2.41766 54 5.4V48.6C54 51.5823 51.5824 54 48.6 54H41.175L43.7441 48.8618C44.0535 48.243 44.2411 47.5706 44.2967 46.881L45.869 27.3852C45.8897 27.1287 45.892 26.8711 45.8759 26.6143L44.6354 6.7652C44.5794 5.86922 44.3009 5.00133 43.8251 4.24005L41.175 0Z" fill="#00DC82"/>
<path d="M35.5744 20.8505C35.5744 20.8505 37.6618 21.1259 39.8014 18.4348C41.5199 16.2732 39.198 13 39.198 13C39.198 13 38.246 15.5819 37.0843 15.7174C35.7316 15.8742 34.8898 16.0996 34.2332 16.7565C33.3855 17.6042 33.7625 19.0389 33.7625 19.0389L35.5744 20.8505Z" fill="#098466"/>
<path d="M37.6257 34.6576L30.2109 27.2425C32.9966 24.1692 34.9377 21.4213 34.9377 21.4213L33.1453 19.6283C33.1453 19.6283 30.3975 21.5701 27.3241 24.3557L19.8254 16.857L16.8584 19.8239L24.3232 27.2887C20.3406 31.5136 13.8176 39.5527 13.8176 39.5527C13.4841 39.8863 13.4809 40.4242 13.811 40.7546C14.1417 41.0843 14.6793 41.0815 15.0132 40.7476C15.0132 40.7476 23.0517 34.225 27.2779 30.2427L34.6591 37.6242L37.6257 34.6576Z" fill="#098466"/>
<path d="M40.5916 37.6249L38.2183 35.2509L35.251 38.2182L37.6247 40.5919C38.4486 41.2649 39.5262 41.0633 40.2948 40.2951C41.0641 39.5268 41.265 38.4488 40.5916 37.6249Z" fill="#098466"/>
<path d="M16.2637 19.2307L19.2303 16.2634L15.6701 14.4833L14.4836 15.6701L16.2637 19.2307Z" fill="#098466"/>
<path d="M15.3366 14.2243L13 13L14.2239 15.3362L15.3366 14.2243Z" fill="#098466"/>
</svg>
