
<svg width="1440" height="608" viewBox="0 0 1440 608" fill="none" xmlns="http://www.w3.org/2000/svg">
<g clip-path="url(#clip0)">
<path d="M1137.35 159.835V206.957L1442.91 148.79L1448.8 93.5685V56.7539L1433.34 56.754L1336.89 86.9418L1281.67 97.25L1180.79 132.592L1137.35 159.835Z" fill="#012934"/>
<path d="M1128.64 169.412V159.51L1179.94 131.325L1256.72 99.5021L1286.53 91.4198L1314.81 88.389L1335.02 84.3479L1379.47 70.7092L1395.13 64.6476L1449.68 51.5142V59.0911L1437.56 61.6169L1387.55 75.2555L1326.94 93.9456L1284 99.5021L1256.72 111.12L1179.94 138.903L1128.64 169.412Z" fill="#29434A"/>
<path d="M1055.14 288.921C1066.16 281.776 1072.31 265.026 1074.01 257.545L1065.07 448.143H987.634L1007.89 440.304C1000.95 442.961 994.888 440.648 991.828 440.304C997.109 439.301 1009.52 431.733 1013.82 427.975C1012.36 429.147 1001.63 430.245 998.728 429.755C1005.36 428.038 1020.98 404.119 1019.79 405.378C1018.84 406.386 1011.46 407.096 1007.89 407.325C1013.06 405.676 1024.21 390.607 1029.14 383.278C1026.15 384.927 1019.39 386.408 1016.39 386.942C1028.63 381.537 1037.24 362.017 1040.02 352.932C1038.11 354.123 1031.18 355.184 1027.95 355.566C1039.37 346.588 1044.72 335.107 1045.97 330.488C1044.06 332.32 1039.05 332.091 1036.79 331.748C1045.35 324.877 1053.16 311.556 1055.99 305.754C1053.82 307.22 1047.72 306.899 1044.95 306.555C1053.1 304.723 1059.11 294.036 1061.09 288.921C1059.33 289.929 1056.39 289.341 1055.14 288.921Z" fill="#00151A"/>
<path d="M1086.53 286.329C1080.56 283.009 1077.14 265.151 1073.9 257.358C1073.66 261.661 1073.49 266.906 1073.08 271.361C1072.83 274.012 1072.61 276.183 1072.31 278.879C1071.83 283.102 1072.06 287.361 1071.45 291.669C1070.88 295.707 1070.26 299.777 1069.59 303.866C1068.91 308.003 1068.18 312.16 1067.4 316.324C1066.49 321.195 1065.52 326.077 1064.5 330.948C1063.37 336.323 1062.17 341.686 1060.92 347.012C1059.78 351.881 1058.59 356.719 1057.36 361.505C1055.89 367.264 1054.36 372.948 1052.8 378.521C1051.77 382.164 1050.74 385.76 1049.68 389.299C1048.82 392.204 1047.95 395.071 1047.07 397.894C1045.87 401.767 1044.66 405.558 1043.44 409.252C1041.77 414.307 1040.1 419.18 1038.43 423.838C1036.69 428.685 1034.96 433.299 1033.26 437.637C1031.7 441.599 1030.36 444.665 1028.86 448.138H1141.39L1159.5 450.35C1152.15 448.151 1144.37 440.958 1141.39 437.637C1146.49 439.011 1155.59 438.21 1159.5 437.637C1142.77 430.215 1133.82 421.488 1131.44 418.052C1137.56 420.663 1144.2 419.14 1146.75 418.052C1134.3 412.829 1126.26 403.048 1123.79 398.81C1129.91 400.734 1135.52 400.413 1137.56 400.012C1124.92 393.553 1114.95 377.392 1111.55 370.119C1119.3 372.043 1122.94 371.951 1123.79 371.665C1114.61 366.305 1105.35 354.198 1101.86 348.815C1105.94 350.465 1113.08 349.503 1116.14 348.815C1109.41 346.341 1099.06 337.247 1094.72 333.01C1098.6 334.521 1106.71 335.357 1110.28 335.587C1102.32 332.7 1091.13 315.486 1086.53 307.239C1088.95 308.339 1094.36 308.27 1096.76 308.098C1092.27 305.349 1082.82 292.44 1078.65 286.329C1081.51 288.293 1085.09 287.147 1086.53 286.329Z" fill="#00151A"/>
<path d="M984.95 250.635C997.205 242.685 1004.05 224.05 1005.94 215.726L995.992 427.786H909.837L932.374 419.065C924.658 422.021 917.908 419.448 914.504 419.065C920.379 417.949 934.191 409.529 938.977 405.347C937.343 406.652 925.413 407.873 922.18 407.328C929.556 405.417 946.937 378.805 945.613 380.207C944.554 381.328 936.346 382.118 932.374 382.372C938.124 380.538 950.53 363.771 956.015 355.617C952.686 357.452 945.171 359.1 941.83 359.694C955.447 353.681 965.029 331.962 968.118 321.855C966 323.18 958.284 324.36 954.691 324.785C967.4 314.796 973.351 302.022 974.738 296.883C972.62 298.922 967.047 298.667 964.525 298.284C974.057 290.64 982.744 275.819 985.896 269.363C983.475 270.994 976.692 270.637 973.603 270.255C982.681 268.217 989.363 256.326 991.569 250.635C989.603 251.756 986.337 251.102 984.95 250.635Z" fill="#00151A"/>
<path d="M1019.87 247.751C1013.23 244.057 1009.42 224.188 1005.82 215.518C1005.55 220.305 1005.36 226.14 1004.9 231.097C1004.63 234.047 1004.38 236.463 1004.04 239.462C1003.52 244.16 1003.77 248.899 1003.09 253.692C1002.46 258.186 1001.77 262.714 1001.02 267.263C1000.27 271.866 999.452 276.491 998.588 281.124C997.578 286.544 996.497 291.975 995.357 297.395C994.1 303.375 992.769 309.342 991.378 315.267C990.106 320.685 988.783 326.068 987.42 331.393C985.779 337.8 984.08 344.124 982.339 350.325C981.2 354.378 980.044 358.379 978.875 362.316C977.915 365.549 976.946 368.739 975.97 371.88C974.632 376.189 973.282 380.407 971.927 384.517C970.073 390.14 968.209 395.563 966.353 400.744C964.421 406.138 962.498 411.271 960.602 416.098C958.871 420.506 957.378 423.917 955.708 427.781H1080.91L1101.05 430.243C1092.88 427.796 1084.22 419.793 1080.91 416.098C1086.58 417.627 1096.7 416.735 1101.05 416.098C1082.44 407.84 1072.49 398.13 1069.84 394.307C1076.65 397.212 1084.03 395.517 1086.87 394.307C1073.02 388.496 1064.07 377.613 1061.33 372.898C1068.14 375.039 1074.38 374.682 1076.65 374.236C1062.58 367.049 1051.49 349.068 1047.71 340.976C1056.34 343.117 1060.38 343.015 1061.33 342.697C1051.11 336.733 1040.8 323.263 1036.93 317.274C1041.47 319.109 1049.41 318.038 1052.82 317.274C1045.33 314.521 1033.81 304.403 1028.98 299.688C1033.3 301.37 1042.32 302.301 1046.29 302.555C1037.44 299.344 1024.99 280.191 1019.87 271.016C1022.56 272.239 1028.58 272.163 1031.25 271.972C1026.26 268.913 1015.74 254.55 1011.11 247.751C1014.28 249.936 1018.27 248.661 1019.87 247.751Z" fill="#00151A"/>
<path d="M1199.65 239.374L1193.28 269.643V360.451L1250.08 367.49L1327.44 378.049L1321.57 302.728L1312.75 246.413H1293.66L1286.8 263.307L1273.58 254.86C1269.67 259.788 1261.64 269.643 1260.85 269.643C1260.07 269.643 1246.16 278.559 1239.31 283.018L1226.58 263.307L1217.77 246.413L1209.93 254.86L1199.65 239.374Z" fill="#001E26"/>
<path d="M1239.55 318.242L1252.6 336.626C1253.76 338.885 1265.81 356.116 1266.47 357.071H1252.6L1238.21 317.248C1238.74 317.408 1239.21 317.758 1239.55 318.242Z" fill="#00DC82"/>
<path d="M1235.5 318.244C1236.13 317.337 1237.2 316.943 1238.21 317.25L1253.24 356.997H1240.67H1208.63L1235.5 318.244Z" fill="#33E39B"/>
<path opacity="0.75" d="M1208.63 356.997H1229.82L1246.39 339.081L1242.12 327.398L1222.03 337.676L1208.63 356.997Z" fill="#99F1CD"/>
<path d="M1213.17 328.982L1218.94 337.375C1218.94 337.375 1220.36 339.835 1221.8 341.923C1221.8 342.745 1221.8 344.162 1221.8 344.915C1221.8 346.107 1221.8 346.392 1221.8 346.546H1219.07L1212.56 328.532C1212.8 328.605 1213.01 328.763 1213.17 328.982Z" fill="#00DC82"/>
<path d="M1211.34 328.982C1211.62 328.572 1212.11 328.394 1212.56 328.532L1219.36 346.512H1213.67H1199.18L1211.34 328.982Z" fill="#33E39B"/>
<path opacity="0.75" d="M1199.18 346.511H1208.76L1216.26 338.407L1214.33 333.123L1205.24 337.772L1199.18 346.511Z" fill="#99F1CD"/>
<path d="M1199.65 329.374L1193.28 350.427V413.588L1250.08 418.484L1327.44 425.829L1321.57 373.439L1312.75 334.27H1293.66L1286.8 346.021L1273.58 340.145C1269.67 343.572 1261.64 350.427 1260.85 350.427C1260.07 350.427 1246.16 356.629 1239.31 359.73L1226.58 346.021L1217.77 334.27L1209.93 340.145L1199.65 329.374Z" fill="#001216"/>
<path d="M1186.44 213.215C1186.44 220.741 1086.79 578.035 1443.29 409.951C1799.78 241.867 1203.74 213.215 1186.44 213.215Z" fill="url(#paint0_radial)"/>
<path d="M1294.38 368.162L1297.04 348.756L1319.74 361.602L1329.75 415.475L1315.39 423.042L1286.27 420.486L1285.29 411.959L1294.61 403.154L1295.93 381.627L1294.38 368.162Z" fill="#001E26"/>
<path d="M112.619 333.796C125.3 325.488 132.384 306.013 134.342 297.314L124.045 518.929H34.896L58.2165 509.815C50.2321 512.904 43.2477 510.215 39.7252 509.815C45.8043 508.649 60.0959 499.849 65.0491 495.48C63.358 496.843 51.0133 498.119 47.668 497.55C55.3002 495.553 73.2853 467.741 71.9154 469.206C70.8195 470.378 62.3262 471.203 58.2165 471.469C64.1657 469.552 77.0034 452.03 82.6786 443.509C79.2343 445.426 71.4583 447.148 68.0008 447.769C82.091 441.485 92.0063 418.788 95.2027 408.225C93.0109 409.61 85.0266 410.844 81.3085 411.287C94.4593 400.849 100.617 387.499 102.052 382.128C99.8605 384.259 94.0939 383.992 91.4846 383.593C101.348 375.604 110.337 360.115 113.598 353.369C111.093 355.073 104.074 354.7 100.878 354.301C110.271 352.17 117.186 339.744 119.469 333.796C117.433 334.968 114.054 334.285 112.619 333.796Z" fill="#00151A"/>
<path d="M148.75 330.784C141.88 326.923 138.028 306.537 134.294 297.476C134.02 302.478 134.004 307.455 133.529 312.635C133.247 315.718 133.611 318.972 133.262 322.106C132.716 327.016 132.091 331.984 131.394 336.992C130.741 341.688 130.024 346.42 129.25 351.175C128.467 355.985 127.626 360.818 126.732 365.66C125.686 371.324 124.568 377 123.389 382.664C122.087 388.914 120.71 395.15 119.27 401.342C117.954 407.004 116.586 412.629 115.175 418.194C113.478 424.89 111.719 431.499 109.917 437.979C108.74 442.215 107.543 446.396 106.333 450.51C105.34 453.889 104.337 457.222 103.328 460.505C101.943 465.008 100.546 469.416 99.1439 473.711C97.2255 479.588 95.2971 485.255 93.3766 490.67C91.3776 496.307 89.3871 501.671 87.4253 506.715C85.6338 511.322 84.0892 514.887 82.3608 518.925H211.912L232.758 521.497C224.302 518.94 215.337 510.577 211.912 506.715C217.784 508.313 228.256 507.381 232.758 506.715C213.497 498.085 203.201 487.938 200.461 483.942C207.508 486.979 215.141 485.208 218.077 483.942C203.749 477.87 194.491 466.497 191.653 461.569C198.699 463.807 205.159 463.434 207.507 462.968C192.945 455.457 181.474 436.666 177.56 428.209C186.485 430.446 190.674 430.34 191.653 430.007C181.083 423.774 170.415 409.698 166.403 403.439C171.1 405.357 179.321 404.238 182.845 403.439C175.093 400.562 163.173 389.988 158.182 385.061C162.645 386.819 171.981 387.791 176.092 388.057C166.931 384.701 154.047 364.685 148.75 355.097C151.539 356.375 157.766 356.295 160.531 356.096C155.363 352.899 144.48 337.889 139.685 330.784C142.973 333.067 147.098 331.735 148.75 330.784Z" fill="#00151A"/>
<path d="M194.485 379.999C207.166 371.69 214.251 352.216 216.208 343.517L205.911 565.132H116.762L140.083 556.018C132.098 559.107 125.114 556.417 121.591 556.018C127.671 554.851 141.962 546.051 146.915 541.682C145.224 543.045 132.879 544.321 129.534 543.752C137.166 541.755 155.151 513.943 153.782 515.408C152.686 516.58 144.192 517.405 140.083 517.672C146.032 515.754 158.87 498.232 164.545 489.711C161.101 491.628 153.325 493.35 149.867 493.972C163.957 487.687 173.873 464.99 177.069 454.427C174.877 455.812 166.893 457.046 163.175 457.49C176.325 447.051 182.483 433.701 183.919 428.33C181.727 430.461 175.96 430.195 173.351 429.795C183.214 421.806 192.203 406.317 195.464 399.571C192.96 401.275 185.94 400.902 182.744 400.503C192.137 398.373 199.052 385.946 201.335 379.999C199.3 381.17 195.92 380.487 194.485 379.999Z" fill="#00151A"/>
<path d="M230.616 376.986C223.746 373.125 219.894 352.739 216.16 343.678C215.886 348.681 215.87 353.657 215.396 358.837C215.113 361.92 215.477 365.174 215.128 368.308C214.582 373.218 213.957 378.186 213.26 383.194C212.607 387.89 211.89 392.622 211.116 397.377C210.333 402.187 209.492 407.021 208.598 411.863C207.552 417.526 206.434 423.202 205.255 428.866C203.953 435.116 202.576 441.352 201.137 447.544C199.82 453.206 198.452 458.831 197.041 464.396C195.344 471.092 193.585 477.701 191.783 484.181C190.606 488.417 189.409 492.598 188.199 496.712C187.206 500.091 186.203 503.424 185.194 506.707C183.809 511.21 182.412 515.618 181.01 519.913C179.092 525.79 177.163 531.457 175.243 536.872C173.244 542.509 171.253 547.873 169.292 552.917C167.5 557.524 165.955 561.089 164.227 565.127H293.778L314.624 567.7C306.168 565.143 297.203 556.779 293.778 552.917C299.65 554.515 310.122 553.583 314.624 552.917C295.363 544.288 285.067 534.14 282.327 530.145C289.374 533.181 297.007 531.41 299.944 530.145C285.616 524.072 276.357 512.699 273.519 507.771C280.566 510.009 287.025 509.636 289.374 509.17C274.811 501.659 263.341 482.868 259.426 474.411C268.352 476.649 272.54 476.542 273.519 476.209C262.949 469.977 252.282 455.9 248.269 449.641C252.967 451.559 261.188 450.44 264.711 449.641C256.96 446.764 245.039 436.19 240.048 431.263C244.511 433.021 253.847 433.993 257.958 434.259C248.797 430.903 235.913 410.887 230.616 401.299C233.405 402.577 239.632 402.497 242.397 402.298C237.229 399.102 226.346 384.091 221.551 376.986C224.839 379.269 228.964 377.937 230.616 376.986Z" fill="#00151A"/>
<path d="M293.416 332.512C306.097 324.204 313.181 304.729 315.138 296.03L304.842 517.645H215.693L239.013 508.531C231.029 511.62 224.045 508.931 220.522 508.531C226.601 507.365 240.893 498.565 245.846 494.195C244.155 495.559 231.81 496.835 228.465 496.266C236.097 494.268 254.082 466.457 252.712 467.922C251.616 469.093 243.123 469.919 239.013 470.185C244.963 468.268 257.8 450.746 263.475 442.225C260.031 444.142 252.255 445.864 248.798 446.485C262.888 440.201 272.803 417.504 276 406.941C273.808 408.326 265.823 409.559 262.105 410.003C275.256 399.565 281.414 386.214 282.849 380.844C280.657 382.975 274.891 382.708 272.281 382.309C282.145 374.32 291.134 358.831 294.395 352.085C291.89 353.789 284.871 353.416 281.674 353.017C291.068 350.886 297.982 338.459 300.266 332.512C298.23 333.684 294.851 333.001 293.416 332.512Z" fill="#00151A"/>
<path d="M329.546 329.499C322.677 325.639 318.824 305.253 315.091 296.192C314.817 301.194 314.801 306.171 314.326 311.351C314.044 314.434 314.408 317.688 314.059 320.822C313.513 325.732 312.888 330.7 312.191 335.708C311.537 340.404 310.821 345.136 310.047 349.89C309.264 354.701 308.423 359.534 307.529 364.376C306.483 370.04 305.365 375.715 304.185 381.38C302.884 387.629 301.507 393.866 300.067 400.057C298.751 405.72 297.383 411.345 295.972 416.91C294.274 423.606 292.516 430.215 290.714 436.695C289.536 440.931 288.34 445.111 287.13 449.226C286.136 452.604 285.134 455.938 284.124 459.221C282.74 463.724 281.343 468.132 279.941 472.427C278.022 478.304 276.094 483.971 274.173 489.386C272.174 495.022 270.184 500.386 268.222 505.431C266.431 510.038 264.886 513.603 263.158 517.64H392.708L413.554 520.213C405.099 517.656 396.134 509.293 392.708 505.431C398.581 507.029 409.053 506.097 413.554 505.431C394.294 496.801 383.998 486.653 381.258 482.658C388.304 485.695 395.938 483.923 398.874 482.658C384.546 476.585 375.288 465.212 372.45 460.285C379.496 462.522 385.956 462.149 388.304 461.683C373.742 454.172 362.271 435.382 358.357 426.925C367.282 429.162 371.471 429.056 372.45 428.723C361.88 422.49 351.212 408.414 347.2 402.155C351.897 404.072 360.118 402.954 363.642 402.155C355.89 399.278 343.97 388.704 338.979 383.777C343.441 385.535 352.778 386.507 356.889 386.773C347.728 383.417 334.844 363.401 329.546 353.813C332.336 355.091 338.563 355.011 341.327 354.811C336.16 351.615 325.277 336.605 320.481 329.499C323.77 331.783 327.895 330.451 329.546 329.499Z" fill="#00151A"/>
<path d="M355.634 394.246C368.315 385.938 375.4 366.463 377.357 357.764L367.06 579.379H277.911L301.232 570.265C293.247 573.354 286.263 570.664 282.74 570.265C288.819 569.098 303.111 560.298 308.064 555.929C306.373 557.292 294.028 558.568 290.683 557.999C298.315 556.002 316.3 528.191 314.931 529.655C313.835 530.827 305.341 531.652 301.232 531.919C307.181 530.001 320.019 512.479 325.694 503.958C322.249 505.875 314.473 507.597 311.016 508.219C325.106 501.934 335.021 479.237 338.218 468.674C336.026 470.059 328.042 471.293 324.324 471.737C337.474 461.298 343.632 447.948 345.067 442.578C342.876 444.708 337.109 444.442 334.5 444.042C344.363 436.053 353.352 420.564 356.613 413.818C354.108 415.522 347.089 415.149 343.893 414.75C353.286 412.62 360.201 400.193 362.484 394.246C360.449 395.418 357.069 394.734 355.634 394.246Z" fill="#00151A"/>
<path d="M391.765 391.233C384.895 387.372 381.043 366.986 377.309 357.925C377.035 362.928 377.019 367.904 376.545 373.084C376.262 376.168 376.626 379.421 376.277 382.556C375.731 387.465 375.106 392.433 374.409 397.442C373.756 402.137 373.039 406.87 372.265 411.624C371.482 416.434 370.641 421.268 369.747 426.11C368.701 431.773 367.583 437.449 366.404 443.113C365.102 449.363 363.725 455.599 362.286 461.791C360.969 467.453 359.601 473.078 358.19 478.643C356.493 485.339 354.734 491.948 352.932 498.428C351.755 502.664 350.558 506.845 349.348 510.96C348.355 514.338 347.352 517.671 346.343 520.954C344.958 525.457 343.561 529.865 342.159 534.16C340.241 540.037 338.312 545.704 336.392 551.119C334.393 556.756 332.402 562.12 330.44 567.164C328.649 571.771 327.104 575.336 325.376 579.374H454.927L475.773 581.947C467.317 579.39 458.352 571.026 454.927 567.164C460.799 568.762 471.271 567.83 475.773 567.164C456.512 558.535 446.216 548.387 443.476 544.392C450.523 547.428 458.156 545.657 461.092 544.392C446.764 538.319 437.506 526.946 434.668 522.018C441.714 524.256 448.174 523.883 450.523 523.417C435.96 515.906 424.49 497.115 420.575 488.658C429.5 490.896 433.689 490.789 434.668 490.456C424.098 484.224 413.43 470.147 409.418 463.888C414.116 465.806 422.337 464.687 425.86 463.888C418.109 461.011 406.188 450.438 401.197 445.51C405.66 447.268 414.996 448.24 419.107 448.506C409.946 445.15 397.062 425.134 391.765 415.546C394.554 416.824 400.781 416.745 403.546 416.545C398.378 413.349 387.495 398.338 382.7 391.233C385.988 393.516 390.113 392.184 391.765 391.233Z" fill="#00151A"/>
<path d="M436.409 302.556C449.089 294.248 456.174 274.773 458.131 266.074L447.834 487.689H358.686L382.006 478.575C374.022 481.664 367.037 478.975 363.515 478.575C369.594 477.409 383.885 468.609 388.839 464.239C387.148 465.603 374.803 466.879 371.458 466.31C379.09 464.312 397.075 436.501 395.705 437.966C394.609 439.137 386.116 439.963 382.006 440.229C387.955 438.312 400.793 420.79 406.468 412.268C403.024 414.186 395.248 415.908 391.79 416.529C405.881 410.245 415.796 387.548 418.992 376.985C416.8 378.369 408.816 379.603 405.098 380.047C418.249 369.608 424.407 356.258 425.842 350.888C423.65 353.018 417.883 352.752 415.274 352.353C425.137 344.364 434.126 328.875 437.388 322.129C434.883 323.833 427.864 323.46 424.667 323.061C434.06 320.93 440.975 308.503 443.258 302.556C441.223 303.728 437.844 303.045 436.409 302.556Z" fill="#00151A"/>
<path d="M472.539 299.543C465.67 295.683 461.817 275.296 458.083 266.236C457.81 271.238 457.794 276.215 457.319 281.395C457.037 284.478 457.401 287.732 457.052 290.866C456.506 295.776 455.881 300.743 455.184 305.752C454.53 310.448 453.814 315.18 453.04 319.934C452.257 324.745 451.415 329.578 450.521 334.42C449.475 340.084 448.358 345.759 447.178 351.424C445.877 357.673 444.5 363.909 443.06 370.101C441.744 375.764 440.375 381.389 438.965 386.954C437.267 393.65 435.509 400.259 433.707 406.739C432.529 410.975 431.333 415.155 430.123 419.27C429.129 422.648 428.126 425.982 427.117 429.265C425.733 433.768 424.336 438.176 422.933 442.471C421.015 448.348 419.087 454.015 417.166 459.43C415.167 465.066 413.177 470.43 411.215 475.475C409.423 480.081 407.879 483.647 406.15 487.684H535.701L556.547 490.257C548.091 487.7 539.127 479.337 535.701 475.475C541.573 477.073 552.045 476.141 556.547 475.475C537.287 466.845 526.991 456.697 524.251 452.702C531.297 455.739 538.931 453.967 541.867 452.702C527.539 446.629 518.281 435.256 515.442 430.329C522.489 432.566 528.948 432.193 531.297 431.727C516.734 424.216 505.264 405.425 501.349 396.969C510.275 399.206 514.464 399.1 515.442 398.767C504.873 392.534 494.205 378.458 490.192 372.199C494.89 374.116 503.111 372.998 506.634 372.199C498.883 369.322 486.963 358.748 481.971 353.821C486.434 355.579 495.771 356.551 499.881 356.817C490.721 353.461 477.836 333.445 472.539 323.857C475.328 325.135 481.555 325.055 484.32 324.855C479.153 321.659 468.27 306.649 463.474 299.543C466.763 301.827 470.888 300.495 472.539 299.543Z" fill="#00151A"/>
<path d="M505.853 377.431C518.534 369.123 525.619 349.648 527.576 340.949L517.279 562.564H428.13L451.451 553.45C443.466 556.539 436.482 553.849 432.96 553.45C439.039 552.283 453.33 543.483 458.284 539.114C456.592 540.477 444.248 541.753 440.902 541.184C448.535 539.187 466.52 511.376 465.15 512.84C464.054 514.012 455.561 514.837 451.451 515.104C457.4 513.186 470.238 495.664 475.913 487.143C472.469 489.06 464.693 490.782 461.235 491.404C475.325 485.119 485.241 462.422 488.437 451.859C486.245 453.244 478.261 454.478 474.543 454.922C487.694 444.483 493.852 431.133 495.287 425.763C493.095 427.893 487.328 427.627 484.719 427.227C494.582 419.238 503.571 403.749 506.833 397.003C504.328 398.707 497.308 398.335 494.112 397.935C503.505 395.805 510.42 383.378 512.703 377.431C510.668 378.603 507.289 377.919 505.853 377.431Z" fill="#00151A"/>
<path d="M541.984 374.418C535.114 370.557 531.262 350.171 527.528 341.11C527.255 346.113 527.238 351.089 526.764 356.27C526.481 359.353 526.845 362.606 526.497 365.741C525.95 370.65 525.325 375.618 524.628 380.627C523.975 385.323 523.258 390.055 522.485 394.809C521.702 399.619 520.86 404.453 519.966 409.295C518.92 414.958 517.803 420.634 516.623 426.298C515.321 432.548 513.944 438.784 512.505 444.976C511.189 450.638 509.82 456.263 508.409 461.828C506.712 468.524 504.954 475.133 503.152 481.613C501.974 485.849 500.778 490.03 499.567 494.145C498.574 497.523 497.571 500.856 496.562 504.139C495.177 508.643 493.781 513.05 492.378 517.346C490.46 523.222 488.531 528.889 486.611 534.304C484.612 539.941 482.621 545.305 480.66 550.349C478.868 554.956 477.324 558.521 475.595 562.559H605.146L625.992 565.132C617.536 562.575 608.571 554.211 605.146 550.349C611.018 551.947 621.49 551.015 625.992 550.349C606.731 541.72 596.436 531.572 593.695 527.577C600.742 530.613 608.376 528.842 611.312 527.577C596.984 521.504 587.725 510.131 584.887 505.204C591.934 507.441 598.393 507.068 600.742 506.602C586.179 499.091 574.709 480.3 570.794 471.843C579.72 474.081 583.909 473.974 584.887 473.641C574.317 467.409 563.65 453.332 559.637 447.073C564.335 448.991 572.556 447.872 576.079 447.073C568.328 444.197 556.407 433.623 551.416 428.695C555.879 430.453 565.216 431.425 569.326 431.692C560.166 428.336 547.281 408.32 541.984 398.731C544.773 400.009 551 399.93 553.765 399.73C548.598 396.534 537.715 381.523 532.919 374.418C536.207 376.701 540.332 375.369 541.984 374.418Z" fill="#00151A"/>
<path d="M565.795 340.41C578.476 332.102 585.56 312.627 587.517 303.928L577.221 525.543H488.072L511.392 516.429C503.408 519.518 496.423 516.829 492.901 516.429C498.98 515.263 513.272 506.463 518.225 502.093C516.534 503.457 504.189 504.733 500.844 504.164C508.476 502.166 526.461 474.355 525.091 475.82C523.995 476.991 515.502 477.817 511.392 478.083C517.341 476.166 530.179 458.644 535.854 450.122C532.41 452.04 524.634 453.762 521.177 454.383C535.267 448.099 545.182 425.402 548.378 414.839C546.187 416.223 538.202 417.457 534.484 417.901C547.635 407.462 553.793 394.112 555.228 388.742C553.036 390.872 547.27 390.606 544.66 390.207C554.523 382.218 563.512 366.729 566.774 359.983C564.269 361.687 557.25 361.314 554.053 360.915C563.447 358.784 570.361 346.357 572.644 340.41C570.609 341.582 567.23 340.899 565.795 340.41Z" fill="#00151A"/>
<path d="M601.925 337.397C595.056 333.537 591.203 313.15 587.47 304.09C587.196 309.092 587.18 314.069 586.705 319.249C586.423 322.332 586.787 325.586 586.438 328.72C585.892 333.63 585.267 338.597 584.57 343.606C583.916 348.302 583.2 353.034 582.426 357.788C581.643 362.599 580.801 367.432 579.907 372.274C578.862 377.938 577.744 383.613 576.564 389.278C575.263 395.527 573.886 401.763 572.446 407.955C571.13 413.618 569.761 419.243 568.351 424.808C566.653 431.504 564.895 438.113 563.093 444.593C561.915 448.829 560.719 453.009 559.509 457.124C558.515 460.502 557.513 463.836 556.503 467.119C555.119 471.622 553.722 476.03 552.32 480.325C550.401 486.202 548.473 491.869 546.552 497.284C544.553 502.92 542.563 508.284 540.601 513.329C538.81 517.935 537.265 521.501 535.537 525.538H665.087L685.933 528.111C677.478 525.554 668.513 517.191 665.087 513.329C670.959 514.927 681.431 513.995 685.933 513.329C666.673 504.699 656.377 494.551 653.637 490.556C660.683 493.593 668.317 491.821 671.253 490.556C656.925 484.483 647.667 473.11 644.829 468.183C651.875 470.42 658.334 470.047 660.683 469.581C646.12 462.07 634.65 443.279 630.736 434.823C639.661 437.06 643.85 436.954 644.829 436.621C634.259 430.388 623.591 416.312 619.579 410.053C624.276 411.97 632.497 410.852 636.02 410.053C628.269 407.176 616.349 396.602 611.358 391.675C615.82 393.433 625.157 394.405 629.268 394.671C620.107 391.315 607.222 371.299 601.925 361.711C604.714 362.989 610.941 362.909 613.706 362.709C608.539 359.513 597.656 344.503 592.86 337.397C596.149 339.681 600.274 338.349 601.925 337.397Z" fill="#00151A"/>
<path d="M605.299 318.159C617.98 309.851 625.065 290.376 627.022 281.677L616.725 503.292H527.576L550.897 494.178C542.912 497.267 535.928 494.578 532.405 494.178C538.485 493.012 552.776 484.212 557.729 479.842C556.038 481.206 543.693 482.482 540.348 481.913C547.98 479.915 565.965 452.104 564.596 453.569C563.5 454.74 555.006 455.566 550.897 455.832C556.846 453.915 569.684 436.393 575.359 427.872C571.914 429.789 564.138 431.511 560.681 432.132C574.771 425.848 584.686 403.151 587.883 392.588C585.691 393.973 577.707 395.206 573.989 395.65C587.139 385.211 593.297 371.861 594.733 366.491C592.541 368.621 586.774 368.355 584.165 367.956C594.028 359.967 603.017 344.478 606.278 337.732C603.774 339.436 596.754 339.063 593.558 338.664C602.951 336.533 609.866 324.106 612.149 318.159C610.114 319.331 606.734 318.648 605.299 318.159Z" fill="#00151A"/>
<path d="M641.43 315.146C634.56 311.286 630.708 290.9 626.974 281.839C626.7 286.841 626.684 291.818 626.21 296.998C625.927 300.081 626.291 303.335 625.942 306.469C625.396 311.379 624.771 316.347 624.074 321.355C623.421 326.051 622.704 330.783 621.93 335.537C621.147 340.348 620.306 345.181 619.412 350.023C618.366 355.687 617.248 361.362 616.069 367.027C614.767 373.276 613.39 379.512 611.951 385.704C610.634 391.367 609.266 396.992 607.855 402.557C606.158 409.253 604.399 415.862 602.597 422.342C601.42 426.578 600.223 430.758 599.013 434.873C598.02 438.251 597.017 441.585 596.008 444.868C594.623 449.371 593.226 453.779 591.824 458.074C589.906 463.951 587.977 469.618 586.057 475.033C584.058 480.669 582.067 486.033 580.105 491.078C578.314 495.684 576.769 499.25 575.041 503.287H704.592L725.438 505.86C716.982 503.303 708.017 494.94 704.592 491.078C710.464 492.676 720.936 491.744 725.438 491.078C706.177 482.448 695.881 472.3 693.141 468.305C700.188 471.342 707.821 469.57 710.757 468.305C696.43 462.232 687.171 450.859 684.333 445.932C691.38 448.169 697.839 447.796 700.188 447.33C685.625 439.819 674.155 421.029 670.24 412.572C679.166 414.809 683.354 414.703 684.333 414.37C673.763 408.137 663.096 394.061 659.083 387.802C663.781 389.719 672.002 388.601 675.525 387.802C667.774 384.925 655.853 374.351 650.862 369.424C655.325 371.182 664.661 372.154 668.772 372.42C659.611 369.064 646.727 349.048 641.43 339.46C644.219 340.738 650.446 340.658 653.211 340.458C648.043 337.262 637.16 322.252 632.365 315.146C635.653 317.43 639.778 316.098 641.43 315.146Z" fill="#00151A"/>
<path d="M711.984 357.428C724.665 349.12 731.75 329.645 733.707 320.946L723.41 542.561H634.261L657.582 533.447C649.597 536.536 642.613 533.847 639.09 533.447C645.17 532.281 659.461 523.481 664.414 519.111C662.723 520.475 650.379 521.751 647.033 521.182C654.665 519.184 672.65 491.373 671.281 492.838C670.185 494.009 661.691 494.835 657.582 495.101C663.531 493.184 676.369 475.662 682.044 467.141C678.6 469.058 670.824 470.78 667.366 471.401C681.456 465.117 691.372 442.42 694.568 431.857C692.376 433.242 684.392 434.475 680.674 434.919C693.825 424.481 699.982 411.13 701.418 405.76C699.226 407.891 693.459 407.624 690.85 407.225C700.713 399.236 709.702 383.747 712.963 377.001C710.459 378.705 703.439 378.332 700.243 377.933C709.636 375.802 716.551 363.375 718.834 357.428C716.799 358.6 713.419 357.917 711.984 357.428Z" fill="#00151A"/>
<path d="M748.115 354.415C741.245 350.555 737.393 330.169 733.659 321.108C733.385 326.11 733.369 331.087 732.895 336.267C732.612 339.35 732.976 342.604 732.628 345.738C732.081 350.648 731.456 355.616 730.759 360.624C730.106 365.32 729.389 370.052 728.615 374.806C727.832 379.617 726.991 384.45 726.097 389.292C725.051 394.956 723.933 400.632 722.754 406.296C721.452 412.545 720.075 418.782 718.636 424.973C717.319 430.636 715.951 436.261 714.54 441.826C712.843 448.522 711.084 455.131 709.283 461.611C708.105 465.847 706.908 470.027 705.698 474.142C704.705 477.52 703.702 480.854 702.693 484.137C701.308 488.64 699.911 493.048 698.509 497.343C696.591 503.22 694.662 508.887 692.742 514.302C690.743 519.938 688.752 525.302 686.791 530.347C684.999 534.954 683.454 538.519 681.726 542.557H811.277L832.123 545.129C823.667 542.572 814.702 534.209 811.277 530.347C817.149 531.945 827.621 531.013 832.123 530.347C812.862 521.717 802.567 511.569 799.826 507.574C806.873 510.611 814.506 508.839 817.443 507.574C803.115 501.501 793.856 490.128 791.018 485.201C798.065 487.438 804.524 487.065 806.873 486.599C792.31 479.088 780.84 460.298 776.925 451.841C785.851 454.078 790.039 453.972 791.018 453.639C780.448 447.406 769.781 433.33 765.768 427.071C770.466 428.988 778.687 427.87 782.21 427.071C774.459 424.194 762.538 413.62 757.547 408.693C762.01 410.451 771.346 411.423 775.457 411.689C766.296 408.333 753.412 388.317 748.115 378.729C750.904 380.007 757.131 379.927 759.896 379.727C754.728 376.531 743.845 361.521 739.05 354.415C742.338 356.699 746.463 355.367 748.115 354.415Z" fill="#00151A"/>
<path d="M764.867 391.678C777.547 383.37 784.632 363.895 786.589 355.196L776.292 576.811H687.144L710.464 567.697C702.48 570.786 695.495 568.097 691.973 567.697C698.052 566.531 712.343 557.731 717.297 553.361C715.606 554.725 703.261 556.001 699.916 555.432C707.548 553.434 725.533 525.623 724.163 527.088C723.067 528.259 714.574 529.085 710.464 529.351C716.413 527.434 729.251 509.912 734.926 501.391C731.482 503.308 723.706 505.03 720.248 505.651C734.339 499.367 744.254 476.67 747.45 466.107C745.258 467.492 737.274 468.725 733.556 469.169C746.707 458.731 752.865 445.38 754.3 440.01C752.108 442.141 746.341 441.874 743.732 441.475C753.595 433.486 762.584 417.997 765.846 411.251C763.341 412.955 756.322 412.582 753.125 412.183C762.518 410.052 769.433 397.625 771.716 391.678C769.681 392.85 766.302 392.167 764.867 391.678Z" fill="#00151A"/>
<path d="M800.997 388.665C794.128 384.805 790.275 364.419 786.541 355.358C786.268 360.36 786.252 365.337 785.777 370.517C785.495 373.6 785.859 376.854 785.51 379.988C784.964 384.898 784.339 389.866 783.642 394.874C782.988 399.57 782.272 404.302 781.498 409.056C780.715 413.867 779.873 418.7 778.979 423.542C777.933 429.206 776.816 434.882 775.636 440.546C774.335 446.795 772.958 453.032 771.518 459.223C770.202 464.886 768.833 470.511 767.423 476.076C765.725 482.772 763.967 489.381 762.165 495.861C760.987 500.097 759.791 504.277 758.581 508.392C757.587 511.77 756.584 515.104 755.575 518.387C754.191 522.89 752.794 527.298 751.391 531.593C749.473 537.47 747.545 543.137 745.624 548.552C743.625 554.188 741.635 559.552 739.673 564.597C737.881 569.204 736.337 572.769 734.608 576.807H864.159L885.005 579.379C876.549 576.822 867.585 568.459 864.159 564.597C870.031 566.195 880.503 565.263 885.005 564.597C865.745 555.967 855.449 545.819 852.709 541.824C859.755 544.861 867.389 543.089 870.325 541.824C855.997 535.751 846.739 524.378 843.9 519.451C850.947 521.688 857.406 521.315 859.755 520.849C845.192 513.338 833.722 494.548 829.807 486.091C838.733 488.328 842.922 488.222 843.9 487.889C833.331 481.656 822.663 467.58 818.65 461.321C823.348 463.238 831.569 462.12 835.092 461.321C827.341 458.444 815.421 447.87 810.429 442.943C814.892 444.701 824.229 445.673 828.339 445.939C819.179 442.583 806.294 422.567 800.997 412.979C803.786 414.257 810.013 414.177 812.778 413.977C807.611 410.781 796.728 395.771 791.932 388.665C795.221 390.949 799.346 389.617 800.997 388.665Z" fill="#00151A"/>
<path d="M847.997 320.728C860.678 312.419 867.763 292.945 869.72 284.246L859.423 505.861H770.274L793.595 496.747C785.611 499.836 778.626 497.146 775.104 496.747C781.183 495.58 795.474 486.78 800.428 482.411C798.736 483.774 786.392 485.05 783.046 484.481C790.679 482.484 808.664 454.672 807.294 456.137C806.198 457.309 797.705 458.134 793.595 458.401C799.544 456.483 812.382 438.961 818.057 430.44C814.613 432.357 806.837 434.079 803.379 434.701C817.469 428.416 827.385 405.719 830.581 395.156C828.389 396.541 820.405 397.775 816.687 398.219C829.838 387.78 835.996 374.43 837.431 369.06C835.239 371.19 829.472 370.924 826.863 370.524C836.726 362.535 845.715 347.046 848.977 340.3C846.472 342.004 839.452 341.631 836.256 341.232C845.649 339.102 852.564 326.675 854.847 320.728C852.812 321.899 849.433 321.216 847.997 320.728Z" fill="#00151A"/>
<path d="M884.128 317.715C877.259 313.854 873.406 293.468 869.672 284.407C869.399 289.41 869.382 294.386 868.908 299.566C868.625 302.649 868.989 305.903 868.641 309.037C868.095 313.947 867.469 318.915 866.772 323.923C866.119 328.619 865.402 333.351 864.629 338.106C863.846 342.916 863.004 347.75 862.11 352.592C861.064 358.255 859.947 363.931 858.767 369.595C857.465 375.845 856.088 382.081 854.649 388.273C853.333 393.935 851.964 399.56 850.553 405.125C848.856 411.821 847.098 418.43 845.296 424.91C844.118 429.146 842.922 433.327 841.712 437.441C840.718 440.82 839.715 444.153 838.706 447.436C837.321 451.939 835.925 456.347 834.522 460.642C832.604 466.519 830.676 472.186 828.755 477.601C826.756 483.238 824.766 488.602 822.804 493.646C821.012 498.253 819.468 501.818 817.739 505.856H947.29L968.136 508.429C959.68 505.872 950.715 497.508 947.29 493.646C953.162 495.244 963.634 494.312 968.136 493.646C948.875 485.017 938.58 474.869 935.839 470.874C942.886 473.91 950.52 472.139 953.456 470.874C939.128 464.801 929.869 453.428 927.031 448.5C934.078 450.738 940.537 450.365 942.886 449.899C928.323 442.388 916.853 423.597 912.938 415.14C921.864 417.378 926.053 417.271 927.031 416.938C916.461 410.706 905.794 396.629 901.781 390.37C906.479 392.288 914.7 391.169 918.223 390.37C910.472 387.493 898.551 376.919 893.56 371.992C898.023 373.75 907.36 374.722 911.47 374.988C902.31 371.632 889.425 351.616 884.128 342.028C886.917 343.306 893.144 343.226 895.909 343.027C890.742 339.831 879.859 324.82 875.063 317.715C878.351 319.998 882.476 318.666 884.128 317.715Z" fill="#00151A"/>
<path d="M1198.63 414.679L1168.04 419.048L1163.67 392.467V371.712V349.501L1168.04 315.638L1205.91 265.86L1222.66 255.301L1256.52 259.306L1272.61 268.67L1253.25 273.871L1242.69 280.061L1227.03 287.708L1213.56 298.16L1201.54 320.371L1195.35 342.583L1198.63 414.679Z" fill="#001E26"/>
<path d="M1196.25 244.634L1193.12 213.402L1232.65 208.001L1238.02 238.925L1196.25 244.634Z" fill="#003543"/>
<rect width="12.7793" height="4.8191" transform="matrix(0.988687 -0.149996 0.13951 0.990221 1197.96 220.817)" fill="#1B7064"/>
<rect width="12.7793" height="4.8191" transform="matrix(0.988687 -0.149996 0.13951 0.990221 1219.52 227.294)" fill="#28AAF0"/>
<rect width="7.66757" height="4.8191" transform="matrix(0.988687 -0.149996 0.13951 0.990221 1199.3 230.361)" fill="#00DC82"/>
<path d="M1220.42 217.065L1230.62 215.557L1231.29 220.328L1221.09 221.837L1220.42 217.065Z" fill="#00BB6F"/>
<rect width="7.66756" height="4.8191" transform="matrix(0.988687 -0.149996 0.13951 0.990221 1209.41 228.828)" fill="#1B7064"/>
<rect width="4.25974" height="4.8191" transform="matrix(0.988687 -0.149996 0.13951 0.990221 1213.12 218.517)" fill="#00DC82"/>
<path d="M1033.91 625.361L1044.9 672.842V676.972H1328.75L1323.55 672.842L1293.58 645.303L1267.62 613.965L1234.66 580.729V542.744L1219.99 473.373L1081.95 430.574L1033.91 429.059L889.484 442.59L1085.26 458.992L1069.46 470.091L1092.84 504.759L1033.91 625.361Z" fill="url(#paint1_linear)"/>
<path d="M1283.75 456.958L1257.08 439.374L1251.97 425.164L1283.87 447.814L1283.75 456.958Z" fill="#B4B48C"/>
<path d="M1168.93 453.497L1262.5 433.116L1737.21 532.811V678.231H1413.76H1272.08L1244.28 650.965L1206.75 597.242L1202.52 555.684L1227.81 508.07L1220.27 473.603L1168.93 453.497Z" fill="#003543"/>
<path d="M1176.01 473.238L1166.28 463.656L1172.23 472.969L1175.58 478.218L1178.33 482.516L1183.49 484.936L1187.46 491.143L1196.61 491.344L1199.75 492.026L1209.95 495.263L1203.28 489.773L1194.93 488.718L1179.83 479.206L1176.01 473.238Z" fill="white"/>
<path opacity="0.3" d="M1099.49 511.495L1058.78 470.87L1152.95 457.068L1193.4 448.976L1225.57 444.38L1271.63 434.119L1319.85 444.667L1289.67 461.745L1099.49 511.495Z" fill="#003543"/>
<path d="M1293.28 450.59L1264.73 436.935L1295.74 420.461L1337.28 422.026H1438.47V485.347H1380.17L1334.24 459.279L1293.28 450.59Z" fill="#255461"/>
<path d="M1177.06 393.019V417.437L1134.85 422.604L1094.88 425.697L1039.21 427.35L1053.42 417.437L1071.55 360.146L1088.21 283.975L1096.88 251.102L1118.97 232.733L1152.66 206.437L1184.65 187.285L1238.67 176.855H1308.2L1395.07 167.815L1442.45 161.273V449.947L1385.52 435.515L1295.67 417.994L1298.93 397.83V360.146L1296.62 320.811L1290.36 287.189L1280.45 273.604L1257.24 260.121L1245.52 258.111L1231.58 260.121L1209.13 274.553L1190.69 296.804L1177.06 329.678V360.146V393.019Z" fill="#003543"/>
<path d="M1122.92 574.79L1128.41 542.533V569.306V584.398V596.751L1122.92 608.418V626.262L1109.19 638.615L1105.08 644.106L1092.72 664.008L1097.53 644.106L1109.19 631.066L1122.92 591.947V574.79Z" fill="white"/>
<path d="M1151.48 515.634C1150.35 514.645 1151.01 509.784 1151.48 507.476L1153.75 510.937L1158.28 515.634L1155.45 531.207L1151.48 527.252C1151.96 523.791 1152.62 516.623 1151.48 515.634Z" fill="white"/>
<path d="M1157.2 420.266L1159.48 386.738H1177.05L1177.2 418.19L1157.2 420.266Z" fill="#255461"/>
<path d="M1295.88 422.131L1298.2 394.762H1322.11L1327.44 425.828L1295.88 422.131Z" fill="#255461"/>
<path d="M1205.32 279.473L1190.98 267.863L1206.38 255.501L1216.56 248.879L1231.94 241.272L1246.66 237.964L1257.74 238.957L1271.91 244.414L1283.65 248.879L1294.56 256.982L1301.18 267.4L1309.17 286.749L1316.25 318.964L1319.18 354.674L1323.44 402.377L1297.93 398.912V352.402L1295.61 318.964L1289.86 286.749L1280.4 273.685L1272.96 269.22L1257.74 260.455L1246.66 258.945L1232.77 260.455L1230.29 261.778L1209.29 274.842L1205.32 279.473Z" fill="#497A87"/>
<path d="M1162.79 326.705L1159.5 386.738H1177.04L1177.77 359.13V329.999L1190.46 297.112L1205.32 279.466L1190.93 267.759L1181.74 277.831L1173.67 291.515L1166.48 310.436L1162.79 326.705Z" fill="#497A87"/>
<path d="M1156.14 343.466L1149.9 340.906L1148.05 338.835L1150.24 335.84L1156.06 336.513L1158.53 335.742L1164.82 334.801L1168.53 334.139L1172.59 332.606L1173.49 335.564L1182.55 339.612L1181.35 341.037L1177.39 342.074L1173.56 341.13L1167.95 340.293L1156.46 340.429L1156.14 343.466Z" fill="#003543"/>
<path d="M1178.03 358.988L1168.97 356.734L1168.03 355.279L1168.45 338.391L1178.14 341.425L1177 357.132L1178.03 358.988Z" fill="#71A2B0"/>
<path d="M1155.45 353.918L1155.01 339.351L1168.55 338.336L1168.26 351.802L1168.3 355.276L1170.17 356.936L1153.78 357.488L1155.45 353.918Z" fill="#497A87"/>
<path d="M1155.92 366.392L1148.7 365.926L1150.29 363.016L1152.37 363.454L1158.72 362.454L1163.46 362.398L1169.36 362.79L1180.81 363.759L1177.97 365.578L1174.6 365.771L1172.8 367.932C1171.06 367.683 1168.03 367.122 1166.28 367.097C1164.52 367.071 1161.03 366.765 1159.17 367.096L1155.92 366.392Z" fill="#003543"/>
<path d="M1157.44 353.853L1157.3 341.705L1165.74 341.139L1165.89 353.753L1157.44 353.853Z" fill="#001E26"/>
<path d="M1157.36 353.854L1158.29 343.06L1165.76 342.971L1165.89 353.753L1157.36 353.854Z" fill="url(#paint2_radial)"/>
<path d="M1148.8 335.944L1148.35 338.45L1151.26 336.873L1154.88 336.83L1156.95 336.539L1164.92 335.434L1169.96 334.842L1173.22 335.655L1182.52 339.588L1182.02 337.306L1182 335.55L1179.45 331.644L1176.5 329.976L1173.13 328.633L1167.7 327.846L1159.88 327.939L1156.86 329.145L1154.81 331.191L1153.29 333.231L1150.48 334.062L1148.8 335.944Z" fill="#255461"/>
<path d="M1149.07 365.954L1149.01 360.483L1150.91 358.789L1152.78 358.26L1153.82 357.463L1169.95 356.887L1178.12 358.922L1181.56 360.898L1180.88 363.794L1180.06 364.219L1179.12 363.815L1175.27 363.345L1167.45 362.648L1158.74 362.529L1152.36 363.444L1150.43 363.251L1149.07 365.954Z" fill="#255461"/>
<path d="M1297.13 342.687L1290.79 340.086L1288.89 337.941L1291.06 334.781L1296.95 335.414L1299.43 334.576L1305.78 333.515L1309.51 332.776L1313.6 331.123L1314.55 334.207L1323.75 338.331L1322.56 339.837L1318.57 340.97L1314.69 340.03L1309.01 339.223L1297.41 339.506L1297.13 342.687Z" fill="#003543"/>
<path d="M1319.45 358.66L1310.26 356.413L1309.29 354.903L1309.49 337.227L1319.32 340.283L1318.38 356.731L1319.45 358.66Z" fill="#71A2B0"/>
<path d="M1296.57 353.633L1295.93 338.396L1309.59 337.168L1309.48 351.262L1309.57 354.896L1311.48 356.611L1294.94 357.389L1296.57 353.633Z" fill="#497A87"/>
<path d="M1297.21 366.68L1289.92 366.28L1291.48 363.216L1293.59 363.649L1299.99 362.524L1304.78 362.407L1310.74 362.745L1322.32 363.619L1319.48 365.558L1316.08 365.8L1314.29 368.084C1312.53 367.845 1309.46 367.295 1307.68 367.29C1305.91 367.285 1302.38 367.007 1300.5 367.376L1297.21 366.68Z" fill="#003543"/>
<path d="M1298.58 353.54L1298.27 340.831L1306.79 340.136L1307.11 353.332L1298.58 353.54Z" fill="#001E26"/>
<path d="M1298.49 353.543L1299.29 342.237L1306.83 342.053L1307.11 353.332L1298.49 353.543Z" fill="url(#paint3_radial)"/>
<path d="M1289.61 334.908L1289.19 337.536L1292.11 335.849L1295.76 335.76L1297.85 335.431L1305.88 334.176L1310.97 333.495L1314.27 334.305L1323.72 338.307L1323.18 335.925L1323.13 334.089L1320.51 330.032L1317.51 328.323L1314.09 326.959L1308.59 326.203L1300.69 326.396L1297.66 327.695L1295.62 329.861L1294.11 332.014L1291.28 332.918L1289.61 334.908Z" fill="#255461"/>
<path d="M1290.29 366.305L1290.15 360.581L1292.05 358.785L1293.93 358.209L1294.97 357.362L1311.26 356.562L1319.54 358.59L1323.04 360.616L1322.39 363.654L1321.57 364.11L1320.62 363.698L1316.72 363.253L1308.81 362.621L1300.02 362.602L1293.58 363.638L1291.63 363.46L1290.29 366.305Z" fill="#255461"/>
<path d="M1155.59 184.76L1144.01 204.225L1217.19 182.995L1218.24 179.318L1206.82 181.358L1205.66 177.255L1195.66 180.088L1189.99 173.816L1183.11 189.768L1176.51 181.295L1177.39 164.299L1171.5 169.978L1166.51 168.228L1161.1 191.501L1157.35 190.947L1155.59 184.76Z" fill="#001E26"/>
<path d="M1406.26 143.284L1452.93 154.506L1243.52 173.851L1237.67 171.142L1269.28 166.993L1268.88 162.748L1297.43 160.045L1307.02 151.521L1338.42 162.08L1348.59 151.122L1332 136.509L1352.19 138.474L1363.8 134.315L1397.49 152.137L1406.86 149.687L1406.26 143.284Z" fill="#001E26"/>
<path d="M1081.66 262.154V245.931L1149.92 201.215V212.156L1081.66 262.154Z" fill="#497A87"/>
<path d="M1149.88 212.17V201.268L1181.42 184.165L1223.49 173.674L1221.23 185.369L1186.04 193.025L1149.88 212.17Z" fill="#497A87"/>
<path d="M1221.1 185.325L1223.49 173.677L1262.87 171.332L1325.52 166.529L1322.8 178.224L1274.56 182.192L1221.1 185.325Z" fill="#497A87"/>
<path d="M1322.54 178.315L1324.02 166.823L1461.08 145.667V159.464L1322.54 178.315Z" fill="#497A87"/>
<path d="M1301.03 373.668L1299.1 366.805H1315.29V375.252L1312.47 372.437L1310.54 377.716L1308.6 373.668L1304.55 389.155V379.652L1301.03 368.741V373.668Z" fill="#558887"/>
<path d="M1383.94 283.387C1406.56 268.712 1419.2 234.314 1422.69 218.949L1404.32 610.385H1245.29L1286.89 594.287C1272.65 599.743 1260.19 594.992 1253.91 594.287C1264.75 592.226 1290.25 576.683 1299.08 568.965C1296.07 571.374 1274.04 573.627 1268.08 572.622C1281.69 569.095 1313.77 519.972 1311.33 522.559C1309.38 524.628 1294.23 526.086 1286.89 526.557C1297.51 523.17 1320.41 492.221 1330.53 477.17C1324.39 480.556 1310.52 483.598 1304.35 484.696C1329.48 473.595 1347.17 433.506 1352.87 414.849C1348.96 417.295 1334.72 419.474 1328.09 420.258C1351.55 401.82 1362.53 378.24 1365.09 368.755C1361.18 372.517 1350.89 372.047 1346.24 371.341C1363.83 357.231 1379.87 329.872 1385.69 317.957C1381.22 320.967 1368.7 320.309 1363 319.603C1379.75 315.84 1392.09 293.891 1396.16 283.387C1392.53 285.456 1386.5 284.249 1383.94 283.387Z" fill="#001E26"/>
<path d="M1448.39 278.063C1436.14 271.244 1429.12 234.57 1422.46 218.566C1421.97 227.402 1421.61 238.173 1420.77 247.323C1420.26 252.769 1419.81 257.227 1419.19 262.763C1418.21 271.435 1418.68 280.183 1417.43 289.03C1416.27 297.324 1414.99 305.682 1413.61 314.08C1412.21 322.577 1410.71 331.114 1409.12 339.666C1407.25 349.67 1405.26 359.694 1403.15 369.699C1400.83 380.738 1398.37 391.753 1395.81 402.689C1393.46 412.69 1391.02 422.626 1388.5 432.456C1385.47 444.283 1382.34 455.956 1379.12 467.402C1377.02 474.883 1374.89 482.268 1372.73 489.535C1370.96 495.502 1369.17 501.391 1367.37 507.189C1364.9 515.143 1362.4 522.928 1359.9 530.515C1356.48 540.895 1353.04 550.904 1349.62 560.469C1346.05 570.425 1342.5 579.899 1339 588.809C1335.8 596.946 1333.05 603.243 1329.96 610.375H1561.07L1598.25 614.919C1583.17 610.403 1567.18 595.631 1561.07 588.809C1571.54 591.632 1590.22 589.985 1598.25 588.809C1563.9 573.567 1545.53 555.643 1540.64 548.586C1553.21 553.949 1566.83 550.821 1572.07 548.586C1546.51 537.86 1529.99 517.772 1524.93 509.069C1537.5 513.02 1549.02 512.362 1553.21 511.539C1527.23 498.272 1506.77 465.082 1499.79 450.145C1515.71 454.097 1523.18 453.909 1524.93 453.321C1506.07 442.312 1487.04 417.449 1479.88 406.394C1488.26 409.781 1502.93 407.805 1509.22 406.394C1495.39 401.313 1474.12 382.636 1465.22 373.933C1473.18 377.038 1489.84 378.755 1497.17 379.225C1480.83 373.298 1457.84 337.944 1448.39 321.008C1453.37 323.266 1464.48 323.125 1469.41 322.772C1460.19 317.126 1440.78 290.614 1432.22 278.063C1438.09 282.097 1445.45 279.744 1448.39 278.063Z" fill="#00151A"/>
<path d="M1232.18 241.273L1226.26 244.036L1225.86 247.615L1228.13 245.694V249.179L1230.14 247.258L1231.71 257.846L1234.34 252.932L1237.43 259.053L1236.49 254.138L1237.74 250.564L1239.44 246.945L1242.48 254.406L1243.06 249.179L1245.42 252.351L1247.7 258.785L1249.44 246.096L1252.75 255.344L1254 249.76L1257.08 253.423L1259.38 248.072L1257.78 238.941L1246.66 237.921L1239.44 239.431L1232.18 241.273Z" fill="#558887"/>
<path d="M1147.7 413.529L1152.06 421.2L1178.24 418.192L1182 416.688L1183.05 411.724H1180.79L1178.24 415.334L1176.73 409.919L1175.98 405.407L1172.52 407.513L1170.56 399.391L1166.8 405.407L1162.59 402.399L1158.38 407.513L1156.13 414.281L1152.06 409.919L1151.31 414.281L1147.7 413.529Z" fill="#001E26"/>
<path d="M1105.31 465.987L1010.24 428.006L1133.75 422.348L1174.86 417.709L1206.77 413.067L1296.1 420.58L1269.44 436.277L1105.31 465.987Z" fill="#001E26"/>
<path d="M488.072 676.311H1044.32L1072.48 636.889L1097.42 591.031L1106.27 512.991L1111.91 489.66L1106.57 457.205L1097.42 459.088L1078.12 477.592L1052.37 494.487L1018.58 512.991H944.951L845.362 548.463L521.057 591.031H496.922L488.072 623.212V676.311Z" fill="#003543"/>
<path d="M47.0162 511.341C47.8661 515.988 -160.933 782.124 711.326 515.497C1583.59 248.87 90.2785 503.436 47.0162 511.341Z" fill="url(#paint4_linear)"/>
<path d="M511.334 643.571V668.059L-15.5737 674.707V533.657L66.8815 518.964H181.514L376.59 482.722L436.923 473.907L537.478 482.722L674.233 458.234L764.732 441.582L881.376 426.89H1004.05L1050.31 435.705L1094.55 441.582L1106.62 458.234L1094.55 473.907L1060.36 501.333L1022.15 514.067L1004.05 518.964L939.698 533.657H911.543L881.376 541.493L855.232 554.227L823.054 567.94H792.888L764.732 572.838L636.796 595.291L629.989 602.431L597.811 608.308L571.667 602.431H537.478L511.334 619.083V643.571Z" fill="#255461"/>
<path d="M1219.95 473.298L1171.4 453.445L1268.83 436.056L1295.62 420.581L1266.43 446.512L1221.18 479.459L1219.95 473.298Z" fill="#012934"/>
<path d="M1012.63 434.724C1011.09 431.643 1010.69 419.926 1005.22 411.434C1002.98 413.762 989.754 415.203 981.887 415.203C975.676 425.55 993.73 432.775 993.73 432.775C993.73 432.775 997.056 439.786 1004.07 451.469C1002.82 454.832 1004.7 481.934 1004.91 483.012C1009.06 483.972 1009.41 482.684 1009.99 482.283C1010.57 481.882 1015.24 452.346 1014.97 451.469C1014.7 450.599 1014.97 439.398 1012.63 434.724Z" fill="#5A7D7D"/>
<path d="M994.703 429.954C993.936 426.595 998.002 422.215 994.703 412.669C991.979 414.401 986.906 407.774 979.263 405.91C970.778 414.492 979.263 419.356 979.263 419.356C979.263 419.356 977.896 435.629 981.939 448.639C979.935 451.612 977.5 481.04 977.446 482.137C981.249 484.052 981.9 482.885 982.556 482.632C983.212 482.379 990.06 456.279 991.846 454.253C992.449 453.57 995.866 435.048 994.703 429.954Z" fill="#5A7D7D"/>
<path d="M981.407 446.789L989.803 452.854L981.231 450.646C981.384 449.935 981.63 448.898 981.936 448.643C981.665 447.845 981.407 446.789 981.407 446.789Z" fill="#547171"/>
<path d="M1003.09 449.835L1011.93 451.481L1003.74 453.308C1003.79 452.686 1003.87 451.888 1004.06 451.481C1003.77 450.985 1003.09 449.835 1003.09 449.835Z" fill="#547171"/>
<path d="M994.867 435.102C995.386 435.627 993.636 445.76 993.358 447.173C993.358 443.072 991.468 433.663 989.786 429.19C989.597 428.782 989.397 428.318 989.179 427.784C989.376 428.166 989.579 428.64 989.786 429.19C991.189 432.222 991.978 432.184 994.867 435.102Z" fill="#4F6B6B"/>
<path d="M1001.52 354.152C1003.46 351.785 1006.18 352.963 1007.29 353.847C1009.16 354.246 1011.35 354.832 1012.64 355.736C1013.93 356.64 1013.07 359.631 1013.55 361.584C1014.03 363.536 1014.15 364.332 1012.95 364.197C1012.43 364.14 1012.76 367.926 1012.24 368.407C1011.68 368.926 1011.03 369.275 1010.26 369.341C1008.79 369.466 1007.07 370.082 1006.87 371.545L1006.84 371.761L997.817 371.761C998.381 365.683 999.59 356.519 1001.52 354.152Z" fill="#E6BEAA"/>
<path d="M1011.42 368.994C1010.62 369.449 1009.22 369.598 1009.22 369.598C1009.36 368.483 1009.14 367.006 1009.04 366.279C1009.36 366.912 1010.76 368.409 1011.42 368.994Z" fill="#D3B09E"/>
<path d="M993.241 405.385L1006.52 386.363L1049.46 383.19L1035.05 411.131L993.241 405.385Z" fill="#EDEDD5"/>
<path d="M975.915 423.09C979.059 426.508 994.702 428.202 1010.57 425.076C1012.94 405.331 1012.94 403.926 1012.94 393.042C1012.94 388.981 1016.31 388.779 1019.21 387.599C1026.59 384.591 1024.1 378.272 1024.1 378.272C1023.23 370.859 1008 358.743 1008 358.743C1008 358.743 1003.48 361.55 1005.61 362.838C1009.72 365.943 1011.21 371.553 1013.55 374.574L1012.47 375.112C1012.47 375.112 1012.33 373.598 1007.65 371.578C1007.29 371.422 1006.95 371.224 1006.63 371.001C1002.87 368.409 999.173 368.724 997.178 369.415C996.623 369.607 996.186 370.013 995.825 370.476C994.992 371.547 993.882 372.553 990.91 372.221C982.812 372.657 971.984 418.818 975.915 423.09Z" fill="#001E26"/>
<path d="M1016.8 378.507L1010.24 376.271C1010.37 376.577 1010.89 377.334 1011.14 377.549C1010.66 377.782 1009.56 377.984 1009.3 378.165L1016.8 378.507Z" fill="#002E3A"/>
<path d="M1000.03 407.876C1002.76 408.645 1011.12 408.82 1012.25 408.47C1012.98 408.245 1011.73 414.969 1011.73 414.969C1004.36 415.512 998.584 412.122 998.584 412.122L1000.03 407.876Z" fill="#003543"/>
<path d="M1000.35 376.952C1002.72 375.511 1009.37 375.657 1010.12 376.374C1010.68 376.906 1011.18 377.5 1011.18 377.5C1003.81 378.043 1002.68 384.055 1002.68 384.055L1000.35 376.952Z" fill="#003543"/>
<path d="M978.142 392.499L975.329 393.211C975.123 393.264 974.951 393.412 974.845 393.628C972.008 399.532 971.559 403.781 971.995 406.225C972.438 408.714 974.4 410.985 976.389 410.846C977.734 410.749 979.875 402.233 978.142 392.499Z" fill="#5A7D7D"/>
<path d="M1000.75 377.614C998.444 375.566 996.978 374.977 995.532 375.078C990.089 375.46 987.768 374.907 985.689 374.333C982.218 373.372 980.189 374.183 980.091 376.654C979.909 381.298 978.408 389.859 977.439 392.822C974.302 396.917 972.961 401.661 973.309 404.737C973.657 407.814 975.295 410.785 976.525 411.47C978.483 412.563 990.492 415.933 994.274 415.409C998.055 414.884 1000.75 412.113 1001.63 406.78C1002.52 401.446 1002.9 386.333 1002.8 382.412C1002.75 380.181 1002.19 378.904 1000.75 377.614Z" fill="#003543"/>
<path d="M1004.38 397.642C1002.42 396.054 997.95 394.679 996.152 394.662C995.931 394.656 995.749 394.81 995.682 395.057C994.621 399.036 991.655 401.68 991.468 406.821C991.28 412.112 994.254 415.575 997.277 415.363C1000.3 415.151 1003.02 413.557 1003.93 409.41C1004.82 405.403 1004.98 402.023 1004.7 398.286C1004.68 398.036 1004.56 397.792 1004.38 397.642V397.642Z" fill="#5A7D7D"/>
<path d="M978.522 388.325L978.17 390.011C980.889 390.827 990.982 393.368 992.714 393.89C994.446 394.411 995.72 393.617 995.896 390.99C996.072 388.363 978.522 388.325 978.522 388.325Z" fill="#012934"/>
<ellipse rx="2.53081" ry="2.93911" transform="matrix(1.03517 -0.0511311 0.118952 0.950219 997.033 375.585)" stroke="#003543" stroke-width="1.10088"/>
<path d="M1001.06 377.907C1000.2 376.253 999.274 375.152 997.602 374.53C994.452 373.356 986.013 372.831 984.033 372.728C982.052 372.624 979.487 373.381 979.328 375.629C979.096 378.905 978.424 384.478 977.665 386.889C977.201 388.366 977.743 389.217 979.034 389.579C980.326 389.94 991.734 392.492 993.374 392.848C995.014 393.205 996.423 392.364 996.691 391.195C997.062 389.572 996.697 380.694 996.455 378.825C996.286 377.515 997.249 376.573 998.54 376.695C999.419 376.748 1000.31 377.176 1001.06 377.907Z" fill="#5A7D7D"/>
<path d="M987.51 388.7C987.518 388.585 987.485 388.462 987.42 388.363C987.355 388.264 987.264 388.196 987.169 388.177L984.761 387.703C984.581 387.668 984.433 387.812 984.424 388.031C984.399 388.83 984.298 390.665 984.011 391.703C983.961 391.884 983.893 392.082 983.817 392.289C983.462 392.179 983.109 392.086 982.785 392.025C982.648 391.996 982.524 392.072 982.471 392.216L982.173 393.03C982.128 393.15 982.139 393.301 982.203 393.431C982.266 393.561 982.373 393.653 982.488 393.676C982.662 393.711 982.883 393.762 983.134 393.824C982.957 394.186 982.785 394.513 982.651 394.762C982.593 394.87 982.588 395.017 982.637 395.153C982.686 395.288 982.783 395.396 982.896 395.439L985.199 396.326C985.335 396.378 985.47 396.326 985.54 396.195C985.682 395.927 985.936 395.434 986.199 394.863C986.457 394.973 986.72 395.09 986.99 395.219C987.139 395.29 987.291 395.237 987.363 395.087L987.721 394.347C987.772 394.24 987.774 394.101 987.728 393.971C987.681 393.842 987.591 393.737 987.485 393.69C987.302 393.607 987.063 393.506 986.794 393.392C986.877 393.153 986.95 392.908 987.011 392.656C987.295 391.464 987.45 389.561 987.51 388.7Z" fill="#5A7D7D"/>
<ellipse rx="2.41312" ry="3.18516" transform="matrix(0.780622 0.625003 -0.625658 0.780097 991.328 386.007)" fill="#003C3C"/>
<ellipse rx="2.4131" ry="3.18515" transform="matrix(0.780625 0.625 -0.625661 0.780095 991.341 385.49)" fill="#00D180"/>
<path fill-rule="evenodd" clip-rule="evenodd" d="M992.577 386.763L991.194 386.683L991.568 386.248L992.476 386.3L992.228 384.926L991.856 385.36L991.162 386.167C990.906 386.48 990.543 386.658 990.226 386.628L989.358 386.578C989.265 386.578 989.196 386.52 989.179 386.427C989.162 386.335 989.201 386.223 989.279 386.139L991.172 383.936C991.243 383.847 991.345 383.794 991.437 383.799C991.528 383.804 991.593 383.866 991.605 383.96L991.773 384.899L992.162 384.446C992.235 384.362 992.336 384.313 992.425 384.318C992.514 384.323 992.579 384.382 992.595 384.472L992.931 386.349C992.948 386.44 992.913 386.548 992.84 386.633C992.766 386.719 992.666 386.768 992.577 386.763ZM989.748 386.126L990.35 386.161L990.349 386.162C990.533 386.186 990.747 386.081 990.893 385.894L991.389 385.317L991.224 384.407L989.748 386.126Z" fill="#003C3C"/>
<path d="M1003.48 485.57C1007.88 484.412 1017.47 482.85 1017.47 483.672L1017.56 484.03L1017.6 484.249C1017.6 484.498 1017.56 484.6 1017.56 484.6C1017.56 484.6 1017.54 484.678 1017.47 484.835C1017.42 484.96 1017.35 485.079 1017.23 485.156C1017.17 485.199 1017.11 485.24 1017.09 485.25C1015.54 486.017 1014.15 486.576 1012.76 486.969C1007.82 488.361 1004.26 488.143 1004.01 488.143C1003.84 488.143 1003.59 487.996 1003.54 487.84C1003.51 487.739 1003.51 487.705 1003.48 487.566C1003.46 487.466 1003.46 487.205 1003.46 487.205C1003.46 487.118 1003.48 486.913 1003.51 486.841C1003.54 486.699 1003.58 486.618 1003.62 486.567C1003.6 486.461 1003.59 486.357 1003.58 486.259C1003.57 486.173 1003.55 486.091 1003.54 486.015C1003.52 485.801 1003.49 485.637 1003.48 485.57Z" fill="#00DC82"/>
<path d="M1003.83 487.144C1003.03 486.342 1003.43 481.206 1004.1 478.564L1011.74 479.082C1011.18 481.055 1010.95 481.323 1011.32 481.536C1011.9 481.871 1012.6 481.93 1013.27 481.905C1017 481.766 1017.51 482.682 1017.51 483.93C1017.51 486.248 1004.83 488.146 1003.83 487.144Z" fill="#000606"/>
<path d="M976.717 484.748C980.6 483.726 989.064 482.347 989.064 483.073L989.143 483.389L989.177 483.582C989.177 483.802 989.143 483.892 989.143 483.892C989.143 483.892 989.124 483.961 989.064 484.099C989.016 484.209 988.954 484.315 988.855 484.382C988.799 484.421 988.746 484.457 988.725 484.465C987.361 485.143 986.135 485.636 984.905 485.982C980.545 487.211 977.4 487.019 977.18 487.019C977.037 487.019 976.813 486.89 976.772 486.751C976.745 486.663 976.74 486.632 976.715 486.51C976.697 486.422 976.701 486.191 976.701 486.191C976.701 486.114 976.717 485.934 976.741 485.87C976.772 485.745 976.801 485.673 976.838 485.628C976.825 485.534 976.812 485.443 976.801 485.356C976.79 485.28 976.78 485.208 976.772 485.141C976.747 484.952 976.728 484.807 976.717 484.748Z" fill="#00DC82"/>
<path d="M977.024 486.136C976.316 485.428 976.669 480.895 977.259 478.564L984.01 479.02C983.573 480.552 983.365 480.92 983.542 481.114C983.992 481.607 984.809 481.529 985.476 481.508C988.661 481.409 989.097 482.211 989.097 483.3C989.097 485.346 977.909 487.021 977.024 486.136Z" fill="#000606"/>
<path d="M1007.02 363.889C1007.02 364.703 1006.61 367.028 1006.12 367.583C1005.19 368.364 1003.91 368.364 1002.83 368.364C1002.83 368.364 998.489 368.335 998.101 367.583C998.101 367.583 997.911 367.516 997.665 366.756C995.836 362.557 997.665 359.087 997.665 359.087C997.891 358.374 998.91 355.877 998.91 355.877C999.23 355.018 1000.26 353.823 1000.79 353.162C1001.42 352.387 1002.71 352.432 1003.98 351.909C1010.94 349.047 1014.06 351.265 1014.76 352.731C1015 352.254 1014.32 350.888 1013.95 350.264C1017.61 351.93 1016.05 357.934 1013.58 357.153C1011.12 356.372 1010.27 357.646 1009.88 357.934C1009.4 358.293 1009.13 359.236 1008.81 359.75C1008.64 360.031 1008.47 360.395 1008.29 360.834C1008.35 360.002 1007.61 359.132 1007.02 359.437C1005.66 360.149 1007.02 362.872 1007.02 363.889Z" fill="#002021"/>
<path d="M1003.38 361.236C1003.77 362.095 1005.39 361.345 1005.61 361.473L1008.64 359.452C1008.41 359.25 1005.8 356.827 1002.71 356.222C998.851 355.467 1000.78 359.316 1001.49 360.145C1002.19 360.974 1002.39 359.612 1003.59 360.096C1004.79 360.58 1002.98 360.377 1003.38 361.236Z" fill="#E6BEAA"/>
<path d="M1021.46 339.587L1021.39 336.691H1022.19C1022.79 336.691 1023.33 336.638 1023.83 336.533C1024.32 336.428 1024.71 336.223 1025 335.919C1025.29 335.614 1025.44 335.17 1025.44 334.585C1025.44 334.023 1025.27 333.585 1024.93 333.269C1024.59 332.941 1024.14 332.777 1023.58 332.777C1022.99 332.777 1022.54 332.941 1022.21 333.269C1021.88 333.585 1021.72 334.017 1021.72 334.567H1019.6C1019.58 333.865 1019.74 333.239 1020.05 332.689C1020.37 332.14 1020.82 331.707 1021.42 331.391C1022.03 331.075 1022.76 330.917 1023.6 330.917C1024.38 330.917 1025.07 331.063 1025.67 331.356C1026.28 331.648 1026.75 332.069 1027.09 332.619C1027.44 333.157 1027.62 333.819 1027.62 334.602C1027.62 335.41 1027.44 336.077 1027.07 336.603C1026.72 337.13 1026.24 337.522 1025.62 337.779C1025.01 338.036 1024.3 338.171 1023.49 338.183L1023.44 339.587H1021.46ZM1022.46 343.535C1022.05 343.535 1021.71 343.407 1021.44 343.149C1021.18 342.892 1021.05 342.582 1021.05 342.219C1021.05 341.845 1021.18 341.529 1021.44 341.271C1021.71 341.014 1022.05 340.885 1022.46 340.885C1022.87 340.885 1023.2 341.014 1023.46 341.271C1023.71 341.529 1023.84 341.845 1023.84 342.219C1023.84 342.582 1023.71 342.892 1023.46 343.149C1023.2 343.407 1022.87 343.535 1022.46 343.535Z" fill="#95CDDE"/>
<path d="M1005.41 327.093L1005.31 322.906H1006.48C1007.34 322.906 1008.13 322.83 1008.84 322.677C1009.55 322.525 1010.12 322.229 1010.54 321.789C1010.96 321.349 1011.17 320.706 1011.17 319.86C1011.17 319.048 1010.93 318.414 1010.44 317.957C1009.95 317.483 1009.3 317.247 1008.48 317.247C1007.64 317.247 1006.98 317.483 1006.5 317.957C1006.03 318.414 1005.79 319.04 1005.79 319.835H1002.72C1002.71 318.82 1002.93 317.915 1003.38 317.12C1003.84 316.325 1004.5 315.699 1005.36 315.242C1006.24 314.785 1007.29 314.557 1008.51 314.557C1009.64 314.557 1010.64 314.768 1011.5 315.191C1012.38 315.614 1013.07 316.223 1013.56 317.018C1014.07 317.796 1014.32 318.752 1014.32 319.886C1014.32 321.053 1014.06 322.017 1013.53 322.779C1013.03 323.54 1012.32 324.107 1011.43 324.479C1010.55 324.851 1009.52 325.046 1008.36 325.063L1008.28 327.093H1005.41ZM1006.86 332.803C1006.27 332.803 1005.78 332.617 1005.39 332.244C1005.01 331.872 1004.83 331.424 1004.83 330.899C1004.83 330.358 1005.01 329.901 1005.39 329.529C1005.78 329.157 1006.27 328.971 1006.86 328.971C1007.45 328.971 1007.93 329.157 1008.31 329.529C1008.68 329.901 1008.86 330.358 1008.86 330.899C1008.86 331.424 1008.68 331.872 1008.31 332.244C1007.93 332.617 1007.45 332.803 1006.86 332.803Z" fill="#95CDDE"/>
<path d="M1093.68 262.688L1081.65 262.13L1097 250.927L1093.68 262.688Z" fill="#001E26"/>
<path d="M1096.15 253.757L1096.95 250.859L1108.02 242.456L1127.26 228.245L1139.97 219.27L1148.95 212.325L1168.39 201.96L1186.24 192.878L1221.07 184.971L1252.59 183.048L1282.3 181.124L1310.72 178.667L1329.8 177.095L1355.27 173.752L1390.43 168.837L1440.01 162.212V164.242L1429.21 165.738L1417.46 167.341L1400.73 169.331L1377.35 172.665L1345.85 177.095L1333.18 178.367L1320.76 179.735L1296.4 182.086L1256.22 184.971L1222.03 187.429L1186.24 195.442L1169.68 203.456L1151.3 213.286L1143.92 219.27L1128 230.382L1113.26 240.96L1096.15 253.757Z" fill="#001E26"/>
<path d="M1130.39 213.053C1132.08 220.382 1106.67 249.697 1093.75 263.438L1092.73 266.645C1093.38 266.537 1111.37 248.225 1122.2 234.03C1130.87 222.674 1132.92 214.398 1132.86 211.68L1130.39 213.053Z" fill="#558887"/>
<path d="M1122.76 245.976C1121.3 247.431 1115.57 245.37 1112.88 244.157L1118.25 239.146C1120.36 240.816 1124.21 244.521 1122.76 245.976Z" fill="#558887"/>
<path d="M1099.38 245.739C1100.84 244.284 1106.57 246.345 1109.26 247.558L1103.89 252.569C1101.78 250.899 1097.93 247.194 1099.38 245.739Z" fill="#558887"/>
<path d="M1122.93 219.815C1123.69 218.386 1128.91 215.814 1131.43 214.706L1128.53 219.839C1126.35 220.426 1122.17 221.243 1122.93 219.815Z" fill="#558887"/>
<path d="M1333.74 175.004L1332.44 179.955L1327.97 166.189L1331.08 165.843L1387.29 157.09L1387.61 167.945L1383.53 172.112L1380.57 178.097L1377.43 172.681L1374.04 178.707L1372.06 176.257L1366.64 179.397L1362.05 177.192L1364 198.089L1361.49 194.809L1360.8 201.462L1359.88 215.161L1356.22 208.915L1354.86 217.825L1352.24 213.24L1350.51 218.232L1347.45 199.633L1346.93 179.92L1344.72 184.518L1342.17 175.973L1339.84 179.264L1337.65 174.638L1333.74 175.004Z" fill="#558887"/>
<path d="M73.1029 549.196L126.154 548.894L116.455 534.36L99.0552 506.606L86.5778 469.872L81.7396 435.415L72.0482 363.85L61.8818 267.087L57.2072 203.119L57.0016 166.978L56.8733 144.432L61.0497 120.866L-35.7226 129.374L-39.1532 342.267L-44.544 443.76L-53.3435 470.668L-72.1447 488.017L-97.2551 503.744L-67.6626 518.165L-44.0232 535.273L-5.52372 541.685L37.3371 557.025L73.1029 549.196Z" fill="#003543"/>
<path d="M-23.6421 344.095L-43.2549 359.786C-55.0225 354.555 -82.8726 341.154 -100.132 329.386C-121.706 314.676 -125.628 250.935 -124.648 244.07C-123.863 238.579 -107.977 159.408 -100.132 120.51C-83.7879 121.817 -49.5309 125.217 -43.2549 128.355C-36.9788 131.493 -29.2338 -5.13844 -6.02532 9.57117C7.04987 17.4163 73.4412 95.7698 73.4412 99.6924C73.4412 103.615 130.318 309.773 158.757 359.786L110.706 314.676C111.032 332.328 111.49 368.611 110.706 372.534C109.921 376.457 93.3809 355.209 85.2089 344.095L73.4412 399.992L34.2157 372.534L20.4867 388.224L-23.6421 344.095Z" fill="#00151B"/>
<path d="M1019.4 391.068C1021.27 390.331 1024.05 388.908 1025.54 391.024C1026.31 392.112 1029.51 391.068 1030.69 391.068" stroke="black" stroke-linecap="round" stroke-linejoin="round"/>
<path d="M1034.46 389.681C1036.05 389.808 1037.62 389.879 1039.21 389.879" stroke="black" stroke-linecap="round" stroke-linejoin="round"/>
<path d="M1035.45 396.814C1032.83 396.814 1030.5 396.386 1027.96 395.867C1027.15 395.701 1026.48 396.08 1025.72 396.01C1022.99 395.763 1020.36 395.427 1017.61 395.427" stroke="black" stroke-linecap="round" stroke-linejoin="round"/>
<path d="M1017.22 401.569C1017.97 401.722 1018.52 402.19 1019.24 402.318C1020.28 402.503 1021.32 402.117 1022.37 402.175C1023.63 402.245 1024.98 402.493 1026.13 402.956" stroke="black" stroke-linecap="round" stroke-linejoin="round"/>
<path d="M1030.3 402.758C1031.09 402.886 1031.88 403.023 1032.67 403.155" stroke="black" stroke-linecap="round" stroke-linejoin="round"/>
<path d="M1198.39 250.342V237.757V226.221L1206.96 219.509L1221.3 210.724L1250.4 202.858H1269.28L1276.36 205.48L1274.78 217.278V234.32L1257.43 228.377H1246.2L1228.64 232.747L1209.57 240.007L1198.39 250.342Z" fill="#001E26"/>
<path d="M1073.9 348.31L1076.61 337.491L1080.34 339.037L1084.85 344.06L1090.13 346.507L1095.41 354.621L1102.11 374.97L1090.13 354.621L1084.85 351.401L1080.34 346.507L1073.9 348.31Z" fill="#001E26"/>
<path d="M1161.29 301.19L1169.01 303.431L1173.16 293.126L1167.45 297.27H1161.29L1155.24 299.51L1153.22 301.19H1161.29Z" fill="#001E26"/>
<path d="M1400.4 175.145L1404.84 168.197L1417.07 166.529L1411.24 171.532L1406.79 179.591L1404.84 194.876L1395.67 204.325L1391.5 221L1380.67 231.283L1386.5 217.109L1397.62 194.876L1400.4 175.145Z" fill="#001E26"/>
<path d="M467.751 500.048L398.346 497.478L509.201 479.163H510.808L515.628 484.946L513.057 491.373L467.751 500.048Z" fill="#13323A"/>
<path d="M1244.99 510.83L1252.09 478.564L1256.4 483.942L1252.09 502.44L1244.99 510.83Z" fill="#001E26"/>
<path d="M1258.98 526.962L1265.21 510.83H1271.67L1279.2 491.47C1283.14 491.112 1290.77 490.61 1289.74 491.47C1288.7 492.331 1278.98 506.743 1274.25 513.841L1268.23 535.136L1252.09 540.729L1249.3 535.136L1258.98 526.962Z" fill="#001E26"/>
<path d="M304.101 599.405L209.356 554.215L207.588 533.999L121.234 532.212L68.4961 511.784L19.1556 499.546L2.42708 501.009L-38.6035 487.418L-23.1017 664.723L307.287 635.837L304.101 599.405Z" fill="#001E26"/>
</g>
<defs>
<radialGradient id="paint0_radial" cx="0" cy="0" r="1" gradientUnits="userSpaceOnUse" gradientTransform="translate(1359.02 336.457) rotate(-180) scale(188.172 196.107)">
<stop stop-color="#00DC82" stop-opacity="0.76"/>
<stop offset="1" stop-color="#00DC82" stop-opacity="0"/>
</radialGradient>
<linearGradient id="paint1_linear" x1="1181.33" y1="426.89" x2="1181.33" y2="676.972" gradientUnits="userSpaceOnUse">
<stop stop-color="#E5F9FF"/>
<stop offset="1" stop-color="#95CDDE"/>
</linearGradient>
<radialGradient id="paint2_radial" cx="0" cy="0" r="1" gradientUnits="userSpaceOnUse" gradientTransform="translate(1168 355.899) rotate(-99.7061) scale(12.5291 8.67803)">
<stop stop-color="#00DC82"/>
<stop offset="1" stop-color="#00DC82" stop-opacity="0"/>
</radialGradient>
<radialGradient id="paint3_radial" cx="0" cy="0" r="1" gradientUnits="userSpaceOnUse" gradientTransform="translate(1309.78 357.291) rotate(-89.6656) scale(18.935 12.6645)">
<stop stop-color="#00DC82"/>
<stop offset="1" stop-color="#00DC82" stop-opacity="0"/>
</radialGradient>
<linearGradient id="paint4_linear" x1="489.202" y1="576.748" x2="478.461" y2="465.308" gradientUnits="userSpaceOnUse">
<stop stop-color="#00DC82" stop-opacity="0.76"/>
<stop offset="1" stop-color="#00DC82" stop-opacity="0"/>
</linearGradient>
<clipPath id="clip0">
<rect width="1440" height="607" fill="white" transform="translate(0 0.428223)"/>
</clipPath>
</defs>
</svg>
