
<svg width="768" height="567" viewBox="0 0 768 567" fill="none" xmlns="http://www.w3.org/2000/svg">
<g clip-path="url(#clip0)">
<path d="M606.178 159.406V206.529L911.738 148.362L917.628 93.1403V56.3257L902.166 56.3258L805.712 86.5136L750.49 96.8218L649.619 132.164L606.178 159.406Z" fill="#012934"/>
<path d="M597.463 168.983V159.082L648.767 130.897L725.547 99.0739L755.35 90.9916L783.638 87.9608L803.843 83.9197L848.295 70.281L863.954 64.2194L918.509 51.0859V58.6629L906.386 61.1887L856.377 74.8273L795.761 93.5174L752.825 99.0739L725.547 110.692L648.767 138.474L597.463 168.983Z" fill="#29434A"/>
<path d="M523.97 288.492C534.984 281.347 541.138 264.598 542.838 257.116L533.894 447.714H456.459L476.715 439.876C469.78 442.532 463.713 440.219 460.654 439.876C465.934 438.872 478.348 431.304 482.65 427.546C481.181 428.719 470.459 429.816 467.553 429.327C474.182 427.609 489.804 403.69 488.614 404.95C487.662 405.957 480.285 406.667 476.715 406.896C481.883 405.247 493.034 390.178 497.963 382.849C494.971 384.498 488.217 385.979 485.214 386.513C497.453 381.109 506.065 361.588 508.842 352.504C506.938 353.695 500.003 354.756 496.773 355.137C508.196 346.16 513.545 334.678 514.791 330.06C512.887 331.892 507.879 331.663 505.612 331.319C514.179 324.448 521.987 311.127 524.82 305.325C522.644 306.791 516.547 306.47 513.771 306.127C521.93 304.295 527.936 293.607 529.919 288.492C528.151 289.5 525.216 288.912 523.97 288.492Z" fill="#00151A"/>
<path d="M555.353 285.9C549.386 282.58 545.967 264.722 542.724 256.93C542.486 261.232 542.313 266.477 541.901 270.932C541.655 273.584 541.435 275.754 541.132 278.45C540.658 282.673 540.883 286.932 540.278 291.24C539.71 295.279 539.088 299.348 538.416 303.437C537.736 307.575 537.005 311.731 536.228 315.896C535.32 320.767 534.349 325.648 533.324 330.519C532.194 335.894 530.998 341.258 529.747 346.583C528.604 351.453 527.415 356.291 526.19 361.077C524.716 366.836 523.188 372.519 521.623 378.093C520.6 381.735 519.561 385.331 518.51 388.87C517.647 391.775 516.776 394.642 515.899 397.466C514.697 401.339 513.483 405.129 512.265 408.824C510.599 413.878 508.924 418.752 507.256 423.409C505.519 428.257 503.791 432.87 502.087 437.208C500.53 441.17 499.189 444.236 497.688 447.709H610.216L628.323 449.922C620.978 447.723 613.191 440.53 610.216 437.208C615.316 438.583 624.412 437.781 628.323 437.208C611.593 429.786 602.65 421.059 600.27 417.623C606.39 420.234 613.021 418.711 615.571 417.623C603.126 412.4 595.084 402.619 592.619 398.381C598.74 400.305 604.35 399.985 606.39 399.584C593.741 393.124 583.778 376.963 580.378 369.69C588.13 371.614 591.769 371.523 592.619 371.236C583.438 365.876 574.172 353.77 570.687 348.387C574.767 350.036 581.908 349.074 584.968 348.387C578.235 345.913 567.881 336.819 563.546 332.581C567.422 334.093 575.532 334.929 579.103 335.158C571.146 332.272 559.954 315.057 555.353 306.81C557.776 307.91 563.184 307.841 565.586 307.67C561.098 304.921 551.645 292.011 547.479 285.9C550.335 287.864 553.918 286.718 555.353 285.9Z" fill="#00151A"/>
<path d="M453.774 250.207C466.029 242.257 472.876 223.621 474.767 215.297L464.817 427.358H378.662L401.199 418.637C393.483 421.593 386.733 419.019 383.329 418.637C389.204 417.521 403.015 409.1 407.802 404.919C406.168 406.224 394.238 407.445 391.005 406.9C398.381 404.989 415.762 378.377 414.438 379.778C413.379 380.899 405.171 381.689 401.199 381.944C406.948 380.11 419.355 363.343 424.84 355.189C421.511 357.024 413.996 358.671 410.655 359.266C424.272 353.252 433.854 331.534 436.943 321.426C434.825 322.751 427.109 323.932 423.515 324.357C436.225 314.368 442.176 301.593 443.563 296.455C441.444 298.493 435.871 298.238 433.35 297.856C442.882 290.212 451.569 275.39 454.721 268.935C452.3 270.566 445.516 270.209 442.427 269.827C451.505 267.788 458.188 255.897 460.394 250.207C458.427 251.328 455.161 250.674 453.774 250.207Z" fill="#00151A"/>
<path d="M488.691 247.323C482.053 243.628 478.248 223.76 474.64 215.09C474.376 219.877 474.183 225.712 473.724 230.669C473.451 233.619 473.206 236.034 472.869 239.034C472.342 243.732 472.592 248.471 471.919 253.264C471.287 257.757 470.595 262.285 469.847 266.835C469.09 271.438 468.277 276.063 467.413 280.696C466.402 286.116 465.322 291.546 464.182 296.967C462.924 302.947 461.593 308.914 460.202 314.839C458.93 320.257 457.608 325.64 456.244 330.965C454.604 337.372 452.905 343.696 451.163 349.897C450.025 353.95 448.869 357.951 447.699 361.888C446.739 365.12 445.77 368.31 444.795 371.452C443.457 375.761 442.107 379.978 440.752 384.089C438.898 389.712 437.034 395.134 435.178 400.316C433.246 405.71 431.323 410.843 429.427 415.67C427.695 420.077 426.203 423.489 424.532 427.353H549.732L569.878 429.815C561.706 427.368 553.043 419.365 549.732 415.67C555.407 417.199 565.527 416.307 569.878 415.67C551.265 407.412 541.315 397.702 538.666 393.879C545.476 396.784 552.854 395.089 555.691 393.879C541.844 388.068 532.897 377.185 530.154 372.47C536.964 374.611 543.206 374.254 545.476 373.808C531.402 366.621 520.317 348.64 516.534 340.548C525.16 342.689 529.208 342.587 530.154 342.268C519.939 336.305 509.63 322.835 505.752 316.846C510.292 318.681 518.237 317.61 521.642 316.846C514.151 314.093 502.631 303.975 497.807 299.26C502.12 300.942 511.143 301.872 515.115 302.127C506.262 298.916 493.811 279.763 488.691 270.588C491.387 271.811 497.405 271.735 500.077 271.543C495.083 268.485 484.565 254.122 479.931 247.323C483.109 249.508 487.095 248.233 488.691 247.323Z" fill="#00151A"/>
<path d="M668.474 238.945L662.109 269.215V360.023L718.905 367.062L796.265 377.621L790.39 302.3L781.577 245.985H762.481L755.627 262.879L742.407 254.432C738.49 259.36 730.46 269.215 729.677 269.215C728.894 269.215 714.988 278.131 708.134 282.589L695.404 262.879L686.59 245.985L678.756 254.432L668.474 238.945Z" fill="#001E26"/>
<path d="M708.374 317.814L721.42 336.198C722.581 338.456 734.637 355.688 735.295 356.643H721.42L707.031 316.819C707.567 316.98 708.039 317.33 708.374 317.814Z" fill="#00DC82"/>
<path d="M704.327 317.816C704.956 316.909 706.028 316.515 707.031 316.821L722.062 356.569H709.494H677.454L704.327 317.816Z" fill="#33E39B"/>
<path opacity="0.75" d="M677.453 356.569H698.643L715.218 338.653L710.941 326.97L690.851 337.248L677.453 356.569Z" fill="#99F1CD"/>
<path d="M681.99 328.554L687.767 336.947C687.767 336.947 689.189 339.407 690.625 341.495C690.625 342.317 690.625 343.734 690.625 344.486C690.625 345.679 690.625 345.964 690.625 346.118H687.892L681.383 328.104C681.625 328.177 681.839 328.335 681.99 328.554Z" fill="#00DC82"/>
<path d="M680.159 328.554C680.444 328.144 680.929 327.965 681.383 328.104L688.182 346.084H682.497H668.004L680.159 328.554Z" fill="#33E39B"/>
<path opacity="0.75" d="M668.004 346.083H677.589L685.087 337.979L683.152 332.694L674.064 337.344L668.004 346.083Z" fill="#99F1CD"/>
<path d="M668.474 328.945L662.109 349.999V413.16L718.905 418.056L796.265 425.4L790.39 373.011L781.577 333.841H762.481L755.627 345.592L742.407 339.717C738.49 343.144 730.46 349.999 729.677 349.999C728.894 349.999 714.988 356.201 708.134 359.302L695.404 345.592L686.59 333.841L678.756 339.717L668.474 328.945Z" fill="#001216"/>
<path d="M655.262 212.787C655.263 220.313 555.617 577.607 912.113 409.523C1268.61 241.439 672.568 212.787 655.262 212.787Z" fill="url(#paint0_radial)"/>
<path d="M763.208 367.734L765.867 348.327L788.561 361.174L798.577 415.047L784.219 422.614L755.095 420.058L754.112 411.531L763.433 402.726L764.759 381.199L763.208 367.734Z" fill="#001E26"/>
<path d="M-58.6362 299.115C-65.5057 295.254 -69.3582 274.868 -73.092 265.807C-73.3655 270.809 -73.3818 275.786 -73.8563 280.966C-74.1388 284.049 -73.7748 287.303 -74.1235 290.437C-74.6696 295.347 -75.2948 300.315 -75.9917 305.323C-76.6451 310.019 -77.3617 314.751 -78.1355 319.506C-78.9185 324.316 -79.7601 329.15 -80.6541 333.991C-81.6999 339.655 -82.8175 345.331 -83.9972 350.995C-85.2987 357.245 -86.6758 363.481 -88.1152 369.673C-89.4316 375.335 -90.8001 380.96 -92.2108 386.525C-93.9082 393.221 -95.6665 399.83 -97.4685 406.31C-98.6462 410.546 -99.8426 414.727 -101.053 418.841C-102.046 422.22 -103.049 425.553 -104.058 428.836C-105.443 433.339 -106.84 437.747 -108.242 442.042C-110.16 447.919 -112.089 453.586 -114.009 459.001C-116.008 464.638 -117.999 470.002 -119.96 475.046C-121.752 479.653 -123.297 483.218 -125.025 487.256H4.52583L25.3718 489.828C16.916 487.272 7.95123 478.908 4.52583 475.046C10.3979 476.644 20.8699 475.712 25.3718 475.046C6.11131 466.416 -4.18446 456.269 -6.92477 452.273C0.121765 455.31 7.75549 453.539 10.6916 452.273C-3.6364 446.201 -12.8947 434.828 -15.7329 429.9C-8.68639 432.138 -2.22709 431.765 0.121758 431.299C-14.4411 423.788 -25.9113 404.997 -29.826 396.54C-20.9004 398.778 -16.7116 398.671 -15.7329 398.338C-26.3027 392.106 -36.9704 378.029 -40.983 371.77C-36.2853 373.688 -28.0644 372.569 -24.5411 371.77C-32.2923 368.893 -44.2127 358.319 -49.204 353.392C-44.7412 355.15 -35.4045 356.122 -31.294 356.388C-40.4545 353.032 -53.339 333.016 -58.6362 323.428C-55.8471 324.706 -49.62 324.626 -46.8551 324.427C-52.0226 321.23 -62.9056 306.22 -67.7012 299.115C-64.4128 301.398 -60.2877 300.066 -58.6362 299.115Z" fill="#00151A"/>
<path d="M10.8086 373.99C3.93917 370.129 0.086647 349.743 -3.64719 340.682C-3.9207 345.684 -3.93694 350.661 -4.41152 355.841C-4.69396 358.924 -4.32997 362.178 -4.67864 365.312C-5.2248 370.222 -5.84993 375.19 -6.54688 380.198C-7.20033 384.894 -7.91691 389.626 -8.69072 394.381C-9.47367 399.191 -10.3152 404.025 -11.2093 408.866C-12.2551 414.53 -13.3727 420.206 -14.5524 425.87C-15.8539 432.12 -17.231 438.356 -18.6704 444.548C-19.9868 450.21 -21.3553 455.835 -22.766 461.4C-24.4633 468.096 -26.2217 474.705 -28.0236 481.185C-29.2014 485.421 -30.3977 489.602 -31.6078 493.716C-32.6013 497.095 -33.604 500.428 -34.6133 503.711C-35.9979 508.214 -37.3948 512.622 -38.797 516.917C-40.7154 522.794 -42.6438 528.461 -44.5643 533.876C-46.5633 539.513 -48.5538 544.877 -50.5156 549.921C-52.3071 554.528 -53.8517 558.093 -55.5801 562.131H73.9707L94.8167 564.703C86.3608 562.147 77.3961 553.783 73.9707 549.921C79.8428 551.519 90.3147 550.587 94.8167 549.921C75.5561 541.291 65.2604 531.144 62.5201 527.148C69.5666 530.185 77.2003 528.414 80.1364 527.148C65.8084 521.076 56.5501 509.703 53.7119 504.775C60.7584 507.013 67.2177 506.64 69.5666 506.174C55.0037 498.663 43.5336 479.872 39.6188 471.415C48.5444 473.653 52.7332 473.546 53.7119 473.213C43.1421 466.981 32.4744 452.904 28.4618 446.645C33.1595 448.563 41.3805 447.444 44.9037 446.645C37.1525 443.768 25.2321 433.194 20.2408 428.267C24.7037 430.025 34.0403 430.997 38.1508 431.263C28.9903 427.907 16.1058 407.891 10.8086 398.303C13.5977 399.581 19.8248 399.501 22.5897 399.302C17.4222 396.105 6.53921 381.095 1.74365 373.99C5.03204 376.273 9.15712 374.941 10.8086 373.99Z" fill="#00151A"/>
<path d="M34.62 339.982C47.3008 331.674 54.3854 312.199 56.3425 303.5L46.0458 525.115H-43.103L-19.7825 516.001C-27.7669 519.09 -34.7513 516.4 -38.2738 516.001C-32.1947 514.834 -17.9031 506.035 -12.9499 501.665C-14.641 503.029 -26.9858 504.304 -30.331 503.735C-22.6989 501.738 -4.71376 473.927 -6.08364 475.391C-7.17953 476.563 -15.6728 477.389 -19.7825 477.655C-13.8333 475.738 -0.995651 458.216 4.67954 449.694C1.23529 451.612 -6.54071 453.334 -9.99818 453.955C4.09196 447.67 14.0073 424.973 17.2037 414.411C15.0119 415.795 7.02759 417.029 3.30945 417.473C16.4603 407.034 22.6182 393.684 24.0533 388.314C21.8615 390.444 16.0949 390.178 13.4855 389.779C23.3486 381.79 32.3376 366.3 35.5992 359.554C33.0943 361.259 26.075 360.886 22.8785 360.486C32.2719 358.356 39.1865 345.929 41.4697 339.982C39.4344 341.154 36.0552 340.47 34.62 339.982Z" fill="#00151A"/>
<path d="M70.7505 336.969C63.8811 333.108 60.0285 312.722 56.2947 303.662C56.0212 308.664 56.005 313.64 55.5304 318.821C55.2479 321.904 55.6119 325.157 55.2633 328.292C54.7171 333.202 54.092 338.169 53.395 343.178C52.7416 347.874 52.025 352.606 51.2512 357.36C50.4682 362.171 49.6267 367.004 48.7326 371.846C47.6868 377.51 46.5692 383.185 45.3895 388.85C44.088 395.099 42.7109 401.335 41.2715 407.527C39.9551 413.189 38.5866 418.815 37.1759 424.38C35.4786 431.076 33.7202 437.684 31.9182 444.165C30.7405 448.4 29.5441 452.581 28.3341 456.696C27.3406 460.074 26.3378 463.408 25.3286 466.69C23.944 471.194 22.5471 475.601 21.1449 479.897C19.2265 485.773 17.2981 491.44 15.3776 496.856C13.3786 502.492 11.3881 507.856 9.42627 512.901C7.63477 517.507 6.09016 521.072 4.36182 525.11H133.913L154.759 527.683C146.303 525.126 137.338 516.763 133.913 512.901C139.785 514.499 150.257 513.567 154.759 512.901C135.498 504.271 125.202 494.123 122.462 490.128C129.508 493.164 137.142 491.393 140.078 490.128C125.75 484.055 116.492 472.682 113.654 467.755C120.7 469.992 127.16 469.619 129.508 469.153C114.946 461.642 103.475 442.851 99.5607 434.395C108.486 436.632 112.675 436.525 113.654 436.193C103.084 429.96 92.4163 415.884 88.4037 409.624C93.1014 411.542 101.322 410.423 104.846 409.624C97.0944 406.748 85.174 396.174 80.1827 391.246C84.6455 393.004 93.9822 393.976 98.0927 394.243C88.9322 390.887 76.0477 370.871 70.7505 361.282C73.5396 362.561 79.7667 362.481 82.5316 362.281C77.3641 359.085 66.4811 344.075 61.6855 336.969C64.9739 339.253 69.099 337.921 70.7505 336.969Z" fill="#00151A"/>
<path d="M74.1239 317.731C86.8048 309.423 93.8893 289.948 95.8464 281.249L85.5497 502.864H-3.59912L19.7214 493.75C11.737 496.839 4.75258 494.149 1.23013 493.75C7.30922 492.583 21.6008 483.784 26.554 479.414C24.8629 480.778 12.5182 482.053 9.17289 481.484C16.805 479.487 34.7901 451.676 33.4203 453.141C32.3244 454.312 23.8311 455.138 19.7214 455.404C25.6706 453.487 38.5083 435.965 44.1834 427.443C40.7392 429.361 32.9632 431.083 29.5057 431.704C43.5959 425.419 53.5112 402.722 56.7076 392.16C54.5158 393.544 46.5315 394.778 42.8134 395.222C55.9642 384.783 62.1221 371.433 63.5572 366.063C61.3654 368.193 55.5988 367.927 52.9894 367.528C62.8525 359.539 71.8415 344.049 75.1031 337.303C72.5982 339.008 65.5789 338.635 62.3824 338.235C71.7758 336.105 78.6904 323.678 80.9736 317.731C78.9383 318.903 75.5591 318.219 74.1239 317.731Z" fill="#00151A"/>
<path d="M110.254 314.718C103.385 310.857 99.5324 290.471 95.7986 281.411C95.5251 286.413 95.5089 291.389 95.0343 296.57C94.7518 299.653 95.1158 302.906 94.7672 306.041C94.221 310.951 93.5959 315.918 92.8989 320.927C92.2455 325.623 91.5289 330.355 90.7551 335.109C89.9721 339.92 89.1306 344.753 88.2365 349.595C87.1907 355.259 86.0731 360.934 84.8934 366.599C83.5919 372.848 82.2148 379.084 80.7754 385.276C79.459 390.938 78.0905 396.564 76.6798 402.129C74.9825 408.825 73.2241 415.433 71.4222 421.914C70.2444 426.149 69.0481 430.33 67.838 434.445C66.8445 437.823 65.8418 441.157 64.8325 444.439C63.4479 448.943 62.051 453.35 60.6488 457.646C58.7304 463.523 56.802 469.189 54.8815 474.605C52.8825 480.241 50.892 485.605 48.9302 490.65C47.1387 495.256 45.5941 498.821 43.8657 502.859H173.416L194.262 505.432C185.807 502.875 176.842 494.512 173.416 490.65C179.289 492.248 189.761 491.316 194.262 490.65C175.002 482.02 164.706 471.872 161.966 467.877C169.012 470.913 176.646 469.142 179.582 467.877C165.254 461.804 155.996 450.431 153.158 445.504C160.204 447.741 166.664 447.368 169.012 446.902C154.45 439.391 142.979 420.6 139.065 412.144C147.99 414.381 152.179 414.275 153.158 413.942C142.588 407.709 131.92 393.633 127.908 387.373C132.605 389.291 140.826 388.172 144.35 387.373C136.598 384.497 124.678 373.923 119.687 368.995C124.149 370.753 133.486 371.725 137.597 371.992C128.436 368.636 115.552 348.62 110.254 339.031C113.044 340.31 119.271 340.23 122.035 340.03C116.868 336.834 105.985 321.824 101.189 314.718C104.478 317.002 108.603 315.67 110.254 314.718Z" fill="#00151A"/>
<path d="M180.809 357C193.49 348.691 200.575 329.217 202.532 320.518L192.235 542.133H103.086L126.407 533.019C118.423 536.108 111.438 533.418 107.916 533.019C113.995 531.852 128.286 523.052 133.24 518.683C131.548 520.046 119.204 521.322 115.858 520.753C123.491 518.756 141.476 490.944 140.106 492.409C139.01 493.581 130.517 494.406 126.407 494.673C132.356 492.755 145.194 475.233 150.869 466.712C147.425 468.629 139.649 470.351 136.191 470.973C150.281 464.688 160.197 441.991 163.393 431.428C161.201 432.813 153.217 434.047 149.499 434.49C162.65 424.052 168.808 410.702 170.243 405.331C168.051 407.462 162.284 407.196 159.675 406.796C169.538 398.807 178.527 383.318 181.789 376.572C179.284 378.276 172.264 377.903 169.068 377.504C178.461 375.374 185.376 362.947 187.659 357C185.624 358.171 182.245 357.488 180.809 357Z" fill="#00151A"/>
<path d="M216.94 353.987C210.071 350.126 206.218 329.74 202.484 320.679C202.211 325.682 202.194 330.658 201.72 335.838C201.437 338.921 201.801 342.175 201.453 345.309C200.907 350.219 200.281 355.187 199.584 360.195C198.931 364.891 198.214 369.623 197.441 374.378C196.658 379.188 195.816 384.022 194.922 388.864C193.876 394.527 192.759 400.203 191.579 405.867C190.277 412.117 188.9 418.353 187.461 424.545C186.145 430.207 184.776 435.832 183.365 441.397C181.668 448.093 179.91 454.702 178.108 461.182C176.93 465.418 175.734 469.599 174.524 473.713C173.53 477.092 172.527 480.425 171.518 483.708C170.133 488.211 168.737 492.619 167.334 496.914C165.416 502.791 163.488 508.458 161.567 513.873C159.568 519.51 157.578 524.874 155.616 529.918C153.824 534.525 152.28 538.09 150.551 542.128H280.102L300.948 544.701C292.492 542.144 283.527 533.78 280.102 529.918C285.974 531.516 296.446 530.584 300.948 529.918C281.687 521.289 271.392 511.141 268.651 507.146C275.698 510.182 283.332 508.411 286.268 507.146C271.94 501.073 262.681 489.7 259.843 484.772C266.89 487.01 273.349 486.637 275.698 486.171C261.135 478.66 249.665 459.869 245.75 451.412C254.676 453.65 258.865 453.543 259.843 453.21C249.273 446.978 238.606 432.901 234.593 426.642C239.291 428.56 247.512 427.441 251.035 426.642C243.284 423.765 231.363 413.191 226.372 408.264C230.835 410.022 240.172 410.994 244.282 411.26C235.122 407.904 222.237 387.888 216.94 378.3C219.729 379.578 225.956 379.498 228.721 379.299C223.554 376.102 212.671 361.092 207.875 353.987C211.163 356.27 215.288 354.938 216.94 353.987Z" fill="#00151A"/>
<path d="M233.691 391.25C246.372 382.941 253.457 363.467 255.414 354.768L245.117 576.383H155.968L179.289 567.269C171.304 570.358 164.32 567.668 160.798 567.269C166.877 566.102 181.168 557.302 186.121 552.933C184.43 554.296 172.086 555.572 168.74 555.003C176.372 553.006 194.358 525.194 192.988 526.659C191.892 527.831 183.398 528.656 179.289 528.923C185.238 527.005 198.076 509.483 203.751 500.962C200.307 502.879 192.531 504.601 189.073 505.223C203.163 498.938 213.079 476.241 216.275 465.678C214.083 467.063 206.099 468.297 202.381 468.74C215.532 458.302 221.689 444.952 223.125 439.581C220.933 441.712 215.166 441.446 212.557 441.046C222.42 433.057 231.409 417.568 234.671 410.822C232.166 412.526 225.146 412.153 221.95 411.754C231.343 409.624 238.258 397.197 240.541 391.25C238.506 392.421 235.126 391.738 233.691 391.25Z" fill="#00151A"/>
<path d="M269.822 388.237C262.952 384.376 259.1 363.99 255.366 354.929C255.092 359.932 255.076 364.908 254.602 370.088C254.319 373.171 254.683 376.425 254.335 379.559C253.788 384.469 253.163 389.437 252.466 394.445C251.813 399.141 251.096 403.873 250.322 408.628C249.54 413.438 248.698 418.272 247.804 423.114C246.758 428.777 245.64 434.453 244.461 440.117C243.159 446.367 241.782 452.603 240.343 458.795C239.026 464.457 237.658 470.082 236.247 475.647C234.55 482.343 232.791 488.952 230.99 495.432C229.812 499.668 228.615 503.849 227.405 507.963C226.412 511.342 225.409 514.675 224.4 517.958C223.015 522.461 221.618 526.869 220.216 531.164C218.298 537.041 216.369 542.708 214.449 548.123C212.45 553.76 210.459 559.124 208.498 564.168C206.706 568.775 205.161 572.34 203.433 576.378H332.984L353.83 578.951C345.374 576.394 336.409 568.03 332.984 564.168C338.856 565.766 349.328 564.834 353.83 564.168C334.569 555.539 324.274 545.391 321.533 541.396C328.58 544.432 336.214 542.661 339.15 541.396C324.822 535.323 315.563 523.95 312.725 519.022C319.772 521.26 326.231 520.887 328.58 520.421C314.017 512.91 302.547 494.119 298.632 485.662C307.558 487.9 311.746 487.793 312.725 487.46C302.155 481.228 291.488 467.151 287.475 460.892C292.173 462.81 300.394 461.691 303.917 460.892C296.166 458.015 284.245 447.441 279.254 442.514C283.717 444.272 293.054 445.244 297.164 445.51C288.003 442.154 275.119 422.138 269.822 412.55C272.611 413.828 278.838 413.748 281.603 413.549C276.435 410.352 265.552 395.342 260.757 388.237C264.045 390.52 268.17 389.188 269.822 388.237Z" fill="#00151A"/>
<path d="M316.822 320.299C329.503 311.991 336.588 292.516 338.545 283.817L328.248 505.432H239.099L262.42 496.318C254.435 499.407 247.451 496.718 243.928 496.318C250.007 495.152 264.299 486.352 269.252 481.982C267.561 483.346 255.216 484.622 251.871 484.053C259.503 482.056 277.488 454.244 276.119 455.709C275.023 456.881 266.529 457.706 262.42 457.972C268.369 456.055 281.206 438.533 286.882 430.012C283.437 431.929 275.661 433.651 272.204 434.272C286.294 427.988 296.209 405.291 299.406 394.728C297.214 396.113 289.23 397.346 285.512 397.79C298.662 387.352 304.82 374.002 306.255 368.631C304.064 370.762 298.297 370.495 295.688 370.096C305.551 362.107 314.54 346.618 317.801 339.872C315.296 341.576 308.277 341.203 305.081 340.804C314.474 338.673 321.389 326.247 323.672 320.299C321.637 321.471 318.257 320.788 316.822 320.299Z" fill="#00151A"/>
<path d="M352.953 317.286C346.083 313.426 342.231 293.04 338.497 283.979C338.223 288.981 338.207 293.958 337.733 299.138C337.45 302.221 337.814 305.475 337.465 308.609C336.919 313.519 336.294 318.487 335.597 323.495C334.944 328.191 334.227 332.923 333.453 337.678C332.67 342.488 331.829 347.321 330.935 352.163C329.889 357.827 328.771 363.503 327.592 369.167C326.29 375.417 324.913 381.653 323.474 387.845C322.157 393.507 320.789 399.132 319.378 404.697C317.681 411.393 315.922 418.002 314.12 424.482C312.943 428.718 311.746 432.899 310.536 437.013C309.543 440.391 308.54 443.725 307.531 447.008C306.146 451.511 304.749 455.919 303.347 460.214C301.429 466.091 299.5 471.758 297.58 477.173C295.581 482.81 293.59 488.174 291.628 493.218C289.837 497.825 288.292 501.39 286.564 505.428H416.115L436.961 508C428.505 505.443 419.54 497.08 416.115 493.218C421.987 494.816 432.459 493.884 436.961 493.218C417.7 484.588 407.404 474.441 404.664 470.445C411.711 473.482 419.344 471.71 422.28 470.445C407.952 464.373 398.694 453 395.856 448.072C402.902 450.309 409.362 449.937 411.711 449.47C397.148 441.959 385.678 423.169 381.763 414.712C390.688 416.949 394.877 416.843 395.856 416.51C385.286 410.277 374.618 396.201 370.606 389.942C375.304 391.859 383.525 390.741 387.048 389.942C379.297 387.065 367.376 376.491 362.385 371.564C366.848 373.322 376.184 374.294 380.295 374.56C371.134 371.204 358.25 351.188 352.953 341.6C355.742 342.878 361.969 342.798 364.734 342.598C359.566 339.402 348.683 324.392 343.888 317.286C347.176 319.57 351.301 318.238 352.953 317.286Z" fill="#00151A"/>
<path d="M667.454 414.251L636.868 418.62L632.498 392.04V371.285V349.073L636.868 315.21L674.736 265.433L691.486 254.873L725.349 258.878L741.432 268.243L722.072 273.443L711.512 279.633L695.855 287.28L682.383 297.732L670.367 319.943L664.177 342.155L667.454 414.251Z" fill="#001E26"/>
<path d="M665.076 244.206L661.95 212.974L701.472 207.572L706.842 238.497L665.076 244.206Z" fill="#003543"/>
<rect width="12.7793" height="4.8191" transform="matrix(0.988687 -0.149996 0.13951 0.990221 666.783 220.389)" fill="#1B7064"/>
<rect width="12.7793" height="4.8191" transform="matrix(0.988687 -0.149996 0.13951 0.990221 688.344 226.866)" fill="#28AAF0"/>
<rect width="7.66757" height="4.8191" transform="matrix(0.988687 -0.149996 0.13951 0.990221 668.127 229.933)" fill="#00DC82"/>
<path d="M689.24 216.637L699.446 215.128L700.119 219.9L689.913 221.409L689.24 216.637Z" fill="#00BB6F"/>
<rect width="7.66756" height="4.8191" transform="matrix(0.988687 -0.149996 0.13951 0.990221 678.234 228.4)" fill="#1B7064"/>
<rect width="4.25974" height="4.8191" transform="matrix(0.988687 -0.149996 0.13951 0.990221 681.943 218.089)" fill="#00DC82"/>
<path d="M502.735 624.933L513.721 672.414V676.544H797.574L792.372 672.414L762.41 644.875L736.442 613.537L703.484 580.3V542.316L688.82 472.945L550.78 430.146L502.735 428.63L358.309 442.162L554.085 458.564L538.29 469.662L561.661 504.331L502.735 624.933Z" fill="url(#paint1_linear)"/>
<path d="M752.573 456.53L725.905 438.946L720.791 424.736L752.696 447.386L752.573 456.53Z" fill="#B4B48C"/>
<path d="M637.756 453.069L731.326 432.688L1206.04 532.383V677.803H882.586H740.908L713.107 650.537L675.573 596.814L671.347 555.255L696.637 507.642L689.097 473.175L637.756 453.069Z" fill="#003543"/>
<path d="M644.836 472.81L635.101 463.227L641.054 472.541L644.409 477.79L647.156 482.087L652.313 484.508L656.28 490.715L665.435 490.916L668.578 491.597L678.77 494.834L672.102 489.345L663.756 488.29L648.651 478.778L644.836 472.81Z" fill="white"/>
<path opacity="0.3" d="M568.314 511.067L527.608 470.442L621.772 456.639L662.23 448.548L694.399 443.951L740.456 433.691L788.671 444.239L758.5 461.317L568.314 511.067Z" fill="#003543"/>
<path d="M762.101 450.161L733.551 436.507L764.567 420.032L806.101 421.597H907.293V484.918H848.993L803.065 458.851L762.101 450.161Z" fill="#255461"/>
<path d="M645.88 392.591V417.009L603.678 422.176L563.702 425.269L508.037 426.922L522.242 417.009L540.378 359.718L557.036 283.547L565.701 250.673L587.792 232.305L621.484 206.009L653.472 186.857L707.498 176.426H777.029L863.899 167.387L911.274 160.845V449.519L854.347 435.086L764.492 417.566L767.753 397.402V359.718L765.443 320.382L759.183 286.761L749.278 273.176L726.06 259.693L714.349 257.683L700.403 259.693L677.952 274.125L659.511 296.376L645.88 329.249V359.718V392.591Z" fill="#003543"/>
<path d="M591.746 574.361L597.236 542.105V568.878V583.969V596.323L591.746 607.99V625.834L578.02 638.187L573.902 643.677L561.549 663.58L566.353 643.677L578.02 630.638L591.746 591.519V574.361Z" fill="white"/>
<path d="M620.307 515.206C619.174 514.217 619.835 509.355 620.307 507.048L622.574 510.509L627.108 515.206L624.274 530.779L620.307 526.824C620.78 523.363 621.441 516.194 620.307 515.206Z" fill="white"/>
<path d="M626.021 419.837L628.305 386.31H645.879L646.025 417.762L626.021 419.837Z" fill="#255461"/>
<path d="M764.701 421.703L767.027 394.333H790.935L796.265 425.4L764.701 421.703Z" fill="#255461"/>
<path d="M674.143 279.044L659.803 267.435L675.203 255.073L685.389 248.451L700.768 240.844L715.486 237.536L726.566 238.528L740.73 243.986L752.472 248.451L763.386 256.554L770.001 266.972L777.997 286.321L785.073 318.536L788.004 354.246L792.268 401.949L766.752 398.484V351.973L764.436 318.536L758.69 286.321L749.222 273.256L741.78 268.791L726.566 260.027L715.486 258.517L701.595 260.027L699.114 261.35L678.112 274.414L674.143 279.044Z" fill="#497A87"/>
<path d="M631.615 326.277L628.322 386.31H645.869L646.597 358.702V329.57L659.288 296.683L674.142 279.038L659.751 267.331L650.566 277.402L642.499 291.087L635.303 310.008L631.615 326.277Z" fill="#497A87"/>
<path d="M624.969 343.037L618.726 340.478L616.874 338.407L619.065 335.412L624.887 336.085L627.352 335.314L633.649 334.373L637.352 333.711L641.416 332.178L642.317 335.136L651.373 339.183L650.175 340.609L646.216 341.646L642.383 340.702L636.777 339.865L625.287 340.001L624.969 343.037Z" fill="#003543"/>
<path d="M646.857 358.559L637.794 356.306L636.854 354.851L637.271 337.963L646.968 340.997L645.821 356.703L646.857 358.559Z" fill="#71A2B0"/>
<path d="M624.272 353.489L623.831 338.923L637.377 337.908L637.083 351.374L637.125 354.848L638.99 356.508L622.607 357.06L624.272 353.489Z" fill="#497A87"/>
<path d="M624.743 365.964L617.525 365.498L619.109 362.588L621.196 363.026L627.543 362.026L632.284 361.969L638.185 362.362L649.636 363.331L646.794 365.15L643.425 365.343L641.625 367.504C639.887 367.255 636.858 366.694 635.1 366.669C633.342 366.643 629.855 366.337 627.99 366.668L624.743 365.964Z" fill="#003543"/>
<path d="M626.265 353.425L626.121 341.276L634.561 340.711L634.71 353.325L626.265 353.425Z" fill="#001E26"/>
<path d="M626.18 353.426L627.115 342.632L634.583 342.543L634.711 353.325L626.18 353.426Z" fill="url(#paint2_radial)"/>
<path d="M617.626 335.516L617.177 338.022L620.084 336.445L623.702 336.402L625.773 336.111L633.741 335.006L638.788 334.414L642.043 335.226L651.347 339.159L650.841 336.878L650.82 335.122L648.273 331.215L645.327 329.548L641.96 328.204L636.523 327.418L628.704 327.511L625.685 328.717L623.635 330.763L622.116 332.803L619.306 333.634L617.626 335.516Z" fill="#255461"/>
<path d="M617.896 365.526L617.831 360.055L619.736 358.36L621.604 357.832L622.645 357.035L638.776 356.459L646.943 358.493L650.382 360.47L649.707 363.366L648.882 363.791L647.946 363.386L644.095 362.917L636.274 362.22L627.57 362.101L621.183 363.016L619.259 362.823L617.896 365.526Z" fill="#255461"/>
<path d="M765.956 342.259L759.615 339.658L757.716 337.513L759.889 334.353L765.778 334.986L768.257 334.148L774.605 333.087L778.336 332.348L782.42 330.695L783.37 333.779L792.573 337.903L791.382 339.409L787.397 340.542L783.513 339.601L777.84 338.794L766.235 339.078L765.956 342.259Z" fill="#003543"/>
<path d="M765.393 353.205L764.751 337.968L778.419 336.74L778.305 350.834L778.394 354.468L780.301 356.183L763.761 356.96L765.393 353.205Z" fill="#497A87"/>
<path d="M766.039 366.251L758.742 365.852L760.303 362.788L762.416 363.221L768.814 362.096L773.601 361.979L779.567 362.317L791.147 363.191L788.301 365.129L784.901 365.372L783.111 367.656C781.353 367.416 778.285 366.866 776.509 366.861C774.734 366.856 771.208 366.579 769.328 366.948L766.039 366.251Z" fill="#003543"/>
<path d="M767.407 353.112L767.096 340.402L775.613 339.708L775.936 352.904L767.407 353.112Z" fill="#001E26"/>
<path d="M767.32 353.114L768.118 341.809L775.659 341.624L775.935 352.904L767.32 353.114Z" fill="url(#paint3_radial)"/>
<path d="M758.437 334.48L758.017 337.107L760.932 335.421L764.586 335.332L766.674 335.002L774.707 333.748L779.797 333.067L783.096 333.877L792.547 337.878L792.005 335.497L791.96 333.66L789.334 329.604L786.336 327.895L782.916 326.531L777.414 325.774L769.517 325.967L766.485 327.267L764.441 329.433L762.935 331.586L760.108 332.49L758.437 334.48Z" fill="#255461"/>
<path d="M759.116 365.876L758.976 360.153L760.877 358.357L762.757 357.78L763.798 356.934L780.083 356.133L788.361 358.162L791.861 360.188L791.218 363.226L790.391 363.681L789.44 363.27L785.544 362.825L777.635 362.192L768.841 362.174L762.402 363.21L760.457 363.031L759.116 365.876Z" fill="#255461"/>
<path d="M624.419 184.331L612.838 203.797L686.01 182.567L687.067 178.889L675.647 180.93L674.484 176.826L664.489 179.659L658.812 173.388L651.934 189.339L645.334 180.866L646.216 163.87L640.327 169.55L635.331 167.799L629.929 191.072L626.173 190.519L624.419 184.331Z" fill="#001E26"/>
<path d="M875.081 142.856L921.75 154.078L712.348 173.423L706.491 170.713L738.103 166.565L737.701 162.319L766.25 159.617L775.845 151.093L807.249 161.652L817.414 150.694L800.828 136.08L821.017 138.045L832.625 133.887L866.317 151.709L875.687 149.258L875.081 142.856Z" fill="#001E26"/>
<path d="M550.486 261.726V245.503L618.746 200.787V211.728L550.486 261.726Z" fill="#497A87"/>
<path d="M618.709 211.742V200.84L650.246 183.737L692.316 173.246L690.052 184.941L654.861 192.596L618.709 211.742Z" fill="#497A87"/>
<path d="M689.922 184.897L692.311 173.249L731.691 170.904L794.344 166.101L791.629 177.796L743.386 181.764L689.922 184.897Z" fill="#497A87"/>
<path d="M769.858 373.24L767.922 366.377H784.112V374.824L781.296 372.008L779.361 377.288L777.425 373.24L773.377 388.727V379.224L769.858 368.313V373.24Z" fill="#558887"/>
<path d="M852.766 282.958C875.387 268.284 888.025 233.885 891.516 218.521L873.148 609.957H714.117L755.718 593.859C741.475 599.315 729.016 594.564 722.732 593.859C733.576 591.798 759.071 576.255 767.907 568.537C764.89 570.946 742.868 573.199 736.901 572.194C750.516 568.666 782.599 519.543 780.155 522.13C778.2 524.2 763.049 525.658 755.718 526.128C766.331 522.742 789.232 491.793 799.355 476.742C793.211 480.128 779.34 483.17 773.172 484.267C798.307 473.167 815.995 433.078 821.697 414.421C817.787 416.866 803.544 419.046 796.911 419.83C820.371 401.392 831.356 377.812 833.916 368.326C830.006 372.089 819.719 371.619 815.064 370.913C832.659 356.803 848.694 329.444 854.512 317.529C850.044 320.539 837.522 319.88 831.82 319.175C848.577 315.412 860.912 293.463 864.985 282.958C861.354 285.028 855.326 283.821 852.766 282.958Z" fill="#001E26"/>
<path d="M701.001 240.845L695.08 243.608L694.68 247.187L696.958 245.266V248.751L698.969 246.83L700.532 257.418L703.168 252.504L706.251 258.624L705.313 253.71L706.564 250.136L708.261 246.517L711.299 253.978L711.88 248.751L714.248 251.923L716.527 258.356L718.269 245.668L721.575 254.916L722.826 249.332L725.909 252.995L728.2 247.643L726.6 238.513L715.484 237.493L708.261 239.003L701.001 240.845Z" fill="#558887"/>
<path d="M616.527 413.101L620.889 420.772L647.061 417.764L650.821 416.26L651.874 411.296H649.618L647.061 414.906L645.557 409.491L644.805 404.979L641.345 407.085L639.39 398.962L635.63 404.979L631.418 401.971L627.207 407.085L624.95 413.853L620.889 409.491L620.137 413.853L616.527 413.101Z" fill="#001E26"/>
<path d="M574.135 465.559L479.064 427.577L602.578 421.92L643.683 417.281L675.597 412.639L764.927 420.152L738.265 435.849L574.135 465.559Z" fill="#001E26"/>
<path d="M-43.103 675.882H513.15L541.309 636.461L566.249 590.602L575.099 512.563L580.73 489.232L575.393 456.776L566.249 458.66L546.94 477.164L521.195 494.059L487.405 512.563H413.776L314.187 548.035L-10.1175 590.602H-34.2533L-43.103 622.784V675.882Z" fill="#003543"/>
<path d="M-484.159 510.913C-483.309 515.559 -692.108 781.696 180.151 515.069C1052.41 248.442 -440.897 503.008 -484.159 510.913Z" fill="url(#paint4_linear)"/>
<path d="M-19.8412 643.143V667.63L-546.749 674.279V533.229L-464.294 518.536H-349.661L-154.585 482.294L-94.252 473.478L6.3031 482.294L143.058 457.806L233.557 441.154L350.201 426.461H472.878L519.133 435.277L563.377 441.154L575.444 457.806L563.377 473.478L529.188 500.905L490.978 513.638L472.878 518.536L408.523 533.229H380.367L350.201 541.065L324.057 553.799L291.879 567.512H261.712L233.557 572.409L105.62 594.862L98.8135 602.003L66.636 607.88L40.4917 602.003H6.3031L-19.8412 618.655V643.143Z" fill="#255461"/>
<path d="M688.775 472.87L640.221 453.017L737.655 435.628L764.448 420.152L735.259 446.084L690.007 479.031L688.775 472.87Z" fill="#012934"/>
<path d="M481.458 434.296C479.917 431.215 479.511 419.498 474.044 411.005C471.808 413.333 458.578 414.775 450.712 414.775C444.501 425.122 462.554 432.346 462.554 432.346C462.554 432.346 465.881 439.358 472.891 451.041C471.648 454.403 473.525 481.506 473.732 482.584C477.881 483.544 478.237 482.256 478.815 481.854C479.392 481.453 484.067 451.918 483.794 451.041C483.523 450.171 483.794 438.969 481.458 434.296Z" fill="#5A7D7D"/>
<path d="M463.527 429.526C462.76 426.167 466.827 421.787 463.527 412.241C460.804 413.973 455.73 407.346 448.087 405.482C439.602 414.064 448.087 418.928 448.087 418.928C448.087 418.928 446.72 435.2 450.763 448.211C448.76 451.184 446.324 480.612 446.27 481.708C450.073 483.624 450.724 482.457 451.38 482.204C452.037 481.951 458.884 455.851 460.67 453.825C461.273 453.142 464.69 434.62 463.527 429.526Z" fill="#5A7D7D"/>
<path d="M450.231 446.361L458.627 452.426L450.055 450.218C450.209 449.507 450.454 448.47 450.76 448.215C450.489 447.417 450.231 446.361 450.231 446.361Z" fill="#547171"/>
<path d="M471.916 449.407L480.754 451.052L472.569 452.88C472.619 452.258 472.695 451.459 472.887 451.052C472.595 450.557 471.916 449.407 471.916 449.407Z" fill="#547171"/>
<path d="M463.692 434.674C464.211 435.199 462.46 445.332 462.183 446.745C462.183 442.644 460.293 433.235 458.61 428.761C458.421 428.353 458.222 427.89 458.004 427.356C458.2 427.737 458.404 428.212 458.61 428.761C460.013 431.794 460.802 431.756 463.692 434.674Z" fill="#4F6B6B"/>
<path d="M470.348 353.724C472.282 351.357 475.001 352.534 476.119 353.419C477.987 353.818 480.172 354.404 481.462 355.308C482.752 356.212 481.899 359.203 482.376 361.155C482.853 363.108 482.972 363.903 481.77 363.769C481.255 363.711 481.579 367.498 481.06 367.979C480.501 368.498 479.854 368.847 479.087 368.912C477.615 369.038 475.893 369.653 475.695 371.117L475.666 371.333L466.641 371.333C467.205 365.254 468.415 356.091 470.348 353.724Z" fill="#E6BEAA"/>
<path d="M480.248 368.565C479.445 369.021 478.041 369.169 478.041 369.169C478.18 368.055 477.969 366.578 477.863 365.851C478.18 366.484 479.584 367.981 480.248 368.565Z" fill="#D3B09E"/>
<path d="M462.066 404.957L475.342 385.935L518.282 382.762L503.875 410.703L462.066 404.957Z" fill="#EDEDD5"/>
<path d="M444.739 422.662C447.883 426.08 463.526 427.774 479.393 424.647C481.766 404.903 481.766 403.498 481.766 392.613C481.766 388.553 485.135 388.351 488.031 387.171C495.414 384.163 492.926 377.843 492.926 377.843C492.05 370.43 476.823 358.315 476.823 358.315C476.823 358.315 472.306 361.122 474.438 362.41C478.54 365.515 480.033 371.125 482.372 374.146L481.296 374.684C481.296 374.684 481.154 373.169 476.478 371.15C476.118 370.994 475.775 370.796 475.452 370.573C471.69 367.98 467.997 368.296 466.002 368.987C465.447 369.179 465.01 369.585 464.65 370.048C463.816 371.118 462.706 372.125 459.735 371.793C451.636 372.229 440.808 418.39 444.739 422.662Z" fill="#001E26"/>
<path d="M485.626 378.079L479.065 375.842C479.194 376.149 479.715 376.906 479.962 377.121C479.489 377.354 478.38 377.555 478.123 377.736L485.626 378.079Z" fill="#002E3A"/>
<path d="M468.852 407.448C471.581 408.217 479.943 408.392 481.073 408.042C481.803 407.816 480.556 414.54 480.556 414.54C473.187 415.083 467.408 411.694 467.408 411.694L468.852 407.448Z" fill="#003543"/>
<path d="M469.17 376.524C471.544 375.083 478.191 375.229 478.944 375.946C479.503 376.478 480.003 377.072 480.003 377.072C472.634 377.615 471.509 383.627 471.509 383.627L469.17 376.524Z" fill="#003543"/>
<path d="M446.967 392.071L444.154 392.783C443.947 392.836 443.776 392.984 443.67 393.2C440.833 399.104 440.384 403.352 440.819 405.797C441.262 408.286 443.225 410.557 445.214 410.417C446.559 410.321 448.7 401.805 446.967 392.071Z" fill="#5A7D7D"/>
<path d="M469.57 377.186C467.269 375.138 465.803 374.549 464.356 374.65C458.914 375.032 456.593 374.479 454.514 373.905C451.043 372.944 449.014 373.755 448.916 376.226C448.734 380.87 447.233 389.431 446.264 392.394C443.127 396.488 441.786 401.233 442.134 404.309C442.481 407.385 444.12 410.356 445.35 411.042C447.308 412.134 459.317 415.505 463.098 414.981C466.88 414.456 469.572 411.685 470.46 406.351C471.347 401.017 471.724 385.905 471.626 381.984C471.57 379.752 471.017 378.476 469.57 377.186Z" fill="#003543"/>
<path d="M473.208 397.213C471.244 395.626 466.775 394.251 464.976 394.233C464.756 394.228 464.574 394.381 464.507 394.628C463.445 398.607 460.48 401.252 460.293 406.393C460.105 411.684 463.078 415.146 466.102 414.934C469.125 414.722 471.842 413.128 472.756 408.982C473.64 404.975 473.806 401.594 473.522 397.858C473.506 397.608 473.387 397.364 473.208 397.213V397.213Z" fill="#5A7D7D"/>
<path d="M447.347 387.897L446.995 389.583C449.714 390.399 459.807 392.94 461.539 393.462C463.27 393.983 464.544 393.189 464.721 390.562C464.897 387.935 447.347 387.897 447.347 387.897Z" fill="#012934"/>
<ellipse rx="2.53081" ry="2.93911" transform="matrix(1.03517 -0.0511311 0.118952 0.950219 465.858 375.157)" stroke="#003543" stroke-width="1.10088"/>
<path d="M469.885 377.478C469.024 375.824 468.099 374.724 466.426 374.102C463.277 372.927 454.837 372.403 452.857 372.299C450.877 372.196 448.312 372.952 448.153 375.201C447.92 378.476 447.249 384.05 446.489 386.461C446.026 387.938 446.568 388.789 447.859 389.15C449.151 389.512 460.559 392.064 462.199 392.42C463.839 392.776 465.248 391.936 465.515 390.767C465.887 389.144 465.522 380.266 465.28 378.397C465.11 377.087 466.074 376.145 467.365 376.267C468.244 376.32 469.133 376.748 469.885 377.478Z" fill="#5A7D7D"/>
<path d="M456.335 388.271C456.343 388.156 456.31 388.034 456.245 387.935C456.18 387.835 456.089 387.768 455.993 387.749L453.586 387.275C453.405 387.24 453.258 387.383 453.249 387.603C453.223 388.402 453.123 390.237 452.835 391.275C452.785 391.456 452.718 391.654 452.642 391.861C452.286 391.751 451.934 391.657 451.61 391.597C451.473 391.568 451.349 391.643 451.296 391.788L450.997 392.602C450.953 392.722 450.964 392.872 451.027 393.002C451.091 393.133 451.198 393.225 451.312 393.248C451.487 393.283 451.708 393.334 451.959 393.396C451.781 393.757 451.609 394.085 451.476 394.334C451.418 394.442 451.413 394.588 451.462 394.724C451.511 394.86 451.608 394.968 451.72 395.011L454.023 395.897C454.16 395.95 454.295 395.898 454.365 395.766C454.507 395.499 454.76 395.006 455.024 394.434C455.282 394.545 455.545 394.661 455.815 394.79C455.963 394.862 456.116 394.808 456.188 394.659L456.545 393.918C456.596 393.812 456.599 393.673 456.552 393.543C456.506 393.414 456.415 393.309 456.309 393.262C456.126 393.178 455.888 393.077 455.619 392.963C455.702 392.725 455.774 392.48 455.836 392.228C456.12 391.036 456.275 389.133 456.335 388.271Z" fill="#5A7D7D"/>
<ellipse rx="2.41312" ry="3.18516" transform="matrix(0.780622 0.625003 -0.625658 0.780097 460.153 385.578)" fill="#003C3C"/>
<ellipse rx="2.4131" ry="3.18515" transform="matrix(0.780625 0.625 -0.625661 0.780095 460.165 385.062)" fill="#00D180"/>
<path fill-rule="evenodd" clip-rule="evenodd" d="M461.401 386.335L460.018 386.255L460.393 385.82L461.301 385.872L461.053 384.498L460.681 384.931L459.986 385.739C459.731 386.052 459.368 386.23 459.051 386.2L458.183 386.15C458.089 386.15 458.02 386.092 458.004 385.999C457.987 385.906 458.026 385.795 458.104 385.711L459.996 383.508C460.068 383.418 460.17 383.365 460.261 383.37C460.353 383.375 460.418 383.438 460.43 383.532L460.597 384.471L460.987 384.018C461.06 383.933 461.16 383.885 461.249 383.89C461.339 383.895 461.404 383.954 461.42 384.044L461.756 385.921C461.773 386.011 461.738 386.12 461.664 386.205C461.591 386.29 461.491 386.34 461.401 386.335ZM458.573 385.697L459.175 385.733L459.174 385.734C459.358 385.758 459.572 385.652 459.718 385.466L460.214 384.888L460.049 383.979L458.573 385.697Z" fill="#003C3C"/>
<path d="M472.308 485.142C476.707 483.984 486.296 482.422 486.296 483.244L486.386 483.602L486.425 483.821C486.425 484.07 486.386 484.172 486.386 484.172C486.386 484.172 486.365 484.25 486.296 484.407C486.242 484.531 486.172 484.651 486.06 484.728C485.997 484.771 485.936 484.812 485.913 484.821C484.367 485.589 482.978 486.148 481.584 486.54C476.644 487.932 473.081 487.715 472.832 487.715C472.67 487.715 472.416 487.568 472.369 487.412C472.34 487.311 472.333 487.277 472.305 487.138C472.285 487.038 472.29 486.777 472.29 486.777C472.29 486.69 472.308 486.485 472.335 486.413C472.369 486.271 472.402 486.19 472.445 486.139C472.43 486.033 472.415 485.929 472.402 485.831C472.39 485.745 472.379 485.662 472.369 485.587C472.341 485.373 472.32 485.209 472.308 485.142Z" fill="#00DC82"/>
<path d="M472.654 486.715C471.851 485.913 472.251 480.778 472.92 478.136L480.569 478.653C480.006 480.626 479.777 480.894 480.146 481.108C480.723 481.442 481.428 481.502 482.095 481.477C485.826 481.338 486.332 482.254 486.332 483.502C486.332 485.82 473.657 487.718 472.654 486.715Z" fill="#000606"/>
<path d="M445.542 484.32C449.424 483.298 457.888 481.919 457.888 482.645L457.967 482.96L458.002 483.154C458.002 483.374 457.967 483.464 457.967 483.464C457.967 483.464 457.949 483.533 457.888 483.671C457.841 483.781 457.778 483.886 457.679 483.954C457.624 483.992 457.571 484.029 457.55 484.037C456.185 484.715 454.96 485.207 453.729 485.554C449.369 486.783 446.224 486.591 446.004 486.591C445.861 486.591 445.637 486.461 445.596 486.323C445.57 486.234 445.564 486.204 445.539 486.081C445.521 485.993 445.526 485.763 445.526 485.763C445.526 485.686 445.542 485.505 445.566 485.442C445.596 485.316 445.625 485.245 445.663 485.2C445.65 485.106 445.637 485.015 445.625 484.928C445.615 484.852 445.605 484.779 445.596 484.712C445.571 484.524 445.553 484.379 445.542 484.32Z" fill="#00DC82"/>
<path d="M445.849 485.708C445.141 485 445.494 480.467 446.084 478.135L452.835 478.592C452.398 480.124 452.189 480.491 452.367 480.686C452.816 481.179 453.634 481.101 454.3 481.08C457.486 480.981 457.922 481.783 457.922 482.871C457.922 484.918 446.734 486.593 445.849 485.708Z" fill="#000606"/>
<path d="M475.846 363.461C475.846 364.275 475.439 366.6 474.946 367.155C474.012 367.936 472.739 367.936 471.655 367.936C471.655 367.936 467.313 367.907 466.926 367.155C466.926 367.155 466.736 367.088 466.49 366.328C464.66 362.129 466.49 358.659 466.49 358.659C466.716 357.946 467.735 355.449 467.735 355.449C468.055 354.59 469.081 353.395 469.618 352.734C470.247 351.959 471.535 352.003 472.806 351.481C479.764 348.618 482.888 350.836 483.581 352.303C483.827 351.826 483.149 350.46 482.779 349.836C486.439 351.502 484.876 357.506 482.409 356.725C479.941 355.944 479.098 357.218 478.707 357.506C478.22 357.865 477.953 358.808 477.634 359.322C477.46 359.603 477.295 359.967 477.112 360.405C477.174 359.573 476.43 358.704 475.846 359.009C474.482 359.721 475.846 362.443 475.846 363.461Z" fill="#002021"/>
<path d="M472.201 360.808C472.595 361.667 474.213 360.917 474.436 361.045L477.46 359.024C477.231 358.821 474.628 356.399 471.538 355.794C467.676 355.038 469.604 358.888 470.311 359.717C471.018 360.546 471.212 359.184 472.415 359.668C473.617 360.152 471.808 359.949 472.201 360.808Z" fill="#E6BEAA"/>
<path d="M490.281 339.158L490.21 336.263H491.018C491.614 336.263 492.158 336.21 492.65 336.105C493.141 335.999 493.533 335.795 493.826 335.49C494.118 335.186 494.264 334.742 494.264 334.157C494.264 333.595 494.095 333.156 493.755 332.84C493.416 332.513 492.966 332.349 492.404 332.349C491.819 332.349 491.363 332.513 491.035 332.84C490.708 333.156 490.544 333.589 490.544 334.139H488.42C488.409 333.437 488.561 332.811 488.877 332.261C489.192 331.711 489.649 331.278 490.245 330.963C490.854 330.647 491.579 330.489 492.422 330.489C493.206 330.489 493.896 330.635 494.493 330.927C495.101 331.22 495.575 331.641 495.914 332.191C496.265 332.729 496.441 333.39 496.441 334.174C496.441 334.982 496.259 335.648 495.897 336.175C495.546 336.701 495.06 337.093 494.44 337.351C493.832 337.608 493.124 337.743 492.316 337.754L492.264 339.158H490.281ZM491.281 343.107C490.871 343.107 490.532 342.979 490.263 342.721C490.006 342.464 489.877 342.154 489.877 341.791C489.877 341.417 490.006 341.101 490.263 340.843C490.532 340.586 490.871 340.457 491.281 340.457C491.69 340.457 492.024 340.586 492.281 340.843C492.539 341.101 492.667 341.417 492.667 341.791C492.667 342.154 492.539 342.464 492.281 342.721C492.024 342.979 491.69 343.107 491.281 343.107Z" fill="#95CDDE"/>
<path d="M474.237 326.665L474.136 322.477H475.303C476.166 322.477 476.952 322.401 477.663 322.249C478.374 322.097 478.94 321.801 479.363 321.361C479.786 320.921 479.998 320.278 479.998 319.432C479.998 318.62 479.752 317.986 479.262 317.529C478.771 317.055 478.12 316.818 477.308 316.818C476.462 316.818 475.802 317.055 475.328 317.529C474.855 317.986 474.618 318.612 474.618 319.407H471.547C471.53 318.392 471.75 317.487 472.207 316.692C472.664 315.896 473.324 315.27 474.186 314.814C475.066 314.357 476.115 314.128 477.333 314.128C478.467 314.128 479.465 314.34 480.328 314.763C481.207 315.186 481.892 315.795 482.383 316.59C482.891 317.368 483.144 318.324 483.144 319.458C483.144 320.625 482.882 321.589 482.358 322.351C481.85 323.112 481.148 323.679 480.251 324.051C479.372 324.423 478.348 324.618 477.181 324.634L477.105 326.665H474.237ZM475.684 332.374C475.091 332.374 474.601 332.188 474.212 331.816C473.84 331.444 473.653 330.996 473.653 330.471C473.653 329.93 473.84 329.473 474.212 329.101C474.601 328.729 475.091 328.543 475.684 328.543C476.276 328.543 476.758 328.729 477.13 329.101C477.502 329.473 477.688 329.93 477.688 330.471C477.688 330.996 477.502 331.444 477.13 331.816C476.758 332.188 476.276 332.374 475.684 332.374Z" fill="#95CDDE"/>
<path d="M562.504 262.26L550.477 261.702L565.823 250.499L562.504 262.26Z" fill="#001E26"/>
<path d="M564.973 253.329L565.777 250.431L576.847 242.028L596.081 227.817L608.796 218.842L617.771 211.897L637.218 201.532L655.062 192.45L689.895 184.543L721.416 182.62L751.12 180.696L779.542 178.239L798.625 176.666L824.099 173.324L859.253 168.408L908.831 161.784V163.814L898.039 165.31L886.286 166.913L869.55 168.903L846.172 172.236L814.678 176.666L802.002 177.938L789.586 179.307L765.224 181.658L725.049 184.543L690.857 187L655.062 195.014L638.5 203.028L620.122 212.858L612.749 218.842L596.828 229.954L582.083 240.532L564.973 253.329Z" fill="#001E26"/>
<path d="M599.215 212.625C600.906 219.954 575.49 249.268 562.571 263.01L561.555 266.217C562.205 266.109 580.192 247.796 591.028 233.602C599.697 222.246 601.747 213.97 601.689 211.252L599.215 212.625Z" fill="#558887"/>
<path d="M591.583 245.548C590.127 247.003 584.393 244.942 581.707 243.729L587.078 238.718C589.186 240.388 593.038 244.093 591.583 245.548Z" fill="#558887"/>
<path d="M568.208 245.31C569.664 243.855 575.398 245.917 578.084 247.129L572.713 252.141C570.605 250.47 566.753 246.766 568.208 245.31Z" fill="#558887"/>
<path d="M591.756 219.386C592.515 217.957 597.738 215.386 600.254 214.278L597.351 219.411C595.17 219.998 590.997 220.815 591.756 219.386Z" fill="#558887"/>
<path d="M488.223 390.639C490.097 389.903 492.877 388.48 494.365 390.595C495.131 391.683 498.33 390.639 499.517 390.639" stroke="black" stroke-linecap="round" stroke-linejoin="round"/>
<path d="M503.281 389.252C504.872 389.38 506.444 389.451 508.037 389.451" stroke="black" stroke-linecap="round" stroke-linejoin="round"/>
<path d="M504.273 396.386C501.656 396.386 499.328 395.958 496.787 395.439C495.974 395.273 495.305 395.651 494.541 395.582C491.819 395.334 489.181 394.999 486.439 394.999" stroke="black" stroke-linecap="round" stroke-linejoin="round"/>
<path d="M486.043 401.141C486.791 401.294 487.349 401.762 488.068 401.89C489.107 402.074 490.149 401.688 491.195 401.747C492.453 401.816 493.802 402.065 494.96 402.528" stroke="black" stroke-linecap="round" stroke-linejoin="round"/>
<path d="M499.121 402.33C499.916 402.457 500.709 402.595 501.499 402.726" stroke="black" stroke-linecap="round" stroke-linejoin="round"/>
<path d="M667.215 249.913V237.329V225.793L675.787 219.08L690.123 210.295L719.225 202.43H738.102L745.181 205.052L743.608 216.85V233.892L726.255 227.949H715.027L697.464 232.319L678.396 239.579L667.215 249.913Z" fill="#001E26"/>
<path d="M542.727 347.882L545.431 337.063L549.166 338.608L553.674 343.631L558.954 346.078L564.235 354.192L570.932 374.542L558.954 354.192L553.674 350.973L549.166 346.078L542.727 347.882Z" fill="#001E26"/>
<path d="M630.111 300.762L637.84 303.002L641.984 292.698L636.272 296.842H630.111L624.063 299.082L622.047 300.762H630.111Z" fill="#001E26"/>
<path d="M713.818 510.401L720.917 478.136L725.219 483.513L720.917 502.012L713.818 510.401Z" fill="#001E26"/>
<path d="M727.8 526.534L734.038 510.401H740.491L748.02 491.042C751.963 490.683 759.592 490.182 758.56 491.042C757.527 491.902 747.805 506.314 743.072 513.413L737.049 534.708L720.917 540.301L718.12 534.708L727.8 526.534Z" fill="#001E26"/>
</g>
<defs>
<radialGradient id="paint0_radial" cx="0" cy="0" r="1" gradientUnits="userSpaceOnUse" gradientTransform="translate(827.848 336.029) rotate(-180) scale(188.172 196.107)">
<stop stop-color="#00DC82" stop-opacity="0.76"/>
<stop offset="1" stop-color="#00DC82" stop-opacity="0"/>
</radialGradient>
<linearGradient id="paint1_linear" x1="650.154" y1="426.461" x2="650.154" y2="676.544" gradientUnits="userSpaceOnUse">
<stop stop-color="#E5F9FF"/>
<stop offset="1" stop-color="#95CDDE"/>
</linearGradient>
<radialGradient id="paint2_radial" cx="0" cy="0" r="1" gradientUnits="userSpaceOnUse" gradientTransform="translate(636.823 355.471) rotate(-99.7061) scale(12.5291 8.67803)">
<stop stop-color="#00DC82"/>
<stop offset="1" stop-color="#00DC82" stop-opacity="0"/>
</radialGradient>
<radialGradient id="paint3_radial" cx="0" cy="0" r="1" gradientUnits="userSpaceOnUse" gradientTransform="translate(778.606 356.862) rotate(-89.6656) scale(18.935 12.6645)">
<stop stop-color="#00DC82"/>
<stop offset="1" stop-color="#00DC82" stop-opacity="0"/>
</radialGradient>
<linearGradient id="paint4_linear" x1="-41.9729" y1="576.319" x2="-52.7141" y2="464.88" gradientUnits="userSpaceOnUse">
<stop stop-color="#00DC82" stop-opacity="0.76"/>
<stop offset="1" stop-color="#00DC82" stop-opacity="0"/>
</linearGradient>
<clipPath id="clip0">
<rect width="768" height="567" fill="white"/>
</clipPath>
</defs>
</svg>
