<svg width="112" height="32" viewBox="0 0 112 32" fill="none" xmlns="http://www.w3.org/2000/svg">
<path d="M24.0562 0.688252C22.2566 0.271748 19.2985 0 15.9544 0C12.6103 0 9.65222 0.271748 7.85267 0.688252C4.2647 1.44332 1.4392 4.27689 0.686291 7.87511C0.270974 9.6798 0 12.6463 0 16C0 19.3537 0.270974 22.3202 0.686291 24.1249C1.4392 27.7231 4.2647 30.5567 7.85267 31.3117C9.65222 31.7283 12.6103 32 15.9544 32C19.2985 32 22.2566 31.7283 24.0562 31.3117C27.6441 30.5567 30.4696 27.7231 31.2225 24.1249C31.6379 22.3202 31.9088 19.3537 31.9088 16C31.9088 12.6463 31.6379 9.6798 31.2225 7.87511C30.4696 4.27689 27.6441 1.44332 24.0562 0.688252V0.688252Z" fill="#747474"/>
<path d="M19.7882 24.564C19.4854 23.8413 18.8428 23.2971 18.0608 23.1325C17.593 23.0242 16.8239 22.9536 15.9544 22.9536C15.0849 22.9536 14.3158 23.0242 13.8479 23.1325C13.0716 23.2959 12.4326 23.8335 12.1271 24.5486C12.0212 24.7965 11.7674 24.9478 11.4989 24.9231C11.4325 24.917 11.3751 24.9115 11.3268 24.9067C10.0756 24.7818 9.09222 24.6075 8.52085 24.4041C8.51993 24.4036 8.51879 24.4031 8.51745 24.4026C8.13404 24.2581 7.86121 23.887 7.86121 23.452C7.86121 23.4412 7.86137 23.4304 7.86171 23.4197C7.86259 23.4021 7.86361 23.3843 7.86478 23.366C7.86512 23.3619 7.86549 23.3579 7.86588 23.3538C7.86697 23.3424 7.86765 23.3314 7.86792 23.3208C7.96532 22.0149 8.75614 18.9575 9.93733 15.4679C11.2877 11.4786 12.6998 8.24891 13.3366 7.61897C13.4383 7.51283 13.5555 7.42394 13.6852 7.35539C13.7358 7.32641 13.7999 7.29869 13.876 7.27255C13.878 7.27186 13.88 7.27118 13.882 7.2705C14.3004 7.12861 15.0715 7.03358 15.9536 7.03358C16.8373 7.03358 17.6084 7.12861 18.026 7.27025C18.0288 7.27118 18.0308 7.27186 18.0328 7.27255C18.1089 7.29869 18.173 7.32641 18.2236 7.35539C18.3532 7.42394 18.4705 7.51283 18.5712 7.61783C18.5716 7.61817 18.5719 7.61855 18.5722 7.61897C19.209 8.24891 20.6211 11.4786 21.9715 15.4679C23.1526 18.9575 23.9435 22.0149 24.0409 23.3208C24.0411 23.3314 24.0418 23.3424 24.0429 23.3538C24.0433 23.3579 24.0437 23.3619 24.044 23.366C24.0452 23.3843 24.0462 23.4021 24.0471 23.4197C24.0474 23.4304 24.0476 23.4412 24.0476 23.452C24.0476 23.887 23.7748 24.2581 23.3913 24.4026C23.39 24.4031 23.3889 24.4036 23.3879 24.4041C22.8171 24.6073 21.8349 24.7815 20.5853 24.9064C20.531 24.9118 20.4655 24.918 20.3886 24.9251L20.3886 24.925C20.1311 24.9486 19.8881 24.8025 19.7882 24.564V24.564Z" fill="white"/>
<path fill-rule="evenodd" clip-rule="evenodd" d="M50.9667 10.6607H54.0159V24.0047H50.9667V21.66C50.0138 23.3231 48.3803 24.2774 46.2567 24.2774C42.7175 24.2774 39.886 21.1693 39.886 17.3251C39.886 13.4808 42.7175 10.4 46.2567 10.4C48.3803 10.4 50.0138 11.3542 50.9667 13.0173V10.6607ZM96.6179 10.6607H99.6671V24.0047H96.6179V21.66C95.665 23.3231 94.0315 24.2774 91.908 24.2774C88.3687 24.2774 85.5373 21.1693 85.5373 17.3251C85.5373 13.4808 88.3687 10.4 91.908 10.4C94.0315 10.4 95.665 11.3542 96.6179 13.0173V10.6607ZM46.9782 21.3774C49.2924 21.3774 51.0348 19.6325 51.0348 17.3151C51.0348 15.0249 49.2924 13.28 46.9782 13.28C44.7186 13.28 42.9217 15.0794 42.9217 17.3151C42.9217 19.578 44.7186 21.3774 46.9782 21.3774V21.3774ZM92.4697 21.3774C94.7839 21.3774 96.5263 19.6325 96.5263 17.3151C96.5263 15.0249 94.7839 13.28 92.4697 13.28C90.2101 13.28 88.4132 15.0794 88.4132 17.3151C88.4132 19.578 90.2101 21.3774 92.4697 21.3774ZM58.5813 4C59.643 4 60.5415 4.89971 60.5415 5.93574C60.5415 7.0263 59.643 7.89875 58.5813 7.89875C57.5195 7.89875 56.6483 7.0263 56.6483 5.93574C56.6483 4.89971 57.5195 4 58.5813 4V4ZM57.0839 10.624H60.1059V23.968H57.0839V10.624ZM69.5985 10.3633C70.1807 10.3633 70.7412 10.4498 71.1454 10.6037C71.3832 10.6943 71.5931 10.7943 71.756 10.8788L70.5262 13.457C70.1387 13.3393 69.7189 13.2805 69.299 13.2805C67.8289 13.2805 66.1954 14.5074 66.1954 16.8521V23.968H63.1734V10.624H66.1954V12.5444C66.7943 11.263 68.2917 10.3633 69.5985 10.3633V10.3633ZM84.7759 20.5873C83.7686 22.7956 81.4272 24.2406 78.6502 24.2406C74.7026 24.2406 71.6806 21.2689 71.6806 17.3156C71.6806 13.3623 74.6754 10.3633 78.623 10.3633C81.2094 10.3633 83.3874 11.6447 84.3675 13.6077L81.8084 15.0527C81.2639 13.9894 80.066 13.2805 78.623 13.2805C76.3361 13.2805 74.6754 15.0254 74.6754 17.3156C74.6754 19.5785 76.3633 21.3234 78.6502 21.3234C80.2021 21.3234 81.4817 20.5873 82.0806 19.3604L84.7759 20.5873ZM105.757 4V23.968H102.735V4H105.757ZM111.846 4V23.968H108.824V4H111.846Z" fill="#B7B7B7"/>
</svg>
