<svg width="117" height="32" viewBox="0 0 117 32" fill="none" xmlns="http://www.w3.org/2000/svg">
<path d="M20.7934 11.8238C18.2961 9.39641 14.3267 9.39641 11.8557 11.8238C9.38465 14.2773 9.41094 18.2708 11.882 20.7243C14.353 23.1778 18.375 23.2039 20.846 20.7504C20.8881 20.7086 21.0617 20.5191 21.367 20.1818L18.3871 17.2197C18.0808 17.5727 17.919 17.7578 17.9018 17.7749C17.0606 18.6101 15.6937 18.6101 14.8525 17.7749C14.0113 16.9396 14.0113 15.5824 14.8262 14.7732C15.6411 13.9641 17.008 13.9641 17.8492 14.7993C17.8492 14.7993 20.5053 17.4346 25.8174 22.7052C23.6355 25.8373 19.9785 27.8238 16.0354 27.8238C9.51609 27.8238 4.20601 22.5253 4.20601 16C4.20601 9.47471 9.51609 4.17618 16.0354 4.17618C19.8471 4.17618 23.3433 6.00326 25.5252 8.95269C25.1737 9.35801 24.2756 10.3748 22.8309 12.0031L25.771 14.9139L30.6513 9.44861C28.1277 3.75856 22.4233 0 16.0354 0C7.1765 0 0 7.17781 0 16C0 24.8222 7.1765 32 16.0354 32C20.0574 32 23.3959 30.7471 26.6556 27.9804C29.6261 25.4747 31.0223 22.0005 31.0223 22.0005L20.7934 11.8238Z" fill="url(#paint0_linear)"/>
<path d="M86.6208 18.1632V25.8314H83.4595V17.9957C83.1385 16.195 81.5361 14.8263 79.6076 14.8263C77.6496 14.8263 76.0277 16.2373 75.7419 18.0787V25.8314H72.5806V11.9155L75.0052 13.4386C76.2392 12.3921 77.848 11.7591 79.6076 11.7591C83.3245 11.7591 86.3685 14.5837 86.6285 18.1632H86.6208ZM53.4393 10.1488C52.3891 10.6904 51.4512 11.4154 50.669 12.2807C49.5009 10.6802 47.5986 9.63858 45.4503 9.63858C41.898 9.63858 39.0183 12.4867 39.0183 16C39.0183 19.5134 41.898 22.3615 45.4503 22.3615C46.6034 22.3615 47.6856 22.0614 48.6214 21.5359C48.9727 22.6643 49.5279 23.7045 50.2447 24.6143C48.823 25.39 47.1888 25.8314 45.4503 25.8314C39.9604 25.8314 35.5099 21.4297 35.5099 16C35.5099 10.5703 39.9604 6.1687 45.4503 6.1687C48.724 6.1687 51.6281 7.73385 53.4393 10.1488ZM58.1425 25.8314C54.2633 25.8314 51.1186 22.7243 51.1186 18.8916C51.1186 15.0589 54.2633 11.9518 58.1425 11.9518C62.0217 11.9518 65.1665 15.0589 65.1665 18.8916C65.1665 22.7243 62.0217 25.8314 58.1425 25.8314ZM58.1425 22.747C60.2977 22.747 62.0447 21.0209 62.0447 18.8916C62.0447 16.7623 60.2977 15.0362 58.1425 15.0362C55.9874 15.0362 54.2404 16.7623 54.2404 18.8916C54.2404 21.0209 55.9874 22.747 58.1425 22.747ZM67.1176 11.9518H70.2393V25.8314H67.1176V11.9518ZM101.067 9.49406H92.1362V14.5393H100.807V17.6719H92.1362V22.6988H101.067V25.8314H88.7747V6.36147H101.067V9.49406ZM107.631 18.8621L102.824 11.9518H106.799C106.917 12.1453 107.087 12.4108 107.313 12.7493C107.576 13.146 107.85 13.5573 108.132 13.983C108.415 14.4088 108.688 14.8201 108.952 15.2169C109.214 15.6106 109.401 15.9029 109.511 16.0923L109.671 16.366L112.527 11.9518H116.309L111.587 18.7461L116.48 25.8314H112.554L109.54 21.2948L109.378 21.5338C109.245 21.7289 109.046 22.0299 108.781 22.4375C108.518 22.8434 108.236 23.2735 107.934 23.7277C107.632 24.1831 107.349 24.6142 107.085 25.0212C106.86 25.3675 106.69 25.6372 106.573 25.8314H102.823L107.631 18.8621Z" fill="#B7B7B7"/>
<path d="M66.5322 8.26747C66.5322 7.69815 66.7422 7.20603 67.1622 6.7911C67.5821 6.37616 68.0851 6.1687 68.6711 6.1687C69.2669 6.1687 69.7747 6.37616 70.1947 6.7911C70.6146 7.19638 70.8246 7.69332 70.8246 8.28195C70.8246 8.87057 70.6146 9.37234 70.1947 9.78727C69.7845 10.2022 69.2815 10.4097 68.6858 10.4097C68.09 10.4097 67.5821 10.2022 67.1622 9.78727C66.7422 9.37234 66.5322 8.86574 66.5322 8.26747Z" fill="url(#paint1_linear)"/>
<defs>
<linearGradient id="paint0_linear" x1="31.0223" y1="16" x2="0" y2="16" gradientUnits="userSpaceOnUse">
<stop stop-color="#B9B9B9"/>
<stop offset="1" stop-color="#999999"/>
</linearGradient>
<linearGradient id="paint1_linear" x1="70.8246" y1="8.28918" x2="66.5322" y2="8.28918" gradientUnits="userSpaceOnUse">
<stop stop-color="#B9B9B9"/>
<stop offset="1" stop-color="#999999"/>
</linearGradient>
</defs>
</svg>
