<svg width="59" height="42" viewBox="0 0 59 42" fill="none" xmlns="http://www.w3.org/2000/svg">
<path fill-rule="evenodd" clip-rule="evenodd" d="M40.4517 30.9744C39.0322 30.0266 38.3226 30.5165 38.3226 30.5165C38.4061 31.3065 38.7997 32.0312 39.417 32.5313C40.1213 33.0907 41.0048 33.3754 41.9032 33.3325C41.8596 32.8541 41.7059 32.3923 41.454 31.9832C41.2022 31.5741 40.8592 31.2288 40.4517 30.9744V30.9744ZM19.2024 36.469C18.6051 37.4099 18.4029 38.5484 18.6394 39.6375C18.6394 39.6375 19.793 39.9622 21.2445 38.0667C21.6653 37.5474 21.9613 36.9384 22.1098 36.2867C22.2582 35.635 22.2551 34.9579 22.1006 34.3076C20.8985 34.6461 19.8665 35.4218 19.2071 36.4824L19.2024 36.469V36.469ZM14.7341 32.1469C14.117 32.647 13.7234 33.3715 13.6398 34.1614C13.6398 34.1614 14.3493 34.6189 15.7684 33.7031C16.1735 33.4506 16.5151 33.1083 16.7668 32.7027C17.0185 32.2971 17.1735 31.839 17.2199 31.3639C16.3219 31.3069 15.4355 31.5914 14.7385 32.1604L14.7337 32.1465L14.7341 32.1469ZM27.8742 35.9333C27.4846 36.2886 27.1691 36.7175 26.946 37.1952C26.7228 37.673 26.5964 38.1901 26.574 38.717C26.523 39.914 26.9256 41.0862 27.7 42C28.1762 41.5776 28.5481 41.0506 28.7865 40.4604C29.0249 39.8702 29.1233 39.2327 29.074 38.598C28.9733 36.3039 27.8742 35.9471 27.8742 35.9471V35.9333V35.9333ZM35.5982 35.9056C35.4234 36.6763 35.5618 37.4849 35.983 38.1536C36.4686 38.9093 37.2177 39.4576 38.0848 39.692C38.1922 39.2298 38.1918 38.7491 38.0838 38.287C37.9758 37.825 37.763 37.3939 37.4618 37.0272C36.3998 35.6812 35.5982 35.9195 35.5982 35.9195V35.9056V35.9056ZM40.4517 9.71638C40.8614 9.46488 41.2073 9.12191 41.4623 8.71436C41.7173 8.3068 41.8744 7.84573 41.9213 7.36728C41.0211 7.31036 40.1328 7.59665 39.4352 8.16849C38.8179 8.66865 38.4243 9.39329 38.3408 10.1834C38.3408 10.1834 39.0322 10.6732 40.4517 9.72981V9.71598V9.71638ZM15.5349 11.5795C15.4886 11.1044 15.3336 10.6462 15.0819 10.2405C14.8302 9.83486 14.4886 9.49249 14.0834 9.23992C12.6643 8.29215 11.9544 8.78203 11.9544 8.78203C12.0379 9.57209 12.4315 10.2967 13.0488 10.7969C13.7455 11.3699 14.6349 11.6548 15.5349 11.5934V11.5795ZM20.2418 6.45151C20.3492 5.98933 20.349 5.50864 20.241 5.04658C20.133 4.58452 19.9203 4.15348 19.6192 3.78676C18.5841 2.41349 17.7556 2.6608 17.7556 2.6608C17.5808 3.4315 17.7192 4.24007 18.1404 4.90876C18.6201 5.67069 19.3712 6.2221 20.2418 6.45151ZM36.2667 4.79419C36.6869 4.2864 36.9831 3.68772 37.1317 3.0456C37.2804 2.40347 37.2775 1.73554 37.1232 1.09474C35.928 1.42357 34.8961 2.18162 34.225 3.22378C33.9299 3.68386 33.7308 4.19876 33.6395 4.73763C33.5482 5.2765 33.5666 5.82826 33.6936 6.35985C33.6936 6.35985 34.829 6.68065 36.2805 4.7851L36.2667 4.79419V4.79419ZM27.5949 3.13686C27.6378 2.5514 27.5454 1.9639 27.3247 1.41991C27.104 0.875929 26.7611 0.39007 26.3223 0C25.6164 0.84328 25.2476 1.91809 25.2873 3.01716C25.3113 3.50066 25.4309 3.9746 25.6392 4.41158C25.8475 4.84856 26.1404 5.2399 26.5009 5.563C26.5009 5.563 27.5218 5.22877 27.6087 3.12699L27.5949 3.13647V3.13686Z" fill="#949494"/>
<path fill-rule="evenodd" clip-rule="evenodd" d="M3.25539 31.2995L0 17.715L5.82848 16.3413L6.3322 18.4107L2.54505 19.3269L3.43356 23.0263L6.18049 22.3765L6.68421 24.4458L3.93728 25.0961L4.8254 28.7956L8.61176 27.8798L9.11547 29.9492L3.25539 31.2995ZM13.3147 29.3171C12.8837 29.3983 12.4407 29.3903 12.013 29.2935C11.5853 29.1966 11.182 29.0131 10.8281 28.7541C10.4675 28.5027 10.1605 28.1823 9.92472 27.8113C9.68898 27.4403 9.52926 27.0262 9.45484 26.593L8.18192 19.0748C8.1007 18.644 8.10875 18.201 8.20559 17.7734C8.30242 17.3457 8.48598 16.9425 8.7449 16.5887C8.99451 16.2264 9.31448 15.9181 9.68575 15.6821C10.057 15.4461 10.472 15.2873 10.9059 15.215C11.3361 15.1385 11.7771 15.1485 12.2033 15.2446C12.6295 15.3407 13.0322 15.5209 13.3879 15.7747C13.7435 16.0284 14.045 16.3505 14.2745 16.7223C14.5041 17.094 14.6571 17.5078 14.7247 17.9394L14.9902 19.5098L12.8291 19.867L12.5637 18.2416C12.5397 18.0805 12.4826 17.9261 12.3959 17.7882C12.3092 17.6502 12.1948 17.5318 12.0599 17.4404C11.9317 17.3411 11.7832 17.2712 11.625 17.2356C11.4667 17.1999 11.3026 17.1995 11.1442 17.2342C10.9864 17.2552 10.8354 17.3114 10.7022 17.3985C10.5691 17.4857 10.4573 17.6017 10.375 17.7379C10.282 17.8695 10.216 18.0181 10.1806 18.1753C10.1453 18.3324 10.1414 18.495 10.1691 18.6537L11.5013 26.2312C11.5205 26.384 11.571 26.5313 11.6498 26.6636C11.7286 26.796 11.834 26.9106 11.9592 27.0004C12.0862 27.0918 12.2301 27.1571 12.3826 27.1924C12.5351 27.2277 12.693 27.2324 12.8473 27.2062C13.1629 27.1614 13.4496 26.9978 13.6485 26.7487C13.7464 26.6251 13.8157 26.4812 13.8514 26.3276C13.8871 26.174 13.8882 26.0143 13.8547 25.8602L13.5343 23.9599L15.6954 23.6031L16.0205 25.526C16.1017 25.9569 16.0936 26.3998 15.9967 26.8275C15.8998 27.2551 15.7161 27.6583 15.4572 28.0121C14.9362 28.7053 14.1692 29.1723 13.3143 29.3171H13.3147ZM46.6374 25.8558C46.5542 26.7454 46.1547 27.5755 45.5114 28.1955C45.0788 28.6065 44.5306 28.875 43.9406 28.9647C43.547 29.0293 43.1448 29.0199 42.7546 28.937C42.0296 28.8542 41.3529 28.532 40.8318 28.0212C40.4215 27.5994 40.1267 27.0792 39.9757 26.5105C39.79 25.8559 39.7401 25.1702 39.8291 24.4956L41.844 24.6422C41.7681 25.2783 41.9032 25.9218 42.2284 26.4737C42.3142 26.6161 42.4306 26.7377 42.5692 26.8296C42.7077 26.9215 42.865 26.9814 43.0296 27.0051C43.2539 27.0318 43.4814 26.9994 43.6894 26.911C43.8974 26.8226 44.0786 26.6814 44.2152 26.5014C44.4252 26.2504 44.5502 25.9394 44.5723 25.6129C44.6363 24.957 44.4463 24.3016 44.0413 23.7817C43.6842 23.3234 43.1532 22.6554 42.4709 21.7392C41.9785 21.13 41.5789 20.4513 41.2849 19.7251C41.0759 19.0752 41.0149 18.3868 41.1064 17.7103C41.1574 17.1608 41.3401 16.6318 41.639 16.1679C41.9378 15.7041 42.3441 15.3191 42.8233 15.0455C43.4456 14.7325 44.1521 14.6281 44.8382 14.748C45.512 14.8368 46.1469 15.1146 46.6694 15.5492C47.0528 15.8801 47.3393 16.3088 47.4982 16.7898C47.6882 17.3204 47.7585 17.8865 47.704 18.4475L45.6623 18.5067C45.7094 18.0291 45.6052 17.5487 45.3644 17.1335C45.2802 17.003 45.1669 16.8938 45.0335 16.8144C44.9 16.735 44.7501 16.6875 44.5952 16.6756C44.4169 16.6381 44.2314 16.6548 44.0626 16.7233C43.8938 16.7919 43.7492 16.9092 43.6475 17.0604C43.4271 17.341 43.2935 17.6799 43.263 18.0354C43.1981 18.7571 43.3858 19.4789 43.794 20.0775C44.0406 20.4379 44.3082 20.7835 44.5952 21.1126C44.8955 21.4279 45.172 21.7645 45.4241 22.1197C45.816 22.6348 46.1352 23.2022 46.3719 23.8046C46.4635 24.0338 46.5327 24.2712 46.5777 24.5142C46.6528 24.9571 46.6725 25.4078 46.6374 25.8558V25.8558ZM49.1239 29.9717L47.0538 29.5596L49.8655 15.8882L51.9349 16.3003L49.1239 29.9717ZM53.5329 27.6917L52.2323 30.6816L50.1033 30.1503L55.8725 17.248L58.6839 17.9576L57.4888 32.0415L55.3593 31.4781L55.6849 28.2733L53.5329 27.6917V27.6917ZM56.4904 20.65L54.3614 25.7685L55.8725 26.1533L56.4904 20.65V20.65Z" fill="#B7B7B7"/>
<path fill-rule="evenodd" clip-rule="evenodd" d="M17.0678 20.5133C17.0678 26.5658 21.9746 31.4722 28.0275 31.4722C34.08 31.4722 38.9867 26.5654 38.9867 20.5133C38.9867 14.4608 34.08 9.55402 28.0275 9.55402C21.975 9.55402 17.0682 14.4608 17.0682 20.5133H17.0678ZM19.0645 24.2273C18.3271 22.4589 18.1311 20.5115 18.5014 18.6316C18.8716 16.7517 19.7914 15.024 21.1443 13.6672C22.4972 12.3105 24.2223 11.3858 26.1011 11.0102C27.9799 10.6346 29.928 10.8251 31.6985 11.5574C33.4691 12.2893 34.9828 13.5301 36.0479 15.1227C37.1129 16.7154 37.6814 18.5882 37.6814 20.5042C37.6837 21.7739 37.4357 23.0316 36.9516 24.2054C36.4675 25.3792 35.7569 26.4461 34.8603 27.3452C33.9637 28.2442 32.8988 28.9578 31.7263 29.4451C30.5538 29.9323 29.2968 30.1838 28.0271 30.185H27.9994C26.0883 30.1848 24.22 29.619 22.6299 28.5588C21.0398 27.4986 19.7991 25.9915 19.0641 24.2273H19.0645Z" fill="#939393"/>
<path fill-rule="evenodd" clip-rule="evenodd" d="M19.9954 20.5137C19.9954 24.9503 23.5921 28.5474 28.0288 28.5474C32.4662 28.5474 36.063 24.9503 36.063 20.5137C36.063 16.077 32.4662 12.4803 28.0288 12.4803C23.5921 12.4803 19.9954 16.077 19.9954 20.5137V20.5137Z" fill="#949494"/>
<path fill-rule="evenodd" clip-rule="evenodd" d="M21.2382 16.2125C21.3456 16.192 21.4503 16.1868 21.5285 16.158C21.6913 16.0671 21.843 15.9585 21.9809 15.8333C22.0978 15.7807 22.1919 15.8151 22.278 15.8495C22.387 15.8925 22.4846 15.936 22.602 15.806C22.8117 15.5721 22.515 15.0961 22.515 14.7986C22.5202 14.7369 22.5376 14.6765 22.5636 14.6196C22.0554 15.0916 21.6099 15.6269 21.2382 16.2125V16.2125ZM20.0703 19.3818C20.0485 19.5389 20.0314 19.6966 20.019 19.8547C19.9999 20.0794 19.9901 20.3048 19.9897 20.5303C19.9909 21.8514 20.3191 23.1516 20.945 24.315C21.0292 24.2337 21.1165 24.1744 21.2002 24.0859C21.3192 23.8805 21.4649 23.6742 21.5835 23.4637C21.8313 23.3129 22.068 23.1445 22.2918 22.9599C22.3507 22.7814 22.438 22.5755 22.4973 22.397C22.5557 22.2192 22.9077 21.9849 22.8528 21.6558C22.7205 21.1892 22.1271 21.1292 21.8023 20.804C21.6566 20.5982 21.506 20.3462 21.3464 20.1541C21.0095 19.7644 20.5698 19.4773 20.0775 19.3257C20.0747 19.3443 20.0731 19.3632 20.0707 19.3818H20.0703ZM28.803 14.7808C28.4147 14.8861 28.0656 15.1023 27.7983 15.403C27.5929 15.7282 27.8576 15.934 27.4744 16.1126C27.2611 16.0124 27.0629 15.883 26.8853 15.7282C26.719 15.74 26.5673 15.8269 26.474 15.966C26.4472 16.3227 26.7119 16.3777 26.7119 16.7348C26.5657 16.941 26.209 16.973 26.1224 17.1931C26.0355 17.4124 26.1224 17.7553 25.9447 17.9615C25.6824 18.2018 25.4267 18.449 25.1778 18.7031C24.975 19.0057 24.8768 19.3663 24.8982 19.73C24.9195 20.0936 25.0592 20.4403 25.2959 20.7171C25.4966 20.9186 25.7542 20.9119 26.0268 20.9044C26.2366 20.8989 26.4555 20.8933 26.6657 20.9826C27.0224 21.1296 27.0769 21.8111 27.1678 22.1362C27.346 22.6668 27.0224 22.9054 27.0224 23.4083C27.0224 23.9125 27.2002 25.3628 27.9082 25.3312C28.707 25.3035 28.8812 24.5027 29.3237 23.9579C29.52 23.8104 29.6899 23.6308 29.8262 23.4265C29.8262 23.1618 29.8539 22.8639 29.8539 22.5988C30.0317 22.141 30.5931 21.9758 30.885 21.6238C31.1778 21.271 30.9127 21.0332 31.0636 20.7673C31.0709 20.7673 31.0778 20.7644 31.083 20.7593C31.0882 20.7542 31.0911 20.7473 31.0912 20.74C31.3283 20.5939 31.5475 20.4742 31.83 20.3284C31.9422 20.1846 32.0611 20.0471 32.1868 19.9159L32.4519 19.8294C33.3645 20.2869 33.0405 21.2477 33.6896 21.7518C33.7485 21.7242 33.7758 21.6926 33.835 21.6649C33.8844 21.5326 33.9132 21.3931 33.9223 21.2524C33.9879 21.0525 34.1205 20.8813 34.2977 20.7678C34.4749 20.6543 34.6859 20.6056 34.895 20.6298C35.1788 20.9116 35.3914 21.2569 35.5152 21.6372C35.5749 21.9944 35.3375 22.2002 35.3375 22.493C35.3651 22.7458 35.4599 22.9856 35.6061 23.1922C35.6069 23.1922 35.6069 23.1922 35.6069 23.1915C35.9111 22.3313 36.0663 21.4256 36.0656 20.5133V20.5101C36.0656 20.3782 36.0624 20.247 36.0557 20.117L36.0518 20.0554C35.9446 18.1398 35.1533 16.3262 33.822 14.9447C33.6432 14.94 33.4644 14.9492 33.287 14.9724C32.4574 15.1111 31.6202 15.1996 30.7803 15.2379C30.0846 15.2379 29.6832 14.7448 29.0839 14.7448C28.995 14.7448 28.9022 14.7555 28.803 14.7808V14.7808ZM28.963 18.4968C28.7576 18.4696 28.5063 18.4696 28.3143 18.4376C28.2874 18.4376 27.2508 17.6091 27.2231 17.5494C27.2407 17.5025 27.2682 17.4599 27.3036 17.4245C27.339 17.3891 27.3816 17.3616 27.4285 17.344C27.6971 17.4578 27.9467 17.6121 28.1685 17.8015L28.5794 17.8884C28.7256 18.0069 28.8761 18.0942 29.0361 18.2136C29.2168 18.2783 29.4056 18.3182 29.5971 18.3321C29.5971 18.3597 29.6247 18.3921 29.6247 18.419V18.566C29.5535 18.5841 29.4846 18.6102 29.4193 18.6438C29.2559 18.6417 29.0969 18.5905 28.963 18.4968V18.4968Z" fill="#CCCCCC"/>
<path fill-rule="evenodd" clip-rule="evenodd" d="M30.3652 23.72C30.2213 23.801 30.0999 23.9167 30.0123 24.0567C29.9246 24.1967 29.8735 24.3564 29.8635 24.5212C29.9069 24.6105 29.9792 24.6828 30.0681 24.7271C30.3929 24.6078 30.7488 24.0772 30.5248 23.752C30.4762 23.7251 30.4204 23.714 30.3652 23.7204V23.72ZM23.7987 13.6777C23.8639 13.7449 23.9133 13.8263 23.9449 13.9148C23.8146 14.1056 23.7518 14.3345 23.7663 14.5651C23.7877 14.6899 23.8627 14.7993 23.9718 14.8625C24.2857 14.8314 24.5885 14.7297 24.8575 14.5651C25.1542 14.5058 25.479 14.4781 25.7709 14.4189C26.0633 14.3588 26.7341 13.8192 26.4971 13.4075C26.3509 13.3478 26.0834 13.2554 26.0404 13.2605C25.6083 13.3179 25.1691 13.2887 24.7485 13.1744C24.4194 13.3218 24.1022 13.4893 23.7987 13.6777V13.6777Z" fill="#CCCCCC"/>
</svg>
