<svg width="105" height="32" viewBox="0 0 105 32" fill="none" xmlns="http://www.w3.org/2000/svg">
<path d="M73.543 7.63409H71.3028L71.3131 24.3541H80.387V22.2859H73.5533L73.543 7.63409V7.63409Z" fill="#B7B7B7"/>
<path d="M89.0221 21.4206C88.6631 21.7941 88.232 22.0906 87.755 22.2922C87.2781 22.4939 86.7652 22.5964 86.2475 22.5936C84.5417 22.5936 83.8532 21.7499 83.8532 20.6489C83.8532 18.9924 85.0041 18.2001 87.4498 18.2001C87.9797 18.2022 88.5086 18.2434 89.0324 18.3236V21.4206H89.0221ZM86.6997 11.2857C84.9581 11.2803 83.2702 11.8886 81.9315 13.004L82.7228 14.3828C83.6374 13.8478 84.7575 13.3127 86.3708 13.3127C88.2103 13.3127 89.0221 14.2593 89.0221 15.8439V16.6567C88.5088 16.5761 87.99 16.5348 87.4704 16.5332C83.5449 16.5332 81.5513 17.912 81.5513 20.793C81.5513 23.3756 83.1338 24.672 85.5282 24.672C87.1416 24.672 88.6933 23.9312 89.2276 22.7274L89.6387 24.3633H91.2212V15.8027C91.211 13.0966 90.0395 11.2857 86.6997 11.2857V11.2857Z" fill="#B7B7B7"/>
<path d="M98.4495 22.6697C97.6069 22.6697 96.867 22.5668 96.3121 22.3096V14.5824C97.0725 13.9445 98.0179 13.4815 99.2203 13.4815C101.389 13.4815 102.221 15.0145 102.221 17.4942C102.221 21.0132 100.875 22.6697 98.4495 22.6697V22.6697ZM99.395 11.2898C98.8136 11.2863 98.2381 11.4064 97.7066 11.6423C97.1752 11.8782 96.6998 12.2246 96.3121 12.6583V10.4955L96.3018 7.63512H94.113L94.1232 23.9435C95.2228 24.4066 96.7231 24.6535 98.3571 24.6535C102.54 24.6535 104.554 21.9783 104.554 17.3584C104.543 13.7058 102.683 11.2878 99.395 11.2878" fill="#B7B7B7"/>
<path d="M49.1513 9.44809C51.1346 9.44809 52.4192 10.1066 53.2515 10.7754L54.2175 9.09825C52.9124 7.94586 51.1449 7.32851 49.2541 7.32851C44.4859 7.32851 41.1461 10.2404 41.1461 16.1155C41.1461 22.2685 44.7531 24.6658 48.8739 24.6658C50.5788 24.6698 52.2681 24.3413 53.8476 23.6987L53.7962 17.1238V15.0557H47.6777V17.1238H51.5827L51.6341 22.1141C51.1203 22.3713 50.2365 22.5771 49.0342 22.5771C45.7252 22.5771 43.5055 20.4884 43.5055 16.0949C43.4953 11.6191 45.7869 9.44809 49.1472 9.44809" fill="#B7B7B7"/>
<path d="M64.9285 7.63203H62.7396L62.7499 10.441V20.1437C62.7499 22.8498 63.9214 24.6607 67.2612 24.6607C67.7128 24.6619 68.1635 24.6205 68.6074 24.5372V22.572C68.2707 22.623 67.9305 22.6471 67.59 22.644C65.7506 22.644 64.9387 21.6974 64.9387 20.1129V13.4249H68.6074V11.5934H64.9418L64.9315 7.63203H64.9285Z" fill="#B7B7B7"/>
<path d="M57.1729 24.3541H59.3617V11.5954H57.1729V24.3541Z" fill="#B7B7B7"/>
<path d="M57.1729 9.836H59.3617V7.64439H57.1729V9.836Z" fill="#B7B7B7"/>
<path d="M34.6268 18.2958L32.6836 12.3157L28.8382 0.454279C28.7939 0.321948 28.7092 0.206894 28.5961 0.125376C28.483 0.0438587 28.3471 0 28.2077 0C28.0684 0 27.9325 0.0438587 27.8194 0.125376C27.7062 0.206894 27.6216 0.321948 27.5773 0.454279L23.734 12.3085H10.9565L7.11109 0.454279C7.06683 0.321948 6.98214 0.206894 6.86901 0.125376C6.75588 0.0438587 6.62002 0 6.48064 0C6.34126 0 6.20541 0.0438587 6.09228 0.125376C5.97915 0.206894 5.89446 0.321948 5.8502 0.454279L2.01201 12.3085L0.0677471 18.2958C-0.0184228 18.5616 -0.0185154 18.8479 0.0674821 19.1138C0.15348 19.3797 0.321172 19.6116 0.546621 19.7764L17.3442 32L34.1418 19.7764C34.3682 19.6123 34.537 19.3808 34.6241 19.1149C34.7112 18.8489 34.7122 18.5623 34.6268 18.2958" fill="#868686"/>
<path d="M17.3484 31.9887L23.734 12.3075H10.9606L17.3484 31.9887Z" fill="#636363"/>
<path d="M17.3442 31.9897L10.9565 12.3075H2.01617L17.3442 31.9897Z" fill="#868686"/>
<path d="M2.00896 12.3147L0.0646953 18.2948C-0.0214745 18.5606 -0.0215672 18.8469 0.0644303 19.1128C0.150428 19.3787 0.31812 19.6106 0.543569 19.7754L17.3411 32L2.00896 12.3147Z" fill="#ADADAD"/>
<path d="M2.01105 12.3147H10.9627L7.11013 0.460442C7.06586 0.328112 6.98117 0.213058 6.86804 0.13154C6.75491 0.0500225 6.61906 0.00616455 6.47968 0.00616455C6.3403 0.00616455 6.20444 0.0500225 6.09131 0.13154C5.97818 0.213058 5.8935 0.328112 5.84923 0.460442L2.01105 12.3147Z" fill="#636363"/>
<path d="M17.3483 31.9897L23.734 12.3075H32.6846L17.3483 31.9897Z" fill="#868686"/>
<path d="M32.6815 12.3147L34.6268 18.2948C34.713 18.5606 34.7131 18.8469 34.6271 19.1128C34.5411 19.3787 34.3734 19.6106 34.148 19.7754L17.3494 31.9887L32.6815 12.3147V12.3147Z" fill="#ADADAD"/>
<path d="M32.6867 12.3147H23.734L27.5794 0.460442C27.6237 0.328112 27.7083 0.213058 27.8215 0.13154C27.9346 0.0500225 28.0705 0.00616455 28.2098 0.00616455C28.3492 0.00616455 28.4851 0.0500225 28.5982 0.13154C28.7113 0.213058 28.796 0.328112 28.8403 0.460442L32.6857 12.3147H32.6867Z" fill="#636363"/>
</svg>
