<svg width="165" height="21" viewBox="0 0 165 21" fill="none" xmlns="http://www.w3.org/2000/svg">
<path d="M56.2829 11.9242C56.2829 15.094 53.4839 17.4335 50.3823 17.4335C47.2807 17.4335 44.4817 15.094 44.4817 11.9242C44.4817 8.75448 47.2807 6.41492 50.3823 6.41492C53.5596 6.41492 56.2829 8.75448 56.2829 11.9242ZM46.9781 11.9242C46.9781 15.1694 48.2641 16.9807 50.458 16.9807C52.6518 16.9807 53.9378 15.1694 53.9378 11.9242C53.9378 8.67901 52.6518 6.86774 50.458 6.86774C48.2641 6.86774 46.9781 8.67901 46.9781 11.9242Z" fill="#B7B7B7"/>
<path d="M63.6965 16.7543H63.7722V17.1317H57.9472V16.7543C58.0229 16.7543 58.0228 16.7543 58.0228 16.7543C59.8384 16.7543 59.8384 16.1506 59.8384 13.4336V2.94333C59.8384 1.35846 59.4602 0.905639 58.0228 0.754699V0.452819C59.3845 0.301879 60.6706 0.15094 61.881 0V13.3582C61.881 16.226 61.881 16.7543 63.6965 16.7543Z" fill="#B7B7B7"/>
<path d="M70.8832 16.7543H70.9588V17.1317H65.1339V16.7543C65.2095 16.7543 65.2095 16.7543 65.2095 16.7543C67.0251 16.7543 67.0251 16.1506 67.0251 13.4336V2.94333C67.0251 1.35846 66.6468 0.905639 65.2095 0.754699V0.452819C66.5712 0.301879 67.8572 0.15094 69.0676 0V13.3582C69.0676 16.226 69.1433 16.7543 70.8832 16.7543Z" fill="#B7B7B7"/>
<path d="M75.0439 11.4714C75.0439 14.943 76.7082 16.9053 79.0533 16.9053C80.7176 16.9053 82.0036 16.0751 82.6088 14.5657H83.1383C82.5331 16.4524 80.7932 17.509 78.3724 17.509C74.8926 17.509 72.6231 15.4713 72.6231 12.2261C72.6231 8.75451 75.1952 6.49042 78.5237 6.49042C81.0958 6.49042 82.8357 7.99982 82.8357 10.1884V10.2639H75.1952C75.0439 10.7922 75.0439 11.1695 75.0439 11.4714ZM80.9445 9.73562C80.7932 7.84888 79.8098 6.86777 78.2968 6.86777C76.6325 6.86777 75.5734 8.15075 75.2708 9.73562H80.9445Z" fill="#B7B7B7"/>
<path d="M5.74933 16.7543H5.82498V17.1317H0V16.7543C0.0756491 16.7543 0.0756491 16.7543 0.0756491 16.7543C1.89123 16.7543 1.89123 16.1506 1.89123 13.4336V2.94333C1.89123 1.35846 1.51298 0.905639 0.0756491 0.754699V0.452819C1.43733 0.301879 2.72337 0.15094 3.93375 0V13.3582C3.93375 16.226 3.93375 16.7543 5.74933 16.7543Z" fill="#B7B7B7"/>
<path d="M9.83441 11.4714C9.83441 14.943 11.4987 16.9053 13.8438 16.9053C15.5081 16.9053 16.7941 16.0751 17.3993 14.5657H17.9289C17.3237 16.4524 15.5837 17.509 13.163 17.509C9.68311 17.509 7.41364 15.4713 7.41364 12.2261C7.41364 8.75451 9.9857 6.49042 13.3143 6.49042C15.8863 6.49042 17.6263 7.99982 17.6263 10.1884V10.2639H9.9857C9.91005 10.7922 9.83441 11.1695 9.83441 11.4714ZM15.735 9.73562C15.5837 7.84888 14.6003 6.86777 13.0873 6.86777C11.423 6.86777 10.3639 8.15075 10.0614 9.73562H15.735Z" fill="#B7B7B7"/>
<path d="M90.2493 17.509C86.9964 17.509 84.7269 15.4713 84.7269 12.3016C84.7269 8.82998 87.1477 6.49042 90.325 6.49042C92.5944 6.49042 93.9561 7.47153 93.9561 8.45263C93.9561 9.05639 93.5779 9.43374 92.9727 9.43374C92.2918 9.43374 91.9892 9.05639 91.8379 8.30169C91.6866 7.47153 91.4597 6.94324 90.325 6.94324C88.3581 6.94324 87.1477 8.82998 87.1477 12.1507C87.1477 15.2449 88.585 16.9053 90.9302 16.9053C92.5188 16.9053 93.5779 16.0751 93.8805 14.6412H94.3344C94.0318 16.377 92.5188 17.509 90.2493 17.509Z" fill="#B7B7B7"/>
<path d="M95.923 7.24511V6.79229C97.5117 6.56588 98.3438 5.66025 98.949 3.92444H99.4029V6.79229H102.505V7.24511H99.4029L99.3272 13.5846C99.3272 13.6601 99.3272 13.811 99.3272 13.8865C99.3272 15.8487 99.6298 16.8298 101.143 16.8298C101.975 16.8298 102.505 16.4524 103.034 15.6977L103.337 15.8487C102.807 16.9053 101.748 17.4335 100.386 17.4335C98.1925 17.4335 97.3604 16.6788 97.3604 15.0185C97.3604 14.943 97.3604 14.943 97.3604 14.8676L97.5873 7.16964H95.923V7.24511Z" fill="#B7B7B7"/>
<path d="M109.691 16.7543H109.767V17.1317H103.942V16.7543C104.017 16.7543 104.017 16.7543 104.017 16.7543C105.833 16.7543 105.833 16.1506 105.833 13.4337V9.50924C105.833 7.92437 105.455 7.39608 104.017 7.32061V7.0942C105.304 6.86779 106.59 6.64138 107.876 6.3395V13.5091C107.876 16.2261 107.951 16.7543 109.691 16.7543ZM106.816 0.22644C107.497 0.22644 108.027 0.754729 108.027 1.35849C108.027 2.03772 107.497 2.49054 106.816 2.49054C106.136 2.49054 105.606 2.03772 105.606 1.35849C105.606 0.754729 106.211 0.22644 106.816 0.22644Z" fill="#B7B7B7"/>
<path d="M123.157 11.9242C123.157 15.094 120.358 17.4335 117.256 17.4335C114.154 17.4335 111.355 15.094 111.355 11.9242C111.355 8.75448 114.154 6.41492 117.256 6.41492C120.433 6.41492 123.157 8.75448 123.157 11.9242ZM113.852 11.9242C113.852 15.1694 115.138 16.9807 117.332 16.9807C119.526 16.9807 120.812 15.1694 120.812 11.9242C120.812 8.67901 119.526 6.86774 117.332 6.86774C115.138 6.86774 113.852 8.67901 113.852 11.9242Z" fill="#B7B7B7"/>
<path d="M130.722 16.7543H130.797V17.1317H124.972V16.7543C125.048 16.7543 125.048 16.7543 125.048 16.7543C126.864 16.7543 126.864 16.1506 126.864 13.4336V9.50921C126.864 7.92434 126.485 7.39606 125.048 7.32059V7.09418C126.258 6.94324 127.469 6.64136 128.603 6.33948L128.755 6.41495L128.906 7.84887C130.041 6.86777 131.176 6.49042 132.764 6.49042C135.639 6.49042 136.168 7.62247 136.168 9.96203V13.5091C136.168 16.3015 136.244 16.8298 137.984 16.8298H138.06V17.2071H132.235V16.8298H132.31C134.05 16.8298 134.126 16.226 134.126 13.5091V9.96203C134.126 8.07528 133.369 7.01871 131.781 7.01871C130.949 7.01871 130.041 7.39606 129.511 7.99981C128.982 8.60357 128.906 9.2828 128.906 10.113C128.906 10.3394 128.906 10.4903 128.906 10.7167V13.4336C128.906 16.226 128.906 16.7543 130.722 16.7543Z" fill="#B7B7B7"/>
<path d="M145.398 16.7543H145.473V17.1317H139.648V16.7543C139.724 16.7543 139.724 16.7543 139.724 16.7543C141.539 16.7543 141.539 16.1506 141.539 13.4337V9.50924C141.539 7.92437 141.161 7.39608 139.724 7.32061V7.0942C141.01 6.86779 142.296 6.64138 143.582 6.3395V13.5091C143.582 16.2261 143.582 16.7543 145.398 16.7543ZM142.523 0.22644C143.204 0.22644 143.733 0.754729 143.733 1.35849C143.733 2.03772 143.204 2.49054 142.523 2.49054C141.842 2.49054 141.312 2.03772 141.312 1.35849C141.312 0.754729 141.842 0.22644 142.523 0.22644Z" fill="#B7B7B7"/>
<path d="M147.591 13.7355H147.818C148.499 15.9996 149.407 17.0562 151.222 17.0562C152.433 17.0562 153.189 16.377 153.189 15.3204C153.189 14.2638 152.509 13.6601 151.222 12.9808C149.407 11.9997 148.045 11.3205 148.045 9.43374C148.045 7.7734 149.407 6.49042 151.147 6.49042C152.357 6.49042 153.114 7.09418 153.492 7.09418C153.719 7.09418 153.946 6.94324 154.021 6.64136H154.248V9.73562H154.021C153.568 7.92435 152.66 6.94324 151.222 6.94324C150.239 6.94324 149.558 7.547 149.558 8.5281C149.558 9.66015 150.315 10.113 151.676 10.7922C153.643 11.7733 155.005 12.528 155.005 14.4148C155.005 16.226 153.568 17.509 151.374 17.509C149.785 17.509 148.953 16.8298 148.575 16.8298C148.272 16.8298 148.045 16.9807 147.818 17.3581H147.591V13.7355Z" fill="#B7B7B7"/>
<path d="M157.577 7.24511V6.79229C159.166 6.56588 159.998 5.66025 160.603 3.92444H161.057V6.79229H164.158V7.24511H161.057L160.981 13.5846C160.981 13.6601 160.981 13.811 160.981 13.8865C160.981 15.8487 161.284 16.8298 162.797 16.8298C163.629 16.8298 164.158 16.4524 164.688 15.6977L164.991 15.8487C164.461 16.9053 163.402 17.4335 162.04 17.4335C159.846 17.4335 159.014 16.6788 159.014 15.0185C159.014 14.943 159.014 14.943 159.014 14.8676L159.241 7.16964H157.577V7.24511Z" fill="#B7B7B7"/>
<path d="M34.9499 17.509C31.697 17.509 29.4275 15.3958 29.4275 12.2261C29.4275 8.75448 31.8483 6.41492 35.0255 6.41492C37.295 6.41492 38.6567 7.39603 38.6567 8.37713C38.6567 8.98089 38.2784 9.35824 37.6732 9.35824C36.9924 9.35824 36.6898 8.98089 36.5385 8.22619C36.3872 7.39603 36.1603 6.86774 35.0255 6.86774C33.0586 6.86774 31.8483 8.75448 31.8483 12.0752C31.8483 15.1694 33.2856 16.8298 35.6307 16.8298C37.2193 16.8298 38.2784 15.9996 38.581 14.5657H39.0349C38.7323 16.3769 37.2193 17.509 34.9499 17.509Z" fill="#B7B7B7"/>
<path d="M34.723 20C39.1933 20 42.8172 16.3844 42.8172 11.9243C42.8172 7.46428 39.1933 3.84869 34.723 3.84869C30.2526 3.84869 26.6287 7.46428 26.6287 11.9243C26.6287 16.3844 30.2526 20 34.723 20Z" stroke="#B7B7B7" stroke-width="0.5"/>
</svg>
