<svg width="144" height="32" viewBox="0 0 144 32" fill="none" xmlns="http://www.w3.org/2000/svg">
<path d="M60.7734 24L59.7734 10.3733L55.0667 24H51.9334L47.2 10.3733L46.24 24H43.04L44.4667 5.33333H49L53.7334 19.4267L58.44 5.33333H62.9067L64.3334 24H60.7734ZM72.3734 24.6933C71.2 27.9333 69.7067 28.9333 67.2 28.9333C66.64 28.9333 66.2934 28.8667 66 28.8L65.56 26.1333C66 26.2267 66.4667 26.3333 67.0667 26.3333C68 26.3333 68.76 25.8933 69.16 24.96L69.4667 24.0933L64.7334 11.2267L68.1067 10.8L71.1334 20.0933L74.0667 10.96H77.3067L72.3734 24.6933V24.6933ZM83.8 24.2C81.5334 24.2 79.5734 23.6933 77.9334 22.9067L78.4667 19.6267C80.0937 20.6331 81.9548 21.1983 83.8667 21.2667C85.5334 21.2667 86.6667 20.4667 86.6667 19C86.6667 17.6267 86.04 17.0667 83.3067 15.8933C79.6667 14.4 78.2 13.2267 78.2 10.3333C78.2 7.02667 80.7334 5.09333 84.24 5.09333C86.3334 5.09333 87.8 5.53333 89.1734 6.22667L88.64 9.46667C87.3434 8.56793 85.8166 8.05901 84.24 8C82.4267 8 81.6667 8.86667 81.6667 10C81.6667 11.2 82.2667 11.76 84.8667 12.8267C88.7067 14.4 90.0934 15.7333 90.0934 18.6267C90.0667 22.3333 87.4 24.2 83.8 24.2V24.2ZM97.2667 24.24C93.6267 24.24 91.0667 21.8 91.0667 17.5333C91.0667 13 93.9067 10.6667 97.36 10.6667C99.1334 10.6667 100.427 11.1333 101.467 11.76L101 14.6933C100.03 13.8993 98.814 13.4658 97.56 13.4667C95.6934 13.4667 94.3334 14.8267 94.3334 17.4267C94.3334 20.1333 95.8 21.4267 97.7734 21.4267C98.9067 21.4267 99.9334 21.1333 101.133 20.2L101.573 22.96C100.267 23.8933 98.9067 24.2267 97.2667 24.2267V24.24ZM106.267 16.4933V24H103.04V10.9333H105.8L106.2 13.5733C107.067 12.0667 108.373 10.7733 110.4 10.6667L110.907 13.8933C108.867 14.0267 107.2 15.0933 106.267 16.4933V16.4933ZM113.467 8.73333C112.4 8.73333 111.533 7.97333 111.533 6.89333C111.533 5.8 112.4 5 113.467 5C114.533 5 115.4 5.8 115.4 6.90667C115.4 8 114.533 8.73333 113.467 8.73333ZM111.827 10.9333H115.067V24H111.84V10.9333H111.827ZM123.533 24.1333C122.293 24.1333 121.293 23.9333 120.507 23.6267V28.56L117.267 29.0667V10.9333H120.04L120.333 12.7333C121.267 11.6667 122.533 10.6667 124.333 10.6667C127.067 10.6667 129.267 12.7333 129.267 17.1067C129.227 21.96 126.533 24.1333 123.533 24.1333V24.1333ZM123.44 13.5333C122.267 13.5333 121.373 14.2667 120.507 15.3733V20.9733C121.307 21.3333 121.907 21.5333 123.04 21.5333C124.707 21.5333 125.973 20.1733 125.973 17.3067C125.973 14.7733 124.907 13.5333 123.44 13.5333ZM135.733 24.2C133.16 24.2 131.427 23.2667 131.427 20.2667V13.6H129.6V10.9333H131.44V6.8L134.64 6.29333V10.9333H137.307L137.707 13.6H134.6V19.7733C134.6 20.84 135.107 21.4 136.333 21.4C136.707 21.4 137.067 21.36 137.373 21.3067L137.773 24.04C137.307 24.1067 136.707 24.2 135.733 24.2V24.2ZM140.667 24.76C139.6 24.76 138.867 24.0267 138.867 22.9333C138.867 21.84 139.6 21.0933 140.667 21.0933C141.733 21.0933 142.467 21.8267 142.467 22.9333C142.467 24 141.707 24.7733 140.667 24.7733V24.76ZM140.667 21.2933C139.8 21.2933 139.133 21.8933 139.133 22.9333C139.133 23.9733 139.8 24.5333 140.667 24.5333C141.533 24.5333 142.2 23.9333 142.2 22.9333C142.2 21.8667 141.493 21.2933 140.667 21.2933V21.2933ZM141.133 23.8933L140.6 23.0933H140.467V23.8667H140V21.84H140.707C141.173 21.84 141.44 22.0667 141.44 22.44C141.44 22.7333 141.307 22.9067 141.04 23L141.573 23.8L141.133 23.8933V23.8933ZM140.627 22.2H140.427V22.7733H140.627C140.827 22.7733 140.96 22.6667 140.96 22.4667C140.96 22.2933 140.867 22.2 140.627 22.2Z" fill="#B7B7B7"/>
<path d="M0 0V27.4667C0 28.669 0.477618 29.8221 1.32778 30.6722C2.17795 31.5224 3.33102 32 4.53333 32H32V4.53333C32 2 30 0 27.4667 0H0Z" fill="#747474"/>
<path d="M19.0667 24L22.4667 12.44C22.7333 11.64 23.0667 10.8667 23.2 10.2667C23.2 11 23.2667 11.92 23.3333 12.7067L24.1333 24H28L26.2667 5.6H20.9333L18 16.0533C17.7333 16.9067 17.6 17.76 17.4667 18.4133C17.2837 17.6331 17.1324 16.8458 17.0133 16.0533C16.68 13.8133 15.9467 9.74667 15.1467 6.78667C14.8133 5.34667 12.9467 4.94667 11.8133 5.41334C10.9467 5.81334 10.48 6.78667 10.28 7.57334C9.87998 8.89334 9.54665 10.2 9.21332 11.52L8.34665 15.6533C8.27999 15.9867 8.14665 16.5867 7.81332 16.5867C7.54665 16.5867 7.54665 15.2533 7.54665 14.8C7.54665 13.36 7.41332 11.3867 7.21332 9.94667C6.94665 8.37334 6.54665 6.53334 4.41332 6.78667C3.81332 6.85334 2.81332 7.25334 3.02665 7.85334C3.22665 8.69334 3.49332 9.68 3.62665 10.6C4.22665 13.88 4.69332 19.6667 4.95998 22.68C5.09332 24 6.47999 24.5867 7.81332 24C8.47999 23.7333 8.87999 22.9467 9.14665 22.36C10.48 18.8133 11.4133 15.0667 12.48 11.4533C12.48 11.3867 12.6133 10.92 12.8133 10.92C13.4133 10.92 14.2133 19.4 14.3467 20.2533C14.6133 21.44 14.9467 23.6667 16.4133 23.9867H19.08L19.0667 24Z" fill="white"/>
</svg>
