<svg width="157" height="28" viewBox="0 0 157 28" fill="none" xmlns="http://www.w3.org/2000/svg">
<path d="M66.9296 4.73123H57.6799V23.3536H62.3681V16.5263C62.3681 16.5263 69.0554 16.8954 70.942 14.3831C72.3498 12.765 72.4343 10.1675 71.843 8.16614C71.0827 5.89512 69.3933 4.71703 66.9296 4.73123V4.73123ZM67.4646 13.1198C66.3664 14.4256 63.9449 14.4114 62.3399 14.2979L62.354 6.83192C62.354 6.83192 66.5213 6.24997 67.6194 8.15195C68.253 9.28746 68.4078 11.8565 67.4646 13.1198V13.1198ZM27.6644 26.3911C25.9891 25.7665 23.5816 23.8787 22.1878 22.1613C20.3999 20.089 16.1059 14.2695 16.1059 14.2695C13.8956 11.4023 10.9391 6.61901 8.02479 4.22025V23.311H10.6293V13.6734C12.4595 16.0295 14.6136 19.0528 16.2326 20.9548C16.9365 21.8064 18.7808 23.8078 19.2877 24.2478C22.6524 27.555 28.8189 29.0311 33.9575 27.2143V27.044C32.1977 27.4272 29.917 27.2995 27.6644 26.3911V26.3911ZM11.7697 5.85254C13.5577 7.92485 17.8516 13.7443 17.8516 13.7443C20.062 16.6115 23.0185 21.3948 25.9327 23.7936V4.70284H23.3282V14.3405C21.498 11.9843 19.344 8.961 17.7249 7.05902C17.021 6.20739 15.1767 4.20605 14.6699 3.76605C11.3051 0.444682 5.13868 -1.03148 0 0.785335V0.969855C1.7739 0.586621 4.05463 0.728559 6.29312 1.63697C7.96848 2.2473 10.3759 4.13508 11.7697 5.85254ZM41.208 6.81772L41.2221 4.73123H28.5654V23.3536H41.2221L41.208 21.2671C38.7865 21.3238 35.7455 21.7213 33.2536 21.4658V14.7805C35.2809 14.6669 37.7306 14.7095 39.603 14.8798V12.6656C37.6884 12.9069 35.295 12.8927 33.2536 12.765V6.60482C35.7314 6.36352 38.7865 6.76095 41.208 6.81772V6.81772ZM54.287 14.2979C52.1471 12.4385 49.5566 11.8565 47.7264 10.5791C46.4452 9.58553 46.6423 8.29389 47.2899 7.59839C48.8245 5.86674 52.0485 6.68998 52.7947 6.86031C53.7379 7.14418 54.2448 7.44226 55.1458 7.85388V5.51189C51.3164 4.39058 45.1782 3.31184 42.7707 7.20096C41.8838 8.80486 41.6444 11.7004 44.2067 13.3895C46.7831 15.4618 51.0208 16.4412 51.5417 18.116C51.8655 19.0244 51.4713 19.9045 50.8659 20.5148C48.5711 22.6581 44.9107 21.3097 42.5314 20.2451V22.5445C45.0937 23.7084 48.3458 24.0065 51.232 23.382C53.203 22.9419 55.4274 21.1819 55.7793 19.0102C56.1313 16.8954 55.6808 15.4902 54.287 14.2979V14.2979ZM89.1737 22.3742L88.5965 21.2813C87.3717 18.9677 86.3862 17.0373 85.3162 14.525C85.4288 14.4398 85.4007 14.4824 85.7245 14.3263C87.4421 13.503 88.5683 12.0127 88.5402 9.44359C88.4557 6.27836 85.5978 4.71703 83.0918 4.71703H73.7154V23.3536H78.4318V15.6463H81.1067C81.9936 17.1509 83.8239 21.4232 84.1054 22.0903L84.6545 23.3394H89.6806L89.23 22.4736C89.216 22.4594 89.2019 22.4168 89.1737 22.3742V22.3742ZM83.3734 12.3817C82.2611 13.7159 79.9804 13.6166 78.4036 13.6166V6.78934C78.4036 6.78934 82.4301 6.179 83.5423 8.13775C84.1054 9.23068 84.1758 11.2746 83.3734 12.3817ZM143.151 4.44735C141.926 4.43316 134 4.5751 133.972 13.9714C133.972 23.2968 141.785 23.68 143.151 23.6658C144.503 23.68 152.33 23.311 152.302 13.9714C152.288 4.5751 144.376 4.43316 143.151 4.44735V4.44735ZM143.179 21.0684H143.109C142.588 21.0684 138.815 21.2245 138.829 13.6166C138.857 6.54804 142.532 6.74676 143.151 6.74676C143.756 6.74676 147.431 6.54804 147.459 13.6166C147.487 21.2245 143.7 21.0684 143.179 21.0684V21.0684ZM155.132 21.2103C155.202 21.1677 155.512 21.0684 155.512 20.6142C155.512 20.2309 155.259 19.9896 154.766 19.9896H153.654V22.3316H154.062V21.3664H154.653C155.033 21.3664 155.118 21.5651 155.118 21.991C155.118 22.1045 155.118 22.2323 155.174 22.3316H155.611C155.526 22.2465 155.484 21.991 155.484 21.7213C155.484 21.338 155.287 21.2245 155.132 21.2103V21.2103ZM154.724 21.0542H154.062V20.3303H154.724C154.935 20.3303 155.132 20.3871 155.132 20.6851C155.118 20.9122 154.977 21.0542 154.724 21.0542ZM154.498 18.9535C153.288 18.9535 152.302 19.947 152.302 21.1535C152.302 22.3884 153.288 23.3678 154.498 23.3678C155.709 23.3678 156.709 22.3742 156.709 21.1535C156.709 19.9329 155.723 18.9535 154.498 18.9535ZM154.498 23.1549C153.4 23.1549 152.513 22.2606 152.513 21.1535C152.533 20.6376 152.749 20.1494 153.118 19.7913C153.487 19.4332 153.979 19.2331 154.491 19.2331C155.003 19.2331 155.495 19.4332 155.864 19.7913C156.233 20.1494 156.45 20.6376 156.469 21.1535C156.469 22.2606 155.582 23.1549 154.498 23.1549ZM117.021 14.2979C114.881 12.4385 112.277 11.8565 110.461 10.5791C109.179 9.58553 109.376 8.29389 110.024 7.59839C111.559 5.86674 114.783 6.68998 115.529 6.86031C116.472 7.14418 116.979 7.44226 117.88 7.85388V5.51189C114.051 4.39058 107.912 3.31184 105.505 7.20096C104.618 8.80486 104.379 11.7004 106.941 13.3895C109.517 15.4618 113.755 16.4412 114.276 18.116C114.6 19.0244 114.205 19.9045 113.6 20.5148C111.305 22.6581 107.645 21.3097 105.266 20.2451V22.5445C107.828 23.7084 111.08 24.0065 113.966 23.382C115.937 22.9419 118.162 21.1819 118.513 19.0102C118.865 16.8954 118.415 15.4902 117.021 14.2979V14.2979ZM131.367 14.2979C129.241 12.4385 126.637 11.8424 124.821 10.5791C123.525 9.58553 123.723 8.29389 124.37 7.59839C125.905 5.86674 129.115 6.68998 129.875 6.86031C130.818 7.14418 131.339 7.44226 132.24 7.85388V5.51189C128.397 4.39058 122.272 3.31184 119.851 7.20096C118.95 8.80486 118.725 11.7004 121.287 13.3895C123.877 15.4618 128.101 16.4412 128.622 18.116C128.96 19.0244 128.566 19.9045 127.946 20.5148C125.665 22.6581 121.991 21.3097 119.626 20.2451L119.612 22.5445C122.188 23.7084 125.426 24.0065 128.312 23.382C130.297 22.9419 132.508 21.1819 132.874 19.0102C133.212 16.8954 132.761 15.4902 131.367 14.2979V14.2979ZM91.2433 23.3536H103.886V21.2671C101.45 21.3238 98.4093 21.7213 95.9174 21.4658V14.7805C97.9306 14.6669 100.394 14.7095 102.281 14.8798V12.6656C100.352 12.9069 97.9588 12.8927 95.9174 12.765V6.60482C98.4093 6.34933 101.45 6.74676 103.886 6.78934V4.73123H91.2433V23.3536V23.3536Z" fill="#B7B7B7"/>
</svg>
