<svg width="107" height="32" viewBox="0 0 107 32" fill="none" xmlns="http://www.w3.org/2000/svg">
<path d="M16 30.2157C23.8513 30.2157 30.216 23.851 30.216 15.9997C30.216 8.14841 23.8513 1.78369 16 1.78369C8.14871 1.78369 1.784 8.14841 1.784 15.9997C1.784 23.851 8.14871 30.2157 16 30.2157Z" fill="url(#paint0_linear)"/>
<path d="M16 1.784C18.8117 1.784 21.5602 2.61775 23.898 4.17983C26.2358 5.7419 28.0579 7.96214 29.1339 10.5598C30.2098 13.1574 30.4914 16.0158 29.9428 18.7734C29.3943 21.531 28.0404 24.0641 26.0522 26.0522C24.0641 28.0404 21.531 29.3943 18.7734 29.9428C16.0158 30.4914 13.1574 30.2098 10.5598 29.1339C7.96214 28.0579 5.74191 26.2358 4.17983 23.898C2.61776 21.5602 1.78401 18.8117 1.78401 16C1.78401 12.2297 3.28176 8.61378 5.94778 5.94777C8.61379 3.28175 12.2297 1.784 16 1.784V1.784ZM16 0C12.8355 0 9.74207 0.938383 7.11088 2.69649C4.4797 4.45459 2.42894 6.95345 1.21793 9.87706C0.00693254 12.8007 -0.309921 16.0177 0.307443 19.1214C0.924806 22.2251 2.44866 25.0761 4.6863 27.3137C6.92394 29.5513 9.77486 31.0752 12.8786 31.6926C15.9823 32.3099 19.1993 31.9931 22.1229 30.7821C25.0466 29.5711 27.5454 27.5203 29.3035 24.8891C31.0616 22.2579 32 19.1645 32 16C32 11.7565 30.3143 7.68687 27.3137 4.68629C24.3131 1.68571 20.2435 0 16 0V0Z" fill="#525252"/>
<path d="M10.0315 5.98698L9.33875 8.01599L12.3823 9.05505L13.075 7.02604L10.0315 5.98698Z" fill="white"/>
<path d="M7.95339 12.0716L7.26068 14.1006L10.3042 15.1396L10.9969 13.1106L7.95339 12.0716Z" fill="white"/>
<path d="M5.87777 18.1487L5.18506 20.1777L8.22858 21.2168L8.92129 19.1878L5.87777 18.1487Z" fill="white"/>
<path d="M6.39991 26.4881L6.81591 25.2721L4.60791 24.5201C5.14264 25.2305 5.74258 25.8894 6.39991 26.4881Z" fill="white"/>
<path d="M12.4 5.67188L14.4 6.39988L13.048 10.3999L11.024 9.70388L10.328 11.7359L12.352 12.4319L10.968 16.4799L8.94403 15.7839L8.24803 17.8159L10.272 18.5119L8.88802 22.5599L6.86403 21.8639L6.17603 23.9199L8.20003 24.6159L7.30403 27.1999C7.88725 27.6553 8.50512 28.0646 9.15202 28.4239L15.032 11.1999L15.08 11.0719L16.496 6.91988L16.8 6.03988L12.752 4.65588L12.4 5.67188Z" fill="white"/>
<path d="M29.016 10.2959L18.352 6.64795L10.664 29.1759C13.284 30.2418 16.1626 30.5014 18.9311 29.9215C21.6995 29.3415 24.2319 27.9485 26.2039 25.9206C28.1758 23.8928 29.4977 21.3226 30.0001 18.539C30.5025 15.7554 30.1626 12.8852 29.024 10.2959H29.016Z" fill="white"/>
<path d="M41.8241 20.7197C42.9945 21.889 44.5559 22.5842 46.2081 22.6717C46.5561 22.7013 46.9065 22.6584 47.237 22.5454C47.5675 22.4325 47.871 22.2521 48.1281 22.0157C48.4455 21.6911 48.6211 21.2537 48.6161 20.7997C48.6146 20.5808 48.5651 20.3649 48.4711 20.1672C48.3771 19.9696 48.2409 19.7949 48.0721 19.6557C47.3211 19.1645 46.4813 18.8248 45.6001 18.6557L44.3121 18.2557C43.2912 17.9764 42.358 17.4423 41.6001 16.7037C40.8177 15.7565 40.4283 14.5453 40.5121 13.3197C40.4757 12.4716 40.6122 11.6251 40.9134 10.8315C41.2146 10.0379 41.6742 9.31397 42.2641 8.70365C42.9201 8.09114 43.6917 7.61572 44.5338 7.30526C45.3759 6.9948 46.2715 6.85554 47.1681 6.89565C49.2291 6.953 51.2493 7.48404 53.0721 8.44766L51.0961 12.3197C50.195 11.512 49.0338 11.055 47.8241 11.0317C47.2383 11.0219 46.6692 11.2268 46.2241 11.6077C46.0756 11.7364 45.9555 11.8946 45.8715 12.0723C45.7874 12.25 45.7413 12.4432 45.7361 12.6397C45.7138 12.9492 45.8048 13.2562 45.9921 13.5037C46.4456 13.9546 47.0263 14.2561 47.6561 14.3677L49.1761 14.8237C50.4858 15.1242 51.6872 15.7803 52.6481 16.7197C53.0788 17.1726 53.4108 17.7102 53.6229 18.2982C53.835 18.8863 53.9225 19.512 53.8801 20.1357C53.9212 21.0167 53.7821 21.8968 53.4712 22.7222C53.1603 23.5475 52.6842 24.3007 52.0721 24.9357C50.4721 26.5357 48.4561 26.8877 46.4241 26.8877C45.1422 26.9146 43.8667 26.7002 42.6641 26.2557C41.6401 25.8696 40.6675 25.3591 39.7681 24.7357L41.8241 20.7197Z" fill="#B7B7B7"/>
<path d="M61.888 5.55225V18.2482L66.2159 13.6002H72.44L66.4 19.5442L72.9359 26.4562H66.536L61.864 21.2082V26.4562H57.296V5.55225H61.888Z" fill="#B7B7B7"/>
<path d="M87.9999 20.8877H78.3999C78.3912 21.6793 78.6763 22.446 79.1999 23.0397C79.4579 23.2661 79.7586 23.4386 80.0842 23.5471C80.4098 23.6556 80.7538 23.698 81.0959 23.6717C81.6108 23.6641 82.118 23.5468 82.5839 23.3277C82.9263 23.1204 83.2035 22.821 83.3839 22.4637H87.7679C87.4983 23.4676 86.962 24.3799 86.2159 25.1037C85.2719 26.0237 83.8159 26.8797 80.9999 26.8797C80.0303 26.9248 79.0615 26.7753 78.1506 26.4401C77.2396 26.1048 76.405 25.5906 75.696 24.9277C75.073 24.2866 74.5844 23.5275 74.2588 22.695C73.9332 21.8625 73.7772 20.9733 73.7999 20.0797C73.7726 19.1666 73.9283 18.2573 74.2581 17.4055C74.5879 16.5536 75.0849 15.7764 75.72 15.1197C76.4271 14.4761 77.2554 13.9798 78.1564 13.6598C79.0575 13.3397 80.0132 13.2024 80.9679 13.2557C82.7776 13.1815 84.546 13.8092 85.9039 15.0077C86.6072 15.7127 87.1565 16.5559 87.5173 17.484C87.8781 18.412 88.0424 19.4049 87.9999 20.3997V20.8877ZM83.7839 18.2477C83.6588 17.7325 83.4025 17.2585 83.0399 16.8717C82.5221 16.4035 81.8416 16.1566 81.1439 16.1837C80.8025 16.1627 80.4604 16.2131 80.1395 16.3315C79.8186 16.45 79.5259 16.6339 79.2799 16.8717C78.9179 17.2511 78.6782 17.7305 78.5919 18.2477H83.7839Z" fill="#B7B7B7"/>
<path d="M96 5.55225V14.8642C96.4821 14.3327 97.0716 13.9095 97.7294 13.6227C98.3872 13.3358 99.0984 13.1919 99.816 13.2002C101.49 13.1741 103.11 13.7896 104.344 14.9202C105.011 15.5846 105.538 16.3771 105.891 17.2502C106.244 18.1232 106.417 19.0586 106.4 20.0002C106.415 20.9458 106.24 21.8847 105.885 22.7613C105.531 23.638 105.004 24.4347 104.336 25.1042C103.745 25.6903 103.041 26.1499 102.267 26.4552C101.492 26.7606 100.664 26.9052 99.832 26.8802C99.0943 26.8968 98.3631 26.7396 97.6974 26.4214C97.0317 26.1031 96.4503 25.6327 96 25.0482V26.4562H91.416V5.55225H96ZM100.8 22.1202C101.348 21.5934 101.667 20.8722 101.688 20.1122C101.684 19.2994 101.366 18.5195 100.8 17.9362C100.249 17.3949 99.5081 17.0915 98.736 17.0915C97.9638 17.0915 97.2226 17.3949 96.672 17.9362C96.1619 18.5072 95.8626 19.2356 95.824 20.0002C95.8291 20.4151 95.9182 20.8246 96.086 21.2041C96.2537 21.5836 96.4966 21.9252 96.8 22.2082C97.345 22.6975 98.0441 22.9805 98.776 23.0082C99.1555 23.0026 99.53 22.9211 99.8776 22.7686C100.225 22.6161 100.539 22.3957 100.8 22.1202V22.1202Z" fill="#B7B7B7"/>
<path d="M57.296 5.55225V10.1362L61.888 5.55225H57.296Z" fill="#959595"/>
<path d="M91.376 5.55225V10.1362L95.968 5.55225H91.376Z" fill="#959595"/>
<defs>
<linearGradient id="paint0_linear" x1="5.94399" y1="5.94369" x2="26.056" y2="26.0557" gradientUnits="userSpaceOnUse">
<stop offset="0.2" stop-color="#959595"/>
<stop offset="1" stop-color="#525252"/>
</linearGradient>
</defs>
</svg>
