<svg width="146" height="24" viewBox="0 0 146 24" fill="none" xmlns="http://www.w3.org/2000/svg">
<path fill-rule="evenodd" clip-rule="evenodd" d="M18.8864 9.98438C18.7836 9.88162 18.7258 9.74218 18.7258 9.59678C18.7258 9.45138 18.7836 9.31194 18.8864 9.20919L22.9032 5.19015C23.1176 4.97579 23.4652 4.97579 23.6795 5.19015L31.7953 13.3059C32.387 13.9205 32.3816 14.8947 31.7831 15.5028L23.4522 23.8348C23.3494 23.9381 23.2098 23.9964 23.064 23.9967H15.0226C14.7964 23.9967 14.5935 23.8578 14.5117 23.6468C14.4299 23.4359 14.4862 23.1965 14.6533 23.044L22.911 14.7819C23.0134 14.6796 23.0709 14.5408 23.0709 14.396C23.0709 14.2512 23.0134 14.1124 22.911 14.0101L18.8853 9.98438H18.8864ZM13.3503 14.0145C13.4531 14.1173 13.5109 14.2567 13.5109 14.4021C13.5109 14.5475 13.4531 14.6869 13.3503 14.7897L9.33345 18.8087C9.11907 19.0231 8.77152 19.0231 8.55714 18.8087L0.43922 10.693C-0.151535 10.0782 -0.145636 9.10484 0.452528 8.4972L8.78449 0.163024C8.88757 0.0602775 9.0271 0.00247101 9.17264 0.00221801H17.2129C17.4391 0.00216437 17.6421 0.141138 17.7239 0.352046C17.8056 0.562955 17.7494 0.802428 17.5822 0.954854L9.32458 9.21695C9.22247 9.31955 9.16472 9.45814 9.16377 9.60288C9.16377 9.74373 9.21922 9.88457 9.32458 9.98993L13.3503 14.0156V14.0145ZM41.8229 14.1975C42.6557 14.9561 43.9444 15.4107 45.1809 15.4107C46.067 15.4107 46.748 14.9805 46.748 14.3749C46.748 12.5318 40.8126 13.1872 40.8126 9.24578C40.8126 6.89691 43.086 5.43191 45.5114 5.43191C47.1029 5.43191 48.8451 6.03965 49.6536 6.66956L48.1132 9.04283C47.481 8.59036 46.6493 8.21108 45.7621 8.21108C44.8538 8.21108 44.0952 8.56596 44.0952 9.1981C44.0952 10.7862 50.0329 10.1552 50.0329 14.4016C50.0329 16.7493 47.7339 18.1899 45.1577 18.1899C43.4642 18.1899 41.6698 17.6077 40.2304 16.5486L41.8229 14.1975ZM55.2097 13.6419C55.8884 14.5999 56.9923 15.1659 58.1663 15.1579C60.0095 15.1579 61.4002 13.7428 61.4002 11.8231C61.4002 10.0542 60.1625 8.46504 58.2417 8.46504C57.0486 8.46119 55.9241 9.02221 55.2097 9.97773V13.6419ZM51.927 5.68587H55.0844V6.66956C56.0437 5.8866 57.2824 5.43191 58.6709 5.43191C62.0068 5.43191 64.6839 8.21108 64.6839 11.8231C64.6839 13.4911 64.1028 15.006 63.1424 16.1183C62.0556 17.3815 60.3144 18.1899 58.4946 18.1899C57.2569 18.1899 56.1956 17.835 55.2097 17.0776V24H51.927V5.68587ZM74.4654 10.2317C74.3633 9.14486 73.3785 8.08354 72.04 8.08354C70.6759 8.08354 69.5636 9.12046 69.4116 10.2317H74.4654ZM77.5229 15.9908C76.3351 17.4058 74.3899 18.1899 72.4947 18.1899C68.8316 18.1899 66.0779 15.6636 66.0779 11.822C66.0779 8.41292 68.4013 5.43191 72.04 5.43191C75.4258 5.43191 77.8256 8.2876 77.8256 11.6978C77.8256 12.025 77.8001 12.3543 77.7491 12.6316H69.2619C69.4382 14.3505 70.8256 15.5361 72.5701 15.5361C73.9597 15.5361 75.0709 14.7553 75.6531 14.1232L77.5229 15.9908ZM79.7209 17.9371V5.68587H82.8794V6.66956C83.8526 5.86443 85.0775 5.42642 86.3406 5.43191C88.0318 5.43191 89.5745 6.18936 90.5848 7.40262C91.3921 8.3608 91.8468 9.59845 91.8468 11.6978V17.9371H88.5642V11.4449C88.5642 10.2317 88.2869 9.59956 87.83 9.14486C87.4008 8.71568 86.7443 8.46504 85.9868 8.46504C84.5972 8.46504 83.4594 9.3467 83.0047 9.97773V17.9371H79.7209ZM103.093 9.97773C102.379 9.02193 101.254 8.46083 100.061 8.46504C98.1404 8.46504 96.9039 10.0542 96.9039 11.822C96.9039 13.7417 98.2924 15.1579 100.137 15.1579C101.311 15.1665 102.415 14.6003 103.093 13.6419V9.97773ZM103.219 17.9371V16.9523C102.207 17.8117 101.047 18.1899 99.8084 18.1899C97.9896 18.1899 96.2717 17.3803 95.186 16.1183C94.1665 14.9198 93.6105 13.3955 93.619 11.822C93.619 8.21108 96.2961 5.43191 99.632 5.43191C100.971 5.43191 102.132 5.81119 103.092 6.56753V0H106.377V17.9371H103.219ZM116.726 10.2317C116.625 9.14486 115.639 8.08354 114.301 8.08354C112.937 8.08354 111.824 9.12046 111.674 10.2317H116.726ZM119.782 15.9908C118.595 17.4058 116.65 18.1899 114.756 18.1899C111.092 18.1899 108.339 15.6636 108.339 11.822C108.339 8.41292 110.662 5.43191 114.301 5.43191C117.686 5.43191 120.085 8.2876 120.085 11.6978C120.085 12.025 120.061 12.3543 120.011 12.6316H111.523C111.698 14.3505 113.088 15.5361 114.831 15.5361C116.221 15.5361 117.333 14.7553 117.914 14.1232L119.782 15.9908ZM123.165 14.1975C123.998 14.9561 125.287 15.4107 126.525 15.4107C127.409 15.4107 128.091 14.9805 128.091 14.3749C128.091 12.5318 122.154 13.1872 122.154 9.24578C122.154 6.89691 124.427 5.43191 126.853 5.43191C128.444 5.43191 130.188 6.03965 130.996 6.66956L129.455 9.04283C128.824 8.59036 127.99 8.21108 127.105 8.21108C126.196 8.21108 125.437 8.56596 125.437 9.1981C125.437 10.7862 131.375 10.1552 131.375 14.4016C131.375 16.7493 129.076 18.1899 126.5 18.1899C124.806 18.1899 123.013 17.6077 121.574 16.5486L123.165 14.1975ZM139.153 11.1921L145.899 17.9371H141.477L136.298 12.6316V17.9371H133.014V0H136.298V9.65057L140.517 5.68587H145.141L139.153 11.1921Z" fill="#B7B7B7"/>
</svg>
