<svg width="417" height="417" viewBox="0 0 417 417" fill="none" xmlns="http://www.w3.org/2000/svg">
<path d="M381.578 252.139C381.578 253.485 382.747 254.655 384.091 254.655H389.118C390.463 254.655 391.632 253.485 391.632 252.139V171.179H414.487C415.948 171.179 417 170.009 417 168.663V164.861C417 163.515 415.948 162.345 414.487 162.345H358.606C357.145 162.345 356.093 163.515 356.093 164.861V168.663C356.093 170.009 357.145 171.179 358.606 171.179H381.519L381.578 252.139ZM291.035 164.802C291.035 163.457 292.087 162.287 293.548 162.287H345.454C346.915 162.287 347.968 163.457 347.968 164.802V168.605C347.968 169.95 346.915 171.12 345.454 171.12H301.147V203.294H338.966C340.31 203.294 341.479 204.464 341.479 205.809V209.611C341.479 211.074 340.31 212.127 338.966 212.127H301.147V245.763H345.454C346.915 245.763 347.968 246.933 347.968 248.278V252.081C347.968 253.426 346.915 254.596 345.454 254.596H293.548C292.087 254.596 291.035 253.426 291.035 252.081V164.802ZM196.459 186.622V252.139C196.459 253.485 197.628 254.655 198.972 254.655H203.59C205.051 254.655 206.103 253.485 206.103 252.139V198.672L196.459 186.622ZM271.57 253.602V164.802C271.57 163.457 270.401 162.287 269.057 162.287H264.439C262.978 162.287 261.926 163.457 261.926 164.802V235.116H261.633L202.304 161H199.031C197.686 161 196.517 162.053 196.517 163.398V168.195L266.836 256H269.174C270.401 255.941 271.57 254.889 271.57 253.602ZM132.862 181.708H120.237V235.116H132.862C147.768 235.116 158.582 223.358 158.582 208.325C158.523 193.466 147.709 181.708 132.862 181.708ZM134.148 254.655H102C100.655 254.655 99.603 253.485 99.603 252.139V164.802C99.603 163.457 100.655 162.287 102 162.287H134.148C159.575 162.287 180.384 182.995 180.384 208.325C180.443 233.946 159.575 254.655 134.148 254.655ZM0 252.139C0 253.485 1.16905 254.655 2.51346 254.655H18.1787C19.64 254.655 20.6922 253.485 20.6922 252.139V217.45H58.394V252.139C58.394 253.485 59.4462 254.655 60.9075 254.655H76.5728C77.9172 254.655 79.0862 253.485 79.0862 252.139V164.802C79.0862 163.457 77.9172 162.287 76.5728 162.287H60.9075C59.4462 162.287 58.394 163.457 58.394 164.802V198.029H20.6922V164.802C20.6922 163.457 19.64 162.287 18.1787 162.287H2.51346C1.16905 162.287 0 163.457 0 164.802V252.139Z" fill="#F5F5F5"/>
</svg>
