<svg viewBox="0 0 32 32" xmlns="http://www.w3.org/2000/svg"><g fill-rule="nonzero" fill="none"><path d="M21.3953373 10.17617621c.5592343.57161812.555698 1.50143306-.0075777 2.07718026-.5637808.57574719-1.4738627.57936013-2.0330969.007742-.5592343-.57136005-.555698-1.501175.0075777-2.0769222.5637808-.57574719 1.4738627-.57936012 2.0330969-.00800006M21.125 19.09375C21.125 23.4603109 17.5714391 27 13.18776581 27 8.80382677 27 5.25 23.4603109 5.25 19.09375c0-4.36656088 3.55382677-7.90625 7.93776581-7.90625 4.38367329 0 7.93723419 3.53968912 7.93723419 7.90625" fill="#FFF"/><path d="M11.70154969 12.25c-.24921251 0-.45100505-.20180336-.45100505-.45102923V9.13635193c-.00283489-.07087602-.01314358-.84458445.52342355-1.39200507.3293625-.33582348.77624406-.50515274 1.32647018-.49381258.10489088.00128866 1.98339125.00051547 2.69829863 0h.0002577c.2489548 0 .4507474.20154564.4510053.4507715.0002575.2487104-.2015351.45102923-.4507476.45128696-.1048908 0-2.5782024.00128866-2.71144215 0-.30281769-.01237108-.51466119.06778325-.66619887.21984454-.27524188.27680308-.26931438.7469044-.26931438.75154356l.00025769 2.67498993c0 .24922587-.20179257.45102923-.451005.45102923M24.2361284 12.25c-.2492222 0-.4510227-.20179958-.4510227-.45102078V9.13641026c.0002578-.01700992.0061855-.48710243-.2690672-.76390033-.1512859-.15231616-.3783436-.2286031-.6657095-.21984042-.1340181.00128863-2.6071688 0-2.7120638 0-.2492223-.00025772-.4510227-.20257276-.4507656-.4512785.0002584-.2492212.2020588-.45076306.4510233-.45076306h.0002578c.7149354.00051546 2.593767.0010309 2.6989197 0 .5597836-.01237085.9966312.15824387 1.3260067.49380333.5365881.54741036.526279 1.32110429.5231863 1.40744255l.0002577 2.64710539c0 .2492212-.2018004.45102078-.4510227.45102078M13.06242919 20.625c-.53349544 0-.96699269-.1662371-1.28863625-.4940722-.53658815-.5474227-.52627906-1.321134-.52318633-1.4074742l-.00025773-2.64742266c0-.24922681.20180044-.45103094.45102268-.45103094.24922225 0 .45102269.20180413.45102269.45103094v2.66288656c-.00025775.0170103-.00644319.4868557.26906725.7639176.15154362.1518041.37318906.2324742.6657095.2198453.13350269-.0018041 2.6069111-.0002577 2.7120638 0 .2492223.0002577.4510227.2023196.4507652.4512887-.000258.248969-.2020584.4507732-.4510229.4507732h-.0002578c-.71493536-.0005155-2.59350924-.0015464-2.69891968 0-.01262862.0002577-.02499956.0002577-.03737043.0002577M22.8746883 20.625c-.0126281 0-.0249986 0-.0376267-.0002577-.1046332-.0012887-1.9833912-.0002577-2.6982986 0h-.0002578c-.2489547 0-.4507473-.2015464-.4510056-.4507732-.0002571-.2489691.2015355-.451031.450748-.4512887.1054063 0 2.5782024-.0012886 2.7114421 0 .3051372.0090206.5146612-.0680412.6661989-.2198453.2754996-.2770619.2693144-.7469073.2693144-.7518042l-.0002577-2.67499996c0-.24922681.2017926-.45103094.451005-.45103094.2492125 0 .4510051.20180413.4510051.45103094v2.66288656c.0028348.0708763.0131435.8445876-.5234236 1.3920103-.321631.3278351-.7551112.4940722-1.2888435.4940722" fill="#1A1A1A"/><g><path d="M7.55605469 1H24.4439453C28.0647543 1 31 3.93524566 31 7.55605469V24.4439453C31 28.0647543 28.0647543 31 24.4439453 31H7.55605469C3.93524566 31 1 28.0647543 1 24.4439453V7.55605469C1 3.93524566 3.93524566 1 7.55605469 1Z" fill="#58E47B"/><path d="M21.5646998 10.43524378c.5835488.58378022.5798588 1.53337846-.0079072 2.12137559-.588293.58799713-1.5379436.59168694-2.1214924.00790673-.5835488-.58351665-.5798588-1.53311489.0079072-2.12111203.588293-.58799714 1.5379436-.59168694 2.1214924-.00817029M13.00026791 28C8.58180966 28 5 24.4183383 5 20c0-4.41833828 3.58180966-8 8.00026791-8C17.4184583 12 21 15.58166172 21 20c0 4.4183383-3.5815417 8-7.99973209 8Z" fill="#FFF"/><path d="M12.00054464 11.54897077V8.88635193c-.00283489-.07087602-.01314358-.84458445.52342355-1.39200507.3293625-.33582348.77624406-.50515274 1.32647019-.49381258.10489087.00128866 1.98339122.00051547 2.69829862 0 .2492125 0 .4510051.20154564.451263.4507715.0002575.2487104-.2015351.45102923-.4507476.45128696-.1048908 0-2.5782024.00128866-2.71144215 0-.30281769-.01237108-.51466119.06778325-.66619887.21984454-.27524188.27680308-.26931438.7469044-.26931438.75154356l.00025769 2.67498993c0 .24922587-.20179256.45102923-.451005.45102923-.24921251 0-.45100505-.20180336-.45100505-.45102923ZM24.5486287 12c-.2492223 0-.4510227-.20179958-.4510227-.45102078V8.88641026c.0002577-.01700992.0061854-.48710243-.2690673-.76390033-.1512858-.15231616-.3783435-.2286031-.6657095-.21984042-.1340181.00128863-2.6071688 0-2.7120638 0-.2492222-.00025772-.4510227-.20257276-.4507656-.4512785.0002584-.2492212.2020589-.45076306.4510234-.45076306h.0002577c.7149354.00051546 2.593767.0010309 2.6989197 0 .5597836-.01237085.9966313.15824387 1.3260067.49380333.5365881.54741036.5262791 1.32110429.5231863 1.40744255l.0002578 2.64710539c0 .2492212-.2018005.45102078-.4510227.45102078M13.81242919 20c-.53349544 0-.96699269-.1662371-1.28863625-.4940722-.53658815-.5474227-.52627906-1.321134-.52318633-1.4074742l-.00025773-2.64742266c0-.24922681.20180044-.45103094.45102268-.45103094.24922225 0 .45102269.20180413.45102269.45103094v2.66288656c-.00025775.0170103-.00644319.4868557.26906725.7639176.15154363.1518041.37318906.2324742.6657095.2198453.13350269-.0018041 2.6069111-.0002577 2.7120638 0 .2492223.0002577.4510227.2023196.4507652.4512887-.000258.248969-.2020584.4507732-.4510229.4507732h-.0002578c-.7149354-.0005155-2.59350924-.0015464-2.69891967 0C13.837171 20 13.82480006 20 13.81242919 20" stroke="#1A1A1A" stroke-width=".31" fill="#1A1A1A"/><path d="M23.1871886 20c-.0126282 0-.0249986 0-.0376267-.0002577-.1046332-.0012887-1.9833913-.0002577-2.6982987 0h-.0002577c-.2489548 0-.4507473-.2015464-.4510057-.4507732-.0002571-.2489691.2015355-.451031.450748-.4512887.1054063 0 2.5782024-.0012886 2.7114422 0 .3051371.0090206.5146612-.0680412.6661989-.2198453.2754996-.2770619.2693143-.7469073.2693143-.7518042l-.0002576-2.67499996c0-.24922681.2017925-.45103094.451005-.45103094.2492125 0 .451005.20180413.451005.45103094v2.66288656c.0028349.0708763.0131436.8445876-.5234235 1.3920103C24.1544011 19.8337629 23.7209208 20 23.1871886 20" stroke="#1A1A1A" stroke-width=".2" fill="#1A1A1A"/></g></g></svg>
