<svg width="160" height="160" viewBox="0 0 160 160" fill="none" xmlns="http://www.w3.org/2000/svg">
<path d="M149.2 95.8C149.2 79.4 136.7 65.8 120.7 64.1C118.4 55.8 113.5 48.4 106.9 42.8C99.3 36.5 89.5 33 79.6 33C69.7 33 59.9 36.5 52.3 42.8C45.6 48.3 40.8 55.8 38.5 64.1C22.5 65.8 10 79.4 10 95.8C10 97.4 10.2 108.6 18.6 117.2C25 123.8 34.3 127.1 46.1 127.1C57.5 127.1 68.8 125.1 79.6 121.2C83 122.4 86.5 123.5 90 124.3C97.6 126.1 105.3 127.1 113.1 127.1C125 127.1 134.3 123.8 140.6 117.2C149 108.7 149.2 97.6 149.2 95.8C149.2 95.9 149.2 95.8 149.2 95.8ZM140.5 95.9C140.5 96 140.6 104.8 134.3 111.2C129.6 116 122.5 118.4 113.1 118.4C97.2 118.4 84.3 114.1 76.3 110.5C68.8 107.1 64 103.6 62.8 102.7C62.7 102.6 62.6 102.5 62.5 102.4C62.5 102.3 62.4 102.2 62.4 102V83.9C62.4 83.6 62.6 83.3 62.9 83.1L79.2 74.7C79.5 74.6 79.8 74.6 80 74.7L96.3 83.1C96.6 83.3 96.8 83.6 96.8 83.9V102.1C96.8 102.4 96.7 102.6 96.6 102.7C95.8 103.4 93 105.4 88.6 107.8C92.2 108.9 96.3 109.8 100.7 110.5C101.7 109.8 102.2 109.4 102.3 109.3L102.4 109.2C103.9 107.9 105.6 105.3 105.6 102V83.9C105.6 80.3 103.6 77 100.4 75.3L84.1 66.9C81.3 65.5 78.1 65.5 75.3 66.9L58.9 75.3C55.7 77 53.7 80.2 53.7 83.9V102.1C53.7 105.4 55.4 108 56.9 109.3L57 109.4C57.2 109.6 60.9 112.5 67.4 116C60.5 117.7 53.3 118.6 46.1 118.6C36.7 118.6 29.6 116.2 24.9 111.4C18.6 105 18.7 96.1 18.7 96V95.9C18.7 83.1 29.1 72.7 41.9 72.7H45.5L46.2 69.2C47.7 61.6 51.8 54.6 57.8 49.6C63.9 44.6 71.6 41.8 79.5 41.8C87.4 41.8 95.2 44.6 101.2 49.6C107.2 54.6 111.3 61.5 112.8 69.2L113.5 72.7H117.1C129.9 72.7 140.3 83.1 140.3 95.9C140.5 95.9 140.5 95.9 140.5 95.9Z" fill="#1D97FF"/>
</svg>
