<svg width="132" height="132" viewBox="0 0 132 132" fill="none" xmlns="http://www.w3.org/2000/svg">
<g clip-path="url(#clip0)">
<path d="M21.5422 90.4523C19.4602 85.6854 21.0154 74.9184 22.0532 70.1307C26.8213 61.3009 29.8729 57.6831 30.8026 56.9779L52.5708 39.8784C55.6522 39.6645 62.252 39.3771 63.9993 39.9391C65.7466 40.5011 70.408 45.6156 72.5203 48.1026L79.0774 76.4216L79.0072 86.9432L75.2311 98.683C67.991 105.894 52.9373 120.976 50.6433 123.612C48.3493 126.249 45.4682 125.965 44.3144 125.493L33.8423 121.522C30.6097 113.152 23.6241 95.2191 21.5422 90.4523Z" fill="#D1E2E2"/>
<path opacity="0.5" d="M49.9811 69.4731L35.6931 82.0495L41.7266 95.1369L54.9704 86.7436L49.9811 69.4731Z" fill="#E6F0F0"/>
<path opacity="0.8" d="M20.6606 80.5561L22.1412 69.8578L37.7799 82.1182L42.7996 93.6744L33.8425 121.522L22.0039 91.686C20.6025 88.1543 20.1398 84.3198 20.6606 80.5561Z" fill="#B2CCCC"/>
<path opacity="0.8" d="M53.6931 86.0314L49.4638 72.018L57.8062 46.0812L72.5205 48.1026L79.0776 76.4216L75.3016 88.1614L53.6931 86.0314Z" fill="#D1E2E2"/>
<path opacity="0.8" d="M27.1693 62.0223L22.1412 69.8578L37.6921 82.3912L49.6491 72.3789L57.9915 46.4421L52.571 39.8785L34.1048 54.3904C31.3831 56.5293 29.0388 59.109 27.1693 62.0223Z" fill="#E6F0F0"/>
<path d="M57.7184 46.3542L52.571 39.8784L57.5815 39.5534C61.8066 39.2793 65.9288 40.9321 68.7942 44.0492L72.5205 48.1026L57.7184 46.3542Z" fill="#B2CCCC"/>
<path d="M33.8426 121.522L42.5266 93.5867L53.4203 85.9438L75.3895 87.8886L79.0777 76.4218L79.0074 86.9434L75.2314 98.6832L51.0222 123.409C49.0993 125.373 46.2049 126.03 43.6226 125.088L33.8426 121.522Z" fill="#B2CCCC"/>
<path d="M116.919 44.316C116.728 42.7576 114.67 40.1986 113.665 39.1139C111.07 37.5517 109.722 37.0803 109.372 37.0398L101.089 35.9396C100.255 36.3573 98.4964 37.2962 98.1287 37.7106C97.7609 38.125 97.3351 40.1699 97.1682 41.1405L99.8135 49.5063L101.448 52.2296L104.232 54.7003C107.221 55.4622 113.449 57.0693 114.45 57.402C115.451 57.7348 116.156 57.2185 116.383 56.9187L118.494 54.2786C118.049 51.6071 117.11 45.8744 116.919 44.316Z" fill="#D1E2E2"/>
<path d="M106.307 43.2322L111.952 44.3058L112.394 48.6332L107.663 48.4862L106.307 43.2322Z" fill="#E6F0F0"/>
<path opacity="0.8" d="M118.495 54.2786L117.495 47.9278C116.985 44.6839 115.643 41.6276 113.601 39.0564L111.42 44.6441L111.89 48.4179L118.495 54.2786Z" fill="#92ADAD"/>
<path opacity="0.8" d="M107.886 48.1049L106.832 43.814L100.681 38.3554L97.1683 41.1405L99.8136 49.5063L102.598 51.977L107.886 48.1049Z" fill="#B2CCCC"/>
<path opacity="0.8" d="M101.089 35.9396L105.331 36.5039C108.211 36.887 111.006 37.7498 113.601 39.0564L111.485 44.7015L106.84 43.9361L100.689 38.4776L101.089 35.9396Z" fill="#D1E2E2"/>
<path d="M100.746 38.413L101.089 35.9397C99.0942 36.9506 97.664 38.81 97.1987 40.9974L97.1682 41.1406L100.746 38.413Z" fill="#B2CCCC"/>
<path d="M118.495 54.2788L111.948 48.3534L107.943 48.0404L102.533 51.9198L99.8137 49.5065L101.448 52.2298L104.232 54.7005L111.285 56.5932C113.934 57.304 116.754 56.3988 118.495 54.2788Z" fill="#B2CCCC"/>
<path d="M22.1978 25.706C22.3889 24.1475 24.4466 21.5885 25.4515 20.5038C28.0466 18.9417 29.3952 18.4702 29.7451 18.4298L38.0277 17.3296C38.8613 17.7472 40.6204 18.6861 40.9881 19.1005C41.3558 19.5149 41.7816 21.5598 41.9486 22.5305L39.3033 30.8963L37.6691 33.6195L34.8849 36.0902C31.896 36.8522 25.6681 38.4592 24.6671 38.792C23.6661 39.1247 22.9611 38.6084 22.7337 38.3087L20.6223 35.6686C21.0678 32.997 22.0067 27.2644 22.1978 25.706Z" fill="#D1E2E2"/>
<path d="M32.8095 24.6221L27.1652 25.6958L26.7231 30.0232L31.4536 29.8761L32.8095 24.6221Z" fill="#E6F0F0"/>
<path opacity="0.8" d="M20.6223 35.6686L21.6215 29.3177C22.1319 26.0739 23.4737 23.0175 25.5162 20.4464L27.697 26.034L27.2266 29.8078L20.6223 35.6686Z" fill="#92ADAD"/>
<path opacity="0.8" d="M31.2311 29.4949L32.2843 25.2039L38.4354 19.7454L41.9485 22.5305L39.3032 30.8962L36.519 33.3669L31.2311 29.4949Z" fill="#B2CCCC"/>
<path opacity="0.8" d="M38.0275 17.3295L33.7859 17.8939C30.9061 18.277 28.1109 19.1398 25.5161 20.4463L27.6322 26.0915L32.2769 25.3261L38.428 19.8676L38.0275 17.3295Z" fill="#D1E2E2"/>
<path d="M38.3707 19.8029L38.0277 17.3296C40.0226 18.3405 41.4528 20.1999 41.9181 22.3874L41.9485 22.5305L38.3707 19.8029Z" fill="#B2CCCC"/>
<path d="M20.6221 35.6688L27.169 29.7433L31.1735 29.4303L36.5836 33.3097L39.3031 30.8965L37.6689 33.6197L34.8847 36.0904L27.8313 37.9831C25.1823 38.694 22.3624 37.7887 20.6221 35.6688Z" fill="#B2CCCC"/>
</g>
<defs>
<clipPath id="clip0">
<rect width="132" height="132" fill="white"/>
</clipPath>
</defs>
</svg>
