<svg width="121" height="121" viewBox="0 0 121 121" fill="none" xmlns="http://www.w3.org/2000/svg">
<path d="M22.7625 40.3592L17.7252 54.1428C17.4479 55.0537 14.1176 62.2449 13.9367 62.6425L19.2122 61.594L23.5528 39.7737C23.454 39.7791 22.8547 40.1574 22.7625 40.3592Z" fill="#00DC82"/>
<path d="M26.989 41.6413C26.6838 41.3584 23.9068 39.5912 23.5478 39.7787L18.9629 61.6204L28.8079 60.4381L44.5396 53.147L26.989 41.6413Z" fill="#33E39B"/>
<path d="M41.7274 116.45L13.9313 62.6322L19.2066 61.5831L50.636 114.222C50.636 114.222 41.89 116.601 41.7274 116.45Z" fill="#00DC82"/>
<path d="M76.5956 115.517L50.6381 114.228L18.9567 61.5857L23.735 60.6361L44.5318 53.1434L86.3934 110.618L80.7801 109.904L76.5956 115.517Z" fill="#33E39B"/>
<path opacity="0.75" d="M35.9286 58.2898L27.8719 59.891L22.8727 67.673L25.3485 71.6077L32.2398 66.3436L35.9286 58.2898Z" fill="#33E39B"/>
<path opacity="0.75" d="M44.5368 53.146L49.4839 81.1289L21.1187 51.429L22.1919 46.2412L37.6613 48.639L44.5368 53.146Z" fill="#99F1CD"/>
<path d="M99.2495 45.7063L103.106 56.2598C103.319 56.9572 105.869 62.4631 106.007 62.7676L101.968 61.9648L98.6444 45.258C98.72 45.2621 99.1789 45.5518 99.2495 45.7063Z" fill="#00DC82"/>
<path d="M96.014 46.688C96.2476 46.4714 98.3739 45.1184 98.6487 45.2619L102.159 61.9852L94.6213 61.0799L82.5763 55.4974L96.014 46.688Z" fill="#33E39B"/>
<path d="M86.7761 110.769L106.012 62.7599L101.973 61.9566L76.6209 101.81C76.6209 101.81 86.6516 110.885 86.7761 110.769Z" fill="#00DC82"/>
<path d="M58.0326 103.252L80.9197 108.815L102.164 61.9586L98.5055 61.2315L82.5824 55.4946L50.5308 99.5007L54.8287 98.9537L58.0326 103.252Z" fill="#33E39B"/>
<path opacity="0.75" d="M89.1694 59.435L95.3381 60.661L99.1657 66.6193L97.2701 69.6319L91.9938 65.6015L89.1694 59.435Z" fill="#33E39B"/>
<path opacity="0.75" d="M82.5785 55.4967L78.7906 76.9219L100.509 54.1821L99.6869 50.21L87.8427 52.0459L82.5785 55.4967Z" fill="#99F1CD"/>
<path d="M59.1025 8.46003L47.7274 28.4869C47.05 29.8313 40.1764 40.0154 39.8007 40.5798L47.2067 40.8964L60.3563 7.82612C60.2223 7.79759 59.2937 8.1738 59.1025 8.46003Z" fill="#00DC82"/>
<path d="M64.3258 12.0814C64.013 11.5168 60.8953 7.66186 60.3523 7.825L46.869 40.8375L60.4291 42.6596L83.9159 36.9806L64.3258 12.0814Z" fill="#33E39B"/>
<path d="M54.9957 114.227L39.8029 40.554L47.2089 40.8696L68.1724 115.102C68.1724 115.102 55.1623 114.528 54.9957 114.227Z" fill="#00DC82"/>
<path d="M80.0893 100.485C79.7303 101.021 65.4995 102.204 64.9721 101.995L46.8674 40.7847L53.5754 41.0715L83.9018 36.9766L80.0893 100.485Z" fill="#33E39B"/>
<path opacity="0.75" d="M70.6715 41.9241L59.3611 41.4406L50.0575 51.9368L52.0427 59.1255L63.0282 53.3454L70.6715 41.9241Z" fill="#33E39B"/>
<path opacity="0.75" d="M83.9144 36.9781L79.3256 111.085L53.1842 25.4401L56.3657 17.5932L76.2398 27.2245L83.9144 36.9781Z" fill="#99F1CD"/>
</svg>
