<svg width="120" height="120" viewBox="0 0 120 120" fill="none" xmlns="http://www.w3.org/2000/svg">
<path d="M61.2193 14.8736L46.7605 2.30078L36.0737 109.379L41.1028 110.636H48.0178L52.4183 107.912H58.9143L61.2193 14.8736Z" fill="#00DC82"/>
<path d="M87.9976 57.0127L91.1228 67.9779C91.2911 68.704 93.4041 74.4076 93.5187 74.7231L89.9195 74.0077L87.4689 56.561C87.5366 56.5629 87.9392 56.8527 87.9976 57.0127Z" fill="#00DC82"/>
<path d="M85.0632 58.1469C85.2798 57.912 87.231 56.423 87.4731 56.5651L90.091 74.0232L83.3553 73.311L72.7238 67.8281L85.0632 58.1469Z" fill="#33E39B"/>
<path d="M81.2141 99.3638L93.5242 74.7149L89.9251 73.999L74.2075 101.31C74.3559 101.29 81.0987 99.4893 81.2141 99.3638Z" fill="#00DC82"/>
<path d="M67.1233 98.818C67.2331 99.1179 73.9393 101.354 74.2175 101.316L90.0963 73.9951L86.8363 73.3472L72.7294 67.8249L67.1233 98.818Z" fill="#33E39B"/>
<path opacity="0.75" d="M78.5154 71.7558L84.0122 72.8483L87.2574 78.9867L85.4604 82.2118L80.8537 78.1448L78.5154 71.7558Z" fill="#33E39B"/>
<path opacity="0.75" d="M72.726 67.8272L68.6447 90.4565L88.8584 65.8776L88.2474 61.7306L77.56 64.0349L72.726 67.8272Z" fill="#99F1CD"/>
<path d="M104.197 98.1794L95.4797 105.529C94.8867 105.98 90.5524 110.248 90.3118 110.481L89.4872 106.906L104.392 97.5118C104.418 97.5744 104.319 98.0604 104.197 98.1794Z" fill="#00DC82"/>
<path d="M101.959 95.9688C102.262 96.0699 104.42 97.2383 104.39 97.5174L89.5436 107.068L87.4291 100.634L88.0667 88.6887L101.959 95.9688Z" fill="#33E39B"/>
<path d="M62.7921 109.371L90.3215 110.483L89.4974 106.907L58.1419 103.781C58.2209 103.908 62.6302 109.318 62.7921 109.371Z" fill="#00DC82"/>
<path d="M57.5076 96.2977C57.2793 96.5209 57.9916 103.554 58.141 103.792L89.5712 107.062L88.8243 103.823L88.0717 88.6925L57.5076 96.2977Z" fill="#33E39B"/>
<path opacity="0.75" d="M86.8614 95.5819L88.1207 101.043L83.8545 106.521L80.176 106.206L81.9946 100.336L86.8614 95.5819Z" fill="#33E39B"/>
<path opacity="0.75" d="M88.0683 88.6902L65.7571 94.2541L96.4659 102.602L99.997 100.343L93.5101 91.5424L88.0683 88.6902Z" fill="#99F1CD"/>
<path opacity="0.75" d="M47.1256 32.7225L47.1256 15.5719L61.1438 30.7944L60.937 38.8612L54.3033 35.988L47.1256 32.7225Z" fill="#99F1CD"/>
<path d="M67.2471 25.6977L74.858 34.4943C75.3198 35.0913 79.811 39.483 80.0569 39.7268L75.8526 40.4342L66.4967 25.4862C66.5715 25.4624 67.122 25.5741 67.2471 25.6977Z" fill="#00DC82"/>
<path d="M64.475 27.8371C64.6215 27.5416 66.1821 25.4508 66.5009 25.4887L76.0438 40.3838L68.4159 42.2776L54.707 41.3012L64.475 27.8371Z" fill="#33E39B"/>
<path d="M73.2574 95.3354L80.057 39.7177L75.8527 40.4246L66.1311 96.8267C66.1311 96.8267 73.1794 95.4932 73.2574 95.3354Z" fill="#00DC82"/>
<path d="M48.5016 96.538L66.1311 96.538L76.0386 40.3563L72.2306 40.997L54.7117 41.2962L39.8629 95.6646L43.8214 93.5558L48.5016 96.538Z" fill="#33E39B"/>
<path opacity="0.75" d="M62.5349 42.6892L68.9556 41.6089L74.8496 45.9689L74.1221 49.5811L67.5344 47.6193L62.5349 42.6892Z" fill="#33E39B"/>
<path opacity="0.75" d="M54.7088 41.2996L58.9162 63.4274L71.5789 33.4383L69.3239 29.896L58.5355 36.0254L54.7088 41.2996Z" fill="#99F1CD"/>
<path d="M33.0556 55.8211L19.254 48.7253L18.6953 56.9961L40.6142 108.631L44.914 104.62L33.0556 55.8211Z" fill="#33E39B"/>
<path d="M25.5231 72.4161L21.9639 64.5282L21.4829 61.4605H34.3053L37.6383 74.8455L25.5231 72.4161Z" fill="#7FEDC0"/>
<path d="M19.2623 48.7433L13 66.2776L31.7042 109.426L40.6539 108.671L22.1563 65.1054L19.2623 48.7433Z" fill="#00DC82"/>
<path d="M47.1335 2L29.1633 13.9801L35.6525 109.571H47.1335V2Z" fill="#33E39B"/>
<path opacity="0.75" d="M47.1045 79.8434L47.1045 62.7112L33.9915 78.1153L33.9914 86.6271L39.6094 83.4637L47.1045 79.8434Z" fill="#99F1CD"/>
</svg>
