
<svg width="375" height="567" viewBox="0 0 375 567" fill="none" xmlns="http://www.w3.org/2000/svg">
<g clip-path="url(#clip0)">
<path d="M231.234 213.452V249.756L466.643 204.943L471.181 162.399V134.037L459.269 134.037L384.959 157.294L342.415 165.236L264.702 192.464L231.234 213.452Z" fill="#012934"/>
<path d="M224.52 220.83V213.202L264.045 191.488L323.198 166.971L346.159 160.744L367.952 158.409L383.518 155.296L417.765 144.788L429.829 140.118L471.859 130V135.837L462.519 137.783L423.992 148.291L377.292 162.69L344.213 166.971L323.198 175.921L264.045 197.325L224.52 220.83Z" fill="#29434A"/>
<path d="M167.9 312.902C176.386 307.397 181.127 294.493 182.436 288.729L175.546 435.569H115.889L131.494 429.53C126.151 431.577 121.478 429.794 119.12 429.53C123.188 428.757 132.752 422.926 136.067 420.031C134.935 420.934 126.674 421.78 124.436 421.403C129.543 420.079 141.578 401.652 140.662 402.622C139.928 403.399 134.245 403.946 131.494 404.122C135.476 402.852 144.066 391.242 147.864 385.596C145.559 386.866 140.356 388.007 138.042 388.419C147.471 384.255 154.106 369.216 156.245 362.217C154.778 363.135 149.435 363.952 146.947 364.246C155.748 357.33 159.868 348.484 160.829 344.926C159.362 346.337 155.503 346.161 153.757 345.896C160.357 340.603 166.373 330.34 168.555 325.87C166.879 326.999 162.182 326.752 160.043 326.488C166.329 325.076 170.956 316.842 172.484 312.902C171.122 313.678 168.86 313.225 167.9 312.902Z" fill="#00151A"/>
<path d="M192.078 310.905C187.481 308.347 184.847 294.589 182.348 288.585C182.165 291.9 182.032 295.941 181.714 299.373C181.525 301.416 181.355 303.088 181.122 305.165C180.757 308.418 180.93 311.7 180.464 315.019C180.026 318.13 179.547 321.266 179.029 324.416C178.505 327.603 177.942 330.806 177.344 334.014C176.644 337.767 175.896 341.527 175.107 345.28C174.236 349.421 173.314 353.553 172.351 357.656C171.47 361.408 170.554 365.135 169.61 368.822C168.474 373.259 167.298 377.638 166.092 381.931C165.304 384.738 164.503 387.508 163.693 390.234C163.028 392.473 162.357 394.682 161.682 396.857C160.756 399.841 159.821 402.761 158.882 405.607C157.599 409.501 156.308 413.256 155.023 416.844C153.685 420.579 152.353 424.133 151.04 427.475C149.842 430.527 148.808 432.89 147.651 435.565H234.345L248.295 437.27C242.636 435.575 236.637 430.034 234.345 427.475C238.275 428.534 245.282 427.916 248.295 427.475C235.406 421.757 228.516 415.033 226.682 412.386C231.398 414.398 236.506 413.224 238.471 412.386C228.883 408.362 222.687 400.827 220.788 397.562C225.504 399.044 229.826 398.797 231.398 398.488C221.653 393.512 213.977 381.061 211.357 375.458C217.33 376.94 220.133 376.87 220.788 376.649C213.715 372.52 206.576 363.193 203.891 359.045C207.035 360.316 212.536 359.575 214.894 359.045C209.707 357.139 201.73 350.133 198.39 346.868C201.376 348.033 207.624 348.677 210.375 348.854C204.245 346.63 195.623 333.368 192.078 327.014C193.944 327.862 198.111 327.809 199.962 327.676C196.504 325.558 189.221 315.613 186.012 310.905C188.212 312.418 190.973 311.535 192.078 310.905Z" fill="#00151A"/>
<path d="M113.821 283.405C123.263 277.281 128.537 262.924 129.995 256.511L122.328 419.886H55.9531L73.3163 413.167C67.3715 415.444 62.1713 413.462 59.5487 413.167C64.0749 412.307 74.7156 405.82 78.4035 402.599C77.1443 403.604 67.9531 404.544 65.4624 404.125C71.1449 402.652 84.5356 382.15 83.5157 383.23C82.6997 384.093 76.3761 384.702 73.3163 384.898C77.7457 383.485 87.3039 370.568 91.5293 364.286C88.9649 365.699 83.1754 366.968 80.6011 367.427C91.0919 362.794 98.4743 346.061 100.854 338.274C99.2222 339.295 93.2776 340.205 90.5093 340.532C100.301 332.836 104.885 322.995 105.954 319.036C104.322 320.606 100.029 320.41 98.0858 320.115C105.429 314.226 112.122 302.807 114.55 297.834C112.685 299.091 107.459 298.816 105.079 298.521C112.073 296.951 117.221 287.79 118.921 283.405C117.406 284.269 114.89 283.765 113.821 283.405Z" fill="#00151A"/>
<path d="M140.722 281.184C135.608 278.338 132.677 263.031 129.897 256.351C129.693 260.039 129.545 264.535 129.191 268.354C128.981 270.626 128.792 272.487 128.533 274.798C128.126 278.417 128.319 282.069 127.8 285.761C127.314 289.223 126.78 292.711 126.204 296.216C125.621 299.762 124.995 303.326 124.329 306.895C123.55 311.07 122.718 315.254 121.84 319.43C120.871 324.037 119.846 328.635 118.774 333.199C117.794 337.374 116.775 341.521 115.725 345.623C114.461 350.559 113.152 355.431 111.81 360.209C110.933 363.331 110.042 366.413 109.141 369.447C108.402 371.937 107.655 374.395 106.904 376.815C105.873 380.135 104.833 383.384 103.789 386.55C102.36 390.883 100.925 395.06 99.4947 399.053C98.0063 403.208 96.5243 407.162 95.0637 410.881C93.7298 414.277 92.5798 416.905 91.293 419.882H187.749L203.27 421.779C196.974 419.894 190.3 413.728 187.749 410.881C192.121 412.059 199.918 411.372 203.27 410.881C188.93 404.519 181.264 397.038 179.224 394.093C184.47 396.331 190.154 395.026 192.34 394.093C181.672 389.616 174.779 381.232 172.666 377.599C177.912 379.249 182.721 378.974 184.47 378.63C173.627 373.093 165.087 359.24 162.173 353.006C168.818 354.656 171.937 354.577 172.666 354.332C164.796 349.737 156.853 339.36 153.866 334.745C157.363 336.159 163.484 335.335 166.108 334.745C160.336 332.625 151.461 324.83 147.745 321.197C151.068 322.493 158.019 323.21 161.08 323.406C154.259 320.932 144.666 306.176 140.722 299.108C142.799 300.05 147.435 299.991 149.494 299.844C145.646 297.488 137.544 286.422 133.973 281.184C136.421 282.867 139.493 281.885 140.722 281.184Z" fill="#00151A"/>
<path d="M279.228 274.73L274.324 298.05V368.01L318.081 373.433L377.68 381.568L373.154 323.539L366.364 280.153H351.653L346.372 293.169L336.187 286.661C333.169 290.457 326.983 298.05 326.379 298.05C325.776 298.05 315.063 304.919 309.782 308.354L299.975 293.169L293.185 280.153L287.149 286.661L279.228 274.73Z" fill="#001E26"/>
<path d="M309.967 335.492L320.018 349.655C320.912 351.395 330.2 364.671 330.707 365.406H320.018L308.932 334.726C309.345 334.849 309.708 335.119 309.967 335.492Z" fill="#00DC82"/>
<path d="M306.848 335.493C307.333 334.795 308.159 334.491 308.932 334.727L320.512 365.349H310.83H286.145L306.848 335.493Z" fill="#33E39B"/>
<path opacity="0.75" d="M286.145 365.349H302.469L315.239 351.546L311.945 342.546L296.466 350.464L286.145 365.349Z" fill="#99F1CD"/>
<path d="M289.641 343.766L294.091 350.232C294.091 350.232 295.187 352.127 296.293 353.735C296.293 354.369 296.293 355.46 296.293 356.04C296.293 356.959 296.293 357.179 296.293 357.297H294.187L289.173 343.419C289.359 343.475 289.524 343.597 289.641 343.766Z" fill="#00DC82"/>
<path d="M288.231 343.766C288.45 343.45 288.824 343.312 289.173 343.419L294.411 357.271H290.032H278.866L288.231 343.766Z" fill="#33E39B"/>
<path opacity="0.75" d="M278.865 357.271H286.25L292.026 351.027L290.536 346.956L283.535 350.537L278.865 357.271Z" fill="#99F1CD"/>
<path d="M279.228 344.067L274.324 360.288V408.948L318.081 412.72L377.68 418.378L373.154 378.016L366.364 347.839H351.653L346.372 356.893L336.187 352.366C333.169 355.007 326.983 360.288 326.379 360.288C325.776 360.288 315.063 365.065 309.782 367.454L299.975 356.893L293.185 347.839L287.149 352.366L279.228 344.067Z" fill="#001216"/>
<path d="M269.05 254.577C269.05 260.375 192.281 535.641 466.931 406.146C741.581 276.652 282.382 254.577 269.05 254.577Z" fill="url(#paint0_radial)"/>
<path d="M352.212 373.951L354.26 359L371.744 368.897L379.461 410.402L368.399 416.231L345.962 414.262L345.204 407.693L352.385 400.909L353.407 384.324L352.212 373.951Z" fill="#001E26"/>
<path d="M-46.6421 363.36C-51.9344 360.386 -54.9025 344.68 -57.7791 337.699C-57.9898 341.553 -58.0023 345.387 -58.368 349.378C-58.5855 351.753 -58.3051 354.26 -58.5737 356.675C-58.9945 360.457 -59.4761 364.284 -60.0131 368.143C-60.5165 371.761 -61.0686 375.407 -61.6647 379.069C-62.2679 382.776 -62.9163 386.499 -63.6051 390.23C-64.4108 394.593 -65.2718 398.966 -66.1806 403.329C-67.1833 408.144 -68.2443 412.949 -69.3533 417.719C-70.3674 422.081 -71.4217 426.415 -72.5085 430.702C-73.8162 435.861 -75.1709 440.953 -76.5591 445.945C-77.4665 449.208 -78.3882 452.429 -79.3204 455.599C-80.0858 458.202 -80.8584 460.77 -81.6359 463.299C-82.7026 466.769 -83.7788 470.164 -84.8591 473.474C-86.3371 478.001 -87.8227 482.367 -89.3024 486.539C-90.8424 490.882 -92.3759 495.014 -93.8873 498.9C-95.2675 502.449 -96.4575 505.196 -97.7891 508.307H2.01898L18.0791 510.289C11.5646 508.319 4.65797 501.876 2.01898 498.9C6.54296 500.132 14.6107 499.413 18.0791 498.9C3.24046 492.252 -4.69157 484.434 -6.80276 481.356C-1.37399 483.695 4.50717 482.331 6.76917 481.356C-4.26933 476.677 -11.4021 467.915 -13.5887 464.119C-8.15993 465.843 -3.18358 465.556 -1.37399 465.197C-12.5934 459.41 -21.4303 444.933 -24.4462 438.418C-17.5698 440.142 -14.3427 440.06 -13.5887 439.803C-21.7319 435.002 -29.9504 424.157 -33.0418 419.335C-29.4226 420.812 -23.089 419.95 -20.3747 419.335C-26.3463 417.119 -35.53 408.972 -39.3754 405.176C-35.9371 406.53 -28.744 407.279 -25.5772 407.484C-32.6346 404.899 -42.5611 389.478 -46.6421 382.091C-44.4933 383.076 -39.6959 383.015 -37.5658 382.861C-41.5469 380.398 -49.9313 368.834 -53.6259 363.36C-51.0925 365.119 -47.9144 364.093 -46.6421 363.36Z" fill="#00151A"/>
<path d="M-27.9009 389.747C-33.1932 386.772 -36.1613 371.066 -39.0379 364.086C-39.2486 367.94 -39.2611 371.774 -39.6267 375.765C-39.8443 378.14 -39.5639 380.647 -39.8325 383.061C-40.2533 386.844 -40.7349 390.671 -41.2719 394.53C-41.7753 398.148 -42.3274 401.793 -42.9235 405.456C-43.5267 409.162 -44.1751 412.886 -44.8638 416.616C-45.6695 420.98 -46.5306 425.352 -47.4394 429.716C-48.4421 434.531 -49.503 439.335 -50.612 444.106C-51.6262 448.468 -52.6805 452.802 -53.7673 457.089C-55.075 462.248 -56.4297 467.339 -57.8179 472.332C-58.7253 475.595 -59.647 478.816 -60.5792 481.986C-61.3446 484.589 -62.1172 487.157 -62.8947 489.686C-63.9614 493.156 -65.0376 496.551 -66.1179 499.86C-67.5959 504.388 -69.0815 508.754 -70.5611 512.926C-72.1012 517.268 -73.6347 521.401 -75.1461 525.287C-76.5263 528.836 -77.7163 531.583 -79.0479 534.694H20.7602L36.8203 536.676C30.3058 534.706 23.3992 528.263 20.7602 525.287C25.2842 526.518 33.3519 525.8 36.8203 525.287C21.9817 518.639 14.0496 510.821 11.9385 507.743C17.3672 510.082 23.2484 508.717 25.5104 507.743C14.4719 503.064 7.3391 494.302 5.15251 490.506C10.5813 492.23 15.5576 491.942 17.3672 491.583C6.14777 485.797 -2.68905 471.32 -5.70503 464.805C1.17141 466.529 4.39851 466.446 5.15251 466.19C-2.99065 461.388 -11.2092 450.544 -14.3006 445.721C-10.6814 447.199 -4.34783 446.337 -1.63345 445.721C-7.60509 443.505 -16.7888 435.359 -20.6341 431.563C-17.1959 432.917 -10.0028 433.666 -6.83602 433.871C-13.8934 431.286 -23.8199 415.865 -27.9009 408.478C-25.7521 409.463 -20.9547 409.401 -18.8246 409.247C-22.8057 406.785 -31.1901 395.221 -34.8847 389.747C-32.3513 391.506 -29.1732 390.48 -27.9009 389.747Z" fill="#00151A"/>
<path d="M8.31073 337.407C18.0803 331.006 23.5383 316.002 25.0461 309.3L17.1134 480.036H-51.5684L-33.6018 473.015C-39.7532 475.394 -45.1341 473.322 -47.8478 473.015C-43.1644 472.116 -32.1539 465.336 -28.3379 461.97C-29.6407 463.02 -39.1513 464.003 -41.7286 463.565C-35.8486 462.026 -21.9926 440.6 -23.048 441.728C-23.8923 442.631 -30.4357 443.267 -33.6018 443.472C-29.0185 441.995 -19.1281 428.496 -14.7559 421.931C-17.4094 423.408 -23.4001 424.735 -26.0638 425.213C-15.2086 420.372 -7.56961 402.885 -5.10707 394.748C-6.79567 395.814 -12.9469 396.765 -15.8114 397.107C-5.67982 389.065 -0.935623 378.78 0.170006 374.642C-1.51859 376.284 -5.9613 376.078 -7.97159 375.771C-0.372894 369.616 6.55238 357.683 9.06517 352.485C7.13535 353.798 1.72756 353.511 -0.7351 353.204C6.50175 351.562 11.8289 341.988 13.5878 337.407C12.0199 338.309 9.41645 337.783 8.31073 337.407Z" fill="#00151A"/>
<path d="M36.146 335.085C30.8536 332.111 27.8856 316.405 25.009 309.425C24.7983 313.279 24.7858 317.113 24.4201 321.104C24.2025 323.479 24.483 325.986 24.2143 328.4C23.7936 332.183 23.312 336.01 22.775 339.869C22.2716 343.487 21.7195 347.132 21.1234 350.795C20.5202 354.501 19.8718 358.225 19.183 361.955C18.3773 366.319 17.5163 370.691 16.6075 375.055C15.6047 379.87 14.5438 384.674 13.4348 389.445C12.4207 393.807 11.3664 398.141 10.2796 402.428C8.97188 407.587 7.6172 412.678 6.22896 417.671C5.3216 420.934 4.39991 424.155 3.46766 427.325C2.70225 429.928 1.92972 432.496 1.15215 435.025C0.0854607 438.494 -0.990721 441.89 -2.07102 445.199C-3.54899 449.727 -5.03466 454.093 -6.51427 458.265C-8.05433 462.607 -9.58783 466.74 -11.0992 470.626C-12.4794 474.175 -13.6694 476.922 -15.001 480.033H84.8071L100.867 482.015C94.3527 480.045 87.4461 473.601 84.8071 470.626C89.331 471.857 97.3988 471.139 100.867 470.626C86.0285 463.978 78.0965 456.16 75.9853 453.082C81.4141 455.421 87.2953 454.056 89.5573 453.082C78.5188 448.403 71.386 439.641 69.1994 435.845C74.6282 437.569 79.6045 437.281 81.4141 436.922C70.1946 431.136 61.3578 416.659 58.3418 410.144C65.2183 411.867 68.4454 411.785 69.1994 411.529C61.0562 406.727 52.8377 395.882 49.7463 391.06C53.3655 392.538 59.699 391.676 62.4134 391.06C56.4418 388.844 47.2581 380.698 43.4127 376.902C46.8509 378.256 54.0441 379.005 57.2109 379.21C50.1535 376.625 40.227 361.204 36.146 353.817C38.2947 354.802 43.0922 354.74 45.2223 354.586C41.2412 352.124 32.8568 340.56 29.1622 335.085C31.6956 336.845 34.8736 335.818 36.146 335.085Z" fill="#00151A"/>
<path d="M278.442 409.788L254.878 413.155L251.512 392.676V376.686V359.574L254.878 333.486L284.053 295.136L296.957 287.001L323.046 290.087L335.436 297.301L320.521 301.308L312.386 306.077L300.323 311.968L289.944 320.02L280.686 337.132L275.917 354.244L278.442 409.788Z" fill="#001E26"/>
<path d="M276.61 278.783L274.202 254.721L304.651 250.56L308.788 274.385L276.61 278.783Z" fill="#003543"/>
<rect width="9.84538" height="3.71272" transform="matrix(0.988687 -0.149996 0.13951 0.990221 277.926 260.434)" fill="#1B7064"/>
<rect width="9.84537" height="3.71272" transform="matrix(0.988687 -0.149996 0.13951 0.990221 294.535 265.424)" fill="#28AAF0"/>
<rect width="5.90723" height="3.71272" transform="matrix(0.988687 -0.149996 0.13951 0.990221 278.961 267.787)" fill="#00DC82"/>
<path d="M295.227 257.543L303.09 256.381L303.608 260.057L295.745 261.22L295.227 257.543Z" fill="#00BB6F"/>
<rect width="5.90721" height="3.71272" transform="matrix(0.988687 -0.149996 0.13951 0.990221 286.748 266.605)" fill="#1B7064"/>
<rect width="3.28178" height="3.71272" transform="matrix(0.988687 -0.149996 0.13951 0.990221 289.605 258.662)" fill="#00DC82"/>
<path d="M151.54 572.101L160.004 608.681V611.863H378.689L374.681 608.681L351.598 587.465L331.592 563.322L306.2 537.716V508.452L294.902 455.007L188.554 422.034L151.539 420.867L40.2715 431.292L191.1 443.928L178.932 452.478L196.937 479.188L151.54 572.101Z" fill="url(#paint1_linear)"/>
<path d="M344.019 442.361L323.474 428.814L319.533 417.866L344.114 435.316L344.019 442.361Z" fill="#B4B48C"/>
<path d="M255.563 439.695L327.651 423.993L693.377 500.8V612.833H444.184H335.033L313.615 591.827L284.698 550.438L281.442 518.421L300.926 481.738L295.117 455.184L255.563 439.695Z" fill="#003543"/>
<path d="M261.016 454.903L253.516 447.521L258.102 454.696L260.687 458.74L262.803 462.051L266.776 463.915L269.833 468.697L276.886 468.853L279.307 469.377L287.159 471.871L282.022 467.642L275.592 466.829L263.955 459.501L261.016 454.903Z" fill="white"/>
<path opacity="0.3" d="M202.062 484.377L170.702 453.079L243.247 442.445L274.417 436.211L299.2 432.67L334.683 424.765L371.829 432.892L348.585 446.049L202.062 484.377Z" fill="#003543"/>
<path d="M351.359 437.454L329.363 426.934L353.259 414.242L385.258 415.448H463.217V464.231H418.302L382.918 444.148L351.359 437.454Z" fill="#255461"/>
<path d="M261.822 393.102V411.913L229.309 415.894L198.51 418.277L155.625 419.55L166.568 411.913L180.541 367.775L193.374 309.092L200.05 283.766L217.07 269.614L243.026 249.356L267.67 234.6L309.293 226.565H362.861L429.787 219.601L466.286 214.561V436.959L422.428 425.84L353.202 412.342L355.715 396.808V367.775L353.935 337.471L349.112 311.568L341.481 301.102L323.593 290.714L314.571 289.166L303.827 290.714L286.53 301.833L272.323 318.976L261.822 344.302V367.775V393.102Z" fill="#003543"/>
<path d="M220.116 533.14L224.346 508.29V528.916V540.542V550.06L220.116 559.048V572.795L209.541 582.313L206.369 586.542L196.852 601.876L200.553 586.542L209.541 576.497L220.116 546.359V533.14Z" fill="white"/>
<path d="M276.513 590.891L272.283 566.04V586.666V598.293V607.81L276.513 616.799V630.546L287.088 640.063L290.26 644.293L299.777 659.627L296.076 644.293L287.088 634.247L276.513 604.109V590.891Z" fill="white"/>
<path d="M242.119 487.565C241.246 486.804 241.755 483.058 242.119 481.281L243.865 483.947L247.358 487.565L245.175 499.564L242.119 496.516C242.483 493.85 242.992 488.327 242.119 487.565Z" fill="white"/>
<path d="M246.521 414.092L248.281 388.262H261.82L261.933 412.493L246.521 414.092Z" fill="#255461"/>
<path d="M283.595 305.623L272.547 296.679L284.412 287.155L292.259 282.053L304.107 276.193L315.446 273.645L323.983 274.409L334.895 278.613L343.941 282.053L352.349 288.296L357.446 296.323L363.606 311.229L369.057 336.048L371.316 363.56L374.601 400.311L354.942 397.642V361.809L353.158 336.048L348.731 311.229L341.437 301.164L335.704 297.724L323.983 290.972L315.446 289.808L304.744 290.972L302.833 291.991L286.653 302.056L283.595 305.623Z" fill="#497A87"/>
<path d="M250.832 342.012L248.295 388.262H261.813L262.374 366.993V344.549L272.151 319.213L283.595 305.618L272.508 296.599L265.432 304.358L259.217 314.901L253.673 329.478L250.832 342.012Z" fill="#497A87"/>
<path d="M245.712 354.924L240.902 352.952L239.475 351.356L241.163 349.049L245.648 349.568L247.547 348.973L252.399 348.249L255.252 347.738L258.382 346.558L259.077 348.836L266.054 351.955L265.13 353.053L262.08 353.852L259.127 353.124L254.809 352.479L245.957 352.585L245.712 354.924Z" fill="#003543"/>
<path d="M262.575 366.882L255.593 365.146L254.868 364.025L255.19 351.014L262.661 353.352L261.776 365.452L262.575 366.882Z" fill="#71A2B0"/>
<path d="M245.175 362.977L244.835 351.754L255.271 350.972L255.045 361.347L255.077 364.023L256.514 365.302L243.892 365.727L245.175 362.977Z" fill="#497A87"/>
<path d="M245.538 372.587L239.977 372.228L241.197 369.986L242.805 370.324L247.695 369.553L251.347 369.51L255.894 369.812L264.716 370.559L262.527 371.96L259.931 372.109L258.544 373.774C257.205 373.582 254.871 373.15 253.517 373.13C252.163 373.11 249.476 372.875 248.039 373.129L245.538 372.587Z" fill="#003543"/>
<path d="M246.71 362.927L246.599 353.567L253.101 353.132L253.217 362.849L246.71 362.927Z" fill="#001E26"/>
<path d="M246.645 362.928L247.365 354.612L253.118 354.544L253.217 362.85L246.645 362.928Z" fill="url(#paint2_radial)"/>
<path d="M240.054 349.129L239.708 351.06L241.948 349.845L244.735 349.812L246.331 349.588L252.469 348.736L256.358 348.28L258.865 348.906L266.033 351.936L265.644 350.178L265.628 348.826L263.665 345.816L261.396 344.531L258.801 343.496L254.613 342.89L248.589 342.962L246.263 343.891L244.683 345.468L243.513 347.039L241.349 347.68L240.054 349.129Z" fill="#255461"/>
<path d="M240.262 372.249L240.212 368.035L241.68 366.729L243.119 366.322L243.921 365.708L256.348 365.264L262.641 366.832L265.29 368.354L264.77 370.585L264.135 370.913L263.414 370.601L260.447 370.239L254.422 369.703L247.715 369.611L242.795 370.316L241.313 370.167L240.262 372.249Z" fill="#255461"/>
<path d="M245.287 232.654L236.365 247.651L292.737 231.295L293.552 228.462L284.754 230.034L283.858 226.873L276.157 229.055L271.784 224.223L266.485 236.513L261.4 229.985L262.079 216.891L257.542 221.267L253.694 219.918L249.532 237.848L246.638 237.421L245.287 232.654Z" fill="#001E26"/>
<path d="M438.402 200.701L474.357 209.347L313.029 224.25L308.517 222.163L332.872 218.967L332.562 215.696L354.556 213.614L361.948 207.047L386.143 215.182L393.974 206.74L381.196 195.481L396.75 196.995L405.693 193.791L431.65 207.522L438.868 205.633L438.402 200.701Z" fill="#001E26"/>
<path d="M188.328 292.281V279.782L240.917 245.332V253.761L188.328 292.281Z" fill="#497A87"/>
<path d="M240.889 253.772V245.373L265.186 232.197L297.597 224.114L295.853 233.124L268.74 239.022L240.889 253.772Z" fill="#497A87"/>
<path d="M295.752 233.09L297.593 224.116L327.931 222.31L376.2 218.609L374.109 227.62L336.942 230.677L295.752 233.09Z" fill="#497A87"/>
<path d="M421.21 308.639C438.637 297.333 448.374 270.832 451.063 258.995L436.912 560.563H314.393L346.443 548.161C335.469 552.365 325.871 548.705 321.03 548.161C329.384 546.574 349.026 534.599 355.833 528.653C353.509 530.509 336.543 532.245 331.946 531.471C342.435 528.753 367.152 490.908 365.269 492.901C363.763 494.495 352.091 495.618 346.443 495.981C354.619 493.372 372.262 469.528 380.062 457.933C375.328 460.542 364.641 462.885 359.89 463.73C379.254 455.179 392.881 424.293 397.274 409.919C394.262 411.804 383.289 413.483 378.179 414.086C396.252 399.882 404.715 381.715 406.687 374.408C403.675 377.306 395.75 376.944 392.164 376.401C405.719 365.53 418.073 344.452 422.555 335.272C419.113 337.591 409.466 337.084 405.073 336.54C417.983 333.642 427.486 316.731 430.623 308.639C427.826 310.233 423.182 309.303 421.21 308.639Z" fill="#001E26"/>
<path d="M304.288 276.194L299.726 278.322L299.418 281.08L301.173 279.6V282.284L302.722 280.804L303.927 288.962L305.958 285.176L308.333 289.891L307.61 286.105L308.574 283.351L309.882 280.563L312.222 286.311L312.669 282.284L314.494 284.728L316.249 289.685L317.591 279.909L320.139 287.034L321.102 282.732L323.477 285.554L325.243 281.431L324.01 274.397L315.446 273.611L309.882 274.774L304.288 276.194Z" fill="#558887"/>
<path d="M239.207 408.902L242.568 414.812L262.731 412.495L265.628 411.336L266.439 407.512H264.7L262.731 410.293L261.572 406.121L260.992 402.645L258.327 404.267L256.821 398.01L253.924 402.645L250.679 400.327L247.434 404.267L245.696 409.482L242.568 406.121L241.988 409.482L239.207 408.902Z" fill="#001E26"/>
<path d="M206.546 449.317L133.303 420.055L228.46 415.697L260.128 412.123L284.715 408.546L353.536 414.335L332.995 426.428L206.546 449.317Z" fill="#001E26"/>
<path d="M-268.982 611.354H159.564L181.258 580.983L200.472 545.653L207.29 485.53L211.629 467.555L207.518 442.551L200.472 444.002L185.597 458.258L165.763 471.274L139.73 485.53H83.0051L6.27969 512.858L-243.57 545.653H-262.164L-268.982 570.445V611.354Z" fill="#003543"/>
<path d="M-608.781 484.258C-608.126 487.838 -768.988 692.874 -96.9854 487.46C575.018 282.046 -575.451 478.168 -608.781 484.258Z" fill="url(#paint3_linear)"/>
<path d="M-251.061 586.13V604.996L-657 610.118V501.451L-593.475 490.131H-505.16L-354.87 462.209L-308.389 455.418L-230.919 462.209L-125.561 443.344L-55.8392 430.515L34.0251 419.195H128.537L164.173 425.987L198.26 430.515L207.556 443.344L198.26 455.418L171.92 476.548L142.482 486.358L128.537 490.131L78.9572 501.451H57.2658L34.0251 507.488L13.8831 517.298L-10.907 527.863H-34.1478L-55.8392 531.636L-154.404 548.934L-159.648 554.435L-184.438 558.963L-204.58 554.435H-230.919L-251.061 567.264V586.13Z" fill="#255461"/>
<path d="M294.868 454.949L257.461 439.654L332.526 426.258L353.168 414.335L330.68 434.313L295.817 459.696L294.868 454.949Z" fill="#012934"/>
<path d="M135.148 425.231C133.961 422.857 133.648 413.83 129.436 407.288C127.714 409.081 117.522 410.192 111.461 410.192C106.676 418.163 120.585 423.729 120.585 423.729C120.585 423.729 123.148 429.131 128.548 438.131C127.591 440.722 129.037 461.602 129.196 462.433C132.393 463.172 132.667 462.18 133.112 461.871C133.557 461.562 137.158 438.807 136.948 438.131C136.74 437.461 136.948 428.832 135.148 425.231Z" fill="#5A7D7D"/>
<path d="M121.334 421.556C120.744 418.968 123.876 415.594 121.334 408.24C119.236 409.574 115.327 404.468 109.439 403.032C102.902 409.644 109.439 413.391 109.439 413.391C109.439 413.391 108.386 425.928 111.501 435.951C109.957 438.242 108.081 460.914 108.039 461.758C110.969 463.234 111.471 462.335 111.976 462.14C112.482 461.945 117.757 441.837 119.133 440.277C119.598 439.75 122.23 425.48 121.334 421.556Z" fill="#5A7D7D"/>
<path d="M111.091 434.526L117.559 439.199L110.955 437.498C111.073 436.949 111.262 436.151 111.498 435.954C111.289 435.34 111.091 434.526 111.091 434.526Z" fill="#547171"/>
<path d="M127.797 436.873L134.605 438.14L128.3 439.548C128.338 439.069 128.396 438.454 128.545 438.14C128.319 437.759 127.797 436.873 127.797 436.873Z" fill="#547171"/>
<path d="M121.461 425.522C121.861 425.926 120.512 433.733 120.298 434.822C120.298 431.663 118.842 424.414 117.546 420.967C117.401 420.653 117.247 420.296 117.079 419.884C117.23 420.178 117.387 420.544 117.546 420.967C118.627 423.303 119.235 423.274 121.461 425.522Z" fill="#4F6B6B"/>
<path d="M126.589 363.157C128.079 361.333 130.174 362.241 131.035 362.922C132.474 363.229 134.158 363.681 135.151 364.377C136.145 365.074 135.488 367.378 135.856 368.882C136.223 370.387 136.315 370.999 135.389 370.896C134.992 370.851 135.242 373.768 134.842 374.139C134.411 374.539 133.913 374.808 133.322 374.858C132.188 374.955 130.861 375.429 130.708 376.557L130.686 376.723L123.733 376.723C124.168 372.04 125.099 364.981 126.589 363.157Z" fill="#E6BEAA"/>
<path d="M134.216 374.591C133.597 374.942 132.516 375.056 132.516 375.056C132.623 374.198 132.46 373.06 132.379 372.5C132.623 372.987 133.705 374.141 134.216 374.591Z" fill="#D3B09E"/>
<path d="M120.209 402.628L130.437 387.973L163.519 385.528L152.419 407.055L120.209 402.628Z" fill="#EDEDD5"/>
<path d="M106.86 416.268C109.283 418.902 121.334 420.206 133.558 417.798C135.387 402.586 135.387 401.504 135.387 393.118C135.387 389.99 137.982 389.834 140.213 388.925C145.901 386.608 143.985 381.739 143.985 381.739C143.31 376.028 131.578 366.694 131.578 366.694C131.578 366.694 128.099 368.857 129.741 369.849C132.901 372.241 134.052 376.563 135.853 378.891L135.025 379.305C135.025 379.305 134.915 378.138 131.313 376.582C131.035 376.462 130.771 376.31 130.522 376.138C127.624 374.14 124.779 374.384 123.242 374.916C122.814 375.064 122.478 375.376 122.2 375.733C121.557 376.558 120.702 377.333 118.413 377.077C112.174 377.414 103.832 412.977 106.86 416.268Z" fill="#001E26"/>
<path d="M138.36 381.921L133.306 380.198C133.404 380.434 133.806 381.017 133.997 381.183C133.632 381.362 132.778 381.517 132.579 381.657L138.36 381.921Z" fill="#002E3A"/>
<path d="M125.437 404.546C127.539 405.139 133.981 405.274 134.852 405.004C135.414 404.831 134.454 410.011 134.454 410.011C128.777 410.429 124.324 407.818 124.324 407.818L125.437 404.546Z" fill="#003543"/>
<path d="M125.682 380.722C127.511 379.612 132.632 379.725 133.212 380.277C133.643 380.687 134.027 381.145 134.027 381.145C128.35 381.563 127.484 386.195 127.484 386.195L125.682 380.722Z" fill="#003543"/>
<path d="M108.576 392.7L106.408 393.248C106.249 393.29 106.117 393.404 106.035 393.57C103.85 398.118 103.504 401.392 103.839 403.275C104.181 405.192 105.693 406.942 107.225 406.835C108.261 406.76 109.911 400.199 108.576 392.7Z" fill="#5A7D7D"/>
<path d="M125.99 381.233C124.217 379.655 123.087 379.201 121.973 379.279C117.78 379.573 115.992 379.147 114.39 378.705C111.716 377.964 110.153 378.589 110.078 380.493C109.937 384.07 108.781 390.666 108.034 392.949C105.617 396.103 104.584 399.758 104.852 402.129C105.12 404.499 106.383 406.788 107.33 407.316C108.838 408.157 118.091 410.754 121.004 410.35C123.917 409.946 125.991 407.811 126.675 403.702C127.359 399.593 127.649 387.95 127.574 384.929C127.531 383.21 127.104 382.226 125.99 381.233Z" fill="#003543"/>
<path d="M128.792 396.662C127.28 395.439 123.836 394.379 122.451 394.366C122.281 394.362 122.141 394.48 122.089 394.67C121.271 397.736 118.987 399.773 118.843 403.734C118.698 407.81 120.989 410.478 123.318 410.314C125.647 410.151 127.74 408.923 128.445 405.728C129.125 402.641 129.253 400.037 129.035 397.158C129.022 396.965 128.931 396.778 128.792 396.662V396.662Z" fill="#5A7D7D"/>
<path d="M108.868 389.485L108.597 390.783C110.692 391.412 118.468 393.37 119.802 393.772C121.136 394.173 122.118 393.561 122.253 391.538C122.389 389.514 108.868 389.485 108.868 389.485Z" fill="#012934"/>
<ellipse rx="1.94977" ry="2.26434" transform="matrix(1.03517 -0.0511311 0.118952 0.950219 123.129 379.669)" stroke="#003543" stroke-width="0.848134"/>
<path d="M126.232 381.458C125.569 380.183 124.856 379.335 123.568 378.856C121.141 377.951 114.639 377.547 113.114 377.468C111.588 377.388 109.612 377.971 109.489 379.703C109.31 382.227 108.793 386.521 108.208 388.378C107.851 389.516 108.268 390.171 109.263 390.45C110.258 390.729 119.047 392.694 120.311 392.969C121.574 393.244 122.66 392.596 122.866 391.695C123.152 390.445 122.871 383.605 122.684 382.165C122.554 381.156 123.296 380.43 124.291 380.524C124.968 380.565 125.653 380.895 126.232 381.458Z" fill="#5A7D7D"/>
<path d="M115.793 389.773C115.799 389.684 115.774 389.59 115.724 389.514C115.674 389.437 115.604 389.385 115.53 389.37L113.675 389.005C113.536 388.978 113.423 389.089 113.416 389.258C113.396 389.873 113.319 391.287 113.097 392.087C113.059 392.227 113.007 392.379 112.948 392.538C112.674 392.453 112.402 392.382 112.153 392.335C112.047 392.313 111.952 392.371 111.911 392.482L111.681 393.109C111.647 393.202 111.655 393.318 111.704 393.418C111.753 393.518 111.836 393.589 111.924 393.607C112.058 393.634 112.228 393.673 112.422 393.721C112.285 393.999 112.153 394.251 112.05 394.444C112.005 394.527 112.001 394.64 112.039 394.744C112.077 394.849 112.152 394.932 112.238 394.965L114.012 395.648C114.118 395.688 114.222 395.649 114.275 395.547C114.385 395.341 114.58 394.961 114.783 394.521C114.982 394.606 115.185 394.696 115.393 394.795C115.507 394.85 115.624 394.809 115.68 394.694L115.955 394.123C115.995 394.041 115.997 393.934 115.961 393.834C115.925 393.735 115.855 393.654 115.774 393.618C115.633 393.553 115.449 393.475 115.242 393.388C115.306 393.204 115.362 393.015 115.409 392.821C115.627 391.903 115.747 390.437 115.793 389.773Z" fill="#5A7D7D"/>
<ellipse rx="1.85911" ry="2.4539" transform="matrix(0.780622 0.625003 -0.625658 0.780097 118.733 387.698)" fill="#003C3C"/>
<ellipse rx="1.85909" ry="2.4539" transform="matrix(0.780625 0.625 -0.625661 0.780095 118.743 387.3)" fill="#00D180"/>
<path fill-rule="evenodd" clip-rule="evenodd" d="M119.696 388.281L118.631 388.22L118.92 387.885L119.619 387.925L119.428 386.866L119.141 387.2L118.606 387.823C118.409 388.063 118.13 388.201 117.885 388.177L117.217 388.139C117.145 388.139 117.092 388.094 117.079 388.023C117.066 387.951 117.096 387.865 117.156 387.8L118.614 386.104C118.669 386.035 118.748 385.994 118.818 385.998C118.889 386.001 118.939 386.049 118.948 386.122L119.077 386.845L119.377 386.497C119.434 386.431 119.511 386.394 119.579 386.398C119.648 386.402 119.698 386.447 119.711 386.516L119.97 387.963C119.982 388.032 119.955 388.116 119.899 388.181C119.843 388.247 119.765 388.285 119.696 388.281ZM117.517 387.79L117.981 387.818L117.98 387.819C118.122 387.837 118.286 387.756 118.399 387.612L118.781 387.167L118.654 386.466L117.517 387.79Z" fill="#003C3C"/>
<path d="M128.099 464.403C131.487 463.512 138.875 462.308 138.875 462.941L138.944 463.217L138.975 463.386C138.975 463.578 138.944 463.656 138.944 463.656C138.944 463.656 138.928 463.716 138.875 463.837C138.834 463.933 138.779 464.025 138.693 464.084C138.644 464.118 138.598 464.149 138.58 464.157C137.389 464.748 136.319 465.178 135.245 465.481C131.439 466.553 128.694 466.386 128.502 466.386C128.377 466.386 128.182 466.273 128.146 466.152C128.123 466.075 128.118 466.048 128.096 465.941C128.081 465.864 128.084 465.663 128.084 465.663C128.084 465.596 128.099 465.438 128.119 465.383C128.146 465.273 128.171 465.211 128.204 465.171C128.192 465.09 128.181 465.01 128.171 464.934C128.162 464.868 128.154 464.805 128.146 464.746C128.124 464.581 128.108 464.455 128.099 464.403Z" fill="#00DC82"/>
<path d="M128.365 465.616C127.747 464.998 128.055 461.041 128.57 459.006L134.463 459.405C134.03 460.925 133.853 461.131 134.137 461.296C134.582 461.553 135.125 461.599 135.639 461.58C138.513 461.473 138.903 462.179 138.903 463.14C138.903 464.926 129.138 466.388 128.365 465.616Z" fill="#000606"/>
<path d="M107.478 463.77C110.469 462.983 116.99 461.921 116.99 462.48L117.05 462.723L117.077 462.872C117.077 463.042 117.05 463.111 117.05 463.111C117.05 463.111 117.036 463.164 116.99 463.271C116.953 463.355 116.905 463.436 116.829 463.489C116.786 463.518 116.745 463.546 116.729 463.553C115.678 464.075 114.733 464.454 113.785 464.721C110.426 465.668 108.003 465.52 107.834 465.52C107.724 465.52 107.551 465.42 107.519 465.314C107.499 465.245 107.495 465.222 107.476 465.127C107.462 465.06 107.465 464.882 107.465 464.882C107.465 464.823 107.478 464.684 107.496 464.635C107.519 464.538 107.542 464.483 107.571 464.448C107.561 464.376 107.551 464.306 107.542 464.239C107.534 464.18 107.526 464.124 107.519 464.073C107.5 463.927 107.486 463.816 107.478 463.77Z" fill="#00DC82"/>
<path d="M107.714 464.84C107.169 464.294 107.44 460.802 107.895 459.006L113.096 459.358C112.76 460.538 112.599 460.821 112.736 460.971C113.082 461.35 113.712 461.29 114.225 461.275C116.68 461.198 117.015 461.816 117.015 462.655C117.015 464.231 108.396 465.521 107.714 464.84Z" fill="#000606"/>
<path d="M130.825 370.658C130.825 371.285 130.511 373.077 130.131 373.504C129.412 374.106 128.431 374.106 127.596 374.106C127.596 374.106 124.251 374.084 123.953 373.504C123.953 373.504 123.806 373.453 123.617 372.867C122.207 369.632 123.617 366.959 123.617 366.959C123.791 366.41 124.576 364.486 124.576 364.486C124.822 363.824 125.613 362.904 126.027 362.394C126.512 361.797 127.503 361.831 128.482 361.429C133.843 359.224 136.25 360.932 136.784 362.062C136.974 361.695 136.451 360.642 136.166 360.162C138.986 361.445 137.782 366.071 135.881 365.469C133.98 364.867 133.33 365.849 133.029 366.071C132.654 366.347 132.448 367.074 132.202 367.47C132.068 367.686 131.941 367.967 131.8 368.305C131.848 367.664 131.275 366.994 130.825 367.229C129.774 367.777 130.825 369.875 130.825 370.658Z" fill="#002021"/>
<path d="M128.017 368.615C128.32 369.276 129.567 368.699 129.738 368.797L132.068 367.24C131.892 367.084 129.886 365.218 127.506 364.752C124.53 364.17 126.016 367.135 126.56 367.774C127.105 368.413 127.254 367.364 128.181 367.737C129.108 368.109 127.713 367.953 128.017 368.615Z" fill="#E6BEAA"/>
<path d="M141.945 352.38L141.891 350.149H142.513C142.973 350.149 143.392 350.108 143.77 350.027C144.149 349.946 144.451 349.788 144.676 349.554C144.902 349.319 145.014 348.977 145.014 348.526C145.014 348.093 144.884 347.755 144.622 347.512C144.361 347.26 144.014 347.133 143.581 347.133C143.13 347.133 142.779 347.26 142.526 347.512C142.274 347.755 142.148 348.089 142.148 348.513H140.512C140.503 347.972 140.62 347.49 140.863 347.066C141.107 346.642 141.458 346.309 141.918 346.065C142.387 345.822 142.946 345.7 143.595 345.7C144.199 345.7 144.73 345.813 145.19 346.038C145.659 346.264 146.024 346.588 146.285 347.012C146.556 347.426 146.691 347.936 146.691 348.54C146.691 349.162 146.551 349.675 146.272 350.081C146.001 350.487 145.627 350.789 145.15 350.987C144.681 351.185 144.135 351.289 143.514 351.298L143.473 352.38H141.945ZM142.716 355.422C142.4 355.422 142.139 355.323 141.932 355.124C141.733 354.926 141.634 354.687 141.634 354.408C141.634 354.119 141.733 353.876 141.932 353.678C142.139 353.479 142.4 353.38 142.716 353.38C143.031 353.38 143.288 353.479 143.486 353.678C143.685 353.876 143.784 354.119 143.784 354.408C143.784 354.687 143.685 354.926 143.486 355.124C143.288 355.323 143.031 355.422 142.716 355.422Z" fill="#95CDDE"/>
<path d="M129.585 342.361L129.507 339.135H130.407C131.071 339.135 131.677 339.076 132.225 338.959C132.772 338.842 133.209 338.614 133.535 338.275C133.861 337.936 134.024 337.441 134.024 336.789C134.024 336.163 133.835 335.675 133.457 335.323C133.079 334.958 132.577 334.775 131.951 334.775C131.299 334.775 130.791 334.958 130.426 335.323C130.061 335.675 129.879 336.157 129.879 336.769H127.513C127.5 335.987 127.669 335.29 128.021 334.678C128.373 334.065 128.882 333.583 129.546 333.231C130.224 332.879 131.032 332.703 131.971 332.703C132.844 332.703 133.613 332.866 134.278 333.192C134.955 333.518 135.483 333.987 135.861 334.599C136.252 335.199 136.448 335.935 136.448 336.809C136.448 337.708 136.246 338.451 135.842 339.037C135.451 339.624 134.91 340.061 134.219 340.347C133.541 340.634 132.753 340.784 131.853 340.797L131.795 342.361H129.585ZM130.7 346.76C130.244 346.76 129.866 346.617 129.566 346.33C129.279 346.043 129.136 345.698 129.136 345.294C129.136 344.877 129.279 344.525 129.566 344.238C129.866 343.951 130.244 343.808 130.7 343.808C131.156 343.808 131.528 343.951 131.814 344.238C132.101 344.525 132.244 344.877 132.244 345.294C132.244 345.698 132.101 346.043 131.814 346.33C131.528 346.617 131.156 346.76 130.7 346.76Z" fill="#95CDDE"/>
<path d="M197.587 292.692L188.32 292.262L200.143 283.631L197.587 292.692Z" fill="#001E26"/>
<path d="M199.488 285.811L200.108 283.578L208.637 277.105L223.454 266.157L233.25 259.242L240.165 253.891L255.147 245.906L268.894 238.909L295.731 232.817L320.015 231.336L342.899 229.854L364.796 227.96L379.498 226.749L399.123 224.174L426.206 220.387L464.402 215.283V216.847L456.088 218L447.033 219.235L434.14 220.768L416.129 223.336L391.866 226.749L382.1 227.729L372.534 228.784L353.766 230.594L322.814 232.817L296.471 234.711L268.894 240.885L256.135 247.058L241.976 254.632L236.296 259.242L224.031 267.803L212.67 275.952L199.488 285.811Z" fill="#001E26"/>
<path d="M225.869 254.452C227.172 260.098 207.592 282.683 197.639 293.27L196.855 295.741C197.356 295.657 211.214 281.549 219.562 270.613C226.241 261.864 227.821 255.489 227.776 253.395L225.869 254.452Z" fill="#558887"/>
<path d="M219.989 279.817C218.868 280.938 214.45 279.35 212.381 278.415L216.519 274.555C218.143 275.842 221.11 278.696 219.989 279.817Z" fill="#558887"/>
<path d="M201.981 279.634C203.103 278.513 207.521 280.101 209.59 281.035L205.452 284.896C203.828 283.609 200.86 280.755 201.981 279.634Z" fill="#558887"/>
<path d="M220.123 259.662C220.707 258.561 224.731 256.579 226.67 255.726L224.433 259.68C222.753 260.133 219.538 260.762 220.123 259.662Z" fill="#558887"/>
<path d="M140.359 391.597C141.803 391.03 143.945 389.934 145.092 391.563C145.682 392.402 148.146 391.597 149.061 391.597" stroke="black" stroke-width="0.770417" stroke-linecap="round" stroke-linejoin="round"/>
<path d="M151.961 390.529C153.186 390.627 154.398 390.681 155.625 390.681" stroke="black" stroke-width="0.770417" stroke-linecap="round" stroke-linejoin="round"/>
<path d="M152.724 396.024C150.708 396.024 148.915 395.694 146.957 395.295C146.331 395.167 145.815 395.459 145.227 395.405C143.13 395.214 141.097 394.956 138.985 394.956" stroke="black" stroke-width="0.770417" stroke-linecap="round" stroke-linejoin="round"/>
<path d="M138.68 399.688C139.256 399.806 139.686 400.166 140.24 400.265C141.04 400.407 141.843 400.11 142.649 400.154C143.618 400.208 144.658 400.4 145.549 400.757" stroke="black" stroke-width="0.770417" stroke-linecap="round" stroke-linejoin="round"/>
<path d="M148.755 400.604C149.368 400.702 149.978 400.808 150.587 400.909" stroke="black" stroke-width="0.770417" stroke-linecap="round" stroke-linejoin="round"/>
<path d="M278.258 283.18V273.484V264.597L284.862 259.426L295.907 252.657L318.327 246.598H332.871L338.324 248.618L337.112 257.707V270.836L323.744 266.258H315.093L301.562 269.625L286.872 275.218L278.258 283.18Z" fill="#001E26"/>
<path d="M182.35 358.656L184.433 350.321L187.311 351.512L190.784 355.382L194.852 357.267L198.92 363.518L204.08 379.195L194.852 363.518L190.784 361.037L187.311 357.267L182.35 358.656Z" fill="#001E26"/>
<path d="M249.672 322.355L255.626 324.08L258.819 316.142L254.418 319.334H249.672L245.012 321.06L243.459 322.355H249.672Z" fill="#001E26"/>
<path d="M314.162 483.864L319.631 459.006L322.945 463.149L319.631 477.401L314.162 483.864Z" fill="#001E26"/>
<path d="M324.934 496.293L329.74 483.864H334.711L340.511 468.95C343.55 468.673 349.427 468.287 348.632 468.95C347.836 469.612 340.346 480.716 336.7 486.184L332.06 502.591L319.631 506.899L317.476 502.591L324.934 496.293Z" fill="#001E26"/>
</g>
<defs>
<radialGradient id="paint0_radial" cx="0" cy="0" r="1" gradientUnits="userSpaceOnUse" gradientTransform="translate(402.013 349.525) rotate(-180) scale(144.971 151.084)">
<stop stop-color="#00DC82" stop-opacity="0.76"/>
<stop offset="1" stop-color="#00DC82" stop-opacity="0"/>
</radialGradient>
<linearGradient id="paint1_linear" x1="265.114" y1="419.196" x2="265.114" y2="611.863" gradientUnits="userSpaceOnUse">
<stop stop-color="#E5F9FF"/>
<stop offset="1" stop-color="#95CDDE"/>
</linearGradient>
<radialGradient id="paint2_radial" cx="0" cy="0" r="1" gradientUnits="userSpaceOnUse" gradientTransform="translate(254.844 364.503) rotate(-99.7061) scale(9.65266 6.6857)">
<stop stop-color="#00DC82"/>
<stop offset="1" stop-color="#00DC82" stop-opacity="0"/>
</radialGradient>
<linearGradient id="paint3_linear" x1="-268.113" y1="534.648" x2="-276.388" y2="448.794" gradientUnits="userSpaceOnUse">
<stop stop-color="#00DC82" stop-opacity="0.76"/>
<stop offset="1" stop-color="#00DC82" stop-opacity="0"/>
</linearGradient>
<clipPath id="clip0">
<rect width="375" height="567" fill="white"/>
</clipPath>
</defs>
</svg>
