<svg width="150" height="150" viewBox="0 0 150 150" fill="none" xmlns="http://www.w3.org/2000/svg">
<path d="M116.664 114.928L61.1233 130V72.8082L116.664 62.1578V114.928Z" fill="#00171E"/>
<path d="M61.1333 129.96L27.6702 110.901V83.509V58.43L61.1333 72.2192V129.96Z" fill="#001E26"/>
<path d="M98.8419 60.4115L64.8249 66.7724L60.953 72.8568H46.0187L13.9375 58.3531H27.6163L43.253 59.0287L81.4186 49.9022L98.8419 60.4115Z" fill="url(#paint0_linear)"/>
<path d="M45.0142 59.9018L66.0401 57.8755L69.2958 59.4442L64.1834 61.8483L56.3977 64.6204L45.0142 59.9018Z" fill="url(#paint1_radial)"/>
<path d="M57.7361 57.6893L78.7621 55.663L82.0177 57.2317L76.9053 59.6357L69.1196 62.4079L57.7361 57.6893Z" fill="url(#paint2_radial)"/>
<path d="M102.161 55.9867L77.5466 66.496L72.0154 55.0959L84.0217 52.6679L86.6101 51.8383L84.0217 48.0952L86.6101 37.8677L130 55.0959L116.62 62.239L102.161 55.9867Z" fill="url(#paint3_radial)"/>
<path d="M103.799 52.4609L47.4377 62.7867L61.1712 72.8724L116.629 62.1767L103.799 52.4609Z" fill="#001E26"/>
<path d="M84.0196 48.106L27.6726 58.4366L44.9123 61.5177L100.778 51.2849L84.0196 48.106Z" fill="#001E26"/>
<defs>
<linearGradient id="paint0_linear" x1="44.3593" y1="59.8584" x2="41.0406" y2="71.1974" gradientUnits="userSpaceOnUse">
<stop offset="0.15326" stop-color="#00DC82"/>
<stop offset="1" stop-color="#00DC82" stop-opacity="0.05"/>
</linearGradient>
<radialGradient id="paint1_radial" cx="0" cy="0" r="1" gradientUnits="userSpaceOnUse" gradientTransform="translate(60.4652 61.248) rotate(-47.9807) scale(10.3029 35.8006)">
<stop offset="0.15326" stop-color="#00DC82"/>
<stop offset="1" stop-color="#00DC82" stop-opacity="0.05"/>
</radialGradient>
<radialGradient id="paint2_radial" cx="0" cy="0" r="1" gradientUnits="userSpaceOnUse" gradientTransform="translate(73.1871 59.0355) rotate(-47.9807) scale(10.3029 35.8006)">
<stop offset="0.15326" stop-color="#00DC82"/>
<stop offset="1" stop-color="#00DC82" stop-opacity="0.05"/>
</radialGradient>
<radialGradient id="paint3_radial" cx="0" cy="0" r="1" gradientUnits="userSpaceOnUse" gradientTransform="translate(96.089 54.8326) rotate(107.65) scale(13.2255 45.956)">
<stop offset="0.15326" stop-color="#00DC82"/>
<stop offset="0.948649" stop-color="#00DC82" stop-opacity="0"/>
</radialGradient>
</defs>
</svg>
