<svg width="150" height="150" viewBox="0 0 150 150" fill="none" xmlns="http://www.w3.org/2000/svg">
<path d="M116.21 114.574L60.812 129.608V72.5624L71.109 93.7744L116.21 84.5069V114.574Z" fill="#00171E"/>
<path d="M60.8221 129.568L27.4446 110.557V83.2352L45.4992 92.0026L60.8221 72.6077V129.568Z" fill="#001E26"/>
<path d="M44.9378 93.7262L27.4531 83.2572L60.9654 72.3022L44.9378 93.7262Z" fill="#012A35"/>
<path d="M71.3155 95.0108L116.722 84.3501L60.5 72L71.3155 95.0108Z" fill="#001E26"/>
<path d="M14.0007 76.384L27.958 57.8199L17.8997 35.782L71.8116 27.5811L82.836 47.3443L96.6837 29.1943L130.832 41.9664L115.506 61.1919L126.127 82.0307L71.8116 93.7273L61 72.5001L45.3262 92.1139L14.0007 76.384Z" fill="#001E26"/>
<path d="M83.6525 47.9236L28.6057 58.3435L60.6024 72.3423L114.807 61.5013L83.6525 47.9236Z" fill="#012A35"/>
<g style="mix-blend-mode:screen">
<path d="M28.023 58.0163L2 25.5001L148 21.0001L115.168 61.2913L60.8091 72.4589L28.023 58.0163Z" fill="url(#paint0_linear)"/>
</g>
<path d="M53.3739 65.5938L54.0293 51.0008L56.0909 62.7917L58.5266 72.3138L53.3739 65.5938Z" fill="#80EEC0"/>
<path d="M64.5363 71.8121C61.9876 69.2978 56.7188 64.3716 56.4158 64.0697L58.5257 72.3141L64.5363 71.8121Z" fill="#40E5A1"/>
<path d="M64.5342 71.8107L60.1584 63.5167L68.8162 62.4871L64.5342 71.8107Z" fill="#00BB6F"/>
<path d="M61.0451 53.6654L60.1574 63.5155L68.8152 62.4886L61.0451 53.6654Z" fill="#009A5B"/>
<path d="M61.0432 53.6672L54.0302 50.9986L56.087 62.7756L56.416 64.0726L64.5356 71.8124L60.1577 63.5187L61.0432 53.6672Z" fill="#20D98C"/>
<path d="M61.0436 53.666L56.0864 62.7543L54.0293 51.0008L61.0436 53.666Z" fill="#20CF86"/>
<path d="M89.2499 48.557L100.481 40.0765L92.9987 48.8514L87.4295 56.5098L89.2499 48.557Z" fill="#80EEC0"/>
<path d="M91.4944 60.6617C91.794 57.2255 92.212 50.2888 92.2499 49.8785L87.4285 56.51L91.4944 60.6617Z" fill="#40E5A1"/>
<path d="M91.4937 60.6593L94.9595 52.3159L101.043 58.1077L91.4937 60.6593Z" fill="#00BB6F"/>
<path d="M102.815 46.9206L94.9599 52.3145L101.042 58.1079L102.815 46.9206Z" fill="#009A5B"/>
<path d="M102.812 46.9201L100.483 40.0764L93.0077 48.8392L92.2475 49.8804L91.4935 60.6612L94.9577 52.3165L102.812 46.9201Z" fill="#20D98C"/>
<path d="M102.813 46.9198L93.0234 48.8258L100.481 40.0772L102.813 46.9198Z" fill="#20CF86"/>
<path d="M74.7135 40.1487L77.4541 31.1406L74.3685 31.4494L74.7135 40.1487Z" fill="#009A5B"/>
<path d="M69.118 21.632L77.4559 31.2218L74.2975 31.9389L68.3409 27.2628L69.118 21.632Z" fill="#00BB6F"/>
<path d="M67.443 46.5663L74.7132 40.1486L74.3768 31.8559L68.4185 27.0985L61.3565 31.8031L60.8506 38.7301L67.443 46.5663Z" fill="#00DC82"/>
<path opacity="0.65" d="M71.5977 42.8991L65.2097 29.2814L61.6787 31.6337L60.8509 38.7302L67.4433 46.5664L71.5977 42.8991Z" fill="#80EEC0"/>
<path d="M68.4187 27.0984L69.1145 21.4693L57.9998 30.8155L61.438 31.8013L68.4187 27.0984Z" fill="#40E5A1"/>
<path d="M60.8472 38.5675L61.6801 31.715L57.9996 30.8156L60.8472 38.5675Z" fill="#80EEC0"/>
<path d="M51.3248 46.5355L47.2898 38.9879L45.507 41.1711L51.3248 46.5355Z" fill="#009A5B"/>
<path d="M35.8203 38.2451L47.3436 39.0395L45.7767 41.5318L38.9436 42.3609L35.8203 38.2451Z" fill="#00BB6F"/>
<path d="M50.7848 55.3334L51.3248 46.5353L45.7741 41.4266L38.8876 42.2046L37.3792 49.7687L41.5105 54.5423L50.7848 55.3334Z" fill="#00DC82"/>
<path opacity="0.65" d="M51.0933 50.3061L38.2309 45.6709L37.4768 49.4529L41.5104 54.5425L50.7847 55.3336L51.0933 50.3061Z" fill="#80EEC0"/>
<path d="M38.8875 42.2047L35.7131 38.1424L34.5883 51.2942L37.4303 49.7154L38.8875 42.2047Z" fill="#40E5A1"/>
<path d="M41.4035 54.4401L37.5302 49.5039L34.5882 51.2941L41.4035 54.4401Z" fill="#80EEC0"/>
<defs>
<linearGradient id="paint0_linear" x1="70" y1="113.5" x2="70" y2="20.5001" gradientUnits="userSpaceOnUse">
<stop stop-color="#00DC82"/>
<stop offset="1" stop-color="#00DC82" stop-opacity="0"/>
</linearGradient>
</defs>
</svg>
