<svg width="1440" height="360" viewBox="0 0 1440 360" fill="none" xmlns="http://www.w3.org/2000/svg">
<path d="M1346.21 80.8686L1367.26 109.91C1369.13 113.478 1388.58 140.7 1389.64 142.208H1367.26L1344.04 79.2976C1344.9 79.5514 1345.67 80.1037 1346.21 80.8686Z" fill="#00DC82"/>
<path d="M1339.68 80.8675C1340.7 79.4353 1342.43 78.8124 1344.05 79.2966L1368.3 142.087H1348.02H1296.32L1339.68 80.8675Z" fill="#33E39B"/>
<path opacity="0.75" d="M1296.32 142.089H1330.51L1357.26 113.786L1350.35 95.3308L1317.94 111.567L1296.32 142.089Z" fill="#99F1CD"/>
<path d="M1208.72 265.385V277.556H676.758L676.758 264.9C676.758 264.9 676.857 260.368 676.758 259.095V252.487L676.758 244.628V238.107C680.575 238.017 681.333 237.98 682.709 237.151C684.468 236.091 688.26 235.12 689.936 234.767C692.659 233.001 698.608 229.416 700.619 229.204C701.506 229.111 702.59 228.29 703.924 227.28C706.37 225.428 709.658 222.939 714.13 223.11C718.379 223.273 722.748 225.539 726.067 227.26C728.146 228.339 729.814 229.204 730.783 229.204C732.002 229.204 735.516 227.769 739.133 226.292C742.969 224.725 746.923 223.11 748.378 223.11C749.73 223.11 752.086 221.536 754.59 219.864C757.325 218.038 760.235 216.094 762.203 215.956C763.693 215.851 764.791 214.257 766.058 212.415C767.998 209.598 770.335 206.202 775.086 206.683C779.263 207.106 782.463 207.978 784.827 208.623C786.909 209.19 788.342 209.581 789.225 209.333C789.818 209.166 790.566 208.842 791.411 208.477C793.253 207.679 795.555 206.683 797.709 206.683C799.126 206.683 802.079 204.903 805.239 202.999C809.083 200.682 813.235 198.179 815.304 198.47C817.164 198.732 819.713 196.8 822.384 194.776C825.127 192.698 827.998 190.521 830.386 190.521C831.395 190.521 832.634 190.643 834.052 190.781C839.255 191.291 846.857 192.036 854.266 187.871C858.408 185.542 864.554 180.399 870.488 175.432L870.489 175.432C878.057 169.097 885.282 163.05 887.572 163.495C890.839 164.131 904.136 173.927 910.376 178.745C912.001 178.485 915.91 178.5 918.553 180.643C919.999 181.815 922.785 184.694 925.568 187.57C929.143 191.263 932.714 194.952 933.432 195.013L933.488 195.017C934.798 195.127 937.842 195.382 942.375 198.568C944.623 200.148 946.593 202.117 948.174 203.698C949.827 205.351 951.056 206.58 951.737 206.498C952.206 206.442 953.403 205.731 954.916 204.833C957.708 203.175 961.575 200.88 963.921 200.88C967.538 200.88 971.726 200.238 975.914 196.706C976.488 196.222 977.07 195.72 977.65 195.218C981.305 192.059 984.932 188.924 986.574 190.521C988.478 192.372 991.905 195.013 993.237 195.013C993.321 195.013 993.426 195.012 993.55 195.011C995.386 195 1001.29 194.962 1002.18 196.706C1002.64 197.605 1004.04 198.384 1005.67 199.149C1010.12 199.581 1014.65 200.387 1019.3 201.23C1019.6 201.207 1019.89 201.178 1020.16 201.143L1022.33 197.91C1022.42 197.774 1022.57 197.681 1022.74 197.657C1022.91 197.633 1023.07 197.682 1023.18 197.788L1025 199.551L1028.1 194.928C1028.19 194.791 1028.35 194.696 1028.52 194.672C1028.68 194.648 1028.85 194.698 1028.96 194.806L1032.52 198.262C1039.89 195.884 1046.74 192.578 1053.33 189.395L1053.33 189.395L1053.33 189.394C1062.28 185.073 1070.75 180.981 1079.42 179.748C1084.16 179.077 1090.04 179.819 1096.49 181.173C1097.39 180.574 1098.35 179.904 1099.34 179.219C1103.18 176.541 1107.33 173.65 1109.4 173.986C1111.26 174.288 1113.81 172.056 1116.48 169.716C1119.22 167.314 1122.1 164.799 1124.48 164.799C1125.49 164.799 1126.73 164.939 1128.15 165.1C1133.35 165.689 1140.96 166.549 1148.36 161.736C1152.51 159.045 1158.65 153.1 1164.59 147.36C1172.15 140.039 1179.38 133.05 1181.67 133.565C1184.94 134.3 1198.23 145.62 1204.47 151.189C1206.1 150.888 1210.01 150.906 1212.65 153.382C1214.1 154.737 1216.88 158.064 1219.67 161.388L1219.67 161.388C1223.24 165.657 1226.81 169.92 1227.53 169.99L1227.59 169.995C1228.9 170.122 1231.94 170.417 1236.47 174.098C1238.72 175.924 1240.69 178.201 1242.27 180.028L1242.27 180.029C1243.93 181.938 1245.15 183.358 1245.84 183.264C1246.3 183.198 1247.5 182.377 1249.01 181.339C1251.81 179.424 1255.67 176.771 1258.02 176.771C1261.64 176.771 1265.82 176.028 1270.01 171.947C1270.59 171.387 1271.17 170.807 1271.75 170.227C1275.4 166.576 1279.03 162.953 1280.67 164.799C1282.58 166.938 1286 169.99 1287.34 169.99C1287.42 169.99 1287.52 169.989 1287.65 169.988C1289.48 169.975 1295.39 169.931 1296.28 171.947C1296.74 172.986 1298.13 173.887 1299.77 174.77C1304.21 175.27 1308.75 176.201 1313.4 177.175C1313.7 177.148 1313.99 177.115 1314.25 177.075L1316.43 173.338C1316.52 173.181 1316.67 173.073 1316.84 173.046C1317.01 173.018 1317.17 173.074 1317.28 173.198L1319.09 175.235L1322.2 169.891C1322.29 169.733 1322.45 169.624 1322.61 169.596C1322.78 169.568 1322.94 169.626 1323.05 169.751L1326.62 173.745C1333.99 170.997 1340.84 167.176 1347.42 163.498L1347.43 163.497L1347.43 163.496C1356.37 158.503 1364.85 153.773 1373.51 152.348C1381.66 151.017 1393.18 154.503 1405.15 158.126C1408.08 159.015 1411.04 160.012 1413.97 161.001C1423.99 164.376 1427.64 167.822 1435.63 166.508V265.385H1208.72Z" fill="#71A2B0"/>
<path d="M631.419 297.197V285.011H858.613V186.011C852.956 186.942 849.472 185.49 844.372 183.364C842.259 182.484 839.868 181.487 836.93 180.497C833.992 179.507 831.034 178.509 828.093 177.619C816.11 173.991 804.582 170.5 796.422 171.833C787.744 173.261 779.26 177.996 770.305 182.995L770.304 182.995L770.301 182.996L770.3 182.997C763.702 186.68 756.848 190.506 749.47 193.257L745.899 189.258C745.789 189.133 745.625 189.075 745.457 189.103C745.289 189.131 745.136 189.24 745.046 189.399L741.935 194.748L740.117 192.709C740.006 192.586 739.843 192.529 739.675 192.557C739.508 192.584 739.356 192.693 739.264 192.849L737.087 196.591C736.82 196.631 736.534 196.664 736.232 196.691C731.573 195.716 727.035 194.784 722.588 194.284C720.947 193.399 719.554 192.497 719.094 191.457C718.201 189.439 712.287 189.482 710.448 189.496C710.325 189.496 710.219 189.497 710.135 189.497C708.801 189.497 705.37 186.442 703.464 184.3C701.819 182.452 698.188 186.079 694.529 189.734C693.947 190.315 693.365 190.897 692.79 191.457C688.597 195.543 684.403 196.286 680.782 196.286C678.433 196.286 674.561 198.943 671.765 200.861C670.25 201.9 669.052 202.722 668.583 202.787C667.901 202.882 666.67 201.46 665.016 199.548L665.015 199.547C663.432 197.717 661.46 195.439 659.209 193.611C654.67 189.925 651.622 189.63 650.311 189.503L650.255 189.497C649.535 189.427 645.961 185.159 642.381 180.884C639.594 177.557 636.805 174.226 635.357 172.869C632.711 170.39 628.796 170.372 627.17 170.673C620.922 165.098 607.608 153.763 604.336 153.027C602.044 152.511 594.81 159.509 587.232 166.839C581.29 172.587 575.137 178.539 570.989 181.233C563.571 186.052 555.959 185.191 550.749 184.601C549.33 184.44 548.089 184.3 547.079 184.3C544.688 184.3 541.813 186.818 539.067 189.223C536.393 191.566 533.841 193.801 531.978 193.498C529.906 193.162 525.75 196.057 521.901 198.738L521.898 198.74C520.915 199.425 519.952 200.095 519.049 200.695C512.594 199.338 506.704 198.596 501.955 199.267C493.277 200.502 484.793 204.6 475.837 208.925L475.835 208.926L475.834 208.927L475.832 208.928C469.234 212.114 462.381 215.424 455.004 217.805L447.468 219.095L445.651 217.33C445.54 217.224 445.376 217.175 445.209 217.199C445.042 217.222 444.889 217.316 444.798 217.452L442.621 220.689C442.353 220.724 442.068 220.753 441.765 220.776C437.107 219.932 432.569 219.126 428.121 218.693C426.481 217.927 425.088 217.147 424.627 216.247C423.734 214.501 417.82 214.538 415.982 214.55C415.858 214.55 415.753 214.551 415.669 214.551C414.335 214.551 410.904 211.907 408.998 210.054C407.353 208.455 403.721 211.594 400.062 214.756L400.054 214.763C399.475 215.264 398.896 215.764 398.324 216.247C394.13 219.783 389.937 220.426 386.315 220.426C383.967 220.426 380.095 222.724 377.299 224.384C375.784 225.283 374.117 226.051 374.117 226.051C368.997 231.194 354.863 235.79 352.612 234.207C348.073 231.018 332.704 240.699 332.704 240.699L304.825 234.207C303.631 232.974 267.708 238.729 227.04 245.711L163.232 223.557H140.115C133.982 220.324 121.056 213.488 118.414 212.01C116.859 211.14 111.431 207.298 105.828 203.332C99.5347 198.878 93.0209 194.268 91.5236 193.535C89.2591 192.426 76.7414 186.606 70.7657 183.834H59.9143C57.6498 183.834 41.0438 202.618 33.0239 212.01L0 266.975H112.814L164.74 275.945L287.341 293.719L631.419 297.197Z" fill="#71A2B0"/>
<path d="M1395.91 63.2328L1416.96 92.2746C1418.84 95.8426 1438.29 123.064 1439.35 124.572H1416.96L1393.75 61.6619C1394.61 61.9157 1395.37 62.468 1395.91 63.2328Z" fill="#00DC82"/>
<path d="M1389.39 63.2318C1390.41 61.7996 1392.14 61.1767 1393.75 61.6608L1418 124.451H1397.73H1346.03L1389.39 63.2318Z" fill="#33E39B"/>
<path opacity="0.75" d="M1346.03 124.453H1380.22L1406.96 96.1507L1400.06 77.6951L1367.65 93.9316L1346.03 124.453Z" fill="#99F1CD"/>
<path fill-rule="evenodd" clip-rule="evenodd" d="M0 266.589L94.5862 265.684L173.699 266.589L299.07 268.282L492.562 265.09L567.081 264.495L904.009 264.495L991.153 263.078L1031.71 261L1151.3 264.495L1329.62 265.09L1435.36 264.495H1441L1441 307.11L0 308V266.589Z" fill="#001E26"/>
<path d="M1238.3 193.3L1225.31 193.317L1192.78 193.318C1185.42 193.317 1179.09 198.618 1177.66 205.976L1166.48 274.623H1251.28L1253.14 193.3H1238.3Z" fill="#003543"/>
<path d="M1140.11 236.526C1135.2 236.528 1130.98 240.062 1130.03 244.967L1123.47 276.885H1159.46L1162.46 236.526H1140.11Z" fill="#003543"/>
<path d="M1330.78 126.582L1325.1 130.998L1318.58 131.927L1312.85 129.682H1297.03C1295.3 127.929 1292.97 127.404 1290.53 127.404L1280.74 125.849H1273.86C1272.24 124.215 1270.05 123.297 1267.77 123.297H1228.24C1226.34 123.297 1224.51 124.063 1223.16 125.429L1221 127.614C1220.29 128.33 1219.9 129.302 1219.9 130.316V134.85C1219.89 137.327 1220.86 139.704 1222.59 141.455L1239.94 159.037C1239.93 163.58 1241.72 167.937 1244.89 171.148L1243.39 194.532C1237.49 200.485 1236.75 196.23 1229.88 196.23L1202.37 198.336C1194.96 198.335 1187.44 204.26 1185.99 211.272L1180.08 243.628H1148.04C1143.09 243.627 1138.35 248.74 1137.39 253.657L1133 278H1170.05H1270.96L1441 275.85V263.944V242.972V230.059V209.912V188.207V176.21V161.557V140.677V123.643L1341.7 122C1337.61 122.002 1333.68 123.649 1330.78 126.582Z" fill="#001E26"/>
<path d="M1312.81 234.352C1307.6 234.354 1303.11 237.889 1302.1 242.793L1295.63 274.624H1333.38V234.352H1312.81Z" fill="#003543"/>
<path d="M1320.28 237.352C1315.37 237.352 1311.15 240.887 1310.2 245.793L1303.38 274.817H1339.64L1346.51 237.352L1320.28 237.352Z" fill="#001E26"/>
<path d="M1314.08 129.212C1311.95 127.397 1309.06 126.377 1306.05 126.377H1301.95C1301.62 125.516 1300.79 124.863 1299.76 124.655L1295.12 123.747C1294.33 123.592 1293.49 123.719 1292.8 124.098C1292.11 124.478 1291.63 125.077 1291.47 125.761L1291.33 126.383H1287.39L1285.49 124.76C1283.5 123.068 1280.8 122.118 1277.99 122.118H1229.28C1226.93 122.119 1224.52 122.578 1222.86 123.99L1220.36 126.588C1219.56 127.293 1219.33 128.229 1219.3 129.212H1219.75C1222.15 129.212 1224.46 128.396 1226.16 126.942C1227 126.228 1228.14 125.828 1229.33 125.83H1278.02C1279.66 125.836 1281.24 126.394 1282.4 127.384L1285.57 130.082H1306.08C1307.3 130.206 1308.48 130.554 1309.53 131.102C1310.63 131.601 1314.52 135.426 1317.22 135.426V131.854L1314.08 129.212Z" fill="#003543"/>
<path d="M1390.34 113.788C1388.62 113.977 1387.23 115.28 1386.89 117.005L1386.08 121.162H1339.66C1335.6 121.164 1332.26 121.671 1327.05 124.756L1316.36 131.855L1316.92 135.413C1319.15 135.836 1329.98 127.951 1329.98 127.951C1332.19 125.693 1336.52 124.752 1339.65 124.756H1438.78V123.741V122.688V121.155V120.055V118.397V115.708V113.787V112.356C1426.58 111.589 1401.85 112.518 1401.85 112.518L1390.34 113.788Z" fill="#003543"/>
<path d="M1318.25 249.401C1313.65 253.574 1311.15 247.668 1308.63 249.401C1307.56 249.642 1300.06 254.259 1298.87 253.212C1298.2 252.616 1302.34 239.079 1302.34 239.079C1303.75 233.463 1305.25 231.893 1307.99 229.646C1311.12 227.082 1328.91 226.618 1330.78 226.602C1330.78 226.602 1375.63 226.172 1378.7 229.161C1379.36 229.802 1378.73 237.291 1378.73 237.291L1378.74 240.383C1375.71 240.727 1372.65 248.466 1356.51 239.021C1350.74 241.854 1350.85 238.97 1347.58 239.082C1344.59 239.183 1339.74 235.778 1337.07 235.734C1333.39 235.674 1335.71 236.79 1334.4 239.045C1330.36 246.017 1331.01 251.248 1328.81 251.399C1326.61 251.55 1327.25 241.226 1318.25 249.401Z" fill="#E5F9FF"/>
<path d="M1394.62 194.053C1394.27 192.935 1393.2 192.225 1392.05 192.357L1385 193.142C1383.95 193.26 1383.09 194.06 1382.89 195.119L1382.54 196.916H1350.01C1342.66 196.916 1336.32 202.217 1334.89 209.574L1322.27 274.622H1438.76V266.305V250.575V236.183V218.779V207.512V196.898H1395.53L1394.62 194.053Z" fill="#003543"/>
<path d="M1343.18 212.672L1331 275H1440V267.714V252.61V232.939V219.767V206.419V200L1358.56 200C1351.08 200 1344.63 205.307 1343.18 212.672Z" fill="#001E26"/>
<path d="M1194.22 205.464C1185.21 209.335 1185.19 215.055 1181.11 217.657C1178.45 219.352 1175.45 220.392 1173.53 218.793C1172.44 217.883 1173.87 209.518 1173.78 207.856C1173.96 199.777 1177.27 197.722 1181.67 193.138C1186.06 188.554 1215.51 188.764 1218.52 188.759C1218.52 188.759 1252.22 190.214 1257.17 194.778C1261.21 198.508 1234.56 202.886 1211.13 199.125C1208.2 198.654 1204.2 205.397 1200.64 205.603C1197.08 205.81 1196.99 204.272 1194.22 205.464Z" fill="#E5F9FF"/>
<path d="M1145.87 261.265C1136.86 265.136 1138.08 251.614 1133.99 254.217C1132.26 254.571 1128.46 258.282 1126.54 256.683C1125.45 255.773 1126.01 250.15 1128.56 243.707C1128.56 243.707 1131.85 238.884 1133.99 237.647C1139.53 234.458 1165.22 234.938 1168.23 234.933C1168.23 234.933 1201.93 236.388 1206.87 240.951C1210.91 244.681 1185.21 251.547 1161.78 247.787C1158.85 247.317 1157 251.414 1153.44 251.62C1149.88 251.826 1148.64 260.073 1145.87 261.265Z" fill="#E5F9FF"/>
<path d="M1353 227.188C1343.85 231.056 1343.95 216.017 1339.8 218.618C1338.04 218.971 1334.05 221.351 1332.1 219.752C1330.99 218.84 1328.84 213.954 1328.74 212.291C1328.93 204.213 1333.39 199.664 1340.36 194.099C1345.38 190.088 1374.74 189.736 1377.8 189.732C1377.8 189.732 1418.16 189.644 1441.17 191.451L1441.17 194.132L1441.17 200.483L1441.18 205.61L1441.18 208.035C1441.18 208.035 1441.25 209.076 1441.18 210.529L1441.18 216.058C1436.21 215.874 1429.47 214.045 1419.98 208.843C1410.49 213.076 1410.68 208.705 1405.32 208.838C1400.41 208.96 1392.47 203.744 1388.07 203.648C1382.03 203.516 1379.97 207.721 1377.8 211.126C1371.11 221.652 1367.54 215.903 1363.92 216.108C1360.31 216.313 1355.82 225.997 1353 227.188Z" fill="#E5F9FF"/>
<path d="M1234.63 127.963C1222.38 133.631 1214.89 131.412 1212.67 130.549C1210.48 119.023 1225.28 121.776 1233.82 121.233C1239.53 121.225 1248.43 121.187 1260.09 121.187C1261.6 121.419 1264.23 120.95 1265.73 121.187H1269.85H1274.94C1274.94 121.187 1279.06 121.236 1280.18 121.416C1285.29 119.488 1293.76 122.386 1294.84 122.543C1295.3 122.543 1295.78 122.949 1296.27 123.075C1298.05 123.306 1299.84 123.769 1299.92 123.787C1302.37 124.295 1302.17 125.578 1302.58 125.578C1314.84 124.51 1316.09 130.578 1317.34 130.578L1328.81 123.049C1328.81 123.049 1334.02 120.434 1336.99 120.277C1338.29 120.209 1345.8 120.287 1347.73 120.277C1350.47 120.262 1354.51 120.223 1358 120.277C1360.97 120.323 1365.07 120.22 1368.17 120.277C1371.73 120.343 1383.16 120.246 1386.36 120.277C1386.36 120.277 1386.19 113.777 1388.64 113.658C1389.1 112.671 1397.6 111.334 1409.08 110.928C1415.71 110.694 1424.2 111.03 1429.61 110.927C1433.35 110.856 1436.64 110.94 1439.3 111.145V116.509V121.024C1439.41 121.256 1439.32 124.346 1439.3 125.861C1439.29 126.878 1439.94 128.677 1439.85 129.972L1439.35 132.424V134.386V136.838C1439.35 136.838 1439.45 139.663 1439.35 139.781C1438.48 140.823 1437.26 141.541 1435.81 141.795C1430.58 142.712 1410.14 136.793 1404.41 137.747C1398.88 138.668 1391.82 148.005 1386.36 148.911C1381.85 149.66 1374.74 140.053 1370.6 140.761C1364.79 141.755 1355.19 148.064 1350.84 148.911C1344.25 150.194 1334.08 144.491 1333.21 145.213C1333.21 145.213 1318.39 138.278 1315.04 140.761C1309.55 143.959 1304.2 143.421 1301.66 141.795C1291.84 135.498 1288.08 136.96 1280.57 137.747C1273.06 138.534 1269.3 128.862 1264.97 129.2C1261.5 129.47 1255.24 128.488 1252.55 127.963C1241.81 125.873 1236.27 126.876 1234.63 127.963Z" fill="#E5F9FF"/>
<path d="M1048.13 261.63C1048.13 262.102 1047.42 264.581 1046.9 265.695H1056.96C1056.82 262.648 1055.92 261.753 1055.83 261.252C1055.74 260.812 1054.94 259.27 1054.8 256.779C1054.67 254.288 1051.79 254.485 1051.39 254.485C1050.99 254.485 1050.25 256.32 1049.52 257.631C1048.78 258.943 1048.13 261.04 1048.13 261.63Z" fill="#001E26"/>
<path d="M1044.54 264.279C1044.27 264.506 1043.98 265.336 1043.87 265.722L1046.94 265.696C1047.31 264.804 1048.44 262.273 1048.44 261.847C1048.44 261.421 1048.32 261.559 1048.92 259.31C1049.59 256.807 1051.67 254.506 1051.41 254.482C1051.14 254.458 1049.48 254.884 1049.09 255.003C1048.7 255.121 1046.94 257.677 1046.62 257.961C1046.31 258.245 1045.61 261.841 1045.34 262.173C1045.08 262.504 1044.88 263.995 1044.54 264.279Z" fill="#003543"/>
<path d="M1064.25 263.794C1064.25 264.038 1064.96 265.317 1065.48 265.893H1055.42C1055.56 264.319 1056.46 263.857 1056.55 263.598C1056.64 263.371 1057.44 262.575 1057.57 261.289C1057.71 260.003 1060.59 260.104 1060.99 260.104C1061.39 260.104 1062.13 261.052 1062.86 261.729C1063.6 262.406 1064.25 263.489 1064.25 263.794Z" fill="#001E26"/>
<path d="M1067.84 265.161C1068.11 265.279 1068.4 265.707 1068.52 265.907L1065.44 265.893C1065.07 265.433 1063.94 264.126 1063.94 263.906C1063.94 263.686 1064.07 263.757 1063.46 262.596C1062.79 261.303 1060.71 260.115 1060.97 260.103C1061.24 260.091 1062.91 260.31 1063.3 260.372C1063.68 260.433 1065.45 261.752 1065.76 261.899C1066.07 262.046 1066.78 263.903 1067.04 264.074C1067.31 264.245 1067.5 265.015 1067.84 265.161Z" fill="#003543"/>
<path d="M290.614 264.439C290.614 264.911 289.897 267.389 289.384 268.504H299.444C299.298 265.456 298.403 264.561 298.305 264.06C298.22 263.62 297.418 262.079 297.285 259.588C297.151 257.097 294.272 257.293 293.87 257.293C293.468 257.293 292.732 259.129 291.995 260.44C291.259 261.751 290.614 263.849 290.614 264.439Z" fill="#001E26"/>
<path d="M287.025 267.087C286.754 267.314 286.461 268.144 286.348 268.531L289.422 268.505C289.79 267.613 290.923 265.082 290.923 264.656C290.923 264.23 290.795 264.367 291.399 262.118C292.071 259.615 294.154 257.314 293.888 257.291C293.622 257.267 291.955 257.693 291.568 257.811C291.182 257.93 289.417 260.485 289.103 260.769C288.789 261.053 288.088 264.65 287.822 264.981C287.556 265.313 287.363 266.803 287.025 267.087Z" fill="#003543"/>
<path d="M306.726 266.602C306.726 266.845 307.443 268.125 307.957 268.7H297.896C298.042 267.127 298.938 266.665 299.035 266.406C299.121 266.179 299.922 265.383 300.056 264.097C300.19 262.81 303.069 262.912 303.471 262.912C303.872 262.912 304.609 263.86 305.345 264.537C306.082 265.214 306.726 266.297 306.726 266.602Z" fill="#001E26"/>
<path d="M310.32 267.969C310.591 268.086 310.884 268.515 310.997 268.714L307.923 268.701C307.556 268.24 306.422 266.933 306.422 266.713C306.422 266.494 306.55 266.564 305.946 265.403C305.274 264.111 303.191 262.923 303.457 262.91C303.723 262.898 305.39 263.118 305.777 263.179C306.164 263.24 307.928 264.56 308.242 264.707C308.556 264.853 309.257 266.71 309.523 266.882C309.789 267.053 309.982 267.822 310.32 267.969Z" fill="#003543"/>
<path d="M41.7903 241.03C41.7902 244.205 36.967 260.875 33.5138 268.373H101.191C100.209 247.873 94.1836 241.852 93.5296 238.481C92.9558 235.523 87.5638 225.155 86.663 208.397C85.7622 191.639 66.3943 192.963 63.6918 192.963C60.9893 192.963 56.0347 205.31 51.0801 214.13C46.1256 222.949 41.7904 237.061 41.7903 241.03Z" fill="#001E26"/>
<path d="M17.6375 258.844C15.8167 260.371 13.844 265.955 13.0852 268.556L33.7656 268.378C36.2378 262.379 43.8615 245.353 43.8615 242.488C43.8615 239.623 43.0004 240.547 47.0651 225.418C51.5888 208.58 65.5996 193.104 63.8112 192.945C62.0228 192.786 50.8045 195.65 48.2032 196.446C45.6018 197.242 33.7332 214.433 31.6196 216.344C29.5061 218.254 24.7911 242.449 23.0027 244.677C21.2143 246.906 19.9136 256.934 17.6375 258.844Z" fill="#003543"/>
<path d="M43.6494 214.169C48.8266 206.059 49.0523 198.895 48.0816 196.465C48.0816 196.465 56.0387 194.176 57.1571 194.179C58.2755 194.181 48.4484 208.826 43.6494 214.169Z" fill="#001E26"/>
<path d="M82.3791 212.286C69.5854 214.848 68.7975 206.017 63.0151 207.771C61.2787 207.926 57.0308 215.854 50.0936 208.999C50.0936 208.999 51.6164 212.8 42.343 214.427C39.7354 214.884 30.6301 219.543 30.4934 216.952C30.1086 209.657 48.713 194.789 48.713 194.789C49.8107 194.026 53.4791 191.562 56.0409 190.863C63.8916 188.721 77.9295 192.937 77.9295 192.937C77.9295 192.937 86.2749 194.886 88.7321 202.479C91.1859 210.061 86.3183 211.497 82.3791 212.286Z" fill="#E5F9FF"/>
<path d="M150.182 255.58C150.182 257.22 155.005 265.828 158.459 269.699H90.7815C91.7637 259.114 97.7888 256.005 98.4428 254.264C99.0166 252.737 104.409 247.383 105.309 238.73C106.21 230.077 125.578 230.761 128.281 230.761C130.983 230.761 135.938 237.136 140.892 241.69C145.847 246.244 150.182 253.531 150.182 255.58Z" fill="#001E26"/>
<path d="M174.354 264.779C176.175 265.568 178.147 268.451 178.906 269.794L158.226 269.702C155.753 266.605 148.13 257.813 148.13 256.334C148.13 254.854 148.991 255.331 144.926 247.519C140.402 238.825 126.392 230.833 128.18 230.751C129.968 230.669 141.187 232.148 143.788 232.559C146.389 232.97 158.258 241.847 160.372 242.833C162.485 243.82 167.2 256.313 168.988 257.464C170.777 258.615 172.078 263.793 174.354 264.779Z" fill="#003543"/>
<path d="M125.528 244.695C115.136 239.45 116.413 245.165 110.629 246.922C108.163 247.142 101.992 254.425 99.2286 253.275C97.6543 252.62 103.675 237.594 107.21 233.124C107.21 233.124 112.092 229.428 115.136 228.596C122.988 226.451 130.461 224.568 134.759 224.613C134.759 224.613 158.725 230.193 161.44 243.69C161.52 244.089 160.127 247.411 157.135 248.089C155.135 248.542 148.1 243.456 145.61 243.69C142.588 243.975 139.469 249.958 136.778 250.092C133.753 250.242 126.489 245.18 125.528 244.695Z" fill="#E5F9FF"/>
<path d="M438.248 259.552C438.248 260.38 436.99 264.727 436.09 266.682H453.735C453.479 261.337 451.908 259.767 451.738 258.888C451.588 258.117 450.182 255.413 449.948 251.044C449.713 246.674 444.663 247.02 443.958 247.02C443.253 247.02 441.962 250.239 440.67 252.538C439.378 254.838 438.248 258.518 438.248 259.552Z" fill="#001E26"/>
<path d="M431.95 264.197C431.475 264.595 430.961 266.051 430.763 266.729L436.155 266.683C436.799 265.119 438.787 260.68 438.787 259.933C438.787 259.186 438.563 259.427 439.622 255.482C440.802 251.092 444.455 247.056 443.989 247.015C443.522 246.973 440.597 247.72 439.919 247.928C439.241 248.135 436.146 252.618 435.595 253.116C435.044 253.614 433.815 259.922 433.349 260.503C432.882 261.084 432.543 263.699 431.95 264.197Z" fill="#003543"/>
<path d="M434.282 266.68L434.279 266.687H434.794C435.453 264.925 438.005 262.335 438.512 261.587C436.701 261.587 434.99 265.189 434.282 266.68Z" fill="#001E26"/>
<path d="M438.732 252.55C440.081 250.435 440.14 248.567 439.887 247.934C439.887 247.934 441.962 247.337 442.254 247.337C442.545 247.338 439.983 251.157 438.732 252.55Z" fill="#001E26"/>
<path d="M448.83 252.058C445.495 252.726 445.289 250.424 443.782 250.881C443.329 250.921 442.221 252.989 440.412 251.201C440.412 251.201 440.809 252.193 438.392 252.617C437.712 252.736 435.338 253.951 435.302 253.275C435.202 251.373 440.052 247.496 440.052 247.496C440.339 247.297 441.295 246.655 441.963 246.472C444.01 245.914 447.67 247.013 447.67 247.013C447.67 247.013 449.846 247.521 450.487 249.501C451.127 251.478 449.857 251.853 448.83 252.058Z" fill="#E5F9FF"/>
<path d="M466.509 263.348C466.509 263.775 467.767 266.02 468.667 267.029H451.021C451.277 264.269 452.848 263.459 453.019 263.005C453.169 262.606 454.574 261.211 454.809 258.954C455.044 256.698 460.094 256.876 460.799 256.876C461.503 256.876 462.795 258.539 464.087 259.726C465.379 260.914 466.509 262.814 466.509 263.348Z" fill="#001E26"/>
<path d="M472.812 265.746C473.286 265.952 473.801 266.704 473.999 267.054L468.606 267.03C467.962 266.222 465.974 263.93 465.974 263.544C465.974 263.159 466.199 263.283 465.139 261.246C463.959 258.979 460.306 256.895 460.772 256.874C461.239 256.852 464.164 257.238 464.842 257.345C465.52 257.452 468.615 259.767 469.166 260.024C469.717 260.281 470.946 263.539 471.413 263.839C471.879 264.139 472.218 265.489 472.812 265.746Z" fill="#003543"/>
<path d="M460.079 260.51C457.37 259.142 457.703 260.632 456.195 261.09C455.552 261.148 453.943 263.046 453.222 262.747C452.812 262.576 454.382 258.658 455.303 257.492C455.303 257.492 456.576 256.529 457.37 256.312C459.417 255.752 461.366 255.261 462.486 255.273C462.486 255.273 468.735 256.728 469.443 260.248C469.464 260.351 469.101 261.218 468.321 261.395C467.799 261.513 465.965 260.186 465.316 260.248C464.528 260.322 463.715 261.882 463.013 261.917C462.224 261.956 460.33 260.636 460.079 260.51Z" fill="#E5F9FF"/>
<path d="M407.235 256.764C407.235 257.928 405.467 264.039 404.201 266.788H429.01C428.65 259.273 426.442 257.065 426.202 255.83C425.992 254.745 424.015 250.945 423.685 244.802C423.355 238.658 416.255 239.144 415.264 239.144C414.273 239.144 412.457 243.67 410.641 246.903C408.824 250.136 407.235 255.309 407.235 256.764Z" fill="#001E26"/>
<path d="M427.919 259.972C425.368 259.972 422.344 265.214 421.351 267.305H422.944C423.904 263.049 426.646 261.689 428.1 260.604C428.1 260.483 427.919 259.972 427.919 259.972Z" fill="#003543"/>
<path d="M398.381 263.296C397.713 263.856 396.99 265.903 396.712 266.857L404.293 266.792C405.199 264.593 407.994 258.351 407.994 257.301C407.994 256.25 407.678 256.589 409.168 251.043C410.827 244.871 415.963 239.197 415.307 239.139C414.652 239.081 410.539 240.131 409.586 240.423C408.632 240.714 404.281 247.016 403.506 247.717C402.732 248.417 401.003 257.286 400.348 258.103C399.692 258.92 399.215 262.597 398.381 263.296Z" fill="#003543"/>
<path d="M407.915 246.919C409.812 243.946 409.895 241.32 409.539 240.429C409.539 240.429 412.456 239.59 412.866 239.591C413.276 239.592 409.674 244.96 407.915 246.919Z" fill="#001E26"/>
<path d="M422.113 246.228C417.424 247.167 417.135 243.93 415.015 244.573C414.378 244.629 412.821 247.536 410.278 245.023C410.278 245.023 410.836 246.417 407.437 247.013C406.481 247.181 403.143 248.888 403.093 247.938C402.952 245.264 409.772 239.813 409.772 239.813C410.174 239.534 411.519 238.631 412.458 238.374C415.336 237.589 420.482 239.135 420.482 239.135C420.482 239.135 423.542 239.849 424.442 242.633C425.342 245.412 423.558 245.939 422.113 246.228Z" fill="#E5F9FF"/>
<path d="M434.788 263.6C434.788 264.027 436.046 266.272 436.946 267.281H419.3C419.557 264.521 421.127 263.711 421.298 263.257C421.448 262.858 422.854 261.462 423.088 259.206C423.323 256.95 428.373 257.128 429.078 257.128C429.782 257.128 431.074 258.79 432.366 259.978C433.658 261.166 434.788 263.066 434.788 263.6Z" fill="#001E26"/>
<path d="M441.091 265.998C441.565 266.204 442.08 266.956 442.278 267.306L436.885 267.282C436.241 266.474 434.253 264.182 434.253 263.796C434.253 263.41 434.478 263.535 433.418 261.498C432.238 259.231 428.585 257.147 429.052 257.126C429.518 257.104 432.443 257.49 433.121 257.597C433.799 257.704 436.894 260.019 437.445 260.276C437.996 260.533 439.225 263.791 439.692 264.091C440.158 264.391 440.497 265.741 441.091 265.998Z" fill="#003543"/>
<path d="M428.359 260.762C425.649 259.395 425.982 260.885 424.474 261.343C423.831 261.401 422.222 263.299 421.502 263C421.091 262.829 422.661 258.911 423.583 257.745C423.583 257.745 424.856 256.782 425.649 256.565C427.697 256.005 429.645 255.514 430.766 255.526C430.766 255.526 437.015 256.981 437.723 260.5C437.743 260.604 437.38 261.471 436.6 261.647C436.079 261.766 434.244 260.439 433.595 260.5C432.807 260.575 431.994 262.135 431.292 262.17C430.503 262.209 428.609 260.889 428.359 260.762Z" fill="#E5F9FF"/>
<path d="M937.481 258.911C937.59 259.976 935.169 265.834 933.946 268.629H957.139C958.06 267.233 959.996 264.296 960.374 263.715C960.845 262.989 960.669 260.144 961.198 257.968C961.727 255.792 966.843 249.935 966.591 248.515C966.339 247.096 962.808 243.516 962.367 242.59C961.926 241.664 962.304 236.295 961.926 233.702C961.548 231.11 950.011 226.913 948.309 226.605C946.607 226.296 944.688 230.554 944.149 232.036C943.61 233.517 944.416 233.616 944.688 234.814C944.959 236.013 938.433 252.254 937.481 255.05C936.529 257.846 937.345 257.579 937.481 258.911Z" fill="#001E26"/>
<path d="M939.377 231.981C938.154 232.28 935.786 235.048 935.328 237.591C934.97 239.574 933.179 245.37 932.264 248.223C932.096 248.487 931.771 249.049 931.816 249.181C931.873 249.346 934.106 251.951 934.182 257.336C934.243 261.644 935.684 266.112 936.397 267.807C936.499 267.184 937.238 263.813 939.377 255.316C942.05 244.696 945.564 239.086 946.176 237.216C946.787 235.347 946.099 233.551 945.564 233.177C945.03 232.804 949.308 226.82 947.856 226.596C946.405 226.371 940.599 231.682 939.377 231.981Z" fill="#003543"/>
<path d="M923.321 259.006C923.01 262.178 921.91 266.808 921.468 268.653H937.634C937.573 267.997 935.314 259.006 934.613 252.983C934.052 248.164 929.136 247.417 926.748 247.645C926.41 248.865 925.735 251.534 925.735 252.448C925.735 253.592 923.71 255.041 923.321 259.006Z" fill="#001E26"/>
<path d="M922.139 251.389C920.586 252.529 917.428 263.346 916.012 268.654H922.854C924.795 267.823 925.173 256.26 925.173 254.834C925.173 253.409 927.843 248.894 927.236 247.824C926.63 246.755 924.081 249.963 922.139 251.389Z" fill="#003543"/>
<path d="M923.171 253.347C923.171 253.347 922.498 251.151 922.002 251.512C922.926 250.08 926.336 247.303 927.007 247.621C927.007 247.621 925.204 248.916 924.455 250.034C923.706 251.152 923.171 253.347 923.171 253.347Z" fill="#001E26"/>
<path d="M968.062 257.368C965.588 260.371 963.074 266.126 962.126 268.628H990.939C986.734 261.364 988.095 257.368 987.229 253.008C986.363 248.648 983.89 246.228 982.159 245.018C980.428 243.807 975.234 244.533 974.245 245.018C973.453 245.405 972.001 248.96 971.465 250.736C971.3 251.664 970.535 254.365 968.062 257.368Z" fill="#001E26"/>
<path d="M959.824 263.238C959.723 263.599 957.521 266.995 956.433 268.648H962.168C962.893 267.186 964.152 264.076 964.611 263.384C965.34 262.284 966.001 260.097 967.902 257.624C969.867 255.067 970.825 253.731 971.879 250.246C973.021 246.467 975.032 245.076 974.446 244.912C973.86 244.748 967.442 247.09 966.772 247.336C966.102 247.582 964.92 250.767 964.92 251.464C964.92 252.16 961.498 256.312 960.703 257.624C959.907 258.935 959.949 262.788 959.824 263.238Z" fill="#003543"/>
<path d="M978.216 243.834C978.216 243.834 984.934 243.877 986.503 247.659C988.111 251.533 982.492 250.991 982.492 250.991C979.72 258.786 971.43 250.39 971.43 250.39C970.748 250.542 969.425 251.488 967.81 251.295C966.82 251.177 965.396 249.547 966.404 246.806C966.404 246.806 968.909 244.749 969.779 244.55C972.424 243.942 977.031 243.838 978.216 243.834Z" fill="#E5F9FF"/>
<path d="M943.721 227.967C943.721 227.967 937.293 231.067 936.213 234.839C935.106 238.703 944.901 238.034 944.901 238.034C954.74 241.681 959.406 233.969 959.406 233.969C960.338 236.594 963.453 235.9 962.437 232.693C961.42 229.486 952.786 227.582 952.192 227.329C950.088 226.433 946.99 225.91 943.721 227.967Z" fill="#E5F9FF"/>
<path d="M925.518 247.276C925.518 247.276 920.796 247.278 919.716 250.974C918.61 254.76 922.557 254.263 922.557 254.263C924.555 261.915 930.33 253.74 930.33 253.74C930.81 253.893 935.129 255.605 933.842 250.259C933.842 250.259 932.067 248.229 931.454 248.028C929.591 247.417 926.351 247.288 925.518 247.276Z" fill="#E5F9FF"/>
<path d="M773.338 275.847H742.908C751.552 266.693 749.452 248.453 747.322 240.477L780.154 241.288C780.544 255.589 775.772 270.286 773.338 275.847Z" fill="#003543"/>
<path d="M709.071 275.848H745.859C745.859 274.82 746.737 271.457 750.251 266.218C753.765 260.98 754.13 250.977 753.866 246.925C742.394 246.925 699.875 242.611 701.38 244.249C702.885 245.886 703.888 254.073 706.229 259.148C708.102 263.208 708.904 271.973 709.071 275.848Z" fill="#001E26"/>
<path d="M701.035 238.821L780.161 241.279L753.963 247.541L698.674 243.681L694.896 238.873L701.035 238.821Z" fill="#255461"/>
<path d="M736.204 248.042C725.761 248.903 722.15 248.726 717.019 248.042C714.553 248.262 702.4 248.349 702.4 245.409C702.4 244.347 695.204 242.665 698.739 238.194C698.739 238.194 723.959 238.285 727.106 237.994C736.678 237.107 749.454 237.949 753.753 237.993C753.753 237.993 780.943 235.612 780.949 242.015C780.955 248.416 780.171 248.042 773.939 248.042C758.59 255.967 754.379 248.042 754.379 248.042C744.44 251.103 736.204 248.042 736.204 248.042Z" fill="#E5F9FF"/>
<path d="M698.898 238.327C705.308 244.875 708.769 264.705 709.698 273.801V275.845H690.885C691.93 272.434 686.705 254.698 684.266 249.922C681.828 245.147 671.376 223.659 670.68 216.496C669.983 209.333 654.875 199.539 654.178 196.126C653.481 192.714 662.667 190.232 664.757 191.597C666.848 192.961 669.286 193.303 677.299 195.009C685.311 196.714 690.885 230.141 698.898 238.327Z" fill="#003543"/>
<path d="M684.181 246.516C687.247 251.427 691.962 268.117 693.936 275.848H654.221C654.5 272.572 648.299 265.388 645.164 262.206C645.721 257.567 640.286 249.813 637.499 246.516C635.548 240.512 628.326 238.557 624.958 238.33V224.004C624.958 217.524 632.622 206.609 634.364 202.175C636.106 197.741 648.647 193.987 657.357 192.964C666.066 191.941 669.55 205.926 669.898 211.725C670.246 217.523 680.349 240.376 684.181 246.516Z" fill="#001E26"/>
<path d="M683.923 216.789C678.995 210.413 675.768 199.211 674.741 194.473L670.361 193.533C672.597 203.254 680.326 213.075 683.923 216.789Z" fill="#001E26"/>
<path d="M648.043 262.349C650.273 264.533 654.546 272.355 656.404 275.992H640.031C637.801 275.992 637.011 266.897 636.895 262.349C625.747 248.977 615.2 235.453 614.503 231.701C617.987 232.611 632.018 237.382 634.805 238.473C638.289 239.838 645.605 251.433 648.043 254.503C650.482 257.573 645.256 259.619 648.043 262.349Z" fill="#003543"/>
<path d="M638.983 262.884C642.118 266.296 641.421 274.48 642.466 275.845H597.516L587.599 277.731H583.715H577.792C577.792 277.731 573.82 275.982 573.812 274.775C573.803 273.514 573.812 269.841 573.812 269.841L576.336 263.757C576.382 262.852 585.561 250.592 585.561 250.592C585.876 249.125 597.512 240.57 597.512 240.57C599.311 237.073 602.326 234.167 606.235 232.527C613.551 229.458 621.564 233.89 622.957 235.595C624.351 237.301 627.486 246.511 629.228 250.604C630.97 254.697 635.847 259.472 638.983 262.884Z" fill="#001E26"/>
<path d="M627.999 247.309C633.03 247.124 635.136 238.711 634.99 238.557C634.843 238.403 631.973 237.436 631.973 237.436C631.973 237.436 632.54 238.266 632.734 240.382C632.929 242.498 629.577 246.487 627.999 247.309Z" fill="#001E26"/>
<path d="M622.233 248.566C609.438 251.134 611.781 244.71 605.998 246.467C604.261 246.623 606.447 251.088 599.779 249.915C599.779 249.915 596.992 253.565 587.718 255.196C585.11 255.655 582.609 253.679 582.473 251.088C582.092 243.795 597.566 235.774 597.566 235.774C598.664 235.01 602.334 232.545 604.896 231.845C612.748 229.699 622.486 233.864 626.784 233.909C626.784 233.909 640.247 236.547 636.185 243.445C633.649 247.753 626.173 247.776 622.233 248.566Z" fill="#E5F9FF"/>
<path d="M653.402 209.616C640.608 212.177 645.168 206.85 639.385 208.604C636.92 208.823 629.076 217.358 626.312 216.207C624.737 215.551 631.546 202.504 635.079 198.035C635.079 198.035 639.958 194.342 643.002 193.512C650.853 191.37 658.325 189.491 662.623 189.537C662.623 189.537 682.778 191.857 685.5 205.357C685.581 205.755 688.002 212.348 685.01 213.025C683.01 213.477 675.973 208.388 673.483 208.621C670.461 208.903 667.346 214.886 664.654 215.018C661.629 215.166 654.461 209.404 653.402 209.616Z" fill="#E5F9FF"/>
<path d="M1229.23 15.5892L1222.67 11.0366C1220.01 9.19648 1216.23 10.0397 1214.22 12.9558C1212.2 15.872 1212.72 19.7115 1215.36 21.5538L1217.08 22.7335L1218 26.0745C1218.03 26.2114 1218.14 26.32 1218.27 26.3653C1218.4 26.4107 1218.55 26.3872 1218.67 26.3024C1219.23 25.8923 1219.75 25.4282 1220.23 24.9167L1224.28 27.7212C1224.92 28.1864 1225.83 28.0845 1226.39 27.483C1226.75 27.0972 1227.18 26.6168 1227.65 26.0564L1230.59 27.6403L1236.86 18.6212L1229.23 15.5892Z" fill="#E6BEAA"/>
<path d="M1253.48 46.1147C1247.86 53.2181 1239.75 67.3925 1238.3 70.9652C1236.84 74.538 1235.86 75.3916 1235.86 79.0132C1235.87 85.6526 1236.23 107.709 1236.23 107.709C1239.35 110.855 1242.58 110.622 1246.57 109.068L1247.79 84.5315C1247.87 82.9517 1248.53 81.4661 1249.59 80.3193C1253.05 76.5994 1260.91 67.5714 1264.05 59.1987C1266.65 52.2623 1271.4 41.8201 1253.48 46.1147Z" fill="#5A7D7D"/>
<path d="M1259.68 51.657C1257.24 59.276 1256.44 70.7838 1250.86 78.9163C1254.46 75.858 1258.96 67.7011 1264.35 62.3536C1265.42 58.3179 1264.51 56.2336 1259.68 51.657Z" fill="#4F6B6B"/>
<path d="M1266.16 45.9848C1272.39 50.6023 1277.74 75.0743 1277.33 79.0926C1284.85 83.2468 1300.94 102.861 1300.94 102.861C1299.54 106.468 1294.39 106.228 1293.5 107.312L1267.17 86.0857C1267.17 86.0857 1259.09 75.669 1251.42 63.5101C1249.43 60.3689 1248.13 56.9078 1249.09 52.9187C1250.06 48.9295 1266.16 45.9848 1266.16 45.9848Z" fill="#5A7D7D"/>
<path d="M1276.56 75.8774L1271.56 81.5008L1278.96 80.5522C1278.71 80.2453 1276.94 79.1846 1276.76 79.0934C1277.12 78.0573 1276.56 75.8774 1276.56 75.8774Z" fill="#547171"/>
<path d="M1248.24 81.3163L1240.18 80.0671L1247.23 84.58C1247.23 84.58 1247.35 83.8403 1247.61 82.9278C1247.88 82.0153 1248.24 81.3163 1248.24 81.3163Z" fill="#547171"/>
<path d="M1223.79 120.375L1223.86 121.085C1223.93 121.749 1224.46 122.239 1225.12 122.234L1244.85 121.898C1245.56 121.891 1246.25 121.339 1246.3 120.612L1246.34 119.781L1223.79 120.375Z" fill="#00D880"/>
<path d="M1235.6 105.348C1234.63 108.455 1239.02 113.439 1228.92 114.096C1225.58 115.035 1223.48 117.769 1223.76 120.864L1245.14 120.399C1246.97 120.086 1246.31 119.876 1246.96 115.273C1247.92 108.528 1247.92 105.964 1247.92 105.964L1235.6 105.348Z" fill="#000606"/>
<path d="M1287.69 120.36L1296.4 122.555L1307.57 111.06C1307.76 111.364 1308.25 111.959 1308.28 112.319C1308.3 112.679 1308.17 112.757 1307.93 113.018L1298.47 122.957C1297.3 124.216 1296.52 124.116 1294.86 123.585L1287.93 122.01C1287.56 121.903 1287.42 121.793 1287.56 121.114L1287.69 120.36Z" fill="#00D880"/>
<path d="M1302.71 105.004C1305.75 107.9 1306.75 109.62 1307.66 111.199L1296.76 122.771L1287.63 120.787C1288.19 116.985 1292.12 115.263 1294.01 115.03C1295.92 111.778 1293.61 108.919 1290.45 105.004C1292.7 103.282 1295.78 99.1562 1298.51 99.3392L1302.71 105.004Z" fill="#000606"/>
<path d="M1214.81 52.796C1212.56 54.9634 1211.47 55.6295 1210.89 56.5248C1210.3 57.4202 1208.13 61.5526 1207.79 62.5291C1207.54 63.2632 1207.25 64.1239 1207.11 64.5218C1207.09 64.5781 1207.1 64.6391 1207.12 64.6887C1207.15 64.7384 1207.2 64.7718 1207.25 64.7802C1207.95 64.8974 1208.65 64.4959 1208.96 63.8081L1209.57 62.4445C1209.57 62.4445 1211.41 60.563 1212.83 60.034C1214.26 59.505 1214.59 59.9459 1214.29 60.7921C1214.11 61.2912 1213.61 62.3184 1213.23 63.069C1213.11 63.2941 1213.1 63.5553 1213.18 63.7842C1213.26 64.0131 1213.44 64.1868 1213.66 64.2599C1214 64.3726 1214.37 64.2436 1214.59 63.941L1216.09 61.8862C1216.39 61.4757 1216.61 61.0064 1216.72 60.51L1217.57 56.9806L1218.84 54.4234L1215.29 52.0418L1214.81 52.796Z" fill="#E0B09B"/>
<path d="M1210.4 64.3454L1208.78 61.0626C1208.52 60.5311 1208.57 59.8738 1208.92 59.3643L1210.85 56.5068C1211.43 57.0391 1211.88 57.6925 1212.2 58.4276C1212.67 59.6087 1212.93 61.1877 1212.52 62.3452C1212.23 63.1536 1211.4 63.9982 1210.93 64.4304C1210.85 64.5023 1210.74 64.5344 1210.64 64.5179C1210.54 64.5014 1210.45 64.4381 1210.4 64.3454Z" fill="#E6BEAA"/>
<path d="M1240.97 14.2095C1238.81 13.9842 1235.41 14.8107 1233.16 15.5649C1232.22 14.7462 1231.59 14.6078 1230.91 15.3976C1230.24 16.1874 1232.44 31.8557 1232.44 31.8557C1226.45 36.8095 1233.09 33.3501 1232.44 31.8557C1238.42 26.9019 1240.97 14.2095 1240.97 14.2095Z" fill="#001E26"/>
<path d="M1235.76 14.9664C1240.79 11.6759 1246.96 14.4417 1251.33 21.2026C1258.57 32.3735 1266.39 46.1 1266.39 46.1C1260.06 55.0378 1258 55.0378 1258 55.0378C1258 55.0378 1252.77 56.4601 1248.05 53.9912C1232.48 38.9673 1232.25 29.7189 1232.39 23.6646C1232.52 18.42 1233.81 16.2461 1235.76 14.9664Z" fill="#001E26"/>
<path d="M1233.66 42.4265C1236.23 39.5086 1243.67 28.7286 1244.53 26.1305C1245.25 23.9755 1243.77 20.4749 1240.32 19.3318C1239.06 20.3919 1237.81 21.4378 1236.56 22.5572C1234.81 29.4055 1233.66 42.4265 1233.66 42.4265Z" fill="#000D11"/>
<path d="M1218.03 57.2686L1214.41 52.187C1214.41 52.187 1223.13 41.3518 1226.54 37.4268C1228.73 34.9016 1232.42 34.9032 1234.01 37.6023C1235.47 40.0878 1233.93 43.6041 1231.66 45.8649C1228.53 48.9883 1218.03 57.2686 1218.03 57.2686Z" fill="#001E26"/>
<path d="M1240.24 15.0409C1242.39 15.799 1245.44 17.7985 1245.18 22.1879C1244.89 26.8672 1234.77 41.2658 1232.66 43.5373C1230.55 45.8088 1228.03 45.4892 1225.88 43.6031C1223.73 41.717 1228.16 28.3597 1231.43 22.1704C1233.3 18.6539 1237.39 14.0301 1240.24 15.0409Z" fill="#001E26"/>
<path d="M1243.53 16.1226C1240.66 16.4154 1237.04 17.7455 1231.21 22.3508L1229.67 25.6658C1229.67 25.6658 1239.3 18.7799 1243.88 18.0426C1243.88 18.0426 1244.21 17.0729 1243.53 16.1226Z" fill="#336363"/>
<path d="M1239.96 13.448C1239.83 11.1746 1240.73 8.66321 1242.44 8.47464C1247.62 7.90211 1257.19 10.9266 1258.3 11.6991C1259.4 12.4716 1259.58 13.6324 1257.71 14.1033C1255.83 14.5743 1239.96 13.448 1239.96 13.448Z" fill="#5A7D7D"/>
<path d="M1236.14 10.2569C1236.68 9.63861 1237.37 9.17162 1238.15 8.90372C1238.51 8.77302 1238.91 8.88803 1239.14 9.18891C1239.93 10.2704 1240.87 11.2375 1241.93 12.0652L1241.37 13.6316C1241.37 13.6316 1237.98 13.2916 1236.16 11.3528C1235.88 11.0536 1235.87 10.5841 1236.14 10.2569Z" fill="#003543"/>
<path d="M1240.23 13.9924C1240.33 12.9936 1240.55 12.0075 1240.89 11.0583C1241.39 9.93531 1242.01 9.87919 1243.89 9.7085C1245.77 9.53782 1261.2 13.9636 1262.52 14.28C1263.85 14.5963 1264.95 15.5205 1266.14 17.0108C1267.32 18.5011 1273.54 25.2685 1274.51 26.4458C1275.48 27.6232 1275.51 28.1313 1275.59 29.2936C1275.67 30.4559 1272.38 40.2724 1264.3 39.5086C1259.89 39.0846 1247.25 28.1671 1240.23 13.9924Z" fill="#003543"/>
<path d="M1256.11 22.253L1262.25 16.5582C1262.51 16.3171 1262.91 16.3187 1263.15 16.5619C1264.51 17.9316 1268.69 22.145 1269.98 23.6837C1271.55 25.5168 1272.76 28.9423 1270.09 31.4623C1267.43 33.9822 1263.88 34.6316 1260.71 30.8476C1258.85 28.5752 1257.22 26.1183 1255.85 23.5129C1255.64 23.092 1255.75 22.5737 1256.11 22.253Z" fill="#5A7D7D"/>
<path d="M1257.65 33.0364C1254.34 34.7832 1241.21 47.1761 1241.21 47.1761C1240.71 47.4613 1243.09 49.4602 1243.09 49.4602C1252.78 48.0669 1259.03 34.2856 1259.03 34.2856L1257.65 33.0364Z" fill="#003543"/>
<path d="M1222.72 20.0252C1223.4 20.5736 1225.62 21.8313 1226.4 21.8304C1227.65 21.6473 1228.45 20.6799 1229.14 19.8561C1229.14 19.8561 1231.87 16.538 1231.49 15.7367C1231.49 15.7367 1231.55 15.5476 1231.07 14.8481C1228.7 10.6283 1224.62 9.67961 1224.62 9.67961C1223.88 9.37119 1221.13 8.46237 1221.13 8.46237C1220.2 8.12631 1218.55 8.1008 1217.65 8.06327C1216.6 8.01932 1215.47 8.59818 1214.57 9.6406C1211.23 13.4998 1211.72 14.4991 1210.73 15.9991C1209.8 19.9028 1213.2 21.8599 1213.72 20.5C1214.63 18.0984 1215.4 18.2884 1215.89 18.1856C1216.54 18.0501 1217.51 18.4871 1218.16 18.6039C1218.49 18.6641 1218.88 18.7796 1219.34 18.9278C1218.6 18.4138 1218.34 17.2631 1218.97 17.0247C1220.44 16.4679 1221.86 19.3396 1222.72 20.0252Z" fill="#000808"/>
<path d="M1184.54 153.566C1181.39 152.532 1168.41 157.737 1161.51 159.828C1159.35 162.028 1150.69 163.371 1143.1 163.371C1137.1 173.152 1141.6 197.3 1139.5 201.273C1137.86 204.383 1137.43 221.367 1137.04 229.353C1137.02 229.637 1137.25 229.871 1137.54 229.871H1143.57C1143.72 229.871 1143.86 229.808 1143.94 229.684C1146.09 226.569 1149 212.559 1149.1 206.775C1152.93 201.884 1156.09 185.99 1157.19 178.654C1157.19 178.654 1167.56 182.869 1180.86 168.48C1179.66 171.659 1194.83 185.481 1195.03 186.5C1199.03 187.407 1200.06 183.653 1200.62 183.274C1201.18 182.895 1196.03 173.101 1195.76 172.272C1195.5 171.449 1187.07 154.392 1184.54 153.566Z" fill="#B4B48C"/>
<path d="M1139.94 199.477L1144.68 202.496L1138.99 202.815C1139.1 202.181 1139.46 201.323 1139.64 200.939C1139.88 200.084 1139.94 199.477 1139.94 199.477Z" fill="#A8A882"/>
<path d="M1147.29 176.517C1147.77 176.517 1154.09 177.944 1157.18 178.657C1157.14 178.959 1156.72 181.613 1156.47 182.987L1148.19 178.657L1149.69 178.351C1149.21 178.107 1147.89 177.027 1147.29 176.517Z" fill="#A8A882"/>
<path d="M1182 171.668L1185.11 163.006L1180.85 168.488C1180.54 169.299 1181.33 170.758 1182 171.668Z" fill="#A8A882"/>
<path d="M1146.72 112.773C1146.26 112.921 1148.44 116.741 1148.18 117.853L1148.31 123.972L1155.18 125.47L1157.3 123.55L1154.88 118.837C1155.52 118.838 1156.79 118.057 1157.56 117.317C1158.52 116.392 1157.32 113.963 1155.81 110.771C1154.28 107.513 1153.24 108.223 1152.09 108.591C1151.17 108.886 1151.57 109.579 1151.89 109.889C1151.43 110.036 1151.04 110.786 1151.35 111.714C1149.83 110.969 1149.96 111.739 1149.38 111.923L1146.72 112.773Z" fill="#E6BEAA"/>
<path d="M1157.67 117.177C1156.13 118.83 1154.87 118.845 1154.87 118.845C1153.86 118.394 1152.71 117.815 1152.2 116.595C1153.65 117.261 1156.28 116.988 1157.67 117.177Z" fill="#D3B09E"/>
<path d="M1142.27 106.303C1140.78 104.237 1138.15 101.823 1136.31 104.308C1134.55 106.677 1135.85 112.409 1136.78 116.516C1137.24 118.552 1137.61 120.188 1137.47 120.816C1137.14 122.331 1136.43 123.382 1136.11 123.719C1137.12 123.914 1139.13 122.548 1139.12 115.526C1139.11 109.318 1139.96 109.23 1140.53 110.179C1139.92 113.069 1139.94 120.083 1146.37 121.338C1147.89 121.636 1149.75 121.762 1149.18 114.982C1148.87 113.915 1148.66 112.598 1150.74 113.016C1152.41 111.897 1155.37 108.467 1153.41 106.544C1150.95 104.14 1145.7 103.412 1143.82 104.703C1143.41 104.986 1142.83 105.534 1142.27 106.303Z" fill="#24240F"/>
<ellipse rx="1.33325" ry="3.44039" transform="matrix(-0.909656 -0.415362 -0.429679 0.902982 1141.38 108.276)" fill="#28AAF0"/>
<path d="M1209.61 191.471C1209.62 191.672 1209.61 191.883 1209.5 192.052C1209.32 192.327 1209.02 192.5 1208.63 192.504L1194.99 192.633C1194.45 192.638 1194.33 192.148 1194.31 191.843L1194.28 191.539L1209.61 191.471Z" fill="#003C3C"/>
<path d="M1200.59 180.402C1201.28 182.34 1201.42 186.63 1204.02 187.173C1208.01 187.997 1209.71 189.495 1209.6 191.479L1194.38 191.748C1193.38 190.72 1192.7 186.865 1192.62 185.503C1192.55 184.142 1192.53 183.833 1192.53 183.833L1200.59 180.402Z" fill="#2E6160"/>
<path d="M1148.19 238.262C1151.43 236.97 1151.53 235.678 1151.43 234.965L1136.5 237.956V238.501C1136.5 238.876 1136.74 239.364 1137.1 239.485C1138 239.791 1145.69 239.261 1148.19 238.262Z" fill="#003C3C"/>
<path d="M1136.81 228.639L1144.85 228.637C1145.3 228.637 1145.63 229.059 1145.52 229.492L1144.48 233.569C1153.74 232.999 1152.05 235.882 1149.82 236.624C1148.24 237.732 1139.9 239.076 1136.5 238.567C1135.54 236.855 1135.98 231.756 1135.98 231.756L1136.13 229.283C1136.15 228.921 1136.45 228.64 1136.81 228.639Z" fill="#2E6160"/>
<path d="M1130.72 170.327C1129.05 168.395 1129.62 164.36 1130.21 162.94L1129.84 161.827L1132.33 161.646C1132.64 161.956 1133.27 162.946 1133.26 164.429C1133.24 166.284 1136.29 167.773 1135.9 168.514C1135.51 169.255 1134.74 168.883 1134.56 168.326C1133.22 168.138 1134.71 172.591 1134.13 172.776C1133.56 172.96 1132.8 172.742 1130.72 170.327Z" fill="#E6BEAA"/>
<path d="M1187.35 111.35C1189.1 110.07 1189.92 109.726 1190.4 109.156C1190.88 108.585 1192.74 105.889 1193.05 105.23C1193.28 104.734 1193.56 104.153 1193.69 103.885C1193.71 103.847 1193.71 103.802 1193.69 103.763C1193.68 103.724 1193.65 103.695 1193.61 103.682C1193.13 103.513 1192.6 103.715 1192.33 104.171L1191.8 105.074C1191.8 105.074 1190.36 106.198 1189.31 106.403C1188.27 106.608 1188.07 106.251 1188.35 105.681C1188.51 105.346 1188.95 104.671 1189.27 104.179C1189.37 104.032 1189.4 103.846 1189.36 103.672C1189.32 103.498 1189.21 103.352 1189.06 103.272C1188.84 103.151 1188.56 103.198 1188.39 103.388L1187.17 104.678C1186.93 104.935 1186.74 105.245 1186.61 105.586L1185.74 108.013L1184.64 109.691L1186.96 111.832L1187.35 111.35Z" fill="#E0B09B"/>
<path fill-rule="evenodd" clip-rule="evenodd" d="M1129.68 164.995L1134 165.462C1135.33 159.903 1137.9 148.718 1137.15 147.975C1136.2 147.046 1140.88 142.144 1141.83 143.073C1142.59 143.816 1141.66 159.21 1141.6 166.009C1146.04 167.872 1159.35 167.746 1166.33 158.119L1165.66 151.465C1165.59 149.005 1165.86 143.641 1164.84 137.558C1163.83 131.474 1166.66 127.735 1161.72 124.387L1159.77 123.663C1159.06 123.397 1158.31 123.239 1157.55 123.195L1153.09 122.936L1147.55 123.86C1144.88 124.45 1140.72 126.792 1137.14 132.866C1133.56 138.94 1131.61 144.906 1131.07 147.13C1129.96 150.156 1127.76 157.723 1129.68 164.995Z" fill="#28AAF0"/>
<path d="M1188.99 111.5L1185.21 108.613C1185.21 108.613 1175.83 115.88 1172.43 118.734C1170.24 120.568 1170.19 123.846 1172.46 125.37C1174.56 126.774 1177.58 125.557 1179.55 123.642C1182.26 120.999 1188.99 111.5 1188.99 111.5Z" fill="#28AAF0"/>
<path d="M1158.6 129.845C1159.3 131.441 1160.99 133.68 1164.24 133.318C1167.72 132.927 1178.81 124.546 1180.37 122.866C1181.93 121.187 1180.55 119.496 1179.01 117.939C1177.47 116.382 1164.46 121.933 1160.04 124.636C1157.54 126.175 1157.67 127.727 1158.6 129.845Z" fill="#28AAF0"/>
<path d="M1144.46 125.193C1144.5 125.263 1143.65 127.136 1143.22 128.063L1144.86 128.04C1145.17 126.337 1145.97 124.778 1146.33 124.212C1145.48 124.508 1144.42 125.105 1144.46 125.193Z" fill="#5A7D7D"/>
<path d="M1149.58 127.842C1150.55 125.701 1154.93 122.801 1157.5 123.089C1158.51 123.126 1160.04 123.727 1160.04 123.727C1160.04 123.727 1155.76 124.741 1151.98 127.572C1149.98 126.999 1150.83 126.573 1149.58 127.842Z" fill="#5A7D7D"/>
<path d="M1137.43 146.589L1135.14 148.005C1134.98 148.109 1134.87 148.287 1134.84 148.504C1134.03 154.432 1134.87 158.246 1135.96 160.244C1137.07 162.278 1139.47 163.692 1141.19 163.007C1142.36 162.542 1141.79 154.544 1137.43 146.589Z" fill="#336363"/>
<path d="M1153.17 127.28C1150.53 126.156 1149.06 126.06 1147.81 126.557C1143.09 128.429 1140.87 128.607 1138.86 128.698C1135.51 128.847 1133.95 130.125 1134.58 132.296C1135.76 136.374 1136.92 144.223 1136.92 147.067C1135.33 151.506 1135.52 156 1136.72 158.569C1137.93 161.138 1140.24 163.251 1141.53 163.497C1143.58 163.89 1155.21 163.412 1158.41 161.887C1161.61 160.361 1163.19 157.196 1162.43 152.319C1161.67 147.443 1157.61 134.23 1156.38 130.858C1155.69 128.939 1154.82 127.988 1153.17 127.28Z" fill="#5A7D7D"/>
<path d="M1162.18 143.606C1159.98 142.786 1155.62 142.86 1154.02 143.355C1153.82 143.413 1153.71 143.598 1153.72 143.831C1153.93 147.585 1152.07 150.721 1153.39 155.236C1154.76 159.881 1158.4 162.042 1161.02 161C1163.64 159.959 1165.58 157.804 1165.19 153.947C1164.81 150.219 1163.98 147.238 1162.65 144.076C1162.56 143.864 1162.38 143.686 1162.18 143.606Z" fill="#336363"/>
<path d="M1136.56 142.858L1136.74 144.42C1139.38 144.358 1149.06 143.7 1150.75 143.661C1152.44 143.622 1153.34 142.571 1152.73 140.242C1152.13 137.913 1136.56 142.858 1136.56 142.858Z" fill="#012934"/>
<ellipse rx="2.953" ry="2.71961" transform="matrix(0.969375 -0.363174 0.416062 0.864594 1145.79 125.943)" stroke="#405A5A" stroke-width="2.0581"/>
<path d="M1153.52 127.424C1152.28 126.233 1151.14 125.541 1149.47 125.475C1146.34 125.35 1138.71 127.288 1136.93 127.76C1135.14 128.233 1133.09 129.616 1133.6 131.613C1134.34 134.521 1135.36 139.549 1135.39 141.856C1135.4 143.269 1136.13 143.854 1137.38 143.801C1138.63 143.749 1149.48 142.727 1151.04 142.571C1152.59 142.415 1153.6 141.286 1153.5 140.195C1153.35 138.682 1150.46 131.081 1149.7 129.528C1149.17 128.439 1149.75 127.348 1150.93 127.088C1151.73 126.885 1152.64 127.004 1153.52 127.424Z" fill="#336363"/>
<path d="M1144.64 140.633C1144.61 140.531 1144.54 140.434 1144.46 140.366C1144.37 140.299 1144.27 140.266 1144.18 140.277L1141.91 140.548C1141.74 140.569 1141.65 140.735 1141.71 140.928C1141.91 141.629 1142.36 143.25 1142.4 144.232C1142.41 144.404 1142.41 144.594 1142.4 144.795C1142.05 144.801 1141.72 144.82 1141.41 144.859C1141.28 144.873 1141.19 144.974 1141.19 145.114L1141.16 145.905C1141.15 146.022 1141.21 146.149 1141.3 146.244C1141.4 146.339 1141.52 146.389 1141.63 146.377C1141.79 146.357 1142 146.339 1142.24 146.321C1142.19 146.685 1142.13 147.018 1142.08 147.272C1142.06 147.383 1142.1 147.511 1142.19 147.615C1142.27 147.719 1142.39 147.785 1142.5 147.791L1144.8 147.907C1144.93 147.913 1145.04 147.83 1145.06 147.696C1145.11 147.424 1145.19 146.924 1145.26 146.353C1145.52 146.376 1145.79 146.402 1146.06 146.438C1146.22 146.458 1146.33 146.368 1146.36 146.218L1146.46 145.474C1146.47 145.367 1146.43 145.245 1146.35 145.146C1146.28 145.047 1146.17 144.982 1146.06 144.971C1145.87 144.951 1145.63 144.93 1145.36 144.908C1145.36 144.677 1145.36 144.444 1145.34 144.208C1145.25 143.093 1144.83 141.398 1144.64 140.633Z" fill="#003C3C"/>
<ellipse rx="2.23449" ry="2.92889" transform="matrix(0.94273 0.346561 -0.357248 0.929192 1145.25 139.168)" fill="#003C3C"/>
<ellipse rx="2.23447" ry="2.92888" transform="matrix(0.94273 0.346563 -0.357247 0.929192 1145.11 138.712)" fill="#00D180"/>
<path fill-rule="evenodd" clip-rule="evenodd" d="M1146.58 139.456L1145.32 139.792L1145.53 139.307L1146.36 139.087L1145.75 137.974L1145.54 138.456L1145.15 139.356C1145.01 139.7 1144.74 139.96 1144.45 140.027L1143.66 140.237C1143.58 140.264 1143.5 140.234 1143.46 140.159C1143.42 140.084 1143.42 139.977 1143.47 139.881L1144.53 137.428C1144.57 137.33 1144.65 137.255 1144.73 137.232C1144.81 137.21 1144.89 137.245 1144.93 137.322L1145.34 138.084L1145.56 137.579C1145.6 137.485 1145.68 137.413 1145.76 137.392C1145.84 137.37 1145.91 137.402 1145.95 137.475L1146.78 138.996C1146.82 139.069 1146.82 139.173 1146.77 139.268C1146.73 139.363 1146.66 139.435 1146.58 139.456ZM1143.88 139.722L1144.42 139.577L1144.42 139.579C1144.59 139.545 1144.75 139.392 1144.82 139.189L1145.1 138.547L1144.7 137.811L1143.88 139.722Z" fill="#003C3C"/>
<path d="M784.711 129.246L787.556 122.406C788.706 119.641 792.066 118.356 795.073 119.568C798.08 120.779 799.583 123.985 798.437 126.75L797.685 128.532L798.628 131.562C798.668 131.686 798.643 131.82 798.562 131.923C798.481 132.025 798.355 132.083 798.222 132.077C797.581 132.05 796.944 131.961 796.321 131.812L794.565 136.027C794.291 136.716 793.539 137.098 792.806 136.922C792.333 136.812 791.758 136.664 791.123 136.469L789.619 139.186L780.283 135.464L784.711 129.246Z" fill="#E6BEAA"/>
<path d="M785.083 128.426L787.586 122.406C788.736 119.641 792.096 118.356 795.103 119.568C795.796 119.845 796.433 120.243 796.982 120.742C796.982 124.089 795.031 126.913 792.216 127.303C791.812 127.356 791.403 127.356 790.998 127.303C789.635 129.143 787.049 129.634 785.083 128.426Z" fill="#2A2A2A"/>
<path d="M790.927 119.929C791.1 118.766 793.862 117.963 795.527 118.456C797.192 118.95 801.338 121.925 803.679 122.304C800.507 124.365 797.572 124.969 795.411 124.108C793.543 123.349 790.927 119.929 790.927 119.929Z" fill="#2A2A2A"/>
<ellipse rx="1.53983" ry="1.92699" transform="matrix(-0.982318 -0.187217 -0.194813 0.98084 791.977 127.161)" fill="#E6BEAA"/>
<path d="M788.539 131.297C788.866 132.663 791.22 135.854 792.019 136.62L791.483 136.473L791.22 136.943C790.405 135.705 788.993 134.018 788.539 131.297Z" fill="#D3B09E"/>
<path d="M790.103 173.528C795.947 179.028 804.163 199.235 805.888 202.181C807.613 205.126 806.888 206.926 809.609 212.393C812.33 217.86 819.2 234.85 819.2 234.85C811.469 238.218 811.238 237.702 807.518 236.859L795.703 210.769C795.703 210.769 780.117 193.323 776.964 187.576C773.811 181.829 773.713 172.096 790.103 173.528Z" fill="#000D0E"/>
<path d="M802.638 208.348L794.918 209.48L796.066 210.784L796.807 212.441L802.638 208.348Z" fill="#001D1F"/>
<path d="M786.803 180.071C787.235 187.279 790.283 200.743 794.143 209.004C790.858 205.275 783.18 196.454 779.106 190.81C779.095 187.036 780.951 183.149 786.803 180.071Z" fill="#001D1F"/>
<path d="M774.551 172.009C768.913 176.99 768.155 181.368 765.918 186.673C761.327 195.207 757.766 201.621 757.766 201.621C753.843 202.559 750.005 203.813 746.292 205.368C739.846 208.034 732.235 214.988 732.235 214.988C733.81 220.459 733.708 220.84 736.081 223.005L765.918 211.019C765.918 211.019 787.63 195.903 790.933 183.32C791.787 180.069 791.978 176.723 790.095 173.527C788.212 170.332 774.551 172.009 774.551 172.009Z" fill="#000D0E"/>
<path d="M762.522 206.925L756.155 202.112L758.102 201.618L758.864 200.26L762.522 206.925Z" fill="#001D1F"/>
<path d="M819.413 233.268C819.218 236.758 821.776 243.605 825.647 246.215C828.887 248.402 830.056 251.933 828.515 254.948L807.009 246.44C806.092 244.165 807.106 240.944 807.009 240.512C805.938 235.771 805.843 233.897 805.843 233.897L819.413 233.268Z" fill="black"/>
<path d="M828.517 254.947L828.122 255.613C827.753 256.237 826.971 256.501 826.288 256.232L807.631 248.835C806.893 248.542 806.525 247.727 806.8 246.994L807.011 246.449L828.517 254.947Z" fill="#00D880"/>
<path d="M728.553 215.634C724.952 217.635 722.965 217.967 721.901 220.244L729.033 234.659L738.051 235.486C738.692 232.053 735.606 229.479 733.932 228.751C733.172 225.42 735.738 224.62 739.842 222.123C738.296 220.014 736.433 214.025 733.855 213.422L728.553 215.634Z" fill="black"/>
<path d="M738.065 235.481L729.045 234.65L721.904 220.235L721.039 220.6C720.714 220.737 720.46 220.996 720.333 221.32C720.206 221.643 720.218 222.003 720.365 222.317L726.179 234.704C726.893 236.221 728.43 237.205 730.135 237.235L736.676 237.378C737.36 237.393 737.941 236.89 738.011 236.223L738.065 235.481Z" fill="#00D880"/>
<path d="M767.48 153.423C767.707 152.208 768.242 151.068 769.036 150.109L779.222 137.784C780.041 150.695 776.636 162.943 773.851 165.288C770.822 167.839 767.266 167.409 764.523 166.311C765.049 165.504 765.41 164.604 765.586 163.661L767.48 153.423Z" fill="#006262"/>
<path d="M778.77 133.363C778.182 132.654 777.503 132.022 776.751 131.482C775.8 130.885 775.3 131.169 773.797 132.019C772.294 132.87 762.962 144.279 762.127 145.21C761.293 146.141 760.94 147.419 760.819 149.168C760.699 150.916 759.515 159.299 759.395 160.698C759.275 162.097 759.515 162.498 760.056 163.422C760.598 164.346 768.156 170.082 773.85 165.285C776.127 150.311 780.825 147.78 778.77 133.363Z" fill="#006262"/>
<path d="M778.177 132.96C777.169 131.289 774.789 130.283 773.45 131.008C769.397 133.199 763.888 140.132 763.458 141.231C763.028 142.33 763.458 143.242 765.053 142.636C766.648 142.029 778.177 132.96 778.177 132.96Z" fill="#002021"/>
<path d="M771.234 153.48L760.848 152.34C760.527 152.297 760.501 152.534 760.441 152.814C760.114 154.385 759.624 158.706 759.436 160.36C758.912 163.798 761.594 165.299 765.325 166.642C767.563 167.136 770.77 168.776 772.181 161.479C772.419 159.061 772.384 156.628 772.075 154.216C772.019 153.831 771.673 153.528 771.234 153.48Z" fill="#006262"/>
<path d="M775.911 133.266C777.166 132.718 779.204 131.812 780.691 131.8C781.101 131.157 781.457 130.955 782.004 131.27C782.55 131.585 791.076 138.93 791.076 138.93C790.956 139.9 788.543 142.494 784.065 140.858C779.586 139.223 775.911 133.266 775.911 133.266Z" fill="#003543"/>
<path d="M780.242 132.02C774.743 132.02 771.379 137.266 771.379 144.688C771.379 156.951 773.717 172.096 773.717 172.096C774.385 173.938 780.118 177.039 784.482 177.961C788.846 178.883 789.873 179.805 795.193 180.703C796.11 179.36 796.132 168.103 795.193 165.055C789.871 148.08 790.284 141.617 787.161 137.023C784.455 133.043 782.38 132.02 780.242 132.02Z" fill="#003543"/>
<path d="M777.86 132.381C780.202 131.166 782.457 131.692 784.456 133.651C788.666 137.785 788.553 147.854 782.743 154.348H780.341C785.261 149.039 787.388 139.188 784.099 134.604C782.791 132.778 779.826 132.108 777.86 132.381Z" fill="#5A7D7D"/>
<path d="M787.683 157.547C786.407 159.846 777.256 160.499 772.093 159.917C771.77 157.34 771.959 157.586 771.64 153.919C776.157 154.626 787.683 157.547 787.683 157.547Z" fill="#000F23"/>
<path d="M783.303 140.443C782.596 144.515 780.529 153.392 779.338 155.225C778.349 156.746 775.001 157.732 771.915 156.366C771.813 155.107 771.719 153.822 771.641 152.53C775.14 148.002 783.303 140.443 783.303 140.443Z" fill="#000F23"/>
<path d="M787.839 157.914L787.192 152.915C787.192 152.915 774.414 151.346 769.611 150.941C766.521 150.68 763.939 153.099 764.495 155.948C765.006 158.573 768.254 159.924 771.234 159.958C775.35 160.005 787.839 157.914 787.839 157.914Z" fill="#003543"/>
<path d="M783.188 134.316C781.512 132.984 778.396 131.507 775.055 133.731C771.495 136.106 765.166 150.633 764.426 153.327C763.685 156.022 765.204 157.852 767.775 158.669C770.345 159.487 778.7 149.889 781.959 144.485C783.808 141.411 785.417 136.083 783.188 134.316Z" fill="#003543"/>
<ellipse cx="774.851" cy="133.511" rx="4.07932" ry="4.42296" fill="#5A7D7D"/>
<path d="M786.902 153.288C789.642 152.331 790.66 151.69 791.641 151.591C792.622 151.491 796.926 151.473 797.865 151.62C798.568 151.738 799.395 151.87 799.778 151.929C799.832 151.938 799.879 151.97 799.908 152.016C799.936 152.062 799.942 152.118 799.925 152.169C799.717 152.816 799.083 153.241 798.391 153.196L797.02 153.107C797.02 153.107 794.689 153.844 793.637 154.831C792.585 155.817 792.795 156.303 793.614 156.421C794.099 156.487 795.152 156.517 795.926 156.528C796.158 156.531 796.377 156.634 796.526 156.808C796.675 156.983 796.738 157.213 796.7 157.437C796.647 157.771 796.38 158.033 796.039 158.085L793.716 158.453C793.251 158.528 792.776 158.504 792.322 158.383L789.089 157.529L786.458 157.478L786.083 153.358L786.902 153.288Z" fill="#E0B09B"/>
<path d="M798.187 154.713L796.232 151.859C795.917 151.396 795.361 151.147 794.797 151.215L791.639 151.583C791.822 152.308 792.153 152.99 792.613 153.586C793.365 154.518 794.53 155.449 795.646 155.618C796.428 155.732 797.473 155.405 798.029 155.195C798.122 155.159 798.194 155.084 798.224 154.99C798.255 154.897 798.241 154.795 798.187 154.713Z" fill="#E6BEAA"/>
<rect y="295" width="1441" height="65" fill="#001E26"/>
</svg>
