<svg xmlns="http://www.w3.org/2000/svg" width="140" height="40" fill="none" viewBox="0 0 140 40"><path fill="#00B388" d="M30.0702 0.860315C27.8208 0.339685 24.1232 0 19.943 0C15.7629 0 12.0653 0.339685 9.81584 0.860315C5.33088 1.80414 1.799 5.34611 0.857864 9.84388C0.338717 12.0997 0 15.8079 0 20C0 24.1921 0.338717 27.9003 0.857864 30.1561C1.799 34.6539 5.33088 38.1959 9.81584 39.1397C12.0653 39.6603 15.7629 40 19.943 40C24.1232 40 27.8208 39.6603 30.0702 39.1397C34.5552 38.1959 38.087 34.6539 39.0282 30.1561C39.5473 27.9003 39.886 24.1921 39.886 20C39.886 15.8079 39.5473 12.0997 39.0282 9.84388C38.087 5.34611 34.5552 1.80414 30.0702 0.860315V0.860315Z"/><path fill="#fff" d="M24.7352 30.7051C24.3567 29.8016 23.5534 29.1214 22.576 28.9157C21.9911 28.7803 21.0297 28.692 19.9429 28.692C18.8561 28.692 17.8947 28.7803 17.3098 28.9157C16.3394 29.1199 15.5406 29.7919 15.1588 30.6857C15.0264 30.9957 14.7092 31.1848 14.3735 31.1539C14.2905 31.1463 14.2188 31.1394 14.1584 31.1334C12.5945 30.9772 11.3652 30.7594 10.651 30.5051C10.6498 30.5045 10.6484 30.5039 10.6467 30.5033C10.1675 30.3226 9.82642 29.8587 9.82642 29.315C9.82642 29.3015 9.82663 29.288 9.82705 29.2746C9.82814 29.2527 9.82943 29.2304 9.83089 29.2075C9.83131 29.2025 9.83177 29.1974 9.83225 29.1923C9.83361 29.1781 9.83447 29.1643 9.83481 29.151C9.95656 27.5186 10.9451 23.697 12.4216 19.3349C14.1095 14.3483 15.8747 10.3112 16.6707 9.52373C16.7977 9.39106 16.9443 9.27995 17.1064 9.19426C17.1696 9.15803 17.2498 9.12339 17.3449 9.0907C17.3474 9.08985 17.3499 9.08899 17.3524 9.08815C17.8754 8.91079 18.8392 8.79199 19.9419 8.79199C21.0466 8.79199 22.0104 8.91079 22.5325 9.08783C22.5359 9.08899 22.5384 9.08985 22.5409 9.0907C22.636 9.12339 22.7162 9.15803 22.7794 9.19426C22.9415 9.27995 23.0881 9.39106 23.214 9.5223C23.2144 9.52273 23.2148 9.52321 23.2151 9.52373C24.0111 10.3112 25.7763 14.3483 27.4642 19.3349C28.9407 23.697 29.9292 27.5186 30.051 29.151C30.0513 29.1643 30.0522 29.1781 30.0536 29.1923C30.054 29.1974 30.0545 29.2025 30.0549 29.2075C30.0564 29.2304 30.0577 29.2527 30.0588 29.2746C30.0592 29.288 30.0594 29.3015 30.0594 29.315C30.0594 29.8587 29.7184 30.3226 29.2391 30.5033C29.2374 30.5039 29.236 30.5045 29.2348 30.5051C28.5212 30.7591 27.2935 30.9768 25.7315 31.133C25.6637 31.1398 25.5818 31.1475 25.4856 31.1563L25.4856 31.1563C25.1638 31.1858 24.86 31.0031 24.7352 30.7051V30.7051Z"/><path fill="#fff" fill-rule="evenodd" d="M63.7084 13.3259H67.52V30.0059H63.7084V27.075C62.5173 29.1539 60.4755 30.3467 57.821 30.3467C53.3969 30.3467 49.8577 26.4616 49.8577 21.6563C49.8577 16.851 53.3969 13 57.821 13C60.4755 13 62.5173 14.1928 63.7084 16.2717V13.3259ZM120.773 13.3259H124.584V30.0059H120.773V27.075C119.581 29.1539 117.54 30.3467 114.885 30.3467C110.461 30.3467 106.922 26.4616 106.922 21.6563C106.922 16.851 110.461 13 114.885 13C117.54 13 119.581 14.1928 120.773 16.2717V13.3259ZM58.7229 26.7218C61.6156 26.7218 63.7936 24.5406 63.7936 21.6438C63.7936 18.7811 61.6156 16.6 58.7229 16.6C55.8983 16.6 53.6522 18.8493 53.6522 21.6438C53.6522 24.4725 55.8983 26.7218 58.7229 26.7218V26.7218ZM115.587 26.7218C118.48 26.7218 120.658 24.5406 120.658 21.6438C120.658 18.7811 118.48 16.6 115.587 16.6C112.763 16.6 110.517 18.8493 110.517 21.6438C110.517 24.4725 112.763 26.7218 115.587 26.7218ZM73.2267 5C74.5539 5 75.6769 6.12464 75.6769 7.41968C75.6769 8.78288 74.5539 9.87344 73.2267 9.87344C71.8995 9.87344 70.8105 8.78288 70.8105 7.41968C70.8105 6.12464 71.8995 5 73.2267 5V5ZM71.355 13.28H75.1324V29.96H71.355V13.28ZM86.9982 12.9541C87.7259 12.9541 88.4266 13.0623 88.9318 13.2546C89.2292 13.3678 89.4915 13.4929 89.6951 13.5985L88.1579 16.8212C87.6735 16.6742 87.1487 16.6006 86.6239 16.6006C84.7862 16.6006 82.7443 18.1342 82.7443 21.0651V29.96H78.9668V13.28H82.7443V15.6805C83.493 14.0787 85.3647 12.9541 86.9982 12.9541V12.9541ZM105.97 25.7341C104.711 28.4946 101.784 30.3008 98.3129 30.3008C93.3784 30.3008 89.6009 26.5861 89.6009 21.6445C89.6009 16.7029 93.3443 12.9541 98.2789 12.9541C101.512 12.9541 104.234 14.5558 105.46 17.0096L102.261 18.8158C101.58 17.4867 100.083 16.6006 98.2789 16.6006C95.4203 16.6006 93.3443 18.7818 93.3443 21.6445C93.3443 24.4731 95.4543 26.6542 98.3129 26.6542C100.253 26.6542 101.852 25.7341 102.601 24.2005L105.97 25.7341ZM132.196 5V29.96H128.418V5H132.196ZM139.808 5V29.96H136.03V5H139.808Z" clip-rule="evenodd"/></svg>