<svg xmlns="http://www.w3.org/2000/svg" width="200" height="43" fill="none" viewBox="0 0 200 43"><path fill="#fff" d="M18.7902 9.68674C18.6743 9.53508 18.5402 9.45508 18.3985 9.45508C18.2912 9.45934 18.1872 9.4937 18.0985 9.55425C16.9935 10.4217 15.4818 14.0984 14.2427 18.9434L15.3393 18.9559C17.506 18.9801 19.7427 19.0059 21.9543 19.0393C21.371 16.8201 20.8202 14.9176 20.3152 13.3826C19.5768 11.1392 19.0785 10.1342 18.7902 9.68674Z"/><path fill="#fff" d="M21.25 0.345703C9.79084 0.345703 0.5 9.6357 0.5 21.0957C0.5 32.5557 9.79084 41.8457 21.25 41.8457C32.7092 41.8457 42 32.5557 42 21.0957C42 9.6357 32.7092 0.345703 21.25 0.345703ZM36.1667 21.4724L36.1617 21.4765C36.14 21.494 36.1167 21.5115 36.0934 21.5282L36.07 21.544L36.0217 21.5732C36.0069 21.5826 35.9916 21.5912 35.9759 21.599V21.599C35.8183 21.6817 35.643 21.7249 35.465 21.7249H25.6367C25.7159 22.0507 25.8034 22.4207 25.895 22.8232C26.4334 25.1507 27.8642 31.3332 29.3842 31.3332H29.4167H29.4334H29.4625C30.65 31.3332 31.2559 29.6165 32.5842 25.8557L32.6 25.8099C32.8142 25.2057 33.055 24.524 33.315 23.8032L33.3817 23.619C33.4221 23.5169 33.4967 23.4319 33.5927 23.3785C33.6887 23.3251 33.8003 23.3067 33.9084 23.3263C34.0165 23.346 34.1144 23.4025 34.1855 23.4863C34.2566 23.57 34.2965 23.6758 34.2984 23.7857C34.2986 23.832 34.2918 23.8781 34.2784 23.9224V23.9224L34.2234 24.1074C34.085 24.5549 33.9375 25.1649 33.7675 25.8707C32.9759 29.1515 31.78 34.1082 28.7109 34.1082H28.6892C26.7059 34.0924 25.5225 30.9224 25.0134 29.569C24.0659 27.0382 23.3467 24.3415 22.6575 21.7299H13.6117L11.7333 27.7374L11.7058 27.7157C11.5951 27.8898 11.431 28.0233 11.2381 28.0964C11.0452 28.1694 10.8337 28.178 10.6355 28.1209C10.4373 28.0637 10.2629 27.9439 10.1384 27.7794C10.0139 27.6149 9.94608 27.4145 9.94501 27.2082V27.1757L10.0583 26.4957C10.3175 24.9515 10.6283 23.3474 10.9833 21.7265H7.16667L7.15251 21.7124C6.81179 21.66 6.50099 21.4876 6.2761 21.2263C6.0512 20.9651 5.92699 20.6321 5.92584 20.2874C5.92385 19.9504 6.04087 19.6235 6.25628 19.3643C6.47169 19.1052 6.77166 18.9304 7.10334 18.8707C7.25168 18.855 7.40086 18.8486 7.55001 18.8515H7.73584C8.94751 18.8724 10.2358 18.8915 11.6408 18.9099C13.635 10.8065 15.945 6.6932 18.5075 6.68154C21.2575 6.68154 23.2959 12.9424 24.9284 19.0657L24.935 19.0899C28.2892 19.1574 31.8642 19.2565 35.34 19.5065L35.4859 19.5199C35.5417 19.5209 35.5974 19.5259 35.6525 19.5349H35.6734H35.6909H35.7C35.9054 19.576 36.0948 19.6751 36.2457 19.8203C36.3967 19.9656 36.503 20.1509 36.552 20.3546C36.6011 20.5583 36.5909 20.7717 36.5226 20.9698C36.4543 21.1678 36.3308 21.3422 36.1667 21.4724Z"/><path fill="#fff" d="M53.5141 26.2873L51.87 30.3523H47.0908L56.1833 9.12646H60.4033L69.465 30.3523H64.715L63.07 26.2873H53.5141ZM58.2641 14.4948L55.1608 22.2223H61.4292L58.2641 14.4948Z"/><path fill="#fff" d="M96.4016 22.1916V30.3525H92.0875V22.5633C92.0875 20.205 90.94 18.9325 88.9208 18.9325C88.0208 18.9325 87.0275 19.3366 86.1283 20.5775C86.2007 21.1126 86.2413 21.6516 86.25 22.1916V30.3525H81.94V22.5633C81.94 20.205 80.7916 18.9325 78.7441 18.9325C77.9058 18.9325 76.975 19.4325 76.1058 20.6083V30.3525H71.7925V15.4883H76.1058V16.3883C77.0366 15.5191 78.03 15.0225 79.7725 15.0225C81.665 15.0225 83.3408 15.7675 84.5225 17.1333C86.1058 15.6741 87.595 15.0225 89.9225 15.0225C93.5466 15.0225 96.4016 17.8466 96.4016 22.1916Z"/><path fill="#fff" d="M115.362 22.9357C115.362 27.2499 112.072 30.6632 107.977 30.6632C106.301 30.6632 104.904 30.2291 103.756 29.4841V37.5216H99.4424V15.4882H103.756V16.3574C104.904 15.6124 106.301 15.1782 107.977 15.1782C112.072 15.1782 115.362 18.5607 115.362 22.9357ZM111.112 22.9357C111.112 20.7324 109.498 18.8091 107.264 18.8091C105.992 18.8091 104.72 19.2432 103.757 20.5466V25.2966C104.72 26.5682 105.992 27.0032 107.264 27.0032C109.5 26.9999 111.111 25.1082 111.111 22.9357H111.112Z"/><path fill="#fff" d="M122.096 30.3528H117.782V8.32031H122.096V30.3528Z"/><path fill="#fff" d="M125.975 10.2442C125.975 8.78505 127.123 7.69922 128.582 7.69922C130.009 7.69922 131.157 8.78255 131.157 10.2442C131.157 11.6717 130.009 12.7267 128.582 12.7267C127.123 12.7267 125.975 11.6717 125.975 10.2442ZM130.754 15.4884V30.3526H126.44V15.4884H130.754Z"/><path fill="#fff" d="M146.425 30.1358C144.625 30.6941 143.818 30.8183 142.425 30.8183C138.826 30.8183 136.467 28.2733 136.467 24.4258V19.1191H133.333V15.4883H136.468V10.1816H140.75V15.4883H146.118V19.1191H140.75V24.395C140.75 26.0708 141.773 26.8458 143.357 26.8458C144.163 26.8458 145.032 26.66 145.87 26.4425L146.425 30.1358Z"/><path fill="#fff" d="M163.741 30.3524H159.427V29.2974C158.217 30.2599 156.851 30.8183 155.177 30.8183C151.267 30.8183 148.661 27.9941 148.661 23.6808V15.4883H152.974V23.2774C152.974 25.6358 154.154 26.9083 156.171 26.9083C157.254 26.9083 158.436 26.2566 159.429 25.0466V15.4883H163.742L163.741 30.3524Z"/><path fill="#fff" d="M182.051 30.3528H177.737V29.4845C176.588 30.2295 175.192 30.6636 173.517 30.6636C169.42 30.6636 166.1 27.2811 166.1 22.9053C166.1 18.592 169.42 15.1786 173.517 15.1786C175.192 15.1786 176.588 15.6128 177.737 16.3578V8.32031H182.051V30.3528ZM177.737 25.2953V20.5453C176.775 19.2728 175.502 18.8386 174.23 18.8386C171.965 18.8386 170.382 20.7311 170.382 22.9036C170.382 25.107 171.966 27.0311 174.23 27.0311C175.5 27.0328 176.775 26.5986 177.737 25.2953Z"/><path fill="#fff" d="M199.552 24.0224H188.598C188.94 25.7599 190.087 27.1257 192.446 27.1257C193.656 27.1257 194.494 26.7532 194.96 26.0082H199.46C198.652 28.8632 195.86 30.8182 192.353 30.8182C187.574 30.8182 184.346 27.374 184.346 22.9357C184.346 18.3432 187.543 15.019 192.229 15.019C196.479 15.019 199.646 18.0299 199.646 22.6224C199.652 23.0908 199.621 23.559 199.552 24.0224V24.0224ZM188.629 21.4774H195.363C195.113 19.6157 193.997 18.5915 192.26 18.5915C190.181 18.5915 189.032 19.8015 188.629 21.4774V21.4774Z"/></svg>