<svg xmlns="http://www.w3.org/2000/svg" width="200" height="26" fill="none" viewBox="0 0 200 26"><g clip-path="url(#clip0)"><path fill="#fff" d="M0 0H9.89877C14.8381 0 17.9139 2.78152 17.9139 6.39044C17.9401 7.47689 17.6671 8.54963 17.1246 9.49131C16.5821 10.433 15.7911 11.2073 14.8381 11.7296C16.1521 12.1323 17.3017 12.9471 18.1169 14.0535C18.9321 15.16 19.3697 16.4993 19.365 17.8736C19.365 22.315 15.9346 25.2751 10.3364 25.2751H0V0ZM10.0069 10.3615C12.3533 10.3615 13.6913 9.35555 13.6913 7.14995C13.6913 4.94436 12.3533 3.97108 10.0069 3.97108H4.22257V10.3615H10.0069ZM11.0657 21.304C13.3769 21.304 14.9664 20.1471 14.9664 17.8359C14.9664 15.5247 13.3644 14.3351 11.0657 14.3351H4.23012V21.304H11.0657ZM21.1254 16.249C21.1254 10.183 25.0965 6.86074 29.719 6.86074C31.9824 6.86074 33.9063 7.93713 35.2795 9.20214L36.6954 7.22037H39.3939V25.2751H35.2644V23.0418C34.1075 24.2691 32.3018 25.6372 29.5957 25.6372C25.3706 25.6372 21.1103 22.315 21.1103 16.249H21.1254ZM35.2795 17.5844V14.9488C35.2795 12.3483 33.0764 10.3992 30.403 10.3992C27.5888 10.3992 25.2776 12.2754 25.2776 16.249C25.2776 20.2226 27.5737 22.0987 30.4307 22.0987C33.0613 22.0987 35.2644 20.1849 35.2644 17.5844H35.2795ZM77.9026 7.22037H72.8475L65.4587 15.5926V0H61.3417V25.2751H65.4587V16.9104L72.8475 25.2751H77.9026L69.8849 16.249L77.9026 7.22037ZM88.244 7.22037H83.1889L75.1965 16.249L83.194 25.2751H88.249L80.2263 16.249L88.244 7.22037ZM111.914 0L104.407 16.1182L96.8827 0H92.3559V25.2751H96.4627V8.19114L102.499 21.2311H106.326L112.362 8.19114V25.2751H116.441V0H111.914ZM118.969 16.249C118.969 10.183 122.94 6.86074 127.562 6.86074C129.826 6.86074 131.75 7.93713 133.123 9.20214L134.549 7.22037H137.25V25.2751H133.128V23.0418C131.974 24.2691 130.168 25.6372 127.459 25.6372C123.232 25.6372 118.974 22.315 118.974 16.249H118.969ZM133.123 17.5844V14.9488C133.123 12.3483 130.92 10.3992 128.249 10.3992C125.432 10.3992 123.121 12.2754 123.121 16.249C123.121 20.2226 125.432 22.0987 128.284 22.0987C130.925 22.0987 133.128 20.1849 133.128 17.5844H133.123ZM140.157 7.22037H142.848L144.267 9.20214C145.494 7.79378 146.696 6.9387 148.527 6.9387H151.575V10.8519H146.963C145.26 10.8519 144.274 11.6517 144.274 13.5706V25.265H140.157V7.22037ZM191.804 20.6225V10.7589H188.446V7.22037H191.804V3.72713L195.956 1.32034V7.22037H200V10.7589H195.956V19.9736C195.956 21.1632 196.643 21.7064 198.013 21.7064H199.819V25.2751H196.786C193.826 25.2751 191.804 24.0101 191.804 20.6225ZM183.386 19.1336C182.705 20.9494 181.206 22.1515 178.721 22.1515C175.832 22.1515 173.81 20.3458 173.631 17.3732H187.463V16.0956C187.463 10.2836 183.781 6.85319 178.661 6.85319C173.86 6.85319 169.635 10.608 169.635 16.2414C169.635 21.8749 173.246 25.6297 178.661 25.6297C182.866 25.6297 185.753 23.5825 187.01 19.8805C185.926 19.6592 184.689 19.4002 183.386 19.1286V19.1336ZM178.648 10.2182C181.249 10.2182 183.306 11.6995 183.56 14.3703H173.701C174.207 11.7347 176.194 10.2182 178.648 10.2182ZM170.261 7.22037H165.206L157.809 15.5624V0H153.693V25.2751H157.809V16.9356L165.198 25.2751H170.261L162.236 16.249L170.261 7.22037ZM50.8519 21.9881C47.8541 21.9881 45.6158 19.9308 45.6158 16.249C45.6158 12.5671 47.8541 10.5074 50.8519 10.5074C53.4398 10.5074 55.1022 11.795 55.6856 13.7994C56.6262 13.6108 58.5426 13.226 59.3499 13.045C58.4521 9.17196 55.3009 6.86325 50.8142 6.86325C45.6158 6.86325 41.5718 10.6533 41.5718 16.2515C41.5718 21.8497 45.6158 25.6397 50.8142 25.6397C55.2053 25.6397 58.2886 23.4191 59.3298 19.4505C58.5074 19.2669 56.6061 18.8846 55.6756 18.696C55.0066 20.7633 53.4448 21.9881 50.8519 21.9881Z"/></g><defs><clipPath id="clip0"><rect width="200" height="25.637" fill="#fff"/></clipPath></defs></svg>