<svg xmlns="http://www.w3.org/2000/svg" width="200" height="71" fill="none" viewBox="0 0 200 71"><path fill="#fff" d="M199.841 17.2579H189.445L183.429 42.6405L182.585 46.1233C182.004 46.2816 181.424 46.4399 180.843 46.5455C179.788 46.7566 178.68 46.8621 177.519 46.8621C176.2 46.8621 175.144 46.651 174.353 46.2816C173.614 45.9122 173.033 45.3845 172.717 44.6457C172.4 43.9597 172.295 43.1154 172.347 42.1655C172.4 41.2157 172.611 40.1603 172.875 39.1049L176.041 25.9122L178.099 17.1523H167.492L162.69 37.4162C162.11 39.8436 161.793 42.1655 161.688 44.3819C161.582 46.5983 161.952 48.498 162.69 50.2394C163.429 51.9281 164.748 53.2473 166.543 54.25C168.337 55.2526 170.922 55.7275 174.194 55.7275C176.463 55.7275 178.469 55.5165 180.157 55.1471C180.21 55.1471 180.316 55.0943 180.368 55.0943C179.893 57.2051 178.944 58.8938 177.466 60.213C175.936 61.5323 173.719 62.2183 170.764 62.2183C169.498 62.2183 168.337 62.1655 167.281 62.0072L165.223 70.6088C166.595 70.7671 168.126 70.8727 169.814 70.8727C172.981 70.8727 175.725 70.5033 178.099 69.8173C180.474 69.0785 182.479 68.0231 184.221 66.5455C185.909 65.0679 187.334 63.221 188.495 61.0574C189.656 58.841 190.553 56.2552 191.239 53.1946L198.416 23.0099L199.841 17.2579Z"/><path fill="#fff" d="M156.323 38.9914C155.69 41.6299 155.479 44.3212 155.742 46.9598C156.006 49.6511 157.062 53.7144 158.064 55.7724H148.038C146.824 53.7144 146.877 52.7117 146.613 52.0785C145.294 53.1339 143.869 54.031 142.286 54.717C140.703 55.403 138.961 55.7724 136.956 55.7724C134.634 55.7724 132.629 55.3503 130.993 54.5587C129.357 53.7672 127.985 52.659 126.93 51.2869C125.874 49.9149 125.136 48.3318 124.661 46.4848C124.186 44.6379 123.975 42.6854 123.975 40.5745C123.975 37.3555 124.555 34.3476 125.663 31.498C126.824 28.6484 128.407 26.1682 130.413 24.0574C132.418 21.9466 137.326 17.25 145.347 17.25C148.829 17.25 153.473 17.25 161.442 17.25L156.323 38.9914ZM148.988 26.0627C144.133 26.0627 143.236 26.0627 141.231 27.0653C139.806 27.8041 138.645 28.9123 137.642 30.1788C136.64 31.4453 135.795 32.9228 135.215 34.6115C134.634 36.3001 134.318 38.0416 134.318 39.8358C134.318 42.0521 134.687 43.8463 135.426 45.1656C136.165 46.4848 137.537 47.1181 139.542 47.1181C140.597 47.1181 141.6 46.907 142.444 46.4848C143.289 46.0627 144.238 45.3766 145.188 44.374C145.294 43.2131 145.452 41.9993 145.663 40.7329C145.874 39.4664 146.138 38.2526 146.349 37.1972L148.988 26.0627Z"/><path fill="#fff" d="M121.13 32.5456C121.13 35.9756 120.549 39.0891 119.441 41.9387C118.333 44.7883 116.75 47.2157 114.744 49.2738C112.739 51.3318 110.364 52.915 107.568 54.0759C104.771 55.2369 101.763 55.8173 98.4911 55.8173C96.908 55.8173 95.3248 55.659 93.689 55.3952L90.5227 68.1128H80.127L92.2114 17.3477C93.9528 17.3477 103.24 17.3477 106.09 17.3477C108.729 17.3477 110.998 17.7698 112.845 18.5614C114.744 19.3529 116.275 20.4611 117.541 21.8331C118.755 23.2052 119.652 24.8411 120.232 26.688C120.866 28.4822 121.13 30.4347 121.13 32.5456ZM95.6415 46.9519C96.433 47.163 97.4357 47.2157 98.5966 47.2157C100.444 47.2157 102.079 46.8991 103.61 46.2131C105.087 45.5271 106.407 44.5772 107.462 43.3635C108.517 42.1498 109.309 40.6722 109.942 38.9835C110.523 37.2949 110.839 35.3952 110.839 33.3371C110.839 31.3318 110.417 29.5904 109.52 28.2184C108.623 26.7936 107.093 26.0548 104.876 26.0548C103.346 26.0548 100.76 26.0548 100.76 26.0548L95.6415 46.9519Z"/><path fill="#fff" d="M73.7511 46.9087C72.4319 46.9087 71.3765 46.6977 70.5849 46.3283C69.8461 45.9589 69.2657 45.4312 68.949 44.6924C68.6324 44.0064 68.5269 43.162 68.5796 42.2122C68.6324 41.2623 68.8435 40.2069 69.1073 39.1515L72.2736 25.9589H84.0941L86.2577 17.199H74.3844L77.1284 6.11719L66.0467 7.85861L59.0282 37.5156C58.4477 39.943 58.1311 42.2649 58.0256 44.4813C57.92 46.6977 58.2894 48.5974 59.0282 50.3388C59.767 52.0275 61.0862 53.3467 62.8804 54.3494C64.6746 55.352 67.2604 55.8269 70.5321 55.8269C72.8013 55.8269 74.8066 55.6159 76.4952 55.2465C76.6535 55.1937 76.9174 55.1409 77.0757 55.0882L79.2393 46.0644C78.5005 46.3283 77.7617 46.4866 77.0757 46.5921C76.0203 46.8032 74.9121 46.9087 73.7511 46.9087Z"/><path fill="#fff" d="M47.3168 17.25L38.1348 55.7724H48.5305L57.6598 17.25H47.3168Z"/><path fill="#fff" d="M58.7844 12.819L60.3676 6.11719H49.9718L48.3887 12.819H58.7844Z"/><path fill="#fff" d="M24.3272 17.3239C26.5435 17.3239 28.496 17.7461 30.1319 18.5376C31.7678 19.3292 33.0871 20.3846 34.1953 21.7566C35.2507 23.1286 36.0422 24.7118 36.5699 26.506C37.0976 28.3001 37.3615 30.2527 37.3615 32.3635C37.3615 35.5825 36.781 38.5904 35.5673 41.4928C34.3536 44.3424 32.7705 46.8753 30.7124 48.9862C28.6544 51.097 26.2269 52.7856 23.4301 53.9994C20.6332 55.2131 17.6253 55.8463 14.3536 55.8463C13.9314 55.8463 13.1926 55.8463 12.1372 55.7936C11.0818 55.7936 9.86808 55.688 8.54882 55.4769C7.17678 55.2658 5.75198 55.002 4.27441 54.6326C2.74406 54.2632 1.31926 53.7355 0 53.1023L12.0844 2.33709L22.9024 0.648438L18.628 18.6432C19.5778 18.221 20.4222 17.9044 21.372 17.6933C22.2691 17.4294 23.2718 17.3239 24.3272 17.3239ZM15.2507 47.192C16.8865 47.192 18.4169 46.8226 19.8417 45.9782C21.2665 45.1867 22.533 44.1313 23.5884 42.812C24.6438 41.4928 25.4881 39.9624 26.0686 38.3265C26.6491 36.6379 26.9657 34.8965 26.9657 33.1023C26.9657 30.8859 26.5963 29.1445 25.8575 27.878C25.1187 26.6115 23.5884 26.031 21.5831 26.031C20.9499 26.031 20.2639 26.0838 19.2084 26.3476C18.153 26.5587 17.2559 27.0864 16.4116 27.8252L11.8734 46.9809C13.2454 47.192 14.723 47.192 15.2507 47.192Z"/></svg>