<svg xmlns="http://www.w3.org/2000/svg" xmlns:xlink="http://www.w3.org/1999/xlink" width="120" height="33" version="1.1" viewBox="0 0 120 33"><title>CoinEx LOGO svg</title><desc>Created with Sketch.</desc><defs><linearGradient id="linearGradient-1" x1="100%" x2="0%" y1="50%" y2="50%"><stop offset="0%" stop-color="#22E6B8"/><stop offset="100%" stop-color="#00C1CE"/></linearGradient></defs><g id="NAV-白new" fill="none" fill-rule="evenodd" stroke="none" stroke-width="1" transform="translate(-30.000000, -13.000000)"><g id="Group-2" fill-rule="nonzero"><g transform="translate(30.000000, 13.000000)"><g id="CoinEx-LOGO-svg"><path id="Shape-Copy-14" fill="url(#linearGradient-1)" d="M21.4004345,12.1689736 C18.830218,9.67070752 14.7449265,9.67070752 12.2017648,12.1689736 C9.65860318,14.6941028 9.68565809,18.8041535 12.2288197,21.3292827 C14.7719814,23.8544119 18.9113827,23.881275 21.4545444,21.3561457 C21.4978459,21.3131513 21.6765727,21.118083 21.9907249,20.7709407 L18.9238738,17.7223283 C18.6085847,18.0857077 18.4420915,18.2761833 18.4243944,18.2937551 C17.5586371,19.1533735 16.1517817,19.1533735 15.2860246,18.2937551 C14.4202675,17.4341366 14.4202675,16.0372567 15.2589697,15.2045013 C16.097672,14.371746 17.5045273,14.371746 18.3702844,15.2313644 C18.3702844,15.2313644 21.1038772,17.9435737 26.5710626,23.3679925 C24.325505,26.5915617 20.5617323,28.6360395 16.5034956,28.6360395 C9.79387774,28.6360395 4.32878574,23.182835 4.32878574,16.4670659 C4.32878574,9.75129675 9.79387774,4.29809223 16.5034956,4.29809223 C20.4264577,4.29809223 24.0247608,6.17850758 26.2703184,9.21403522 C25.9085385,9.63118788 24.9842227,10.6776848 23.4973712,12.3535259 L26.52332,15.3492962 L31.5460261,9.72443367 C28.9487546,3.86828301 23.077839,0 16.5034956,0 C7.38599067,0 0,7.38734603 0,16.4670659 C0,25.5467857 7.38599067,32.9341318 16.5034956,32.9341318 C20.6428971,32.9341318 24.0788706,31.6447041 27.4336796,28.7972179 C30.4908846,26.2183627 31.9279349,22.6426894 31.9279349,22.6426894 L21.4004345,12.1689736 Z"/><g id="CoinEx" transform="translate(36.546441, 6.348748)"><path id="Combined-Shape" fill="#4A4A4A" d="M52.6028943,12.3445866 L52.6028943,20.2366351 L49.3493648,20.2366351 L49.3493648,12.1722857 C49.0189835,10.3190304 47.3697759,8.91037257 45.385005,8.91037257 C43.3698609,8.91037257 41.7006289,10.3624741 41.4064077,12.2576767 L41.4064077,20.2366351 L38.1528782,20.2366351 L38.1528782,5.91458025 L40.6482828,7.48207881 C41.9183083,6.40506829 43.5740565,5.75355313 45.385005,5.75355313 C49.2104053,5.75355313 52.3432814,8.66069358 52.6108111,12.3445866 L52.6028943,12.3445866 Z M18.452787,4.09630394 C17.3719888,4.65373443 16.4066962,5.39985551 15.6016772,6.29043384 C14.3994365,4.64322817 12.441602,3.57117091 10.2305967,3.57117091 C6.57458332,3.57117091 3.61079885,6.50242832 3.61079885,10.1183176 C3.61079885,13.7342068 6.57458332,16.6654643 10.2305967,16.6654643 C11.417321,16.6654643 12.5311106,16.3566211 13.4942783,15.8157693 C13.8557692,16.9771758 14.4272607,18.0477014 15.1649664,18.9840826 C13.7017717,19.7823666 12.0198229,20.2366351 10.2305967,20.2366351 C4.58039417,20.2366351 0,15.7065101 0,10.1183176 C0,4.53012509 4.58039417,0 10.2305967,0 C13.5998575,0 16.5887124,1.61083631 18.452787,4.09630394 Z M23.2933362,20.2366351 C19.3008883,20.2366351 16.0643697,17.0388999 16.0643697,13.0942933 C16.0643697,9.14968687 19.3008883,5.95195152 23.2933362,5.95195152 C27.285784,5.95195152 30.5223026,9.14968687 30.5223026,13.0942933 C30.5223026,17.0388999 27.285784,20.2366351 23.2933362,20.2366351 Z M23.2933362,17.062261 C25.5113628,17.062261 27.3094286,15.2857414 27.3094286,13.0942933 C27.3094286,10.9028453 25.5113628,9.12632566 23.2933362,9.12632566 C21.0753095,9.12632566 19.2772437,10.9028453 19.2772437,13.0942933 C19.2772437,15.2857414 21.0753095,17.062261 23.2933362,17.062261 Z M32.5303488,5.95195152 L35.7432227,5.95195152 L35.7432227,20.2366351 L32.5303488,20.2366351 L32.5303488,5.95195152 Z M67.470353,3.42243459 L58.2792992,3.42243459 L58.2792992,8.61496257 L67.2030849,8.61496257 L67.2030849,11.8389988 L58.2792992,11.8389988 L58.2792992,17.012599 L67.470353,17.012599 L67.470353,20.2366351 L54.8196619,20.2366351 L54.8196619,0.198398384 L67.470353,0.198398384 L67.470353,3.42243459 Z M74.2262748,13.0639271 L69.2794406,5.95195152 L73.3704968,5.95195152 C73.4911407,6.15105076 73.6670514,6.42432305 73.8987583,6.77274022 C74.1702766,7.1810218 74.4514894,7.60423658 74.7424049,8.04239713 C75.0333769,8.48064266 75.3146471,8.90394376 75.5862239,9.3123133 C75.8557151,9.71754682 76.0478288,10.0184059 76.1617053,10.2133086 L76.3262557,10.494941 L79.2654328,5.95195152 L83.157907,5.95195152 L78.2981618,12.9445239 L83.3339182,20.2366351 L79.2929449,20.2366351 L76.1916353,15.5676801 L76.0239646,15.813657 C75.8871211,16.0144095 75.6827234,16.3242608 75.4103958,16.743747 C75.1392241,17.1614527 74.8486507,17.6040711 74.5386702,18.0716094 C74.2279706,18.5402322 73.9366652,18.9839657 73.6647417,19.4028293 C73.433387,19.7592023 73.257803,20.0368637 73.1375345,20.2366351 L69.2775946,20.2366351 L74.2262748,13.0639271 Z"/><path id="CoinEx-Copy-13" fill="url(#linearGradient-1)" d="M31.9279349,2.16003701 C31.9279349,1.57409301 32.1440434,1.06760664 32.5762665,0.640562701 C33.0084898,0.213518765 33.5261447,0 34.129247,0 C34.742401,0 35.2650817,0.213518765 35.697305,0.640562701 C36.1295282,1.05767538 36.3456366,1.5691273 36.3456366,2.17493383 C36.3456366,2.78074033 36.1295282,3.29715781 35.697305,3.72420175 C35.2751335,4.15124568 34.7574784,4.36476444 34.1443244,4.36476444 C33.5311706,4.36476444 33.0084898,4.15124568 32.5762665,3.72420175 C32.1440434,3.29715781 31.9279349,2.77577478 31.9279349,2.16003701 Z"/></g></g></g></g></g></svg>