<svg xmlns="http://www.w3.org/2000/svg" width="149" height="107" fill="none" viewBox="0 0 149 107"><path fill="#36ACB8" fill-rule="evenodd" d="M102.659 78.692C99.0661 76.293 97.2701 77.533 97.2701 77.533C97.4815 79.5328 98.4777 81.367 100.04 82.633C101.823 84.0489 104.059 84.7695 106.333 84.661C106.223 83.4501 105.834 82.2811 105.196 81.2456C104.559 80.21 103.691 79.3361 102.659 78.692V78.692ZM48.8731 92.6C47.3614 94.9817 46.8494 97.8633 47.4481 100.62C47.4481 100.62 50.3681 101.442 54.0421 96.644C55.1072 95.3296 55.8565 93.7882 56.2322 92.1386C56.6079 90.489 56.6 88.7751 56.2091 87.129C53.1664 87.9859 50.554 89.9495 48.8851 92.634L48.8731 92.6V92.6ZM37.5631 81.66C36.0009 82.9258 35.0047 84.7596 34.7931 86.759C34.7931 86.759 36.5891 87.917 40.1811 85.599C41.2065 84.9598 42.0711 84.0934 42.7081 83.0667C43.3452 82.04 43.7376 80.8806 43.8551 79.678C41.5821 79.5337 39.3385 80.2538 37.5741 81.694L37.5621 81.659L37.5631 81.66ZM70.8231 91.244C69.8369 92.1434 69.0384 93.2289 68.4735 94.4382C67.9087 95.6475 67.5888 96.9566 67.5321 98.29C67.4031 101.32 68.4221 104.287 70.3821 106.6C71.5876 105.531 72.5289 104.197 73.1324 102.703C73.7358 101.209 73.9849 99.5955 73.8601 97.989C73.6051 92.182 70.8231 91.279 70.8231 91.279V91.244V91.244ZM90.3741 91.174C89.9317 93.1248 90.282 95.1715 91.3481 96.864C92.5772 98.7769 94.4732 100.165 96.6681 100.758C96.9399 99.5881 96.939 98.3713 96.6656 97.2018C96.3921 96.0322 95.8534 94.9412 95.0911 94.013C92.4031 90.606 90.3741 91.209 90.3741 91.209V91.174V91.174ZM102.659 24.884C103.696 24.2475 104.572 23.3793 105.217 22.3477C105.863 21.3161 106.26 20.1491 106.379 18.938C104.1 18.794 101.852 19.5186 100.086 20.966C98.5237 22.232 97.5275 24.0662 97.3161 26.066C97.3161 26.066 99.0661 27.306 102.659 24.918V24.883V24.884ZM39.5901 29.6C39.4728 28.3973 39.0804 27.2377 38.4434 26.2108C37.8063 25.1839 36.9416 24.3173 35.9161 23.678C32.3241 21.279 30.5271 22.519 30.5271 22.519C30.7385 24.5188 31.7347 26.353 33.2971 27.619C35.0607 29.0694 37.312 29.7907 39.5901 29.635V29.6ZM51.5041 16.62C51.776 15.4502 51.7753 14.2334 51.5021 13.0639C51.2288 11.8943 50.6903 10.8033 49.9281 9.87504C47.3081 6.39904 45.2111 7.02504 45.2111 7.02504C44.7687 8.97583 45.119 11.0225 46.1851 12.715C47.3993 14.6436 49.3004 16.0394 51.5041 16.62ZM92.0661 12.425C93.1297 11.1397 93.8794 9.62437 94.2557 7.99902C94.632 6.37368 94.6246 4.68302 94.2341 3.06104C91.2089 3.89337 88.5969 5.81213 86.8981 8.45004C86.1513 9.6146 85.6473 10.9179 85.4162 12.2819C85.185 13.6459 85.2316 15.0425 85.5531 16.388C85.5531 16.388 88.4271 17.2 92.1011 12.402L92.0661 12.425V12.425ZM70.1161 8.23004C70.2248 6.74811 69.9909 5.26104 69.4323 3.88411C68.8737 2.50718 68.0055 1.27738 66.8951 0.290039C65.1082 2.42454 64.1748 5.14509 64.2751 7.92704C64.3359 9.15087 64.6387 10.3505 65.166 11.4566C65.6933 12.5627 66.4346 13.5532 67.3471 14.371C67.3471 14.371 69.9311 13.525 70.1511 8.20504L70.1161 8.22904V8.23004Z" clip-rule="evenodd"/><path fill="#fff" fill-rule="evenodd" d="M8.50807 79.515L0.268066 45.13L15.0211 41.653L16.2961 46.891L6.71007 49.21L8.95907 58.574L15.9121 56.929L17.1871 62.167L10.2341 63.813L12.4821 73.177L22.0661 70.859L23.3411 76.097L8.50807 79.515ZM33.9701 74.497C32.8793 74.7028 31.7579 74.6824 30.6753 74.4373C29.5927 74.1922 28.5719 73.7275 27.6761 73.072C26.7634 72.4358 25.9861 71.6247 25.3894 70.6857C24.7927 69.7467 24.3884 68.6985 24.2001 67.602L20.9781 48.572C20.7725 47.4814 20.7929 46.3602 21.038 45.2777C21.2831 44.1953 21.7477 43.1747 22.4031 42.279C23.0349 41.3621 23.8448 40.5817 24.7845 39.9844C25.7243 39.387 26.7747 38.9849 27.8731 38.802C28.9618 38.6083 30.0783 38.6337 31.157 38.877C32.2358 39.1202 33.2551 39.5764 34.1553 40.2186C35.0556 40.8608 35.8185 41.6763 36.3996 42.6172C36.9806 43.5581 37.368 44.6055 37.5391 45.698L38.2111 49.673L32.7411 50.577L32.0691 46.463C32.0085 46.0551 31.8639 45.6643 31.6445 45.3152C31.425 44.9661 31.1354 44.6664 30.7941 44.435C30.4694 44.1837 30.0936 44.0067 29.6931 43.9165C29.2925 43.8263 28.8771 43.8251 28.4761 43.913C28.0768 43.9661 27.6945 44.1083 27.3575 44.329C27.0205 44.5496 26.7374 44.8432 26.5291 45.188C26.2938 45.521 26.1266 45.8972 26.0372 46.295C25.9478 46.6928 25.9379 47.1044 26.0081 47.506L29.3801 66.686C29.4286 67.0729 29.5566 67.4456 29.756 67.7807C29.9555 68.1157 30.2221 68.4059 30.5391 68.633C30.8606 68.8644 31.2249 69.0297 31.6108 69.1191C31.9967 69.2086 32.3965 69.2204 32.7871 69.154C33.586 69.0407 34.3115 68.6265 34.8151 67.996C35.0629 67.6831 35.2383 67.319 35.3286 66.9301C35.4188 66.5412 35.4217 66.1372 35.3371 65.747L34.5261 60.937L39.9961 60.034L40.8191 64.901C41.0245 65.9917 41.004 67.113 40.7587 68.1954C40.5134 69.2778 40.0486 70.2984 39.3931 71.194C38.0743 72.9485 36.1331 74.1307 33.9691 74.497H33.9701ZM118.316 65.736C118.106 67.9875 117.094 70.0888 115.466 71.658C114.371 72.6985 112.983 73.3781 111.49 73.605C110.494 73.7687 109.476 73.745 108.488 73.535C106.653 73.3255 104.94 72.5098 103.621 71.217C102.583 70.1494 101.836 68.8325 101.454 67.393C100.984 65.7361 100.858 64.0005 101.083 62.293L106.183 62.664C105.991 64.2742 106.333 65.9029 107.156 67.3C107.373 67.6605 107.668 67.9681 108.019 68.2007C108.369 68.4333 108.767 68.5851 109.184 68.645C109.752 68.7126 110.328 68.6305 110.854 68.4068C111.381 68.1832 111.839 67.8257 112.185 67.37C112.717 66.7348 113.033 65.9474 113.089 65.121C113.251 63.4609 112.77 61.8019 111.745 60.486C110.841 59.326 109.497 57.635 107.77 55.316C106.524 53.7739 105.512 52.056 104.768 50.218C104.239 48.573 104.085 46.8305 104.316 45.118C104.445 43.7273 104.908 42.3881 105.664 41.214C106.421 40.0399 107.449 39.0654 108.662 38.373C110.237 37.5806 112.025 37.3166 113.762 37.62C115.468 37.8448 117.075 38.548 118.397 39.648C119.368 40.4855 120.093 41.5707 120.495 42.788C120.976 44.1312 121.154 45.564 121.016 46.984L115.848 47.134C115.967 45.925 115.704 44.709 115.094 43.658C114.881 43.3278 114.594 43.0514 114.256 42.8504C113.919 42.6493 113.539 42.5291 113.147 42.499C112.696 42.4043 112.226 42.4463 111.799 42.6198C111.372 42.7934 111.006 43.0904 110.748 43.473C110.19 44.1833 109.852 45.0411 109.775 45.941C109.611 47.7677 110.086 49.5948 111.119 51.11C111.743 52.0222 112.42 52.897 113.147 53.73C113.907 54.528 114.607 55.38 115.245 56.279C116.237 57.583 117.045 59.019 117.644 60.544C117.876 61.124 118.051 61.725 118.165 62.34C118.355 63.461 118.405 64.602 118.316 65.736V65.736ZM124.61 76.154L119.37 75.111L126.487 40.506L131.725 41.549L124.61 76.154ZM135.77 70.383L132.478 77.951L127.089 76.606L141.692 43.948L148.808 45.744L145.783 81.393L140.393 79.967L141.217 71.855L135.77 70.383V70.383ZM143.256 52.559L137.867 65.515L141.692 66.489L143.256 52.559V52.559Z" clip-rule="evenodd"/><path fill="#F9DED6" fill-rule="evenodd" d="M43.47 52.2131C43.47 67.5331 55.89 79.9521 71.211 79.9521C86.531 79.9521 98.951 67.5321 98.951 52.2131C98.951 36.8931 86.531 24.4731 71.211 24.4731C55.891 24.4731 43.471 36.8931 43.471 52.2131H43.47ZM48.524 61.6141C46.6575 57.1379 46.1614 52.2085 47.0985 47.4502C48.0357 42.6918 50.3639 38.3186 53.7883 34.8844C57.2128 31.4503 61.5793 29.1096 66.335 28.159C71.0907 27.2083 76.0215 27.6904 80.503 29.5441C84.9849 31.3966 88.8163 34.5373 91.5121 38.5686C94.208 42.5999 95.647 47.3405 95.647 52.1901C95.6526 55.404 95.0249 58.5875 93.7996 61.5586C92.5744 64.5298 90.7756 67.2303 88.5062 69.506C86.2368 71.7817 83.5411 73.5878 80.5734 74.8212C77.6056 76.0545 74.4238 76.691 71.21 76.6941H71.14C66.3026 76.6937 61.5735 75.2614 57.5487 72.5779C53.5239 69.8943 50.3834 66.0795 48.523 61.6141H48.524Z" clip-rule="evenodd"/><path fill="#36ACB8" fill-rule="evenodd" d="M50.8801 52.2139C50.8801 63.4439 59.9841 72.5489 71.2141 72.5489C82.4461 72.5489 91.5501 63.4439 91.5501 52.2139C91.5501 40.9839 82.4461 31.8799 71.2141 31.8799C59.9841 31.8799 50.8801 40.9839 50.8801 52.2139V52.2139Z" clip-rule="evenodd"/><path fill="#D3DA31" fill-rule="evenodd" d="M54.026 41.3269C54.298 41.2749 54.563 41.2619 54.761 41.1889C55.173 40.9589 55.557 40.6839 55.906 40.3669C56.202 40.2339 56.44 40.3209 56.658 40.4079C56.934 40.5169 57.181 40.6269 57.478 40.2979C58.009 39.7059 57.258 38.5009 57.258 37.7479C57.271 37.5919 57.315 37.4389 57.381 37.2949C56.0944 38.4896 54.9669 39.8447 54.026 41.3269V41.3269ZM51.07 49.3489C51.0147 49.7465 50.9713 50.1457 50.94 50.5459C50.8916 51.1147 50.8669 51.6851 50.866 52.2559C50.8688 55.5999 51.6995 58.8911 53.284 61.8359C53.497 61.6299 53.718 61.4799 53.93 61.2559C54.231 60.7359 54.6 60.2139 54.9 59.6809C55.5273 59.2992 56.1265 58.8731 56.693 58.4059C56.842 57.9539 57.063 57.4329 57.213 56.9809C57.361 56.5309 58.252 55.9379 58.113 55.1049C57.778 53.9239 56.276 53.7719 55.454 52.9489C55.085 52.4279 54.704 51.7899 54.3 51.3039C53.4472 50.3174 52.3342 49.5908 51.088 49.2069C51.081 49.2539 51.077 49.3019 51.071 49.3489H51.07ZM73.174 37.7029C72.1912 37.9695 71.3074 38.5168 70.631 39.2779C70.111 40.1009 70.781 40.6219 69.811 41.0739C69.2712 40.8203 68.7694 40.4928 68.32 40.1009C67.899 40.1309 67.515 40.3509 67.279 40.7029C67.211 41.6059 67.881 41.7449 67.881 42.6489C67.511 43.1709 66.608 43.2519 66.389 43.8089C66.169 44.3639 66.389 45.2319 65.939 45.7539C65.2752 46.3621 64.628 46.9879 63.998 47.6309C63.4847 48.3969 63.2361 49.3097 63.2901 50.2302C63.3441 51.1507 63.6977 52.0282 64.297 52.7289C64.805 53.2389 65.457 53.2219 66.147 53.2029C66.678 53.1889 67.232 53.1749 67.764 53.4009C68.667 53.7729 68.805 55.4979 69.035 56.3209C69.486 57.6639 68.667 58.2679 68.667 59.5409C68.667 60.8169 69.117 64.4879 70.909 64.4079C72.931 64.3379 73.372 62.3109 74.492 60.9319C74.9889 60.5586 75.419 60.1039 75.764 59.5869C75.764 58.9169 75.834 58.1629 75.834 57.4919C76.284 56.3329 77.705 55.9149 78.444 55.0239C79.185 54.1309 78.514 53.5289 78.896 52.8559C78.9144 52.8559 78.932 52.8487 78.9451 52.8358C78.9582 52.8229 78.9657 52.8053 78.966 52.7869C79.566 52.4169 80.121 52.1139 80.836 51.7449C81.12 51.3809 81.421 51.0329 81.739 50.7009L82.41 50.4819C84.72 51.6399 83.9 54.0719 85.543 55.3479C85.692 55.2779 85.761 55.1979 85.911 55.1279C86.036 54.7929 86.109 54.4399 86.132 54.0839C86.2978 53.5777 86.6335 53.1444 87.0821 52.8572C87.5308 52.57 88.0648 52.4466 88.594 52.5079C89.3124 53.2212 89.8506 54.0953 90.164 55.0579C90.315 55.9619 89.714 56.4829 89.714 57.2239C89.784 57.8639 90.024 58.4709 90.394 58.9939C90.396 58.9939 90.396 58.9939 90.396 58.9919C91.166 56.8148 91.5587 54.5222 91.557 52.2129V52.2049C91.557 51.8709 91.549 51.5389 91.532 51.2099L91.522 51.0539C91.2507 46.2051 89.2479 41.6148 85.878 38.1179C85.4255 38.1058 84.9728 38.1292 84.524 38.1879C82.424 38.5389 80.305 38.7629 78.179 38.8599C76.418 38.8599 75.402 37.6119 73.885 37.6119C73.66 37.6119 73.425 37.6389 73.174 37.7029V37.7029ZM73.579 47.1089C73.059 47.0399 72.423 47.0399 71.937 46.9589C71.869 46.9589 69.245 44.8619 69.175 44.7109C69.2196 44.5922 69.2891 44.4844 69.3787 44.3947C69.4684 44.305 69.5762 44.2355 69.695 44.1909C70.3748 44.479 71.0064 44.8696 71.568 45.3489L72.608 45.5689C72.978 45.8689 73.359 46.0899 73.764 46.3919C74.2215 46.5558 74.6992 46.6568 75.184 46.6919C75.184 46.7619 75.254 46.8439 75.254 46.9119V47.2839C75.0738 47.3298 74.8993 47.3959 74.734 47.4809C74.3203 47.4757 73.9179 47.3461 73.579 47.1089V47.1089Z" clip-rule="evenodd"/><path fill="#D3DA31" fill-rule="evenodd" d="M77.1281 60.3302C76.7638 60.5351 76.4566 60.8281 76.2347 61.1824C76.0129 61.5367 75.8834 61.9409 75.8581 62.3582C75.9681 62.5842 76.1511 62.7672 76.3761 62.8792C77.1981 62.5772 78.0991 61.2342 77.5321 60.4112C77.4091 60.343 77.2679 60.315 77.1281 60.3312V60.3302ZM60.5071 34.9112C60.6721 35.0812 60.7971 35.2872 60.8771 35.5112C60.5474 35.9942 60.3883 36.5735 60.4251 37.1572C60.4791 37.4732 60.6691 37.7502 60.9451 37.9102C61.7397 37.8314 62.5061 37.574 63.1871 37.1572C63.9381 37.0072 64.7601 36.9372 65.4991 36.7872C66.2391 36.6352 67.9371 35.2692 67.3371 34.2272C66.9671 34.0762 66.2901 33.8422 66.1811 33.8552C65.0875 34.0005 63.9758 33.9264 62.9111 33.6372C62.0781 34.0102 61.2751 34.4342 60.5071 34.9112V34.9112Z" clip-rule="evenodd"/></svg>