<svg xmlns="http://www.w3.org/2000/svg" width="90" height="90" fill="none" viewBox="0 0 90 90"><path fill="#036" d="M0 0H90V73H0V0Z"/><path fill="#C20017" d="M0 74H90V90H0V74Z"/><path fill="#fff" d="M90 52.25H89.83C88.8306 49.8037 87.6989 47.4135 86.44 45.09H87.55C88.4233 46.7633 89.24 48.4633 90 50.19V52.25ZM0 10C4.42732 8.51373 8.98884 7.4621 13.62 6.86L14.94 0H25.63L23.23 6.22C26.1074 6.21573 28.9825 6.38269 31.84 6.72L35.17 0H46.92L41.32 8.5C48.7425 10.4209 55.8113 13.513 62.26 17.66C63.54 18.4867 64.7867 19.35 66 20.25H64.3C57.1745 15.2278 49.1945 11.5445 40.75 9.38L33.91 20H29V27.23L16.88 47H13V53.61L0.58 73H0.19L31.39 7.66C28.5685 7.33569 25.73 7.18208 22.89 7.2L0.09 73H0V10ZM0 71.78L13.4 7.89C8.85993 8.52577 4.39231 9.60082 0.06 11.1H0V71.78Z"/><path fill="#fff" d="M37.0001 36.6802H43.5701V30.5402H37.0001V27.6102H45.0001L44.5601 21.4502H30.3101V44.0002H37.0001V36.6802ZM64.8101 43.9302H72.0001L75.2801 38.4002L78.6401 43.9402H86.0001L78.9001 32.2602L85.2901 21.4902H78.0001L75.2501 26.1702L72.4001 21.4802H65.0001L71.5801 32.3202L64.8101 43.9302ZM56.4401 44.1802C59.4957 44.223 62.4434 43.0521 64.6368 40.9243C66.8302 38.7965 68.0901 35.8857 68.1401 32.8302C68.0151 29.8056 66.7257 26.9465 64.5415 24.8506C62.3572 22.7547 59.4472 21.5844 56.4201 21.5844C53.3929 21.5844 50.483 22.7547 48.2988 24.8506C46.1145 26.9465 44.8251 29.8056 44.7001 32.8302C44.7501 35.8892 46.0127 38.8031 48.2104 40.9314C50.4082 43.0598 53.3611 44.2283 56.4201 44.1802H56.4401ZM54.3701 27.8802C54.3747 27.3446 54.5848 26.8312 54.957 26.446C55.3291 26.0608 55.835 25.8332 56.3701 25.8102C56.9198 25.82 57.4448 26.0401 57.8372 26.4251C58.2297 26.8101 58.4597 27.3308 58.4801 27.8802V37.4502C58.4438 37.9704 58.2115 38.4576 57.8301 38.8133C57.4487 39.169 56.9466 39.3668 56.4251 39.3668C55.9036 39.3668 55.4015 39.169 55.0201 38.8133C54.6387 38.4576 54.4064 37.9704 54.3701 37.4502V27.8802ZM38.5201 60.8302H45.3301V56.3202H38.5201V53.2502H46.8101V48.3702H33.2701V69.4502H46.9201V64.3802H38.5201V60.8302ZM67.8201 48.3702L65.2101 60.4402L62.6601 48.3702H58.1601L55.7301 60.5602L53.2001 48.3702H47.8301L52.7001 69.4502H57.6001L60.0001 57.3702L62.4701 69.4502H67.2601L72.1601 48.3702H67.8201ZM85.6001 57.8902C84.2001 56.6002 82.6001 56.2602 80.8001 55.7502C78.6701 55.1502 77.5001 55.0902 77.5001 53.8502C77.5213 53.6305 77.5859 53.4171 77.6901 53.2225C77.7943 53.0278 77.9361 52.8558 78.1072 52.7163C78.2783 52.5768 78.4753 52.4726 78.687 52.4098C78.8986 52.347 79.1206 52.3267 79.3401 52.3502C79.9972 52.2963 80.6519 52.4795 81.1857 52.8665C81.7194 53.2536 82.097 53.8189 82.2501 54.4602L86.8501 52.9302C86.4348 51.3742 85.5006 50.0065 84.2023 49.0537C82.9039 48.1008 81.3191 47.6198 79.7101 47.6902C74.9101 47.6902 71.9701 50.6402 71.9701 54.6102C71.9701 58.0402 73.9701 59.7302 77.9701 60.9302C80.3601 61.6502 81.6301 61.5902 81.6301 63.1302C81.6301 63.9402 80.8801 64.5702 79.6301 64.5702C78.8383 64.661 78.0418 64.4453 77.404 63.9674C76.7662 63.4895 76.3354 62.7856 76.2001 62.0002L71.1401 63.1102C72.0001 67.1102 74.9801 69.4902 79.5501 69.4902C80.6673 69.5204 81.7783 69.3162 82.8118 68.8908C83.8452 68.4654 84.778 67.8281 85.5501 67.0202C86.7048 65.7525 87.3372 64.0949 87.3201 62.3802C87.3666 61.5519 87.2364 60.7232 86.9381 59.9491C86.6398 59.175 86.1803 58.4731 85.5901 57.8902H85.6001ZM26.7201 58.9502L20.4401 48.4602H14.3501V69.4602H19.7001V57.1902L26.8701 69.4302H31.9401V48.4302H26.7401L26.7201 58.9502Z"/><path fill="#fff" d="M8.65 81.23C8.92945 81.1814 9.21709 81.2317 9.46347 81.3722C9.70986 81.5128 9.89957 81.7347 10 82H13C12.81 80.58 11.2 79.73 8.69 79.73C5.82 79.77 4 81 4 83C4 84.82 5.79 86 8.51 86C11.02 86 12.66 85.13 12.96 83.65H10C9.83 84.22 9.36 84.5 8.59 84.5C7.59 84.5 7.05 83.97 7.05 82.91C7.05 81.85 7.62 81.23 8.65 81.23ZM37.85 84.67V82.46C37.9082 82.123 37.8841 81.777 37.7796 81.4513C37.6751 81.1257 37.4934 80.8302 37.25 80.59C36.2445 79.9822 35.0694 79.7156 33.9 79.83C31.31 79.83 29.9 80.46 29.61 81.83H32.36C32.48 81.4 32.98 81.17 33.84 81.17C34.7 81.17 35.02 81.35 35.02 81.69V81.83C35.02 82.28 33.89 82.19 31.78 82.51C30.17 82.75 29.36 83.35 29.36 84.32C29.36 85.29 30.42 86 32.21 86C33.2336 86.0303 34.2431 85.7553 35.11 85.21C35.1401 85.4144 35.1904 85.6154 35.26 85.81H38.26V85.59C38 85.49 37.86 85.18 37.86 84.66L37.85 84.67ZM35 83.73C35 84.35 34.28 84.73 33.27 84.73C32.6 84.73 32.17 84.44 32.17 84.04C32.17 83.64 32.48 83.51 33.17 83.39C33.7887 83.3353 34.4012 83.2249 35 83.06V83.73ZM48.46 79.84C47.96 79.798 47.4567 79.8598 46.9818 80.0216C46.5068 80.1833 46.0704 80.4416 45.7 80.78V80H42.8V85.83H45.8V82.7C45.8 81.7 46.23 81.29 47.31 81.29C48.39 81.29 48.56 81.81 48.56 82.88V85.81H51.56V82C51.52 80.53 50.7 79.84 48.49 79.84H48.46ZM22.52 79.92C21.5035 79.8448 20.4981 80.1715 19.72 80.83V78H16.72V85.9H19.72V82.79C19.72 81.79 20.15 81.38 21.23 81.38C22.31 81.38 22.48 81.9 22.48 82.97V85.9H25.48V81.9C25.48 80.6 24.45 79.92 22.54 79.92H22.52ZM62.52 79.84C62.02 79.798 61.5167 79.8598 61.0418 80.0216C60.5668 80.1833 60.1304 80.4416 59.76 80.78V80H56.91V85.83H59.91V82.7C59.91 81.7 60.34 81.29 61.42 81.29C62.5 81.29 62.67 81.81 62.67 82.88V85.81H65.67V82C65.63 80.53 64.8 79.84 62.59 79.84H62.52ZM74.18 79.78C71.4 79.78 69.6 80.97 69.6 82.92C69.6 84.87 71.44 86 74.25 86C76.58 86 78.25 85.26 78.75 84H75.88C75.67 84.42 75.16 84.64 74.35 84.64C73.29 84.64 72.72 84.2 72.72 83.38H78.88C78.8884 83.2668 78.8884 83.1532 78.88 83.04C78.9 81 77.12 79.78 74.25 79.78H74.18ZM72.57 82.27C72.69 81.49 73.31 81.07 74.27 81.07C75.23 81.07 75.95 81.51 75.97 82.27H72.57ZM83 78V85.9H86V78H83Z"/></svg>