<svg xmlns="http://www.w3.org/2000/svg" width="200" height="89" fill="none" viewBox="0 0 200 89"><path fill="#fff" d="M132.654 31.3096H129.21L129.226 56.981H143.175V53.8056H132.67L132.654 31.3096V31.3096Z"/><path fill="#fff" d="M156.45 52.4769C155.898 53.0503 155.236 53.5056 154.502 53.8151C153.769 54.1247 152.981 54.2821 152.185 54.2779C149.563 54.2779 148.504 52.9824 148.504 51.2921C148.504 48.7486 150.273 47.5322 154.033 47.5322C154.848 47.5354 155.661 47.5987 156.466 47.7218V52.4769H156.45ZM152.88 36.9161C150.203 36.9078 147.608 37.8417 145.55 39.5543L146.766 41.6712C148.172 40.8497 149.894 40.0282 152.375 40.0282C155.202 40.0282 156.45 41.4816 156.45 43.9145V45.1625C155.661 45.0388 154.864 44.9754 154.065 44.9729C148.03 44.9729 144.965 47.0899 144.965 51.5132C144.965 55.4785 147.398 57.469 151.079 57.469C153.559 57.469 155.945 56.3316 156.766 54.4832L157.398 56.9951H159.831V43.8513C159.815 39.6965 158.014 36.9161 152.88 36.9161V36.9161Z"/><path fill="#fff" d="M170.943 54.3948C169.648 54.3948 168.51 54.2368 167.657 53.8418V41.9777C168.826 40.9982 170.28 40.2873 172.128 40.2873C175.461 40.2873 176.741 42.6412 176.741 46.4485C176.741 51.8513 174.671 54.3948 170.943 54.3948V54.3948ZM172.396 36.9224C171.503 36.9169 170.618 37.1014 169.801 37.4636C168.984 37.8258 168.253 38.3575 167.657 39.0235V35.7028L167.641 31.311H164.276L164.292 56.3505C165.983 57.0614 168.289 57.4406 170.801 57.4406C177.231 57.4406 180.327 53.3331 180.327 46.2399C180.311 40.6317 177.452 36.9192 172.396 36.9192"/><path fill="#fff" d="M95.1566 34.0947C98.2055 34.0947 100.18 35.1057 101.46 36.1326L102.945 33.5576C100.939 31.7882 98.2213 30.8403 95.3146 30.8403C87.9844 30.8403 82.8501 35.3111 82.8501 44.3316C82.8501 53.7787 88.3951 57.4596 94.73 57.4596C97.351 57.4656 99.948 56.9613 102.376 55.9746L102.297 45.8798V42.7045H92.8912V45.8798H98.8943L98.9733 53.5418C98.1834 53.9367 96.8248 54.2527 94.9765 54.2527C89.8896 54.2527 86.4773 51.0457 86.4773 44.3001C86.4615 37.428 89.9844 34.0947 95.1502 34.0947"/><path fill="#fff" d="M119.411 31.3066H116.046L116.061 35.6194V50.5167C116.061 54.6715 117.862 57.452 122.997 57.452C123.691 57.4537 124.384 57.3903 125.066 57.2624V54.245C124.549 54.3234 124.026 54.3603 123.502 54.3556C120.674 54.3556 119.426 52.9022 119.426 50.4693V40.2008H125.066V37.3888H119.431L119.415 31.3066H119.411Z"/><path fill="#fff" d="M107.488 56.9809H110.853V37.3916H107.488V56.9809Z"/><path fill="#fff" d="M107.488 34.6901H110.853V31.3252H107.488V34.6901Z"/><path fill="#FC6D26" d="M72.828 47.6792L69.8407 38.4976L63.9291 20.2859C63.8611 20.0827 63.7309 19.906 63.557 19.7809C63.3831 19.6557 63.1742 19.5884 62.9599 19.5884C62.7457 19.5884 62.5368 19.6557 62.3629 19.7809C62.189 19.906 62.0588 20.0827 61.9907 20.2859L56.0824 38.4865H36.4394L30.5279 20.2859C30.4598 20.0827 30.3296 19.906 30.1557 19.7809C29.9818 19.6557 29.7729 19.5884 29.5587 19.5884C29.3444 19.5884 29.1355 19.6557 28.9616 19.7809C28.7877 19.906 28.6575 20.0827 28.5895 20.2859L22.689 38.4865L19.7 47.6792C19.5676 48.0874 19.5674 48.527 19.6996 48.9352C19.8318 49.3435 20.0896 49.6995 20.4362 49.9525L46.2593 68.7203L72.0824 49.9525C72.4304 49.7006 72.69 49.3451 72.8239 48.9368C72.9578 48.5285 72.9593 48.0884 72.828 47.6792"/><path fill="#E24329" d="M46.2655 68.7034L56.0822 38.4854H36.4456L46.2655 68.7034Z"/><path fill="#FC6D26" d="M46.2591 68.7049L36.4391 38.4854H22.6951L46.2591 68.7049Z"/><path fill="#FCA326" d="M22.6839 38.4961L19.6949 47.6778C19.5624 48.0859 19.5623 48.5255 19.6945 48.9338C19.8267 49.342 20.0845 49.698 20.4311 49.9511L46.2542 68.7204L22.6839 38.4961Z"/><path fill="#E24329" d="M22.687 38.4963H36.4485L30.5259 20.2956C30.4578 20.0925 30.3276 19.9158 30.1537 19.7906C29.9798 19.6655 29.771 19.5981 29.5567 19.5981C29.3424 19.5981 29.1336 19.6655 28.9596 19.7906C28.7857 19.9158 28.6555 20.0925 28.5875 20.2956L22.687 38.4963Z"/><path fill="#FC6D26" d="M46.2656 68.7049L56.0824 38.4854H69.8422L46.2656 68.7049Z"/><path fill="#FCA326" d="M69.8372 38.4961L72.8277 47.6778C72.9602 48.0859 72.9603 48.5255 72.8281 48.9338C72.6959 49.342 72.4381 49.698 72.0915 49.9511L46.2668 68.703L69.8372 38.4961V38.4961Z"/><path fill="#E24329" d="M69.8451 38.4963H56.082L61.9936 20.2956C62.0616 20.0925 62.1918 19.9158 62.3657 19.7906C62.5396 19.6655 62.7485 19.5981 62.9628 19.5981C63.177 19.5981 63.3859 19.6655 63.5598 19.7906C63.7337 19.9158 63.8639 20.0925 63.932 20.2956L69.8435 38.4963H69.8451Z"/></svg>