<svg id="レイヤー_1" data-name="レイヤー 1" xmlns="http://www.w3.org/2000/svg" viewBox="0 0 600 456.56"><title>hey_logo_rgb</title><path d="M144.45,30.45c-47.82,55.12-95,187.44-95,232.13,0,4.4,2.05,4.48,4.49,1.26,7.61-10.07,31.16-32.41,45-41.94,24.27-16.7,44.62-11.94,49.1,6.93,15.35,64.61,28.74,58.2,78.45,29.31C250,244.47,259,263.71,235.39,280c-109.08,75.22-125.74-22.75-126.45-25.26-10.67,5.84-47,46.23-59.7,76.32-6.17,14.64-47.09,21.3-49.08-17.3-3.95-76.54,68-259.63,122.15-310.63C134.17-8.08,159.28,13.36,144.45,30.45Z"/><path d="M564.5,192.35c-161.85,159.34-137,72.59-118.14,38.4h0c.68-1.23,1.35-2.4,2-3.48,7.18-11.86-14.43-38.19-31.6-23.24S381,240.08,368.21,249.49c-9.7,7.11-10.69,27.4,17.32,18.88,1.6-.49,9.88-4.5,12.22-5.75-19.22,46.53,38.07,86.83,119.74,22.88C482.67,355.78,490.28,409.13,495,432.55c8.41,41.26,58.43,22.12,44.3-3.63-1.46-2.65-5.28-8.18-7-16.35-7.43-35.39-5.78-116.87,64.45-189.79C609.19,209.92,582.86,174.27,564.5,192.35Z"/><path d="M233,254.72c44.66-21.41,63-52.17,65.25-56.49s.65-5.21-3.62-2.33-33.19,21.66-45.07,67.55c-1.58,6.11-.69,13.9,2,17.78,2.61,4,40.73,33,156.42-69.8,32.82-29.17,29.69,10.47,19,21.83-133.82,142.17-196.61,80.41-205,67.17a51,51,0,0,1-8.38-22.22,67,67,0,0,1,.83-21.44c4.88-24.53,18.46-46.42,33.79-64.29a168.67,168.67,0,0,1,25.9-24.7,62.93,62.93,0,0,1,19.68-10.1,39.33,39.33,0,0,1,14.32-1.46,29.86,29.86,0,0,1,26.58,22.39,39.05,39.05,0,0,1,1.06,14.25A58.64,58.64,0,0,1,329,214.29c-6.53,12.12-15.21,21.24-24.3,29.18-18.35,15.74-46.8,27.81-60.14,34C227.62,285.32,220.42,260.74,233,254.72Z"/></svg>