<svg xmlns="http://www.w3.org/2000/svg" width="100" height="18" fill="none" viewBox="0 0 100 18"><g clip-path="url(#clip0)"><path fill="#fff" d="M43.6 11.6C43.6 10.4 43 9.3 41.9 9C43.2 8.6 43.6 7.7 43.6 6.3V3.7C43.6 1.5 42.5 0.3 40.2 0.3H36V17.2H38.2V9.8H40C41 9.8 41.4 10.4 41.4 11.4V13.4C41.4 15.3 41.5 16.3 41.7 17.2H44.1C43.7 16 43.6 14.9 43.6 13.4V11.6V11.6ZM41.3 6.5C41.3 7.5 40.8 8.1 39.9 8.1H38.2V2.3H40.1C41 2.3 41.3 2.8 41.3 3.7V6.5ZM0 0.3H2.2V17.2H0V0.3ZM11.8 11.4L10.8 8.8L7.5 0.3H5.6V17.2H7.7V6.2L8.7 8.8L12.3 17.2H13.9V0.3H11.8V11.4ZM20.7 0C18.2 0 16.8 1.7 16.8 4C16.8 6.2 18.4 8.1 20 9.5C21.4 10.7 22.3 11.9 22.3 13.7C22.3 14.9 21.7 15.6 20.5 15.6C19.2 15.6 18.7 14.7 18.7 13.4V12H16.5V13.6C16.5 15.8 18.1 17.4 20.5 17.4C22.7 17.4 24.5 15.9 24.5 13.3C24.5 11.1 23.3 9.5 21.6 8C20.1 6.6 19 5.6 19 3.6C19 2.6 19.6 1.9 20.7 1.9C21.9 1.9 22.5 2.8 22.5 4V5.4H24.6V3.8C24.4 1.6 23 0 20.7 0ZM26 2.3H28.9V17.2H31V2.3H33.9V0.3H26V2.3ZM52.5 13.7C52.5 14.9 51.9 15.6 50.7 15.6C49.5 15.6 48.9 14.9 48.9 13.7V0.3H46.7V13.6C46.7 16 48.4 17.5 50.7 17.5C53 17.5 54.7 16 54.7 13.6V0.3H52.5V13.7V13.7ZM64.1 10.8L63.6 13.6L63.1 10.8L61.2 0.3H58.1V17.2H60.1V4.7L60.6 7.3L62.5 17.2H64.6L66.5 7.3L67 4.7V17.2H69V0.3H66L64.1 10.8ZM72.4 17.2H79.1V15.2H74.6V9.4H78.1V7.5H74.6V2.3H79.1V0.3H72.4V17.2ZM88 11.4L87 8.8L83.7 0.3H81.9V17.2H83.9V6.2L85 8.8L88.5 17.2H90.1V0.3H88V11.4ZM92.2 0.3V2.3H95V17.2H97.2V2.3H100V0.3H92.2Z"/></g><defs><clipPath id="clip0"><rect width="100" height="17.5" fill="#fff"/></clipPath></defs></svg>