<svg xmlns="http://www.w3.org/2000/svg" class="logo" viewBox="0 0 53 20"><path fill="#0042da" fill-rule="evenodd" d="M4.53 20A4.64 4.64 0 0 1 0 15.36V0h4.53zm16.4-.05h-4.54V18c-.84.64-1.61 1.12-2.3 1.45s-1.54.5-2.5.5c-1.56 0-2.77-.45-3.61-1.35-.84-.9-1.27-2.22-1.27-3.97V5.44h4.56v7c0 .72.03 1.31.07 1.78.05.48.16.87.32 1.18.16.3.4.54.73.68.32.14.77.21 1.35.21a5.45 5.45 0 0 0 2.64-.84v-10h4.54zm17.22 0h-5.28l-3.96-6.15-1.24 1.5v4.65h-4.53V0c2.5 0 4.53 2.03 4.53 4.53v7.54l4.89-6.24.28-.36h5.24l-.3.36-5.08 6.09zM53 12.75c0 2.25-.66 4.02-1.97 5.31S47.87 20 45.49 20c-2.37 0-4.22-.65-5.53-1.94s-1.97-3.06-1.97-5.3c0-2.27.66-4.04 1.98-5.33s3.16-1.94 5.52-1.94c2.4 0 4.25.65 5.55 1.95S53 10.5 53 12.75zm-5.4 3.32c.28-.35.5-.77.63-1.26.15-.49.22-1.17.22-2.03 0-.8-.08-1.48-.22-2.02s-.35-.98-.61-1.3c-.26-.33-.58-.57-.94-.7a3.49 3.49 0 0 0-2.32-.04c-.32.1-.64.34-.94.68-.27.31-.48.75-.64 1.3a7.66 7.66 0 0 0-.24 2.08c0 .74.07 1.39.2 1.94.15.54.35.98.62 1.32.26.31.57.54.93.69.36.14.78.22 1.24.22.4 0 .78-.07 1.14-.2s.67-.36.92-.68z"/></svg>