<svg xmlns="http://www.w3.org/2000/svg" viewBox="0 0 200 73"><g fill="none" fill-rule="evenodd"><path fill="#005AAC" d="M133.8 70.2h.58a.1.1 0 0 0 .08-.04l2.36-3.86 1.3 4.42c0 .03.03.05.06.05h2.48c.03 0 .05-.02.04-.05l-2.62-8.26a.08.08 0 0 0-.07-.05h-.93a.1.1 0 0 0-.08.05l-3.2 4.92-3.19-4.92c-.01-.03-.05-.05-.08-.05h-.93a.08.08 0 0 0-.07.05l-2.62 8.26c-.01.03 0 .05.03.05h2.49a.07.07 0 0 0 .07-.05l1.28-4.42 2.37 3.86a.1.1 0 0 0 .08.05h.57m-6.78-4.11a.05.05 0 0 0-.05-.05h-7.08a.68.68 0 0 0-.68.68c0 .37.3.67.68.67h4.2c-.5 1.32-2.2 2.29-4.2 2.29-2.41 0-4.36-1.39-4.36-3.1 0-1.7 1.95-3.1 4.36-3.1a5.23 5.23 0 0 1 3.33 1.09h2.89a.05.05 0 0 0 .05-.05.05.05 0 0 0 0-.04h-.01c-1.23-1.31-3.58-2.19-6.26-2.19-3.97 0-7.18 1.92-7.18 4.3s3.21 4.28 7.18 4.28c3.96 0 7.18-1.92 7.18-4.29 0-.17-.02-.33-.05-.5m20.7 3.6c-2.4 0-4.36-1.39-4.36-3.1 0-1.7 1.96-3.1 4.36-3.1s4.36 1.4 4.36 3.1-1.95 3.1-4.36 3.1m0-7.39c-3.96 0-7.18 1.92-7.18 4.3 0 2.36 3.22 4.28 7.18 4.28 3.97 0 7.18-1.92 7.18-4.29s-3.21-4.29-7.18-4.29"/><path fill="#393C41" d="M185.17 70.64a.12.12 0 0 0 .13.13h1.5c.07 0 .14-.06.14-.13l.26-3.42a.12.12 0 0 0-.12-.13h-1.5a.15.15 0 0 0-.15.13l-.26 3.42m8.68-3.55a.12.12 0 0 0-.12.13l.26 3.42c0 .07.07.13.14.13h1.5c.08 0 .22-.06.21-.13l-.34-3.42a.15.15 0 0 0-.15-.13h-1.5"/><path fill="#393C41" d="M195.45 65.4c.07 0 .13-.07.13-.14v-1.44a.13.13 0 0 0-.13-.13h-4.01a.13.13 0 0 1-.14-.13v-1.02a.13.13 0 0 0-.13-.13h-1.44a.13.13 0 0 0-.14.14v1a.14.14 0 0 1-.13.14h-3.98a.13.13 0 0 0-.14.13v1.44c0 .07.06.13.14.13h3.98c.07 0 .13.06.13.14v5.1c0 .08.06.14.14.14h1.44c.07 0 .13-.06.13-.13v-5.11c0-.08.06-.14.14-.14h4m-38.31 2.86a.09.09 0 0 0 0 .13l1.08 1.08a.1.1 0 0 0 .12 0l3.93-3.9a.09.09 0 0 1 .13 0l5.12 5.1a.1.1 0 0 0 .13 0l1.08-1.08a.09.09 0 0 0 0-.12l-6.33-6.32a.09.09 0 0 0-.13 0l-5.14 5.11m14.46 2.43c0 .05.03.09.08.09h1.66a.1.1 0 0 0 .1-.1l.9-7.43a.08.08 0 0 0-.08-.09h-1.66a.1.1 0 0 0-.1.1l-.9 7.43m6.73-7.53a.08.08 0 0 0-.08.1l.91 7.43c0 .05.05.09.1.09h1.67c.05 0 .08-.04.08-.1l-.91-7.43a.1.1 0 0 0-.1-.09h-1.66"/><path fill="#3E6F99" d="M196.42 64.4c0 .07.06.13.13.13h1.02c.07 0 .13-.06.13-.13v-1.97a.13.13 0 0 0-.13-.13h-1.02a.13.13 0 0 0-.13.13v1.97m1.97 0c0 .07.06.13.14.13h1.01c.08 0 .14-.06.14-.13v-1.97a.13.13 0 0 0-.14-.13h-1.01a.13.13 0 0 0-.14.13v1.97m-30.76.42a1.26 1.26 0 1 0-1.26-1.26c0 .7.56 1.26 1.26 1.26m14.89-2.52a1.26 1.26 0 1 0 0 2.52 1.26 1.26 0 0 0 0-2.52"/><path fill="#9A9DA6" d="M103.69 68.57c0-.17-.03-.33-.08-.5a1.36 1.36 0 0 0-.23-.44 1.14 1.14 0 0 0-.38-.32 1.18 1.18 0 0 0-.55-.12 1.1 1.1 0 0 0-.53.13 1.35 1.35 0 0 0-.65.76 1.5 1.5 0 0 0 0 1c.06.16.14.31.25.44.11.13.25.24.4.32.16.08.33.12.53.12a1.13 1.13 0 0 0 .93-.45c.1-.13.18-.28.23-.44.05-.17.08-.34.08-.5zm-2.47-4.6V67h.03a1.57 1.57 0 0 1 .5-.44 1.91 1.91 0 0 1 .94-.23 2.03 2.03 0 0 1 1.51.65c.19.2.33.44.43.71a2.64 2.64 0 0 1 0 1.77 2 2 0 0 1-1.97 1.4c-.3 0-.58-.06-.85-.2a1.46 1.46 0 0 1-.62-.57h-.02v.65h-1.03v-6.75h1.08zm4.03 2.47h1.2l1.2 3.12h.01l1.07-3.12h1.12l-2.04 5.2c-.07.2-.16.38-.25.53-.09.15-.2.28-.32.38a1.27 1.27 0 0 1-.45.24c-.17.05-.37.08-.6.08l-.28-.01a2 2 0 0 1-.29-.05l.1-.93a1.2 1.2 0 0 0 .4.06c.11 0 .2-.01.28-.04a.48.48 0 0 0 .2-.12.9.9 0 0 0 .15-.21l.13-.3.21-.54-1.84-4.29"/><path fill="#909090" d="M94.61 52.78h-2.42 2.42z"/><path fill="#2B2B2B" d="M85.39 19.61l-4.18-7.15a.26.26 0 0 0-.48.13v10.3a.84.84 0 0 1-.84.83h-3.68a.84.84 0 0 1-.83-.84V2.22c0-.46.37-.84.83-.84h4.05c.29 0 .56.15.71.4l5.38 8.76a.43.43 0 0 0 .74 0l5.38-8.76a.83.83 0 0 1 .7-.4h4.05c.47 0 .84.37.84.84v20.66a.84.84 0 0 1-.84.84h-3.67a.84.84 0 0 1-.84-.84v-10.3a.26.26 0 0 0-.48-.13l-4.26 7.17a.83.83 0 0 1-.71.4H86.1a.83.83 0 0 1-.71-.4zm63.82 0l-4.18-7.15a.26.26 0 0 0-.48.13v10.3a.84.84 0 0 1-.84.83h-3.68a.84.84 0 0 1-.83-.84V2.22c0-.46.37-.84.83-.84h4.05c.3 0 .56.15.71.4l5.38 8.76a.43.43 0 0 0 .74 0l5.38-8.76a.83.83 0 0 1 .7-.4h4.05c.47 0 .84.37.84.84v20.66a.84.84 0 0 1-.84.84h-3.67a.84.84 0 0 1-.84-.84v-10.3a.26.26 0 0 0-.48-.13l-4.26 7.17a.83.83 0 0 1-.71.4h-1.16a.83.83 0 0 1-.71-.4zm-41.96 4.1c-2.2 0-3.8-.7-4.71-1.96a7.86 7.86 0 0 1-1.38-4.72V7.99c0-.46.38-.83.84-.83h3.72c.47 0 .84.37.84.84v8.9c0 .74.18 1.3.55 1.7.37.4.9.59 1.57.59.42 0 .9-.11 1.47-.33a2.45 2.45 0 0 0 1.57-2.28V8c0-.47.38-.84.84-.84h3.72c.46 0 .84.37.84.84v14.88a.84.84 0 0 1-.84.84h-3.72a.84.84 0 0 1-.84-.84v-.34l-1.16.45c-.96.36-2.13.73-3.3.73zm63.82 0c-2.2 0-3.8-.7-4.71-1.96a7.86 7.86 0 0 1-1.38-4.72V7.99c0-.46.38-.83.84-.83h3.72c.47 0 .84.37.84.84v8.9c0 .74.19 1.3.56 1.7.37.4.89.59 1.57.59.4 0 .9-.11 1.47-.33a2.45 2.45 0 0 0 1.57-2.28V8c0-.47.37-.84.83-.84h3.73c.46 0 .83.37.83.84v14.88a.84.84 0 0 1-.83.84h-3.73a.84.84 0 0 1-.83-.84v-.34l-1.16.45c-.97.36-2.14.73-3.32.73zm-44.76 0c-2.2 0-3.8-.7-4.71-1.96a7.86 7.86 0 0 1-1.38-4.72V7.99c0-.46.38-.83.84-.83h3.72c.46 0 .84.37.84.84v8.9c0 .74.18 1.3.56 1.7.37.4.89.59 1.57.59.4 0 .9-.11 1.47-.33a2.45 2.45 0 0 0 1.57-2.28V8c0-.47.37-.84.83-.84h3.72c.46 0 .84.37.84.84v14.88a.84.84 0 0 1-.84.84h-3.72a.84.84 0 0 1-.83-.84v-.34l-1.17.45c-.96.36-2.13.73-3.3.73zm63.82 0c-2.2 0-3.8-.7-4.71-1.96a7.86 7.86 0 0 1-1.37-4.72V7.99c0-.46.37-.83.83-.83h3.72c.47 0 .84.37.84.84v8.9c0 .74.19 1.3.56 1.7.37.4.89.59 1.57.59.4 0 .9-.11 1.47-.33a2.45 2.45 0 0 0 1.57-2.28V8c0-.47.37-.84.83-.84h3.73c.46 0 .83.37.83.84v14.88a.84.84 0 0 1-.83.84h-3.73a.84.84 0 0 1-.83-.84v-.34l-1.16.45c-.97.36-2.14.73-3.32.73zM85.93 52.89h-9.59a.95.95 0 0 1-.96-.94V28.81c0-.52.43-.94.96-.94h9.58c4.01 0 7.04 1.16 9.08 3.48 2.04 2.31 3.06 5.27 3.06 8.88 0 3.87-1.11 6.95-3.33 9.23-2.22 2.28-5.15 3.42-8.8 3.42zm-.1-20h-4.07a.43.43 0 0 0-.43.42v14.15c0 .23.2.43.43.43h3.8c1.86 0 3.39-.62 4.58-1.86 1.2-1.23 1.8-3.17 1.8-5.8 0-2.19-.52-3.96-1.54-5.31-1.02-1.36-2.54-2.04-4.56-2.04zm23.74 20a9.36 9.36 0 1 1 0-18.72 9.38 9.38 0 0 1 9.53 9.36 9.38 9.38 0 0 1-9.53 9.36zm.05-4.92c2.23 0 4.05-1.92 4.05-4.4s-1.81-4.4-4.05-4.4c-2.24 0-4.06 1.91-4.06 4.4s1.82 4.4 4.06 4.4zm34.5-13.77c2.37 0 4.08.71 5.13 2.15a8.73 8.73 0 0 1 1.6 5.33v10.29c0 .52-.43.94-.95.94h-4.2a.94.94 0 0 1-.94-.94V41.8c0-.84-.2-1.48-.61-1.92a2.1 2.1 0 0 0-1.64-.67c-.52 0-1.1.14-1.72.41a2.89 2.89 0 0 0-1.74 2.67l.06 9.65a.94.94 0 0 1-.94.95h-4.2a.94.94 0 0 1-.94-.94V41.8c0-.84-.2-1.48-.61-1.92-.4-.45-.96-.67-1.64-.67-.47 0-.99.12-1.55.36a2.69 2.69 0 0 0-1.66 2.48v9.9c0 .52-.42.94-.94.94h-4.17a.94.94 0 0 1-.94-.94V35.13c0-.52.42-.94.94-.94h4.17c.52 0 .94.42.94.94v.38c.03-.08.43-.28 1.2-.6a9.36 9.36 0 0 1 3.67-.72c1.23 0 2.27.2 3.13.63.86.42 1.56.97 2.1 1.66.74-.56 1.69-1.09 2.84-1.57a9.31 9.31 0 0 1 3.62-.72zm17.03 0c2.3 0 4.16.71 5.5 2.05a6.38 6.38 0 0 1 2.03 4.94v10.78a.94.94 0 0 1-.94.94h-4.2a.94.94 0 0 1-.93-.94v-.1s-1.09 1.04-2.87 1.04c-2.23 0-3.94-.53-5.03-1.64a5.97 5.97 0 0 1-1.64-4.38c0-1.92.64-3.35 1.92-4.28a8.34 8.34 0 0 1 5-1.39h2.62c-.13-.59-.44-1-.8-1.35a2.48 2.48 0 0 0-1.7-.65 8.26 8.26 0 0 0-2.38.34c-.4.1-.89.25-1.46.45a.94.94 0 0 1-1.2-.57l-1-2.64a.95.95 0 0 1 .55-1.2 20.6 20.6 0 0 1 2.56-.84 16.8 16.8 0 0 1 3.97-.56zM159.7 48.7c.46 0 .94-.04 1.43-.3a9.97 9.97 0 0 0 .82-.52c.38-.26.6-.69.6-1.14v-1.32a.43.43 0 0 0-.43-.43h-2.13c-.55 0-1 .2-1.33.6-.34.4-.5.9-.5 1.46 0 .44.14.83.44 1.16.3.33.67.49 1.1.49zm18.32-12.12v15.37c0 .52-.43.94-.95.94h-4.15a.94.94 0 0 1-.94-.94V36.58c0-.52.42-.94.94-.94h4.15c.53 0 .95.42.95.94zm-3.03-2.63a3.05 3.05 0 1 1 0-6.1 3.05 3.05 0 1 1 0 6.1zm18.07.24c2.48 0 4.26.71 5.33 2.15a8.65 8.65 0 0 1 1.61 5.33v10.29a.94.94 0 0 1-.94.94h-4.18a.94.94 0 0 1-.94-.94V41.8c0-.84-.23-1.48-.68-1.92a2.5 2.5 0 0 0-1.83-.67c-.52 0-1.12.14-1.8.41a2.92 2.92 0 0 0-1.86 2.71v9.62a.94.94 0 0 1-.94.94h-4.17a.94.94 0 0 1-.94-.94V35.13c0-.52.42-.94.94-.94h4.17c.52 0 .94.42.94.94v.47l1.46-.65a11 11 0 0 1 3.83-.76z"/><path fill="#00BDA6" fill-rule="nonzero" d="M44.86 43.77c0 5.34 3.8 9.13 9.14 9.13s9.13-3.8 9.13-9.13V9.27c0-8.25-8.7-11.86-14.7-7.24L32.8 14.05c-.89.65-1.58.65-2.47 0L14.7 2.03A9.14 9.14 0 0 0 1.88 3.7a9.13 9.13 0 0 0 1.67 12.8L26 33.77a8.63 8.63 0 0 0 11.14 0l6.09-4.69c.75-.57 1.63-.18 1.63.8v13.9z"/><circle cx="9.36" cy="43.51" r="9.36" fill="#2B2B2B"/></g></svg>