<svg xmlns="http://www.w3.org/2000/svg" width="108" height="24" fill="none" viewBox="0 0 108 24"><path fill="#fff" d="M45.58 18L44.83 7.78L41.3 18H38.95L35.4 7.78L34.68 18H32.28L33.35 4H36.75L40.3 14.57L43.83 4H47.18L48.25 18H45.58ZM54.28 18.52C53.4 20.95 52.28 21.7 50.4 21.7C49.98 21.7 49.72 21.65 49.5 21.6L49.17 19.6C49.5 19.67 49.85 19.75 50.3 19.75C51 19.75 51.57 19.42 51.87 18.72L52.1 18.07L48.55 8.42L51.08 8.1L53.35 15.07L55.55 8.22H57.98L54.28 18.52V18.52ZM62.85 18.15C61.15 18.15 59.68 17.77 58.45 17.18L58.85 14.72C60.0703 15.4748 61.4661 15.8987 62.9 15.95C64.15 15.95 65 15.35 65 14.25C65 13.22 64.53 12.8 62.48 11.92C59.75 10.8 58.65 9.92 58.65 7.75C58.65 5.27 60.55 3.82 63.18 3.82C64.75 3.82 65.85 4.15 66.88 4.67L66.48 7.1C65.5075 6.42595 64.3625 6.04426 63.18 6C61.82 6 61.25 6.65 61.25 7.5C61.25 8.4 61.7 8.82 63.65 9.62C66.53 10.8 67.57 11.8 67.57 13.97C67.55 16.75 65.55 18.15 62.85 18.15V18.15ZM72.95 18.18C70.22 18.18 68.3 16.35 68.3 13.15C68.3 9.75 70.43 8 73.02 8C74.35 8 75.32 8.35 76.1 8.82L75.75 11.02C75.0222 10.4245 74.1105 10.0994 73.17 10.1C71.77 10.1 70.75 11.12 70.75 13.07C70.75 15.1 71.85 16.07 73.33 16.07C74.18 16.07 74.95 15.85 75.85 15.15L76.18 17.22C75.2 17.92 74.18 18.17 72.95 18.17V18.18ZM79.7 12.37V18H77.28V8.2H79.35L79.65 10.18C80.3 9.05 81.28 8.08 82.8 8L83.18 10.42C81.65 10.52 80.4 11.32 79.7 12.37V12.37ZM85.1 6.55C84.3 6.55 83.65 5.98 83.65 5.17C83.65 4.35 84.3 3.75 85.1 3.75C85.9 3.75 86.55 4.35 86.55 5.18C86.55 6 85.9 6.55 85.1 6.55ZM83.87 8.2H86.3V18H83.88V8.2H83.87ZM92.65 18.1C91.72 18.1 90.97 17.95 90.38 17.72V21.42L87.95 21.8V8.2H90.03L90.25 9.55C90.95 8.75 91.9 8 93.25 8C95.3 8 96.95 9.55 96.95 12.83C96.92 16.47 94.9 18.1 92.65 18.1V18.1ZM92.58 10.15C91.7 10.15 91.03 10.7 90.38 11.53V15.73C90.98 16 91.43 16.15 92.28 16.15C93.53 16.15 94.48 15.13 94.48 12.98C94.48 11.08 93.68 10.15 92.58 10.15ZM101.8 18.15C99.87 18.15 98.57 17.45 98.57 15.2V10.2H97.2V8.2H98.58V5.1L100.98 4.72V8.2H102.98L103.28 10.2H100.95V14.83C100.95 15.63 101.33 16.05 102.25 16.05C102.53 16.05 102.8 16.02 103.03 15.98L103.33 18.03C102.98 18.08 102.53 18.15 101.8 18.15V18.15ZM105.5 18.57C104.7 18.57 104.15 18.02 104.15 17.2C104.15 16.38 104.7 15.82 105.5 15.82C106.3 15.82 106.85 16.37 106.85 17.2C106.85 18 106.28 18.58 105.5 18.58V18.57ZM105.5 15.97C104.85 15.97 104.35 16.42 104.35 17.2C104.35 17.98 104.85 18.4 105.5 18.4C106.15 18.4 106.65 17.95 106.65 17.2C106.65 16.4 106.12 15.97 105.5 15.97V15.97ZM105.85 17.92L105.45 17.32H105.35V17.9H105V16.38H105.53C105.88 16.38 106.08 16.55 106.08 16.83C106.08 17.05 105.98 17.18 105.78 17.25L106.18 17.85L105.85 17.92V17.92ZM105.47 16.65H105.32V17.08H105.47C105.62 17.08 105.72 17 105.72 16.85C105.72 16.72 105.65 16.65 105.47 16.65Z"/><path fill="#1A9FFF" d="M0 0V20.6C0 21.5017 0.358213 22.3665 0.995837 23.0042C1.63346 23.6418 2.49826 24 3.4 24H24V3.4C24 1.5 22.5 0 20.6 0H0Z"/><path fill="#fff" d="M14.3 17.9998L16.85 9.3298C17.05 8.7298 17.3 8.1498 17.4 7.6998C17.4 8.2498 17.45 8.9398 17.5 9.5298L18.1 17.9998H21L19.7001 4.1998H15.7L13.5 12.0398C13.3 12.6798 13.2 13.3198 13.1 13.8098C12.9628 13.2247 12.8494 12.6342 12.76 12.0398C12.51 10.3598 11.96 7.30981 11.36 5.08981C11.11 4.0098 9.71005 3.7098 8.86005 4.0598C8.21005 4.3598 7.86005 5.0898 7.71005 5.6798C7.41005 6.6698 7.16005 7.64981 6.91005 8.63981L6.26005 11.7398C6.21005 11.9898 6.11005 12.4398 5.86005 12.4398C5.66005 12.4398 5.66005 11.4398 5.66005 11.0998C5.66005 10.0198 5.56005 8.53981 5.41005 7.45981C5.21005 6.27981 4.91005 4.89981 3.31005 5.08981C2.86005 5.13981 2.11005 5.4398 2.27005 5.8898C2.42005 6.5198 2.62005 7.2598 2.72005 7.9498C3.17005 10.4098 3.52005 14.7498 3.72005 17.0098C3.82005 17.9998 4.86005 18.4398 5.86005 17.9998C6.36005 17.7998 6.66005 17.2098 6.86005 16.7698C7.86005 14.1098 8.56005 11.2998 9.36005 8.58981C9.36005 8.53981 9.46005 8.1898 9.61005 8.1898C10.06 8.1898 10.66 14.5498 10.76 15.1898C10.96 16.0798 11.21 17.7498 12.3101 17.9898H14.3101L14.3 17.9998Z"/></svg>