<svg xmlns="http://www.w3.org/2000/svg" width="200" height="43" fill="none" viewBox="0 0 200 43"><path fill="#fff" d="M87.1466 10.5719H76.5907V31.6515H81.941V23.9234C81.941 23.9234 89.5727 24.3411 91.7257 21.4973C93.3324 19.6657 93.4288 16.7255 92.754 14.46C91.8864 11.8893 89.9583 10.5558 87.1466 10.5719V10.5719ZM87.7572 20.0674C86.504 21.5455 83.7405 21.5294 81.9088 21.4009L81.9249 12.9497C81.9249 12.9497 86.6807 12.291 87.9339 14.444C88.6569 15.7293 88.8337 18.6374 87.7572 20.0674V20.0674ZM42.3362 35.0898C40.4243 34.3829 37.6768 32.246 36.0862 30.3019C34.0457 27.9562 29.1454 21.3688 29.1454 21.3688C26.6229 18.1233 23.2488 12.7087 19.923 9.99345V31.6033H22.8954V20.694C24.984 23.3611 27.4423 26.7833 29.29 28.9362C30.0933 29.9003 32.1981 32.1657 32.7765 32.6638C36.6164 36.4073 43.6537 38.0783 49.5181 36.0217V35.8289C47.5098 36.2627 44.9069 36.1181 42.3362 35.0898V35.0898ZM24.1968 11.8411C26.2373 14.1869 31.1376 20.7743 31.1376 20.7743C33.6601 24.0198 37.0342 29.4343 40.36 32.1496V10.5397H37.3876V21.4491C35.299 18.782 32.8407 15.3598 30.993 13.2068C30.1897 12.2428 28.0849 9.97738 27.5065 9.47931C23.6666 5.71967 16.6293 4.04872 10.7649 6.10527V6.31414C12.7893 5.88034 15.3921 6.04101 17.9468 7.06928C19.8587 7.76016 22.6062 9.89705 24.1968 11.8411ZM57.7925 12.9337L57.8086 10.5719H43.3645V31.6515H57.8086L57.7925 29.2897C55.029 29.354 51.5586 29.8039 48.7148 29.5147V21.9472C51.0284 21.8186 53.824 21.8668 55.9609 22.0596V19.5532C53.7758 19.8264 51.0445 19.8103 48.7148 19.6657V12.6927C51.5425 12.4195 55.029 12.8694 57.7925 12.9337V12.9337ZM72.7186 21.4009C70.2765 19.2961 67.3202 18.6374 65.2315 17.1914C63.7694 16.0667 63.9943 14.6046 64.7334 13.8174C66.4847 11.8572 70.164 12.7891 71.0155 12.9819C72.092 13.3032 72.6704 13.6406 73.6987 14.1066V11.4555C69.3285 10.1863 62.3234 8.96517 59.5759 13.3675C58.5637 15.183 58.2906 18.4607 61.2148 20.3726C64.155 22.7184 68.9911 23.827 69.5856 25.7229C69.9551 26.7512 69.5052 27.7473 68.8144 28.4382C66.1955 30.8643 62.0181 29.3379 59.3028 28.1329V30.7357C62.227 32.0532 65.9384 32.3906 69.2321 31.6837C71.4815 31.1856 74.02 29.1933 74.4217 26.7351C74.8234 24.3411 74.3092 22.7505 72.7186 21.4009V21.4009ZM112.532 30.5429L111.873 29.3058C110.476 26.6869 109.351 24.5018 108.13 21.658C108.258 21.5616 108.226 21.6098 108.596 21.433C110.556 20.5012 111.841 18.8141 111.809 15.906C111.713 12.3231 108.451 10.5558 105.591 10.5558H94.8908V31.6515H100.273V22.9273H103.326C104.338 24.6303 106.427 29.4665 106.748 30.2216L107.375 31.6355H113.111L112.597 30.6554C112.58 30.6393 112.564 30.5911 112.532 30.5429V30.5429ZM105.913 19.2319C104.643 20.7422 102.041 20.6297 100.241 20.6297V12.9015C100.241 12.9015 104.836 12.2107 106.106 14.4279C106.748 15.665 106.829 17.9787 105.913 19.2319ZM174.133 10.2505C172.735 10.2345 163.689 10.3951 163.657 21.0314C163.657 31.5873 172.574 32.0211 174.133 32.005C175.675 32.0211 184.608 31.6033 184.576 21.0314C184.56 10.3951 175.53 10.2345 174.133 10.2505V10.2505ZM174.165 29.0648H174.084C173.49 29.0648 169.184 29.2415 169.2 20.6297C169.232 12.6284 173.426 12.8533 174.133 12.8533C174.823 12.8533 179.017 12.6284 179.049 20.6297C179.081 29.2415 174.759 29.0648 174.165 29.0648V29.0648ZM187.805 29.2255C187.886 29.1773 188.239 29.0648 188.239 28.5506C188.239 28.1168 187.95 27.8437 187.388 27.8437H186.118V30.4947H186.584V29.4022H187.259C187.693 29.4022 187.789 29.6271 187.789 30.1091C187.789 30.2377 187.789 30.3823 187.854 30.4947H188.352C188.255 30.3983 188.207 30.1091 188.207 29.8039C188.207 29.3701 187.982 29.2415 187.805 29.2255V29.2255ZM187.339 29.0487H186.584V28.2293H187.339C187.58 28.2293 187.805 28.2936 187.805 28.631C187.789 28.888 187.629 29.0487 187.339 29.0487ZM187.082 26.6708C185.701 26.6708 184.576 27.7955 184.576 29.1612C184.576 30.559 185.701 31.6676 187.082 31.6676C188.464 31.6676 189.605 30.5429 189.605 29.1612C189.605 27.7794 188.48 26.6708 187.082 26.6708ZM187.082 31.4266C185.829 31.4266 184.817 30.4144 184.817 29.1612C184.839 28.5772 185.086 28.0245 185.507 27.6192C185.928 27.2138 186.49 26.9874 187.074 26.9874C187.659 26.9874 188.22 27.2138 188.641 27.6192C189.062 28.0245 189.31 28.5772 189.332 29.1612C189.332 30.4144 188.32 31.4266 187.082 31.4266ZM144.312 21.4009C141.87 19.2961 138.898 18.6374 136.825 17.1914C135.363 16.0667 135.588 14.6046 136.327 13.8174C138.079 11.8572 141.758 12.7891 142.609 12.9819C143.686 13.3032 144.264 13.6406 145.293 14.1066V11.4555C140.922 10.1863 133.917 8.96517 131.17 13.3675C130.158 15.183 129.884 18.4607 132.809 20.3726C135.749 22.7184 140.585 23.827 141.179 25.7229C141.549 26.7512 141.099 27.7473 140.408 28.4382C137.789 30.8643 133.612 29.3379 130.897 28.1329V30.7357C133.821 32.0532 137.532 32.3906 140.826 31.6837C143.075 31.1856 145.614 29.1933 146.016 26.7351C146.417 24.3411 145.903 22.7505 144.312 21.4009V21.4009ZM160.685 21.4009C158.258 19.2961 155.286 18.6213 153.213 17.1914C151.735 16.0667 151.96 14.6046 152.699 13.8174C154.451 11.8572 158.114 12.7891 158.981 12.9819C160.058 13.3032 160.652 13.6406 161.681 14.1066V11.4555C157.294 10.1863 150.305 8.96517 147.542 13.3675C146.514 15.183 146.257 18.4607 149.181 20.3726C152.137 22.7184 156.957 23.827 157.552 25.7229C157.937 26.7512 157.487 27.7473 156.78 28.4382C154.177 30.8643 149.984 29.3379 147.285 28.1329L147.269 30.7357C150.209 32.0532 153.904 32.3906 157.198 31.6837C159.463 31.1856 161.986 29.1933 162.404 26.7351C162.789 24.3411 162.275 22.7505 160.685 21.4009V21.4009ZM114.894 31.6515H129.322V29.2897C126.543 29.354 123.072 29.8039 120.228 29.5147V21.9472C122.526 21.8186 125.338 21.8668 127.49 22.0596V19.5532C125.289 19.8264 122.558 19.8103 120.228 19.6657V12.6927C123.072 12.4035 126.543 12.8533 129.322 12.9015V10.5719H114.894V31.6515V31.6515Z"/></svg>