<svg xmlns="http://www.w3.org/2000/svg" width="128" height="29" fill="none" viewBox="0 0 128 29"><mask id="mask0" width="28" height="29" x="0" y="0" mask-type="alpha" maskUnits="userSpaceOnUse"><path fill="#fff" d="M0 0.21582H27.881V28.0978H0V0.21582Z"/></mask><g mask="url(#mask0)"><path fill="#fff" fill-rule="evenodd" d="M21.315 15.1257C20.8943 18.4366 18.2208 21.1101 14.9099 21.5308C10.0528 22.1482 5.9494 18.0448 6.56679 13.1877C6.98749 9.87675 9.66094 7.20331 12.9715 6.78261C17.829 6.16522 21.932 10.2686 21.315 15.1257ZM15.3632 0.286374C6.54628 -0.586549 -0.802366 6.76248 0.0705567 15.579C0.716801 22.1034 5.99383 27.3808 12.5185 28.027C21.3351 28.8999 28.6841 21.5509 27.8108 12.7344C27.165 6.21002 21.8876 0.932618 15.3632 0.286374Z" clip-rule="evenodd"/></g><path fill="#fff" fill-rule="evenodd" d="M53.9111 21.4894H42.6034L57.0357 2.56833C57.5139 1.94116 57.0636 1.04053 56.2718 1.04053H35.41C33.349 1.04053 31.7261 2.9039 32.1543 5.02763C32.4679 6.58475 33.9374 7.64854 35.5354 7.64854H44.8162L30.3735 26.5839C29.8995 27.2053 30.3455 28.0974 31.1303 28.0974H53.7858C55.3841 28.0974 56.8533 27.034 57.1669 25.4765C57.595 23.3528 55.9722 21.4894 53.9111 21.4894Z" clip-rule="evenodd"/><mask id="mask1" width="26" height="27" x="102" y="1" mask-type="alpha" maskUnits="userSpaceOnUse"><path fill="#fff" d="M102.03 1.11963H127.853V27.8576H102.03V1.11963Z"/></mask><g mask="url(#mask1)"><path fill="#fff" fill-rule="evenodd" d="M123.864 1.19391C122.343 1.51288 121.299 2.9225 121.299 4.47084V15.3424L103.56 1.325C102.942 0.836454 102.03 1.27508 102.03 2.06087V24.5067C102.03 26.0546 103.074 27.4646 104.595 27.7832C106.716 28.228 108.585 26.6285 108.585 24.5939V13.6294L126.324 27.6468C126.942 28.1354 127.853 27.6967 127.853 26.9106V4.38358C127.853 2.34897 125.985 0.749186 123.864 1.19391Z" clip-rule="evenodd"/></g><mask id="mask2" width="40" height="29" x="58" y="0" mask-type="alpha" maskUnits="userSpaceOnUse"><path fill="#fff" d="M58.3044 0.21582H97.7694V28.0898H58.3044V0.21582Z"/></mask><g mask="url(#mask2)"><path fill="#fff" fill-rule="evenodd" d="M78.0366 21.5848C70.5074 21.5848 64.8817 17.661 64.8817 14.153C64.8817 10.6446 70.5074 6.72079 78.0366 6.72079C85.5659 6.72079 91.1916 10.6446 91.1916 14.153C91.1916 17.661 85.5659 21.5848 78.0366 21.5848ZM78.0366 0.21582C67.1388 0.21582 58.3042 6.45576 58.3042 14.153C58.3042 21.8498 67.1388 28.0897 78.0366 28.0897C88.9348 28.0897 97.7691 21.8498 97.7691 14.153C97.7691 6.45576 88.9348 0.21582 78.0366 0.21582Z" clip-rule="evenodd"/></g></svg>