<svg xmlns="http://www.w3.org/2000/svg" viewBox="0 0 142.07 41.43"><g data-name="レイヤー 2"><path d="M52 17.16c0-6.31 0-7.44-.08-8.73s-.4-2-1.74-2.3A7.55 7.55 0 0 0 48.85 6c-.16 0-.32-.08-.32-.24s.2-.32.65-.32h9.34c2.55 0 5.26.24 7.4 1.78a7.08 7.08 0 0 1 2.79 5.5c0 3-1.25 6-4.89 9.34 3.31 4.25 6.06 7.84 8.41 10.35a8.36 8.36 0 0 0 4.93 2.91 9.66 9.66 0 0 0 1.58.12c.2 0 .36.12.36.24s-.24.32-1 .32h-2.85c-2.26 0-3.28-.2-4.33-.77-1.74-.93-3.15-2.91-5.46-5.94-1.7-2.22-3.6-4.91-4.41-6a.65.65 0 0 0-.53-.24h-5c-.2 0-.28.12-.28.32v.87c0 3.88 0 7.08.2 8.77.12 1.17.36 2.06 1.58 2.22a17.6 17.6 0 0 0 1.82.16c.24 0 .32.12.32.24s-.2.32-.65.32h-8.73c-.45 0-.65-.08-.65-.32s.08-.24.32-.24a6.23 6.23 0 0 0 1.21-.16c.81-.16 1-1.05 1.17-2.22.2-1.7.2-4.89.2-8.77zm3.23 3.93a.46.46 0 0 0 .28.49c.33.08 2.48 0 4.27.06a6.08 6.08 0 0 0 3-.7c1.41-1 2.47-3 2.47-6.12 0-5.05-2.67-8.09-7-8.09A12.2 12.2 0 0 0 55.6 7a.49.49 0 0 0-.32.49z"/><path d="M94.82 22.92a.5.5 0 0 1-.38.16H80.09a19.15 19.15 0 0 0-.32 3.24 7.55 7.55 0 0 0 7.66 8c3.35 0 4.79-.55 6.38-2 0 0 .2-.25.41 0s-.24.58-.24.58a10.65 10.65 0 0 1-7.61 3.31c-5.49 0-10.37-3.67-10.37-9.89s4.63-9.94 10.37-9.94c5.47 0 8.24 3.13 8.53 6.16a.55.55 0 0 1-.08.38zm-4.15-1.19a4.25 4.25 0 0 0-4.31-4.13c-3.24.06-4.63 1.38-5.87 4.15zM99.21 17.16c0-6.31 0-7.44-.08-8.73s-.4-2-1.74-2.3A7.55 7.55 0 0 0 96 6c-.16 0-.32-.08-.32-.24s.2-.32.65-.32h9.34c2.55 0 5.26.24 7.4 1.78a7.08 7.08 0 0 1 2.79 5.5c0 3-1.25 6-4.89 9.34 3.32 4.25 6.06 7.84 8.41 10.35a8.36 8.36 0 0 0 4.93 2.91 9.66 9.66 0 0 0 1.58.12c.2 0 .36.12.36.24s-.24.32-1 .32h-2.87c-2.26 0-3.28-.2-4.33-.77-1.74-.93-3.15-2.91-5.46-5.94-1.7-2.22-3.6-4.91-4.41-6a.65.65 0 0 0-.53-.24h-5c-.2 0-.28.12-.28.32v.87c0 3.88 0 7.08.2 8.77.12 1.17.36 2.06 1.58 2.22a17.6 17.6 0 0 0 1.82.16c.24 0 .32.12.32.24s-.2.32-.65.32h-8.69c-.45 0-.65-.08-.65-.32s.08-.24.32-.24a6.23 6.23 0 0 0 1.21-.16c.81-.16 1-1.05 1.17-2.22.2-1.7.2-4.89.2-8.77zm3.23 3.93a.46.46 0 0 0 .28.49c.33.08 2.48 0 4.27.06a6.08 6.08 0 0 0 3-.7c1.42-1 2.47-3 2.47-6.12 0-5.05-2.67-8.09-7-8.09a12.2 12.2 0 0 0-2.71.24.49.49 0 0 0-.32.49z"/><path d="M142 22.92a.5.5 0 0 1-.38.16h-14.37a19.15 19.15 0 0 0-.32 3.24 7.55 7.55 0 0 0 7.66 8c3.35 0 4.79-.55 6.38-2 0 0 .2-.25.41 0s-.24.58-.24.58a10.64 10.64 0 0 1-7.61 3.31c-5.48 0-10.37-3.67-10.37-9.89s4.63-9.94 10.37-9.94c5.47 0 8.24 3.13 8.53 6.16a.55.55 0 0 1-.06.38zm-4.15-1.19a4.25 4.25 0 0 0-4.31-4.13c-3.24.06-4.63 1.38-5.87 4.15z"/><path fill="#ff9800" d="M35.63 35.56a21 21 0 0 0 5.81-11.19 12.41 12.41 0 0 0-3.76-3.65 12.41 12.41 0 0 0 3.76-3.65A21 21 0 0 0 35.65 5.9l-.11-.11A21 21 0 0 0 24.35 0a12.41 12.41 0 0 0-3.64 3.76A12.41 12.41 0 0 0 17.07 0 21 21 0 0 0 5.92 5.77l-.16.16A21 21 0 0 0 0 17.1a12.41 12.41 0 0 0 3.75 3.62A12.41 12.41 0 0 0 0 24.34a21 21 0 0 0 5.78 11.19l.12.12a21 21 0 0 0 11.17 5.78 12.41 12.41 0 0 0 3.64-3.76 12.41 12.41 0 0 0 3.64 3.76 21 21 0 0 0 11.21-5.81zM39.51 29a8.63 8.63 0 0 1-6.17-6.18A8.63 8.63 0 0 1 39.51 29zm0-16.66a8.63 8.63 0 0 1-6.17 6.18 8.63 8.63 0 0 1 6.17-6.13zM31.2 6.25a12.41 12.41 0 0 0 4 4 12.41 12.41 0 0 0-4 4 12.41 12.41 0 0 0-4-4 12.41 12.41 0 0 0 4-4zm-2.15-4.34a8.63 8.63 0 0 1-6.2 6.2 8.63 8.63 0 0 1 6.2-6.2zm0 16.67a8.63 8.63 0 0 1-6.2-6.2 8.63 8.63 0 0 1 6.2 6.2zM18.56 8.1a8.63 8.63 0 0 1-6.18-6.19 8.63 8.63 0 0 1 6.18 6.19zm0 4.29a8.63 8.63 0 0 1-6.18 6.19 8.63 8.63 0 0 1 6.18-6.19zm-8.32-6.14a12.41 12.41 0 0 0 4 4 12.41 12.41 0 0 0-4 4 12.41 12.41 0 0 0-4-4 12.41 12.41 0 0 0 4-4zM1.9 12.38a8.63 8.63 0 0 1 6.2 6.2 8.63 8.63 0 0 1-6.2-6.2zm0 16.67a8.63 8.63 0 0 1 6.2-6.2 8.63 8.63 0 0 1-6.2 6.2zm8.35 6.13a12.41 12.41 0 0 0-4-4 12.41 12.41 0 0 0 4-4 12.41 12.41 0 0 0 4 4 12.41 12.41 0 0 0-4.01 4zm2.14 4.34a8.63 8.63 0 0 1 6.18-6.18 8.63 8.63 0 0 1-6.18 6.18zm0-16.66A8.63 8.63 0 0 1 18.56 29a8.63 8.63 0 0 1-6.17-6.14zm8.32 1.85a12.41 12.41 0 0 0-4-4 12.41 12.41 0 0 0 4-4 12.41 12.41 0 0 0 4 4 12.41 12.41 0 0 0-4 4zm8.35-1.85a8.63 8.63 0 0 1-6.2 6.2 8.63 8.63 0 0 1 6.19-6.21zm-6.2 10.48a8.63 8.63 0 0 1 6.2 6.2 8.63 8.63 0 0 1-6.21-6.21zm8.35 1.86a12.41 12.41 0 0 0-4-4 12.41 12.41 0 0 0 4-4 12.41 12.41 0 0 0 4 4 12.41 12.41 0 0 0-4.01 3.99z"/></g></svg>