<svg xmlns="http://www.w3.org/2000/svg" xmlns:xlink="http://www.w3.org/1999/xlink" viewBox="0 0 134 40"><defs><style>.a{fill:url(#a)}.b{fill:#1e5e71}.c{fill:#fff}.d{fill:none}.e{fill:#344}.f{fill:#30b396}</style><linearGradient id="a" x1="7.43" x2="32.57" y1="7.43" y2="32.57" gradientUnits="userSpaceOnUse"><stop offset=".2" stop-color="#30b396"/><stop offset="1" stop-color="#1e5e71"/></linearGradient></defs><circle cx="20" cy="20" r="17.77" class="a"/><path d="M20,2.23A17.77,17.77,0,1,1,2.23,20,17.77,17.77,0,0,1,20,2.23M20,0A20,20,0,1,0,40,20,20,20,0,0,0,20,0Z" class="b"/><rect width="2.68" height="4.02" x="12.66" y="7.4" class="c" transform="translate(0.58 19.61) rotate(-71.15)"/><rect width="2.68" height="4.02" x="10.06" y="15" class="c" transform="translate(-8.37 22.3) rotate(-71.15)"/><rect width="2.68" height="4.02" x="7.47" y="22.6" class="c" transform="translate(-17.32 24.99) rotate(-71.15)"/><path d="M8,33.11l.52-1.52-2.76-.94A17.84,17.84,0,0,0,8,33.11Z" class="c"/><path d="M15.5,7.09,18,8,16.31,13l-2.53-.87-.87,2.54,2.53.87-1.73,5.06-2.53-.87-.87,2.54,2.53.87-1.73,5.06-2.53-.87L7.72,29.9l2.53.87L9.13,34a17.78,17.78,0,0,0,2.31,1.53L18.79,14l.06-.16,1.77-5.19L21,7.55,15.94,5.82Z" class="c"/><path d="M36.27,12.87,22.94,8.31,13.33,36.47a17.76,17.76,0,0,0,22.95-23.6Z" class="c"/><circle cx="20" cy="20" r="17.77" class="d"/><path d="M52.28,25.9a8.38,8.38,0,0,0,5.48,2.44,3.15,3.15,0,0,0,2.4-.82A2.14,2.14,0,0,0,60.77,26a1.87,1.87,0,0,0-.68-1.43A8.61,8.61,0,0,0,57,23.32l-1.61-.5A7.81,7.81,0,0,1,52,20.88a6,6,0,0,1-1.36-4.23,7.82,7.82,0,0,1,2.19-5.77,8.43,8.43,0,0,1,6.13-2.26,16.79,16.79,0,0,1,7.38,1.94l-2.47,4.84a6.31,6.31,0,0,0-4.09-1.61,3,3,0,0,0-2,.72,1.77,1.77,0,0,0-.61,1.29,1.6,1.6,0,0,0,.32,1.08,3.92,3.92,0,0,0,2.08,1.08l1.9.57a9.13,9.13,0,0,1,4.34,2.37,5.64,5.64,0,0,1,1.54,4.27,8.1,8.1,0,0,1-2.26,6c-2,2-4.52,2.44-7.06,2.44a12.78,12.78,0,0,1-4.7-.79,16.69,16.69,0,0,1-3.62-1.9Z" class="e"/><path d="M77.36,6.94V22.81L82.77,17h7.78L83,24.43l8.17,8.64h-8l-5.84-6.56v6.56H71.62V6.94Z" class="e"/><path d="M110,26.11H98a4,4,0,0,0,1,2.69,3.22,3.22,0,0,0,2.37.79,4.53,4.53,0,0,0,1.86-.43,2.67,2.67,0,0,0,1-1.08h5.48a7.2,7.2,0,0,1-1.94,3.3c-1.18,1.15-3,2.22-6.52,2.22a9.09,9.09,0,0,1-6.63-2.44,8.39,8.39,0,0,1-2.37-6.06,8.55,8.55,0,0,1,2.4-6.2,9,9,0,0,1,6.56-2.33,8.78,8.78,0,0,1,6.17,2.19A9,9,0,0,1,110,25.5Zm-5.27-3.3a3.84,3.84,0,0,0-.93-1.72,3.34,3.34,0,0,0-2.37-.86,3.08,3.08,0,0,0-2.33.86,3.27,3.27,0,0,0-.86,1.72Z" class="e"/><path d="M120,6.94V18.58a6.34,6.34,0,0,1,4.77-2.08,8.19,8.19,0,0,1,5.66,2.15A8.73,8.73,0,0,1,133,25a8.84,8.84,0,0,1-2.58,6.38,7.67,7.67,0,0,1-5.63,2.22A5.88,5.88,0,0,1,120,31.31v1.76h-5.73V6.94ZM126,27.65a3.62,3.62,0,0,0,1.11-2.51A3.93,3.93,0,0,0,126,22.42a3.68,3.68,0,0,0-5.16,0A4.19,4.19,0,0,0,119.78,25,3.84,3.84,0,0,0,121,27.76a3.92,3.92,0,0,0,2.47,1A3.56,3.56,0,0,0,126,27.65Z" class="e"/><polygon points="71.62 6.94 71.62 12.67 77.36 6.94 71.62 6.94" class="f"/><polygon points="114.22 6.94 114.22 12.67 119.96 6.94 114.22 6.94" class="f"/></svg>