<svg xmlns="http://www.w3.org/2000/svg" width="200" height="38" fill="none" viewBox="0 0 200 38"><g clip-path="url(#clip0)"><path fill="#86B72E" d="M102.279 0H92.7011L90.8901 6.58431L100.957 4.81036L102.279 0Z"/><path fill="#fff" d="M87.6656 9.411C85.4748 9.37064 80.8387 9.25023 77.4567 13.7401L78.4424 9.57144H69.1188L68.184 13.8605L63.8387 29.6948H73.3664L75.6946 21.1561C76.315 18.9917 78.0099 15.744 83.8687 15.744C84.5315 15.744 84.7862 15.7854 85.855 15.8644L87.6656 9.411ZM90.0589 9.57144L84.524 29.6944H94.103L99.6375 9.57144H90.0589ZM121.03 9.13015C115.731 9.13015 113.124 11.1341 111.539 12.6577L112.316 9.5711H102.737L101.803 13.8601L97.4576 29.6944H106.984L110.14 18.1495C110.347 17.4277 111.33 13.9005 115.609 13.9005C119.532 13.9005 118.756 16.747 118.343 18.1495L115.188 29.6944H124.766L128.128 17.5081C128.853 14.742 130.405 9.13015 121.03 9.13015V9.13015ZM141.974 21.4362L143.888 14.4615H150.054L151.347 9.65047H145.284L146.614 4.81908L136.942 6.52451L136.062 9.65047H131.574L130.282 14.4618H134.616L131.977 24.1219C130.892 28.011 131.85 30.0146 139.493 30.0146C142.754 30.0146 144.488 29.8142 145.812 29.6541L147.106 24.9244C145.933 25.0445 145.474 25.0445 144.711 25.0445C141.042 25.0445 141.353 23.9218 141.974 21.4362V21.4362ZM176.106 21.2402C177.089 17.7455 177.301 15.8403 176.646 14.1322C175.69 11.3132 173.05 9.04943 165.917 9.04943C156.492 9.05011 151.073 13.3781 149.262 20.0493C147.401 26.6411 151.258 30.1354 160.173 30.1354C166.796 30.1347 173.326 28.1891 175.436 23.1864H166.52C165.748 25.0526 163.859 26.0845 161.312 26.0851C156.421 26.0851 157.505 22.3127 157.765 21.2405H176.106V21.2402ZM164.779 13.021C168.957 13.021 168.435 16.0381 168.226 17.1899H159.004C159.366 16.2365 160.601 13.021 164.779 13.021V13.021ZM189.792 13.7401L190.778 9.57144H181.454L180.519 13.8605L176.174 29.6948H185.701L188.029 21.1561C188.65 18.9917 190.344 15.744 196.204 15.744C196.865 15.744 197.121 15.7854 198.19 15.8644L200 9.41134C197.81 9.37064 193.173 9.25023 189.792 13.7401V13.7401ZM56.191 9.05011C50.7915 9.05011 48.0054 11.4156 46.8186 12.4169L47.499 9.57144H38.0363C37.8284 10.4126 37.827 10.6531 37.3033 12.8585L30.5687 37.3106L40.7301 35.5183L43.002 27.2893C43.8215 28.2919 45.4079 30.0947 49.9845 30.0947C55.846 30.0947 62.3388 27.0491 64.4787 19.2318C66.7753 10.974 60.5105 9.05011 56.191 9.05011V9.05011ZM54.9401 19.0762C54.1186 22.0939 52.3405 25.6052 48.1305 25.6052C43.5437 25.6052 44.4558 21.2381 44.9181 19.627C45.2254 18.4605 46.6113 13.3792 51.731 13.3792C55.9793 13.3792 55.4519 17.1441 54.9401 19.0762V19.0762ZM24.6553 12.8107L18.2573 11.13C16.8472 10.7488 14.786 10.1389 15.4983 8.05018C16.0386 6.35492 18.342 5.13554 21.2947 5.26409C22.5951 5.32108 23.4723 5.58157 24.0567 5.94789C24.0733 5.95807 24.0906 5.96825 24.1062 5.9791C24.1381 5.99979 24.1673 6.02218 24.1974 6.04287C25.6149 7.0835 24.9976 8.86661 24.7612 9.5711H35.2614C35.3696 9.19494 35.4703 8.79402 35.545 8.37784C35.9693 6.18295 35.7169 3.34327 31.5887 1.59544C29.6804 0.785456 26.9462 0.212908 23.0724 0.043992C12.0772 -0.436976 6.2171 3.76556 4.71993 8.37784C2.79877 14.334 8.94451 15.9621 11.3127 16.5862L19.7246 18.794C22.0412 19.415 22.455 20.3529 22.0331 21.6947C20.9592 24.9271 16.3778 24.7267 15.5122 24.6884C9.47161 24.4238 10.3925 21.0451 10.8331 19.7369H0.435647C0.149712 20.5533 -0.109766 21.7791 0.0476166 23.0796C0.151069 24.0286 0.490257 25.0377 1.26801 25.9847C3.67116 29.0493 9.70565 29.8932 13.5239 30.0621C22.7369 30.4644 30.6641 27.8309 32.7049 21.4813C34.6794 15.4485 29.2398 14.01 24.6553 12.8107V12.8107Z"/></g><defs><clipPath id="clip0"><rect width="200" height="37.311" fill="#fff"/></clipPath></defs></svg>