<svg xmlns="http://www.w3.org/2000/svg" width="200" height="56" fill="none" viewBox="0 0 200 56"><path fill="#EEE" d="M15.8876 31.5799C14.3295 30.7324 12.315 30.3868 10.6982 30.1L10.0137 29.9826C8.31215 29.7023 6.70187 29.435 5.50883 28.8874C4.19845 28.2876 3.59215 27.4401 3.59215 26.208C3.59215 23.0591 6.96265 22.4007 9.79203 22.4007C11.7087 22.4007 13.6058 22.8179 15.2683 23.6002C15.3335 23.6328 15.3726 23.698 15.3726 23.7762V26.208C15.3726 26.7425 15.8094 27.1793 16.3505 27.1793C16.8785 27.1793 17.3023 26.7686 17.3219 26.2406L17.4197 23.0852C17.4327 22.7201 17.2306 22.3681 16.9111 22.1986C14.7467 21.0381 12.3607 20.4318 10.0072 20.4318H9.79855C4.52442 20.4318 1.50597 22.5376 1.50597 26.2145C1.50597 30.7128 6.46066 31.4821 9.7464 31.9906C11.9239 32.31 13.5015 32.6295 14.6685 33.2032C15.9724 33.8486 16.5787 34.7678 16.5787 36.0913C16.5787 40.0289 11.0372 40.231 9.92894 40.231C7.89491 40.231 5.4306 39.5856 3.49436 38.549C3.46536 38.5316 3.44159 38.5066 3.42554 38.4768C3.40948 38.447 3.40173 38.4134 3.40309 38.3795V35.8435C3.40309 35.2633 2.90762 34.82 2.29481 34.8787C1.79934 34.9243 1.42773 35.3611 1.42773 35.8631V39.1553C1.42773 39.5139 1.62331 39.8464 1.94276 40.0159C4.58961 41.4306 6.63668 42.1999 9.84419 42.1999C10.9329 42.1999 13.0387 42.0825 14.9293 41.2872C17.3349 40.2767 18.5671 38.5425 18.5931 36.1304C18.6127 34.0703 17.7326 32.5839 15.8876 31.5799V31.5799ZM43.7903 20.836H37.0168C36.4561 20.836 36.0063 21.3119 36.0389 21.8856C36.0649 22.3941 36.5408 22.8049 37.0493 22.8049H39.1029C39.1486 22.8049 39.1942 22.8179 39.2268 22.8505C39.292 22.9092 39.3116 22.9939 39.279 23.0656L34.911 33.803L33.053 38.6077C33.0074 38.7185 32.9031 38.7316 32.877 38.7316C32.7922 38.7316 32.7336 38.6859 32.701 38.6142L30.8169 33.9203L26.1816 23.0787C26.1556 23.02 26.1621 22.9548 26.2012 22.8961C26.2403 22.844 26.2925 22.8114 26.3577 22.8114H28.4699C29.0306 22.8114 29.4804 22.3355 29.4478 21.7618C29.4217 21.2533 28.9458 20.8425 28.4373 20.8425H21.4616C20.901 20.8425 20.4511 21.3185 20.4837 21.8922C20.5098 22.4007 20.9857 22.8114 21.4942 22.8114H23.7825C23.8607 22.8114 23.9259 22.857 23.9585 22.9287L31.8208 41.2415C31.8404 41.2872 31.8404 41.3458 31.8208 41.3915L29.0827 47.7478C28.4047 49.2668 27.4268 50.0687 26.2533 50.0687C25.5427 50.0687 24.7669 49.7884 23.952 49.2407C23.8021 49.1364 23.6195 49.0843 23.424 49.0843C23.0915 49.0843 22.7785 49.2473 22.6025 49.5146L22.5438 49.6058C22.4004 49.8275 22.3548 50.0883 22.4069 50.3425C22.4656 50.5968 22.6156 50.8119 22.8307 50.9553C23.9781 51.705 25.1255 52.0832 26.2273 52.0832C28.3265 52.0832 30.0606 50.7337 30.9864 48.3802L41.6259 22.9222C41.6585 22.8505 41.7237 22.8049 41.8019 22.8049H43.8295C44.3901 22.8049 44.8399 22.329 44.8074 21.7553C44.7682 21.2533 44.2988 20.836 43.7903 20.836V20.836ZM60.7993 31.5799C59.2411 30.7324 57.2267 30.3868 55.6099 30.1L54.9254 29.9826C53.2238 29.7023 51.6135 29.435 50.4205 28.8874C49.1101 28.2876 48.5038 27.4401 48.5038 26.208C48.5038 23.0591 51.8743 22.4007 54.7037 22.4007C56.6269 22.4007 58.5175 22.8179 60.1799 23.6002C60.2451 23.6328 60.2842 23.698 60.2842 23.7762V26.208C60.2842 26.7817 60.7927 27.2445 61.3925 27.1663C61.8424 27.1076 62.2205 26.6578 62.2335 26.2014L62.3248 23.0787C62.3378 22.7136 62.1357 22.3616 61.8163 22.192C59.6519 21.0316 57.2658 20.4253 54.9123 20.4253H54.7037C49.4296 20.4253 46.4111 22.5311 46.4111 26.208C46.4111 30.7063 51.3658 31.4756 54.6515 31.9841C56.829 32.3035 58.4067 32.623 59.5736 33.1967C60.8775 33.8421 61.4838 34.7613 61.4838 36.0847C61.4838 40.0224 55.9424 40.2245 54.8341 40.2245C52.8 40.2245 50.3357 39.5791 48.3995 38.5425C48.3705 38.525 48.3467 38.5001 48.3307 38.4703C48.3146 38.4404 48.3069 38.4069 48.3082 38.373V35.837C48.3082 35.2568 47.8128 34.8135 47.1999 34.8721C46.7045 34.9178 46.3329 35.3546 46.3329 35.8566V39.1488C46.3329 39.5074 46.5285 39.8399 46.8479 40.0094C49.4947 41.4241 51.5418 42.1933 54.7493 42.1933C55.8381 42.1933 57.9438 42.076 59.8344 41.2806C62.24 40.2701 63.4722 38.536 63.4983 36.1239C63.5243 34.0703 62.6442 32.5839 60.7993 31.5799V31.5799ZM79.0729 39.4226C78.9426 39.4226 78.8187 39.4487 78.7013 39.5009C77.6191 39.9703 76.4326 40.2701 75.6764 40.2701C72.5927 40.2701 72.0321 38.6534 72.0321 35.4719V22.6549L72.0386 22.6484H78.3558C78.9034 22.6484 79.3468 22.1595 79.2685 21.5858C79.2099 21.149 78.7665 20.7969 78.3297 20.7969H72.0386L72.0321 20.7904V15.3728C72.0321 14.936 71.68 14.584 71.2498 14.584C71.2237 14.584 71.1911 14.584 71.165 14.5905L70.7282 14.6361C70.324 14.6753 70.0176 15.0143 70.0176 15.4185V20.7904L70.0111 20.7969H66.4906C65.943 20.7969 65.4997 21.2859 65.5779 21.8596C65.6366 22.2964 66.0799 22.6484 66.5167 22.6484H70.0046L70.0111 22.6549V35.4719C70.0111 36.9192 70.1219 38.7511 70.989 40.0941C71.8886 41.4893 73.4468 42.1803 75.7546 42.1999C76.8173 42.1999 78.2059 41.8609 79.4641 41.2872C79.6532 41.2024 79.8162 41.0655 79.9139 40.8895C80.09 40.5896 80.09 40.2375 79.9335 39.9377C79.777 39.6247 79.438 39.4226 79.0729 39.4226ZM91.7596 20.5492C85.6901 20.5492 81.283 25.1127 81.283 31.3973C81.283 38.7381 86.7332 42.0825 91.7987 42.0825C95.2604 42.0825 98.5983 40.6874 100.515 38.4447C100.691 38.2361 100.776 37.9688 100.743 37.695C100.711 37.4212 100.567 37.18 100.332 37.0105C100.17 36.8914 99.9734 36.8275 99.7718 36.8279C99.485 36.8279 99.2177 36.9453 99.0417 37.1539C97.5096 38.9206 94.602 40.1072 91.7987 40.1072C85.9965 40.1072 83.5908 35.7066 83.2975 31.945C83.291 31.8211 83.2779 31.4495 83.2779 31.3191C83.2779 31.2083 83.2975 30.8562 83.2975 30.8497C83.6365 25.7972 86.9548 22.5245 91.7596 22.5245C94.452 22.5245 96.5774 23.2025 98.0703 24.539C99.5632 25.8755 100.339 27.7856 100.385 30.2239C100.385 30.2825 100.365 30.3347 100.326 30.3738C100.287 30.4129 100.241 30.4325 100.189 30.4325H86.7788C86.2312 30.4325 85.7879 30.9019 85.8205 31.4625C85.8465 31.958 86.3159 32.3687 86.8114 32.3687H101.343C101.851 32.3687 102.282 31.971 102.308 31.4691C102.516 28.242 101.708 25.6277 99.8957 23.698C98.0116 21.664 95.117 20.5492 91.7596 20.5492V20.5492ZM134.083 20.7252C133.268 20.5231 132.434 20.4253 131.606 20.4253C128.105 20.4253 125.191 22.1986 123.809 25.1779C122.557 22.2246 119.584 20.4644 115.835 20.4644C112.973 20.4644 110.633 21.5858 109.238 23.6263V21.6053C109.238 21.1816 108.892 20.836 108.469 20.836H104.238C103.644 20.836 103.175 21.3641 103.253 21.9769C103.318 22.4463 103.794 22.8309 104.264 22.8309H107.152V41.3719C107.152 41.7957 107.497 42.1412 107.921 42.1412H108.469C108.892 42.1412 109.238 41.7957 109.238 41.3719V29.3503C109.238 25.393 111.891 22.6223 115.835 22.4593C119.936 22.4593 122.805 25.2953 122.805 29.3503V41.1568C122.805 41.75 123.333 42.2194 123.945 42.1412C124.415 42.076 124.8 41.6001 124.8 41.1307V29.3503C124.8 25.2692 127.596 22.4202 131.606 22.4202C135.7 22.4202 138.451 25.1388 138.451 29.1808V41.3784C138.451 41.8022 138.797 42.1477 139.22 42.1477H139.768C140.192 42.1477 140.537 41.8022 140.537 41.3784V29.083C140.531 24.8389 138.119 21.7096 134.083 20.7252V20.7252ZM172.241 25.8624C170.572 30.2695 170.656 34.5136 172.501 38.1514C172.821 38.7772 173.186 39.39 173.597 39.9637C175.716 42.9561 178.884 44.938 182.515 45.5508C182.887 45.616 183.265 45.6616 183.63 45.6942C184.034 45.7333 184.451 45.7464 184.862 45.7464C187.718 45.7464 190.462 44.8923 192.796 43.2756C195.808 41.1894 197.796 38.0666 198.396 34.494C198.996 30.9214 198.135 27.3228 195.978 24.363C193.826 21.4162 190.638 19.4605 187 18.8476C186.792 18.815 186.583 18.7824 186.381 18.7564C185.873 18.6977 185.351 18.8607 184.973 19.1997C184.601 19.5322 184.386 19.995 184.373 20.4905C184.358 20.9395 184.512 21.3777 184.804 21.7191C185.096 22.0605 185.505 22.2804 185.951 22.3355C186.101 22.355 186.257 22.3746 186.407 22.4007C189.093 22.8505 191.447 24.2978 193.044 26.4622C194.648 28.6397 195.287 31.2735 194.843 33.8942C194.426 36.3651 193.076 38.5621 191.036 40.0876C189.243 41.4306 187.111 42.1347 184.862 42.1347C184.556 42.1347 184.243 42.1216 183.936 42.0956C182.475 41.9739 181.058 41.5353 179.783 40.8102C178.509 40.0851 177.408 39.091 176.556 37.8971C175.675 36.6574 175.097 35.2284 174.868 33.7247C174.418 30.765 175.311 27.0033 177.248 23.6589C177.261 23.6328 177.58 23.0591 178.095 22.1334C180.396 17.9675 187.353 5.39174 187.952 4.27693L188.128 3.74235C188.402 2.92091 188.05 2.02125 187.287 1.60401L187.248 1.58445C186.981 1.43451 186.681 1.36279 186.381 1.36279C185.84 1.36279 185.338 1.59749 184.993 2.01473L184.66 2.41892L174.183 21.5597C173.518 22.8961 172.814 24.3565 172.241 25.8624V25.8624ZM149.606 54.1433L149.651 54.1694C149.925 54.3193 150.231 54.391 150.538 54.391C151.235 54.391 151.868 54.0129 152.2 53.4001L170.35 19.7343C170.8 18.8998 170.552 17.8632 169.789 17.3156L169.763 17.296C169.503 17.0874 168.988 16.9375 168.557 16.9375H144.781C143.895 16.9375 143.158 17.6611 143.132 18.5477V18.6129C143.125 18.9193 143.21 19.2258 143.38 19.493L148.061 27.3749C148.209 27.6106 148.415 27.8044 148.659 27.938C148.903 28.0715 149.177 28.1402 149.456 28.1377C149.769 28.1377 150.081 28.0464 150.355 27.8769C150.746 27.6292 151.02 27.2641 151.125 26.8338C151.235 26.397 151.164 25.9537 150.929 25.5756L147.78 20.2688H165.728L148.836 51.5942C148.602 52.0375 148.549 52.546 148.693 53.0285C148.836 53.5109 149.162 53.9086 149.606 54.1433Z"/><path fill="#fff" d="M195.762 54.3453H173.916C172.86 54.3453 172.006 53.4913 172.006 52.4351V52.396C172.006 51.3399 172.86 50.4858 173.916 50.4858H195.762C196.818 50.4858 197.672 51.3399 197.672 52.396V52.4351C197.672 53.4913 196.818 54.3453 195.762 54.3453Z"/></svg>