<svg xmlns="http://www.w3.org/2000/svg" viewBox="0 0 175 124.759"><clipPath id="a"><path d="M2.736 0h169.588v122.102H2.736z"/></clipPath><g fill="#302e6b"><path d="M120.74 43.309c-.529 1.573-1.012 2.987-1.443 4.24s-.846 2.468-1.244 3.649a34.668 34.668 0 00-.997 3.599c-.264 1.217-.43 2.577-.496 4.079.865-.069 1.615-.712 2.247-1.934.631-1.215 1.048-2.325 1.249-3.327.266-1.433.549-2.88.851-4.349.297-1.464.448-2.987.448-4.562 0-.36-.051-.807-.155-1.345-.099-.534-.254-.553-.46-.05m16.015 2.253c.884 0 1.291.268 1.224.805-.067.536-.101 1.236-.101 2.092 0 .145-.017.379-.053.698-.035.325-.119.771-.255 1.343a83.724 83.724 0 00-.51 2.363c-.203 1.003-.511 2.254-.917 3.758-1.295 5.511-2.688 10.379-4.182 14.6-.75 2.078-1.479 3.849-2.192 5.314-.715 1.469-1.412 2.705-2.089 3.704-1.839 2.721-4.152 4.08-6.94 4.08-3.127 0-5.811-1.718-8.059-5.153-2.038-3.219-3.058-7.122-3.058-11.701 0-3.725.255-7.48.767-11.274.507-3.796 1.173-7.193 1.987-10.199.271-1.073.595-2.183.968-3.329a17.123 17.123 0 011.381-3.167c.54-.968 1.152-1.753 1.833-2.361s1.495-.916 2.448-.916c1.902 0 3.67.752 5.305 2.258.747.788 1.359 1.751 1.835 2.897.473 1.146.712 2.147.712 3.006 0 1.433-.134 3.006-.402 4.724s-.605 3.418-1.01 5.101c-.406 1.68-.86 3.22-1.365 4.615-.503 1.397-1.026 2.524-1.567 3.383-.337.643-.809 1.29-1.414 1.934-.605.643-1.229 1.162-1.87 1.554-.639.396-1.244.612-1.818.646-.574.038-1.061-.23-1.465-.807-.136.576-.169 1.328-.1 2.256.066.931.167 1.842.304 2.736.136.898.308 1.738.511 2.524.205.787.373 1.363.511 1.72.528 1.217 1.224 2.13 2.085 2.735.862.611 1.46.916 1.791.916.679 0 1.382-.631 2.267-1.498 1.1-1.075 2.744-3.831 3.573-6.081 1.295-3.496 1.096-2.766 2.524-6.272 1.427-3.506 2.717-7.266 3.873-11.276.205-.783.39-1.554.562-2.306.172-.75.36-1.521.563-2.309.336-2.073 1.12-3.113 2.343-3.113" clip-path="url(#a)"/><path d="M126.721 71.267c1.635-3.981 4.253-11.963 4.456-12.819.203-.859.511-2.041.92-3.547.884-3.504 1.328-6.333 1.328-8.479 0-.145-.038-.484-.105-1.018-.066-.538-.272-1.307-.611-2.309-.679-1.72-1.021-3.259-1.021-4.619 0-1.504.137-2.717.409-3.649.272-.93.611-1.663 1.02-2.202.409-.538.865-.911 1.377-1.127.511-.213 1.001-.325 1.479-.325.271 0 .611.055 1.018.164.411.105.801.339 1.178.698.373.36.712.877 1.019 1.559.306.679.494 1.554.561 2.626.067.719 0 1.971-.205 3.76-.136 1.001-.205 1.755-.205 2.252v1.181c.069.147.344.396.817.754.475.358 1.462.93 2.957 1.716 3.673 1.864 5.51 4.261 5.51 7.195 0 .143-.019.413-.055.807-.033.392-.064.984-.101 1.768-.033.79-.117 1.862-.253 3.222a738.474 738.474 0 00-.512 5.26 324.522 324.522 0 01-.356 3.758c-.1 1.005-.188 1.826-.255 2.47-.069.643-.12 1.182-.153 1.61-.035.43-.05.859-.05 1.286 0 1.72.169 2.795.511 3.222.34.432.677.647 1.019.647a8.72 8.72 0 00.458-.593c.239-.322.543-.895.92-1.716.373-.82.817-1.936 1.328-3.328a273.821 273.821 0 001.886-5.421c2.308-7.018 3.736-12.42 4.281-16.214.205-1.645.611-2.721 1.226-3.222.611-.499 1.188-.752 1.732-.752.272 0 .729.163 1.378.481.646.325.968 1.236.968 2.74 0 2.505-1.429 8.484-4.281 17.931-1.158 3.578-2.179 6.439-3.062 8.589-.884 2.147-1.681 3.794-2.396 4.938-.713 1.146-1.361 1.897-1.938 2.254-.581.36-1.108.538-1.582.538-2.788 0-5.065-1.646-6.833-4.939-.272-.355-.528-1.072-.763-2.146-.243-1.073-.427-2.936-.563-5.581V53.185c0-.143-.136-.484-.408-1.022-.272-.536-1.019-1.231-2.241-2.093-.409 2.294-3.966 14.062-5.662 18.493m39.458 9.529c0 .45-.172 1.056-.511 1.812-.34.762-.783 1.499-1.337 2.216a9.073 9.073 0 01-1.852 1.81c-.679.492-1.357.737-2.036.737a2.54 2.54 0 01-1.594-.536c-.472-.355-.704-.895-.704-1.608 0-1.789.576-3.356 1.724-4.696 1.146-1.346 2.442-2.016 3.888-2.016.424 0 .935.159 1.529.472.596.311.893.917.893 1.809M30.274 24.114c.952.146 1.429.683 1.429 1.611v.754c0 .358-.103.677-.307.966-.203.287-.647.572-1.326.857-.682.287-2.211.643-4.59 1.072-1.565.36-2.855.576-3.876.643-1.02.073-1.903.111-2.651.111l-3.162.213c-.137 1.003-.291 2.596-.459 4.776a296.027 296.027 0 01-.766 8.106 323.778 323.778 0 00-.612 6.657c-.137 1.72-.255 3.08-.356 4.079a90.792 90.792 0 00-.204 2.147c-.036.43-.051.717-.051.861 0 3.433.016 6.208.051 8.321.032 2.111.083 3.561.153 4.349.203 2.291.491 3.793.866 4.51.373.714.628 1.072.766 1.072.27-.145.542-.392.816-.752.27-.356.594-.858.969-1.502.372-.643.831-1.575 1.377-2.792.747-1.934 1.545-4.383 2.396-7.355.849-2.97 1.715-6.424 2.6-10.36.203-.93.407-1.72.614-2.363.203-.643.371-1.215.51-1.716.135-.358.356-.821.663-1.397.307-.572.798-.859 1.478-.859.611 0 1.191.234 1.733.697.544.469.817 1.307.817 2.524 0 1.362-.307 3.418-.918 6.175-.611 2.755-1.597 6.278-2.958 10.574-1.769 5.512-3.486 9.571-5.15 12.186-1.667 2.614-3.417 3.917-5.254 3.917-2.583 0-4.659-2.073-6.22-6.226-1.362-3.722-2.04-8.339-2.04-13.849 0-1.789.218-5.226.662-10.308.44-5.082 1.138-12.168 2.09-21.26-.612.146-1.191.128-1.734-.052-.544-.176-.917-.339-1.122-.486-.135-.067-.305-.213-.51-.427-.204-.216-.575-.429-1.12-.645-.955-.356-1.549-.802-1.787-1.341-.239-.538-.356-.982-.356-1.343 0-.213.117-.591.356-1.125.238-.538 1.036-.949 2.397-1.236.409-.071.749-.124 1.019-.161l.815-.107c.273-.038.595-.071.97-.107.374-.038.867-.09 1.478-.163.069-.786.137-1.753.207-2.899.066-1.142.135-2.465.203-3.972l-.51-1.825c0-.429.035-.752.101-.965.544-1.144 1.394-1.718 2.552-1.718 1.224 0 2.957.752 5.201 2.254.409.36.612.79.612 1.286v2.792a94.402 94.402 0 01-.458 2.417c-.172.823-.358 1.734-.562 2.738h.868c.101 0 .187.017.254.054.068.036.237.069.51.107.271.036.884.055 1.836.055.882 0 1.582.017 2.09.052.51.038 1.054.073 1.635.107.576.038 1.306.071 2.192.109.882.039 2.142.093 3.773.162" clip-path="url(#a)"/><path d="M31.905 43.547a818.514 818.514 0 01-1.444 4.242 442.01 442.01 0 00-1.243 3.649 33.576 33.576 0 00-.998 3.599c-.264 1.217-.431 2.577-.496 4.079.865-.069 1.613-.712 2.246-1.934.634-1.217 1.047-2.325 1.249-3.326.266-1.433.55-2.88.85-4.349.3-1.464.45-2.987.45-4.562 0-.36-.051-.807-.154-1.345-.101-.535-.254-.553-.46-.053m16.013 2.256c.884 0 1.291.269 1.224.805-.068.536-.103 1.234-.103 2.093 0 .145-.017.377-.049.697-.037.325-.12.771-.255 1.343a74.481 74.481 0 00-.51 2.361c-.204 1.005-.511 2.256-.918 3.758-1.292 5.514-2.686 10.382-4.182 14.603-.749 2.078-1.478 3.848-2.192 5.314-.714 1.469-1.412 2.702-2.089 3.703-1.838 2.722-4.149 4.079-6.937 4.079-3.127 0-5.813-1.716-8.058-5.151-2.039-3.22-3.061-7.122-3.061-11.701 0-3.725.256-7.48.766-11.274.511-3.795 1.173-7.193 1.989-10.201a50.17 50.17 0 01.969-3.329 17.27 17.27 0 011.377-3.166c.542-.968 1.156-1.753 1.836-2.363.678-.605 1.496-.913 2.448-.913 1.903 0 3.672.752 5.303 2.256.748.788 1.36 1.753 1.836 2.899.473 1.146.714 2.147.714 3.004 0 1.433-.135 3.008-.403 4.724a64.417 64.417 0 01-1.013 5.101 43.482 43.482 0 01-1.362 4.617c-.507 1.397-1.031 2.522-1.569 3.383-.338.645-.811 1.288-1.413 1.931a9.245 9.245 0 01-1.871 1.557c-.641.394-1.247.609-1.819.646-.575.037-1.059-.23-1.465-.807-.135.576-.168 1.328-.101 2.254.067.932.17 1.844.307 2.737.135.899.305 1.737.508 2.524.204.788.374 1.362.511 1.718.53 1.22 1.224 2.131 2.087 2.738.86.611 1.456.913 1.789.913.68 0 1.343-.538 1.988-1.61a369.184 369.184 0 012.499-4.079c1.154-1.934 2.448-4.652 3.876-8.161 1.429-3.505 2.718-7.265 3.873-11.274.207-.786.393-1.555.564-2.309.168-.748.356-1.519.561-2.309.339-2.074 1.122-3.111 2.345-3.111" clip-path="url(#a)"/><path d="M57.608 52.783c.135-1.219.236-2.076.305-2.579.069-.5.103-1.037.103-1.609 0-1.789-.221-2.847-.656-3.171-.436-.318-.79-.479-1.058-.479h-.457c-.236 0-.573.213-1.011.643-.436.429-.94 1.163-1.511 2.202-.572 1.039-1.194 2.629-1.865 4.776-1.883 5.798-2.828 11.131-2.828 15.998 0 1.789.035 3.276.102 4.456.066 1.179.152 2.13.25 2.845.102.716.219 1.235.354 1.556.135.323.271.558.403.698.472.287.974-.104 1.515-1.182.538-1.072 1.343-3.182 2.419-6.333h.102a83.551 83.551 0 003.329-11.596c.067-.643.133-1.466.202-2.468.066-1.001.165-2.218.302-3.651zm19.889-6.98c.27 0 .391.178.356.539-.033.356-.051 1.286-.051 2.788 0 2.65-1.463 8.625-4.384 17.931-1.158 3.58-2.178 6.441-3.061 8.589-.884 2.147-1.682 3.776-2.396 4.885-.714 1.11-1.362 1.844-1.938 2.199-.577.36-1.105.539-1.582.539-3.331 0-5.575-2.543-6.73-7.623-1.224 2.792-2.245 4.724-3.062 5.796-1.36 2.078-2.956 3.113-4.792 3.113-.815 0-1.785-.267-2.906-.805-1.122-.536-2.161-1.663-3.111-3.381-1.431-2.432-2.143-5.583-2.143-9.447 0-3.146.237-6.318.712-9.504.479-3.182 1.293-6.779 2.45-10.789 2.718-9.376 5.982-14.066 9.79-14.066 1.362 0 2.788.681 4.286 2.041.135.073.219.146.256.216.031.071.117.145.254.213.408-3.649.933-8.211 1.58-13.687a1230.03 1230.03 0 012.297-18.199c-.07-.572-.052-1.431.048-2.577.104-1.144.628-1.932 1.582-2.361l.306-.107h2.345c.884 0 1.547.197 1.99.589.442.396.833.913 1.172 1.556.475.79.647 2.005.51 3.653l-.101.104c-.614 3.367-1.242 6.785-1.887 10.254-.646 3.473-1.345 7.248-2.092 11.326-.069.574-.324 2.631-.763 6.175a6165.85 6165.85 0 00-1.889 15.298c-1.222 9.808-1.836 16.14-1.836 19.001.069 2.294.221 3.92.459 4.888.238.965.424 1.594.562 1.879.339-.358.831-1.27 1.478-2.738.646-1.466 1.717-3.988 3.213-7.568a243.437 243.437 0 003.366-8.591 122.51 122.51 0 002.753-8.266c.067-.285.17-.643.307-1.073.135-.429.305-.863.508-1.292a3.22 3.22 0 01.818-1.072c.339-.281.782-.426 1.326-.426" clip-path="url(#a)"/><path d="M78.922 38.61c-1.768 0-3.162-.714-4.181-2.149-1.087-1.357-1.632-2.753-1.632-4.186 0-1.217.545-2.398 1.632-3.544 1.223-1.146 2.313-1.718 3.265-1.718 1.631 0 2.888.503 3.774 1.504.881 1.003 1.325 2.434 1.325 4.294 0 1.289-.152 2.325-.459 3.115-.307.785-.7 1.376-1.173 1.768-.477.398-.953.645-1.427.754-.476.108-.851.162-1.124.162m6.326 39.187c-1.769 4.009-3.944 6.012-6.529 6.012-.884 0-1.851-.249-2.904-.752-1.058-.501-2.059-1.573-3.011-3.22a17.948 17.948 0 01-1.427-4.028c-.341-1.467-.511-3.13-.511-4.992 0-1.575.307-5.867.918-12.883.338-3.438.577-6.211.714-8.32.135-2.109.203-3.525.203-4.24v-1.611c0-.358.102-.605.307-.752.205-.143.561-.178 1.071-.109a38.32 38.32 0 012.293.434c1.904.356 3.112.821 3.623 1.393.508.574.764 1.074.764 1.504 0 .214-.049.536-.153.966a51.29 51.29 0 01-.356 1.395 50.9 50.9 0 00-.358 1.397c-.101.43-.152.717-.152.859-.137.572-.324 1.611-.561 3.111-.24 1.504-.529 3.08-.868 4.726-.408 2.292-.698 4.384-.866 6.282a68.061 68.061 0 00-.256 6.062c0 .36.017.859.051 1.506.035.644.103 1.306.205 1.984.103.681.272 1.273.51 1.771.238.501.561.788.968.861.137-.073.41-.413.817-1.021.407-.607.95-1.843 1.632-3.705.135-.43.611-1.611 1.428-3.542.816-1.932 1.733-4.615 2.753-8.053.341-1.144.78-2.539 1.326-4.188.544-1.644 1.121-3.611 1.732-5.905.068-.283.169-.658.308-1.125.134-.463.306-.913.511-1.343a3.07 3.07 0 01.817-1.072c.339-.285.779-.43 1.324-.43.205 0 .46.162.764.484.309.321.459 1.234.459 2.738 0 .358-.033.838-.101 1.448-.069.609-.24 1.54-.511 2.79a112.41 112.41 0 01-1.173 4.778 293.037 293.037 0 01-2.091 7.41 455.702 455.702 0 01-2.296 7.568c-.576 1.824-1.035 3.096-1.374 3.812" clip-path="url(#a)"/><path d="M99.833 71.674c1.562-5.939 2.346-12.167 2.346-18.677 0-3.08-.155-5.137-.459-6.176-.306-1.037-.525-1.627-.662-1.77-.138.071-.308.25-.511.539-.203.285-.496.786-.865 1.5-.377.716-.8 1.682-1.277 2.901-.476 1.217-1.019 2.792-1.632 4.724-1.156 3.506-2.023 6.783-2.6 9.822-.578 3.046-.905 5.852-.97 8.43.681.856 1.493 2.076 2.448 3.649.272.5.509.789.712.858.206.071.34.109.409.109.27 0 .681-.411 1.226-1.236.544-.821 1.156-2.38 1.835-4.673m.406-32.637c.955 0 1.921.164 2.907.484.986.323 1.871.914 2.654 1.771.781.861 1.427 2.061 1.938 3.599.509 1.542.763 3.525.763 5.958 0 3.796-.239 7.5-.712 11.115a77.105 77.105 0 01-2.144 10.574c-2.177 8.091-4.963 12.131-8.36 12.131-2.044 0-3.811-1.504-5.306-4.512-.609.649-1.291.968-2.043.968-1.018 0-1.97-.644-2.854-1.93-.749-1.219-1.122-2.364-1.122-3.438 0-.498.103-.966.307-1.393-.205-11.454.51-24.373 2.14-38.762.544-4.577 1.072-8.909 1.581-12.988.509-4.083 1.003-8.09 1.481-12.026.134-1.646.203-2.757.203-3.329v-.965l-.203-.645.306-.537c.203-.429.578-.84 1.122-1.236.541-.394 1.324-.591 2.343-.591h.716c1.224 0 2.195.375 2.905 1.129.715.748 1.071 1.843 1.071 3.274 0 .285-.051.735-.151 1.343-.101.605-.324 1.628-.664 3.059a63.624 63.624 0 00-.814 3.649 71.974 71.974 0 00-.512 3.006 383.404 383.404 0 00-2.346 14.228 517.427 517.427 0 00-1.529 11.433c.406-.784.884-1.611 1.429-2.468 1.291-1.933 2.925-2.901 4.894-2.901" clip-path="url(#a)"/></g><path fill="none" stroke="#302e6b" stroke-linecap="round" stroke-miterlimit="10" stroke-width="1.073" d="M137.057 119.631l8.398-16.385m8.404 16.385l-8.404-16.385m-8.398 16.385l-8.404-16.385m-8.396 16.385l8.396-16.385m-25.201 16.385l8.404-16.385m8.401 16.385l-8.4-16.385m-8.405 16.385l-8.399-16.385m-8.402 16.385l8.401-16.385m-25.203 16.385l8.402-16.385m8.4 16.385l-8.4-16.385m-8.402 16.385l-8.4-16.385m-8.402 16.385l8.402-16.385m-25.204 16.385l8.404-16.385m8.398 16.385l-8.398-16.385m-8.404 16.385l-8.398-16.385m-8.403 16.385l8.402-16.385" clip-path="url(#a)"/></svg>