<svg xmlns="http://www.w3.org/2000/svg" width="463" height="57" fill="none" viewBox="0 0 463 57"><path fill="#004777" d="M107.9 19.9V16.21H81.55V20.41H100.19L80 39.97V43.94H108.39V39.74H87.71L107.9 19.9Z"/><path fill="#004777" d="M119.22 31.63H136.69V27.67H119.22V20.41H138.09V16.21H113.15V43.94H138.44V39.74H119.22V31.63Z"/><path fill="#004777" d="M165.81 36.63H165.71L149.89 16.21H143.48V43.94H149.26V23.55H149.41L165.18 43.94H171.58V16.21H165.81V36.63Z"/><path fill="#004777" d="M188.72 16.22L174.72 43.94H178.27L182.46 35.35H198.23L202.45 43.97H205.99L192.41 16.25L188.72 16.22ZM183.48 33.0699L190.42 18.86L197.11 33.0699H183.48Z"/><path fill="#004777" d="M228.81 30.58V30.5C233.27 29.8 235.55 26.93 235.55 23.44C235.55 18.44 230.75 16.22 225.02 16.22H209.15V43.94H212.45V31.63H224.97C231.23 31.44 231.62 35.74 231.97 39.63C232.06 40.8 232.06 42.86 232.89 43.95H236.52C235.07 42.55 235.07 38.74 234.92 36.84C234.63 33.53 233.32 31.05 228.81 30.58ZM224.81 29.38H212.45V18.47H224.78C229.78 18.47 232.25 20.61 232.25 23.98C232.25 27.35 228.81 29.35 224.78 29.35L224.81 29.38Z"/><path fill="#004777" d="M256.23 42.2599C247.06 42.2599 243.18 36.14 243.18 30.08C243.18 24.02 247.06 17.88 256.23 17.88C261.28 17.88 265.7 20.33 266.86 24.6H270.16C269.29 18.78 262.78 15.6 256.23 15.6C245.31 15.6 239.88 22.48 239.88 30.05C239.88 37.62 245.31 44.49 256.23 44.49C264.34 44.49 269.72 40.14 270.65 33.35H267.34C266.71 38.35 262.64 42.2599 256.23 42.2599Z"/><path fill="#004777" d="M299.58 28.25H279V16.21H275.7V43.94H279V30.5H299.58V43.94H302.88V16.21H299.58V28.25Z"/><path fill="#004777" d="M313.41 16.21H310.11V43.93H313.41V16.21Z"/><path fill="#004777" d="M316.91 18.47H328.99V43.94H332.29V18.47H344.38V16.21H316.91V18.47Z"/><path fill="#004777" d="M350.93 30.73H370.25V28.48H350.93V18.47H371.56V16.21H347.63V43.94H371.8V41.68H350.93V30.73Z"/><path fill="#004777" d="M391.12 42.2599C381.95 42.2599 378.06 36.14 378.06 30.08C378.06 24.02 381.95 17.88 391.12 17.88C396.12 17.88 400.58 20.33 401.75 24.6H405.05C404.17 18.78 397.67 15.6 391.12 15.6C380.2 15.6 374.76 22.48 374.76 30.05C374.76 37.62 380.2 44.49 391.12 44.49C399.22 44.49 404.61 40.14 405.53 33.35H402.23C401.56 38.35 397.56 42.2599 391.12 42.2599Z"/><path fill="#004777" d="M406.85 18.47H418.93V43.94H422.23V18.47H434.32V16.21H406.85V18.47Z"/><path fill="#004777" d="M453.93 29.35L445.48 27.6801C442.67 27.1401 440.24 26.05 440.24 23.45C440.24 19.33 444.41 17.9301 448.93 17.9301C453.83 17.9301 458.19 20.07 458.39 24.3H461.69C461.74 18.63 455.69 15.6801 448.88 15.6801C439.12 15.6801 436.94 20.7701 436.94 23.4901C436.94 27.8001 440.68 29.35 444.75 30.17L452.47 31.6801C455.67 32.3001 459.6 33.5401 459.6 36.6801C459.6 40.6801 454.07 42.3 450.43 42.3C444.12 42.3 438.98 40.56 439.12 34.85H435.82C435.44 41.61 441.45 44.5601 449.65 44.5601C461.93 44.5601 462.9 38.56 462.9 36.64C462.9 32.06 458.83 30.35 453.93 29.35Z"/><path fill="#004777" d="M107.9 19.9V16.21H81.55V20.41H100.19L80 39.97V43.94H108.39V39.74H87.71L107.9 19.9Z"/><path fill="#004777" d="M119.22 31.63H136.69V27.67H119.22V20.41H138.09V16.21H113.15V43.94H138.44V39.74H119.22V31.63Z"/><path fill="#004777" d="M165.81 36.63H165.71L149.89 16.21H143.48V43.94H149.26V23.55H149.41L165.18 43.94H171.58V16.21H165.81V36.63Z"/><path fill="#004777" d="M188.72 16.22L174.72 43.94H178.27L182.46 35.35H198.23L202.45 43.97H205.99L192.41 16.25L188.72 16.22ZM183.48 33.0699L190.42 18.86L197.11 33.0699H183.48Z"/><path fill="#004777" d="M228.81 30.58V30.5C233.27 29.8 235.55 26.93 235.55 23.44C235.55 18.44 230.75 16.22 225.02 16.22H209.15V43.94H212.45V31.63H224.97C231.23 31.44 231.62 35.74 231.97 39.63C232.06 40.8 232.06 42.86 232.89 43.95H236.52C235.07 42.55 235.07 38.74 234.92 36.84C234.63 33.53 233.32 31.05 228.81 30.58ZM224.81 29.38H212.45V18.47H224.78C229.78 18.47 232.25 20.61 232.25 23.98C232.25 27.35 228.81 29.35 224.78 29.35L224.81 29.38Z"/><path fill="#004777" d="M256.23 42.2599C247.06 42.2599 243.18 36.14 243.18 30.08C243.18 24.02 247.06 17.88 256.23 17.88C261.28 17.88 265.7 20.33 266.86 24.6H270.16C269.29 18.78 262.78 15.6 256.23 15.6C245.31 15.6 239.88 22.48 239.88 30.05C239.88 37.62 245.31 44.49 256.23 44.49C264.34 44.49 269.72 40.14 270.65 33.35H267.34C266.71 38.35 262.64 42.2599 256.23 42.2599Z"/><path fill="#004777" d="M299.58 28.25H279V16.21H275.7V43.94H279V30.5H299.58V43.94H302.88V16.21H299.58V28.25Z"/><path fill="#004777" d="M313.41 16.21H310.11V43.93H313.41V16.21Z"/><path fill="#004777" d="M316.91 18.47H328.99V43.94H332.29V18.47H344.38V16.21H316.91V18.47Z"/><path fill="#004777" d="M350.93 30.73H370.25V28.48H350.93V18.47H371.56V16.21H347.63V43.94H371.8V41.68H350.93V30.73Z"/><path fill="#004777" d="M391.12 42.2599C381.95 42.2599 378.06 36.14 378.06 30.08C378.06 24.02 381.95 17.88 391.12 17.88C396.12 17.88 400.58 20.33 401.75 24.6H405.05C404.17 18.78 397.67 15.6 391.12 15.6C380.2 15.6 374.76 22.48 374.76 30.05C374.76 37.62 380.2 44.49 391.12 44.49C399.22 44.49 404.61 40.14 405.53 33.35H402.23C401.56 38.35 397.56 42.2599 391.12 42.2599Z"/><path fill="#004777" d="M406.85 18.47H418.93V43.94H422.23V18.47H434.32V16.21H406.85V18.47Z"/><path fill="#004777" d="M453.93 29.35L445.48 27.6801C442.67 27.1401 440.24 26.05 440.24 23.45C440.24 19.33 444.41 17.9301 448.93 17.9301C453.83 17.9301 458.19 20.07 458.39 24.3H461.69C461.74 18.63 455.69 15.6801 448.88 15.6801C439.12 15.6801 436.94 20.7701 436.94 23.4901C436.94 27.8001 440.68 29.35 444.75 30.17L452.47 31.6801C455.67 32.3001 459.6 33.5401 459.6 36.6801C459.6 40.6801 454.07 42.3 450.43 42.3C444.12 42.3 438.98 40.56 439.12 34.85H435.82C435.44 41.61 441.45 44.5601 449.65 44.5601C461.93 44.5601 462.9 38.56 462.9 36.64C462.9 32.06 458.83 30.35 453.93 29.35Z"/><path fill="#0098D4" d="M28.8981 36.9267L41.5889 37.3086L35.613 25.6959L28.8981 36.9267Z"/><path fill="#004777" d="M1.27801 57L49.1999 44.966L15.5432 45.1552L38.6438 2.92372L37.9119 0L5.45832 16.6855L23.6432 12.1197L0 51.9129L1.27801 57Z"/><path fill="#004777" d="M31.3434 51.1811L65.864 54.1512L38.6688 15.9823L55.7398 48.6429L31.3434 51.1811Z"/></svg>