<svg width="120" height="120" viewBox="0 0 120 120" fill="none" xmlns="http://www.w3.org/2000/svg">
<path d="M18.5114 35.2831L19.5086 41.9289C19.7257 42.6541 20.6974 48.8475 20.7533 49.1886L23.7257 46.3201L18.5939 34.7918C18.5123 34.9371 18.4833 35.1098 18.5114 35.2831Z" fill="#00DC82"/>
<path d="M19.3731 34.4455C19.0513 34.3809 18.7402 34.5179 18.5886 34.7911L23.5671 46.4363L26.2592 43.8379L33.1227 37.2135L19.3731 34.4455Z" fill="#33E39B"/>
<path d="M34.5149 51.953L27.9284 50.7016C27.2138 50.4566 21.0772 49.2478 20.7393 49.1789L23.7115 46.3102L35.0077 51.889C34.8598 51.9652 34.6866 51.9877 34.5149 51.953Z" fill="#00DC82"/>
<path d="M35.3424 51.0717C35.3946 51.3965 35.2462 51.7029 34.9682 51.8445L23.5501 46.4146L26.2422 43.8162L33.1058 37.1918L35.3424 51.0717Z" fill="#33E39B"/>
<path opacity="0.75" d="M33.1245 37.2138L34.0553 42.9402L21.3393 41.1737L19.8458 37.7801L26.2695 35.8339L33.1245 37.2138Z" fill="#99F1CD"/>
<path d="M69.6662 33.9652L75.0929 30.0117C75.6351 29.4841 80.6728 25.762 80.9492 25.5549L77.0362 24.2385L69.193 34.1187C69.3593 34.1241 69.5257 34.0702 69.6662 33.9652Z" fill="#00DC82"/>
<path d="M68.5283 33.581C68.6196 33.8967 68.8845 34.1098 69.1965 34.1184L77.2141 24.3204L73.6697 23.1282L64.6335 20.0887L68.5283 33.581Z" fill="#33E39B"/>
<path d="M77.0512 12.0485L78.983 18.4773C79.0958 19.2253 80.8576 25.2347 80.9526 25.5668L77.0394 24.2505L76.767 11.6403C76.9029 11.7365 77.0028 11.88 77.0512 12.0485Z" fill="#00DC82"/>
<path d="M75.89 11.7235C76.1537 11.5272 76.4936 11.5176 76.7473 11.6993L77.2078 24.349L73.6635 23.1568L64.6272 20.1173L75.89 11.7235Z" fill="#33E39B"/>
<path opacity="0.75" d="M64.6317 20.0892L69.2746 16.619L73.5793 28.7308L71.2626 31.6241L66.5736 26.8159L64.6317 20.0892Z" fill="#99F1CD"/>
<path d="M58.7291 30.6817L58.526 27.816C58.4576 27.4996 58.2502 24.8275 58.2378 24.6802L56.8752 25.8033L58.6775 30.8883C58.7172 30.8291 58.7353 30.7565 58.7291 30.6817Z" fill="#00DC82"/>
<path d="M58.33 31.0092C58.465 31.0475 58.6022 30.9996 58.6759 30.8882L56.9428 25.7585L55.7087 26.7757L52.5624 29.3693L58.33 31.0092Z" fill="#33E39B"/>
<path d="M52.464 23.041L55.2294 23.7948C55.5258 23.9232 58.1008 24.6437 58.2425 24.6844L56.88 25.8076L52.2519 23.0518C52.3174 23.0242 52.392 23.0204 52.464 23.041Z" fill="#00DC82"/>
<path d="M52.0853 23.3888C52.0739 23.2486 52.1474 23.123 52.2706 23.072L56.9556 25.7684L55.7215 26.7856L52.5752 29.3792L52.0853 23.3888Z" fill="#33E39B"/>
<path opacity="0.75" d="M52.5659 29.3693L52.3603 26.8976L57.7208 28.0762L58.2441 29.5725L55.4414 30.1869L52.5659 29.3693Z" fill="#99F1CD"/>
<path d="M87.8822 69.85L91.4397 68.8769C91.8209 68.7116 95.1336 67.7816 95.3159 67.7291L93.5612 66.2893L87.6092 69.8365C87.6936 69.8717 87.7896 69.8765 87.8822 69.85Z" fill="#00DC82"/>
<path d="M87.3709 69.4299C87.3564 69.61 87.4511 69.7711 87.6097 69.8364L93.6353 66.3655L92.0459 65.0616L87.9938 61.7371L87.3709 69.4299Z" fill="#33E39B"/>
<path d="M95.9374 60.0271L95.6796 63.7075C95.5921 64.1138 95.3286 67.5455 95.3128 67.7346L93.558 66.2949L95.8707 59.7619C95.9218 59.8379 95.9452 59.9311 95.9374 60.0271Z" fill="#00DC82"/>
<path d="M95.4049 59.6339C95.5786 59.5844 95.7551 59.6458 95.8501 59.7886L93.6264 66.3786L92.037 65.0747L87.9848 61.7502L95.4049 59.6339Z" fill="#33E39B"/>
<path opacity="0.75" d="M87.9945 61.7377L91.0553 60.8601L90.9116 67.9235L89.1584 68.9584L87.684 65.573L87.9945 61.7377Z" fill="#99F1CD"/>
<path d="M72.5758 86.592C72.5758 84.0239 73.7539 81.6337 75.3534 79.6245C79.5229 74.3871 81.9475 66.9542 81.9475 59.2826C81.9475 44.9998 73.5435 36.7583 61.1214 36.7583C48.6994 36.7583 39.8789 44.9998 39.8789 59.2826C39.8789 66.9043 42.3907 74.2905 46.6212 79.5222C48.2588 81.5474 49.4589 83.9701 49.4589 86.5746C49.4589 87.7425 50.4057 88.6893 51.5736 88.6893H70.4785C71.6368 88.6893 72.5758 87.7503 72.5758 86.592Z" fill="#204D58"/>
<path d="M49.457 94.2349C49.457 93.1303 50.3525 92.2349 51.457 92.2349H70.7822C71.8867 92.2349 72.7822 93.1303 72.7822 94.2349V99.8772C72.7822 100.782 72.1744 101.574 71.3003 101.809L61.3313 104.483C61.1926 104.52 61.0466 104.52 60.9079 104.483L50.9389 101.809C50.0648 101.574 49.457 100.782 49.457 99.8772V94.2349Z" fill="#336977"/>
<mask id="mask0" mask-type="alpha" maskUnits="userSpaceOnUse" x="39" y="36" width="43" height="53">
<path d="M72.5758 86.592C72.5758 84.0239 73.7539 81.6337 75.3534 79.6245C79.5229 74.3871 81.9475 66.9542 81.9475 59.2826C81.9475 44.9998 73.5435 36.7583 61.1214 36.7583C48.6994 36.7583 39.8789 44.9998 39.8789 59.2826C39.8789 66.9043 42.3907 74.2905 46.6212 79.5222C48.2588 81.5474 49.4589 83.9701 49.4589 86.5746C49.4589 87.7425 50.4057 88.6893 51.5736 88.6893H70.4785C71.6368 88.6893 72.5758 87.7503 72.5758 86.592Z" fill="#003543"/>
</mask>
<g mask="url(#mask0)">
<path d="M76.4064 77.5122L60.6562 35.1475L69.618 36.3695L84.5532 42.4798L88.7628 73.0313L76.4064 77.5122Z" fill="url(#paint0_linear)"/>
<path d="M83.582 74.1135C71.3962 79.2875 46.8729 89.7373 46.2617 90.1445C56.1575 89.7204 76.3053 88.9061 77.7303 89.0418C79.1553 89.1775 82.2252 79.1462 83.582 74.1135Z" fill="url(#paint1_linear)"/>
<path d="M50.6471 35.9687L58.5983 34.3623L70.9097 35.9687L77.1344 43.2202C77.1344 43.2202 45.8284 76.7443 44.9055 77.2328L31.1289 73.4791L34.904 52.1938L50.6471 35.9687Z" fill="url(#paint2_linear)"/>
<path d="M40.6715 34.6418L61.312 36.5921L45.0594 77.3842L32.8711 64.0577L40.6715 34.6418Z" fill="url(#paint3_linear)"/>
</g>
<mask id="mask1" mask-type="alpha" maskUnits="userSpaceOnUse" x="49" y="92" width="24" height="13">
<path d="M49.457 94.2349C49.457 93.1303 50.3525 92.2349 51.457 92.2349H70.7822C71.8867 92.2349 72.7822 93.1303 72.7822 94.2349V99.8772C72.7822 100.782 72.1744 101.574 71.3003 101.809L61.3313 104.483C61.1926 104.52 61.0466 104.52 60.9079 104.483L50.9389 101.809C50.0648 101.574 49.457 100.782 49.457 99.8772V94.2349Z" fill="#003543"/>
</mask>
<g mask="url(#mask1)">
<path d="M61.6344 104.632L49.6519 90.7571L46.4219 103.976L61.6344 104.632Z" fill="url(#paint4_linear)"/>
<path d="M76.8313 90.6125C68.4011 94.9594 51.304 103.732 50.3555 104.048C51.6728 104.399 54.4917 105.102 55.2294 105.102H74.8559L76.8313 90.6125Z" fill="url(#paint5_linear)"/>
</g>
<defs>
<linearGradient id="paint0_linear" x1="77.5837" y1="67.3317" x2="70.9096" y2="98.1501" gradientUnits="userSpaceOnUse">
<stop stop-color="#255561"/>
<stop offset="1" stop-color="#255561" stop-opacity="0"/>
</linearGradient>
<linearGradient id="paint1_linear" x1="64.9219" y1="79.6417" x2="64.9219" y2="90.1445" gradientUnits="userSpaceOnUse">
<stop stop-color="#71A2B0"/>
<stop offset="0.921892" stop-color="#71A2B0" stop-opacity="0"/>
</linearGradient>
<linearGradient id="paint2_linear" x1="58.3174" y1="33.4788" x2="58.3174" y2="77.2328" gradientUnits="userSpaceOnUse">
<stop stop-color="#497A87"/>
<stop offset="1" stop-color="#497A87" stop-opacity="0"/>
</linearGradient>
<linearGradient id="paint3_linear" x1="47.0915" y1="46.9932" x2="47.0915" y2="77.3842" gradientUnits="userSpaceOnUse">
<stop stop-color="#71A2B0"/>
<stop offset="1" stop-color="#71A2B0" stop-opacity="0"/>
</linearGradient>
<linearGradient id="paint4_linear" x1="54.0282" y1="94.7939" x2="58.1394" y2="104.632" gradientUnits="userSpaceOnUse">
<stop stop-color="#71A2B0"/>
<stop offset="1" stop-color="#71A2B0" stop-opacity="0"/>
</linearGradient>
<linearGradient id="paint5_linear" x1="63.5934" y1="93.247" x2="63.5934" y2="105.102" gradientUnits="userSpaceOnUse">
<stop stop-color="#497A87"/>
<stop offset="1" stop-color="#497A87" stop-opacity="0"/>
</linearGradient>
</defs>
</svg>
