<svg width="120" height="120" viewBox="0 0 120 120" fill="none" xmlns="http://www.w3.org/2000/svg">
<path d="M54.4067 83.6135C46.4343 82.4334 38.9499 81.8767 38.9499 81.8767L33.5781 90.5736L54.4067 83.6135Z" fill="#003543"/>
<path d="M23.616 82.2597L13.3353 90.215C12.8862 90.5624 12.8073 91.2097 13.1598 91.6549L27.9247 110.304C28.2717 110.742 28.9067 110.819 29.3487 110.477L39.6294 102.522C40.0785 102.175 40.1573 101.527 39.8049 101.082L25.04 82.4332C24.693 81.995 24.058 81.9176 23.616 82.2597Z" fill="#003543"/>
<path d="M64.0526 58.3042L56.1172 44.6118L61.2155 43.8942L64.0526 58.3042Z" fill="#009A5B"/>
<path d="M65.8598 25.7044L56.1494 44.7462L61.5246 44.6698L69.3101 34.6346L65.8598 25.7044Z" fill="#00BB6F"/>
<path d="M78.2826 65.95L64.0502 58.3046L61.358 44.5653L69.1145 34.3959L82.3428 39.3132L85.8611 50.4777L78.2826 65.95Z" fill="#00DC82"/>
<path opacity="0.65" d="M70.1515 61.5797L75.1448 36.7026L81.759 39.1613L85.8627 50.4762L78.2843 65.9485L70.1515 61.5797Z" fill="#80EEC0"/>
<path d="M69.1192 34.3952L65.8008 25.4355L87.3777 36.3605L82.2155 39.3419L69.1192 34.3952Z" fill="#40E5A1"/>
<path d="M85.8569 50.5368L81.7892 39.2955L87.376 36.3598L85.8569 50.5368Z" fill="#80EEC0"/>
<path d="M98.8253 48.5627L101.562 45.6001L100.33 45.1294L98.8253 48.5627Z" fill="#009A5B"/>
<path d="M100.177 40.3255L101.547 45.6321L100.21 45.3056L98.8224 42.3564L100.177 40.3255Z" fill="#00BB6F"/>
<path d="M94.8523 49.6563L98.8263 48.5627L100.258 45.2886L98.8848 42.3076L95.3123 42.7779L93.817 45.3623L94.8523 49.6563Z" fill="#00DC82"/>
<path opacity="0.65" d="M97.1222 49.0315L97.252 42.5388L95.4657 42.7739L93.8161 45.3624L94.8514 49.6564L97.1222 49.0315Z" fill="#80EEC0"/>
<path d="M98.8836 42.3075L100.207 40.2617L94.2192 41.7535L95.3423 42.7927L98.8836 42.3075Z" fill="#40E5A1"/>
<path d="M93.8474 45.2986L95.4531 42.8055L94.2215 41.7535L93.8474 45.2986Z" fill="#80EEC0"/>
<path d="M52.8287 26.1827L57.1914 21.4607L55.2271 20.7105L52.8287 26.1827Z" fill="#009A5B"/>
<path d="M54.9798 13.0536L57.1632 21.5117L55.0323 20.9913L52.8205 16.2906L54.9798 13.0536Z" fill="#00BB6F"/>
<path d="M46.4931 27.9256L52.8272 26.1825L55.1089 20.9639L52.9205 16.2124L47.2262 16.9621L44.8429 21.0814L46.4931 27.9256Z" fill="#00DC82"/>
<path opacity="0.65" d="M50.113 26.9298L50.3198 16.581L47.4727 16.9558L44.8433 21.0816L46.4935 27.9258L50.113 26.9298Z" fill="#80EEC0"/>
<path d="M52.9179 16.2126L55.0273 12.9519L45.4833 15.3297L47.2735 16.986L52.9179 16.2126Z" fill="#40E5A1"/>
<path d="M44.8871 20.98L47.4464 17.0063L45.4833 15.3295L44.8871 20.98Z" fill="#80EEC0"/>
<path d="M48.5394 67.511C41.165 65.0786 30.9581 74.4944 26.2912 80.046C25.9895 80.4048 25.9837 80.9219 26.2665 81.2957L40.6201 100.273C40.9839 100.754 41.6834 100.816 42.1262 100.406L44.1437 98.5412C49.8322 94.0707 62.2436 94.8596 70.0007 94.3337C77.7578 93.8078 83.9635 88.0225 91.4621 83.0261C98.9606 78.0297 105.425 71.4555 101.288 68.5629C98.076 66.3172 88.923 72.3095 84.3672 75.8702C84.112 76.0697 83.9722 76.3825 83.9782 76.7064C84.0963 83.0653 81.6885 83.8112 76.7236 84.9992C72.3279 86.0511 59.9165 84.7792 54.2279 83.815C59.9165 83.4644 72.2859 82.8512 76.2064 82.5001C80.6021 82.1066 85.2564 72.5074 72.5864 73.2963C59.9165 74.0852 58.1065 70.6666 48.5394 67.511Z" fill="#376A77"/>
<path d="M72.6188 73.2957C59.9488 74.0846 58.1388 70.666 48.5717 67.5104C48.3434 67.4351 48.1124 67.3712 47.8789 67.3181L65.5331 82.8722C65.7314 83.0469 65.9874 83.138 66.2513 83.1254C67.7334 83.0548 72.9082 82.7978 76.2388 82.4996C80.6345 82.1061 85.2888 72.5068 72.6188 73.2957Z" fill="url(#paint0_linear)"/>
<path d="M70.5147 94.2815L77.1082 84.8982C76.5782 85.069 75.1239 85.3936 72.4862 85.3936C69.3779 85.3936 65.394 85.23 61.8231 84.804L52.7031 95.3687C57.266 94.6226 68.2026 94.5482 70.5147 94.2815Z" fill="url(#paint1_linear)"/>
<path d="M23.616 82.2597L13.3353 90.215C12.8862 90.5624 12.8073 91.2097 13.1598 91.6549L27.9247 110.304C28.2717 110.742 28.9067 110.819 29.3487 110.477L39.6294 102.522C40.0785 102.175 40.1573 101.527 39.8049 101.082L25.04 82.4332C24.693 81.995 24.058 81.9176 23.616 82.2597Z" fill="#29545F"/>
<path d="M23.618 82.2592L13.1953 90.3205L39.8948 101.185L25.0416 82.4328C24.6947 81.9948 24.06 81.9174 23.618 82.2592Z" fill="url(#paint2_linear)"/>
<path d="M64.0526 58.3042L56.1172 44.6118L61.2155 43.8942L64.0526 58.3042Z" fill="#009A5B"/>
<path d="M65.8598 25.7044L56.1494 44.7462L61.5246 44.6698L69.3101 34.6346L65.8598 25.7044Z" fill="#00BB6F"/>
<path d="M78.2826 65.95L64.0502 58.3046L61.358 44.5653L69.1145 34.3959L82.3428 39.3132L85.8611 50.4777L78.2826 65.95Z" fill="#00DC82"/>
<path opacity="0.65" d="M70.1515 61.5797L75.1448 36.7026L81.759 39.1613L85.8627 50.4762L78.2843 65.9485L70.1515 61.5797Z" fill="#80EEC0"/>
<path d="M69.1192 34.3952L65.8008 25.4355L87.3777 36.3605L82.2155 39.3419L69.1192 34.3952Z" fill="#40E5A1"/>
<path d="M85.8569 50.5368L81.7892 39.2955L87.376 36.3598L85.8569 50.5368Z" fill="#80EEC0"/>
<path d="M98.8253 48.5627L101.562 45.6001L100.33 45.1294L98.8253 48.5627Z" fill="#009A5B"/>
<path d="M100.177 40.3255L101.547 45.6321L100.21 45.3056L98.8224 42.3564L100.177 40.3255Z" fill="#00BB6F"/>
<path d="M94.8523 49.6563L98.8263 48.5627L100.258 45.2886L98.8848 42.3076L95.3123 42.7779L93.817 45.3623L94.8523 49.6563Z" fill="#00DC82"/>
<path opacity="0.65" d="M97.1222 49.0315L97.252 42.5388L95.4657 42.7739L93.8161 45.3624L94.8514 49.6564L97.1222 49.0315Z" fill="#80EEC0"/>
<path d="M98.8836 42.3075L100.207 40.2617L94.2192 41.7535L95.3423 42.7927L98.8836 42.3075Z" fill="#40E5A1"/>
<path d="M93.8474 45.2986L95.4531 42.8055L94.2215 41.7535L93.8474 45.2986Z" fill="#80EEC0"/>
<path d="M52.8287 26.1827L57.1914 21.4607L55.2271 20.7105L52.8287 26.1827Z" fill="#009A5B"/>
<path d="M54.9798 13.0536L57.1632 21.5117L55.0323 20.9913L52.8205 16.2906L54.9798 13.0536Z" fill="#00BB6F"/>
<path d="M46.4931 27.9256L52.8272 26.1825L55.1089 20.9639L52.9205 16.2124L47.2262 16.9621L44.8429 21.0814L46.4931 27.9256Z" fill="#00DC82"/>
<path opacity="0.65" d="M50.113 26.9298L50.3198 16.581L47.4727 16.9558L44.8433 21.0816L46.4935 27.9258L50.113 26.9298Z" fill="#80EEC0"/>
<path d="M52.9179 16.2126L55.0273 12.9519L45.4833 15.3297L47.2735 16.986L52.9179 16.2126Z" fill="#40E5A1"/>
<path d="M44.8871 20.98L47.4464 17.0063L45.4833 15.3295L44.8871 20.98Z" fill="#80EEC0"/>
<path d="M47.8777 67.2662C43.1378 74.9587 33.4835 90.7665 33.4835 90.7665L26.224 81.2735C25.9352 80.8959 25.9432 80.373 26.2544 80.0137C27.8277 78.1973 32.6638 72.8238 36.9075 70.3069C42.0593 67.2514 45.3809 66.6196 47.8777 67.2662Z" fill="url(#paint3_linear)"/>
<path opacity="0.63" d="M102.592 71.03C96.5732 72.767 84.4177 76.4748 83.9844 76.5471C83.9856 75.8845 84.7892 75.3702 87.1718 73.7848C88.0079 73.2284 88.8932 72.6048 90.33 71.7302C93.2208 69.9706 95.5585 68.7739 98.0824 68.2219C101.646 67.4427 102.698 69.7765 102.592 71.03Z" fill="url(#paint4_linear)"/>
<defs>
<linearGradient id="paint0_linear" x1="55.82" y1="61.9958" x2="72.8205" y2="91.3951" gradientUnits="userSpaceOnUse">
<stop offset="0.512294" stop-color="#497A87"/>
<stop offset="1" stop-color="#497A87" stop-opacity="0"/>
</linearGradient>
<linearGradient id="paint1_linear" x1="64.9057" y1="85.5989" x2="64.9057" y2="96.0101" gradientUnits="userSpaceOnUse">
<stop stop-color="#71A2B0"/>
<stop offset="0.989113" stop-color="#71A2B0" stop-opacity="0"/>
</linearGradient>
<linearGradient id="paint2_linear" x1="26.5451" y1="85.7329" x2="25.4815" y2="101.185" gradientUnits="userSpaceOnUse">
<stop stop-color="#497A87"/>
<stop offset="1" stop-color="#497A87" stop-opacity="0"/>
</linearGradient>
<linearGradient id="paint3_linear" x1="40.5511" y1="73.1194" x2="39.7117" y2="96.7089" gradientUnits="userSpaceOnUse">
<stop stop-color="#255461"/>
<stop offset="1" stop-color="#255461" stop-opacity="0"/>
</linearGradient>
<linearGradient id="paint4_linear" x1="93.2916" y1="68.0662" x2="93.2916" y2="76.5471" gradientUnits="userSpaceOnUse">
<stop stop-color="#255461"/>
<stop offset="1" stop-color="#255461" stop-opacity="0"/>
</linearGradient>
</defs>
</svg>
