<svg xmlns="http://www.w3.org/2000/svg" width="120" height="120" fill="none" viewBox="0 0 120 120"><rect width="15.513" height="5.207" x="50.289" y="86.335" fill="#295C69" rx="1.558"/><mask id="mask0" width="16" height="6" x="50" y="86" mask-type="alpha" maskUnits="userSpaceOnUse"><rect width="15.513" height="5.207" x="50.289" y="86.335" fill="#003543" rx="1.558"/></mask><g mask="url(#mask0)"><path fill="url(#paint0_linear)" d="M49.6523 92.2272H52.1782L66.9207 91.8523L56.2878 89.8301L49.6523 85.0029V92.2272Z"/></g><rect width="35.731" height="5.207" x="40.246" y="92.754" fill="#265D6B" rx="1.558"/><rect width="83.031" height="53.42" x="16.527" y="31.703" fill="#003543" rx="1.558"/><path fill="#FEFEFE" d="M28.5859 58.5007C28.5859 57.87 28.7973 57.3818 29.22 57.036L35.2787 51.8791C35.3883 51.7978 35.5214 51.7571 35.6779 51.7571C36.0067 51.7571 36.312 51.9402 36.5938 52.3063C36.8756 52.6725 37.0165 53.1099 37.0165 53.6184C37.0165 54.0863 36.8912 54.422 36.6407 54.6254L32.1084 58.5007L36.6407 62.3454C36.8912 62.5488 37.0165 62.8947 37.0165 63.3829C37.0165 63.8914 36.8756 64.3288 36.5938 64.695C36.312 65.0611 36.0067 65.2442 35.6779 65.2442C35.5057 65.2442 35.3726 65.1934 35.2787 65.0917L29.22 59.9653C28.7973 59.5992 28.5859 59.1109 28.5859 58.5007Z"/><path fill="#FEFEFE" d="M87.0547 58.3259C87.0547 57.6952 86.8433 57.207 86.4206 56.8612L80.3619 51.7043C80.2523 51.623 80.1193 51.5823 79.9627 51.5823C79.6339 51.5823 79.3287 51.7654 79.0469 52.1315C78.7651 52.4977 78.6242 52.9351 78.6242 53.4436C78.6242 53.9115 78.7494 54.2472 78.9999 54.4506L83.5322 58.3259L78.9999 62.1706C78.7494 62.374 78.6242 62.7199 78.6242 63.2081C78.6242 63.7166 78.7651 64.154 79.0469 64.5202C79.3287 64.8863 79.6339 65.0694 79.9627 65.0694C80.1349 65.0694 80.268 65.0186 80.3619 64.9169L86.4206 59.7905C86.8433 59.4244 87.0547 58.9361 87.0547 58.3259Z"/><path fill="url(#paint1_linear)" fill-rule="evenodd" d="M99.5773 55.7164V36.1803V32.756C99.2899 31.5195 97.9537 31.6982 97.9537 31.6982L91.5799 31.6982H17.7344L99.5773 55.7164Z" clip-rule="evenodd"/><path fill="url(#paint2_linear)" d="M35.3489 36.8057C35.3489 36.8057 16.6147 83.5527 16.5244 84.0038C16.5244 84.0038 16.5234 49.6457 16.5234 33.3926C16.5234 32.5624 16.6378 31.7209 17.7517 31.698L35.3489 36.8057Z"/><path fill="url(#paint3_linear)" d="M59.0386 85.1234H40.8711L99.5584 66.4275V83.8726C99.4547 84.6894 98.9202 85.0346 98.3931 85.1234H59.0386Z"/><mask id="mask1" width="36" height="6" x="40" y="92" mask-type="alpha" maskUnits="userSpaceOnUse"><rect width="35.731" height="5.207" x="40.246" y="92.754" fill="#003543" rx="1.558"/></mask><g mask="url(#mask1)"><path fill="url(#paint4_linear)" d="M76.7098 92.7476H74.6943L55.918 98.0665L76.7098 98.7309V92.7476Z"/></g><path fill="#009A5B" d="M103.092 90.6201L107.457 85.9214L105.492 85.1749L103.092 90.6201Z"/><path fill="#00BB6F" d="M105.254 77.5565L107.439 85.9729L105.307 85.4551L103.094 80.7775L105.254 77.5565Z"/><path fill="#00DC82" d="M96.7526 92.354L103.091 90.6196L105.374 85.4266L103.184 80.6986L97.4862 81.4446L95.1015 85.5436L96.7526 92.354Z"/><path fill="#80EEC0" d="M100.38 91.3628L100.587 81.0652L97.7383 81.4381L95.1073 85.5436L96.7585 92.354L100.38 91.3628Z" opacity=".65"/><path fill="#40E5A1" d="M103.19 80.6985L105.301 77.4539L95.751 79.8199L97.5423 81.468L103.19 80.6985Z"/><path fill="#80EEC0" d="M95.151 85.4425L97.7119 81.4884L95.7476 79.8199L95.151 85.4425Z"/><path fill="#009A5B" d="M23.4419 33.873L22.5352 27.8865L20.988 28.7373L23.4419 33.873Z"/><path fill="#00BB6F" d="M15.6562 23.9937L22.5591 27.9376L21.0802 29.0487L16.7167 27.5338L15.6562 23.9937Z"/><path fill="#00DC82" d="M21.2868 39.2876L23.446 33.8748L21.1028 28.9808L16.7172 27.4175L14.2204 31.7593L15.7626 36.0172L21.2868 39.2876Z"/><path fill="#80EEC0" d="M22.519 36.1939L15.5927 29.4168L14.3443 31.5877L15.7609 36.0166L21.2851 39.2869L22.519 36.1939Z" opacity=".65"/><path fill="#40E5A1" d="M16.7202 27.4177L15.6172 23.8962L12.1946 31.8927L14.2659 31.741L16.7202 27.4177Z"/><path fill="#80EEC0" d="M15.7174 35.9199L14.3672 31.636L12.1908 31.8918L15.7174 35.9199Z"/><path fill="url(#paint5_linear)" d="M99.5595 66.4375L62.7891 78.1621L99.5595 54.2959V66.4375Z"/><path fill="url(#paint6_linear)" d="M16.5235 79.3279L16.5235 83.7247L16.5235 83.8993C16.5235 83.8993 16.5335 84.3835 16.8608 84.7085C17.3195 85.1639 17.7978 85.1264 17.7978 85.1264L17.871 85.1264L41.319 85.1263L16.5235 79.3279Z"/><path fill="#00DC82" d="M49.2905 70.4012L56.2721 68.433L55.0008 67.4799L49.0602 70.2692C49.0695 70.3006 49.2251 70.4152 49.2905 70.4012Z"/><path fill="#00DC82" d="M65.7353 54.6679L56.275 68.4342L55.02 67.4934L63.6171 52.4163C63.6286 52.4914 65.7353 54.6679 65.7353 54.6679Z"/><path fill="#00DC82" d="M66.2998 47.1747L59.2673 49.8033L59.8338 50.4408L66.5257 47.3176C66.5173 47.2856 66.3651 47.1635 66.2998 47.1747Z"/><path fill="#33E39B" d="M65.727 54.6643C65.727 54.6643 66.6072 47.3966 66.5275 47.3154L59.5323 50.0228L60.5629 53.0758L63.7118 56.8998L65.727 54.6643Z"/><path fill="#00DC82" fill-rule="evenodd" d="M59.2726 49.7962L51.2626 60.479C51.2622 60.4803 51.2617 60.4824 51.2613 60.4852L49.2688 63.143L49.0636 70.2638L51.0328 69.296L52.613 68.5086L56.7492 54.9665L59.5573 50.1054L59.2726 49.7962Z" clip-rule="evenodd"/><path fill="#33E39B" d="M61.8232 49.7253C61.9457 49.6993 63.5993 52.2795 63.6202 52.4206L62.3726 54.7187L63.7884 56.8255L55.2233 67.6468L49.0621 70.2707L50.0621 63.7775L59.5437 50.0133L60.1536 51.4168L60.1541 51.4177L61.8232 49.7253Z"/><path fill="#33E39B" d="M61.6864 55.0145L60.6581 52.648L58.0389 52.5937L57.063 54.243L59.0791 55.4559L61.6864 55.0145Z" opacity=".75"/><path fill="#99F1CD" d="M63.7902 56.828L55.2141 67.6117L62.7011 48.7984L64.3554 48.1632L65.7341 54.6413L63.7902 56.828Z" opacity=".75"/><path fill="url(#paint7_linear)" d="M52.9163 92.7483L40.2508 96.2701L40.2344 94.0843C40.2344 93.6558 40.3068 93.4563 40.5602 93.1786C40.9335 92.7695 41.5088 92.7483 41.5088 92.7483H52.9163Z"/><defs><linearGradient id="paint0_linear" x1="55.702" x2="54.747" y1="88.944" y2="92.227" gradientUnits="userSpaceOnUse"><stop stop-color="#497A87"/><stop offset="1" stop-color="#497A87" stop-opacity="0"/></linearGradient><linearGradient id="paint1_linear" x1="54.686" x2="53.464" y1="24.928" y2="56.92" gradientUnits="userSpaceOnUse"><stop stop-color="#497A87"/><stop offset="1" stop-color="#497A87" stop-opacity="0"/></linearGradient><linearGradient id="paint2_linear" x1="26.266" x2="24.333" y1="46.821" y2="81.512" gradientUnits="userSpaceOnUse"><stop offset=".36" stop-color="#255461"/><stop offset="1" stop-color="#255461" stop-opacity="0"/></linearGradient><linearGradient id="paint3_linear" x1="92.025" x2="57.189" y1="56.532" y2="104.694" gradientUnits="userSpaceOnUse"><stop stop-color="#71A2B0"/><stop offset="1" stop-color="#71A2B0" stop-opacity="0"/></linearGradient><linearGradient id="paint4_linear" x1="58.948" x2="58.948" y1="92.748" y2="98.731" gradientUnits="userSpaceOnUse"><stop stop-color="#71A2B0"/><stop offset="1" stop-color="#71A2B0" stop-opacity="0"/></linearGradient><linearGradient id="paint5_linear" x1="55.383" x2="55.383" y1="37.001" y2="78.162" gradientUnits="userSpaceOnUse"><stop stop-color="#71A2B0"/><stop offset="1" stop-color="#71A2B0" stop-opacity="0"/></linearGradient><linearGradient id="paint6_linear" x1="28.355" x2="29.591" y1="70.773" y2="95.292" gradientUnits="userSpaceOnUse"><stop stop-color="#71A2B0"/><stop offset="1" stop-color="#71A2B0" stop-opacity="0"/></linearGradient><linearGradient id="paint7_linear" x1="40.987" x2="50.852" y1="92.971" y2="97.355" gradientUnits="userSpaceOnUse"><stop stop-color="#497A87"/><stop offset="1" stop-color="#497A87" stop-opacity="0"/></linearGradient></defs></svg>