<svg width="120" height="120" viewBox="0 0 120 120" fill="none" xmlns="http://www.w3.org/2000/svg">
<g clip-path="url(#clip0)">
<path d="M32.7181 89.8695L20.3211 79.5183L28.3962 90.0049L34.3399 99.1053L32.7181 89.8695Z" fill="#80EEC0"/>
<path d="M29.4317 103.657C29.29 99.6929 29.2187 91.7005 29.1994 91.227L34.3449 99.1071L29.4317 103.657Z" fill="#40E5A1"/>
<path d="M29.4139 103.673L25.9258 93.8999L18.5987 100.225L29.4139 103.673Z" fill="#00BB6F"/>
<path d="M17.2257 87.2732L25.9273 93.8955L18.6023 100.223L17.2257 87.2732Z" fill="#009A5B"/>
<path d="M17.2424 87.2574L20.32 79.5204L28.3874 89.9928L29.199 91.2301L29.4297 103.657L25.9435 93.8824L17.2424 87.2574Z" fill="#20D98C"/>
<path d="M17.2341 87.2657L28.3633 89.9853L20.3154 79.5302L17.2341 87.2657Z" fill="#20CF86"/>
<path d="M29.3284 12.779L33.08 16.0162C33.3144 16.2397 35.4434 17.8079 35.5604 17.8952L34.0784 18.4897L29.028 12.7405C29.0532 12.7251 29.2689 12.7347 29.3284 12.779Z" fill="#00DC82"/>
<path d="M28.5398 13.8865C28.5627 13.7499 28.9189 12.7466 29.041 12.7407L34.155 18.4543L31.5309 19.7942L26.3503 20.3274L28.5398 13.8865Z" fill="#33E39B"/>
<path d="M36.9551 29.7552L35.5672 17.8902L34.0852 18.4845L34.8658 32.1241C34.9151 32.0817 36.943 29.8282 36.9551 29.7552Z" fill="#00DC82"/>
<path d="M31.6854 32.9009C31.7969 32.9836 34.7734 32.2038 34.8656 32.1238L34.1415 18.4425L32.7992 18.981L26.3429 20.3246L31.6854 32.9009Z" fill="#33E39B"/>
<path opacity="0.75" d="M29.396 20.3782L31.6592 19.4703L34.3045 20.9276L34.4182 22.5243L31.7704 22.1416L29.396 20.3782Z" fill="#33E39B"/>
<path opacity="0.75" d="M26.3482 20.3268L30.2534 29.5065L31.7622 15.7914L30.5514 14.4317L27.206 17.8038L26.3482 20.3268Z" fill="#99F1CD"/>
<path d="M5.85139 13.094L14.5768 13.4384C15.1453 13.4891 19.8003 13.315 20.0573 13.307L18.6769 15.7448L5.39633 13.3697C5.41395 13.3211 5.72096 13.0983 5.85139 13.094Z" fill="#00DC82"/>
<path d="M5.95928 15.4914C5.84008 15.2785 5.22283 13.5105 5.38407 13.3689L18.7128 15.6255L16.5853 20.3366L10.0557 26.7355L5.95928 15.4914Z" fill="#33E39B"/>
<path d="M35.0349 28.0863L20.0404 13.3025L18.6596 15.74L34.7773 33.6263C34.7984 33.514 35.0987 28.1998 35.0349 28.0863Z" fill="#00DC82"/>
<path d="M31.2775 38.1641C31.5219 38.1558 34.7514 33.8287 34.7898 33.6179L18.7039 15.6127L17.4536 17.8207L10.065 26.7284L31.2775 38.1641Z" fill="#33E39B"/>
<path opacity="0.75" d="M14.307 23.4733L16.4152 19.7503L21.6571 18.8593L23.5745 20.9286L19.5145 23.2989L14.307 23.4733Z" fill="#33E39B"/>
<path opacity="0.75" d="M10.0604 26.7339L25.5514 35.0749L12.4961 14.5809L9.33259 14.037L8.45589 22.3291L10.0604 26.7339Z" fill="#99F1CD"/>
<path d="M88.1106 25.6093L101.455 13.3173L92.9665 25.5059L86.7937 36.0206L88.1106 25.6093Z" fill="#80EEC0"/>
<path d="M92.5501 40.8161C92.4933 36.3799 92.1383 27.4487 92.1343 26.9187L86.7906 36.0233L92.5501 40.8161Z" fill="#40E5A1"/>
<path d="M92.5562 40.8126L95.9375 29.6907L104.502 36.324L92.5562 40.8126Z" fill="#00BB6F"/>
<path d="M105.341 21.7785L95.9393 29.6877L104.501 36.3233L105.341 21.7785Z" fill="#00BB6F"/>
<path d="M105.329 21.7793L101.455 13.3188L92.9749 25.491L92.1317 26.9209L92.5491 40.8151L95.9282 29.6916L105.329 21.7793Z" fill="#20D98C"/>
<path d="M105.333 21.7781L92.9962 25.4712L101.456 13.3194L105.333 21.7781Z" fill="#20CF86"/>
<path d="M55.2891 51.6419C55.2891 51.0662 55.6317 50.518 56.3171 49.9971C57.0024 49.4762 57.9208 49.2158 59.0721 49.2158C60.3606 49.2158 61.3886 49.5448 62.1562 50.2027C62.9237 50.8606 63.3075 51.6899 63.3075 52.6905C63.3075 53.0332 63.2527 53.369 63.1431 53.6979C63.0471 54.0269 62.9375 54.3079 62.8141 54.5409C62.7044 54.7602 62.5331 55.0138 62.3001 55.3016C62.0808 55.5758 61.9163 55.7677 61.8066 55.8773L61.2721 56.3913L60.8814 56.7203C60.4154 57.0904 60.1276 57.4605 60.0179 57.8305C59.9083 58.2006 59.8534 58.7352 59.8534 59.4342C59.8534 59.9277 59.5108 60.1744 58.8254 60.1744C58.4827 60.1744 58.236 60.0922 58.0852 59.9277C57.9482 59.7632 57.8796 59.4617 57.8796 59.023C57.8796 57.5975 58.2909 56.5147 59.1133 55.7745L59.7095 55.2811C60.0248 55.0069 60.2578 54.7945 60.4086 54.6437C60.573 54.4792 60.7307 54.2462 60.8814 53.9447C61.0459 53.6294 61.1282 53.3073 61.1282 52.9783C61.1282 52.4164 60.9363 51.9846 60.5525 51.683C60.1687 51.3678 59.6547 51.2102 59.0105 51.2102C58.5581 51.2102 58.1812 51.2855 57.8796 51.4363C57.5781 51.5871 57.3725 51.7516 57.2628 51.9298C57.1532 52.0942 57.0161 52.2519 56.8516 52.4026C56.7009 52.5534 56.5227 52.6288 56.3171 52.6288C56.0566 52.6288 55.8168 52.5466 55.5975 52.3821C55.3919 52.2039 55.2891 51.9572 55.2891 51.6419ZM57.4684 63.0528C57.4684 62.669 57.5987 62.3401 57.8591 62.0659C58.1332 61.7918 58.4622 61.6547 58.846 61.6547C59.2298 61.6547 59.5587 61.7918 59.8329 62.0659C60.107 62.3401 60.2441 62.669 60.2441 63.0528C60.2441 63.4229 60.107 63.7519 59.8329 64.0397C59.5587 64.3139 59.2298 64.4509 58.846 64.4509C58.4622 64.4509 58.1332 64.3139 57.8591 64.0397C57.5987 63.7519 57.4684 63.4229 57.4684 63.0528Z" fill="white"/>
<mask id="mask0" mask-type="alpha" maskUnits="userSpaceOnUse" x="35" y="37" width="63" height="56">
<path d="M88.003 88.3037H52.0367C50.775 88.3037 49.7522 87.2809 49.7522 86.0192V79.8437C49.7522 78.582 50.775 77.5592 52.0367 77.5592H83.9875C85.2491 77.5592 86.2719 76.5364 86.2719 75.2748V53.3958C86.2719 52.1341 87.2947 51.1113 88.5564 51.1113H94.7774C96.0391 51.1113 97.0619 52.1341 97.0619 53.3958V89.945C97.0619 91.8254 94.917 92.9006 93.4104 91.7754L89.37 88.7578C88.9752 88.463 88.4957 88.3037 88.003 88.3037Z" fill="#003543"/>
<path d="M80.6697 37.8872H37.929C36.6673 37.8872 35.6445 38.91 35.6445 40.1717V76.721C35.6445 78.6013 37.7894 79.6765 39.296 78.5513L43.3364 75.5337C43.7312 75.2389 44.2107 75.0796 44.7034 75.0796H80.6697C81.9314 75.0796 82.9542 74.0568 82.9542 72.7952V40.1717C82.9542 38.91 81.9314 37.8872 80.6697 37.8872Z" fill="#003543"/>
</mask>
<g mask="url(#mask0)">
<rect x="34.5039" y="37.1677" width="63.6618" height="56.9126" fill="#376A77"/>
<path d="M35.4921 82.0155L31.1953 69.237L84.2922 65.7119V72.9825L80.6569 76.9482H48.6005L35.4921 82.0155Z" fill="url(#paint0_linear)"/>
<path d="M67.1612 97.2742L91.6234 78.7985L95.2341 79.766C94.6237 81.5311 94.0534 85.7639 88.4656 91.0989C81.6002 97.6537 72.8935 98.4334 67.1612 97.2742Z" fill="url(#paint1_linear)"/>
<path d="M66.5077 41.6241L70.737 40.9818L82.9404 45.2637L83.8503 51.7937L78.7318 53.7864L74.8816 51.2975L62.6294 44.8864L66.5077 41.6241Z" fill="url(#paint2_linear)"/>
<path d="M68.5466 42.155L52.7227 44.4992L61.5136 54.4619L68.5466 42.155Z" fill="url(#paint3_linear)"/>
<path d="M21.4844 87.6999L34.0311 55.1521L55.5127 75.1797L21.4844 87.6999Z" fill="url(#paint4_linear)"/>
<path d="M66.3518 89.9235C66.3518 89.9235 86.0218 69.1996 92.013 65.0072L93.1952 79.9819L120.477 29.8848C119.235 31.0719 115.653 34.0324 108.456 38.1876C99.9743 43.0844 88.9091 49.0232 78.6583 53.7699L79.7968 67.1746L66.3518 89.9235Z" fill="url(#paint5_linear)"/>
<path d="M75.8062 35.6946L79.4546 0.465608C78.2696 1.75271 74.7974 4.90313 67.6003 9.05839C59.1189 13.9551 47.9984 19.7982 37.6036 24.2956L28.8672 66.6327C40.177 57.4693 69.9051 40.0432 75.8062 35.6946Z" fill="url(#paint6_linear)"/>
<path d="M70.7361 41.0169L85.318 46.1262C84.4463 44.6092 87.119 42.76 85.318 34.647C83.1956 25.0863 86.4856 25.8572 85.319 14.5914L64.8661 7.59831L70.7361 41.0169Z" fill="url(#paint7_linear)"/>
<path d="M42.9333 79.0175L44.8792 93.3724L70.0642 73.7965L43.9683 77.6414C43.3047 77.7392 42.8432 78.3527 42.9333 79.0175Z" fill="url(#paint8_linear)"/>
<path d="M86.0049 38.7113L31.1974 47.0176L24.8867 35.3641H80.0327L84.7924 35.3641C84.7924 35.3641 85.7903 35.2307 86.0049 36.1541V38.7113Z" fill="url(#paint9_linear)"/>
<path d="M75.392 123.301L101.135 58.682L117.266 58.8441L82.6375 118.823L79.6487 124C79.6487 124 79.1614 125.166 78.0624 124.842L75.392 123.301Z" fill="url(#paint10_linear)"/>
<path opacity="0.5" d="M83.4727 42.155C83.4727 42.155 54.8489 67.2968 53.2375 67.8338L30.6055 80.7572H41.8504L46.7177 76.5613L83.4727 75.0508V42.155Z" fill="url(#paint11_linear)"/>
<path d="M55.2891 52.3155C55.2891 51.7398 55.6317 51.1915 56.3171 50.6707C57.0024 50.1498 57.9208 49.8894 59.0721 49.8894C60.3606 49.8894 61.3886 50.2184 62.1562 50.8763C62.9237 51.5342 63.3075 52.3635 63.3075 53.3641C63.3075 53.7067 63.2527 54.0426 63.1431 54.3715C63.0471 54.7005 62.9375 54.9815 62.8141 55.2145C62.7044 55.4338 62.5331 55.6874 62.3001 55.9752C62.0808 56.2494 61.9163 56.4413 61.8066 56.5509L61.2721 57.0649L60.8814 57.3939C60.4154 57.764 60.1276 58.134 60.0179 58.5041C59.9083 58.8742 59.8534 59.4088 59.8534 60.1078C59.8534 60.6013 59.5108 60.848 58.8254 60.848C58.4827 60.848 58.236 60.7657 58.0852 60.6013C57.9482 60.4368 57.8796 60.1352 57.8796 59.6966C57.8796 58.2711 58.2909 57.1883 59.1133 56.4481L59.7095 55.9547C60.0248 55.6805 60.2578 55.4681 60.4086 55.3173C60.573 55.1528 60.7307 54.9198 60.8814 54.6182C61.0459 54.303 61.1282 53.9809 61.1282 53.6519C61.1282 53.0899 60.9363 52.6582 60.5525 52.3566C60.1687 52.0414 59.6547 51.8837 59.0105 51.8837C58.5581 51.8837 58.1812 51.9591 57.8796 52.1099C57.5781 52.2607 57.3725 52.4252 57.2628 52.6033C57.1532 52.7678 57.0161 52.9255 56.8516 53.0762C56.7009 53.227 56.5227 53.3024 56.3171 53.3024C56.0566 53.3024 55.8168 53.2202 55.5975 53.0557C55.3919 52.8775 55.2891 52.6308 55.2891 52.3155ZM57.4684 63.7264C57.4684 63.3426 57.5987 63.0137 57.8591 62.7395C58.1332 62.4654 58.4622 62.3283 58.846 62.3283C59.2298 62.3283 59.5587 62.4654 59.8329 62.7395C60.107 63.0137 60.2441 63.3426 60.2441 63.7264C60.2441 64.0965 60.107 64.4255 59.8329 64.7133C59.5587 64.9874 59.2298 65.1245 58.846 65.1245C58.4622 65.1245 58.1332 64.9874 57.8591 64.7133C57.5987 64.4255 57.4684 64.0965 57.4684 63.7264Z" fill="white"/>
</g>
</g>
<defs>
<linearGradient id="paint0_linear" x1="57.7438" y1="65.7119" x2="57.7438" y2="82.0155" gradientUnits="userSpaceOnUse">
<stop stop-color="#104250"/>
<stop offset="1" stop-color="#104250" stop-opacity="0"/>
</linearGradient>
<linearGradient id="paint1_linear" x1="78.0689" y1="100.197" x2="84.3265" y2="76.8434" gradientUnits="userSpaceOnUse">
<stop stop-color="#255461"/>
<stop offset="1" stop-color="#255461" stop-opacity="0"/>
</linearGradient>
<linearGradient id="paint2_linear" x1="87.9395" y1="45.9257" x2="64.5859" y2="52.1833" gradientUnits="userSpaceOnUse">
<stop stop-color="#255461"/>
<stop offset="1" stop-color="#255461" stop-opacity="0"/>
</linearGradient>
<linearGradient id="paint3_linear" x1="60.6346" y1="42.155" x2="60.6346" y2="54.4619" gradientUnits="userSpaceOnUse">
<stop stop-color="#00323F"/>
<stop offset="1" stop-color="#05556A" stop-opacity="0"/>
</linearGradient>
<linearGradient id="paint4_linear" x1="37.5163" y1="55.152" x2="37.5163" y2="87.6999" gradientUnits="userSpaceOnUse">
<stop stop-color="#497A87"/>
<stop offset="1" stop-color="#497A87" stop-opacity="0"/>
</linearGradient>
<linearGradient id="paint5_linear" x1="88.0158" y1="50.5532" x2="100.411" y2="72.0229" gradientUnits="userSpaceOnUse">
<stop stop-color="#71A2B0"/>
<stop offset="0.989113" stop-color="#71A2B0" stop-opacity="0"/>
</linearGradient>
<linearGradient id="paint6_linear" x1="47.2298" y1="21.5441" x2="63.1435" y2="49.1076" gradientUnits="userSpaceOnUse">
<stop stop-color="#71A2B0"/>
<stop offset="0.989113" stop-color="#71A2B0" stop-opacity="0"/>
</linearGradient>
<linearGradient id="paint7_linear" x1="92.8184" y1="18.012" x2="61.7473" y2="24.9095" gradientUnits="userSpaceOnUse">
<stop stop-color="#71A2B0"/>
<stop offset="0.989113" stop-color="#71A2B0" stop-opacity="0"/>
</linearGradient>
<linearGradient id="paint8_linear" x1="47.8691" y1="78.0404" x2="62.0893" y2="87.6094" gradientUnits="userSpaceOnUse">
<stop stop-color="#497A87"/>
<stop offset="1" stop-color="#497A87" stop-opacity="0"/>
</linearGradient>
<linearGradient id="paint9_linear" x1="66.047" y1="35.5657" x2="66.047" y2="75.2518" gradientUnits="userSpaceOnUse">
<stop stop-color="#497A87"/>
<stop offset="1" stop-color="#497A87" stop-opacity="0"/>
</linearGradient>
<linearGradient id="paint10_linear" x1="91.2093" y1="103.49" x2="49.7674" y2="79.5636" gradientUnits="userSpaceOnUse">
<stop stop-color="#497A87"/>
<stop offset="1" stop-color="#497A87" stop-opacity="0"/>
</linearGradient>
<linearGradient id="paint11_linear" x1="57.0391" y1="42.155" x2="57.0391" y2="80.7572" gradientUnits="userSpaceOnUse">
<stop stop-color="#00576F"/>
<stop offset="1" stop-color="#003543" stop-opacity="0"/>
</linearGradient>
<clipPath id="clip0">
<rect width="120" height="120" fill="white"/>
</clipPath>
</defs>
</svg>
