<svg width="213" height="64" viewBox="0 0 213 64" fill="none" xmlns="http://www.w3.org/2000/svg">
<path d="M74.4287 21.0732H80.6826L93.9363 42.6495V21.0732H99.7093V51.6459H93.4982L80.2017 30.1144V51.6459H74.4287V21.0732Z" fill="white"/>
<path d="M125.513 51.6457H120.134V48.2307C118.909 50.634 116.417 51.9872 113.268 51.9872C108.282 51.9872 105.044 48.4057 105.044 43.2512V29.6318H110.424V42.1243C110.424 45.138 112.262 47.234 115.017 47.234C118.035 47.234 120.134 44.8755 120.134 41.6441V29.6318H125.513V51.6457Z" fill="white"/>
<path d="M144.235 51.2975L139.074 43.9596L133.912 51.2975H128.182L136.143 39.8104L128.795 29.2837H134.656L139.074 35.6185L143.447 29.2837H149.352L141.959 39.8104L149.921 51.2975H144.235Z" fill="white"/>
<path d="M160.855 22.9937V29.6315H166.978V34.1308H160.855V45.0587C160.855 45.4257 161 45.7777 161.26 46.0375C161.52 46.2972 161.872 46.4434 162.24 46.4439H166.978V51.6368H163.434C158.623 51.6368 155.475 48.8408 155.475 43.9531V34.135H151.145V29.6315H153.861C155.129 29.6315 155.866 28.8781 155.866 27.6316V22.9937H160.855Z" fill="white"/>
<path d="M180.54 44.722V21.0732H186.311V42.9099C186.311 48.8072 183.468 51.6459 178.657 51.6459H171.939V46.453H178.807C179.266 46.453 179.707 46.2706 180.032 45.946C180.358 45.6214 180.54 45.1811 180.54 44.722" fill="white"/>
<path d="M189.77 41.3813H195.327C195.634 44.7963 197.909 46.9712 201.583 46.9712C204.864 46.9712 207.14 45.6628 207.14 42.9543C207.14 36.4018 190.682 40.9438 190.682 29.2389C190.686 24.2167 195.017 20.7271 201.239 20.7271C207.713 20.7271 212.086 24.4387 212.353 30.1609H206.826C206.565 27.4973 204.475 25.7065 201.228 25.7065C198.21 25.7065 196.329 27.1045 196.329 29.2432C196.329 36.0134 213 30.9507 213 42.8711C213 48.5485 208.32 51.9998 201.585 51.9998C194.63 51.9998 190.082 47.8057 189.776 41.3856" fill="white"/>
<path fill-rule="evenodd" clip-rule="evenodd" d="M28.7966 14.2198C27.1819 11.3929 23.1449 11.3929 21.5301 14.2198L3.93161 45.0293C2.31683 47.8562 4.3353 51.3899 7.56485 51.3899H21.3033C19.9233 50.162 19.4122 48.0377 20.4565 46.215L33.7849 22.9526L28.7966 14.2198Z" fill="#80EEC0"/>
<path d="M39.9477 20.9779C41.2841 18.6649 44.625 18.6649 45.9614 20.9779L60.5257 46.1856C61.8621 48.4986 60.1916 51.3898 57.5189 51.3898H28.3902C25.7175 51.3898 24.0471 48.4986 25.3834 46.1856L39.9477 20.9779Z" fill="#00DC82"/>
</svg>
