<svg xmlns="http://www.w3.org/2000/svg" width="500" height="400" fill="none">
  <g clip-path="url(#clip0)">
    <path fill="#00DC82" d="M319.215 196.91l26.993 46.963v-.057c2.942 5.085 7.161 9.307 12.238 12.246 5.076 2.938 10.832 4.49 16.694 4.501h54.021c5.861-.01 11.618-1.561 16.694-4.5 5.077-2.938 9.296-7.162 12.237-12.247l26.993-46.906c2.924-5.097 4.463-10.874 4.463-16.753 0-5.88-1.539-11.657-4.463-16.753l-26.993-46.907c-2.944-5.09-7.168-9.317-12.252-12.256-5.083-2.939-10.846-4.4875-16.714-4.4908H375.14c-5.862.0105-11.618 1.5628-16.694 4.5008-5.077 2.939-9.296 7.161-12.238 12.246l-26.993 46.907c-2.924 5.096-4.463 10.873-4.463 16.753 0 5.879 1.539 11.656 4.463 16.753z"/>
    <g clip-path="url(#clip1)">
      <path fill="#003543" d="M131.209 132.311H439.15v324.148H131.209z"/>
      <path fill="#fff" d="M167.674 132.311h1.35062v324.148H167.674z"/>
      <path fill="#fff" d="M131.208 274.126v-1.35062h324.148v1.35062zM198.308 238.167V175.06h11.539l29.661 44.446V175.06h11.54v63.107h-11.54l-29.661-44.355v44.355h-11.539zm81.472 1.082c-5.59 0-9.917-1.743-12.982-5.229-3.005-3.486-4.508-8.594-4.508-15.326v-25.243h11.449v24.161c0 3.847.782 6.792 2.344 8.835 1.563 2.044 4.027 3.066 7.393 3.066 3.186 0 5.8-1.142 7.843-3.426 2.104-2.284 3.156-5.469 3.156-9.556v-23.08h11.54v44.716h-10.188l-.901-7.572c-1.383 2.644-3.396 4.748-6.041 6.31-2.584 1.563-5.619 2.344-9.105 2.344zM193.585 322.138v-15.127h1.816v13.679h7.045v1.448h-8.861zm15.666.259c-1.009 0-1.916-.23-2.723-.691-.807-.461-1.448-1.11-1.924-1.945-.461-.85-.691-1.844-.691-2.982 0-1.138.238-2.125.713-2.961.476-.85 1.117-1.505 1.923-1.966.822-.461 1.736-.692 2.745-.692 1.008 0 1.916.231 2.723.692.806.461 1.44 1.116 1.901 1.966.476.836.713 1.823.713 2.961s-.237 2.132-.713 2.982c-.475.835-1.123 1.484-1.945 1.945-.806.461-1.714.691-2.722.691zm0-1.556c.619 0 1.195-.151 1.728-.453.533-.303.966-.757 1.297-1.362.331-.605.497-1.354.497-2.247 0-.894-.166-1.643-.497-2.248-.317-.605-.742-1.059-1.275-1.361-.533-.303-1.102-.454-1.707-.454-.62 0-1.196.151-1.729.454-.533.302-.965.756-1.297 1.361-.331.605-.497 1.354-.497 2.248 0 .893.166 1.642.497 2.247.332.605.757 1.059 1.275 1.362.533.302 1.103.453 1.708.453zm7.904 1.297v-10.719h1.643l.151 2.053c.331-.706.836-1.267 1.513-1.685.677-.418 1.512-.627 2.507-.627v1.902h-.498c-.633 0-1.217.115-1.75.346-.533.216-.958.59-1.275 1.123-.317.533-.475 1.268-.475 2.204v5.403h-1.816zm12.269.259c-1.023 0-1.931-.23-2.723-.691-.792-.476-1.419-1.131-1.88-1.967-.447-.835-.67-1.822-.67-2.96 0-1.124.223-2.104.67-2.939.447-.85 1.066-1.506 1.858-1.967.807-.475 1.736-.713 2.788-.713 1.037 0 1.931.238 2.68.713.763.461 1.347 1.074 1.75 1.837.404.764.605 1.585.605 2.464 0 .158-.007.317-.021.475v.54h-8.536c.043.821.23 1.506.562 2.053.345.533.77.937 1.275 1.21.518.274 1.066.411 1.642.411.749 0 1.376-.173 1.88-.519.504-.345.872-.814 1.102-1.404h1.794c-.288.994-.843 1.822-1.664 2.485-.807.648-1.844.972-3.112.972zm0-9.703c-.864 0-1.635.267-2.312.8-.663.519-1.045 1.282-1.146 2.291h6.743c-.044-.966-.375-1.722-.994-2.269-.62-.548-1.383-.822-2.291-.822zm7.484 9.444v-10.719h1.643l.129 1.556c.346-.576.807-1.023 1.383-1.339.577-.317 1.225-.476 1.945-.476.85 0 1.578.173 2.183.519.619.346 1.095.871 1.426 1.577.375-.648.886-1.159 1.534-1.534.663-.375 1.376-.562 2.14-.562 1.282 0 2.305.389 3.068 1.167.764.764 1.146 1.945 1.146 3.544v6.267h-1.794v-6.072c0-1.11-.223-1.945-.67-2.507-.447-.562-1.088-.843-1.923-.843-.865 0-1.585.339-2.161 1.016-.562.662-.843 1.613-.843 2.852v5.554h-1.815v-6.072c0-1.11-.223-1.945-.67-2.507-.447-.562-1.088-.843-1.923-.843-.85 0-1.563.339-2.14 1.016-.562.662-.843 1.613-.843 2.852v5.554h-1.815zm26.152-13.096c-.36 0-.663-.115-.908-.345-.23-.245-.345-.548-.345-.908 0-.346.115-.634.345-.864.245-.231.548-.346.908-.346.346 0 .641.115.886.346.245.23.367.518.367.864 0 .36-.122.663-.367.908-.245.23-.54.345-.886.345zm-.908 13.096v-10.719h1.816v10.719h-1.816zm4.976 4.754v-15.473h1.643l.173 1.772c.345-.518.835-.986 1.469-1.404.648-.418 1.469-.627 2.464-.627 1.066 0 1.995.245 2.787.735.793.49 1.405 1.16 1.837 2.01.447.85.67 1.815.67 2.895 0 1.081-.223 2.046-.67 2.896-.432.836-1.052 1.498-1.858 1.988-.793.476-1.722.713-2.788.713-.879 0-1.664-.18-2.356-.54-.677-.36-1.195-.864-1.555-1.513v6.548h-1.816zm5.532-6.072c.721 0 1.355-.166 1.902-.497.548-.346.98-.821 1.297-1.427.317-.605.475-1.311.475-2.117 0-.807-.158-1.513-.475-2.118-.317-.605-.749-1.073-1.297-1.405-.547-.345-1.181-.518-1.902-.518-.72 0-1.354.173-1.901.518-.548.332-.98.8-1.297 1.405-.317.605-.475 1.311-.475 2.118 0 .806.158 1.512.475 2.117.317.606.749 1.081 1.297 1.427.547.331 1.181.497 1.901.497zm12.144 1.577c-1.282 0-2.349-.324-3.199-.972-.85-.648-1.347-1.527-1.491-2.637h1.859c.115.562.41 1.052.886 1.47.49.403 1.145.605 1.966.605.764 0 1.326-.159 1.686-.475.36-.332.54-.721.54-1.167 0-.649-.238-1.081-.713-1.297-.461-.216-1.117-.411-1.967-.583-.576-.116-1.152-.281-1.728-.497-.577-.217-1.059-.519-1.448-.908-.389-.403-.584-.929-.584-1.578 0-.936.346-1.7 1.038-2.29.706-.605 1.656-.908 2.852-.908 1.138 0 2.067.288 2.788.865.735.561 1.16 1.368 1.275 2.42h-1.794c-.072-.548-.31-.973-.713-1.275-.389-.317-.915-.476-1.577-.476-.649 0-1.153.137-1.513.411-.346.274-.519.634-.519 1.08 0 .433.224.771.67 1.016.461.245 1.081.454 1.859.627.662.144 1.289.324 1.88.54.605.202 1.095.512 1.469.929.389.404.584.994.584 1.772.014.966-.353 1.765-1.103 2.399-.734.62-1.736.929-3.003.929zm10.61 0c-1.268 0-2.276-.382-3.025-1.145-.749-.778-1.124-1.967-1.124-3.566v-6.267h1.815v6.073c0 2.233.915 3.349 2.745 3.349.936 0 1.707-.331 2.312-.994.619-.677.929-1.635.929-2.874v-5.554h1.815v10.719h-1.642l-.13-1.923c-.331.677-.828 1.21-1.491 1.599-.648.389-1.383.583-2.204.583zm8.455-.259v-10.719h1.643l.129 1.556c.346-.576.807-1.023 1.383-1.339.577-.317 1.225-.476 1.945-.476.85 0 1.578.173 2.183.519.619.346 1.095.871 1.426 1.577.375-.648.886-1.159 1.534-1.534.663-.375 1.376-.562 2.14-.562 1.282 0 2.305.389 3.068 1.167.764.764 1.146 1.945 1.146 3.544v6.267h-1.794v-6.072c0-1.11-.223-1.945-.67-2.507-.446-.562-1.087-.843-1.923-.843-.864 0-1.585.339-2.161 1.016-.562.662-.843 1.613-.843 2.852v5.554h-1.815v-6.072c0-1.11-.223-1.945-.67-2.507-.447-.562-1.088-.843-1.923-.843-.85 0-1.563.339-2.14 1.016-.561.662-.842 1.613-.842 2.852v5.554h-1.816zm29.912.259c-1.066 0-2.002-.245-2.809-.734-.792-.49-1.412-1.16-1.858-2.01-.433-.85-.649-1.815-.649-2.896 0-1.08.224-2.038.67-2.874.447-.85 1.066-1.513 1.859-1.988.792-.49 1.728-.735 2.809-.735.879 0 1.657.18 2.334.54.677.361 1.203.865 1.577 1.513v-6.634h1.816v15.559h-1.643l-.173-1.772c-.345.519-.842.987-1.491 1.405-.648.417-1.462.626-2.442.626zm.195-1.577c.72 0 1.354-.166 1.901-.497.562-.346.995-.821 1.297-1.427.317-.605.476-1.311.476-2.117 0-.807-.159-1.513-.476-2.118-.302-.605-.735-1.073-1.297-1.405-.547-.345-1.181-.518-1.901-.518-.706 0-1.34.173-1.902.518-.547.332-.979.8-1.296 1.405-.303.605-.454 1.311-.454 2.118 0 .806.151 1.512.454 2.117.317.606.749 1.081 1.296 1.427.562.331 1.196.497 1.902.497zm13.396 1.577c-1.008 0-1.916-.23-2.722-.691-.807-.461-1.448-1.11-1.924-1.945-.461-.85-.691-1.844-.691-2.982 0-1.138.237-2.125.713-2.961.475-.85 1.116-1.505 1.923-1.966.821-.461 1.736-.692 2.745-.692 1.008 0 1.916.231 2.722.692.807.461 1.441 1.116 1.902 1.966.476.836.713 1.823.713 2.961s-.237 2.132-.713 2.982c-.475.835-1.124 1.484-1.945 1.945-.806.461-1.714.691-2.723.691zm0-1.556c.62 0 1.196-.151 1.729-.453.533-.303.965-.757 1.297-1.362.331-.605.497-1.354.497-2.247 0-.894-.166-1.643-.497-2.248-.317-.605-.742-1.059-1.275-1.361-.533-.303-1.102-.454-1.707-.454-.62 0-1.196.151-1.729.454-.533.302-.965.756-1.297 1.361-.331.605-.497 1.354-.497 2.248 0 .893.166 1.642.497 2.247.332.605.757 1.059 1.275 1.362.533.302 1.102.453 1.707.453zm7.905 1.297v-15.559h1.816v15.559h-1.816zm9.675.259c-1.009 0-1.916-.23-2.723-.691-.807-.461-1.448-1.11-1.924-1.945-.461-.85-.691-1.844-.691-2.982 0-1.138.238-2.125.713-2.961.475-.85 1.117-1.505 1.923-1.966.822-.461 1.736-.692 2.745-.692 1.008 0 1.916.231 2.723.692.806.461 1.44 1.116 1.901 1.966.476.836.713 1.823.713 2.961s-.237 2.132-.713 2.982c-.475.835-1.123 1.484-1.945 1.945-.806.461-1.714.691-2.722.691zm0-1.556c.619 0 1.195-.151 1.728-.453.533-.303.966-.757 1.297-1.362.331-.605.497-1.354.497-2.247 0-.894-.166-1.643-.497-2.248-.317-.605-.742-1.059-1.275-1.361-.533-.303-1.102-.454-1.707-.454-.62 0-1.196.151-1.729.454-.533.302-.965.756-1.297 1.361-.331.605-.497 1.354-.497 2.248 0 .893.166 1.642.497 2.247.332.605.757 1.059 1.275 1.362.533.302 1.103.453 1.708.453zm7.904 1.297v-10.719h1.643l.151 2.053c.331-.706.836-1.267 1.513-1.685.677-.418 1.512-.627 2.506-.627v1.902h-.497c-.633 0-1.217.115-1.75.346-.533.216-.958.59-1.275 1.123-.317.533-.475 1.268-.475 2.204v5.403h-1.816zm17.676.259c-1.282 0-2.348-.324-3.198-.972-.85-.648-1.347-1.527-1.492-2.637h1.859c.115.562.41 1.052.886 1.47.49.403 1.145.605 1.966.605.764 0 1.326-.159 1.686-.475.36-.332.54-.721.54-1.167 0-.649-.237-1.081-.713-1.297-.461-.216-1.116-.411-1.966-.583-.577-.116-1.153-.281-1.729-.497-.576-.217-1.059-.519-1.448-.908-.389-.403-.584-.929-.584-1.578 0-.936.346-1.7 1.038-2.29.706-.605 1.657-.908 2.852-.908 1.138 0 2.068.288 2.788.865.735.561 1.16 1.368 1.275 2.42h-1.794c-.072-.548-.309-.973-.713-1.275-.389-.317-.915-.476-1.577-.476-.649 0-1.153.137-1.513.411-.346.274-.519.634-.519 1.08 0 .433.224.771.67 1.016.461.245 1.081.454 1.859.627.662.144 1.289.324 1.88.54.605.202 1.095.512 1.469.929.389.404.584.994.584 1.772.014.966-.353 1.765-1.102 2.399-.735.62-1.736.929-3.004.929zm7.801-13.355c-.36 0-.663-.115-.908-.345-.23-.245-.345-.548-.345-.908 0-.346.115-.634.345-.864.245-.231.548-.346.908-.346.346 0 .641.115.886.346.245.23.367.518.367.864 0 .36-.122.663-.367.908-.245.23-.54.345-.886.345zm-.908 13.096v-10.719h1.816v10.719h-1.816zm9.212 0c-.98 0-1.751-.238-2.313-.713-.561-.476-.842-1.333-.842-2.572v-5.899h-1.859v-1.535h1.859l.237-2.571h1.578v2.571h3.155v1.535h-3.155v5.899c0 .677.137 1.138.411 1.383.273.231.756.346 1.447.346h1.124v1.556h-1.642zm-209.594 27.259c-.893 0-1.635-.151-2.226-.454-.59-.302-1.03-.705-1.318-1.21-.288-.504-.432-1.051-.432-1.642 0-1.095.418-1.938 1.253-2.528.836-.591 1.974-.886 3.415-.886h2.895v-.13c0-.937-.245-1.642-.734-2.118-.49-.49-1.146-.735-1.967-.735-.706 0-1.318.18-1.837.541-.504.345-.821.857-.951 1.534h-1.858c.072-.778.331-1.433.778-1.967.461-.533 1.03-.936 1.707-1.21.677-.288 1.397-.432 2.161-.432 1.498 0 2.622.403 3.371 1.21.764.793 1.146 1.852 1.146 3.177v6.591h-1.621l-.108-1.923c-.303.605-.749 1.123-1.34 1.556-.576.417-1.354.626-2.334.626zm.281-1.534c.691 0 1.282-.18 1.772-.54.504-.36.886-.829 1.145-1.405.26-.576.389-1.181.389-1.815v-.022h-2.744c-1.066 0-1.823.188-2.269.562-.432.36-.649.814-.649 1.362 0 .561.202 1.015.606 1.361.417.331 1.001.497 1.75.497zm7.845 1.275v-10.719h1.642l.13 1.556c.345-.576.806-1.023 1.383-1.339.576-.317 1.224-.476 1.945-.476.85 0 1.577.173 2.182.519.62.346 1.095.871 1.426 1.577.375-.648.886-1.159 1.535-1.534.662-.375 1.376-.562 2.139-.562 1.282 0 2.305.389 3.069 1.167.763.764 1.145 1.945 1.145 3.544v6.267h-1.794v-6.072c0-1.11-.223-1.945-.669-2.507-.447-.562-1.088-.843-1.924-.843-.864 0-1.584.339-2.161 1.016-.562.662-.842 1.613-.842 2.852v5.554h-1.816v-6.072c0-1.11-.223-1.945-.67-2.507-.446-.562-1.087-.843-1.923-.843-.85 0-1.563.339-2.139 1.016-.562.662-.843 1.613-.843 2.852v5.554h-1.815zm24.149.259c-1.022 0-1.93-.23-2.722-.691-.793-.476-1.419-1.131-1.88-1.967-.447-.835-.67-1.822-.67-2.96 0-1.124.223-2.104.67-2.939.446-.85 1.066-1.506 1.858-1.967.807-.475 1.736-.713 2.788-.713 1.037 0 1.93.238 2.679.713.764.461 1.347 1.074 1.751 1.837.403.764.605 1.585.605 2.464 0 .158-.007.317-.022.475v.54h-8.536c.043.821.231 1.506.562 2.053.346.533.771.937 1.275 1.21.519.274 1.066.411 1.642.411.75 0 1.376-.173 1.88-.519.505-.345.872-.814 1.103-1.404h1.793c-.288.994-.843 1.822-1.664 2.485-.807.648-1.844.972-3.112.972zm0-9.703c-.864 0-1.635.267-2.312.8-.663.519-1.044 1.282-1.145 2.291h6.742c-.043-.966-.374-1.722-.994-2.269-.619-.548-1.383-.822-2.291-.822zm11.361 9.444c-.979 0-1.75-.238-2.312-.713-.562-.476-.843-1.333-.843-2.572v-5.899h-1.858v-1.535h1.858l.238-2.571h1.578v2.571h3.155v1.535h-3.155v5.899c0 .677.137 1.138.41 1.383.274.231.757.346 1.448.346h1.124v1.556h-1.643zm3.793 2.572l1.253-4.776h1.88l-1.88 4.776h-1.253zm15.934-2.313c-1.023 0-1.945-.23-2.766-.691-.807-.476-1.448-1.131-1.923-1.967-.461-.85-.692-1.837-.692-2.96 0-1.124.231-2.104.692-2.939.475-.85 1.116-1.506 1.923-1.967.821-.475 1.743-.713 2.766-.713 1.268 0 2.334.331 3.199.994.878.663 1.433 1.549 1.664 2.658h-1.859c-.144-.663-.497-1.174-1.059-1.534-.562-.375-1.217-.562-1.966-.562-.605 0-1.174.151-1.708.454-.533.302-.965.756-1.296 1.361-.331.605-.497 1.354-.497 2.248 0 .893.166 1.642.497 2.247.331.605.763 1.066 1.296 1.383.534.303 1.103.454 1.708.454.749 0 1.404-.18 1.966-.54.562-.375.915-.901 1.059-1.578h1.859c-.217 1.081-.764 1.959-1.643 2.637-.879.677-1.952 1.015-3.22 1.015zm12.281 0c-1.008 0-1.916-.23-2.722-.691-.807-.461-1.448-1.11-1.924-1.945-.461-.85-.691-1.844-.691-2.982 0-1.138.238-2.125.713-2.961.475-.85 1.116-1.505 1.923-1.966.821-.461 1.736-.692 2.745-.692 1.008 0 1.916.231 2.723.692.806.461 1.44 1.116 1.901 1.966.476.836.713 1.823.713 2.961s-.237 2.132-.713 2.982c-.475.835-1.124 1.484-1.945 1.945-.806.461-1.714.691-2.723.691zm0-1.556c.62 0 1.196-.151 1.729-.453.533-.303.965-.757 1.297-1.362.331-.605.497-1.354.497-2.247 0-.894-.166-1.643-.497-2.248-.317-.605-.742-1.059-1.275-1.361-.533-.303-1.102-.454-1.707-.454-.62 0-1.196.151-1.729.454-.533.302-.965.756-1.297 1.361-.331.605-.497 1.354-.497 2.248 0 .893.166 1.642.497 2.247.332.605.757 1.059 1.275 1.362.533.302 1.102.453 1.707.453zm7.905 1.297v-10.719h1.643l.108 1.924c.345-.677.842-1.21 1.491-1.599.648-.389 1.383-.584 2.204-.584 1.268 0 2.276.389 3.025 1.167.764.764 1.146 1.945 1.146 3.544v6.267h-1.816v-6.072c0-2.233-.922-3.35-2.766-3.35-.922 0-1.692.339-2.312 1.016-.605.662-.907 1.613-.907 2.852v5.554h-1.816zm16.473.259c-1.282 0-2.349-.324-3.198-.972-.85-.648-1.348-1.527-1.492-2.637h1.859c.115.562.41 1.052.886 1.47.49.403 1.145.605 1.966.605.764 0 1.326-.159 1.686-.475.36-.332.54-.721.54-1.167 0-.649-.238-1.081-.713-1.297-.461-.216-1.116-.411-1.966-.583-.577-.116-1.153-.281-1.729-.497-.576-.217-1.059-.519-1.448-.908-.389-.403-.584-.929-.584-1.578 0-.936.346-1.7 1.038-2.29.706-.605 1.656-.908 2.852-.908 1.138 0 2.068.288 2.788.865.735.561 1.16 1.368 1.275 2.42h-1.794c-.072-.548-.309-.973-.713-1.275-.389-.317-.915-.476-1.577-.476-.649 0-1.153.137-1.513.411-.346.274-.519.634-.519 1.08 0 .433.224.771.67 1.016.461.245 1.081.454 1.859.627.662.144 1.289.324 1.88.54.605.202 1.095.512 1.469.929.389.404.584.994.584 1.772.014.966-.353 1.765-1.102 2.399-.735.62-1.736.929-3.004.929zm11.518 0c-1.023 0-1.931-.23-2.723-.691-.792-.476-1.419-1.131-1.88-1.967-.447-.835-.67-1.822-.67-2.96 0-1.124.223-2.104.67-2.939.447-.85 1.066-1.506 1.858-1.967.807-.475 1.736-.713 2.788-.713 1.037 0 1.931.238 2.68.713.763.461 1.347 1.074 1.75 1.837.403.764.605 1.585.605 2.464 0 .158-.007.317-.021.475v.54h-8.536c.043.821.23 1.506.562 2.053.345.533.77.937 1.274 1.21.519.274 1.067.411 1.643.411.749 0 1.376-.173 1.88-.519.504-.345.872-.814 1.102-1.404h1.794c-.288.994-.843 1.822-1.664 2.485-.807.648-1.844.972-3.112.972zm0-9.703c-.865 0-1.635.267-2.312.8-.663.519-1.045 1.282-1.146 2.291h6.743c-.044-.966-.375-1.722-.995-2.269-.619-.548-1.383-.822-2.29-.822zm12.411 9.703c-1.023 0-1.945-.23-2.766-.691-.807-.476-1.448-1.131-1.923-1.967-.461-.85-.692-1.837-.692-2.96 0-1.124.231-2.104.692-2.939.475-.85 1.116-1.506 1.923-1.967.821-.475 1.743-.713 2.766-.713 1.268 0 2.334.331 3.198.994.879.663 1.434 1.549 1.664 2.658h-1.858c-.144-.663-.497-1.174-1.059-1.534-.562-.375-1.217-.562-1.966-.562-.605 0-1.175.151-1.708.454-.533.302-.965.756-1.296 1.361-.332.605-.497 1.354-.497 2.248 0 .893.165 1.642.497 2.247.331.605.763 1.066 1.296 1.383.533.303 1.103.454 1.708.454.749 0 1.404-.18 1.966-.54.562-.375.915-.901 1.059-1.578h1.858c-.216 1.081-.763 1.959-1.642 2.637-.879.677-1.952 1.015-3.22 1.015zm11.338-.259c-.98 0-1.751-.238-2.313-.713-.561-.476-.842-1.333-.842-2.572v-5.899h-1.859v-1.535h1.859l.237-2.571h1.578v2.571h3.155v1.535h-3.155v5.899c0 .677.137 1.138.41 1.383.274.231.757.346 1.448.346h1.124v1.556h-1.642zm8.645.259c-1.023 0-1.931-.23-2.723-.691-.793-.476-1.419-1.131-1.88-1.967-.447-.835-.67-1.822-.67-2.96 0-1.124.223-2.104.67-2.939.446-.85 1.066-1.506 1.858-1.967.807-.475 1.736-.713 2.788-.713 1.037 0 1.93.238 2.679.713.764.461 1.347 1.074 1.751 1.837.403.764.605 1.585.605 2.464 0 .158-.007.317-.022.475v.54h-8.536c.044.821.231 1.506.562 2.053.346.533.771.937 1.275 1.21.519.274 1.066.411 1.643.411.749 0 1.375-.173 1.88-.519.504-.345.871-.814 1.102-1.404h1.793c-.288.994-.842 1.822-1.664 2.485-.806.648-1.844.972-3.111.972zm0-9.703c-.865 0-1.636.267-2.313.8-.662.519-1.044 1.282-1.145 2.291h6.742c-.043-.966-.374-1.722-.994-2.269-.619-.548-1.383-.822-2.29-.822zm11.361 9.444c-.98 0-1.751-.238-2.313-.713-.561-.476-.842-1.333-.842-2.572v-5.899h-1.859v-1.535h1.859l.237-2.571h1.578v2.571h3.155v1.535h-3.155v5.899c0 .677.137 1.138.41 1.383.274.231.757.346 1.448.346h1.124v1.556h-1.642zm8.032.259c-1.267 0-2.276-.382-3.025-1.145-.749-.778-1.124-1.967-1.124-3.566v-6.267h1.816v6.073c0 2.233.914 3.349 2.744 3.349.936 0 1.707-.331 2.312-.994.62-.677.93-1.635.93-2.874v-5.554h1.815v10.719h-1.643l-.129-1.923c-.332.677-.829 1.21-1.491 1.599-.649.389-1.383.583-2.205.583zm8.456-.259v-10.719h1.642l.151 2.053c.332-.706.836-1.267 1.513-1.685.677-.418 1.513-.627 2.507-.627v1.902h-.497c-.634 0-1.218.115-1.751.346-.533.216-.958.59-1.275 1.123-.317.533-.475 1.268-.475 2.204v5.403h-1.815zm-171.783 27.259c-.893 0-1.635-.151-2.226-.454-.59-.302-1.03-.705-1.318-1.21-.288-.504-.432-1.051-.432-1.642 0-1.095.418-1.938 1.253-2.528.836-.591 1.974-.886 3.415-.886h2.895v-.13c0-.937-.245-1.642-.734-2.118-.49-.49-1.146-.735-1.967-.735-.706 0-1.318.18-1.837.541-.504.345-.821.857-.951 1.534h-1.858c.072-.778.331-1.433.778-1.967.461-.533 1.03-.936 1.707-1.21.677-.288 1.397-.432 2.161-.432 1.498 0 2.622.403 3.371 1.21.764.793 1.146 1.852 1.146 3.177v6.591h-1.621l-.108-1.923c-.303.605-.749 1.123-1.34 1.556-.576.417-1.354.626-2.334.626zm.281-1.534c.691 0 1.282-.18 1.772-.54.504-.36.886-.829 1.145-1.405.26-.576.389-1.181.389-1.815v-.022h-2.744c-1.066 0-1.823.188-2.269.562-.432.36-.649.814-.649 1.362 0 .561.202 1.015.606 1.361.417.331 1.001.497 1.75.497zm12.707 1.534c-1.066 0-2.003-.245-2.809-.734-.793-.49-1.412-1.16-1.859-2.01-.432-.85-.648-1.815-.648-2.896 0-1.08.223-2.038.67-2.874.446-.85 1.066-1.513 1.858-1.988.793-.49 1.729-.735 2.81-.735.878 0 1.656.18 2.333.54.678.361 1.203.865 1.578 1.513v-6.634h1.815v15.559h-1.642l-.173-1.772c-.346.519-.843.987-1.491 1.405-.648.417-1.462.626-2.442.626zm.194-1.577c.721 0 1.355-.166 1.902-.497.562-.346.994-.821 1.297-1.427.317-.605.475-1.311.475-2.117 0-.807-.158-1.513-.475-2.118-.303-.605-.735-1.073-1.297-1.405-.547-.345-1.181-.518-1.902-.518-.706 0-1.339.173-1.901.518-.548.332-.98.8-1.297 1.405-.302.605-.454 1.311-.454 2.118 0 .806.152 1.512.454 2.117.317.606.749 1.081 1.297 1.427.562.331 1.195.497 1.901.497zm9.615-11.778c-.36 0-.662-.115-.907-.345-.231-.245-.346-.548-.346-.908 0-.346.115-.634.346-.864.245-.231.547-.346.907-.346.346 0 .641.115.886.346.245.23.368.518.368.864 0 .36-.123.663-.368.908-.245.23-.54.345-.886.345zm-.907 13.096v-10.719h1.815v10.719h-1.815zm4.976 4.754v-15.473h1.642l.173 1.772c.346-.518.835-.986 1.469-1.404.649-.418 1.47-.627 2.464-.627 1.066 0 1.995.245 2.787.735.793.49 1.405 1.16 1.837 2.01.447.85.67 1.815.67 2.895 0 1.081-.223 2.046-.67 2.896-.432.836-1.051 1.498-1.858 1.988-.793.476-1.722.713-2.788.713-.879 0-1.664-.18-2.355-.54-.677-.36-1.196-.864-1.556-1.513v6.548h-1.815zm5.532-6.072c.72 0 1.354-.166 1.901-.497.548-.346.98-.821 1.297-1.427.317-.605.475-1.311.475-2.117 0-.807-.158-1.513-.475-2.118-.317-.605-.749-1.073-1.297-1.405-.547-.345-1.181-.518-1.901-.518-.721 0-1.355.173-1.902.518-.547.332-.98.8-1.297 1.405-.317.605-.475 1.311-.475 2.118 0 .806.158 1.512.475 2.117.317.606.75 1.081 1.297 1.427.547.331 1.181.497 1.902.497zm9.139-11.778c-.36 0-.663-.115-.907-.345-.231-.245-.346-.548-.346-.908 0-.346.115-.634.346-.864.244-.231.547-.346.907-.346.346 0 .641.115.886.346.245.23.368.518.368.864 0 .36-.123.663-.368.908-.245.23-.54.345-.886.345zm-.907 13.096v-10.719h1.815v10.719h-1.815zm9.081.259c-1.282 0-2.348-.324-3.198-.972-.85-.648-1.347-1.527-1.491-2.637h1.858c.116.562.411 1.052.886 1.47.49.403 1.146.605 1.967.605.763 0 1.325-.159 1.685-.475.361-.332.541-.721.541-1.167 0-.649-.238-1.081-.713-1.297-.461-.216-1.117-.411-1.967-.583-.576-.116-1.152-.281-1.729-.497-.576-.217-1.059-.519-1.448-.908-.389-.403-.583-.929-.583-1.578 0-.936.346-1.7 1.037-2.29.706-.605 1.657-.908 2.853-.908 1.138 0 2.067.288 2.787.865.735.561 1.16 1.368 1.275 2.42h-1.793c-.072-.548-.31-.973-.713-1.275-.389-.317-.915-.476-1.578-.476-.648 0-1.152.137-1.513.411-.345.274-.518.634-.518 1.08 0 .433.223.771.67 1.016.461.245 1.08.454 1.858.627.663.144 1.29.324 1.88.54.605.202 1.095.512 1.47.929.389.404.583.994.583 1.772.015.966-.353 1.765-1.102 2.399-.735.62-1.736.929-3.004.929zm11.626 0c-1.023 0-1.945-.23-2.766-.691-.806-.476-1.448-1.131-1.923-1.967-.461-.85-.691-1.837-.691-2.96 0-1.124.23-2.104.691-2.939.475-.85 1.117-1.506 1.923-1.967.821-.475 1.743-.713 2.766-.713 1.268 0 2.334.331 3.199.994.878.663 1.433 1.549 1.664 2.658h-1.859c-.144-.663-.497-1.174-1.059-1.534-.562-.375-1.217-.562-1.966-.562-.605 0-1.174.151-1.707.454-.533.302-.966.756-1.297 1.361-.331.605-.497 1.354-.497 2.248 0 .893.166 1.642.497 2.247.331.605.764 1.066 1.297 1.383.533.303 1.102.454 1.707.454.749 0 1.404-.18 1.966-.54.562-.375.915-.901 1.059-1.578h1.859c-.217 1.081-.764 1.959-1.643 2.637-.879.677-1.952 1.015-3.22 1.015zm8.5-13.355c-.36 0-.663-.115-.908-.345-.23-.245-.346-.548-.346-.908 0-.346.116-.634.346-.864.245-.231.548-.346.908-.346.346 0 .641.115.886.346.245.23.367.518.367.864 0 .36-.122.663-.367.908-.245.23-.54.345-.886.345zm-.908 13.096v-10.719h1.815v10.719h-1.815zm4.976 0v-10.719h1.642l.108 1.924c.346-.677.843-1.21 1.492-1.599.648-.389 1.383-.584 2.204-.584 1.268 0 2.276.389 3.025 1.167.764.764 1.145 1.945 1.145 3.544v6.267h-1.815v-6.072c0-2.233-.922-3.35-2.766-3.35-.922 0-1.693.339-2.312 1.016-.605.662-.908 1.613-.908 2.852v5.554h-1.815zm16.602-3.371c-.605 0-1.16-.079-1.664-.238l-1.08 1.016c.158.115.353.216.583.302.245.072.591.144 1.037.216.447.058 1.074.123 1.881.195 1.44.101 2.47.432 3.09.994.619.562.929 1.297.929 2.204 0 .62-.173 1.21-.519 1.772-.331.562-.85 1.023-1.556 1.383-.691.36-1.584.54-2.679.54-.965 0-1.823-.129-2.572-.389-.749-.244-1.332-.626-1.75-1.145-.418-.504-.627-1.145-.627-1.923 0-.404.108-.843.324-1.318.216-.461.62-.901 1.21-1.319-.317-.129-.59-.266-.821-.41-.216-.159-.418-.331-.605-.519v-.497l1.837-1.815c-.85-.72-1.275-1.671-1.275-2.853 0-.705.166-1.347.497-1.923.331-.576.814-1.03 1.448-1.361.634-.346 1.405-.519 2.312-.519.62 0 1.182.087 1.686.259h3.954v1.362l-2.009.086c.417.605.626 1.304.626 2.096 0 .706-.173 1.347-.518 1.924-.332.576-.814 1.037-1.448 1.383-.62.331-1.383.497-2.291.497zm0-1.491c.764 0 1.369-.195 1.815-.584.461-.403.692-.979.692-1.729 0-.734-.231-1.296-.692-1.685-.446-.404-1.051-.605-1.815-.605-.778 0-1.397.201-1.858.605-.447.389-.67.951-.67 1.685 0 .75.223 1.326.67 1.729.461.389 1.08.584 1.858.584zm-3.155 6.245c0 .72.303 1.253.908 1.599.605.36 1.361.54 2.269.54.893 0 1.606-.194 2.139-.583.548-.389.821-.908.821-1.556 0-.461-.187-.864-.562-1.21-.374-.332-1.066-.526-2.074-.584-.792-.057-1.477-.129-2.053-.216-.591.317-.98.656-1.167 1.016-.187.374-.281.706-.281.994zm21.381-1.124c-1.023 0-1.93-.23-2.723-.691-.792-.476-1.419-1.131-1.88-1.967-.446-.835-.67-1.822-.67-2.96 0-1.124.224-2.104.67-2.939.447-.85 1.066-1.506 1.859-1.967.806-.475 1.736-.713 2.787-.713 1.038 0 1.931.238 2.68.713.763.461 1.347 1.074 1.75 1.837.404.764.605 1.585.605 2.464 0 .158-.007.317-.021.475v.54h-8.536c.043.821.23 1.506.562 2.053.346.533.771.937 1.275 1.21.518.274 1.066.411 1.642.411.749 0 1.376-.173 1.88-.519.504-.345.872-.814 1.102-1.404h1.794c-.288.994-.843 1.822-1.664 2.485-.807.648-1.844.972-3.112.972zm0-9.703c-.864 0-1.635.267-2.312.8-.663.519-1.045 1.282-1.145 2.291h6.742c-.043-.966-.375-1.722-.994-2.269-.62-.548-1.383-.822-2.291-.822zm7.484 9.444v-15.559h1.816v15.559h-1.816zm5.893-13.096c-.36 0-.663-.115-.908-.345-.23-.245-.345-.548-.345-.908 0-.346.115-.634.345-.864.245-.231.548-.346.908-.346.346 0 .641.115.886.346.245.23.367.518.367.864 0 .36-.122.663-.367.908-.245.23-.54.345-.886.345zm-.908 13.096v-10.719h1.816v10.719h-1.816zm9.212 0c-.98 0-1.751-.238-2.313-.713-.561-.476-.842-1.333-.842-2.572v-5.899h-1.859v-1.535h1.859l.237-2.571h1.578v2.571h3.155v1.535h-3.155v5.899c0 .677.137 1.138.41 1.383.274.231.757.346 1.448.346h1.124v1.556h-1.642zm3.792 2.572l1.253-4.776h1.88l-1.88 4.776h-1.253zm15.113-2.313c-1.282 0-2.348-.324-3.198-.972-.85-.648-1.347-1.527-1.491-2.637h1.858c.116.562.411 1.052.886 1.47.49.403 1.146.605 1.967.605.764 0 1.325-.159 1.686-.475.36-.332.54-.721.54-1.167 0-.649-.238-1.081-.713-1.297-.461-.216-1.117-.411-1.967-.583-.576-.116-1.152-.281-1.729-.497-.576-.217-1.059-.519-1.448-.908-.388-.403-.583-.929-.583-1.578 0-.936.346-1.7 1.037-2.29.706-.605 1.657-.908 2.853-.908 1.138 0 2.067.288 2.787.865.735.561 1.16 1.368 1.275 2.42h-1.793c-.072-.548-.31-.973-.713-1.275-.389-.317-.915-.476-1.578-.476-.648 0-1.152.137-1.512.411-.346.274-.519.634-.519 1.08 0 .433.223.771.67 1.016.461.245 1.08.454 1.858.627.663.144 1.29.324 1.88.54.605.202 1.095.512 1.47.929.389.404.583.994.583 1.772.015.966-.353 1.765-1.102 2.399-.735.62-1.736.929-3.004.929zm11.518 0c-1.022 0-1.93-.23-2.722-.691-.793-.476-1.419-1.131-1.88-1.967-.447-.835-.67-1.822-.67-2.96 0-1.124.223-2.104.67-2.939.446-.85 1.066-1.506 1.858-1.967.807-.475 1.736-.713 2.788-.713 1.037 0 1.93.238 2.679.713.764.461 1.347 1.074 1.751 1.837.403.764.605 1.585.605 2.464 0 .158-.007.317-.022.475v.54h-8.536c.043.821.231 1.506.562 2.053.346.533.771.937 1.275 1.21.519.274 1.066.411 1.642.411.75 0 1.376-.173 1.88-.519.505-.345.872-.814 1.103-1.404h1.793c-.288.994-.843 1.822-1.664 2.485-.807.648-1.844.972-3.112.972zm0-9.703c-.864 0-1.635.267-2.312.8-.663.519-1.044 1.282-1.145 2.291h6.742c-.043-.966-.374-1.722-.994-2.269-.619-.548-1.383-.822-2.291-.822zm12.347 9.703c-1.066 0-2.003-.245-2.809-.734-.793-.49-1.412-1.16-1.859-2.01-.432-.85-.648-1.815-.648-2.896 0-1.08.223-2.038.67-2.874.446-.85 1.066-1.513 1.858-1.988.793-.49 1.729-.735 2.81-.735.878 0 1.656.18 2.333.54.678.361 1.203.865 1.578 1.513v-6.634h1.815v15.559h-1.642l-.173-1.772c-.346.519-.843.987-1.491 1.405-.648.417-1.462.626-2.442.626zm.194-1.577c.721 0 1.355-.166 1.902-.497.562-.346.994-.821 1.297-1.427.317-.605.475-1.311.475-2.117 0-.807-.158-1.513-.475-2.118-.303-.605-.735-1.073-1.297-1.405-.547-.345-1.181-.518-1.902-.518-.706 0-1.339.173-1.901.518-.548.332-.98.8-1.297 1.405-.302.605-.454 1.311-.454 2.118 0 .806.152 1.512.454 2.117.317.606.749 1.081 1.297 1.427.562.331 1.195.497 1.901.497zm19.094 1.577c-1.066 0-2.002-.245-2.809-.734-.792-.49-1.412-1.16-1.858-2.01-.432-.85-.649-1.815-.649-2.896 0-1.08.224-2.038.67-2.874.447-.85 1.066-1.513 1.859-1.988.792-.49 1.729-.735 2.809-.735.879 0 1.657.18 2.334.54.677.361 1.203.865 1.577 1.513v-6.634h1.816v15.559h-1.643l-.173-1.772c-.345.519-.842.987-1.491 1.405-.648.417-1.462.626-2.442.626zm.195-1.577c.72 0 1.354-.166 1.902-.497.561-.346.994-.821 1.296-1.427.317-.605.476-1.311.476-2.117 0-.807-.159-1.513-.476-2.118-.302-.605-.735-1.073-1.296-1.405-.548-.345-1.182-.518-1.902-.518-.706 0-1.34.173-1.902.518-.547.332-.979.8-1.296 1.405-.303.605-.454 1.311-.454 2.118 0 .806.151 1.512.454 2.117.317.606.749 1.081 1.296 1.427.562.331 1.196.497 1.902.497zm13.397 1.577c-1.009 0-1.917-.23-2.723-.691-.807-.461-1.448-1.11-1.924-1.945-.461-.85-.691-1.844-.691-2.982 0-1.138.238-2.125.713-2.961.475-.85 1.117-1.505 1.923-1.966.821-.461 1.736-.692 2.745-.692 1.008 0 1.916.231 2.723.692.806.461 1.44 1.116 1.901 1.966.476.836.713 1.823.713 2.961s-.237 2.132-.713 2.982c-.475.835-1.123 1.484-1.945 1.945-.806.461-1.714.691-2.722.691zm0-1.556c.619 0 1.195-.151 1.728-.453.533-.303.966-.757 1.297-1.362.331-.605.497-1.354.497-2.247 0-.894-.166-1.643-.497-2.248-.317-.605-.742-1.059-1.275-1.361-.533-.303-1.102-.454-1.707-.454-.62 0-1.196.151-1.729.454-.533.302-.965.756-1.297 1.361-.331.605-.497 1.354-.497 2.248 0 .893.166 1.642.497 2.247.332.605.757 1.059 1.275 1.362.533.302 1.102.453 1.708.453zm-204.811 28.556c-1.022 0-1.93-.23-2.722-.691-.793-.476-1.419-1.131-1.88-1.967-.447-.835-.67-1.822-.67-2.96 0-1.124.223-2.104.67-2.939.446-.85 1.066-1.506 1.858-1.967.807-.475 1.736-.713 2.788-.713 1.037 0 1.93.238 2.679.713.764.461 1.347 1.074 1.751 1.837.403.764.605 1.585.605 2.464 0 .158-.007.317-.022.475v.54h-8.536c.043.821.231 1.506.562 2.053.346.533.771.937 1.275 1.21.519.274 1.066.411 1.642.411.75 0 1.376-.173 1.88-.519.505-.345.872-.814 1.103-1.404h1.793c-.288.994-.843 1.822-1.664 2.485-.807.648-1.844.972-3.112.972zm0-9.703c-.864 0-1.635.267-2.312.8-.663.519-1.044 1.282-1.145 2.291h6.742c-.043-.966-.374-1.722-.994-2.269-.619-.548-1.383-.822-2.291-.822zm8.587-3.652c-.36 0-.663-.115-.908-.345-.23-.245-.346-.548-.346-.908 0-.346.116-.634.346-.864.245-.231.548-.346.908-.346.346 0 .641.115.886.346.245.23.367.518.367.864 0 .36-.122.663-.367.908-.245.23-.54.345-.886.345zm-.908 13.096v-10.719h1.815v10.719h-1.815zm8.887.259c-1.267 0-2.276-.382-3.025-1.145-.749-.778-1.124-1.967-1.124-3.566v-6.267h1.816v6.073c0 2.233.914 3.349 2.744 3.349.936 0 1.707-.331 2.312-.994.62-.677.929-1.635.929-2.874v-5.554h1.816v10.719h-1.643l-.129-1.923c-.332.677-.829 1.21-1.491 1.599-.649.389-1.383.583-2.205.583zm12.562 0c-1.283 0-2.349-.324-3.199-.972-.85-.648-1.347-1.527-1.491-2.637h1.859c.115.562.41 1.052.886 1.47.489.403 1.145.605 1.966.605.764 0 1.326-.159 1.686-.475.36-.332.54-.721.54-1.167 0-.649-.238-1.081-.713-1.297-.461-.216-1.117-.411-1.967-.583-.576-.116-1.152-.281-1.728-.497-.577-.217-1.059-.519-1.448-.908-.389-.403-.584-.929-.584-1.578 0-.936.346-1.7 1.037-2.29.706-.605 1.657-.908 2.853-.908 1.138 0 2.067.288 2.788.865.734.561 1.159 1.368 1.275 2.42h-1.794c-.072-.548-.31-.973-.713-1.275-.389-.317-.915-.476-1.578-.476-.648 0-1.152.137-1.512.411-.346.274-.519.634-.519 1.08 0 .433.223.771.67 1.016.461.245 1.08.454 1.858.627.663.144 1.29.324 1.88.54.606.202 1.095.512 1.47.929.389.404.583.994.583 1.772.015.966-.353 1.765-1.102 2.399-.734.62-1.736.929-3.003.929zm6.699-.259v-10.719h1.642l.13 1.556c.345-.576.806-1.023 1.383-1.339.576-.317 1.224-.476 1.945-.476.85 0 1.577.173 2.182.519.62.346 1.095.871 1.426 1.577.375-.648.886-1.159 1.535-1.534.662-.375 1.376-.562 2.139-.562 1.282 0 2.305.389 3.069 1.167.763.764 1.145 1.945 1.145 3.544v6.267h-1.794v-6.072c0-1.11-.223-1.945-.67-2.507-.446-.562-1.087-.843-1.923-.843-.864 0-1.585.339-2.161 1.016-.562.662-.843 1.613-.843 2.852v5.554h-1.815v-6.072c0-1.11-.223-1.945-.67-2.507-.446-.562-1.087-.843-1.923-.843-.85 0-1.563.339-2.139 1.016-.562.662-.843 1.613-.843 2.852v5.554h-1.815zm24.214.259c-1.008 0-1.916-.23-2.723-.691-.806-.461-1.448-1.11-1.923-1.945-.461-.85-.692-1.844-.692-2.982 0-1.138.238-2.125.714-2.961.475-.85 1.116-1.505 1.923-1.966.821-.461 1.736-.692 2.744-.692 1.009 0 1.916.231 2.723.692.807.461 1.441 1.116 1.902 1.966.475.836.713 1.823.713 2.961s-.238 2.132-.713 2.982c-.476.835-1.124 1.484-1.945 1.945-.807.461-1.714.691-2.723.691zm0-1.556c.62 0 1.196-.151 1.729-.453.533-.303.965-.757 1.297-1.362.331-.605.497-1.354.497-2.247 0-.894-.166-1.643-.497-2.248-.317-.605-.742-1.059-1.275-1.361-.534-.303-1.103-.454-1.708-.454-.619 0-1.195.151-1.728.454-.533.302-.966.756-1.297 1.361-.331.605-.497 1.354-.497 2.248 0 .893.166 1.642.497 2.247.331.605.756 1.059 1.275 1.362.533.302 1.102.453 1.707.453zm12.767 1.556c-1.066 0-2.002-.245-2.809-.734-.792-.49-1.412-1.16-1.859-2.01-.432-.85-.648-1.815-.648-2.896 0-1.08.223-2.038.67-2.874.447-.85 1.066-1.513 1.859-1.988.792-.49 1.728-.735 2.809-.735.879 0 1.657.18 2.334.54.677.361 1.203.865 1.577 1.513v-6.634h1.815v15.559h-1.642l-.173-1.772c-.346.519-.843.987-1.491 1.405-.648.417-1.462.626-2.442.626zm.195-1.577c.72 0 1.354-.166 1.901-.497.562-.346.994-.821 1.297-1.427.317-.605.475-1.311.475-2.117 0-.807-.158-1.513-.475-2.118-.303-.605-.735-1.073-1.297-1.405-.547-.345-1.181-.518-1.901-.518-.706 0-1.34.173-1.902.518-.547.332-.98.8-1.297 1.405-.302.605-.453 1.311-.453 2.118 0 .806.151 1.512.453 2.117.317.606.75 1.081 1.297 1.427.562.331 1.196.497 1.902.497zm18.467 1.318c-.98 0-1.75-.238-2.312-.713-.562-.476-.843-1.333-.843-2.572v-5.899h-1.858v-1.535h1.858l.238-2.571h1.577v2.571h3.155v1.535h-3.155v5.899c0 .677.137 1.138.411 1.383.274.231.756.346 1.448.346h1.123v1.556h-1.642zm8.645.259c-1.023 0-1.93-.23-2.723-.691-.792-.476-1.419-1.131-1.88-1.967-.447-.835-.67-1.822-.67-2.96 0-1.124.223-2.104.67-2.939.447-.85 1.066-1.506 1.859-1.967.806-.475 1.736-.713 2.787-.713 1.037 0 1.931.238 2.68.713.763.461 1.347 1.074 1.75 1.837.404.764.605 1.585.605 2.464 0 .158-.007.317-.021.475v.54h-8.536c.043.821.23 1.506.562 2.053.345.533.77.937 1.275 1.21.518.274 1.066.411 1.642.411.749 0 1.376-.173 1.88-.519.504-.345.872-.814 1.102-1.404h1.794c-.288.994-.843 1.822-1.664 2.485-.807.648-1.844.972-3.112.972zm0-9.703c-.864 0-1.635.267-2.312.8-.663.519-1.045 1.282-1.146 2.291h6.743c-.044-.966-.375-1.722-.994-2.269-.62-.548-1.383-.822-2.291-.822zm7.484 9.444v-10.719h1.643l.129 1.556c.346-.576.807-1.023 1.383-1.339.577-.317 1.225-.476 1.945-.476.85 0 1.578.173 2.183.519.619.346 1.095.871 1.426 1.577.375-.648.886-1.159 1.534-1.534.663-.375 1.376-.562 2.14-.562 1.282 0 2.305.389 3.068 1.167.764.764 1.146 1.945 1.146 3.544v6.267h-1.794v-6.072c0-1.11-.223-1.945-.67-2.507-.446-.562-1.088-.843-1.923-.843-.865 0-1.585.339-2.161 1.016-.562.662-.843 1.613-.843 2.852v5.554h-1.815v-6.072c0-1.11-.223-1.945-.67-2.507-.447-.562-1.088-.843-1.923-.843-.85 0-1.563.339-2.14 1.016-.562.662-.842 1.613-.842 2.852v5.554h-1.816zm19.331 4.754v-15.473h1.642l.173 1.772c.346-.518.836-.986 1.47-1.404.648-.418 1.469-.627 2.463-.627 1.066 0 1.996.245 2.788.735.792.49 1.405 1.16 1.837 2.01.446.85.67 1.815.67 2.895 0 1.081-.224 2.046-.67 2.896-.432.836-1.052 1.498-1.859 1.988-.792.476-1.721.713-2.787.713-.879 0-1.664-.18-2.356-.54-.677-.36-1.196-.864-1.556-1.513v6.548h-1.815zm5.532-6.072c.72 0 1.354-.166 1.902-.497.547-.346.979-.821 1.296-1.427.317-.605.476-1.311.476-2.117 0-.807-.159-1.513-.476-2.118-.317-.605-.749-1.073-1.296-1.405-.548-.345-1.182-.518-1.902-.518s-1.354.173-1.902.518c-.547.332-.979.8-1.296 1.405-.317.605-.476 1.311-.476 2.118 0 .806.159 1.512.476 2.117.317.606.749 1.081 1.296 1.427.548.331 1.182.497 1.902.497zm12.921 1.577c-1.008 0-1.916-.23-2.722-.691-.807-.461-1.448-1.11-1.924-1.945-.461-.85-.691-1.844-.691-2.982 0-1.138.237-2.125.713-2.961.475-.85 1.116-1.505 1.923-1.966.821-.461 1.736-.692 2.745-.692 1.008 0 1.916.231 2.722.692.807.461 1.441 1.116 1.902 1.966.476.836.713 1.823.713 2.961s-.237 2.132-.713 2.982c-.475.835-1.124 1.484-1.945 1.945-.807.461-1.714.691-2.723.691zm0-1.556c.62 0 1.196-.151 1.729-.453.533-.303.965-.757 1.297-1.362.331-.605.497-1.354.497-2.247 0-.894-.166-1.643-.497-2.248-.317-.605-.742-1.059-1.275-1.361-.533-.303-1.102-.454-1.707-.454-.62 0-1.196.151-1.729.454-.533.302-.965.756-1.297 1.361-.331.605-.497 1.354-.497 2.248 0 .893.166 1.642.497 2.247.332.605.757 1.059 1.275 1.362.533.302 1.102.453 1.707.453zm7.905 1.297v-10.719h1.643l.151 2.053c.331-.706.835-1.267 1.512-1.685.678-.418 1.513-.627 2.507-.627v1.902h-.497c-.634 0-1.217.115-1.75.346-.533.216-.958.59-1.275 1.123-.317.533-.476 1.268-.476 2.204v5.403h-1.815zM194.58 417.042c-.361 0-.663-.115-.908-.345-.231-.245-.346-.548-.346-.908 0-.346.115-.634.346-.864.245-.231.547-.346.908-.346.345 0 .641.115.886.346.244.23.367.518.367.864 0 .36-.123.663-.367.908-.245.23-.541.345-.886.345zm-.908 13.096v-10.719h1.815v10.719h-1.815zm4.976 0v-10.719h1.642l.108 1.924c.346-.677.843-1.21 1.491-1.599.649-.389 1.383-.584 2.204-.584 1.268 0 2.277.389 3.026 1.167.763.764 1.145 1.945 1.145 3.544v6.267h-1.815v-6.072c0-2.233-.922-3.35-2.766-3.35-.922 0-1.693.339-2.312 1.016-.605.662-.908 1.613-.908 2.852v5.554h-1.815zm17.293.259c-1.022 0-1.944-.23-2.766-.691-.806-.476-1.448-1.131-1.923-1.967-.461-.85-.691-1.837-.691-2.96 0-1.124.23-2.104.691-2.939.475-.85 1.117-1.506 1.923-1.967.822-.475 1.744-.713 2.766-.713 1.268 0 2.334.331 3.199.994.878.663 1.433 1.549 1.664 2.658h-1.859c-.144-.663-.497-1.174-1.059-1.534-.562-.375-1.217-.562-1.966-.562-.605 0-1.174.151-1.707.454-.533.302-.966.756-1.297 1.361-.331.605-.497 1.354-.497 2.248 0 .893.166 1.642.497 2.247.331.605.764 1.066 1.297 1.383.533.303 1.102.454 1.707.454.749 0 1.404-.18 1.966-.54.562-.375.915-.901 1.059-1.578h1.859c-.216 1.081-.764 1.959-1.643 2.637-.879.677-1.952 1.015-3.22 1.015zm8.5-13.355c-.36 0-.663-.115-.908-.345-.23-.245-.346-.548-.346-.908 0-.346.116-.634.346-.864.245-.231.548-.346.908-.346.346 0 .641.115.886.346.245.23.367.518.367.864 0 .36-.122.663-.367.908-.245.23-.54.345-.886.345zm-.908 13.096v-10.719h1.815v10.719h-1.815zm9.838.259c-1.066 0-2.002-.245-2.809-.734-.792-.49-1.412-1.16-1.858-2.01-.433-.85-.649-1.815-.649-2.896 0-1.08.224-2.038.67-2.874.447-.85 1.066-1.513 1.859-1.988.792-.49 1.728-.735 2.809-.735.879 0 1.657.18 2.334.54.677.361 1.203.865 1.577 1.513v-6.634h1.816v15.559h-1.643l-.173-1.772c-.345.519-.842.987-1.491 1.405-.648.417-1.462.626-2.442.626zm.195-1.577c.72 0 1.354-.166 1.901-.497.562-.346.995-.821 1.297-1.427.317-.605.475-1.311.475-2.117 0-.807-.158-1.513-.475-2.118-.302-.605-.735-1.073-1.297-1.405-.547-.345-1.181-.518-1.901-.518-.706 0-1.34.173-1.902.518-.547.332-.98.8-1.296 1.405-.303.605-.454 1.311-.454 2.118 0 .806.151 1.512.454 2.117.316.606.749 1.081 1.296 1.427.562.331 1.196.497 1.902.497zm9.615-11.778c-.36 0-.663-.115-.908-.345-.23-.245-.346-.548-.346-.908 0-.346.116-.634.346-.864.245-.231.548-.346.908-.346.345 0 .641.115.886.346.245.23.367.518.367.864 0 .36-.122.663-.367.908-.245.23-.541.345-.886.345zm-.908 13.096v-10.719h1.815v10.719h-1.815zm9.838.259c-1.066 0-2.002-.245-2.809-.734-.793-.49-1.412-1.16-1.859-2.01-.432-.85-.648-1.815-.648-2.896 0-1.08.223-2.038.67-2.874.447-.85 1.066-1.513 1.858-1.988.793-.49 1.729-.735 2.81-.735.879 0 1.656.18 2.334.54.677.361 1.203.865 1.577 1.513v-6.634h1.815v15.559h-1.642l-.173-1.772c-.346.519-.843.987-1.491 1.405-.648.417-1.462.626-2.442.626zm.195-1.577c.72 0 1.354-.166 1.901-.497.562-.346.994-.821 1.297-1.427.317-.605.475-1.311.475-2.117 0-.807-.158-1.513-.475-2.118-.303-.605-.735-1.073-1.297-1.405-.547-.345-1.181-.518-1.901-.518-.706 0-1.34.173-1.902.518-.548.332-.98.8-1.297 1.405-.302.605-.453 1.311-.453 2.118 0 .806.151 1.512.453 2.117.317.606.749 1.081 1.297 1.427.562.331 1.196.497 1.902.497zm12.424 1.577c-1.268 0-2.276-.382-3.026-1.145-.749-.778-1.123-1.967-1.123-3.566v-6.267h1.815v6.073c0 2.233.915 3.349 2.744 3.349.937 0 1.708-.331 2.313-.994.619-.677.929-1.635.929-2.874v-5.554h1.815v10.719h-1.642l-.13-1.923c-.331.677-.828 1.21-1.491 1.599-.648.389-1.383.583-2.204.583zm8.455-.259v-10.719h1.642l.108 1.924c.346-.677.843-1.21 1.491-1.599.649-.389 1.384-.584 2.205-.584 1.267 0 2.276.389 3.025 1.167.764.764 1.145 1.945 1.145 3.544v6.267h-1.815v-6.072c0-2.233-.922-3.35-2.766-3.35-.922 0-1.693.339-2.312 1.016-.605.662-.908 1.613-.908 2.852v5.554h-1.815zm16.602 0c-.98 0-1.75-.238-2.312-.713-.562-.476-.843-1.333-.843-2.572v-5.899h-1.858v-1.535h1.858l.238-2.571h1.577v2.571h3.155v1.535h-3.155v5.899c0 .677.137 1.138.411 1.383.274.231.756.346 1.448.346h1.123v1.556h-1.642zm13.752.259c-1.268 0-2.276-.382-3.025-1.145-.75-.778-1.124-1.967-1.124-3.566v-6.267h1.815v6.073c0 2.233.915 3.349 2.745 3.349.936 0 1.707-.331 2.312-.994.619-.677.929-1.635.929-2.874v-5.554h1.815v10.719h-1.642l-.13-1.923c-.331.677-.828 1.21-1.491 1.599-.648.389-1.383.583-2.204.583zm12.691-.259c-.98 0-1.751-.238-2.313-.713-.561-.476-.842-1.333-.842-2.572v-5.899h-1.859v-1.535h1.859l.237-2.571h1.578v2.571h3.155v1.535h-3.155v5.899c0 .677.137 1.138.41 1.383.274.231.757.346 1.448.346h1.124v1.556h-1.642zm9.84 0v-15.559h1.815v15.559h-1.815zm8.356.259c-.893 0-1.635-.151-2.226-.454-.59-.302-1.03-.705-1.318-1.21-.288-.504-.432-1.051-.432-1.642 0-1.095.418-1.938 1.253-2.528.836-.591 1.974-.886 3.415-.886h2.895v-.13c0-.937-.244-1.642-.734-2.118-.49-.49-1.146-.735-1.967-.735-.706 0-1.318.18-1.837.541-.504.345-.821.857-.95 1.534h-1.859c.072-.778.331-1.433.778-1.967.461-.533 1.03-.936 1.707-1.21.677-.288 1.398-.432 2.161-.432 1.499 0 2.622.403 3.371 1.21.764.793 1.146 1.852 1.146 3.177v6.591h-1.621l-.108-1.923c-.303.605-.749 1.123-1.34 1.556-.576.417-1.354.626-2.334.626zm.281-1.534c.692 0 1.282-.18 1.772-.54.504-.36.886-.829 1.146-1.405.259-.576.388-1.181.388-1.815v-.022h-2.744c-1.066 0-1.822.188-2.269.562-.432.36-.648.814-.648 1.362 0 .561.201 1.015.605 1.361.418.331 1.001.497 1.75.497zm13.572 1.534c-.879 0-1.664-.18-2.356-.54-.677-.36-1.196-.864-1.556-1.513l-.173 1.794h-1.642v-15.559h1.815v6.612c.346-.518.836-.986 1.47-1.404.648-.418 1.469-.627 2.463-.627 1.066 0 1.995.245 2.788.735.792.49 1.404 1.16 1.837 2.01.446.85.67 1.815.67 2.895 0 1.081-.224 2.046-.67 2.896-.433.836-1.052 1.498-1.859 1.988-.792.476-1.721.713-2.787.713zm-.195-1.577c.72 0 1.354-.166 1.902-.497.547-.346.979-.821 1.296-1.427.317-.605.476-1.311.476-2.117 0-.807-.159-1.513-.476-2.118-.317-.605-.749-1.073-1.296-1.405-.548-.345-1.182-.518-1.902-.518s-1.354.173-1.902.518c-.547.332-.979.8-1.296 1.405-.317.605-.476 1.311-.476 2.118 0 .806.159 1.512.476 2.117.317.606.749 1.081 1.296 1.427.548.331 1.182.497 1.902.497zm12.921 1.577c-1.008 0-1.916-.23-2.723-.691-.806-.461-1.447-1.11-1.923-1.945-.461-.85-.691-1.844-.691-2.982 0-1.138.237-2.125.713-2.961.475-.85 1.116-1.505 1.923-1.966.821-.461 1.736-.692 2.744-.692 1.009 0 1.917.231 2.723.692.807.461 1.441 1.116 1.902 1.966.475.836.713 1.823.713 2.961s-.238 2.132-.713 2.982c-.475.835-1.124 1.484-1.945 1.945-.807.461-1.714.691-2.723.691zm0-1.556c.62 0 1.196-.151 1.729-.453.533-.303.965-.757 1.297-1.362.331-.605.497-1.354.497-2.247 0-.894-.166-1.643-.497-2.248-.317-.605-.742-1.059-1.275-1.361-.533-.303-1.102-.454-1.708-.454-.619 0-1.195.151-1.728.454-.533.302-.966.756-1.297 1.361-.331.605-.497 1.354-.497 2.248 0 .893.166 1.642.497 2.247.331.605.756 1.059 1.275 1.362.533.302 1.102.453 1.707.453zm7.905 1.297v-10.719h1.642l.152 2.053c.331-.706.835-1.267 1.512-1.685.677-.418 1.513-.627 2.507-.627v1.902h-.497c-.634 0-1.217.115-1.75.346-.533.216-.958.59-1.275 1.123-.317.533-.476 1.268-.476 2.204v5.403h-1.815zm12.269.259c-1.023 0-1.931-.23-2.723-.691-.793-.476-1.419-1.131-1.88-1.967-.447-.835-.67-1.822-.67-2.96 0-1.124.223-2.104.67-2.939.446-.85 1.066-1.506 1.858-1.967.807-.475 1.736-.713 2.788-.713 1.037 0 1.93.238 2.679.713.764.461 1.347 1.074 1.751 1.837.403.764.605 1.585.605 2.464 0 .158-.007.317-.022.475v.54h-8.536c.044.821.231 1.506.562 2.053.346.533.771.937 1.275 1.21.519.274 1.066.411 1.643.411.749 0 1.375-.173 1.88-.519.504-.345.871-.814 1.102-1.404h1.793c-.288.994-.842 1.822-1.664 2.485-.806.648-1.844.972-3.111.972zm0-9.703c-.865 0-1.636.267-2.313.8-.662.519-1.044 1.282-1.145 2.291h6.742c-.043-.966-.374-1.722-.994-2.269-.619-.548-1.383-.822-2.29-.822zm18.022 9.703c-1.023 0-1.931-.23-2.723-.691-.792-.476-1.419-1.131-1.88-1.967-.447-.835-.67-1.822-.67-2.96 0-1.124.223-2.104.67-2.939.447-.85 1.066-1.506 1.858-1.967.807-.475 1.736-.713 2.788-.713 1.037 0 1.931.238 2.68.713.763.461 1.347 1.074 1.75 1.837.404.764.605 1.585.605 2.464 0 .158-.007.317-.021.475v.54h-8.536c.043.821.23 1.506.562 2.053.345.533.77.937 1.275 1.21.518.274 1.066.411 1.642.411.749 0 1.376-.173 1.88-.519.504-.345.872-.814 1.102-1.404h1.794c-.288.994-.843 1.822-1.664 2.485-.807.648-1.844.972-3.112.972zm0-9.703c-.864 0-1.635.267-2.312.8-.663.519-1.045 1.282-1.146 2.291h6.743c-.044-.966-.375-1.722-.994-2.269-.62-.548-1.383-.822-2.291-.822zm11.361 9.444c-.98 0-1.75-.238-2.312-.713-.562-.476-.843-1.333-.843-2.572v-5.899h-1.859v-1.535h1.859l.238-2.571h1.577v2.571h3.155v1.535h-3.155v5.899c0 .677.137 1.138.411 1.383.273.231.756.346 1.448.346h1.123v1.556h-1.642zM198.34 457.397c-1.066 0-2.003-.245-2.81-.734-.792-.49-1.411-1.16-1.858-2.01-.432-.85-.648-1.815-.648-2.896 0-1.08.223-2.038.67-2.874.446-.85 1.066-1.513 1.858-1.988.792-.49 1.729-.735 2.809-.735.879 0 1.657.18 2.334.54.677.361 1.203.865 1.578 1.513v-6.634h1.815v15.559h-1.642l-.173-1.772c-.346.519-.843.987-1.491 1.405-.649.417-1.463.626-2.442.626zm.194-1.577c.72 0 1.354-.166 1.902-.497.562-.346.994-.821 1.296-1.427.317-.605.476-1.311.476-2.117 0-.807-.159-1.513-.476-2.118-.302-.605-.734-1.073-1.296-1.405-.548-.345-1.182-.518-1.902-.518-.706 0-1.34.173-1.902.518-.547.332-.979.8-1.296 1.405-.303.605-.454 1.311-.454 2.118 0 .806.151 1.512.454 2.117.317.606.749 1.081 1.296 1.427.562.331 1.196.497 1.902.497zm13.397 1.577c-1.009 0-1.916-.23-2.723-.691-.807-.461-1.448-1.11-1.923-1.945-.461-.85-.692-1.844-.692-2.982 0-1.138.238-2.125.713-2.961.476-.85 1.117-1.505 1.924-1.966.821-.461 1.735-.692 2.744-.692 1.008 0 1.916.231 2.723.692.807.461 1.44 1.116 1.901 1.966.476.836.714 1.823.714 2.961s-.238 2.132-.714 2.982c-.475.835-1.123 1.484-1.944 1.945-.807.461-1.715.691-2.723.691zm0-1.556c.619 0 1.195-.151 1.729-.453.533-.303.965-.757 1.296-1.362.331-.605.497-1.354.497-2.247 0-.894-.166-1.643-.497-2.248-.317-.605-.742-1.059-1.275-1.361-.533-.303-1.102-.454-1.707-.454-.62 0-1.196.151-1.729.454-.533.302-.965.756-1.296 1.361-.332.605-.497 1.354-.497 2.248 0 .893.165 1.642.497 2.247.331.605.756 1.059 1.275 1.362.533.302 1.102.453 1.707.453zm7.905 1.297v-15.559h1.815v15.559h-1.815zm9.674.259c-1.009 0-1.916-.23-2.723-.691-.807-.461-1.448-1.11-1.923-1.945-.461-.85-.692-1.844-.692-2.982 0-1.138.238-2.125.713-2.961.476-.85 1.117-1.505 1.924-1.966.821-.461 1.736-.692 2.744-.692 1.009 0 1.916.231 2.723.692.807.461 1.441 1.116 1.902 1.966.475.836.713 1.823.713 2.961s-.238 2.132-.713 2.982c-.476.835-1.124 1.484-1.945 1.945-.807.461-1.715.691-2.723.691zm0-1.556c.619 0 1.196-.151 1.729-.453.533-.303.965-.757 1.296-1.362.332-.605.497-1.354.497-2.247 0-.894-.165-1.643-.497-2.248-.317-.605-.742-1.059-1.275-1.361-.533-.303-1.102-.454-1.707-.454-.619 0-1.196.151-1.729.454-.533.302-.965.756-1.296 1.361-.332.605-.497 1.354-.497 2.248 0 .893.165 1.642.497 2.247.331.605.756 1.059 1.275 1.362.533.302 1.102.453 1.707.453zm7.905 1.297v-10.719h1.642l.151 2.053c.332-.706.836-1.267 1.513-1.685.677-.418 1.513-.627 2.507-.627v1.902h-.497c-.634 0-1.218.115-1.751.346-.533.216-.958.59-1.275 1.123-.317.533-.475 1.268-.475 2.204v5.403h-1.815zm12.268.259c-1.023 0-1.93-.23-2.723-.691-.792-.476-1.419-1.131-1.88-1.967-.446-.835-.67-1.822-.67-2.96 0-1.124.224-2.104.67-2.939.447-.85 1.066-1.506 1.859-1.967.807-.475 1.736-.713 2.787-.713 1.038 0 1.931.238 2.68.713.764.461 1.347 1.074 1.75 1.837.404.764.606 1.585.606 2.464 0 .158-.008.317-.022.475v.54h-8.536c.043.821.231 1.506.562 2.053.346.533.771.937 1.275 1.21.519.274 1.066.411 1.642.411.749 0 1.376-.173 1.88-.519.505-.345.872-.814 1.102-1.404h1.794c-.288.994-.843 1.822-1.664 2.485-.807.648-1.844.972-3.112.972zm0-9.703c-.864 0-1.635.267-2.312.8-.663.519-1.045 1.282-1.145 2.291h6.742c-.043-.966-.375-1.722-.994-2.269-.62-.548-1.383-.822-2.291-.822zm13.204 9.444v-10.719h1.642l.13 1.556c.345-.576.806-1.023 1.383-1.339.576-.317 1.224-.476 1.944-.476.85 0 1.578.173 2.183.519.62.346 1.095.871 1.426 1.577.375-.648.886-1.159 1.535-1.534.662-.375 1.375-.562 2.139-.562 1.282 0 2.305.389 3.069 1.167.763.764 1.145 1.945 1.145 3.544v6.267h-1.794v-6.072c0-1.11-.223-1.945-.67-2.507-.446-.562-1.087-.843-1.923-.843-.864 0-1.585.339-2.161 1.016-.562.662-.843 1.613-.843 2.852v5.554h-1.815v-6.072c0-1.11-.223-1.945-.67-2.507-.446-.562-1.087-.843-1.923-.843-.85 0-1.563.339-2.139 1.016-.562.662-.843 1.613-.843 2.852v5.554h-1.815zm22.896.259c-.893 0-1.635-.151-2.226-.454-.591-.302-1.03-.705-1.318-1.21-.288-.504-.432-1.051-.432-1.642 0-1.095.417-1.938 1.253-2.528.836-.591 1.974-.886 3.414-.886h2.896v-.13c0-.937-.245-1.642-.735-2.118-.489-.49-1.145-.735-1.966-.735-.706 0-1.318.18-1.837.541-.504.345-.821.857-.951 1.534h-1.858c.072-.778.331-1.433.778-1.967.461-.533 1.03-.936 1.707-1.21.677-.288 1.397-.432 2.161-.432 1.498 0 2.622.403 3.371 1.21.764.793 1.145 1.852 1.145 3.177v6.591h-1.62l-.108-1.923c-.303.605-.75 1.123-1.34 1.556-.577.417-1.354.626-2.334.626zm.281-1.534c.691 0 1.282-.18 1.772-.54.504-.36.886-.829 1.145-1.405.259-.576.389-1.181.389-1.815v-.022h-2.744c-1.066 0-1.823.188-2.269.562-.433.36-.649.814-.649 1.362 0 .561.202 1.015.605 1.361.418.331 1.002.497 1.751.497zm12.08-2.096c-.605 0-1.16-.079-1.664-.238l-1.08 1.016c.158.115.353.216.583.302.245.072.591.144 1.037.216.447.058 1.074.123 1.88.195 1.441.101 2.471.432 3.091.994.619.562.929 1.297.929 2.204 0 .62-.173 1.21-.519 1.772-.331.562-.85 1.023-1.556 1.383-.691.36-1.584.54-2.679.54-.966 0-1.823-.129-2.572-.389-.749-.244-1.332-.626-1.75-1.145-.418-.504-.627-1.145-.627-1.923 0-.404.108-.843.324-1.318.216-.461.62-.901 1.21-1.319-.317-.129-.59-.266-.821-.41-.216-.159-.418-.331-.605-.519v-.497l1.837-1.815c-.85-.72-1.275-1.671-1.275-2.853 0-.705.166-1.347.497-1.923.331-.576.814-1.03 1.448-1.361.634-.346 1.404-.519 2.312-.519.62 0 1.181.087 1.686.259h3.954v1.362l-2.009.086c.417.605.626 1.304.626 2.096 0 .706-.173 1.347-.518 1.924-.332.576-.814 1.037-1.448 1.383-.62.331-1.383.497-2.291.497zm0-1.491c.764 0 1.369-.195 1.815-.584.461-.403.692-.979.692-1.729 0-.734-.231-1.296-.692-1.685-.446-.404-1.051-.605-1.815-.605-.778 0-1.397.201-1.858.605-.447.389-.67.951-.67 1.685 0 .75.223 1.326.67 1.729.461.389 1.08.584 1.858.584zm-3.155 6.245c0 .72.303 1.253.908 1.599.605.36 1.361.54 2.269.54.893 0 1.606-.194 2.139-.583.548-.389.821-.908.821-1.556 0-.461-.187-.864-.562-1.21-.374-.332-1.066-.526-2.074-.584-.793-.057-1.477-.129-2.053-.216-.591.317-.98.656-1.167 1.016-.187.374-.281.706-.281.994zm10.843-1.383v-10.719h1.642l.108 1.924c.346-.677.843-1.21 1.491-1.599.649-.389 1.383-.584 2.205-.584 1.267 0 2.276.389 3.025 1.167.764.764 1.145 1.945 1.145 3.544v6.267h-1.815v-6.072c0-2.233-.922-3.35-2.766-3.35-.922 0-1.693.339-2.312 1.016-.605.662-.908 1.613-.908 2.852v5.554h-1.815zm15.932.259c-.893 0-1.635-.151-2.226-.454-.59-.302-1.03-.705-1.318-1.21-.288-.504-.432-1.051-.432-1.642 0-1.095.418-1.938 1.253-2.528.836-.591 1.974-.886 3.415-.886h2.895v-.13c0-.937-.244-1.642-.734-2.118-.49-.49-1.146-.735-1.967-.735-.706 0-1.318.18-1.837.541-.504.345-.821.857-.95 1.534h-1.859c.072-.778.331-1.433.778-1.967.461-.533 1.03-.936 1.707-1.21.677-.288 1.398-.432 2.161-.432 1.498 0 2.622.403 3.371 1.21.764.793 1.146 1.852 1.146 3.177v6.591h-1.621l-.108-1.923c-.303.605-.749 1.123-1.34 1.556-.576.417-1.354.626-2.334.626zm.281-1.534c.692 0 1.282-.18 1.772-.54.504-.36.886-.829 1.145-1.405.26-.576.389-1.181.389-1.815v-.022h-2.744c-1.066 0-1.822.188-2.269.562-.432.36-.648.814-.648 1.362 0 .561.201 1.015.605 1.361.418.331 1.001.497 1.75.497zm17.13 1.534c-.894 0-1.636-.151-2.226-.454-.591-.302-1.03-.705-1.318-1.21-.289-.504-.433-1.051-.433-1.642 0-1.095.418-1.938 1.254-2.528.835-.591 1.973-.886 3.414-.886h2.896v-.13c0-.937-.245-1.642-.735-2.118-.49-.49-1.145-.735-1.966-.735-.706 0-1.319.18-1.837.541-.505.345-.821.857-.951 1.534h-1.859c.072-.778.332-1.433.778-1.967.461-.533 1.03-.936 1.708-1.21.677-.288 1.397-.432 2.161-.432 1.498 0 2.622.403 3.371 1.21.763.793 1.145 1.852 1.145 3.177v6.591h-1.621l-.108-1.923c-.302.605-.749 1.123-1.34 1.556-.576.417-1.354.626-2.333.626zm.28-1.534c.692 0 1.283-.18 1.772-.54.505-.36.886-.829 1.146-1.405.259-.576.389-1.181.389-1.815v-.022h-2.745c-1.066 0-1.822.188-2.269.562-.432.36-.648.814-.648 1.362 0 .561.202 1.015.605 1.361.418.331 1.001.497 1.75.497zm7.845 1.275v-15.559h1.815v15.559H347.3zm5.893-13.096c-.36 0-.663-.115-.908-.345-.23-.245-.346-.548-.346-.908 0-.346.116-.634.346-.864.245-.231.548-.346.908-.346.346 0 .641.115.886.346.245.23.367.518.367.864 0 .36-.122.663-.367.908-.245.23-.54.345-.886.345zm-.908 13.096v-10.719h1.815v10.719h-1.815zm13.771 4.754v-6.526c-.346.519-.843.987-1.491 1.405-.648.417-1.462.626-2.442.626-1.066 0-2.002-.245-2.809-.734-.792-.49-1.412-1.16-1.859-2.01-.432-.85-.648-1.815-.648-2.896 0-1.08.223-2.038.67-2.874.447-.85 1.066-1.513 1.859-1.988.792-.49 1.728-.735 2.809-.735.879 0 1.657.18 2.334.54.677.361 1.203.865 1.577 1.513l.173-1.794h1.642v15.473h-1.815zm-3.738-6.072c.72 0 1.354-.166 1.901-.497.562-.346.994-.821 1.297-1.427.317-.605.475-1.311.475-2.117 0-.807-.158-1.513-.475-2.118-.303-.605-.735-1.073-1.297-1.405-.547-.345-1.181-.518-1.901-.518-.706 0-1.34.173-1.902.518-.547.332-.98.8-1.297 1.405-.302.605-.453 1.311-.453 2.118 0 .806.151 1.512.453 2.117.317.606.75 1.081 1.297 1.427.562.331 1.196.497 1.902.497zm12.424 1.577c-1.268 0-2.276-.382-3.026-1.145-.749-.778-1.123-1.967-1.123-3.566v-6.267h1.815v6.073c0 2.233.915 3.349 2.744 3.349.937 0 1.708-.331 2.313-.994.619-.677.929-1.635.929-2.874v-5.554h1.815v10.719h-1.642l-.13-1.923c-.331.677-.828 1.21-1.491 1.599-.648.389-1.383.583-2.204.583zm12.021 0c-.893 0-1.635-.151-2.226-.454-.591-.302-1.03-.705-1.318-1.21-.288-.504-.433-1.051-.433-1.642 0-1.095.418-1.938 1.254-2.528.835-.591 1.974-.886 3.414-.886h2.896v-.13c0-.937-.245-1.642-.735-2.118-.49-.49-1.145-.735-1.966-.735-.706 0-1.318.18-1.837.541-.504.345-.821.857-.951 1.534h-1.858c.072-.778.331-1.433.778-1.967.461-.533 1.03-.936 1.707-1.21.677-.288 1.397-.432 2.161-.432 1.498 0 2.622.403 3.371 1.21.763.793 1.145 1.852 1.145 3.177v6.591h-1.621l-.108-1.923c-.302.605-.749 1.123-1.339 1.556-.577.417-1.355.626-2.334.626zm.281-1.534c.691 0 1.282-.18 1.772-.54.504-.36.886-.829 1.145-1.405.259-.576.389-1.181.389-1.815v-.022h-2.745c-1.066 0-1.822.188-2.269.562-.432.36-.648.814-.648 1.362 0 .561.202 1.015.605 1.361.418.331 1.001.497 1.751.497z"/>
    </g>
    <rect width="21.0266" height="21.0266" x="141.414" y="211.415" fill="#00DC82" rx="8.62721" transform="rotate(180 141.414 211.415)"/>
    <rect width="21.0266" height="21.0266" x="141.414" y="137.822" fill="#28AAF0" rx="8.62721" transform="rotate(180 141.414 137.822)"/>
    <rect width="21.0266" height="21.0266" x="141.414" y="174.619" fill="#FF6446" rx="8.62721" transform="rotate(180 141.414 174.619)"/>
    <rect width="21.0266" height="21.0266" x="141.414" y="101.026" fill="#B7E1ED" rx="8.62721" transform="rotate(180 141.414 101.026)"/>
    <rect width="21.0266" height="21.0266" x="104.618" y="211.416" fill="#BDD44F" rx="8.62721" transform="rotate(180 104.618 211.416)"/>
    <rect width="21.0266" height="21.0266" x="104.618" y="137.822" fill="#00E5E5" rx="8.62721" transform="rotate(180 104.618 137.822)"/>
    <rect width="21.0266" height="21.0266" x="104.618" y="174.619" fill="#FA789F" rx="8.62721" transform="rotate(180 104.618 174.619)"/>
    <rect width="21.0266" height="21.0266" x="104.618" y="101.026" fill="#D1E2E2" rx="8.62721" transform="rotate(180 104.618 101.026)"/>
    <rect width="21.0266" height="21.0266" x="67.8213" y="211.416" fill="#FFE65A" rx="8.62721" transform="rotate(180 67.8213 211.416)"/>
    <rect width="21.0266" height="21.0266" x="67.8213" y="137.822" fill="#A8DDDB" rx="8.62721" transform="rotate(180 67.8213 137.822)"/>
    <rect width="21.0266" height="21.0266" x="67.8213" y="174.619" fill="#C26BBE" rx="8.62721" transform="rotate(180 67.8213 174.619)"/>
    <rect width="21.0266" height="21.0266" x="67.8213" y="101.026" fill="#D4D4D4" rx="8.62721" transform="rotate(180 67.8213 101.026)"/>
    <rect width="21.0266" height="21.0266" x="31.0254" y="211.416" fill="#F48B00" rx="8.62721" transform="rotate(180 31.0254 211.416)"/>
    <rect width="21.0266" height="21.0266" x="31.0254" y="137.823" fill="#DEDEB6" rx="8.62721" transform="rotate(180 31.0254 137.823)"/>
    <rect width="21.0266" height="21.0266" x="31.0254" y="174.619" fill="#0064C8" rx="8.62721" transform="rotate(180 31.0254 174.619)"/>
    <rect width="21.0266" height="21.0266" x="31.0254" y="101.026" fill="#fff" rx="8.62721" transform="rotate(180 31.0254 101.026)"/>
    <path fill="#00DC82" d="M152.804 338.286l-28.711 2.464c-3.163.733-29.9312 3.211-31.4062 3.358l11.4652 13.519 50.732-18.853c-.599-.389-1.331-.561-2.08-.488z"/>
    <path fill="#33E39B" d="M156.151 342.23c.364-1.361-.138-2.732-1.265-3.456l-51.191 18.164 10.385 12.244 26.477 31.217 15.594-58.169z"/>
    <path fill="#00DC82" d="M77.1001 402.35l7.1512-27.885c1.2434-2.996 8.0895-28.964 8.4766-30.394l11.4651 13.519-26.9533 46.89c-.2859-.655-.335-1.403-.1396-2.13z"/>
    <path fill="#33E39B" d="M80.6473 406.121c-1.4043.136-2.6751-.584-3.2049-1.814l26.3496-47.452 10.385 12.244 26.477 31.217-60.0067 5.805z"/>
    <path fill="#99F1CD" d="M140.554 400.399l-24.759 2.43 11.027-54.012 14.93-5.477 6.576 28.058-7.774 29.001z" opacity=".75"/>
    <path fill="#00DC82" d="M157.257 381.034l.95 11.043c.282 1.216 1.237 11.512 1.294 12.079l5.211-4.41-7.267-19.512c-.15.23-.216.511-.188.8z"/>
    <path fill="#33E39B" d="M158.782 379.747c-.525-.14-1.053.053-1.332.487l7.002 19.688 4.719-3.994 12.034-10.183-22.423-5.998z"/>
    <path fill="#00DC82" d="M181.954 410.149l-10.75-2.75c-1.154-.479-11.165-3.112-11.716-3.26l5.211-4.41 18.075 10.366c-.252.11-.54.129-.82.054z"/>
    <path fill="#33E39B" d="M183.407 408.783c.052.541-.226 1.029-.7 1.233l-18.292-10.134 4.72-3.994 12.034-10.183 2.238 23.078z"/>
    <path fill="#99F1CD" d="M181.202 385.744l.936 9.522-20.82-4.241-2.111-5.742 10.816-2.529 11.179 2.99z" opacity=".75"/>
    <path fill="#00DC82" d="M171.951 346.551l-5.045 6.484c-.459.803-5.124 6.883-5.379 7.22l5.055.22 5.874-14.264c-.197.05-.375.17-.505.34z"/>
    <path fill="#33E39B" d="M173.426 346.615c-.215-.34-.599-.501-.969-.405l-6.108 14.226 4.579.199 11.673.509-9.175-14.529z"/>
    <path fill="#00DC82" d="M170.72 374.793l-4.461-6.897c-.387-.84-4.505-7.302-4.73-7.66l5.055.22 4.61 14.72c-.193-.067-.359-.201-.474-.383z"/>
    <path fill="#33E39B" d="M172.197 374.782c-.244.32-.641.447-1.002.319l-4.844-14.703 4.578.2 11.673.508-10.405 13.676z"/>
    <path fill="#99F1CD" d="M182.601 361.145l-4.286 5.649-9.188-12.768 1.744-4.184 7.156 4.059 4.574 7.244z" opacity=".75"/>
    <path fill="#33E39B" d="M25.6084 404.316c-1.0187-.272-2.0441.102-2.5859.944l13.5919 38.217 9.1623-7.753 23.3592-19.766-43.5275-11.642z"/>
    <path fill="#99F1CD" d="M69.1309 415.959l1.8181 18.485-40.4168-8.232-4.0979-11.147 20.9956-4.91 21.701 5.804z" opacity=".75"/>
  </g>
  <defs>
    <clipPath id="clip0">
      <path fill="#fff" d="M0 0h500v400H0z"/>
    </clipPath>
    <clipPath id="clip1">
      <rect width="290.902" height="306.212" x="131.208" y="132.311" fill="#fff" rx="13.5062"/>
    </clipPath>
  </defs>
</svg>
