<svg width="213" height="65" viewBox="0 0 213 65" fill="none" xmlns="http://www.w3.org/2000/svg">
<path d="M74.4287 20.5005H80.6826L93.9363 42.4764V20.5005H99.7093V51.6393H93.4982L80.2017 29.7091V51.6393H74.4287V20.5005Z" fill="white"/>
<path d="M125.513 51.6393H120.134V48.1611C118.909 50.6089 116.417 51.9871 113.268 51.9871C108.282 51.9871 105.044 48.3393 105.044 43.0894V29.2178H110.424V41.9416C110.424 45.0111 112.262 47.1459 115.017 47.1459C118.035 47.1459 120.134 44.7437 120.134 41.4524V29.2178H125.513V51.6393Z" fill="white"/>
<path d="M144.235 51.2848L139.074 43.811L133.912 51.2848H128.182L136.143 39.5849L128.795 28.8633H134.656L139.074 35.3154L143.447 28.8633H149.352L141.959 39.5849L149.921 51.2848H144.235Z" fill="white"/>
<path d="M160.855 22.4565V29.2173H166.978V33.7999H160.855V44.9302C160.855 45.304 161 45.6626 161.26 45.9271C161.52 46.1916 161.872 46.3405 162.24 46.3411H166.978V51.6302H163.434C158.623 51.6302 155.475 48.7824 155.475 43.8042V33.8043H151.145V29.2173H153.861C155.129 29.2173 155.866 28.45 155.866 27.1804V22.4565H160.855Z" fill="white"/>
<path d="M180.54 44.5872V20.5005H186.311V42.7416C186.311 48.748 183.468 51.6393 178.657 51.6393H171.939V46.3502H178.807C179.266 46.3502 179.707 46.1645 180.032 45.8339C180.358 45.5032 180.54 45.0548 180.54 44.5872" fill="white"/>
<path d="M189.77 41.1847H195.327C195.634 44.6629 197.909 46.8781 201.583 46.8781C204.864 46.8781 207.14 45.5455 207.14 42.7869C207.14 36.113 190.682 40.739 190.682 28.8174C190.686 23.7023 195.017 20.1479 201.239 20.1479C207.713 20.1479 212.086 23.9283 212.353 29.7565H206.826C206.565 27.0435 204.475 25.2196 201.228 25.2196C198.21 25.2196 196.329 26.6435 196.329 28.8218C196.329 35.7174 213 30.5609 213 42.7021C213 48.4846 208.32 51.9998 201.585 51.9998C194.63 51.9998 190.082 47.7281 189.776 41.189" fill="white"/>
<path fill-rule="evenodd" clip-rule="evenodd" d="M33.0914 21.9191L28.7966 14.261C27.1819 11.3817 23.1449 11.3817 21.5301 14.261L3.93161 45.641C2.31683 48.5204 4.3353 52.1195 7.56485 52.1195H15.4749C15.4958 52.0818 15.5172 52.0443 15.539 52.0068L33.0914 21.9191Z" fill="white"/>
<path d="M39.9477 21.1443C41.2841 18.7885 44.625 18.7885 45.9614 21.1443L60.5257 46.8188C61.8621 49.1746 60.1916 52.1194 57.5189 52.1194H28.3902C25.7175 52.1194 24.0471 49.1746 25.3834 46.8188L39.9477 21.1443Z" fill="white"/>
</svg>
