<svg width="160" height="160" viewBox="0 0 160 160" fill="none" xmlns="http://www.w3.org/2000/svg">
<path d="M79.8937 63.0267C92.2744 63.0267 102.311 52.7029 102.311 39.9677C102.311 27.2326 92.2744 16.9087 79.8937 16.9087C67.5131 16.9087 57.4766 27.2326 57.4766 39.9677C57.4766 52.7029 67.5131 63.0267 79.8937 63.0267Z" fill="black"/>
<path d="M79.8937 142.631C92.2744 142.631 102.311 132.307 102.311 119.572C102.311 106.837 92.2744 96.5127 79.8937 96.5127C67.5131 96.5127 57.4766 106.837 57.4766 119.572C57.4766 132.307 67.5131 142.631 79.8937 142.631Z" fill="black"/>
<path d="M118.583 102.828C130.964 102.828 141 92.5041 141 79.769C141 67.0338 130.964 56.71 118.583 56.71C106.203 56.71 96.166 67.0338 96.166 79.769C96.166 92.5041 106.203 102.828 118.583 102.828Z" fill="black"/>
<path d="M41.1906 102.828C53.5713 102.828 63.6078 92.5041 63.6078 79.769C63.6078 67.0338 53.5713 56.71 41.1906 56.71C28.81 56.71 18.7734 67.0338 18.7734 79.769C18.7734 92.5041 28.81 102.828 41.1906 102.828Z" fill="black"/>
</svg>
