<svg width="1440" height="149" fill="none" preserveAspectRatio="none" xmlns="http://www.w3.org/2000/svg"><path d="M477.758 0h60.561l32.533 5.24624c4.838 1.07615 16.116 3.34952 22.523 3.83379 6.406.48427 41.708.20178 58.559 0 10.177 3.09397 32.833 9.80647 42.042 11.90497 9.209 2.0985 36.537-2.2196 49.049-4.6409l28.733 5.4229h34.511l24.345-.782 38.676 4.1507h8.003l59.428-4.1507 29.029 5.8515h131.12l39.51 10.089 63.02 7.3858 59.52-7.3858 38.01 7.3858 47.02-7.3858H1497V149l-423.14-30.556-108.11 6.457H331.611L0 146.15V9.08003H34.0114L77.5259 20.985 124.542 9.08003h72.024l63.021 7.26407h83.027l58.02-7.26407L477.758 0z" fill="#F9FAFB"/></svg>