<svg width="1440" height="250" preserveAspectRatio="none" fill="none" xmlns="http://www.w3.org/2000/svg">
<path d="M188.857 37.9557l3.902-3.9732 11.262-7.8463c4.229-2.9465 9.809-3.7542 14.738-2.4664 9.451 2.4693 24.021 5.8769 24.999 5.3457.597-.3241 2.23-1.9651 4.174-3.9178 2.64-2.6519 5.852-5.8788 7.816-7.1625l11.671-5.9222c3.384-1.5018 7.299-.7104 9.905 2.0023l.646.6723 4.428 4.872 7.803 1.5727c.783.1578 1.506.5467 2.085 1.1209l4.214 4.1827c1.842 1.8276 4.697 1.927 6.651.2315l.59-.5128c1.33-1.1541 3.201-1.3329 4.708-.45l5.652 3.3109 9.113 4.967h1.52c3.997 0 7.785 1.872 10.325 5.1031l.945 1.2011h7.354c3.957 0 7.822-1.2527 11.087-3.5936l2.782-1.9943c.65-.4666 1.421-.7163 2.21-.7163h8.062c1.011 0 1.967.4783 2.601 1.3012l6.511 8.4417 6.714-3.4387 12.31 3.4387h13.11l18.238 4.6371 19.971-10.5593h14.708l14.548 2.4835 10.383-10.7647c.313-.3245.735-.5065 1.176-.5065h10.024l10.871-7.6416 13.749-3.4387 11.67-8.40565 18.066-8.02361c5.403-2.58258 11.73-1.802271 16.412 2.02407l.424.34634 30.166 17.49755 11.67 7.6416 18.699 3.0047 11.148-3.0047.986-1.111c1.259-1.4198 3.381-1.4977 4.733-.1737l3.961 3.8802 7.499.4092 2.269-1.9689c4.614-4.0031 10.419-6.1939 16.412-6.1939l7.034-2.4835 14.868-8.9788h11.991l18.705 5.5401 6.394 5.9222 16.147 2.4835 4.317 7.6416h26.858l9.77-4.2677 13.436-14.2862c1.78-1.8928 4.352-2.7185 6.84-2.1958l10.234 4.7024 12.303 5.9222 7.049-8.4057 4.149-3.659c1.415-1.2485 3.531-1.0552 4.718.4314l4.562 5.7111 3.837 8.4057 9.794 4.7187c1.528.7362 2.979 1.6369 4.328 2.6876l5.702 4.4381 5.874-1.6971c5.446-1.5731 11.282-.3061 15.681 3.4043l1.147.9673h5.26c1.446 0 2.888.1091 4.316.3258l12.2-6.231.441-.3228c4.866-3.566 11.223-4.0005 16.49-1.127l17.642 8.9972 11.237 9.0302 13.559 4.1833 10.477 8.2236 10.012.5462c.44.024.85.2288 1.15.57l4.02 4.6303 17.89 5.2948 2.57-.2966 14.69.8015 15.2 9.1054 6.81 2.0166 15.85-3.1257 13.1.7144 12.46-2.7633 6.53 3.8 6.93-8.0755c.67-.7873 1.65-1.2128 2.66-1.1578l8.05.4394c.79.043 1.54.3344 2.17.8359l2.68 2.1431c3.14 2.5157 6.94 3.9773 10.89 4.1929l7.35.4008 1-1.1481c2.7-3.0883 6.57-4.7514 10.56-4.5336l1.52.0829 9.35-4.4637 5.81-2.9983c1.55-.7996 3.41-.5191 4.68.7058l.56.5443c1.87 1.7997 4.73 1.8561 6.66.1313l4.41-3.9474c.61-.5418 1.35-.8908 2.14-1.0058l7.87-1.1454 4.66-4.6241.68-.6362c2.74-2.5669 6.69-3.1439 9.99-1.4597l11.36 6.5501c1.9 1.389 4.95 4.7866 7.45 7.5788 1.85 2.056 3.4 3.7837 3.98 4.1398.95.5838 15.67-2.0251 25.23-3.976 4.99-1.0175 10.52.0931 14.59 3.2661l10.86 8.4493 3.7 4.1805c2.43 2.7459 5.42 4.8837 8.75 6.2548l7.72 4.9731 4.12 2.66h8.53l6.76-2.66h9.06l26.77-25.851c2.1-2.0282 5.48-1.8332 7.33.4228l11.67 14.2003 11.12 3.3848 8.27 7.8431 9.18 8.985 5.92 6.731 6.42 4.327 6.42 3.846V170H568.257l-208.05-10.234-167.448.493L0 159.75V98.3808l7.27319 3.0912 10.72841-3.0786 7.947-5.624h4.8422l6.7585-3.644 3.8399-3.432 6.811-2.9234 8.7418 7.2206 5.0226-4.2972 4.7463-1.7771 6.3731-6.3132 4.5201-6.6918 8.3443-5.8235 8.7418-7.4873 16.6888-13.8751 20.357 13.8751 32.152-4.7845 15.923-9.0906c3.39-1.1879 6.482-3.1599 9.046-5.7697z" fill="#003543"/>
<path d="M448.758 101h60.561l32.533 5.246c4.838 1.076 16.116 3.35 22.523 3.834 6.406.484 41.708.202 58.559 0 10.177 3.094 32.833 9.806 42.042 11.905 9.209 2.098 36.537-2.22 49.049-4.641l28.733 5.423h34.511l24.345-.782 38.676 4.151h8.003l59.428-4.151 29.029 5.852h131.12l39.51 10.088 63.02 7.386 59.52-7.386 38.01 7.386 47.02-7.386H1468V250l-423.14-30.556-108.11 6.457H302.611L-29 247.15V110.08H5.01136l43.51454 11.905 47.0157-11.905h72.0244l63.021 7.264h83.027l58.02-7.264 77.124-9.08z" fill="#012A35"/>
</svg>