<svg fill="none" viewBox="0 0 24 24">
  <path opacity=".4" d="M10.23 14.868l-3.97 1.364c-.274.094-.565-.021-.665-.264l-.274-.66-2.003.83a.5.5 0 01-.653-.27l-.627-1.514a.5.5 0 01.27-.653l2.004-.83-.273-.66c-.1-.242.023-.53.283-.657l9.566-4.675 2.442 5.894-2.082.715a2.25 2.25 0 00-4.499.012c.003.497.172.979.48 1.368z" fill="currentColor"/>
  <path d="M21.962 10.776l-2.679-6.467a.5.5 0 00-.653-.271l-3.666 1.519a.5.5 0 00-.27.653l2.678 6.467a.5.5 0 00.653.27l3.666-1.518a.502.502 0 00.27-.653zm-8.208 4.115a2.227 2.227 0 00-.164-2.982A2.25 2.25 0 009.75 13.5c.001.507.176.998.495 1.392l-1.483 4.45a.5.5 0 00.474.658h.527a.5.5 0 00.475-.342l1.317-3.953c.294.06.596.06.89 0l1.317 3.953a.5.5 0 00.474.342h.527a.5.5 0 00.475-.658l-1.484-4.451zm-1.755-.641a.75.75 0 110-1.5.75.75 0 010 1.5z" fill="currentColor"/>
</svg>