<svg fill="none" viewBox="0 0 24 24">
<path opacity=".4" d="M12 2C6.476 2 2 6.476 2 12s4.476 10 10 10 10-4.476 10-10S17.524 2 12 2zm5.086 5.97l-2.661 5.82a1.288 1.288 0 01-.636.636l-5.821 2.661c-.672.307-1.364-.385-1.057-1.056l2.662-5.82c.128-.282.354-.508.636-.636l5.82-2.662c.671-.306 1.363.385 1.056 1.057h.001z" fill="currentColor"/>
<path d="M16.032 6.913l-5.82 2.661a1.288 1.288 0 00-.636.636l-2.661 5.822c-.307.671.385 1.363 1.056 1.057l5.82-2.662c.282-.129.508-.355.636-.637l2.662-5.82c.304-.672-.387-1.363-1.057-1.057zm-3.12 5.999a1.29 1.29 0 11-1.825-1.825 1.29 1.29 0 011.825 1.825z" fill="currentColor"/>
</svg>
