<svg fill="none" viewBox="0 0 24 24"><path opacity=".4" fill-rule="evenodd" clip-rule="evenodd" d="M20.336 13.589l.641 1.689c.092.444-.091.978-.55 1.155L4.942 21.944c-.458.178-1.008-.089-1.191-.533l-.642-1.689c-.183-.444.092-.978.55-1.155L6.683 17.5l-3.024-1.067c-.458-.177-.733-.71-.641-1.155l.641-1.689c.183-.444.733-.711 1.191-.533l4.673 1.6 2.474.888.459-.177 2.29-.8 4.399-1.511c.458-.178 1.007.089 1.19.533zm-.276 4.8l.367.178c.458.177.641.622.55 1.066l-.642 1.69c-.183.444-.733.71-1.191.532l-4.398-1.6 5.314-1.866z" fill="currentColor"/><path d="M16.575 6.43a4.68 4.68 0 00-1.177-1.544l-.414-.359a.118.118 0 00-.104-.024.117.117 0 00-.05.025.109.109 0 00-.03.044l-.185.5c-.115.314-.327.634-.626.95a.091.091 0 01-.059.026.081.081 0 01-.06-.02.077.077 0 01-.03-.064c.053-.808-.202-1.718-.762-2.71a4.906 4.906 0 00-1.91-1.913l-.587-.326c-.077-.043-.175.013-.17.098l.03.643c.022.44-.032.83-.16 1.153-.156.395-.38.763-.667 1.093a4.1 4.1 0 01-.675.618 4.8 4.8 0 00-1.425 1.63A4.452 4.452 0 007 8.32c0 .632.132 1.245.393 1.823a4.685 4.685 0 001.073 1.488c.46.429.994.767 1.59 1.002.616.244 1.27.367 1.944.367a5.28 5.28 0 001.945-.366 4.98 4.98 0 001.59-1.002c.46-.43.82-.93 1.072-1.487A4.395 4.395 0 0017 8.32a4.4 4.4 0 00-.425-1.89z" fill="currentColor"/></svg>