<svg fill="none" viewBox="0 0 24 24"><path fill-rule="evenodd" clip-rule="evenodd" d="M12.041 2C6.52 2 2 6.612 2 12.25c0 4.526 2.845 8.37 6.862 9.737.502.085.669-.257.669-.513v-1.708c-2.761.598-3.347-1.367-3.347-1.367-.419-1.196-1.088-1.537-1.088-1.537-1.004-.598 0-.598 0-.598 1.004.085 1.506 1.025 1.506 1.025.92 1.537 2.343 1.11 2.929.854.084-.683.335-1.11.67-1.367-2.26-.256-4.603-1.11-4.603-5.039 0-1.11.419-2.05 1.004-2.733 0-.342-.418-1.367.168-2.733 0 0 .836-.257 2.761 1.025.837-.257 1.673-.342 2.51-.342.837 0 1.674.085 2.51.342 1.925-1.367 2.762-1.025 2.762-1.025.586 1.452.167 2.477.084 2.733.669.683 1.004 1.623 1.004 2.733 0 3.93-2.343 4.783-4.602 5.04.334.341.669.939.669 1.878v2.82c0 .255.167.597.67.512 4.016-1.367 6.86-5.21 6.86-9.737C22.083 6.611 17.565 2 12.042 2z" fill="currentColor"/></svg>