<svg fill="none" viewBox="0 0 24 24"><path fill-rule="evenodd" clip-rule="evenodd" d="M12 3.802c2.67 0 2.987.01 4.04.058 1.14.052 2.195.28 3.008 1.093.812.812 1.04 1.868 1.092 3.006.048 1.054.058 1.371.058 4.041 0 2.67-.01 2.987-.058 4.04-.052 1.14-.28 2.195-1.092 3.008-.813.812-1.869 1.04-3.007 1.092-1.054.048-1.37.058-4.04.058s-2.988-.01-4.042-.058c-1.138-.052-2.194-.28-3.006-1.092-.813-.813-1.041-1.869-1.093-3.007-.048-1.054-.058-1.37-.058-4.04s.01-2.988.058-4.042c.052-1.138.28-2.194 1.093-3.006.812-.813 1.868-1.041 3.006-1.093C9.013 3.812 9.33 3.802 12 3.802zM12 2c-2.716 0-3.057.012-4.123.06-1.625.074-3.053.473-4.199 1.618C2.533 4.824 2.134 6.252 2.06 7.877 2.012 8.943 2 9.284 2 12s.012 3.057.06 4.123c.074 1.625.473 3.053 1.618 4.199 1.146 1.146 2.574 1.544 4.199 1.618 1.066.048 1.407.06 4.123.06s3.057-.012 4.123-.06c1.625-.074 3.053-.473 4.199-1.618 1.146-1.146 1.544-2.574 1.618-4.199.048-1.066.06-1.407.06-4.123s-.012-3.057-.06-4.123c-.074-1.625-.473-3.053-1.618-4.199-1.146-1.145-2.574-1.544-4.199-1.618C15.057 2.012 14.716 2 12 2z" fill="currentColor"/><path fill-rule="evenodd" clip-rule="evenodd" d="M12 6.865a5.135 5.135 0 100 10.27 5.135 5.135 0 000-10.27zm0 8.468a3.333 3.333 0 110-6.667 3.333 3.333 0 010 6.667z" fill="currentColor"/><circle cx="17.338" cy="6.662" r="1.2" fill="currentColor"/></svg>