<svg fill="none" viewBox="0 0 24 24"><path opacity=".4" d="M6 4H4a1 1 0 00-1 1v2h4V5a1 1 0 00-1-1zM3 16h4V8H3v8zm0 3a1 1 0 001 1h2a1 1 0 001-1v-2H3v2zm16.051-.555l-3.517-13.11-1.883.504 3.511 13.088a.827.827 0 01.01.037l1.883-.505-.004-.014zm-11.05.556a1 1 0 001 1h2a1 1 0 001-1v-2H8v2zm3-15H9a1 1 0 00-1 1v2H11.9l-.25-.927a.748.748 0 01.349-.844V5A1 1 0 0011 4zM8 16h4V8H8v8z" fill="currentColor"/><path d="M3 17h4v-1H3v1zm0-9h4V7H3v1zm17.975 9.927L17.388 4.556a.747.747 0 00-.912-.531h-.003l-.481.131a.75.75 0 00-.528.918l3.587 13.371a.747.747 0 00.912.531h.003l.48-.131a.75.75 0 00.529-.918zM8 17.001h4v-1H8v1zm5.575-11.445a.746.746 0 00-.912-.531h-.003l-.48.132a.75.75 0 00-.529.917l.25.927h-3.9v1h4v-.626l3.238 12.07a.747.747 0 00.911.531h.003l.48-.131a.75.75 0 00.529-.917L13.575 5.556z" fill="currentColor"/></svg>