<svg viewBox="0 0 24 24" version="1.1" xmlns="http://www.w3.org/2000/svg"><path d="M5.843 4.568a8.707 8.707 0 0112.314 12.314l-1.187 1.174c-.875.859-2.01 1.963-3.406 3.312a2.25 2.25 0 01-3.128 0l-3.491-3.396c-.439-.43-.806-.794-1.102-1.09a8.707 8.707 0 010-12.314zM17.096 5.63A7.207 7.207 0 006.904 15.822l1.487 1.467c.819.802 1.848 1.802 3.088 3a.75.75 0 001.043.001l3.394-3.301c.47-.46.863-.85 1.18-1.167a7.207 7.207 0 000-10.193zM12 7.999a3.002 3.002 0 110 6.003A3.002 3.002 0 0112 8zm0 1.5a1.502 1.502 0 100 3.003A1.502 1.502 0 0012 9.5z" fill="#212121" fill-rule="nonzero" stroke="none" stroke-width="1"/></svg>