<svg fill="none" xmlns="http://www.w3.org/2000/svg" viewBox="0 0 16 16">
<title>send</title>
<g clip-path="url(#clip0)"><path d="M14.5.134L.5 8.21A1 1 0 00.618 10L5 11.813V15c0 .944 1.18 1.353 1.771.634l1.897-2.306 3.95 1.631a.999.999 0 001.37-.771l2-13.035C16.114.32 15.217-.28 14.5.134zM6 15v-2.775l1.703.703L6 15zm7-.966l-6.444-2.662 6.234-7.369c.15-.175-.09-.412-.265-.262l-7.979 6.8L1 9.078 15 1l-2 13.034z" fill="currentColor"/></g><defs><clipPath id="clip0"><path fill="#currentColor" d="M0 0h16v16H0z"/></clipPath></defs></svg>