<svg fill="none" viewBox="0 0 24 24"><path d="M12 2C6.477 2 2 6.477 2 12s4.477 10 10 10 10-4.477 10-10S17.523 2 12 2zm3.849 14.75c-.162 0-.273-.056-.424-.148-1.449-.877-3.257-1.338-5.174-1.338-1.07 0-2.147.137-3.154.347-.164.035-.37.098-.493.098a.624.624 0 01-.633-.628c0-.42.242-.63.544-.688a16.687 16.687 0 013.743-.442c2.188 0 4.138.502 5.816 1.508.25.146.396.295.396.665 0 .361-.293.626-.621.626zm1.09-2.647c-.218 0-.354-.088-.502-.174-1.626-.965-3.881-1.606-6.35-1.606-1.266 0-2.359.177-3.263.418-.195.054-.305.112-.487.112a.784.784 0 01-.781-.784c0-.425.206-.718.622-.835 1.124-.309 2.272-.547 3.943-.547 2.617 0 5.15.652 7.14 1.844.334.19.457.434.457.79a.778.778 0 01-.78.782zm1.24-3.078c-.203 0-.324-.05-.515-.154-1.81-1.086-4.62-1.683-7.335-1.683-1.356 0-2.734.138-3.995.48-.145.036-.329.11-.513.11a.938.938 0 01-.943-.956c0-.544.337-.849.7-.956 1.426-.42 3.017-.616 4.747-.616 2.936 0 6.026.605 8.282 1.93.304.172.515.432.515.908a.933.933 0 01-.943.937z" fill="currentColor"/></svg>