<svg xmlns="http://www.w3.org/2000/svg" viewBox="0 0 43.885 44">
  <path fill="#F5C71B" d="M43.885 22A21.943 21.943 0 1 1 21.942 0a21.972 21.972 0 0 1 21.943 22"/>
  <path fill="#212126" d="M29.047 10.776s-.618-5.823-3.398-5.823a7.863 7.863 0 0 0-2.027.24 6.468 6.468 0 0 1-3.36 0 7.869 7.869 0 0 0-2.027-.24c-2.78 0-3.398 5.823-3.398 5.823a28.569 28.569 0 0 0 14.21 0m-8.62 12.213a.309.309 0 0 0 .117-.586 16.71 16.71 0 0 1-1.355-.737 17.041 17.041 0 0 1-1.378-.945c-.265-.203-.543-.413-.804-.64a.309.309 0 0 0-.51.172l-.384 2.016a.312.312 0 0 0 .254.368c.99.159 1.99.276 2.987.338a9.382 9.382 0 0 0 1.073.014m3.028 0a9.344 9.344 0 0 0 1.072-.014c1-.062 1.997-.179 2.99-.338a.314.314 0 0 0 .255-.368l-.388-2.016a.308.308 0 0 0-.509-.173c-.258.228-.54.438-.804.641a15.756 15.756 0 0 1-1.379.945c-.436.265-.89.513-1.35.737a.308.308 0 0 0 .113.586m-.33 3.346a.758.758 0 1 0-.756-.758.759.759 0 0 0 .756.758M20 25.577a.758.758 0 1 0 .76-.758.76.76 0 0 0-.76.758m5.792 1.861a.38.38 0 0 0-.514-.357l-6.838 2.57a.378.378 0 0 0 .082.73 24.01 24.01 0 0 0 5.147.15l1.106.946a.346.346 0 0 0 .494-.047l1.66-2.066a.348.348 0 0 0-.072-.502l-1.065-.749Z"/>
  <path fill="#212126" d="m32.632 19.832-.237-1.137s4.07-1.375 4.259 2.133a5.91 5.91 0 0 1-2.84 5.214l-.518-2.94 1.464.67s-.237-1.758-1.275-2.23c0 0 1.56-.666 1.938 0a4.103 4.103 0 0 0-.072-.948 1.452 1.452 0 0 0-1.91-1.048Zm-2.608 11.256-1.702-1.196a.266.266 0 0 0-.363.052l-.94 1.182-.185.227a8.098 8.098 0 0 1-.866 1.14 5.479 5.479 0 0 1-4.026 1.951c-3.258 0-4.997-3.25-5.104-3.453l.375 1.744s-4.21-.569-3.877-3.508c.33-2.943 4.73-4.367 4.73-4.367s-4.115-.19-3.737-3.746 6.094-2.467 7.613-2.467c1.52 0 7.236-1.09 7.614 2.467S25.82 24.86 25.82 24.86s4.4 1.424 4.73 4.367a2.409 2.409 0 0 1-.526 1.86ZM11.253 19.832l-.808-.286a1.452 1.452 0 0 0-1.911 1.048 4.131 4.131 0 0 0-.073.947c.379-.665 1.94 0 1.94 0-1.039.473-1.276 2.23-1.276 2.23l1.464-.668-.519 2.94a5.912 5.912 0 0 1-2.839-5.215c.19-3.508 4.259-2.133 4.259-2.133Zm-.54 11.493c1.52 4.43 11.23 7.558 11.23 7.558s4.518-1.45 6.836-3.987l.664.565.556.476 3.512 2.9a.873.873 0 0 0 1.257-.127l1.547-1.972a.882.882 0 0 0-.185-1.264l-3.377-2.467a3.749 3.749 0 0 0 .42-1.682l1.852.373-1.052-2.664s4.84-4.15 4.84-7.248c0-4.744-3.232-4.956-3.232-4.956a1.246 1.246 0 0 0 .702-1.974 4.463 4.463 0 0 0-2.602-1.382 11.355 11.355 0 0 0-3.76-.083c-.623.076-6.397.903-7.71.896h-.533c-1.313.007-7.091-.82-7.713-.896a11.354 11.354 0 0 0-3.76.083 4.468 4.468 0 0 0-2.603 1.382 1.246 1.246 0 0 0 .701 1.974s-3.23.212-3.23 4.956c0 3.098 4.84 7.248 4.84 7.248L8.86 31.698Z"/>
</svg>
