<svg width="100" height="100" viewBox="0 0 100 100" fill="none" xmlns="http://www.w3.org/2000/svg">
<g clip-path="url(#clip0)">
<path d="M23 37.6429H21.8773L22.6284 38.4773L29.0569 45.6202L29.2059 45.7857H29.4286H98H99.2071L98.3536 44.9322L84.0678 30.6464L83.2143 29.7929V31V37.6429H23Z" fill="#854195" stroke="#854195"/>
<path d="M77 62.0714H78.1227L77.3716 61.237L70.9431 54.0941L70.7941 53.9286H70.5714L2 53.9286H0.792892L1.64645 54.7821L15.9322 69.0678L16.7857 69.9214V68.7143V62.0714L77 62.0714Z" fill="#854195" stroke="#854195"/>
</g>
<defs>
<clipPath id="clip0">
<path d="M0 20C0 10.5719 0 5.85786 2.92893 2.92893C5.85786 0 10.5719 0 20 0H80C89.4281 0 94.1421 0 97.0711 2.92893C100 5.85786 100 10.5719 100 20V80C100 89.4281 100 94.1421 97.0711 97.0711C94.1421 100 89.4281 100 80 100H20C10.5719 100 5.85786 100 2.92893 97.0711C0 94.1421 0 89.4281 0 80V20Z" fill="white"/>
</clipPath>
</defs>
</svg>
