<svg width="512" height="512" viewBox="0 0 512 512" fill="none" xmlns="http://www.w3.org/2000/svg">
<g clip-path="url(#clip0)">
<path fill-rule="evenodd" clip-rule="evenodd" d="M191.326 87.9358L87.9358 191.326C52.2171 227.044 52.217 284.956 87.9357 320.674L191.326 424.064C227.044 459.783 284.956 459.783 320.674 424.064L424.064 320.674C459.783 284.956 459.783 227.044 424.064 191.326L320.674 87.9358C284.956 52.2171 227.044 52.2171 191.326 87.9358ZM54.3051 157.695C0.012684 211.987 0.0126193 300.013 54.305 354.305L157.695 457.695C211.987 511.987 300.013 511.987 354.305 457.695L457.695 354.305C511.987 300.013 511.987 211.987 457.695 157.695L354.305 54.3051C300.013 0.012754 211.987 0.0126757 157.695 54.3051L54.3051 157.695Z" fill="#00DC82"/>
<path fill-rule="evenodd" clip-rule="evenodd" d="M272.571 164.007L242.666 193.913C208.376 228.202 208.376 283.798 242.666 318.087L272.571 347.993C306.861 382.283 362.456 382.283 396.746 347.993L426.651 318.087C460.941 283.798 460.941 228.202 426.651 193.913L396.746 164.007C362.456 129.717 306.861 129.717 272.571 164.007ZM209.035 160.282C156.171 213.146 156.171 298.855 209.035 351.718L238.94 381.623C291.804 434.487 377.513 434.487 430.376 381.623L460.282 351.718C513.145 298.854 513.145 213.145 460.282 160.282L430.376 130.377C377.513 77.513 291.804 77.5131 238.94 130.377L209.035 160.282Z" fill="#00DC82"/>
<path fill-rule="evenodd" clip-rule="evenodd" d="M407.829 299.902C431.065 299.902 449.902 281.066 449.902 257.829C449.902 234.593 431.065 215.756 407.829 215.756C384.593 215.756 365.756 234.593 365.756 257.829C365.756 281.066 384.593 299.902 407.829 299.902ZM407.829 347.463C457.333 347.463 497.463 307.333 497.463 257.829C497.463 208.326 457.333 168.195 407.829 168.195C358.325 168.195 318.195 208.326 318.195 257.829C318.195 307.333 358.325 347.463 407.829 347.463Z" fill="#00DC82"/>
</g>
<defs>
<clipPath id="clip0">
<path d="M6 26C6 16.5719 6 11.8579 8.92893 8.92893C11.8579 6 16.5719 6 26 6H486C495.428 6 500.142 6 503.071 8.92893C506 11.8579 506 16.5719 506 26V486C506 495.428 506 500.142 503.071 503.071C500.142 506 495.428 506 486 506H26C16.5719 506 11.8579 506 8.92893 503.071C6 500.142 6 495.428 6 486V26Z" fill="white"/>
</clipPath>
</defs>
</svg>
