<svg xmlns="http://www.w3.org/2000/svg" enable-background="new 0 0 512 438" height="438" viewBox="0 0 512 438" width="512">
  <path d="m64.34 157.87c0 16.17-2.15 28.3-6.43 36.38-4.29 8.09-12.21 15.27-23.76 21.53 11.21 5.94 19.06 13.29 23.51 22.03 4.46 8.75 6.68 20.87 6.68 36.38v79.69c0 18.14 3.13 30.11 9.4 35.88 6.26 5.77 18.97 8.66 38.11 8.66v31.18h-14.35c-25.08 0-42.9-5.53-53.45-16.58-10.56-11.06-15.84-29.78-15.84-56.18v-81.67c0-14.18-2.15-24.75-6.43-31.68-4.29-6.93-11.55-11.71-21.78-14.35v-29.2c18.81-5.27 28.21-19.96 28.21-44.05v-87.11c0-24.08 5.52-41.41 16.58-51.97 11.05-10.55 28.79-15.84 53.21-15.84h13.86v31.18c-19.14.33-31.85 3.3-38.11 8.91-6.27 5.61-9.4 17-9.4 34.15v82.66z" fill="#2f495e"/>
  <path d="m206.65 377.14c0 6.93-2.97 13.36-8.91 19.3 8.93 6.6 18.04 9.9 27.35 9.9 18.61 0 31.98-5.44 40.12-16.33s12.21-28.38 12.21-52.46l.5-155.41c0-29.03-.84-46.94-2.5-53.7s-6.16-10.15-13.48-10.15c-3.67 0-8.33.67-13.99 1.98-3 .99-5.99 1.49-8.99 1.49-10.66 0-15.99-5.27-15.99-15.84 0-10.89 6.93-16.33 20.79-16.33 4.95 0 9.23.17 12.87.49 10.56.99 17.98 1.48 22.27 1.48 2.64 0 6.76-.41 12.37-1.24 5.61-.82 9.73-1.24 12.37-1.24 9.57 0 14.35 5.28 14.35 15.84 0 1.66-.17 4.95-.49 9.9-.33 5.94-.5 10.73-.5 14.35-.33 5.28-.83 17.16-1.48 35.64-.67 20.79-.99 36.8-.99 48.01v111.86c0 19.8-.83 34.48-2.47 44.05-2.97 15.51-8.91 28.71-17.82 39.6-15.84 19.13-37.95 28.71-66.32 28.71-19.8 0-36.29-4.95-49.5-14.85-13.19-9.9-19.8-22.27-19.8-37.12 0-8.25 2.4-15.1 7.18-20.54 4.79-5.44 10.81-8.17 18.07-8.17 6.27 0 11.63 2.06 16.09 6.19 4.46 4.11 6.69 8.97 6.69 14.59zm83.15-313.8c-7.59 0-14.1-2.72-19.55-8.17-5.44-5.45-8.17-11.96-8.17-19.55s2.72-14.02 8.17-19.3c5.45-5.27 11.96-7.92 19.55-7.92s14.18 2.72 19.8 8.17c5.61 5.44 8.41 11.8 8.41 19.05 0 7.59-2.81 14.11-8.41 19.55-5.62 5.45-12.21 8.17-19.8 8.17z" fill="#00c58e"/>
  <path d="m447.66 272.7c0-15.84 2.14-27.88 6.43-36.13 4.28-8.24 12.2-15.51 23.76-21.78-11.22-5.94-19.06-13.28-23.51-22.03-4.46-8.74-6.68-20.87-6.68-36.38v-79.68c0-18.14-3.14-30.11-9.4-35.88-6.27-5.77-18.98-8.66-38.11-8.66v-31.19h13.85c25.07 0 42.98 5.53 53.7 16.58 10.72 11.06 16.09 29.78 16.09 56.18v81.67c0 26.07 9.4 41.41 28.21 46.03v29.2c-18.81 5.28-28.21 19.97-28.21 44.05v87.11c0 24.08-5.45 41.41-16.33 51.97-10.89 10.56-28.71 15.84-53.45 15.84h-13.86v-31.18c19.13-.33 31.84-3.3 38.11-8.91 6.26-5.61 9.4-17 9.4-34.15z" fill="#2f495e"/>
</svg>