<svg xmlns="http://www.w3.org/2000/svg" width="800" height="400" viewBox="0 0 800 400"><g fill="none" fill-rule="evenodd" font-family="Source Sans Pro, -apple-system, BlinkMacSystemFont, Segoe UI, Roboto, Helvetica Neue, Arial, sans-serif" font-size="21" font-weight="300" text-anchor="middle"><rect width="800" height="400" fill="#41B883"/><rect width="770" height="335" x="15" y="50" fill="#3B8070"/><rect width="740" height="270" x="30" y="100" fill="#35495E"/><rect width="350" height="120" x="45" y="235" fill="#495B6E"/><rect width="350" height="55" x="405" y="300" fill="#495B6E"/><rect width="350" height="55" x="405" y="235" fill="#495B6E"/><g fill="#EEF0F1"><text x="400" y="32"><tspan>Document - </tspan> <tspan font-size="19">HTML file</tspan></text><text x="400" y="82"><tspan>Layout - </tspan> <tspan font-size="17">Vue component + Nuxt options: middleware and head</tspan></text><text x="400" y="132"><tspan>Page - </tspan> <tspan font-size="17">Vue component supercharged with Nuxt options</tspan></text><g text-anchor="start"><text><tspan x="56" y="178">• </tspan> <tspan x="79" y="178" font-size="17">asyncData</tspan></text><text><tspan x="56" y="200">• </tspan> <tspan x="79" y="200" font-size="17">middleware</tspan></text><text><tspan x="231" y="178">• </tspan> <tspan x="254" y="178" font-size="17">fetch</tspan></text><text><tspan x="231" y="200">• </tspan> <tspan x="254" y="200" font-size="17">scrollToTop</tspan></text><text><tspan x="410" y="178">• </tspan> <tspan x="433" y="178" font-size="17">head</tspan></text><text><tspan x="410" y="200">• </tspan> <tspan x="433" y="200" font-size="17">transition</tspan></text><text><tspan x="589" y="178">• </tspan> <tspan x="612" y="178" font-size="17">layout</tspan></text><text><tspan x="589" y="200">• </tspan> <tspan x="612" y="200" font-size="17">validate</tspan></text></g><g><text transform="translate(45 0)"><tspan x="175" y="287">Optional - Page Child</tspan></text><text font-size="15" transform="translate(45 0)"><tspan x="175" y="312">Vue component supercharged with Nuxt options</tspan></text></g><text x="580" y="270"><tspan>Optional - </tspan> <tspan font-size="15">Vue Component + Nuxt option: head</tspan></text><text x="580" y="335"><tspan>Optional - </tspan> <tspan font-size="15">Vue Component + Nuxt option: head</tspan></text></g></g></svg>