<svg xmlns="http://www.w3.org/2000/svg" width="460" height="600" version="1" viewBox="0 0 460 600"><g fill="none" fill-rule="evenodd" font-family="Source Sans Pro, -apple-system, BlinkMacSystemFont, Segoe UI, Roboto, Helvetica Neue, Arial, sans-serif" text-anchor="middle"><path stroke="#737373" stroke-linecap="square" stroke-width="2" d="M365 250H260m105 0v122"/><path fill="#737373" d="M250 250l15-4v8z"/><path stroke="#737373" stroke-linecap="square" stroke-width="2" d="M365 555H249m116-124v124"/><path stroke="#9B9B9B" stroke-linecap="square" stroke-width="2" d="M149 69v21"/><path fill="#9B9B9B" d="M149 100l-4-11h8z"/><path stroke="#9B9B9B" stroke-linecap="square" stroke-width="2" d="M149 169v21"/><path fill="#9B9B9B" d="M149 200l-4-11h8z"/><path stroke="#9B9B9B" stroke-linecap="square" stroke-width="2" d="M149 299v21"/><path fill="#9B9B9B" d="M149 330l-4-11h8z"/><path stroke="#9B9B9B" stroke-linecap="square" stroke-width="2" d="M149 399v21"/><path fill="#9B9B9B" d="M149 430l-4-11h8z"/><path stroke="#9B9B9B" stroke-linecap="square" stroke-width="2" d="M149 499v21"/><path fill="#9B9B9B" d="M149 530l-4-11h8z"/><g letter-spacing="0.05rem" transform="translate(50 20)"><rect width="198" height="48" x="1" y="1" stroke="#05668D" stroke-width="2" rx="20"/><text x="100" y="31" fill="#00658F" font-size="19" font-weight="500">Incoming Request</text></g><g fill="#FFF" letter-spacing="0.05rem" transform="translate(50 100)"><rect width="200" height="70" fill="#05668D" rx="20"/><text x="100" y="31" font-size="19" font-weight="500">nuxtServerInit</text><text x="100" y="52" font-size="14" font-weight="300">Store action</text></g><g fill="#FFF" transform="translate(50 200)"><rect width="200" height="100" fill="#028090" rx="20"/><text x="100" y="31" font-size="19" font-weight="500" letter-spacing="0.05rem">middleware</text><text font-size="14" font-weight="300" text-anchor="start"><tspan x="18" y="52">1. nuxt.config.js</tspan> <tspan x="18" y="68">2. matching layout</tspan> <tspan x="18" y="84">3. matching page &amp; children</tspan></text></g><g fill="#FFF" letter-spacing="0.05rem" transform="translate(50 330)"><rect width="200" height="70" fill="#00A896" rx="20"/><text x="100" y="31" font-size="19" font-weight="500">validate()</text><text x="100" y="52" font-size="14" font-weight="300">Pages &amp; children</text></g><g fill="#FFF" letter-spacing="0.05rem" transform="translate(50 430)"><rect width="200" height="70" fill="#02C39A" rx="20"/><text x="101" y="31" font-size="18" font-weight="500">asyncData() &amp; fetch()</text><text x="100" y="52" font-size="14" font-weight="300">Pages &amp; children</text></g><g letter-spacing="0.05rem" transform="translate(50 530)"><rect width="198" height="48" x="1" y="1" stroke="#5CA4A9" stroke-width="2" rx="20"/><text x="100" y="31" fill="#5CA4A9" font-size="19" font-weight="500">Render</text></g><g letter-spacing="0.05rem" transform="translate(301 372)"><rect width="128" height="58" x="1" y="1" stroke="#737373" stroke-width="2" rx="20"/><text x="65" y="28" fill="#737373" font-size="17" font-weight="500">Navigate</text><text x="65" y="45" fill="#737373" font-size="14" font-weight="300">&lt;nuxt-link&gt;</text></g></g></svg>