<svg width="1004" height="350" xmlns="http://www.w3.org/2000/svg">
 <!-- Generator: Sketch 47 (45396) - http://www.bohemiancoding.com/sketch -->
 <title>storyblok-gradient-full</title>
 <desc>Created with Sketch.</desc>
 <defs>
  <linearGradient id="linearGradient-1" y2="11.9402846%" x2="112.373723%" y1="50%" x1="26.4209426%">
   <stop offset="0%" stop-color="#09B3AF"/>
   <stop offset="100%" stop-color="#7AC943"/>
  </linearGradient>
 </defs>
 <g>
  <title>background</title>
  <rect fill="none" id="canvas_background" height="352" width="1006" y="-1" x="-1"/>
 </g>
 <g>
  <title>Layer 1</title>
  <g fill-rule="evenodd" fill="none" id="Page-1">
   <g fill-rule="nonzero" id="storyblok-gradient-full">
    <g id="svg_1">
     <g fill="#000000" id="Fonttype">
      <path id="Shape" d="m331.886953,122.39939c0,0 -26.13221,-2.98596 -36.95935,-2.98596c-15.68058,0 -23.70706,5.60258 -23.70706,16.61995c0,11.94383 6.71846,14.74825 28.56363,20.72017c26.87697,7.47115 36.58072,14.56045 36.58072,36.41365c0,28.00039 -17.54248,40.14141 -42.74531,40.14141c-16.61622,0 -41.80967,-5.04546 -41.80967,-5.04546l2.05278,-16.61682c0,0 25.1997,3.35529 38.452,3.35529c15.8652,0 23.1438,-7.09243 23.1438,-20.53863c0,-10.82331 -5.78595,-14.55732 -25.38433,-19.23344c-27.62799,-7.09556 -39.57227,-15.49944 -39.57227,-37.71258c0,-25.76249 16.98547,-36.40739 42.55756,-36.40739c16.24071,0 40.50477,4.48206 40.50477,4.48206l-1.67727,16.80775z"/>
      <path id="Shape" d="m379.485703,155.25744l0,41.07725c0,14.00959 0.56013,18.86099 10.26701,18.86099c5.22582,0 15.30507,-0.56965 15.30507,-0.56965l0.93564,16.24436c0,0 -12.50754,2.42883 -19.04137,2.42883c-21.09416,0 -27.62799,-7.84675 -27.62799,-34.73914l0,-43.30264l-11.94115,0l0,-17.35862l11.94115,0l0,-27.07393l20.16164,0l0,27.07393l25.75671,0l0,17.35862l-25.75671,0z"/>
      <path id="Shape" d="m500.621393,184.01214c0,30.98635 -9.51912,49.29334 -41.62504,49.29334c-31.91816,0 -41.62817,-18.30699 -41.62817,-49.29334c0,-30.24768 10.45476,-48.17281 41.62817,-48.17281c31.17028,0.00313 41.62504,17.92513 41.62504,48.17281zm-20.53402,0c0,-21.65601 -4.66881,-30.99261 -21.09102,-30.99261c-16.42847,0 -21.09415,9.3366 -21.09415,30.99261c0,21.65915 3.73004,32.11313 21.09415,32.11313c17.35785,0 21.09102,-10.45398 21.09102,-32.11313z"/>
      <path id="Shape" d="m520.773653,137.89569l20.15538,0l0,11.20204c0,0 15.86207,-10.26932 31.74292,-13.25527l0,20.35083c-16.99485,3.36155 -31.54891,9.89685 -31.54891,9.89685l0,65.15584l-20.34939,0l0,-93.35029l0,0z"/>
      <polygon points="599.5395812988281,137.89569091796875 619.3257141113281,213.881103515625 624.3637390136719,213.881103515625 644.1498718261719,137.89569091796875 664.3021545410156,137.89569091796875 628.8385314941406,271.38739013671875 608.8646545410156,271.38739013671875 620.0610656738281,231.24598693847656 604.0111999511719,231.24598693847656 579.5656433105469,137.89569091796875 " id="Shape"/>
      <path id="Shape" d="m759.690493,183.26722c0,38.6453 -12.13203,50.03826 -45.54284,50.03826c-9.89463,0 -34.16182,-2.24417 -34.16182,-2.24417l0,-131.99871l20.15851,0l0,42.38244c0,0 12.87366,-5.60258 23.33155,-5.60258c25.38746,0 36.2146,12.51034 36.2146,47.42476zm-20.71864,0c0,-21.09889 -5.41044,-29.31497 -17.92111,-29.31497c-9.8915,0 -20.9064,3.73402 -20.9064,3.73402l0,56.75196c0,0 10.26388,0.75432 14.00331,0.75432c20.71552,0.00313 24.8242,-9.15193 24.8242,-31.92533z"/>
      <polygon points="781.1476135253906,99.06259918212889 801.4970397949219,99.06259918212889 801.4970397949219,231.24598693847656 781.1476135253906,231.24598693847656 " id="Shape"/>
      <path id="Shape" d="m906.025893,184.01214c0,30.98635 -9.52225,49.29334 -41.62817,49.29334c-31.9213,0 -41.62817,-18.30699 -41.62817,-49.29334c0,-30.24768 10.45163,-48.17281 41.62817,-48.17281c31.17028,0.00313 41.62817,17.92513 41.62817,48.17281zm-20.53715,0c0,-21.65601 -4.66255,-30.99261 -21.09102,-30.99261c-16.42847,0 -21.09415,9.3366 -21.09415,30.99261c0,21.65915 3.73317,32.11313 21.09415,32.11313c17.35785,0 21.09102,-10.45398 21.09102,-32.11313z"/>
      <polygon points="926.1781311035156,231.24911499023438 926.1781311035156,99.06259918212889 946.5212707519531,99.06259918212889 946.5212707519531,175.42361450195312 958.0962219238281,174.29995727539062 980.1261291503906,137.89569091796875 1002.8912658691406,137.89569091796875 976.0111389160156,181.58018493652344 1004.3807678222656,231.24598693847656 981.4184875488281,231.24598693847656 958.6532287597656,191.85263061523438 946.5150451660156,193.1609344482422 946.5150451660156,231.24598693847656 " id="Shape"/>
     </g>
     <g fill="url(#linearGradient-1)" id="Standalone">
      <path id="Shape" d="m102.725943,185.25732c7.38372,-0.34012 12.20055,3.23892 12.20997,7.8227c0.00941,4.61812 -4.0041,8.28764 -11.32819,8.3126l-33.26284,0.1841c-6.23835,0 -9.64622,-3.16403 -9.65249,-7.20487c-0.01255,-4.04397 2.72065,-7.14871 10.14202,-7.48883l31.89153,-1.6257zm6.11283,-57.67022c6.16931,0 10.64097,3.36997 10.64097,8.00369c0,5.28898 -5.89317,10.20352 -13.13882,10.94305l-34.05675,2.04382c-0.7186,0.07801 -1.43407,0.11233 -2.13698,0.11233c-5.6641,0.3526 -10.20165,-3.12034 -10.20165,-6.52464c0,-4.51514 2.79283,-7.77902 9.96944,-8.8493l36.32552,-5.53237c0.8755,-0.13105 1.74787,-0.19658 2.59827,-0.19658zm78.47831,-57.52044c-1.66628,-1.75051 -4.03233,-2.71782 -6.66512,-2.71782c-0.58366,0 -1.19244,0.04992 -1.80121,0.14353l-164.29014,25.82398c-6.5145,1.02659 -11.58865,7.18928 -11.30937,13.742l5.51034,129.70963c0.273,6.534 5.93082,11.90411 12.50494,11.98212l28.11337,0.31516l0,34.55782l26.56633,-34.26763l95.83775,1.06716c6.48625,0 11.84282,-5.2453 11.97148,-11.68882l5.99672,-161.42169c0.16632,-2.84887 -0.70291,-5.4138 -2.43509,-7.24544zm-49.4863,92.17499c21.92522,1.5789 19.79766,24.12339 19.79766,24.12339l-0.33577,20.52251c-1.24579,13.5267 -12.41708,18.91553 -21.90954,18.84689l-8.72364,0.04992l-81.98033,-1.20445c-7.30527,-0.07177 -13.49969,-6.09404 -13.80722,-13.20218l-3.58673,-82.60178c-0.30753,-7.08318 5.29381,-13.74512 12.48611,-14.85284l97.708,-15.02758c0,0 23.86765,-3.94724 23.3844,19.79547l-1.94556,20.08878c-0.45815,7.02702 -2.76145,20.30096 -21.08738,23.46187l0,0z"/>
     </g>
    </g>
   </g>
  </g>
 </g>
</svg>