<svg width="32" height="32" viewBox="0 0 32 32" fill="none" xmlns="http://www.w3.org/2000/svg">
<rect width="32" height="32" rx="4" fill="#558887"/>
<path d="M19.3333 7.6665C20.2538 7.6665 21 8.4127 21 9.33317L9.33329 9.33317L9.33329 18.6469C8.41282 18.6469 7.66663 17.9007 7.66663 16.9802V9.33317C7.66663 8.41269 8.41282 7.6665 9.33329 7.6665H19.3333Z" fill="white"/>
<path d="M17.6666 24.3332L15.4444 21.9802H12.6666C11.7462 21.9802 11 21.234 11 20.3136V12.6665C11 11.746 11.7462 10.9998 12.6666 10.9998H22.6666C23.5871 10.9998 24.3333 11.746 24.3333 12.6665V20.3136C24.3333 21.234 23.5871 21.9802 22.6666 21.9802H19.8888L17.6666 24.3332ZM19.1704 20.3136L22.6666 20.3136V12.6665L12.6666 12.6665V20.3136H16.1628L17.6666 21.9058L19.1704 20.3136Z" fill="white"/>
</svg>
