<svg viewBox="0 0 256 256" fill="none" xmlns="http://www.w3.org/2000/svg">
  <path
    d="M128 256C198.692 256 256 198.692 256 128C256 57.3075 198.692 0 128 0C57.3075 0 0 57.3075 0 128C0 198.692 57.3075 256 128 256Z"
    fill="#1D4ED8"
  />
  <g opacity="0.047">
    <path
      opacity="0.047"
      d="M204.197 148.146C198.799 135.723 193.493 123.346 189.987 110.266L106.555 132.623C110.059 145.702 111.638 159.299 113.214 172.894C144.754 170.273 187.879 154.438 204.197 148.146ZM179.249 121.41C179.115 120.922 179.08 120.412 179.145 119.91C179.21 119.408 179.374 118.924 179.627 118.485C179.88 118.047 180.217 117.663 180.62 117.356C181.022 117.049 181.481 116.824 181.971 116.695C182.459 116.562 182.968 116.527 183.47 116.592C183.972 116.657 184.456 116.821 184.894 117.074C185.332 117.327 185.716 117.664 186.023 118.066C186.33 118.468 186.555 118.927 186.683 119.416C186.817 119.905 186.852 120.415 186.787 120.917C186.722 121.419 186.558 121.903 186.305 122.341C186.052 122.779 185.715 123.163 185.312 123.471C184.91 123.778 184.451 124.002 183.961 124.131C182.978 124.349 181.948 124.19 181.076 123.687C180.204 123.183 179.552 122.371 179.249 121.41Z"
      fill="#E7E8E9"
    />
    <path
      opacity="0.047"
      d="M201.231 171.223C207.278 169.012 210.494 162.839 208.316 157.739C206.931 154.498 205.633 151.303 204.197 148.146C187.829 154.525 144.754 170.271 113.213 172.894C113.599 176.258 113.582 174.271 113.968 177.634C114.631 183.139 120.553 186.789 126.897 185.681C152.005 181.092 177.139 179.892 201.231 171.223Z"
      fill="white"
    />
    <path
      opacity="0.047"
      d="M117.374 129.764L120.895 142.905L101.329 148.151L97.8058 135.008L117.374 129.764Z"
      fill="#E7E8E9"
    />
    <g opacity="0.047">
      <g opacity="0.047" filter="url(#filter0_d)">
        <path
          d="M49.7893 162.811L45.8413 148.077C45.5819 147.115 46.0859 146.242 47.0503 145.983L104.186 130.674C105.15 130.415 106.023 130.919 106.282 131.884L110.229 146.615C110.486 147.577 109.982 148.45 109.019 148.711L51.8843 164.019C50.9227 164.276 49.9614 163.721 49.7886 162.809L49.7893 162.811Z"
          fill="black"
        />
      </g>
      <path
        opacity="0.047"
        d="M49.7893 162.811L45.8413 148.077C45.5819 147.115 46.0859 146.242 47.0503 145.983L104.186 130.674C105.15 130.415 106.023 130.919 106.282 131.884L110.229 146.615C110.486 147.577 109.982 148.45 109.019 148.711L51.8843 164.019C50.9227 164.276 49.9614 163.721 49.7886 162.809L49.7893 162.811Z"
        fill="#2B2B2B"
      />
    </g>
  </g>
  <g opacity="0.081">
    <path
      opacity="0.081"
      d="M201.412 124.774C193.939 113.477 186.564 102.209 180.84 89.9373L102.557 126.443C108.279 138.714 112.196 151.83 116.108 164.945C146.714 156.887 186.434 133.804 201.412 124.774ZM172.2 102.776C171.984 102.319 171.86 101.823 171.837 101.317C171.814 100.811 171.891 100.306 172.064 99.8305C172.237 99.3548 172.503 98.9182 172.846 98.5458C173.189 98.1734 173.602 97.8726 174.062 97.6608C174.519 97.445 175.015 97.322 175.52 97.2989C176.026 97.2758 176.531 97.353 177.006 97.526C177.482 97.699 177.918 97.9645 178.29 98.3071C178.663 98.6497 178.963 99.0626 179.175 99.522C179.391 99.9798 179.515 100.476 179.538 100.981C179.561 101.487 179.484 101.992 179.311 102.468C179.138 102.944 178.872 103.38 178.529 103.753C178.186 104.125 177.773 104.426 177.313 104.638C176.383 105.023 175.341 105.046 174.395 104.701C173.448 104.357 172.665 103.67 172.2 102.776Z"
      fill="#E7E8E9"
    />
    <path
      opacity="0.081"
      d="M202.498 148.015C208.07 144.788 210.164 138.15 207.134 133.506C205.207 130.555 203.374 127.634 201.411 124.774C186.4 133.898 146.714 156.885 116.108 164.945C117.072 168.191 116.71 166.237 117.674 169.483C119.283 174.789 125.749 177.355 131.804 175.162C155.734 166.283 180.277 160.737 202.498 148.015Z"
      fill="white"
    />
    <path
      opacity="0.081"
      d="M112.716 121.748L118.465 134.078L100.107 142.642L94.3556 130.311L112.716 121.748Z"
      fill="#E7E8E9"
    />
  </g>
  <g opacity="0.205">
    <path
      opacity="0.205"
      d="M193.348 98.5813C184.027 88.7535 174.808 78.9374 167.04 67.846L96.2855 117.39C104.052 128.481 110.186 140.718 116.316 152.955C145.058 139.705 180.166 110.075 193.348 98.5813ZM160.76 81.9904C160.468 81.5771 160.26 81.11 160.15 80.6161C160.039 80.1222 160.027 79.6112 160.115 79.1127C160.203 78.6142 160.389 78.1381 160.662 77.7118C160.935 77.2855 161.29 76.9176 161.705 76.6291C162.119 76.3372 162.586 76.13 163.079 76.0194C163.573 75.9089 164.084 75.8972 164.582 75.9851C165.08 76.0729 165.556 76.2586 165.982 76.5313C166.408 76.804 166.776 77.1585 167.065 77.5741C167.357 77.9874 167.564 78.4545 167.675 78.9485C167.786 79.4424 167.798 79.9533 167.71 80.4518C167.622 80.9503 167.436 81.4264 167.163 81.8527C166.89 82.279 166.535 82.647 166.119 82.9354C165.27 83.4766 164.248 83.6798 163.256 83.5048C162.264 83.3299 161.373 82.7896 160.76 81.9904Z"
      fill="#E7E8E9"
    />
    <path
      opacity="0.205"
      d="M198.454 121.281C203.381 117.135 204.291 110.235 200.5 106.187C198.09 103.615 195.777 101.057 193.348 98.5814C180.149 110.173 145.058 139.703 116.316 152.955C117.829 155.984 117.134 154.123 118.647 157.151C121.152 162.098 127.966 163.502 133.548 160.291C155.573 147.391 178.78 137.667 198.454 121.281Z"
      fill="white"
    />
    <path
      opacity="0.205"
      d="M105.475 111.003L113.278 122.147L96.6858 133.769L88.8805 122.624L105.475 111.003Z"
      fill="#E7E8E9"
    />
    <path
      opacity="0.205"
      d="M53.2687 165.173L44.5196 152.677C43.9465 151.862 44.1216 150.869 44.9394 150.296L93.393 116.369C94.2109 115.796 95.2036 115.971 95.7763 116.789L104.524 129.282C105.095 130.097 104.92 131.09 104.104 131.665L55.6503 165.59C54.8348 166.161 53.7417 165.969 53.2671 165.17L53.2687 165.173Z"
      fill="#2B2B2B"
    />
  </g>
  <path
    d="M181.86 75.668C170.972 67.616 160.18 59.562 150.6 50L89.4961 111C99.0761 120.56 107.244 131.534 115.412 142.506C141.428 124.486 170.872 89.256 181.864 75.668H181.86ZM146.872 64.998C146.513 64.6425 146.227 64.2193 146.032 63.7527C145.837 63.2862 145.737 62.7856 145.737 62.28C145.737 61.7744 145.837 61.2738 146.032 60.8073C146.227 60.3407 146.513 59.9175 146.872 59.562C147.229 59.2031 147.653 58.9183 148.121 58.724C148.588 58.5296 149.089 58.4296 149.595 58.4296C150.101 58.4296 150.602 58.5296 151.07 58.724C151.537 58.9183 151.961 59.2031 152.318 59.562C152.678 59.9175 152.963 60.3407 153.158 60.8073C153.353 61.2738 153.453 61.7744 153.453 62.28C153.453 62.7856 153.353 63.2862 153.158 63.7527C152.963 64.2193 152.678 64.6425 152.318 64.998C151.574 65.6779 150.603 66.055 149.595 66.055C148.587 66.055 147.616 65.6779 146.872 64.998Z"
    fill="#E7E8E9"
  />
  <path
    d="M190.836 97.108C194.97 92.176 194.668 85.23 190.23 81.908C187.408 79.796 184.684 77.682 181.862 75.668C170.87 89.358 141.426 124.488 115.41 142.506C117.426 145.224 116.418 143.512 118.434 146.23C121.762 150.658 128.72 150.86 133.66 146.734C153.122 130.226 174.3 116.636 190.836 97.108Z"
    fill="white"
  />
  <path
    d="M97.4404 103.124L107.064 112.734L92.7344 127.04L83.1084 117.43L97.4404 103.124Z"
    fill="#E7E8E9"
  />
  <path
    d="M55.4123 165.456L44.6203 154.686C43.9143 153.98 43.9143 152.974 44.6203 152.27L86.4683 110.496C87.1723 109.792 88.1823 109.792 88.8883 110.496L99.6763 121.266C100.382 121.972 100.382 122.978 99.6763 123.682L57.8323 165.456C57.1263 166.16 56.0163 166.16 55.4123 165.456Z"
    fill="#2B2B2B"
  />
  <defs>
    <filter
      id="filter0_d"
      x="43.7737"
      y="129.607"
      width="72.522"
      height="41.4751"
      filterUnits="userSpaceOnUse"
      color-interpolation-filters="sRGB"
    >
      <feFlood flood-opacity="0" result="BackgroundImageFix" />
      <feColorMatrix
        in="SourceAlpha"
        type="matrix"
        values="0 0 0 0 0 0 0 0 0 0 0 0 0 0 0 0 0 0 127 0"
      />
      <feOffset dx="2" dy="3" />
      <feGaussianBlur stdDeviation="2" />
      <feColorMatrix type="matrix" values="0 0 0 0 0 0 0 0 0 0 0 0 0 0 0 0 0 0 0.5 0" />
      <feBlend mode="normal" in2="BackgroundImageFix" result="effect1_dropShadow" />
      <feBlend mode="normal" in="SourceGraphic" in2="effect1_dropShadow" result="shape" />
    </filter>
    <linearGradient
      id="paint0_linear"
      x1="484.826"
      y1="421.583"
      x2="-1.66124e-05"
      y2="7.01693"
      gradientUnits="userSpaceOnUse"
    >
      <stop stop-color="#6A11CB" />
      <stop offset="1" stop-color="#2575FC" />
    </linearGradient>
  </defs>
</svg>
