<svg width="100" height="100" viewBox="0 0 100 100" fill="none" xmlns="http://www.w3.org/2000/svg">
<g clip-path="url(#clip0)">
<path d="M31.0882 9C28.1442 9.05183 25.448 10.6598 24.0029 13.2253L5.09688 46.0072C3.63437 48.5523 3.63437 51.6828 5.09688 54.2278L23.9957 87.283C25.4261 89.8841 28.1149 91.5449 31.0809 91.6594H68.886C71.8519 91.5574 74.5457 89.9034 75.9785 87.3047L94.8773 54.4364C95.6138 53.1435 95.9819 51.7041 95.9819 50.265C95.9819 48.8258 95.6138 47.3865 94.8773 46.0934L75.9785 13.2253C74.5323 10.6608 71.837 9.05326 68.8931 9H31.0882Z" fill="#4285F4"/>
<path d="M88.9741 64.7025L75.9781 87.3048C74.5453 89.9035 71.8516 91.5575 68.8856 91.6595H54.486L33.4766 70.4622L39.6701 50.4907L33.4766 30.2905L39.8381 34.5637L48.3917 43.1939L44.3963 30.2905L74.3535 50.4145L88.9741 64.7025Z" fill="black" fill-opacity="0.07"/>
<path d="M33.4766 30.2904L39.8381 34.5638L44.8248 50.5954L39.9268 66.1454L33.4766 70.4622L39.7078 50.4143L33.4766 30.2904ZM49.7701 37.4176L52.8574 47.4034H64.7107L49.7701 37.4176ZM74.3535 50.4144L44.3962 70.4621L50.6275 50.4144L44.3962 30.2903L74.3535 50.4144Z" fill="white"/>
</g>
<defs>
<clipPath id="clip0">
<rect width="91.9827" height="83" fill="white" transform="translate(4 9)"/>
</clipPath>
</defs>
</svg>
