<svg xmlns="http://www.w3.org/2000/svg" width="331" height="69" fill="none" viewBox="0 0 331 69"><path fill="#1D185E" d="M101.54 17.2632C101.84 16.3632 102.44 15.9632 103.24 15.9632H107.14C107.54 15.9632 107.84 16.0632 108.14 16.3632C108.44 16.6632 108.54 16.9632 108.54 17.3632C108.54 17.4632 108.54 17.6632 108.44 17.8632L96.8402 50.2632C96.6402 50.8632 96.3402 51.3632 96.1402 51.5632C95.8402 51.8632 95.4402 51.9632 94.9402 51.9632H90.8402C90.3402 51.9632 89.9402 51.8632 89.6402 51.5632C89.3402 51.2632 89.1402 50.8632 88.9402 50.2632L77.3402 17.8632C77.2402 17.6632 77.2402 17.4632 77.2402 17.3632C77.2402 16.9632 77.3402 16.6632 77.6402 16.3632C77.9402 16.0632 78.2402 15.9632 78.6402 15.9632H82.5402C83.3402 15.9632 83.9402 16.3632 84.2402 17.2632L92.9402 41.8632L101.54 17.2632Z"/><path fill="#1D185E" d="M110.14 25.6632C110.44 25.3632 110.74 25.2632 111.14 25.2632H115.04C115.44 25.2632 115.74 25.3632 116.04 25.6632C116.34 25.9632 116.44 26.2632 116.44 26.6632V39.7632C116.44 41.9632 116.94 43.5632 117.84 44.7632C118.74 45.9632 120.14 46.5632 122.04 46.5632C123.84 46.5632 125.24 45.9632 126.14 44.7632C127.14 43.5632 127.64 41.8632 127.64 39.7632V26.6632C127.64 26.2632 127.74 25.9632 128.04 25.6632C128.34 25.3632 128.64 25.2632 129.04 25.2632H132.94C133.34 25.2632 133.64 25.3632 133.94 25.6632C134.24 25.9632 134.34 26.2632 134.34 26.6632V50.6632C134.34 51.0632 134.24 51.3632 133.94 51.6632C133.64 51.9632 133.34 52.0632 132.94 52.0632H129.04C128.64 52.0632 128.34 51.9632 128.04 51.6632C127.74 51.3632 127.64 51.0632 127.64 50.6632V49.4632C125.64 51.5632 123.24 52.5632 120.44 52.5632C116.54 52.5632 113.84 51.4632 112.14 49.2632C110.54 47.0632 109.64 44.1632 109.64 40.5632V26.6632C109.74 26.2632 109.94 25.8632 110.14 25.6632Z"/><path fill="#1D185E" d="M157.84 26.4632C159.74 27.6632 161.24 29.2632 162.34 31.2632C163.34 33.2632 163.94 35.4632 163.94 37.7632V40.0632C163.94 40.4632 163.84 40.7632 163.54 41.0632C163.24 41.3632 162.94 41.4632 162.54 41.4632H145.34C145.34 42.9632 145.94 44.1632 147.14 44.9632C148.34 45.8632 149.74 46.2632 151.34 46.2632C153.24 46.2632 154.64 45.8632 155.74 45.0632C156.14 44.7632 156.44 44.5632 156.64 44.4632C156.84 44.3632 157.24 44.2632 157.64 44.2632H161.74C162.14 44.2632 162.44 44.3632 162.74 44.6632C163.04 44.9632 163.14 45.2632 163.14 45.5632C163.14 46.2632 162.64 47.1632 161.74 48.2632C160.84 49.3632 159.44 50.3632 157.64 51.1632C155.84 51.9632 153.74 52.3632 151.34 52.3632C148.84 52.3632 146.54 51.7632 144.64 50.5632C142.74 49.3632 141.24 47.7632 140.24 45.6632C139.24 43.5632 138.74 41.1632 138.74 38.3632C138.74 35.7632 139.24 33.4632 140.24 31.3632C141.24 29.2632 142.74 27.5632 144.64 26.3632C146.54 25.1632 148.74 24.4632 151.24 24.4632C153.64 24.6632 155.84 25.2632 157.84 26.4632ZM156.84 35.6632C156.44 32.4632 154.54 30.9632 151.14 30.9632C149.34 30.9632 147.94 31.4632 146.94 32.3632C145.94 33.3632 145.34 34.4632 145.24 35.6632H156.84Z"/><path fill="#1D185E" d="M201.74 25.9632C201.44 26.2632 201.14 26.3632 200.74 26.3632H197.14C196.64 26.3632 196.14 26.2632 195.84 26.0632C195.54 25.8632 195.24 25.5632 195.04 25.1632C194.44 24.1632 193.64 23.4632 192.54 22.8632C191.44 22.2632 189.94 21.9632 188.04 21.9632C186.14 21.9632 184.64 22.3632 183.34 23.0632C182.04 23.8632 181.44 24.8632 181.44 26.0632C181.44 27.0632 181.74 27.8632 182.34 28.4632C182.94 29.0632 183.84 29.4632 185.14 29.8632C186.44 30.2632 188.44 30.7632 191.34 31.3632C195.54 32.2632 198.54 33.4632 200.34 35.1632C202.24 36.7632 203.14 38.9632 203.14 41.7632C203.14 43.8632 202.54 45.6632 201.34 47.2632C200.14 48.8632 198.44 50.1632 196.14 51.0632C193.94 51.9632 191.24 52.4632 188.24 52.4632C185.64 52.4632 183.24 52.0632 181.04 51.2632C178.84 50.4632 177.04 49.2632 175.64 47.7632C174.24 46.2632 173.54 44.4632 173.44 42.5632C173.44 42.1632 173.54 41.8632 173.84 41.5632C174.14 41.2632 174.44 41.1632 174.84 41.1632H178.44C178.94 41.1632 179.44 41.2632 179.74 41.4632C180.04 41.6632 180.34 41.9632 180.54 42.3632C181.14 43.4632 181.94 44.3632 183.04 45.0632C184.14 45.7632 185.84 46.0632 188.24 46.0632C190.54 46.0632 192.44 45.6632 193.94 44.9632C195.44 44.2632 196.24 43.1632 196.24 41.7632C196.24 40.9632 195.94 40.2632 195.34 39.7632C194.74 39.2632 193.94 38.8632 192.84 38.5632C191.74 38.2632 190.14 37.8632 188.04 37.2632C187.14 37.0632 186.04 36.8632 184.74 36.4632C181.14 35.5632 178.54 34.3632 176.94 32.7632C175.34 31.2632 174.54 28.9632 174.54 25.9632C174.54 23.9632 175.14 22.1632 176.34 20.4632C177.54 18.8632 179.14 17.5632 181.24 16.6632C183.34 15.7632 185.64 15.2632 188.14 15.2632C191.04 15.2632 193.54 15.7632 195.64 16.7632C197.74 17.7632 199.34 18.9632 200.44 20.4632C201.54 21.9632 202.14 23.3632 202.24 24.7632C202.14 25.3632 202.04 25.6632 201.74 25.9632Z"/><path fill="#1D185E" d="M214.44 44.8632C215.54 45.8632 216.94 46.3632 218.54 46.3632C220.04 46.3632 221.24 46.1632 222.04 45.6632C222.84 45.2632 223.54 44.4632 224.14 43.5632C224.44 43.1632 224.64 42.7632 224.94 42.5632C225.24 42.3632 225.54 42.1632 225.84 42.1632H229.74C230.14 42.1632 230.44 42.2632 230.74 42.5632C231.04 42.8632 231.14 43.1632 231.14 43.5632C231.04 44.6632 230.54 45.9632 229.64 47.3632C228.74 48.7632 227.34 49.9632 225.44 50.9632C223.54 51.9632 221.24 52.4632 218.54 52.4632C216.14 52.4632 213.94 51.9632 212.04 50.8632C210.14 49.7632 208.64 48.3632 207.54 46.5632C206.44 44.7632 205.84 42.7632 205.64 40.6632C205.64 40.2632 205.54 39.5632 205.54 38.5632C205.54 37.5632 205.54 36.8632 205.64 36.4632C205.84 34.3632 206.44 32.3632 207.54 30.5632C208.64 28.7632 210.14 27.3632 212.04 26.2632C213.94 25.1632 216.14 24.6632 218.54 24.6632C221.24 24.6632 223.54 25.1632 225.44 26.1632C227.34 27.1632 228.74 28.3632 229.64 29.7632C230.54 31.1632 231.04 32.4632 231.14 33.5632C231.14 33.9632 231.04 34.2632 230.74 34.5632C230.44 34.8632 230.14 34.9632 229.74 34.9632H225.84C225.54 34.9632 225.24 34.8632 224.94 34.5632C224.64 34.3632 224.44 33.9632 224.14 33.5632C223.44 32.5632 222.74 31.8632 222.04 31.4632C221.24 31.0632 220.14 30.7632 218.54 30.7632C216.94 30.7632 215.64 31.2632 214.44 32.2632C213.24 33.2632 212.64 34.7632 212.44 36.7632C212.44 37.0632 212.34 37.6632 212.34 38.5632C212.34 39.4632 212.34 40.0632 212.44 40.3632C212.54 42.3632 213.24 43.8632 214.44 44.8632Z"/><path fill="#1D185E" d="M259.84 51.5632C259.54 51.8632 259.24 51.9632 258.84 51.9632H254.94C254.54 51.9632 254.24 51.8632 253.94 51.5632C253.64 51.2632 253.54 50.9632 253.54 50.5632V37.5632C253.54 35.4632 253.04 33.7632 252.04 32.5632C251.04 31.3632 249.54 30.7632 247.64 30.7632C245.84 30.7632 244.44 31.3632 243.34 32.6632C242.24 33.8632 241.74 35.5632 241.74 37.5632V50.6632C241.74 51.0632 241.64 51.3632 241.34 51.6632C241.04 51.9632 240.74 52.0632 240.34 52.0632H236.44C236.04 52.0632 235.74 51.9632 235.44 51.6632C235.14 51.3632 235.04 51.0632 235.04 50.6632V16.8632C235.04 16.4632 235.14 16.1632 235.44 15.8632C235.74 15.5632 236.04 15.4632 236.44 15.4632H240.34C240.74 15.4632 241.04 15.5632 241.34 15.8632C241.64 16.1632 241.74 16.4632 241.74 16.8632V27.8632C243.84 25.7632 246.24 24.7632 249.14 24.7632C253.04 24.7632 255.84 25.8632 257.54 28.0632C259.24 30.2632 260.14 33.1632 260.14 36.7632V50.6632C260.24 50.9632 260.04 51.3632 259.84 51.5632Z"/><path fill="#1D185E" d="M290.24 38.6632C290.24 39.5632 290.24 40.4632 290.14 41.2632C289.94 43.3632 289.34 45.2632 288.24 46.9632C287.14 48.6632 285.64 50.0632 283.74 51.0632C281.84 52.0632 279.64 52.5632 277.24 52.5632C274.84 52.5632 272.64 52.0632 270.74 51.0632C268.84 50.0632 267.34 48.6632 266.24 46.9632C265.14 45.2632 264.54 43.3632 264.34 41.2632C264.34 40.8632 264.24 39.9632 264.24 38.6632C264.24 37.3632 264.24 36.4632 264.34 36.0632C264.54 33.9632 265.14 31.9632 266.24 30.2632C267.34 28.5632 268.84 27.1632 270.74 26.1632C272.64 25.1632 274.84 24.6632 277.24 24.6632C279.64 24.6632 281.84 25.1632 283.74 26.1632C285.64 27.1632 287.14 28.5632 288.24 30.2632C289.34 31.9632 289.94 33.8632 290.14 36.0632C290.24 36.8632 290.24 37.7632 290.24 38.6632ZM273.04 32.1632C271.84 32.9632 271.24 34.3632 271.04 36.3632C271.04 36.6632 270.94 37.4632 270.94 38.6632C270.94 39.8632 270.94 40.6632 271.04 40.9632C271.24 42.9632 271.94 44.2632 273.04 45.1632C274.24 45.9632 275.54 46.3632 277.24 46.3632C278.84 46.3632 280.24 45.9632 281.44 45.1632C282.64 44.3632 283.24 42.9632 283.44 40.9632C283.54 40.2632 283.54 39.4632 283.54 38.6632C283.54 37.7632 283.54 37.0632 283.44 36.3632C283.24 34.3632 282.54 33.0632 281.44 32.1632C280.24 31.3632 278.94 30.9632 277.24 30.9632C275.64 30.8632 274.24 31.2632 273.04 32.1632Z"/><path fill="#1D185E" d="M319.34 38.6632C319.34 39.5632 319.34 40.4632 319.24 41.2632C319.04 43.3632 318.44 45.2632 317.34 46.9632C316.24 48.6632 314.74 50.0632 312.84 51.0632C310.94 52.0632 308.74 52.5632 306.34 52.5632C303.94 52.5632 301.74 52.0632 299.84 51.0632C297.94 50.0632 296.44 48.6632 295.34 46.9632C294.24 45.2632 293.64 43.3632 293.44 41.2632C293.44 40.8632 293.34 39.9632 293.34 38.6632C293.34 37.3632 293.34 36.4632 293.44 36.0632C293.64 33.9632 294.24 31.9632 295.34 30.2632C296.44 28.5632 297.94 27.1632 299.84 26.1632C301.74 25.1632 303.94 24.6632 306.34 24.6632C308.74 24.6632 310.94 25.1632 312.84 26.1632C314.74 27.1632 316.24 28.5632 317.34 30.2632C318.44 31.9632 319.04 33.8632 319.24 36.0632C319.34 36.8632 319.34 37.7632 319.34 38.6632ZM302.14 32.1632C300.94 32.9632 300.34 34.3632 300.14 36.3632C300.14 36.6632 300.04 37.4632 300.04 38.6632C300.04 39.8632 300.04 40.6632 300.14 40.9632C300.34 42.9632 301.04 44.2632 302.14 45.1632C303.24 45.9632 304.64 46.3632 306.34 46.3632C307.94 46.3632 309.34 45.9632 310.54 45.1632C311.64 44.3632 312.34 42.9632 312.54 40.9632C312.64 40.2632 312.64 39.4632 312.64 38.6632C312.64 37.7632 312.64 37.0632 312.54 36.3632C312.34 34.3632 311.64 33.0632 310.54 32.1632C309.34 31.3632 308.04 30.9632 306.34 30.9632C304.64 30.8632 303.24 31.2632 302.14 32.1632Z"/><path fill="#1D185E" d="M329.84 51.5632C329.54 51.8632 329.24 51.9632 328.84 51.9632H324.94C324.54 51.9632 324.24 51.8632 323.94 51.5632C323.64 51.2632 323.54 50.9632 323.54 50.5632V16.8632C323.54 16.4632 323.64 16.1632 323.94 15.8632C324.24 15.5632 324.54 15.4632 324.94 15.4632H328.84C329.24 15.4632 329.54 15.5632 329.84 15.8632C330.14 16.1632 330.24 16.4632 330.24 16.8632V50.6632C330.24 50.9632 330.14 51.3632 329.84 51.5632Z"/><path fill="url(#paint0_linear)" d="M18.087 42.7134C13.3891 19.86 17.8402 4.86325 17.8402 4.86325C17.8402 4.86325 16.6495 13.9923 26.0098 28.7066C25.8906 46.9479 29.5403 56.4632 29.5403 56.4632L30.2903 55.9203L29.5403 56.5632C29.5403 56.5632 23.9903 52.106 18.087 42.7134Z"/><path fill="url(#paint1_linear)" d="M40.2125 39.4779C42.4579 41.7039 44.5529 43.2441 46.067 43.9766C46.0581 43.9722 46.0492 43.9677 46.0403 43.9633C46.0403 43.9633 47.7403 44.5632 48.0403 44.1632C50.1127 42.0045 50.6192 37.9817 49.2381 30.4207C41.3376 25.9824 40.3403 19.0632 40.3403 19.0632C40.3403 19.0632 38.9173 28.6691 40.2125 39.4779Z"/><path fill="url(#paint2_linear)" d="M17.8403 4.86324C17.8403 4.86324 11.3403 26.7632 22.3403 57.9632C22.6403 58.8632 22.3403 59.8632 21.5403 60.4632L9.94028 68.4632C8.84028 69.2632 7.24028 68.7632 6.74028 67.4632C3.64028 59.1632 -4.85972 31.6632 3.74028 1.56324C4.14028 0.363238 5.44028 -0.336762 6.64028 0.163238L17.8403 4.86324Z"/><path fill="url(#paint3_linear)" d="M40.0402 48.8632L29.5402 56.4632C29.5402 56.4632 23.9402 41.8632 26.8402 14.1632C27.0402 12.5632 28.7402 11.7632 30.1402 12.5632L40.3402 19.0632C40.3402 19.0632 38.3402 32.5632 41.2402 45.5632C41.5402 46.8632 41.0402 48.1632 40.0402 48.8632Z"/><path fill="url(#paint4_linear)" d="M59.4403 31.9632L49.7403 25.6632C49.1403 25.2632 48.2403 25.8632 48.4403 26.5632C50.7403 36.6632 50.4403 41.6632 48.0403 44.1632C47.7403 44.5632 46.0403 43.9632 46.0403 43.9632C47.6403 44.7632 48.0403 44.3632 48.0403 44.3632C49.6403 43.1632 55.6403 38.8632 59.4403 36.2632C60.9403 35.1632 60.9403 32.9632 59.4403 31.9632Z"/><defs><linearGradient id="paint0_linear" x1="29" x2="35" y1="18.5" y2="39" gradientUnits="userSpaceOnUse"><stop stop-color="#131057"/><stop offset="1" stop-color="#4F48AD"/></linearGradient><linearGradient id="paint1_linear" x1="29" x2="35" y1="18.5" y2="39" gradientUnits="userSpaceOnUse"><stop stop-color="#131057"/><stop offset="1" stop-color="#4F48AD"/></linearGradient><linearGradient id="paint2_linear" x1="18.352" x2="6.62" y1="47.5" y2="19.663" gradientUnits="userSpaceOnUse"><stop stop-color="#EE6D93"/><stop offset="1" stop-color="#F7C6B8"/></linearGradient><linearGradient id="paint3_linear" x1="32.823" x2="31.015" y1="55.766" y2="12.24" gradientUnits="userSpaceOnUse"><stop stop-color="#3CAC96"/><stop offset="1" stop-color="#5FCEB8"/></linearGradient><linearGradient id="paint4_linear" x1="53.619" x2="46.587" y1="22.003" y2="37.959" gradientUnits="userSpaceOnUse"><stop stop-color="#80C3FF"/><stop offset=".455" stop-color="#349BF7"/><stop offset="1" stop-color="#714DD6"/></linearGradient></defs></svg>