<svg height="40" viewBox="0 0 140 40" width="140" xmlns="http://www.w3.org/2000/svg" xmlns:xlink="http://www.w3.org/1999/xlink"><defs><path id="a" d="m30.0702022.86031472c-2.2494391-.52062952-5.94702-.86031472-10.1271823-.86031472-4.1801622 0-7.8777432.3396852-10.12718216.86031472-4.48495861.94382942-8.01683361 4.48579549-8.95797406 8.98356827-.51914625 2.25586601-.85786368 5.96401141-.85786368 10.15611701s.33871743 7.900251.85786368 10.156117c.94114045 4.4977728 4.47301545 8.0397389 8.95797406 8.9835683 2.24943896.5206295 5.94701996.8603147 10.12718216.8603147 4.1801623 0 7.8777432-.3396852 10.1271823-.8603147 4.4849586-.9438294 8.0168336-4.4857955 8.957974-8.9835683.5191463-2.255866.8578637-5.9640114.8578637-10.156117s-.3387174-7.900251-.8578637-10.15611701c-.9411404-4.49777278-4.4730154-8.03973885-8.957974-8.98356827z"/><mask id="b" fill="#fff"><use fill="#fff" fill-rule="evenodd" xlink:href="#a"/></mask></defs><g fill="none" fill-rule="evenodd"><use fill="#00b388" xlink:href="#a"/><path d="m24.7352702 30.7050309c-.3784738-.9034136-1.1817806-1.5836912-2.1591829-1.7893789-.5848541-.1353637-1.5462252-.2236818-2.6330674-.2236818-1.0868421 0-2.0482132.0883181-2.6330673.2236818-.9704193.2042182-1.7692219.8762692-2.151006 1.77005-.1324025.3099627-.4496566.499107-.7852919.4681848-.0830069-.0076396-.1547071-.0144785-.2151013-.0205091-1.5639727-.156168-2.7932495-.3740306-3.5074594-.6282809-.0011584-.0006084-.002575-.0012281-.00425-.0018594-.4792731-.1806248-.82030929-.6445092-.82030929-1.1882745 0-.0135163.00021072-.0269832.00062903-.0403977.0010987-.0218851.00237992-.044235.00384253-.0670448.00042516-.0050856.00088023-.0101628.00136502-.0152312.00136132-.0142324.00221434-.0279925.00255906-.0412802.12174352-1.632392 1.11027275-5.4540793 2.58675525-9.8160838 1.6879231-4.9866682 3.4531272-9.0237835 4.2491212-9.81121405.1270429-.13267344.2736465-.24378633.4356923-.3294752.0632512-.0362263.1433948-.07086954.238545-.1035528.0024864-.00085871.0049754-.00171181.007467-.00255928.5229873-.17735827 1.4868462-.29615371 2.5895479-.29615371 1.1046236 0 2.0684825.11879544 2.5905142.2958383.0034472.00116288.0059362.00201598.0084226.00287469.0951502.03268326.1752938.0673265.238545.1035528.1620458.08568887.3086494.19680176.4345336.32804636.0004108.00042835.0007971.00090463.0011587.00142884.795994.78743055 2.5611981 4.82454585 4.2491212 9.81121405 1.4764825 4.3620045 2.4650117 8.1836918 2.5867552 9.8160838.0003448.0132877.0011978.0270478.0025591.0412802.0004848.0050684.0009399.0101456.001365.0152312.0014626.0228098.0027438.0451597.0038425.0670448.0004184.0134145.0006291.0268814.0006291.0403977 0 .5437653-.3410362 1.0076497-.8203093 1.1882745-.001675.0006313-.0030916.001251-.00425.0018594-.713583.2540271-1.9413289.4717304-3.5033415.6278695-.0677701.0067743-.149717.0145617-.2458408.0233622l-.0000013-.000015c-.3218399.0294656-.6256133-.1531981-.7504921-.4512826z" fill="#fff" fill-rule="nonzero" mask="url(#b)"/><path d="m63.7083236 13.325919h3.8115151v16.6800017h-3.8115151v-2.9308801c-1.1910985 2.07888-3.2329816 3.2716801-5.8874296 3.2716801-4.4240801 0-7.9633441-3.8851202-7.9633441-8.6904004 0-4.8052801 3.539264-8.6563203 7.9633441-8.6563203 2.654448 0 4.6963311 1.1928 5.8874296 3.2716801zm57.0640824 0h3.811515v16.6800017h-3.811515v-2.9308801c-1.191099 2.07888-3.232982 3.2716801-5.88743 3.2716801-4.42408 0-7.963344-3.8851202-7.963344-8.6904004 0-4.8052801 3.539264-8.6563203 7.963344-8.6563203 2.654448 0 4.696331 1.1928 5.88743 3.2716801zm-62.0496006 13.3958414c2.8926677 0 5.0706764-2.1811201 5.0706764-5.0779202 0-2.8627201-2.1780087-5.0438402-5.0706764-5.0438402-2.824605 0-5.0706764 2.2492801-5.0706764 5.0438402 0 2.8286401 2.2460714 5.0779202 5.0706764 5.0779202zm56.8643676 0c2.892668 0 5.070676-2.1811201 5.070676-5.0779202 0-2.8627201-2.178008-5.0438402-5.070676-5.0438402-2.824605 0-5.070676 2.2492801-5.070676 5.0438402 0 2.8286401 2.246071 5.0779202 5.070676 5.0779202zm-42.3606065-21.7217604c1.327224 0 2.4502597 1.12464004 2.4502597 2.4196801 0 1.36320005-1.1230357 2.45376009-2.4502597 2.45376009s-2.4162284-1.09056004-2.4162284-2.45376009c0-1.29504006 1.0890044-2.4196801 2.4162284-2.4196801zm-1.8717262 8.2800003h3.7774837v16.6800007h-3.7774837zm15.6432885-.32592c.7276997 0 1.4283845.1082137 1.9335694.3005374.2973453.1131992.5596784.2382657.7632725.3439012l-1.5371649 3.2226684c-.4843857-.1470312-1.009204-.2205468-1.5340222-.2205468-1.8376948 0-3.8795779 1.5336-3.8795779 4.4644801v8.8948804h-3.7774838v-16.6800017h3.7774838v2.4004811c.7486905-1.60176 2.6204166-2.7264001 4.2539231-2.7264001zm18.9717412 12.7800005c-1.259161 2.7604801-4.18586 4.5667202-7.6570616 4.5667202-4.9345508 0-8.7120346-3.7147201-8.7120346-8.6563203s3.7434524-8.6904004 8.6780032-8.6904004c3.232982 0 5.955492 1.6017601 7.180622 4.0555202l-3.19895 1.80624c-.680628-1.32912-2.178009-2.2152-3.981672-2.2152-2.8586363 0-4.9345508 2.18112-4.9345508 5.0438402 0 2.8286401 2.1099459 5.0097602 4.9685822 5.0097602 1.9397886 0 3.5392636-.9201601 4.2879546-2.4537601zm26.225933-20.7340808v24.960001h-3.777484v-24.960001zm7.611881 0v24.960001h-3.777484v-24.960001z" fill="#101820"/></g></svg>