<svg xmlns="http://www.w3.org/2000/svg" id="Layer_1" data-name="Layer 1" viewBox="0 0 2400 506.92"><defs><style>.cls-1{fill:#007fd2}</style></defs><title>Amplitude logo_Blue</title><path d="M225.48,116.24c-1.39-1.82-3-2.78-4.7-2.78a6.87,6.87,0,0,0-3.6,1.19c-13.26,10.41-31.4,54.53-46.27,112.67l13.16.15c26,.29,52.84.6,79.38,1-7-26.63-13.61-49.46-19.67-67.88C234.92,133.67,228.94,121.61,225.48,116.24Z" class="cls-1"/><path d="M255,4.15c-137.51,0-249,111.48-249,249s111.49,249,249,249,249-111.48,249-249S392.51,4.15,255,4.15ZM434,257.67l-.06.05c-.26.21-.54.42-.82.62l-.28.19-.58.35a6,6,0,0,1-.55.31l0,0a13.18,13.18,0,0,1-6.13,1.51H307.64c.95,3.91,2,8.35,3.1,13.18C317.2,301.81,334.37,376,352.61,376H353l.2,0h.35c14.25,0,21.52-20.6,37.46-65.73l.19-.55c2.57-7.25,5.46-15.43,8.58-24.08l.8-2.21h0a5.7,5.7,0,0,1,11,2,5.56,5.56,0,0,1-.24,1.64h0l-.66,2.22c-1.66,5.37-3.43,12.69-5.47,21.16-9.5,39.37-23.85,98.85-60.68,98.85h-.26c-23.8-.19-38-38.23-44.11-54.47-11.37-30.37-20-62.73-28.27-94.07H163.34L140.8,332.85l-.33-.26a11.46,11.46,0,0,1-21.13-6.09l0-.39,1.36-8.16c3.11-18.53,6.84-37.78,11.1-57.23H86l-.17-.17a17.36,17.36,0,0,1-14.72-17.1,17.17,17.17,0,0,1,14.13-17,42.86,42.86,0,0,1,5.36-.23l2.23,0c14.54.25,30,.48,46.86.7,23.93-97.24,51.65-146.6,82.4-146.74,33,0,57.46,75.13,77.05,148.61l.08.29c40.25.81,83.15,2,124.86,5l1.75.16a14,14,0,0,1,2,.18l.25,0,.21,0,.11,0A13.18,13.18,0,0,1,434,257.67Z" class="cls-1"/><path d="M642.17,315.45l-19.73,48.78H565.09L674.2,109.52h50.64L833.58,364.23h-57l-19.74-48.78Zm57-141.51-37.24,92.73h75.22Z" class="cls-1"/><path d="M1156.82,266.3v97.93h-51.77V270.76c0-28.3-13.77-43.57-38-43.57-10.8,0-22.72,4.85-33.51,19.74A164.17,164.17,0,0,1,1035,266.3v97.93H983.28V270.76c0-28.3-13.78-43.57-38.35-43.57-10.06,0-21.23,6-31.66,20.11V364.23H861.51V185.86h51.76v10.8c11.17-10.43,23.09-16.39,44-16.39,22.71,0,42.82,8.94,57,25.33,19-17.51,36.87-25.33,64.8-25.33C1122.56,180.27,1156.82,214.16,1156.82,266.3Z" class="cls-1"/><path d="M1384.35,275.23c0,51.77-39.48,92.73-88.63,92.73-20.11,0-36.87-5.21-50.65-14.15v96.45h-51.76V185.86h51.76v10.43c13.78-8.94,30.54-14.15,50.65-14.15C1344.87,182.14,1384.35,222.73,1384.35,275.23Zm-51,0c0-26.44-19.37-49.52-46.18-49.52-15.27,0-30.53,5.21-42.08,20.85v57c11.55,15.26,26.81,20.48,42.08,20.48C1314,324,1333.33,301.3,1333.33,275.23Z" class="cls-1"/><path d="M1465.15,364.23h-51.76V99.84h51.76Z" class="cls-1"/><path d="M1511.7,122.93c0-17.51,13.78-30.54,31.28-30.54,17.13,0,30.91,13,30.91,30.54,0,17.13-13.78,29.79-30.91,29.79C1525.48,152.72,1511.7,140.06,1511.7,122.93Zm57.35,62.93V364.23h-51.77V185.86Z" class="cls-1"/><path d="M1757.1,361.63c-21.6,6.7-31.28,8.19-48,8.19-43.19,0-71.49-30.54-71.49-76.71V229.43H1600V185.86h37.62V122.18H1689v63.68h64.42v43.57H1689v63.31c0,20.11,12.28,29.41,31.28,29.41,9.68,0,20.11-2.23,30.16-4.84Z" class="cls-1"/><path d="M1964.89,364.23h-51.76V351.57c-14.52,11.55-30.91,18.25-51,18.25-46.92,0-78.2-33.89-78.2-85.65V185.86h51.76v93.47c0,28.3,14.16,43.57,38.36,43.57,13,0,27.18-7.82,39.1-22.34V185.86h51.76Z" class="cls-1"/><path d="M2184.61,364.23h-51.77V353.81c-13.78,8.94-30.53,14.15-50.64,14.15-49.16,0-89-40.59-89-93.1,0-51.76,39.84-92.72,89-92.72,20.11,0,36.86,5.21,50.64,14.15V99.84h51.77Zm-51.77-60.69v-57c-11.54-15.27-26.81-20.48-42.08-20.48-27.18,0-46.17,22.71-46.17,48.78,0,26.44,19,49.53,46.17,49.53C2106,324.39,2121.3,319.18,2132.84,303.54Z" class="cls-1"/><path d="M2394.63,288.27H2263.18c4.1,20.85,17.87,37.24,46.18,37.24q21.78,0,30.16-13.41h54c-9.69,34.26-43.2,57.72-85.28,57.72-57.35,0-96.08-41.33-96.08-94.59,0-55.11,38.36-95,94.59-95,51,0,89,36.13,89,91.24A104,104,0,0,1,2394.63,288.27Zm-131.08-30.54h80.81c-3-22.34-16.39-34.63-37.24-34.63C2282.17,223.1,2268.39,237.62,2263.55,257.73Z" class="cls-1"/></svg>