<svg xmlns="http://www.w3.org/2000/svg" class="logo" data-test="logo" viewBox="0 0 795.25 101.94"><title>Back Market</title><path d="M0,0H39.36C59,0,71.23,11.06,71.23,25.41A23.56,23.56,0,0,1,59,46.64,25.46,25.46,0,0,1,77,71.07c0,17.66-13.64,29.43-35.9,29.43H0ZM39.79,41.2c9.33,0,14.65-4,14.65-12.77S49.12,15.79,39.79,15.79h-23V41.2ZM44,84.71c9.19,0,15.51-4.6,15.51-13.79S53.14,57,44,57H16.82V84.71Zm40-20.1c0-24.12,15.79-37.33,34.17-37.33,9,0,16.65,4.28,22.11,9.31l5.63-7.88h10.73V100.5H140.22V91.62c-4.6,4.88-11.78,10.32-22.54,10.32C100.88,101.94,83.94,88.73,83.94,64.61Zm56.28,5.31V59.44c0-10.34-8.76-18.09-19.39-18.09-11.19,0-20.38,7.46-20.38,23.26S109.64,87.87,121,87.87C131.46,87.87,140.22,80.26,140.22,69.92ZM309.76,28.71h-20.1L260.28,62V0H243.91V100.5h16.37V67.24l29.38,33.26h20.1L277.88,64.61Zm41.12,0h-20.1L299,64.61l31.8,35.89h20.1L319,64.61ZM445,0,415.15,64.09l0,0,0,0L385.23,0h-18V100.5h16.33V32.57l24,51.85h15.22l24-51.85V100.5H463V0Zm28.05,64.61c0-24.12,15.79-37.33,34.17-37.33,9,0,16.65,4.28,22.11,9.31L535,28.71h10.74V100.5H529.35V91.62c-4.59,4.88-11.77,10.32-22.54,10.32C490,101.94,473.07,88.73,473.07,64.61Zm56.28,5.31V59.44c0-10.34-8.76-18.09-19.38-18.09-11.2,0-20.39,7.46-20.39,23.26s9.19,23.26,20.53,23.26C520.59,87.87,529.35,80.26,529.35,69.92ZM557.3,28.71H568l5.64,7.88c4.88-5.6,9.66-9,16.94-9h12.12l0,15.56H584.36c-6.77,0-10.69,3.18-10.69,10.81v46.5H557.3ZM762.66,82V42.78H749.31V28.71h13.35V14.82l16.51-9.57V28.71h16.08V42.78H779.17V79.42c0,4.73,2.73,6.89,8.18,6.89h7.18V100.5H782.47C770.7,100.5,762.66,95.47,762.66,82Zm-33.47-5.92c-2.71,7.22-8.67,12-18.55,12-11.49,0-19.53-7.18-20.24-19h55V64c0-23.11-14.64-36.75-35-36.75-19.09,0-35.89,14.93-35.89,37.33s14.36,37.33,35.89,37.33c16.72,0,28.2-8.14,33.2-22.86C739.29,78.17,734.37,77.14,729.19,76.06ZM710.35,40.63c10.34,0,18.52,5.89,19.53,16.51h-39.2C692.69,46.66,700.59,40.63,710.35,40.63ZM677,28.71h-20.1L627.49,61.88V0H611.12V100.5h16.37V67.34l29.38,33.16H677L645.09,64.61ZM202.2,87.43c-11.92,0-20.82-8.18-20.82-22.82s8.9-22.83,20.82-22.83c10.29,0,16.9,5.12,19.22,13.09,3.74-.75,11.36-2.28,14.57-3-3.57-15.4-16.1-24.58-33.94-24.58-20.67,0-36.75,15.07-36.75,37.33s16.08,37.33,36.75,37.33c17.46,0,29.72-8.83,33.86-24.61-3.27-.73-10.83-2.25-14.53-3C218.72,82.56,212.51,87.43,202.2,87.43Z"/></svg>