<svg xmlns="http://www.w3.org/2000/svg" viewBox="0 0 149 107"><g fill="none" fill-rule="evenodd"><path fill="#36ACB8" d="M102.659 78.692c-3.593-2.399-5.389-1.159-5.389-1.159a7.591 7.591 0 002.77 5.1 9.399 9.399 0 006.293 2.028 7.88 7.88 0 00-3.674-5.969zM48.873 92.6a10.72 10.72 0 00-1.425 8.02s2.92.822 6.594-3.976a11.056 11.056 0 002.167-9.515 12.667 12.667 0 00-7.324 5.505l-.012-.034zm-11.31-10.94a7.591 7.591 0 00-2.77 5.099s1.796 1.158 5.388-1.16a7.88 7.88 0 003.674-5.921 9.028 9.028 0 00-6.281 2.016l-.012-.035zm33.26 9.584a10.117 10.117 0 00-3.291 7.046c-.129 3.03.89 5.997 2.85 8.31a10.43 10.43 0 003.478-8.611c-.255-5.807-3.037-6.71-3.037-6.71v-.035zm19.551-.07a7.545 7.545 0 00.974 5.69 9.167 9.167 0 005.32 3.894 7.834 7.834 0 00-1.577-6.745c-2.688-3.407-4.717-2.804-4.717-2.804v-.035zm12.285-66.29a7.88 7.88 0 003.72-5.946 9.028 9.028 0 00-6.293 2.028 7.591 7.591 0 00-2.77 5.1s1.75 1.24 5.343-1.148v-.035zM39.59 29.6a7.88 7.88 0 00-3.674-5.922c-3.592-2.399-5.389-1.159-5.389-1.159a7.591 7.591 0 002.77 5.1 8.947 8.947 0 006.293 2.016V29.6zm11.914-12.98a7.834 7.834 0 00-1.576-6.745c-2.62-3.476-4.717-2.85-4.717-2.85a7.545 7.545 0 00.974 5.69 8.993 8.993 0 005.319 3.905zm40.562-4.195a10.743 10.743 0 002.168-9.364 12.748 12.748 0 00-7.336 5.389 10.28 10.28 0 00-1.345 7.938s2.874.812 6.548-3.986l-.035.023zM70.116 8.23A9.677 9.677 0 0066.895.29a11.265 11.265 0 00-2.62 7.637 9.271 9.271 0 003.072 6.444s2.584-.846 2.804-6.166l-.035.024z"/><path fill="#4B4A4B" d="M8.508 79.515L.268 45.13l14.753-3.477 1.275 5.238L6.71 49.21l2.249 9.364 6.953-1.645 1.275 5.238-6.953 1.646 2.248 9.364 9.584-2.318 1.275 5.238zm25.462-5.018a8.112 8.112 0 01-6.294-1.425 8.402 8.402 0 01-3.476-5.47l-3.222-19.03a8.112 8.112 0 011.425-6.293 8.298 8.298 0 015.47-3.477 8.31 8.31 0 019.666 6.896l.672 3.975-5.47.904-.672-4.114a2.978 2.978 0 00-1.275-2.028 2.805 2.805 0 00-2.318-.522 2.689 2.689 0 00-1.947 1.275 3.094 3.094 0 00-.521 2.318l3.372 19.18a2.828 2.828 0 001.159 1.947 2.99 2.99 0 002.248.521 3.164 3.164 0 002.028-1.158 2.7 2.7 0 00.522-2.249l-.811-4.81 5.47-.903.823 4.867a8.112 8.112 0 01-1.426 6.293 8.576 8.576 0 01-5.424 3.303zm84.346-8.761a9.445 9.445 0 01-2.85 5.922 7.382 7.382 0 01-3.976 1.947 8.112 8.112 0 01-3.002-.07 8.298 8.298 0 01-4.867-2.318 8.68 8.68 0 01-2.167-3.824 12.632 12.632 0 01-.371-5.1l5.1.371a7.406 7.406 0 00.973 4.636 2.84 2.84 0 002.028 1.345 3.28 3.28 0 003.001-1.275 3.917 3.917 0 00.904-2.249 6.513 6.513 0 00-1.344-4.635c-.904-1.16-2.248-2.851-3.975-5.17a20.119 20.119 0 01-3.002-5.098 11.59 11.59 0 01-.452-5.1 8.692 8.692 0 014.346-6.745 8.205 8.205 0 015.1-.753 9.11 9.11 0 014.635 2.028 7.081 7.081 0 012.098 3.14 9.677 9.677 0 01.521 4.196l-5.168.15a5.795 5.795 0 00-.754-3.476 2.55 2.55 0 00-1.947-1.159 2.318 2.318 0 00-2.399.974 4.636 4.636 0 00-.973 2.468 7.915 7.915 0 001.344 5.169 28.3 28.3 0 002.028 2.62c.76.798 1.46 1.65 2.098 2.549.992 1.304 1.8 2.74 2.399 4.265.232.58.407 1.181.521 1.796.19 1.121.24 2.262.151 3.396zm6.294 10.418l-5.24-1.043 7.117-34.605 5.238 1.043zm11.16-5.771l-3.292 7.568-5.389-1.345 14.603-32.658 7.116 1.796-3.025 35.649-5.39-1.426.824-8.112-5.447-1.472zm7.486-17.824l-5.389 12.956 3.825.974 1.564-13.93z"/><path fill="#FF7950" d="M43.47 52.213c0 15.32 12.42 27.739 27.741 27.739 15.32 0 27.74-12.42 27.74-27.739 0-15.32-12.42-27.74-27.74-27.74-15.32 0-27.74 12.42-27.74 27.74zm5.054 9.401a24.501 24.501 0 0131.979-32.07A24.504 24.504 0 0195.647 52.19 24.461 24.461 0 0171.21 76.694h-.07a24.504 24.504 0 01-22.617-15.08z"/><path fill="#36ACB8" d="M50.88 52.214c0 11.23 9.104 20.335 20.334 20.335 11.232 0 20.336-9.105 20.336-20.335S82.446 31.88 71.214 31.88c-11.23 0-20.334 9.104-20.334 20.334z"/><path fill="#D3DA31" d="M54.026 41.327c.272-.052.537-.065.735-.138.412-.23.796-.505 1.145-.822.296-.133.534-.046.752.041.276.109.523.219.82-.11.531-.592-.22-1.797-.22-2.55.013-.156.057-.309.123-.453a20.48 20.48 0 00-3.355 4.032zm-2.956 8.022a20.1 20.1 0 00-.13 1.197 20.596 20.596 0 00-.074 1.71 20.255 20.255 0 002.418 9.58c.213-.206.434-.356.646-.58.301-.52.67-1.042.97-1.575a15.402 15.402 0 001.793-1.275c.149-.452.37-.973.52-1.425.148-.45 1.039-1.043.9-1.876-.335-1.181-1.837-1.333-2.659-2.156-.369-.521-.75-1.159-1.154-1.645a6.95 6.95 0 00-3.212-2.097c-.007.047-.011.095-.017.142zm22.104-11.646a5.236 5.236 0 00-2.543 1.575c-.52.823.15 1.344-.82 1.796a6.429 6.429 0 01-1.491-.973c-.421.03-.805.25-1.041.602-.068.903.602 1.042.602 1.946-.37.522-1.273.603-1.492 1.16-.22.555 0 1.423-.45 1.945a50.143 50.143 0 00-1.941 1.877 4.225 4.225 0 00.299 5.098c.508.51 1.16.493 1.85.474.531-.014 1.085-.028 1.617.198.903.372 1.041 2.097 1.271 2.92.451 1.343-.368 1.947-.368 3.22 0 1.276.45 4.947 2.242 4.867 2.022-.07 2.463-2.097 3.583-3.476a5.503 5.503 0 001.272-1.345c0-.67.07-1.424.07-2.095.45-1.159 1.871-1.577 2.61-2.468.741-.893.07-1.495.452-2.168a.07.07 0 00.07-.069c.6-.37 1.155-.673 1.87-1.042.284-.364.585-.712.903-1.044l.671-.219c2.31 1.158 1.49 3.59 3.133 4.866.149-.07.218-.15.368-.22.125-.335.198-.688.221-1.044a2.311 2.311 0 012.462-1.576 6.374 6.374 0 011.57 2.55c.151.904-.45 1.425-.45 2.166.07.64.31 1.247.68 1.77.002 0 .002 0 .002-.002a20.284 20.284 0 001.161-6.779v-.008c0-.334-.008-.666-.025-.995l-.01-.156a20.274 20.274 0 00-5.644-12.936 8.652 8.652 0 00-1.354.07c-2.1.351-4.219.575-6.345.672-1.761 0-2.777-1.248-4.294-1.248-.225 0-.46.027-.711.091zm.405 9.406c-.52-.069-1.156-.069-1.642-.15-.068 0-2.692-2.097-2.762-2.248a.89.89 0 01.52-.52 7.23 7.23 0 011.873 1.158l1.04.22c.37.3.751.521 1.156.823a5.36 5.36 0 001.42.3c0 .07.07.152.07.22v.372a2.47 2.47 0 00-.52.197 2.06 2.06 0 01-1.155-.372z"/><path fill="#D3DA31" d="M77.128 60.33a2.5 2.5 0 00-1.27 2.028c.11.226.293.409.518.521.822-.302 1.723-1.645 1.156-2.468a.673.673 0 00-.404-.08zM60.507 34.911c.165.17.29.376.37.6a2.626 2.626 0 00-.452 1.646c.054.316.244.593.52.753a5.296 5.296 0 002.242-.753c.751-.15 1.573-.22 2.312-.37.74-.152 2.438-1.518 1.838-2.56-.37-.151-1.047-.385-1.156-.372a8.303 8.303 0 01-3.27-.218c-.833.373-1.636.797-2.404 1.274z"/></g></svg>