<svg xmlns="http://www.w3.org/2000/svg" width="121.124" height="45" viewBox="26.461 0 121.124 45"><path fill="#C73A48" d="M33.988 26.488h4.133v8.69h1.282v2.365h-5.415v-2.365h1.261v-6.302h-1.261v-2.388zm4.133-4.422v3.052h-2.872v-3.052h2.872zM47.033 35.179h1.106v-4.666c-.044-1.171-.619-1.854-1.769-1.854-.862 0-1.614.488-2.167.84v5.684h1.105v2.365h-5.237V35.18h1.261v-6.302h-1.261v-2.389h4.135v1.438h.044c.708-.773 1.614-1.415 2.742-1.57a5.02 5.02 0 0 1 .995-.044c1.35.066 2.233.729 2.676 1.792 1.128-1.262 2.41-1.836 3.825-1.836 2.211 0 3.318 1.438 3.318 3.715v5.196h1.282v2.365h-5.266V35.18h1.104v-4.534c0-1.281-.575-1.989-1.768-1.989-.84 0-1.614.488-2.167.862 0 .311.022.642.022.995v4.666h1.105v2.365h-5.086v-2.366zM66.711 35.179h1.105v-4.666c-.044-1.171-.62-1.854-1.769-1.854-.863 0-1.614.488-2.166.84v5.684h1.104v2.365h-5.24V35.18h1.261v-6.302h-1.26v-2.389h4.135v1.438h.043c.708-.773 1.614-1.415 2.742-1.57.329-.047.662-.063.994-.044 1.349.066 2.234.729 2.676 1.792 1.128-1.262 2.41-1.836 3.825-1.836 2.211 0 3.318 1.438 3.318 3.715v5.196h1.282v2.365H73.5V35.18h1.105v-4.534c0-1.281-.575-1.989-1.769-1.989-.84 0-1.614.488-2.166.862 0 .311.022.642.022.995v4.666h1.104v2.365H66.71v-2.366zM79.36 32.016c0-3.471 1.481-5.748 5.373-5.748s5.352 2.277 5.352 5.748c0 3.495-1.464 5.75-5.352 5.75s-5.373-2.255-5.373-5.75zm3.051 0c0 2.058.508 3.384 2.321 3.384s2.322-1.326 2.322-3.384c0-2.033-.508-3.36-2.322-3.36s-2.321 1.33-2.321 3.36zM90.924 22.066h4.135v5.527h.049c.707-.773 1.923-1.326 3.118-1.326 3.095 0 4.023 2.609 4.023 5.748 0 3.163-1.105 5.75-4.201 5.75-1.105 0-2.322-.465-3.096-1.238h-.044l-.509 1.017h-3.476v-2.365h1.261V24.455h-1.261v-2.389zm6.125 6.589a3.379 3.379 0 0 0-1.99.683v5.352a3.22 3.22 0 0 0 1.99.708c1.702 0 2.167-1.504 2.167-3.384 0-1.879-.465-3.359-2.167-3.359zM103.085 26.488h4.135v8.69h1.282v2.365h-5.417v-2.365h1.26v-6.302h-1.26v-2.388zm4.135-4.422v3.052h-2.875v-3.052h2.875zM109.165 22.066h4.135v13.112h1.282v2.365h-5.417v-2.365h1.262V24.455h-1.262v-2.389zM115.245 26.488h4.135v8.69h1.283v2.365h-5.418v-2.365h1.262v-6.302h-1.262v-2.388zm4.135-4.422v3.052h-2.873v-3.052h2.873zM124.312 32.636c.088 1.659 1.084 2.764 3.122 2.764a11.996 11.996 0 0 0 3.449-.442l.332 2.277c-1.464.42-2.764.531-4.196.531-4.246 0-5.749-2.255-5.749-5.75 0-3.471 1.503-5.748 5.706-5.748 4.752 0 5.018 3.273 4.553 6.368h-7.217zm0-1.814h4.378c.195-1.215-.089-2.342-1.901-2.342-1.593-.001-2.345.926-2.477 2.342zM132.604 26.488h4.134v1.77h.045c.707-.994 2.057-1.99 3.824-1.99v2.72c-1.48 0-2.984.397-3.869.841v5.351h1.395v2.365h-5.528V35.18h1.26v-6.302h-1.26v-2.39z"/><g fill="#C73A48" opacity=".8"><path d="M48.202 8.798h4.293v1.451h-.529c-.25 0-.326.098-.326.342v3.272a.318.318 0 0 0 .332.304l.013-.001h1.241a.35.35 0 0 0 .363-.336v-1.179h1.715v2.968h-7.103v-1.447h.5c.234 0 .358-.08.358-.314v-3.266c0-.209-.043-.342-.326-.342H48.2V8.798zM56.053 8.798h7.065v2.19H61.35v-.363c0-.223-.112-.375-.456-.375h-1.54v1.231h1.659v1.322h-1.659v1.366h1.612a.357.357 0 0 0 .383-.327l.001-.047v-.371h1.768v2.197h-7.065v-1.449h.381c.204 0 .339-.084.339-.293v-3.272c0-.22-.034-.358-.317-.358h-.403V8.798zM66.634 8.798h7.231v2.19h-1.769v-.371c0-.195-.122-.368-.39-.368h-1.605v1.231h1.483v1.322h-1.483v.985c0 .272.118.384.471.384h.562v1.445h-4.5v-1.445h.595a.276.276 0 0 0 .293-.259V10.606c0-.206-.034-.358-.317-.358h-.57l-.001-1.45zM77.96 10.591c0-.256.078-.342.327-.342h.532V8.798h-4.271v1.451h.545c.285 0 .327.131.327.342v3.273c0 .253-.155.308-.336.308h-.535v1.445h4.271v-1.445h-.523c-.207 0-.335-.082-.335-.316v-3.265zM85.268 8.798h1.513v2.397H85.26a1.83 1.83 0 0 0-1.667-1.05c-.922 0-1.637.666-1.637 1.897 0 2.083 1.15 2.26 1.652 2.26 1.021 0 1.257-.725 1.257-1.018h-.951V12.03h3.275s-.01.513-.015.879c0 .176-.172 2.83-3.84 2.83-2.643 0-4.032-1.511-4.032-3.666 0-1.432 1.12-3.378 3.806-3.378 1.505 0 2.156.616 2.156.616l.004-.513zM95.192 14.172c-.293 0-.382-.261-.558-.684a751.643 751.643 0 0 1-1.804-4.692h-2.635s-1.783 4.831-1.868 5.037c-.097.241-.249.337-.515.337h-.379v1.445h3.221V14.24h-.447c-.194 0-.233-.148-.171-.353.073-.239.204-.612.204-.612h1.951l.208.646c.075.233-.171.319-.317.319h-.381v1.375h3.875v-1.443h-.384zm-4.634-1.83l.671-2.006h.021l.642 2.006h-1.334zM104.28 14.172c-.264 0-.309-.127-.438-.302-.131-.175-.954-1.448-.954-1.448s1.197-.334 1.197-1.607c0-1.272-1.066-1.724-1.521-1.841s-1.433-.176-1.696-.176h-4.664v1.451h.465c.287 0 .326.144.326.342v3.242c0 .143-.021.339-.342.339h-.446v1.445h4.11v-1.445h-.421c-.286 0-.321-.158-.321-.329v-1.102h.916l1.682 2.876h2.576v-1.445h-.469zm-3.771-2.61h-.932v-1.404h1.016c.292 0 .822.104.822.716-.004.456-.347.688-.91.688h.004zM108.543 8.694c-2.86 0-3.897 1.915-3.897 3.452 0 2.035 1.432 3.59 3.869 3.59 2.172 0 3.883-1.184 3.883-3.504-.001-2.208-1.63-3.538-3.855-3.538zm.047 5.609c-.63 0-1.291-.374-1.291-2.275 0-1.171.448-1.898 1.218-1.898.727 0 1.257.488 1.257 2.031-.001 1.673-.552 2.142-1.184 2.142zM123.935 8.778c-.603-.217-.824-.301-1.232-.301-.626 0-.943.34-1.113 1.184l-.092.488h1.057l-.159.853h-1.067l-.705 3.79c-.092.483-.33 1.023-.591 1.336-.363.446-1.079.74-1.817.74-.195 0-.389-.016-.58-.049a2.757 2.757 0 0 1-.908-.303l.522-.891c.478.209.716.275 1.022.275.522 0 .943-.455 1.08-1.166l.683-3.733h-1.067l.158-.864 1.092.011.158-.834c.201-1.088 1.088-1.728 2.348-1.728a3.63 3.63 0 0 1 .455.019c.311.033.617.096.916.188l-.16.985zM125.921 11.464a.355.355 0 0 0-.195-.052c-.174 0-.35.077-.564.267a2.241 2.241 0 0 0-.597.762c-.144.283-.216.523-.319 1.073l-.133.721h-1.223l.757-4.06 1.052.014-.195 1.191a4.79 4.79 0 0 0 .205-.308c.162-.223.345-.429.545-.617a.94.94 0 0 1 .709-.293c.154.002.305.05.432.138l-.474 1.164zM116.71 12.215a1.17 1.17 0 1 1 0 0z"/></g></svg>