<svg xmlns="http://www.w3.org/2000/svg" viewBox="0 0 108 24"><g fill="none"><g><path d="M24 0h83.25v24H24z"/><g fill="#201"><path d="M45.58 18l-.75-10.22L41.3 18h-2.35L35.4 7.78 34.68 18h-2.4l1.07-14h3.4l3.55 10.57L43.83 4h3.35l1.07 14zm8.7.52c-.88 2.43-2 3.18-3.88 3.18-.42 0-.68-.05-.9-.1l-.33-2c.33.07.68.15 1.13.15.7 0 1.27-.33 1.57-1.03l.23-.65-3.55-9.65 2.53-.32 2.27 6.97 2.2-6.85h2.43l-3.7 10.3zm8.57-.37c-1.7 0-3.17-.38-4.4-.97l.4-2.46a8.26 8.26 0 0 0 4.05 1.23c1.25 0 2.1-.6 2.1-1.7 0-1.03-.47-1.45-2.52-2.33-2.73-1.12-3.83-2-3.83-4.17 0-2.48 1.9-3.93 4.53-3.93 1.57 0 2.67.33 3.7.85l-.4 2.43a6.2 6.2 0 0 0-3.3-1.1c-1.36 0-1.93.65-1.93 1.5 0 .9.45 1.32 2.4 2.12 2.88 1.18 3.92 2.18 3.92 4.35-.02 2.78-2.02 4.18-4.72 4.18m10.1.03c-2.73 0-4.65-1.83-4.65-5.03 0-3.4 2.13-5.15 4.72-5.15 1.33 0 2.3.35 3.08.82l-.35 2.2a4.07 4.07 0 0 0-2.58-.92c-1.4 0-2.42 1.02-2.42 2.97 0 2.03 1.1 3 2.58 3 .85 0 1.62-.22 2.52-.92l.33 2.07c-.98.7-2 .95-3.23.95m6.75-5.8V18h-2.42V8.2h2.07l.3 1.98c.65-1.13 1.63-2.1 3.15-2.18l.38 2.42c-1.53.1-2.78.9-3.48 1.95M85.1 6.55c-.8 0-1.45-.57-1.45-1.38 0-.82.65-1.42 1.45-1.42.8 0 1.45.6 1.45 1.43 0 .82-.65 1.37-1.45 1.37zM83.87 8.2h2.43V18h-2.42V8.2zm8.78 9.9c-.93 0-1.68-.15-2.27-.38v3.7l-2.43.38V8.2h2.08l.22 1.35c.7-.8 1.65-1.55 3-1.55 2.05 0 3.7 1.55 3.7 4.83-.03 3.64-2.05 5.27-4.3 5.27m-.07-7.95c-.88 0-1.55.55-2.2 1.38v4.2c.6.27 1.05.42 1.9.42 1.25 0 2.2-1.02 2.2-3.17 0-1.9-.8-2.83-1.9-2.83m9.22 8c-1.93 0-3.23-.7-3.23-2.95v-5H97.2v-2h1.38V5.1l2.4-.38V8.2h2l.3 2h-2.33v4.63c0 .8.38 1.22 1.3 1.22.28 0 .55-.03.78-.07l.3 2.05c-.35.05-.8.12-1.53.12M105.5 18.57c-.8 0-1.35-.55-1.35-1.37s.55-1.38 1.35-1.38 1.35.55 1.35 1.38c0 .8-.57 1.38-1.35 1.38zm0-2.6c-.65 0-1.15.45-1.15 1.23s.5 1.2 1.15 1.2c.65 0 1.15-.45 1.15-1.2 0-.8-.53-1.23-1.15-1.23zm.35 1.95l-.4-.6h-.1v.58H105v-1.52h.53c.35 0 .55.17.55.45 0 .22-.1.35-.3.42l.4.6-.33.07zm-.38-1.27h-.15v.43h.15c.15 0 .25-.08.25-.23 0-.13-.07-.2-.25-.2z"/></g></g><g><path fill="#1a9fff" d="M0 0v20.6A3.4 3.4 0 0 0 3.4 24H24V3.4C24 1.5 22.5 0 20.6 0H0z"/><path d="M21 18h3v3h-3z" class="LogoM"/><path fill="#fff" d="M14.3 18l2.55-8.67c.2-.6.45-1.18.55-1.63 0 .55.05 1.24.1 1.83l.6 8.47H21L19.7 4.2h-4l-2.2 7.84c-.2.64-.3 1.28-.4 1.77a22.2 22.2 0 0 1-.34-1.77c-.25-1.68-.8-4.73-1.4-6.95-.25-1.08-1.65-1.38-2.5-1.03-.65.3-1 1.03-1.15 1.62-.3.99-.55 1.97-.8 2.96l-.65 3.1c-.05.25-.15.7-.4.7-.2 0-.2-1-.2-1.34 0-1.08-.1-2.56-.25-3.64-.2-1.18-.5-2.56-2.1-2.37-.45.05-1.2.35-1.04.8.15.63.35 1.37.45 2.06.45 2.46.8 6.8 1 9.06.1.99 1.14 1.43 2.14.99.5-.2.8-.79 1-1.23 1-2.66 1.7-5.47 2.5-8.18 0-.05.1-.4.25-.4.45 0 1.05 6.36 1.15 7 .2.89.45 2.56 1.55 2.8h2z"/></g></g></svg>