<svg xmlns="http://www.w3.org/2000/svg" viewBox="0 0 1244.8 262.7"><path fill="inherit" stroke="inherit" stroke-width="inherit" d="M542.4 65.8h-65.7V197H510v-48.1s47.5 2.6 60.9-15.1c10-11.4 10.6-29.7 6.4-43.8-5.4-16-17.4-24.3-34.9-24.2zm3.8 59.1c-7.8 9.2-25 9.1-36.4 8.3l.1-52.6s29.6-4.1 37.4 9.3c4.5 8 5.6 26.1-1.1 35zm-282.7 93.5c-11.9-4.4-29-17.7-38.9-29.8-12.7-14.6-43.2-55.6-43.2-55.6-15.7-20.2-36.7-53.9-57.4-70.8v134.5h18.5v-67.9c13 16.6 28.3 37.9 39.8 51.3 5 6 18.1 20.1 21.7 23.2 23.9 23.3 67.7 33.7 104.2 20.9V223c-12.5 2.7-28.7 1.8-44.7-4.6zM150.6 73.7c12.7 14.6 43.2 55.6 43.2 55.6 15.7 20.2 36.7 53.9 57.4 70.8V65.6h-18.5v67.9c-13-16.6-28.3-37.9-39.8-51.3-5-6-18.1-20.1-21.7-23.2C147.3 35.6 103.5 25.2 67 38v1.3c12.6-2.7 28.8-1.7 44.7 4.7 11.9 4.3 29 17.6 38.9 29.7zm209.1 6.8l.1-14.7h-89.9V197h89.9l-.1-14.7c-17.2.4-38.8 3.2-56.5 1.4v-47.1c14.4-.8 31.8-.5 45.1.7v-15.6c-13.6 1.7-30.6 1.6-45.1.7V79c17.6-1.7 39.3 1.1 56.5 1.5zm92.9 52.7C437.4 120.1 419 116 406 107c-9.1-7-7.7-16.1-3.1-21 10.9-12.2 33.8-6.4 39.1-5.2 6.7 2 10.3 4.1 16.7 7V71.3c-27.2-7.9-70.8-15.5-87.9 11.9-6.3 11.3-8 31.7 10.2 43.6 18.3 14.6 48.4 21.5 52.1 33.3 2.3 6.4-.5 12.6-4.8 16.9-16.3 15.1-42.3 5.6-59.2-1.9v16.2c18.2 8.2 41.3 10.3 61.8 5.9 14-3.1 29.8-15.5 32.3-30.8 2.5-14.9-.7-24.8-10.6-33.2zm247.8 56.9l-4.1-7.7c-8.7-16.3-15.7-29.9-23.3-47.6.8-.6.6-.3 2.9-1.4 12.2-5.8 20.2-16.3 20-34.4-.6-22.3-20.9-33.3-38.7-33.3h-66.6V197h33.5v-54.3h19c6.3 10.6 19.3 40.7 21.3 45.4l3.9 8.8H704l-3.2-6.1c-.1-.1-.2-.4-.4-.7zm-41.2-70.4c-7.9 9.4-24.1 8.7-35.3 8.7V80.3s28.6-4.3 36.5 9.5c4 7.7 4.5 22.1-1.2 29.9zm424.6-55.9c-8.7-.1-65 .9-65.2 67.1 0 65.7 55.5 68.4 65.2 68.3 9.6.1 65.2-2.5 65-68.3-.1-66.2-56.3-67.2-65-67.1zm.2 117.1h-.5c-3.7 0-30.5 1.1-30.4-52.5.2-49.8 26.3-48.4 30.7-48.4 4.3 0 30.4-1.4 30.6 48.4.2 53.6-26.7 52.5-30.4 52.5zm84.9 1c.5-.3 2.7-1 2.7-4.2 0-2.7-1.8-4.4-5.3-4.4h-7.9v16.5h2.9V183h4.2c2.7 0 3.3 1.4 3.3 4.4 0 .8 0 1.7.4 2.4h3.1c-.6-.6-.9-2.4-.9-4.3 0-2.7-1.4-3.5-2.5-3.6zm-2.9-1.1h-4.7v-5.1h4.7c1.5 0 2.9.4 2.9 2.5-.1 1.6-1.1 2.6-2.9 2.6zm-1.6-14.8c-8.6 0-15.6 7-15.6 15.5 0 8.7 7 15.6 15.6 15.6s15.7-7 15.7-15.6-7-15.5-15.7-15.5zm0 29.6c-7.8 0-14.1-6.3-14.1-14.1a14.06 14.06 0 0 1 28.1 0c0 7.8-6.3 14.1-14 14.1zm-266.2-62.4C883 120.1 864.5 116 851.6 107c-9.1-7-7.7-16.1-3.1-21 10.9-12.2 33.8-6.4 39.1-5.2 6.7 2 10.3 4.1 16.7 7V71.3c-27.2-7.9-70.8-15.5-87.9 11.9-6.3 11.3-8 31.7 10.2 43.6 18.3 14.6 48.4 21.5 52.1 33.3 2.3 6.4-.5 12.6-4.8 16.9-16.3 15.1-42.3 5.6-59.2-1.9v16.2c18.2 8.2 41.3 10.3 61.8 5.9 14-3.1 29.8-15.5 32.3-30.8 2.5-14.9-.7-24.8-10.6-33.2zm101.9 0c-15.1-13.1-33.6-17.3-46.5-26.2-9.2-7-7.8-16.1-3.2-21 10.9-12.2 33.7-6.4 39.1-5.2 6.7 2 10.4 4.1 16.8 7V71.3c-27.3-7.9-70.8-15.5-88 11.9-6.4 11.3-8 31.7 10.2 43.6 18.4 14.6 48.4 21.5 52.1 33.3 2.4 6.4-.4 12.6-4.8 16.9-16.2 15.1-42.3 5.6-59.1-1.9l-.1 16.2c18.3 8.2 41.3 10.3 61.8 5.9 14.1-3.1 29.8-15.5 32.4-30.8 2.4-14.9-.8-24.8-10.7-33.2zm-285 63.8h89.8v-14.7c-17.3.4-38.9 3.2-56.6 1.4v-47.1c14.3-.8 31.8-.5 45.2.7v-15.6c-13.7 1.7-30.7 1.6-45.2.7V79c17.7-1.8 39.3 1 56.6 1.3V65.8h-89.8V197z"/><path fill="none" d="M1.4 0H1244v262.3H1.4z"/></svg>