<svg xmlns="http://www.w3.org/2000/svg" xmlns:xlink="http://www.w3.org/1999/xlink" width="128" height="29" version="1.1" viewBox="0 0 128 29"><title>Group 12</title><desc>Created with Sketch.</desc><defs><polygon id="path-1" points="0 .216 27.881 .216 27.881 28.098 0 28.098"/><polygon id="path-3" points=".046 .079 25.869 .079 25.869 26.817 .046 26.817"/><polygon id="path-5" points=".028 .216 39.493 .216 39.493 28.09 .028 28.09"/></defs><g id="Page-1" fill="none" fill-rule="evenodd" stroke="none" stroke-width="1"><g id="Artboard" transform="translate(0.000000, -6.000000)"><g id="Group-12" transform="translate(0.000000, 6.000000)"><g id="Group-3"><mask id="mask-2" fill="#fff"><use xlink:href="#path-1"/></mask><path id="Fill-1" fill="#005BFF" d="M21.3149237,15.1257904 C20.8942196,18.4367462 18.2207747,21.1101912 14.9098189,21.5308952 C10.0527378,22.1482821 5.94935478,18.0448991 6.56674173,13.1878181 C6.98744575,9.87686223 9.66089071,7.20341727 12.9714668,6.78271325 C17.8289276,6.1653263 21.9319309,10.2687093 21.3149237,15.1257904 M15.3631768,0.286481213 C6.5462381,-0.586441661 -0.802413184,6.76258932 0.0705096902,15.5791483 C0.716753593,22.1034779 5.9937793,27.3808833 12.5184886,28.0271272 C21.3350476,28.9000501 28.6840786,21.5510191 27.810776,12.7344601 C27.1649118,6.21013052 21.8875064,0.932725115 15.3631768,0.286481213" mask="url(#mask-2)"/></g><path id="Fill-4" fill="#005BFF" d="M53.9110577,21.4895466 L42.603326,21.4895466 L57.0355983,2.5684548 C57.5137888,1.94128743 57.0635445,1.04065041 56.2717354,1.04065041 L35.4098962,1.04065041 C33.3488639,1.04065041 31.7260435,2.90402406 32.1541638,5.02775317 C32.4677822,6.58487166 33.9372867,7.64866477 35.535266,7.64866477 L44.8161218,7.64866477 L30.3733697,26.5840279 C29.8994487,27.2054096 30.3454235,28.097561 31.130246,28.097561 L53.785688,28.097561 C55.3840554,28.097561 56.8531717,27.0341536 57.1667902,25.4766494 C57.5949104,23.3529203 55.9720901,21.4895466 53.9110577,21.4895466"/><g id="Group-8" transform="translate(101.983740, 1.040650)"><mask id="mask-4" fill="#fff"><use xlink:href="#path-3"/></mask><path id="Fill-6" fill="#005BFF" d="M21.8798278,0.153347899 C20.3590244,0.472314577 19.3149307,1.88194151 19.3149307,3.43028274 L19.3149307,14.3018256 L1.57604974,0.284440536 C0.957780966,-0.204108187 0.0464466762,0.23451863 0.0464466762,1.02031229 L0.0464466762,23.4661156 C0.0464466762,25.0140757 1.09054041,26.4240837 2.61134385,26.7426693 C4.73243424,27.1873935 6.60101387,25.5879871 6.60101387,23.5533836 L6.60101387,12.5888564 L24.3398948,26.6062415 C24.9581636,27.0947902 25.8694978,26.6561634 25.8694978,25.8699887 L25.8694978,3.34301468 C25.8694978,1.30841122 24.0009182,-0.291376251 21.8798278,0.153347899" mask="url(#mask-4)"/></g><g id="Group-11" transform="translate(58.276423, 0.000000)"><mask id="mask-6" fill="#fff"><use xlink:href="#path-5"/></mask><path id="Fill-9" fill="#005BFF" d="M19.7601488,21.5848881 C12.2309117,21.5848881 6.60519605,17.6611016 6.60519605,14.1530832 C6.60519605,10.644685 12.2309117,6.72089862 19.7601488,6.72089862 C27.2893858,6.72089862 32.9151015,10.644685 32.9151015,14.1530832 C32.9151015,17.6611016 27.2893858,21.5848881 19.7601488,21.5848881 M19.7601488,0.215933553 C8.86231627,0.215933553 0.0277196937,6.45587027 0.0277196937,14.1530832 C0.0277196937,21.8499164 8.86231627,28.0898531 19.7601488,28.0898531 C30.6583652,28.0898531 39.4925779,21.8499164 39.4925779,14.1530832 C39.4925779,6.45587027 30.6583652,0.215933553 19.7601488,0.215933553" mask="url(#mask-6)"/></g></g></g></g></svg>