<?xml version="1.0" encoding="UTF-8"?>
<svg width="118px" height="36px" viewBox="0 0 118 36" version="1.1" xmlns="http://www.w3.org/2000/svg" xmlns:xlink="http://www.w3.org/1999/xlink">
    <!-- Generator: Sketch 52.5 (67469) - http://www.bohemiancoding.com/sketch -->
    <title>small</title>
    <desc>Created with Sketch.</desc>
    <g id="Page-1" stroke="none" stroke-width="1" fill="none" fill-rule="evenodd">
        <g id="header_menu_white" transform="translate(-60.000000, -4.000000)">
            <g id="header" transform="translate(60.000000, 4.000000)">
                <g id="small">
                    <path d="M87.2274103,13.3149965 L85.5537337,13.314966 C85.3773302,13.314966 85.220258,13.4266278 85.162296,13.5932369 C85.081446,13.8256365 85.0243108,13.9920589 84.9908906,14.092504 C84.3246204,16.094989 83.3252151,19.0987164 81.9926748,23.1036862 C81.9692811,23.1739964 81.880146,23.3912985 81.7252697,23.7555926 L81.7251873,23.7555575 C81.6804325,23.860828 81.558813,23.9098856 81.4535426,23.8651309 C81.404099,23.8441104 81.3647583,23.8046997 81.3438256,23.7552189 C81.2088972,23.4362736 81.1223034,23.2184421 81.0840441,23.1017243 C79.73012,18.9712935 78.7146768,15.8734703 78.0377148,13.8082549 C78.0243647,13.7675279 78.0020667,13.698791 77.9708207,13.6020444 L77.9708161,13.6020459 C77.9155556,13.4309435 77.7562643,13.3149965 77.5764596,13.3149965 L75.935882,13.3150804 C75.7070513,13.3150804 75.5215473,13.5005844 75.5215473,13.7294151 C75.5215473,13.7755184 75.5292419,13.8212984 75.5443139,13.8648684 C75.568448,13.9346353 75.5860996,13.9851106 75.5972687,14.0162943 C76.6301804,16.9001439 78.1770664,21.2189902 80.2379267,26.9728329 C80.2400549,26.9787747 80.2434475,26.988215 80.2481045,27.0011537 L80.2480536,27.001172 C80.2781066,27.0846697 80.2805596,27.1756099 80.2550514,27.2606062 C80.2506078,27.275413 80.2473538,27.286412 80.2452895,27.2936033 C80.2191341,27.3847179 80.192752,27.4743043 80.1649473,27.5658417 C79.8485322,28.3818841 79.089448,28.9022206 78.2384665,28.8983294 L76.5093804,28.8983298 C76.2805035,28.8983298 76.094962,29.0838711 76.0949618,29.312748 L76.0949576,30.6515555 C76.0949574,30.8804326 76.2804987,31.0659743 76.5093758,31.0659745 C76.5093766,31.0659745 76.5093774,31.0659745 76.5093782,31.0659745 L78.2389977,31.0659639 C79.9202056,31.0696436 81.4522586,30.0880234 82.1243875,28.5669672 C82.1273941,28.5601632 82.1548928,28.4935829 82.2022669,28.3784043 C82.2214171,28.3264788 83.4505262,24.9262447 87.5051339,13.7106689 C87.5051339,13.7106689 87.5051339,13.7106689 87.5051339,13.7106689 L87.5051339,13.7106689 C87.5605841,13.5572864 87.4811943,13.3879941 87.3278118,13.3325439 C87.2956172,13.3209051 87.2616441,13.3149527 87.2274103,13.3149527 Z M65.1969104,24.8778082 C65.547189,25.0020281 65.9570654,25.0637819 66.4251118,25.0637819 C67.8120889,25.0637819 68.9097451,24.463284 69.7080469,23.7301734 C70.3534434,23.0932508 70.6753744,22.291662 70.6753744,21.3323481 L70.6753744,20.2817323 C70.6753744,20.2756474 70.6751063,20.2695655 70.6745709,20.2635042 C70.6645038,20.1495369 70.563954,20.0653092 70.4499868,20.0753763 L70.4499824,20.0753267 C70.2501076,20.0929824 70.1448919,20.102505 70.1343351,20.1038945 L68.8317544,20.2753511 L66.2577743,20.6642452 C64.8750985,20.8892313 64.0308898,21.4376154 63.7625802,22.2962218 C63.6902773,22.4969325 63.651171,22.7113377 63.651171,22.9340576 C63.651171,23.8407944 64.2993448,24.6097182 65.1969104,24.8778082 Z M72.9768055,25.7783652 C72.9768056,26.0483978 72.9768056,26.3184304 72.9768058,26.5884631 C72.9768058,26.8173402 72.7912643,27.0028817 72.5623872,27.0028817 L71.2206428,27.0028816 C70.9944284,27.0028816 70.8100084,26.8214762 70.8062805,26.5952925 L70.7842121,25.25636 C70.7837749,25.2298311 70.7731933,25.2044772 70.7546418,25.1855084 C70.7145671,25.1445322 70.6488622,25.1438014 70.607886,25.1838762 L70.6080075,25.1840004 C70.5148364,25.2751218 70.4362459,25.3522781 70.3722362,25.4154693 C69.300495,26.4735061 67.8230074,27.0028784 65.9269634,27.0028784 C64.5660386,27.0028784 63.4536294,26.6415549 62.5805164,25.91916 C61.7184037,25.2058665 61.2892086,24.2193927 61.2892086,22.941369 C61.2892086,22.2699275 61.4164446,21.6891504 61.6698068,21.196974 C61.9228586,20.7054005 62.2502736,20.325957 62.6531713,20.0554898 C63.0737353,19.7731632 63.4710324,19.5666076 63.8441869,19.4356269 C64.2241467,19.3022576 64.616856,19.2022135 65.0224879,19.1354727 C67.018741,18.8589584 68.106084,18.7043703 68.3032502,18.6689803 C68.4761469,18.649368 69.1264476,18.5644735 70.2616441,18.4134928 C70.3434683,18.4026043 70.4199101,18.3932268 70.4909693,18.3853602 C70.5959636,18.3737369 70.6754148,18.2850047 70.6754148,18.179369 L70.6753744,17.6094536 C70.6753744,16.7572261 70.4491765,16.0917142 69.9930175,15.6222254 C69.5293847,15.1450442 68.6922957,14.9154781 67.4738454,14.9154781 C66.8196284,14.9154781 66.2707008,14.9880088 65.825004,15.1346747 C65.3616026,15.2871667 65.0119846,15.5117461 64.7802217,15.81018 C64.5647344,16.0876563 64.4132379,16.3452161 64.3256848,16.5853093 C64.3044802,16.6434579 64.2846171,16.7137454 64.2657426,16.7970879 C64.2631166,16.808683 64.2592588,16.8280457 64.2541692,16.8551761 C64.2174047,17.0511486 64.0462844,17.1931519 63.8468932,17.193152 L62.3088752,17.1931901 C62.3001103,17.1931901 62.2913477,17.1929121 62.2826005,17.1923564 C62.0541837,17.1778453 61.8807788,16.9809134 61.8952902,16.7524967 C61.89762,16.715824 61.8997292,16.6897403 61.901618,16.6742456 C61.9203358,16.520693 61.9415778,16.3912539 61.9649807,16.2895982 C62.0465049,15.9354782 62.2072536,15.5615299 62.4478944,15.168321 C62.6858067,14.7795706 62.9978093,14.4392142 63.3851064,14.1463545 C63.7698485,13.8554267 64.3070914,13.6132659 64.9953564,13.4226845 C65.6899586,13.2303484 66.4988276,13.1338149 67.4214088,13.1338149 C71.1585286,13.1338149 72.9768054,14.5906449 72.9768054,17.5576875 L72.9768054,24.8567172 L72.9768054,25.2542904 L72.9768055,25.7783652 Z M103.629233,13.6181147 L103.629233,26.5339764 C103.629233,26.7628535 103.814774,26.948395 104.043651,26.948395 L105.715053,26.948395 C105.94393,26.948395 106.129471,26.7628535 106.129471,26.5339764 L106.129471,13.6181147 C106.129471,13.3892376 105.94393,13.2036961 105.715053,13.2036961 L104.043651,13.2036961 C103.814774,13.2036961 103.629233,13.3892376 103.629233,13.6181147 Z M103.629233,9.51485498 L103.629233,11.1473325 C103.629233,11.3762095 103.814774,11.5617511 104.043651,11.5617511 L105.715053,11.5617511 C105.94393,11.5617511 106.129471,11.3762095 106.129471,11.1473325 L106.129471,9.51485498 C106.129471,9.28597792 105.94393,9.1004364 105.715053,9.1004364 L104.043651,9.1004364 C103.814774,9.1004364 103.629233,9.28597792 103.629233,9.51485498 Z M113.939561,15.3713408 L117.469035,15.3713408 C117.697912,15.3713408 117.883454,15.1857993 117.883454,14.9569222 L117.883454,13.6181147 C117.883454,13.3892376 117.697912,13.2036961 117.469035,13.2036961 L113.939561,13.2036961 C113.825123,13.2036961 113.732352,13.1109254 113.732352,12.9964868 L113.732352,9.51485498 C113.732352,9.28597792 113.546811,9.1004364 113.317934,9.1004364 L111.646532,9.1004364 C111.417655,9.1004364 111.232114,9.28597792 111.232114,9.51485498 L111.232114,12.9964868 C111.232114,13.1109254 111.139343,13.2036961 111.024904,13.2036961 L109.487721,13.2036936 C109.258844,13.2036936 109.073302,13.3892352 109.073302,13.6181122 C109.073302,13.618113 109.073302,13.6181139 109.073302,13.6181147 L109.0733,14.9569222 C109.073302,15.1857993 109.258844,15.3713397 109.487721,15.3713383 C109.487726,15.3713383 109.48773,15.3713383 109.487734,15.3713383 L111.024904,15.3713256 C111.139321,15.3713214 111.232086,15.4640547 111.232121,15.5784714 L111.23443,22.9262663 C111.309147,25.16686 113.179376,26.948395 115.460184,26.948395 L117.338168,26.9484176 C117.567045,26.9484176 117.752587,26.762876 117.752587,26.533999 C117.752587,26.5339915 117.752587,26.5339839 117.752587,26.5339764 L117.752469,25.1951689 C117.752456,24.9663007 117.566919,24.7807729 117.33805,24.7807729 C116.712095,24.7807503 116.08614,24.7807503 115.460184,24.7807503 C114.505929,24.7807503 113.732352,24.019396 113.732352,23.0802179 L113.732352,15.5785501 C113.732352,15.4641115 113.825123,15.3713408 113.939561,15.3713408 Z M59.4283657,14.6537244 C59.4283657,11.631683 56.9716484,9.1630874 53.9079103,9.1004364 L45.9518808,9.1004364 C45.7230038,9.1004364 45.5374622,9.28597792 45.5374622,9.51485498 L45.5374619,26.5334755 C45.5374619,26.7623525 45.7230034,26.947894 45.9518805,26.947894 C45.9518806,26.947894 45.9518807,26.947894 45.9518808,26.947894 L47.6232822,26.9478888 C47.8521579,26.9478886 48.0376987,26.7623491 48.0377005,26.5334734 L48.0377959,20.4142217 C48.0377967,20.2998004 48.1305414,20.2070375 48.2449628,20.2070141 L53.9042173,20.2058142 C56.9717386,20.143696 59.4283657,17.6759264 59.4283657,14.6537244 Z M57.2259223,14.6538809 C57.2259223,16.5238066 55.6857127,18.0396808 53.7857678,18.0396808 L48.2449101,18.0396808 C48.1304715,18.0396808 48.0377008,17.94691 48.0377008,17.8324715 L48.0377008,11.4752904 C48.0377008,11.3608518 48.1304715,11.2680811 48.2449101,11.2680811 L53.7857678,11.2680811 C55.6857127,11.2680811 57.2259223,12.7839553 57.2259223,14.6538809 Z M92.700144,20.1555176 L98.9836415,20.1555176 C99.2125185,20.1555176 99.39806,19.969976 99.39806,19.741099 L99.39806,18.4022915 C99.39806,18.1734144 99.2125185,17.9878729 98.9836415,17.9878729 L92.700144,17.9878729 C92.5857055,17.9878729 92.4929347,17.8951021 92.4929347,17.7806636 L92.4929347,11.4752904 C92.4929347,11.3608518 92.5857055,11.2680811 92.700144,11.2680811 L100.416781,11.2680811 C100.645658,11.2680811 100.831199,11.0825395 100.831199,10.8536625 L100.831199,9.51485498 C100.831199,9.28597792 100.645658,9.1004364 100.416781,9.1004364 L90.407078,9.1004364 C90.1782009,9.1004364 89.9926594,9.28597792 89.9926594,9.51485498 L89.992659,26.5339784 C89.992659,26.7628555 90.1782006,26.948397 90.4070776,26.948397 C90.4070777,26.948397 90.4070778,26.948397 90.407078,26.948397 L92.0785161,26.948395 C92.3073931,26.9483948 92.4929344,26.7628533 92.4929344,26.5339764 L92.4929347,20.3627269 C92.4929347,20.2482883 92.5857055,20.1555176 92.700144,20.1555176 Z" id="Combined-Shape-Copy-2" fill="#0F6FDE" fill-rule="nonzero"></path>
                    <g id="nest">
                        <ellipse fill="#0F6FDE" cx="18.1993624" cy="17.9420021" rx="18.1856392" ry="17.8983051"></ellipse>
                        <path d="M18.2813303,15.8858984 L22.290188,15.8858984 C22.7414418,15.8858984 23.1072553,15.5258648 23.1072553,15.0817409 C23.1072553,14.6376169 22.7414418,14.2775833 22.2901894,14.2775833 L16.854405,14.2776418 C16.6255508,14.2776418 16.4400188,14.4631477 16.4399865,14.6920019 L16.4385754,24.2765028 C16.4407102,24.3093285 16.4417818,24.342301 16.4417818,24.3753855 C16.4417818,25.2191573 15.7467886,25.9031695 14.8894712,25.9031695 C14.0321537,25.9031695 13.3371605,25.2191573 13.3371605,24.3753855 C13.3374085,24.3298599 13.337186,24.31935 13.3351283,24.2893449 L13.3349634,11.4312979 C13.3349634,11.3167827 13.4277855,11.2239441 13.5423007,11.2239237 C16.3272093,11.2234273 18.5304488,11.2234398 20.1520192,11.2239614 C21.9326508,11.224534 21.9326508,11.224534 22.2897116,11.2246485 C24.4557299,11.2246485 26.2116347,12.9528099 26.2116347,15.0846049 C26.2116347,17.1590061 24.5456658,18.8603923 22.4381748,18.9416972 L18.2813303,18.9416972 C18.1668918,18.9416972 18.074121,18.8489264 18.074121,18.7344879 L18.074121,16.0931077 C18.074121,15.9786692 18.1668918,15.8858984 18.2813303,15.8858984 Z M18.0755528,24.3131009 L18.074121,20.7525345 C18.0740775,20.6380959 18.166813,20.5452899 18.2812515,20.5452464 C18.2812778,20.5452464 18.281304,20.5452464 18.2813303,20.5452464 L22.5187608,20.5453252 C25.4883129,20.4253756 27.842859,18.0167644 27.842859,15.0817206 C27.842859,12.1407336 25.4791002,9.72925872 22.4835405,9.61589449 C22.475357,9.61482935 19.0193542,9.61402636 12.115532,9.61348552 L12.115532,9.61342771 C11.886623,9.61340978 11.7010411,9.79896264 11.7010231,10.0278716 C11.7010231,10.0278922 11.7010231,10.0279128 11.7010231,10.0279334 L11.7020329,24.2944226 C11.7013405,24.3213635 11.7009938,24.3483506 11.7009938,24.3753801 C11.7009938,26.1085075 13.1285238,27.5134847 14.8894712,27.5134847 C16.6504185,27.5134847 18.0779485,26.1085075 18.0779485,24.3753801 C18.0779485,24.3447106 18.0773296,24.3277926 18.0755528,24.3131009 Z" id="Combined-Shape" fill="#FFFFFF" fill-rule="nonzero"></path>
                    </g>
                </g>
            </g>
        </g>
    </g>
</svg>
