<svg xmlns="http://www.w3.org/2000/svg" width="62" height="62"><defs><style>.cls-2{fill:#fff}</style></defs><g id="layer1"><g id="g3320"><g id="g62272"><path id="path62274" fill="#05482f" d="M62 31A31 31 0 1 1 31 0a31 31 0 0 1 31 31"/></g><g id="g62276"><path id="path62278" d="M31 60.16A29.16 29.16 0 1 1 60.16 31 29.17 29.17 0 0 1 31 60.16m0-59a29.89 29.89 0 1 0 29.89 29.89V31A29.9 29.9 0 0 0 31 1.12" class="cls-2"/></g><g id="g62280"><path id="path62282" d="M49.24 31.07A18.24 18.24 0 1 1 31 12.83a18.24 18.24 0 0 1 18.24 18.24" class="cls-2"/></g><g id="g62284"><path id="path62286" d="M15.1 46.21l.25-.17c.41.44 1.39 1.34 1.39 1.34.72.64.72 1.34.33 1.77a1.41 1.41 0 0 1-2 .08.6.6 0 0 1-.08-.08l-.2-.21.2-.31a.86.86 0 0 0 1.22 0l.05-.06c.25-.27.27-.65-.16-1l-.23-.21L13.49 50l-.66-.63 2.42-2.71z" class="cls-2"/></g><g id="g62288"><path id="path62290" d="M21.34 53.41l1.14.44v-1.08a4.37 4.37 0 0 1 .06-.72c-.13.19-.28.38-.43.56zm1.16 1l-1.5-.6-.59.69-.61-.28 2.93-3.15.66.26.21 3.91.31.3-.12.22-1.24-.4z" class="cls-2"/></g><g id="g62292"><path id="path62294" d="M29.84 53l.07-.29h1.9a1.26 1.26 0 0 1 1.38 1.11 1.34 1.34 0 0 1-.93 1.26l1.27 1.57-1.16.09-1-1.61v-.28a.94.94 0 0 0 .79-1 .67.67 0 0 0-.67-.69h-.39v3.57h-.91v-3.58z" class="cls-2"/></g><g id="g62296"><path id="path62298" d="M41.56 54.53l-.85.36-1.46-3.31h-.4l-.05-.29 1.12-.47z" class="cls-2"/></g><g id="g62300"><path id="path62302" d="M46.79 47.3l-.59-.23a1.16 1.16 0 0 0-.29.25c-.2.24-.32.57 0 .8.66.56 1.78-.88 2.8 0a1.28 1.28 0 0 1-.05 1.8 2.86 2.86 0 0 1-1.12.76l-.31-.54a2 2 0 0 0 1.07-.62c.17-.2.25-.45 0-.64-.63-.53-1.79.83-2.77 0a1.28 1.28 0 0 1 0-1.82l.08-.08a2.68 2.68 0 0 1 .82-.64L47 47z" class="cls-2"/></g><g id="g62304"><path id="path62306" d="M5.35 37.24L5 37.18a27.66 27.66 0 0 1-.52-3 1.71 1.71 0 0 1 1.34-2 1.86 1.86 0 0 1 1.88 1.29L10.5 31a13.84 13.84 0 0 0 .06 1.65l-2.65 2.01h-.38a1.36 1.36 0 0 0-1.44-1.16 1 1 0 0 0-.89 1.1.51.51 0 0 0 0 .17l.08.68 5.5-.68a5.58 5.58 0 0 0 .25 1.14l-5.51.68z" class="cls-2"/></g><g id="g62308"><path id="path62310" d="M10.11 27.85c.2-1.17-.43-2.19-2.12-2.48a2.19 2.19 0 0 0-2.72 1.43l-.06.27c-.2 1.19.42 2.17 2.06 2.45s2.63-.45 2.84-1.67m.66.25a3.07 3.07 0 0 1-3.42 2.65h-.22a3.15 3.15 0 0 1-2.63-3.6v-.24c.31-1.79 1.59-3.14 3.52-2.81a3.32 3.32 0 0 1 2.74 3.8 1.77 1.77 0 0 1 0 .2" class="cls-2"/></g><g id="g62312"><path id="path62314" d="M6.8 21.32l-.52.41-.28-.25c.17-.43.42-1.08.64-1.54l5 2.44.19-.4a2.66 2.66 0 0 0-.17-2.51l.34-.29 1.16 1.68a22.52 22.52 0 0 0-1.55 3.39l-.37-.06v-.7z" class="cls-2"/></g><g id="g62316"><path id="path62318" d="M14.29 15.73l-2.53-.92L13 17.22zm3.23-.73l.2.32c-.42.36-.82.73-1.25 1.15L15 16l-1.7 1.9.78 1.5c-.15.21-.34.51-.48.74l-3.13-6.24.53-.6 5.92 2z" class="cls-2"/></g><g id="g62320"><path id="path62322" d="M19.68 6.75l3 5.47-.4.18-5.58-1.83 2.42 3.68-.65.48-3-4.64-.67.06-.1-.37 1-.74 5.14 1.64-1.65-3-.66.05-.1-.36c.35-.19.9-.46 1.24-.62" class="cls-2"/></g><g id="g62324"><path id="path62326" d="M26 10.38a2.32 2.32 0 0 0 1.66-2.83 1.09 1.09 0 0 0-.05-.17A2.27 2.27 0 0 0 25 5.6l-.34.1-1 .3L25 10.67zM24.8 5a2.89 2.89 0 0 1 3.79 1.53 4.26 4.26 0 0 1 .15.47 3.08 3.08 0 0 1-1.93 3.92l-.27.08s-1.39.37-2.44.75l-1.6-5.42-.67-.1v-.38c1.15-.39 2.38-.74 3-.9" class="cls-2"/></g><g id="g62328"><path id="path62330" d="M38.89 11.36a7 7 0 0 1-2.77-.19c-1.82-.48-3.21-1.72-2.65-3.84s2.45-2.77 4.45-2.24a8.35 8.35 0 0 1 2.24 1l-.63 1.5-.34-.09-.08-.88a3.74 3.74 0 0 0-1.51-.86 2.24 2.24 0 0 0-2.82 1.45c0 .1-.05.21-.07.31a2.36 2.36 0 0 0 1.55 3h.15a3.13 3.13 0 0 0 1.49 0l.31-1.19-.9-.62.19-.37 2 .54z" class="cls-2"/></g><g id="g62332"><path id="path62334" d="M43.61 12.1L44 9.44l-2.1 1.63zm1.26 3.1l-.3.3c-.4-.33-.92-.76-1.27-1l.2-1.65-2.18-1.32-1.24 1-.8-.37L44.73 8l.65.39-.86 6.31z" class="cls-2"/></g><g id="g62336"><path id="path62338" d="M49.11 11.7l.34-.16a26.71 26.71 0 0 1 2 2.18 1.74 1.74 0 0 1 0 2.45 1.86 1.86 0 0 1-2.28 0l-.93 3.63-1-1.37 1-3.15.35-.17a1.34 1.34 0 0 0 1.81.14 1.1 1.1 0 0 0 0-1.56l-.47-.47-4 3.57-.82-.84 4.2-3.59z" class="cls-2"/></g><g id="g62340"><path id="path62342" d="M53.76 17.48l.38-.05a25.19 25.19 0 0 1 1.37 2.69 1.7 1.7 0 0 1-.62 2.32h-.07a1.84 1.84 0 0 1-2.17-.68l-1.9 3.26c-.16-.51-.56-1.59-.56-1.59l1.89-2.75.38-.07a1.36 1.36 0 0 0 1.7.65 1.09 1.09 0 0 0 .52-1.45v-.06l-.28-.63-5.08 2.33-.59-1 5-2.29z" class="cls-2"/></g><g id="g62344"><path id="path62346" d="M52 28.28c.13 1.18 1 2 2.72 1.81A2.17 2.17 0 0 0 57 28v-.34c-.13-1.21-1-2-2.65-1.81s-2.4 1.16-2.28 2.39m-.69-.06a3 3 0 0 1 2.54-3.48h.24a3.15 3.15 0 0 1 3.51 2.74 2.28 2.28 0 0 1 0 .26c.19 1.81-.67 3.46-2.62 3.67a3.31 3.31 0 0 1-3.67-2.9 2.29 2.29 0 0 1 0-.25" class="cls-2"/></g><g id="g62348"><path id="path62350" d="M55.54 36.2l1.09-.29a3.28 3.28 0 0 0 .18-.61c.09-.56 0-1.16-.62-1.26-1-.17-1.88 2.67-3.5 2.41-1.31-.21-1.56-1.41-1.37-2.58a4.06 4.06 0 0 1 .83-1.87l.72.42a2.88 2.88 0 0 0-.89 1.7c-.08.5.09 1 .62 1.07 1 .16 1.86-2.63 3.56-2.36 1.15.19 1.54 1.39 1.34 2.63a4.62 4.62 0 0 1-.5 1.45l-1.51-.42z" class="cls-2"/></g><g id="g62352"><path id="path62354" fill="#d35220" d="M40.5 31h-1.21l-.69-2.64a6.69 6.69 0 0 0-2.64-.6c-3.08 0-4.76 2.8-4.69 6.46l-2.51-4.82a8.28 8.28 0 0 1 7.34-3.87 11.48 11.48 0 0 1 4.82 1.1zm1.14-13.81l-10.53 8.37a4.56 4.56 0 0 0-.83-4.09l8-6.33a18.51 18.51 0 0 0-1.74-.69l-7.5 6a5.53 5.53 0 0 0-2.8-.54h-2.5l7.92-6.3H31a17.5 17.5 0 0 0-14 28V36.9l6.47-5.15V22.1h1.43c2 0 2.85 1.23 2.85 2.23 0 1.41-1.06 2.49-3.17 2.81l-.23.93 2.88 5.43L17 41.63a17.47 17.47 0 0 0 3.85 3.73v-4.73L27.94 35h3.56a4.39 4.39 0 0 0 4.55 3.87 7.14 7.14 0 0 0 2-.24v-3l-2.7-.78.2-1.36h5.6v6.61a16.76 16.76 0 0 1-5.64 1.13 7.37 7.37 0 0 1-6-2.64l-8.61 6.77a17.5 17.5 0 0 0 20.74-28.19"/></g></g></g></svg>