<svg xmlns="http://www.w3.org/2000/svg" viewBox="0 0 589.644 110"><path fill="#86B72E" d="M301.542 0h-28.239l-5.339 19.412 29.678-5.23z"/><path fill="#020304" d="M258.457 27.746c-6.459-.119-20.127-.474-30.098 12.763l2.906-12.29h-27.488l-2.756 12.645-12.811 46.683h28.09l6.864-25.174c1.829-6.381 6.826-15.956 24.099-15.956 1.954 0 2.705.122 5.856.355l5.338-19.026zM265.513 28.219l-16.318 59.327h28.241l16.317-59.327zM356.822 26.918c-15.622 0-23.309 5.908-27.981 10.4l2.29-9.1h-28.24l-2.755 12.645-12.81 46.683h28.087l9.305-34.037c.609-2.128 3.507-12.527 16.123-12.527 11.566 0 9.278 8.392 8.06 12.527l-9.303 34.037h28.239l9.911-35.928c2.139-8.155 6.713-24.7-20.926-24.7zM418.571 63.199l5.643-20.563h18.177l3.813-14.184H428.33l3.92-14.244-28.516 5.028-2.594 9.216h-13.23l-3.81 14.185h12.778l-7.78 28.48c-3.201 11.466-.375 17.373 22.159 17.373 9.612 0 14.725-.591 18.629-1.063l3.813-13.944c-3.456.354-4.809.354-7.061.354-10.816 0-9.898-3.31-8.067-10.638zM519.199 62.621c2.898-10.303 3.523-15.92 1.591-20.956-2.817-8.311-10.602-14.985-31.632-14.985-27.787.002-43.763 12.762-49.102 32.43-5.487 19.434 5.885 29.736 32.17 29.736 19.525-.002 38.776-5.738 44.997-20.487h-26.286c-2.277 5.502-7.845 8.544-15.355 8.546-14.419 0-11.222-11.122-10.457-14.283h54.074zm-33.395-24.232c12.319 0 10.778 8.895 10.163 12.291h-27.188c1.067-2.811 4.709-12.291 17.025-12.291zM559.549 40.509l2.905-12.29h-27.489l-2.757 12.645-12.81 46.683h28.089l6.864-25.174c1.829-6.381 6.825-15.956 24.101-15.956 1.95 0 2.703.122 5.854.355l5.337-19.025c-6.456-.12-20.126-.475-30.094 12.762zM165.663 26.682c-15.919 0-24.133 6.974-27.632 9.926l2.006-8.389h-27.898c-.613 2.48-.617 3.189-2.161 9.691L90.123 110l29.958-5.284 6.698-24.261c2.416 2.956 7.093 8.271 20.586 8.271 17.281 0 36.423-8.979 42.732-32.026 6.771-24.346-11.699-30.018-24.434-30.018zm-3.688 29.559c-2.422 8.897-7.664 19.249-20.076 19.249-13.523 0-10.834-12.875-9.471-17.625.906-3.439 4.992-18.42 20.086-18.42 12.525 0 10.97 11.1 9.461 16.796zM72.689 37.769l-18.863-4.955c-4.157-1.124-10.234-2.922-8.134-9.08 1.593-4.998 8.384-8.593 17.089-8.214 3.834.168 6.42.936 8.143 2.016.049.03.1.06.146.092.094.061.18.127.269.188 4.179 3.068 2.359 8.325 1.662 10.402h30.957c.319-1.109.616-2.291.836-3.518 1.251-6.471.507-14.843-11.664-19.996C87.504 2.316 79.443.628 68.022.13 35.606-1.288 18.329 11.102 13.915 24.7 8.251 42.26 26.37 47.06 33.352 48.9l24.8 6.509c6.83 1.831 8.05 4.596 6.806 8.552-3.166 9.53-16.673 8.939-19.225 8.826-17.809-.78-15.094-10.741-13.795-14.598H1.284C.441 60.596-.324 64.21.14 68.044c.305 2.798 1.305 5.773 3.598 8.565 7.085 9.035 24.876 11.523 36.133 12.021 27.162 1.186 50.533-6.578 56.55-25.298 5.821-17.786-10.216-22.027-23.732-25.563z" class="sprinter-logo-cambia-color"/></svg>