<svg xmlns="http://www.w3.org/2000/svg" xmlns:xlink="http://www.w3.org/1999/xlink" width="150" height="30"><defs><polygon id="a" points=".303 .055 3.527 .055 3.527 4.579 .303 4.579"/><polygon id="c" points="0 .378 11.578 .378 11.578 15.292 0 15.292"/></defs><g fill="none" fill-rule="evenodd"><path fill="#005BAB" d="M23.5741028,5.56585047 L23.975785,5.56585047 C23.9960654,5.56585047 24.0209252,5.55211215 24.0307383,5.5344486 L25.6891495,2.81884112 L26.5912991,5.92566355 C26.5971869,5.94659813 26.6181215,5.96099065 26.6384019,5.96099065 L28.379243,5.96099065 C28.3995234,5.96099065 28.4112991,5.94659813 28.404757,5.92697196 L26.5690561,0.11435514 C26.5638224,0.0960373832 26.5415794,0.0783738318 26.5206449,0.0783738318 L25.8670935,0.0783738318 C25.8474673,0.0783738318 25.8206449,0.0927663551 25.8108318,0.111084112 L23.5741028,3.57641121 L21.3386822,0.111084112 C21.3269065,0.0927663551 21.3013925,0.0783738318 21.2811121,0.0783738318 L20.6275607,0.0783738318 C20.6066262,0.0783738318 20.5850374,0.0960373832 20.5791495,0.11435514 L18.7434486,5.92697196 C18.7369065,5.94659813 18.7493364,5.96099065 18.7689626,5.96099065 L20.5098037,5.96099065 C20.5300841,5.96099065 20.5516729,5.94659813 20.5569065,5.92566355 L21.4590561,2.81884112 L23.1174673,5.5344486 C23.1272804,5.55211215 23.1527944,5.56585047 23.1730748,5.56585047 L23.5741028,5.56585047 Z" transform="translate(38 22.150002)"/><path fill="#005BAB" d="M18.8225421,2.6711215 L18.8225421,2.66981308 C18.8186168,2.65280374 18.8035701,2.64037383 18.7859065,2.64037383 L18.5530093,2.64037383 L16.8331028,2.64037383 L13.8276822,2.64037383 C13.5646916,2.64037383 13.3520748,2.85299065 13.3520748,3.1153271 C13.3520748,3.37831776 13.5646916,3.59093458 13.8276822,3.59093458 L16.7742243,3.59093458 C16.4229159,4.51794393 15.2361869,5.19962617 13.8276822,5.19962617 C12.140486,5.19962617 10.7751589,4.22420561 10.7751589,3.02046729 C10.7751589,1.81672897 12.140486,0.840654206 13.8276822,0.840654206 C14.7481495,0.840654206 15.5724486,1.1311215 16.1324486,1.59299065 C16.1344112,1.59429907 16.1363738,1.59495327 16.1383364,1.5982243 C16.1442243,1.60214953 16.1514206,1.60280374 16.159271,1.60280374 L18.1853458,1.60280374 C18.2056262,1.60280374 18.2226355,1.5864486 18.2226355,1.56616822 C18.2226355,1.55766355 18.2200187,1.54981308 18.2134766,1.54327103 C18.2128224,1.54065421 18.2108598,1.54065421 18.2108598,1.54 C17.3486168,0.61953271 15.7085234,-1.77635684e-15 13.8276822,-1.77635684e-15 C11.0499252,-1.77635684e-15 8.79749533,1.35224299 8.79749533,3.02046729 C8.79749533,4.68869159 11.0499252,6.04093458 13.8276822,6.04093458 C16.6041308,6.04093458 18.8559065,4.68869159 18.8559065,3.02046729 C18.8559065,2.90271028 18.8441308,2.78495327 18.8225421,2.6711215" transform="translate(38 22.150002)"/><path fill="#005BAB" d="M33.3211121,5.19982243 C31.6365327,5.19982243 30.269243,4.22440187 30.269243,3.02066355 C30.269243,1.81757944 31.6365327,0.840196262 33.3211121,0.840196262 C35.0076542,0.840196262 36.3749439,1.81757944 36.3749439,3.02066355 C36.3749439,4.22440187 35.0076542,5.19982243 33.3211121,5.19982243 M33.3211121,0.000196261682 C30.5440093,0.000196261682 28.2928879,1.35243925 28.2928879,3.02066355 C28.2928879,4.68954206 30.5440093,6.04047664 33.3211121,6.04047664 C36.0988692,6.04047664 38.3506449,4.68954206 38.3506449,3.02066355 C38.3506449,1.35243925 36.0988692,0.000196261682 33.3211121,0.000196261682" transform="translate(38 22.150002)"/><path fill="#38393C" d="M59.5525981,5.86743925 C59.5486729,5.9191215 59.5879252,5.96099065 59.6389533,5.96099065 L60.6889533,5.96099065 C60.7406355,5.96099065 60.7870841,5.9191215 60.7910093,5.86743925 L60.9709159,3.46257944 C60.9748411,3.4108972 60.9355888,3.36902804 60.8839065,3.36902804 L59.8339065,3.36902804 C59.7822243,3.36902804 59.7364299,3.4108972 59.7325047,3.46257944 L59.5525981,5.86743925 Z" transform="translate(38 22.150002)"/><path fill="#38393C" d="M65.6301682,3.36876636 C65.5791402,3.36876636 65.5398879,3.41063551 65.5438131,3.46231776 L65.7256822,5.86783178 C65.7296075,5.91885981 65.7760561,5.96138318 65.8270841,5.96138318 L66.8770841,5.96138318 C66.9287664,5.96138318 67.0275514,5.91885981 67.022972,5.86783178 L66.7822243,3.46231776 C66.7782991,3.41063551 66.7325047,3.36876636 66.6801682,3.36876636 L65.6301682,3.36876636 Z" transform="translate(38 22.150002)"/><path fill="#38393C" d="M66.7468972,2.17758879 C66.7985794,2.17758879 66.8411028,2.13571963 66.8411028,2.08403738 L66.8411028,1.07263551 C66.8411028,1.02095327 66.7985794,0.979084112 66.7468972,0.979084112 L63.9390467,0.979084112 C63.8867103,0.979084112 63.8441869,0.937214953 63.8441869,0.88553271 L63.8441869,0.173102804 C63.8441869,0.120766355 63.8023178,0.0788971963 63.7512897,0.0788971963 L62.7405421,0.0788971963 C62.6882056,0.0788971963 62.6456822,0.120766355 62.6456822,0.173102804 L62.6456822,0.88553271 C62.6456822,0.937214953 62.6038131,0.979084112 62.552785,0.979084112 L59.7639065,0.979084112 C59.7122243,0.979084112 59.6703551,1.02095327 59.6703551,1.07263551 L59.6703551,2.08403738 C59.6703551,2.13571963 59.7122243,2.17758879 59.7639065,2.17758879 L62.552785,2.17758879 C62.6038131,2.17758879 62.6456822,2.21945794 62.6456822,2.27114019 L62.6456822,5.86730841 C62.6456822,5.91899065 62.6882056,5.96085981 62.7405421,5.96085981 L63.7512897,5.96085981 C63.8023178,5.96085981 63.8441869,5.91899065 63.8441869,5.86730841 L63.8441869,2.27114019 C63.8441869,2.21945794 63.8867103,2.17758879 63.9390467,2.17758879 L66.7468972,2.17758879 Z" transform="translate(38 22.150002)"/><path fill="#030100" d="M67.4273364,1.47739252 C67.4273364,1.52907477 67.4685514,1.57159813 67.5208879,1.57159813 L68.2333178,1.57159813 C68.285,1.57159813 68.3268692,1.52907477 68.3268692,1.47739252 L68.3268692,0.0944018692 C68.3268692,0.0427196262 68.285,0.000196261682 68.2333178,0.000196261682 L67.5208879,0.000196261682 C67.4685514,0.000196261682 67.4273364,0.0427196262 67.4273364,0.0944018692 L67.4273364,1.47739252 Z" transform="translate(38 22.150002)"/><path fill="#030100" d="M68.8098692,1.47739252 C68.8098692,1.52907477 68.8517383,1.57159813 68.9034206,1.57159813 L69.6158505,1.57159813 C69.6681869,1.57159813 69.7094019,1.52907477 69.7094019,1.47739252 L69.7094019,0.0944018692 C69.7094019,0.0427196262 69.6681869,0.000196261682 69.6158505,0.000196261682 L68.9034206,0.000196261682 C68.8517383,0.000196261682 68.8098692,0.0427196262 68.8098692,0.0944018692 L68.8098692,1.47739252 Z" transform="translate(38 22.150002)"/><path fill="#38393C" d="M39.9078505,4.18972897 C39.8829907,4.21458879 39.8829907,4.25449533 39.9078505,4.27935514 L40.6654206,5.03692523 C40.6896262,5.06178505 40.7301869,5.06178505 40.7557009,5.03692523 L43.5033645,2.28926168 C43.5275701,2.26505607 43.5681308,2.26505607 43.5923364,2.28926168 L47.1806542,5.8847757 C47.205514,5.90898131 47.2460748,5.90898131 47.2702804,5.8847757 L48.0278505,5.12720561 C48.0527103,5.10169159 48.0527103,5.06178505 48.0278505,5.03692523 L43.5929907,0.593560748 C43.568785,0.56935514 43.5282243,0.56935514 43.5040187,0.593560748 L39.9078505,4.18972897 Z" transform="translate(38 22.150002)"/><path fill="#030100" d="M47.2664206,1.771 C47.7557664,1.771 48.152215,1.3745514 48.152215,0.885205607 C48.152215,0.396514019 47.7557664,6.54205607e-05 47.2664206,6.54205607e-05 C46.777729,6.54205607e-05 46.3806262,0.396514019 46.3806262,0.885205607 C46.3806262,1.3745514 46.777729,1.771 47.2664206,1.771" transform="translate(38 22.150002)"/><path fill="#38393C" d="M50.031486,5.89838318 C50.0269065,5.93305607 50.0524206,5.96118692 50.0877477,5.96118692 L51.2515794,5.96118692 C51.2869065,5.96118692 51.3183084,5.93305607 51.3228879,5.89838318 L51.9528879,0.663429907 C51.9561589,0.628757009 51.9312991,0.599971963 51.8966262,0.599971963 L50.7321402,0.599971963 C50.6974673,0.599971963 50.6660654,0.628757009 50.661486,0.663429907 L50.031486,5.89838318 Z" transform="translate(38 22.150002)"/><path fill="#38393C" d="M54.748243,0.600233645 C54.7135701,0.600233645 54.6887103,0.628364486 54.6926355,0.663037383 L55.3278692,5.89864486 C55.3324486,5.93266355 55.3638505,5.96079439 55.3985234,5.96079439 L56.5630093,5.96079439 C56.5976822,5.96079439 56.6231963,5.93266355 56.6186168,5.89864486 L55.9833832,0.663037383 C55.9794579,0.628364486 55.9474019,0.600233645 55.912729,0.600233645 L54.748243,0.600233645 Z" transform="translate(38 22.150002)"/><path fill="#030100" d="M57.691514,0.000327102804 C57.2028224,0.000327102804 56.8057196,0.396775701 56.8057196,0.886121495 C56.8057196,1.37481308 57.2028224,1.77126168 57.691514,1.77126168 C58.1808598,1.77126168 58.5773084,1.37481308 58.5773084,0.886121495 C58.5773084,0.396775701 58.1808598,0.000327102804 57.691514,0.000327102804" transform="translate(38 22.150002)"/><path fill="#9A9DA6" d="M2.48238318,4.41078505 C2.48238318,4.29368224 2.46471963,4.17723364 2.42873832,4.06209346 C2.39341121,3.94695327 2.33976636,3.84293458 2.26845794,3.75069159 C2.19714953,3.6584486 2.10752336,3.58452336 1.99827103,3.52760748 C1.8896729,3.47134579 1.7621028,3.44321495 1.61490654,3.44321495 C1.47686916,3.44321495 1.3532243,3.472 1.24397196,3.5308785 C1.13537383,3.5891028 1.04182243,3.66564486 0.964626168,3.75723364 C0.887429907,3.84882243 0.828551402,3.95414953 0.78864486,4.07125234 C0.749392523,4.18835514 0.72911215,4.30545794 0.72911215,4.42321495 C0.72911215,4.54031776 0.749392523,4.65676636 0.78864486,4.77190654 C0.828551402,4.88704673 0.887429907,4.99106542 0.964626168,5.08330841 C1.04182243,5.1755514 1.13537383,5.24947664 1.24397196,5.30639252 C1.3532243,5.36330841 1.47686916,5.39143925 1.61490654,5.39143925 C1.7621028,5.39143925 1.8896729,5.36265421 1.99827103,5.3031215 C2.10752336,5.24424299 2.19714953,5.16966355 2.26845794,5.07676636 C2.33976636,4.98517757 2.39341121,4.88050467 2.42873832,4.76274766 C2.46471963,4.64564486 2.48238318,4.52788785 2.48238318,4.41078505 Z M0.753971963,1.18031776 L0.753971963,3.29798131 L0.772943925,3.29798131 C0.81088785,3.24826168 0.859299065,3.19527103 0.917523364,3.14162617 C0.976401869,3.0866729 1.04640187,3.03695327 1.12817757,2.99050467 C1.20995327,2.94471028 1.30546729,2.90545794 1.41406542,2.87405607 C1.52266355,2.84265421 1.64696262,2.82695327 1.785,2.82695327 C1.99827103,2.82695327 2.19584112,2.86816822 2.37574766,2.94994393 C2.55565421,3.03106542 2.71070093,3.14358879 2.84088785,3.2855514 C2.97107477,3.42816822 3.07116822,3.59564486 3.14247664,3.78863551 C3.21378505,3.98097196 3.24911215,4.18835514 3.24911215,4.41078505 C3.24911215,4.63256075 3.21443925,4.84125234 3.14574766,5.03620561 C3.07640187,5.23050467 2.97827103,5.40059813 2.85004673,5.54517757 C2.72247664,5.68975701 2.56742991,5.8055514 2.38490654,5.88994393 C2.20303738,5.97629907 1.99630841,6.01947664 1.76602804,6.01947664 C1.5521028,6.01947664 1.35257009,5.97302804 1.16546729,5.88143925 C0.979018692,5.78919626 0.833785047,5.65442991 0.72911215,5.4791028 L0.716682243,5.4791028 L0.716682243,5.93181308 L0.000327102804,5.93181308 L0.000327102804,1.18031776 L0.753971963,1.18031776 Z" transform="translate(38 22.150002)"/><g transform="translate(41.271028 25.010647)"><mask id="b" fill="#fff"><use xlink:href="#a"/></mask><path fill="#9A9DA6" d="M0.302897196,0.0545607477 L1.13831776,0.0545607477 L1.98093458,2.24745794 L1.99336449,2.24745794 L2.7411215,0.0545607477 L3.52682243,0.0545607477 L2.1,3.71876636 C2.04570093,3.85680374 1.98682243,3.97914019 1.9246729,4.08642991 C1.86121495,4.19306542 1.78598131,4.28334579 1.69766355,4.35661682 C1.61,4.42923364 1.50598131,4.48484112 1.38691589,4.52213084 C1.26785047,4.56072897 1.12392523,4.57970093 0.956448598,4.57970093 C0.89364486,4.57970093 0.82953271,4.5757757 0.764766355,4.56988785 C0.699345794,4.564 0.633271028,4.5522243 0.566542056,4.53521495 L0.63,3.88166355 C0.679719626,3.89801869 0.728785047,3.9104486 0.777196262,3.91633645 C0.824953271,3.9228785 0.870093458,3.92549533 0.912616822,3.92549533 C0.992429907,3.92549533 1.05850467,3.91633645 1.11345794,3.89801869 C1.16775701,3.87904673 1.21420561,3.84895327 1.25149533,3.80970093 C1.28943925,3.76914019 1.32280374,3.72072897 1.35224299,3.66185047 C1.38168224,3.60362617 1.41308411,3.53362617 1.4464486,3.45446729 L1.59757009,3.0711028 L0.302897196,0.0545607477 Z" mask="url(#b)"/></g><g><path fill="#000" d="M51.6436,11.89485 C51.6436,13.08385 50.5541,13.66435 49.5041,13.66435 C48.4551,13.66435 47.3451,13.08385 47.3451,11.89485 L47.3451,2.30385 L43.8931,2.30385 L43.8931,12.00985 C43.8931,15.11785 46.6186,16.91385 49.5041,16.91385 C52.4106,16.91385 55.1356,15.11785 55.1356,12.00985 L55.1356,2.30385 L51.6436,2.30385 L51.6436,11.89485 Z"/><g transform="translate(0 1.4849)"><mask id="d" fill="#fff"><use xlink:href="#c"/></mask><path fill="#000" d="M5.9529,6.43265 C4.6644,6.28965 3.6049,6.08515 3.6824,5.00065 C3.8129,3.17915 7.6509,3.11865 7.6509,5.02165 L11.1284,5.02165 C11.2104,-1.15635 0.0824,-1.17685 0.2049,5.00065 C0.2454,8.11015 2.3669,9.10715 5.4009,9.41915 C6.8279,9.56615 8.0149,9.73615 8.0189,10.73865 C8.0259,12.45315 3.5389,12.38565 3.5389,10.56515 L0.0004,10.56515 C-0.0816,16.86565 11.5784,16.81165 11.5784,10.73865 C11.5784,7.22765 8.7964,6.73965 5.9529,6.43265" mask="url(#d)"/></g><path fill="#000" d="M22.4158,11.89485 C22.4158,13.08385 21.3258,13.66435 20.2763,13.66435 C19.2268,13.66435 18.1168,13.08385 18.1168,11.89485 L18.1168,2.30385 L14.6653,2.30385 L14.6653,12.00985 C14.6653,15.11785 17.3903,16.91385 20.2763,16.91385 C23.1828,16.91385 25.9073,15.11785 25.9073,12.00985 L25.9073,2.30385 L22.4158,2.30385 L22.4158,11.89485 Z"/><polygon fill="#000" points="40.371 2.304 29.674 2.304 29.674 5.533 34.922 5.533 29.15 16.432 40.432 16.432 40.432 13.202 34.579 13.202"/><path fill="#000" d="M65.10815,9.0245 L62.52465,9.0245 L62.52465,5.533 C63.37215,5.533 64.26015,5.5125 65.10815,5.533 C67.16665,5.5535 67.06615,9.0245 65.10815,9.0245 M65.10815,2.304 L58.91165,2.304 L58.91165,16.432 L62.52465,16.432 L62.52465,12.274 L64.40165,12.274 L66.82365,16.432 L71.10665,16.432 L68.09565,11.4265 C71.66765,9.004 70.65865,2.324 65.10815,2.304"/><polygon fill="#000" points="81.249 5.452 81.249 2.304 74.22 2.304 74.22 5.452 75.946 5.452 75.946 13.263 74.22 13.263 74.22 16.432 81.249 16.432 81.249 13.263 79.518 13.263 79.518 5.452"/><path fill="#000" d="M130.5137,11.8951 C130.5447,11.7641 130.5877,11.6351 130.6417,11.5091 C130.6947,11.3826 130.7542,11.2561 130.8192,11.1296 C130.8837,11.0031 130.9322,10.8711 130.9632,10.7341 C130.9952,10.6086 131.0102,10.4726 131.0082,10.3251 C131.0062,10.1781 131.0267,10.0416 131.0697,9.9156 C131.0907,9.8586 131.1122,9.8151 131.1342,9.7861 C131.1557,9.7576 131.1777,9.7141 131.1992,9.6566 L131.4577,9.1046 C131.5977,8.8286 131.7542,8.5686 131.9287,8.3251 C132.1022,8.0821 132.2537,7.8221 132.3832,7.5461 C132.5012,7.2706 132.6107,6.9756 132.7122,6.6836 C132.8142,6.3916 132.9292,6.1131 133.0587,5.8486 C133.1232,5.6991 133.1987,5.5611 133.2857,5.4336 C133.3722,5.3066 133.4537,5.1791 133.5297,5.0521 C133.6162,4.9136 133.6867,4.7726 133.7397,4.6291 C133.7932,4.4861 133.8577,4.3451 133.9337,4.2066 C134.1492,3.8036 134.2352,3.4216 134.4907,3.0456 C134.7452,2.6696 135.1362,2.2711 135.3637,1.8676 L135.6552,2.7071 L135.6172,3.6591 L135.2107,4.2671 L135.1352,4.9146 L134.4782,6.7306 C134.2932,6.9631 134.1247,7.2066 133.9732,7.4601 C133.8972,7.5876 133.8297,7.7196 133.7712,7.8576 C133.7117,7.9951 133.6387,8.1281 133.5517,8.2551 C133.4757,8.3826 133.3862,8.5041 133.2832,8.6206 C133.1792,8.7376 133.0952,8.8591 133.0302,8.9856 C132.9547,9.1126 132.8932,9.2561 132.8447,9.4161 C132.7972,9.5761 132.7412,9.7196 132.6762,9.8461 C132.5467,10.1106 132.3952,10.3706 132.2217,10.6251 C132.1117,10.7081 132.0002,10.7881 131.8852,10.8656 C131.7697,10.9431 131.6632,11.0286 131.5652,11.1221 C131.4552,11.2161 131.3572,11.3216 131.2707,11.4371 C131.1832,11.5536 131.0907,11.6641 130.9927,11.7691 C130.8947,11.8631 130.7932,11.9481 130.6892,12.0251 C130.5852,12.1026 130.4892,12.1876 130.4022,12.2806 C130.4447,12.1551 130.4822,12.0261 130.5137,11.8951 M126.2547,11.0836 C126.2237,11.2601 126.1847,11.4396 126.1367,11.6221 C126.0897,11.8051 126.0587,11.9871 126.0442,12.1686 C126.0302,12.3506 126.0902,12.5351 126.2252,12.7231 C126.1702,12.7926 126.1192,12.8851 126.0712,12.9996 C126.0227,13.1146 125.9682,13.2156 125.9092,13.3021 C125.8492,13.3891 125.7752,13.4541 125.6877,13.4966 C125.5997,13.5391 125.5002,13.5166 125.3882,13.4296 C125.2252,13.6386 125.0582,13.7461 124.8872,13.7516 C124.7152,13.7576 124.5387,13.7321 124.3562,13.6761 C124.1722,13.6196 123.9867,13.5691 123.7987,13.5241 C123.6102,13.4796 123.4117,13.5171 123.2037,13.6371 C123.1012,13.3916 122.9332,13.2046 122.6992,13.0761 C122.4657,12.9476 122.2377,12.8221 122.0157,12.6996 C121.7932,12.5766 121.6142,12.4296 121.4802,12.2586 C121.3452,12.0876 121.3197,11.8426 121.4042,11.5221 C121.5137,11.4281 121.6262,11.3481 121.7417,11.2821 C121.8567,11.2166 121.9657,11.1471 122.0702,11.0761 C122.1742,11.0046 122.2752,10.9251 122.3742,10.8371 C122.4722,10.7491 122.5652,10.6411 122.6517,10.5136 C122.9392,10.5156 123.2032,10.4421 123.4442,10.2926 C123.6857,10.1431 123.9237,9.9966 124.1597,9.8531 C124.3962,9.7096 124.6347,9.6086 124.8777,9.5496 C125.1197,9.4906 125.3852,9.5471 125.6747,9.7186 C125.7647,9.8516 125.8492,9.9846 125.9282,10.1176 C126.0067,10.2511 126.0862,10.3956 126.1657,10.5516 C126.2557,10.7296 126.2857,10.9071 126.2547,11.0836 M124.6397,15.2116 C124.4022,15.2816 124.1462,15.2871 123.8692,15.2286 C123.8007,15.0721 123.7117,14.9736 123.6002,14.9316 C123.4892,14.8901 123.3782,14.8536 123.2677,14.8236 C123.1567,14.7931 123.0597,14.7486 122.9762,14.6886 C122.8922,14.6296 122.8377,14.5036 122.8142,14.3116 C122.9142,14.3541 123.0247,14.4066 123.1477,14.4706 C123.2697,14.5346 123.3947,14.5931 123.5222,14.6451 C123.6497,14.6976 123.7772,14.7306 123.9047,14.7436 C124.0317,14.7561 124.1497,14.7326 124.2602,14.6721 C124.3597,14.6916 124.4537,14.7196 124.5432,14.7566 C124.6312,14.7931 124.7257,14.7926 124.8247,14.7556 L124.9222,14.6166 C124.9567,14.6951 125.0087,14.7301 125.0807,14.7221 C125.1527,14.7136 125.2157,14.7086 125.2717,14.7071 C125.0867,14.9736 124.8762,15.1421 124.6397,15.2116 M115.8347,10.2036 C115.8032,10.3911 115.7612,10.5826 115.7087,10.7761 C115.6557,10.9706 115.6302,11.1526 115.6322,11.3221 C115.6002,11.3796 115.5452,11.4216 115.4682,11.4466 C115.3912,11.4716 115.0807,11.2521 114.9977,11.2491 C114.9147,11.2461 114.8347,11.2316 114.7567,11.2061 C114.6787,11.1801 114.6177,11.1511 114.5732,11.1186 C114.5937,10.9936 114.5677,10.8926 114.4952,10.8151 C114.4217,10.7386 113.8462,10.6646 113.7682,10.5936 C113.6897,10.5226 113.6222,10.4456 113.5662,10.3626 C113.5097,10.2796 113.5082,10.1691 113.5622,10.0311 C113.7282,10.0601 113.8627,10.0331 113.9672,9.9501 C114.0712,9.8676 114.1607,9.7656 114.2367,9.6446 C114.3127,9.5231 114.3887,9.4016 114.4642,9.2806 C114.5402,9.1591 114.6387,9.0621 114.7592,8.9901 C114.9377,9.1206 115.7782,9.5001 115.8197,9.6686 C115.8602,9.8371 115.8652,10.0156 115.8347,10.2036 M115.2837,13.3246 C115.1377,13.5841 114.9722,13.8356 114.7872,14.0796 L114.9047,14.1946 C114.7067,14.2466 114.3862,14.3651 114.3002,14.5661 C114.2142,14.7671 113.6087,14.8001 113.5337,14.9836 C113.4587,15.1671 113.3607,15.3061 113.2407,15.4006 C113.1202,15.4951 112.9452,15.6266 112.6672,15.4776 C112.5572,15.5266 112.4447,15.5641 112.3287,15.5906 C112.2132,15.6166 112.0972,15.6461 111.9822,15.6781 C111.8662,15.7101 111.7532,15.7536 111.6437,15.8081 C111.5337,15.8626 111.4352,15.9366 111.3482,16.0301 C111.3692,15.9731 111.3657,15.9221 111.3377,15.8776 C111.3097,15.8331 111.2737,15.8006 111.2292,15.7791 L110.8677,16.0456 C110.9862,15.8266 111.0552,15.5811 111.0742,15.3086 C111.0927,15.0366 111.1142,14.7641 111.1392,14.4916 C111.1632,14.2191 111.2177,13.9656 111.3037,13.7306 C111.3892,13.4961 111.5582,13.3121 111.8107,13.1791 C111.7197,12.9786 111.6922,12.7981 111.7297,12.6381 C111.7557,12.5241 111.8032,12.4166 111.8612,12.3126 C111.9182,12.2556 111.9782,12.2021 112.0257,12.1361 C112.1022,12.0316 112.1837,11.9331 112.2712,11.8396 C112.3692,11.7231 112.4422,11.6361 112.4917,11.5776 C112.5407,11.5196 112.5842,11.4646 112.6222,11.4121 C112.6242,11.4101 112.6262,11.4076 112.6277,11.4056 C112.8662,11.4216 113.0712,11.4841 113.2412,11.5956 C113.4142,11.7086 113.5812,11.8306 113.7427,11.9611 C113.9047,12.0916 114.7452,12.2161 114.9067,12.3186 C115.0677,12.4206 115.2592,12.4681 115.4807,12.4606 C115.4952,12.7776 115.4297,13.0651 115.2837,13.3246 M102.4562,12.2911 C102.5147,12.1246 102.5792,11.9671 102.6492,11.8176 C102.7192,11.6681 102.8057,11.5296 102.9092,11.4016 C103.0127,11.2736 103.1577,11.1726 103.3447,11.0986 C103.3537,10.9171 103.3707,10.7386 103.3962,10.5621 C103.4212,10.3856 103.4502,10.2066 103.4812,10.0241 C103.7022,10.0851 103.8902,10.0846 104.0447,10.0226 C104.1982,9.9616 104.3327,9.8751 104.4472,9.7636 C104.5622,9.6521 104.6702,9.5301 104.7742,9.3961 C104.8777,9.2626 104.9922,9.1516 105.1182,9.0621 C105.2437,8.9736 105.3842,8.9236 105.5392,8.9131 C105.6932,8.9021 105.8872,8.9551 106.1212,9.0721 C106.1317,9.0831 106.1402,9.0881 106.1462,9.0881 C106.1512,9.0881 106.1597,9.0931 106.1707,9.1041 C106.1607,9.1611 106.1257,9.2561 106.0662,9.3881 C106.0072,9.5201 105.9672,9.6201 105.9462,9.6886 C105.8287,10.0211 105.6832,10.3431 105.5102,10.6541 C105.3367,10.9656 105.0747,11.1776 104.7227,11.2911 C104.6257,11.4981 104.4787,11.6671 104.2812,11.7981 C104.0842,11.9291 103.8782,12.0516 103.6647,12.1661 C103.4502,12.2811 103.2417,12.4041 103.0392,12.5346 C102.8362,12.6661 102.6752,12.8241 102.5562,13.0091 C102.5337,12.9876 102.4942,12.9491 102.4387,12.8941 C102.3827,12.8396 102.3327,12.8241 102.2892,12.8481 L102.2217,12.7656 C102.3192,12.6151 102.3977,12.4571 102.4562,12.2911 M138.6222,11.1206 C138.6807,10.9546 138.7452,10.7966 138.8157,10.6471 C138.8852,10.4976 138.9717,10.3591 139.0752,10.2311 C139.1787,10.1036 139.3237,10.0021 139.5107,9.9281 C139.5197,9.7466 139.5372,9.5681 139.5627,9.3916 C139.5877,9.2151 139.6162,9.0361 139.6472,8.8536 C139.8687,8.9146 140.0567,8.9141 140.2107,8.8526 C140.3642,8.7911 140.4992,8.7046 140.6132,8.5931 C140.7282,8.4816 140.8367,8.3596 140.9407,8.2261 C141.0437,8.0926 141.1582,7.9811 141.2847,7.8921 C141.4102,7.8031 141.5502,7.7531 141.7052,7.7421 C141.8592,7.7316 142.0537,7.7846 142.2872,7.9016 C142.2982,7.9126 142.3062,7.9176 142.3122,7.9176 C142.3172,7.9176 142.3257,7.9231 142.3367,7.9336 C142.3267,7.9906 142.2917,8.0856 142.2327,8.2176 C142.1737,8.3496 142.1332,8.4496 142.1122,8.5186 C141.9947,8.8506 141.8497,9.1726 141.6762,9.4836 C141.5032,9.7951 141.2407,10.0076 140.8887,10.1206 C140.7922,10.3276 140.6452,10.4971 140.4477,10.6276 C140.2502,10.7586 140.0447,10.8816 139.8307,10.9961 C139.6162,11.1106 139.4082,11.2336 139.2057,11.3641 C139.0027,11.4956 138.8412,11.6541 138.7222,11.8386 C138.6997,11.8171 138.6607,11.7786 138.6052,11.7236 C138.5487,11.6691 138.4992,11.6541 138.4552,11.6776 L138.3877,11.5946 C138.4852,11.4446 138.5637,11.2866 138.6222,11.1206 M149.5117,9.1576 C149.5107,9.0956 149.4827,9.0536 149.4272,9.0331 C149.2852,9.1621 149.1402,9.2801 148.9927,9.3866 C148.8442,9.4936 148.6937,9.6006 148.5407,9.7071 C148.3547,9.8381 147.9142,10.2281 147.8102,10.2936 C147.7052,10.3591 147.6152,10.4246 147.5387,10.4891 C147.4617,10.5536 147.3827,10.6271 147.3007,10.7091 C147.2192,10.7911 147.0962,10.9141 146.9327,11.0776 L146.8837,11.1471 L146.7492,10.9816 C146.6287,11.1101 146.5037,11.2331 146.3727,11.3506 C146.2412,11.4681 146.0762,11.4961 145.8767,11.4351 C145.7887,11.4946 145.6977,11.5311 145.6047,11.5456 C145.5102,11.5601 145.4222,11.5801 145.3397,11.6051 C145.2572,11.6306 145.1802,11.6701 145.1092,11.7231 C145.0382,11.7766 144.9812,11.8716 144.9392,12.0091 L144.9227,12.0606 L144.8897,12.0616 C144.7462,12.0891 144.6032,12.1106 144.4597,12.1261 C144.3157,12.1426 144.1807,12.1696 144.0547,12.2076 C143.9277,12.2456 143.8097,12.3006 143.7002,12.3721 C143.5902,12.4436 143.4982,12.5431 143.4222,12.6696 C143.3787,12.7506 143.3462,12.8226 143.3252,12.8851 C143.3037,12.9481 143.2827,13.0196 143.2617,13.0996 C143.1732,13.1251 143.0657,13.1686 142.9727,13.1601 C142.8782,13.1521 142.8382,13.2531 142.7827,13.1646 C142.5182,13.2186 142.2617,13.2976 142.0152,13.4021 C141.7672,13.5061 141.5257,13.6161 141.2897,13.7311 C141.0532,13.8466 140.8117,13.9566 140.5647,14.0606 C140.3167,14.1651 140.0612,14.2386 139.7962,14.2806 L139.7802,14.2986 L139.7632,14.2821 C139.6297,14.1961 139.4772,14.1556 139.3062,14.1611 C139.1347,14.1666 138.9612,14.1811 138.7847,14.2041 C138.6077,14.2266 138.4372,14.2321 138.2712,14.2206 C138.1057,14.2091 137.9902,13.7021 137.8782,13.5816 C137.9777,13.4666 138.0217,13.5231 138.1697,13.4106 C138.3167,13.2981 138.4762,13.2026 138.6467,13.1236 C138.8167,13.0441 138.9897,12.9761 139.1662,12.9196 C139.3422,12.8631 139.4987,12.7901 139.6357,12.7006 C139.7732,12.6111 139.8847,12.4971 139.9712,12.3581 C140.0577,12.2196 140.1002,12.0311 140.0972,11.7936 C140.1967,11.8131 140.3017,11.8326 140.4127,11.8516 C140.5237,11.8706 140.6282,11.8951 140.7287,11.9261 C140.8157,11.8666 140.8837,11.7796 140.9327,11.6646 C140.9807,11.5501 141.0482,11.4456 141.1357,11.3521 L141.1687,11.3171 L141.2022,11.3501 C141.3467,11.4586 141.4407,11.4781 141.4842,11.4086 C141.5277,11.3396 141.5657,11.2451 141.5972,11.1251 C141.6287,11.0051 141.6797,10.8931 141.7507,10.7886 C141.8207,10.6846 141.9562,10.6576 142.1552,10.7076 C142.3967,10.5411 142.5822,10.3401 142.7117,10.1036 C142.8412,9.8676 142.9597,9.6171 143.0667,9.3536 C143.1422,9.1926 143.2147,9.0401 143.2852,8.8961 C143.3552,8.7521 143.4392,8.6111 143.5367,8.4716 C143.6237,8.3446 143.6662,8.1961 143.6642,8.0261 C143.6622,7.8566 143.5992,7.7116 143.4767,7.5911 C143.6632,7.5056 143.7222,7.3536 143.6532,7.1351 C143.5847,6.9166 143.4407,6.7261 143.2237,6.5631 C143.0057,6.4006 142.7457,6.3071 142.4412,6.2831 C142.1372,6.2596 141.8377,6.4051 141.5437,6.7201 L141.5097,6.6871 C141.3427,6.5686 141.2102,6.5441 141.1112,6.6156 C141.0127,6.6866 140.9147,6.7776 140.8162,6.8886 C140.7182,6.9991 140.6062,7.1021 140.4807,7.1966 C140.3547,7.2911 140.1862,7.2966 139.9752,7.2131 C139.7897,7.4006 139.5927,7.5766 139.3847,7.7416 C139.1767,7.9071 138.9747,8.0751 138.7777,8.2456 C138.5812,8.4161 138.3927,8.5981 138.2127,8.7906 C138.0327,8.9831 137.8782,9.2006 137.7487,9.4426 C137.7832,9.5886 137.7902,9.7046 137.7692,9.7901 C137.7482,9.8756 137.7157,9.9501 137.6722,10.0136 C137.6287,10.0776 137.5772,10.1416 137.5172,10.2056 C137.4577,10.2701 137.3952,10.3536 137.3302,10.4576 C137.3412,10.4916 137.3662,10.5246 137.4057,10.5571 C137.4447,10.5901 137.4647,10.6346 137.4652,10.6911 C137.4662,10.7931 137.4482,10.8641 137.4102,10.9056 C137.3717,10.9466 137.3222,10.9706 137.2617,10.9781 C137.2012,10.9861 137.1377,10.9881 137.0712,10.9846 C137.0047,10.9806 136.9442,10.9796 136.8887,10.9816 C136.8897,11.0611 136.8937,11.1346 136.8992,11.2021 C136.9062,11.2701 136.9097,11.3431 136.9107,11.4226 C136.9137,11.6491 136.8857,11.8476 136.8272,12.0196 C136.7687,12.1911 136.6902,12.3526 136.5922,12.5026 C136.5262,12.6046 136.4972,12.7211 136.4842,12.8446 C136.1762,13.0566 135.8707,13.2666 135.5707,13.4701 C135.3737,13.6126 135.1322,13.7761 134.8477,13.9606 C134.5627,14.1456 134.3102,14.2871 134.0902,14.3846 C133.9912,14.4331 133.8677,14.4826 133.7192,14.5326 C133.5702,14.5826 133.4192,14.6301 133.2652,14.6751 C133.1107,14.7196 132.9622,14.7586 132.8192,14.7911 C132.6757,14.8241 132.5492,14.8541 132.4392,14.8801 C132.1952,14.8316 131.9517,14.7771 131.7082,14.7171 C131.4637,14.6571 131.2262,14.5916 130.9932,14.5201 L130.6207,13.8696 C130.9362,13.5086 131.2582,13.1586 131.5857,12.8196 C131.9127,12.4806 132.2177,12.1196 132.5007,11.7366 C132.5867,11.6096 132.6707,11.4736 132.7527,11.3296 C132.8332,11.1851 132.9227,11.0496 133.0207,10.9216 C133.2057,10.6776 133.4127,10.4331 133.6417,10.1881 C133.8707,9.9426 134.0942,9.7206 134.3132,9.5206 C134.3882,9.3711 134.4637,9.2246 134.5397,9.0806 C134.6152,8.9366 134.6797,8.7956 134.7332,8.6581 C134.7867,8.5091 134.8292,8.3521 134.8602,8.1871 C134.8912,8.0221 134.9222,7.8596 134.9537,7.7001 L135.5087,7.0026 L135.5812,6.1226 L136.2362,5.4896 L136.2917,4.5711 C136.4217,4.4086 136.5382,4.2151 136.6407,3.9911 C136.7427,3.7671 136.8202,3.5521 136.8732,3.3466 C136.8492,3.1891 136.8382,3.0056 136.8412,2.7956 C136.8442,2.5861 136.8532,2.3711 136.8667,2.1496 C136.8807,1.9286 136.8997,1.7101 136.9247,1.4941 C136.9497,1.2781 136.9727,1.0846 136.9927,0.9146 L136.4862,0.1666 L135.6927,0.3286 L135.3577,0.0001 L134.6352,0.5671 C134.4837,0.8551 134.3272,1.1206 134.1642,1.3636 C134.0122,1.6061 133.8467,1.8411 133.6677,2.0676 C133.4877,2.2941 133.3337,2.5341 133.2037,2.7871 C133.0852,3.0176 132.7912,3.2776 132.6947,3.5746 C132.5992,3.8721 132.4972,4.1191 132.3892,4.3146 C132.3357,4.4411 132.2647,4.5566 132.1777,4.6611 C132.0907,4.7661 132.0032,4.8766 131.9172,4.9926 C131.8622,5.0736 131.2752,6.4111 131.2432,6.4796 C131.1897,6.6061 131.1472,6.7406 131.1157,6.8831 C131.0842,7.0261 131.0417,7.1656 130.9882,7.3031 C130.9347,7.4296 130.8697,7.5536 130.7942,7.6751 C130.7177,7.7961 130.6477,7.9256 130.5832,8.0636 C130.5292,8.1901 130.4787,8.3191 130.4307,8.4506 C130.3817,8.5826 130.3312,8.7116 130.2777,8.8376 C130.0632,9.3656 129.8847,9.9011 129.7417,10.4431 C129.5997,10.9856 129.4372,11.5256 129.2562,12.0636 C129.2807,12.2781 129.3027,12.4866 129.3217,12.6896 C129.3312,12.7911 129.3437,12.8971 129.3547,13.0011 C128.9772,13.1286 128.0892,13.2551 127.6907,13.3371 L127.1057,12.8811 C127.1027,12.6771 127.1107,12.4366 127.1292,12.1586 C127.1482,11.8806 127.1642,11.5971 127.1772,11.3081 C127.1902,11.0191 127.1872,10.7446 127.1677,10.4846 C127.1477,10.2251 127.0922,10.0116 127.0022,9.8451 C126.9567,9.7561 126.8982,9.6701 126.8252,9.5876 C126.7522,9.5051 126.6877,9.4306 126.6317,9.3646 C126.3067,9.0016 125.9697,8.7636 125.6207,8.6506 C125.2712,8.5376 124.8587,8.5116 124.3847,8.5721 C124.2742,8.5871 124.1782,8.6296 124.0967,8.7006 C124.0142,8.7711 123.9382,8.8391 123.8672,8.9036 C123.7952,8.9681 123.7247,9.0096 123.6527,9.0291 C123.5812,9.0486 123.5007,9.0086 123.4112,8.9096 C123.2802,9.0386 123.1467,9.1616 123.0097,9.2796 C122.8727,9.3971 122.7332,9.5091 122.5912,9.6156 C122.5362,9.6516 122.4867,9.6701 122.4427,9.6716 C122.3437,9.6976 122.2657,9.6831 122.2102,9.6281 C122.1542,9.5736 122.1067,9.5016 122.0662,9.4121 C122.0267,9.3231 121.9842,9.2336 121.9392,9.1446 C121.8937,9.0556 121.8377,8.9841 121.7712,8.9291 C121.6157,8.9006 121.4912,8.9191 121.3987,8.9841 C121.3052,9.0496 121.2267,9.1341 121.1612,9.2381 C121.0962,9.3421 121.0367,9.4546 120.9827,9.5751 C120.9292,9.6956 120.8702,9.8021 120.8047,9.8951 C120.7722,9.9416 120.7447,9.9706 120.7232,9.9826 C120.7117,9.9946 120.6847,10.0236 120.6412,10.0701 C120.5757,10.1401 120.5437,10.2206 120.5447,10.3111 C120.5457,10.4016 120.5522,10.4891 120.5647,10.5736 C120.5762,10.6581 120.5747,10.7376 120.5592,10.8116 C120.5482,10.8611 120.5127,10.8991 120.4647,10.9321 C120.3762,10.9466 120.2847,10.9526 120.1987,10.9761 C120.0337,11.0211 119.8747,11.1196 119.7217,11.2716 C119.6087,11.0831 119.4977,10.9931 119.3872,11.0026 C119.2762,11.0121 119.1697,11.0521 119.0657,11.1236 C118.9612,11.1951 118.8542,11.2581 118.7447,11.3121 C118.6342,11.3671 118.5182,11.3396 118.3957,11.2301 C118.0777,11.4331 117.7817,11.5201 117.4617,11.4911 C117.1407,11.4616 117.0497,11.5871 116.7272,11.4051 C116.7267,11.3371 116.7252,11.2411 116.7237,11.1166 C116.7222,10.9921 116.7207,10.8596 116.7187,10.7181 C116.7172,10.5761 116.7152,10.4436 116.7137,10.3186 C116.7122,10.1946 116.7117,10.1036 116.7107,10.0471 C116.6987,9.9796 116.6702,9.8736 116.6242,9.7276 C116.5777,9.5821 116.5287,9.4306 116.4777,9.2736 C116.4257,9.1171 116.3747,8.9631 116.3227,8.8121 C116.2717,8.6611 116.2337,8.5461 116.2112,8.4676 C115.9322,8.2841 114.9572,7.9936 114.7482,8.0566 C114.5387,8.1206 114.3332,8.2231 114.1297,8.3656 C113.9272,8.5081 113.7132,8.6486 113.4892,8.7856 C113.2642,8.9231 113.0027,8.9746 112.7037,8.9386 C112.7377,9.0056 112.7412,9.0731 112.7142,9.1421 C112.6877,9.2111 112.6637,9.2771 112.6422,9.3401 C112.6212,9.4031 112.6077,9.4626 112.6032,9.5196 C112.5982,9.5761 112.6347,9.6316 112.7127,9.6856 C112.6477,9.7671 112.5762,9.8316 112.4997,9.8791 C112.4227,9.9271 112.3437,9.9721 112.2607,10.0146 C112.1787,10.0571 112.0932,10.1021 112.0057,10.1501 C111.9182,10.1986 111.8412,10.2576 111.7757,10.3276 C111.8122,10.5756 111.7592,10.7641 111.6172,10.8931 C111.4752,11.0221 111.3217,11.1406 111.1572,11.2476 C110.9932,11.3551 110.8537,11.4761 110.7392,11.6096 C110.6247,11.7436 110.5017,12.1521 110.5017,12.1521 C110.3812,12.2806 110.2557,12.4036 110.1252,12.5211 C109.9937,12.6386 109.8287,12.6666 109.6287,12.6051 C109.5412,12.6651 109.4502,12.7016 109.3572,12.7161 C109.2627,12.7306 108.7552,12.7506 108.6727,12.7756 C108.5902,12.8011 108.5132,12.8406 108.4422,12.8936 C108.3712,12.9471 108.3142,13.0421 108.2722,13.1791 L108.2557,13.2306 L108.2227,13.2316 C108.0792,13.2596 108.4367,13.2806 108.2937,13.2966 C108.1497,13.3131 108.0147,13.3401 107.8887,13.3781 C107.7617,13.4161 107.6437,13.4711 107.5342,13.5426 C107.4242,13.6141 107.3317,13.7136 107.2557,13.8401 C107.2122,13.9211 107.1802,13.9931 107.1592,14.0556 C107.1377,14.1186 107.1162,14.1901 107.0957,14.2701 L107.0792,14.3046 C106.9912,14.3301 106.8997,14.3391 106.8062,14.3306 C106.7117,14.3221 106.6367,14.2736 106.5807,14.1851 C106.3162,14.2391 106.0602,14.3181 105.8132,14.4226 C105.5657,14.5266 105.3237,14.6366 105.0877,14.7516 C104.8517,14.8671 104.6097,14.9771 104.3627,15.0811 C104.1152,15.1856 103.8592,15.2591 103.5947,15.3011 L103.5782,15.3191 L103.5617,15.3026 C103.4282,15.2166 103.2752,15.1761 103.1047,15.1816 C102.9332,15.1871 102.7592,15.2016 102.5832,15.2246 C102.4062,15.2471 102.2352,15.2526 102.0692,15.2411 C101.9032,15.2296 101.7647,15.1636 101.6527,15.0421 C101.7382,14.8471 101.8557,14.6936 102.0032,14.5811 C102.1507,14.4686 102.3102,14.3731 102.4807,14.2936 C102.6507,14.2146 102.8237,14.1466 103.0002,14.0901 C103.1757,14.0331 103.3327,13.9601 103.4692,13.8711 C103.6067,13.7816 103.7182,13.6671 103.8052,13.5286 C103.8917,13.3901 103.9337,13.2016 103.9312,12.9641 C104.0307,12.9836 104.1357,13.0031 104.2467,13.0216 C104.3572,13.0411 104.4622,13.0656 104.5627,13.0961 C104.6497,13.0371 104.7177,12.9501 104.7667,12.8346 C104.8147,12.7201 104.8822,12.6161 104.9697,12.5226 L105.0027,12.4876 L105.0357,12.5201 C105.1807,12.6291 105.2747,12.6486 105.3182,12.5791 C105.3612,12.5096 105.3992,12.4156 105.4307,12.2956 C105.4622,12.1756 105.5132,12.0631 105.5847,11.9591 C105.6547,11.8546 105.7897,11.8281 105.9892,11.8781 C106.2302,11.7116 106.4157,11.5101 106.5452,11.2741 C106.6752,11.0381 106.7937,10.7876 106.9007,10.5236 C106.9762,10.3631 107.0487,10.2106 107.1192,10.0666 C107.1892,9.9231 107.2732,9.7811 107.3707,9.6421 C107.4577,9.5151 107.5002,9.3661 107.4982,9.1966 C107.4957,9.0271 107.4332,8.8821 107.3102,8.7611 C107.4972,8.6761 107.5562,8.5241 107.4867,8.3056 C107.4182,8.0871 107.2747,7.8966 107.0577,7.7336 C106.8397,7.5711 106.5792,7.4776 106.2747,7.4536 C105.9707,7.4296 105.6717,7.5751 105.3777,7.8906 L105.3437,7.8576 C105.1767,7.7386 105.0442,7.7146 104.9452,7.7861 C104.8467,7.8571 104.7487,7.9481 104.6502,8.0591 C104.5522,8.1696 104.4402,8.2726 104.3147,8.3666 C104.1887,8.4616 104.0202,8.4671 103.8092,8.3836 C103.6237,8.5711 103.4267,8.7471 103.2187,8.9121 C103.0107,9.0776 102.8087,9.2456 102.6117,9.4161 C102.4152,9.5866 102.2267,9.7686 102.0467,9.9611 C101.8667,10.1536 101.7117,10.3711 101.5822,10.6131 C101.6172,10.7591 101.6242,10.8746 101.6032,10.9601 C101.5822,11.0461 101.5497,11.1206 101.5062,11.1841 C101.4627,11.2481 101.4112,11.3121 101.3512,11.3761 C101.2912,11.4401 101.2287,11.5241 101.1637,11.6281 C101.1752,11.6621 101.2002,11.6951 101.2397,11.7276 C101.2782,11.7601 101.2982,11.8051 101.2992,11.8616 C101.3002,11.9636 101.2817,12.0346 101.2437,12.0756 C101.2052,12.1166 101.1557,12.1411 101.0952,12.1486 C101.0347,12.1561 100.9712,12.1586 100.9047,12.1551 C100.8387,12.1511 100.7777,12.1506 100.7227,12.1521 C100.7237,12.2316 100.7277,12.3046 100.7332,12.3726 C100.7402,12.4401 100.7437,12.5136 100.7447,12.5931 C100.7477,12.8196 100.7192,13.0181 100.6607,13.1901 C100.6022,13.3616 100.5242,13.5226 100.4262,13.6731 C100.3287,13.8236 100.2892,13.9976 100.3087,14.1951 C100.3272,14.3926 100.3742,14.5861 100.4482,14.7761 C100.5227,14.9661 100.6097,15.1446 100.7117,15.3111 C100.8132,15.4776 100.8972,15.6051 100.9642,15.6931 C101.0657,15.8256 101.1642,15.9726 101.2602,16.1336 C101.3557,16.2946 101.4597,16.4326 101.5712,16.5481 C101.6832,16.6631 101.8087,16.7441 101.9472,16.7906 C102.0862,16.8366 102.2487,16.8116 102.4352,16.7146 L102.4682,16.7136 C102.6232,16.7426 102.7672,16.7551 102.8997,16.7506 C103.0322,16.7461 103.1757,16.7301 103.3302,16.7026 C103.4732,16.6751 103.6137,16.6561 103.7522,16.6461 C103.8897,16.6361 104.0252,16.6401 104.1582,16.6586 C104.2677,16.5871 104.4217,16.5421 104.6207,16.5246 C104.8192,16.5066 105.0012,16.4751 105.1662,16.4301 C105.3317,16.3851 105.4577,16.3161 105.5447,16.2226 C105.6317,16.1291 105.6297,15.9706 105.5392,15.7471 L105.7532,15.6721 C106.0062,15.5736 106.2622,15.4666 106.5207,15.3501 C106.7782,15.2341 107.0277,15.1041 107.2697,14.9606 C107.3242,14.9246 107.3787,14.8836 107.4337,14.8361 C107.4882,14.7896 107.5432,14.7536 107.5982,14.7286 L108.7047,14.1336 L109.3632,13.9556 C109.6042,13.7436 109.8562,13.5801 110.1197,13.4636 C110.1282,13.4601 110.1367,13.4556 110.1452,13.4516 C110.1647,13.5891 110.1682,13.7201 110.1367,13.8366 C110.0887,14.0141 110.0277,14.1881 109.9522,14.3606 C109.8777,14.5326 109.8047,14.7076 109.7347,14.8856 C109.6657,15.0636 109.6432,15.2536 109.6677,15.4566 C109.8022,15.6336 109.9122,15.8221 109.9977,16.0231 C110.0827,16.2241 110.1322,16.4431 110.1467,16.6806 C110.2672,16.6541 110.3752,16.6531 110.4697,16.6786 C110.5637,16.7036 110.6522,16.7431 110.7362,16.7971 C110.8192,16.8511 110.9032,16.9106 110.9862,16.9756 C111.0702,17.0411 111.1567,17.0946 111.2457,17.1371 C111.7417,17.0526 112.2202,16.8871 112.6812,16.6401 C113.1422,16.3931 114.1292,16.4286 114.4677,16.0441 C114.6997,16.0706 115.0172,15.7476 115.0987,15.6426 C115.1807,15.5381 115.2422,15.4121 115.2847,15.2631 C115.3272,15.1146 115.3782,14.9661 115.4372,14.8166 C115.4957,14.6676 115.6187,14.5616 115.8057,14.4991 C115.7832,14.4656 115.7527,14.4271 115.7127,14.3831 C115.6737,14.3391 115.6652,14.2886 115.6867,14.2311 C115.9177,14.1556 116.0677,14.0296 116.1372,13.8516 C116.2072,13.6736 116.2657,13.4851 116.3132,13.2856 C116.3602,13.0856 116.4212,12.9081 116.4972,12.7531 C116.5722,12.5976 116.4897,12.4366 116.7432,12.4056 C116.8097,12.3926 116.8757,12.3871 116.9417,12.3911 C117.0082,12.3946 117.0802,12.3951 117.1577,12.3921 C117.2902,12.3766 117.4202,12.3811 117.5472,12.4051 C117.6742,12.4291 117.7857,12.4276 117.9292,12.4001 C118.4142,12.3051 118.8577,12.2256 119.2602,12.1616 C119.4772,12.1271 119.7102,12.0811 119.9537,12.0276 C119.9437,12.0401 119.9282,12.0506 119.9197,12.0631 C119.8327,12.1906 119.7597,12.3231 119.7007,12.4611 C119.6417,12.5991 119.5827,12.7396 119.5237,12.8831 C119.4642,13.0266 119.3637,13.1511 119.2217,13.2581 C119.2037,13.6206 119.1197,13.9746 118.9692,14.3191 C118.8187,14.6636 118.7197,15.1896 118.4687,15.4581 C118.2767,16.0306 117.9967,16.5816 117.6932,17.0956 C117.3902,17.6091 117.3992,18.1181 117.3077,18.2856 C117.2157,18.4526 117.1452,18.6586 117.0422,18.8091 C116.9387,18.9596 116.9222,19.0451 116.8582,19.2226 C116.7947,19.4001 116.6737,19.3831 116.7537,19.6296 C116.6562,19.7686 116.5892,19.9176 116.5522,20.0776 C116.5157,20.2376 116.4842,20.3996 116.4587,20.5646 C116.4337,20.7296 116.3967,20.8896 116.3487,21.0436 C116.3007,21.1981 116.2227,21.3451 116.1137,21.4846 C116.1047,21.6091 116.0752,21.7461 116.0277,21.8946 C115.9797,22.0431 115.9377,22.1951 115.9002,22.3491 C115.8637,22.5031 115.8492,22.6476 115.8562,22.7831 C115.8632,22.9191 115.9172,23.0361 116.0177,23.1346 C115.9417,23.2391 115.9067,23.3311 115.9137,23.4096 C115.9202,23.4886 115.9457,23.5671 115.9907,23.6451 C116.0362,23.7226 115.9752,23.8041 116.0202,23.8816 C116.0657,23.9591 116.4382,24.2451 116.9227,23.3256 C117.0147,23.1526 116.7822,23.0231 116.9237,22.8771 C117.0657,22.7311 117.1967,22.5771 117.3157,22.4146 C117.4357,22.2516 117.4717,22.0246 117.4237,21.7316 C117.3767,21.4726 117.5102,21.1651 117.5747,21.0101 C117.6392,20.8551 117.7287,20.7301 117.8437,20.6361 C117.9587,20.5416 117.9387,20.4586 118.0702,20.3921 C118.2022,20.3251 118.2017,20.2936 118.2942,20.1946 C118.3867,20.0951 118.2427,19.9116 118.2627,19.7581 C118.2832,19.6046 118.5737,19.4081 118.4597,19.1291 C118.6362,19.1006 118.7652,19.0091 118.8457,18.8536 C118.9267,18.6976 119.0922,18.3246 119.1517,18.2491 C119.2117,18.1736 119.2242,18.0681 119.1897,17.9336 C119.2542,17.8296 119.1512,17.8086 119.1772,17.6721 C119.2027,17.5351 119.3677,17.4231 119.3937,17.2861 C119.4197,17.1496 119.4487,17.0211 119.4807,16.9016 C119.5117,16.7816 119.5657,16.6861 119.6427,16.6156 C119.6182,16.4356 119.6492,16.2846 119.7362,16.1631 C119.8232,16.0411 119.9162,15.9276 120.0142,15.8226 C120.1122,15.7176 120.1797,15.6051 120.2172,15.4851 C120.2542,15.3646 120.2112,15.2166 120.0872,15.0391 L120.1852,14.9001 C120.1942,14.7636 120.3722,14.5446 120.4207,14.4411 C120.4692,14.3376 120.5237,14.2371 120.5832,14.1391 C120.6422,14.0411 120.7022,13.9396 120.7612,13.8356 C120.8207,13.7321 120.8667,13.6171 120.8982,13.4916 C121.2117,13.8211 121.4942,14.1431 121.7472,14.4576 C121.9992,14.7716 122.2057,15.1641 122.3657,15.6341 C122.4427,15.6206 122.5152,15.6406 122.5822,15.6951 C122.6492,15.7491 122.7157,15.8011 122.7827,15.8501 C122.8497,15.8986 122.9137,15.9276 122.9742,15.9366 C123.0352,15.9461 123.0927,15.9051 123.1472,15.8121 C123.2027,15.8786 123.2867,15.9606 123.3987,16.0586 C123.5102,16.1571 123.6272,16.2436 123.7497,16.3191 C123.8722,16.3941 123.9917,16.4301 124.1072,16.4261 C124.2237,16.4226 124.3137,16.3516 124.3782,16.2136 C124.6327,16.2616 124.8727,16.2256 125.0977,16.1051 C125.3222,15.9846 125.5362,15.8301 125.7387,15.6426 C125.9407,15.4551 126.1342,15.2591 126.3197,15.0551 C126.5047,14.8511 126.6962,14.6831 126.8937,14.5521 L127.0112,14.6841 C127.0747,14.4441 127.1672,14.3141 127.2882,14.2931 C127.4092,14.2721 127.5392,14.2736 127.6777,14.2971 C127.8157,14.3211 127.9487,14.3336 128.0762,14.3351 C128.2027,14.3366 128.8117,14.2236 128.8977,14.0281 C129.0092,14.1261 129.1172,14.1596 129.2217,14.1281 C129.3142,14.1001 129.4032,14.0536 129.4907,13.9991 C129.5242,14.1326 129.5642,14.2666 129.6162,14.4036 C129.6727,14.5546 129.7302,14.7086 129.7877,14.8646 C129.8772,14.9756 129.9777,15.0936 130.0897,15.2201 C130.2017,15.3466 130.3137,15.4591 130.4252,15.5571 C130.5257,15.6446 130.6487,15.7256 130.7932,15.8001 C130.9377,15.8741 131.0707,15.9551 131.1937,16.0411 L131.4407,15.8806 C131.6497,15.8626 131.8592,15.8501 132.0697,15.8431 C132.2792,15.8361 132.4832,15.8181 132.6822,15.7891 C132.7152,15.7881 132.8637,15.7491 133.1282,15.6726 C133.3927,15.5961 133.6757,15.5101 133.9787,15.4156 C134.2812,15.3211 134.5592,15.2351 134.8127,15.1591 C135.0657,15.0826 135.2087,15.0326 135.2412,15.0091 C135.2957,14.9851 135.3372,14.9576 135.3642,14.9286 C135.3917,14.8996 135.4332,14.8726 135.4877,14.8481 C135.6957,14.7056 135.8962,14.5576 136.0872,14.4041 C136.2787,14.2506 136.5802,14.2101 136.7992,14.0671 C136.8192,14.0531 136.8452,14.0431 136.8657,14.0301 C136.9027,14.1016 136.9322,14.1801 136.9732,14.2481 C137.0747,14.4146 137.0637,14.4346 137.1307,14.5226 C137.2322,14.6556 137.3302,14.8021 137.4262,14.9631 C137.5217,15.1241 137.6257,15.2621 137.7377,15.3776 C137.8497,15.4926 137.9747,15.5736 138.1132,15.6201 C138.2522,15.6661 138.4147,15.6411 138.6017,15.5441 L138.6347,15.5431 C138.7897,15.5721 138.9337,15.5846 139.0657,15.5801 C139.1982,15.5756 139.3417,15.5601 139.4962,15.5321 C139.6392,15.5046 139.7797,15.4861 139.9187,15.4761 C140.0562,15.4656 140.2297,15.4361 140.3622,15.4546 C141.2242,15.1636 141.8667,14.7906 141.8667,14.7906 C142.1072,14.6596 142.5132,14.3876 142.7722,14.2711 C143.0297,14.1556 143.2722,14.0021 143.5132,13.8581 C143.5677,13.8226 143.5872,13.8051 143.6422,13.7581 C143.6967,13.7111 143.7517,13.6756 143.8067,13.6506 L145.0942,13.0701 L145.6107,12.7851 C145.8517,12.5731 146.1037,12.4096 146.3672,12.2931 C146.6312,12.1771 146.8947,12.0411 147.1577,11.8851 C147.2352,11.8946 147.2987,11.8611 147.3472,11.7861 C147.3962,11.7106 147.4502,11.6296 147.5097,11.5426 C147.5692,11.4561 147.6347,11.3771 147.7062,11.3071 C147.7767,11.2371 147.8787,11.2166 148.0117,11.2461 C148.1102,11.1636 148.1972,11.0701 148.2737,10.9661 C148.3497,10.8616 148.4312,10.7626 148.5187,10.6691 C148.6167,10.5526 148.9852,10.1741 149.0347,10.1156 C149.0837,10.0576 149.1267,10.0021 149.1652,9.9501 C149.2032,9.8981 149.2467,9.8426 149.2957,9.7841 C149.3442,9.7266 149.4182,9.6446 149.5162,9.5396 C149.4937,9.5176 149.4847,9.4841 149.4902,9.4381 C149.4952,9.3931 149.5032,9.3591 149.5137,9.3356 C149.5132,9.2796 149.5122,9.2196 149.5117,9.1576"/><path fill="#000" d="M100.0557,8.33625 C100.1057,8.18325 100.1587,8.03525 100.2142,7.89225 C100.2707,7.77175 100.3502,7.62575 100.4517,7.45475 C100.5537,7.28325 100.6037,7.13825 100.6022,7.01925 L100.5852,7.01975 C100.6402,6.84475 100.6372,6.63875 100.5767,6.40225 L100.5592,6.38675 C100.5462,6.33325 100.5457,6.27875 100.5567,6.22425 C100.5672,6.16975 100.5727,6.11575 100.5722,6.06125 C100.6067,6.01675 100.6317,5.98925 100.6492,5.97775 C100.6662,5.96625 100.6742,5.93325 100.6737,5.87925 C100.6727,5.82525 100.6667,5.79025 100.6552,5.77425 C100.6432,5.75875 100.6197,5.72975 100.5847,5.68725 C100.4897,5.52775 100.4332,5.38075 100.4137,5.24575 C100.3947,5.11075 100.3722,4.95725 100.3467,4.78475 C100.3212,4.61225 100.2782,4.44575 100.2187,4.28475 C100.1587,4.12425 100.0867,3.96975 100.0042,3.82025 C100.0037,3.80975 99.9922,3.79425 99.9687,3.77275 C100.0257,3.71725 100.0307,3.66825 99.9842,3.62625 C99.8197,3.46875 99.6852,3.32675 99.5797,3.20025 C99.4737,3.07375 99.3557,2.92025 99.2262,2.74025 C99.1317,2.60225 99.0317,2.48625 98.9262,2.39225 C98.8207,2.29775 98.7037,2.19325 98.5752,2.07825 C98.4577,1.96275 98.3437,1.86375 98.2327,1.78025 C98.1217,1.69725 98.0017,1.61425 97.8737,1.53175 L97.8562,1.49975 C97.8317,1.42475 97.7962,1.38825 97.7502,1.38925 C97.6337,1.36075 97.5237,1.32375 97.4192,1.27825 C97.3142,1.23275 97.2042,1.22275 97.0887,1.24775 C96.8557,1.13625 96.5772,1.07475 96.2532,1.06325 C96.2297,1.05325 96.1917,1.05125 96.1402,1.05875 C96.0877,1.06575 96.0452,1.06425 96.0097,1.05475 C95.8822,1.02575 95.7542,0.99225 95.6272,0.95275 C95.4992,0.91375 95.3597,0.89625 95.2097,0.90075 C95.0822,0.90525 94.9492,0.90675 94.8107,0.90575 C94.6712,0.90475 94.5327,0.91725 94.3942,0.94325 C94.2557,0.96925 94.1287,1.01925 94.0142,1.09325 C93.8992,1.16775 93.7787,1.22825 93.6522,1.27525 C93.5257,1.33375 93.4022,1.38625 93.2812,1.43325 C93.1607,1.48075 93.0367,1.53325 92.9102,1.59125 C92.7952,1.64925 92.6802,1.70725 92.5657,1.76475 C92.4502,1.82275 92.0257,1.94375 91.9057,2.07325 C89.6357,4.52025 91.2957,4.48825 91.2957,4.48825 C91.2957,4.48825 91.5087,4.30475 91.6167,4.19175 C91.7822,4.01825 91.8867,3.83375 91.9307,3.63725 C92.0332,3.52575 92.1297,3.40925 92.2212,3.28675 C92.3117,3.16525 92.4262,3.05825 92.5642,2.96725 C92.7017,2.87625 92.8482,2.81225 93.0037,2.77425 C93.1597,2.73725 93.3122,2.67825 93.4617,2.59725 C93.5997,2.52825 93.7462,2.46675 93.9017,2.41325 C94.0572,2.35925 94.2042,2.30325 94.3422,2.24475 L94.3592,2.22775 C94.3822,2.23825 94.4027,2.24825 94.4202,2.25825 C94.4382,2.26875 94.4582,2.27375 94.4817,2.27275 C94.5047,2.31525 94.5342,2.33625 94.5687,2.33525 C94.6037,2.33375 94.6497,2.33775 94.7082,2.34675 C94.8702,2.37425 94.9712,2.37375 95.0117,2.34575 C95.0517,2.31725 95.1287,2.25225 95.2437,2.15125 L95.2782,2.14975 L95.2782,2.16625 C95.2902,2.18775 95.3162,2.21925 95.3577,2.26125 C95.3992,2.30375 95.4397,2.34575 95.4812,2.38775 C95.5222,2.42975 95.5627,2.46375 95.6042,2.48925 C95.6447,2.51475 95.6762,2.51675 95.6992,2.49425 C95.7567,2.47125 95.7912,2.43475 95.8022,2.38575 C95.8132,2.33625 95.8177,2.29025 95.8172,2.24675 C95.8992,2.27675 95.9857,2.28775 96.0782,2.27925 C96.1702,2.27075 96.2572,2.25475 96.3377,2.23025 L96.3907,2.26125 C96.5177,2.25725 96.6482,2.27225 96.7817,2.30575 C96.9152,2.33975 97.0287,2.39825 97.1227,2.48175 C97.1582,2.54525 97.2287,2.61675 97.3337,2.69475 C97.4392,2.77275 97.5377,2.80475 97.6297,2.79075 L97.6477,2.82275 C97.6022,2.88875 97.6032,2.95375 97.6502,3.01725 C97.6862,3.09225 97.7307,3.15625 97.7827,3.20825 C97.8362,3.26075 97.8942,3.31075 97.9587,3.35725 C98.0227,3.40425 98.0842,3.45075 98.1427,3.49775 C98.2012,3.54475 98.2537,3.60525 98.3012,3.67975 C98.3722,3.77475 98.4252,3.88125 98.4617,3.99925 C98.4982,4.11725 98.5457,4.22975 98.6052,4.33625 C98.6642,4.44275 98.7347,4.53775 98.8172,4.62175 C98.8992,4.70575 98.9697,4.80125 99.0292,4.90775 C99.0307,5.01625 99.0347,5.12725 99.0427,5.24075 C99.0497,5.35425 99.0657,5.46425 99.0902,5.57175 C99.1022,5.59325 99.1172,5.61975 99.1342,5.65175 C99.1527,5.68375 99.1727,5.71525 99.1967,5.74725 L99.2677,5.87525 C99.2562,5.88675 99.2332,5.90325 99.1992,5.92575 C99.1647,5.94875 99.1477,5.96575 99.1477,5.97625 C99.1022,6.03225 99.0797,6.08425 99.0802,6.13275 C99.0812,6.18175 99.0757,6.23875 99.0657,6.30425 L99.0477,6.32075 L99.0657,6.33625 C99.0082,6.38175 99.0147,6.42175 99.0847,6.45775 C99.1542,6.49375 99.2012,6.52175 99.2247,6.54275 L99.2072,6.54325 C99.1842,6.56575 99.1582,6.58825 99.1302,6.61075 C99.1017,6.63325 99.1047,6.66025 99.1397,6.69125 C99.1402,6.73525 99.1467,6.76175 99.1582,6.77225 C99.1597,6.86975 99.1432,6.94925 99.1092,7.00975 C99.0752,7.07025 99.0592,7.13275 99.0597,7.19775 C99.0027,7.25375 98.9427,7.34525 98.8807,7.47175 C98.8192,7.59825 98.8232,7.69275 98.8937,7.75575 C98.7677,7.86775 98.6562,7.98825 98.5602,8.11575 C98.4632,8.24325 98.3927,8.39425 98.3492,8.56925 C98.2347,8.69175 98.1002,8.79075 97.9452,8.86625 C97.7897,8.94175 97.6437,9.03025 97.5057,9.13175 C97.3342,9.25675 97.1992,9.35275 97.1017,9.42075 C97.0042,9.48925 96.9127,9.54625 96.8262,9.59225 C96.7402,9.63825 96.6397,9.67925 96.5247,9.71575 C96.4087,9.75175 96.2477,9.78925 96.0402,9.82825 C95.8322,9.86775 95.6297,9.90125 95.4337,9.92875 C95.2372,9.95675 95.0352,9.97925 94.8272,9.99675 C94.7807,9.99825 94.7522,10.01525 94.7407,10.04825 C94.6722,10.10475 94.5452,10.14925 94.3607,10.18225 C94.1757,10.21525 93.8447,10.22825 93.7527,10.23125 L93.7522,10.21525 C93.7972,10.14875 93.8222,10.07775 93.8272,10.00175 C93.8322,9.92575 93.8452,9.84375 93.8672,9.75625 C93.9102,9.49525 94.0087,9.15475 94.0522,8.93675 C94.0957,8.71875 94.2317,8.50325 94.4607,8.28975 C94.5287,8.22275 94.6007,8.18575 94.6757,8.17775 C94.7512,8.16975 94.7877,8.11175 94.7862,8.00325 C94.7852,7.90575 94.7467,7.85025 94.6712,7.83625 C94.5957,7.82275 94.5287,7.78975 94.4702,7.73725 C94.4582,7.70525 94.4717,7.66125 94.5117,7.60575 C94.5517,7.55075 94.6002,7.49475 94.6572,7.43875 C94.7142,7.38275 94.7687,7.32675 94.8197,7.27125 C94.8717,7.21525 94.9082,7.16575 94.9307,7.12125 L94.9282,6.94275 C94.9047,6.91075 94.8892,6.83575 94.8817,6.71675 C94.8747,6.59775 94.8707,6.51675 94.8702,6.47325 C94.8927,6.45075 94.9042,6.42325 94.9037,6.39075 C94.9262,6.35775 94.9222,6.30675 94.8932,6.23725 C94.8632,6.16775 94.8477,6.11125 94.8472,6.06775 L94.8642,6.03475 C94.8632,5.95925 94.8647,5.86425 94.8692,5.75025 C94.8737,5.63675 94.8662,5.52825 94.8477,5.42625 C94.8287,5.32375 94.7952,5.22725 94.7482,5.13675 C94.7007,5.04625 94.6302,4.98075 94.5372,4.94025 C94.5712,4.90675 94.5997,4.86225 94.6222,4.80725 C94.6567,4.80625 94.6737,4.78425 94.6732,4.74075 C94.7077,4.67475 94.6977,4.59125 94.6442,4.49025 C94.5907,4.38875 94.5202,4.30175 94.4322,4.22825 C94.3447,4.15525 94.2487,4.10975 94.1442,4.09125 C94.0397,4.07325 94.0907,4.21375 94.0227,4.30225 C93.9262,4.05625 93.8092,3.94625 93.6707,3.97225 C93.5322,3.99825 93.4412,4.12025 93.3982,4.33825 C93.3762,4.42575 93.3622,4.48575 93.3572,4.51825 C93.3512,4.55125 93.3497,4.61625 93.3512,4.71325 L93.3692,4.77775 C93.2997,4.78025 93.2832,4.84825 93.3197,4.98275 C93.3567,5.11725 93.3752,5.21675 93.3762,5.28175 C93.3762,5.30325 93.3767,5.33825 93.3772,5.38725 C93.3782,5.43575 93.3897,5.46525 93.4132,5.47525 C93.3447,5.54275 93.2757,5.60425 93.2072,5.66025 C93.1387,5.71725 93.1912,5.78025 93.3662,5.85075 L93.3667,5.89925 C93.3437,5.92175 93.3297,5.94375 93.3242,5.96575 C93.3182,5.98775 93.3277,6.00925 93.3512,6.02975 C93.3747,6.07275 93.3927,6.11525 93.4047,6.15825 C93.4172,6.20125 93.4347,6.24375 93.4587,6.28625 C93.4362,6.34125 93.4197,6.37975 93.4082,6.40175 C93.3967,6.42375 93.3917,6.46175 93.3922,6.51575 L93.4102,6.54775 L93.4102,6.56425 C93.3172,6.56675 93.2717,6.59575 93.2727,6.64975 C93.2382,6.68325 93.2212,6.71625 93.2217,6.74875 L93.1702,6.81525 C93.1707,6.83725 93.1682,6.85925 93.1632,6.88075 C93.1567,6.90275 93.1662,6.92425 93.1897,6.94475 L93.1902,6.96125 C93.1552,6.96225 93.1317,6.97925 93.1212,7.01225 C93.1217,7.06625 93.1252,7.11775 93.1317,7.16625 C93.1382,7.21475 93.1417,7.26625 93.1427,7.32025 C93.0737,7.36575 93.0627,7.42575 93.1102,7.49975 C93.1127,7.68425 93.0832,7.88275 93.0227,8.09625 C92.9617,8.30925 92.8862,8.52525 92.7967,8.74475 C92.7072,8.96425 92.6172,9.17875 92.5277,9.38725 C92.4382,9.59625 92.3592,9.78775 92.2927,9.96325 C92.1762,9.95625 92.0807,9.92975 92.0047,9.88325 C91.9287,9.83675 91.8562,9.78725 91.7862,9.73525 C91.7157,9.68375 91.6462,9.63425 91.5757,9.58775 C91.5057,9.54125 91.4237,9.50325 91.3312,9.47375 C91.2957,9.43125 91.2322,9.40075 91.1392,9.38225 C91.1852,9.36975 91.2192,9.34175 91.2422,9.29775 L91.2417,9.26525 C91.1937,9.18025 91.1272,9.11475 91.0397,9.06875 C90.9517,9.02275 90.8677,8.99025 90.7867,8.97075 C90.7852,8.87325 90.7172,8.79725 90.5842,8.74175 C90.4502,8.68675 90.3372,8.66575 90.2447,8.67925 C90.1867,8.69225 90.1242,8.73725 90.0552,8.81525 C89.9867,8.89325 89.9357,8.95475 89.9017,8.99875 L89.8842,8.99925 C89.8502,9.02225 89.8157,9.05025 89.7812,9.08375 C89.7472,9.11725 89.7532,9.15525 89.8002,9.19725 C89.8007,9.22975 89.8067,9.27325 89.8192,9.32625 C89.8317,9.38025 89.8432,9.42325 89.8557,9.45525 C89.7632,9.45825 89.6937,9.49275 89.6492,9.55925 C89.6042,9.68025 89.6312,9.76875 89.7307,9.82525 C89.8292,9.88125 89.9142,9.94625 89.9847,10.02025 C89.9272,10.05425 89.9132,10.08975 89.9427,10.12725 C89.9717,10.16425 90.0157,10.18125 90.0737,10.17975 C90.2392,10.46675 90.3927,10.67875 90.5332,10.81525 C90.6737,10.95175 90.9187,11.05775 91.2667,11.13325 C91.3592,11.15175 91.4522,11.17875 91.5452,11.21375 C91.6382,11.24875 91.7372,11.28075 91.8417,11.30975 C91.7502,11.39925 91.7137,11.49825 91.7327,11.60575 C91.7517,11.71375 91.7377,11.77925 91.6917,11.80225 C91.5992,11.80475 91.5537,11.86075 91.5552,11.96925 C91.5222,12.06725 91.4942,12.14975 91.4717,12.21525 C91.4497,12.28125 91.4272,12.34175 91.4047,12.39625 C91.3822,12.45125 91.3512,12.50925 91.3117,12.56975 C91.2717,12.63075 91.2122,12.70025 91.1322,12.77875 C91.1092,12.80125 91.0692,12.83775 91.0122,12.88825 C90.9552,12.93875 90.9382,12.97975 90.9622,13.01175 L90.9622,13.02775 L90.9447,13.04475 C90.9452,13.06625 90.9682,13.09775 91.0157,13.13975 C90.9267,13.42425 90.8117,13.68525 90.6702,13.92275 C90.5282,14.16025 90.3667,14.39525 90.1847,14.62825 C90.0937,14.75075 90.0257,14.88025 89.9817,15.01725 C89.9372,15.15375 89.8692,15.27775 89.7782,15.38875 C89.6872,15.50025 89.5902,15.59825 89.4872,15.68275 C89.3842,15.76725 89.2812,15.85475 89.1782,15.94425 C89.1422,15.83675 89.0832,15.74175 89.0012,15.65725 C88.9187,15.57325 88.8137,15.52275 88.6867,15.50475 C88.5542,15.14075 88.6517,14.69425 88.3952,14.48225 C87.5987,13.82575 87.0057,15.11425 86.9902,15.20075 C86.9737,15.28825 86.9612,15.37825 86.9502,15.47075 C86.9402,15.56275 86.9467,15.65475 86.9712,15.74575 C86.9957,15.83725 87.0722,15.91875 87.2002,15.99075 C87.2032,16.20725 87.2572,16.36775 87.3627,16.47275 C87.4682,16.57775 87.6032,16.68725 87.7662,16.80125 L87.7837,16.80075 C87.8182,16.82125 87.8562,16.83925 87.8972,16.85425 C87.9382,16.86925 87.9697,16.89225 87.9937,16.92425 L87.9942,16.97275 C87.9372,17.02875 87.9552,17.08225 88.0482,17.13375 C88.1417,17.18475 88.2572,17.18125 88.3957,17.12275 C88.4772,17.16325 88.5612,17.19875 88.6487,17.22825 C88.7352,17.25825 88.8252,17.26075 88.9177,17.23625 C88.9657,17.38625 89.1662,17.41175 89.2182,17.38825 C89.2697,17.36525 89.3127,17.32025 89.3467,17.25425 C89.3802,17.18825 89.4377,17.18175 89.4372,17.13825 C89.4832,17.13725 89.5237,17.12525 89.5582,17.10225 C89.5922,17.07925 89.6322,17.05625 89.6787,17.03325 C90.0802,16.77125 90.4182,16.50875 90.6922,16.24575 C90.9662,15.98275 91.2162,15.64725 91.4422,15.23875 C91.5102,15.11775 91.5722,14.98875 91.6287,14.85125 C91.6842,14.71375 91.7462,14.57925 91.8142,14.44725 C91.8932,14.32575 91.9787,14.20925 92.0697,14.09775 C92.1607,13.98675 92.2342,13.86525 92.2907,13.73325 C92.3012,13.70025 92.3377,13.61775 92.3997,13.48575 C92.4617,13.35425 92.5262,13.21675 92.5942,13.07375 C92.6617,12.93075 92.7237,12.79875 92.7797,12.67775 C92.8362,12.55675 92.8642,12.48575 92.8637,12.46375 C92.8627,12.39875 92.8332,12.35125 92.7747,12.32025 C92.7862,12.27675 92.8112,12.21125 92.8507,12.12325 C92.8897,12.03525 92.9347,11.94425 92.9857,11.85075 C93.0367,11.75725 93.0877,11.67425 93.1387,11.60225 C93.1902,11.53025 93.2442,11.48775 93.3017,11.47475 C93.3132,11.46375 93.3247,11.45575 93.3367,11.44975 C93.3477,11.44375 93.3587,11.42975 93.3707,11.40775 C93.4282,11.40625 93.5037,11.39275 93.5957,11.36825 C93.8377,11.32775 94.0777,11.29375 94.3147,11.26425 C94.5512,11.23525 94.7857,11.26025 95.0187,11.33925 C95.1472,11.45475 95.2167,11.48225 95.2282,11.42225 C95.2382,11.36225 95.2667,11.30475 95.3127,11.24875 C95.4272,11.20175 95.5542,11.18175 95.6932,11.18825 C95.8327,11.19475 95.9652,11.18475 96.0922,11.15925 C96.2657,11.13225 96.4757,11.07425 96.7237,10.98475 C96.9712,10.89575 97.1637,10.80575 97.3012,10.71475 C97.3247,10.73575 97.3452,10.74875 97.3622,10.75325 C97.3802,10.75825 97.4002,10.76575 97.4237,10.77575 C97.6427,10.70375 97.8202,10.59575 97.9577,10.45025 C98.0942,10.30525 98.2427,10.16475 98.4032,10.02975 C98.5287,9.92825 98.6637,9.84025 98.8072,9.76525 C98.9512,9.69025 99.0857,9.59125 99.2117,9.46825 C99.4512,9.23275 99.6562,8.99375 99.8267,8.74975 C99.9292,8.62775 100.0052,8.48975 100.0557,8.33625"/></g></g></svg>