<svg height="32" viewBox="0 0 127 32" width="127" xmlns="http://www.w3.org/2000/svg" xmlns:xlink="http://www.w3.org/1999/xlink"><mask id="a" fill="#fff"><path d="m.00000313 0h32.04225037v31.9999875h-32.04225037z" fill="#fff" fill-rule="evenodd"/></mask><g fill="none" fill-rule="evenodd"><g fill="#e44332" transform="translate(41 6)"><path d="m13.778169 13.2811252c0 .5175808.0864877 1.0194093.2597786 1.4984127.1729753.4838256.4261253.9088205.7635534 1.2798071.3374281.3703436.7411423.666747 1.2139835.8879244.4725256.2214989 1.0100748.3327306 1.6091754.3327306.5991005 0 1.1360184-.1112317 1.6091753-.3327306.4722099-.2211774.8765554-.5175808 1.2139835-.8879244.3349029-.3709866.5902625-.7959815.7632378-1.2798071.1707657-.4790034.2572534-.9808319.2572534-1.4984127 0-.5175809-.0864877-1.0194093-.2572534-1.5009846-.1729753-.4815752-.4283349-.9062487-.7632378-1.2772352-.3374281-.3703436-.7417736-.66674707-1.2139835-.88824597-.4731569-.22149889-1.0100748-.33465943-1.6091753-.33465943-.5991006 0-1.1366498.11316054-1.6091754.33465943-.4728412.2214989-.8765554.51790237-1.2139835.88824597-.3374281.3709865-.5905781.79566-.7635534 1.2772352-.1732909.4815753-.2597786.9834037-.2597786 1.5009846m-3.2042253.1600065c0-1.0618606.1886384-2.0257481.5668746-2.8919858.3750389-.86656099.8878798-1.60540127 1.5327676-2.22137095.6429695-.61370629 1.4074349-1.08902148 2.2911583-1.42529889.8853219-.33401401 1.823079-.50247606 2.8190262-.50247606.9933895 0 1.9333846.16846205 2.8167882.50247606.8834036.33627741 1.6478691.8115926 2.2930766 1.42529889.6452076.61596968 1.1558104 1.35480996 1.5330874 2.22137095.3775967.8662377.5662351 1.8301252.5662351 2.8919858s-.1886384 2.0257481-.5662351 2.8916624c-.377277.8668844-.8878798 1.6054013-1.5330874 2.2216944-.6452075.6137062-1.409673 1.0890214-2.2930766 1.4230354-.8834036.3362775-1.8233987.5024761-2.8167882.5024761-.9959472 0-1.9337043-.1661986-2.8190262-.5024761-.8837234-.334014-1.6481888-.8093292-2.2911583-1.4230354-.6448878-.6162931-1.1577287-1.35481-1.5327676-2.2216944-.3782362-.8659143-.5668746-1.8298018-.5668746-2.8916624"/><path d="m29.7992958 13.2811252c0 .5175808.0864876 1.0194093.2597786 1.4984127.1729753.4838256.4261252.9088205.7632377 1.2798071.3374281.3703436.741458.666747 1.2139836.8879244.4728412.2214989 1.0100747.3327306 1.6094909.3327306.5987849 0 1.1360184-.1112317 1.6088597-.3327306.4725256-.2211774.8768711-.5175808 1.2136679-.8879244.3355342-.3709866.5908937-.7959815.763869-1.2798071.1707658-.4790034.2572534-.9808319.2572534-1.4984127 0-.5175809-.0864876-1.0194093-.2572534-1.5009846-.1729753-.4815752-.4283348-.9062487-.763869-1.2772352-.3367968-.3703436-.7411423-.66674707-1.2136679-.88824597-.4728413-.22149889-1.0100748-.33465943-1.6088597-.33465943-.5994162 0-1.1366497.11316054-1.6094909.33465943-.4725256.2214989-.8765555.51790237-1.2139836.88824597-.3371125.3709865-.5902624.79566-.7632377 1.2772352-.173291.4815753-.2597786.9834037-.2597786 1.5009846zm8.040956 4.5693373h-.0567043c-.4823092.8080358-1.1298986 1.3942516-1.9479233 1.7611934-.8157694.3647141-1.6969421.5483441-2.6435182.5483441-1.0400093 0-1.9620993-.1766285-2.7707807-.5349776-.8067482-.3577126-1.4975103-.847817-2.0729306-1.4722228-.5754203-.622178-1.0126237-1.3563799-1.309355-2.1997414-.2970535-.841452-.4439693-1.7497365-.4439693-2.7210343 0-.9712979.1562592-1.8795823.4736102-2.7232621.3147736-.841452.7542323-1.57533564 1.3206314-2.19974141.566077-.62217802 1.2481401-1.11228245 2.045545-1.46999503.7996602-.35834908 1.6718118-.53720537 2.6164547-.53720537.6321247 0 1.1891805.06492292 1.672134.19222277.4823091.12984585.9079139.29342616 1.2797141.49710592.3711557.20145202.6865737.41627051.9468982.6444555.2583914.23009448.4736102.45414221.6388905.67341621h.0837677v-7.27136748c0-.32875187.264513-.71765291.7284576-.71765291h1.8867084c.4365591 0 .7262023.36248633.7262023.71765291v18.07435109c0 .4592342-.3940308.7189259-.7262023.7189259h-1.7175619c-.408529 0-.7300685-.3398906-.7300685-.7176529z"/><path d="m46.4612676 13.2811252c0 .5175808.0864877 1.0194093.2597786 1.4984127.1729753.4838256.4261253.9088205.763869 1.2798071.3371125.3703436.7411424.666747 1.2136679.8879244.4725256.2214989 1.0100748.3327306 1.6091753.3327306.5991006 0 1.1360185-.1112317 1.6091754-.3327306.4728412-.2211774.8765554-.5175808 1.2139835-.8879244.3352186-.3709866.5902624-.7959815.7632377-1.2798071.1710815-.4790034.2572535-.9808319.2572535-1.4984127 0-.5175809-.086172-1.0194093-.2572535-1.5009846-.1729753-.4815752-.4280191-.9062487-.7632377-1.2772352-.3374281-.3703436-.7411423-.66674707-1.2139835-.88824597-.4731569-.22149889-1.0100748-.33465943-1.6091754-.33465943-.5991005 0-1.1366497.11316054-1.6091753.33465943-.4725255.2214989-.8765554.51790237-1.2136679.88824597-.3377437.3709865-.5908937.79566-.763869 1.2772352-.1732909.4815753-.2597786.9834037-.2597786 1.5009846m-3.2042253.1600065c0-1.0618606.1886301-2.0257481.5668494-2.8919858.3750223-.86656099.8878404-1.60540127 1.5326997-2.22137095.6429409-.61370629 1.4073725-1.08902148 2.2910566-1.42529889.8852827-.33401401 1.8229982-.50247606 2.8189013-.50247606.9933454 0 1.9332988.16846205 2.8166633.50247606.8833644.33627741 1.647796.8115926 2.2929749 1.42529889.6451789.61596968 1.1557591 1.35480996 1.5330193 2.22137095.37758.8662377.5668495 1.8301252.5668495 2.8919858s-.1892695 2.0257481-.5668495 2.8916624c-.3772602.8668844-.8878404 1.6054013-1.5330193 2.2216944-.6451789.6137062-1.4096105 1.0890214-2.2929749 1.4230354-.8833645.3362775-1.8233179.5024761-2.8166633.5024761-.9959031 0-1.9336186-.1661986-2.8189013-.5024761-.8836841-.334014-1.6481157-.8093292-2.2910566-1.4230354-.6448593-.6162931-1.1576774-1.35481-1.5326997-2.2216944-.3782193-.8659143-.5668494-1.8298018-.5668494-2.8916624"/><path d="m59.278169 1.92c0-.51617548.193722-.96293106.5808531-1.34736301.3896348-.38165515.8803555-.57263699 1.4743529-.57263699.5943104 0 1.0956718.18234292 1.5009545.54702876.4046569.36437731.6093325.82193155.6093325 1.37297124s-.2046756 1.00859393-.6093325 1.37327977c-.4052827.36437731-.9066441.54672023-1.5009545.54672023-.5939974 0-1.0847181-.19098184-1.4743529-.57479672-.3871311-.38196368-.5808531-.82871927-.5808531-1.34520328"/><path d="m73.0352089 10.4511728c-.3287461 0-.5712481-.2531781-.6129381-.3634383-.2746446-.73043332-1.1485429-1.00462875-1.85409-1.00462875-1.1128996 0-1.9864796.52414009-1.9864796 1.42529885 0 .8720579.8452563 1.0498969 1.3671766 1.2102754.5734758.1765456 1.6679172.4190534 2.271308.5629413.6135746.146798 1.1848227.3618216 1.7188363.6437773 1.7519336.9237928 2.0011187 2.3775459 2.0011187 3.2531606 0 3.2298799-3.1496616 4.3014408-5.3366349 4.3014408-1.6854207 0-4.8522675-.2593216-5.5476308-3.5247693-.067786-.3175235.2094046-.8060958.7176404-.8060958h1.8213109c.358661 0 .6002083.2657885.6705402.4743452.2342277.6560643.9782823 1.1517501 2.2328005 1.1517501 1.3458542 0 2.1414644-.5422473 2.1414644-1.263627 0-.4659383-.2603237-.8811115-.5998901-1.114889-1.020927-.7032725-3.5449208-.782815-4.9149616-1.5235954-.5247844-.2835724-1.8416784-.9318764-1.8416784-3.1419304 0-3.04622067 2.7257605-4.3311884 5.120229-4.3311884 3.5315545 0 4.8277626 2.2672858 4.9738367 3.10733264.080834.46367482-.174716.94384016-.688362.94384016z"/><path d="m76.2605634 8.6252353v-1.37569117c0-.32812591.2628796-.72296756.7287753-.72296756h1.7985132v-3.3774838c0-.36148378.2488898-.58151739.4372652-.66234606.1112684-.04811231 1.1175639-.4808023 1.9211688-.82624865.561222-.22741083 1.0160558.22837307 1.0160558.66779879v4.19827972h2.9769169c.4597141 0 .7339808.39580389.7339808.72296756v1.37761566c0 .39901139-.3621102.72489206-.7336554.72489206h-2.9772423v5.82126815c0 .664912-.01887 1.1848457.2384787 1.5691026.2365267.3521821.5833456.4827268 1.2782849.4827268.1991118 0 .3770761-.0327164.527386-.0830739.440844-.1488274.7704196.1052056.8820133.3185035.219934.418577.4711012.8788514.6471134 1.208581.193581.3621253.0380655.8262487-.315911.9952833-.5709825.2735986-1.3615735.4955567-2.4462774.4955567-.8989313 0-1.408098-.0971869-1.977779-.2912398-.5716331-.194053-1.1139851-.6052528-1.4409579-1.0023397-.3292503-.3967661-.4922487-.9282467-.6136028-1.5193866-.1239568-.5904983-.153238-1.3076924-.153238-2.085508v-5.90947405h-1.7936331c-.4707758 0-.7336554-.40157737-.7336554-.72681655"/><path d="m.32042254 8.6252353v-1.37569117c0-.32812591.25605071-.72296756.70984355-.72296756h2.0018222v-3.3774838c0-.36148378.24210736-.58151739.42558924-.66234606.10869479-.04811231 1.08853241-.4808023 1.87126169-.82624865.54664291-.22741083.98966135.22837307.98966135.66779879v4.19827972h2.89990105c.44745496 0 .71459697.39580389.71459697.72296756v1.37761566c0 .39901139-.35270351.72489206-.71459697.72489206h-2.89990105v5.82126815c0 .664912-.01837988 1.1848457.23260052 1.5691026.23006536.3521821.56787484.4827268 1.24476137.4827268.1939394 0 .36728066-.0327164.5136859-.0830739.42939197-.1488274.75040604.1052056.85941773.3185035.21390375.418577.45886315.8788514.62998615 1.208581.1885522.3621253.03707665.8262487-.3077045.9952833-.55614975.2735986-1.32588636.4955567-2.38241243.4955567-.87589624 0-1.37183605-.0971869-1.92640132-.2912398-.55710044-.194053-1.08504658-.6052528-1.40384239-1.0023397-.32069718-.3967661-.47946129-.9282467-.59766292-1.5193866-.12041989-.5904983-.14894039-1.3076924-.14894039-2.085508v-5.90947405h-1.99706878c-.45854626 0-.71459697-.40157737-.71459697-.72681655"/><path d="m60.6157191 19.84h1.8108153c.3834195 0 .696705-.3207948.696705-.7134045v-11.69319095c0-.39260978-.3132855-.71340455-.696705-.71340455h-1.8108153c-.3834195 0-.696705.32079477-.696705.71340455v11.69319095c0 .3926097.3132855.7134045.696705.7134045"/></g><path d="m4.00528482-.0000125c-2.20290493 0-4.00528169 1.8-4.00528169 4v24c0 2.2 1.80237676 4 4.00528169 4h24.03169018c2.2029049 0 4.0052817-1.8 4.0052817-4v-24c0-2.2-1.8023768-4-4.0052817-4z" fill="#e44332" mask="url(#a)"/><g fill="#fff"><path d="m6.7915541 15.1570993c.56156205-.3269135 12.589229-7.31784331 12.865229-7.47886973.2754721-.16058739.2892566-.65335646-.0189071-.83100294-.3085052-.17761512-.894097-.51365389-1.1120407-.64244367-.2217934-.13070265-.620798-.20339189-.9908055.01188491-.1536162.08952881-10.43279727 6.05945393-10.77638458 6.25669953-.41126783.2361303-.92014464.2391721-1.33001539-.0003763-.32359362-.1892178-5.42862983-3.18553217-5.42862983-3.18553217v2.70800337c1.32144667.777223 4.60693241 2.7100417 5.40320306 3.1640829.47522282.2710011.93014149.2643217 1.38835104-.0024459"/><path d="m6.7915541 20.2770874c.56156205-.3269135 12.589229-7.3178126 12.865229-7.4788704.2754721-.1605874.2892566-.6533251-.0189071-.8309716-.3085052-.1776465-.894097-.5136853-1.1120407-.6424751-.2217934-.1307027-.620798-.2033605-.9908055.0118849-.1536162.0895288-10.43279727 6.0594858-10.77638458 6.2567315-.41126783.2360989-.92014464.239172-1.33001539-.0004077-.32359362-.1892178-5.42862983-3.1855325-5.42862983-3.1855325v2.7080037c1.32144667.7772543 4.60693241 2.7100419 5.40320306 3.1640831.47522282.2710325.93014149.2643217 1.38835104-.0024459"/><path d="m6.7915541 25.7170993c.56156205-.3269135 12.589229-7.3178119 12.865229-7.4788697.2754721-.1605874.2892566-.6533565-.0189071-.831003-.3085052-.1776151-.894097-.5136539-1.1120407-.6424436-.2217934-.1307027-.620798-.2033919-.9908055.0118849-.1536162.0895288-10.43279727 6.0594539-10.77638458 6.2566995-.41126783.2361303-.92014464.2391721-1.33001539-.0003763-.32359362-.1892178-5.42862983-3.1855322-5.42862983-3.1855322v2.7080034c1.32144667.777223 4.60693241 2.7100417 5.40320306 3.1640829.47522282.2710011.93014149.2643217 1.38835104-.0024459"/></g></g></svg>