<svg width="1440" height="85" preserveAspectRatio="none" fill="none" xmlns="http://www.w3.org/2000/svg"><path d="M15.1871 61.4026H0V0h1440v75.2468l-41.99-4.8766-48.09 4.8766-18.09 3.6032-58.27 2.9683-70.88-2.9683-74.57-3.6032h-63.13l-42.72 1.1121-43.716 2.4911-16.735 2.9683H859.013l-13.706.7025h-40.749L763.413 85h-69.748l-55.837-2.4792L596.239 85H519.027l-81.568-4.6547-36.193-4.5327-44.961-4.8284h-88.124L228.89 68.524l-16.957-3.933h-42.396l-13.367-1.8072-21.276-1.5656-16.899-1.1169-17.651 1.1169-18.5909 1.5656H69.4578L50.915 60.2305l-8.7563-1.0212-26.9716 2.1933z" fill="#F9FAFB"/></svg>