<svg width="1440" height="147" preserveAspectRatio="none" fill="none" xmlns="http://www.w3.org/2000/svg"><path d="M498.48 122.787h25.77l25.421-3.522 37.311-6.349s28.748-2.915 28.748-3.903c4.039-2.833 15.495-.307 23.306 1.415h.001c4.163.918 7.29 1.607 7.707 1.136.505-.571 2.623-1.578 5.34-2.551h16.064c6.27-.302 19.175 0 19.175 0h13.061l26.753 5.779s32.202 7.217 50.775 11.406c8.18 1.845 17.552 2.039 25.468-.16.556-.154 1.116-.311 1.676-.468 5.46-1.53 12.321-2.142 12.321-2.142l28.948-1.133 20.833-3.474 35.271-3.25 9.479 1.213 8.791-1.836 11.676-5.59 4.69-2.791 34.634 1.878 34.311 2.818 10.98 1.319s3.27-.853 5.09-1.319l5.12-.556c2.09-.35 14.27-1.768 14.27-1.768l15.61 1.768 37.89-8.508 28.43 5.197c5.9 0 12.07 0 20.36.299l48.96 9.463 10.3-1.497 17.84.759 2.24-3.013s8.61-1.852 12.11-1.852c1.31 0 4.17-.118 7.71-.265 10.38-.429 26.57.265 26.57.265l.61.079c14.06 1.817 14.06 1.817 21 1.817l20.66.839c10.62 5.52 29.73 12.623 61.08 18.99L1413.3 147h21.91l4.79-1.928V0H0l.00075077 101.769L103.792 103.806l45.829 3.125 10.719-3.125 104.302 9.11 30.16 2.681 19.332-.805 31.766 1.521 35.244 2.952h25.633l44.845 11.645 3.471-2.849 43.387-5.274z" fill="#F9FAFB"/></svg>