<svg width="1440" height="85" preserveAspectRatio="none" fill="none" xmlns="http://www.w3.org/2000/svg"><path d="M15.1871 23.5974H0V85h1440V9.75318l-41.99 4.87662-48.09-4.87662L1331.83 6.15l-58.27-2.96832L1202.68 6.15l-74.57 3.60318h-63.13l-42.72-1.11208L978.544 6.15l-16.735-2.96832H859.013l-13.706-.70252h-40.749L763.413 0h-69.748l-55.837 2.47916L596.239 0H519.027l-81.568 4.65469-36.193 4.5327-44.961 4.82841h-88.124L228.89 16.476l-16.957 3.933h-42.396l-13.367 1.8072-21.276 1.5656-16.899 1.1169-17.651-1.1169-18.5909-1.5656H69.4578L50.915 24.7695l-8.7563 1.0212-26.9716-2.1933z" fill="#F9FAFB"/></svg>
