<svg width="100" height="100" viewBox="0 0 100 100" fill="none" xmlns="http://www.w3.org/2000/svg">
<g clip-path="url(#clip0)">
<path d="M29.8165 42.4309C29.8165 43.5694 29.9395 44.4925 30.1549 45.1694C30.4011 45.8463 30.7088 46.5848 31.1395 47.3848C31.2934 47.6309 31.3549 47.8771 31.3549 48.0925C31.3549 48.4002 31.1703 48.7079 30.7703 49.0155L28.8319 50.3079C28.5549 50.4925 28.278 50.5848 28.0319 50.5848C27.7242 50.5848 27.4165 50.4309 27.1088 50.154C26.678 49.6925 26.3088 49.2002 26.0011 48.7079C25.6934 48.1848 25.3857 47.6002 25.0472 46.8925C22.6472 49.7232 19.6319 51.1386 16.0011 51.1386C13.4165 51.1386 11.3549 50.4002 9.84724 48.9232C8.33954 47.4463 7.57031 45.4771 7.57031 43.0155C7.57031 40.4002 8.49339 38.2771 10.3703 36.6771C12.2472 35.0771 14.7395 34.2771 17.9088 34.2771C18.9549 34.2771 20.0319 34.3694 21.1703 34.5232C22.3088 34.6771 23.478 34.9232 24.7088 35.2002V32.954C24.7088 30.6155 24.2165 28.9848 23.2626 28.0309C22.278 27.0771 20.6165 26.6155 18.2472 26.6155C17.1703 26.6155 16.0626 26.7386 14.9242 27.0155C13.7857 27.2925 12.678 27.6309 11.6011 28.0617C11.1088 28.2771 10.7395 28.4002 10.5242 28.4617C10.3088 28.5232 10.1549 28.554 10.0319 28.554C9.60108 28.554 9.3857 28.2463 9.3857 27.6002V26.0925C9.3857 25.6002 9.44724 25.2309 9.60108 25.0155C9.75493 24.8002 10.0319 24.5848 10.4626 24.3694C11.5395 23.8155 12.8319 23.354 14.3395 22.9848C15.8472 22.5848 17.4472 22.4002 19.1395 22.4002C22.8011 22.4002 25.478 23.2309 27.2011 24.8925C28.8934 26.554 29.7549 29.0771 29.7549 32.4617V42.4309H29.8165ZM17.3242 47.1079C18.3395 47.1079 19.3857 46.9232 20.4934 46.554C21.6011 46.1848 22.5857 45.5079 23.4165 44.5848C23.9088 44.0002 24.278 43.354 24.4626 42.6155C24.6472 41.8771 24.7703 40.9848 24.7703 39.9386V38.6463C23.878 38.4309 22.9242 38.2463 21.9395 38.1232C20.9549 38.0002 20.0011 37.9386 19.0472 37.9386C16.9857 37.9386 15.478 38.3386 14.4626 39.1694C13.4472 40.0002 12.9549 41.1694 12.9549 42.7079C12.9549 44.154 13.3242 45.2309 14.0934 45.9694C14.8319 46.7386 15.9088 47.1079 17.3242 47.1079ZM42.0319 50.4309C41.478 50.4309 41.1088 50.3386 40.8626 50.1232C40.6165 49.9386 40.4011 49.5079 40.2165 48.9232L32.9857 25.1386C32.8011 24.5232 32.7088 24.1232 32.7088 23.9079C32.7088 23.4155 32.9549 23.1386 33.4472 23.1386H36.4626C37.0472 23.1386 37.4472 23.2309 37.6626 23.4463C37.9088 23.6309 38.0934 24.0617 38.278 24.6463L43.4472 45.0155L48.2472 24.6463C48.4011 24.0309 48.5857 23.6309 48.8318 23.4463C49.078 23.2617 49.5088 23.1386 50.0626 23.1386H52.5242C53.1088 23.1386 53.5088 23.2309 53.7549 23.4463C54.0011 23.6309 54.2165 24.0617 54.3395 24.6463L59.2011 45.2617L64.5242 24.6463C64.7088 24.0309 64.9242 23.6309 65.1395 23.4463C65.3857 23.2617 65.7857 23.1386 66.3395 23.1386H69.2011C69.6934 23.1386 69.9703 23.3848 69.9703 23.9079C69.9703 24.0617 69.9395 24.2155 69.9088 24.4002C69.878 24.5848 69.8165 24.8309 69.6934 25.1694L62.278 48.954C62.0934 49.5694 61.878 49.9694 61.6319 50.154C61.3857 50.3386 60.9857 50.4617 60.4626 50.4617H57.8165C57.2318 50.4617 56.8318 50.3694 56.5857 50.154C56.3395 49.9386 56.1242 49.5386 56.0011 48.9232L51.2319 29.0771L46.4934 48.8925C46.3395 49.5079 46.1549 49.9079 45.9088 50.1232C45.6626 50.3386 45.2319 50.4309 44.678 50.4309H42.0319ZM81.5703 51.2617C79.9703 51.2617 78.3703 51.0771 76.8319 50.7079C75.2934 50.3386 74.0934 49.9386 73.2934 49.4771C72.8011 49.2002 72.4626 48.8925 72.3395 48.6155C72.2165 48.3386 72.1549 48.0309 72.1549 47.754V46.1848C72.1549 45.5386 72.4011 45.2309 72.8626 45.2309C73.0472 45.2309 73.2319 45.2617 73.4165 45.3232C73.6011 45.3848 73.878 45.5079 74.1857 45.6309C75.2319 46.0925 76.3703 46.4617 77.5703 46.7079C78.8011 46.954 80.0011 47.0771 81.2319 47.0771C83.1703 47.0771 84.678 46.7386 85.7242 46.0617C86.7703 45.3848 87.3242 44.4002 87.3242 43.1386C87.3242 42.2771 87.0472 41.5694 86.4934 40.9848C85.9395 40.4002 84.8934 39.8771 83.3857 39.3848L78.9242 38.0002C76.678 37.2925 75.0165 36.2463 74.0011 34.8617C72.9857 33.5079 72.4626 32.0002 72.4626 30.4002C72.4626 29.1079 72.7395 27.9694 73.2934 26.9848C73.8472 26.0002 74.5857 25.1386 75.5088 24.4617C76.4318 23.754 77.478 23.2309 78.7088 22.8617C79.9395 22.4925 81.2318 22.3386 82.5857 22.3386C83.2626 22.3386 83.9703 22.3694 84.6472 22.4617C85.3549 22.554 86.0011 22.6771 86.6472 22.8002C87.2626 22.954 87.8472 23.1079 88.4011 23.2925C88.9549 23.4771 89.3857 23.6617 89.6934 23.8463C90.1242 24.0925 90.4319 24.3386 90.6165 24.6155C90.8011 24.8617 90.8934 25.2002 90.8934 25.6309V27.0771C90.8934 27.7232 90.6472 28.0617 90.1857 28.0617C89.9395 28.0617 89.5395 27.9386 89.0165 27.6925C87.2626 26.8925 85.2934 26.4925 83.1088 26.4925C81.3549 26.4925 79.9703 26.7694 79.0165 27.354C78.0626 27.9386 77.5703 28.8309 77.5703 30.0925C77.5703 30.954 77.878 31.6925 78.4934 32.2771C79.1088 32.8617 80.2472 33.4463 81.878 33.9694L86.2472 35.354C88.4626 36.0617 90.0626 37.0463 91.0165 38.3079C91.9703 39.5694 92.4319 41.0155 92.4319 42.6155C92.4319 43.9386 92.1549 45.1386 91.6318 46.1848C91.078 47.2309 90.3395 48.154 89.3857 48.8925C88.4319 49.6617 87.2934 50.2155 85.9703 50.6155C84.5857 51.0463 83.1395 51.2617 81.5703 51.2617Z" fill="#252F3E"/>
<path fill-rule="evenodd" clip-rule="evenodd" d="M87.3867 66.2157C77.2636 73.6926 62.5559 77.6618 49.9098 77.6618C32.1867 77.6618 16.2175 71.108 4.15595 60.2157C3.2021 59.3541 4.06364 58.1849 5.2021 58.8618C18.2483 66.4311 34.3406 71.0157 50.9867 71.0157C62.2175 71.0157 74.556 68.6772 85.9098 63.8772C87.6021 63.108 89.0483 64.9849 87.3867 66.2157Z" fill="#FF9900"/>
<path fill-rule="evenodd" clip-rule="evenodd" d="M91.6029 61.4156C90.3106 59.7541 83.0491 60.6156 79.7568 61.0156C78.7721 61.1387 78.6183 60.2772 79.5106 59.631C85.2952 55.5695 94.8029 56.7387 95.9106 58.0925C97.0183 59.4772 95.6029 68.9848 90.1875 73.5387C89.3568 74.2464 88.5568 73.8772 88.926 72.9541C90.1568 69.9079 92.8952 63.0464 91.6029 61.4156Z" fill="#FF9900"/>
</g>
<defs>
<clipPath id="clip0">
<rect width="93.5385" height="56" fill="white" transform="translate(3.23047 22)"/>
</clipPath>
</defs>
</svg>
