<svg xmlns="http://www.w3.org/2000/svg" width="296" height="109" fill="none" viewBox="0 0 296 109"><path fill="#000" d="M40.19 1.49995C31.19 3.99995 22.79 8.89995 15.79 15.8999C-16.01 47.8 3.08997 101.9 48.19 107.5L53.89 108.2V54.1V-5.04404e-05L49.69 0.0999496C47.29 0.0999496 42.99 0.79995 40.19 1.49995Z"/><path fill="#000" d="M159.89 40.5V81H164.39H168.89V40.5V-1.20699e-06H164.39H159.89V40.5Z"/><path fill="#000" d="M109.29 26.0999C98.69 29.0999 91.09 39.0999 90.19 51.1999C88.79 67.8999 98.89 80.4999 114.39 81.6999C125.59 82.5999 133.79 78.4999 138.39 69.5999C141.99 62.3999 141.79 60.9999 136.99 60.9999C133.39 60.9999 132.99 61.2999 132.39 63.9999C131.99 65.6999 130.19 68.5999 128.29 70.3999C120.49 77.8999 107.79 75.8999 102.09 66.1999C99.79 62.1999 99.39 60.3999 99.39 53.9999C99.49 42.3999 104.39 34.9999 113.49 32.9999C120.99 31.2999 128.59 34.8999 131.29 41.4999C132.39 44.0999 132.99 44.4999 136.49 44.3999C139.89 44.2999 140.39 43.9999 140.09 41.9999C139.69 38.2999 136.79 33.0999 133.69 30.4999C128.29 25.8999 116.89 23.8999 109.29 26.0999Z"/><path fill="#000" d="M197.99 45.6999C193.39 56.5999 188.09 68.9999 186.29 73.2999L182.89 81.0999L187.59 80.7999L192.29 80.4999L201.29 58.1999C206.29 45.9999 210.59 35.9999 210.99 35.9999C211.29 35.9999 215.59 45.9999 220.59 58.1999L229.59 80.4999L234.19 80.7999L238.79 81.0999L233.49 68.2999C230.59 61.2999 225.29 48.8999 221.89 40.6999L215.59 25.9999H210.89H206.29L197.99 45.6999Z"/><path fill="#000" d="M244.19 26.7C244.49 27.2 249.49 38.7 255.39 52.4L265.99 77.3L260.99 89.6C258.19 96.3 255.89 102.1 255.89 102.4C255.89 102.7 257.79 103 260.19 103H264.49L267.89 94.7C269.69 90.2 275.89 75 281.69 61C287.39 47 292.99 33.3 293.99 30.7L295.89 25.9L291.29 26.2L286.69 26.5L283.79 33.5C282.29 37.3 278.79 45.8 276.19 52.4C273.59 58.9 270.99 64.2 270.49 64.2C269.99 64.2 265.89 55.7 261.49 45.3L253.39 26.5L248.49 26.2C245.89 26 243.89 26.3 244.19 26.7Z"/></svg>