<svg xmlns="http://www.w3.org/2000/svg" viewBox="0 0 275 42"><g fill="none" fill-rule="nonzero"><path fill="#393125" d="M58.61 25.28c-1.55.61-3.2.9-4.87.84-6 0-9.63-3.76-9.63-9.5 0-6.21 4.3-9.96 10.08-9.96 1.57-.06 3.14.23 4.59.84l-.76 2.74a9.17 9.17 0 00-3.7-.73c-3.83 0-6.6 2.41-6.6 6.95 0 4.14 2.44 6.8 6.58 6.8a9.64 9.64 0 003.75-.7l.56 2.72zM60.85 16.6c0-1.85-.02-3.16-.1-4.4h3l.1 2.6h.12a4.07 4.07 0 013.72-2.91c.27 0 .55.02.81.08v3.25a4.79 4.79 0 00-1-.11 3.04 3.04 0 00-3.09 2.6c-.07.35-.1.71-.11 1.07v7.06h-3.45V16.6zM83.51 18.9c0 5-3.52 7.24-7 7.24-3.86 0-6.83-2.66-6.83-7.02 0-4.48 2.94-7.23 7.06-7.23 4.06 0 6.77 2.86 6.77 7zm-10.27.13c0 2.63 1.29 4.62 3.39 4.62 1.96 0 3.33-1.93 3.33-4.67 0-2.13-.95-4.57-3.3-4.57-2.44 0-3.42 2.35-3.42 4.62zM85.76 22.67c1.07.6 2.27.94 3.5.98 1.51 0 2.18-.61 2.18-1.51 0-.92-.56-1.4-2.24-1.99-2.66-.92-3.78-2.38-3.75-3.97 0-2.41 1.99-4.29 5.15-4.29a8 8 0 013.62.81l-.68 2.44a6.12 6.12 0 00-2.88-.78c-1.23 0-1.9.58-1.9 1.42 0 .87.64 1.3 2.38 1.9 2.46.9 3.61 2.16 3.64 4.18 0 2.46-1.93 4.25-5.54 4.25a8.8 8.8 0 01-4.15-.95l.67-2.49zM96.98 22.67c1.07.6 2.27.94 3.5.98 1.51 0 2.18-.61 2.18-1.51 0-.92-.56-1.4-2.24-1.99-2.66-.92-3.78-2.38-3.75-3.97 0-2.41 1.99-4.29 5.15-4.29a8 8 0 013.62.81l-.68 2.44a6.12 6.12 0 00-2.88-.78c-1.23 0-1.9.58-1.9 1.42 0 .87.64 1.3 2.38 1.9 2.46.9 3.61 2.16 3.64 4.18 0 2.46-1.93 4.25-5.55 4.25a8.8 8.8 0 01-4.14-.95l.67-2.49zM110.77 12.2l1.43 6.19c.3 1.45.61 2.94.86 4.42h.06c.28-1.48.73-3 1.12-4.4l1.77-6.21h2.8l1.7 6.04c.42 1.6.79 3.08 1.1 4.57h.05c.23-1.49.53-2.97.9-4.57l1.51-6.04h3.4l-4.3 13.63h-3.19l-1.62-5.54a41.8 41.8 0 01-1.03-4.37h-.06c-.26 1.48-.6 2.93-1.04 4.37l-1.73 5.54h-3.22l-4.04-13.63h3.53zM142.07 18.9c0 5-3.53 7.24-7 7.24-3.86 0-6.83-2.66-6.83-7.02 0-4.48 2.94-7.23 7.06-7.23 4.06 0 6.77 2.86 6.77 7zm-10.27.13c0 2.63 1.28 4.62 3.38 4.62 1.97 0 3.34-1.93 3.34-4.67 0-2.13-.96-4.57-3.3-4.57-2.44 0-3.42 2.35-3.42 4.62zM144.62 16.6c0-1.85-.03-3.16-.12-4.4h3l.12 2.6h.1a4.07 4.07 0 013.73-2.91c.27 0 .55.02.81.08v3.25a4.79 4.79 0 00-1-.11 3.04 3.04 0 00-3.08 2.6c-.07.35-.11.7-.12 1.06v7.06h-3.44V16.6zM166.91 5.96V22c0 1.4.06 2.91.12 3.84h-3.08l-.14-2.16h-.06a4.9 4.9 0 01-4.45 2.46c-3.25 0-5.83-2.77-5.83-6.97-.02-4.56 2.83-7.28 6.1-7.28 1.5-.1 2.96.57 3.84 1.8h.06V5.95h3.44zm-3.44 11.92c0-.3-.03-.6-.09-.9a3.02 3.02 0 00-2.96-2.43c-2.21 0-3.45 1.96-3.45 4.5 0 2.5 1.24 4.32 3.42 4.32a3.04 3.04 0 002.97-2.44c.08-.33.12-.67.1-1v-2.05zM170.14 22.67c1.07.6 2.27.94 3.5.98 1.52 0 2.19-.61 2.19-1.51 0-.92-.56-1.4-2.24-1.99-2.66-.92-3.78-2.38-3.76-3.97 0-2.41 2-4.29 5.16-4.29a8 8 0 013.6.81l-.66 2.44a6.12 6.12 0 00-2.89-.78c-1.23 0-1.9.58-1.9 1.42 0 .87.65 1.3 2.38 1.9 2.47.9 3.61 2.16 3.64 4.18 0 2.46-1.93 4.25-5.54 4.25a8.8 8.8 0 01-4.15-.95l.67-2.49zM194.72 18.9c0 5-3.52 7.24-7 7.24-3.86 0-6.83-2.66-6.83-7.02 0-4.48 2.94-7.23 7.06-7.23 4.06 0 6.77 2.86 6.77 7zm-10.27.13c0 2.63 1.29 4.62 3.39 4.62 1.95 0 3.33-1.93 3.33-4.67 0-2.13-.95-4.57-3.3-4.57-2.44 0-3.42 2.35-3.42 4.62zM197.34 5.96h3.47v19.88h-3.47zM206.45 12.2l2.2 6.92c.4 1.2.68 2.3.93 3.41h.09c.25-1.12.56-2.18.92-3.41l2.16-6.92h3.64l-5.21 13.64h-3.39l-5.07-13.64h3.73zM220.22 19.98c.08 2.47 2.02 3.53 4.2 3.53 1.29.04 2.57-.17 3.78-.61l.5 2.38c-1.52.57-3.14.86-4.76.84-4.43 0-7.03-2.72-7.03-6.9 0-3.77 2.3-7.33 6.66-7.33 4.43 0 5.89 3.64 5.89 6.64 0 .49-.04.97-.12 1.45h-9.12zm6-2.4c.02-1.26-.54-3.34-2.84-3.34-2.13 0-3.02 1.94-3.16 3.34h6zM232.03 16.6c0-1.85-.03-3.16-.12-4.4h3l.12 2.6h.1a4.07 4.07 0 013.73-2.91c.27 0 .55.02.81.08v3.25a4.79 4.79 0 00-1-.11 3.04 3.04 0 00-3.08 2.6c-.07.35-.11.7-.12 1.06v7.06h-3.44V16.6zM239.27 24.61a1.35 1.35 0 011.37-1.42 1.42 1.42 0 010 2.84 1.35 1.35 0 01-1.37-1.42z"/><path fill="#F18F0B" d="M250.07 25.57c-.79.3-1.63.46-2.48.45a4.21 4.21 0 01-4.52-4.47 4.54 4.54 0 014.88-4.68c.73 0 1.46.13 2.14.41l-.4 1.66a3.89 3.89 0 00-1.68-.34 2.62 2.62 0 00-2.68 2.84 2.6 2.6 0 002.68 2.83c.6 0 1.2-.1 1.75-.34l.31 1.64zM259.73 21.37a4.34 4.34 0 01-4.5 4.66 4.24 4.24 0 01-4.4-4.52 4.33 4.33 0 014.55-4.64 4.2 4.2 0 014.35 4.5zm-6.6.1c0 1.68.82 2.96 2.17 2.96 1.26 0 2.15-1.24 2.15-3 0-1.37-.62-2.94-2.13-2.94-1.57 0-2.2 1.51-2.2 2.97zM261.42 19.68c0-1.01-.02-1.86-.08-2.61h1.91l.1 1.3h.05a3.04 3.04 0 012.7-1.5 2.53 2.53 0 012.43 1.62h.03c.27-.44.64-.82 1.08-1.1a2.92 2.92 0 011.77-.52c1.46 0 2.93 1 2.93 3.8v5.17h-2.16v-4.85c0-1.46-.5-2.32-1.56-2.32-.71.03-1.33.5-1.55 1.17-.07.24-.1.49-.11.74v5.26h-2.16v-5.08c0-1.23-.49-2.09-1.51-2.09-.75.03-1.39.54-1.59 1.26a1.9 1.9 0 00-.12.72v5.19h-2.16v-6.16z"/><path fill="#F7A226" d="M9.85 20.8l.34.33h-.34z"/><path fill="#F7A327" d="M9.85 20.33l.8.8h-.46l-.34-.33z"/><path fill="#F7A328" d="M9.85 19.86l1.27 1.27h-.47l-.8-.8z"/><path fill="#F7A429" d="M9.85 19.4l1.74 1.73h-.47l-1.27-1.27z"/><path fill="#F7A42A" d="M9.85 18.93l2.2 2.2h-.46L9.85 19.4z"/><path fill="#F7A42B" d="M9.85 18.47l2.67 2.66h-.47l-2.2-2.2z"/><path fill="#F8A52C" d="M9.85 18l3.13 3.13h-.46l-2.67-2.66z"/><path fill="#F8A52D" d="M9.85 17.54l3.6 3.6h-.47L9.85 18z"/><path fill="#F8A62E" d="M9.85 17.07l4.06 4.06h-.46l-3.6-3.6z"/><path fill="#F8A62F" d="M9.85 16.6l4.53 4.53h-.47l-4.06-4.06z"/><path fill="#F8A730" d="M9.85 16.14l5 5h-.47L9.85 16.6z"/><path fill="#F8A731" d="M9.85 15.68l5.46 5.45h-.47l-4.99-4.99z"/><path fill="#F8A832" d="M9.85 15.21l5.92 5.92h-.46l-5.46-5.45z"/><path fill="#F8A833" d="M9.85 14.74l6.39 6.4h-.47L9.85 15.2z"/><path fill="#F8A934" d="M9.85 14.28l6.85 6.85h-.46l-6.39-6.39z"/><path fill="#F8A935" d="M9.85 13.81l7.32 7.32h-.47l-6.85-6.85z"/><path fill="#F8AA36" d="M9.85 13.35l7.79 7.78h-.47l-7.32-7.32z"/><path fill="#F8AA37" d="M9.85 12.88l8.25 8.25h-.46l-7.79-7.78z"/><path fill="#F9AB38" d="M9.85 12.42l8.72 8.71h-.47l-8.25-8.25z"/><path fill="#F9AB39" d="M9.85 11.95l9.18 9.18h-.46l-8.72-8.71z"/><path fill="#F9AC3A" d="M9.85 11.49l9.65 9.64h-.47l-9.18-9.18z"/><path fill="#F9AC3B" d="M9.85 11.02l9.96 9.96-.16.15h-.15L9.85 11.5z"/><path fill="#F9AD3C" d="M9.85 10.55l10.2 10.2-.24.23-9.96-9.96z"/><path fill="#F9AD3D" d="M9.85 10.09l10.42 10.42-.23.24-10.19-10.2z"/><path fill="#F9AE3F" d="M9.85 9.63l10.66 10.65-.24.23L9.85 10.1z"/><path fill="#F9AE40" d="M9.85 9.16l10.89 10.89-.23.23L9.85 9.62z"/><path fill="#F9AE41" d="M9.85 8.7l11.12 11.12-.23.23L9.85 9.15z"/><path fill="#F9AF42" d="M9.85 8.23L21.2 19.58l-.23.24L9.85 8.69z"/><path fill="#F9AF43" d="M9.85 7.76l11.59 11.59-.24.23L9.85 8.23z"/><path fill="#F9B044" d="M9.85 7.3l11.82 11.82-.23.23L9.85 7.76z"/><path fill="#F9B045" d="M9.85 6.83L21.9 18.88l-.23.24L9.85 7.3z"/><path fill="#FAB146" d="M9.85 6.37l12.29 12.28-.24.23L9.85 6.83z"/><path fill="#FAB147" d="M9.95 6l12.2 12.2v.44l-.01.01L9.85 6.37V6z"/><path fill="#FAB248" d="M10.41 6l11.73 11.73v.47L9.95 6z"/><path fill="#FAB249" d="M10.88 6l11.26 11.27v.46L10.41 6z"/><path fill="#FAB34A" d="M11.34 6l10.8 10.8v.46L10.88 6z"/><path fill="#FAB34B" d="M11.8 6l10.34 10.33v.47L11.34 6z"/><path fill="#FAB44C" d="M12.27 6l9.88 9.87v.46L11.8 6z"/><path fill="#FAB44D" d="M12.74 6l9.4 9.4v.47L12.28 6z"/><path fill="#FAB54E" d="M13.2 6l8.95 8.94v.46L12.73 6z"/><path fill="#FAB54F" d="M13.67 6l8.47 8.47v.47L13.2 6z"/><path fill="#FAB650" d="M14.14 6l8 8v.47L13.67 6z"/><path fill="#FAB651" d="M14.6 6l7.54 7.54v.47l-8-8.01z"/><path fill="#FBB752" d="M15.07 6l7.07 7.08v.46L14.6 6z"/><path fill="#FBB753" d="M15.53 6l6.62 6.61v.47L15.06 6z"/><path fill="#FBB754" d="M16 6l6.14 6.14v.47L15.54 6z"/><path fill="#FBB855" d="M16.46 6l5.68 5.68v.46L16 6z"/><path fill="#FBB856" d="M16.93 6l5.21 5.21v.47L16.46 6z"/><path fill="#FBB957" d="M17.4 6l4.75 4.75v.46L16.93 6z"/><path fill="#FBB958" d="M17.86 6l4.29 4.28v.47L17.38 6z"/><path fill="#FBBA59" d="M18.32 6l3.82 3.82v.46L17.86 6z"/><path fill="#FBBA5A" d="M18.79 6l3.36 3.35v.47L18.32 6z"/><path fill="#FBBB5B" d="M19.26 6l2.88 2.89v.46L18.8 6z"/><path fill="#FBBB5C" d="M19.72 6l2.43 2.42v.47l-2.9-2.9z"/><path fill="#FBBC5D" d="M20.19 6l1.95 1.96v.46L19.73 6z"/><path fill="#FCBC5E" d="M20.65 6l1.5 1.5v.46L20.18 6z"/><path fill="#FCBD5F" d="M21.12 6l1.02 1.03v.46L20.66 6z"/><path fill="#FCBD60" d="M21.58 6l.57.56v.47L21.11 6z"/><path fill="#FCBE61" d="M22.05 6l.1.1v.46L21.57 6z"/><path fill="#FCBE62" d="M22.14 6.1l-.1-.1h.1z"/><path fill="#F7A225" d="M14.35 25.76l.08.08h-.08z"/><path fill="#F7A226" d="M14.35 25.29l.54.55h-.46l-.08-.08z"/><path fill="#F7A327" d="M14.35 24.82l1 1.02h-.46l-.54-.55z"/><path fill="#F7A328" d="M14.35 24.36l1.47 1.48h-.46l-1.01-1.02z"/><path fill="#F7A429" d="M14.35 23.9l1.94 1.94h-.47l-1.47-1.48z"/><path fill="#F7A42A" d="M14.35 23.43l2.4 2.4h-.46l-1.94-1.94z"/><path fill="#F7A42B" d="M14.35 22.96l2.87 2.88h-.47l-2.4-2.41z"/><path fill="#F8A52C" d="M14.38 22.53l3.27 3.27v.04h-.43l-2.87-2.88v-.43z"/><path fill="#F8A52D" d="M14.85 22.53l2.8 2.8v.47l-3.27-3.27z"/><path fill="#F8A62E" d="M15.31 22.53l2.34 2.34v.46l-2.8-2.8z"/><path fill="#F8A62F" d="M15.78 22.53l1.87 1.87v.47l-2.34-2.34z"/><path fill="#F8A730" d="M16.24 22.53l1.4 1.4v.47l-1.86-1.87z"/><path fill="#F8A731" d="M16.7 22.53l.95.94v.47l-1.4-1.4z"/><path fill="#F8A832" d="M17.18 22.53l.47.48v.46l-.94-.94z"/><path fill="#F8A833" d="M17.64 22.53v.48l-.46-.48z"/><path fill="#F8A934" d="M17.65 22.54h-.01z"/><path fill="#F49000" d="M0 29.1L12.9 42H0zM0 28.63L13.37 42h-.46L0 29.1z"/><path fill="#F49001" d="M0 28.16L13.84 42h-.47L0 28.63z"/><path fill="#F49102" d="M0 27.7L14.3 42h-.46L0 28.16z"/><path fill="#F49103" d="M0 27.23L14.77 42h-.47L0 27.7z"/><path fill="#F49204" d="M0 26.77L15.23 42h-.46L0 27.23z"/><path fill="#F49205" d="M0 26.3L15.7 42h-.47L0 26.77z"/><path fill="#F49306" d="M0 25.84L16.16 42h-.46L0 26.3z"/><path fill="#F59307" d="M0 25.37L16.63 42h-.47L0 25.84z"/><path fill="#F59408" d="M0 24.9L17.1 42h-.47L0 25.37z"/><path fill="#F59409" d="M0 24.44L17.56 42h-.47L0 24.9z"/><path fill="#F5950A" d="M0 23.98L18.02 42h-.46L0 24.44z"/><path fill="#F5950B" d="M0 23.51l18.49 18.5h-.46L0 23.97z"/><path fill="#F5960C" d="M0 23.05L18.96 42h-.47L0 23.51z"/><path fill="#F5960D" d="M0 22.58L19.42 42h-.46L0 23.05z"/><path fill="#F5970E" d="M0 22.11l19.89 19.9h-.47L0 22.57z"/><path fill="#F5970F" d="M0 21.65L20.35 42h-.46L0 22.11z"/><path fill="#F59810" d="M0 21.18L20.82 42h-.47L0 21.65z"/><path fill="#F59811" d="M0 20.72L21.28 42h-.46L0 21.18z"/><path fill="#F59912" d="M0 20.25L21.75 42h-.47L0 20.72z"/><path fill="#F69913" d="M0 19.79L22.21 42h-.46L0 20.25z"/><path fill="#F69A14" d="M0 19.32L22.68 42h-.47L0 19.8z"/><path fill="#F69A15" d="M0 18.86L23.14 42h-.46L0 19.32z"/><path fill="#F69A16" d="M0 18.4L23.61 42h-.47L0 18.86z"/><path fill="#F69B17" d="M0 17.93L24.07 42h-.46L0 18.4z"/><path fill="#F69B18" d="M0 17.46L24.54 42h-.46L0 17.93z"/><path fill="#F69C19" d="M0 17l25 25h-.46L0 17.46z"/><path fill="#F69C1A" d="M0 16.53L25.47 42h-.46L0 17z"/><path fill="#F69D1B" d="M0 16.06L25.94 42h-.47L0 16.53z"/><path fill="#F69D1C" d="M0 15.6L26.4 42h-.46L0 16.06z"/><path fill="#F69E1D" d="M0 15.13l26.85 26.85-.02.02h-.43L0 15.6z"/><path fill="#F69E1E" d="M0 14.67l27.08 27.08-.23.23L0 15.13z"/><path fill="#F79F1F" d="M0 14.2l27.31 27.32-.23.23L0 14.67z"/><path fill="#F79F20" d="M0 13.74l27.55 27.54-.24.24L0 14.2z"/><path fill="#F7A021" d="M0 13.27l27.78 27.78-.23.23L0 13.74z"/><path fill="#F7A022" d="M0 12.8l28.01 28.02-.23.23L0 13.27z"/><path fill="#F7A123" d="M0 12.34l28.24 28.25-.23.23L0 12.8z"/><path fill="#F7A124" d="M0 11.88l28.48 28.47-.24.23L0 12.35z"/><path fill="#F7A225" d="M0 11.41l28.71 28.7-.23.24L0 11.87z"/><path fill="#F7A226" d="M0 10.94L28.94 39.9l-.23.23L0 11.4z"/><path fill="#F7A327" d="M0 10.48l29.18 29.17-.24.24L0 10.94z"/><path fill="#F7A328" d="M0 10.01l29.4 29.41-.22.23L0 10.48z"/><path fill="#F7A429" d="M0 9.55l29.64 29.64-.23.23L0 10.02z"/><path fill="#F7A42A" d="M0 9.08l29.87 29.88-.23.23L0 9.55z"/><path fill="#F7A42B" d="M0 8.62l30.1 30.1-.23.24L0 9.08z"/><path fill="#F8A52C" d="M0 8.15L30.34 38.5l-.23.23L0 8.62z"/><path fill="#F8A52D" d="M0 7.69l30.57 30.57-.23.23L0 8.15z"/><path fill="#F8A62E" d="M0 7.22l30.8 30.8-.23.24L0 7.69z"/><path fill="#F8A62F" d="M0 6.75L31.04 37.8l-.24.23L0 7.22z"/><path fill="#F8A730" d="M0 6.29l31.27 31.27-.23.23L0 6.75z"/><path fill="#F8A731" d="M0 5.83l31.5 31.5-.23.23L0 6.29z"/><path fill="#F8A832" d="M0 5.36l31.73 31.73-.23.24L0 5.83z"/><path fill="#F8A833" d="M0 4.9l31.97 31.96-.23.23L0 5.36z"/><path fill="#F8A934" d="M0 4.43l32 32v.4l-.03.03L0 4.9z"/><path fill="#F8A935" d="M0 3.96l32 32v.46l-32-32z"/><path fill="#F8AA36" d="M0 3.5l32 32v.46l-32-32z"/><path fill="#F8AA37" d="M0 3.03l32 32v.46L0 3.5z"/><path fill="#F9AB38" d="M0 2.57l32 32v.46l-32-32z"/><path fill="#F9AB39" d="M0 2.1l32 32v.46l-32-32z"/><path fill="#F9AC3A" d="M0 1.64l32 32v.46L0 2.1z"/><path fill="#F9AC3B" d="M0 1.17l32 32v.46l-32-32z"/><path fill="#F9AD3C" d="M0 .7l32 32v.46L0 1.18z"/><path fill="#F9AD3D" d="M0 .24l32 32v.46L0 .7z"/><path fill="#F9AE3F" d="M.23 0L32 31.77v.46L0 .25V0z"/><path fill="#F9AE40" d="M.7 0L32 31.3v.47L.23 0z"/><path fill="#F9AE41" d="M1.16 0L32 30.84v.46L.7 0z"/><path fill="#F9AF42" d="M1.62 0L32 30.37v.47L1.16 0z"/><path fill="#F9AF43" d="M2.09 0l29.9 29.9v.47L1.63 0z"/><path fill="#F9B044" d="M2.55 0L32 29.44v.47L2.09 0z"/><path fill="#F9B045" d="M3.02 0L32 28.98v.46L2.55 0z"/><path fill="#FAB146" d="M3.48 0L32 28.51v.47L3.02 0z"/><path fill="#FAB147" d="M3.95 0l28.04 28.05v.46L3.5 0z"/><path fill="#FAB248" d="M4.42 0L32 27.58v.47L3.95 0z"/><path fill="#FAB249" d="M4.88 0L32 27.11v.47L4.4 0z"/><path fill="#FAB34A" d="M5.34 0L32 26.65v.46L4.88 0z"/><path fill="#FAB34B" d="M5.81 0L32 26.18v.47L5.34 0z"/><path fill="#FAB44C" d="M6.28 0l25.71 25.72v.46L5.82 0z"/><path fill="#FAB44D" d="M6.74 0L32 25.25v.47L6.29 0z"/><path fill="#FAB54E" d="M7.2 0L32 24.79v.46L6.73 0z"/><path fill="#FAB54F" d="M7.67 0L32 24.32v.47L7.2 0z"/><path fill="#FAB650" d="M8.14 0l23.85 23.86v.46L7.68 0z"/><path fill="#FAB651" d="M8.6 0L32 23.4v.46L8.14 0z"/><path fill="#FBB752" d="M9.07 0L32 22.93v.46L8.6 0z"/><path fill="#FBB753" d="M9.53 0L32 22.46v.47L9.07 0z"/><path fill="#FBB754" d="M10 0l22 22v.46L9.53 0z"/><path fill="#FBB855" d="M10.46 0L32 21.53v.46L10 0z"/><path fill="#FBB856" d="M10.93 0L32 21.07v.46L10.48 0z"/><path fill="#FBB957" d="M11.4 0L32 20.6v.46L10.93 0z"/><path fill="#FBB958" d="M11.86 0L32 20.13v.47L11.4 0z"/><path fill="#FBBA59" d="M12.33 0l19.66 19.67v.46L11.87 0z"/><path fill="#FBBA5A" d="M12.8 0L32 19.2v.47L12.32 0z"/><path fill="#FBBB5B" d="M13.26 0l18.73 18.74v.46L12.8 0z"/><path fill="#FBBB5C" d="M13.72 0L32 18.27v.47L13.27 0z"/><path fill="#FBBC5D" d="M14.19 0l17.8 17.8v.47L13.73 0z"/><path fill="#FCBC5E" d="M14.65 0L32 17.34v.47L14.2 0z"/><path fill="#FCBD5F" d="M15.12 0L32 16.88v.46L14.64 0z"/><path fill="#FCBD60" d="M15.59 0l16.4 16.41v.47L15.13 0z"/><path fill="#FCBE61" d="M16.05 0L32 15.95v.46L15.59 0z"/><path fill="#FCBE62" d="M16.52 0L32 15.48v.46L16.05 0z"/><path fill="#FCBF63" d="M16.98 0L32 15.01v.47L16.52 0z"/><path fill="#FCBF64" d="M17.45 0L32 14.55V15L16.98 0z"/><path fill="#FCC065" d="M17.91 0L32 14.08v.47L17.45 0z"/><path fill="#FCC066" d="M18.38 0L32 13.62v.46L17.9 0z"/><path fill="#FCC167" d="M18.84 0L32 13.15v.47L18.38 0z"/><path fill="#FCC168" d="M19.3 0L32 12.69v.46L18.84 0z"/><path fill="#FCC169" d="M19.77 0L32 12.22v.47L19.3 0z"/><path fill="#FCC26A" d="M20.24 0L32 11.76v.46L19.77 0z"/><path fill="#FDC26B" d="M20.7 0L32 11.3v.46L20.23 0z"/><path fill="#FDC36C" d="M21.17 0l10.82 10.82v.47L20.7 0z"/><path fill="#FDC36D" d="M21.64 0L32 10.36v.46L21.16 0z"/><path fill="#FDC46E" d="M22.1 0L32 9.9v.46L21.64 0z"/><path fill="#FDC46F" d="M22.57 0L32 9.43v.46L22.1 0z"/><path fill="#FDC570" d="M23.03 0L32 8.96v.47L22.58 0z"/><path fill="#FDC571" d="M23.5 0L32 8.5v.46L23.02 0z"/><path fill="#FDC672" d="M23.96 0L32 8.03v.47L23.5 0z"/><path fill="#FDC673" d="M24.43 0L32 7.57v.46L23.96 0z"/><path fill="#FDC774" d="M24.9 0L32 7.1v.47L24.43 0z"/><path fill="#FDC775" d="M25.36 0L32 6.64v.46L24.9 0z"/><path fill="#FDC876" d="M25.82 0L32 6.17v.47L25.36 0z"/><path fill="#FEC877" d="M26.29 0l5.7 5.7v.47L25.83 0z"/><path fill="#FEC978" d="M26.75 0L32 5.24v.47L26.29 0z"/><path fill="#FEC979" d="M27.22 0L32 4.78v.46L26.75 0z"/><path fill="#FECA7A" d="M27.69 0l4.3 4.3v.48L27.23 0z"/><path fill="#FECA7B" d="M28.15 0L32 3.84v.47L27.69 0z"/><path fill="#FECB7C" d="M28.62 0L32 3.38v.46L28.14 0z"/><path fill="#FECB7D" d="M29.08 0L32 2.91v.47L28.62 0z"/><path fill="#FECB7D" d="M32 2.91L29.08 0H32z"/><path fill="#F49000" d="M3 32.1l3.13 3.12H3z"/><path fill="#F49000" d="M3 31.63l3.6 3.6h-.47L3 32.1z"/><path fill="#F49001" d="M3 31.16l4.06 4.06h-.47L3 31.63z"/><path fill="#F49102" d="M3 30.7l4.52 4.52h-.46L3 31.17z"/><path fill="#F49103" d="M3 30.23l4.99 5h-.47L3 30.7z"/><path fill="#F49204" d="M3 29.77l5.46 5.45h-.47L3 30.23z"/><path fill="#F49205" d="M3 29.3l5.92 5.92h-.46L3 29.77z"/><path fill="#F49306" d="M3 28.84l6.38 6.38h-.46L3 29.3z"/><path fill="#F59307" d="M3 28.37l6.85 6.85H9.4L3 28.84z"/><path fill="#F59408" d="M3 27.9l7.32 7.32h-.47L3 28.37z"/><path fill="#F59409" d="M3 27.44l7.78 7.78h-.46L3 27.91z"/><path fill="#F5950A" d="M3 26.98l8.25 8.24h-.47L3 27.44z"/><path fill="#F5950B" d="M3 26.51l8.71 8.71h-.46L3 26.98z"/><path fill="#F5960C" d="M3 26.05l9.18 9.17h-.47L3 26.52z"/><path fill="#F5960D" d="M3 25.58l9.64 9.64h-.46L3 26.05z"/><path fill="#F5970E" d="M3 25.11l10.1 10.11h-.46L3 25.58z"/><path fill="#F5970F" d="M3 24.65l10.57 10.57h-.46L3 25.12z"/><path fill="#F59810" d="M3 24.18l11.04 11.04h-.47L3 24.65z"/><path fill="#F59811" d="M3 23.72l11.5 11.5h-.46L3 24.18z"/><path fill="#F59912" d="M3 23.25l11.97 11.97h-.46L3 23.72z"/><path fill="#F69913" d="M3 22.79l12.44 12.43h-.47L3 23.25z"/><path fill="#F69A14" d="M3 22.32l12.9 12.9h-.46L3 22.8z"/><path fill="#F69A15" d="M3 21.86l13.37 13.36h-.47L3 22.32z"/><path fill="#F69A16" d="M3 21.4l13.83 13.82h-.46L3 21.86z"/><path fill="#F69B17" d="M3 20.93l14.3 14.3h-.47L3 21.38z"/><path fill="#F69B18" d="M3 20.46l14.76 14.76h-.46L3 20.92z"/><path fill="#F69C19" d="M3 20l15.23 15.22h-.47L3 20.46z"/><path fill="#F69C1A" d="M3 19.53l15.7 15.7h-.47L3 20z"/><path fill="#F69D1B" d="M3 19.06l16.16 16.16h-.47L3 19.52z"/><path fill="#F69D1C" d="M3 18.6l16.63 16.62h-.47L3 19.06z"/><path fill="#F69E1D" d="M3 18.13l17.09 17.1h-.46L3 18.6z"/><path fill="#F69E1E" d="M3 17.67l17.56 17.55h-.47L3 18.13z"/><path fill="#F79F1F" d="M3 17.2l18.02 18.02h-.46L3 17.67z"/><path fill="#F79F20" d="M3 16.74l18.49 18.48h-.47L3 17.2z"/><path fill="#F7A021" d="M3 16.27l18.95 18.95h-.46L3 16.74z"/><path fill="#F7A022" d="M3 15.8l19.42 19.42h-.47L3 16.27z"/><path fill="#F7A123" d="M3 15.34l19.88 19.88h-.46L3 15.81z"/><path fill="#F7A124" d="M3 14.88l20.35 20.34h-.47L3 15.34z"/><path fill="#F7A225" d="M3 14.41l20.81 20.81h-.46L3 14.88z"/><path fill="#F7A226" d="M3 13.94l21.28 21.28h-.47L3 14.41z"/><path fill="#F7A327" d="M3 13.48L24.73 35.2v.01h-.45L3 13.94z"/><path fill="#F7A328" d="M3 13.01l21.97 21.97-.23.23L3 13.48z"/><path fill="#F7A429" d="M3 12.55l22.2 22.2-.23.23L3 13.01z"/><path fill="#F7A42A" d="M3 12.08l22.43 22.44-.23.23L3 12.55z"/><path fill="#F7A42B" d="M3 11.62l22.67 22.66-.24.24L3 12.08z"/><path fill="#F8A52C" d="M3 11.15l22.9 22.9-.23.23L3 11.62z"/><path fill="#F8A52D" d="M3 10.69l23.13 23.13-.23.23L3 11.15z"/><path fill="#F8A62E" d="M3 10.22L26.36 33.6l-.23.23L3 10.69z"/><path fill="#F8A62F" d="M3 9.76l23.6 23.6-.24.23L3 10.21z"/><path fill="#F8A730" d="M3 9.29l23.83 23.83-.23.23L3 9.75z"/><path fill="#F8A731" d="M3 8.82L27.06 32.9l-.23.23L3 9.29z"/><path fill="#F8A832" d="M3 8.36l24.3 24.3-.24.23L3 8.82z"/><path fill="#F8A833" d="M3 7.9l24.53 24.52-.23.23L3 8.35z"/><path fill="#F8A934" d="M3 7.43l24.76 24.76-.23.23L3 7.9z"/><path fill="#F8A935" d="M3 6.96l25 25-.24.23L3 7.43z"/><path fill="#F8AA36" d="M3 6.5l25.23 25.22-.24.24L3 6.96z"/><path fill="#F8AA37" d="M3 6.03L28.46 31.5l-.23.23L3 6.5z"/><path fill="#F9AB38" d="M3 5.57l25.7 25.69-.24.23L3 6.03z"/><path fill="#F9AB39" d="M3 5.1l25.92 25.93-.23.23L3 5.56z"/><path fill="#F9AC3A" d="M3 4.64l26 26v.31l-.08.07L3 5.1z"/><path fill="#F9AC3B" d="M3 4.17l26 26v.46l-26-26z"/><path fill="#F9AD3C" d="M3 3.7l26 26v.46L3 4.18z"/><path fill="#F9AD3D" d="M3 3.24l26 26v.46L3 3.7z"/><path fill="#F9AE3F" d="M3.23 3L29 28.77v.46L3 3.25V3z"/><path fill="#F9AE40" d="M3.7 3L29 28.3v.47L3.23 3z"/><path fill="#F9AE41" d="M4.16 3L29 27.84v.46L3.7 3z"/><path fill="#F9AF42" d="M4.62 3L29 27.37v.47L4.16 3z"/><path fill="#F9AF43" d="M5.09 3l23.9 23.9v.47L4.63 3z"/><path fill="#F9B044" d="M5.55 3L29 26.44v.47L5.09 3z"/><path fill="#F9B045" d="M6.02 3L29 25.98v.46L5.55 3z"/><path fill="#FAB146" d="M6.48 3L29 25.51v.47L6.02 3z"/><path fill="#FAB147" d="M6.95 3l22.04 22.05v.46L6.5 3z"/><path fill="#FAB248" d="M7.42 3L29 24.58v.47L6.95 3z"/><path fill="#FAB249" d="M7.88 3L29 24.11v.47L7.4 3z"/><path fill="#FAB34A" d="M8.35 3l20.64 20.65v.46L7.89 3z"/><path fill="#FAB34B" d="M8.81 3L29 23.18v.47L8.35 3z"/><path fill="#FAB44C" d="M9.28 3L29 22.72v.46L8.8 3z"/><path fill="#FAB44D" d="M9.74 3L29 22.25v.47L9.28 3z"/><path fill="#FAB54E" d="M10.2 3L29 21.79v.46L9.73 3z"/><path fill="#FAB54F" d="M10.67 3L29 21.32v.47L10.2 3z"/><path fill="#FAB650" d="M11.14 3l17.85 17.86v.46L10.68 3z"/><path fill="#FAB651" d="M11.6 3L29 20.4v.46L11.14 3z"/><path fill="#FBB752" d="M12.07 3L29 19.93v.46L11.6 3z"/><path fill="#FBB753" d="M12.53 3L29 19.46v.47L12.07 3z"/><path fill="#FBB754" d="M13 3l16 16v.46L12.53 3z"/><path fill="#FBB855" d="M13.46 3L29 18.53v.46L13 3z"/><path fill="#FBB856" d="M13.93 3L29 18.07v.46L13.46 3z"/><path fill="#FBB957" d="M14.4 3L29 17.6v.46L13.93 3z"/><path fill="#FBB958" d="M14.86 3L29 17.13v.47L14.4 3z"/><path fill="#FBBA59" d="M15.33 3L29 16.67v.46L14.86 3z"/><path fill="#FBBA5A" d="M15.8 3L29 16.2v.47L15.33 3z"/><path fill="#FBBB5B" d="M16.26 3l12.73 12.74v.46L15.8 3z"/><path fill="#FBBB5C" d="M16.72 3L29 15.27v.47L16.26 3z"/><path fill="#FBBC5D" d="M17.19 3l11.8 11.8v.47L16.73 3z"/><path fill="#FCBC5E" d="M17.65 3L29 14.34v.47L17.19 3z"/><path fill="#FCBD5F" d="M18.12 3L29 13.88v.46L17.65 3z"/><path fill="#FCBD60" d="M18.59 3l10.4 10.41v.47L18.13 3z"/><path fill="#FCBE61" d="M19.05 3L29 12.95v.46L18.59 3z"/><path fill="#FCBE62" d="M19.52 3L29 12.48v.46L19.05 3z"/><path fill="#FCBF63" d="M19.98 3L29 12.01v.47L19.52 3z"/><path fill="#FCBF64" d="M20.45 3L29 11.55V12L19.98 3z"/><path fill="#FCC065" d="M20.91 3L29 11.08v.47L20.45 3z"/><path fill="#FCC066" d="M21.38 3L29 10.62v.46L20.9 3z"/><path fill="#FCC167" d="M21.84 3L29 10.15v.47L21.38 3z"/><path fill="#FCC168" d="M22.3 3L29 9.69v.46L21.84 3z"/><path fill="#FCC169" d="M22.77 3L29 9.22v.47L22.3 3z"/><path fill="#FCC26A" d="M23.24 3L29 8.76v.46L22.77 3z"/><path fill="#FDC26B" d="M23.7 3L29 8.3v.46L23.23 3z"/><path fill="#FDC36C" d="M24.17 3l4.82 4.83v.46L23.7 3z"/><path fill="#FDC36D" d="M24.64 3L29 7.36v.46L24.16 3z"/><path fill="#FDC46E" d="M25.1 3L29 6.9v.46L24.64 3z"/><path fill="#FDC46F" d="M25.57 3L29 6.43v.46L25.1 3z"/><path fill="#FDC570" d="M26.03 3L29 5.96v.47L25.58 3z"/><path fill="#FDC571" d="M26.5 3L29 5.5v.46L26.03 3z"/><path fill="#FDC672" d="M26.96 3L29 5.03v.47L26.5 3z"/><path fill="#FDC673" d="M27.43 3L29 4.57v.46L26.96 3z"/><path fill="#FDC774" d="M27.9 3L29 4.1v.47L27.43 3z"/><path fill="#FDC775" d="M28.36 3l.64.64v.46L27.9 3z"/><path fill="#FDC876" d="M28.82 3l.18.17v.47L28.36 3z"/><path fill="#FEC877" d="M29 3.17L28.82 3H29z"/></g></svg>