<svg xmlns="http://www.w3.org/2000/svg" viewBox="0 0.25 643.19 170.28"><path fill="#77787A" d="M247.19 120c-3.31 1.58-10.66 4.03-20.02 4.03-21.02 0-34.7-14.26-34.7-35.57 0-21.45 14.69-37.15 37.44-37.15 7.48 0 14.1 1.87 17.56 3.75l-2.88 9.64c-3.02-1.58-7.77-3.3-14.68-3.3-15.99 0-24.63 11.94-24.63 26.34 0 16.13 10.37 26.07 24.2 26.07a36.3 36.3 0 0015.55-3.31l2.16 9.5zm14.83-99.8h12.67v43.64h.3a23.85 23.85 0 019.06-9.07 25.98 25.98 0 0112.96-3.46c9.36 0 24.34 5.76 24.34 29.67v41.47h-12.67V82.42c0-11.23-4.18-20.6-16.13-20.6-8.21 0-14.55 5.77-17 12.53-.71 1.87-.86 3.75-.86 6.05v42.05h-12.67V20.2zm79.92 54.3c0-8.21-.14-15.27-.58-21.75h11.1l.57 13.83h.43c3.17-9.36 10.94-15.27 19.44-15.27 1.3 0 2.3.14 3.46.29v11.95c-1.3-.29-2.6-.29-4.32-.29-8.93 0-15.27 6.63-17 16.13a37.91 37.91 0 00-.43 5.9v37.15h-12.67V74.5zm108.72 12.52c0 25.78-18 37.01-34.7 37.01-18.72 0-33.41-13.82-33.41-35.85 0-23.19 15.4-36.87 34.56-36.87 20.01 0 33.55 14.55 33.55 35.71zm-55.15.72c0 15.27 8.64 26.79 21.02 26.79 12.1 0 21.17-11.38 21.17-27.08 0-11.8-5.9-26.64-20.88-26.64-14.83 0-21.31 13.83-21.31 26.93zm71.13-16.13c0-7.34-.28-13.1-.57-18.86h11.09l.57 11.38h.44c3.89-6.63 10.36-12.82 22.03-12.82 9.36 0 16.56 5.76 19.58 13.97h.29a27.5 27.5 0 017.92-9.07c4.18-3.17 8.64-4.9 15.26-4.9 9.36 0 23.04 6.05 23.04 30.24v40.9h-12.38V83.14c0-13.54-5.04-21.46-15.12-21.46-7.34 0-12.81 5.33-15.12 11.38a21.62 21.62 0 00-1 6.33v43.06h-12.4V80.69c0-11.1-4.89-19.01-14.54-19.01-7.77 0-13.68 6.33-15.7 12.67-.71 1.73-1 4.03-1 6.2v41.9h-12.39V71.6zm127.16 18.3c.29 17.13 11.09 24.18 23.9 24.18 9.07 0 14.69-1.58 19.3-3.6l2.3 9.07c-4.46 2.02-12.24 4.47-23.33 4.47-21.45 0-34.27-14.26-34.27-35.28S594.1 51.3 614.4 51.3c22.9 0 28.8 19.87 28.8 32.69 0 2.6-.14 4.46-.43 5.9H593.8zm37.15-9.08c.14-7.92-3.32-20.45-17.57-20.45-12.96 0-18.43 11.67-19.44 20.45h37z"/><circle cx="85.31" cy="85.71" r="83.81" fill="#FFF"/><path fill-opacity=".1" d="M138.64 100.95a53.33 53.33 0 10-106.66 0h15.24a38.1 38.1 0 1176.19 0"/><circle cx="89.12" cy="96.38" r="28.95" fill-opacity=".1"/><linearGradient id="a" x1="-149.31" x2="-149.31" y1="-72.21" y2="-71.45" gradientTransform="matrix(82 0 0 82 12328.61 5975.87)" gradientUnits="userSpaceOnUse"><stop offset="0" stop-color="#81b4e0"/><stop offset="1" stop-color="#0c5a94"/></linearGradient><circle cx="85.31" cy="85.71" r="31.24" fill="url(#a)"/><linearGradient id="b" x1="-114.66" x2="-114.66" y1="591.55" y2="660.88" gradientTransform="translate(202.64 -591.17)" gradientUnits="userSpaceOnUse"><stop offset="0" stop-color="#f06b59"/><stop offset="1" stop-color="#df2227"/></linearGradient><path fill="url(#b)" d="M161.5 47.62A85.33 85.33 0 0047.11 9.19 85.31 85.31 0 0014.46 37.7l34.28 59.43a38.1 38.1 0 0124.91-47.77 38.13 38.13 0 0110.9-1.75"/><linearGradient id="c" x1="-181.88" x2="-146.83" y1="737.53" y2="679.63" gradientTransform="translate(202.64 -591.17)" gradientUnits="userSpaceOnUse"><stop offset="0" stop-color="#388b41"/><stop offset="1" stop-color="#4cb749"/></linearGradient><path fill="url(#c)" d="M14.46 37.72A85.33 85.33 0 0037.82 156.1a85.33 85.33 0 0040.64 14.17l35.8-60.95a38.1 38.1 0 01-53.62 5.14 38.1 38.1 0 01-11.9-17.33"/><linearGradient id="d" x1="-64.48" x2="-101.81" y1="743.69" y2="653.79" gradientTransform="translate(202.64 -591.17)" gradientUnits="userSpaceOnUse"><stop offset="0" stop-color="#e4b022"/><stop offset=".3" stop-color="#fcd209"/></linearGradient><path fill="url(#d)" d="M78.46 170.28a85.33 85.33 0 0091.52-78.65 85.31 85.31 0 00-8.48-44.01H84.55a38.1 38.1 0 0137.92 38.27 38.1 38.1 0 01-8.2 23.44"/><linearGradient id="e" x1="-170.28" x2="-170.28" y1="686.03" y2="625.08" gradientTransform="translate(202.64 -591.17)" gradientUnits="userSpaceOnUse"><stop offset="0" stop-opacity=".15"/><stop offset=".3" stop-opacity=".06"/><stop offset="1" stop-opacity=".03"/></linearGradient><path fill="url(#e)" d="M14.46 37.72l34.28 59.42a38.1 38.1 0 011.53-25.9L15.98 35.43"/><linearGradient id="f" x1="-86.15" x2="-128.05" y1="705.71" y2="748.37" gradientTransform="translate(202.64 -591.17)" gradientUnits="userSpaceOnUse"><stop offset="0" stop-opacity=".15"/><stop offset=".3" stop-opacity=".06"/><stop offset="1" stop-opacity=".03"/></linearGradient><path fill="url(#f)" d="M78.46 170.28l35.8-60.95a38.1 38.1 0 01-22.09 12.95l-15.24 48"/><linearGradient id="g" x1="-86.76" x2="-80.66" y1="717.98" y2="657.8" gradientTransform="translate(202.64 -591.17)" gradientUnits="userSpaceOnUse"><stop offset="0" stop-opacity=".15"/><stop offset=".3" stop-opacity=".06"/><stop offset="1" stop-opacity=".03"/></linearGradient><path fill="url(#g)" d="M161.5 47.62H84.55a38.1 38.1 0 0129.71 14.48l48.76-12.2"/></svg>