<svg xmlns="http://www.w3.org/2000/svg" width="139" height="42" fill="none" viewBox="0 0 139 42"><path fill="#28B351" d="M20 42H1C0.448 42 0 41.553 0 41V1C0 0.447 0.448 0 1 0H20C20.552 0 21 0.447 21 1V41C21 41.553 20.552 42 20 42ZM31.5 21C25.71 21 21 16.29 21 10.5C21 4.71 25.71 0 31.5 0C37.29 0 42 4.71 42 10.5C42 16.29 37.29 21 31.5 21ZM31.5 42C25.71 42 21 37.29 21 31.5C21 25.71 25.71 21 31.5 21C37.29 21 42 25.71 42 31.5C42 37.29 37.29 42 31.5 42Z"/><path fill="#000" d="M49.32 12.2V29H53.736V12.2H49.32ZM57.0467 16.088C56.3747 17.384 56.0387 18.872 56.0387 20.6C56.0387 22.328 56.3747 23.84 57.0467 25.112C57.7187 26.408 58.6787 27.392 59.9267 28.088C61.1747 28.808 62.6627 29.144 64.3907 29.144C65.7347 29.144 66.9587 28.88 68.0387 28.328C69.0947 27.8 69.9587 27.032 70.6067 26.072C71.2307 25.112 71.6147 23.984 71.7107 22.736H67.2947C67.1267 23.576 66.7667 24.248 66.2147 24.752C65.6627 25.256 64.9667 25.496 64.1507 25.496C62.9987 25.496 62.1107 25.064 61.4867 24.152C60.8627 23.264 60.5507 22.088 60.5507 20.6C60.5507 19.136 60.8627 17.96 61.4867 17.048C62.1107 16.16 62.9987 15.704 64.1507 15.704C64.9667 15.704 65.6627 15.968 66.2147 16.472C66.7667 16.976 67.1267 17.648 67.2947 18.464H71.7107C71.6147 17.216 71.2307 16.112 70.6067 15.152C69.9587 14.192 69.0947 13.424 68.0387 12.872C66.9587 12.344 65.7347 12.056 64.3907 12.056C62.6627 12.056 61.1747 12.416 59.9267 13.112C58.6787 13.832 57.7187 14.816 57.0467 16.088ZM88.9279 24.968C89.6479 23.672 90.0079 22.232 90.0079 20.6C90.0079 18.992 89.6479 17.528 88.9279 16.232C88.2079 14.936 87.2239 13.928 85.9279 13.184C84.6319 12.44 83.1679 12.056 81.5119 12.056C79.8319 12.056 78.3679 12.44 77.0719 13.184C75.7759 13.928 74.7919 14.936 74.0719 16.232C73.3519 17.528 73.0159 18.992 73.0159 20.6C73.0159 22.232 73.3519 23.672 74.0719 24.968C74.7919 26.264 75.7759 27.296 77.0719 28.04C78.3679 28.784 79.8319 29.144 81.5119 29.144C83.1679 29.144 84.6319 28.784 85.9279 28.04C87.2239 27.296 88.2079 26.264 88.9279 24.968ZM78.6079 24.128C77.8879 23.216 77.5279 22.04 77.5279 20.6C77.5279 19.184 77.8879 18.008 78.6079 17.096C79.3279 16.184 80.3119 15.704 81.5119 15.704C82.7119 15.704 83.6719 16.184 84.3919 17.096C85.1119 18.008 85.4959 19.184 85.4959 20.6C85.4959 22.04 85.1119 23.216 84.3919 24.128C83.6719 25.04 82.7119 25.496 81.5119 25.496C80.3119 25.496 79.3279 25.04 78.6079 24.128ZM92.3063 29H96.6503V19.712L102.77 29H106.778V12.2H102.434V21.488L96.3143 12.2H92.3063V29ZM113.4 23.552L109.104 23.456C109.104 24.536 109.416 25.496 110.04 26.36C110.664 27.224 111.504 27.92 112.608 28.4C113.688 28.904 114.912 29.144 116.256 29.144C117.552 29.144 118.704 28.904 119.76 28.424C120.816 27.944 121.632 27.296 122.232 26.432C122.808 25.592 123.12 24.656 123.12 23.6C123.12 22.544 122.88 21.68 122.424 21.032C121.968 20.408 121.368 19.928 120.624 19.592C119.856 19.28 118.92 19.016 117.792 18.776C116.664 18.56 115.848 18.392 115.368 18.248C114.864 18.104 114.504 17.96 114.264 17.768C114.024 17.576 113.928 17.312 113.928 16.976C113.928 16.496 114.12 16.112 114.504 15.848C114.888 15.608 115.416 15.464 116.04 15.464C116.76 15.464 117.312 15.656 117.744 16.016C118.152 16.376 118.392 16.856 118.44 17.432H122.736C122.736 16.424 122.424 15.512 121.848 14.696C121.272 13.88 120.456 13.232 119.448 12.752C118.44 12.296 117.288 12.056 116.04 12.056C114.792 12.056 113.688 12.296 112.68 12.752C111.672 13.208 110.904 13.832 110.328 14.624C109.752 15.44 109.488 16.328 109.488 17.312C109.488 18.416 109.704 19.304 110.16 19.976C110.592 20.648 111.192 21.128 111.936 21.464C112.656 21.8 113.592 22.064 114.72 22.304C115.872 22.544 116.688 22.736 117.192 22.88C117.696 23.024 118.08 23.168 118.32 23.36C118.56 23.552 118.68 23.816 118.68 24.152C118.68 24.68 118.464 25.088 118.032 25.352C117.6 25.64 117.024 25.76 116.328 25.76C115.44 25.76 114.744 25.568 114.24 25.16C113.712 24.752 113.448 24.224 113.4 23.552ZM137.059 21.56C136.411 20.864 135.619 20.408 134.659 20.192C135.475 19.952 136.147 19.496 136.723 18.848C137.275 18.2 137.563 17.408 137.563 16.472C137.563 15.608 137.299 14.816 136.819 14.144C136.339 13.472 135.619 12.968 134.707 12.584C133.771 12.224 132.667 12.032 131.371 12.032C130.075 12.032 128.947 12.224 128.035 12.584C127.099 12.968 126.379 13.472 125.899 14.144C125.419 14.816 125.179 15.608 125.179 16.472C125.179 17.48 125.443 18.272 125.995 18.896C126.547 19.52 127.243 19.976 128.083 20.216C127.099 20.432 126.283 20.888 125.659 21.584C125.011 22.304 124.699 23.24 124.699 24.416C124.699 25.856 125.275 27.008 126.427 27.872C127.579 28.736 129.211 29.144 131.371 29.144C133.483 29.144 135.139 28.712 136.291 27.848C137.443 26.984 138.043 25.856 138.043 24.416C138.043 23.216 137.707 22.28 137.059 21.56ZM129.907 15.416C130.291 15.08 130.771 14.888 131.371 14.888C131.947 14.888 132.451 15.08 132.835 15.416C133.219 15.752 133.411 16.184 133.411 16.712C133.411 17.264 133.219 17.72 132.835 18.056C132.451 18.416 131.971 18.584 131.371 18.584C130.747 18.584 130.267 18.416 129.883 18.056C129.499 17.72 129.331 17.264 129.331 16.712C129.331 16.184 129.523 15.752 129.907 15.416ZM133.099 25.688C132.619 26.12 132.043 26.312 131.371 26.312C130.675 26.312 130.099 26.12 129.619 25.688C129.139 25.256 128.923 24.728 128.923 24.104C128.923 23.48 129.139 22.928 129.619 22.496C130.099 22.064 130.675 21.848 131.371 21.848C132.043 21.848 132.619 22.064 133.099 22.496C133.579 22.928 133.819 23.48 133.819 24.104C133.819 24.728 133.579 25.256 133.099 25.688Z"/></svg>