<svg id="Layer_2" data-name="Layer 2" xmlns="http://www.w3.org/2000/svg" viewBox="0 0 277 77"><polygon points="87.61 47.56 54.69 63.72 21.77 47.56 54.69 31.4 87.61 47.56" fill="#e95495"/><path d="M54.69,65.22a1.52,1.52,0,0,1-.66-.15L21.11,48.91a1.5,1.5,0,0,1,0-2.7L54,30.05a1.53,1.53,0,0,1,1.32,0L88.27,46.21a1.5,1.5,0,0,1,0,2.7L55.35,65.07A1.52,1.52,0,0,1,54.69,65.22ZM25.18,47.56,54.69,62.05,84.21,47.56,54.69,33.07Z"/><g opacity="0.38"><polygon points="87.61 38.62 54.69 54.78 21.77 38.62 54.69 22.46 87.61 38.62" fill="#fff"/></g><path d="M54.69,56.29a1.53,1.53,0,0,1-.66-.16L21.11,40a1.5,1.5,0,0,1,0-2.69L54,21.12a1.46,1.46,0,0,1,1.32,0L88.27,37.28a1.5,1.5,0,0,1,0,2.69L55.35,56.13A1.53,1.53,0,0,1,54.69,56.29ZM25.18,38.62,54.69,53.11,84.21,38.62,54.69,24.13Z"/><g opacity="0.38"><polygon points="87.61 29.69 54.69 45.85 21.77 29.69 54.69 13.53 87.61 29.69" fill="#fff"/></g><path d="M54.69,47.35A1.52,1.52,0,0,1,54,47.2L21.11,31a1.5,1.5,0,0,1,0-2.69L54,12.18a1.53,1.53,0,0,1,1.32,0L88.27,28.34a1.5,1.5,0,0,1,0,2.69L55.35,47.2A1.52,1.52,0,0,1,54.69,47.35ZM25.18,29.69,54.69,44.18,84.21,29.69,54.69,15.2Z"/><path d="M107.72,51.41V18.67h5.93V46.44h14.42v5Z"/><path d="M140,51.91a10.1,10.1,0,0,1-4.2-.84,6.75,6.75,0,0,1-2.94-2.49,7.23,7.23,0,0,1-1.08-4.06,6.91,6.91,0,0,1,.77-3.43,6,6,0,0,1,2.09-2.18,11.2,11.2,0,0,1,3-1.24,25.76,25.76,0,0,1,3.46-.61c1.44-.15,2.61-.29,3.5-.41a5,5,0,0,0,2-.57,1.36,1.36,0,0,0,.62-1.23v-.09a3.63,3.63,0,0,0-1.07-2.8A4.41,4.41,0,0,0,143,31a5.45,5.45,0,0,0-3.36.93A4.44,4.44,0,0,0,138,34.09l-5.41-.77a8.76,8.76,0,0,1,2.11-3.75,9.3,9.3,0,0,1,3.6-2.27,13.79,13.79,0,0,1,4.7-.76,15.14,15.14,0,0,1,3.53.42,9.88,9.88,0,0,1,3.21,1.36,7.14,7.14,0,0,1,2.35,2.58A8.5,8.5,0,0,1,153,35V51.41h-5.56V48h-.19A7.08,7.08,0,0,1,145.74,50a7,7,0,0,1-2.38,1.42A9.49,9.49,0,0,1,140,51.91Zm1.5-4.25a6.15,6.15,0,0,0,3-.7,5.11,5.11,0,0,0,2-1.84,4.81,4.81,0,0,0,.69-2.51v-2.9a2.65,2.65,0,0,1-.92.42,11.85,11.85,0,0,1-1.44.33c-.54.1-1.06.19-1.59.26l-1.35.19a10,10,0,0,0-2.32.58A3.84,3.84,0,0,0,138,42.6a3.09,3.09,0,0,0,.58,4.24A5,5,0,0,0,141.51,47.66Z"/><path d="M161.51,60.57a12.25,12.25,0,0,1-2.18-.18,7.31,7.31,0,0,1-1.59-.44l1.34-4.49a5.88,5.88,0,0,0,3.17.18,3.6,3.6,0,0,0,2.12-2.39l.5-1.32L156,26.86h6.14l5.66,18.54H168l5.67-18.54,6.19,0L170,54.39a11.11,11.11,0,0,1-1.83,3.31,7.64,7.64,0,0,1-2.77,2.13A9.34,9.34,0,0,1,161.51,60.57Z"/><path d="M193.9,51.89a12.52,12.52,0,0,1-6.37-1.54A10.32,10.32,0,0,1,183.41,46,14.6,14.6,0,0,1,182,39.28a14.55,14.55,0,0,1,1.45-6.66,10.83,10.83,0,0,1,4.05-4.47,11.45,11.45,0,0,1,6.12-1.61,12.49,12.49,0,0,1,4.3.73,9.88,9.88,0,0,1,3.58,2.24,10.65,10.65,0,0,1,2.45,3.86,15.58,15.58,0,0,1,.9,5.58v1.77H184.69v-3.9h14.58a6.27,6.27,0,0,0-.72-3,5.29,5.29,0,0,0-2-2.05,5.57,5.57,0,0,0-2.92-.75,5.64,5.64,0,0,0-3.11.85,6,6,0,0,0-2.09,2.24,6.48,6.48,0,0,0-.76,3v3.41a7.94,7.94,0,0,0,.78,3.66,5.6,5.6,0,0,0,2.2,2.34,6.45,6.45,0,0,0,3.29.81,6.82,6.82,0,0,0,2.28-.36A4.93,4.93,0,0,0,198,46a4.42,4.42,0,0,0,1.13-1.74l5.41.61a8.33,8.33,0,0,1-2,3.73A9.42,9.42,0,0,1,199,51,13.83,13.83,0,0,1,193.9,51.89Z"/><path d="M209.71,51.41V26.86h5.61V31h.25a6.1,6.1,0,0,1,2.32-3.28,6.26,6.26,0,0,1,3.74-1.16c.32,0,.68,0,1.08,0a7.21,7.21,0,0,1,1,.12V32a6.83,6.83,0,0,0-1.16-.23,11.4,11.4,0,0,0-1.52-.1,5.9,5.9,0,0,0-2.84.67,5.12,5.12,0,0,0-2,1.88A5.27,5.27,0,0,0,215.5,37V51.41Z"/><path d="M240.17,53.55h-.73a12.14,12.14,0,0,1-12.12-12.12v-10A12.14,12.14,0,0,1,239.44,19.3h.73A12.14,12.14,0,0,1,252.3,31.42v10A12.14,12.14,0,0,1,240.17,53.55Zm-.73-28.25a6.13,6.13,0,0,0-6.12,6.12v10a6.13,6.13,0,0,0,6.12,6.12h.73a6.13,6.13,0,0,0,6.13-6.12v-10a6.13,6.13,0,0,0-6.13-6.12Z" fill="#e95495"/><rect x="227.55" y="33.45" width="24.53" height="6" transform="translate(43.09 178.36) rotate(-44.45)" fill="#e95495"/></svg>