<svg xmlns="http://www.w3.org/2000/svg" width="142" height="37"><g fill="none" fill-rule="evenodd"><path fill="#4A5155" d="M138.62 15.773c.3.13.554.312.762.549a2.4 2.4 0 0 1 .474.842c.107.326.16.684.16 1.074h-5.218c.114-.832.404-1.484.872-1.954.467-.47 1.108-.705 1.923-.705.385 0 .727.065 1.027.194zm-2.941-1.069a4.07 4.07 0 0 0-1.411 1.003 4.43 4.43 0 0 0-.886 1.51 5.59 5.59 0 0 0-.307 1.873c0 .826.113 1.558.34 2.195.227.637.545 1.172.952 1.604.407.432.89.76 1.45.984a4.89 4.89 0 0 0 1.832.336 6.239 6.239 0 0 0 2.08-.36c.33-.12.642-.272.932-.458.29-.186.54-.405.749-.658l-.474-.615a.372.372 0 0 0-.322-.16c-.108 0-.236.048-.384.146a5.968 5.968 0 0 1-.554.317 5.23 5.23 0 0 1-.791.317 3.618 3.618 0 0 1-1.094.147 3.24 3.24 0 0 1-1.231-.223 2.502 2.502 0 0 1-.947-.671 3.224 3.224 0 0 1-.625-1.122c-.152-.448-.234-.975-.246-1.58h6.383c.158 0 .266-.044.323-.133.056-.088.084-.265.084-.53 0-.68-.099-1.288-.298-1.821a3.796 3.796 0 0 0-.829-1.344 3.567 3.567 0 0 0-1.26-.833 4.292 4.292 0 0 0-1.59-.288c-.695 0-1.32.122-1.876.364zm-7.871 9.373v-6.104c.266-.65.595-1.145.99-1.485.394-.341.886-.511 1.473-.511.328 0 .584.03.767.09.183.06.319.09.407.09.152 0 .25-.08.294-.237l.218-1.258a2.508 2.508 0 0 0-1.317-.341c-.65 0-1.217.188-1.7.563-.483.375-.889.897-1.217 1.566l-.114-1.495c-.025-.17-.073-.29-.142-.36-.07-.07-.196-.104-.378-.104h-.967v9.586h1.686zm-12.445-9.586v6.113a5.1 5.1 0 0 0 .203 1.486c.136.447.34.83.611 1.145.271.315.608.56 1.009.733.4.174.863.26 1.387.26.67 0 1.263-.14 1.781-.42a5.29 5.29 0 0 0 1.402-1.113l.132 1.032c.063.233.215.35.455.35h1.004V14.49h-1.686v7.069a4.33 4.33 0 0 1-1.203.974 2.9 2.9 0 0 1-1.392.35c-.676 0-1.181-.198-1.515-.596-.335-.397-.502-.958-.502-1.684V14.49h-1.686zm-2.662 9.506c.41-.155.761-.368 1.052-.64l-.493-.804c-.07-.107-.148-.16-.237-.16a.317.317 0 0 0-.175.07 3.48 3.48 0 0 1-.242.156 1.997 1.997 0 0 1-.336.157c-.129.047-.282.07-.46.07-.309 0-.561-.097-.757-.293-.196-.195-.293-.495-.293-.899v-5.753h2.746v-1.22h-2.746v-3.303h-.853a.394.394 0 0 0-.265.09.36.36 0 0 0-.123.232l-.388 2.962-1.573.198v.672c0 .127.035.219.104.28.07.059.155.09.256.09h1.156v5.866c0 .795.204 1.404.61 1.826.408.423.99.634 1.748.634.435 0 .858-.077 1.269-.231zm-11.725-1.032a1.317 1.317 0 0 1-.493-.257 1.244 1.244 0 0 1-.332-.453 1.602 1.602 0 0 1-.122-.656c0-.267.077-.508.231-.723.155-.216.403-.404.744-.562.341-.159.783-.287 1.326-.386.543-.098 1.203-.147 1.98-.147v1.978c-.19.201-.384.381-.583.54a3.691 3.691 0 0 1-.625.401 3.226 3.226 0 0 1-1.51.345c-.222 0-.427-.026-.616-.08zm4.991-5.02c0-.536-.072-1.028-.218-1.476a3.13 3.13 0 0 0-.644-1.145 2.937 2.937 0 0 0-1.051-.738c-.417-.177-.894-.265-1.43-.265-.746 0-1.424.126-2.037.379a5.484 5.484 0 0 0-1.714 1.144l.303.54c.05.088.118.162.204.222.085.06.185.09.298.09a.767.767 0 0 0 .44-.156c.149-.105.326-.221.53-.35.206-.13.45-.246.73-.35.281-.105.627-.156 1.037-.156.625 0 1.097.192 1.416.576.319.384.479.95.479 1.699v.753c-1.086 0-2.005.087-2.757.26-.75.175-1.359.398-1.823.67-.464.272-.8.584-1.009.935a2.123 2.123 0 0 0-.312 1.097c0 .437.07.815.213 1.135a2.228 2.228 0 0 0 1.42 1.262c.326.105.675.157 1.047.157a4.88 4.88 0 0 0 1-.094c.3-.063.582-.156.848-.28a4.23 4.23 0 0 0 .757-.454c.24-.18.486-.383.739-.61l.19.89c.03.163.097.27.198.321.101.05.234.076.398.076h.748v-6.132zm-20.156-7.428h-.947v13.56h1.61v-9.661a10.83 10.83 0 0 0-.037-.88l7.852 10.21c.094.12.19.205.289.255.097.05.22.076.364.076h.928v-13.56h-1.61v9.605c0 .145.003.295.01.449a6.3 6.3 0 0 0 .038.478l-7.861-10.22a.956.956 0 0 0-.27-.251c-.08-.04-.201-.06-.366-.06zm-6.326 13.56h2.339V10.015h-2.34v14.062zm-7.952-1.724c-.243-.178-.364-.474-.364-.887 0-.21.058-.403.175-.58.116-.179.314-.334.592-.468.278-.133.646-.243 1.103-.33.458-.084 1.028-.128 1.71-.128v1.626a4.74 4.74 0 0 1-.507.451c-.167.128-.34.235-.52.322a2.56 2.56 0 0 1-.574.195 3.17 3.17 0 0 1-.663.065c-.392 0-.709-.088-.952-.266zm5.499-4.408c0-.549-.081-1.053-.242-1.514a3.325 3.325 0 0 0-.706-1.187 3.226 3.226 0 0 0-1.132-.777c-.445-.186-.951-.279-1.52-.279-1.578 0-2.927.512-4.044 1.534l.426.747c.07.12.161.22.275.303a.68.68 0 0 0 .407.123c.19 0 .363-.045.521-.133a23.4 23.4 0 0 0 .516-.298c.186-.11.406-.21.658-.298.253-.088.569-.132.947-.132.525 0 .924.157 1.199.472.275.314.412.799.412 1.454v.572c-1.105 0-2.03.095-2.775.284-.745.19-1.342.43-1.79.718-.449.287-.77.61-.962.968a2.27 2.27 0 0 0-.289 1.087c0 .436.07.82.209 1.149.138.33.333.604.582.826.25.222.548.387.895.498.347.111.726.166 1.137.166.347 0 .663-.028.947-.085a3.8 3.8 0 0 0 .805-.255 4.44 4.44 0 0 0 .734-.422c.237-.167.479-.36.725-.581l.208.69c.063.202.158.336.285.403.125.066.3.099.52.099h1.052v-6.132zm-14.809.923a1.452 1.452 0 0 1-.54-.331 1.396 1.396 0 0 1-.322-.507 1.81 1.81 0 0 1-.109-.634c0-.48.144-.86.43-1.14.289-.28.72-.421 1.294-.421.574 0 1.006.14 1.293.42.287.281.43.662.43 1.141 0 .234-.035.448-.108.644-.073.195-.18.363-.322.501a1.47 1.47 0 0 1-.535.327 2.198 2.198 0 0 1-.758.118 2.23 2.23 0 0 1-.753-.118zm3.178 6.153a1.192 1.192 0 0 1-.45.425 2.697 2.697 0 0 1-.781.28 5.46 5.46 0 0 1-1.128.102c-.43 0-.792-.03-1.089-.09a2.418 2.418 0 0 1-.724-.251 1.069 1.069 0 0 1-.408-.384.94.94 0 0 1-.128-.478c0-.258.08-.487.242-.685.161-.199.374-.37.64-.516.29.07.591.104.903.104h.91c.293 0 .571.016.834.048a3.4 3.4 0 0 1 .686.15c.196.068.35.162.465.285.113.123.17.28.17.473 0 .194-.048.372-.142.537zm-3.964-10.605c-.47.145-.878.354-1.222.629a2.91 2.91 0 0 0-.805.993c-.192.388-.29.822-.29 1.301 0 .594.141 1.111.423 1.552.28.442.667.795 1.16 1.06a2.727 2.727 0 0 0-.56.365 2.264 2.264 0 0 0-.392.43 1.807 1.807 0 0 0-.232.459c-.05.154-.076.304-.076.45 0 .353.073.64.218.86.145.222.338.398.578.53-.493.183-.878.43-1.156.739-.278.308-.416.69-.416 1.144 0 .335.088.656.265.966.177.309.443.581.8.818.357.237.807.426 1.35.568.543.142 1.184.213 1.923.213.744 0 1.407-.097 1.988-.29.581-.193 1.072-.448 1.474-.764.4-.316.706-.677.918-1.082.211-.405.317-.823.317-1.253 0-.462-.09-.84-.27-1.135a2.007 2.007 0 0 0-.71-.698 3.373 3.373 0 0 0-.999-.375 9.071 9.071 0 0 0-1.146-.166 14.315 14.315 0 0 0-1.146-.047c-.373 0-.706-.02-1-.057a2.19 2.19 0 0 1-.71-.196.457.457 0 0 1-.27-.434c0-.228.152-.434.454-.62.348.07.705.105 1.07.105.544 0 1.048-.074 1.512-.222a3.694 3.694 0 0 0 1.203-.63c.337-.271.602-.6.795-.988.193-.388.289-.822.289-1.302a3.055 3.055 0 0 0-.198-1.097l.87-.161c.184-.032.313-.088.39-.17a.482.482 0 0 0 .113-.34V14.7h-2.794a3.992 3.992 0 0 0-1.004-.374 5.177 5.177 0 0 0-1.175-.128c-.556 0-1.069.072-1.54.218zm-6.976 1.65c.26.118.474.277.644.478.17.203.297.438.38.706.081.268.122.553.122.856h-4.394c.107-.706.353-1.252.739-1.637.385-.385.918-.578 1.6-.578.347 0 .65.06.91.175zm-2.912-1.47a4.348 4.348 0 0 0-1.468 1.026 4.5 4.5 0 0 0-.924 1.523 5.367 5.367 0 0 0-.322 1.87c0 .851.123 1.6.37 2.247a4.652 4.652 0 0 0 1.013 1.627c.43.439.935.77 1.516.994.58.224 1.208.336 1.885.336.34 0 .692-.026 1.056-.076.363-.05.719-.137 1.07-.26.35-.123.686-.287 1.009-.492a3.89 3.89 0 0 0 .87-.762l-.681-.851a.547.547 0 0 0-.18-.162.511.511 0 0 0-.246-.056.903.903 0 0 0-.45.132 15.96 15.96 0 0 1-.54.293 4.602 4.602 0 0 1-.72.294 3.215 3.215 0 0 1-.98.133c-.771 0-1.39-.234-1.856-.7-.468-.467-.737-1.2-.806-2.196h6.005a.714.714 0 0 0 .266-.043.346.346 0 0 0 .165-.142.71.71 0 0 0 .085-.274c.016-.117.024-.264.024-.44 0-.7-.104-1.323-.312-1.869a3.932 3.932 0 0 0-.872-1.382 3.708 3.708 0 0 0-1.33-.856 4.73 4.73 0 0 0-1.692-.293c-.725 0-1.377.126-1.955.378zm-9.173-4.202h-2.548v13.683h8.032v-2.1h-5.484V10.393z"/><path fill="#009EFF" d="M26.647 23.002c0 1.75-.809 3.17-1.999 4.4a27.374 27.374 0 0 1-10.463 6.77c-.01-.004-.527-.07-.536-.074v-3.916h2.996a27.385 27.385 0 0 0 3.899-2.611h-6.895v-1.958h8.195c.634-.547 1.312-1 1.3-1.306v-1.305h-9.495V20.39h10.145v-2.61H13.649v-2.612h10.145v-2.61H13.649V2.113c1.697.001 4.186.375 5.849.653v5.875c.002.61.687 1.306 1.3 1.306h5.849v13.055zM20.863 1.375A2.597 2.597 0 0 0 19.3.568a31.826 31.826 0 0 0-5.148-.412A31.937 31.937 0 0 0 .31 3.271a.546.546 0 0 0-.31.493V22.78c0 2.209.84 4.295 2.364 5.872a29.148 29.148 0 0 0 11.647 7.376.55.55 0 0 0 .35 0A29.155 29.155 0 0 0 25.95 28.66c1.522-1.572 2.646-3.437 2.646-5.66V9.948c0-.696-2.107-2.774-2.6-3.264l-5.133-5.308z"/><path fill="#4A5155" d="M13.649 30.182h2.996a27.385 27.385 0 0 0 3.899-2.611h-6.895v-1.958h8.195c.634-.547 1.312-1 1.3-1.306v-1.305h-9.495V20.39h10.145v-2.61H13.649v-2.612h10.145v-2.61H13.649v17.624z"/></g></svg>