<svg width="95" height="20" viewBox="0 0 95 20" fill="none" xmlns="http://www.w3.org/2000/svg">
<path d="M38.693 4.908C39.2439 5.10854 39.7452 5.42535 40.1628 5.83689C40.5804 6.24843 40.9045 6.74505 41.113 7.293C41.353 7.901 41.466 8.567 41.455 9.222V15.72H38.659V9.736C38.659 8.93 38.466 8.31 38.091 7.878C37.716 7.445 37.137 7.223 36.352 7.223C36.014 7.21638 35.6789 7.28656 35.372 7.42826C35.065 7.56995 34.7942 7.77946 34.58 8.041C34.102 8.591 33.875 9.315 33.875 10.227V15.709H31.068V9.736C31.068 8.93 30.875 8.31 30.5 7.878C30.125 7.445 29.546 7.223 28.762 7.223C28.4238 7.21623 28.0885 7.28634 27.7814 7.42804C27.4743 7.56974 27.2033 7.77933 26.989 8.041C26.512 8.591 26.284 9.315 26.284 10.227V15.709H23.489V4.885H26.284V5.704C26.6403 5.36227 27.0616 5.09565 27.523 4.92C28.0869 4.69595 28.6893 4.58485 29.296 4.593C30.0525 4.57955 30.8046 4.71056 31.512 4.979C32.137 5.236 32.682 5.669 33.068 6.229C33.478 5.727 33.978 5.329 34.557 5.061C35.193 4.745 35.955 4.581 36.841 4.581C37.466 4.581 38.102 4.698 38.693 4.909V4.908ZM50.784 5.026C51.464 5.29702 52.0824 5.70244 52.602 6.218C53.114 6.732 53.522 7.352 53.796 8.03C54.091 8.754 54.239 9.526 54.227 10.309C54.2392 11.0861 54.0926 11.8576 53.796 12.576C53.5184 13.2477 53.1129 13.8591 52.602 14.376C52.0824 14.8919 51.4641 15.2977 50.784 15.569C49.3231 16.1416 47.6999 16.1416 46.239 15.569C45.5589 15.2977 44.9406 14.8919 44.421 14.376C43.9064 13.8621 43.5004 13.2499 43.227 12.576C42.9315 11.8573 42.7849 11.086 42.796 10.309C42.7847 9.52773 42.9313 8.75223 43.227 8.029C43.5006 7.35167 43.9069 6.73592 44.422 6.218C44.9417 5.70244 45.56 5.29702 46.24 5.026C47.7009 4.45336 49.3241 4.45336 50.785 5.026H50.784ZM47.352 7.468C47.012 7.619 46.693 7.83 46.421 8.098C46.1519 8.37784 45.9396 8.70727 45.796 9.068C45.647 9.46834 45.5698 9.89183 45.568 10.319C45.568 10.74 45.637 11.161 45.796 11.559C45.932 11.921 46.148 12.248 46.421 12.517C46.6942 12.792 47.019 13.0102 47.3769 13.1591C47.7347 13.308 48.1184 13.3846 48.506 13.3846C48.8936 13.3846 49.2773 13.308 49.6352 13.1591C49.993 13.0102 50.3179 12.792 50.591 12.517C50.8625 12.2432 51.0752 11.9169 51.216 11.558C51.364 11.161 51.443 10.74 51.443 10.319C51.443 9.887 51.375 9.466 51.216 9.069C51.0767 8.70608 50.8639 8.37585 50.591 8.099C50.1735 7.68613 49.6433 7.40593 49.0669 7.29365C48.4906 7.18138 47.894 7.24204 47.352 7.468V7.468ZM58.852 15.732L53.989 4.898H57.069L60.216 11.876L63.364 4.886H66.341L61.477 15.721L58.852 15.732ZM66.58 8.182C66.8163 7.51376 67.1747 6.89526 67.637 6.358C68.1076 5.82131 68.684 5.38758 69.33 5.084C70.0422 4.75693 70.8184 4.59295 71.602 4.604C72.182 4.604 72.772 4.698 73.318 4.897C73.83 5.072 74.296 5.353 74.682 5.739V4.897H77.477V15.732H74.682V14.914C74.3001 15.2955 73.8324 15.5801 73.318 15.744C72.0119 16.1882 70.5854 16.117 69.33 15.545C68.6835 15.2476 68.1067 14.8177 67.637 14.283C67.1725 13.7518 66.8138 13.1368 66.58 12.471C66.0913 11.0828 66.0913 9.56925 66.58 8.181V8.182ZM69.216 11.489C69.352 11.852 69.546 12.179 69.796 12.471C70.046 12.751 70.341 12.985 70.682 13.137C71.046 13.301 71.432 13.383 71.818 13.383C72.193 13.383 72.557 13.313 72.909 13.184C73.2617 13.0572 73.5861 12.8625 73.864 12.611C74.159 12.354 74.387 12.027 74.546 11.665C74.725 11.2398 74.8103 10.7811 74.796 10.32C74.8056 9.85961 74.7205 9.40215 74.546 8.976C74.3845 8.61459 74.1526 8.28893 73.864 8.018C73.5885 7.76046 73.2636 7.56145 72.909 7.433C72.5634 7.30428 72.1978 7.23726 71.829 7.235C71.4356 7.23152 71.0467 7.3195 70.693 7.492C70.353 7.656 70.046 7.889 69.796 8.17C69.023 9.082 68.796 10.367 69.216 11.49V11.489ZM83.352 15.732L78.489 4.898H81.569L84.716 11.876L87.864 4.886H90.841L85.977 15.721L83.352 15.732ZM94.875 0V3.132H91.818V0H94.875ZM94.739 15.732H91.942V4.885H94.738V15.732H94.739Z" fill="black"/>
<path d="M9.046 8.05299C10.8785 8.05299 12.364 6.52494 12.364 4.63999C12.364 2.75504 10.8785 1.22699 9.046 1.22699C7.21352 1.22699 5.728 2.75504 5.728 4.63999C5.728 6.52494 7.21352 8.05299 9.046 8.05299Z" fill="black"/>
<path d="M9.046 19.835C10.8785 19.835 12.364 18.307 12.364 16.422C12.364 14.5371 10.8785 13.009 9.046 13.009C7.21352 13.009 5.728 14.5371 5.728 16.422C5.728 18.307 7.21352 19.835 9.046 19.835Z" fill="black"/>
<path d="M14.773 13.944C16.6055 13.944 18.091 12.416 18.091 10.531C18.091 8.64606 16.6055 7.11801 14.773 7.11801C12.9405 7.11801 11.455 8.64606 11.455 10.531C11.455 12.416 12.9405 13.944 14.773 13.944Z" fill="black"/>
<path d="M3.318 13.944C5.15048 13.944 6.636 12.416 6.636 10.531C6.636 8.64606 5.15048 7.11801 3.318 7.11801C1.48552 7.11801 0 8.64606 0 10.531C0 12.416 1.48552 13.944 3.318 13.944Z" fill="black"/>
</svg>
