<svg width="76" height="29" viewBox="0 0 76 29" fill="none" xmlns="http://www.w3.org/2000/svg">
<path d="M21.7303 21.3668V17.9184C21.7303 17.8289 21.7504 17.6948 21.7907 17.5159C21.831 17.3369 21.9115 17.158 22.0322 16.9791C22.153 16.8002 22.3274 16.6414 22.5555 16.5028C22.7836 16.3641 23.0855 16.2948 23.4612 16.2948C23.5865 16.2948 23.7139 16.306 23.8437 16.3284C23.9734 16.3507 24.1053 16.3798 24.2395 16.4156V14.8591C24.1411 14.8323 24.0449 14.8099 23.951 14.792C23.8571 14.7741 23.7609 14.7652 23.6625 14.7652C23.2331 14.7652 22.853 14.868 22.522 15.0738C22.191 15.2795 21.9361 15.5702 21.7572 15.946H21.7303V14.9262H20.1202V21.3668H21.7303V21.3668ZM28.5198 21.5278C29.0297 21.5278 29.5172 21.4294 29.9824 21.2326C30.4475 21.0358 30.868 20.7049 31.2437 20.2397L30.0897 19.3675C29.884 19.618 29.6447 19.826 29.3719 19.9915C29.099 20.157 28.7613 20.2397 28.3588 20.2397C27.9026 20.2397 27.5135 20.1055 27.1914 19.8372C26.8694 19.5688 26.6816 19.1931 26.6279 18.7101H31.5389V18.2673C31.5389 17.7037 31.4651 17.205 31.3175 16.7712C31.1699 16.3373 30.9641 15.9728 30.7002 15.6776C30.4363 15.3824 30.1188 15.1565 29.7476 15C29.3763 14.8434 28.9671 14.7652 28.5198 14.7652C28.0368 14.7652 27.5806 14.8457 27.1512 15.0067C26.7218 15.1677 26.3506 15.3958 26.0375 15.691C25.7244 15.9862 25.4762 16.3418 25.2928 16.7577C25.1094 17.1737 25.0177 17.6366 25.0177 18.1465C25.0177 18.6564 25.1094 19.1193 25.2928 19.5353C25.4762 19.9512 25.7244 20.3068 26.0375 20.602C26.3506 20.8972 26.7218 21.1253 27.1512 21.2863C27.5806 21.4473 28.0368 21.5278 28.5198 21.5278V21.5278ZM29.9287 17.5024H26.6279C26.6905 17.0373 26.8627 16.666 27.1445 16.3887C27.4262 16.1114 27.8087 15.9728 28.2917 15.9728C28.8016 15.9728 29.1997 16.1092 29.4859 16.382C29.7722 16.6549 29.9198 17.0283 29.9287 17.5024ZM34.5847 21.3668V17.8513C34.5847 17.6366 34.6116 17.4309 34.6652 17.2341C34.7189 17.0373 34.8061 16.8628 34.9269 16.7108C35.0477 16.5587 35.1997 16.4379 35.3831 16.3485C35.5665 16.259 35.7924 16.2143 36.0607 16.2143C36.4543 16.2143 36.7361 16.3328 36.906 16.5699C37.076 16.8069 37.161 17.1267 37.161 17.5293V21.3668H38.7711V17.8781C38.7711 17.6724 38.7957 17.4689 38.8449 17.2676C38.8941 17.0663 38.9746 16.8874 39.0865 16.7309C39.1983 16.5744 39.3414 16.4491 39.5158 16.3552C39.6903 16.2613 39.9027 16.2143 40.1532 16.2143C40.3947 16.2143 40.5915 16.2546 40.7436 16.3351C40.8957 16.4156 41.0164 16.5252 41.1059 16.6638C41.1953 16.8025 41.2579 16.9635 41.2937 17.1469C41.3295 17.3302 41.3474 17.5203 41.3474 17.7171V21.3668H42.9575V17.5293C42.9575 17.1446 42.9173 16.7846 42.8368 16.4491C42.7563 16.1137 42.6243 15.8207 42.441 15.5702C42.2576 15.3198 42.0183 15.123 41.7231 14.9799C41.4279 14.8367 41.0656 14.7652 40.6362 14.7652C40.1532 14.7652 39.7372 14.8613 39.3884 15.0537C39.0395 15.246 38.7488 15.5479 38.5162 15.9594C38.1852 15.1632 37.5143 14.7652 36.5035 14.7652C35.9668 14.7652 35.5396 14.8837 35.2221 15.1207C34.9045 15.3578 34.6742 15.6284 34.5311 15.9325H34.5042V14.9262H32.9746V21.3668H34.5847ZM47.8954 21.5278C48.3784 21.5278 48.8346 21.4473 49.264 21.2863C49.6934 21.1253 50.0646 20.8972 50.3777 20.602C50.6908 20.3068 50.939 19.9512 51.1224 19.5353C51.3058 19.1193 51.3975 18.6564 51.3975 18.1465C51.3975 17.6366 51.3058 17.1737 51.1224 16.7577C50.939 16.3418 50.6908 15.9862 50.3777 15.691C50.0646 15.3958 49.6934 15.1677 49.264 15.0067C48.8346 14.8457 48.3784 14.7652 47.8954 14.7652C47.4123 14.7652 46.9561 14.8457 46.5267 15.0067C46.0974 15.1677 45.7261 15.3958 45.413 15.691C45.1 15.9862 44.8517 16.3418 44.6683 16.7577C44.485 17.1737 44.3933 17.6366 44.3933 18.1465C44.3933 18.6564 44.485 19.1193 44.6683 19.5353C44.8517 19.9512 45.1 20.3068 45.413 20.602C45.7261 20.8972 46.0974 21.1253 46.5267 21.2863C46.9561 21.4473 47.4123 21.5278 47.8954 21.5278ZM47.8954 20.0787C47.6002 20.0787 47.3363 20.025 47.1037 19.9177C46.8711 19.8103 46.6721 19.6672 46.5066 19.4883C46.3411 19.3094 46.2159 19.1036 46.1309 18.8711C46.0459 18.6385 46.0034 18.397 46.0034 18.1465C46.0034 17.896 46.0459 17.6545 46.1309 17.4219C46.2159 17.1893 46.3411 16.9836 46.5066 16.8047C46.6721 16.6258 46.8711 16.4827 47.1037 16.3753C47.3363 16.268 47.6002 16.2143 47.8954 16.2143C48.1906 16.2143 48.4544 16.268 48.687 16.3753C48.9196 16.4827 49.1186 16.6258 49.2841 16.8047C49.4496 16.9836 49.5748 17.1893 49.6598 17.4219C49.7448 17.6545 49.7873 17.896 49.7873 18.1465C49.7873 18.397 49.7448 18.6385 49.6598 18.8711C49.5748 19.1036 49.4496 19.3094 49.2841 19.4883C49.1186 19.6672 48.9196 19.8103 48.687 19.9177C48.4544 20.025 48.1906 20.0787 47.8954 20.0787ZM55.5839 21.5278C55.7717 21.5278 55.9886 21.5122 56.2346 21.4809C56.4806 21.4496 56.6886 21.3936 56.8586 21.3131V19.9579C56.7602 20.0295 56.626 20.0809 56.456 20.1122C56.2861 20.1435 56.1295 20.1592 55.9864 20.1592C55.6286 20.1592 55.3893 20.0653 55.2685 19.8774C55.1478 19.6896 55.0874 19.4346 55.0874 19.1126V16.2948H56.8586V14.9262H55.0874V13.0611H53.4772V14.9262H52.1489V16.2948H53.4772V19.2468C53.4772 19.6225 53.5063 19.9535 53.5645 20.2397C53.6226 20.526 53.7299 20.7652 53.8865 20.9576C54.043 21.1499 54.2577 21.293 54.5305 21.3869C54.8034 21.4809 55.1545 21.5278 55.5839 21.5278ZM61.2999 21.5278C61.8098 21.5278 62.2973 21.4294 62.7625 21.2326C63.2276 21.0358 63.6481 20.7049 64.0238 20.2397L62.8698 19.3675C62.6641 19.618 62.4248 19.826 62.152 19.9915C61.8791 20.157 61.5414 20.2397 61.1389 20.2397C60.6827 20.2397 60.2936 20.1055 59.9715 19.8372C59.6495 19.5688 59.4617 19.1931 59.408 18.7101H64.319V18.2673C64.319 17.7037 64.2452 17.205 64.0976 16.7712C63.95 16.3373 63.7442 15.9728 63.4803 15.6776C63.2164 15.3824 62.8989 15.1565 62.5277 15C62.1564 14.8434 61.7472 14.7652 61.2999 14.7652C60.8169 14.7652 60.3607 14.8457 59.9313 15.0067C59.5019 15.1677 59.1307 15.3958 58.8176 15.691C58.5045 15.9862 58.2563 16.3418 58.0729 16.7577C57.8895 17.1737 57.7978 17.6366 57.7978 18.1465C57.7978 18.6564 57.8895 19.1193 58.0729 19.5353C58.2563 19.9512 58.5045 20.3068 58.8176 20.602C59.1307 20.8972 59.5019 21.1253 59.9313 21.2863C60.3607 21.4473 60.8169 21.5278 61.2999 21.5278V21.5278ZM62.7088 17.5024H59.408C59.4706 17.0373 59.6428 16.666 59.9246 16.3887C60.2064 16.1114 60.5888 15.9728 61.0718 15.9728C61.5817 15.9728 61.9798 16.1092 62.266 16.382C62.5523 16.6549 62.6999 17.0283 62.7088 17.5024ZM67.4588 21.3668V11.2228H65.8486V21.3668H67.4588ZM69.8203 24.5871C70.1781 24.5871 70.4845 24.5491 70.7395 24.4731C70.9944 24.397 71.2158 24.2807 71.4036 24.1242C71.5915 23.9677 71.7547 23.7753 71.8934 23.5472C72.0321 23.3191 72.1595 23.053 72.2758 22.7489L75.3217 14.9262H73.6444L72.0343 19.3944H72.0075L70.2094 14.9262H68.4383L71.189 21.4205L70.8803 22.1853C70.8088 22.3553 70.7417 22.5006 70.6791 22.6214C70.6165 22.7422 70.5382 22.8405 70.4443 22.9166C70.3503 22.9926 70.2363 23.0485 70.1021 23.0843C69.9679 23.1201 69.8024 23.138 69.6056 23.138C69.4625 23.138 69.3216 23.1223 69.183 23.091C69.0443 23.0597 68.9124 23.0217 68.7871 22.977L68.5859 24.4261C68.9884 24.5334 69.3999 24.5871 69.8203 24.5871V24.5871Z" fill="#29153F"/>
<mask id="mask0" mask-type="alpha" maskUnits="userSpaceOnUse" x="0" y="0" width="13" height="29">
<path fill-rule="evenodd" clip-rule="evenodd" d="M0.0392151 0.92038H12.8182V28.3953H0.0392151V0.92038Z" fill="white"/>
</mask>
<g mask="url(#mask0)">
<path fill-rule="evenodd" clip-rule="evenodd" d="M7.58615 19.7805C7.0545 18.5892 7.0543 17.506 7.2804 16.5994C7.94223 14.749 9.94499 13.057 9.94499 13.057L9.93845 13.0539C10.4134 12.5941 10.8224 12.0421 11.165 11.3981C11.6184 10.5445 11.8455 9.4581 11.8455 8.1384C11.8455 6.94897 11.6511 5.94002 11.2619 5.11155C10.8731 4.28407 10.3803 3.59833 9.78408 3.05471C9.18704 2.51149 8.51292 2.09815 7.76132 1.8129C7.00853 1.52864 6.26961 1.32206 5.54376 1.19238C4.81733 1.0633 4.1436 0.985416 3.521 0.959322C2.89899 0.933822 2.40598 0.92038 2.04276 0.92038H0.0392151V28.3953H12.8182L7.58615 19.7805Z" fill="#29153F"/>
</g>
</svg>
