<svg xmlns="http://www.w3.org/2000/svg" width="191" height="45">
  <g fill="#00213B" fill-rule="evenodd" transform="translate(0 -1)">
    <path d="M59.87 28.27c0 4.6-4.28 6.44-8.56 6.47-3.32 0-6.5-1.35-8.81-3.74l2.35-2.34a8.82 8.82 0 0 0 6.46 3.2c2.76 0 5-1 5-3.33 0-2.06-2.19-2.92-5.93-4.5-3.08-1.3-6.76-2.85-6.76-6.88 0-3.17 3-6.47 8-6.47a11.07 11.07 0 0 1 8.5 3.84l-2.35 2.25a9.1 9.1 0 0 0-6.56-3.17c-2.16 0-4 1.2-4 3.23 0 2.86 3.3 3.9 5.77 4.88 3.28 1.29 6.89 2.95 6.89 6.56zm13.19 6.31v-8.85c0-3.17-1.27-4.59-4-4.59s-4 1.42-4 4.59v8.85h-3.19V9.85h3.27V21a6.46 6.46 0 0 1 5.54-2.51c3.3 0 5.61 1.78 5.61 6.28v9.83l-3.23-.02z"/>
    <path fill-rule="nonzero" d="M80.32 14.7a1.81 1.81 0 1 1 1.78-1.81 1.77 1.77 0 0 1-1.78 1.81zM78.7 34.58V18.63H82v16l-3.3-.05zm8.88-2.19v8h-3.27V18.63h3.27v2.16a6.67 6.67 0 0 1 5.07-2.32c4.44 0 7.58 3 7.58 8.12 0 4.82-3.14 8.15-7.58 8.15a6.72 6.72 0 0 1-5.07-2.35zm0-5.8c0 3.2 1.68 5.45 4.69 5.45 3.01 0 4.73-2.25 4.73-5.45s-1.68-5.45-4.69-5.45c-3.01 0-4.73 2.28-4.73 5.45z"/>
    <path d="M124.21 28.27c0 4.6-4.28 6.44-8.56 6.47-3.33 0-6.5-1.35-8.82-3.74l2.35-2.34a8.83 8.83 0 0 0 6.47 3.2c2.75 0 5-1 5-3.33 0-2.06-2.19-2.92-5.93-4.5-3.08-1.3-6.75-2.85-6.75-6.88 0-3.17 3-6.47 7.95-6.47a11.07 11.07 0 0 1 8.5 3.84l-2.35 2.25a9.1 9.1 0 0 0-6.56-3.17c-2.15 0-4 1.2-4 3.23 0 2.86 3.3 3.9 5.77 4.88 3.31 1.29 6.93 2.95 6.93 6.56zm13.18 6.31v-8.85c0-3.17-1.26-4.59-4-4.59s-4 1.42-4 4.59v8.85h-3.19V9.85h3.27V21a6.48 6.48 0 0 1 5.53-2.53c3.29 0 5.61 1.78 5.61 6.28v9.83h-3.22z"/>
    <path fill-rule="nonzero" d="M155.56 24.78v9.8h-3.27v-1.71c-1.14 1.55-3.17 1.87-4.75 1.87-2.95 0-5.3-1.65-5.3-4.76 0-3.58 2.92-5.29 7.2-5.29h2.85c0-1.91-.66-3.55-2.72-3.55-1.44.01-2.82.6-3.84 1.61l-2.06-1.55a8.76 8.76 0 0 1 6.18-2.73c3.74 0 5.71 1.97 5.71 6.31zm-3.27 2.82h-2.41c-3.26 0-4.37.76-4.37 2.22 0 1.46 1.33 2.25 2.79 2.25 3.07 0 4-1.3 4-3l-.01-1.47zm8.71 4.79v8h-3.26V18.63H161v2.16a6.67 6.67 0 0 1 5.07-2.32c4.44 0 7.58 3 7.58 8.12 0 4.82-3.14 8.15-7.58 8.15a6.72 6.72 0 0 1-5.07-2.35zm0-5.8c0 3.2 1.68 5.45 4.69 5.45 3.01 0 4.7-2.25 4.7-5.45s-1.68-5.45-4.7-5.45c-3.02 0-4.69 2.28-4.69 5.45zm16.84 1.33c0 2.57 2.32 4.15 4.66 4.15a6.6 6.6 0 0 0 4.66-2l1.94 1.8a8.79 8.79 0 0 1-6.6 2.86c-4.82 0-7.86-3.3-7.86-8s3.33-8.31 7.86-8.31 7.55 3.46 7.55 8v1.46l-12.21.04zm4.66-6.78a4.42 4.42 0 0 0-4.59 4.12h8.87a4 4 0 0 0-4.28-4.12zM27.19 12.3c0-2.14-.57-4.25-1.65-6.1a9.94 9.94 0 0 0-4.45-3.82A18.1 18.1 0 0 0 13.59 1C7.84 1 3.84 2.72 1.7 6.12c-3.8 6-.25 15.26 1.32 18.71-.13.54-.3 1.07-.52 1.58a7.72 7.72 0 0 0-.17 5.13 2 2 0 0 0 1.16 1.15c.4.15.84.15 1.24 0v.48c-.44-.04-.87.07-1.23.32a3.69 3.69 0 0 0-1.32 1.93 5.59 5.59 0 0 0-.24 2.35c.11 1.2.83 2.25 1.91 2.79a3.75 3.75 0 0 0 1 3.9 4.14 4.14 0 0 0 4.68.93 6.18 6.18 0 0 0 3.2-3.69c.41-1.1.68-2.26.79-3.44.12 1.17.4 2.33.82 3.43a6.26 6.26 0 0 0 3.26 3.68c.56.24 1.16.37 1.77.37 1.13 0 2.22-.46 3-1.28 1.07-1 1.44-2.56.92-3.94a3.5 3.5 0 0 0 1.81-2.74c.09-.8 0-1.6-.25-2.35a3.69 3.69 0 0 0-1.32-1.93 1.81 1.81 0 0 0-1.22-.32v-.48c.4.15.83.15 1.23 0a2 2 0 0 0 1.17-1.15 7.79 7.79 0 0 0-.18-5.13c-.2-.4-.38-.81-.53-1.24a37.5 37.5 0 0 0 2.43-6.84c.52-1.97.78-4 .76-6.04zm-5 12.7c.16.72.38 1.42.66 2.1.61 1.39.41 3.83 0 4-.41.17-.37-2.23-1.41-4a7.35 7.35 0 0 1-.38-.71c.24 1.45.41 3.54-.33 4.74-.87 1.5.73 6.34 1.2 6.4.66.1 0-3 .57-2.63.84.58 1.52 3.55-.31 4.2-1.67.59-4.79-4.2-3.85-8 .5-1.53-.38-4.74-.65-6 .46 2.95.45 5.96-.05 8.9-.94 5.91.95 8 1.57 7.76.85-.34.34-1.79.34-2 .39-.69 3.58 1.5 1.53 3.59-1.78 1.9-6.51.68-6-8.83a15.6 15.6 0 0 0-1.58-7.9 14.72 14.72 0 0 0-1.68 7.9c.52 9.51-4 10.73-5.8 8.83C4 41.18 7 39 7.42 39.68c0 0-.58 1.71.28 2 .61.23 2.5-1.6 1.56-7.51-.53-3.02-.53-6.1 0-9.12-.29 1.29-1.26 4.5-.75 6 .94 3.77-2.1 8.56-3.77 8-1.83-.65-1.16-3.62-.31-4.2.57-.38-.1 2.73.57 2.63.47-.06 2.07-4.9 1.2-6.4-.74-1.2-.57-3.29-.34-4.74-.11.24-.23.48-.37.71-1 1.75-1 4.12-1.42 4-.42-.12-.61-2.59 0-4 .33-.8.59-1.62.75-2.47-1.53-3.16-9.67-21.87 8.77-21.87C33 2.71 23 23.38 22.21 25h-.02zM5.37 21.13a1.8 1.8 0 1 1 3.6 0 1.8 1.8 0 0 1-3.6 0zm14.5 1.78a1.8 1.8 0 1 0-.02-3.6 1.8 1.8 0 0 0 .02 3.6z"/>
  </g>
</svg>
