<svg width="490" height="220" viewBox="0 0 490 220" fill="none" xmlns="http://www.w3.org/2000/svg">
<g clip-path="url(#clip0)">
<path d="M59.5628 108.671C44.4021 104.527 31.3162 100.952 31.3162 86.9771C31.3162 77.0501 39.2749 69.5501 49.844 69.5501C62.6408 69.5501 66.4926 78.0577 70.2084 86.2849C73.2864 93.1015 76.2029 99.5413 84.0341 99.5413C90.5898 99.5413 95.53 94.7575 95.53 88.4053C95.53 74.0449 77.9205 59.1851 48.458 59.1851C21.7164 59.1851 2.31279 73.7733 2.31279 93.8813C2.31279 120.718 23.1279 126.264 41.4941 131.171C56.5357 135.175 69.5282 138.645 69.5282 152.436C69.5282 163.353 61.9096 169.863 49.1552 169.863C34.7003 169.863 30.6699 161.171 26.7671 152.76C23.638 146.013 20.679 139.635 12.4312 139.635C4.64258 139.635 0 144.068 0 151.489C0 165.385 18.3833 179.763 49.1552 179.763C78.2266 179.763 98.5315 165.788 98.5315 145.777C98.5315 119.308 77.827 113.656 59.5628 108.671Z" fill="#6C25B0"/>
<path d="M251.72 59.185C243.472 59.185 238.141 64.4946 238.141 72.7043C238.141 80.6336 242.562 85.3824 247.256 90.4029C252.425 95.9403 257.765 101.67 257.765 112.447C257.765 142.544 238.659 166.761 222.844 166.761C219.247 166.761 216.322 165.604 214.145 163.326C210.702 159.717 209.027 153.329 209.163 144.349L209.622 65.8001C209.622 63.4432 208.942 61.6733 207.615 60.5343C206.068 59.2113 203.755 58.8433 200.719 59.4391L178.102 64.1967C175.134 64.7574 173.229 66.7814 173.229 69.3748V70.0845C173.229 72.4414 174.939 74.0448 176.741 75.7446C179.207 78.0664 182.004 80.6862 182.004 86.0396V118.878C182.004 148.852 167.184 166.77 152.848 166.77C149.489 166.77 146.683 165.622 144.515 163.344C141.029 159.69 139.26 153.294 139.396 144.83L139.856 65.8088C139.856 63.6973 139.32 62.199 138.206 61.209C136.403 59.5968 133.402 59.7896 130.987 60.1576L106.473 64.2054C103.701 64.775 101.839 66.8515 101.839 69.3748V70.0845C101.839 72.4414 103.548 74.0448 105.359 75.7446C107.825 78.0664 110.623 80.6862 110.623 86.0396V134.36C110.623 175.558 136.429 180 147.525 180C163.859 180 177.158 172.736 186.12 158.963C191.349 172.552 202.352 180 217.283 180C245.955 180 274.984 151.813 274.984 97.9379C275.001 74.036 266.081 59.185 251.72 59.185Z" fill="#6C25B0"/>
<path d="M338.16 115.619C329.343 117.433 315.228 117.722 306.045 117.083C305.645 113.779 305.449 110.222 305.449 106.507C305.449 85.6456 316.546 70.5142 331.834 70.5142C343.551 70.5142 353.635 80.5726 353.856 92.471C354.095 109.679 346.051 113.832 338.16 115.619ZM382.996 139.206C380.845 138.312 378.251 139.118 376.687 141.168L376.593 141.317C371.772 151.253 358.584 158.192 344.546 158.192C327.923 158.192 314.964 147.731 308.842 129.41C322.753 130.689 334.138 130.251 343.602 128.078C367.325 122.83 381.482 109.504 381.482 92.4447C381.482 83.9196 378.668 76.7262 373.115 71.0487C365.471 63.242 353.023 59.0101 338.101 59.1678C305.211 59.4132 281.335 84.419 281.335 118.625C281.335 155.327 304.803 179.983 339.733 179.983C356.246 179.983 366.883 173.201 372.894 167.515C379.663 161.11 384.433 152.401 385.64 144.226L385.649 144.182C385.861 141.861 384.875 139.986 382.996 139.206Z" fill="#6C25B0"/>
<path d="M432.542 166.201C429.915 164.028 427.202 161.785 427.202 156.966V5.72156C427.202 3.60999 426.318 1.82261 424.779 0.82378C422.942 -0.367809 420.409 -0.27143 417.628 1.10415L394.296 13.0025C392.221 14.0714 389.883 15.2718 389.883 18.0931V18.8027C389.883 20.888 391.38 22.36 393.106 24.0773C395.478 26.4167 398.429 25.8647 398.429 31.5247V156.957C398.429 161.811 395.98 164.054 393.607 166.227C391.694 167.988 389.883 169.653 389.883 172.43V173.14C389.883 175.856 392.136 177.608 395.606 177.608H430.714C434.226 177.608 436.675 175.777 436.675 173.14V172.43C436.675 169.626 434.668 167.962 432.542 166.201Z" fill="#6C25B0"/>
<path d="M484.971 166.201C482.343 164.028 479.631 161.785 479.631 156.966V5.72156C479.631 3.60999 478.747 1.82261 477.208 0.82378C475.371 -0.367809 472.829 -0.27143 470.057 1.10415L446.725 13.0025C444.65 14.0714 442.312 15.2718 442.312 18.0931V18.8027C442.312 20.888 443.8 22.36 445.535 24.0773C447.907 26.4167 450.857 25.8647 450.857 31.5247V156.957C450.857 161.811 448.409 164.054 446.036 166.227C444.123 167.988 442.303 169.653 442.303 172.43V173.14C442.303 175.856 444.557 177.608 448.026 177.608H483.134C486.646 177.608 489.095 175.777 489.095 173.14V172.43C489.103 169.626 487.097 167.962 484.971 166.201Z" fill="#6C25B0"/>
</g>
<defs>
<clipPath id="clip0">
<rect width="490" height="220" fill="white"/>
</clipPath>
</defs>
</svg>
