<svg xmlns="http://www.w3.org/2000/svg" width="101" height="46" fill="none" viewBox="0 0 101 46"><g opacity=".9"><path fill="#3D3952" d="M48.5906 15.6384H42.1797V14.1213H56.6392V15.6384H50.2283V36.7358H48.5906V15.6384ZM60.9731 14.1213C61.7121 14.1213 62.2713 14.7079 62.2713 15.4361C62.2713 16.1643 61.6921 16.7509 60.9731 16.7509C60.2341 16.7509 59.6749 16.1643 59.6749 15.4361C59.6749 14.7079 60.2341 14.1213 60.9731 14.1213ZM60.1742 19.9671H61.772V36.7358H60.1742V19.9671ZM66.5652 19.9671H68.1629V23.0619C68.5424 22.4147 70.3399 19.5423 74.3142 19.5423C79.0276 19.5423 82.3828 23.1833 82.3828 28.3009C82.3828 33.4792 79.1274 37.1606 74.474 37.1606C70.7193 37.1606 68.7022 34.5714 68.1629 33.5398V42.7839H66.5652V19.9671ZM74.4341 35.6435C78.0489 35.6435 80.7252 32.6094 80.7252 28.3009C80.7252 23.9115 77.9091 21.0594 74.3741 21.0594C70.5196 21.0594 68.083 24.3565 68.083 28.3009C68.083 32.9532 70.9989 35.6435 74.4341 35.6435ZM93.0677 19.5423C97.821 19.5423 100.857 23.1226 100.857 27.9368V28.6245H86.7367C86.7367 33.0746 89.5527 35.6637 93.5071 35.6637C96.5628 35.6637 98.2604 34.1467 99.219 32.7914L100.278 33.5398C99.199 35.3199 97.082 37.1606 93.5071 37.1606C88.634 37.1606 85.079 33.641 85.079 28.402C85.079 22.9203 88.8537 19.5423 93.0677 19.5423ZM99.1791 27.2086C98.9793 23.0013 96.1433 21.0392 93.0278 21.0392C90.032 21.0392 87.1561 23.1024 86.8365 27.2086H99.1791Z" opacity=".9"/></g><path fill="#D5D5E0" d="M27.9061 26.0193C26.9598 24.0334 25.6309 21.703 25.9531 19.2308C26.0336 18.6026 26.2349 18.0149 26.6175 17.5488C25.6712 18.5418 24.5034 19.4131 23.2148 20.0819C22.8121 20.2845 22.4094 20.4669 21.9866 20.6493C20.7987 21.2369 19.8524 21.8854 19.0873 22.5541C16.3893 24.925 13.8121 31.5515 9.32219 32.8079C8.75843 33.051 8.094 33.2334 7.34904 33.2131C5.45642 33.1929 3.24166 31.9568 2.05374 30.0924C0.302058 27.3162 0.825547 23.5065 2.01347 21.0748C1.9732 21.1559 1.93293 21.2167 1.9128 21.2977C1.63092 21.8854 1.34904 22.5744 1.06716 23.4052C0.442997 25.1885 0.12085 27.1339 0.12085 29.14C0.12085 38.4211 7.2685 45.9594 16.0873 45.9594C18.3423 45.9594 21.9262 45.2704 24.886 43.2035C25.8524 42.5145 28.4296 40.4678 29.4363 36.7189C30.6041 32.1594 29.2752 28.8968 27.9061 26.0193Z"/><path fill="#A6A5B7" d="M10.4698 32.1189C10.1678 32.3621 9.78522 32.6052 9.32214 32.8079C13.8121 31.5515 16.3893 24.9251 19.0872 22.5541C19.8523 21.8854 20.7785 21.237 21.9866 20.6493C20.6376 21.1762 19.208 21.4801 17.698 21.4801C13.7315 21.4801 10.1074 19.3524 7.97314 16.6167C8.17449 16.9004 10.5906 19.7577 12.4631 25.4722C13.2684 27.9647 12.3423 30.6599 10.4698 32.1189Z"/><path fill="#E4E4EA" d="M29.3558 12.0979C28.933 16.6168 23.6578 21.4803 17.678 21.4803C11.6578 21.4803 6.42293 16.5966 6.00011 12.0979C5.69809 8.93666 7.46991 4.80273 17.678 4.80273C27.886 4.80273 29.6578 8.93666 29.3558 12.0979Z"/><path fill="#A6A5B7" d="M27.3625 0.0202637C26.3558 2.0467 26.0336 4.33656 26.4162 6.52511C26.6578 6.66696 26.8793 6.80881 27.0806 6.95066C29.094 8.40969 29.5168 10.3956 29.3558 12.0775C29.3155 12.5841 29.1947 13.111 29.0336 13.6176C30.4027 9.88899 30.2215 5.85639 28.7115 2.43172C28.3289 1.60088 27.886 0.790308 27.3625 0.0202637Z"/><path fill="#3D3952" d="M26.4162 6.52511C26.0337 4.33656 26.3357 2.0467 27.3625 0.0202637C26.6981 0.42555 26.0538 0.891629 25.4699 1.4185C24.3223 2.45198 23.3558 3.7489 22.6511 5.20793C23.0941 5.28899 23.5169 5.39031 23.9196 5.51189C24.9062 5.77533 25.7317 6.14009 26.4162 6.52511Z"/><path fill="#A6A5B7" d="M8.03354 0.0202637C9.04025 2.0467 9.3624 4.33656 8.97985 6.52511C8.73824 6.66696 8.51677 6.80881 8.31542 6.95066C6.302 8.40969 5.87918 10.3956 6.04025 12.0775C6.08052 12.5841 6.20133 13.111 6.3624 13.6176C4.99328 9.88899 5.17448 5.85639 6.68455 2.43172C7.04697 1.60088 7.51005 0.790308 8.03354 0.0202637Z"/><path fill="#3D3952" d="M9.92631 1.4185C9.34242 0.891629 8.69812 0.42555 8.03369 0.0202637C9.0404 2.0467 9.36255 4.33656 8.98 6.52511C9.66456 6.11982 10.4901 5.77533 11.4968 5.51189C11.8995 5.41057 12.3223 5.30925 12.7652 5.20793C12.0404 3.72863 11.074 2.45198 9.92631 1.4185Z"/><path fill="#3D3952" d="M27.9866 10.7401C27.8658 10.1524 27.5839 9.68636 26.9799 9.54451C25.3893 9.17975 21.5436 11.5304 19.3691 12.645C18.5638 13.0705 18.1208 13.2731 17.698 13.2529C17.2551 13.2731 16.8322 13.0705 16.0269 12.645C13.8524 11.5304 10.0067 9.15949 8.41613 9.54451C7.8121 9.68636 7.53022 10.1322 7.40942 10.7401C7.20807 11.7939 7.48995 14.3877 9.4027 16.3128C10.8322 17.7516 12.7651 18.4405 14.3759 18.8864C14.396 18.8864 14.396 18.9066 14.4161 18.9066C14.396 18.9674 14.396 19.0282 14.396 19.089C14.396 19.7577 15.1611 20.2846 16.1275 20.2846C16.5906 20.2846 17.4161 20.1428 17.7181 19.9401C18.0202 20.163 18.8457 20.2846 19.3087 20.2846C20.2551 20.2846 21.0403 19.7375 21.0403 19.089C21.0403 19.0282 21.0403 18.9674 21.0202 18.9066C21.0403 18.9066 21.0403 18.8864 21.0604 18.8864C22.6712 18.4405 24.604 17.7516 26.0336 16.3128C27.9262 14.3877 28.1879 11.7939 27.9866 10.7401Z"/><path fill="#fff" d="M15.2619 15.2996C13.1075 17.63 9.72497 15.6441 9.18134 12.8476C8.81893 11.0036 9.90617 11.2873 10.933 11.6925C12.2015 12.2194 13.9532 13.4555 15.2619 15.2996Z"/><path fill="#2F273D" d="M12.2619 13.8609C12.2619 14.4688 12.1008 15.016 11.8189 15.482C11.5371 15.0362 11.376 14.4688 11.376 13.8609C11.376 13.253 11.5371 12.7058 11.8189 12.2397C12.1008 12.6856 12.2619 13.253 12.2619 13.8609Z"/><path fill="#171320" d="M17.6979 17.5894C17.2952 17.5691 16.8523 17.6907 16.4294 18.096C18.1006 19.1497 17.2952 19.1497 18.9462 18.096C18.5234 17.6704 18.0805 17.5488 17.6979 17.5894Z"/><path fill="#fff" d="M20.2148 15.2996C22.3692 17.63 25.7518 15.6441 26.2954 12.8476C26.6578 11.0036 25.5705 11.2873 24.5437 11.6925C23.2551 12.2194 21.5034 13.4555 20.2148 15.2996Z"/><path fill="#2F273D" d="M23.1946 13.8609C23.1946 14.4688 23.3557 15.016 23.6375 15.482C23.9194 15.0362 24.0805 14.4688 24.0805 13.8609C24.0805 13.253 23.9194 12.7058 23.6375 12.2397C23.3557 12.6856 23.1946 13.253 23.1946 13.8609Z"/><path fill="#3D3952" d="M2.05377 30.0925C3.24169 31.9568 5.43632 33.2132 7.34907 33.2132C7.9531 33.2132 8.51685 33.1119 9.00008 32.9295C5.97994 33.7806 5.11417 27.8229 6.80544 24.1956C7.02692 23.5066 7.28867 22.9189 7.49001 22.4123C7.57055 22.2299 7.99336 21.3788 7.91283 20.4264C7.75175 18.6026 5.09404 16.9207 3.08061 19.3321C2.73833 19.7577 2.37591 20.3251 1.99336 21.0951C0.805445 23.5471 0.322223 27.3365 2.05377 30.0925Z"/></svg>