<svg width="1440" height="221" preserveAspectRatio="none" fill="none" xmlns="http://www.w3.org/2000/svg"><path d="M.315275 163.113C7.95499 157.149 23.8407 145.522 30.3892 144.704c3.0643-.383 8.5376-.48 14.4873-.584 9.9437-.175 21.2183-.374 24.8031-1.973 4.5839-2.044 14.4611-3.918 18.8267-4.599 7.094-3.407 22.5917-10.323 27.8307-10.732 2.312-.181 5.135-1.763 8.612-3.713 6.37-3.572 14.936-8.375 26.585-8.045 11.071.315 22.452 4.686 31.098 8.008 5.418 2.081 9.763 3.75 12.286 3.75 3.177 0 12.331-2.769 21.754-5.619 9.995-3.024 20.292-6.139 24.084-6.139 3.521 0 9.66-3.036 16.183-6.262 7.124-3.523 14.706-7.273 19.834-7.54 3.882-.202 6.741-3.2781 10.043-6.8305 5.052-5.436 11.141-11.9871 23.517-11.0597 10.883.8156 19.219 2.4988 25.378 3.7425 5.422 1.0948 9.157 1.849 11.457 1.3703 1.544-.3215 3.493-.9464 5.695-1.6521 4.798-1.5383 10.794-3.4607 16.405-3.4607 3.693 0 11.385-3.4332 19.618-7.1079 10.015-4.4701 20.83-9.2975 26.221-8.7365 4.846.5044 11.486-3.2219 18.444-7.127 7.145-4.0101 14.626-8.2087 20.846-8.2087 2.629 0 5.857.2342 9.55.502 13.555.9832 33.36 2.4197 52.66-5.6149 10.792-4.493 26.802-14.4167 42.262-23.9995C578.586 10.8521 597.409-.814781 603.373.0447277 611.886 1.27149 646.527 20.17 662.783 29.4658c4.232-.5017 14.416-.4718 21.301 3.6617 3.766 2.2617 11.025 7.8155 18.275 13.3634 9.314 7.1263 18.615 14.243 20.486 14.3598l.147.0092c3.412.2119 11.341.7042 23.15 6.8491 5.859 3.0488 10.99 6.8484 15.11 9.8994 4.305 3.1884 7.507 5.5592 9.281 5.4009 1.22-.1088 4.339-1.48 8.28-3.2127 7.274-3.1976 17.348-7.6265 23.459-7.6265 9.423 0 20.334-1.2387 31.244-8.0519 1.496-.9342 3.011-1.9037 4.524-2.872 9.52-6.0938 18.969-12.1418 23.248-9.0605 4.96 3.5708 13.886 8.665 17.358 8.665.219 0 .492-.0012.814-.0028 4.784-.0224 20.171-.0945 22.495 3.2703 1.197 1.7341 4.824 3.2377 9.091 4.7128 11.572.834 23.379 2.3878 35.5 4.0141.786-.0445 1.53-.0998 2.226-.1666l5.664-6.2386c.238-.2615.635-.442 1.07-.4879.436-.0459.86.0481 1.149.254l4.729 3.4001 8.095-8.9195c.236-.2642.633-.4471 1.07-.4932.437-.0461.864.0501 1.149.2592l9.292 6.6672c19.2-4.5879 37.03-10.9669 54.2-17.1076l.01-.0024c23.3-8.3347 45.37-16.2296 67.95-18.6094 21.24-2.2225 51.23 3.5969 82.41 9.6459 33.77 6.5521 68.44 16.5751 95.35 13.7382 21.48-2.2842 49.69-4.1384 71.35-13.9951 26.63-3.7548 57.92-20.4383 76.13-22.358 2.17-.2285-1.95.3456 0 0 3.96-.7002-6.16-.1998 0 0L1440 158.723v61.376H.315185v-5.738c-.120141-1.14.210067-2.279 0-4.271-.2412115-2.287 0-4.126.00009-5.742-.00009-2.148-.00009-4.536.000016-6.708-.000106-3.691-.000106-4.85-.000106-6.152l.00009-3.403s.258963-4.709 0-7.166v-6.876s-.709369-10.376 0-10.93z" fill="#F3F4F6"/><path d="M0 181.585h41.5l19.5 9.878h24l23.5-9.878 23-5.853 43.5-6.586 38 6.586 56-3.293 51.5-3.293h30l35-8.415 35.5-4.756 25-12.439 29-4.756 22-10.61h20l26-9.878 13.355-5.282c3.399-1.344 7.023-2.035 10.679-2.035h12.704c3.155 0 6.29.497 9.29 1.473l13.595 4.421c2.9.943 5.93 1.423 8.98 1.423h7.874c2.326 0 4.631-.45 6.786-1.326l10.386-4.222c2.873-1.168 5.946-1.769 9.049-1.769h8.049c3.477 0 6.93.584 10.213 1.728l12.405 4.323c2.364.823 4.927.888 7.329.185l17.587-5.147c2.467-.722 5.024-1.089 7.594-1.089h24.701c.931 0 1.843.26 2.634.75l3.923 2.428c.854.529 1.916.595 2.83.178l20.356-9.31c1.437-.657 2.999-.997 4.58-.997H794l47.5 2.927 26.5-8.0491 37.478-13.7114c7.6-2.7806 15.692-3.9697 23.772-3.4936l62.25 3.6684 5.355-.1866c5.685-3.2139 12.635-7.3096 19.365-11.2737 11.8-6.9461 22.91-13.4885 25.28-14.1764.42-.1222.94-.2848 1.56-.4781 6.91-2.1452 25.98-8.0744 53.24-4.4912 5.35.7036 10.23 1.3383 14.68 1.8972l13.02-7.145h34.5l16.24 4.0458c2.55-.2978 5.21-2.0303 6.52-2.3324.32-.0741.86-.21 1.59-.3917 5.85-1.4593 23.51-5.867 31.91-4.8159 6.05.7575 12.4.1086 16.95-.3564 2.55-.2606 4.54-.4635 5.59-.3286.56.0718 1.77.2554 3.38.4996 6.79 1.0314 20.7 3.1433 22.84 2.4797.78-.2405 2.23-1.043 4.19-2.1248 4.72-2.6087 12.38-6.8415 20.58-8.7335 3.63.2825 11.6.6649 14.39-.0648.41-.1045.86-.2305 1.37-.3697 3.92-1.0766 10.69-2.9389 15.63-1.66 5.57 1.4443 16.25 3.2843 20.42 2.428 3.16-.6498 11.67-.2593 16.14.0567l.92-.0206c1.29-.3951 3.06-.8669 5.09-1.303L1440 13v207H0v-38.415z" fill="#F9FAFB"/></svg>