<svg id="Capa_1" data-name="Capa 1" xmlns="http://www.w3.org/2000/svg" viewBox="0 0 2398 531"><defs><style>.cls-1{fill:#4b24ba;}.cls-2{fill:#4b22f4;}.cls-3{fill:#02e5a0;}</style></defs><title>Mesa de trabajo 9 copia 26</title><path class="cls-1" d="M679.7,274.56l88.71-91.38c2.79-2.8,4.21-5.74,4.21-8.76a7.6,7.6,0,0,0-3.4-6.52,13.49,13.49,0,0,0-7.86-2h-42a19.32,19.32,0,0,0-14.61,6.33l-87.33,93.47V178.85a12.15,12.15,0,0,0-13-13H571.09a12.15,12.15,0,0,0-13,13v228.8a12.14,12.14,0,0,0,13,13H604.5a12.15,12.15,0,0,0,13-13V338.17l21.19-22.09L710,413.26c3.25,4.89,8.26,7.36,14.89,7.36H767.5c3.61,0,6.33-.74,8.31-2.27a8.06,8.06,0,0,0,3.29-6.61,14.24,14.24,0,0,0-2.93-8.11Z"/><path class="cls-1" d="M932.84,237.67a108.88,108.88,0,0,0-104.64-.17A103.64,103.64,0,0,0,790,274.27,97.3,97.3,0,0,0,790,375a102.5,102.5,0,0,0,38,36.61,107,107,0,0,0,143.14-36.93,96.18,96.18,0,0,0,.16-100.4A104.82,104.82,0,0,0,932.84,237.67Zm-27.8,131a49.18,49.18,0,0,1-49.58-.19,45.53,45.53,0,0,1-17.54-17.87,55.53,55.53,0,0,1,.15-51.71A48.39,48.39,0,0,1,855.83,281a47.89,47.89,0,0,1,24.53-6.61,49.44,49.44,0,0,1,24.84,6.43A48,48,0,0,1,922.8,299a52.33,52.33,0,0,1,6.31,25.45,53.9,53.9,0,0,1-6.48,25.95A48,48,0,0,1,905,368.64Z"/><path class="cls-1" d="M1295.45,245.85c-13.55-14.37-33.78-21.66-60.13-21.66a89.7,89.7,0,0,0-35.17,6.86A73.87,73.87,0,0,0,1175,248.34c-14.28-16-34.58-24.15-60.42-24.15-8,0-17,2-26.62,6a89.5,89.5,0,0,0-20.08,11.37v-1a12.17,12.17,0,0,0-13-13h-30.35a12.15,12.15,0,0,0-13,13V407.65a12.15,12.15,0,0,0,13,13h30.35c8.36,0,13-4.6,13-13l.34-89c0-16.52,3.16-28.6,9.4-35.89s14.07-10.81,24-10.81c10.58,0,18.89,2.84,24.7,8.44s8.71,14.55,8.71,26.67V407.65a12.15,12.15,0,0,0,13,13h31a12.15,12.15,0,0,0,13-13V313.58c.21-14,3.53-24.58,9.84-31.43a30.11,30.11,0,0,1,23.22-10.2c10.59,0,19,2.85,24.89,8.46s8.86,14.54,8.86,26.65V407.65a12.15,12.15,0,0,0,13,13h31a12.15,12.15,0,0,0,13-13V307.06c0-26.28-6.85-46.88-20.36-61.21Z"/><path class="cls-1" d="M1534.25,268.7a96.48,96.48,0,0,0-37-32.79,106.71,106.71,0,0,0-48.46-11.38c-19.45,0-37.31,4.18-53.1,12.42A94.8,94.8,0,0,0,1358,272.22c-9.2,15.14-13.87,32.83-13.87,52.57,0,24.16,5.82,44,17.26,58.94A98.1,98.1,0,0,0,1401,415.28a119.77,119.77,0,0,0,47.8,10.12c33.62,0,61.5-12.13,83-36.25,2.19-3,3.25-5.66,3.25-8.09,0-2.76-1.19-6.7-6.81-9.87l-22-12.87c-5.54-3.7-11.24-3.52-17.73,2a54.64,54.64,0,0,1-16.89,11c-6.23,2.58-13.91,3.89-22.82,3.89a64.11,64.11,0,0,1-31.08-7.85,33,33,0,0,1-16.56-20.77h131.18c5.41,0,9.69-2,12.73-5.82a21.54,21.54,0,0,0,4.33-13.63,152.24,152.24,0,0,0-2.78-30.91C1544.71,287.32,1540.56,278.05,1534.25,268.7Zm-118.42,15.65h0c8.44-6.42,19.42-9.67,32.61-9.67a43.76,43.76,0,0,1,20.87,4.79,41.21,41.21,0,0,1,14.4,12.47,35,35,0,0,1,5.85,13.06h-87.37C1403.82,296.84,1408.31,290.06,1415.83,284.35Z"/><path class="cls-1" d="M1691.11,227.72c-2.4-2.4-5.61-3.46-9.68-3.18a89.51,89.51,0,0,0-30.6,8.44,68.14,68.14,0,0,0-20.29,14.79v-7.2a12.17,12.17,0,0,0-13-13h-30.35a12.15,12.15,0,0,0-13,13V407.65a12.15,12.15,0,0,0,13,13h30.35a12.15,12.15,0,0,0,13-13V335c0-16.26,3.88-28.71,11.54-37a54.9,54.9,0,0,1,18.84-13.49,64.22,64.22,0,0,1,21-5.08c8.18-.82,12.69-5.42,12.69-12.95v-29c0-4.14-1.18-7.43-3.52-9.78Z"/><path class="cls-1" d="M1801.7,274.68c15.86,0,28.54,6.24,38.73,19,4.81,6.43,11.09,7.8,16.83,5.34l27-10.57c7.06-2.83,8.54-7.4,8.54-10.73a12.71,12.71,0,0,0-2.53-7,105.44,105.44,0,0,0-38.16-34.29c-15.11-7.9-32-11.91-50.37-11.91a105.65,105.65,0,0,0-52.14,13.3A102.88,102.88,0,0,0,1711,274.61a96.36,96.36,0,0,0,.36,100.73A106.05,106.05,0,0,0,1802,425.4c39.5,0,69.08-15.94,87.92-47.33a12.51,12.51,0,0,0,2.12-6.56c0-3.33-1.49-7.9-8.57-10.74L1859,351.26c-6.11-2.62-12.44-1-17.19,4.88-10.22,12.63-23.25,18.77-39.81,18.77a49.21,49.21,0,0,1-25-6.45,45.86,45.86,0,0,1-17.39-17.88,53,53,0,0,1-6.31-25.79c0-14.42,4.62-26.52,13.73-35.94S1787.57,274.68,1801.7,274.68Z"/><path class="cls-1" d="M1948,152.92a31,31,0,0,0-22.19,8.78,28.5,28.5,0,0,0-9.2,21.24,28.88,28.88,0,0,0,9.2,21.59A31,31,0,0,0,1948,213.3a30,30,0,0,0,21.69-8.79,29.18,29.18,0,0,0,9-21.57,28.78,28.78,0,0,0-9-21.22A30,30,0,0,0,1948,152.92Z"/><path class="cls-1" d="M1963.33,227.94h-30.69a12.15,12.15,0,0,0-13,13V407.65a12.15,12.15,0,0,0,13,13h30.69a12.15,12.15,0,0,0,13-13V240.91a12.17,12.17,0,0,0-13-13Z"/><path class="cls-1" d="M2205.66,231.13a12.85,12.85,0,0,0-9.44-3.53h-30a12.17,12.17,0,0,0-13,13v2.09a64.94,64.94,0,0,0-19.36-12.45c-10.31-4.45-22-6.7-34.84-6.7-19.75,0-37.09,4.49-51.56,13.36a90.54,90.54,0,0,0-33.57,36.2c-7.78,15.1-11.72,32.27-11.72,51,0,18.54,3.88,35.59,11.53,50.65a86.48,86.48,0,0,0,33.79,36.78c14.69,8.74,32,13.17,51.53,13.17a89.14,89.14,0,0,0,35.17-7c7.91-3.36,14.28-7.22,19-11.52v1.5a12.17,12.17,0,0,0,13,13h30a12.15,12.15,0,0,0,13-13V240.57A12.84,12.84,0,0,0,2205.66,231.13Zm-50.37,93c0,15.55-4.38,27.93-13,36.79s-20.64,13.32-35.72,13.32c-14.39,0-26.23-4.7-35.19-14s-13.56-21.47-13.56-36.12c0-15.11,4.45-27.44,13.22-36.64s20.7-13.81,35.53-13.81c14.61,0,26.51,4.65,35.37,13.82S2155.29,309,2155.29,324.11Z"/><path class="cls-1" d="M375,116.2a49.47,49.47,0,0,0-47.7-37.78H327a49.47,49.47,0,0,0-47.71,37.78,5.23,5.23,0,0,0,5.11,6.41,5.09,5.09,0,0,0,5-3.82,38.75,38.75,0,0,1,75.49,0,5.11,5.11,0,0,0,5,3.82h0A5.23,5.23,0,0,0,375,116.2Z"/><path class="cls-1" d="M369.94,128.61a11,11,0,0,1-10.84-8.43,32.76,32.76,0,0,0-63.82,0,11,11,0,0,1-10.84,8.43,11.23,11.23,0,0,1-10.94-13.82,55.28,55.28,0,0,1,43.9-41.48,49.64,49.64,0,0,1,6.07-.67l.44,0a55.89,55.89,0,0,1,6.6,0l.41,0a48.94,48.94,0,0,1,6,.67,55.28,55.28,0,0,1,43.92,41.48h0a11.23,11.23,0,0,1-10.94,13.82Zm-.73-11Z"/><path class="cls-2" d="M289.69,144h-.28l.28,0Z"/><path class="cls-1" d="M364,405.48V448a10.46,10.46,0,0,0,10.46,10.46h83.35a10.36,10.36,0,0,0,10.44-11.13c0-.05,0-.1,0-.15-.75-7.46-1.39-14.94-2-22.42a10.37,10.37,0,0,0-1.59-4.7l-43.28-68.35a10.47,10.47,0,0,0-17.05-.89l-38,48.15A10.52,10.52,0,0,0,364,405.48Z"/><path class="cls-3" d="M279.2,144s-40.21.15-53,.18c-8.05,0-10.35,2.1-11.08,10.16Q209.07,221.94,203,289.5,196,368.24,188.88,447c0,.14,0,.27,0,.41a10.42,10.42,0,0,0,10.45,11.1h79.94A10.46,10.46,0,0,0,289.69,448V154.51A10.49,10.49,0,0,0,279.2,144Z"/><path class="cls-1" d="M443.25,199.87a10.53,10.53,0,0,0,2.13-7.32q-1.74-19.25-3.48-38.5c-.74-8.13-2.84-9.85-11.22-9.86-14.42,0-56.24-.17-56.24-.17A10.46,10.46,0,0,0,364,154.48v117.7a10.46,10.46,0,0,0,18.75,6.38Z"/></svg>