<svg width="1440" height="189" preserveAspectRatio="none" fill="none" xmlns="http://www.w3.org/2000/svg">
<path d="M188.857 41.0815L192.759 36.781L204.021 28.2886C208.25 25.0994 213.83 24.2253 218.759 25.6191C228.21 28.2918 242.78 31.9799 243.758 31.405C244.355 31.0542 245.988 29.2781 247.932 27.1646C250.572 24.2942 253.784 20.8016 255.748 19.4123L267.419 13.0024C270.803 11.3769 274.718 12.2335 277.324 15.1695L277.97 15.8972L282.398 21.1703L290.201 22.8726C290.984 23.0434 291.707 23.4644 292.286 24.0858L296.5 28.613C298.342 30.5911 301.197 30.6986 303.151 28.8635L303.741 28.3085C305.071 27.0594 306.942 26.8659 308.449 27.8215L314.101 31.405L323.214 36.781H324.734C328.731 36.781 332.519 38.8072 335.059 42.3044L336.004 43.6044H343.358C347.315 43.6044 351.18 42.2486 354.445 39.7149L357.227 37.5564C357.877 37.0513 358.648 36.781 359.437 36.781H367.499C368.51 36.781 369.466 37.2987 370.1 38.1894L376.611 47.3263L383.325 43.6044L395.635 47.3263H408.745L426.983 52.3452L446.954 40.9164H461.662L476.21 43.6044L486.593 31.9532C486.906 31.602 487.328 31.405 487.769 31.405H497.793L508.664 23.1341L522.413 19.4123L534.083 10.3143L552.149 1.62996C557.552 -1.1653 563.879 -0.320735 568.561 3.82072L568.985 4.19558L599.151 23.1341L610.821 31.405L629.52 34.6571L640.668 31.405L641.654 30.2025C642.913 28.6658 645.035 28.5815 646.387 30.0146L650.348 34.2142L657.847 34.6571L660.116 32.5262C664.73 28.1933 670.535 25.8221 676.528 25.8221L683.562 23.1341L698.43 13.4159H710.421L729.126 19.4123L735.52 25.8221L751.667 28.5102L755.984 36.781H782.842L792.612 32.1618L806.048 16.6992C807.828 14.6505 810.4 13.7568 812.888 14.3226L823.122 19.4123L835.425 25.8221L842.474 16.7242L846.623 12.7639C848.038 11.4125 850.154 11.6218 851.341 13.2308L855.903 19.4123L859.74 28.5102L869.534 33.6174C871.062 34.4142 872.513 35.3891 873.862 36.5263L879.564 41.33L885.438 39.4931C890.884 37.7904 896.72 39.1618 901.119 43.1777L902.266 44.2248H907.526C908.972 44.2248 910.414 44.3429 911.842 44.5773L924.042 37.8332L924.483 37.4838C929.349 33.6241 935.706 33.1539 940.973 36.264L958.615 46.0022L969.852 55.7761L983.411 60.3038L993.888 69.2046L1003.9 69.7959C1004.34 69.8218 1004.75 70.0435 1005.05 70.4127L1009.07 75.4244L1026.96 81.1553L1029.53 80.8342L1044.22 81.7017L1059.42 91.557L1066.23 93.7397L1082.08 90.3565L1095.18 91.1297L1107.64 88.139L1114.17 92.2518L1121.1 83.5113C1121.77 82.6592 1122.75 82.1986 1123.76 82.2582L1131.81 82.7338C1132.6 82.7803 1133.35 83.0957 1133.98 83.6385L1136.66 85.9581C1139.8 88.6809 1143.6 90.2629 1147.55 90.4963L1154.9 90.9301L1155.9 89.6874C1158.6 86.3448 1162.47 84.5448 1166.46 84.7805L1167.98 84.8702L1177.33 80.0389L1183.14 76.7937C1184.69 75.9283 1186.55 76.2319 1187.82 77.5577L1188.38 78.1468C1190.25 80.0947 1193.11 80.1557 1195.04 78.2889L1199.45 74.0164C1200.06 73.4299 1200.8 73.0522 1201.59 72.9278L1209.46 71.6881L1214.12 66.6832L1214.8 65.9946C1217.54 63.2163 1221.49 62.5918 1224.79 64.4146L1236.15 71.5042C1238.05 73.0075 1241.1 76.6849 1243.6 79.7071C1245.45 81.9324 1247 83.8024 1247.58 84.1878C1248.53 84.8197 1263.25 81.9959 1272.81 79.8843C1277.8 78.7831 1283.33 79.9851 1287.4 83.4194L1298.26 92.5645L1301.96 97.0894C1304.39 100.061 1307.38 102.375 1310.71 103.859L1318.43 109.242L1322.55 112.121H1331.08L1337.84 109.242H1346.9L1373.51 81.4234C1375.64 79.2007 1379.25 79.4068 1381.11 81.8571L1392.67 97.0894L1403.79 100.753L1412.06 109.242L1421.24 118.967L1427.16 126.252L1433.58 130.936L1440 135.099V184H568.257L360.207 172.923L192.759 173.457L0 172.906V106.483L7.27319 109.828L18.0016 106.496L25.9486 100.409H30.7908L37.5493 96.4652L41.3892 92.7505L48.2002 89.5864L56.942 97.4016L61.9646 92.7505L66.7109 90.8271L73.084 83.9939L77.6041 76.751L85.9484 70.448L94.6902 62.3441L111.379 47.3263L131.736 62.3441L163.888 57.1656L179.811 47.3263C183.201 46.0405 186.293 43.9061 188.857 41.0815Z" fill="#F3F4F6"/>
<path d="M1251.14 123.755L1247.24 121.791L1235.98 117.914C1231.75 116.458 1226.17 116.059 1221.24 116.696C1211.79 117.916 1197.22 119.6 1196.24 119.337C1195.65 119.177 1194.01 118.366 1192.07 117.401C1189.43 116.091 1186.22 114.496 1184.25 113.862L1172.58 110.936C1169.2 110.194 1165.28 110.585 1162.68 111.925L1162.03 112.257L1157.6 114.665L1149.8 115.442C1149.02 115.52 1148.29 115.712 1147.71 115.996L1143.5 118.062C1141.66 118.965 1138.8 119.015 1136.85 118.177L1136.26 117.923C1134.93 117.353 1133.06 117.265 1131.55 117.701L1125.9 119.337L1116.79 121.791H1115.27C1111.27 121.791 1107.48 122.716 1104.94 124.313L1104 124.906H1096.64C1092.69 124.906 1088.82 124.287 1085.55 123.131L1082.77 122.145C1082.12 121.915 1081.35 121.791 1080.56 121.791H1072.5C1071.49 121.791 1070.53 122.028 1069.9 122.434L1063.39 126.605L1056.67 124.906L1044.36 126.605H1031.26L1013.02 128.897L993.046 123.679H978.338L963.79 124.906L953.407 119.587C953.094 119.427 952.671 119.337 952.231 119.337H942.207L931.336 115.561L917.587 113.862L905.917 109.709L887.851 105.744C882.448 104.468 876.121 104.854 871.439 106.744L871.015 106.915L840.849 115.561L829.179 119.337L810.48 120.822L799.332 119.337L798.346 118.788C797.087 118.087 794.965 118.048 793.613 118.702L789.652 120.62L782.153 120.822L779.884 119.849C775.27 117.871 769.465 116.788 763.472 116.788L756.438 115.561L741.57 111.125H729.579L710.874 113.862L704.48 116.788L688.333 118.016L684.016 121.791H657.158L647.388 119.683L633.952 112.624C632.172 111.688 629.6 111.28 627.112 111.539L616.878 113.862L604.575 116.788L597.526 112.635L593.377 110.827C591.962 110.21 589.846 110.306 588.659 111.04L584.097 113.862L580.26 118.016L570.466 120.347C568.938 120.711 567.487 121.156 566.138 121.675L560.436 123.868L554.562 123.029C549.116 122.252 543.28 122.878 538.881 124.712L537.734 125.19H532.474C531.028 125.19 529.586 125.243 528.158 125.351L515.958 122.272L515.517 122.112C510.652 120.35 504.294 120.135 499.027 121.555L481.385 126.001L470.148 130.463L456.589 132.53L446.112 136.593L436.102 136.863C435.662 136.875 435.249 136.976 434.953 137.145L430.929 139.433L413.043 142.049L410.467 141.903L395.779 142.299L380.58 146.798L373.768 147.794L357.917 146.25L344.825 146.603L332.361 145.237L325.826 147.115L318.905 143.125C318.23 142.736 317.251 142.525 316.243 142.553L308.191 142.77C307.403 142.791 306.646 142.935 306.019 143.183L303.341 144.242C300.196 145.485 296.399 146.207 292.447 146.314L285.103 146.512L284.1 145.944C281.403 144.418 277.527 143.597 273.536 143.704L272.017 143.745L262.67 141.54L256.861 140.058C255.312 139.663 253.452 139.802 252.182 140.407L251.617 140.676C249.751 141.565 246.894 141.593 244.964 140.741L240.548 138.79C239.941 138.522 239.199 138.35 238.41 138.293L230.539 137.727L225.876 135.442L225.197 135.128C222.459 133.86 218.51 133.574 215.205 134.407L203.845 137.643C201.947 138.33 198.9 140.008 196.396 141.388C194.552 142.404 193.002 143.258 192.422 143.434C191.472 143.722 176.752 142.433 167.191 141.469C162.204 140.966 156.673 141.515 152.596 143.083L141.739 147.258L138.04 149.323C135.61 150.68 132.62 151.737 129.293 152.414L121.569 154.871L117.452 156.186H108.921L102.16 154.871H93.0991L64.8614 141.396C63.3462 140.673 61.5693 140.758 60.1307 141.624L47.3308 149.323L36.2111 150.996L27.9439 154.871L18.7582 159.311L12.8372 162.637L6.41861 164.775L0 166.676V189H871.743H1080.56H1247.24H1440V153.612L1432.73 155.139L1422 153.618L1414.05 150.839H1409.21L1402.45 149.038L1398.61 147.343L1391.8 145.898L1383.06 149.466L1378.04 147.343L1373.29 146.465L1366.92 143.345L1362.4 140.039L1354.05 137.161L1345.31 133.461L1328.62 126.605L1308.26 133.461L1276.11 131.097L1260.19 126.605C1256.8 126.019 1253.71 125.044 1251.14 123.755Z" fill="#F9FAFB"/>
</svg>
