<svg width="292" height="55" fill="none" xmlns="http://www.w3.org/2000/svg"><path d="M101.929 12.5009h8.578l18.179 29.6496V12.5009h7.919v42.0122h-8.52L109.847 24.925v29.5881h-7.918V12.5009zM172 54.5131h-7.379v-4.6928c-1.68 3.3026-5.098 5.1621-9.417 5.1621-6.84 0-11.281-4.9216-11.281-12.0048V24.2622h7.379V41.429c0 4.1414 2.521 7.0216 6.3 7.0216 4.14 0 7.019-3.2409 7.019-7.6815V24.2622H172v30.2509zM197.679 54.5131l-7.08-10.0836-7.08 10.0836h-7.86l10.92-15.7854L176.5 24.2622h8.039l6.06 8.7051 5.998-8.7051h8.1l-10.14 14.4655 10.92 15.7854h-7.798zM220.475 15.1405v9.1216h8.399v6.1828h-8.399v15.0169c0 .5044.2.9881.556 1.345.357.3569.84.5578 1.344.5586h6.499v7.1359h-4.86c-6.6 0-10.918-3.8422-10.918-10.5587V30.4508h-5.94v-6.1887h3.726c1.739 0 2.75-1.0353 2.75-2.7482v-6.3734h6.843zM247.476 44.9985V12.5009h7.916v30.0075c0 8.1038-3.899 12.0047-10.498 12.0047h-9.215v-7.136h9.42c.63 0 1.235-.2506 1.681-.6967.446-.446.696-1.0511.696-1.6819zM260.134 40.4084h7.622c.422 4.6928 3.542 7.6815 8.581 7.6815 4.501 0 7.623-1.798 7.623-5.5199 0-9.0043-22.574-2.7629-22.574-18.8475.005-6.9013 5.945-11.6968 14.479-11.6968 8.881 0 14.879 5.1005 15.245 12.9639h-7.581c-.358-3.6604-3.225-6.1212-7.678-6.1212-4.14 0-6.72 1.9211-6.72 4.86 0 9.3035 22.868 2.3464 22.868 18.7272C291.999 50.2574 285.578 55 276.34 55c-9.539 0-15.778-5.7633-16.197-14.5858" fill="#003543"/><path d="M45.3984 54.4574h30.0825c.9555.0001 1.8941-.2515 2.7216-.7295.8274-.478 1.5145-1.1655 1.992-1.9935.4776-.828.7287-1.7671.7283-2.723-.0004-.9559-.2524-1.8949-.7307-2.7224L59.9896 11.2807c-.4775-.8277-1.1644-1.51513-1.9917-1.99306-.8272-.47793-1.7657-.72954-2.721-.72954s-1.8938.25161-2.721.72954c-.8273.47793-1.5143 1.16536-1.9918 1.99306l-5.1657 8.9574L35.2986 2.72223c-.4779-.8277-1.1651-1.51499-1.9926-1.992833C32.4785.251557 31.5399 0 30.5844 0c-.9554 0-1.894.251557-2.7215.729397-.8275.477843-1.5148 1.165133-1.9927 1.992833L.730687 46.289c-.478259.8275-.73027075 1.7665-.73068648 2.7224-.00041573.9559.25077848 1.895.72831848 2.723.477541.828 1.164581 1.5155 1.992031 1.9935s1.76613.7296 2.72162.7295H24.3252c7.4818 0 12.9993-3.2879 16.7959-9.7024l9.2173-15.9701 4.937-8.5468 14.817 25.6725h-19.754l-4.94 8.5468zm-21.381-8.5556l-13.1781-.0029 19.7539-34.2281 9.8565 17.1141-6.5993 11.4387c-2.5213 4.1619-5.3856 5.6782-9.833 5.6782z" fill="#00DC82"/></svg>
