<?xml version="1.0" encoding="UTF-8"?>
<svg width="144px" height="168px" viewBox="0 0 144 168" version="1.1" xmlns="http://www.w3.org/2000/svg" xmlns:xlink="http://www.w3.org/1999/xlink">
    <!-- Generator: Sketch 52.6 (67491) - http://www.bohemiancoding.com/sketch -->
    <title>paris-illo</title>
    <desc>Created with Sketch.</desc>
    <defs>
        <path d="M82,28.6888588 C117.031353,33.5564143 144,63.6287747 144,100 C144,139.764502 111.764502,172 72,172 C32.235498,172 0,139.764502 0,100 C0,63.9756242 26.4567331,34.1305496 61,28.8349755 L61,0 L82,0 L82,28.6888588 Z" id="path-1"></path>
        <path d="M82,28.6888588 C117.031353,33.5564143 144,63.6287747 144,100 C144,139.764502 111.764502,172 72,172 C32.235498,172 0,139.764502 0,100 C0,63.9756242 26.4567331,34.1305496 61,28.8349755 L61,0 L82,0 L82,28.6888588 Z" id="path-3"></path>
    </defs>
    <g id="logo" stroke="none" stroke-width="1" fill="none" fill-rule="evenodd">
        <g id="paris-illo" transform="translate(0.000000, -4.000000)">
            <g id="Clipped">
                <mask id="mask-2" fill="white">
                    <use xlink:href="#path-1"></use>
                </mask>
                <g id="paris-illo-a"></g>
                <g id="Group" mask="url(#mask-2)">
                    <g transform="translate(16.000000, 4.000000)">
                        <polygon id="Path" stroke="#ED1C40" points="51.922 12.237 58.318 12.237 60.246 15.674 60.246 22.394 58.899 23.921 51.922 23.921 50.235 22.394 50.235 15.674"></polygon>
                        <path d="M50.306921,18.4959742 L52.321921,21.4489342 C48.672456,68.6757171 45.922233,94.8576824 44.071252,99.99483 L66.69074,99.99483 C61.321403,59.8431329 58.636734,33.6611676 58.636734,21.4489342 L60.246497,18.4959742" id="Path" stroke="#313D3E"></path>
                        <polyline id="Path" stroke="#ED1C40" points="50.148 17.877 52.245 16.081 58.124 16.081 60.246 17.877"></polyline>
                        <path d="M46.557093,139.167348 C48.765771,129.71866 50.079742,123.147414 50.499007,119.453608 L60.246497,119.453608 C62.219278,131.275601 63.540024,137.846847 64.208734,139.167348 L46.557093,139.167348 Z" id="Path" stroke="#313D3E"></path>
                        <polygon id="Path" stroke="#313D3E" points="26.525 144.482 84.024 144.482 84.024 140.138 84.024 134.746 26.525 134.687 26.525 139.584"></polygon>
                        <path d="M26.495323,139.174464 L83.929126,139.174464 L26.495323,139.174464 Z M26.927891,144.481726 L0.9243114,182.656739 L18.88331,182.656739 C25.727717,162.593728 37.79589,152.528084 55.087831,152.459806 C72.379772,152.391527 85.141227,162.82576 93.372196,183.762505 L109.896813,183.762505 L84.331984,144.62543 L26.927891,144.481726 Z" id="Shape" stroke="#313D3E"></path>
                        <path d="M19.618119,180.707904 L30.357965,180.707904 C34.267932,166.618557 42.5739,159.573883 55.27587,159.573883 C67.977839,159.573883 76.171879,166.618557 79.857989,180.707904 L92.128987,180.879725" id="Path" stroke="#313D3E"></path>
                        <polyline id="Path" stroke="#313D3E" points="55.335 23.903 55.335 65.523 59.189 100.427"></polyline>
                        <path d="M55.41324,65.8851808 L51.391195,100.426791" id="Path" stroke="#313D3E"></path>
                        <polygon id="Path" stroke="#313D3E" points="40.906 110.648 69.78 110.991 69.115 108.876 41.63 108.876"></polygon>
                        <polygon id="Path" stroke="#313D3E" points="23.45 149.572 87.671 149.572 88.777 151.588 22.349 151.588"></polygon>
                        <path d="M21.298828,176.670103 C31.132214,158.10693 37.402247,147.377471 40.108926,144.481726 M89.471068,175.036871 C79.260132,156.545594 73.20791,146.408447 71.314402,144.62543 M29.841822,139.127148 L29.841822,148.922021 M33.101759,139.127148 L33.101759,148.922021 M36.275908,139.127148 L36.275908,148.922021 M39.535845,139.127148 L39.535845,148.922021 M42.795782,139.127148 L42.795782,148.922021 M45.969931,139.127148 L45.969931,148.922021 M49.229868,139.127148 L49.229868,148.922021 M52.404018,139.127148 L52.404018,148.922021 M55.663955,139.127148 L55.663955,148.922021 M58.923892,139.127148 L58.923892,148.922021 M62.098041,139.127148 L62.098041,148.922021 M65.357978,139.127148 L65.357978,148.922021 M68.617915,139.127148 L68.617915,148.922021 M71.792065,139.127148 L71.792065,148.922021 M75.052002,139.127148 L75.052002,148.922021 M78.226151,139.127148 L78.226151,148.922021 M81.486088,139.127148 L81.486088,148.922021 M59.790984,103.442319 L60.783504,108.87592 M50.92596,103.41203 L49.957318,108.972509 M15.815313,160.921469 L29.865028,160.921469 M81.902674,161.754963 L95.418088,161.754963 M26.496097,144.62543 L26.496097,149.607562 M84.512098,145.015406 L84.512098,149.585063" id="Shape" stroke="#313D3E"></path>
                        <polyline id="Path" stroke="#313D3E" points="33.74 131.653 46.994 124.756 38.73 117.178 49.585 110.991"></polyline>
                        <path d="M41.148681,110.648295 C46.229702,115.354342 48.770212,117.707365 48.770212,117.707365 L36.552414,124.073904 L45.277674,132.374001 M45.477132,110.648295 C41.40056,125.110001 38.967426,133.122854 38.177729,134.686853 M65.886741,110.990658 C68.94759,123.801124 71.205925,131.699856 72.661748,134.686853" id="Shape" stroke="#313D3E"></path>
                        <polyline id="Path" stroke="#313D3E" points="61.52 110.991 71.998 117.707 64.156 124.756 77.21 131.825 72.813 134.746"></polyline>
                        <polyline id="Path" stroke="#313D3E" points="69.921 110.991 62.578 117.178 74.504 124.522 65.992 131.825 72.697 134.687"></polyline>
                        <polyline id="Path" stroke="#313D3E" points="42.561 104.247 46.108 108.973 50.867 104.247 55.365 108.876 60.246 104.662 64.915 108.876 67.689 104.662"></polyline>
                        <polyline id="Path" stroke="#313D3E" points="41.586 108.876 47.116 103.302 49.866 108.973 55.652 103.302 60.839 108.876 64.4 103.302 68.926 108.25"></polyline>
                        <path d="M55.504255,103.302405 L55.504255,108.87592" id="Path" stroke="#313D3E"></path>
                        <polyline id="Path" stroke="#313D3E" points="9.495 170.121 29.368 161.187 26.705 165.819 24.232 170.121 15.815 160.914 12.753 165.518"></polyline>
                        <polyline id="Path" stroke="#313D3E" points="15.815 160.4 35.01 151.588 21.94 151.588 29.251 161.187"></polyline>
                        <path d="M28.6507,151.587843 L16.387437,170.156301 M32.369221,156.961922 L18.853985,156.961922 M26.954423,165.912012 L12.551568,165.639438" id="Shape" stroke="#313D3E"></path>
                        <polyline id="Path" stroke="#313D3E" points="89.184 152.357 81.798 161.187 101.216 170.895"></polyline>
                        <polyline id="Path" stroke="#313D3E" points="87.37 171.106 95.479 161.748 76.401 151.588"></polyline>
                        <path d="M82.348142,151.587843 L94.218601,170.89483 M79.024798,156.316395 L92.136844,156.316395 M85.074159,166.317869 L97.99563,165.912012" id="Shape" stroke="#313D3E"></path>
                        <polyline id="Path" stroke="#313D3E" points="60.753 100.427 65.868 94.989 57.835 89.064 64.383 82.156 56.463 76.143 62.72 70.306 55.34 65.022 61.749 59.54 50.023 50.059 59.846 42.141 51.388 34.289 58.867 28.062 55.34 23.921"></polyline>
                        <polyline id="Path" stroke="#313D3E" transform="translate(52.927000, 62.174000) scale(-1, 1) translate(-52.927000, -62.174000) " points="56.034 100.427 60.549 94.989 53.117 89.064 58.893 82.156 51.745 76.143 57.572 70.306 50.622 65.022 56.601 59.54 45.305 50.059 55.128 42.141 46.669 34.289 54.149 28.062 50.622 23.921"></polyline>
                        <polyline id="Path" stroke="#313D3E" points="52.853 100.427 65.022 88.438 57.294 82.271 63.5 76.571 55.542 70.306 62.385 64.986 49.668 54.671 60.177 46.074 51.073 38.232 59.348 31.668 51.994 24.981"></polyline>
                        <polyline id="Path" stroke="#313D3E" points="46.14 100.427 58.13 88.775 47.541 76.615 55.108 70.306 48.613 65.523 61.089 54.893 50.414 46.074 59.736 38.232 51.652 31.094 58.741 25.203"></polyline>
                        <polyline id="Path" stroke="#313D3E" points="57.408 99.995 46.095 88.775 53.199 82.94"></polyline>
                        <polyline id="Path" stroke="#313D3E" points="64.848 99.995 52.49 88.497 57.627 82.271"></polyline>
                        <polyline id="Path" stroke="#ED1C40" points="41.624 108.876 39.98 100.427 70.727 100.427 69.311 108.876"></polyline>
                        <path d="M55.341787,0.03780069 L55.341787,12.2371134" id="Path" stroke="#ED1C40"></path>
                        <path d="M43.299352,103.302405 C36.962753,123.669449 32.732429,135.624429 30.608379,139.167348 L43.299352,139.167348 C47.399488,124.351636 49.449557,114.959406 49.449557,110.990658 L61.339077,110.990658 C64.896514,128.38173 67.174768,137.77396 68.17384,139.167348 L79.579028,139.167348 C72.315465,118.514319 68.263002,106.559338 67.421637,103.302405 L43.299352,103.302405 Z" id="Path" stroke="#313D3E"></path>
                    </g>
                </g>
            </g>
            <g id="Clipped">
                <mask id="mask-4" fill="white">
                    <use xlink:href="#path-3"></use>
                </mask>
                <g id="paris-illo-a"></g>
                <path d="M61,28.8349755 C26.4567331,34.1305496 0,63.9756242 0,100 C0,139.764502 32.235498,172 72,172 C111.764502,172 144,139.764502 144,100 C144,63.6287747 117.031353,33.5564143 82,28.6888588 L82,31.7193484 C115.368654,36.5636847 141,65.2885815 141,100 C141,138.107648 110.107648,169 72,169 C33.8923523,169 3,138.107648 3,100 C3,65.6361414 28.1206308,37.1395206 61,31.8720297 L61,28.8349755 Z" id="Path" fill="#313D3E" mask="url(#mask-4)"></path>
            </g>
        </g>
    </g>
</svg>