<svg width="43" height="43" viewBox="0 0 43 43" fill="none" xmlns="http://www.w3.org/2000/svg">
<path d="M21.679 4.18632L16.9776 0.0981445L13.5027 34.9157L15.1379 35.3246H17.3864L18.8173 34.4388H20.9295L21.679 4.18632Z" fill="#00DC82"/>
<path d="M30.3852 23.3133L31.4014 26.8787C31.4561 27.1148 32.1432 28.9694 32.1805 29.072L31.0101 28.8394L30.2133 23.1664C30.2353 23.167 30.3662 23.2612 30.3852 23.3133Z" fill="#00DC82"/>
<path d="M29.4321 23.682C29.5025 23.6056 30.1369 23.1215 30.2157 23.1677L31.0669 28.8444L28.8767 28.6128L25.4198 26.8299L29.4321 23.682Z" fill="#33E39B"/>
<path d="M28.1805 37.0842L32.1832 29.0693L31.0129 28.8366L25.9022 37.7171C25.9504 37.7107 28.1429 37.125 28.1805 37.0842Z" fill="#00DC82"/>
<path d="M23.5987 36.9068C23.6344 37.0043 25.815 37.7315 25.9054 37.7189L31.0686 28.8354L30.0086 28.6247L25.4216 26.829L23.5987 36.9068Z" fill="#33E39B"/>
<path opacity="0.75" d="M27.3031 28.1075L29.0905 28.4628L30.1457 30.4587L29.5614 31.5074L28.0635 30.185L27.3031 28.1075Z" fill="#33E39B"/>
<path opacity="0.75" d="M25.4206 26.8299L24.0935 34.1881L30.6662 26.196L30.4676 24.8476L26.9924 25.5969L25.4206 26.8299Z" fill="#99F1CD"/>
<path d="M35.6539 36.7004L32.8194 39.0901C32.6266 39.2369 31.2173 40.6245 31.139 40.7005L30.8709 39.5378L35.7173 36.4833C35.7258 36.5037 35.6936 36.6617 35.6539 36.7004Z" fill="#00DC82"/>
<path d="M34.9257 35.9806C35.0243 36.0135 35.7261 36.3934 35.7163 36.4842L30.8888 39.5898L30.2013 37.4975L30.4086 33.6134L34.9257 35.9806Z" fill="#33E39B"/>
<path d="M22.1904 40.3385L31.1419 40.6999L30.8739 39.5372L20.6783 38.5206C20.704 38.5619 22.1378 40.321 22.1904 40.3385Z" fill="#00DC82"/>
<path d="M20.4722 36.0875C20.3979 36.1601 20.6295 38.4471 20.6781 38.5244L30.898 39.5876L30.6551 38.5345L30.4104 33.6146L20.4722 36.0875Z" fill="#33E39B"/>
<path opacity="0.75" d="M30.0167 35.8551L30.4262 37.6308L29.039 39.4121L27.8429 39.3096L28.4342 37.4009L30.0167 35.8551Z" fill="#33E39B"/>
<path opacity="0.75" d="M30.4093 33.6136L23.1546 35.4227L33.1399 38.1371L34.288 37.4026L32.1788 34.541L30.4093 33.6136Z" fill="#99F1CD"/>
<path opacity="0.75" d="M17.0964 15.4152L17.0964 9.83848L21.6546 14.7883L21.5874 17.4113L19.4303 16.477L17.0964 15.4152Z" fill="#99F1CD"/>
<path d="M23.6384 13.1314L26.1132 15.9917C26.2634 16.1858 27.7237 17.6138 27.8037 17.6931L26.4366 17.9231L23.3945 13.0626C23.4188 13.0549 23.5978 13.0912 23.6384 13.1314Z" fill="#00DC82"/>
<path d="M22.7375 13.8263C22.7852 13.7302 23.2926 13.0503 23.3963 13.0626L26.4992 17.9059L24.0189 18.5217L19.5613 18.2042L22.7375 13.8263Z" fill="#33E39B"/>
<path d="M25.5932 35.7748L27.8041 17.69L26.4371 17.9199L23.276 36.2596C23.276 36.2596 25.5678 35.826 25.5932 35.7748Z" fill="#00DC82"/>
<path d="M17.5437 36.166L23.2761 36.166L26.4976 17.8979L25.2594 18.1062L19.5629 18.2035L14.7347 35.882L16.0219 35.1963L17.5437 36.166Z" fill="#33E39B"/>
<path opacity="0.75" d="M22.1068 18.6561L24.1946 18.3048L26.1111 19.7225L25.8745 20.8971L23.7325 20.2592L22.1068 18.6561Z" fill="#33E39B"/>
<path opacity="0.75" d="M19.562 18.2041L20.9301 25.3992L25.0475 15.6479L24.3143 14.4961L20.8063 16.4892L19.562 18.2041Z" fill="#99F1CD"/>
<path d="M12.5212 17.5007L8.03346 15.1934L7.85181 17.8827L14.979 34.6723L16.3771 33.368L12.5212 17.5007Z" fill="#33E39B"/>
<path d="M10.072 22.8963L8.91469 20.3315L8.7583 19.334H12.9276L14.0114 23.6863L10.072 22.8963Z" fill="#7FEDC0"/>
<path d="M8.03625 15.1992L6 20.9007L12.0819 34.931L14.992 34.6852L8.97726 20.5195L8.03625 15.1992Z" fill="#00DC82"/>
<path d="M17.0988 0L11.2556 3.89546L13.3657 34.978H17.0988V0Z" fill="#33E39B"/>
<path opacity="0.75" d="M17.0895 30.7372L17.0895 25.1665L12.8257 30.1753L12.8257 32.943L14.6524 31.9144L17.0895 30.7372Z" fill="#99F1CD"/>
</svg>
