<svg width="43" height="43" viewBox="0 0 43 43" fill="none" xmlns="http://www.w3.org/2000/svg">
<path d="M8.34647 17.8941L7.10531 22.2736C7.03846 22.5636 6.19927 24.8416 6.15376 24.9676L7.58321 24.6819L8.55647 17.7137C8.52956 17.7145 8.36967 17.8302 8.34647 17.8941Z" fill="#00DC82"/>
<path d="M9.51213 18.3469C9.42611 18.253 8.6512 17.6584 8.55504 17.7151L7.51534 24.6878L10.1904 24.4034L14.4128 22.2135L9.51213 18.3469Z" fill="#33E39B"/>
<path d="M11.0411 34.8088L6.15208 24.9641L7.58148 24.6782L13.8238 35.5862C13.7648 35.5783 11.0869 34.8589 11.0411 34.8088Z" fill="#00DC82"/>
<path d="M16.6372 34.5905C16.5935 34.7103 13.9302 35.6035 13.8197 35.588L7.51335 24.6763L8.80808 24.4176L14.4106 22.212L16.6372 34.5905Z" fill="#33E39B"/>
<path opacity="0.75" d="M12.1126 23.7823L9.9296 24.2186L8.64073 26.6702L9.35441 27.9583L11.184 26.334L12.1126 23.7823Z" fill="#33E39B"/>
<path opacity="0.75" d="M14.4119 22.2133L16.0328 31.2513L8.00487 21.4346L8.24754 19.7783L12.4921 20.6987L14.4119 22.2133Z" fill="#99F1CD"/>
<path d="M29.2828 6.93318L22.7941 11.5793C22.3856 11.9039 18.7445 14.1068 18.5443 14.2296L20.8203 15.416L29.7684 6.91724C29.7306 6.88859 29.3845 6.87098 29.2828 6.93318Z" fill="#00DC82"/>
<path d="M30.3922 8.8419C30.3765 8.61795 29.9613 6.94494 29.7672 6.9167L20.7229 15.3483L24.709 17.9124L32.9021 19.5677L30.3922 8.8419Z" fill="#33E39B"/>
<path d="M14.5132 33.1486L18.5487 14.2221L20.8248 15.4083L17.4874 37.2905C17.415 37.2145 14.5214 33.2681 14.5132 33.1486Z" fill="#00DC82"/>
<path d="M22.4373 39.0307C22.2465 39.147 17.6116 37.4323 17.4767 37.289L20.7302 15.331L22.7918 16.4057L32.8984 19.5639L22.4373 39.0307Z" fill="#33E39B"/>
<path opacity="0.75" d="M28.028 19.1831L24.5521 17.3711L20.1035 19.3159L19.6771 21.874L23.965 21.6631L28.028 19.1831Z" fill="#33E39B"/>
<path opacity="0.75" d="M32.902 19.5663L25.2574 33.7746L24.9496 11.4193L27.092 9.41168L31.9186 15.3647L32.902 19.5663Z" fill="#99F1CD"/>
</svg>
