<svg width="43" height="43" viewBox="0 0 43 43" fill="none" xmlns="http://www.w3.org/2000/svg">
<path d="M9.96049 13.278L8.40837 17.5251C8.32293 17.8058 7.29676 20.0215 7.24103 20.1441L8.86655 19.821L10.204 13.0976C10.1736 13.0992 9.98889 13.2158 9.96049 13.278Z" fill="#00DC82"/>
<path d="M11.2625 13.6729C11.1684 13.5857 10.3128 13.0412 10.2022 13.099L8.78943 19.829L11.8229 19.4647L16.6703 17.2181L11.2625 13.6729Z" fill="#33E39B"/>
<path d="M15.8038 36.7233L7.23906 20.1407L8.86453 19.8175L18.5488 36.0371C18.5488 36.0371 15.8539 36.7699 15.8038 36.7233Z" fill="#00DC82"/>
<path d="M26.5476 36.4366L18.5494 36.0394L8.78752 19.8188L10.2598 19.5262L16.6679 17.2175L29.5666 34.9271L27.837 34.707L26.5476 36.4366Z" fill="#33E39B"/>
<path opacity="0.75" d="M14.0172 18.8027L11.5347 19.2961L9.99429 21.6939L10.7571 22.9063L12.8805 21.2843L14.0172 18.8027Z" fill="#33E39B"/>
<path opacity="0.75" d="M16.6694 17.2182L18.1937 25.8405L9.45363 16.6891L9.78434 15.0906L14.5509 15.8295L16.6694 17.2182Z" fill="#99F1CD"/>
<path d="M33.5266 14.927L34.715 18.1788C34.7804 18.3937 35.5661 20.0902 35.6088 20.1841L34.3642 19.9367L33.3402 14.7889C33.3635 14.7901 33.5049 14.8794 33.5266 14.927Z" fill="#00DC82"/>
<path d="M32.5308 15.2274C32.6028 15.1607 33.258 14.7438 33.3427 14.788L34.4243 19.9409L32.1017 19.662L28.3903 17.9419L32.5308 15.2274Z" fill="#33E39B"/>
<path d="M29.6843 34.9732L35.6114 20.1802L34.3668 19.9327L26.5552 32.2125C26.5552 32.2125 29.6459 35.0088 29.6843 34.9732Z" fill="#00DC82"/>
<path d="M20.8277 32.6565L27.8798 34.3707L34.4258 19.933L33.2985 19.7089L28.3922 17.9412L18.5162 31.5007L19.8405 31.3322L20.8277 32.6565Z" fill="#33E39B"/>
<path opacity="0.75" d="M30.4218 19.1554L32.3226 19.5331L33.502 21.369L32.9179 22.2973L31.2921 21.0554L30.4218 19.1554Z" fill="#33E39B"/>
<path opacity="0.75" d="M28.3911 17.9416L27.2239 24.5433L33.9158 17.5365L33.6626 16.3126L30.0131 16.8783L28.3911 17.9416Z" fill="#99F1CD"/>
<path d="M21.1576 3.4483L17.6526 9.61912C17.4439 10.0334 15.326 13.1714 15.2102 13.3453L17.4922 13.4428L21.5439 3.25298C21.5027 3.24419 21.2165 3.36011 21.1576 3.4483Z" fill="#00DC82"/>
<path d="M22.7671 4.56591C22.6707 4.39193 21.7101 3.20412 21.5428 3.25439L17.3882 13.4264L21.5664 13.9879L28.8034 12.238L22.7671 4.56591Z" fill="#33E39B"/>
<path d="M19.8922 36.0398L15.2109 13.3393L17.4929 13.4365L23.9523 36.3096C23.9523 36.3096 19.9435 36.1327 19.8922 36.0398Z" fill="#00DC82"/>
<path d="M27.6244 31.8051C27.5138 31.9702 23.1289 32.335 22.9664 32.2706L17.3878 13.4099L19.4547 13.4983L28.7991 12.2365L27.6244 31.8051Z" fill="#33E39B"/>
<path opacity="0.75" d="M24.7224 13.7606L21.2374 13.6116L18.3707 16.8458L18.9824 19.0608L22.3673 17.2798L24.7224 13.7606Z" fill="#33E39B"/>
<path opacity="0.75" d="M28.8028 12.2371L27.3888 35.0715L19.334 8.6819L20.3143 6.26406L26.438 9.23173L28.8028 12.2371Z" fill="#99F1CD"/>
</svg>
