<svg width="20" height="20" viewBox="0 0 20 20" fill="none" xmlns="http://www.w3.org/2000/svg">
<path fill-rule="evenodd" clip-rule="evenodd" d="M18.1616 5.01464H18.1794L18.2499 5.05002C18.3038 5.07707 18.3546 5.11 18.4013 5.14821L18.4066 5.15252L18.4384 5.1808C18.4883 5.22698 18.5322 5.27925 18.5692 5.33631L18.6229 5.41906V5.45379C18.633 5.47709 18.642 5.50086 18.6499 5.52503L18.6504 5.52659L18.6621 5.56181L18.6646 5.57087C18.6831 5.6389 18.6927 5.70903 18.6932 5.77952L18.6932 5.78197L18.6932 14.5058C18.697 14.655 18.6598 14.8025 18.5857 14.9321C18.5106 15.0636 18.4004 15.1716 18.2676 15.2442L18.2577 15.2496L10.37 18.8912C10.2629 18.9404 10.1458 18.9662 10.0278 18.9662C9.90992 18.9662 9.79339 18.9407 9.68623 18.8915L1.80824 15.2543C1.66621 15.1886 1.54573 15.0834 1.46161 14.9514C1.37758 14.8196 1.33308 14.6664 1.33338 14.5101L1.33338 5.77952C1.33378 5.72577 1.33947 5.67224 1.35035 5.61968V5.57663L1.36654 5.52659C1.37454 5.50189 1.3837 5.47759 1.39399 5.45379V5.41906L1.44766 5.33631C1.48467 5.27925 1.52865 5.22702 1.57858 5.18084L1.58345 5.17642L1.61035 5.15252L1.61561 5.14821C1.66229 5.11001 1.71306 5.07707 1.76698 5.05002L1.83752 5.01464H1.85533L9.66683 1.40822C9.77399 1.35899 9.89052 1.3335 10.0085 1.3335C10.1264 1.3335 10.2435 1.35924 10.3506 1.40848L18.1616 5.01464ZM9.99754 3.05282L15.9196 5.78197L9.99754 8.51113L4.07547 5.78197L9.99754 3.05282ZM2.93835 13.9867V7.05909L9.17929 9.93531V16.8629L2.93835 13.9867ZM10.8158 16.8629L17.0567 13.9867V7.05909L10.8158 9.93531V16.8629Z" fill="white"/>
</svg>
