<svg width="20" height="20" viewBox="0 0 20 20" fill="none" xmlns="http://www.w3.org/2000/svg">
<path d="M7.49996 2.5C5.19877 2.5 3.33329 4.36548 3.33329 6.66667C3.33329 8.96785 5.19877 10.8333 7.49996 10.8333C9.80115 10.8333 11.6666 8.96785 11.6666 6.66667C11.6666 4.36548 9.80115 2.5 7.49996 2.5ZM4.99996 6.66667C4.99996 5.28595 6.11925 4.16667 7.49996 4.16667C8.88067 4.16667 9.99996 5.28595 9.99996 6.66667C9.99996 8.04738 8.88067 9.16667 7.49996 9.16667C6.11925 9.16667 4.99996 8.04738 4.99996 6.66667Z" fill="white"/>
<path d="M14.0903 6.84857C13.8559 6.72903 13.5965 6.66672 13.3333 6.66672V5.00005C13.8596 5.00005 14.3785 5.12464 14.8474 5.36371C14.899 5.39004 14.9499 5.41768 15 5.44658C15.4045 5.68011 15.7559 5.99641 16.031 6.37546C16.3402 6.80143 16.5441 7.29456 16.626 7.81447C16.7079 8.33439 16.6656 8.86631 16.5024 9.36671C16.3392 9.86711 16.0599 10.3218 15.6872 10.6934C15.3146 11.0651 14.8592 11.3433 14.3584 11.5051C13.9127 11.6492 13.4423 11.6975 12.9779 11.6477C12.9204 11.6415 12.863 11.6338 12.8058 11.6247C12.2865 11.5414 11.7942 11.3365 11.3692 11.0266L11.3684 11.0259L12.3508 9.67964C12.5634 9.83476 12.8097 9.93731 13.0696 9.97895C13.3294 10.0206 13.5954 10.0001 13.8458 9.91919C14.0962 9.83826 14.3239 9.69919 14.5102 9.51335C14.6965 9.32752 14.8362 9.1002 14.9178 8.85001C14.9994 8.59981 15.0206 8.33386 14.9796 8.07391C14.9386 7.81396 14.8367 7.56741 14.6821 7.35443C14.5276 7.14145 14.3248 6.9681 14.0903 6.84857Z" fill="white"/>
<path d="M16.665 17.5C16.665 17.0625 16.5789 16.6292 16.4114 16.225C16.244 15.8208 15.9986 15.4535 15.6892 15.1441C15.3798 14.8347 15.0125 14.5893 14.6083 14.4219C14.2041 14.2544 13.7708 14.1682 13.3333 14.1682V12.5C13.9017 12.5 14.4653 12.5969 15 12.786C15.0829 12.8153 15.1652 12.8468 15.2467 12.8806C15.8533 13.1319 16.4045 13.5002 16.8688 13.9645C17.3331 14.4288 17.7014 14.98 17.9527 15.5866C17.9864 15.6681 18.018 15.7504 18.0473 15.8333C18.2364 16.368 18.3333 16.9316 18.3333 17.5H16.665Z" fill="white"/>
<path d="M13.3333 17.5H11.6666C11.6666 15.1988 9.80115 13.3333 7.49996 13.3333C5.19877 13.3333 3.33329 15.1988 3.33329 17.5H1.66663C1.66663 14.2783 4.2783 11.6667 7.49996 11.6667C10.7216 11.6667 13.3333 14.2783 13.3333 17.5Z" fill="white"/>
</svg>
