<svg width="20" height="20" viewBox="0 0 20 20" fill="none" xmlns="http://www.w3.org/2000/svg">
<path d="M13.3333 1.6665C14.2538 1.6665 15 2.4127 15 3.33317L3.33329 3.33317L3.33329 12.6469C2.41282 12.6469 1.66663 11.9007 1.66663 10.9802V3.33317C1.66663 2.41269 2.41282 1.6665 3.33329 1.6665H13.3333Z" fill="white"/>
<path d="M11.6666 18.3332L9.4444 15.9802H6.66663C5.74615 15.9802 4.99996 15.234 4.99996 14.3136V6.6665C4.99996 5.74603 5.74615 4.99984 6.66663 4.99984H16.6666C17.5871 4.99984 18.3333 5.74603 18.3333 6.6665V14.3136C18.3333 15.234 17.5871 15.9802 16.6666 15.9802H13.8888L11.6666 18.3332ZM13.1704 14.3136L16.6666 14.3136V6.6665L6.66663 6.6665V14.3136H10.1628L11.6666 15.9058L13.1704 14.3136Z" fill="white"/>
</svg>
