<svg width="20" height="20" viewBox="0 0 20 20" fill="none" xmlns="http://www.w3.org/2000/svg">
<path d="M8.95834 18.3333H4.0975C3.13875 18.3324 2.36175 17.5554 2.36084 16.5966V8.5133C1.68018 8.03028 1.46826 7.11457 1.8675 6.38163C2.6175 5.04163 3.3825 3.7208 4.135 2.45497C4.43681 1.9608 4.97599 1.66147 5.555 1.66657C5.90793 1.67015 6.25124 1.78216 6.53834 1.98747L6.55834 1.99997C6.90167 2.19997 10.2183 4.17413 12.8842 5.75997L15.25 7.16663L15.3583 7.2308C17.2067 8.3233 17.6225 8.57163 17.6458 8.58747C18.3263 9.06922 18.5355 9.98561 18.1317 10.715C17.3958 12.0291 16.6317 13.35 15.8642 14.6416C15.5663 15.1305 15.0366 15.4303 14.4642 15.4341C14.352 15.4342 14.2402 15.4216 14.1308 15.3966C14.0342 15.4541 13.5008 15.7966 12.825 16.23C11.6225 17.0008 9.97917 18.055 9.78917 18.1525C9.53282 18.2844 9.24633 18.3468 8.95834 18.3333ZM3.75 10.8583V16.5966C3.75 16.7886 3.90558 16.9441 4.0975 16.9441H7.28334C6.0725 14.9 4.88417 12.8516 3.75 10.8583ZM4.88167 10.025C5.215 10.5975 8.81167 16.8016 8.84167 16.8433C8.88905 16.9048 8.96233 16.9409 9.04 16.9408C9.08097 16.9408 9.12132 16.9308 9.1575 16.9116C9.27 16.8483 12.6525 14.675 12.6858 14.6533C12.4242 14.4991 10.5308 13.3708 8.52584 12.1766L4.865 9.99997L4.87084 10.0091L4.87917 10.0233V10.0283L4.88167 10.025ZM5.27667 3.24997C4.60334 4.3333 3.09667 7.0233 3.07667 7.07247C3.02726 7.19051 3.07109 7.32695 3.18 7.39413C3.29084 7.45997 14.3083 14.0241 14.4133 14.0408C14.4267 14.0418 14.44 14.0418 14.4533 14.0408C14.5439 14.0411 14.628 13.994 14.675 13.9166C15.3533 12.7775 16.9158 10.0358 16.92 10.0275C16.9683 9.90894 16.9243 9.77287 16.8158 9.70497C16.71 9.64163 5.71334 3.10663 5.6425 3.0758C5.61031 3.06224 5.57576 3.05516 5.54084 3.05497C5.45308 3.05544 5.37141 3.09988 5.32334 3.1733L5.3175 3.1833L5.31084 3.1933L5.30084 3.20997V3.21413L5.28834 3.23413L5.27584 3.24997H5.27667ZM6.40417 7.82497C5.63796 7.8245 5.01698 7.2034 5.01667 6.43719C5.01637 5.67097 5.63685 5.04937 6.40306 5.0483C7.16927 5.04723 7.7915 5.66709 7.79334 6.4333C7.79242 7.20014 7.171 7.82155 6.40417 7.82247V7.82497Z" fill="white"/>
</svg>
