<svg width="20" height="20" viewBox="0 0 20 20" fill="none" xmlns="http://www.w3.org/2000/svg">
<path d="M9.99996 18.3332C5.39759 18.3332 1.66663 14.6022 1.66663 9.99984C1.66663 5.39746 5.39759 1.6665 9.99996 1.6665C14.6023 1.6665 18.3333 5.39746 18.3333 9.99984C18.3282 14.6001 14.6002 18.3281 9.99996 18.3332ZM3.33329 10.1432C3.37272 13.8109 6.36755 16.7578 10.0354 16.7382C13.7033 16.7184 16.6662 13.7394 16.6662 10.0715C16.6662 6.40359 13.7033 3.42465 10.0354 3.40484C6.36755 3.38522 3.37272 6.33214 3.33329 9.99984V10.1432ZM8.33329 13.7498V6.24984L13.3333 9.99984L8.33329 13.7498Z" fill="white"/>
</svg>
