<svg xmlns="http://www.w3.org/2000/svg" aria-hidden="true" class="svg-inline--fa fa-long-arrow-right fa-w-14" data-icon="long-arrow-right" data-prefix="fad" focusable="false" role="img" viewBox="0 0 448 512"><g class="fa-group"><path fill="currentColor" d="M319.91 292H24a24 24 0 0 1-24-24v-24a24 24 0 0 1 24-24h295.91l35.66 36z" class="fa-secondary" opacity=".4"/><path fill="currentColor" d="M305.44 103.05L441 238.54l.06.06a25.23 25.23 0 0 1 0 34.84l-.06.06L305.44 409a24 24 0 0 1-33.94 0l-17-17a24 24 0 0 1 0-33.94L355.57 256 254.5 154a24 24 0 0 1 0-33.94l17-17a24 24 0 0 1 33.94-.01z" class="fa-primary"/></g></svg>