<svg xmlns="http://www.w3.org/2000/svg" fill="none" class="overflow-visible" viewBox="0 0 52 56"><path fill="currentColor" d="M60.7927 6.73156L55.6246 1.57158C54.8484 0.79959 53.7974 0.36615 52.7017 0.36615C51.6061 0.36615 50.5551 0.79959 49.7788 1.57158L46.0298 5.31468C45.8366 5.50847 45.7281 5.7708 45.7281 6.04426C45.7281 6.31772 45.8366 6.58005 46.0298 6.77385L55.5823 16.3114C55.7764 16.5043 56.0391 16.6126 56.313 16.6126C56.5869 16.6126 56.8496 16.5043 57.0437 16.3114L60.7927 12.5683C61.5659 11.7932 62 10.7438 62 9.6499C62 8.55598 61.5659 7.50661 60.7927 6.73156ZM46.2734 31.8336L42.0373 36.0631C41.8021 36.3036 41.6692 36.6257 41.6666 36.9618V47.7259H7.77777V13.89H32.1142C32.4509 13.8874 32.7735 13.7548 33.0144 13.5199L37.2505 9.2904C37.4289 9.11293 37.5504 8.88657 37.5997 8.64003C37.649 8.39348 37.6238 8.13787 37.5274 7.90564C37.4309 7.6734 37.2676 7.47501 37.058 7.33563C36.8484 7.19625 36.6021 7.12217 36.3503 7.12278H6.08333C4.73515 7.12278 3.44218 7.65751 2.48887 8.60933C1.53556 9.56115 1 10.8521 1 12.1982L1 49.4177C1 50.7638 1.53556 52.0547 2.48887 53.0065C3.44218 53.9583 4.73515 54.4931 6.08333 54.4931H43.3611C44.7093 54.4931 46.0022 53.9583 46.9555 53.0065C47.9089 52.0547 48.4444 50.7638 48.4444 49.4177V32.7323C48.445 32.4809 48.3708 32.235 48.2312 32.0258C48.0916 31.8165 47.8929 31.6534 47.6603 31.5571C47.4277 31.4608 47.1717 31.4357 46.9248 31.4849C46.6779 31.5341 46.4512 31.6555 46.2734 31.8336Z"/><path fill="currentColor" d="M53.1889 18.6905C53.3821 18.8843 53.4906 19.1466 53.4906 19.4201C53.4906 19.6935 53.3821 19.9558 53.1889 20.1496L30.0598 43.2427L20.232 44.3317C19.9246 44.3662 19.6134 44.3311 19.3214 44.2291C19.0294 44.127 18.7642 43.9606 18.5455 43.7422C18.3268 43.5239 18.1601 43.2591 18.0579 42.9676C17.9557 42.6761 17.9205 42.3653 17.9551 42.0584L19.0459 32.246L42.175 9.15296C42.3691 8.96003 42.6319 8.85172 42.9058 8.85172C43.1796 8.85172 43.4424 8.96003 43.6365 9.15296L53.1889 18.6905Z" opacity=".4"/></svg>