<svg xmlns="http://www.w3.org/2000/svg" class="nui-svg nui-svg-gh" viewBox="0 0 24 24"><path fill="currentColor" d="M19.2286 5.77414C17.4971 4.26821 14.7593 4.0131 14.6436 4.00228C14.4607 3.98527 14.2871 4.09737 14.2121 4.27826C14.2093 4.28445 14.0564 4.76452 13.9086 5.22758C15.9207 5.6087 17.2879 6.45443 17.3607 6.50081C17.7021 6.71572 17.8164 7.18961 17.6171 7.55836C17.485 7.80419 17.2457 7.9418 17 7.9418C16.8779 7.9418 16.755 7.90856 16.6421 7.83744C16.6221 7.82429 14.6164 6.58894 12.0014 6.58894C9.38571 6.58894 7.37929 7.82507 7.35929 7.83744C7.01857 8.05157 6.58143 7.92556 6.38357 7.55604C6.18571 7.18806 6.30071 6.71572 6.64071 6.50081C6.71357 6.45443 8.08571 5.60561 10.1036 5.22526C9.94786 4.75679 9.79071 4.28445 9.78786 4.27826C9.71286 4.09659 9.53929 3.98218 9.35643 4.00228C9.24071 4.01233 6.50286 4.26744 4.74857 5.79424C3.83143 6.71109 2 12.0715 2 16.706C2 16.7879 2.01929 16.8676 2.05714 16.9387C3.32214 19.3429 6.77071 19.9722 7.55643 19.9992C7.56143 20 7.56571 20 7.57 20C7.70857 20 7.83929 19.9281 7.92143 19.8067L8.77143 18.5606C6.90714 18.0743 5.92143 17.3097 5.86214 17.2626C5.545 17.0098 5.47643 16.5259 5.71 16.1819C5.94286 15.8394 6.38857 15.7636 6.70571 16.0149C6.73214 16.0334 8.55143 17.4118 12 17.4118C15.4621 17.4118 17.2764 16.028 17.2943 16.0141C17.6114 15.7652 18.0586 15.8402 18.2907 16.1849C18.5221 16.5282 18.455 17.009 18.1393 17.261C18.08 17.3082 17.0993 18.0712 15.2393 18.5575L16.0786 19.806C16.1607 19.9281 16.2914 19.9992 16.43 19.9992C16.435 19.9992 16.4393 19.9992 16.4436 19.9985C17.23 19.9714 20.6786 19.3421 21.9429 16.9379C21.9807 16.8668 22 16.7872 22 16.7052C22 12.0715 20.1686 6.71109 19.2286 5.77414ZM9.14244 15.0924C8.35315 15.0924 7.71387 14.2273 7.71387 13.1597C7.71387 12.0921 8.35315 11.2271 9.14244 11.2271C9.93172 11.2271 10.571 12.0921 10.571 13.1597C10.571 14.2273 9.93172 15.0924 9.14244 15.0924ZM14.8573 15.0924C14.068 15.0924 13.4287 14.2273 13.4287 13.1597C13.4287 12.0921 14.068 11.2271 14.8573 11.2271C15.6466 11.2271 16.2859 12.0921 16.2859 13.1597C16.2859 14.2273 15.6466 15.0924 14.8573 15.0924Z"/></svg>