<svg xmlns="http://www.w3.org/2000/svg" class="nui-svg nui-svg-gh" viewBox="0 0 24 24"><path fill="currentColor" d="M12.0413 2C6.51857 2 2 6.6123 2 12.2495C2 16.7764 4.84503 20.62 8.86153 21.9866C9.3636 22.072 9.53095 21.7304 9.53095 21.4741C9.53095 21.2179 9.53095 20.62 9.53095 19.7659C6.7696 20.3638 6.18386 18.3993 6.18386 18.3993C5.76547 17.2035 5.09606 16.8618 5.09606 16.8618C4.09193 16.264 5.09606 16.264 5.09606 16.264C6.10018 16.3494 6.60225 17.2889 6.60225 17.2889C7.5227 18.8263 8.94521 18.3993 9.53095 18.143C9.61463 17.4597 9.86566 17.0327 10.2004 16.7764C7.94108 16.5202 5.59812 15.6661 5.59812 11.7371C5.59812 10.6267 6.01651 9.68716 6.60225 9.00386C6.60225 8.66221 6.18386 7.63725 6.7696 6.27065C6.7696 6.27065 7.60637 6.01441 9.53095 7.2956C10.3677 7.03936 11.2045 6.95395 12.0413 6.95395C12.878 6.95395 13.7148 7.03936 14.5516 7.2956C16.4762 5.92899 17.3129 6.27065 17.3129 6.27065C17.8987 7.72267 17.4803 8.74762 17.3966 9.00386C18.066 9.68716 18.4007 10.6267 18.4007 11.7371C18.4007 15.6661 16.0578 16.5202 13.7985 16.7764C14.1332 17.1181 14.4679 17.716 14.4679 18.6555C14.4679 20.0221 14.4679 21.1325 14.4679 21.4741C14.4679 21.7304 14.6353 22.072 15.1373 21.9866C19.1538 20.62 21.9989 16.7764 21.9989 12.2495C22.0825 6.6123 17.564 2 12.0413 2Z"/></svg>