<svg xmlns="http://www.w3.org/2000/svg" width="16" height="16" class="fill-current"><path fill-rule="nonzero" d="M8 0C3.58064516 0 0 3.58064516 0 8c0 4.4193548 3.58064516 8 8 8 4.4193548 0 8-3.5806452 8-8 0-4.41935484-3.5806452-8-8-8zm6.2322581 4.90322581h-2.6612904c-.2903225-1.43225807-.7774193-2.65161291-1.3935483-3.51935484 1.7741935.58709677 3.232258 1.86774193 4.0548387 3.51935484zM10.8387097 8c0 .73870968-.0516129 1.42580645-.1387097 2.0645161H5.3C5.21290323 9.42580645 5.16129032 8.73870968 5.16129032 8c0-.73870968.05161291-1.42580645.13870968-2.06451613h5.4c.0870968.63870968.1387097 1.32580645.1387097 2.06451613zM8 1.03225806c.86774194 0 1.98064516 1.42258065 2.5193548 3.87096775H5.48064516C6.01935484 2.45483871 7.13225806 1.03225806 8 1.03225806zm-2.17741935.35161291c-.61290323.86451613-1.10322581 2.08387097-1.39354839 3.51935484H1.76774194C2.59032258 3.2516129 4.0483871 1.97096774 5.82258065 1.38387097zM1.03225806 8c0-.71935484.10967742-1.41290323.31290323-2.06451613h2.91935484C4.18064516 6.59677419 4.12903226 7.28387097 4.12903226 8c0 .71612903.04838709 1.40322581.13548387 2.0645161H1.34516129C1.14193548 9.41290323 1.03225806 8.71935484 1.03225806 8zm.73548388 3.0967742h2.66129032c.29032258 1.4322581.77741935 2.6516129 1.39354839 3.5193548-1.77419355-.5870967-3.23225807-1.8677419-4.05483871-3.5193548zM8 14.9677419c-.86774194 0-1.98064516-1.4225806-2.51935484-3.8709677h5.03870964C9.98064516 13.5451613 8.86774194 14.9677419 8 14.9677419zm2.1774194-.3516129c.6129032-.8645161 1.1032258-2.0838709 1.3935483-3.5193548h2.6612904c-.8225807 1.6516129-2.2806452 2.9322581-4.0548387 3.5193548zm1.5580645-4.5516129c.0838709-.66129029.1354838-1.34838707.1354838-2.0645161s-.0483871-1.40322581-.1354838-2.06451613h2.9193548c.2032258.6516129.3129032 1.34516129.3129032 2.06451613 0 .71935484-.1096774 1.41290323-.3129032 2.0645161h-2.9193548z"/></svg>