<svg xmlns="http://www.w3.org/2000/svg" class="nui-svg nui-svg-gh" viewBox="0 0 24 24">
<path fill="currentColor" d="M12.0001 3.80176C14.6701 3.80176 14.9868 3.81176 16.0409 3.86009C17.1793 3.91176 18.2351 4.14009 19.0476 4.95259C19.8601 5.76509 20.0884 6.82092 20.1401 7.95926C20.1884 9.01342 20.1984 9.33009 20.1984 12.0001C20.1984 14.6701 20.1884 14.9868 20.1401 16.0409C20.0884 17.1793 19.8601 18.2351 19.0476 19.0476C18.2351 19.8601 17.1793 20.0884 16.0409 20.1401C14.9868 20.1884 14.6701 20.1984 12.0001 20.1984C9.33009 20.1984 9.01342 20.1884 7.95926 20.1401C6.82092 20.0884 5.76509 19.8601 4.95259 19.0476C4.14009 18.2351 3.91176 17.1793 3.86009 16.0409C3.81176 14.9868 3.80176 14.6701 3.80176 12.0001C3.80176 9.33009 3.81176 9.01342 3.86009 7.95926C3.91176 6.82092 4.14009 5.76509 4.95259 4.95259C5.76509 4.14009 6.82092 3.91176 7.95926 3.86009C9.01342 3.81176 9.33009 3.80176 12.0001 3.80176ZM12 2C9.28417 2 8.94333 2.01167 7.87667 2.06C6.25167 2.13417 4.82417 2.5325 3.67833 3.67833C2.5325 4.82417 2.13417 6.25167 2.06 7.87667C2.01167 8.94333 2 9.28417 2 12C2 14.7158 2.01167 15.0567 2.06 16.1233C2.13417 17.7483 2.5325 19.1758 3.67833 20.3217C4.82417 21.4675 6.25167 21.8658 7.87667 21.94C8.94333 21.9883 9.28417 22 12 22C14.7158 22 15.0567 21.9883 16.1233 21.94C17.7483 21.8658 19.1758 21.4675 20.3217 20.3217C21.4675 19.1758 21.8658 17.7483 21.94 16.1233C21.9883 15.0567 22 14.7158 22 12C22 9.28417 21.9883 8.94333 21.94 7.87667C21.8658 6.25167 21.4675 4.82417 20.3217 3.67833C19.1758 2.5325 17.7483 2.13417 16.1233 2.06C15.0567 2.01167 14.7158 2 12 2Z"/>
<path fill="currentColor" d="M12.0002 6.86499C9.1644 6.86499 6.86523 9.16416 6.86523 12C6.86523 14.8358 9.1644 17.135 12.0002 17.135C14.8361 17.135 17.1352 14.8358 17.1352 12C17.1352 9.16416 14.8361 6.86499 12.0002 6.86499ZM12.0005 15.3333C10.1597 15.3333 8.66715 13.8408 8.66715 12C8.66715 10.1592 10.1597 8.66667 12.0005 8.66667C13.8413 8.66667 15.3338 10.1592 15.3338 12C15.3338 13.8408 13.8413 15.3333 12.0005 15.3333Z"/>
<circle cx="17.3387" cy="6.66167" r="1.2" fill="currentColor"/>
</svg>