<svg xmlns="http://www.w3.org/2000/svg" aria-hidden="true" class="svg-inline--fa fa-meteor fa-w-16" data-icon="meteor" data-prefix="fad" focusable="false" role="img" viewBox="0 0 512 512"><g class="fa-group"><path fill="currentColor" d="M491.14.7C452.44 12.3 379.34 35 303.44 62c-2.1-7-4-13.5-5.6-18.6a16.06 16.06 0 0 0-20-10.69 16.6 16.6 0 0 0-2.86 1.19C232.54 56 122.14 116.5 60.54 176.4c-1.1 1-2.5 2-3.5 3C-19 255.5-19 378.87 57.09 455s199.48 76 275.55-.1c1-1 2-2.4 3-3.5C395.44 389.8 456 279.3 478.14 237a16.05 16.05 0 0 0-6.64-21.72 15.52 15.52 0 0 0-2.86-1.18c-5.2-1.6-11.6-3.5-18.6-5.6 27-76 49.7-149 61.3-187.7A16.17 16.17 0 0 0 491.14.7zM191.94 448a128 128 0 1 1 128-128 128 128 0 0 1-128 128z" class="fa-secondary" opacity=".4"/><path fill="currentColor" d="M191.94 192a128 128 0 1 0 128 128 128 128 0 0 0-128-128zm-32 128a32 32 0 1 1 32-32 32 32 0 0 1-32 32zm48 64a16 16 0 1 1 16-16 16 16 0 0 1-16 16z" class="fa-primary"/></g></svg>