<svg xmlns="http://www.w3.org/2000/svg" class="nui-svg nui-svg-opencollective" viewBox="0 0 16 16"><g fill="#FFF" fill-rule="evenodd"><path d="M13.2681488 7.96995162c0 .96114293-.2791426 1.88223828-.7576726 2.64314308l1.9539979 1.9623336c.9570602-1.281524 1.5552228-2.88342891 1.5552228-4.60547668 0-1.72204781-.5981626-3.32395272-1.5552228-4.60547667L12.5104762 5.3268085c.47853.76090483.7576726 1.64195253.7576726 2.64314312z"/><path d="M8.40517516 12.8557616c-2.67179306 0-4.86505604-2.2026192-4.86505604-4.88580998 0-2.68319074 2.19326298-4.88581003 4.86505604-4.88581003.99693772 0 1.8742429.28033336 2.63191554.80095247l1.9539979-1.96233354C11.7150083.96161757 10.11990804.36090322 8.40517516.36090322c-4.18713839 0-7.61660412 3.40404796-7.61660412 7.64909602s3.42946573 7.60904836 7.61660412 7.60904836c1.75461036 0 3.34971074-.6007143 4.62579094-1.5618573l-1.9539979-1.9623335c-.75767262.4805715-1.67485532.7609048-2.67179304.7609048z"/></g></svg>