<svg xmlns="http://www.w3.org/2000/svg" class="nui-svg nui-svg-gh" viewBox="0 0 24 24">
<path fill="currentColor" d="M22 5.89691C21.25 6.2268 20.5 6.47423 19.6667 6.5567C20.5 6.06186 21.1667 5.23711 21.5 4.3299C20.6667 4.82474 19.8333 5.15464 18.9167 5.31959C18.1667 4.49485 17.0833 4 15.9167 4C13.6667 4 11.8333 5.81443 11.8333 8.04124C11.8333 8.37113 11.8333 8.70103 11.9167 8.94845C8.41667 8.7835 5.41667 7.13402 3.41667 4.65979C3 5.31959 2.83333 5.97938 2.83333 6.72165C2.83333 8.12371 3.58333 9.36082 4.66667 10.1031C4 10.1031 3.33333 9.93814 2.83333 9.60825C2.83333 9.60825 2.83333 9.60825 2.83333 9.69072C2.83333 11.6701 4.25 13.3196 6.08333 13.6495C5.75 13.732 5.41667 13.8144 5 13.8144C4.75 13.8144 4.5 13.8144 4.25 13.732C4.75 15.3814 6.25 16.5361 8.08333 16.5361C6.66667 17.6082 4.91667 18.268 3 18.268C2.66667 18.268 2.33333 18.268 2 18.1856C3.83333 19.3402 6 20 8.25 20C15.8333 20 19.9167 13.8144 19.9167 8.45361C19.9167 8.28866 19.9167 8.12371 19.9167 7.95876C20.75 7.38144 21.4167 6.63918 22 5.89691Z"/>
</svg>
