<svg xmlns="http://www.w3.org/2000/svg" fill="none" viewBox="0 0 25 25"><path fill="currentColor" d="M12.7227 24.3662C19.2874 24.3662 24.7227 18.9309 24.7227 12.3662C24.7227 5.81327 19.2756 0.366211 12.7109 0.366211C6.15795 0.366211 0.722656 5.81327 0.722656 12.3662C0.722656 18.9309 6.16972 24.3662 12.7227 24.3662ZM12.7227 22.3662C7.16972 22.3662 2.73442 17.9192 2.73442 12.3662C2.73442 6.82503 7.15795 2.36621 12.7109 2.36621C18.2638 2.36621 22.7109 6.82503 22.7227 12.3662C22.7344 17.9192 18.2756 22.3662 12.7227 22.3662ZM8.69913 17.3544C8.95795 17.3544 9.20501 17.2486 9.36972 17.0603L12.7109 13.7074L16.0638 17.0603C16.2403 17.2368 16.4638 17.3544 16.7344 17.3544C17.2521 17.3544 17.6756 16.9192 17.6756 16.4015C17.6756 16.1309 17.5815 15.9074 17.3932 15.7309L14.0521 12.3897L17.405 9.02503C17.605 8.82503 17.6874 8.62503 17.6874 8.36621C17.6874 7.8368 17.2638 7.42503 16.7462 7.42503C16.4991 7.42503 16.2991 7.50739 16.0991 7.70739L12.7109 11.0721L9.34619 7.71915C9.18148 7.53092 8.95795 7.44856 8.69913 7.44856C8.18148 7.44856 7.75795 7.84856 7.75795 8.37798C7.75795 8.6368 7.85207 8.86033 8.0403 9.0368L11.3815 12.3897L8.0403 15.7427C7.85207 15.9074 7.75795 16.1427 7.75795 16.4015C7.75795 16.9192 8.18148 17.3544 8.69913 17.3544Z"/></svg>