<svg xmlns="http://www.w3.org/2000/svg" class="nui-svg nui-svg-gh" viewBox="0 0 24 24">
<path fill="currentColor" d="M21.8336 8.00004C21.8336 8.00004 21.6669 6.58336 21.0003 6.00001C20.2503 5.16667 19.4169 5.16667 19.0002 5.16667C16.1669 5 12.0001 5 12.0001 5C12.0001 5 7.83341 5 5.00004 5.16667C4.58337 5.25 3.75002 5.25 3.00001 6.00001C2.41667 6.58336 2.16667 8.00004 2.16667 8.00004C2.16667 8.00004 2 9.5834 2 11.2501V12.7501C2 14.3335 2.16667 16.0002 2.16667 16.0002C2.16667 16.0002 2.33334 17.4168 3.00001 18.0002C3.75002 18.8335 4.75004 18.7502 5.16671 18.8335C6.75007 19.0002 12.0001 19.0002 12.0001 19.0002C12.0001 19.0002 16.1669 19.0002 19.0002 18.7502C19.4169 18.6669 20.2503 18.6669 21.0003 17.9168C21.5836 17.3335 21.8336 15.9168 21.8336 15.9168C21.8336 15.9168 22.0003 14.3335 22.0003 12.6668V11.1668C22.0003 9.5834 21.8336 8.00004 21.8336 8.00004ZM9.91664 14.5835V9.0001L15.3334 11.8335L9.91664 14.5835Z"/>
</svg>
