<svg fill="none" height="20" viewBox="0 0 95 20" width="95" xmlns="http://www.w3.org/2000/svg"><g fill="#fff"><path d="m38.693 4.908c.5509.20054 1.0522.51735 1.4698.92889s.7417.90816.9502 1.45611c.24.608.353 1.274.342 1.929v6.498h-2.796v-5.984c0-.806-.193-1.426-.568-1.858-.375-.433-.954-.655-1.739-.655-.338-.00662-.6731.06356-.98.20526-.307.14169-.5778.3512-.792.61274-.478.55-.705 1.274-.705 2.186v5.482h-2.807v-5.973c0-.806-.193-1.426-.568-1.858-.375-.433-.954-.655-1.738-.655-.3382-.00677-.6735.06334-.9806.20504s-.5781.35129-.7924.61296c-.477.55-.705 1.274-.705 2.186v5.482h-2.795v-10.824h2.795v.819c.3563-.34173.7776-.60835 1.239-.784.5639-.22405 1.1663-.33515 1.773-.327.7565-.01345 1.5086.11756 2.216.386.625.257 1.17.69 1.556 1.25.41-.502.91-.9 1.489-1.168.636-.316 1.398-.48 2.284-.48.625 0 1.261.117 1.852.328zm12.091.118c.68.27102 1.2984.67644 1.818 1.192.512.514.92 1.134 1.194 1.812.295.724.443 1.496.431 2.279.0122.7771-.1344 1.5486-.431 2.267-.2776.6717-.6831 1.2831-1.194 1.8-.5196.5159-1.1379.9217-1.818 1.193-1.4609.5726-3.0841.5726-4.545 0-.6801-.2713-1.2984-.6771-1.818-1.193-.5146-.5139-.9206-1.1261-1.194-1.8-.2955-.7187-.4421-1.49-.431-2.267-.0113-.78127.1353-1.55677.431-2.28.2736-.67733.6799-1.29308 1.195-1.811.5197-.51556 1.138-.92098 1.818-1.192 1.4609-.57264 3.0841-.57264 4.545 0zm-3.432 2.442c-.34.151-.659.362-.931.63-.2691.27984-.4814.60927-.625.97-.149.40034-.2262.82383-.228 1.251 0 .421.069.842.228 1.24.136.362.352.689.625.958.2732.275.598.4932.9559.6421.3578.1489.7415.2255 1.1291.2255s.7713-.0766 1.1292-.2255c.3578-.1489.6827-.3671.9558-.6421.2715-.2738.4842-.6001.625-.959.148-.397.227-.818.227-1.239 0-.432-.068-.853-.227-1.25-.1393-.36292-.3521-.69315-.625-.97-.4175-.41287-.9477-.69307-1.5241-.80535-.5763-.11227-1.1729-.05161-1.7149.17435zm11.5 8.264-4.863-10.834h3.08l3.147 6.978 3.148-6.99h2.977l-4.864 10.835zm7.728-7.55c.2363-.66824.5947-1.28674 1.057-1.824.4706-.53669 1.047-.97042 1.693-1.274.7122-.32707 1.4884-.49105 2.272-.48.58 0 1.17.094 1.716.293.512.175.978.456 1.364.842v-.842h2.795v10.835h-2.795v-.818c-.3819.3815-.8496.6661-1.364.83-1.3061.4442-2.7326.373-3.988-.199-.6465-.2974-1.2233-.7273-1.693-1.262-.4645-.5312-.8232-1.1462-1.057-1.812-.4887-1.3882-.4887-2.90175 0-4.29zm2.636 3.307c.136.363.33.69.58.982.25.28.545.514.886.666.364.164.75.246 1.136.246.375 0 .739-.07 1.091-.199.3527-.1268.6771-.3215.955-.573.295-.257.523-.584.682-.946.179-.4252.2643-.8839.25-1.345.0096-.46039-.0755-.91785-.25-1.344-.1615-.36141-.3934-.68707-.682-.958-.2755-.25754-.6004-.45655-.955-.585-.3456-.12872-.7112-.19574-1.08-.198-.3934-.00348-.7823.0845-1.136.257-.34.164-.647.397-.897.678-.773.912-1 2.197-.58 3.32zm14.136 4.243-4.863-10.834h3.08l3.147 6.978 3.148-6.99h2.977l-4.864 10.835zm11.523-15.732v3.132h-3.057v-3.132zm-.136 15.732h-2.797v-10.847h2.796v10.847z"/><path d="m9.046 8.05299c1.8325 0 3.318-1.52805 3.318-3.413s-1.4855-3.413-3.318-3.413c-1.83248 0-3.318 1.52805-3.318 3.413s1.48552 3.413 3.318 3.413z"/><path d="m9.046 19.835c1.8325 0 3.318-1.528 3.318-3.413 0-1.8849-1.4855-3.413-3.318-3.413-1.83248 0-3.318 1.5281-3.318 3.413 0 1.885 1.48552 3.413 3.318 3.413z"/><path d="m14.773 13.944c1.8325 0 3.318-1.528 3.318-3.413 0-1.88494-1.4855-3.41299-3.318-3.41299s-3.318 1.52805-3.318 3.41299c0 1.885 1.4855 3.413 3.318 3.413z"/><path d="m3.318 13.944c1.83248 0 3.318-1.528 3.318-3.413 0-1.88494-1.48552-3.41299-3.318-3.41299s-3.318 1.52805-3.318 3.41299c0 1.885 1.48552 3.413 3.318 3.413z"/></g></svg>