<svg width="150" height="150" viewBox="0 0 150 150" fill="none" xmlns="http://www.w3.org/2000/svg">
<mask id="mask0" mask-type="alpha" maskUnits="userSpaceOnUse" x="101" y="109" width="19" height="19">
<path d="M119.637 118.463C119.637 123.513 115.543 127.607 110.493 127.607C105.443 127.607 101.348 123.513 101.348 118.463C101.348 113.412 105.443 109.318 110.493 109.318C115.543 109.318 119.637 113.412 119.637 118.463Z" fill="#C4C4C4"/>
</mask>
<g mask="url(#mask0)">
<path d="M100.339 114.601C70.4827 134.303 68.3836 145.017 67.2113 146.32L75.9569 150.592L87.6577 165.209L157.607 102.496L156.85 90.6847L137.9 73.9867C136.511 79.2268 124.224 98.839 100.339 114.601Z" fill="#00DC82"/>
<path d="M111.81 120.921C115.602 127.991 124.124 120.627 124.449 120.828L127.403 117.831L113.041 103.656L109.062 105.611L101.801 114.311C103.409 114.016 108.777 115.266 111.81 120.921Z" fill="#003C3C"/>
</g>
<mask id="mask1" mask-type="alpha" maskUnits="userSpaceOnUse" x="66" y="109" width="19" height="19">
<path d="M84.7054 118.463C84.7054 123.513 80.6113 127.607 75.561 127.607C70.5106 127.607 66.4165 123.513 66.4165 118.463C66.4165 113.412 70.5106 109.318 75.561 109.318C80.6113 109.318 84.7054 113.412 84.7054 118.463Z" fill="#C4C4C4"/>
</mask>
<g mask="url(#mask1)">
<path d="M89.1792 117.594C39.2826 112.333 26.9928 118.909 24.5348 119.097L29.6965 128.116L28.2217 146.811H160.706L171.029 137.51L166.851 112.427C160.46 115.402 129.096 121.803 89.1792 117.594Z" fill="#003C3C"/>
<path d="M76.8225 117.139C84.2903 119.076 86.2253 117.093 86.5986 117.048L85.9291 114.199L86.3789 108.365L66.3808 107.588L64.7094 110.434L65.0354 118.298C66.0362 117.405 70.8482 115.589 76.8225 117.139Z" fill="#00DC82"/>
</g>
<mask id="mask2" mask-type="alpha" maskUnits="userSpaceOnUse" x="11" y="22" width="127" height="81">
<path fill-rule="evenodd" clip-rule="evenodd" d="M12.4581 38.2279C12.6332 39.0168 13.4146 39.5143 14.2034 39.3393L42.7737 32.9985L48.3447 55.937C48.3908 56.2579 48.452 56.5801 48.5287 56.903L57.4352 94.3954C58.5709 99.1763 62.8416 102.551 67.7556 102.551H118.481C123.395 102.551 127.666 99.1763 128.801 94.3954L137.708 56.903C139.291 50.2388 134.237 43.8438 127.388 43.8438H58.849C57.4382 43.8438 56.1036 44.1151 54.8875 44.6041L49.8137 23.7128C49.7501 23.4508 49.6196 23.2226 49.4448 23.0418C49.1038 22.6547 48.568 22.4601 48.0288 22.5798L12.2464 30.5213C11.4575 30.6963 10.96 31.4778 11.135 32.2666L12.4581 38.2279ZM61.8963 73.4626C61.9224 73.5701 61.9359 73.6776 61.9377 73.7837L66.3321 92.2819C66.4887 92.9413 67.0778 93.4068 67.7556 93.4068H118.481C119.159 93.4068 119.748 92.9413 119.905 92.2819L127.067 62.1327L127.068 62.1263L127.388 60.7818L128.811 54.7895C129.029 53.8703 128.332 52.9882 127.388 52.9882H121.229H119.847H119.84H66.3966H66.39H65.0081H58.849C57.9043 52.9882 57.2072 53.8703 57.4255 54.7895L58.849 60.7818L59.1684 62.1263L59.17 62.1327L60.3036 66.9048L61.8963 73.4626Z" fill="#C4C4C4"/>
</mask>
<g mask="url(#mask2)">
<path d="M64.3061 18.8384C14.4095 5.93816 2.1197 22.0634 -0.338257 22.5241L4.82346 44.6388L3.34868 90.4806H135.833L146.156 67.6748L141.978 6.16852C135.587 13.4633 104.223 29.1585 64.3061 18.8384Z" fill="#00DC82"/>
<path d="M75.4694 78.6842C65.5019 87.8062 46.6533 87.4344 44.1953 87.8062L49.5906 91.3036L49.5906 102.917L135.833 106.209V66.7049L141.978 38.1742C139.202 40.7313 131.525 42.3806 121.192 44.0266C112.112 45.473 92.4832 63.1136 75.4694 78.6842Z" fill="#003C3C"/>
</g>
</svg>
