<svg width="150" height="150" viewBox="0 0 150 150" fill="none" xmlns="http://www.w3.org/2000/svg">
<path d="M21 29.1C21 24.1294 25.0294 20.1 30 20.1H120C124.971 20.1 129 24.1294 129 29.1V120.6C129 125.571 124.971 129.6 120 129.6H30C25.0294 129.6 21 125.571 21 120.6V29.1Z" fill="#E6F0F0"/>
<path d="M30 35.589C30 32.1709 33.3579 29.4 37.5 29.4H112.5C116.642 29.4 120 32.1709 120 35.5891V98.511C120 101.929 116.642 104.7 112.5 104.7H37.5C33.3579 104.7 30 101.929 30 98.511V35.589Z" fill="white"/>
<path d="M96.5043 58.463C102.737 59.4045 107.512 69.676 110.475 79.2991C112.232 85.0048 107.417 90.302 101.46 89.8958C89.5757 89.0853 72.9756 88.3203 58.2735 88.6874C32.2973 89.3358 60.5332 57.9495 69.6069 69.5017C78.6805 81.0539 89.5065 57.4059 96.5043 58.463Z" fill="#00DC82"/>
<path d="M58.271 63.6161C50.4145 64.0277 42.5741 74.078 37.2277 83.3301C34.5831 87.9066 37.9289 93.4058 43.0233 93.4506C57.5206 93.5781 79.4367 94.1573 98.4378 95.8358C129.416 98.5724 101.43 66.046 88.4258 76.4351C75.422 86.8243 72.0481 62.8941 58.271 63.6161Z" fill="#003C3C"/>
<ellipse cx="45.0001" cy="42.3" rx="6.9" ry="6.9" fill="#5BE8AF"/>
</svg>
