<svg width="150" height="150" viewBox="0 0 150 150" fill="none" xmlns="http://www.w3.org/2000/svg">
<path d="M19.3821 27C19.3821 20.3726 24.7547 15 31.3821 15L118.618 15C125.245 15 130.618 20.3726 130.618 27V123C130.618 129.627 125.245 135 118.618 135H31.3821C24.7547 135 19.3821 129.627 19.3821 123L19.3821 27Z" fill="#E6F0F0"/>
<path d="M30 31.5C30 28.1863 32.6863 25.5 36 25.5H113.7C117.014 25.5 119.7 28.1863 119.7 31.5V118.8C119.7 122.114 117.014 124.8 113.7 124.8H36C32.6863 124.8 30 122.114 30 118.8V31.5Z" fill="white"/>
<path d="M37.9667 81.1321C37.9667 79.3628 39.401 77.9286 41.1702 77.9286H70.5846C72.3539 77.9286 73.7881 79.3628 73.7881 81.1321V111.42C73.7881 113.189 72.3539 114.624 70.5846 114.624H41.1702C39.401 114.624 37.9667 113.189 37.9667 111.42V81.1321Z" fill="#00DC82"/>
<path d="M37.9667 40.3597C37.9667 37.7862 40.0529 35.7 42.6264 35.7H69.1284C71.7019 35.7 73.7881 37.7862 73.7881 40.3597V63.367C73.7881 65.9405 71.7019 68.0267 69.1284 68.0267H42.6264C40.0529 68.0267 37.9667 65.9405 37.9667 63.367V40.3597Z" fill="#5BE8AF"/>
<path d="M84.855 38.9035C84.855 37.1343 86.2893 35.7 88.0585 35.7H108.736C110.505 35.7 111.939 37.1343 111.939 38.9035V111.42C111.939 113.189 110.505 114.624 108.736 114.624H88.0585C86.2893 114.624 84.855 113.189 84.855 111.42V38.9035Z" fill="#003C3C"/>
</svg>
